# Blender v2.93.0 OBJ File: ''
# www.blender.org
mtllib Bowl.mtl
o Bowl_Cylinder.036
v 0.000000 -0.214820 -0.296033
v 0.148017 -0.214820 -0.256372
v 0.256372 -0.214820 -0.148017
v 0.296033 -0.214820 0.000000
v 0.256372 -0.214820 0.148017
v 0.148017 -0.214820 0.256372
v 0.000000 -0.214820 0.296033
v -0.148017 -0.214820 0.256372
v -0.256372 -0.214820 0.148017
v -0.296033 -0.214820 0.000000
v -0.256372 -0.214820 -0.148016
v -0.148017 -0.214820 -0.256372
v 0.000000 -0.044118 -0.528654
v 0.264327 -0.044118 -0.457828
v 0.457828 -0.044118 -0.264327
v 0.528654 -0.044118 -0.000000
v 0.457828 -0.044118 0.264327
v 0.264327 -0.044118 0.457828
v 0.000000 -0.044118 0.528654
v -0.264327 -0.044118 0.457828
v -0.457828 -0.044118 0.264327
v -0.528654 -0.044118 0.000000
v -0.457828 -0.044118 -0.264327
v -0.264327 -0.044118 -0.457828
v 0.000000 -0.254617 -0.296033
v 0.148017 -0.254617 -0.256372
v 0.256372 -0.254617 -0.148017
v 0.296033 -0.254617 0.000000
v 0.256372 -0.254617 0.148017
v 0.148017 -0.254617 0.256372
v 0.000000 -0.254617 0.296033
v -0.148017 -0.254617 0.256372
v -0.256372 -0.254617 0.148017
v -0.296033 -0.254617 0.000000
v -0.256372 -0.254617 -0.148016
v -0.148017 -0.254617 -0.256372
v 0.000000 0.077528 -0.599063
v 0.299532 0.077528 -0.518804
v 0.518804 0.077528 -0.299532
v 0.599063 0.077528 -0.000000
v 0.518804 0.077528 0.299532
v 0.299532 0.077528 0.518804
v 0.000000 0.077528 0.599063
v -0.299532 0.077528 0.518804
v -0.518804 0.077528 0.299532
v -0.599063 0.077528 0.000000
v -0.518804 0.077528 -0.299531
v -0.299532 0.077528 -0.518804
v 0.000000 0.156110 -0.587454
v 0.000000 0.199174 -0.536057
v 0.268029 0.199174 -0.464239
v 0.293727 0.156110 -0.508750
v 0.464239 0.199174 -0.268029
v 0.508750 0.156110 -0.293727
v 0.536057 0.199174 -0.000000
v 0.587454 0.156110 -0.000000
v 0.464239 0.199174 0.268029
v 0.508750 0.156110 0.293727
v 0.268029 0.199174 0.464239
v 0.293727 0.156110 0.508750
v 0.000000 0.199174 0.536057
v 0.000000 0.156110 0.587454
v -0.268028 0.199174 0.464239
v -0.293727 0.156110 0.508750
v -0.464239 0.199174 0.268029
v -0.508750 0.156110 0.293727
v -0.536057 0.199174 0.000000
v -0.587454 0.156110 0.000000
v -0.464239 0.199174 -0.268028
v -0.508750 0.156110 -0.293727
v -0.268029 0.199174 -0.464239
v -0.293727 0.156110 -0.508750
v 0.227641 0.168632 -0.394286
v 0.255410 0.199174 -0.442384
v 0.000000 0.199174 -0.510821
v 0.000000 0.168632 -0.455283
v -0.255411 0.199174 -0.442384
v -0.227642 0.168632 -0.394286
v -0.442384 0.199174 -0.255410
v -0.394286 0.168632 -0.227641
v -0.510821 0.199174 0.000000
v -0.455283 0.168633 0.000000
v -0.442384 0.199174 0.255410
v -0.394286 0.168633 0.227641
v -0.255410 0.199174 0.442384
v -0.227641 0.168633 0.394286
v 0.000000 0.199174 0.510821
v 0.000000 0.168633 0.455283
v 0.255410 0.199174 0.442384
v 0.227641 0.168633 0.394286
v 0.442384 0.199174 0.255410
v 0.394286 0.168633 0.227641
v 0.510821 0.199174 -0.000000
v 0.455283 0.168633 -0.000000
v 0.394286 0.168632 -0.227641
v 0.442384 0.199174 -0.255411
v 0.149628 -0.115056 -0.259163
v 0.000000 -0.115056 -0.299256
v 0.259163 -0.115056 -0.149628
v -0.149628 -0.115056 -0.259163
v -0.259163 -0.115056 -0.149628
v -0.299256 -0.115056 0.000000
v -0.259163 -0.115056 0.149628
v -0.149628 -0.115056 0.259163
v 0.000000 -0.115056 0.299256
v 0.149628 -0.115056 0.259163
v 0.259163 -0.115056 0.149628
v 0.299256 -0.115056 -0.000000
v 0.149628 -0.095801 -0.259163
v 0.152411 -0.076208 -0.263984
v 0.000000 -0.076208 -0.304823
v 0.000000 -0.095801 -0.299256
v 0.259163 -0.095801 -0.149628
v 0.263984 -0.076208 -0.152411
v -0.152412 -0.076208 -0.263984
v -0.149628 -0.095801 -0.259163
v -0.263984 -0.076208 -0.152411
v -0.259163 -0.095801 -0.149628
v -0.304823 -0.076208 0.000000
v -0.299256 -0.095801 0.000000
v -0.263984 -0.076208 0.152411
v -0.259163 -0.095801 0.149628
v -0.152411 -0.076208 0.263984
v -0.149628 -0.095801 0.259163
v 0.000000 -0.076208 0.304823
v 0.000000 -0.095801 0.299256
v 0.152411 -0.076208 0.263984
v 0.149628 -0.095801 0.259163
v 0.263984 -0.076208 0.152411
v 0.259163 -0.095801 0.149628
v 0.304823 -0.076208 -0.000000
v 0.299256 -0.095801 -0.000000
vt 0.554330 0.697814
vt 0.588528 0.698513
vt 0.590825 0.829817
vt 0.556673 0.831712
vt 0.346244 0.949605
vt 0.343109 0.892836
vt 0.351245 0.892693
vt 0.354380 0.949463
vt 0.475066 0.770396
vt 0.478201 0.737534
vt 0.486337 0.737392
vt 0.483202 0.770254
vt 0.473919 0.827241
vt 0.482055 0.827098
vt 0.475066 0.892836
vt 0.483202 0.892693
vt 0.478201 0.949605
vt 0.486337 0.949463
vt 0.343109 0.770396
vt 0.346244 0.737534
vt 0.354380 0.737392
vt 0.351245 0.770254
vt 0.341962 0.827241
vt 0.350098 0.827098
vt 0.084496 0.417806
vt 0.023496 0.312151
vt 0.034214 0.309279
vt 0.092342 0.409960
vt 0.022808 0.728359
vt 0.019694 0.784747
vt 0.002809 0.784452
vt 0.005922 0.728063
vt 0.602929 0.290257
vt 0.503971 0.316773
vt 0.503971 0.196254
vt 0.602929 0.222769
vt 0.636673 0.348703
vt 0.564231 0.421146
vt 0.695119 0.382447
vt 0.668604 0.481405
vt 0.762607 0.382447
vt 0.789123 0.481405
vt 0.821053 0.348703
vt 0.893495 0.421146
vt 0.854797 0.290257
vt 0.953755 0.316773
vt 0.854797 0.222769
vt 0.953755 0.196254
vt 0.821053 0.164323
vt 0.893495 0.091881
vt 0.762607 0.130579
vt 0.789123 0.031621
vt 0.695119 0.130579
vt 0.668603 0.031621
vt 0.636673 0.164323
vt 0.564231 0.091881
vt 0.305693 0.722348
vt 0.255018 0.693091
vt 0.225761 0.642417
vt 0.225761 0.583903
vt 0.255018 0.533228
vt 0.305693 0.503971
vt 0.364207 0.503971
vt 0.414882 0.533228
vt 0.444138 0.583903
vt 0.444138 0.642417
vt 0.414881 0.693091
vt 0.364207 0.722349
vt 0.465501 0.658231
vt 0.468615 0.714620
vt 0.451730 0.714915
vt 0.448616 0.658527
vt 0.464361 0.593076
vt 0.447476 0.593372
vt 0.496380 0.593076
vt 0.497519 0.658231
vt 0.480634 0.658527
vt 0.479495 0.593372
vt 0.500633 0.714620
vt 0.483748 0.714916
vt 0.465501 0.536613
vt 0.448616 0.536909
vt 0.497519 0.536613
vt 0.480634 0.536908
vt 0.468615 0.503971
vt 0.451730 0.504266
vt 0.500633 0.503971
vt 0.483748 0.504267
vt 0.019694 0.906366
vt 0.022808 0.939008
vt 0.005922 0.938712
vt 0.002809 0.906070
vt 0.018554 0.849902
vt 0.001669 0.849607
vt 0.597100 0.943455
vt 0.563072 0.947596
vt 0.793371 0.700859
vt 0.795117 0.601064
vt 0.902302 0.619434
vt 0.901133 0.686249
vt 0.556673 0.581777
vt 0.590825 0.584725
vt 0.563072 0.514695
vt 0.597100 0.518944
vt 0.653139 0.880514
vt 0.687291 0.877566
vt 0.693567 0.943348
vt 0.659538 0.947596
vt 0.650797 0.764478
vt 0.684994 0.763778
vt 0.653139 0.630579
vt 0.687291 0.632474
vt 0.659538 0.514695
vt 0.693567 0.518836
vt 0.749606 0.831712
vt 0.783758 0.829817
vt 0.790033 0.943455
vt 0.756005 0.947596
vt 0.747264 0.697814
vt 0.781461 0.698513
vt 0.749606 0.581777
vt 0.783758 0.584725
vt 0.756005 0.514695
vt 0.790033 0.518944
vt 0.392694 0.109608
vt 0.444502 0.199343
vt 0.380604 0.216464
vt 0.345918 0.156385
vt 0.478806 0.190151
vt 0.478806 0.312151
vt 0.468088 0.309279
vt 0.468088 0.193023
vt 0.190151 0.023496
vt 0.312151 0.023496
vt 0.309279 0.034214
vt 0.193023 0.034214
vt 0.190151 0.478806
vt 0.193023 0.468088
vt 0.913854 0.775493
vt 0.910719 0.742630
vt 0.918855 0.742773
vt 0.921990 0.775635
vt 0.417806 0.417806
vt 0.409960 0.409960
vt 0.417806 0.084496
vt 0.409960 0.092342
vt 0.023496 0.190151
vt 0.084496 0.084496
vt 0.092342 0.092342
vt 0.034214 0.193023
vt 0.312151 0.478806
vt 0.309279 0.468088
vt 0.503971 0.706566
vt 0.506038 0.824727
vt 0.506038 0.604167
vt 0.660578 0.511358
vt 0.542304 0.443073
vt 0.797148 0.511358
vt 0.600438 0.755726
vt 0.602505 0.858124
vt 0.602505 0.637564
vt 0.608152 0.535301
vt 0.698971 0.824727
vt 0.704619 0.926990
vt 0.696904 0.706565
vt 0.698971 0.604167
vt 0.542304 0.069954
vt 0.660578 0.001669
vt 0.511685 0.926990
vt 0.001669 0.318000
vt 0.001669 0.184303
vt 0.068517 0.433785
vt 0.184303 0.500633
vt 0.318000 0.500633
vt 0.433785 0.433785
vt 0.500633 0.318000
vt 0.500633 0.184303
vt 0.433785 0.068518
vt 0.318000 0.001669
vt 0.184303 0.001669
vt 0.068518 0.068517
vt 0.909572 0.685786
vt 0.917708 0.685928
vt 0.057800 0.199343
vt 0.057800 0.302959
vt 0.109608 0.392694
vt 0.109608 0.109608
vt 0.199343 0.057800
vt 0.302960 0.057800
vt 0.444502 0.302960
vt 0.392694 0.392694
vt 0.302959 0.444502
vt 0.199343 0.444502
vt 0.222423 0.584773
vt 0.222423 0.643924
vt 0.192848 0.695150
vt 0.141622 0.724726
vt 0.082471 0.724726
vt 0.031244 0.695150
vt 0.001669 0.643924
vt 0.001669 0.584773
vt 0.031244 0.533547
vt 0.082471 0.503971
vt 0.141622 0.503971
vt 0.192848 0.533547
vt 0.232276 0.998331
vt 0.227507 0.911963
vt 0.334692 0.893593
vt 0.337886 0.951419
vt 0.216464 0.380604
vt 0.285838 0.380604
vt 0.795117 0.787341
vt 0.902302 0.744151
vt 0.364233 0.998331
vt 0.359464 0.911963
vt 0.466649 0.893593
vt 0.469842 0.951419
vt 0.225761 0.812168
vt 0.333524 0.826778
vt 0.156385 0.345918
vt 0.910719 0.620191
vt 0.913854 0.563422
vt 0.921990 0.563564
vt 0.918855 0.620333
vt 0.357718 0.812168
vt 0.465480 0.826778
vt 0.227507 0.725686
vt 0.334692 0.768876
vt 0.799886 0.514695
vt 0.905495 0.561608
vt 0.359464 0.725686
vt 0.466649 0.768876
vt 0.337886 0.735403
vt 0.469842 0.735403
vt 0.905495 0.777624
vn -0.2562 0.1413 -0.9562
vn 0.7071 0.0000 0.7071
vn -0.9659 0.0000 -0.2588
vn -0.7071 0.0000 -0.7071
vn -0.2588 0.0000 -0.9659
vn 0.2588 0.0000 -0.9659
vn 0.7071 0.0000 -0.7071
vn 0.9659 0.0000 -0.2588
vn -0.0000 1.0000 -0.0000
vn 0.9659 -0.0000 0.2588
vn 0.2588 0.0000 0.9659
vn -0.1566 -0.7963 -0.5843
vn -0.4278 -0.7963 -0.4278
vn -0.5843 -0.7963 -0.1566
vn -0.5843 -0.7963 0.1566
vn -0.4278 -0.7963 0.4278
vn -0.1566 -0.7963 0.5843
vn 0.1566 -0.7963 0.5843
vn 0.4278 -0.7963 0.4278
vn 0.5843 -0.7963 0.1566
vn 0.5843 -0.7963 -0.1566
vn 0.4278 -0.7963 -0.4278
vn 0.1566 -0.7963 -0.5843
vn 0.0000 -1.0000 0.0000
vn -0.9659 0.0000 0.2588
vn -0.7071 0.0000 0.7071
vn -0.2588 0.0000 0.9659
vn 0.2562 0.1413 -0.9562
vn -0.2226 0.5104 0.8306
vn -0.7000 0.1413 -0.7000
vn -0.9562 0.1413 -0.2562
vn -0.9562 0.1413 0.2562
vn -0.7000 0.1413 0.7000
vn -0.2562 0.1413 0.9562
vn 0.2562 0.1413 0.9562
vn 0.7000 0.1413 0.7000
vn 0.9562 0.1413 0.2562
vn 0.9562 0.1413 -0.2562
vn 0.7000 0.1413 -0.7000
vn 0.6081 0.5104 -0.6081
vn -0.2259 -0.4880 -0.8431
vn -0.6172 -0.4880 -0.6172
vn -0.8431 -0.4880 -0.2259
vn -0.8431 -0.4880 0.2259
vn -0.6172 -0.4880 0.6172
vn -0.2259 -0.4880 0.8431
vn 0.2259 -0.4880 0.8431
vn 0.6172 -0.4880 0.6172
vn 0.8431 -0.4880 0.2259
vn 0.8431 -0.4880 -0.2259
vn 0.6172 -0.4880 -0.6172
vn 0.2259 -0.4880 -0.8431
vn 0.1696 0.7554 -0.6329
vn 0.4633 0.7554 -0.4633
vn 0.6329 0.7554 -0.1696
vn 0.6329 0.7554 0.1696
vn 0.4633 0.7554 0.4633
vn 0.1696 0.7554 0.6329
vn -0.1696 0.7554 0.6329
vn -0.4633 0.7554 0.4633
vn -0.6329 0.7554 0.1696
vn -0.6329 0.7554 -0.1696
vn -0.4633 0.7554 -0.4633
vn -0.1696 0.7554 -0.6329
vn -0.1281 0.8690 0.4779
vn -0.3498 0.8690 0.3498
vn 0.1281 0.8690 0.4779
vn 0.3498 0.8690 0.3498
vn 0.4779 0.8690 0.1281
vn 0.4779 0.8690 -0.1281
vn 0.3498 0.8690 -0.3498
vn 0.1281 0.8690 -0.4779
vn -0.1281 0.8690 -0.4779
vn -0.3498 0.8690 -0.3498
vn -0.4779 0.8690 -0.1281
vn -0.4779 0.8690 0.1281
vn 0.6081 0.5104 0.6081
vn -0.8306 0.5104 -0.2226
vn -0.6081 0.5104 0.6081
vn 0.2226 0.5104 -0.8306
vn 0.8306 0.5104 0.2226
vn -0.8306 0.5104 0.2226
vn -0.2226 0.5104 -0.8306
vn 0.8306 0.5104 -0.2226
vn 0.2226 0.5104 0.8306
vn -0.6081 0.5104 -0.6081
vn -0.2496 0.2647 0.9315
vn -0.6819 0.2647 0.6819
vn 0.2496 0.2647 0.9315
vn 0.6819 0.2647 0.6819
vn 0.9315 0.2647 0.2496
vn 0.9315 0.2647 -0.2496
vn 0.6819 0.2647 -0.6819
vn 0.2496 0.2647 -0.9315
vn -0.2496 0.2647 -0.9315
vn -0.6819 0.2647 -0.6819
vn -0.9315 0.2647 -0.2496
vn -0.9315 0.2647 0.2496
usemtl White
s 1
f 48/1/1 72/2/1 49/3/1 37/4/1
f 116/5/2 118/6/2 101/7/2 100/8/2
f 130/9/3 132/10/3 108/11/3 107/12/3
f 128/13/4 130/9/4 107/12/4 106/14/4
f 126/15/5 128/13/5 106/14/5 105/16/5
f 124/17/6 126/15/6 105/16/6 104/18/6
f 122/19/7 124/20/7 104/21/7 103/22/7
f 120/23/8 122/19/8 103/22/8 102/24/8
f 53/25/9 51/26/9 74/27/9 96/28/9
f 118/6/10 120/23/10 102/24/10 101/7/10
f 6/29/11 7/30/11 31/31/11 30/32/11
f 12/33/12 24/34/12 13/35/12 1/36/12
f 11/37/13 23/38/13 24/34/13 12/33/13
f 10/39/14 22/40/14 23/38/14 11/37/14
f 9/41/15 21/42/15 22/40/15 10/39/15
f 8/43/16 20/44/16 21/42/16 9/41/16
f 7/45/17 19/46/17 20/44/17 8/43/17
f 6/47/18 18/48/18 19/46/18 7/45/18
f 5/49/19 17/50/19 18/48/19 6/47/19
f 4/51/20 16/52/20 17/50/20 5/49/20
f 3/53/21 15/54/21 16/52/21 4/51/21
f 2/55/22 14/56/22 15/54/22 3/53/22
f 1/36/23 13/35/23 14/56/23 2/55/23
f 25/57/24 26/58/24 27/59/24 28/60/24 29/61/24 30/62/24 31/63/24 32/64/24 33/65/24 34/66/24 35/67/24 36/68/24
f 5/69/2 6/70/2 30/71/2 29/72/2
f 4/73/10 5/69/10 29/72/10 28/74/10
f 12/75/5 1/76/5 25/77/5 36/78/5
f 1/76/6 2/79/6 26/80/6 25/77/6
f 3/81/8 4/73/8 28/74/8 27/82/8
f 11/83/4 12/75/4 36/78/4 35/84/4
f 2/85/7 3/81/7 27/82/7 26/86/7
f 10/87/3 11/83/3 35/84/3 34/88/3
f 9/89/25 10/90/25 34/91/25 33/92/25
f 8/93/26 9/89/26 33/92/26 32/94/26
f 7/30/27 8/93/27 32/94/27 31/31/27
f 37/4/28 49/3/28 52/95/28 38/96/28
f 73/97/29 76/98/29 111/99/29 110/100/29
f 47/101/30 70/102/30 72/2/30 48/1/30
f 46/103/31 68/104/31 70/102/31 47/101/31
f 45/105/32 66/106/32 68/107/32 46/108/32
f 44/109/33 64/110/33 66/106/33 45/105/33
f 43/111/34 62/112/34 64/110/34 44/109/34
f 42/113/35 60/114/35 62/112/35 43/111/35
f 41/115/36 58/116/36 60/117/36 42/118/36
f 40/119/37 56/120/37 58/116/37 41/115/37
f 39/121/38 54/122/38 56/120/38 40/119/38
f 38/123/39 52/124/39 54/122/39 39/121/39
f 84/125/40 86/126/40 123/127/40 121/128/40
f 63/129/9 61/130/9 87/131/9 85/132/9
f 69/133/9 67/134/9 81/135/9 79/136/9
f 55/137/9 53/25/9 96/28/9 93/138/9
f 132/139/25 113/140/25 99/141/25 108/142/25
f 61/130/9 59/143/9 89/144/9 87/131/9
f 67/134/9 65/145/9 83/146/9 81/135/9
f 50/147/9 71/148/9 77/149/9 75/150/9
f 59/143/9 57/151/9 91/152/9 89/144/9
f 65/145/9 63/129/9 85/132/9 83/146/9
f 71/148/9 69/133/9 79/136/9 77/149/9
f 57/151/9 55/137/9 93/138/9 91/152/9
f 24/153/41 48/1/41 37/4/41 13/154/41
f 23/155/42 47/101/42 48/1/42 24/153/42
f 22/40/43 46/156/43 47/157/43 23/38/43
f 21/42/44 45/158/44 46/156/44 22/40/44
f 20/159/45 44/109/45 45/105/45 21/160/45
f 19/161/46 43/111/46 44/109/46 20/159/46
f 18/162/47 42/113/47 43/111/47 19/161/47
f 17/163/48 41/115/48 42/118/48 18/164/48
f 16/165/49 40/119/49 41/115/49 17/163/49
f 15/166/50 39/121/50 40/119/50 16/165/50
f 14/56/51 38/167/51 39/168/51 15/54/51
f 13/154/52 37/4/52 38/96/52 14/169/52
f 52/170/53 49/171/53 50/147/53 51/26/53
f 54/172/54 52/170/54 51/26/54 53/25/54
f 56/173/55 54/172/55 53/25/55 55/137/55
f 58/174/56 56/173/56 55/137/56 57/151/56
f 60/175/57 58/174/57 57/151/57 59/143/57
f 62/176/58 60/175/58 59/143/58 61/130/58
f 64/177/59 62/176/59 61/130/59 63/129/59
f 66/178/60 64/177/60 63/129/60 65/145/60
f 68/179/61 66/178/61 65/145/61 67/134/61
f 70/180/62 68/179/62 67/134/62 69/133/62
f 72/181/63 70/180/63 69/133/63 71/148/63
f 49/171/64 72/181/64 71/148/64 50/147/64
f 113/140/26 109/182/26 97/183/26 99/141/26
f 74/27/65 75/150/65 76/184/65 73/185/65
f 96/28/66 74/27/66 73/185/66 95/186/66
f 75/150/67 77/149/67 78/187/67 76/184/67
f 77/149/68 79/136/68 80/188/68 78/187/68
f 79/136/69 81/135/69 82/189/69 80/188/69
f 81/135/70 83/146/70 84/125/70 82/189/70
f 83/146/71 85/132/71 86/126/71 84/125/71
f 85/132/72 87/131/72 88/190/72 86/126/72
f 87/131/73 89/144/73 90/191/73 88/190/73
f 89/144/74 91/152/74 92/192/74 90/191/74
f 91/152/75 93/138/75 94/193/75 92/192/75
f 93/138/76 96/28/76 95/186/76 94/193/76
f 51/26/9 50/147/9 75/150/9 74/27/9
f 97/194/9 98/195/9 100/196/9 101/197/9 102/198/9 103/199/9 104/200/9 105/201/9 106/202/9 107/203/9 108/204/9 99/205/9
f 78/206/77 80/207/77 117/208/77 115/209/77
f 92/192/78 94/193/78 131/210/78 129/211/78
f 95/212/79 73/97/79 110/100/79 114/213/79
f 86/214/80 88/215/80 125/216/80 123/217/80
f 80/207/81 82/218/81 119/219/81 117/208/81
f 94/193/82 95/186/82 114/220/82 131/210/82
f 112/221/11 116/222/11 100/223/11 98/224/11
f 88/215/83 90/225/83 127/226/83 125/216/83
f 82/218/84 84/227/84 121/228/84 119/219/84
f 76/98/85 78/229/85 115/230/85 111/99/85
f 90/225/86 92/231/86 129/232/86 127/226/86
f 110/100/87 111/99/87 112/221/87 109/182/87
f 114/213/88 110/100/88 109/182/88 113/140/88
f 111/99/89 115/230/89 116/222/89 112/221/89
f 115/209/90 117/208/90 118/6/90 116/5/90
f 117/208/91 119/219/91 120/23/91 118/6/91
f 119/219/92 121/228/92 122/19/92 120/23/92
f 121/228/93 123/233/93 124/20/93 122/19/93
f 123/217/94 125/216/94 126/15/94 124/17/94
f 125/216/95 127/226/95 128/13/95 126/15/95
f 127/226/96 129/232/96 130/9/96 128/13/96
f 129/232/97 131/234/97 132/10/97 130/9/97
f 131/235/98 114/213/98 113/140/98 132/139/98
f 109/182/27 112/221/27 98/224/27 97/183/27
