# File produced by Open Asset Import Library (http://www.assimp.sf.net)
# (assimp v3.2.202087883)

mtllib model_normalized.mtl

# 20 vertex positions
v -0.359864 -0.151964 -0.273848
v 0.360607 -0.178829 -0.273848
v -0.359864 -0.178829 -0.273848
v 0.360607 -0.151964 -0.273848
v -0.359864 -0.178829 0.273848
v -0.359864 -0.151964 0.273848
v 0.360607 -0.151964 0.273848
v 0.360607 -0.178829 0.273848
v -0.350109 -0.121971 -0.273848
v 0.348994 -0.121971 0.273848
v 0.348994 -0.121971 -0.273848
v -0.350109 0.206209 0.273848
v -0.350109 0.206209 -0.273848
v -0.350109 -0.121971 0.273848
v 0.348994 0.206209 -0.273848
v 0.348994 0.206209 0.273848
v -0.359864 0.246555 0.273848
v -0.359864 0.246555 -0.273848
v 0.360607 0.246555 0.273848
v 0.360607 0.246555 -0.273848

# 74 UV coordinates
vt 1.12926 0.641937 0
vt 0.675697 0.625021 0
vt 1.12926 0.625021 0
vt 0.675697 0.641937 0
vt -0.675697 -0.403819 0
vt -1.12926 -0.059028 0
vt -1.12926 -0.403819 0
vt -0.403819 0.625021 0
vt -0.059028 0.641937 0
vt -0.403819 0.641937 0
vt 0.059028 0.641937 0
vt 0.403819 0.625021 0
vt 0.403819 0.641937 0
vt -0.675697 -0.059028 0
vt -0.059028 0.625021 0
vt 0.059028 0.625021 0
vt -0.675697 0.641937 0
vt -1.12926 0.625021 0
vt -0.675697 0.625021 0
vt -1.12926 0.641937 0
vt 1.12311 -0.403819 0
vt 0.683008 -0.059028 0
vt 0.683008 -0.403819 0
vt 0.059028 0.867415 0
vt 0.403819 0.660818 0
vt 0.403819 0.867415 0
vt 1.12311 -0.059028 0
vt -0.059028 0.660818 0
vt -0.403819 0.867415 0
vt -0.403819 0.660818 0
vt 0.059028 0.660818 0
vt -0.683008 -0.403819 0
vt -1.12311 -0.059028 0
vt -1.12311 -0.403819 0
vt -0.059028 0.867415 0
vt -0.683008 -0.059028 0
vt 1.12311 0.660818 0
vt -0.059028 0.892816 0
vt 1.12926 0.892816 0
vt 0.683008 0.660818 0
vt 0.059028 0.892816 0
vt -0.403819 0.892816 0
vt 1.12311 0.867415 0
vt 0.675697 0.892816 0
vt 0.403819 0.892816 0
vt 0.683008 0.867415 0
vt 1.69388 0.962905 0
vt 1.68467 0.991227 0
vt 1.01355 0.962905 0
vt -0.088542 1.33922 0
vt -0.605729 0.962905 0
vt -0.088542 0.962905 0
vt 1.69388 1.33922 0
vt 1.02451 0.991227 0
vt 0.605729 0.962905 0
vt 0.088542 1.33922 0
vt 0.088542 0.962905 0
vt -0.605729 1.33922 0
vt -1.69388 0.962905 0
vt -1.68467 0.991227 0
vt -1.69388 1.33922 0
vt 1.68467 1.30112 0
vt 1.01355 1.33922 0
vt -1.01355 0.962905 0
vt -1.02451 0.991227 0
vt 0.605729 1.33922 0
vt -1.01355 1.33922 0
vt 1.01355 -0.088542 0
vt 1.69388 -0.605729 0
vt 1.69388 -0.088542 0
vt -1.68467 1.30112 0
vt 1.02451 1.30112 0
vt 1.01355 -0.605729 0
vt -1.02451 1.30112 0

# 6 vertex normals
vn -0 0 -0.0254
vn 0 -0.0254 0
vn -0.0254 0 0
vn 0.0254 0 0
vn 0 0 0.0254
vn 0 0.0254 0

# Mesh 'mesh1_mesh1-geometry' with 18 faces
g mesh1_mesh1-geometry
usemtl material_0_1_8
f  1/1/1 2/2/1 3/3/1
f  2/2/1 1/1/1 4/4/1
f  2/5/2 5/6/2 3/7/2
f  3/8/3 6/9/3 1/10/3
f  7/11/4 2/12/4 4/13/4
f  5/6/2 2/5/2 8/14/2
f  6/9/3 3/8/3 5/15/3
f  2/12/4 7/11/4 8/16/4
f  7/17/5 5/18/5 8/19/5
f  5/18/5 7/17/5 6/20/5
f  9/21/6 10/22/6 11/23/6
f  12/24/4 9/25/4 13/26/4
f  10/22/6 9/21/6 14/27/6
f  10/28/3 15/29/3 11/30/3
f  9/25/4 12/24/4 14/31/4
f  15/32/2 12/33/2 13/34/2
f  15/29/3 10/28/3 16/35/3
f  12/33/2 15/32/2 16/36/2

# Mesh 'mesh1_mesh1-geometry' with 20 faces
g mesh1_mesh1-geometry
usemtl material_1_2_8
f  3/3/5 2/2/5 1/1/5
f  4/4/5 1/1/5 2/2/5
f  3/7/6 5/6/6 2/5/6
f  1/10/4 6/9/4 3/8/4
f  4/4/5 9/37/5 1/1/5
f  4/13/3 2/12/3 7/11/3
f  8/14/6 2/5/6 5/6/6
f  5/15/4 3/8/4 6/9/4
f  6/9/4 1/10/4 17/38/4
f  18/39/5 1/1/5 9/37/5
f  9/37/5 4/4/5 11/40/5
f  8/16/3 7/11/3 2/12/3
f  7/11/3 19/41/3 4/13/3
f  18/42/4 17/38/4 1/10/4
f  13/43/5 18/39/5 9/37/5
f  20/44/5 11/40/5 4/4/5
f  20/45/3 4/13/3 19/41/3
f  15/46/5 18/39/5 13/43/5
f  15/46/5 11/40/5 20/44/5
f  18/39/5 15/46/5 20/44/5

# Mesh 'mesh1_mesh1-geometry' with 22 faces
g mesh1_mesh1-geometry
usemtl material_2_3_8
f  1/47/1 9/48/1 4/49/1
f  17/50/3 1/51/3 6/52/3
f  9/48/1 1/47/1 18/53/1
f  11/54/1 4/49/1 9/48/1
f  4/55/4 19/56/4 7/57/4
f  1/51/3 17/50/3 18/58/3
f  6/59/5 14/60/5 17/61/5
f  9/48/1 18/53/1 13/62/1
f  4/49/1 11/54/1 20/63/1
f  7/64/5 10/65/5 6/59/5
f  19/56/4 4/55/4 20/66/4
f  10/65/5 7/64/5 19/67/5
f  19/68/6 18/69/6 17/70/6
f  14/60/5 6/59/5 10/65/5
f  17/61/5 14/60/5 12/71/5
f  13/62/1 18/53/1 15/72/1
f  20/63/1 11/54/1 15/72/1
f  18/69/6 19/68/6 20/73/6
f  10/65/5 19/67/5 16/74/5
f  17/61/5 12/71/5 19/67/5
f  20/63/1 15/72/1 18/53/1
f  16/74/5 19/67/5 12/71/5

# Mesh 'mesh1_mesh1-geometry' with 24 faces
g mesh1_mesh1-geometry
usemtl material_3_24
f  4//2 6//2 1//2
f  1//6 6//6 4//6
f  6//2 4//2 7//2
f  7//6 4//6 6//6
f  8//1 5//1 7//1
f  6//1 7//1 5//1
f  17//1 14//1 6//1
f  11//2 10//2 9//2
f  6//1 10//1 7//1
f  19//1 7//1 10//1
f  17//2 18//2 19//2
f  10//1 6//1 14//1
f  12//1 14//1 17//1
f  13//3 9//3 12//3
f  14//2 9//2 10//2
f  11//4 15//4 10//4
f  20//2 19//2 18//2
f  16//1 19//1 10//1
f  19//1 12//1 17//1
f  14//3 12//3 9//3
f  13//6 12//6 15//6
f  16//4 10//4 15//4
f  12//1 19//1 16//1
f  16//6 15//6 12//6

