# File produced by Open Asset Import Library (http://www.assimp.sf.net)
# (assimp v3.2.202087883)

mtllib model_normalized.mtl

# 32 vertex positions
v -0.411887 0.185309 0.127904
v -0.371060 0.185309 0.096433
v -0.411887 0.185309 -0.125565
v 0.411462 0.185309 0.127904
v -0.371060 0.185309 -0.125565
v -0.411887 -0.322480 0.127904
v -0.371060 0.144482 0.127904
v 0.372336 0.185309 0.096433
v -0.371060 0.181906 -0.125565
v -0.411887 -0.322480 -0.125565
v -0.371060 -0.032803 0.127904
v -0.371060 -0.019241 0.127904
v 0.370635 0.144482 0.127904
v 0.372336 0.185309 -0.125565
v 0.372336 0.181906 0.096433
v 0.370635 -0.032803 -0.125565
v -0.371060 0.181906 0.096433
v -0.371060 -0.322480 -0.125565
v -0.371060 -0.322480 0.127904
v -0.371060 -0.019241 -0.103450
v 0.370635 -0.019241 0.127904
v 0.370635 0.144482 -0.103450
v 0.411462 0.185309 -0.125565
v -0.371060 -0.032803 -0.125565
v 0.372336 0.181906 -0.125565
v -0.371060 0.144482 -0.103450
v 0.370635 -0.032803 0.127904
v 0.411462 -0.322480 -0.125565
v 0.370635 -0.019241 -0.103450
v 0.370635 -0.322480 0.127904
v 0.411462 -0.322480 0.127904
v 0.370635 -0.322480 -0.125565

# 72 UV coordinates
vt -2.52083 0.222528 0
vt -2.43168 0.291253 0
vt -2.52083 0.776042 0
vt -0.722843 0.222528 0
vt -2.43168 0.776042 0
vt -0.776042 1.61149 0
vt -0.222528 0.502604 0
vt -0.222528 1.61149 0
vt -2.52083 1.61149 0
vt -2.43168 1.52233 0
vt -0.722843 1.61149 0
vt -0.808285 0.291253 0
vt 2.43168 1.60406 0
vt 2.52083 1.61149 0
vt 2.43168 1.61149 0
vt 0.291253 1.61149 0
vt 0.776042 1.60406 0
vt 0.776042 1.61149 0
vt -0.776042 0.502604 0
vt -2.52083 0.502604 0
vt -2.43168 1.13519 0
vt -2.43168 1.1648 0
vt -0.812 1.52233 0
vt -0.808285 0.776042 0
vt 0.808285 1.60406 0
vt 0.808285 1.61149 0
vt 0.812 1.13519 0
vt 0.291253 1.60406 0
vt 2.43168 0.502604 0
vt 2.52083 0.502604 0
vt 2.43168 0.776042 0
vt 2.52083 0.222528 0
vt 2.52083 0.776042 0
vt -2.43168 0.502604 0
vt 0.727749 1.1648 0
vt 0.222528 1.52233 0
vt 0.222528 1.1648 0
vt -0.812 1.1648 0
vt 2.43168 0.222528 0
vt 0.812 0.727749 0
vt 0.812 0.222528 0
vt -0.722843 0.776042 0
vt -0.291253 1.60406 0
vt -0.291253 1.61149 0
vt 2.43168 1.13519 0
vt 0.776042 0.502604 0
vt 0.222528 1.13519 0
vt 0.222528 0.502604 0
vt 0.727749 1.52233 0
vt -0.812 0.222528 0
vt -2.43168 0.727749 0
vt -2.43168 0.222528 0
vt -0.812 1.13519 0
vt -0.727749 1.52233 0
vt -0.222528 1.1648 0
vt -0.222528 1.52233 0
vt 2.43168 0.727749 0
vt 0.222528 1.61149 0
vt 0.722843 1.61149 0
vt -0.776042 1.60406 0
vt 0.812 0.776042 0
vt 0.776042 1.13519 0
vt -0.812 0.727749 0
vt -0.812 0.502604 0
vt -0.727749 1.1648 0
vt 0.722843 0.502604 0
vt -0.722843 0.502604 0
vt -0.776042 1.13519 0
vt -0.222528 1.13519 0
vt 0.722843 0.776042 0
vt 0.722843 0.222528 0
vt 0.812 0.502604 0

# 6 vertex normals
vn 0 0.0254 0
vn -0.0254 0 0
vn 0 0 0.0254
vn 0 0 -0.0254
vn 0.0254 0 0
vn 0 -0.0254 0

# Mesh 'mesh1_mesh1-geometry' with 60 faces
g mesh1_mesh1-geometry
usemtl material_0_1_8
f  1/1/1 2/2/1 3/3/1
f  2/2/1 1/1/1 4/4/1
f  5/5/1 3/3/1 2/2/1
f  3/6/2 6/7/2 1/8/2
f  1/9/3 7/10/3 4/11/3
f  2/2/1 4/4/1 8/12/1
f  9/13/4 3/14/4 5/15/4
f  2/16/5 9/17/5 5/18/5
f  6/7/2 3/6/2 10/19/2
f  6/20/3 11/21/3 1/9/3
f  1/9/3 12/22/3 7/10/3
f  13/23/3 4/11/3 7/10/3
f  8/12/1 4/4/1 14/24/1
f  15/25/4 2/15/4 8/26/4
f  16/27/4 3/14/4 9/13/4
f  9/17/5 2/16/5 17/28/5
f  3/14/4 18/29/4 10/30/4
f  18/31/6 6/32/6 10/33/6
f  11/21/3 6/20/3 19/34/3
f  1/9/3 11/21/3 12/22/3
f  20/35/5 7/36/5 12/37/5
f  21/38/3 4/11/3 13/23/3
f  7/39/6 22/40/6 13/41/6
f  14/24/1 4/4/1 23/42/1
f  14/6/2 15/43/2 8/44/2
f  2/15/4 15/25/4 17/13/4
f  24/45/4 3/14/4 16/27/4
f  25/25/4 16/27/4 9/13/4
f  15/12/1 9/5/1 17/2/1
f  18/29/4 3/14/4 24/45/4
f  6/32/6 18/31/6 19/39/6
f  18/46/5 11/47/5 19/48/5
f  12/22/3 11/21/3 21/38/3
f  7/36/5 20/35/5 26/49/5
f  21/50/1 20/51/1 12/52/1
f  27/53/3 4/11/3 21/38/3
f  22/54/2 21/55/2 13/56/2
f  22/40/6 7/39/6 26/57/6
f  4/58/5 28/46/5 23/18/5
f  23/59/4 25/25/4 14/26/4
f  15/43/2 14/6/2 25/60/2
f  16/61/6 11/39/6 24/31/6
f  23/59/4 16/27/4 25/25/4
f  9/5/1 15/12/1 25/24/1
f  11/47/5 18/46/5 24/62/5
f  27/53/3 21/38/3 11/21/3
f  20/22/3 22/23/3 26/10/3
f  20/51/1 21/50/1 29/63/1
f  30/64/3 4/11/3 27/53/3
f  21/55/2 22/54/2 29/65/2
f  28/46/5 4/58/5 31/48/5
f  28/66/4 16/27/4 23/59/4
f  11/39/6 16/61/6 27/41/6
f  22/23/3 20/22/3 29/38/3
f  4/11/3 30/64/3 31/67/3
f  16/68/2 30/7/2 27/69/2
f  30/41/6 28/70/6 31/71/6
f  16/27/4 28/66/4 32/72/4
f  30/7/2 16/68/2 32/19/2
f  28/70/6 30/41/6 32/61/6

# Mesh 'mesh1_mesh1-geometry' with 60 faces
g mesh1_mesh1-geometry
usemtl material_1_24
f  3//6 2//6 1//6
f  4//6 1//6 2//6
f  2//6 3//6 5//6
f  1//5 6//5 3//5
f  4//4 7//4 1//4
f  8//6 4//6 2//6
f  5//3 3//3 9//3
f  5//2 9//2 2//2
f  10//5 3//5 6//5
f  1//4 11//4 6//4
f  7//4 12//4 1//4
f  7//4 4//4 13//4
f  14//6 4//6 8//6
f  8//3 2//3 15//3
f  9//3 3//3 16//3
f  17//2 2//2 9//2
f  10//3 18//3 3//3
f  10//1 6//1 18//1
f  19//4 6//4 11//4
f  12//4 11//4 1//4
f  12//2 7//2 20//2
f  13//4 4//4 21//4
f  13//1 22//1 7//1
f  23//6 4//6 14//6
f  8//5 15//5 14//5
f  17//3 15//3 2//3
f  16//3 3//3 24//3
f  9//3 16//3 25//3
f  17//6 9//6 15//6
f  24//3 3//3 18//3
f  19//1 18//1 6//1
f  19//2 11//2 18//2
f  21//4 11//4 12//4
f  26//2 20//2 7//2
f  12//6 20//6 21//6
f  21//4 4//4 27//4
f  13//5 21//5 22//5
f  26//1 7//1 22//1
f  23//2 28//2 4//2
f  14//3 25//3 23//3
f  25//5 14//5 15//5
f  24//1 11//1 16//1
f  25//3 16//3 23//3
f  25//6 15//6 9//6
f  24//2 18//2 11//2
f  11//4 21//4 27//4
f  26//4 22//4 20//4
f  29//6 21//6 20//6
f  27//4 4//4 30//4
f  29//5 22//5 21//5
f  31//2 4//2 28//2
f  23//3 16//3 28//3
f  27//1 16//1 11//1
f  29//4 20//4 22//4
f  31//4 30//4 4//4
f  27//5 30//5 16//5
f  31//1 28//1 30//1
f  32//3 28//3 16//3
f  32//5 16//5 30//5
f  32//1 30//1 28//1

