# File produced by Open Asset Import Library (http://www.assimp.sf.net)
# (assimp v3.2.202087883)

mtllib model_normalized.mtl

# 101 vertex positions
v 0.031174 0.027461 0.010106
v 0.181902 -0.322193 0.010106
v 0.202113 -0.322193 0.010106
v 0.000000 -0.019024 0.010106
v 0.181902 -0.322193 -0.010106
v 0.031174 0.027461 -0.010106
v -0.031174 0.027461 0.010106
v 0.202113 -0.322193 -0.010106
v 0.242536 0.061821 0.010106
v -0.242536 0.075296 0.010106
v -0.181902 -0.322193 0.010106
v 0.000000 -0.019024 -0.010106
v 0.242536 0.061821 -0.010106
v -0.242536 0.061821 0.010106
v -0.202113 -0.322193 0.010106
v 0.242536 0.075296 -0.010106
v 0.242536 0.075296 0.010106
v -0.242536 0.061821 -0.010106
v -0.202113 -0.322193 -0.010106
v -0.181902 -0.322193 -0.010106
v -0.031174 0.027461 -0.010106
v -0.242536 0.075296 -0.010106
v 0.010106 0.027461 -0.031174
v 0.010106 -0.322193 -0.181902
v 0.010106 -0.322193 -0.202113
v 0.010106 -0.019024 0.000000
v -0.010106 -0.322193 -0.181902
v -0.010106 0.027461 -0.031174
v 0.010106 0.027461 0.031174
v -0.010106 -0.322193 -0.202113
v 0.010106 0.061821 -0.242536
v 0.010106 0.075296 0.242536
v 0.010106 -0.322193 0.181902
v -0.010106 -0.019024 0.000000
v -0.010106 0.061821 -0.242536
v 0.010106 0.061821 0.242536
v 0.010106 -0.322193 0.202113
v -0.010106 0.075296 -0.242536
v 0.010106 0.075296 -0.242536
v -0.010106 0.061821 0.242536
v -0.010106 -0.322193 0.202113
v -0.010106 -0.322193 0.181902
v -0.010106 0.027461 0.031174
v -0.010106 0.075296 0.242536
v 0.000000 -0.019024 0.000000
v 0.010106 -0.035867 -0.010106
v -0.010106 -0.035867 0.010106
v -0.010106 -0.035867 -0.010106
v 0.010106 -0.035867 0.010106
v 0.010106 0.075296 -0.010106
v -0.010106 0.075296 0.010106
v -0.010106 0.075296 -0.010106
v 0.010106 0.075296 0.010106
v 0.312362 0.082033 -0.083697
v 0.312362 0.082033 0.083697
v 0.323381 0.082033 0.000000
v 0.280056 0.082033 -0.161690
v 0.323381 0.075296 0.000000
v 0.312362 0.075296 -0.083697
v 0.280056 0.075296 -0.161690
v 0.280056 0.082033 0.161690
v 0.312362 0.075296 0.083697
v 0.228665 0.075296 -0.228665
v 0.228665 0.082033 -0.228665
v 0.280056 0.075296 0.161690
v 0.228665 0.082033 0.228665
v 0.228665 0.075296 0.228665
v 0.161690 0.082033 -0.280056
v 0.161690 0.075296 -0.280056
v 0.161690 0.082033 0.280056
v 0.161690 0.075296 0.280056
v 0.083697 0.082033 -0.312362
v 0.083697 0.075296 -0.312362
v 0.083697 0.082033 0.312362
v 0.083697 0.075296 0.312362
v 0.000000 0.082033 -0.323381
v 0.000000 0.075296 -0.323381
v 0.000000 0.082033 0.323381
v 0.000000 0.075296 0.323381
v -0.083697 0.082033 -0.312362
v -0.083697 0.075296 -0.312362
v -0.083697 0.075296 0.312362
v -0.083697 0.082033 0.312362
v -0.161690 0.082033 -0.280056
v -0.161690 0.075296 -0.280056
v -0.161690 0.075296 0.280056
v -0.161690 0.082033 0.280056
v -0.228665 0.075296 -0.228665
v -0.228665 0.082033 -0.228665
v -0.280056 0.075296 -0.161690
v -0.228665 0.075296 0.228665
v -0.228665 0.082033 0.228665
v -0.280056 0.075296 0.161690
v -0.280056 0.082033 -0.161690
v -0.312362 0.075296 0.083697
v -0.280056 0.082033 0.161690
v -0.312362 0.082033 0.083697
v -0.312362 0.075296 -0.083697
v -0.312362 0.082033 -0.083697
v -0.323381 0.082033 0.000000
v -0.323381 0.075296 0.000000

# 60 UV coordinates
vt -1.56864 2.59499 0
vt -0.45 0 0
vt -0.3 0 0
vt -1.8 2.25 0
vt 0.45 0.15 0
vt 0.3 0 0
vt 0.45 0 0
vt -0.131761 0 0
vt -3.02026 0.15 0
vt -3.02026 0 0
vt -2.03136 2.59499 0
vt 2.85545 0 0
vt 0.231523 0.15 0
vt 0.231523 0 0
vt 0.3 0.15 0
vt -0.131761 0.15 0
vt 1.13191 0.15 0
vt -0.45732 0 0
vt 1.13191 0 0
vt -3.6 2.95 0
vt -3.15 0 0
vt 2.85545 0.15 0
vt 1.56864 2.59499 0
vt -0.45732 0.15 0
vt 0 2.85 0
vt -3.6 2.85 0
vt -3.3 0 0
vt 1.62066 0 0
vt -1.00327 0.15 0
vt -1.00327 0 0
vt 1.8 2.25 0
vt 0 2.95 0
vt -2.95 0.15 0
vt -2.85 0 0
vt -2.85 0.15 0
vt 2.95 0 0
vt 2.85 0.15 0
vt 2.85 0 0
vt 4.01067 0.15 0
vt 2.42144 0 0
vt 4.01067 0 0
vt 1.43912 0 0
vt -1.44937 0.15 0
vt -1.44937 0 0
vt 3.3 0.15 0
vt 3.15 0 0
vt 3.3 0 0
vt 1.62066 0.15 0
vt 2.03136 2.59499 0
vt 3.6 2.95 0
vt -2.95 0 0
vt 0 0.15 0
vt -3.6 0 0
vt 0 0 0
vt 2.95 0.15 0
vt 2.42144 0.15 0
vt 1.43912 0.15 0
vt 3.15 0.15 0
vt -3.6 0.15 0
vt 3.6 2.85 0

# 50 vertex normals
vn 0 0 0.0254
vn 0 -0 -0.0254
vn 0 -0.0254 0
vn 0 0.0254 0
vn 0.022819 0.0111558 0
vn -0.022819 -0.0111558 0
vn -0.0217803 -0.0130682 0
vn 0.0217803 0.0130682 0
vn 0.00407576 -0.0250709 0
vn -0.00407576 0.0250709 0
vn 0.0217803 -0.0130682 0
vn -0.0217803 0.0130682 0
vn 0.0254 0 0
vn -0.0254 0 0
vn -0.00407576 -0.0250709 0
vn 0.00407576 0.0250709 0
vn -0.022819 0.0111558 0
vn 0.022819 -0.0111558 0
vn 0 0.0111558 -0.022819
vn 0 -0.0111558 0.022819
vn 0 -0.0130682 0.0217803
vn 0 0.0130682 -0.0217803
vn 0 -0.0250709 -0.00407576
vn 0 0.0250709 0.00407576
vn -0 -0.0130682 -0.0217803
vn 0 0.0130682 0.0217803
vn 0 -0.0250709 0.00407576
vn 0 0.0250709 -0.00407576
vn 0 0.0111558 0.022819
vn -0 -0.0111558 -0.022819
vn 0.0245345 0 0.006574
vn -0.0245345 0 -0.006574
vn 0.0245345 0 -0.006574
vn -0.0245345 0 0.006574
vn 0.021997 0 -0.0127
vn -0.021997 0 0.0127
vn 0.0179605 0 -0.0179605
vn -0.0179605 0 0.0179605
vn 0.021997 0 0.0127
vn -0.021997 0 -0.0127
vn 0.0127 0 -0.021997
vn -0.0127 0 0.021997
vn 0.0179605 0 0.0179605
vn -0.0179605 0 -0.0179605
vn 0.0127 0 0.021997
vn -0.0127 0 -0.021997
vn 0.006574 0 -0.0245345
vn -0.006574 0 0.0245345
vn 0.006574 0 0.0245345
vn -0.006574 0 -0.0245345

# Mesh 'mesh1_mesh1-geometry' with 80 faces
g mesh1_mesh1-geometry
usemtl material_0_1_8
f  1/1/1 2/2/1 3/3/1
f  2/2/1 1/1/1 4/4/1
f  3/3/2 2/2/2 1/1/2
f  4/4/2 1/1/2 2/2/2
f  5/5/3 3/6/3 2/7/3
f  2/7/4 3/6/4 5/5/4
f  3/8/5 6/9/5 1/10/5
f  1/10/6 6/9/6 3/8/6
f  1/1/1 7/11/1 4/4/1
f  4/4/2 7/11/2 1/1/2
f  4/12/7 5/13/7 2/14/7
f  2/14/8 5/13/8 4/12/8
f  3/6/3 5/5/3 8/15/3
f  8/15/4 5/5/4 3/6/4
f  6/9/5 3/8/5 8/16/5
f  8/16/6 3/8/6 6/9/6
f  6/17/9 9/18/9 1/19/9
f  1/19/10 9/18/10 6/17/10
f  1/1/1 10/20/1 7/11/1
f  7/11/2 10/20/2 1/1/2
f  7/11/1 11/21/1 4/4/1
f  4/4/2 11/21/2 7/11/2
f  5/13/7 4/12/7 12/22/7
f  12/22/8 4/12/8 5/13/8
f  5/7/2 6/23/2 8/6/2
f  8/6/1 6/23/1 5/7/1
f  9/18/9 6/17/9 13/24/9
f  13/24/10 6/17/10 9/18/10
f  9/25/1 10/20/1 1/1/1
f  1/1/2 10/20/2 9/25/2
f  7/11/1 10/20/1 14/26/1
f  14/26/2 10/20/2 7/11/2
f  11/21/1 7/11/1 15/27/1
f  15/27/2 7/11/2 11/21/2
f  11/28/11 12/29/11 4/30/11
f  4/30/12 12/29/12 11/28/12
f  6/23/2 5/7/2 12/31/2
f  12/31/1 5/7/1 6/23/1
f  6/23/2 16/32/2 13/25/2
f  13/25/1 16/32/1 6/23/1
f  16/33/13 9/34/13 13/35/13
f  13/35/14 9/34/14 16/33/14
f  10/20/1 9/25/1 17/32/1
f  17/32/2 9/25/2 10/20/2
f  10/36/14 18/37/14 14/38/14
f  14/38/13 18/37/13 10/36/13
f  18/39/15 7/40/15 14/41/15
f  14/41/16 7/40/16 18/39/16
f  7/42/17 19/43/17 15/44/17
f  15/44/18 19/43/18 7/42/18
f  19/45/3 11/46/3 15/47/3
f  15/47/4 11/46/4 19/45/4
f  12/29/11 11/28/11 20/48/11
f  20/48/12 11/28/12 12/29/12
f  21/49/2 6/23/2 12/31/2
f  12/31/1 6/23/1 21/49/1
f  16/32/2 6/23/2 22/50/2
f  22/50/1 6/23/1 16/32/1
f  9/34/13 16/33/13 17/51/13
f  17/51/14 16/33/14 9/34/14
f  16/52/4 10/53/4 17/54/4
f  17/54/3 10/53/3 16/52/3
f  18/37/14 10/36/14 22/55/14
f  22/55/13 10/36/13 18/37/13
f  7/40/15 18/39/15 21/56/15
f  21/56/16 18/39/16 7/40/16
f  19/43/17 7/42/17 21/57/17
f  21/57/18 7/42/18 19/43/18
f  11/46/3 19/45/3 20/58/3
f  20/58/4 19/45/4 11/46/4
f  20/46/2 21/49/2 12/31/2
f  12/31/1 21/49/1 20/46/1
f  22/50/2 6/23/2 21/49/2
f  21/49/1 6/23/1 22/50/1
f  10/53/4 16/52/4 22/59/4
f  22/59/3 16/52/3 10/53/3
f  22/50/2 21/49/2 18/60/2
f  18/60/1 21/49/1 22/50/1
f  21/49/2 20/46/2 19/47/2
f  19/47/1 20/46/1 21/49/1

# Mesh 'mesh2_mesh2-geometry' with 33 faces
g mesh2_mesh2-geometry
usemtl material_1_0
l  10 14
l  17 10
l  10 22
l  7 14
l  14 18
l  9 17
l  17 16
l  16 22
l  22 18
l  15 7
l  7 21
l  21 18
l  1 9
l  9 13
l  13 16
l  15 11
l  15 19
l  19 21
l  1 3
l  1 6
l  6 13
l  4 11
l  11 20
l  19 20
l  3 2
l  3 8
l  6 8
l  4 2
l  4 12
l  12 20
l  2 5
l  8 5
l  12 5

# Mesh 'mesh3_mesh3-geometry' with 80 faces
g mesh3_mesh3-geometry
usemtl material_0_1_8
f  23/1/13 24/2/13 25/3/13
f  24/2/13 23/1/13 26/4/13
f  25/3/14 24/2/14 23/1/14
f  26/4/14 23/1/14 24/2/14
f  27/5/3 25/6/3 24/7/3
f  24/7/4 25/6/4 27/5/4
f  25/8/19 28/9/19 23/10/19
f  23/10/20 28/9/20 25/8/20
f  23/1/13 29/11/13 26/4/13
f  26/4/14 29/11/14 23/1/14
f  26/12/21 27/13/21 24/14/21
f  24/14/22 27/13/22 26/12/22
f  25/6/3 27/5/3 30/15/3
f  30/15/4 27/5/4 25/6/4
f  28/9/19 25/8/19 30/16/19
f  30/16/20 25/8/20 28/9/20
f  28/17/23 31/18/23 23/19/23
f  23/19/24 31/18/24 28/17/24
f  23/1/13 32/20/13 29/11/13
f  29/11/14 32/20/14 23/1/14
f  29/11/13 33/21/13 26/4/13
f  26/4/14 33/21/14 29/11/14
f  27/13/21 26/12/21 34/22/21
f  34/22/22 26/12/22 27/13/22
f  27/7/14 28/23/14 30/6/14
f  30/6/13 28/23/13 27/7/13
f  31/18/23 28/17/23 35/24/23
f  35/24/24 28/17/24 31/18/24
f  31/25/13 32/20/13 23/1/13
f  23/1/14 32/20/14 31/25/14
f  29/11/13 32/20/13 36/26/13
f  36/26/14 32/20/14 29/11/14
f  33/21/13 29/11/13 37/27/13
f  37/27/14 29/11/14 33/21/14
f  33/28/25 34/29/25 26/30/25
f  26/30/26 34/29/26 33/28/26
f  28/23/14 27/7/14 34/31/14
f  34/31/13 27/7/13 28/23/13
f  28/23/14 38/32/14 35/25/14
f  35/25/13 38/32/13 28/23/13
f  35/35/2 39/51/2 31/34/2
f  31/34/1 39/51/1 35/35/1
f  32/20/13 31/25/13 39/32/13
f  39/32/14 31/25/14 32/20/14
f  32/36/1 40/37/1 36/38/1
f  36/38/2 40/37/2 32/36/2
f  40/39/27 29/40/27 36/41/27
f  36/41/28 29/40/28 40/39/28
f  29/42/29 41/43/29 37/44/29
f  37/44/30 41/43/30 29/42/30
f  41/45/3 33/46/3 37/47/3
f  37/47/4 33/46/4 41/45/4
f  34/29/25 33/28/25 42/48/25
f  42/48/26 33/28/26 34/29/26
f  43/49/14 28/23/14 34/31/14
f  34/31/13 28/23/13 43/49/13
f  38/32/14 28/23/14 44/50/14
f  44/50/13 28/23/13 38/32/13
f  39/51/2 35/35/2 38/33/2
f  38/33/1 35/35/1 39/51/1
f  38/52/4 32/53/4 39/54/4
f  39/54/3 32/53/3 38/52/3
f  40/37/1 32/36/1 44/55/1
f  44/55/2 32/36/2 40/37/2
f  29/40/27 40/39/27 43/56/27
f  43/56/28 40/39/28 29/40/28
f  41/43/29 29/42/29 43/57/29
f  43/57/30 29/42/30 41/43/30
f  33/46/3 41/45/3 42/58/3
f  42/58/4 41/45/4 33/46/4
f  42/46/14 43/49/14 34/31/14
f  34/31/13 43/49/13 42/46/13
f  44/50/14 28/23/14 43/49/14
f  43/49/13 28/23/13 44/50/13
f  32/53/4 38/52/4 44/59/4
f  44/59/3 38/52/3 32/53/3
f  44/50/14 43/49/14 40/60/14
f  40/60/13 43/49/13 44/50/13
f  43/49/14 42/46/14 41/47/14
f  41/47/13 42/46/13 43/49/13

# Mesh 'mesh4_mesh4-geometry' with 33 faces
g mesh4_mesh4-geometry
usemtl material_1_0
l  32 36
l  39 32
l  32 44
l  29 36
l  36 40
l  31 39
l  39 38
l  38 44
l  44 40
l  37 29
l  29 43
l  43 40
l  23 31
l  31 35
l  35 38
l  37 33
l  37 41
l  41 43
l  23 25
l  23 28
l  28 35
l  26 33
l  33 42
l  41 42
l  25 24
l  25 30
l  28 30
l  26 24
l  26 34
l  34 42
l  24 27
l  30 27
l  34 27

# Mesh 'mesh5_mesh5-geometry' with 4 faces
g mesh5_mesh5-geometry
usemtl material_1_0
l  25 24
l  25 30
l  24 27
l  30 27

# Mesh 'mesh6_mesh6-geometry' with 12 faces
g mesh6_mesh6-geometry
usemtl material_1_0
l  45 46
l  45 47
l  45 48
l  49 45
l  46 50
l  51 47
l  52 48
l  53 49
l  50 53
l  52 50
l  51 52
l  53 51

# Mesh 'mesh7_mesh7-geometry' with 212 faces
g mesh7_mesh7-geometry
usemtl material_2_24
f  54//4 55//4 56//4
f  55//4 54//4 57//4
f  56//3 55//3 54//3
f  57//3 54//3 55//3
f  55//31 58//13 56//13
f  56//14 58//14 55//32
f  56//13 59//33 54//33
f  54//34 59//34 56//14
f  54//33 60//35 57//35
f  57//36 60//36 54//34
f  55//4 57//4 61//4
f  61//3 57//3 55//3
f  58//13 55//31 62//31
f  62//32 55//32 58//14
f  59//33 56//13 58//13
f  58//14 56//14 59//34
f  60//35 54//33 59//33
f  59//34 54//34 60//36
f  63//37 57//35 60//35
f  60//36 57//36 63//38
f  61//4 57//4 64//4
f  64//3 57//3 61//3
f  61//39 62//31 55//31
f  55//32 62//32 61//40
f  62//3 59//3 58//3
f  58//4 59//4 62//4
f  59//3 65//3 60//3
f  60//4 65//4 59//4
f  57//35 63//37 64//37
f  64//38 63//38 57//36
f  60//3 16//3 63//3
f  63//4 16//4 60//4
f  61//4 64//4 66//4
f  66//3 64//3 61//3
f  62//31 61//39 65//39
f  65//40 61//40 62//32
f  59//3 62//3 65//3
f  65//4 62//4 59//4
f  60//3 65//3 67//3
f  67//4 65//4 60//4
f  63//37 68//41 64//37
f  64//38 68//42 63//38
f  16//3 60//3 17//3
f  17//4 60//4 16//4
f  63//3 16//3 50//3
f  50//4 16//4 63//4
f  66//4 64//4 68//4
f  68//3 64//3 66//3
f  66//43 65//39 61//39
f  61//40 65//40 66//44
f  65//39 66//43 67//43
f  67//44 66//44 65//40
f  60//3 67//3 17//3
f  17//4 67//4 60//4
f  68//41 63//37 69//41
f  69//42 63//38 68//42
f  63//3 50//3 69//3
f  69//4 50//4 63//4
f  66//4 68//4 70//4
f  70//3 68//3 66//3
f  66//43 71//45 67//43
f  67//44 71//46 66//44
f  17//3 67//3 53//3
f  53//4 67//4 17//4
f  69//41 72//47 68//41
f  68//42 72//48 69//42
f  69//3 50//3 73//3
f  73//4 50//4 69//4
f  70//4 68//4 72//4
f  72//3 68//3 70//3
f  71//45 66//43 70//45
f  70//46 66//44 71//46
f  53//3 67//3 71//3
f  71//4 67//4 53//4
f  72//47 69//41 73//47
f  73//48 69//42 72//48
f  73//3 50//3 39//3
f  39//4 50//4 73//4
f  70//4 72//4 74//4
f  74//3 72//3 70//3
f  70//45 75//49 71//45
f  71//46 75//50 70//46
f  53//3 71//3 75//3
f  75//4 71//4 53//4
f  73//47 76//2 72//47
f  72//48 76//1 73//48
f  73//3 39//3 77//3
f  77//4 39//4 73//4
f  74//4 72//4 78//4
f  78//3 72//3 74//3
f  75//49 70//45 74//49
f  74//50 70//46 75//50
f  53//3 75//3 32//3
f  32//4 75//4 53//4
f  76//2 73//47 77//2
f  77//1 73//48 76//1
f  78//4 72//4 76//4
f  76//3 72//3 78//3
f  77//3 39//3 38//3
f  38//4 39//4 77//4
f  79//1 74//49 78//1
f  78//2 74//50 79//2
f  74//49 79//1 75//49
f  75//50 79//2 74//50
f  79//3 32//3 75//3
f  75//4 32//4 79//4
f  77//2 80//50 76//2
f  76//1 80//49 77//1
f  78//4 76//4 80//4
f  80//3 76//3 78//3
f  77//3 38//3 81//3
f  81//4 38//4 77//4
f  78//1 82//48 79//1
f  79//2 82//47 78//2
f  32//3 79//3 44//3
f  44//4 79//4 32//4
f  80//50 77//2 81//50
f  81//49 77//1 80//49
f  78//4 80//4 83//4
f  83//3 80//3 78//3
f  38//3 22//3 81//3
f  81//4 22//4 38//4
f  82//48 78//1 83//48
f  83//47 78//2 82//47
f  44//3 79//3 82//3
f  82//4 79//4 44//4
f  81//50 84//46 80//50
f  80//49 84//45 81//49
f  83//4 80//4 84//4
f  84//3 80//3 83//3
f  22//3 38//3 52//3
f  52//4 38//4 22//4
f  81//3 22//3 85//3
f  85//4 22//4 81//4
f  83//48 86//42 82//48
f  82//47 86//41 83//47
f  44//3 82//3 51//3
f  51//4 82//4 44//4
f  84//46 81//50 85//46
f  85//45 81//49 84//45
f  83//4 84//4 87//4
f  87//3 84//3 83//3
f  85//3 22//3 88//3
f  88//4 22//4 85//4
f  86//42 83//48 87//42
f  87//41 83//47 86//41
f  10//3 82//3 86//3
f  86//4 82//4 10//4
f  51//3 82//3 10//3
f  10//4 82//4 51//4
f  85//46 89//44 84//46
f  84//45 89//43 85//45
f  87//4 84//4 89//4
f  89//3 84//3 87//3
f  88//3 22//3 90//3
f  90//4 22//4 88//4
f  89//44 85//46 88//44
f  88//43 85//45 89//43
f  87//42 91//38 86//42
f  86//41 91//37 87//41
f  10//3 86//3 91//3
f  91//4 86//4 10//4
f  87//4 89//4 92//4
f  92//3 89//3 87//3
f  90//3 22//3 93//3
f  93//4 22//4 90//4
f  90//40 89//44 88//44
f  88//43 89//43 90//39
f  91//38 87//42 92//38
f  92//37 87//41 91//37
f  10//3 91//3 93//3
f  93//4 91//4 10//4
f  92//4 89//4 94//4
f  94//3 89//3 92//3
f  10//3 93//3 22//3
f  22//4 93//4 10//4
f  90//3 93//3 95//3
f  95//4 93//4 90//4
f  89//44 90//40 94//40
f  94//39 90//39 89//43
f  96//36 91//38 92//38
f  92//37 91//37 96//35
f  91//38 96//36 93//36
f  93//35 96//35 91//37
f  92//4 94//4 96//4
f  96//3 94//3 92//3
f  93//36 97//34 95//34
f  95//33 97//33 93//35
f  90//3 95//3 98//3
f  98//4 95//4 90//4
f  98//32 94//40 90//40
f  90//39 94//39 98//31
f  97//34 93//36 96//36
f  96//35 93//35 97//33
f  96//4 94//4 99//4
f  99//3 94//3 96//3
f  100//14 95//34 97//34
f  97//33 95//33 100//13
f  98//3 95//3 101//3
f  101//4 95//4 98//4
f  94//40 98//32 99//32
f  99//31 98//31 94//39
f  96//4 99//4 97//4
f  97//3 99//3 96//3
f  95//34 100//14 101//14
f  101//13 100//13 95//33
f  97//4 99//4 100//4
f  100//3 99//3 97//3
f  101//14 99//32 98//32
f  98//31 99//31 101//13
f  99//32 101//14 100//14
f  100//13 101//13 99//31

# Mesh 'mesh8_mesh8-geometry' with 24 faces
g mesh8_mesh8-geometry
usemtl material_1_0
l  70 74
l  66 70
l  74 78
l  61 66
l  78 83
l  55 61
l  83 87
l  56 55
l  87 92
l  54 56
l  92 96
l  57 54
l  96 97
l  64 57
l  97 100
l  68 64
l  100 99
l  72 68
l  99 94
l  76 72
l  94 89
l  80 76
l  89 84
l  84 80

# Mesh 'mesh9_mesh9-geometry' with 24 faces
g mesh9_mesh9-geometry
usemtl material_1_0
l  71 75
l  67 71
l  75 79
l  65 67
l  79 82
l  62 65
l  82 86
l  58 62
l  86 91
l  59 58
l  91 93
l  60 59
l  93 95
l  63 60
l  95 101
l  69 63
l  101 98
l  73 69
l  98 90
l  77 73
l  90 88
l  81 77
l  88 85
l  85 81

