# File produced by Open Asset Import Library (http://www.assimp.sf.net)
# (assimp v3.2.202087883)

mtllib model_normalized.mtl

# 17 vertex positions
v -0.257802 -0.257081 0.358579
v 0.370598 -0.257081 -0.310385
v 0.370598 -0.257081 0.358579
v -0.257802 -0.257081 -0.310385
v 0.370598 0.139908 0.358579
v -0.257802 0.139908 -0.310385
v 0.370598 0.139908 -0.310385
v -0.257802 0.139908 0.358579
v 0.370598 0.136820 -0.310385
v -0.257802 0.136820 -0.310385
v 0.346983 0.139908 -0.276115
v -0.242268 0.139908 -0.276115
v 0.346983 0.139908 0.291629
v -0.242268 0.139908 0.291629
v -0.257802 -0.252243 -0.310385
v -0.257802 -0.252243 0.353673
v -0.257802 0.139908 0.353673

# 4 UV coordinates
vt 0 0 0
vt 1 0 0
vt 0 1 0
vt 1 1 0

# 6 vertex normals
vn 0 -0.0254 0
vn 0.0254 0 0
vn 0 0 0.0254
vn -0.0254 0 0
vn 0 0 -0.0254
vn 0 0.0254 0

# Mesh 'mesh1_mesh1-geometry' with 12 faces
g mesh1_mesh1-geometry
usemtl material_0_24
f  1/1/1 2/1/1 3/1/1
f  2/1/1 1/1/1 4/1/1
f  2/1/2 5/1/2 3/1/2
f  5/1/3 1/1/3 3/1/3
f  1/1/4 6/1/4 4/1/4
f  6/1/5 2/1/5 4/1/5
f  5/1/2 2/1/2 7/1/2
f  1/1/3 5/1/3 8/1/3
f  6/1/4 1/1/4 8/1/4
f  2/1/5 6/1/5 7/1/5
f  6/1/6 5/1/6 7/1/6
f  5/1/6 6/1/6 8/1/6

# Mesh 'mesh1_mesh1-geometry' with 12 faces
g mesh1_mesh1-geometry
usemtl material_1_24
f  3/1/6 2/1/6 1/1/6
f  4/1/6 1/1/6 2/1/6
f  3/1/4 5/1/4 2/1/4
f  3/1/5 1/1/5 5/1/5
f  4/1/2 6/1/2 1/1/2
f  4/1/3 2/1/3 6/1/3
f  7/1/4 2/1/4 5/1/4
f  8/1/5 5/1/5 1/1/5
f  8/1/2 1/1/2 6/1/2
f  7/1/3 6/1/3 2/1/3
f  7/1/1 5/1/1 6/1/1
f  8/1/1 6/1/1 5/1/1

# Mesh 'mesh1_mesh1-geometry' with 4 faces
g mesh1_mesh1-geometry
usemtl material_1_1_0
f  2/1/5 4/2/5 9/3/5
f  2/1/3 9/3/3 4/2/3
f  10/4/5 9/3/5 4/2/5
f  10/4/3 4/2/3 9/3/3

# Mesh 'mesh2_mesh2-geometry' with 4 faces
g mesh2_mesh2-geometry
usemtl material_1_2_0
f  11/1/6 12/2/6 13/3/6
f  11/1/1 13/3/1 12/2/1
f  14/4/6 13/3/6 12/2/6
f  14/4/1 12/2/1 13/3/1

# Mesh 'mesh3_mesh3-geometry' with 4 faces
g mesh3_mesh3-geometry
usemtl material_1_3_0
f  15/1/4 16/2/4 6/3/4
f  15/1/2 6/3/2 16/2/2
f  17/4/4 6/3/4 16/2/4
f  17/4/2 16/2/2 6/3/2

