# File produced by Open Asset Import Library (http://www.assimp.sf.net)
# (assimp v3.2.202087883)

mtllib model_normalized.mtl

# 90 vertex positions
v -0.306972 0.148540 0.175683
v 0.513583 0.017251 0.142861
v 0.513583 0.148540 0.175683
v -0.274150 0.017251 0.142861
v 0.513583 0.148540 0.208506
v -0.309171 0.156746 0.177882
v -0.274150 0.017251 -0.251005
v -0.175683 0.017251 0.044395
v 0.513583 -0.048393 0.208506
v 0.513583 0.156746 0.206307
v 0.513583 0.156746 0.177882
v -0.306972 0.148540 -0.251005
v 0.513583 0.017251 0.044395
v 0.513583 -0.048393 0.011572
v -0.339794 -0.048393 0.208506
v -0.339794 0.148540 0.208506
v 0.513583 0.162752 0.183889
v -0.309171 0.156746 -0.251005
v -0.339794 -0.048393 -0.251005
v -0.175683 0.017251 -0.251005
v 0.513583 0.012854 0.027983
v -0.159272 0.012854 0.027983
v 0.513583 -0.015571 0.011572
v -0.337595 0.156746 0.206307
v 0.513583 0.162752 0.200300
v -0.315178 0.162752 0.183889
v 0.513583 0.000840 0.015970
v -0.142861 -0.015571 0.011572
v -0.142861 -0.048393 0.011572
v -0.339794 0.148540 -0.251005
v -0.337595 0.156746 -0.251005
v 0.513583 0.164951 0.192094
v -0.315178 0.162752 -0.251005
v -0.159272 0.012854 -0.251005
v -0.147259 0.000840 0.015970
v -0.331589 0.162752 -0.251005
v -0.331589 0.162752 0.200300
v -0.323383 0.164951 0.192094
v -0.323383 0.164951 -0.251005
v -0.147259 0.000840 -0.251005
v -0.142861 -0.048393 -0.251005
v -0.142861 -0.015571 -0.251005
v 0.497172 -0.048393 0.027983
v 0.491701 -0.081215 0.038924
v 0.491701 -0.081215 0.033454
v 0.497172 -0.048393 0.044395
v 0.486231 -0.081215 0.033454
v 0.480760 -0.048393 0.027983
v 0.480760 -0.048393 0.044395
v 0.486231 -0.081215 0.038924
v 0.497172 -0.048393 0.175683
v 0.491701 -0.081215 0.186624
v 0.491701 -0.081215 0.181154
v 0.497172 -0.048393 0.192094
v 0.486231 -0.081215 0.181154
v 0.480760 -0.048393 0.175683
v 0.480760 -0.048393 0.192094
v 0.486231 -0.081215 0.186624
v -0.159272 -0.048393 0.027983
v -0.164743 -0.081215 0.038924
v -0.164743 -0.081215 0.033454
v -0.159272 -0.048393 0.044395
v -0.170213 -0.081215 0.033454
v -0.175683 -0.048393 0.027983
v -0.175683 -0.048393 0.044395
v -0.170213 -0.081215 0.038924
v -0.159272 -0.048393 -0.234594
v -0.164743 -0.081215 -0.223653
v -0.164743 -0.081215 -0.229124
v -0.159272 -0.048393 -0.218183
v -0.170213 -0.081215 -0.229124
v -0.175683 -0.048393 -0.234594
v -0.175683 -0.048393 -0.218183
v -0.170213 -0.081215 -0.223653
v -0.306972 -0.048393 0.175683
v -0.312442 -0.081215 0.186624
v -0.312442 -0.081215 0.181154
v -0.306972 -0.048393 0.192094
v -0.317913 -0.081215 0.181154
v -0.323383 -0.048393 0.175683
v -0.323383 -0.048393 0.192094
v -0.317913 -0.081215 0.186624
v -0.306972 -0.048393 -0.234594
v -0.312442 -0.081215 -0.223653
v -0.312442 -0.081215 -0.229124
v -0.306972 -0.048393 -0.218183
v -0.317913 -0.081215 -0.229124
v -0.323383 -0.048393 -0.234594
v -0.323383 -0.048393 -0.218183
v -0.317913 -0.081215 -0.223653

# 0 UV coordinates

# 46 vertex normals
vn -0 -0.00616041 0.0246416
vn -0.0254 0 0
vn -0 -0.006574 0.0245345
vn -0 -0.0127 0.021997
vn -0.0246416 -0.00616041 0
vn 0 -0.0254 0
vn -0.021997 -0.0127 0
vn -0.0245345 -0.006574 0
vn 0 0 -0.0254
vn 0 -0.006574 -0.0245345
vn 0 -0.0127 -0.021997
vn -0 -0.021997 0.0127
vn 0 0 0.0254
vn -0 -0.0245345 0.006574
vn 0 0.0254 0
vn -0.0127 -0.021997 0
vn -0.006574 -0.0245345 0
vn 0.0254 0 0
vn 0.0245345 -0.006574 -0
vn 0.021997 -0.0127 -0
vn 0 -0.021997 -0.0127
vn 0.0127 -0.021997 -0
vn 0 0.00616041 -0.0246416
vn 0 0.006574 -0.0245345
vn 0 0.0127 -0.021997
vn 0.0246416 0.00616041 0
vn 0.0245345 0.006574 0
vn 0.021997 0.0127 0
vn 0 0.006574 0.0245345
vn 0 0.0127 0.021997
vn 0 0.021997 -0.0127
vn 0 0.0245345 -0.006574
vn 0.0127 0.021997 0
vn 0.006574 0.0245345 0
vn -0.021997 0.0127 0
vn -0.0245345 0.006574 0
vn 0 0.021997 0.0127
vn -0.0127 0.021997 0
vn 0.0250544 -0.00417573 -0
vn 0 -0.00417573 -0.0250544
vn -0 -0.00417573 0.0250544
vn -0.0250544 -0.00417573 0
vn -0.0250544 0.00417573 0
vn 0 0.00417573 0.0250544
vn 0 0.00417573 -0.0250544
vn 0.0250544 0.00417573 0

# Mesh 'mesh1_mesh1-geometry' with 80 faces
g mesh1_mesh1-geometry
usemtl material_0_24
f  1//1 2//1 3//1
f  2//1 1//1 4//1
f  2//2 5//2 3//2
f  3//3 6//4 1//3
f  1//5 7//5 4//5
f  4//6 8//6 2//6
f  2//2 9//2 5//2
f  3//2 5//2 10//2
f  6//4 3//3 11//4
f  6//7 12//8 1//8
f  7//5 1//5 12//5
f  8//6 4//6 7//6
f  13//6 2//6 8//6
f  9//2 2//2 14//2
f  15//9 5//9 9//9
f  16//10 10//11 5//10
f  3//2 10//2 11//2
f  17//12 6//4 11//4
f  12//8 6//7 18//7
f  19//13 7//13 12//13
f  8//6 7//6 20//6
f  13//2 21//2 2//2
f  22//12 13//14 8//14
f  14//2 2//2 23//2
f  14//15 15//15 9//15
f  5//9 15//9 16//9
f  10//11 16//10 24//11
f  11//2 10//2 25//2
f  6//4 17//12 26//12
f  11//2 25//2 17//2
f  26//16 18//7 6//7
f  19//13 12//13 18//13
f  19//13 20//13 7//13
f  20//17 22//16 8//17
f  13//14 22//12 21//12
f  27//2 2//2 21//2
f  23//2 2//2 27//2
f  28//13 14//13 23//13
f  15//15 14//15 29//15
f  15//18 30//18 16//18
f  16//19 31//20 24//20
f  24//11 25//21 10//11
f  32//6 26//12 17//12
f  17//2 25//2 32//2
f  18//7 26//16 33//16
f  19//13 18//13 33//13
f  19//13 34//13 20//13
f  22//16 20//17 34//16
f  22//12 27//4 21//12
f  35//4 23//3 27//4
f  14//13 28//13 29//13
f  23//3 35//4 28//3
f  15//15 29//15 19//15
f  30//18 15//18 19//18
f  31//20 16//19 30//19
f  36//22 24//20 31//20
f  25//21 24//11 37//21
f  26//12 32//6 38//6
f  25//21 38//6 32//6
f  26//16 39//6 33//16
f  19//13 33//13 39//13
f  19//13 40//13 34//13
f  40//7 22//16 34//16
f  27//4 22//12 35//4
f  28//2 41//2 29//2
f  35//7 42//8 28//8
f  19//15 29//15 41//15
f  19//13 31//13 30//13
f  24//20 36//22 37//22
f  19//13 36//13 31//13
f  38//6 25//21 37//21
f  39//6 26//16 38//6
f  19//13 39//13 36//13
f  41//13 40//13 19//13
f  22//16 40//7 35//7
f  41//2 28//2 42//2
f  42//8 35//7 40//7
f  36//22 38//6 37//22
f  38//6 36//22 39//6
f  40//13 41//13 42//13

# Mesh 'mesh1_mesh1-geometry' with 80 faces
g mesh1_mesh1-geometry
usemtl material_1_24
f  3//23 2//23 1//23
f  4//23 1//23 2//23
f  3//18 5//18 2//18
f  1//24 6//25 3//24
f  4//26 7//26 1//26
f  2//15 8//15 4//15
f  5//18 9//18 2//18
f  10//18 5//18 3//18
f  11//25 3//24 6//25
f  1//27 12//27 6//28
f  12//26 1//26 7//26
f  7//15 4//15 8//15
f  8//15 2//15 13//15
f  14//18 2//18 9//18
f  9//13 5//13 15//13
f  5//29 10//30 16//29
f  11//18 10//18 3//18
f  11//25 6//25 17//31
f  18//28 6//28 12//27
f  12//9 7//9 19//9
f  20//15 7//15 8//15
f  2//18 21//18 13//18
f  8//32 13//32 22//31
f  23//18 2//18 14//18
f  9//6 15//6 14//6
f  16//13 15//13 5//13
f  24//30 16//29 10//30
f  25//18 10//18 11//18
f  26//31 17//31 6//25
f  17//18 25//18 11//18
f  6//28 18//28 26//33
f  18//9 12//9 19//9
f  7//9 20//9 19//9
f  8//34 22//33 20//34
f  21//31 22//31 13//32
f  21//18 2//18 27//18
f  27//18 2//18 23//18
f  23//9 14//9 28//9
f  29//6 14//6 15//6
f  16//2 30//2 15//2
f  24//35 31//35 16//36
f  10//30 25//37 24//30
f  17//31 26//31 32//15
f  32//18 25//18 17//18
f  33//33 26//33 18//28
f  33//9 18//9 19//9
f  20//9 34//9 19//9
f  34//33 20//34 22//33
f  21//31 27//25 22//31
f  27//25 23//24 35//25
f  29//9 28//9 14//9
f  28//24 35//25 23//24
f  19//6 29//6 15//6
f  19//2 15//2 30//2
f  30//36 16//36 31//35
f  31//35 24//35 36//38
f  37//37 24//30 25//37
f  38//15 32//15 26//31
f  32//15 38//15 25//37
f  33//33 39//15 26//33
f  39//9 33//9 19//9
f  34//9 40//9 19//9
f  34//33 22//33 40//28
f  35//25 22//31 27//25
f  29//18 41//18 28//18
f  28//27 42//27 35//28
f  41//6 29//6 19//6
f  30//9 31//9 19//9
f  37//38 36//38 24//35
f  31//9 36//9 19//9
f  37//37 25//37 38//15
f  38//15 26//33 39//15
f  36//9 39//9 19//9
f  19//9 40//9 41//9
f  35//28 40//28 22//33
f  42//18 28//18 41//18
f  40//28 35//28 42//27
f  37//38 38//15 36//38
f  39//15 36//38 38//15
f  42//9 41//9 40//9

# Mesh 'mesh2_mesh2-geometry' with 12 faces
g mesh2_mesh2-geometry
usemtl material_2_24
f  43//39 44//39 45//39
f  44//39 43//39 46//39
f  44//6 47//6 45//6
f  45//40 48//40 43//40
f  43//15 49//15 46//15
f  49//41 44//41 46//41
f  47//6 44//6 50//6
f  48//40 45//40 47//40
f  49//15 43//15 48//15
f  44//41 49//41 50//41
f  49//42 47//42 50//42
f  47//42 49//42 48//42

# Mesh 'mesh2_mesh2-geometry' with 12 faces
g mesh2_mesh2-geometry
usemtl material_0_24
f  45//43 44//43 43//43
f  46//43 43//43 44//43
f  45//15 47//15 44//15
f  43//44 48//44 45//44
f  46//6 49//6 43//6
f  46//45 44//45 49//45
f  50//15 44//15 47//15
f  47//44 45//44 48//44
f  48//6 43//6 49//6
f  50//45 49//45 44//45
f  50//46 47//46 49//46
f  48//46 49//46 47//46

# Mesh 'mesh2_mesh2-geometry' with 12 faces
g mesh2_mesh2-geometry
usemtl material_2_24
f  51//39 52//39 53//39
f  52//39 51//39 54//39
f  52//6 55//6 53//6
f  53//40 56//40 51//40
f  51//15 57//15 54//15
f  57//41 52//41 54//41
f  55//6 52//6 58//6
f  56//40 53//40 55//40
f  57//15 51//15 56//15
f  52//41 57//41 58//41
f  57//42 55//42 58//42
f  55//42 57//42 56//42

# Mesh 'mesh2_mesh2-geometry' with 12 faces
g mesh2_mesh2-geometry
usemtl material_0_24
f  53//43 52//43 51//43
f  54//43 51//43 52//43
f  53//15 55//15 52//15
f  51//44 56//44 53//44
f  54//6 57//6 51//6
f  54//45 52//45 57//45
f  58//15 52//15 55//15
f  55//44 53//44 56//44
f  56//6 51//6 57//6
f  58//45 57//45 52//45
f  58//46 55//46 57//46
f  56//46 57//46 55//46

# Mesh 'mesh2_mesh2-geometry' with 12 faces
g mesh2_mesh2-geometry
usemtl material_2_24
f  59//39 60//39 61//39
f  60//39 59//39 62//39
f  60//6 63//6 61//6
f  61//40 64//40 59//40
f  59//15 65//15 62//15
f  65//41 60//41 62//41
f  63//6 60//6 66//6
f  64//40 61//40 63//40
f  65//15 59//15 64//15
f  60//41 65//41 66//41
f  65//42 63//42 66//42
f  63//42 65//42 64//42

# Mesh 'mesh2_mesh2-geometry' with 12 faces
g mesh2_mesh2-geometry
usemtl material_0_24
f  61//43 60//43 59//43
f  62//43 59//43 60//43
f  61//15 63//15 60//15
f  59//44 64//44 61//44
f  62//6 65//6 59//6
f  62//45 60//45 65//45
f  66//15 60//15 63//15
f  63//44 61//44 64//44
f  64//6 59//6 65//6
f  66//45 65//45 60//45
f  66//46 63//46 65//46
f  64//46 65//46 63//46

# Mesh 'mesh2_mesh2-geometry' with 12 faces
g mesh2_mesh2-geometry
usemtl material_2_24
f  67//39 68//39 69//39
f  68//39 67//39 70//39
f  68//6 71//6 69//6
f  69//40 72//40 67//40
f  67//15 73//15 70//15
f  73//41 68//41 70//41
f  71//6 68//6 74//6
f  72//40 69//40 71//40
f  73//15 67//15 72//15
f  68//41 73//41 74//41
f  73//42 71//42 74//42
f  71//42 73//42 72//42

# Mesh 'mesh2_mesh2-geometry' with 12 faces
g mesh2_mesh2-geometry
usemtl material_0_24
f  69//43 68//43 67//43
f  70//43 67//43 68//43
f  69//15 71//15 68//15
f  67//44 72//44 69//44
f  70//6 73//6 67//6
f  70//45 68//45 73//45
f  74//15 68//15 71//15
f  71//44 69//44 72//44
f  72//6 67//6 73//6
f  74//45 73//45 68//45
f  74//46 71//46 73//46
f  72//46 73//46 71//46

# Mesh 'mesh2_mesh2-geometry' with 12 faces
g mesh2_mesh2-geometry
usemtl material_2_24
f  75//39 76//39 77//39
f  76//39 75//39 78//39
f  76//6 79//6 77//6
f  77//40 80//40 75//40
f  75//15 81//15 78//15
f  81//41 76//41 78//41
f  79//6 76//6 82//6
f  80//40 77//40 79//40
f  81//15 75//15 80//15
f  76//41 81//41 82//41
f  81//42 79//42 82//42
f  79//42 81//42 80//42

# Mesh 'mesh2_mesh2-geometry' with 12 faces
g mesh2_mesh2-geometry
usemtl material_0_24
f  77//43 76//43 75//43
f  78//43 75//43 76//43
f  77//15 79//15 76//15
f  75//44 80//44 77//44
f  78//6 81//6 75//6
f  78//45 76//45 81//45
f  82//15 76//15 79//15
f  79//44 77//44 80//44
f  80//6 75//6 81//6
f  82//45 81//45 76//45
f  82//46 79//46 81//46
f  80//46 81//46 79//46

# Mesh 'mesh2_mesh2-geometry' with 12 faces
g mesh2_mesh2-geometry
usemtl material_2_24
f  83//39 84//39 85//39
f  84//39 83//39 86//39
f  84//6 87//6 85//6
f  85//40 88//40 83//40
f  83//15 89//15 86//15
f  89//41 84//41 86//41
f  87//6 84//6 90//6
f  88//40 85//40 87//40
f  89//15 83//15 88//15
f  84//41 89//41 90//41
f  89//42 87//42 90//42
f  87//42 89//42 88//42

# Mesh 'mesh2_mesh2-geometry' with 12 faces
g mesh2_mesh2-geometry
usemtl material_0_24
f  85//43 84//43 83//43
f  86//43 83//43 84//43
f  85//15 87//15 84//15
f  83//44 88//44 85//44
f  86//6 89//6 83//6
f  86//45 84//45 89//45
f  90//15 84//15 87//15
f  87//44 85//44 88//44
f  88//6 83//6 89//6
f  90//45 89//45 84//45
f  90//46 87//46 89//46
f  88//46 89//46 87//46

