# File produced by Open Asset Import Library (http://www.assimp.sf.net)
# (assimp v3.2.202087883)

mtllib model_normalized.mtl

# 24 vertex positions
v 0.409534 -0.112167 0.054413
v -0.374527 -0.112167 -0.060622
v 0.409534 -0.112167 -0.060622
v -0.374527 -0.112167 0.054413
v 0.409534 -0.048362 -0.060622
v -0.374527 -0.048362 0.054413
v -0.374527 -0.048362 -0.060622
v 0.409534 -0.048362 0.054413
v -0.374527 -0.048362 -0.153537
v 0.484283 0.069235 -0.153537
v 0.409534 -0.048362 0.156641
v -0.448577 0.071031 0.156641
v 0.409534 -0.048362 -0.153537
v -0.374527 -0.048362 0.156641
v -0.268651 0.069617 -0.153537
v -0.448577 0.071031 -0.153537
v 0.321564 0.069235 -0.153537
v 0.484283 0.069235 0.156641
v -0.268651 0.069617 0.156641
v -0.220097 0.069235 -0.153537
v 0.321564 0.069235 0.001553
v 0.321564 0.069235 0.156641
v -0.220097 0.069235 0.156641
v -0.268651 0.069617 0.001553

# 0 UV coordinates

# 14 vertex normals
vn 0 -0.0254 0
vn 0 0 -0.0254
vn 0.0254 0 0
vn 0 0 0.0254
vn -0.0254 0 0
vn 0.021436 -0.0136257 0
vn -0.0215853 -0.0133879 0
vn 0.000199593 0.0253992 0
vn 0 0.0254 0
vn 1.64084e-05 0.0254 0
vn -0.021436 0.0136257 0
vn 0.0215853 0.0133879 0
vn -0.000199593 -0.0253992 -0
vn -1.64084e-05 -0.0254 0

# Mesh 'mesh1_mesh1-geometry' with 42 faces
g mesh1_mesh1-geometry
usemtl material_0_24
f  1//1 2//1 3//1
f  2//1 1//1 4//1
f  2//2 5//2 3//2
f  5//3 1//3 3//3
f  1//4 6//4 4//4
f  6//5 2//5 4//5
f  5//2 2//2 7//2
f  1//3 5//3 8//3
f  6//4 1//4 8//4
f  2//5 6//5 7//5
f  9//1 5//1 7//1
f  5//6 10//6 8//6
f  11//1 6//1 8//1
f  6//7 12//7 7//7
f  5//1 9//1 13//1
f  7//7 12//7 9//7
f  10//6 5//6 13//6
f  8//6 10//6 11//6
f  6//1 11//1 14//1
f  12//7 6//7 14//7
f  9//2 15//2 13//2
f  9//7 12//7 16//7
f  13//2 17//2 10//2
f  11//6 10//6 18//6
f  19//4 14//4 11//4
f  14//4 19//4 12//4
f  15//2 9//2 16//2
f  13//2 15//2 20//2
f  12//8 15//8 16//8
f  13//2 20//2 17//2
f  21//9 10//9 17//9
f  10//9 21//9 18//9
f  22//4 11//4 18//4
f  19//4 11//4 23//4
f  24//8 12//8 19//8
f  15//8 12//8 24//8
f  17//10 24//10 21//10
f  18//9 21//9 22//9
f  23//4 11//4 22//4
f  19//10 21//10 24//10
f  24//10 17//10 15//10
f  21//10 19//10 22//10

# Mesh 'mesh1_mesh1-geometry' with 42 faces
g mesh1_mesh1-geometry
usemtl material_1_24
f  3//9 2//9 1//9
f  4//9 1//9 2//9
f  3//4 5//4 2//4
f  3//5 1//5 5//5
f  4//2 6//2 1//2
f  4//3 2//3 6//3
f  7//4 2//4 5//4
f  8//5 5//5 1//5
f  8//2 1//2 6//2
f  7//3 6//3 2//3
f  7//9 5//9 9//9
f  8//11 10//11 5//11
f  8//9 6//9 11//9
f  7//12 12//12 6//12
f  13//9 9//9 5//9
f  9//12 12//12 7//12
f  13//11 5//11 10//11
f  11//11 10//11 8//11
f  14//9 11//9 6//9
f  14//12 6//12 12//12
f  13//4 15//4 9//4
f  16//12 12//12 9//12
f  10//4 17//4 13//4
f  18//11 10//11 11//11
f  11//2 14//2 19//2
f  12//2 19//2 14//2
f  16//4 9//4 15//4
f  20//4 15//4 13//4
f  16//13 15//13 12//13
f  17//4 20//4 13//4
f  17//1 10//1 21//1
f  18//1 21//1 10//1
f  18//2 11//2 22//2
f  23//2 11//2 19//2
f  19//13 12//13 24//13
f  24//13 12//13 15//13
f  21//14 24//14 17//14
f  22//1 21//1 18//1
f  22//2 11//2 23//2
f  24//14 21//14 19//14
f  15//14 17//14 24//14
f  22//14 19//14 21//14

