# File produced by Open Asset Import Library (http://www.assimp.sf.net)
# (assimp v3.2.202087883)

mtllib model_normalized.mtl

# 32 vertex positions
v -0.261602 0.344754 -0.261602
v -0.205545 -0.327937 -0.261602
v -0.261602 -0.327937 -0.261602
v -0.205545 0.322331 -0.261602
v -0.261602 -0.327937 -0.205545
v 0.205545 0.322331 -0.261602
v -0.205545 0.322331 -0.205545
v -0.205545 -0.327937 -0.205545
v -0.261602 0.322331 -0.205545
v 0.261602 0.344754 -0.261602
v -0.205545 0.322331 0.261602
v -0.205545 0.322331 0.205545
v -0.261602 0.344754 0.261602
v 0.261602 -0.327937 -0.261602
v 0.261602 0.344754 0.261602
v 0.205545 0.322331 -0.205545
v -0.261602 0.322331 0.205545
v 0.205545 -0.327937 -0.261602
v 0.261602 0.322331 -0.205545
v 0.205545 0.322331 0.205545
v 0.205545 -0.327937 -0.205545
v -0.205545 -0.327937 0.205545
v -0.261602 -0.327937 0.261602
v 0.261602 -0.327937 -0.205545
v 0.261602 0.322331 0.205545
v 0.205545 0.322331 0.261602
v -0.205545 -0.327937 0.261602
v -0.261602 -0.327937 0.205545
v 0.261602 -0.327937 0.205545
v 0.205545 -0.327937 0.261602
v 0.261602 -0.327937 0.261602
v 0.205545 -0.327937 0.205545

# 0 UV coordinates

# 6 vertex normals
vn 0 0 -0.001
vn 0 0 0.001
vn 0 -0.001 -0
vn 0 0.001 0
vn -0.001 0 0
vn 0.001 -0 -0

# Mesh 'mesh1_mesh1-geometry' with 120 faces
g mesh1_mesh1-geometry
usemtl material_0_24
f  1//1 2//1 3//1
f  2//1 1//1 4//1
f  3//2 2//2 1//2
f  4//2 1//2 2//2
f  2//3 5//3 3//3
f  3//4 5//4 2//4
f  5//5 1//5 3//5
f  3//6 1//6 5//6
f  4//1 1//1 6//1
f  6//2 1//2 4//2
f  7//6 2//6 4//6
f  4//5 2//5 7//5
f  5//3 2//3 8//3
f  8//4 2//4 5//4
f  1//5 5//5 9//5
f  9//6 5//6 1//6
f  10//1 6//1 1//1
f  1//2 6//2 10//2
f  6//3 11//3 4//3
f  4//4 11//4 6//4
f  2//6 7//6 8//6
f  8//5 7//5 2//5
f  4//3 12//3 7//3
f  7//4 12//4 4//4
f  7//2 5//2 8//2
f  8//1 5//1 7//1
f  5//2 7//2 9//2
f  9//1 7//1 5//1
f  1//5 9//5 13//5
f  13//6 9//6 1//6
f  14//1 6//1 10//1
f  10//2 6//2 14//2
f  1//4 15//4 10//4
f  10//3 15//3 1//3
f  16//3 11//3 6//3
f  6//4 11//4 16//4
f  4//3 11//3 12//3
f  12//4 11//4 4//4
f  17//3 7//3 12//3
f  12//4 7//4 17//4
f  7//3 17//3 9//3
f  9//4 17//4 7//4
f  13//5 9//5 17//5
f  17//6 9//6 13//6
f  15//4 1//4 13//4
f  13//3 1//3 15//3
f  6//1 14//1 18//1
f  18//2 14//2 6//2
f  10//6 19//6 14//6
f  14//5 19//5 10//5
f  19//6 10//6 15//6
f  15//5 10//5 19//5
f  20//3 11//3 16//3
f  16//4 11//4 20//4
f  6//5 21//5 16//5
f  16//6 21//6 6//6
f  11//6 22//6 12//6
f  12//5 22//5 11//5
f  22//1 17//1 12//1
f  12//2 17//2 22//2
f  13//5 17//5 23//5
f  23//6 17//6 13//6
f  13//2 11//2 15//2
f  15//1 11//1 13//1
f  14//3 21//3 18//3
f  18//4 21//4 14//4
f  21//5 6//5 18//5
f  18//6 6//6 21//6
f  24//6 14//6 19//6
f  19//5 14//5 24//5
f  19//6 15//6 25//6
f  25//5 15//5 19//5
f  11//3 20//3 26//3
f  26//4 20//4 11//4
f  19//3 20//3 16//3
f  16//4 20//4 19//4
f  21//2 19//2 16//2
f  16//1 19//1 21//1
f  22//6 11//6 27//6
f  27//5 11//5 22//5
f  17//1 22//1 28//1
f  28//2 22//2 17//2
f  23//5 17//5 28//5
f  28//6 17//6 23//6
f  23//2 11//2 13//2
f  13//1 11//1 23//1
f  26//2 15//2 11//2
f  11//1 15//1 26//1
f  21//3 14//3 24//3
f  24//4 14//4 21//4
f  19//2 21//2 24//2
f  24//1 21//1 19//1
f  25//6 15//6 29//6
f  29//5 15//5 25//5
f  20//3 19//3 25//3
f  25//4 19//4 20//4
f  20//5 30//5 26//5
f  26//6 30//6 20//6
f  11//2 23//2 27//2
f  27//1 23//1 11//1
f  23//3 22//3 27//3
f  27//4 22//4 23//4
f  22//3 23//3 28//3
f  28//4 23//4 22//4
f  30//2 15//2 26//2
f  26//1 15//1 30//1
f  29//6 15//6 31//6
f  31//5 15//5 29//5
f  29//1 20//1 25//1
f  25//2 20//2 29//2
f  30//5 20//5 32//5
f  32//6 20//6 30//6
f  15//2 30//2 31//2
f  31//1 30//1 15//1
f  30//3 29//3 31//3
f  31//4 29//4 30//4
f  20//1 29//1 32//1
f  32//2 29//2 20//2
f  29//3 30//3 32//3
f  32//4 30//4 29//4

# Mesh 'mesh2_mesh2-geometry' with 48 faces
g mesh2_mesh2-geometry
usemtl material_0_0
l  13 15
l  13 23
l  1 13
l  15 31
l  15 10
l  23 28
l  27 23
l  1 3
l  10 1
l  31 29
l  31 30
l  14 10
l  17 28
l  22 28
l  11 27
l  27 22
l  2 3
l  5 3
l  29 32
l  29 25
l  30 32
l  26 30
l  24 14
l  14 18
l  9 17
l  12 17
l  22 12
l  11 12
l  11 26
l  2 4
l  8 2
l  9 5
l  8 5
l  20 32
l  25 19
l  25 20
l  20 26
l  19 24
l  24 21
l  21 18
l  6 18
l  7 9
l  6 4
l  7 4
l  7 8
l  19 16
l  16 21
l  16 6

