# File produced by Open Asset Import Library (http://www.assimp.sf.net)
# (assimp v3.2.202087883)

mtllib model_normalized.mtl

# 58 vertex positions
v -0.451253 0.164871 0.197767
v -0.451253 0.160445 -0.227042
v -0.451253 0.160445 0.197767
v -0.451253 0.164871 -0.227042
v -0.451253 -0.128450 -0.227042
v -0.446828 0.160445 0.197767
v 0.398365 0.164871 -0.227042
v -0.451253 -0.128450 0.197767
v -0.450600 -0.051327 -0.227042
v -0.446828 0.160445 -0.227042
v -0.450621 -0.055752 0.197767
v 0.268015 0.164871 0.197767
v 0.398365 0.164871 0.197767
v -0.450621 -0.055752 -0.227042
v 0.393940 0.160445 0.197767
v -0.450542 -0.051327 -0.227042
v 0.398365 0.160445 0.197767
v 0.393940 0.160445 -0.227042
v -0.450600 -0.051327 0.197767
v 0.398365 0.160445 -0.227042
v -0.206049 -0.056904 0.170460
v -0.206049 -0.056904 -0.227042
v 0.393940 -0.132875 0.197767
v 0.398365 -0.132875 -0.227042
v -0.450621 -0.055752 0.203248
v -0.450600 -0.051327 0.203248
v -0.206028 -0.052478 -0.227042
v 0.393940 -0.132875 -0.227042
v 0.398365 -0.132875 0.197767
v -0.205417 -0.129603 0.170375
v -0.206049 0.159292 0.194365
v -0.206028 -0.052478 0.170460
v -0.205417 -0.129603 -0.227042
v -0.201624 -0.129603 0.194365
v -0.206049 -0.129603 0.194365
v -0.206049 0.159292 -0.230442
v -0.206049 -0.129603 -0.230442
v -0.201624 -0.129603 -0.230442
v -0.201624 0.159292 -0.230442
v -0.201624 0.159292 0.194365
v 0.272439 -0.128450 -0.220507
v 0.268015 0.164871 -0.220507
v 0.268015 -0.128450 -0.220507
v 0.272439 0.164871 -0.220507
v 0.268015 -0.128450 0.204303
v 0.272439 -0.128450 0.204303
v 0.272439 0.164871 0.204303
v 0.268015 0.164871 0.204303
v 0.394972 -0.075555 0.204871
v 0.274231 -0.075555 -0.223099
v 0.394972 -0.075555 -0.223099
v 0.274231 -0.075555 0.198336
v 0.274231 -0.075555 0.204871
v 0.274231 -0.071130 0.198336
v 0.274231 -0.071130 0.204871
v 0.274231 -0.071130 -0.223099
v 0.394972 -0.071130 0.204871
v 0.394972 -0.071130 -0.223099

# 153 UV coordinates
vt 0 0.483333 0
vt -0.7 0.476042 0
vt 0 0.476042 0
vt -0.7 0.483333 0
vt -0.7 0 0
vt -0 0 0
vt -0 0.007292 0
vt 0.7 0 0
vt 0.007292 0.476042 0
vt -0.7 1.4 0
vt -1.4 0.483333 0
vt -0.001076 0.127083 0
vt 0.7 0.007292 0
vt 0.001042 0.119792 0
vt 1.18521 0.483333 0
vt 0 1.4 0
vt -0.007292 0.476042 0
vt 0.7 0.119796 0
vt -0.001042 0.119792 0
vt -0 1.39271 0
vt 0 0.476096 0
vt 0.7 0.127084 0
vt 0.7 0.476096 0
vt 0 0.119792 0
vt 1.39271 0.476042 0
vt 0 1.18521 0
vt 0.7 0.483333 0
vt -1.39271 0.476042 0
vt -0 0.119796 0
vt -0.001172 0.127083 0
vt -0.7 0.119795 0
vt 0 0.127087 0
vt -0.7 0.127087 0
vt 0.7 1.39271 0
vt 0.7 0.119791 0
vt 1.4 0.483333 0
vt 0.7 0.476042 0
vt 1.4 0.476042 0
vt -1.4 0.476042 0
vt -0.7 -0.000478 0
vt -0.044996 -0.403487 0
vt -0 -0.000478 0
vt 0 0.119795 0
vt 0.7 -0.000573 0
vt 0.7 -0.000478 0
vt -0.404047 0.117894 0
vt -0 -0.007292 0
vt 0.7 1.4 0
vt -1.39271 -0.007292 0
vt 1.4 -0.007292 0
vt -0.7 -0.403487 0
vt 0.009031 -0.000478 0
vt 0.009031 0.127087 0
vt 0.7 -0.403487 0
vt -0.404081 0.125185 0
vt 0.7 -0.007292 0
vt -1.4 -0.007292 0
vt 1.39271 -0.007292 0
vt -0.7 0.114376 0
vt -0.045136 -0.005422 0
vt -0.044996 0.114376 0
vt -0.044996 0.117894 0
vt -0.005605 0.474141 0
vt -0.7 0.117894 0
vt 0.7 0.127087 0
vt 0.044996 0.119795 0
vt 0.7 0.119795 0
vt 0.406443 0.117899 0
vt -0.000133 0.127089 0
vt -0.000168 0.119797 0
vt 0.009031 0.119795 0
vt 0.044996 -0.403487 0
vt -0.009031 -0.000478 0
vt -0.7 1.39271 0
vt -0.7 -0.005422 0
vt 0.018654 0.114327 0
vt 0.018679 -0.005471 0
vt 0.058701 -0.005471 0
vt -0.005605 -0.0019 0
vt -0.705605 0.474141 0
vt 0.044996 0.127087 0
vt 0.406477 0.125191 0
vt -0.614389 0.1134 0
vt -0.6199 -0.006398 0
vt -0.614199 -0.006398 0
vt 0.045136 0.405089 0
vt 0.7 0.405089 0
vt 0.705605 0.411339 0
vt 0.632711 0.577708 0
vt -0.058701 0.089276 0
vt -0.018679 0.089276 0
vt -0.411339 -5.4e-05 0
vt -0.404047 -5.4e-05 0
vt -0.404047 0.12605 0
vt 0.411339 -0.0019 0
vt 0.404047 0.474141 0
vt 0.404047 -0.0019 0
vt -0.705605 -0.0019 0
vt 0.705605 0.404047 0
vt 0.709466 0.474141 0
vt 0.048967 -0.0019 0
vt 0.709466 -0.0019 0
vt 0.005605 0.474141 0
vt 0.005605 -0.0019 0
vt 0.705605 0.474141 0
vt 0.411339 0.474141 0
vt -0.411339 0.474141 0
vt -0.404047 -0.0019 0
vt -0.404047 0.474141 0
vt -0.411339 -0.0019 0
vt 1.18521 0 0
vt 1.1925 0 0
vt 1.1925 0.483333 0
vt 0.68923 0.483333 0
vt -0.01077 0 0
vt 0.68923 0 0
vt -0.68923 1.18521 0
vt -0.68923 1.1925 0
vt 0.01077 1.18521 0
vt -0.01077 0.483333 0
vt 0.01077 1.1925 0
vt -1.18521 0.483333 0
vt -1.18521 0 0
vt -1.1925 0.483333 0
vt -1.1925 0 0
vt 0.693502 1.39441 0
vt 0.693502 1.19545 0
vt -0.011707 1.39441 0
vt -0.000937 1.19545 0
vt -1.19545 0.087159 0
vt -1.39441 0.094451 0
vt -1.39441 0.087159 0
vt 0.693502 0.094451 0
vt -0.011707 0.087159 0
vt 0.693502 0.087159 0
vt -0.011707 1.19545 0
vt 0.000937 0.087159 0
vt -0.693502 0.087159 0
vt 0.000937 0.094451 0
vt -1.19545 0.094451 0
vt -0.011707 0.094451 0
vt 1.19545 0.087159 0
vt 1.19545 0.094451 0
vt 1.39441 0.087159 0
vt 0.011707 0.087159 0
vt 0.011707 0.094451 0
vt -0.693502 0.094451 0
vt 0.000937 1.19545 0
vt -0.693502 1.39441 0
vt -0.693502 1.19545 0
vt 0.011707 1.39441 0
vt 1.39441 0.094451 0
vt 0.011707 1.19545 0

# 28 vertex normals
vn -0.0254 0 0
vn 0.0254 0 0
vn 0 0.0254 0
vn 0 0 0.0254
vn -0 -0 -0.0254
vn -0 -0.0254 -0
vn 0.025399 -0.000220853 0
vn -0.025399 0.000220853 0
vn 0.0253961 -0.000445491 2.54e-08
vn -0.0253961 0.000445491 -2.54e-08
vn -0.0253997 0.000119609 0
vn 0.0253997 -0.000119609 0
vn -0.000119609 -0.0253997 -0
vn 0.000119609 0.0253997 0
vn -0.025399 -0.000220853 -0
vn 0.025399 0.000220853 0
vn 0.00337487 -1.59004e-05 0.0251748
vn -0.00337487 1.59004e-05 -0.0251748
vn -0.0250874 -0.000222758 0.00396646
vn 0.0250874 0.000222758 -0.00396646
vn -0.0249715 -0.000217145 0.00464086
vn 0.0249715 0.000217145 -0.00464086
vn 0.0244519 -0.00568477 -0.00386598
vn -0.0244519 0.00568477 0.00386598
vn 0 -0.00793415 -0.024129
vn 0 0.00793415 0.024129
vn 0.0253989 0 0.00024036
vn -0.0253989 -0 -0.00024036

# Mesh 'mesh1_mesh1-geometry' with 149 faces
g mesh1_mesh1-geometry
usemtl material_0_1_8
f  1/1/1 2/2/1 3/3/1
f  2/2/1 1/1/1 4/4/1
f  3/3/2 2/2/2 1/1/2
f  4/4/2 1/1/2 2/2/2
f  5/5/1 3/3/1 2/2/1
f  2/2/2 3/3/2 5/5/2
f  3/6/3 6/7/3 2/8/3
f  6/9/4 1/1/4 3/3/4
f  3/3/5 1/1/5 6/9/5
f  1/6/3 7/10/3 4/5/3
f  4/5/6 7/10/6 1/6/6
f  7/11/5 2/3/5 4/1/5
f  4/1/4 2/3/4 7/11/4
f  3/3/1 5/5/1 8/6/1
f  8/6/2 5/5/2 3/3/2
f  2/3/5 9/12/5 5/6/5
f  5/6/4 9/12/4 2/3/4
f  10/13/3 2/8/3 6/7/3
f  3/3/4 11/14/4 6/9/4
f  6/9/5 11/14/5 3/3/5
f  1/1/4 6/9/4 12/15/4
f  12/15/5 6/9/5 1/1/5
f  7/10/3 1/6/3 13/16/3
f  13/16/6 1/6/6 7/10/6
f  2/3/5 7/11/5 10/17/5
f  10/17/4 7/11/4 2/3/4
f  14/18/7 8/6/7 5/8/7
f  5/8/8 8/6/8 14/18/8
f  11/14/4 3/3/4 8/6/4
f  8/6/5 3/3/5 11/14/5
f  9/12/5 2/3/5 10/17/5
f  10/17/4 2/3/4 9/12/4
f  5/6/5 9/12/5 14/19/5
f  14/19/4 9/12/4 5/6/4
f  10/13/6 15/20/6 6/7/6
f  6/7/3 15/20/3 10/13/3
f  6/21/9 16/22/9 10/23/9
f  10/23/10 16/22/10 6/21/10
f  11/24/9 16/22/9 6/21/9
f  6/21/10 16/22/10 11/24/10
f  12/15/4 6/9/4 15/25/4
f  15/25/5 6/9/5 12/15/5
f  13/16/3 1/6/3 12/26/3
f  12/26/6 1/6/6 13/16/6
f  17/3/2 7/27/2 13/1/2
f  13/1/1 7/27/1 17/3/1
f  10/17/5 7/11/5 18/28/5
f  18/28/4 7/11/4 10/17/4
f  8/6/7 14/18/7 11/29/7
f  11/29/8 14/18/8 8/6/8
f  9/12/5 10/17/5 16/30/5
f  16/30/4 10/17/4 9/12/4
f  16/30/5 14/19/5 9/12/5
f  9/12/4 14/19/4 16/30/4
f  14/31/11 19/32/11 9/33/11
f  9/33/12 19/32/12 14/31/12
f  15/20/6 10/13/6 18/34/6
f  18/34/3 10/13/3 15/20/3
f  16/22/9 11/24/9 14/35/9
f  14/35/10 11/24/10 16/22/10
f  12/15/4 15/25/4 13/36/4
f  13/36/5 15/25/5 12/15/5
f  7/27/2 17/3/2 20/37/2
f  20/37/1 17/3/1 7/27/1
f  13/36/4 15/25/4 17/38/4
f  17/38/5 15/25/5 13/36/5
f  18/28/5 7/11/5 20/39/5
f  20/39/4 7/11/4 18/28/4
f  14/40/13 21/41/13 11/42/13
f  11/42/14 21/41/14 14/40/14
f  19/32/11 14/31/11 11/43/11
f  11/43/12 14/31/12 19/32/12
f  19/42/14 16/44/14 9/45/14
f  9/45/13 16/44/13 19/42/13
f  16/30/5 22/46/5 14/19/5
f  14/19/4 22/46/4 16/30/4
f  23/47/2 18/37/2 15/3/2
f  15/3/1 18/37/1 23/47/1
f  15/20/3 17/16/3 18/34/3
f  20/48/3 18/34/3 17/16/3
f  17/39/5 23/49/5 15/28/5
f  15/28/4 23/49/4 17/39/4
f  20/38/5 24/50/5 18/25/5
f  21/41/13 14/40/13 22/51/13
f  22/51/14 14/40/14 21/41/14
f  11/42/13 21/41/13 25/52/13
f  25/52/14 21/41/14 11/42/14
f  11/43/11 26/53/11 19/32/11
f  19/32/12 26/53/12 11/43/12
f  16/44/14 19/42/14 27/54/14
f  27/54/13 19/42/13 16/44/13
f  22/46/5 16/30/5 27/55/5
f  27/55/4 16/30/4 22/46/4
f  18/37/2 23/47/2 28/56/2
f  28/56/1 23/47/1 18/37/1
f  23/49/5 17/39/5 29/57/5
f  29/57/4 17/39/4 23/49/4
f  28/58/5 18/25/5 24/50/5
f  22/59/15 30/60/15 21/61/15
f  21/61/16 30/60/16 22/59/16
f  21/62/1 31/63/1 22/64/1
f  22/64/2 31/63/2 21/62/2
f  27/65/12 21/66/12 22/67/12
f  22/67/11 21/66/11 27/65/11
f  21/68/17 26/69/17 25/70/17
f  25/70/18 26/69/18 21/68/18
f  26/53/11 11/43/11 25/71/11
f  25/71/12 11/43/12 26/53/12
f  32/72/14 19/42/14 26/73/14
f  26/73/13 19/42/13 32/72/13
f  27/54/14 19/42/14 32/72/14
f  32/72/13 19/42/13 27/54/13
f  28/74/6 24/10/6 23/20/6
f  29/16/6 23/20/6 24/10/6
f  30/60/15 22/59/15 33/75/15
f  33/75/16 22/59/16 30/60/16
f  21/76/19 30/77/19 34/78/19
f  34/78/20 30/77/20 21/76/20
f  31/63/1 21/62/1 35/79/1
f  35/79/2 21/62/2 31/63/2
f  36/80/1 22/64/1 31/63/1
f  31/63/2 22/64/2 36/80/2
f  21/66/12 27/65/12 32/81/12
f  32/81/11 27/65/11 21/66/11
f  26/69/17 21/68/17 32/82/17
f  32/82/18 21/68/18 26/69/18
f  22/83/21 37/84/21 33/85/21
f  33/85/22 37/84/22 22/83/22
f  30/86/6 33/87/6 38/88/6
f  38/88/3 33/87/3 30/86/3
f  39/89/23 34/90/23 30/91/23
f  30/91/24 34/90/24 39/89/24
f  34/92/25 35/93/25 21/94/25
f  21/94/26 35/93/26 34/92/26
f  34/95/4 31/96/4 35/97/4
f  35/97/5 31/96/5 34/95/5
f  22/64/1 36/80/1 37/98/1
f  37/98/2 36/80/2 22/64/2
f  38/88/3 37/99/3 33/87/3
f  39/100/27 30/101/27 38/102/27
f  38/102/28 30/101/28 39/100/28
f  40/103/2 34/104/2 39/105/2
f  39/105/1 34/104/1 40/103/1
f  31/96/4 34/95/4 40/106/4
f  40/106/5 34/95/5 31/96/5
f  39/107/5 37/108/5 36/109/5
f  36/109/4 37/108/4 39/107/4
f  37/108/5 39/107/5 38/110/5
f  38/110/4 39/107/4 37/108/4

# Mesh 'mesh1_mesh1-geometry' with 9 faces
g mesh1_mesh1-geometry
usemtl material_1_24
f  2//6 6//6 3//6
f  6//6 2//6 10//6
f  18//6 17//6 15//6
f  17//6 18//6 20//6
f  18//4 24//4 20//4
f  24//4 18//4 28//4
f  23//3 24//3 28//3
f  24//3 23//3 29//3
f  33//6 37//6 38//6

# Mesh 'mesh2_mesh2-geometry' with 6 faces
g mesh2_mesh2-geometry
usemtl material_1_24
f  41/6/4 42/6/4 43/6/4
f  42/6/4 41/6/4 44/6/4
f  45/6/3 41/6/3 43/6/3
f  41/6/3 45/6/3 46/6/3
f  47/6/5 45/6/5 48/6/5
f  45/6/5 47/6/5 46/6/5

# Mesh 'mesh2_mesh2-geometry' with 12 faces
g mesh2_mesh2-geometry
usemtl material_0_1_8
f  43/111/5 42/15/5 41/112/5
f  44/113/5 41/112/5 42/15/5
f  42/114/2 45/115/2 43/116/2
f  43/116/1 45/115/1 42/114/1
f  43/117/6 41/118/6 45/119/6
f  45/115/2 42/114/2 48/120/2
f  48/120/1 42/114/1 45/115/1
f  46/121/6 45/119/6 41/118/6
f  48/120/2 42/114/2 12/1/2
f  12/1/1 42/114/1 48/120/1
f  48/122/4 45/123/4 47/124/4
f  46/125/4 47/124/4 45/123/4

# Mesh 'mesh3_mesh3-geometry' with 9 faces
g mesh3_mesh3-geometry
usemtl material_1_24
f  49/6/6 50/6/6 51/6/6
f  50/6/6 49/6/6 52/6/6
f  52/6/6 49/6/6 53/6/6
f  54/6/1 50/6/1 52/6/1
f  49/6/4 55/6/4 53/6/4
f  55/6/1 52/6/1 53/6/1
f  50/6/1 54/6/1 56/6/1
f  52/6/1 55/6/1 54/6/1
f  55/6/4 49/6/4 57/6/4

# Mesh 'mesh3_mesh3-geometry' with 23 faces
g mesh3_mesh3-geometry
usemtl material_0_1_8
f  51/126/3 50/127/3 49/128/3
f  52/129/3 49/128/3 50/127/3
f  50/130/5 58/131/5 51/132/5
f  51/132/4 58/131/4 50/130/4
f  58/133/2 49/134/2 51/135/2
f  51/135/1 49/134/1 58/133/1
f  53/136/3 49/128/3 52/129/3
f  52/137/2 50/138/2 54/139/2
f  58/131/5 50/130/5 56/140/5
f  56/140/4 50/130/4 58/131/4
f  49/134/2 58/133/2 57/141/2
f  57/141/1 58/133/1 49/134/1
f  53/142/5 55/143/5 49/144/5
f  53/145/2 52/137/2 55/146/2
f  56/147/2 54/139/2 50/138/2
f  54/139/2 55/146/2 52/137/2
f  54/148/3 58/149/3 56/150/3
f  56/150/6 58/149/6 54/148/6
f  58/149/3 54/148/3 57/151/3
f  57/151/6 54/148/6 58/149/6
f  57/152/5 49/144/5 55/143/5
f  57/151/3 54/148/3 55/153/3
f  55/153/6 54/148/6 57/151/6

# Mesh 'mesh4_mesh4-geometry' with 1 faces
g mesh4_mesh4-geometry
usemtl material_1_0
l  52 23

