# File produced by Open Asset Import Library (http://www.assimp.sf.net)
# (assimp v3.2.202087883)

mtllib model_normalized.mtl

# 134 vertex positions
v 0.329425 -0.203372 -0.110070
v 0.384235 -0.261067 -0.110070
v 0.384235 -0.203372 -0.110070
v 0.329425 -0.261067 -0.110070
v 0.384235 -0.203372 -0.164881
v 0.329425 -0.261067 -0.164881
v 0.384235 -0.261067 -0.164881
v 0.329425 -0.203372 -0.164881
v -0.351383 0.111069 0.285144
v 0.329425 0.067798 0.285144
v 0.329425 0.111069 0.285144
v -0.351383 -0.203372 0.285144
v 0.329425 0.111069 0.218794
v 0.329425 -0.203372 0.285144
v -0.351383 0.067798 0.285144
v 0.329425 0.067798 0.218794
v -0.351383 0.111069 0.218794
v 0.384235 -0.203372 0.285144
v -0.351383 0.067798 0.218794
v -0.406194 0.067798 0.285144
v 0.384235 0.067798 -0.153342
v 0.329425 0.148572 0.152444
v -0.351383 0.154341 0.218794
v 0.384235 0.067798 0.285144
v -0.406194 -0.203372 0.285144
v 0.329425 0.067798 0.152444
v 0.329425 0.154341 0.218794
v -0.351383 0.148572 0.152444
v -0.351383 0.067798 0.152444
v 0.384235 -0.203372 0.230334
v -0.406194 0.067798 -0.153342
v -0.406194 0.056259 -0.164881
v 0.384235 0.056259 -0.164881
v 0.329425 0.067798 -0.153342
v 0.329425 0.154341 0.158214
v -0.351383 0.154341 0.158214
v -0.406194 -0.203372 -0.110070
v -0.406194 -0.203372 0.230334
v 0.384235 0.057830 -0.164983
v 0.384235 0.067899 -0.154914
v 0.329425 0.056259 -0.164881
v -0.351383 -0.036054 0.152444
v 0.329425 0.149357 0.152394
v -0.351383 0.149357 0.152394
v -0.351383 0.067798 -0.153342
v 0.384235 -0.203372 -0.110070
v -0.406194 0.057830 -0.164983
v -0.406194 -0.203372 -0.164881
v 0.384235 0.059398 -0.164842
v 0.329425 0.067899 -0.154914
v 0.384235 0.067758 -0.156482
v 0.329425 -0.036054 0.152444
v 0.329425 0.057830 -0.164983
v 0.329425 0.150141 0.152464
v -0.351383 0.154392 0.157428
v -0.351383 -0.036054 -0.164881
v -0.351383 0.150141 0.152464
v -0.351383 0.056259 -0.164881
v -0.351383 0.067899 -0.154914
v 0.384235 -0.203372 -0.164881
v -0.406194 0.059398 -0.164842
v -0.351383 0.057830 -0.164983
v 0.384235 0.060926 -0.164460
v 0.329425 -0.203372 -0.164881
v 0.329425 0.067758 -0.156482
v 0.384235 0.067377 -0.158010
v 0.329425 -0.036054 -0.164881
v 0.329425 0.059398 -0.164842
v 0.329425 0.150905 0.152655
v 0.329425 0.154392 0.157428
v -0.351383 0.154321 0.156644
v -0.351383 0.150905 0.152655
v -0.406194 0.067899 -0.154914
v -0.351383 0.067758 -0.156482
v -0.406194 0.060926 -0.164460
v -0.351383 0.059398 -0.164842
v 0.384235 0.062377 -0.163849
v 0.329425 -0.091442 -0.164881
v 0.329425 0.067377 -0.158010
v 0.384235 0.066765 -0.159461
v 0.329425 0.060926 -0.164460
v 0.329425 0.151631 0.152961
v 0.329425 0.154321 0.156644
v -0.351383 0.154131 0.155880
v -0.351383 0.151631 0.152961
v -0.406194 0.067758 -0.156482
v -0.351383 0.067377 -0.158010
v -0.351383 -0.091442 -0.164881
v -0.351383 -0.203372 -0.164881
v -0.406194 0.062377 -0.163849
v -0.351383 0.060926 -0.164460
v 0.384235 0.063717 -0.163021
v 0.329425 0.066765 -0.159461
v 0.384235 0.065937 -0.160801
v 0.329425 0.062377 -0.163849
v 0.329425 0.152300 0.153375
v 0.329425 0.154131 0.155880
v -0.351383 0.153825 0.155154
v -0.351383 0.152300 0.153375
v -0.406194 0.067377 -0.158010
v -0.351383 0.066765 -0.159461
v -0.406194 0.063717 -0.163021
v -0.351383 0.062377 -0.163849
v 0.384235 0.064913 -0.161997
v 0.329425 0.065937 -0.160801
v 0.329425 0.063717 -0.163021
v 0.329425 0.152899 0.153887
v 0.329425 0.153825 0.155154
v -0.351383 0.153411 0.154485
v -0.351383 0.152899 0.153887
v -0.406194 0.066765 -0.159461
v -0.351383 0.065937 -0.160801
v -0.406194 0.064913 -0.161997
v -0.351383 0.063717 -0.163021
v 0.329425 0.064913 -0.161997
v 0.329425 0.153411 0.154485
v -0.406194 0.065937 -0.160801
v -0.351383 0.064913 -0.161997
v -0.351383 -0.203372 0.230334
v 0.384235 -0.261067 0.285144
v 0.329425 -0.203372 0.230334
v -0.351383 -0.261067 0.285144
v 0.329425 -0.261067 0.285144
v 0.329425 -0.261067 0.230334
v -0.351383 -0.261067 0.230334
v -0.406194 -0.261067 0.230334
v 0.384235 -0.261067 0.230334
v -0.406194 -0.261067 0.285144
v -0.351383 -0.203372 -0.110070
v -0.351383 -0.261067 -0.110070
v 0.329425 -0.203372 -0.110070
v -0.406194 -0.261067 -0.164881
v -0.406194 -0.261067 -0.110070
v -0.351383 -0.261067 -0.164881

# 201 UV coordinates
vt -0.464775 0.593576 0
vt 0 0 0
vt 0 0.593576 0
vt -0.464775 0 0
vt 0.464775 0.593576 0
vt -0.464775 0.563898 0
vt 0 0.563898 0
vt 0.464775 0 0
vt -6.375 3.225 0
vt -0.475 2.85 0
vt -0.475 3.225 0
vt -6.375 0.5 0
vt 0 2.85 0
vt 0.575 3.225 0
vt 0 3.225 0
vt 0.575 0.475 0
vt 0 6.375 0
vt 0 0.475 0
vt -0.475 0.5 0
vt -6.375 2.85 0
vt 0.575 2.85 0
vt 0.575 6.375 0
vt 0 0.5 0
vt -0.575 2.85 0
vt -6.85 2.85 0
vt 3.8 0 0
vt 1.15 3.55 0
vt -6.375 3.6 0
vt -0.575 3.225 0
vt 0 6.85 0
vt -6.85 0.5 0
vt 1.15 0.475 0
vt 1.15 2.85 0
vt 0.575 3.6 0
vt -0.475 3.6 0
vt -1.15 3.55 0
vt -0.575 3.6 0
vt -1.15 2.85 0
vt 0.475 0.5 0
vt 3.8 6.85 0
vt -3.9 2.75 0
vt 3.9 2.75 0
vt 3.8 2.85 0
vt 3.8 0.475 0
vt -0.475 3.55 0
vt -6.375 3.55 0
vt 1.1 3.6 0
vt 1.1 6.375 0
vt -1.1 3.6 0
vt 1.15 6.375 0
vt -3.425 0.5 0
vt -3.8 2.85 0
vt 3.90088 2.76362 0
vt 0.01366 0 0
vt -6.375 1.95 0
vt 0.081962 5.9 0
vt 0.075132 0 0
vt 0.081962 -0 0
vt 1.15044 3.55681 0
vt 1.1 0.475 0
vt -1.15044 3.55681 0
vt 3.8 6.375 0
vt 3.425 0.5 0
vt -3.90088 2.76362 0
vt -3.9 0.5 0
vt 3.89966 2.77721 0
vt 0.163924 0.475 0
vt 0.150264 0 0
vt 0.163924 -0 0
vt 0.01366 0.475 0
vt 3.82721 2.84966 0
vt 3.81362 2.85088 0
vt 1.15 1.95 0
vt -0.475 1.95 0
vt 0.075132 5.9 0
vt 1.14983 3.56361 0
vt 0.00683 5.9 0
vt 0 5.9 0
vt -1.15 1.95 0
vt -3.9 1.95 0
vt -1.14983 3.56361 0
vt 0.01366 -0.475 0
vt 0 -0.475 0
vt 3.9 0.5 0
vt -3.89966 2.77721 0
vt 0.150264 -0.475 0
vt 6.375 2.75 0
vt 6.85 0.5 0
vt 6.85 2.75 0
vt 0.163924 -0.475 0
vt 0.150264 0.475 0
vt 0.136603 -0 0
vt 3.89635 2.79045 0
vt 0 2.75 0
vt 0.475 2.75 0
vt 0.027321 -0 0
vt -3.82721 2.84966 0
vt -3.81362 2.85088 0
vt 3.84045 2.84635 0
vt 3.9 1.95 0
vt -1.15 6.375 0
vt -1.15 0.475 0
vt -3.9 6.375 0
vt 0.068302 0 0
vt 1.14818 3.57023 0
vt 0.00683 0 0
vt -1.11361 3.59983 0
vt -1.10681 3.60044 0
vt -1.14818 3.57023 0
vt 0.068302 5.9 0
vt -3.89635 2.79045 0
vt 0.136603 -0.475 0
vt 6.375 1.95 0
vt 0.136603 0.475 0
vt 0.122943 -0 0
vt 3.89105 2.80303 0
vt 0.475 1.47 0
vt 0.027321 0.475 0
vt -3.84045 2.84635 0
vt 3.85303 2.84105 0
vt 0.040981 -0 0
vt -3.9 0.475 0
vt 0.475 1.95 0
vt 0.061472 0 0
vt 1.14552 3.57651 0
vt 1.11361 3.59983 0
vt 1.10681 3.60044 0
vt -1.12022 3.59818 0
vt 0.01366 5.9 0
vt -1.14552 3.57651 0
vt 0.061472 5.9 0
vt 0.027321 -0.475 0
vt 6.375 1.47 0
vt 6.375 0.5 0
vt -3.89105 2.80303 0
vt 0.122943 -0.475 0
vt 0.122943 0.475 0
vt 0.109283 -0 0
vt 3.88388 2.81463 0
vt -3.85303 2.84105 0
vt 0.040981 0.475 0
vt 3.86463 2.83388 0
vt 0.054641 -0 0
vt 1.14194 3.58232 0
vt 1.12022 3.59818 0
vt -1.12651 3.59553 0
vt 0.020491 0 0
vt 0.020491 5.9 0
vt -1.14194 3.58232 0
vt 0.054641 5.9 0
vt 0.040981 -0.475 0
vt -3.88388 2.81463 0
vt 0.109283 -0.475 0
vt 0.109283 0.475 0
vt 0.095622 0 0
vt 3.875 2.825 0
vt -3.86463 2.83388 0
vt 0.054641 0.475 0
vt 0.047811 0 0
vt 1.1375 3.5875 0
vt 1.12651 3.59553 0
vt -1.13232 3.59194 0
vt 0.027321 5.9 0
vt -1.1375 3.5875 0
vt 0.047811 5.9 0
vt 0.054641 -0.475 0
vt -3.875 2.825 0
vt 0.095622 -0.475 0
vt 0.095622 0.475 0
vt 0.068302 0.475 0
vt 1.13232 3.59194 0
vt 0.034151 0 0
vt 0.034151 5.9 0
vt 0.040981 5.9 0
vt 0.068302 -0.475 0
vt 0.081962 -0.475 0
vt 0.081962 0.475 0
vt -6.70254 0.593576 0
vt -6.23777 0 0
vt -6.23777 0.593576 0
vt 6.23777 0.593576 0
vt 6.70254 0 0
vt 6.70254 0.593576 0
vt 0 7.5681 0
vt -0.464775 8.132 0
vt -0.464775 7.5681 0
vt 6.23777 0 0
vt -6.70254 0 0
vt 0 8.132 0
vt -3.81605 0 0
vt -3.35127 0.593576 0
vt -3.81605 0.593576 0
vt 3.35127 0 0
vt 3.81605 0.593576 0
vt 3.35127 0.593576 0
vt -3.35127 0 0
vt -3.81605 8.132 0
vt -3.35127 7.5681 0
vt -3.35127 8.132 0
vt 3.81605 0 0
vt -3.81605 7.5681 0

# 38 vertex normals
vn 0 0 0.0254
vn 0 0 -0.0254
vn 0.0254 0 0
vn -0.0254 0 0
vn 0 -0.0254 0
vn 0 0.0254 0
vn 0 0 0.01
vn 0.01 0 0
vn 0 0.01 0
vn -0.01 0 0
vn 0 0 -0.01
vn 0 0.0099992 -0.00012652
vn 0 0.00997913 0.00064577
vn 0 -0.00064577 -0.00997913
vn 0 0.00012652 -0.0099992
vn 0 0.00166423 -0.00986054
vn 0 0.00986054 -0.00166423
vn 0 0.00316228 -0.00948683
vn 0 0.00948683 -0.00316228
vn 0 0.00458494 -0.00888698
vn 0 0.00888698 -0.00458494
vn 0 0.00589831 -0.00807527
vn 0 0.00807527 -0.00589831
vn 0 0.00707107 -0.00707107
vn 0 -0.01 0
vn -0 -0.00707107 0.00707107
vn 0 -0.00997913 -0.00064577
vn 0 -0.0099992 0.00012652
vn 0 0.00064577 0.00997913
vn 0 -0.00012652 0.0099992
vn 0 -0.00166423 0.00986054
vn 0 -0.00986054 0.00166423
vn 0 -0.00316228 0.00948683
vn 0 -0.00948683 0.00316228
vn 0 -0.00458494 0.00888698
vn 0 -0.00888698 0.00458494
vn 0 -0.00589831 0.00807527
vn 0 -0.00807527 0.00589831

# Mesh 'mesh1_mesh1-geometry' with 20 faces
g mesh1_mesh1-geometry
usemtl material_0_2_8
f  1/1/1 2/2/1 3/3/1
f  2/2/1 1/1/1 4/4/1
f  3/3/2 2/2/2 1/1/2
f  4/4/2 1/1/2 2/2/2
f  2/2/3 5/5/3 3/3/3
f  3/3/4 5/5/4 2/2/4
f  1/3/4 6/4/4 4/2/4
f  4/2/3 6/4/3 1/3/3
f  6/6/5 2/2/5 4/7/5
f  4/7/6 2/2/6 6/6/6
f  5/5/3 2/2/3 7/8/3
f  7/8/4 2/2/4 5/5/4
f  6/4/4 1/3/4 8/1/4
f  8/1/3 1/3/3 6/4/3
f  2/2/5 6/6/5 7/4/5
f  7/4/6 6/6/6 2/2/6
f  6/8/2 5/3/2 7/2/2
f  7/2/1 5/3/1 6/8/1
f  5/3/2 6/8/2 8/5/2
f  8/5/1 6/8/1 5/3/1

# Mesh 'mesh2_mesh2-geometry' with 8 faces
g mesh2_mesh2-geometry
usemtl material_1_0
l  2 4
l  2 3
l  7 2
l  4 1
l  4 6
l  7 5
l  6 7
l  6 8

# Mesh 'mesh3_mesh3-geometry' with 206 faces
g mesh3_mesh3-geometry
usemtl material_2_1_8
f  9/9/7 10/10/7 11/11/7
f  12/12/7 10/10/7 9/9/7
f  10/13/8 13/14/8 11/15/8
f  13/16/9 9/17/9 11/18/9
f  14/19/7 10/10/7 12/12/7
f  12/12/7 9/9/7 15/20/7
f  13/14/8 10/13/8 16/21/8
f  9/17/9 13/16/9 17/22/9
f  18/23/7 10/10/7 14/19/7
f  9/15/10 19/24/10 15/13/10
f  12/12/7 15/20/7 20/25/7
f  10/18/9 21/26/9 16/16/9
f  16/21/8 22/27/8 13/14/8
f  13/11/7 23/28/7 17/9/7
f  19/24/10 9/15/10 17/29/10
f  10/10/7 18/23/7 24/13/7
f  19/22/9 20/30/9 15/17/9
f  12/12/7 20/25/7 25/31/7
f  21/26/9 10/18/9 24/2/9
f  16/16/9 21/26/9 26/32/9
f  22/27/8 16/21/8 26/33/8
f  13/14/8 22/27/8 27/34/8
f  23/28/7 13/11/7 27/35/7
f  28/36/10 17/29/10 23/37/10
f  17/29/10 29/38/10 19/24/10
f  30/39/8 24/13/8 18/23/8
f  20/30/9 19/22/9 31/40/9
f  32/41/10 25/23/10 20/13/10
f  24/13/8 33/42/8 21/43/8
f  26/32/9 21/26/9 34/44/9
f  22/45/11 26/10/11 28/46/11
f  27/34/8 22/27/8 35/47/8
f  27/16/9 36/48/9 23/22/9
f  29/38/10 17/29/10 28/36/10
f  28/36/10 23/37/10 36/49/10
f  31/40/9 19/22/9 29/50/9
f  24/13/8 30/39/8 33/42/8
f  25/23/10 37/51/10 38/19/10
f  32/41/10 20/13/10 31/52/10
f  32/41/10 37/51/10 25/23/10
f  39/53/8 21/43/8 33/42/8
f  40/54/12 34/18/13 21/2/13
f  34/43/10 41/42/10 26/33/10
f  28/46/11 26/10/11 42/55/11
f  28/56/14 43/57/15 22/58/14
f  43/59/8 35/47/8 22/27/8
f  36/48/9 27/16/9 35/60/9
f  29/20/11 28/46/11 42/55/11
f  36/49/10 44/61/10 28/36/10
f  31/40/9 29/50/9 45/62/9
f  46/63/8 33/42/8 30/39/8
f  31/52/10 47/64/10 32/41/10
f  37/51/10 32/41/10 48/65/10
f  21/43/8 39/53/8 49/66/8
f  41/67/14 39/68/15 33/69/14
f  34/18/13 40/54/12 50/70/12
f  21/43/8 51/71/8 40/72/8
f  26/33/10 41/42/10 52/73/10
f  34/52/10 53/64/10 41/41/10
f  52/74/11 42/55/11 26/10/11
f  43/57/15 28/56/14 44/75/15
f  35/47/8 43/59/8 54/76/8
f  35/2/13 55/77/12 36/78/13
f  42/79/8 56/80/8 29/38/8
f  44/61/10 36/49/10 57/81/10
f  45/52/8 29/38/8 58/41/8
f  59/82/12 31/2/13 45/83/13
f  33/42/8 46/63/8 60/84/8
f  47/64/10 31/52/10 61/85/10
f  62/86/15 32/69/14 47/68/15
f  58/87/11 48/88/11 32/89/11
f  32/69/14 62/86/15 58/90/14
f  53/91/15 49/92/16 39/68/15
f  21/43/8 49/66/8 63/93/8
f  39/68/15 41/67/14 53/91/15
f  33/94/11 64/39/11 41/95/11
f  51/96/17 50/70/12 40/54/12
f  65/97/10 34/52/10 50/98/10
f  21/43/8 66/99/8 51/71/8
f  67/100/10 52/73/10 41/42/10
f  53/64/10 34/52/10 68/85/10
f  42/101/9 52/102/9 56/103/9
f  44/75/15 54/104/16 43/57/15
f  35/47/8 54/76/8 69/105/8
f  55/77/12 35/2/13 70/106/12
f  71/107/10 36/49/10 55/108/10
f  58/41/8 29/38/8 56/80/8
f  57/81/10 36/49/10 72/109/10
f  54/104/16 44/75/15 57/110/16
f  62/53/8 45/43/8 58/42/8
f  31/2/13 59/82/12 73/54/12
f  45/43/8 74/71/8 59/72/8
f  64/39/11 33/94/11 60/23/11
f  61/85/10 31/52/10 75/111/10
f  76/112/16 47/68/15 61/92/16
f  47/68/15 76/112/16 62/86/15
f  56/113/11 48/88/11 58/87/11
f  49/92/16 53/91/15 68/114/16
f  68/114/16 63/115/18 49/92/16
f  21/43/8 63/93/8 77/116/8
f  41/95/11 64/39/11 78/117/11
f  50/70/12 51/96/17 65/118/17
f  79/119/10 34/52/10 65/97/10
f  21/43/8 80/120/8 66/99/8
f  66/121/19 65/118/17 51/96/17
f  67/122/9 56/103/9 52/102/9
f  41/95/11 78/117/11 67/123/11
f  68/85/10 34/52/10 81/111/10
f  57/110/16 69/124/18 54/104/16
f  35/47/8 69/105/8 82/125/8
f  35/47/8 83/126/8 70/127/8
f  83/54/17 55/77/12 70/106/12
f  84/128/10 36/49/10 71/107/10
f  55/77/12 83/54/17 71/129/17
f  72/109/10 36/49/10 85/130/10
f  69/124/18 57/110/16 72/131/18
f  45/43/8 62/53/8 76/66/8
f  74/132/17 73/54/12 59/82/12
f  86/97/10 31/52/10 73/98/10
f  45/43/8 87/99/8 74/71/8
f  48/88/11 88/133/11 89/134/11
f  75/111/10 31/52/10 90/135/10
f  91/136/18 61/92/16 75/115/18
f  61/92/16 91/136/18 76/112/16
f  88/133/11 48/88/11 56/113/11
f  63/115/18 68/114/16 81/137/18
f  81/137/18 77/138/20 63/115/18
f  21/43/8 77/116/8 92/139/8
f  89/134/11 78/117/11 64/39/11
f  93/140/10 34/52/10 79/119/10
f  65/118/17 66/121/19 79/141/19
f  21/43/8 94/142/8 80/120/8
f  80/143/21 79/141/19 66/121/19
f  67/123/11 88/133/11 56/113/11
f  88/133/11 67/123/11 78/117/11
f  81/111/10 34/52/10 95/135/10
f  72/131/18 82/143/20 69/124/18
f  35/47/8 82/125/8 96/144/8
f  35/47/8 97/145/8 83/126/8
f  98/146/10 36/49/10 84/128/10
f  71/129/17 97/147/19 84/148/19
f  97/147/19 71/129/17 83/54/17
f  85/130/10 36/49/10 99/149/10
f  82/143/20 72/131/18 85/150/20
f  45/43/8 76/66/8 91/93/8
f  73/54/12 74/132/17 86/96/17
f  100/119/10 31/52/10 86/97/10
f  45/43/8 101/120/8 87/99/8
f  87/151/19 86/96/17 74/132/17
f  78/117/11 89/134/11 88/133/11
f  90/135/10 31/52/10 102/152/10
f  103/153/20 75/115/18 90/138/20
f  75/115/18 103/153/20 91/136/18
f  77/138/20 81/137/18 95/154/20
f  95/154/20 92/155/22 77/138/20
f  21/43/8 92/139/8 104/156/8
f  105/157/10 34/52/10 93/140/10
f  79/141/19 80/143/21 93/158/21
f  21/43/8 104/156/8 94/142/8
f  94/104/23 93/158/21 80/143/21
f  95/135/10 34/52/10 106/152/10
f  85/150/20 96/159/22 82/143/20
f  35/47/8 96/144/8 107/160/8
f  35/47/8 108/161/8 97/145/8
f  109/162/10 36/49/10 98/146/10
f  84/148/19 108/96/21 98/163/21
f  108/96/21 84/148/19 97/147/19
f  99/149/10 36/49/10 110/164/10
f  96/159/22 85/150/20 99/165/22
f  45/43/8 91/93/8 103/116/8
f  111/140/10 31/52/10 100/119/10
f  86/96/17 87/151/19 100/121/19
f  45/43/8 112/142/8 101/120/8
f  101/166/21 100/121/19 87/151/19
f  102/152/10 31/52/10 113/167/10
f  114/168/22 90/138/20 102/155/22
f  90/138/20 114/168/22 103/153/20
f  92/155/22 95/154/20 106/169/22
f  106/169/22 104/58/24 92/155/22
f  115/167/10 34/52/10 105/157/10
f  93/158/21 94/104/23 105/170/23
f  104/58/24 105/170/23 94/104/23
f  106/152/10 34/52/10 115/167/10
f  99/165/22 107/121/24 96/159/22
f  35/47/8 107/160/8 116/171/8
f  35/47/8 116/171/8 108/161/8
f  110/164/10 36/49/10 109/162/10
f  98/163/21 116/172/23 109/173/23
f  116/172/23 98/163/21 108/96/21
f  107/121/24 99/165/22 110/174/24
f  45/43/8 103/116/8 114/139/8
f  117/157/10 31/52/10 111/140/10
f  100/121/19 101/166/21 111/143/21
f  45/43/8 118/156/8 112/142/8
f  112/175/23 111/143/21 101/166/21
f  113/167/10 31/52/10 117/157/10
f  118/176/24 102/155/22 113/58/24
f  102/155/22 118/176/24 114/168/22
f  104/58/24 106/169/22 115/177/24
f  105/170/23 104/58/24 115/177/24
f  107/121/24 109/173/23 116/172/23
f  109/173/23 107/121/24 110/174/24
f  45/43/8 114/139/8 118/156/8
f  111/143/21 112/175/23 117/104/23
f  118/176/24 117/104/23 112/175/23
f  117/104/23 118/176/24 113/58/24

# Mesh 'mesh3_mesh3-geometry' with 274 faces
g mesh3_mesh3-geometry
usemtl material_1_24
f  11/2/11 10/2/11 9/2/11
f  9/2/11 10/2/11 12/2/11
f  11/2/10 13/2/10 10/2/10
f  11/2/25 9/2/25 13/2/25
f  12/2/11 10/2/11 14/2/11
f  15/2/11 9/2/11 12/2/11
f  16/2/10 10/2/10 13/2/10
f  17/2/25 13/2/25 9/2/25
f  14/2/11 10/2/11 18/2/11
f  12/2/9 14/2/9 119/2/9
f  15/2/8 19/2/8 9/2/8
f  20/2/11 15/2/11 12/2/11
f  16/2/25 21/2/25 10/2/25
f  13/2/10 22/2/10 16/2/10
f  17/2/11 23/2/11 13/2/11
f  17/2/8 9/2/8 19/2/8
f  24/2/11 18/2/11 10/2/11
f  18/2/11 120/2/11 14/2/11
f  121/2/25 18/2/25 14/2/25
f  14/2/9 18/2/9 121/2/9
f  121/2/9 119/2/9 14/2/9
f  12/2/10 119/2/10 122/2/10
f  12/2/25 38/2/25 119/2/25
f  119/2/9 38/2/9 12/2/9
f  15/2/25 20/2/25 19/2/25
f  25/2/11 20/2/11 12/2/11
f  24/2/25 10/2/25 21/2/25
f  26/2/25 21/2/25 16/2/25
f  26/2/10 16/2/10 22/2/10
f  27/2/10 22/2/10 13/2/10
f  27/2/11 13/2/11 23/2/11
f  23/2/8 17/2/8 28/2/8
f  19/2/8 29/2/8 17/2/8
f  18/2/10 24/2/10 30/2/10
f  123/2/11 14/2/11 120/2/11
f  18/2/10 30/2/10 120/2/10
f  18/2/25 121/2/25 30/2/25
f  30/2/9 121/2/9 18/2/9
f  121/2/8 14/2/8 124/2/8
f  30/2/9 119/2/9 121/2/9
f  125/2/10 122/2/10 119/2/10
f  12/2/11 122/2/11 25/2/11
f  38/2/25 12/2/25 25/2/25
f  25/2/9 12/2/9 38/2/9
f  38/2/7 126/2/7 119/2/7
f  38/2/9 119/2/9 37/2/9
f  31/2/25 19/2/25 20/2/25
f  20/2/8 25/2/8 32/2/8
f  21/2/10 33/2/10 24/2/10
f  34/2/25 21/2/25 26/2/25
f  28/2/7 26/2/7 22/2/7
f  35/2/10 22/2/10 27/2/10
f  23/2/25 36/2/25 27/2/25
f  28/2/8 17/2/8 29/2/8
f  36/2/8 23/2/8 28/2/8
f  29/2/25 19/2/25 31/2/25
f  33/2/10 30/2/10 24/2/10
f  123/2/8 124/2/8 14/2/8
f  123/2/9 120/2/9 124/2/9
f  127/2/10 120/2/10 30/2/10
f  121/2/7 124/2/7 30/2/7
f  46/2/9 119/2/9 30/2/9
f  125/2/9 126/2/9 122/2/9
f  125/2/7 119/2/7 126/2/7
f  128/2/11 25/2/11 122/2/11
f  38/2/8 25/2/8 126/2/8
f  38/2/8 37/2/8 25/2/8
f  37/2/9 119/2/9 46/2/9
f  31/2/8 20/2/8 32/2/8
f  25/2/8 37/2/8 32/2/8
f  33/2/10 21/2/10 39/2/10
f  34/2/26 33/2/26 21/2/26
f  21/2/24 33/2/24 34/2/24
f  21/2/27 34/2/27 40/2/28
f  26/2/8 41/2/8 34/2/8
f  42/2/7 26/2/7 28/2/7
f  22/2/29 43/2/30 28/2/29
f  22/2/26 36/2/26 28/2/26
f  28/2/24 36/2/24 22/2/24
f  22/2/10 35/2/10 43/2/10
f  36/2/26 22/2/26 35/2/26
f  35/2/24 22/2/24 36/2/24
f  35/2/25 27/2/25 36/2/25
f  42/2/7 28/2/7 29/2/7
f  28/2/8 44/2/8 36/2/8
f  45/2/25 29/2/25 31/2/25
f  30/2/10 33/2/10 46/2/10
f  127/2/9 124/2/9 120/2/9
f  127/2/7 30/2/7 124/2/7
f  128/2/9 122/2/9 126/2/9
f  128/2/8 126/2/8 25/2/8
f  129/2/9 37/2/9 46/2/9
f  32/2/8 47/2/8 31/2/8
f  58/2/26 31/2/26 32/2/26
f  32/2/24 31/2/24 58/2/24
f  48/2/8 32/2/8 37/2/8
f  49/2/10 39/2/10 21/2/10
f  33/2/29 39/2/30 41/2/29
f  33/2/26 34/2/26 41/2/26
f  41/2/24 34/2/24 33/2/24
f  50/2/28 40/2/28 34/2/27
f  40/2/10 51/2/10 21/2/10
f  52/2/8 41/2/8 26/2/8
f  41/2/8 53/2/8 34/2/8
f  26/2/7 42/2/7 52/2/7
f  44/2/30 28/2/29 43/2/30
f  54/2/10 43/2/10 35/2/10
f  36/2/27 55/2/28 35/2/27
f  29/2/10 56/2/10 42/2/10
f  57/2/8 36/2/8 44/2/8
f  58/2/10 29/2/10 45/2/10
f  31/2/26 58/2/26 45/2/26
f  45/2/24 58/2/24 31/2/24
f  45/2/27 31/2/27 59/2/28
f  60/2/10 46/2/10 33/2/10
f  129/2/11 130/2/11 37/2/11
f  48/2/25 129/2/25 37/2/25
f  37/2/9 129/2/9 48/2/9
f  131/2/9 129/2/9 46/2/9
f  61/2/8 31/2/8 47/2/8
f  47/2/30 32/2/29 62/2/30
f  32/2/7 48/2/7 58/2/7
f  58/2/29 62/2/30 32/2/29
f  48/2/8 37/2/8 132/2/8
f  39/2/30 49/2/31 53/2/30
f  63/2/10 49/2/10 21/2/10
f  53/2/30 41/2/29 39/2/30
f  41/2/7 64/2/7 33/2/7
f  40/2/28 50/2/28 51/2/32
f  50/2/8 34/2/8 65/2/8
f  51/2/10 66/2/10 21/2/10
f  41/2/8 52/2/8 67/2/8
f  68/2/8 34/2/8 53/2/8
f  56/2/25 52/2/25 42/2/25
f  43/2/30 54/2/31 44/2/30
f  69/2/10 54/2/10 35/2/10
f  70/2/28 35/2/27 55/2/28
f  55/2/8 36/2/8 71/2/8
f  56/2/10 29/2/10 58/2/10
f  72/2/8 36/2/8 57/2/8
f  57/2/31 44/2/30 54/2/31
f  58/2/10 45/2/10 62/2/10
f  73/2/28 59/2/28 31/2/27
f  59/2/10 74/2/10 45/2/10
f  46/2/25 64/2/25 60/2/25
f  60/2/9 64/2/9 46/2/9
f  60/2/7 33/2/7 64/2/7
f  133/2/11 37/2/11 130/2/11
f  129/2/10 89/2/10 130/2/10
f  129/2/25 48/2/25 89/2/25
f  89/2/9 48/2/9 129/2/9
f  129/2/9 131/2/9 89/2/9
f  64/2/25 46/2/25 131/2/25
f  131/2/9 46/2/9 64/2/9
f  75/2/8 31/2/8 61/2/8
f  61/2/31 47/2/30 76/2/31
f  62/2/30 76/2/31 47/2/30
f  58/2/7 48/2/7 56/2/7
f  133/2/8 132/2/8 37/2/8
f  48/2/7 132/2/7 89/2/7
f  68/2/31 53/2/30 49/2/31
f  49/2/31 63/2/33 68/2/31
f  77/2/10 63/2/10 21/2/10
f  78/2/7 64/2/7 41/2/7
f  65/2/32 51/2/32 50/2/28
f  65/2/8 34/2/8 79/2/8
f  66/2/10 80/2/10 21/2/10
f  51/2/32 65/2/32 66/2/34
f  52/2/25 56/2/25 67/2/25
f  67/2/7 78/2/7 41/2/7
f  81/2/8 34/2/8 68/2/8
f  54/2/31 69/2/33 57/2/31
f  82/2/10 69/2/10 35/2/10
f  70/2/10 83/2/10 35/2/10
f  70/2/28 55/2/28 83/2/32
f  71/2/8 36/2/8 84/2/8
f  71/2/32 83/2/32 55/2/28
f  85/2/8 36/2/8 72/2/8
f  72/2/33 57/2/31 69/2/33
f  76/2/10 62/2/10 45/2/10
f  59/2/28 73/2/28 74/2/32
f  73/2/8 31/2/8 86/2/8
f  74/2/10 87/2/10 45/2/10
f  133/2/9 130/2/9 132/2/9
f  134/2/10 130/2/10 89/2/10
f  89/2/7 88/2/7 48/2/7
f  64/2/9 89/2/9 131/2/9
f  90/2/8 31/2/8 75/2/8
f  75/2/33 61/2/31 91/2/33
f  76/2/31 91/2/33 61/2/31
f  56/2/7 48/2/7 88/2/7
f  134/2/7 89/2/7 132/2/7
f  81/2/33 68/2/31 63/2/33
f  63/2/33 77/2/35 81/2/33
f  92/2/10 77/2/10 21/2/10
f  64/2/7 78/2/7 89/2/7
f  79/2/8 34/2/8 93/2/8
f  79/2/34 66/2/34 65/2/32
f  80/2/10 94/2/10 21/2/10
f  66/2/34 79/2/34 80/2/36
f  56/2/7 88/2/7 67/2/7
f  78/2/7 67/2/7 88/2/7
f  95/2/8 34/2/8 81/2/8
f  69/2/33 82/2/35 72/2/33
f  96/2/10 82/2/10 35/2/10
f  83/2/10 97/2/10 35/2/10
f  84/2/8 36/2/8 98/2/8
f  84/2/34 97/2/34 71/2/32
f  83/2/32 71/2/32 97/2/34
f  99/2/8 36/2/8 85/2/8
f  85/2/35 72/2/33 82/2/35
f  91/2/10 76/2/10 45/2/10
f  86/2/32 74/2/32 73/2/28
f  86/2/8 31/2/8 100/2/8
f  87/2/10 101/2/10 45/2/10
f  74/2/32 86/2/32 87/2/34
f  134/2/9 132/2/9 130/2/9
f  88/2/7 89/2/7 78/2/7
f  102/2/8 31/2/8 90/2/8
f  90/2/35 75/2/33 103/2/35
f  91/2/33 103/2/35 75/2/33
f  95/2/35 81/2/33 77/2/35
f  77/2/35 92/2/37 95/2/35
f  104/2/10 92/2/10 21/2/10
f  93/2/8 34/2/8 105/2/8
f  93/2/36 80/2/36 79/2/34
f  94/2/10 104/2/10 21/2/10
f  80/2/36 93/2/36 94/2/38
f  106/2/8 34/2/8 95/2/8
f  82/2/35 96/2/37 85/2/35
f  107/2/10 96/2/10 35/2/10
f  97/2/10 108/2/10 35/2/10
f  98/2/8 36/2/8 109/2/8
f  98/2/36 108/2/36 84/2/34
f  97/2/34 84/2/34 108/2/36
f  110/2/8 36/2/8 99/2/8
f  99/2/37 85/2/35 96/2/37
f  103/2/10 91/2/10 45/2/10
f  100/2/8 31/2/8 111/2/8
f  100/2/34 87/2/34 86/2/32
f  101/2/10 112/2/10 45/2/10
f  87/2/34 100/2/34 101/2/36
f  113/2/8 31/2/8 102/2/8
f  102/2/37 90/2/35 114/2/37
f  103/2/35 114/2/37 90/2/35
f  106/2/37 95/2/35 92/2/37
f  92/2/37 104/2/26 106/2/37
f  105/2/8 34/2/8 115/2/8
f  105/2/38 94/2/38 93/2/36
f  94/2/38 105/2/38 104/2/26
f  115/2/8 34/2/8 106/2/8
f  96/2/37 107/2/26 99/2/37
f  116/2/10 107/2/10 35/2/10
f  108/2/10 116/2/10 35/2/10
f  109/2/8 36/2/8 110/2/8
f  109/2/38 116/2/38 98/2/36
f  108/2/36 98/2/36 116/2/38
f  110/2/26 99/2/37 107/2/26
f  114/2/10 103/2/10 45/2/10
f  111/2/8 31/2/8 117/2/8
f  111/2/36 101/2/36 100/2/34
f  112/2/10 118/2/10 45/2/10
f  101/2/36 111/2/36 112/2/38
f  117/2/8 31/2/8 113/2/8
f  113/2/26 102/2/37 118/2/26
f  114/2/37 118/2/26 102/2/37
f  115/2/26 106/2/37 104/2/26
f  115/2/26 104/2/26 105/2/38
f  116/2/38 109/2/38 107/2/26
f  110/2/26 107/2/26 109/2/38
f  118/2/10 114/2/10 45/2/10
f  117/2/38 112/2/38 111/2/36
f  112/2/38 117/2/38 118/2/26
f  113/2/26 118/2/26 117/2/38

# Mesh 'mesh3_mesh3-geometry' with 10 faces
g mesh3_mesh3-geometry
usemtl material_3_24
f  119/2/25 14/2/25 12/2/25
f  14/2/25 119/2/25 121/2/25
f  121/2/25 119/2/25 30/2/25
f  37/2/25 119/2/25 38/2/25
f  30/2/25 119/2/25 46/2/25
f  46/2/25 119/2/25 37/2/25
f  46/2/25 37/2/25 129/2/25
f  46/2/25 129/2/25 131/2/25
f  89/2/25 131/2/25 129/2/25
f  131/2/25 89/2/25 64/2/25

# Mesh 'mesh3_mesh3-geometry' with 30 faces
g mesh3_mesh3-geometry
usemtl material_0_2_8
f  14/1/7 120/2/7 18/3/7
f  122/2/8 119/5/8 12/3/8
f  120/2/7 14/1/7 123/4/7
f  120/2/8 30/5/8 18/3/8
f  124/4/10 14/3/10 121/1/10
f  119/5/8 122/2/8 125/8/8
f  25/178/7 122/179/7 12/180/7
f  119/181/11 126/182/11 38/183/11
f  14/3/10 124/4/10 123/2/10
f  124/6/25 120/2/25 123/7/25
f  30/5/8 120/2/8 127/8/8
f  30/3/11 124/8/11 121/5/11
f  122/184/25 126/185/25 125/186/25
f  126/182/11 119/181/11 125/187/11
f  122/179/7 25/178/7 128/188/7
f  126/4/10 25/3/10 38/1/10
f  120/2/25 124/6/25 127/4/25
f  124/8/11 30/3/11 127/2/11
f  126/185/25 122/184/25 128/189/25
f  25/3/10 126/4/10 128/2/10
f  37/178/7 130/179/7 129/180/7
f  132/190/10 37/191/10 48/192/10
f  130/179/7 37/178/7 133/188/7
f  130/193/8 89/194/8 129/195/8
f  37/191/10 132/190/10 133/196/10
f  89/181/11 132/182/11 48/183/11
f  132/197/25 130/198/25 133/199/25
f  89/194/8 130/193/8 134/200/8
f  132/182/11 89/181/11 134/187/11
f  130/198/25 132/197/25 134/201/25

# Mesh 'mesh4_mesh4-geometry' with 2 faces
g mesh4_mesh4-geometry
usemtl material_1_0
l  60 64
l  46 60

