# File produced by Open Asset Import Library (http://www.assimp.sf.net)
# (assimp v3.2.202087883)

mtllib model_normalized.mtl

# 156 vertex positions
v -0.143535 -0.415397 0.237981
v 0.452579 -0.415397 -0.374894
v 0.452579 -0.415397 0.237981
v -0.143535 -0.415397 -0.374894
v 0.452579 -0.056309 0.025138
v 0.452579 0.103286 0.237981
v -0.143535 -0.056309 -0.374894
v 0.452579 -0.056309 -0.374894
v 0.452579 0.103286 0.104402
v -0.143535 0.103286 0.237981
v -0.143535 -0.056309 0.025138
v 0.415853 -0.056309 -0.352605
v 0.345225 -0.022876 0.041743
v -0.143535 0.103286 0.104402
v -0.111808 -0.056309 -0.026493
v 0.415853 -0.056309 -0.026493
v 0.345225 0.077637 0.091659
v 0.078504 -0.022876 0.041743
v -0.131819 0.020066 0.063070
v -0.111808 -0.056309 -0.352605
v 0.415853 -0.056309 -0.319969
v 0.345225 -0.028629 0.053327
v -0.097755 -0.010447 0.047911
v 0.078504 0.077637 0.091659
v -0.130660 0.012168 0.059149
v -0.130660 0.027963 0.066991
v 0.415853 -0.067605 -0.026493
v -0.111808 -0.067605 -0.352605
v 0.415853 -0.056309 -0.066027
v 0.345225 0.071882 0.103249
v 0.000121 -0.013221 0.046537
v 0.078504 -0.028629 0.053327
v 0.000121 0.053352 0.079603
v 0.078504 0.071882 0.103249
v -0.127259 0.004810 0.055490
v -0.131819 0.034653 0.033697
v -0.127259 0.035322 0.070643
v -0.130660 0.042550 0.037619
v -0.111808 -0.067605 -0.026493
v 0.415853 -0.067605 -0.352605
v -0.106571 -0.009407 0.048431
v -0.009498 -0.012087 0.047098
v 0.009741 -0.012087 0.047098
v -0.009498 0.052218 0.079035
v 0.009741 0.052218 0.079035
v -0.121843 -0.001510 0.052352
v -0.130660 0.026756 0.029776
v -0.121843 0.041641 0.073787
v -0.127259 0.049909 0.041277
v -0.045250 -0.067605 -0.119762
v -0.087151 -0.067605 -0.119762
v -0.114790 -0.006359 0.049944
v -0.097755 0.004140 0.018545
v -0.018462 -0.008761 0.048748
v 0.000121 0.001367 0.017164
v 0.018704 -0.008761 0.048748
v 0.009741 0.002501 0.017726
v 0.032308 0.003422 0.054803
v -0.097755 0.050578 0.078222
v -0.009498 0.066805 0.049669
v 0.018704 0.048893 0.077385
v 0.000121 0.067939 0.050230
v -0.127259 0.019396 0.026118
v -0.106571 0.064126 0.048336
v -0.114790 0.046491 0.076190
v -0.121843 0.056229 0.044415
v -0.045250 -0.067605 -0.254034
v -0.087151 -0.067605 -0.254034
v -0.106571 0.005180 0.019059
v -0.088939 0.005180 0.019059
v -0.088939 -0.009407 0.048431
v -0.009498 0.002501 0.017726
v 0.026402 -0.003471 0.051378
v 0.018704 0.005826 0.019382
v 0.036021 0.011450 0.058790
v -0.106571 0.049538 0.077708
v -0.088939 0.049538 0.077708
v -0.018462 0.063480 0.048013
v 0.026402 0.043603 0.074761
v 0.009741 0.066805 0.049669
v -0.114790 0.008228 0.020571
v -0.121843 0.013077 0.022980
v -0.045250 -0.062868 -0.119762
v -0.087151 -0.062868 -0.254034
v -0.080720 -0.006359 0.049944
v -0.018462 0.005826 0.019382
v 0.000121 0.002501 0.017726
v 0.026402 0.011116 0.022006
v 0.032308 0.018010 0.025431
v 0.036021 0.026038 0.029418
v 0.037287 0.020066 0.063070
v -0.018462 0.048893 0.077385
v -0.097755 0.065166 0.048850
v -0.009498 0.067939 0.050230
v -0.009498 0.069723 0.043793
v -0.026159 0.058190 0.045389
v 0.032308 0.036709 0.071336
v 0.018704 0.063480 0.048013
v -0.114790 0.061077 0.046823
v -0.045250 -0.062868 -0.254034
v -0.087151 -0.062868 -0.119762
v -0.097755 0.005180 0.019059
v -0.080720 0.008228 0.020571
v -0.026159 -0.003471 0.051378
v 0.000121 0.005418 0.011857
v 0.037287 0.034653 0.033697
v 0.036021 0.028681 0.067349
v -0.080720 0.046491 0.076190
v -0.088939 0.064126 0.048336
v 0.000121 0.070857 0.044355
v -0.032065 0.051296 0.041964
v 0.026402 0.058190 0.045389
v -0.054375 -0.062868 -0.248589
v -0.054375 -0.062868 -0.129439
v -0.077877 -0.062868 -0.129439
v -0.106571 0.067043 0.042460
v -0.097755 0.008097 0.013184
v -0.073663 0.013077 0.022980
v -0.073663 -0.001510 0.052352
v -0.026159 0.011116 0.022006
v -0.009498 0.005418 0.011857
v 0.036021 0.043268 0.037977
v -0.106571 0.065166 0.048850
v -0.026159 0.043603 0.074761
v -0.080720 0.061077 0.046823
v -0.035778 0.043268 0.037977
v -0.032065 0.036709 0.071336
v 0.032308 0.051296 0.041964
v -0.077877 -0.062868 -0.248589
v -0.106571 0.008097 0.013184
v -0.097755 0.068083 0.042980
v -0.032065 0.003422 0.054803
v -0.032065 0.018010 0.025431
v -0.073663 0.041641 0.073787
v -0.073663 0.056229 0.044415
v -0.037045 0.034653 0.033697
v -0.035778 0.028681 0.067349
v -0.054375 -0.068880 -0.129439
v -0.077877 -0.068880 -0.248589
v -0.068249 0.019396 0.026118
v -0.068249 0.004810 0.055490
v -0.035778 0.026038 0.029418
v -0.068249 0.049909 0.041277
v -0.037045 0.020066 0.063070
v -0.068249 0.035322 0.070643
v -0.054375 -0.068880 -0.248589
v -0.077877 -0.068880 -0.129439
v -0.064846 0.026756 0.029776
v -0.035778 0.011450 0.058790
v -0.064846 0.042550 0.037619
v -0.064846 0.027963 0.066991
v -0.063684 0.034653 0.033697
v -0.064846 0.012168 0.059149
v -0.063684 0.020066 0.063070
v 0.394515 -0.067605 -0.319969
v 0.394515 -0.067605 -0.066027

# 0 UV coordinates

# 34 vertex normals
vn 0 -0.3048 0
vn 0.3048 0 0
vn 0 0 0.3048
vn -0.3048 0 0
vn 0 0 -0.3048
vn 0 0.3048 0
vn 0 0.135581 -0.272985
vn 0 0.272985 0.135581
vn -0 -0.272985 -0.135581
vn -0.294414 -0.0706536 -0.035091
vn -0.294414 0.0706536 0.035091
vn -0.263964 -0.136492 -0.0677906
vn -0.263964 0.136492 0.0677906
vn -0.078888 -0.263683 -0.130962
vn 0.078888 -0.263683 -0.130962
vn -0.078888 0.263683 0.130962
vn 0.078888 0.263683 0.130962
vn -0.215526 -0.19303 -0.0958706
vn -0.215526 0.19303 0.0958706
vn -0.1524 -0.236412 -0.117417
vn 0.1524 -0.236412 -0.117417
vn -0.1524 0.236412 0.117417
vn 0.1524 0.236412 0.117417
vn 0.215526 -0.19303 -0.0958706
vn 0.263964 -0.136492 -0.0677906
vn 0.294414 -0.0706536 -0.035091
vn -0.0397843 0.27065 0.134421
vn 0.215526 0.19303 0.0958706
vn 0.263964 0.136492 0.0677906
vn 0.294414 0.0706536 0.035091
vn 0.1426 -0.269385 -0
vn 0 -0.135581 0.272985
vn 0.0397843 -0.27065 -0.134421
vn -0.1426 0.269385 0

# Mesh 'mesh1_mesh1-geometry' with 300 faces
g mesh1_mesh1-geometry
usemtl material_0_24
f  1//1 2//1 3//1
f  2//1 1//1 4//1
f  2//2 5//2 3//2
f  6//3 1//3 3//3
f  1//4 7//4 4//4
f  4//5 8//5 2//5
f  5//2 2//2 8//2
f  3//2 5//2 9//2
f  1//3 6//3 10//3
f  3//2 9//2 6//2
f  7//4 1//4 11//4
f  8//5 4//5 7//5
f  8//6 12//6 5//6
f  13//7 9//7 5//7
f  6//6 14//6 10//6
f  14//4 1//4 10//4
f  14//6 6//6 9//6
f  11//4 1//4 14//4
f  11//6 15//6 7//6
f  12//6 8//6 7//6
f  16//6 5//6 12//6
f  9//7 13//7 17//7
f  5//7 18//7 13//7
f  9//7 17//7 14//7
f  19//7 11//7 14//7
f  11//6 16//6 15//6
f  20//6 7//6 15//6
f  12//6 7//6 20//6
f  5//6 16//6 11//6
f  16//6 12//6 21//6
f  22//4 17//4 13//4
f  5//7 23//7 18//7
f  18//8 22//8 13//8
f  24//7 14//7 17//7
f  25//7 11//7 19//7
f  19//7 14//7 26//7
f  27//5 15//5 16//5
f  15//2 28//2 20//2
f  28//3 12//3 20//3
f  11//7 23//7 5//7
f  12//4 27//4 21//4
f  16//6 21//6 29//6
f  17//4 22//4 30//4
f  18//7 23//7 31//7
f  22//8 18//8 32//8
f  33//7 14//7 24//7
f  17//9 34//9 24//9
f  35//7 11//7 25//7
f  36//4 25//10 19//4
f  26//7 14//7 37//7
f  38//11 19//4 26//11
f  15//5 27//5 39//5
f  29//4 27//4 16//4
f  28//2 15//2 39//2
f  12//3 28//3 40//3
f  23//7 11//7 41//7
f  27//4 12//4 40//4
f  21//4 27//4 29//4
f  34//9 17//9 30//9
f  31//7 23//7 42//7
f  43//7 18//7 31//7
f  24//2 32//2 18//2
f  44//7 14//7 33//7
f  24//7 45//7 33//7
f  32//2 24//2 34//2
f  46//7 11//7 35//7
f  47//10 35//12 25//10
f  25//10 36//4 47//10
f  19//4 38//11 36//4
f  37//7 14//7 48//7
f  49//13 26//11 37//13
f  26//11 49//13 38//11
f  27//6 50//6 39//6
f  39//6 51//6 28//6
f  28//6 27//6 40//6
f  41//7 11//7 52//7
f  41//14 53//9 23//9
f  23//7 54//7 42//7
f  42//14 55//9 31//9
f  56//7 18//7 43//7
f  31//9 57//15 43//15
f  18//7 58//7 24//7
f  59//7 14//7 44//7
f  33//8 60//16 44//16
f  24//7 61//7 45//7
f  45//17 62//8 33//8
f  52//7 11//7 46//7
f  63//12 46//18 35//12
f  35//12 47//10 63//12
f  64//7 47//7 36//7
f  64//7 36//7 38//7
f  48//7 14//7 65//7
f  66//19 37//13 48//19
f  37//13 66//19 49//13
f  64//7 38//7 49//7
f  50//6 27//6 67//6
f  39//6 50//6 51//6
f  68//6 28//6 51//6
f  27//6 28//6 67//6
f  52//20 69//14 41//14
f  53//9 41//14 69//14
f  70//15 23//9 53//9
f  54//7 23//7 71//7
f  54//20 72//14 42//14
f  55//9 42//14 72//14
f  57//15 31//9 55//9
f  73//7 18//7 56//7
f  43//15 74//21 56//21
f  74//21 43//15 57//15
f  58//7 18//7 73//7
f  24//7 58//7 75//7
f  76//7 14//7 59//7
f  44//7 77//7 59//7
f  60//16 33//8 62//8
f  78//22 44//16 60//16
f  24//7 79//7 61//7
f  61//23 80//17 45//17
f  62//8 45//17 80//17
f  46//18 81//20 52//20
f  46//18 63//12 82//18
f  64//7 63//7 47//7
f  65//7 14//7 76//7
f  65//22 66//19 48//19
f  64//7 49//7 66//7
f  67//2 83//2 50//2
f  83//3 51//3 50//3
f  67//6 28//6 68//6
f  51//4 84//4 68//4
f  69//14 52//20 81//20
f  69//7 70//7 53//7
f  23//9 70//15 71//15
f  54//7 71//7 85//7
f  72//14 54//20 86//20
f  72//7 87//7 55//7
f  87//7 57//7 55//7
f  56//21 88//24 73//24
f  88//24 56//21 74//21
f  57//7 62//7 74//7
f  73//24 89//25 58//25
f  58//25 90//26 75//26
f  24//7 75//7 91//7
f  59//8 64//16 76//16
f  92//7 77//7 44//7
f  77//17 93//8 59//8
f  62//7 60//7 94//7
f  62//27 95//27 60//27
f  44//16 78//22 92//22
f  60//7 96//7 78//7
f  24//7 97//7 79//7
f  79//28 98//23 61//23
f  80//17 61//23 98//23
f  98//7 62//7 80//7
f  81//20 46//18 82//18
f  64//7 82//7 63//7
f  76//16 99//22 65//22
f  66//19 65//22 99//22
f  64//7 66//7 99//7
f  83//2 67//2 100//2
f  51//3 83//3 101//3
f  84//5 67//5 68//5
f  84//4 51//4 101//4
f  81//7 64//7 69//7
f  70//7 69//7 102//7
f  103//21 71//15 70//15
f  71//15 103//21 85//21
f  54//7 85//7 104//7
f  104//18 86//20 54//20
f  86//7 60//7 72//7
f  72//9 105//9 87//9
f  57//7 87//7 62//7
f  89//25 73//24 88//24
f  74//7 62//7 88//7
f  90//26 58//25 89//25
f  106//2 75//26 90//26
f  75//26 106//2 91//2
f  24//7 91//7 107//7
f  64//16 59//8 93//8
f  99//22 76//16 64//16
f  92//7 108//7 77//7
f  93//8 77//17 109//17
f  95//27 62//27 110//27
f  95//4 72//4 60//4
f  96//19 92//22 78//22
f  60//7 111//7 96//7
f  24//7 107//7 97//7
f  97//29 112//28 79//28
f  98//23 79//28 112//28
f  112//7 62//7 98//7
f  64//7 81//7 82//7
f  67//5 84//5 100//5
f  100//6 113//6 83//6
f  83//6 114//6 101//6
f  101//6 115//6 84//6
f  116//4 69//4 64//4
f  69//9 117//9 102//9
f  70//7 102//7 93//7
f  70//7 93//7 103//7
f  118//24 85//21 103//21
f  104//7 85//7 119//7
f  86//20 104//18 120//18
f  60//7 86//7 120//7
f  105//9 72//9 121//9
f  110//2 87//2 105//2
f  87//2 110//2 62//2
f  88//7 62//7 89//7
f  89//7 62//7 90//7
f  90//7 62//7 106//7
f  122//30 91//2 106//2
f  91//2 122//30 107//30
f  93//7 64//7 123//7
f  93//27 116//27 64//27
f  124//7 108//7 92//7
f  108//23 109//17 77//17
f  125//7 93//7 109//7
f  110//7 121//7 95//7
f  72//4 95//4 121//4
f  92//22 96//19 124//19
f  60//7 126//7 111//7
f  127//13 96//19 111//13
f  107//30 128//29 97//29
f  112//28 97//29 128//29
f  128//7 62//7 112//7
f  113//6 100//6 84//6
f  114//6 83//6 113//6
f  101//6 114//6 115//6
f  129//6 84//6 115//6
f  69//4 116//4 130//4
f  117//9 69//9 130//9
f  131//2 102//2 117//2
f  102//2 131//2 93//2
f  103//7 93//7 118//7
f  85//21 118//24 119//24
f  104//7 119//7 132//7
f  104//18 133//12 120//18
f  60//7 120//7 133//7
f  121//7 110//7 105//7
f  106//7 62//7 122//7
f  128//29 107//30 122//30
f  116//27 93//27 131//27
f  124//7 134//7 108//7
f  109//17 108//23 125//23
f  135//7 93//7 125//7
f  96//19 127//13 124//19
f  60//7 136//7 126//7
f  137//11 111//13 126//11
f  111//13 137//11 127//13
f  122//7 62//7 128//7
f  113//6 84//6 129//6
f  113//4 138//4 114//4
f  138//5 115//5 114//5
f  115//2 139//2 129//2
f  116//7 117//7 130//7
f  117//7 116//7 131//7
f  118//7 93//7 140//7
f  140//25 119//24 118//24
f  132//7 119//7 141//7
f  133//12 104//18 132//12
f  60//7 133//7 142//7
f  127//7 134//7 124//7
f  134//28 125//23 108//23
f  143//7 93//7 135//7
f  125//23 134//28 135//28
f  60//7 142//7 136//7
f  144//4 126//11 136//4
f  126//11 144//4 137//11
f  137//7 145//7 127//7
f  139//3 113//3 129//3
f  138//4 113//4 146//4
f  115//5 138//5 147//5
f  139//2 115//2 147//2
f  140//7 93//7 148//7
f  119//24 140//25 141//25
f  132//7 141//7 149//7
f  132//12 142//10 133//12
f  127//7 145//7 134//7
f  150//7 93//7 143//7
f  135//28 145//29 143//29
f  145//29 135//28 134//28
f  149//10 136//4 142//10
f  136//4 149//10 144//4
f  144//7 151//7 137//7
f  137//7 151//7 145//7
f  113//3 139//3 146//3
f  139//6 138//6 146//6
f  138//6 139//6 147//6
f  148//7 93//7 152//7
f  148//26 141//25 140//25
f  149//7 141//7 153//7
f  142//10 132//12 149//10
f  152//7 93//7 150//7
f  143//29 151//30 150//30
f  151//30 143//29 145//29
f  149//7 153//7 144//7
f  144//7 154//7 151//7
f  152//2 153//26 148//26
f  141//25 148//26 153//26
f  150//30 154//2 152//2
f  154//2 150//30 151//30
f  144//7 153//7 154//7
f  153//26 152//2 154//2

# Mesh 'mesh1_mesh1-geometry' with 242 faces
g mesh1_mesh1-geometry
usemtl material_1_24
f  3//6 2//6 1//6
f  4//6 1//6 2//6
f  3//4 5//4 2//4
f  3//5 1//5 6//5
f  4//2 7//2 1//2
f  8//4 2//4 5//4
f  9//4 5//4 3//4
f  10//5 6//5 1//5
f  6//4 9//4 3//4
f  11//2 1//2 7//2
f  5//1 12//1 8//1
f  10//1 14//1 6//1
f  10//2 1//2 14//2
f  9//1 6//1 14//1
f  14//2 1//2 11//2
f  7//1 15//1 11//1
f  7//1 8//1 12//1
f  12//1 5//1 16//1
f  15//1 16//1 11//1
f  15//1 7//1 20//1
f  20//1 7//1 12//1
f  11//1 16//1 5//1
f  21//1 12//1 16//1
f  13//2 17//2 22//2
f  13//9 22//9 18//9
f  16//3 15//3 27//3
f  20//4 28//4 15//4
f  20//5 12//5 28//5
f  21//2 27//2 12//2
f  29//1 21//1 16//1
f  30//2 22//2 17//2
f  32//9 18//9 22//9
f  24//8 34//8 17//8
f  19//2 25//30 36//2
f  26//26 19//2 38//26
f  39//3 27//3 15//3
f  16//2 27//2 29//2
f  39//4 15//4 28//4
f  40//5 28//5 12//5
f  40//2 12//2 27//2
f  29//2 27//2 21//2
f  21//31 29//31 155//31
f  22//32 30//32 32//32
f  30//8 17//8 34//8
f  18//4 32//4 24//4
f  34//4 24//4 32//4
f  25//30 35//29 47//30
f  47//30 36//2 25//30
f  36//2 38//26 19//2
f  37//25 26//26 49//25
f  38//26 49//25 26//26
f  39//1 50//1 27//1
f  28//1 51//1 39//1
f  40//1 27//1 28//1
f  23//8 53//8 41//17
f  156//31 155//31 29//31
f  34//32 32//32 30//32
f  31//8 55//8 42//17
f  43//16 57//16 31//8
f  44//15 60//15 33//9
f  33//9 62//9 45//14
f  35//29 46//28 63//29
f  63//29 47//30 35//29
f  36//32 47//32 64//32
f  38//32 36//32 64//32
f  48//24 37//25 66//24
f  49//25 66//24 37//25
f  49//32 38//32 64//32
f  67//1 27//1 50//1
f  51//1 50//1 39//1
f  51//1 28//1 68//1
f  67//1 28//1 27//1
f  41//17 69//17 52//23
f  69//17 41//17 53//8
f  53//8 23//8 70//16
f  42//17 72//17 54//23
f  72//17 42//17 55//8
f  55//8 31//8 57//16
f  56//22 74//22 43//16
f  57//16 43//16 74//22
f  62//9 33//9 60//15
f  60//15 44//15 78//21
f  45//14 80//14 61//20
f  80//14 45//14 62//9
f  52//23 81//23 46//28
f  82//28 63//29 46//28
f  47//32 63//32 64//32
f  48//24 66//24 65//21
f  66//32 49//32 64//32
f  50//4 83//4 67//4
f  50//5 51//5 83//5
f  68//1 28//1 67//1
f  68//2 84//2 51//2
f  81//23 52//23 69//17
f  53//32 70//32 69//32
f  71//16 70//16 23//8
f  86//23 54//23 72//17
f  55//32 87//32 72//32
f  55//32 57//32 87//32
f  73//19 88//19 56//22
f  74//22 56//22 88//19
f  74//32 62//32 57//32
f  58//13 89//13 73//19
f  75//11 90//11 58//13
f  76//15 64//15 59//9
f  59//9 93//9 77//14
f  94//32 60//32 62//32
f  60//33 95//33 62//33
f  92//21 78//21 44//15
f  78//32 96//32 60//32
f  61//20 98//20 79//18
f  98//20 61//20 80//14
f  80//32 62//32 98//32
f  82//28 46//28 81//23
f  63//32 82//32 64//32
f  65//21 99//21 76//15
f  99//21 65//21 66//24
f  99//32 66//32 64//32
f  100//4 67//4 83//4
f  101//5 83//5 51//5
f  68//3 67//3 84//3
f  101//2 51//2 84//2
f  69//32 64//32 81//32
f  102//32 69//32 70//32
f  70//16 71//16 103//22
f  85//22 103//22 71//16
f  54//23 86//23 104//28
f  72//32 60//32 86//32
f  87//8 105//8 72//8
f  62//32 87//32 57//32
f  88//19 73//19 89//13
f  88//32 62//32 74//32
f  89//13 58//13 90//11
f  90//11 75//11 106//4
f  91//4 106//4 75//11
f  93//9 59//9 64//15
f  64//15 76//15 99//21
f  109//14 77//14 93//9
f  110//33 62//33 95//33
f  60//2 72//2 95//2
f  78//21 92//21 96//24
f  96//32 111//32 60//32
f  79//18 112//18 97//12
f  112//18 79//18 98//20
f  98//32 62//32 112//32
f  82//32 81//32 64//32
f  100//3 84//3 67//3
f  83//1 113//1 100//1
f  101//1 114//1 83//1
f  84//1 115//1 101//1
f  64//2 69//2 116//2
f  102//8 117//8 69//8
f  93//32 102//32 70//32
f  103//32 93//32 70//32
f  103//22 85//22 118//19
f  120//28 104//28 86//23
f  120//32 86//32 60//32
f  121//8 72//8 105//8
f  105//4 87//4 110//4
f  62//4 110//4 87//4
f  89//32 62//32 88//32
f  90//32 62//32 89//32
f  106//32 62//32 90//32
f  106//4 91//4 122//10
f  107//10 122//10 91//4
f  123//32 64//32 93//32
f  64//33 116//33 93//33
f  77//14 109//14 108//20
f  109//32 93//32 125//32
f  95//32 121//32 110//32
f  121//2 95//2 72//2
f  124//24 96//24 92//21
f  111//32 126//32 60//32
f  111//25 96//24 127//25
f  97//12 128//12 107//10
f  128//12 97//12 112//18
f  112//32 62//32 128//32
f  84//1 100//1 113//1
f  113//1 83//1 114//1
f  115//1 114//1 101//1
f  115//1 84//1 129//1
f  130//2 116//2 69//2
f  130//8 69//8 117//8
f  117//4 102//4 131//4
f  93//4 131//4 102//4
f  118//32 93//32 103//32
f  119//19 118//19 85//22
f  120//28 133//29 104//28
f  133//32 120//32 60//32
f  105//32 110//32 121//32
f  122//32 62//32 106//32
f  122//10 107//10 128//12
f  131//33 93//33 116//33
f  125//20 108//20 109//14
f  125//32 93//32 135//32
f  124//24 127//25 96//24
f  126//32 136//32 60//32
f  126//26 111//25 137//26
f  127//25 137//26 111//25
f  128//32 62//32 122//32
f  129//1 84//1 113//1
f  114//2 138//2 113//2
f  114//3 115//3 138//3
f  129//4 139//4 115//4
f  130//32 117//32 116//32
f  131//32 116//32 117//32
f  140//32 93//32 118//32
f  118//19 119//19 140//13
f  132//29 104//28 133//29
f  142//32 133//32 60//32
f  108//20 125//20 134//18
f  135//32 93//32 143//32
f  135//18 134//18 125//20
f  136//32 142//32 60//32
f  136//2 126//26 144//2
f  137//26 144//2 126//26
f  129//5 113//5 139//5
f  146//2 113//2 138//2
f  147//3 138//3 115//3
f  147//4 115//4 139//4
f  148//32 93//32 140//32
f  141//13 140//13 119//19
f  133//29 142//30 132//29
f  143//32 93//32 150//32
f  143//12 145//12 135//18
f  134//18 135//18 145//12
f  142//30 136//2 149//30
f  144//2 149//30 136//2
f  146//5 139//5 113//5
f  146//1 138//1 139//1
f  147//1 139//1 138//1
f  152//32 93//32 148//32
f  140//13 141//13 148//11
f  149//30 132//29 142//30
f  150//32 93//32 152//32
f  150//10 151//10 143//12
f  145//12 143//12 151//10
f  148//11 153//11 152//4
f  153//11 148//11 141//13
f  152//4 154//4 150//10
f  151//10 150//10 154//4
f  154//4 152//4 153//11

# Mesh 'mesh1_mesh1-geometry' with 62 faces
g mesh1_mesh1-geometry
usemtl material_2_24
f  2//3 8//3 4//3
f  7//3 4//3 8//3
f  5//32 9//32 13//32
f  17//32 13//32 9//32
f  13//32 18//32 5//32
f  14//32 17//32 9//32
f  14//32 11//32 19//32
f  18//32 23//32 5//32
f  17//32 14//32 24//32
f  19//32 11//32 25//32
f  26//32 14//32 19//32
f  5//32 23//32 11//32
f  31//32 23//32 18//32
f  24//32 14//32 33//32
f  25//32 11//32 35//32
f  37//32 14//32 26//32
f  41//32 11//32 23//32
f  42//32 23//32 31//32
f  31//32 18//32 43//32
f  33//32 14//32 44//32
f  33//32 45//32 24//32
f  35//32 11//32 46//32
f  48//32 14//32 37//32
f  52//32 11//32 41//32
f  42//32 54//32 23//32
f  43//32 18//32 56//32
f  24//32 58//32 18//32
f  44//32 14//32 59//32
f  45//32 61//32 24//32
f  46//32 11//32 52//32
f  65//32 14//32 48//32
f  71//32 23//32 54//32
f  56//32 18//32 73//32
f  73//32 18//32 58//32
f  75//32 58//32 24//32
f  59//32 14//32 76//32
f  59//32 77//32 44//32
f  61//32 79//32 24//32
f  76//32 14//32 65//32
f  85//32 71//32 54//32
f  91//32 75//32 24//32
f  44//32 77//32 92//32
f  79//32 97//32 24//32
f  104//32 85//32 54//32
f  107//32 91//32 24//32
f  77//32 108//32 92//32
f  97//32 107//32 24//32
f  119//32 85//32 104//32
f  92//32 108//32 124//32
f  132//32 119//32 104//32
f  108//32 134//32 124//32
f  141//32 119//32 132//32
f  124//32 134//32 127//32
f  127//32 145//32 137//32
f  149//32 141//32 132//32
f  134//32 145//32 127//32
f  137//32 151//32 144//32
f  145//32 151//32 137//32
f  153//32 141//32 149//32
f  144//32 153//32 149//32
f  151//32 154//32 144//32
f  154//32 153//32 144//32

# Mesh 'mesh1_mesh1-geometry' with 4 faces
g mesh1_mesh1-geometry
usemtl material_3_24
f  155//34 29//34 21//34
f  32//7 30//7 22//7
f  29//34 155//34 156//34
f  30//7 32//7 34//7

