# File produced by Open Asset Import Library (http://www.assimp.sf.net)
# (assimp v3.2.202087883)

mtllib model_normalized.mtl

# 102 vertex positions
v 0.313938 -0.233322 0.315886
v 0.332413 -0.233322 0.337133
v 0.295462 -0.233322 0.337133
v 0.332413 -0.233322 0.294640
v 0.272628 0.027145 0.337133
v 0.302521 0.027145 0.300106
v 0.332413 0.027145 0.263079
v 0.332413 0.027145 0.337133
v -0.264541 0.027145 0.337133
v -0.308746 0.027145 0.300106
v 0.269176 0.066525 0.337133
v -0.352951 0.027145 0.263079
v 0.332413 0.066525 0.176784
v 0.332413 0.066525 0.258308
v -0.016147 0.066525 0.337133
v -0.315503 -0.233322 0.337133
v 0.332413 0.027145 0.199238
v -0.352951 -0.233322 0.294640
v 0.308699 0.066525 0.226743
v 0.269176 0.066525 0.258308
v -0.256836 0.066525 0.337133
v -0.352951 0.027145 0.337133
v -0.334227 -0.233322 0.315886
v -0.352951 0.027145 0.176784
v 0.332413 0.027145 0.176784
v 0.284986 0.066525 0.217545
v -0.016147 0.109360 0.337133
v -0.256836 0.066525 0.258308
v -0.352951 -0.233322 0.337133
v -0.352951 0.066525 0.176784
v 0.300795 0.066525 0.176784
v 0.269176 0.066525 0.176784
v 0.269176 0.109360 0.258308
v -0.256836 0.109360 0.258308
v 0.332413 0.027145 -0.123063
v -0.352951 0.066525 0.258308
v -0.016147 0.066525 0.258308
v 0.056571 0.109360 0.284203
v -0.084370 0.109360 0.285315
v -0.016147 0.109360 0.258308
v -0.352951 0.027145 -0.123063
v -0.317766 0.066525 0.239298
v 0.332413 0.066525 -0.221740
v 0.332413 0.066525 -0.123063
v 0.332413 0.027145 -0.227484
v -0.280865 0.066525 0.217545
v -0.352951 0.066525 -0.123063
v -0.352951 0.027145 -0.228351
v 0.308699 0.066525 -0.191157
v -0.304894 0.066525 0.176784
v -0.352951 0.066525 -0.221740
v -0.256836 0.066525 0.176784
v 0.269176 0.066525 -0.221740
v 0.300795 0.066525 -0.123063
v 0.303042 0.027145 -0.266441
v -0.256836 0.066525 -0.221740
v -0.304894 0.066525 -0.123063
v -0.256836 0.066525 -0.123063
v -0.280865 0.066525 -0.172402
v -0.319375 0.066525 -0.191157
v 0.284986 0.066525 -0.172402
v 0.269176 0.066525 -0.123063
v 0.332413 -0.233322 -0.265478
v -0.308746 0.027145 -0.266874
v 0.332413 0.027145 -0.305397
v 0.317906 -0.233322 -0.285437
v 0.273671 0.027145 -0.305397
v -0.352951 -0.233322 -0.272078
v -0.352951 -0.233322 -0.305397
v -0.352951 0.027145 -0.305397
v 0.332413 -0.233322 -0.305397
v 0.303399 -0.233322 -0.305397
v 0.269176 0.066525 -0.305397
v 0.060444 0.066525 -0.282940
v -0.264541 0.027145 -0.305397
v -0.334227 -0.233322 -0.288737
v -0.352951 -0.233322 -0.288737
v -0.016147 0.109360 -0.221740
v -0.016147 0.066525 -0.221740
v -0.256836 0.109360 -0.221740
v -0.099824 0.066525 -0.276313
v -0.256836 0.066525 -0.305397
v -0.315503 -0.233322 -0.305397
v -0.016147 0.066525 -0.305397
v 0.002007 0.066525 -0.300074
v 0.269176 0.109360 -0.221740
v -0.099824 0.109360 -0.276313
v -0.034808 0.066525 -0.298911
v 0.060444 0.109360 -0.282940
v 0.053440 0.109360 -0.255425
v -0.075066 0.109360 -0.255425
v -0.016147 0.109360 -0.305397
v 0.332413 0.066525 0.337133
v -0.352951 0.066525 0.337133
v 0.332413 0.066525 -0.305397
v -0.352951 0.066525 -0.305397
v 0.332413 -0.156421 0.176784
v -0.352951 -0.187221 -0.123063
v 0.332413 -0.156421 -0.123063
v -0.352951 -0.187221 0.176784
v 0.332413 -0.187221 0.176784
v 0.332413 -0.187221 -0.123063

# 211 UV coordinates
vt -0.031 0.026958 0
vt 0 0 0
vt 0 0.053915 0
vt -0.062001 0 0
vt -0.087231 0.380041 0
vt -0.053915 0 0
vt -0.012147 0.384003 0
vt -0.005703 0.002955 0
vt 0.035379 0.002955 0
vt -0.046785 0.002955 0
vt 0.10805 0.380041 0
vt 0.062001 0 0
vt 0 0.380041 0
vt -0.014638 0.383779 0
vt 0.033867 0.002855 0
vt 0.054795 0.383779 0
vt -0.084072 0.384096 0
vt -0.048242 0.002956 0
vt -0.014638 0.384096 0
vt -0 0.087231 0
vt -0 0.871002 0
vt 0.054025 0.043615 0
vt 0.10805 0 0
vt 0.054025 0.935501 0
vt -0.092268 0.4375 0
vt -0.871002 0.380041 0
vt 0.10805 1 0
vt 0.233962 0.4375 0
vt 0.115012 0.4375 0
vt -0.508576 0.4375 0
vt 0.724719 -0.075669 0
vt 0.751852 0.30736 0
vt 0.667716 0.30736 0
vt 0.201199 0 0
vt 0.835988 0.326683 0
vt 0.751852 0.326683 0
vt 0.806419 -0.054994 0
vt 0.201199 0.380041 0
vt 0.233962 0 0
vt 0.161067 0.0346 0
vt 0.115012 0 0
vt 0.115012 0.092268 0
vt 0 0.508576 0
vt 0 0.092268 0
vt -0.85976 0.4375 0
vt -1 0.380041 0
vt -0.945359 0 0
vt 0.65906 0.302528 0
vt 0.625047 -0.079951 0
vt 0.666368 -0.079951 0
vt 0.233962 1 0
vt -0.10805 0.380041 0
vt 0.707689 -0.079951 0
vt 0.233962 0.380041 0
vt 0.174487 0.069201 0
vt -0.05831 0.4375 0
vt -0.490213 0.5 0
vt -0.490213 0.4375 0
vt 0.115012 0.85976 0
vt 0 0.85976 0
vt -1 0 0
vt 0 0.945359 0
vt -0.062001 1 0
vt -0.031 0.97268 0
vt -0.233962 0.4375 0
vt -0.233962 0.380041 0
vt 0.233962 0.046134 0
vt 0.233962 0.092268 0
vt -0.05831 0.5 0
vt -0.852854 0.5 0
vt -0.483317 0.4375 0
vt -0.483317 0.5 0
vt -0.852854 0.4375 0
vt 0 1 0
vt 0.671462 0 0
vt -0.115012 0.4375 0
vt 0.508576 0.4375 0
vt 0.092268 0.5 0
vt 0.092268 0.4375 0
vt 0.077229 0.402475 0
vt 0.075606 0.608119 0
vt 0.508576 0.5 0
vt 0.85976 0.4375 0
vt 0.85976 0.5 0
vt 0.671462 1 0
vt 0.115012 1 0
vt 0.142748 0.948661 0
vt 0.671462 0.380041 0
vt 0.815439 0.4375 0
vt 0.671462 0.4375 0
vt 0.115012 0.508576 0
vt 0.82382 0 0
vt 0.174487 0.89482 0
vt -0.671462 0.4375 0
vt -0.825085 0.380041 0
vt -0.671462 0.380041 0
vt 0.82382 0.380041 0
vt 0.815439 0 0
vt 0.770816 0.0346 0
vt 0.825085 1 0
vt 0.233962 0.92988 0
vt -0.815439 0.4375 0
vt 0.233962 0.85976 0
vt 0.815439 0.092268 0
vt 0.671462 0.046134 0
vt 0.88066 0.042855 0
vt 0.815439 0.85976 0
vt 0.671462 0.92988 0
vt 0.671462 0.85976 0
vt 0.74345 0.89482 0
vt 0.770816 0.95101 0
vt 0.815439 1 0
vt 0.74345 0.069201 0
vt 0.671462 0.092268 0
vt -0.72899 0.3352 0
vt -0.702068 -0.046304 0
vt -0.657805 0.3352 0
vt 0.881293 0.935501 0
vt 0.879255 0 0
vt 0.9375 0.380041 0
vt -0.737571 0.335697 0
vt -0.747241 -0.045848 0
vt -0.711239 -0.045848 0
vt 0.9375 0.08571 0
vt -0.169917 -0.166635 0
vt -0.126279 0.216438 0
vt -0.211833 0.216438 0
vt -0.9375 0 0
vt -0.9375 0.380041 0
vt 0.9375 0 0
vt 0.042334 0 0
vt 0.08571 0.380041 0
vt 0.9375 0.092268 0
vt 0.904734 0.396824 0
vt -0.800175 0.33346 0
vt -0.774061 -0.048156 0
vt -0.72899 0.33346 0
vt -0.783243 -0.045848 0
vt -0.908377 0.021167 0
vt -0.879255 0 0
vt 0.9375 0.871002 0
vt -0.156252 -0.16837 0
vt -0.119683 -0.16837 0
vt -0.113111 0.21476 0
vt -0.913193 0 0
vt -0.888885 0 0
vt -0.508576 0.5 0
vt -0.85976 0.5 0
vt 0.895065 0.630667 0
vt 0.9375 0.85976 0
vt 0.945359 0 0
vt 1 0.380041 0
vt 0.871002 0.380041 0
vt 1 0 0
vt 0.929734 0.482088 0
vt 0.635344 0.4375 0
vt 0.317968 0.5 0
vt 0.317968 0.4375 0
vt -0.9375 0.042334 0
vt -0.096784 -0.169296 0
vt -0.040726 0.213872 0
vt -0.126279 0.213872 0
vt -0.913193 1 0
vt -0.913193 0.97268 0
vt -0.888885 1 0
vt -0.083115 -0.16837 0
vt -0.092268 0.5 0
vt 0.301856 0.5 0
vt 0.544392 0.4375 0
vt 0.544392 0.5 0
vt 0.928036 0.535804 0
vt 0.301856 0.4375 0
vt -0.9375 1 0
vt -0.9375 0.945359 0
vt 0.9375 0.508576 0
vt 0.724198 0.4375 0
vt 0.635344 0.5 0
vt 0.864588 0.407044 0
vt 0.815439 0.508576 0
vt 0.864588 0.594544 0
vt 0.201427 0.4375 0
vt 0.172601 0.5 0
vt 0.172601 0.4375 0
vt 0.751802 0.5 0
vt 0.751802 0.4375 0
vt 1.40377 1.52016 0
vt 4.02877 1.75 0
vt 1.40377 1.75 0
vt -1.40377 1.75 0
vt -4.02877 1.52016 0
vt -1.40377 1.52016 0
vt 4.02877 1.52016 0
vt 4.02877 0 0
vt 1.40377 0.184535 0
vt 1.40377 0 0
vt 1.40377 0.448816 0
vt -4.02877 1.75 0
vt -4.02877 0.269059 0
vt 1.40377 0.369071 0
vt 4.02877 0.448816 0
vt 1.40377 4 0
vt 4.02877 3.43904 0
vt 4.02877 4 0
vt -1.40377 0.269059 0
vt 4.02877 0.369071 0
vt 1.40377 0.269059 0
vt 1.40377 3.71952 0
vt 4.02877 3.71952 0
vt 4.02877 0.184535 0
vt 1.40377 3.43904 0
vt 4.02877 0.269059 0

# 38 vertex normals
vn 0 -0.0254 0
vn 0 0 0.0254
vn -0.0191161 -0.00184501 -0.0166232
vn 0.0254 0 0
vn -0.0197175 -0.0017285 -0.0159183
vn -0.0197063 -0.00192771 -0.0159093
vn 0.0161825 -0.00316621 -0.0193199
vn 0.0162398 -0.00234927 -0.0193884
vn 0 0.0254 0
vn 0.0189344 -0.00286329 -0.0166868
vn -0.0254 0 0
vn 0.00676379 0 0.0244829
vn -0.00790532 0 0.0241385
vn 0 0 -0.0254
vn -0.0202037 -0.00222192 0.0152327
vn -0.0204654 -0.00225275 0.0148746
vn 0.0165554 -0.00318925 0.0189976
vn -0.0201977 -0.00230528 0.0152282
vn 0.0167475 -0.00321838 0.0188234
vn 0.00714639 0 -0.0243739
vn 0.0165513 -0.00323835 0.0189928
vn -0.00833895 0 -0.0239921
vn 0.0191161 0.00184501 0.0166232
vn 0.0197175 0.0017285 0.0159183
vn 0.0197063 0.00192771 0.0159093
vn -0.0161825 0.00316621 0.0193199
vn -0.0162398 0.00234927 0.0193884
vn -0.0189344 0.00286329 0.0166868
vn -0.00676379 0 -0.0244829
vn 0.00790532 0 -0.0241385
vn 0.0202037 0.00222192 -0.0152327
vn 0.0204654 0.00225275 -0.0148746
vn -0.0165554 0.00318925 -0.0189976
vn 0.0201977 0.00230528 -0.0152282
vn -0.0167475 0.00321838 -0.0188234
vn -0.00714639 0 0.0243739
vn -0.0165513 0.00323835 -0.0189928
vn 0.00833895 -0 0.0239921

# Mesh 'mesh1_mesh1-geometry' with 144 faces
g mesh1_mesh1-geometry
usemtl material_0_1_8
f  1/1/1 2/2/1 3/3/1
f  2/2/1 1/1/1 4/4/1
f  2/2/2 5/5/2 3/6/2
f  6/7/3 1/8/3 3/9/3
f  6/7/3 4/10/3 1/8/3
f  7/11/4 2/2/4 4/12/4
f  5/5/2 2/2/2 8/13/2
f  6/14/5 3/15/5 5/16/5
f  7/17/6 4/18/6 6/19/6
f  2/2/4 7/11/4 8/13/4
f  5/20/1 9/21/1 6/22/1
f  7/23/1 6/22/1 10/24/1
f  11/25/2 9/26/2 5/5/2
f  10/24/1 6/22/1 9/21/1
f  12/27/1 7/23/1 10/24/1
f  7/11/4 13/28/4 14/29/4
f  9/26/2 11/25/2 15/30/2
f  16/31/7 10/32/7 9/33/7
f  17/34/1 7/23/1 12/27/1
f  12/35/8 10/36/8 18/37/8
f  17/38/4 13/28/4 7/11/4
f  13/39/9 19/40/9 14/41/9
f  20/42/9 15/43/9 11/44/9
f  9/26/2 15/30/2 21/45/2
f  22/46/2 16/47/2 9/26/2
f  10/48/10 16/49/10 23/50/10
f  24/51/1 17/34/1 12/27/1
f  18/4/11 22/13/11 12/52/11
f  10/48/10 23/50/10 18/53/10
f  13/28/4 17/38/4 25/54/4
f  13/39/9 26/55/9 19/40/9
f  26/55/9 14/41/9 19/40/9
f  14/41/9 26/55/9 20/42/9
f  20/56/12 27/57/12 15/58/12
f  28/59/9 21/60/9 15/43/9
f  16/47/2 22/46/2 29/61/2
f  16/62/1 18/63/1 23/64/1
f  25/39/1 17/34/1 24/51/1
f  12/52/11 30/65/11 24/66/11
f  22/13/11 18/4/11 29/2/11
f  26/55/9 13/39/9 31/67/9
f  26/55/9 32/68/9 20/42/9
f  27/57/12 20/56/12 33/69/12
f  34/70/13 15/71/13 27/72/13
f  15/71/13 34/70/13 28/73/13
f  18/63/1 16/62/1 29/74/1
f  35/75/1 25/39/1 24/51/1
f  30/65/11 12/52/11 36/76/11
f  32/68/9 26/55/9 31/67/9
f  37/77/14 33/78/14 20/79/14
f  33/42/9 38/80/9 27/43/9
f  34/59/9 27/43/9 39/81/9
f  40/82/14 28/83/14 34/84/14
f  41/85/1 35/75/1 24/51/1
f  30/51/9 36/86/9 42/87/9
f  28/59/9 42/87/9 36/86/9
f  35/88/4 43/89/4 44/90/4
f  33/78/14 37/77/14 40/82/14
f  40/91/9 38/80/9 33/42/9
f  40/91/9 27/43/9 38/80/9
f  40/91/9 39/81/9 27/43/9
f  34/59/9 39/81/9 40/91/9
f  28/83/14 40/82/14 37/77/14
f  45/92/1 35/75/1 41/85/1
f  46/93/9 30/51/9 42/87/9
f  47/94/11 48/95/11 41/96/11
f  42/87/9 28/59/9 46/93/9
f  43/89/4 35/88/4 45/97/4
f  43/98/9 49/99/9 44/75/9
f  48/100/1 45/92/1 41/85/1
f  30/51/9 46/93/9 50/101/9
f  48/95/11 47/94/11 51/102/11
f  52/103/9 46/93/9 28/59/9
f  53/104/9 49/99/9 43/98/9
f  49/99/9 54/105/9 44/75/9
f  55/106/1 45/92/1 48/100/1
f  46/93/9 52/103/9 50/101/9
f  56/107/9 57/108/9 58/109/9
f  59/110/9 47/85/9 57/108/9
f  60/111/9 51/112/9 47/85/9
f  49/99/9 53/104/9 61/113/9
f  54/105/9 49/99/9 61/113/9
f  61/113/9 62/114/9 54/105/9
f  55/115/15 63/116/15 45/117/15
f  64/118/1 55/106/1 48/100/1
f  57/108/9 56/107/9 59/110/9
f  47/85/9 59/110/9 60/111/9
f  51/112/9 60/111/9 56/107/9
f  63/119/4 65/120/4 45/97/4
f  62/114/9 61/113/9 53/104/9
f  55/121/16 66/122/16 63/123/16
f  67/124/1 55/106/1 64/118/1
f  68/125/17 64/126/17 48/127/17
f  56/107/9 60/111/9 59/110/9
f  69/128/11 48/95/11 70/129/11
f  65/120/4 63/119/4 71/130/4
f  65/13/14 72/131/14 67/132/14
f  73/133/9 74/134/9 53/104/9
f  67/135/18 72/136/18 55/137/18
f  55/121/16 72/138/16 66/122/16
f  66/139/1 71/128/1 63/140/1
f  75/141/1 67/124/1 64/118/1
f  68/142/19 76/143/19 64/144/19
f  48/95/11 77/145/11 68/146/11
f  53/25/2 78/147/2 79/30/2
f  79/30/2 80/148/2 56/45/2
f  81/149/9 82/150/9 56/107/9
f  83/151/14 70/152/14 75/153/14
f  77/145/11 48/95/11 69/128/11
f  70/152/14 83/151/14 69/154/14
f  84/77/14 75/153/14 82/83/14
f  72/131/14 65/13/14 71/2/14
f  75/153/14 73/79/14 67/132/14
f  74/134/9 73/133/9 85/155/9
f  74/156/20 86/157/20 53/158/20
f  71/128/1 66/139/1 72/159/1
f  83/160/21 75/161/21 64/162/21
f  77/163/1 76/164/1 68/165/1
f  76/143/19 83/166/19 64/144/19
f  78/147/2 53/25/2 86/167/2
f  80/148/2 79/30/2 78/147/2
f  87/168/22 56/169/22 80/170/22
f  82/150/9 81/149/9 88/171/9
f  56/169/22 87/168/22 81/172/22
f  76/164/1 77/163/1 69/173/1
f  76/164/1 69/173/1 83/174/1
f  73/79/14 75/153/14 84/77/14
f  82/150/9 88/171/9 84/175/9
f  85/155/9 73/133/9 84/175/9
f  85/176/20 89/177/20 74/156/20
f  86/157/20 74/156/20 89/177/20
f  90/178/9 78/179/9 86/104/9
f  78/179/9 91/180/9 80/107/9
f  91/180/9 87/149/9 80/107/9
f  87/168/22 88/181/22 81/172/22
f  88/181/22 92/182/22 84/183/22
f  92/184/20 85/176/20 84/185/20
f  89/177/20 85/176/20 92/184/20
f  89/134/9 90/178/9 86/104/9
f  92/175/9 78/179/9 90/178/9
f  91/180/9 78/179/9 92/175/9
f  87/149/9 91/180/9 92/175/9
f  88/181/22 87/168/22 92/182/22
f  90/178/9 89/134/9 92/175/9

# Mesh 'mesh1_mesh1-geometry' with 204 faces
g mesh1_mesh1-geometry
usemtl material_1_24
f  3/2/9 2/2/9 1/2/9
f  4/2/9 1/2/9 2/2/9
f  3/2/14 5/2/14 2/2/14
f  3/2/23 1/2/23 6/2/23
f  1/2/23 4/2/23 6/2/23
f  4/2/11 2/2/11 7/2/11
f  8/2/14 2/2/14 5/2/14
f  5/2/24 3/2/24 6/2/24
f  6/2/25 4/2/25 7/2/25
f  8/2/11 7/2/11 2/2/11
f  5/2/14 11/2/14 8/2/14
f  7/2/9 5/2/9 8/2/9
f  8/2/1 5/2/1 7/2/1
f  5/2/9 7/2/9 6/2/9
f  6/2/1 7/2/1 5/2/1
f  6/2/9 9/2/9 5/2/9
f  10/2/9 6/2/9 7/2/9
f  7/2/11 8/2/11 14/2/11
f  93/2/14 8/2/14 11/2/14
f  5/2/14 9/2/14 11/2/14
f  9/2/9 6/2/9 10/2/9
f  10/2/9 7/2/9 12/2/9
f  93/2/11 14/2/11 8/2/11
f  14/2/11 13/2/11 7/2/11
f  93/2/1 11/2/1 14/2/1
f  15/2/14 11/2/14 9/2/14
f  10/2/9 22/2/9 9/2/9
f  9/2/1 22/2/1 10/2/1
f  9/2/26 10/2/26 16/2/26
f  12/2/9 7/2/9 17/2/9
f  22/2/9 10/2/9 12/2/9
f  12/2/1 10/2/1 22/2/1
f  18/2/27 10/2/27 12/2/27
f  7/2/11 13/2/11 17/2/11
f  14/2/1 19/2/1 13/2/1
f  20/2/1 14/2/1 11/2/1
f  11/2/1 15/2/1 20/2/1
f  21/2/14 15/2/14 9/2/14
f  22/2/14 94/2/14 9/2/14
f  9/2/14 16/2/14 22/2/14
f  23/2/28 16/2/28 10/2/28
f  12/2/9 17/2/9 24/2/9
f  22/2/4 12/2/4 94/2/4
f  12/2/4 22/2/4 18/2/4
f  18/2/28 23/2/28 10/2/28
f  25/2/11 17/2/11 13/2/11
f  19/2/1 26/2/1 13/2/1
f  19/2/1 14/2/1 26/2/1
f  20/2/1 26/2/1 14/2/1
f  15/2/29 27/2/29 20/2/29
f  15/2/1 21/2/1 28/2/1
f  21/2/14 9/2/14 94/2/14
f  29/2/14 22/2/14 16/2/14
f  23/2/9 18/2/9 16/2/9
f  24/2/9 17/2/9 25/2/9
f  24/2/4 30/2/4 12/2/4
f  36/2/4 94/2/4 12/2/4
f  29/2/4 18/2/4 22/2/4
f  13/2/11 44/2/11 25/2/11
f  31/2/1 13/2/1 26/2/1
f  20/2/1 32/2/1 26/2/1
f  33/2/29 20/2/29 27/2/29
f  27/2/30 15/2/30 34/2/30
f  21/2/1 94/2/1 28/2/1
f  28/2/30 34/2/30 15/2/30
f  29/2/9 16/2/9 18/2/9
f  24/2/9 25/2/9 35/2/9
f  36/2/4 12/2/4 30/2/4
f  24/2/4 41/2/4 30/2/4
f  36/2/1 28/2/1 94/2/1
f  35/2/11 25/2/11 44/2/11
f  13/2/1 31/2/1 44/2/1
f  31/2/1 26/2/1 32/2/1
f  20/2/1 37/2/1 32/2/1
f  20/2/2 33/2/2 37/2/2
f  27/2/1 38/2/1 33/2/1
f  39/2/1 27/2/1 34/2/1
f  34/2/2 28/2/2 40/2/2
f  24/2/9 35/2/9 41/2/9
f  42/2/1 36/2/1 30/2/1
f  47/2/4 30/2/4 41/2/4
f  36/2/1 42/2/1 28/2/1
f  44/2/11 43/2/11 35/2/11
f  32/2/1 44/2/1 31/2/1
f  28/2/1 32/2/1 37/2/1
f  40/2/2 37/2/2 33/2/2
f  33/2/1 38/2/1 40/2/1
f  38/2/1 27/2/1 40/2/1
f  27/2/1 39/2/1 40/2/1
f  40/2/1 39/2/1 34/2/1
f  37/2/2 40/2/2 28/2/2
f  41/2/9 35/2/9 45/2/9
f  42/2/1 30/2/1 46/2/1
f  47/2/1 58/2/1 30/2/1
f  41/2/4 48/2/4 47/2/4
f  46/2/1 28/2/1 42/2/1
f  45/2/11 35/2/11 43/2/11
f  44/2/1 49/2/1 43/2/1
f  62/2/1 44/2/1 32/2/1
f  52/2/1 32/2/1 28/2/1
f  41/2/9 45/2/9 48/2/9
f  50/2/1 46/2/1 30/2/1
f  30/2/1 58/2/1 50/2/1
f  57/2/1 58/2/1 47/2/1
f  51/2/4 47/2/4 48/2/4
f  28/2/1 46/2/1 52/2/1
f  43/2/11 95/2/11 45/2/11
f  43/2/1 49/2/1 53/2/1
f  44/2/1 54/2/1 49/2/1
f  54/2/1 44/2/1 62/2/1
f  32/2/1 52/2/1 62/2/1
f  48/2/9 45/2/9 55/2/9
f  50/2/1 52/2/1 46/2/1
f  52/2/1 50/2/1 58/2/1
f  58/2/1 57/2/1 56/2/1
f  57/2/1 47/2/1 59/2/1
f  47/2/1 51/2/1 60/2/1
f  51/2/4 48/2/4 96/2/4
f  65/2/11 45/2/11 95/2/11
f  43/2/1 53/2/1 95/2/1
f  61/2/1 53/2/1 49/2/1
f  61/2/1 49/2/1 54/2/1
f  54/2/1 62/2/1 61/2/1
f  58/2/1 62/2/1 52/2/1
f  65/2/9 55/2/9 45/2/9
f  45/2/1 55/2/1 65/2/1
f  45/2/31 63/2/31 55/2/31
f  48/2/9 55/2/9 64/2/9
f  59/2/1 56/2/1 57/2/1
f  56/2/1 53/2/1 58/2/1
f  60/2/1 59/2/1 47/2/1
f  56/2/1 60/2/1 51/2/1
f  70/2/4 96/2/4 48/2/4
f  96/2/1 82/2/1 51/2/1
f  45/2/11 65/2/11 63/2/11
f  65/2/2 95/2/2 67/2/2
f  73/2/1 95/2/1 53/2/1
f  53/2/1 61/2/1 62/2/1
f  62/2/1 58/2/1 53/2/1
f  55/2/9 65/2/9 67/2/9
f  67/2/1 65/2/1 55/2/1
f  63/2/32 66/2/32 55/2/32
f  64/2/9 55/2/9 67/2/9
f  64/2/9 70/2/9 48/2/9
f  48/2/1 70/2/1 64/2/1
f  48/2/33 64/2/33 68/2/33
f  59/2/1 60/2/1 56/2/1
f  79/2/1 53/2/1 56/2/1
f  56/2/1 51/2/1 82/2/1
f  70/2/2 75/2/2 96/2/2
f  70/2/4 48/2/4 69/2/4
f  82/2/2 96/2/2 75/2/2
f  71/2/11 63/2/11 65/2/11
f  73/2/2 67/2/2 95/2/2
f  67/2/2 72/2/2 65/2/2
f  53/2/1 74/2/1 73/2/1
f  55/2/34 72/2/34 67/2/34
f  66/2/32 72/2/32 55/2/32
f  63/2/9 71/2/9 66/2/9
f  64/2/9 67/2/9 75/2/9
f  70/2/9 64/2/9 75/2/9
f  75/2/1 64/2/1 70/2/1
f  64/2/35 76/2/35 68/2/35
f  68/2/4 77/2/4 48/2/4
f  79/2/14 78/2/14 53/2/14
f  56/2/14 80/2/14 79/2/14
f  56/2/1 82/2/1 81/2/1
f  75/2/2 70/2/2 83/2/2
f  69/2/4 48/2/4 77/2/4
f  69/2/2 83/2/2 70/2/2
f  82/2/2 75/2/2 84/2/2
f  71/2/2 65/2/2 72/2/2
f  67/2/2 73/2/2 75/2/2
f  85/2/1 73/2/1 74/2/1
f  53/2/36 86/2/36 74/2/36
f  72/2/9 66/2/9 71/2/9
f  64/2/37 75/2/37 83/2/37
f  68/2/9 76/2/9 77/2/9
f  64/2/35 83/2/35 76/2/35
f  86/2/14 53/2/14 78/2/14
f  78/2/14 79/2/14 80/2/14
f  80/2/38 56/2/38 87/2/38
f  88/2/1 81/2/1 82/2/1
f  81/2/38 87/2/38 56/2/38
f  69/2/9 77/2/9 76/2/9
f  83/2/9 69/2/9 76/2/9
f  84/2/2 75/2/2 73/2/2
f  84/2/1 88/2/1 82/2/1
f  84/2/1 73/2/1 85/2/1
f  74/2/36 89/2/36 85/2/36
f  89/2/36 74/2/36 86/2/36
f  86/2/1 78/2/1 90/2/1
f  80/2/1 91/2/1 78/2/1
f  80/2/1 87/2/1 91/2/1
f  81/2/38 88/2/38 87/2/38
f  84/2/38 92/2/38 88/2/38
f  84/2/36 85/2/36 92/2/36
f  92/2/36 85/2/36 89/2/36
f  86/2/1 90/2/1 89/2/1
f  90/2/1 78/2/1 92/2/1
f  92/2/1 78/2/1 91/2/1
f  92/2/1 91/2/1 87/2/1
f  92/2/38 87/2/38 88/2/38
f  92/2/1 89/2/1 90/2/1

# Mesh 'mesh1_mesh1-geometry' with 30 faces
g mesh1_mesh1-geometry
usemtl material_2_24
f  8/2/2 11/2/2 5/2/2
f  14/2/4 8/2/4 7/2/4
f  11/2/2 8/2/2 93/2/2
f  8/2/4 14/2/4 93/2/4
f  14/2/9 11/2/9 93/2/9
f  11/2/9 14/2/9 20/2/9
f  9/2/2 94/2/2 22/2/2
f  94/2/11 12/2/11 22/2/11
f  94/2/2 9/2/2 21/2/2
f  12/2/11 94/2/11 36/2/11
f  28/2/9 94/2/9 21/2/9
f  94/2/9 28/2/9 36/2/9
f  32/2/9 37/2/9 20/2/9
f  37/2/9 32/2/9 28/2/9
f  28/2/9 32/2/9 52/2/9
f  45/2/4 95/2/4 43/2/4
f  96/2/11 48/2/11 51/2/11
f  95/2/4 45/2/4 65/2/4
f  95/2/9 53/2/9 43/2/9
f  58/2/9 53/2/9 56/2/9
f  48/2/11 96/2/11 70/2/11
f  51/2/9 82/2/9 96/2/9
f  67/2/14 95/2/14 65/2/14
f  53/2/9 95/2/9 73/2/9
f  53/2/9 58/2/9 62/2/9
f  56/2/9 53/2/9 79/2/9
f  82/2/9 51/2/9 56/2/9
f  96/2/14 75/2/14 70/2/14
f  75/2/14 96/2/14 82/2/14
f  95/2/14 67/2/14 73/2/14

# Mesh 'mesh1_mesh1-geometry' with 26 faces
g mesh1_mesh1-geometry
usemtl material_3_2_8
f  25/186/4 44/187/4 13/188/4
f  30/189/11 41/190/11 24/191/11
f  44/187/4 25/186/4 35/192/4
f  44/193/9 31/194/9 13/195/9
f  97/196/4 35/192/4 25/186/4
f  25/186/11 35/192/11 97/196/11
f  41/190/11 30/189/11 47/197/11
f  98/198/11 24/191/11 41/190/11
f  41/190/4 24/191/4 98/198/4
f  31/194/9 44/193/9 32/199/9
f  35/192/4 97/196/4 99/200/4
f  99/200/11 97/196/11 35/192/11
f  30/201/9 58/202/9 47/203/9
f  24/191/11 98/198/11 100/204/11
f  100/204/4 98/198/4 24/191/4
f  32/199/9 44/193/9 62/205/9
f  101/206/4 99/200/4 97/196/4
f  97/196/11 99/200/11 101/206/11
f  50/207/9 58/202/9 30/201/9
f  47/203/9 58/202/9 57/208/9
f  62/205/9 44/193/9 54/209/9
f  62/205/9 52/210/9 32/199/9
f  99/200/4 101/206/4 102/211/4
f  102/211/11 101/206/11 99/200/11
f  58/202/9 50/207/9 52/210/9
f  52/210/9 62/205/9 58/202/9

# Mesh 'mesh2_mesh2-geometry' with 1 faces
g mesh2_mesh2-geometry
usemtl material_1_0
l  78 91

