# File produced by Open Asset Import Library (http://www.assimp.sf.net)
# (assimp v3.2.202087883)

mtllib model_normalized.mtl

# 104 vertex positions
v -0.453415 -0.319920 0.209051
v 0.371311 -0.319920 -0.049114
v 0.371311 -0.319920 0.209051
v -0.453415 -0.319920 -0.049114
v 0.371311 0.162914 -0.049114
v 0.316047 -0.254706 0.209051
v -0.453415 0.162914 -0.049114
v -0.415744 -0.288255 -0.049114
v 0.371311 0.162914 0.209051
v 0.318517 -0.288518 -0.049114
v -0.415880 -0.254706 0.209051
v -0.453415 0.162914 0.209051
v 0.091753 -0.288518 -0.049114
v 0.319564 0.162914 -0.049114
v 0.318517 0.039419 -0.049114
v 0.316047 0.152076 0.209051
v -0.415880 -0.254706 0.193698
v 0.097683 0.162914 0.105785
v -0.415744 0.044566 -0.049114
v 0.058715 -0.288255 -0.049114
v 0.319564 0.162914 0.105785
v 0.319564 0.049881 -0.049114
v 0.318517 -0.288518 -0.060975
v -0.415880 0.152076 0.209051
v 0.316047 0.152076 0.193698
v 0.316047 -0.254706 0.193698
v 0.097683 0.162914 -0.049114
v -0.408180 0.062711 -0.049114
v -0.415744 0.014874 0.109970
v 0.091753 0.039419 -0.049114
v 0.058715 -0.288255 0.109970
v 0.319564 0.049881 0.105785
v 0.091753 -0.288518 -0.060975
v 0.318517 0.039419 -0.060975
v 0.058715 0.044566 -0.049114
v 0.291113 -0.228410 0.193698
v -0.415880 0.152076 0.193698
v 0.097683 0.049881 -0.049114
v 0.050234 0.155509 -0.049114
v -0.408180 0.155509 -0.049114
v -0.415744 -0.288255 0.109970
v 0.091753 0.039419 -0.060975
v 0.105035 -0.275324 -0.060975
v 0.299703 -0.275324 -0.060975
v -0.384995 -0.228410 0.193698
v 0.097683 0.049881 0.105785
v 0.050234 0.062711 -0.049114
v -0.408180 0.155509 -0.060975
v 0.058715 0.014874 0.109970
v 0.299703 0.021912 -0.060975
v 0.291113 0.119762 0.193698
v -0.384995 -0.228410 0.209745
v -0.384995 0.119373 0.193698
v 0.050234 0.062711 -0.060975
v -0.408180 0.062711 -0.060975
v 0.105035 0.021912 -0.060975
v 0.299703 -0.275324 -0.065162
v 0.291113 0.119762 0.209745
v 0.291113 -0.228410 0.209745
v 0.050234 0.155509 -0.060975
v -0.390283 0.072191 -0.060975
v 0.105035 0.021912 -0.065162
v 0.105035 -0.275324 -0.065162
v 0.299703 0.021912 -0.065162
v -0.384995 0.119373 0.209745
v 0.029755 0.072191 -0.060975
v 0.029755 0.141963 -0.060975
v -0.390283 0.141963 -0.060975
v 0.241918 -0.012142 -0.065162
v -0.390283 0.141963 -0.069348
v 0.165167 -0.012142 -0.065162
v 0.241918 -0.000280 -0.065162
v 0.029755 0.072191 -0.069348
v -0.390283 0.072191 -0.069348
v 0.165167 -0.000280 -0.065162
v 0.029755 0.141963 -0.069348
v -0.131287 0.121019 -0.069348
v -0.131287 0.133581 -0.069348
v -0.214317 0.121019 -0.069348
v -0.214317 0.133581 -0.069348
v 0.234606 -0.012142 -0.069981
v 0.241918 -0.012142 -0.084698
v 0.165167 -0.000280 -0.084698
v 0.170414 -0.012142 -0.069981
v 0.241918 -0.000280 -0.084698
v 0.234606 -0.000280 -0.069981
v 0.165167 -0.012142 -0.084698
v 0.170414 -0.000280 -0.069981
v 0.234606 -0.012142 -0.080448
v 0.170414 -0.012142 -0.080448
v 0.234606 -0.000280 -0.080448
v 0.170414 -0.000280 -0.080448
v -0.137783 0.121019 -0.073899
v -0.131287 0.121019 -0.084001
v -0.137783 0.133581 -0.073899
v -0.214317 0.133581 -0.084001
v -0.209649 0.121019 -0.073899
v -0.131287 0.133581 -0.084001
v -0.137783 0.133581 -0.079481
v -0.209649 0.133581 -0.073899
v -0.214317 0.121019 -0.084001
v -0.137783 0.121019 -0.079481
v -0.209649 0.121019 -0.079481
v -0.209649 0.133581 -0.079481

# 185 UV coordinates
vt -1.03078 0.811929 0
vt -0.004742 0.490749 0
vt -0.004742 0.811929 0
vt -1.03078 0.490749 0
vt 0.490749 0 0
vt 0.490749 0.600694 0
vt 0.811929 0 0
vt -0.004742 0 0
vt -0.073497 0.081132 0
vt -1.03078 0 0
vt 1.03078 0 0
vt 0.983921 0.039395 0
vt 0.004742 0 0
vt 0.811929 0.600694 0
vt 0.070423 0.039067 0
vt 0.004742 0.600694 0
vt -0.004742 0.600694 0
vt -0.984087 0.081132 0
vt 1.03078 0.600694 0
vt 0.352541 0.039067 0
vt 0.069121 0.490749 0
vt 0.004742 0.811929 0
vt 0.004742 0.490749 0
vt 0.070423 0.447053 0
vt -0.073497 0.587209 0
vt -1.03078 0.600694 0
vt 0.073497 0.811929 0
vt 0.984087 0.792832 0
vt 0.984087 0.811929 0
vt 1.03078 0.811929 0
vt 0.345163 0.683457 0
vt 1.03078 0.490749 0
vt 0.983921 0.453457 0
vt 0.393643 0.039395 0
vt 0.069121 0.683457 0
vt 0.069121 0.460069 0
vt 0.069121 0.600694 0
vt -0.352541 0.490749 0
vt -0.070423 0.475992 0
vt -0.070423 0.490749 0
vt -0.475992 0.039067 0
vt -0.490749 0.447053 0
vt -0.490749 0.039067 0
vt -0.984087 0.587209 0
vt 0.792832 0.587209 0
vt 0.811929 0.081132 0
vt 0.811929 0.587209 0
vt 0.073497 0.792832 0
vt -0.792832 0.081132 0
vt -0.811929 0.587209 0
vt -0.811929 0.081132 0
vt 0.345163 0.490749 0
vt 0.974507 0.476031 0
vt -0.688665 0.416517 0
vt -0.490749 0.039395 0
vt -0.490749 0.453457 0
vt 0.352541 0.447053 0
vt 0.983921 0.490749 0
vt 0.393643 0.688665 0
vt 0.393643 0.490749 0
vt 0.683457 0.460069 0
vt 0.683457 0.600694 0
vt 0.490749 0.460069 0
vt -0.352541 0.475992 0
vt -0.475992 0.447053 0
vt 0.393643 0.453457 0
vt -0.984087 0.811929 0
vt -0.073497 0.792832 0
vt -0.073497 0.811929 0
vt 0.792832 0.081132 0
vt -0.104516 0.113847 0
vt -0.792832 0.587209 0
vt 0.345163 0.600694 0
vt -0.683457 0.600694 0
vt -0.490749 0.460069 0
vt -0.490749 0.600694 0
vt 0.404194 0.591482 0
vt 0.974507 0.591482 0
vt -0.688665 0.039395 0
vt 0.393643 -0.399219 0
vt 0.983921 -0.600554 0
vt 0.983921 -0.399219 0
vt 0.475992 0.447053 0
vt 0.490749 0.039067 0
vt 0.490749 0.447053 0
vt 0.983921 0.688665 0
vt 0.688665 0.039395 0
vt 0.490749 0.453457 0
vt 0.490749 0.039395 0
vt 0.475992 0.039067 0
vt 0.336017 0.055482 0
vt 0.09383 0.055482 0
vt 0.352541 0.475992 0
vt 0.070423 0.490749 0
vt 0.070423 0.475992 0
vt 0.345163 0.460069 0
vt -0.984087 0.792832 0
vt -0.945662 0.113847 0
vt -0.683457 0.460069 0
vt 0.404194 0.476031 0
vt 0.475992 0.591482 0
vt 0.490749 0.476031 0
vt 0.490749 0.591482 0
vt 0.983921 0.416517 0
vt 0.393643 -0.600554 0
vt 0.352541 0.490749 0
vt 0.688665 0.416517 0
vt 0.09383 0.425273 0
vt -0.104516 0.547007 0
vt -0.104516 0.792832 0
vt -0.945662 0.812797 0
vt -0.945662 0.792832 0
vt -0.945662 0.546525 0
vt -0.475992 0.476031 0
vt -0.490749 0.591482 0
vt -0.490749 0.476031 0
vt 0.404194 0.490749 0
vt 0.974507 0.475992 0
vt 0.974507 0.490749 0
vt 0.475992 0.476031 0
vt 0.393643 0.416517 0
vt 0.336017 0.425273 0
vt -0.336017 0.475992 0
vt -0.09383 0.470784 0
vt -0.09383 0.475992 0
vt -0.470784 0.055482 0
vt -0.475992 0.425273 0
vt -0.475992 0.055482 0
vt -0.812797 0.547007 0
vt -0.792832 0.113847 0
vt -0.792832 0.547007 0
vt -0.104516 0.812797 0
vt 0.812797 0.113847 0
vt 0.792832 0.546525 0
vt 0.792832 0.113847 0
vt -0.974507 0.490749 0
vt -0.404194 0.475992 0
vt -0.404194 0.490749 0
vt -0.475992 0.591482 0
vt 0.404194 0.475992 0
vt 0.952242 0.487825 0
vt -0.974507 0.475992 0
vt 0.470784 0.425273 0
vt 0.475992 0.055482 0
vt 0.475992 0.425273 0
vt -0.336017 0.470784 0
vt -0.470784 0.425273 0
vt 0.09383 0.475992 0
vt 0.336017 0.470784 0
vt 0.336017 0.475992 0
vt 0.945348 0.792832 0
vt 0.104203 0.812797 0
vt 0.104203 0.792832 0
vt -0.812797 0.113847 0
vt 0.812797 0.546525 0
vt 0.429672 0.487825 0
vt 0.429672 0.57463 0
vt 0.952242 0.57463 0
vt 0.470784 0.055482 0
vt 0.16572 0.382906 0
vt 0.09383 0.470784 0
vt 0.945348 0.812797 0
vt 0.465575 0.57463 0
vt 0.475992 0.487825 0
vt 0.475992 0.57463 0
vt 0.261206 0.382906 0
vt 0.16572 0.397663 0
vt -0.465575 0.487825 0
vt -0.475992 0.57463 0
vt -0.475992 0.487825 0
vt -0.952242 0.475992 0
vt -0.429672 0.465575 0
vt -0.429672 0.475992 0
vt 0.429672 0.475992 0
vt 0.952242 0.465575 0
vt 0.952242 0.475992 0
vt 0.465575 0.487825 0
vt 0.261206 0.397663 0
vt -0.465575 0.57463 0
vt -0.952242 0.465575 0
vt 0.429672 0.465575 0
vt 0.630024 0.548573 0
vt 0.630024 0.564198 0
vt 0.733323 0.548573 0
vt 0.733323 0.564198 0

# 10 vertex normals
vn 0 -0.0254 0
vn 0.0254 -0 -0
vn 0 0 0.0254
vn -0.0254 0 0
vn 0 0 -0.0254
vn 0 0.0254 0
vn -0 -0.0249688 -0.00466032
vn -1.45542e-05 0.0254 0
vn 0 0.0249688 0.00466032
vn 1.45542e-05 -0.0254 -0

# Mesh 'mesh1_mesh1-geometry' with 152 faces
g mesh1_mesh1-geometry
usemtl material_0_1_8
f  1/1/1 2/2/1 3/3/1
f  2/2/1 1/1/1 4/4/1
f  2/5/2 5/6/2 3/7/2
f  3/8/3 6/9/3 1/10/3
f  1/7/4 7/6/4 4/5/4
f  4/11/5 8/12/5 2/13/5
f  9/14/2 3/7/2 5/6/2
f  2/13/5 10/15/5 5/16/5
f  6/9/3 3/8/3 9/17/3
f  11/18/3 1/10/3 6/9/3
f  7/6/4 1/7/4 12/14/4
f  8/12/5 4/11/5 7/19/5
f  2/13/5 8/12/5 13/20/5
f  14/21/6 9/22/6 5/23/6
f  10/15/5 2/13/5 13/20/5
f  5/16/5 10/15/5 15/24/5
f  6/9/3 9/17/3 16/25/3
f  1/10/3 11/18/3 12/26/3
f  6/27/6 17/28/6 11/29/6
f  12/30/6 18/31/6 7/32/6
f  8/12/5 7/19/5 19/33/5
f  20/34/5 13/20/5 8/12/5
f  9/22/6 14/21/6 21/35/6
f  5/16/5 22/36/5 14/37/5
f  13/38/1 23/39/1 10/40/1
f  23/41/2 15/42/2 10/43/2
f  5/16/5 15/24/5 22/36/5
f  16/25/3 9/17/3 24/44/3
f  25/45/4 6/46/4 16/47/4
f  12/26/3 11/18/3 24/44/3
f  17/28/6 6/27/6 26/48/6
f  17/49/2 24/50/2 11/51/2
f  12/30/6 21/35/6 18/31/6
f  7/32/6 18/31/6 27/52/6
f  19/33/5 7/19/5 28/53/5
f  29/54/2 8/55/2 19/56/2
f  13/20/5 20/34/5 30/57/5
f  8/58/6 31/59/6 20/60/6
f  14/6/4 32/61/4 21/62/4
f  9/22/6 21/35/6 12/30/6
f  32/61/4 14/6/4 22/63/4
f  23/39/1 13/38/1 33/64/1
f  15/42/2 23/41/2 34/65/2
f  22/36/5 15/24/5 35/66/5
f  12/26/3 24/44/3 9/17/3
f  24/67/1 25/68/1 16/69/1
f  6/46/4 25/45/4 26/70/4
f  26/9/3 36/71/3 17/18/3
f  24/50/2 17/49/2 37/72/2
f  32/36/5 18/73/5 21/37/5
f  18/74/2 38/75/2 27/76/2
f  27/73/5 39/77/5 7/19/5
f  28/53/5 7/19/5 40/78/5
f  19/33/5 28/53/5 35/66/5
f  8/55/2 29/54/2 41/79/2
f  35/80/7 29/81/7 19/82/7
f  30/57/5 20/34/5 35/66/5
f  42/83/4 13/84/4 30/85/4
f  31/59/6 8/58/6 41/86/6
f  31/87/4 35/88/4 20/89/4
f  38/52/6 32/35/6 22/21/6
f  13/84/4 42/83/4 33/90/4
f  43/91/5 23/15/5 33/20/5
f  44/92/5 34/24/5 23/15/5
f  42/93/6 15/94/6 34/95/6
f  30/57/5 35/66/5 15/24/5
f  22/36/5 35/66/5 38/96/5
f  25/68/1 24/67/1 37/97/1
f  36/71/3 26/9/3 25/25/3
f  45/98/3 17/18/3 36/71/3
f  17/18/3 45/98/3 37/44/3
f  18/73/5 32/36/5 46/96/5
f  38/75/2 18/74/2 46/99/2
f  38/96/5 47/100/5 27/73/5
f  27/73/5 47/100/5 39/77/5
f  40/78/5 7/19/5 39/77/5
f  48/101/4 28/102/4 40/103/4
f  35/66/5 28/53/5 38/96/5
f  29/104/5 31/34/5 41/12/5
f  29/81/7 35/80/7 49/105/7
f  15/94/6 42/93/6 30/106/6
f  35/88/4 31/87/4 49/107/4
f  32/35/6 38/52/6 46/31/6
f  42/57/5 43/91/5 33/20/5
f  23/15/5 43/91/5 44/92/5
f  34/24/5 44/92/5 50/108/5
f  50/108/5 42/57/5 34/24/5
f  37/44/3 51/109/3 25/25/3
f  36/71/3 25/25/3 51/109/3
f  36/110/1 52/111/1 45/112/1
f  37/44/3 45/98/3 53/113/3
f  47/100/5 38/96/5 28/53/5
f  54/114/2 39/115/2 47/116/2
f  39/117/6 48/118/6 40/119/6
f  28/102/4 48/101/4 55/120/4
f  31/34/5 29/104/5 49/121/5
f  43/91/5 42/57/5 56/122/5
f  43/123/1 57/124/1 44/125/1
f  57/126/2 50/127/2 44/128/2
f  42/57/5 50/108/5 56/122/5
f  37/44/3 53/113/3 51/109/3
f  58/129/2 36/130/2 51/131/2
f  52/111/1 36/110/1 59/132/1
f  52/133/4 53/134/4 45/135/4
f  28/136/1 54/137/1 47/138/1
f  39/115/2 54/114/2 60/139/2
f  48/118/6 39/117/6 60/140/6
f  48/78/5 61/141/5 55/53/5
f  54/137/1 28/136/1 55/142/1
f  62/143/4 43/144/4 56/145/4
f  57/124/1 43/123/1 63/146/1
f  50/127/2 57/126/2 64/147/2
f  50/148/6 62/149/6 56/150/6
f  53/151/8 58/152/8 51/153/8
f  36/130/2 58/129/2 59/154/2
f  58/109/3 52/98/3 59/71/3
f  53/134/4 52/133/4 65/155/4
f  66/156/5 60/77/5 54/100/5
f  67/157/5 48/78/5 60/77/5
f  61/141/5 48/78/5 68/158/5
f  61/141/5 54/100/5 55/53/5
f  43/144/4 62/143/4 63/159/4
f  62/122/5 57/92/5 63/91/5
f  57/92/5 69/160/5 64/108/5
f  62/149/6 50/148/6 64/161/6
f  58/152/8 53/151/8 65/162/8
f  52/98/3 58/109/3 65/113/3
f  60/77/5 66/156/5 67/157/5
f  54/100/5 61/141/5 66/156/5
f  48/78/5 67/157/5 68/158/5
f  70/163/4 61/164/4 68/165/4
f  57/92/5 62/122/5 71/166/5
f  69/160/5 57/92/5 71/166/5
f  64/108/5 69/160/5 72/167/5
f  64/108/5 72/167/5 62/122/5
f  73/168/2 67/169/2 66/170/2
f  61/171/1 73/172/1 66/173/1
f  67/174/6 70/175/6 68/176/6
f  61/164/4 70/163/4 74/177/4
f  71/166/5 62/122/5 75/178/5
f  75/178/5 62/122/5 72/167/5
f  67/169/2 73/168/2 76/179/2
f  73/172/1 61/171/1 74/180/1
f  70/175/6 67/174/6 76/181/6
f  70/158/5 73/156/5 74/141/5
f  73/156/5 77/182/5 76/157/5
f  76/157/5 78/183/5 70/158/5
f  73/156/5 70/158/5 79/184/5
f  77/182/5 73/156/5 79/184/5
f  76/157/5 77/182/5 78/183/5
f  80/185/5 70/158/5 78/183/5
f  79/184/5 70/158/5 80/185/5

# Mesh 'mesh1_mesh1-geometry' with 212 faces
g mesh1_mesh1-geometry
usemtl material_1_24
f  3//6 2//6 1//6
f  4//6 1//6 2//6
f  3//4 5//4 2//4
f  1//5 6//5 3//5
f  4//2 7//2 1//2
f  2//3 8//3 4//3
f  5//4 3//4 9//4
f  5//3 10//3 2//3
f  9//5 3//5 6//5
f  6//5 1//5 11//5
f  12//2 1//2 7//2
f  7//3 4//3 8//3
f  13//3 8//3 2//3
f  5//1 9//1 14//1
f  13//3 2//3 10//3
f  15//3 10//3 5//3
f  16//5 9//5 6//5
f  12//5 11//5 1//5
f  11//1 17//1 6//1
f  7//1 18//1 12//1
f  19//3 7//3 8//3
f  8//3 13//3 20//3
f  21//1 14//1 9//1
f  14//3 22//3 5//3
f  10//6 23//6 13//6
f  10//4 15//4 23//4
f  22//3 15//3 5//3
f  24//5 9//5 16//5
f  16//2 6//2 25//2
f  24//5 11//5 12//5
f  26//1 6//1 17//1
f  11//4 24//4 17//4
f  18//1 21//1 12//1
f  27//1 18//1 7//1
f  28//3 7//3 19//3
f  19//4 8//4 29//4
f  30//3 20//3 13//3
f  20//1 31//1 8//1
f  21//2 32//2 14//2
f  12//1 21//1 9//1
f  22//2 14//2 32//2
f  33//6 13//6 23//6
f  34//4 23//4 15//4
f  35//3 15//3 22//3
f  9//5 24//5 12//5
f  16//6 25//6 24//6
f  26//2 25//2 6//2
f  17//5 36//5 26//5
f  37//4 17//4 24//4
f  21//3 18//3 32//3
f  27//4 38//4 18//4
f  7//3 39//3 27//3
f  40//3 7//3 28//3
f  35//3 28//3 19//3
f  41//4 29//4 8//4
f  19//9 29//9 35//9
f  35//3 20//3 30//3
f  30//2 13//2 42//2
f  41//1 8//1 31//1
f  20//2 35//2 31//2
f  22//1 32//1 38//1
f  33//2 42//2 13//2
f  33//3 23//3 43//3
f  23//3 34//3 44//3
f  34//1 15//1 42//1
f  15//3 35//3 30//3
f  38//3 35//3 22//3
f  37//6 24//6 25//6
f  25//5 26//5 36//5
f  36//5 17//5 45//5
f  37//5 45//5 17//5
f  46//3 32//3 18//3
f  46//4 18//4 38//4
f  27//3 47//3 38//3
f  39//3 47//3 27//3
f  39//3 7//3 40//3
f  40//2 28//2 48//2
f  38//3 28//3 35//3
f  41//3 31//3 29//3
f  49//9 35//9 29//9
f  30//1 42//1 15//1
f  49//2 31//2 35//2
f  46//1 38//1 32//1
f  33//3 43//3 42//3
f  44//3 43//3 23//3
f  50//3 44//3 34//3
f  34//3 42//3 50//3
f  25//5 51//5 37//5
f  51//5 25//5 36//5
f  45//6 52//6 36//6
f  53//5 45//5 37//5
f  28//3 38//3 47//3
f  47//4 39//4 54//4
f  40//1 48//1 39//1
f  55//2 48//2 28//2
f  49//3 29//3 31//3
f  56//3 42//3 43//3
f  44//6 57//6 43//6
f  44//4 50//4 57//4
f  56//3 50//3 42//3
f  51//5 53//5 37//5
f  51//4 36//4 58//4
f  59//6 36//6 52//6
f  45//2 53//2 52//2
f  47//6 54//6 28//6
f  60//4 54//4 39//4
f  60//1 39//1 48//1
f  55//3 61//3 48//3
f  55//6 28//6 54//6
f  56//2 43//2 62//2
f  63//6 43//6 57//6
f  64//4 57//4 50//4
f  56//1 62//1 50//1
f  51//10 58//10 53//10
f  59//4 58//4 36//4
f  59//5 52//5 58//5
f  65//2 52//2 53//2
f  54//3 60//3 66//3
f  60//3 48//3 67//3
f  68//3 48//3 61//3
f  55//3 54//3 61//3
f  63//2 62//2 43//2
f  63//3 57//3 62//3
f  64//3 69//3 57//3
f  64//1 50//1 62//1
f  65//10 53//10 58//10
f  65//5 58//5 52//5
f  67//3 66//3 60//3
f  66//3 61//3 54//3
f  68//3 67//3 48//3
f  68//2 61//2 70//2
f  71//3 62//3 57//3
f  71//3 57//3 69//3
f  72//3 69//3 64//3
f  62//3 72//3 64//3
f  66//4 67//4 73//4
f  66//6 73//6 61//6
f  68//1 70//1 67//1
f  74//2 70//2 61//2
f  75//3 62//3 71//3
f  71//6 69//6 81//6
f  69//4 72//4 82//4
f  72//3 62//3 75//3
f  76//4 73//4 67//4
f  74//6 61//6 73//6
f  76//1 67//1 70//1
f  74//3 73//3 70//3
f  75//2 71//2 83//2
f  82//6 81//6 69//6
f  84//6 71//6 81//6
f  85//4 82//4 72//4
f  75//1 86//1 72//1
f  76//3 77//3 73//3
f  70//3 78//3 76//3
f  79//3 70//3 73//3
f  87//2 83//2 71//2
f  83//1 88//1 75//1
f  81//6 82//6 89//6
f  90//6 71//6 84//6
f  84//3 81//3 88//3
f  85//3 83//3 82//3
f  72//1 91//1 85//1
f  91//1 72//1 86//1
f  88//1 86//1 75//1
f  79//3 73//3 77//3
f  78//3 77//3 76//3
f  78//3 70//3 80//3
f  80//3 70//3 79//3
f  87//3 82//3 83//3
f  71//6 90//6 87//6
f  88//1 83//1 92//1
f  87//6 89//6 82//6
f  89//2 91//2 81//2
f  84//4 88//4 90//4
f  86//3 88//3 81//3
f  83//1 85//1 91//1
f  86//2 81//2 91//2
f  79//6 77//6 93//6
f  77//4 78//4 94//4
f  80//1 95//1 78//1
f  80//2 79//2 96//2
f  90//6 89//6 87//6
f  92//1 83//1 91//1
f  92//4 90//4 88//4
f  89//5 90//5 91//5
f  94//6 93//6 77//6
f  97//6 79//6 93//6
f  98//4 94//4 78//4
f  99//1 78//1 95//1
f  100//1 95//1 80//1
f  101//2 96//2 79//2
f  96//1 100//1 80//1
f  92//5 91//5 90//5
f  93//6 94//6 102//6
f  103//6 79//6 97//6
f  97//3 93//3 100//3
f  98//3 96//3 94//3
f  78//1 99//1 98//1
f  95//2 93//2 99//2
f  95//3 100//3 93//3
f  101//3 94//3 96//3
f  79//6 103//6 101//6
f  100//1 96//1 104//1
f  101//6 102//6 94//6
f  102//2 99//2 93//2
f  97//4 100//4 103//4
f  96//1 98//1 99//1
f  103//6 102//6 101//6
f  104//1 96//1 99//1
f  104//4 103//4 100//4
f  102//5 103//5 99//5
f  104//5 99//5 103//5

# Mesh 'mesh1_mesh1-geometry' with 60 faces
g mesh1_mesh1-geometry
usemtl material_2_24
f  81//1 69//1 71//1
f  82//2 72//2 69//2
f  83//4 71//4 75//4
f  69//1 81//1 82//1
f  81//1 71//1 84//1
f  72//2 82//2 85//2
f  72//6 86//6 75//6
f  71//4 83//4 87//4
f  75//6 88//6 83//6
f  89//1 82//1 81//1
f  84//1 71//1 90//1
f  88//5 81//5 84//5
f  82//5 83//5 85//5
f  85//6 91//6 72//6
f  86//6 72//6 91//6
f  75//6 86//6 88//6
f  83//5 82//5 87//5
f  87//1 90//1 71//1
f  92//6 83//6 88//6
f  82//1 89//1 87//1
f  81//4 91//4 89//4
f  90//2 88//2 84//2
f  81//5 88//5 86//5
f  91//6 85//6 83//6
f  91//4 81//4 86//4
f  93//1 77//1 79//1
f  94//2 78//2 77//2
f  78//6 95//6 80//6
f  96//4 79//4 80//4
f  87//1 89//1 90//1
f  91//6 83//6 92//6
f  88//2 90//2 92//2
f  91//3 90//3 89//3
f  77//1 93//1 94//1
f  93//1 79//1 97//1
f  78//2 94//2 98//2
f  95//6 78//6 99//6
f  80//6 95//6 100//6
f  79//4 96//4 101//4
f  80//6 100//6 96//6
f  90//3 91//3 92//3
f  102//1 94//1 93//1
f  97//1 79//1 103//1
f  100//5 93//5 97//5
f  94//5 96//5 98//5
f  98//6 99//6 78//6
f  99//4 93//4 95//4
f  93//5 100//5 95//5
f  96//5 94//5 101//5
f  101//1 103//1 79//1
f  104//6 96//6 100//6
f  94//1 102//1 101//1
f  93//4 99//4 102//4
f  103//2 100//2 97//2
f  99//6 98//6 96//6
f  101//1 102//1 103//1
f  99//6 96//6 104//6
f  100//2 103//2 104//2
f  99//3 103//3 102//3
f  103//3 99//3 104//3

