# File produced by Open Asset Import Library (http://www.assimp.sf.net)
# (assimp v3.2.202087883)

mtllib model_normalized.mtl

# 10 vertex positions
v 0.431453 -0.161917 -0.213251
v -0.431453 -0.161917 0.193933
v -0.431453 -0.161917 -0.213251
v 0.431453 -0.161917 0.193933
v -0.431453 0.137405 0.038636
v -0.431453 0.049023 -0.213251
v 0.431453 0.137405 0.193933
v -0.431453 0.137405 0.193933
v 0.431453 0.049023 -0.213251
v 0.431453 0.137405 0.038636

# 8 UV coordinates
vt 0 1 0
vt 1 0 0
vt 1 1 0
vt 0 0 0
vt 0.618609 1 0
vt 0 0.704731 0
vt 0.381391 1 0
vt 1 0.704731 0

# 8 vertex normals
vn 0 -0.0254 0
vn 0 0.0254 0
vn 0.0254 0 0
vn 0 0 -0.0254
vn -0 -0 0.0254
vn -0.0254 -0 0
vn -0 -0.0239675 0.00840951
vn 0 0.0239675 -0.00840951

# Mesh 'mesh1_mesh1-geometry' with 2 faces
g mesh1_mesh1-geometry
usemtl material_0_1_8
f  1/1/1 2/2/1 3/3/1
f  2/2/1 1/1/1 4/4/1

# Mesh 'mesh1_mesh1-geometry' with 18 faces
g mesh1_mesh1-geometry
usemtl material_1_24
f  3/4/2 2/4/2 1/4/2
f  4/4/2 1/4/2 2/4/2
f  3/4/3 5/4/3 2/4/3
f  6/4/4 1/4/4 3/4/4
f  3/4/5 1/4/5 6/4/5
f  4/4/6 7/4/6 1/4/6
f  4/4/4 2/4/4 7/4/4
f  8/4/3 2/4/3 5/4/3
f  6/4/3 5/4/3 3/4/3
f  1/4/4 6/4/4 9/4/4
f  9/4/5 6/4/5 1/4/5
f  10/4/6 1/4/6 7/4/6
f  8/4/4 7/4/4 2/4/4
f  8/4/1 5/4/1 7/4/1
f  5/4/7 6/4/7 10/4/7
f  9/4/7 10/4/7 6/4/7
f  9/4/6 1/4/6 10/4/6
f  10/4/1 7/4/1 5/4/1

# Mesh 'mesh1_mesh1-geometry' with 3 faces
g mesh1_mesh1-geometry
usemtl material_0_5_8
f  2/2/6 5/5/6 3/4/6
f  5/5/6 2/2/6 8/3/6
f  3/4/6 5/5/6 6/6/6

# Mesh 'mesh1_mesh1-geometry' with 3 faces
g mesh1_mesh1-geometry
usemtl material_0_3_8
f  1/2/3 7/1/3 4/4/3
f  7/1/3 1/2/3 10/7/3
f  10/7/3 1/2/3 9/8/3

# Mesh 'mesh1_mesh1-geometry' with 2 faces
g mesh1_mesh1-geometry
usemtl material_0_4_8
f  7/3/5 2/4/5 4/2/5
f  2/4/5 7/3/5 8/1/5

# Mesh 'mesh1_mesh1-geometry' with 2 faces
g mesh1_mesh1-geometry
usemtl material_0_2_8
f  7/2/2 5/1/2 8/4/2
f  5/1/2 7/2/2 10/3/2

# Mesh 'mesh1_mesh1-geometry' with 2 faces
g mesh1_mesh1-geometry
usemtl material_0_6_8
f  10/1/8 6/2/8 5/3/8
f  6/2/8 10/1/8 9/4/8

