# File produced by Open Asset Import Library (http://www.assimp.sf.net)
# (assimp v3.2.202087883)

mtllib model_normalized.mtl

# 92 vertex positions
v -0.334354 0.279969 -0.167566
v 0.334354 0.279969 -0.119801
v 0.334354 0.279969 -0.167566
v -0.334354 0.279969 -0.119801
v 0.334354 -0.149914 -0.167566
v 0.316442 0.262057 -0.167566
v -0.334354 -0.149914 -0.119801
v 0.284130 0.247683 -0.060095
v 0.334354 -0.149914 -0.119801
v 0.316442 -0.132002 -0.167566
v -0.316442 0.262057 -0.167566
v -0.334354 -0.149914 -0.167566
v -0.284130 -0.117628 -0.060095
v -0.284130 0.247683 -0.060095
v -0.316442 -0.132002 -0.167566
v 0.316442 -0.132002 -0.161596
v -0.316442 0.262057 -0.161596
v 0.284130 -0.117628 -0.060095
v -0.000000 0.124734 -0.060095
v 0.316442 0.262057 -0.161596
v -0.042218 0.022810 -0.060095
v 0.029853 0.013321 -0.060095
v 0.015453 0.122699 -0.060095
v -0.015453 0.122699 -0.060095
v 0.042218 0.022810 -0.060095
v -0.316442 -0.132002 -0.161596
v -0.029853 0.013321 -0.060095
v -0.049967 0.032906 -0.060095
v 0.015453 0.007356 -0.060095
v 0.029853 0.116734 -0.060095
v 0.015453 0.122699 0.202611
v -0.029853 0.116734 -0.060095
v -0.000000 0.124734 0.202611
v 0.049967 0.032906 -0.060095
v -0.015453 0.007356 -0.060095
v -0.029853 0.013321 0.023493
v -0.042218 0.022810 0.023493
v -0.051707 0.035175 -0.060095
v 0.029853 0.013321 0.023493
v -0.000000 0.005322 -0.060095
v 0.042218 0.107246 -0.060095
v 0.029853 0.116734 0.202611
v -0.042218 0.107246 -0.060095
v -0.015453 0.122699 0.202611
v 0.051707 0.035175 -0.060095
v 0.049967 0.032906 0.023493
v -0.015453 0.007356 0.023493
v -0.049967 0.032906 0.023493
v -0.057671 0.049575 -0.060095
v 0.042218 0.022810 0.023493
v 0.015453 0.007356 0.023493
v 0.049967 0.097149 -0.060095
v 0.042218 0.107246 0.202611
v -0.049967 0.097149 -0.060095
v -0.029853 0.116734 0.202611
v 0.057671 0.049575 -0.060095
v 0.051707 0.035175 0.023493
v -0.000000 0.005322 0.023493
v 0.059706 -0.364856 0.023493
v -0.051707 0.035175 0.023493
v -0.059706 0.065028 -0.060095
v 0.051707 0.094881 -0.060095
v -0.042218 0.107246 0.202611
v -0.051707 0.094881 -0.060095
v -0.049967 0.097149 0.202611
v 0.059706 0.065028 -0.060095
v 0.057671 0.049575 0.023493
v -0.057671 0.049575 0.023493
v -0.057671 0.080481 -0.060095
v 0.057671 0.080481 -0.060095
v 0.049967 0.097149 0.202611
v -0.051707 0.094881 0.202611
v 0.059706 0.065028 0.023493
v -0.059706 0.065028 0.023493
v 0.051707 0.094881 0.202611
v -0.057671 0.080481 0.202611
v 0.057671 0.080481 0.202611
v -0.059706 -0.364856 0.023493
v 0.059706 0.065028 0.202611
v -0.059706 -0.364856 0.202611
v -0.059706 0.065028 0.202611
v 0.059706 -0.364856 0.202611
v -0.059706 -0.358885 0.202611
v 0.059706 -0.358885 0.202611
v -0.238824 -0.364856 0.202611
v -0.238824 -0.358885 -0.167566
v 0.238824 -0.364856 -0.167566
v -0.238824 -0.364856 -0.167566
v 0.238824 -0.358885 0.202611
v -0.238824 -0.358885 0.202611
v 0.238824 -0.358885 -0.167566
v 0.238824 -0.364856 0.202611

# 5 UV coordinates
vt 0 0 0
vt 0.024606 0.024606 0
vt 0.894029 0.565945 0
vt 0.024606 0.565945 0
vt 0.894029 0.024606 0

# 42 vertex normals
vn 0 0.01 0
vn 0.01 0 0
vn 0 0 -0.01
vn -0.01 0 0
vn 0 0.00879627 0.00475665
vn -0.00765261 0 0.00643721
vn 0.00765261 0 0.00643721
vn 0 -0.01 0
vn 0 -0.00879627 0.00475665
vn 0 0 0.01
vn 0.00258819 0.00965926 0
vn -0.00258819 -0.00965926 0
vn -0.00258819 0.00965926 0
vn 0.00258819 -0.00965926 -0
vn -0.005 -0.00866025 0
vn -0.00707107 -0.00707107 0
vn 0.005 0.00866025 0
vn 0.00707107 0.00707107 0
vn -0.00793353 -0.00608761 0
vn 0.00793353 0.00608761 0
vn 0.00707107 -0.00707107 -0
vn 0.005 -0.00866025 0
vn -0.005 0.00866025 0
vn -0.00707107 0.00707107 0
vn 0.00793353 -0.00608761 -0
vn -0.00793353 0.00608761 0
vn -0.00866025 -0.005 0
vn 0.00866025 0.005 0
vn 0.00866025 -0.005 -0
vn -0.00866025 0.005 0
vn -0.00965926 -0.00258819 0
vn 0.00965926 0.00258819 0
vn 0.00965926 -0.00258819 -0
vn -0.00965926 0.00258819 0
vn 0.00997859 0.00065403 0
vn -0.00997859 -0.00065403 0
vn -0.00997859 0.00065403 0
vn 0.00997859 -0.00065403 0
vn 0 -0.00879627 -0.00475665
vn 0.00765261 -0 -0.00643721
vn -0.00765261 0 -0.00643721
vn 0 0.00879627 -0.00475665

# Mesh 'mesh1_mesh1-geometry' with 257 faces
g mesh1_mesh1-geometry
usemtl material_0_24
f  1/1/1 2/1/1 3/1/1
f  2/1/1 1/1/1 4/1/1
f  2/1/2 5/1/2 3/1/2
f  3/1/3 6/1/3 1/1/3
f  1/1/4 7/1/4 4/1/4
f  4/1/5 8/1/5 2/1/5
f  5/1/2 2/1/2 9/1/2
f  5/1/3 10/1/3 3/1/3
f  3/1/3 10/1/3 6/1/3
f  11/1/3 1/1/3 6/1/3
f  7/1/4 1/1/4 12/1/4
f  13/1/6 4/1/6 7/1/6
f  8/1/5 4/1/5 14/1/5
f  8/1/7 9/1/7 2/1/7
f  7/1/8 5/1/8 9/1/8
f  10/1/3 5/1/3 15/1/3
f  16/1/4 6/1/4 10/1/4
f  15/1/3 1/1/3 11/1/3
f  6/1/8 17/1/8 11/1/8
f  15/1/3 12/1/3 1/1/3
f  5/1/8 7/1/8 12/1/8
f  4/1/6 13/1/6 14/1/6
f  7/1/9 18/1/9 13/1/9
f  19/1/10 8/1/10 14/1/10
f  9/1/7 8/1/7 18/1/7
f  18/1/9 7/1/9 9/1/9
f  12/1/3 15/1/3 5/1/3
f  15/1/1 16/1/1 10/1/1
f  6/1/4 16/1/4 20/1/4
f  17/1/2 15/1/2 11/1/2
f  17/1/8 6/1/8 20/1/8
f  13/1/10 21/1/10 14/1/10
f  18/1/10 22/1/10 13/1/10
f  23/1/10 8/1/10 19/1/10
f  14/1/10 24/1/10 19/1/10
f  25/1/10 18/1/10 8/1/10
f  16/1/1 15/1/1 26/1/1
f  15/1/2 17/1/2 26/1/2
f  21/1/10 13/1/10 27/1/10
f  14/1/10 21/1/10 28/1/10
f  22/1/10 18/1/10 25/1/10
f  13/1/10 22/1/10 29/1/10
f  30/1/10 8/1/10 23/1/10
f  19/1/1 31/1/11 23/1/11
f  23/1/12 31/1/12 19/1/8
f  14/1/10 32/1/10 24/1/10
f  24/1/13 33/1/1 19/1/1
f  19/1/8 33/1/8 24/1/14
f  25/1/10 8/1/10 34/1/10
f  27/1/10 13/1/10 35/1/10
f  36/1/15 21/1/16 27/1/15
f  27/1/17 21/1/18 36/1/17
f  37/1/16 28/1/19 21/1/16
f  21/1/18 28/1/20 37/1/18
f  14/1/10 28/1/10 38/1/10
f  25/1/21 39/1/22 22/1/22
f  22/1/23 39/1/23 25/1/24
f  39/1/22 29/1/14 22/1/22
f  22/1/23 29/1/13 39/1/23
f  13/1/10 29/1/10 40/1/10
f  41/1/10 8/1/10 30/1/10
f  23/1/11 42/1/17 30/1/17
f  30/1/15 42/1/15 23/1/12
f  31/1/11 19/1/1 33/1/1
f  33/1/8 19/1/8 31/1/12
f  42/1/17 23/1/11 31/1/11
f  31/1/12 23/1/12 42/1/15
f  14/1/10 43/1/10 32/1/10
f  32/1/23 44/1/13 24/1/13
f  24/1/14 44/1/14 32/1/22
f  33/1/1 24/1/13 44/1/13
f  44/1/14 24/1/14 33/1/8
f  34/1/10 8/1/10 45/1/10
f  46/1/25 25/1/21 34/1/25
f  34/1/26 25/1/24 46/1/26
f  35/1/10 13/1/10 40/1/10
f  47/1/12 27/1/15 35/1/12
f  35/1/11 27/1/17 47/1/11
f  21/1/16 36/1/15 37/1/16
f  37/1/18 36/1/17 21/1/18
f  27/1/15 47/1/12 36/1/15
f  36/1/17 47/1/11 27/1/17
f  28/1/19 37/1/16 48/1/19
f  48/1/20 37/1/18 28/1/20
f  48/1/19 38/1/27 28/1/19
f  28/1/20 38/1/28 48/1/20
f  14/1/10 38/1/10 49/1/10
f  39/1/22 25/1/21 50/1/21
f  50/1/24 25/1/24 39/1/23
f  29/1/14 39/1/22 51/1/14
f  51/1/13 39/1/23 29/1/13
f  51/1/14 40/1/8 29/1/14
f  29/1/13 40/1/1 51/1/13
f  52/1/10 8/1/10 41/1/10
f  30/1/17 53/1/18 41/1/18
f  41/1/16 53/1/16 30/1/15
f  53/1/18 30/1/17 42/1/17
f  42/1/15 30/1/15 53/1/16
f  44/1/10 31/1/10 33/1/10
f  33/1/3 31/1/3 44/1/3
f  44/1/10 42/1/10 31/1/10
f  31/1/3 42/1/3 44/1/3
f  14/1/10 54/1/10 43/1/10
f  43/1/24 55/1/23 32/1/23
f  32/1/22 55/1/22 43/1/21
f  44/1/13 32/1/23 55/1/23
f  55/1/22 32/1/22 44/1/14
f  45/1/10 8/1/10 56/1/10
f  57/1/29 34/1/25 45/1/29
f  45/1/30 34/1/26 57/1/30
f  25/1/21 46/1/25 50/1/21
f  50/1/24 46/1/26 25/1/24
f  34/1/25 57/1/29 46/1/25
f  46/1/26 57/1/30 34/1/26
f  58/1/8 35/1/12 40/1/8
f  40/1/1 35/1/11 58/1/1
f  35/1/12 58/1/8 47/1/12
f  47/1/11 58/1/1 35/1/11
f  59/1/3 37/1/3 36/1/3
f  59/1/3 36/1/3 47/1/3
f  37/1/3 60/1/3 48/1/3
f  38/1/27 48/1/19 60/1/27
f  60/1/28 48/1/20 38/1/28
f  60/1/27 49/1/31 38/1/27
f  38/1/28 49/1/32 60/1/28
f  14/1/10 49/1/10 61/1/10
f  50/1/3 59/1/3 39/1/3
f  39/1/3 59/1/3 51/1/3
f  40/1/8 51/1/14 58/1/8
f  58/1/1 51/1/13 40/1/1
f  62/1/10 8/1/10 52/1/10
f  53/1/18 52/1/20 41/1/18
f  41/1/16 52/1/19 53/1/16
f  63/1/10 53/1/10 42/1/10
f  42/1/3 53/1/3 63/1/3
f  55/1/10 42/1/10 44/1/10
f  44/1/3 42/1/3 55/1/3
f  14/1/10 64/1/10 54/1/10
f  65/1/26 43/1/24 54/1/26
f  54/1/25 43/1/21 65/1/25
f  55/1/23 43/1/24 63/1/24
f  63/1/21 43/1/21 55/1/22
f  56/1/10 8/1/10 66/1/10
f  67/1/33 45/1/29 56/1/33
f  56/1/34 45/1/30 67/1/34
f  45/1/29 67/1/33 57/1/29
f  57/1/30 67/1/34 45/1/30
f  57/1/3 50/1/3 46/1/3
f  59/1/3 47/1/3 58/1/3
f  59/1/3 60/1/3 37/1/3
f  49/1/31 60/1/27 68/1/31
f  68/1/32 60/1/28 49/1/32
f  68/1/31 61/1/4 49/1/31
f  49/1/32 61/1/2 68/1/32
f  14/1/10 61/1/10 69/1/10
f  57/1/3 59/1/3 50/1/3
f  51/1/3 59/1/3 58/1/3
f  70/1/10 8/1/10 62/1/10
f  71/1/20 62/1/28 52/1/20
f  52/1/19 62/1/27 71/1/19
f  52/1/20 53/1/18 71/1/20
f  71/1/19 53/1/16 52/1/19
f  63/1/10 71/1/10 53/1/10
f  53/1/3 71/1/3 63/1/3
f  63/1/10 42/1/10 55/1/10
f  55/1/3 42/1/3 63/1/3
f  14/1/10 69/1/10 64/1/10
f  72/1/30 54/1/26 64/1/30
f  64/1/29 54/1/25 72/1/29
f  43/1/24 65/1/26 63/1/24
f  63/1/21 65/1/25 43/1/21
f  54/1/26 72/1/30 65/1/26
f  65/1/25 72/1/29 54/1/25
f  66/1/10 8/1/10 70/1/10
f  73/1/2 56/1/33 66/1/2
f  66/1/4 56/1/34 73/1/4
f  56/1/33 73/1/2 67/1/33
f  67/1/34 73/1/4 56/1/34
f  67/1/3 59/1/3 57/1/3
f  59/1/3 68/1/3 60/1/3
f  61/1/4 68/1/31 74/1/4
f  74/1/2 68/1/32 61/1/2
f  74/1/4 69/1/34 61/1/4
f  61/1/2 69/1/33 74/1/2
f  75/1/28 70/1/32 62/1/28
f  62/1/27 70/1/31 75/1/27
f  62/1/28 71/1/20 75/1/28
f  75/1/27 71/1/19 62/1/27
f  65/1/10 71/1/10 63/1/10
f  63/1/3 71/1/3 65/1/3
f  76/1/34 64/1/30 69/1/34
f  69/1/33 64/1/29 76/1/33
f  64/1/30 76/1/34 72/1/30
f  72/1/29 76/1/33 64/1/29
f  72/1/10 75/1/10 65/1/10
f  65/1/3 75/1/3 72/1/3
f  77/1/32 66/1/2 70/1/32
f  70/1/31 66/1/4 77/1/31
f  66/1/2 77/1/32 73/1/2
f  73/1/4 77/1/31 66/1/4
f  59/1/3 67/1/3 73/1/3
f  78/1/3 68/1/3 59/1/3
f  68/1/3 78/1/3 74/1/3
f  69/1/34 74/1/4 76/1/34
f  76/1/33 74/1/2 69/1/33
f  70/1/32 75/1/28 77/1/32
f  77/1/31 75/1/27 70/1/31
f  65/1/10 75/1/10 71/1/10
f  71/1/3 75/1/3 65/1/3
f  76/1/10 77/1/10 72/1/10
f  72/1/3 77/1/3 76/1/3
f  72/1/10 77/1/10 75/1/10
f  75/1/3 77/1/3 72/1/3
f  73/1/2 77/1/32 79/1/35
f  79/1/36 77/1/31 73/1/4
f  79/1/35 59/1/2 73/1/2
f  73/1/4 59/1/4 79/1/36
f  59/1/8 80/1/8 78/1/8
f  80/1/4 74/1/4 78/1/4
f  78/1/2 74/1/2 80/1/2
f  76/1/34 74/1/4 81/1/37
f  81/1/38 74/1/2 76/1/33
f  81/1/10 77/1/10 76/1/10
f  76/1/3 77/1/3 81/1/3
f  81/1/10 79/1/10 77/1/10
f  77/1/3 79/1/3 81/1/3
f  59/1/2 79/1/35 82/1/2
f  82/1/4 79/1/36 59/1/4
f  80/1/8 59/1/8 82/1/8
f  74/1/4 80/1/4 81/1/37
f  81/1/38 80/1/2 74/1/2
f  83/1/10 79/1/10 81/1/10
f  81/1/3 79/1/3 83/1/3
f  82/1/2 79/1/35 84/1/2
f  84/1/4 79/1/36 82/1/4
f  84/1/10 80/1/10 82/1/10
f  82/1/3 80/1/3 84/1/3
f  83/1/10 85/1/10 80/1/10
f  86/1/3 87/1/3 88/1/3
f  85/1/4 86/1/4 88/1/4
f  81/1/37 80/1/4 83/1/4
f  83/1/2 80/1/2 81/1/38
f  79/1/10 83/1/10 84/1/10
f  84/1/3 83/1/3 79/1/3
f  82/1/10 89/1/10 84/1/10
f  80/1/10 84/1/10 83/1/10
f  83/1/3 84/1/3 80/1/3
f  85/1/10 83/1/10 90/1/10
f  87/1/3 86/1/3 91/1/3
f  86/1/4 85/1/4 90/1/4
f  84/1/1 86/1/1 83/1/1
f  89/1/10 82/1/10 92/1/10
f  89/1/1 86/1/1 84/1/1
f  87/1/2 89/1/2 92/1/2
f  83/1/1 86/1/1 90/1/1
f  86/1/1 89/1/1 91/1/1
f  89/1/2 87/1/2 91/1/2

# Mesh 'mesh1_mesh1-geometry' with 163 faces
g mesh1_mesh1-geometry
usemtl material_1_24
f  3/1/8 2/1/8 1/1/8
f  4/1/8 1/1/8 2/1/8
f  3/1/4 5/1/4 2/1/4
f  1/1/10 6/1/10 3/1/10
f  4/1/2 7/1/2 1/1/2
f  2/1/39 8/1/39 4/1/39
f  7/1/10 2/1/10 4/1/10
f  4/1/3 2/1/3 7/1/3
f  9/1/4 2/1/4 5/1/4
f  3/1/10 10/1/10 5/1/10
f  6/1/10 10/1/10 3/1/10
f  6/1/10 1/1/10 11/1/10
f  12/1/2 1/1/2 7/1/2
f  7/1/40 4/1/40 13/1/40
f  14/1/39 4/1/39 8/1/39
f  2/1/41 9/1/41 8/1/41
f  2/1/10 7/1/10 9/1/10
f  9/1/3 7/1/3 2/1/3
f  9/1/1 5/1/1 7/1/1
f  15/1/10 5/1/10 10/1/10
f  10/1/2 6/1/2 16/1/2
f  11/1/10 1/1/10 15/1/10
f  11/1/1 17/1/1 6/1/1
f  1/1/10 12/1/10 15/1/10
f  12/1/1 7/1/1 5/1/1
f  14/1/40 13/1/40 4/1/40
f  13/1/42 18/1/42 7/1/42
f  14/1/3 8/1/3 19/1/3
f  18/1/41 8/1/41 9/1/41
f  9/1/42 7/1/42 18/1/42
f  5/1/10 15/1/10 12/1/10
f  10/1/8 16/1/8 15/1/8
f  20/1/2 16/1/2 6/1/2
f  11/1/4 15/1/4 17/1/4
f  20/1/1 6/1/1 17/1/1
f  14/1/3 21/1/3 13/1/3
f  13/1/3 22/1/3 18/1/3
f  19/1/3 8/1/3 23/1/3
f  19/1/3 24/1/3 14/1/3
f  8/1/3 18/1/3 25/1/3
f  26/1/8 15/1/8 16/1/8
f  26/1/4 17/1/4 15/1/4
f  27/1/3 13/1/3 21/1/3
f  28/1/3 21/1/3 14/1/3
f  25/1/3 18/1/3 22/1/3
f  29/1/3 22/1/3 13/1/3
f  23/1/3 8/1/3 30/1/3
f  24/1/10 23/1/10 19/1/10
f  19/1/3 23/1/3 24/1/3
f  24/1/3 32/1/3 14/1/3
f  34/1/3 8/1/3 25/1/3
f  35/1/3 13/1/3 27/1/3
f  27/1/10 22/1/10 21/1/10
f  21/1/3 22/1/3 27/1/3
f  21/1/10 25/1/10 28/1/10
f  28/1/3 25/1/3 21/1/3
f  38/1/3 28/1/3 14/1/3
f  21/1/10 22/1/10 25/1/10
f  25/1/3 22/1/3 21/1/3
f  27/1/10 29/1/10 22/1/10
f  22/1/3 29/1/3 27/1/3
f  40/1/3 29/1/3 13/1/3
f  30/1/3 8/1/3 41/1/3
f  24/1/10 30/1/10 23/1/10
f  23/1/3 30/1/3 24/1/3
f  32/1/3 43/1/3 14/1/3
f  32/1/10 30/1/10 24/1/10
f  24/1/3 30/1/3 32/1/3
f  45/1/3 8/1/3 34/1/3
f  28/1/10 25/1/10 34/1/10
f  34/1/3 25/1/3 28/1/3
f  40/1/3 13/1/3 35/1/3
f  35/1/10 29/1/10 27/1/10
f  27/1/3 29/1/3 35/1/3
f  28/1/10 45/1/10 38/1/10
f  38/1/3 45/1/3 28/1/3
f  49/1/3 38/1/3 14/1/3
f  29/1/10 35/1/10 40/1/10
f  40/1/3 35/1/3 29/1/3
f  41/1/3 8/1/3 52/1/3
f  43/1/10 41/1/10 30/1/10
f  30/1/3 41/1/3 43/1/3
f  43/1/3 54/1/3 14/1/3
f  43/1/10 30/1/10 32/1/10
f  32/1/3 30/1/3 43/1/3
f  56/1/3 8/1/3 45/1/3
f  28/1/10 34/1/10 45/1/10
f  45/1/3 34/1/3 28/1/3
f  36/1/10 37/1/10 59/1/10
f  47/1/10 36/1/10 59/1/10
f  48/1/10 60/1/10 37/1/10
f  38/1/10 45/1/10 49/1/10
f  49/1/3 45/1/3 38/1/3
f  61/1/3 49/1/3 14/1/3
f  39/1/10 59/1/10 50/1/10
f  51/1/10 59/1/10 39/1/10
f  52/1/3 8/1/3 62/1/3
f  43/1/10 52/1/10 41/1/10
f  41/1/3 52/1/3 43/1/3
f  54/1/3 64/1/3 14/1/3
f  54/1/10 52/1/10 43/1/10
f  43/1/3 52/1/3 54/1/3
f  66/1/3 8/1/3 56/1/3
f  49/1/10 45/1/10 56/1/10
f  56/1/3 45/1/3 49/1/3
f  46/1/10 50/1/10 57/1/10
f  58/1/10 47/1/10 59/1/10
f  37/1/10 60/1/10 59/1/10
f  49/1/10 56/1/10 61/1/10
f  61/1/3 56/1/3 49/1/3
f  69/1/3 61/1/3 14/1/3
f  50/1/10 59/1/10 57/1/10
f  58/1/10 59/1/10 51/1/10
f  62/1/3 8/1/3 70/1/3
f  54/1/10 62/1/10 52/1/10
f  52/1/3 62/1/3 54/1/3
f  64/1/3 69/1/3 14/1/3
f  64/1/10 62/1/10 54/1/10
f  54/1/3 62/1/3 64/1/3
f  70/1/3 8/1/3 66/1/3
f  61/1/10 56/1/10 66/1/10
f  66/1/3 56/1/3 61/1/3
f  57/1/10 59/1/10 67/1/10
f  60/1/10 68/1/10 59/1/10
f  61/1/10 70/1/10 69/1/10
f  69/1/3 70/1/3 61/1/3
f  64/1/10 70/1/10 62/1/10
f  62/1/3 70/1/3 64/1/3
f  69/1/10 70/1/10 64/1/10
f  64/1/3 70/1/3 69/1/3
f  61/1/10 66/1/10 70/1/10
f  70/1/3 66/1/3 61/1/3
f  73/1/10 67/1/10 59/1/10
f  59/1/10 68/1/10 78/1/10
f  74/1/10 78/1/10 68/1/10
f  78/1/1 80/1/1 59/1/1
f  88/1/8 59/1/8 78/1/8
f  78/1/1 59/1/1 88/1/1
f  82/1/1 59/1/1 80/1/1
f  85/1/8 78/1/8 80/1/8
f  80/1/1 78/1/1 85/1/1
f  87/1/8 59/1/8 88/1/8
f  88/1/1 59/1/1 87/1/1
f  88/1/8 78/1/8 85/1/8
f  85/1/1 78/1/1 88/1/1
f  87/1/8 82/1/8 59/1/8
f  59/1/1 82/1/1 87/1/1
f  80/1/3 85/1/3 83/1/3
f  88/1/10 87/1/10 86/1/10
f  88/1/2 86/1/2 85/1/2
f  84/1/3 89/1/3 82/1/3
f  82/1/8 87/1/8 92/1/8
f  92/1/1 87/1/1 82/1/1
f  90/1/3 83/1/3 85/1/3
f  91/1/10 86/1/10 87/1/10
f  90/1/2 85/1/2 86/1/2
f  83/1/8 86/1/8 84/1/8
f  92/1/3 82/1/3 89/1/3
f  84/1/8 86/1/8 89/1/8
f  92/1/4 89/1/4 87/1/4
f  90/1/8 86/1/8 83/1/8
f  91/1/8 89/1/8 86/1/8
f  91/1/4 87/1/4 89/1/4

# Mesh 'mesh1_mesh1-geometry' with 4 faces
g mesh1_mesh1-geometry
usemtl material_2_1_8
f  16/2/3 17/3/3 20/4/3
f  20/4/10 17/3/10 16/2/10
f  17/3/3 16/2/3 26/5/3
f  26/5/10 16/2/10 17/3/10

# Mesh 'mesh2_mesh2-geometry' with 5 faces
g mesh2_mesh2-geometry
usemtl material_1_0
l  92 87
l  82 92
l  87 88
l  85 88
l  80 85

