# File produced by Open Asset Import Library (http://www.assimp.sf.net)
# (assimp v3.2.202087883)

mtllib model_normalized.mtl

# 37 vertex positions
v -0.377215 -0.171147 -0.122174
v 0.479187 -0.171147 0.292469
v -0.377215 -0.171147 0.292469
v 0.479187 -0.171147 -0.122174
v 0.479187 0.136500 0.292469
v -0.377215 0.136500 0.292469
v 0.479187 0.136500 -0.122174
v -0.377215 0.136500 -0.122174
v -0.205631 0.136500 0.238671
v 0.376606 0.136500 0.238671
v -0.355843 -0.141298 0.010031
v 0.398300 -0.141298 -0.122174
v -0.355843 -0.141298 -0.122174
v 0.376606 0.136500 -0.122174
v -0.205631 0.136500 -0.122174
v 0.398300 -0.076713 0.010031
v 0.398300 -0.076713 -0.122174
v -0.355843 -0.076713 -0.122174
v 0.398300 -0.141298 0.010031
v 0.322319 0.136500 0.238671
v -0.355843 -0.076713 0.010031
v -0.235801 0.105977 0.010031
v -0.350513 0.105977 -0.122174
v -0.235801 0.105977 -0.122174
v -0.350513 -0.051594 0.010031
v -0.350513 -0.051594 -0.122174
v -0.235801 -0.051594 -0.122174
v -0.350513 0.105977 0.010031
v -0.235801 -0.051594 0.010031
v 0.322319 0.136500 -0.122174
v -0.205631 0.014563 0.238671
v 0.376606 -0.049362 -0.122174
v 0.322319 0.014563 0.238671
v 0.322319 0.014563 -0.122174
v -0.205631 0.014563 -0.122174
v 0.376606 0.014563 -0.122174
v -0.205631 -0.049362 -0.122174

# 0 UV coordinates

# 6 vertex normals
vn 0 -0.0254 0
vn 0 -0 0.0254
vn -0.0254 0 0
vn 0.0254 0 0
vn 0 0.0254 0
vn 0 0 -0.0254

# Mesh 'mesh1_mesh1-geometry' with 31 faces
g mesh1_mesh1-geometry
usemtl material_0_24
f  1//1 2//1 3//1
f  2//1 1//1 4//1
f  2//2 5//2 3//2
f  6//3 1//3 3//3
f  7//4 2//4 4//4
f  6//2 3//2 5//2
f  2//4 7//4 5//4
f  1//3 6//3 8//3
f  5//5 9//5 6//5
f  7//5 10//5 5//5
f  8//5 6//5 9//5
f  11//5 12//5 13//5
f  9//5 5//5 10//5
f  14//5 10//5 7//5
f  15//5 8//5 9//5
f  12//3 16//3 17//3
f  18//4 11//4 13//4
f  12//5 11//5 19//5
f  20//5 9//5 10//5
f  16//3 12//3 19//3
f  16//1 18//1 17//1
f  11//4 18//4 21//4
f  22//1 23//1 24//1
f  23//4 25//4 26//4
f  18//1 16//1 21//1
f  27//3 22//3 24//3
f  23//1 22//1 28//1
f  25//5 27//5 26//5
f  25//4 23//4 28//4
f  22//3 27//3 29//3
f  27//5 25//5 29//5

# Mesh 'mesh1_mesh1-geometry' with 70 faces
g mesh1_mesh1-geometry
usemtl material_1_24
f  3//5 2//5 1//5
f  4//5 1//5 2//5
f  3//6 5//6 2//6
f  3//4 1//4 6//4
f  1//2 4//2 12//2
f  4//3 2//3 7//3
f  5//6 3//6 6//6
f  5//3 7//3 2//3
f  8//4 6//4 1//4
f  7//2 12//2 4//2
f  13//2 1//2 12//2
f  6//1 9//1 5//1
f  5//1 10//1 7//1
f  9//1 6//1 8//1
f  1//2 18//2 8//2
f  12//2 7//2 17//2
f  18//2 1//2 13//2
f  13//1 12//1 11//1
f  10//1 5//1 9//1
f  7//1 10//1 14//1
f  9//1 8//1 15//1
f  18//2 23//2 8//2
f  14//2 17//2 7//2
f  17//4 16//4 12//4
f  13//3 11//3 18//3
f  19//1 11//1 12//1
f  10//1 9//1 20//1
f  10//1 30//1 14//1
f  8//2 24//2 15//2
f  9//3 15//3 31//3
f  23//2 24//2 8//2
f  23//2 18//2 26//2
f  32//2 17//2 14//2
f  19//4 12//4 16//4
f  17//5 18//5 16//5
f  21//3 18//3 11//3
f  19//2 16//2 11//2
f  9//2 33//2 20//2
f  30//1 10//1 20//1
f  30//2 34//2 14//2
f  27//2 15//2 24//2
f  35//3 31//3 15//3
f  33//2 9//2 31//2
f  24//5 23//5 22//5
f  26//2 18//2 27//2
f  26//3 25//3 23//3
f  17//2 32//2 18//2
f  36//2 32//2 14//2
f  21//5 16//5 18//5
f  21//2 11//2 16//2
f  33//4 34//4 20//4
f  30//4 20//4 34//4
f  36//2 14//2 34//2
f  15//2 27//2 35//2
f  24//4 22//4 27//4
f  35//1 34//1 31//1
f  33//1 31//1 34//1
f  28//5 22//5 23//5
f  27//2 18//2 37//2
f  26//1 27//1 25//1
f  28//3 23//3 25//3
f  37//2 18//2 32//2
f  32//2 36//2 37//2
f  34//2 37//2 36//2
f  35//2 27//2 37//2
f  29//4 27//4 22//4
f  35//2 37//2 34//2
f  28//2 25//2 22//2
f  29//1 25//1 27//1
f  29//2 22//2 25//2

# Mesh 'mesh1_mesh1-geometry' with 20 faces
g mesh1_mesh1-geometry
usemtl material_2_24
f  12//6 4//6 1//6
f  4//6 12//6 7//6
f  12//6 1//6 13//6
f  8//6 18//6 1//6
f  17//6 7//6 12//6
f  13//6 1//6 18//6
f  8//6 23//6 18//6
f  7//6 17//6 14//6
f  15//6 24//6 8//6
f  8//6 24//6 23//6
f  26//6 18//6 23//6
f  14//6 17//6 32//6
f  24//6 15//6 27//6
f  27//6 18//6 26//6
f  18//6 32//6 17//6
f  14//6 32//6 36//6
f  35//6 27//6 15//6
f  37//6 18//6 27//6
f  32//6 18//6 37//6
f  37//6 27//6 35//6

# Mesh 'mesh1_mesh1-geometry' with 11 faces
g mesh1_mesh1-geometry
usemtl material_3_24
f  14//5 30//5 10//5
f  20//5 10//5 30//5
f  14//6 34//6 30//6
f  20//3 34//3 33//3
f  34//3 20//3 30//3
f  34//6 14//6 36//6
f  31//5 34//5 35//5
f  34//5 31//5 33//5
f  37//6 36//6 32//6
f  36//6 37//6 34//6
f  34//6 37//6 35//6

# Mesh 'mesh1_mesh1-geometry' with 4 faces
g mesh1_mesh1-geometry
usemtl material_4_24
f  31//4 15//4 9//4
f  20//6 33//6 9//6
f  15//4 31//4 35//4
f  31//6 9//6 33//6

# Mesh 'mesh1_mesh1-geometry' with 4 faces
g mesh1_mesh1-geometry
usemtl material_5_24
f  11//6 16//6 19//6
f  16//6 11//6 21//6
f  22//6 25//6 28//6
f  25//6 22//6 29//6

