# File produced by Open Asset Import Library (http://www.assimp.sf.net)
# (assimp v3.2.202087883)

mtllib model_normalized.mtl

# 157 vertex positions
v 0.020472 -0.109614 0.022761
v 0.020472 -0.105814 0.022761
v 0.020472 -0.107714 0.023011
v 0.020472 -0.111382 0.022028
v -0.024797 -0.107714 0.023011
v -0.024797 -0.109614 0.022761
v -0.024797 -0.111382 0.022028
v 0.020472 -0.104041 0.022028
v -0.024797 -0.105814 0.022761
v -0.024797 -0.112904 0.020861
v 0.020472 -0.112904 0.020861
v -0.024797 -0.050625 0.040466
v -0.024797 -0.208208 0.040466
v 0.020472 -0.102523 0.020861
v -0.024797 -0.104041 0.022028
v 0.020472 -0.114068 0.019341
v -0.024797 -0.208208 -0.057442
v -0.024797 -0.102523 0.020861
v 0.020472 -0.208208 0.040466
v -0.024797 -0.114068 0.019341
v -0.024797 -0.532946 0.034834
v 0.020472 -0.101356 0.019341
v -0.024797 -0.101356 0.019341
v 0.020472 -0.050625 0.040466
v 0.020472 -0.524843 0.040466
v 0.020472 -0.114804 0.017571
v -0.024797 -0.524843 0.040466
v -0.024797 -0.539940 0.027876
v -0.024797 -0.114804 0.017571
v -0.024797 -0.050625 -0.057442
v 0.020472 -0.050625 0.068086
v 0.020472 -0.532946 0.034834
v 0.020472 -0.539940 0.027876
v -0.024797 -0.545616 0.019806
v -0.024797 -0.115055 0.015671
v 0.020472 -0.100623 0.017571
v -0.024797 -0.100623 0.017571
v -0.024797 0.262206 0.040339
v -0.024797 -0.050625 0.068086
v 0.020472 -0.115055 0.015671
v -0.024797 -0.549801 0.010870
v -0.024797 -0.114804 0.013772
v -0.024797 -0.100373 0.015671
v -0.024797 0.249055 0.046515
v -0.024797 0.275593 0.034687
v -0.024797 0.211198 0.068086
v 0.020472 -0.545616 0.019806
v -0.024797 -0.552364 0.001341
v -0.024797 -0.114068 0.012001
v 0.020472 -0.114804 0.013772
v 0.020472 -0.100373 0.015671
v -0.024797 -0.100623 0.013772
v -0.024797 0.236153 0.053205
v 0.020472 0.249055 0.046515
v -0.024797 0.289192 0.029567
v 0.020472 0.262206 0.040339
v -0.024797 0.223529 0.060399
v 0.020472 0.211198 0.068086
v 0.020472 -0.549801 0.010870
v -0.024797 -0.553227 -0.008488
v -0.024797 -0.112904 0.010481
v 0.020472 -0.114068 0.012001
v -0.024797 -0.101356 0.012001
v 0.020472 0.236153 0.053205
v -0.024797 0.302980 0.024988
v 0.020472 0.275593 0.034687
v 0.020472 -0.552364 0.001341
v -0.024797 -0.552364 -0.018317
v -0.024797 -0.111382 0.009315
v 0.020472 -0.112904 0.010481
v 0.020472 -0.100623 0.013772
v -0.024797 -0.102523 0.010481
v 0.020472 0.223529 0.060399
v -0.024797 0.316941 0.020957
v 0.020472 0.289192 0.029567
v 0.020472 -0.553227 -0.008488
v -0.024797 -0.549801 -0.027846
v -0.024797 -0.109614 0.008582
v 0.020472 -0.101356 0.012001
v -0.024797 -0.104041 0.009315
v -0.024797 0.331052 0.017480
v 0.020472 0.302980 0.024988
v 0.020472 -0.552364 -0.018317
v -0.024797 -0.545616 -0.036782
v -0.024797 -0.107714 0.008332
v 0.020472 -0.111382 0.009315
v 0.020472 -0.102523 0.010481
v 0.020472 -0.104041 0.009315
v -0.024797 -0.105814 0.008582
v -0.024797 0.345285 0.014563
v 0.020472 0.316941 0.020957
v 0.020472 -0.549801 -0.027846
v -0.024797 -0.539940 -0.044852
v 0.020472 -0.109614 0.008582
v 0.020472 -0.105814 0.008582
v -0.024797 0.359624 0.012209
v 0.020472 0.331052 0.017480
v 0.020472 -0.545616 -0.036782
v -0.024797 -0.532946 -0.051810
v 0.020472 -0.050625 -0.057442
v 0.020472 -0.107714 0.008332
v -0.024797 0.374045 0.010424
v 0.020472 0.345285 0.014563
v 0.020472 -0.539940 -0.044852
v 0.020472 -0.532946 -0.051810
v -0.024797 -0.524843 -0.057442
v 0.020472 -0.208208 -0.057442
v -0.024797 -0.050625 -0.092678
v -0.024797 0.432727 0.008332
v 0.020472 0.359624 0.012209
v 0.020472 -0.524843 -0.057442
v -0.024797 -0.365791 -0.057442
v 0.020472 -0.050625 -0.092678
v -0.024797 0.332933 -0.066234
v -0.024797 0.418456 -0.006962
v 0.020472 0.374045 0.010424
v 0.020472 -0.365791 -0.057442
v 0.020472 0.211198 -0.092678
v -0.024797 0.351644 -0.056884
v -0.024797 0.313604 -0.074228
v -0.024797 0.403132 -0.021199
v 0.020472 0.432727 0.008332
v -0.024797 0.211198 -0.092678
v -0.024797 0.369641 -0.046223
v 0.020472 0.351644 -0.056884
v -0.024797 0.293755 -0.080825
v 0.020472 0.332933 -0.066234
v -0.024797 0.386833 -0.034308
v 0.020472 0.418456 -0.006962
v 0.020472 0.232103 -0.091933
v -0.024797 0.232103 -0.091933
v 0.020472 0.369641 -0.046223
v -0.024797 0.273485 -0.085991
v 0.020472 0.313604 -0.074228
v 0.020472 0.403132 -0.021199
v -0.024797 0.252900 -0.089700
v 0.020472 0.386833 -0.034308
v 0.020472 0.293755 -0.080825
v 0.020472 0.252900 -0.089700
v 0.020472 0.273485 -0.085991
v 0.020472 0.366077 -0.014145
v 0.020472 0.298371 0.008332
v -0.024797 0.194663 -0.012343
v 0.020472 0.212158 0.051481
v 0.020472 0.212158 0.008332
v 0.020472 0.336200 -0.033507
v 0.020472 0.228115 0.058702
v 0.020472 0.245428 0.050075
v 0.020472 0.263108 0.042221
v 0.020472 0.281115 0.035155
v 0.020472 0.299419 0.028892
v 0.020472 0.317981 0.023443
v 0.020472 0.336763 0.018818
v 0.020472 0.355733 0.015028
v 0.020472 0.374852 0.012079
v 0.020472 0.394082 0.009978
v 0.020472 0.413386 0.008728

# 0 UV coordinates

# 104 vertex normals
vn 0.0254 0 0
vn -0.0254 0 0
vn -0 0.006574 0.0245345
vn 0 0 0.0254
vn 0 0 -0.0254
vn 0 -0.006574 -0.0245345
vn 0 -0.006574 0.0245345
vn 0 0.006574 -0.0245345
vn 0 -0.0127 0.021997
vn 0 0.0127 -0.021997
vn 0 -0.0179605 0.0179605
vn 0 0.0179605 -0.0179605
vn -0 0.0127 0.021997
vn 0 -0.0127 -0.021997
vn 0 -0.021997 0.0127
vn 0 0.021997 -0.0127
vn -0 0.0179605 0.0179605
vn 0 -0.0179605 -0.0179605
vn 0 -0.0245345 0.006574
vn 0 0.0245345 -0.006574
vn -0 0.021997 0.0127
vn 0 -0.021997 -0.0127
vn 0 0.0254 0
vn 0 -0.0254 0
vn 0 0.0144982 -0.0208557
vn 0 0.0162667 -0.0195078
vn 0 -0.0162667 0.0195078
vn 0 -0.0144982 0.0208557
vn 0 0.0194172 -0.0163747
vn 0 -0.0194172 0.0163747
vn -0 0.0245345 0.006574
vn 0 -0.0245345 -0.006574
vn 0 0.0219735 -0.0127407
vn 0 -0.0219735 0.0127407
vn 0 0.0238575 -0.00871675
vn 0 -0.0238575 0.00871675
vn 0 -0.01034 -0.0232001
vn 0 -0.0112475 -0.0227739
vn 0 0.0112475 0.0227739
vn 0 0.01034 0.0232001
vn 0 -0.00941639 -0.0235901
vn 0 0.00941639 0.0235901
vn 0 0.0250114 -0.00442608
vn 0 -0.0250114 0.00442608
vn 0 -0.0121375 -0.0223124
vn 0 0.0121375 0.0223124
vn 0 -0.00847809 -0.0239433
vn 0 0.00847809 0.0239433
vn 0 -0.0130086 -0.021816
vn 0 -0.0134366 -0.021555
vn 0 0.0134366 0.021555
vn 0 0.0130086 0.021816
vn 0 -0.00752658 -0.0242592
vn 0 0.00752658 0.0242592
vn -0 0.0250114 0.00442608
vn 0 -0.0250114 -0.00442608
vn 0 -0.00656333 -0.0245374
vn 0 0.00656333 0.0245374
vn -0 0.0238575 0.00871675
vn 0 -0.0238575 -0.00871675
vn 0 -0.00558988 -0.0247773
vn 0 0.00558988 0.0247773
vn -0 0.0219735 0.0127407
vn 0 -0.0219735 -0.0127407
vn 0 -0.00460771 -0.0249786
vn 0 0.00460771 0.0249786
vn -0 0.0194172 0.0163747
vn 0 -0.0194172 -0.0163747
vn 0 -0.00361836 -0.0251409
vn 0 0.00361836 0.0251409
vn -0 0.0162667 0.0195078
vn 0 -0.0162667 -0.0195078
vn 0 -0.00312148 -0.0252075
vn 0 0.00312148 0.0252075
vn -0 0.0144982 0.0208557
vn 0 -0.0144982 -0.0208557
vn 0 -0.000905002 -0.0253839
vn 0 0.000905002 0.0253839
vn 0 -0.0179409 0.0179801
vn 0 -0.0185704 0.0173292
vn 0 0.0185704 -0.0173292
vn 0 0.0179409 -0.0179801
vn 0 -0.0105378 0.0231109
vn 0 -0.0121574 0.0223015
vn 0 0.0121574 -0.0223015
vn 0 0.0105378 -0.0231109
vn 0 -0.00886457 0.0238029
vn 0 0.00886457 -0.0238029
vn 0 -0.0166144 0.0192125
vn 0 0.0166144 -0.0192125
vn 0 -0.0018095 0.0253355
vn 0 -0.000905332 0.0253839
vn 0 0.000905332 -0.0253839
vn 0 0.0018095 -0.0253355
vn 0 -0.0137153 0.0213787
vn 0 0.0137153 -0.0213787
vn 0 -0.00714634 0.024374
vn 0 0.00714634 -0.024374
vn 0 -0.0152035 0.0203473
vn 0 0.0152035 -0.0203473
vn 0 -0.00539178 0.0248211
vn 0 0.00539178 -0.0248211
vn 0 -0.0036098 0.0251422
vn 0 0.0036098 -0.0251422

# Mesh 'mesh1_mesh1-geometry' with 464 faces
g mesh1_mesh1-geometry
usemtl material_0_24
f  1//1 2//1 3//1
f  2//1 1//1 4//1
f  3//2 2//2 1//2
f  4//2 1//2 2//2
f  2//3 5//4 3//4
f  3//5 5//5 2//6
f  3//4 6//7 1//7
f  1//8 6//8 3//5
f  1//7 7//9 4//9
f  4//10 7//10 1//8
f  2//1 4//1 8//1
f  8//2 4//2 2//2
f  5//4 2//3 9//3
f  9//6 2//6 5//5
f  6//7 3//4 5//4
f  5//5 3//5 6//8
f  7//9 1//7 6//7
f  6//8 1//8 7//10
f  10//11 4//9 7//9
f  7//10 4//10 10//12
f  8//1 4//1 11//1
f  11//2 4//2 8//2
f  8//13 9//3 2//3
f  2//6 9//6 8//14
f  9//1 12//1 5//1
f  5//2 12//2 9//2
f  12//1 6//1 5//1
f  5//2 6//2 12//2
f  6//1 13//1 7//1
f  7//2 13//2 6//2
f  4//9 10//11 11//11
f  11//12 10//12 4//10
f  7//1 13//1 10//1
f  10//2 13//2 7//2
f  8//1 11//1 14//1
f  14//2 11//2 8//2
f  9//3 8//13 15//13
f  15//14 8//14 9//6
f  15//1 12//1 9//1
f  9//2 12//2 15//2
f  13//1 6//1 12//1
f  12//2 6//2 13//2
f  10//11 16//15 11//11
f  11//12 16//16 10//12
f  10//1 13//1 17//1
f  17//2 13//2 10//2
f  14//1 11//1 16//1
f  16//2 11//2 14//2
f  14//17 15//13 8//13
f  8//14 15//14 14//18
f  18//1 12//1 15//1
f  15//2 12//2 18//2
f  12//5 19//5 13//5
f  13//4 19//4 12//4
f  16//15 10//11 20//15
f  20//16 10//12 16//16
f  13//1 21//1 17//1
f  17//2 21//2 13//2
f  10//1 17//1 20//1
f  20//2 17//2 10//2
f  14//1 16//1 22//1
f  22//2 16//2 14//2
f  15//13 14//17 18//17
f  18//18 14//18 15//14
f  23//1 12//1 18//1
f  18//2 12//2 23//2
f  19//5 12//5 24//5
f  24//4 12//4 19//4
f  25//5 13//5 19//5
f  19//4 13//4 25//4
f  20//15 26//19 16//15
f  16//16 26//20 20//16
f  21//1 13//1 27//1
f  27//2 13//2 21//2
f  17//1 21//1 28//1
f  28//2 21//2 17//2
f  20//1 17//1 29//1
f  29//2 17//2 20//2
f  22//1 16//1 26//1
f  26//2 16//2 22//2
f  23//21 14//17 22//21
f  22//22 14//18 23//22
f  14//17 23//21 18//17
f  18//18 23//22 14//18
f  12//1 23//1 30//1
f  30//2 23//2 12//2
f  12//23 31//23 24//23
f  24//24 31//24 12//24
f  13//5 25//5 27//5
f  27//4 25//4 13//4
f  26//19 20//15 29//19
f  29//20 20//16 26//20
f  27//25 32//26 21//26
f  21//27 32//27 27//28
f  21//26 33//29 28//29
f  28//30 33//30 21//27
f  17//1 28//1 34//1
f  34//2 28//2 17//2
f  29//1 17//1 35//1
f  35//2 17//2 29//2
f  22//1 26//1 36//1
f  36//2 26//2 22//2
f  22//21 37//31 23//21
f  23//22 37//32 22//22
f  30//1 23//1 37//1
f  37//2 23//2 30//2
f  38//1 12//1 30//1
f  30//2 12//2 38//2
f  31//23 12//23 39//23
f  39//24 12//24 31//24
f  32//26 27//25 25//25
f  25//28 27//28 32//27
f  29//19 40//24 26//19
f  26//20 40//23 29//20
f  33//29 21//26 32//26
f  32//27 21//27 33//30
f  33//29 34//33 28//29
f  28//30 34//34 33//30
f  17//1 34//1 41//1
f  41//2 34//2 17//2
f  35//1 17//1 42//1
f  42//2 17//2 35//2
f  40//24 29//19 35//24
f  35//23 29//20 40//23
f  36//1 26//1 40//1
f  40//2 26//2 36//2
f  37//31 22//21 36//31
f  36//32 22//22 37//32
f  30//1 37//1 43//1
f  43//2 37//2 30//2
f  44//1 12//1 38//1
f  38//2 12//2 44//2
f  38//1 30//1 45//1
f  45//2 30//2 38//2
f  12//1 46//1 39//1
f  39//2 46//2 12//2
f  46//5 31//5 39//5
f  39//4 31//4 46//4
f  34//33 33//29 47//33
f  47//34 33//30 34//34
f  47//33 41//35 34//33
f  34//34 41//36 47//34
f  17//1 41//1 48//1
f  48//2 41//2 17//2
f  42//1 17//1 49//1
f  49//2 17//2 42//2
f  50//32 35//24 42//32
f  42//31 35//23 50//31
f  35//24 50//32 40//24
f  40//23 50//31 35//23
f  36//1 40//1 51//1
f  51//2 40//2 36//2
f  36//31 43//23 37//31
f  37//32 43//24 36//32
f  30//1 43//1 52//1
f  52//2 43//2 30//2
f  53//1 12//1 44//1
f  44//2 12//2 53//2
f  38//37 54//38 44//38
f  44//39 54//39 38//40
f  45//1 30//1 55//1
f  55//2 30//2 45//2
f  45//41 56//37 38//37
f  38//40 56//40 45//42
f  46//1 12//1 57//1
f  57//2 12//2 46//2
f  31//5 46//5 58//5
f  58//4 46//4 31//4
f  41//35 47//33 59//35
f  59//36 47//34 41//36
f  59//35 48//43 41//35
f  41//36 48//44 59//36
f  17//1 48//1 60//1
f  60//2 48//2 17//2
f  49//1 17//1 61//1
f  61//2 17//2 49//2
f  62//22 42//32 49//22
f  49//21 42//31 62//21
f  42//32 62//22 50//32
f  50//31 62//21 42//31
f  51//1 40//1 50//1
f  50//2 40//2 51//2
f  43//23 36//31 51//23
f  51//24 36//32 43//24
f  51//23 52//20 43//23
f  43//24 52//19 51//24
f  30//1 52//1 63//1
f  63//2 52//2 30//2
f  57//1 12//1 53//1
f  53//2 12//2 57//2
f  44//38 64//45 53//45
f  53//46 64//46 44//39
f  54//38 38//37 56//37
f  56//40 38//40 54//39
f  64//45 44//38 54//38
f  54//39 44//39 64//46
f  55//1 30//1 65//1
f  65//2 30//2 55//2
f  55//47 66//41 45//41
f  45//42 66//42 55//48
f  56//37 45//41 66//41
f  66//42 45//42 56//40
f  57//49 58//50 46//50
f  46//51 58//51 57//52
f  48//43 59//35 67//43
f  67//44 59//36 48//44
f  67//43 60//23 48//43
f  48//44 60//24 67//44
f  17//1 60//1 68//1
f  68//2 60//2 17//2
f  61//1 17//1 69//1
f  69//2 17//2 61//2
f  70//18 49//22 61//18
f  61//17 49//21 70//17
f  49//22 70//18 62//22
f  62//21 70//17 49//21
f  71//1 50//1 62//1
f  62//2 50//2 71//2
f  51//1 50//1 71//1
f  71//2 50//2 51//2
f  52//20 51//23 71//20
f  71//19 51//24 52//19
f  71//20 63//16 52//20
f  52//19 63//15 71//19
f  30//1 63//1 72//1
f  72//2 63//2 30//2
f  53//45 73//49 57//49
f  57//52 73//52 53//46
f  73//49 53//45 64//45
f  64//46 53//46 73//52
f  65//1 30//1 74//1
f  74//2 30//2 65//2
f  65//53 75//47 55//47
f  55//48 75//48 65//54
f  66//41 55//47 75//47
f  75//48 55//48 66//42
f  58//50 57//49 73//49
f  73//52 57//52 58//51
f  60//23 67//43 76//23
f  76//24 67//44 60//24
f  76//23 68//55 60//23
f  60//24 68//56 76//24
f  17//1 68//1 77//1
f  77//2 68//2 17//2
f  69//1 17//1 78//1
f  78//2 17//2 69//2
f  69//14 70//18 61//18
f  61//17 70//17 69//13
f  79//1 62//1 70//1
f  70//2 62//2 79//2
f  71//1 62//1 79//1
f  79//2 62//2 71//2
f  63//16 71//20 79//16
f  79//15 71//19 63//15
f  79//16 72//12 63//16
f  63//15 72//11 79//15
f  30//1 72//1 80//1
f  80//2 72//2 30//2
f  74//1 30//1 81//1
f  81//2 30//2 74//2
f  74//57 82//53 65//53
f  65//54 82//54 74//58
f  75//47 65//53 82//53
f  82//54 65//54 75//48
f  68//55 76//23 83//55
f  83//56 76//24 68//56
f  83//55 77//59 68//55
f  68//56 77//60 83//56
f  17//1 77//1 84//1
f  84//2 77//2 17//2
f  78//1 17//1 85//1
f  85//2 17//2 78//2
f  78//6 86//14 69//14
f  69//13 86//13 78//3
f  70//18 69//14 86//14
f  86//13 69//13 70//17
f  79//1 70//1 87//1
f  87//2 70//2 79//2
f  72//12 79//16 87//12
f  87//11 79//15 72//11
f  72//12 88//10 80//10
f  80//9 88//9 72//11
f  30//1 80//1 89//1
f  89//2 80//2 30//2
f  81//1 30//1 90//1
f  90//2 30//2 81//2
f  81//61 91//57 74//57
f  74//58 91//58 81//62
f  82//53 74//57 91//57
f  91//58 74//58 82//54
f  77//59 83//55 92//59
f  92//60 83//56 77//60
f  92//59 84//63 77//59
f  77//60 84//64 92//60
f  17//1 84//1 93//1
f  93//2 84//2 17//2
f  30//1 85//1 17//1
f  17//2 85//2 30//2
f  85//5 94//6 78//6
f  78//3 94//3 85//4
f  86//14 78//6 94//6
f  94//3 78//3 86//13
f  87//1 70//1 86//1
f  86//2 70//2 87//2
f  88//10 72//12 87//12
f  87//11 72//11 88//9
f  95//8 80//10 88//10
f  88//9 80//9 95//7
f  80//10 95//8 89//8
f  89//7 95//7 80//9
f  30//1 89//1 85//1
f  85//2 89//2 30//2
f  90//1 30//1 96//1
f  96//2 30//2 90//2
f  90//65 97//61 81//61
f  81//62 97//62 90//66
f  91//57 81//61 97//61
f  97//62 81//62 91//58
f  84//63 92//59 98//63
f  98//64 92//60 84//64
f  98//63 93//67 84//63
f  84//64 93//68 98//64
f  17//1 93//1 99//1
f  99//2 93//2 17//2
f  17//4 100//4 30//4
f  30//5 100//5 17//5
f  94//6 85//5 101//5
f  101//4 85//4 94//3
f  88//1 86//1 94//1
f  94//2 86//2 88//2
f  87//1 86//1 88//1
f  88//2 86//2 87//2
f  88//1 94//1 95//1
f  95//2 94//2 88//2
f  101//5 89//8 95//8
f  95//7 89//7 101//4
f  89//8 101//5 85//5
f  85//4 101//4 89//7
f  96//1 30//1 102//1
f  102//2 30//2 96//2
f  96//69 103//65 90//65
f  90//66 103//66 96//70
f  97//61 90//65 103//65
f  103//66 90//66 97//62
f  93//67 98//63 104//67
f  104//68 98//64 93//68
f  93//67 105//71 99//71
f  99//72 105//72 93//68
f  17//1 99//1 106//1
f  106//2 99//2 17//2
f  100//4 17//4 107//4
f  107//5 17//5 100//5
f  100//23 108//23 30//23
f  30//24 108//24 100//24
f  95//1 94//1 101//1
f  101//2 94//2 95//2
f  102//1 30//1 109//1
f  109//2 30//2 102//2
f  102//73 110//69 96//69
f  96//70 110//70 102//74
f  103//65 96//69 110//69
f  110//70 96//70 103//66
f  105//71 93//67 104//67
f  104//68 93//68 105//72
f  111//75 99//71 105//71
f  105//72 99//72 111//76
f  99//71 111//75 106//75
f  106//76 111//76 99//72
f  17//1 106//1 112//1
f  112//2 106//2 17//2
f  112//4 107//4 17//4
f  17//5 107//5 112//5
f  108//23 100//23 113//23
f  113//24 100//24 108//24
f  114//1 30//1 108//1
f  108//2 30//2 114//2
f  109//1 30//1 115//1
f  115//2 30//2 109//2
f  109//77 116//77 102//77
f  102//78 116//78 109//78
f  110//69 102//73 116//73
f  116//74 102//74 110//70
f  117//4 106//4 111//4
f  111//5 106//5 117//5
f  106//4 117//4 112//4
f  112//5 117//5 106//5
f  107//4 112//4 117//4
f  117//5 112//5 107//5
f  118//4 108//4 113//4
f  113//5 108//5 118//5
f  119//1 30//1 114//1
f  114//2 30//2 119//2
f  114//1 108//1 120//1
f  120//2 108//2 114//2
f  115//1 30//1 121//1
f  121//2 30//2 115//2
f  115//79 122//80 109//80
f  109//81 122//81 115//82
f  116//77 109//77 122//77
f  122//78 109//78 116//78
f  108//4 118//4 123//4
f  123//5 118//5 108//5
f  124//1 30//1 119//1
f  119//2 30//2 124//2
f  114//83 125//84 119//84
f  119//85 125//85 114//86
f  120//1 108//1 126//1
f  126//2 108//2 120//2
f  120//87 127//83 114//83
f  114//86 127//86 120//88
f  121//1 30//1 128//1
f  128//2 30//2 121//2
f  121//89 129//79 115//79
f  115//82 129//82 121//90
f  122//80 115//79 129//79
f  129//82 115//82 122//81
f  130//91 123//92 118//92
f  118//93 123//93 130//94
f  131//1 108//1 123//1
f  123//2 108//2 131//2
f  128//1 30//1 124//1
f  124//2 30//2 128//2
f  119//84 132//95 124//95
f  124//96 132//96 119//85
f  125//84 114//83 127//83
f  127//86 114//86 125//85
f  132//95 119//84 125//84
f  125//85 119//85 132//96
f  126//1 108//1 133//1
f  133//2 108//2 126//2
f  126//97 134//87 120//87
f  120//88 134//88 126//98
f  127//83 120//87 134//87
f  134//88 120//88 127//86
f  128//99 135//89 121//89
f  121//90 135//90 128//100
f  129//79 121//89 135//89
f  135//90 121//90 129//82
f  123//92 130//91 131//91
f  131//94 130//94 123//93
f  136//1 108//1 131//1
f  131//2 108//2 136//2
f  124//95 137//99 128//99
f  128//100 137//100 124//96
f  137//99 124//95 132//95
f  132//96 124//96 137//100
f  133//1 108//1 136//1
f  136//2 108//2 133//2
f  133//101 138//97 126//97
f  126//98 138//98 133//102
f  134//87 126//97 138//97
f  138//98 126//98 134//88
f  135//89 128//99 137//99
f  137//100 128//100 135//90
f  139//103 131//91 130//91
f  130//94 131//94 139//104
f  131//91 139//103 136//103
f  136//104 139//104 131//94
f  136//103 140//101 133//101
f  133//102 140//102 136//104
f  138//97 133//101 140//101
f  140//102 133//102 138//98
f  140//101 136//103 139//103
f  139//104 136//104 140//102

# Mesh 'mesh2_mesh2-geometry' with 3 faces
g mesh2_mesh2-geometry
usemtl material_0_0
l  141 142
l  141 143
l  142 144

# Mesh 'mesh3_mesh3-geometry' with 1 faces
g mesh3_mesh3-geometry
usemtl material_0_0
l  145 146

# Mesh 'mesh4_mesh4-geometry' with 24 faces
g mesh4_mesh4-geometry
usemtl material_0_0
l  101 95
l  94 101
l  95 88
l  86 94
l  88 87
l  70 86
l  87 79
l  62 70
l  79 71
l  50 62
l  71 51
l  40 50
l  51 36
l  26 40
l  36 22
l  16 26
l  22 14
l  11 16
l  14 8
l  4 11
l  8 2
l  1 4
l  2 3
l  3 1

# Mesh 'mesh5_mesh5-geometry' with 73 faces
g mesh5_mesh5-geometry
usemtl material_0_0
l  17 112
l  107 17
l  17 13
l  30 17
l  112 106
l  117 112
l  27 13
l  13 12
l  19 13
l  30 12
l  100 30
l  30 108
l  106 99
l  111 106
l  21 27
l  25 27
l  24 12
l  12 39
l  108 123
l  113 108
l  99 93
l  28 21
l  39 46
l  31 39
l  123 131
l  118 123
l  93 84
l  34 28
l  46 57
l  58 46
l  131 136
l  84 77
l  41 34
l  57 53
l  58 147
l  136 133
l  77 68
l  48 41
l  53 44
l  147 148
l  133 126
l  68 60
l  60 48
l  44 38
l  148 149
l  126 120
l  38 45
l  149 150
l  120 114
l  45 55
l  150 151
l  114 119
l  55 65
l  151 152
l  119 124
l  65 74
l  152 153
l  124 128
l  74 81
l  153 154
l  128 121
l  81 90
l  154 155
l  121 115
l  90 96
l  155 156
l  115 109
l  96 102
l  156 157
l  102 109
l  122 109
l  116 102
l  157 122

# Mesh 'mesh6_mesh6-geometry' with 24 faces
g mesh6_mesh6-geometry
usemtl material_0_0
l  85 89
l  78 85
l  89 80
l  69 78
l  80 72
l  61 69
l  72 63
l  49 61
l  63 52
l  42 49
l  52 43
l  35 42
l  43 37
l  29 35
l  37 23
l  20 29
l  23 18
l  10 20
l  18 15
l  7 10
l  15 9
l  6 7
l  9 5
l  5 6

