# File produced by Open Asset Import Library (http://www.assimp.sf.net)
# (assimp v3.2.202087883)

mtllib model_normalized.mtl

# 84 vertex positions
v -0.230912 -0.154659 0.257652
v -0.200882 -0.154659 -0.076341
v -0.200882 -0.154659 0.257652
v -0.231985 -0.154659 -0.076341
v -0.200882 -0.154659 -0.276738
v -0.157291 -0.119647 0.257652
v -0.231985 -0.154659 0.257652
v -0.157291 -0.119647 -0.276738
v -0.231985 -0.154659 -0.276738
v -0.186640 -0.116856 0.257652
v -0.111781 -0.087172 -0.276738
v -0.186640 -0.116856 -0.276738
v -0.111781 -0.087172 0.257652
v -0.139169 -0.081759 0.257652
v -0.064496 -0.057337 -0.276738
v -0.139169 -0.081759 -0.276738
v -0.064496 -0.057337 0.257652
v -0.089734 -0.049487 0.257652
v -0.015591 -0.030241 -0.276738
v -0.089734 -0.049487 -0.276738
v -0.015591 -0.030241 0.257652
v -0.015591 -0.030241 -0.076341
v -0.038503 -0.020149 0.257652
v -0.038503 -0.020149 -0.276738
v 0.034776 -0.005970 0.257652
v 0.034776 -0.005970 -0.276738
v -0.038503 -0.020149 -0.076341
v 0.014350 0.006154 0.257652
v 0.014350 0.006154 -0.276738
v 0.086442 0.015397 -0.276738
v 0.086442 0.015397 0.257652
v 0.068645 0.029333 0.257652
v 0.068645 0.029333 -0.276738
v 0.139239 0.033791 -0.276738
v 0.139239 0.033791 0.257652
v 0.124200 0.049310 0.257652
v 0.124200 0.049310 -0.276738
v 0.192997 0.049152 -0.276738
v 0.192997 0.049152 0.257652
v 0.247542 0.061431 0.257652
v 0.247542 0.061431 -0.276738
v 0.180823 0.066017 0.257652
v 0.180823 0.066017 -0.276738
v 0.302698 0.070586 -0.276738
v 0.302698 0.070586 0.257652
v 0.238323 0.079397 0.257652
v 0.238323 0.079397 -0.276738
v 0.358284 0.076591 -0.276738
v 0.358284 0.076591 0.257652
v 0.296505 0.089404 0.257652
v 0.414122 0.079423 0.257652
v 0.414122 0.079423 -0.276738
v 0.296505 0.089404 -0.276738
v 0.355171 0.096005 0.257652
v 0.414122 0.099176 0.257652
v 0.414122 0.099176 -0.276738
v 0.355171 0.096005 -0.276738
v -0.387463 0.099176 0.257652
v 0.414122 0.112536 0.257652
v -0.360744 0.099176 0.057256
v 0.414122 0.112536 -0.276738
v -0.387463 0.099176 0.057256
v -0.360744 0.099176 -0.076341
v -0.387463 0.112536 0.257652
v -0.387463 0.112536 -0.276738
v -0.387463 0.112536 0.057256
v -0.387463 0.099176 -0.276738
v -0.387463 0.112536 -0.076341
v -0.387463 0.099176 -0.076341
v -0.000993 -0.023206 0.057256
v -0.027670 -0.014758 -0.076341
v -0.027670 -0.014758 0.057256
v -0.042664 -0.022532 0.057256
v -0.015736 -0.030321 0.057256
v -0.000993 -0.023206 -0.076341
v -0.387463 0.077203 0.057256
v 0.414122 -0.154659 0.057256
v 0.414122 -0.154659 -0.076341
v -0.387463 0.077203 -0.076341
v -0.042664 -0.022532 -0.076341
v -0.015736 -0.030321 -0.076341
v -0.199767 -0.154659 0.257652
v -0.200917 -0.155583 0.257652
v -0.232020 -0.155583 0.257652

# 171 UV coordinates
vt 9.36115 10.877 0
vt 9.54846 8.7937 0
vt 9.54846 10.877 0
vt 9.35445 8.7937 0
vt -7.5437 7.44447 0
vt -10.877 7.44447 0
vt -8.7937 7.44447 0
vt 9.82036 0.21839 0
vt 9.36115 -0 0
vt 9.54846 -0 0
vt 9.35445 10.877 0
vt 9.54846 7.5437 0
vt -7.5437 7.79321 0
vt 9.35445 -0 0
vt -10.877 7.79321 0
vt 10.877 7.18511 0
vt 7.5437 7.18511 0
vt 8.7937 7.18511 0
vt 9.35445 7.5437 0
vt 9.6373 0.235802 0
vt -7.5437 8.46944 0
vt -10.877 8.12069 0
vt -7.5437 8.12069 0
vt 10.877 7.55336 0
vt 10.1042 0.42096 0
vt -10.877 8.46944 0
vt 7.5437 7.55336 0
vt 9.93341 0.454726 0
vt -7.5437 9.11881 0
vt -10.877 8.77006 0
vt -7.5437 8.77006 0
vt 10.877 8.25773 0
vt 7.5437 7.88948 0
vt 10.877 7.88948 0
vt 10.3992 0.607056 0
vt -10.877 9.11881 0
vt 7.5437 8.25773 0
vt 10.2418 0.656028 0
vt -7.5437 9.73922 0
vt -10.877 9.39047 0
vt -7.5437 9.39047 0
vt 10.877 8.93468 0
vt 7.5437 8.56643 0
vt 10.877 8.56643 0
vt 10.7042 0.776075 0
vt -8.7937 9.73922 0
vt 7.5437 8.93468 0
vt -10.877 9.73922 0
vt 10.5613 0.839024 0
vt -7.5437 9.97991 0
vt -10.877 9.97991 0
vt -8.7937 9.97991 0
vt 10.877 9.58191 0
vt 7.5437 9.21366 0
vt 10.877 9.21366 0
vt 11.0184 0.92747 0
vt -7.5437 10.3287 0
vt 8.7937 9.58191 0
vt 7.5437 9.58191 0
vt -10.877 10.3287 0
vt 10.891 1.00309 0
vt 10.877 9.82897 0
vt 7.5437 9.82897 0
vt 8.7937 9.82897 0
vt -7.5437 10.8852 0
vt -10.877 10.5365 0
vt -7.5437 10.5365 0
vt 11.3407 1.06075 0
vt 10.877 10.1972 0
vt 7.5437 10.1972 0
vt -10.877 10.8852 0
vt 11.2297 1.14768 0
vt 10.877 10.7785 0
vt 7.5437 10.4103 0
vt 10.877 10.4103 0
vt -7.5437 11.4071 0
vt -10.877 11.0584 0
vt -7.5437 11.0584 0
vt 11.67 1.17548 0
vt 7.5437 10.7785 0
vt -10.877 11.4071 0
vt 11.5762 1.27229 0
vt 10.877 11.3238 0
vt 7.5437 10.9556 0
vt 10.877 10.9556 0
vt -7.5437 11.8926 0
vt -10.877 11.5439 0
vt -7.5437 11.5439 0
vt 12.0053 1.2713 0
vt 7.5437 11.3238 0
vt -10.877 11.8926 0
vt 12.3456 1.34789 0
vt 10.877 11.8313 0
vt 7.5437 11.463 0
vt 10.877 11.463 0
vt -7.5437 12.3402 0
vt -10.877 11.9915 0
vt -7.5437 11.9915 0
vt -10.877 12.3402 0
vt 11.9294 1.3765 0
vt 7.5437 11.8313 0
vt -7.5437 12.7484 0
vt -10.877 12.3996 0
vt -7.5437 12.3996 0
vt 12.6896 1.405 0
vt 10.877 12.2992 0
vt 7.5437 11.931 0
vt 10.877 11.931 0
vt -10.877 12.7484 0
vt 12.2881 1.45995 0
vt 7.5437 12.2992 0
vt -7.5437 13.1159 0
vt -10.877 12.7671 0
vt -7.5437 12.7671 0
vt 13.0363 1.44245 0
vt 10.877 12.726 0
vt 7.5437 12.3577 0
vt 10.877 12.3577 0
vt -10.877 13.1159 0
vt 13.3846 1.46012 0
vt 7.5437 12.726 0
vt 12.651 1.52238 0
vt -7.5437 13.4414 0
vt -10.877 13.0927 0
vt -7.5437 13.0927 0
vt -10.877 13.4414 0
vt 10.877 13.1101 0
vt 7.5437 12.7419 0
vt 10.877 12.7419 0
vt 13.3846 1.58333 0
vt -7.5437 1.46012 0
vt -10.877 1.58333 0
vt -10.877 1.46012 0
vt 7.5437 13.1101 0
vt 13.0169 1.56355 0
vt -7.5437 1.58333 0
vt 10.877 13.4504 0
vt 7.5437 13.0821 0
vt 10.877 13.0821 0
vt 8.38463 10.877 0
vt 13.3846 7.5437 0
vt 13.3846 10.877 0
vt 7.5437 13.4504 0
vt -10.877 1.66667 0
vt 8.5513 9.62704 0
vt 13.3846 1.66667 0
vt 8.38463 1.58333 0
vt -7.5437 1.66667 0
vt 8.38463 9.62704 0
vt 8.5513 8.7937 0
vt 8.38463 1.66667 0
vt -13.3846 1.58333 0
vt -8.38463 1.66667 0
vt -13.3846 1.66667 0
vt -8.38463 7.5437 0
vt -13.3846 10.877 0
vt -13.3846 7.5437 0
vt 10.877 1.58333 0
vt 9.62704 1.66667 0
vt 9.62704 1.58333 0
vt 8.38463 7.5437 0
vt -8.38463 10.877 0
vt 10.877 1.66667 0
vt -8.38463 1.58333 0
vt 8.7937 1.66667 0
vt 8.38463 8.7937 0
vt -8.38463 8.7937 0
vt -8.38463 9.62704 0
vt 8.7937 1.58333 0
vt 7.5437 1.66667 0
vt 7.5437 1.58333 0

# 64 vertex normals
vn 0 -0.3048 0
vn 0.19087 -0.237638 0
vn 0 0 0.3048
vn 0.184032 -0.242972 0
vn -0.195174 0.234116 0
vn 0 -0 -0.3048
vn 0.169914 -0.253046 0
vn -0.188269 0.239704 0
vn 0.155246 -0.262301 -0
vn -0.173985 0.250264 0
vn 0.140076 -0.270706 -0
vn -0.15911 0.259975 0
vn -0.143695 0.268803 0
vn 0.124452 -0.278235 -0
vn 0.108424 -0.284863 0
vn -0.127791 0.276717 0
vn -0.111454 0.283692 0
vn 0.0920463 -0.290569 0
vn -0.0947376 0.289703 0
vn 0.0753701 -0.295334 0
vn -0.0776996 0.29473 0
vn 0.05845 -0.299143 0
vn 0.0413406 -0.301983 0
vn -0.060398 0.298756 0
vn 0.0240972 -0.303846 -0
vn -0.0428909 0.301767 0
vn 0.0154427 -0.304409 -0
vn -0.0252381 0.303753 0
vn 0.3048 0 0
vn -0.016376 0.30436 0
vn 0 0.3048 0
vn -0.3048 0 0
vn -0.19087 0.237638 0
vn -0.184032 0.242972 0
vn 0.195174 -0.234116 -0
vn -0.169914 0.253046 0
vn 0.188269 -0.239704 0
vn -0.155246 0.262301 0
vn 0.173985 -0.250264 0
vn -0.140076 0.270706 0
vn 0.15911 -0.259975 -0
vn 0.143695 -0.268803 0
vn -0.124452 0.278235 0
vn -0.108424 0.284863 0
vn 0.127791 -0.276717 0
vn 0.111454 -0.283692 0
vn -0.0920463 0.290569 0
vn 0.0947376 -0.289703 0
vn -0.0753701 0.295334 0
vn 0.0776996 -0.29473 0
vn -0.05845 0.299143 0
vn -0.0413406 0.301983 0
vn 0.060398 -0.298756 0
vn -0.0240972 0.303846 0
vn 0.0428909 -0.301767 0
vn -0.0154427 0.304409 0
vn 0.0252381 -0.303753 -0
vn 0.016376 -0.30436 -0
vn 0.0920167 0.290579 0
vn -0.0920167 -0.290579 0
vn 0.0948867 0.289654 0
vn -0.0846927 -0.292797 0
vn -0.0948867 -0.289654 0
vn 0.0846927 0.292797 0

# Mesh 'mesh1_mesh1-geometry' with 158 faces
g mesh1_mesh1-geometry
usemtl material_0_1_8
f  1/1/1 2/2/1 3/3/1
f  2/2/1 1/1/1 4/4/1
f  5/5/2 3/6/2 2/7/2
f  6/8/3 1/9/3 3/10/3
f  4/4/1 1/1/1 7/11/1
f  4/4/1 5/12/1 2/2/1
f  8/13/4 3/6/2 5/5/2
f  1/9/3 6/8/3 7/14/3
f  3/6/2 8/13/4 6/15/4
f  7/16/5 9/17/5 4/18/5
f  5/12/1 4/4/1 9/19/1
f  8/8/3 9/14/3 5/10/3
f  5/10/6 9/14/6 8/8/6
f  7/14/3 6/8/3 10/20/3
f  11/21/7 6/22/4 8/23/4
f  10/24/8 9/17/5 7/16/5
f  9/14/3 8/8/3 12/20/3
f  12/20/6 8/8/6 9/14/6
f  10/20/3 6/8/3 13/25/3
f  6/22/4 11/21/7 13/26/7
f  12/20/3 8/8/3 11/25/3
f  11/25/6 8/8/6 12/20/6
f  9/17/5 10/24/8 12/27/8
f  10/20/3 13/25/3 14/28/3
f  15/29/9 13/30/7 11/31/7
f  12/20/3 11/25/3 16/28/3
f  16/28/6 11/25/6 12/20/6
f  14/32/10 12/33/8 10/34/8
f  14/28/3 13/25/3 17/35/3
f  13/30/7 15/29/9 17/36/9
f  16/28/3 11/25/3 15/35/3
f  15/35/6 11/25/6 16/28/6
f  12/33/8 14/32/10 16/37/10
f  14/28/3 17/35/3 18/38/3
f  19/39/11 17/40/9 15/41/9
f  16/28/3 15/35/3 20/38/3
f  20/38/6 15/35/6 16/28/6
f  18/42/12 16/43/10 14/44/10
f  18/38/3 17/35/3 21/45/3
f  22/46/11 17/40/9 19/39/11
f  20/38/3 15/35/3 19/45/3
f  19/45/6 15/35/6 20/38/6
f  16/43/10 18/42/12 20/47/12
f  17/40/9 22/46/11 21/48/11
f  18/38/3 21/45/3 23/49/3
f  19/50/11 21/51/11 22/52/11
f  20/38/3 19/45/3 24/49/3
f  24/49/6 19/45/6 20/38/6
f  23/53/13 20/54/12 18/55/12
f  23/49/3 21/45/3 25/56/3
f  26/57/14 21/51/11 19/50/11
f  24/49/3 19/45/3 26/56/3
f  26/56/6 19/45/6 24/49/6
f  20/54/12 27/58/13 24/59/13
f  27/58/13 20/54/12 23/53/13
f  21/51/11 26/57/14 25/60/14
f  23/49/3 25/56/3 28/61/3
f  24/49/3 26/56/3 29/61/3
f  29/61/6 26/56/6 24/49/6
f  23/62/13 24/63/13 27/64/13
f  30/65/15 25/66/14 26/67/14
f  28/61/3 25/56/3 31/68/3
f  28/69/16 24/63/13 23/62/13
f  29/61/3 26/56/3 30/68/3
f  30/68/6 26/56/6 29/61/6
f  24/63/13 28/69/16 29/70/16
f  25/66/14 30/65/15 31/71/15
f  28/61/3 31/68/3 32/72/3
f  29/61/3 30/68/3 33/72/3
f  33/72/6 30/68/6 29/61/6
f  32/73/17 29/74/16 28/75/16
f  34/76/18 31/77/15 30/78/15
f  32/72/3 31/68/3 35/79/3
f  33/72/3 30/68/3 34/79/3
f  34/79/6 30/68/6 33/72/6
f  29/74/16 32/73/17 33/80/17
f  31/77/15 34/76/18 35/81/18
f  32/72/3 35/79/3 36/82/3
f  33/72/3 34/79/3 37/82/3
f  37/82/6 34/79/6 33/72/6
f  36/83/19 33/84/17 32/85/17
f  38/86/20 35/87/18 34/88/18
f  36/82/3 35/79/3 39/89/3
f  37/82/3 34/79/3 38/89/3
f  38/89/6 34/79/6 37/82/6
f  33/84/17 36/83/19 37/90/19
f  35/87/18 38/86/20 39/91/20
f  36/82/3 39/89/3 40/92/3
f  37/82/3 38/89/3 41/92/3
f  41/92/6 38/89/6 37/82/6
f  42/93/21 37/94/19 36/95/19
f  41/96/22 39/97/20 38/98/20
f  39/97/20 41/96/22 40/99/22
f  36/82/3 40/92/3 42/100/3
f  37/82/3 41/92/3 43/100/3
f  43/100/6 41/92/6 37/82/6
f  37/94/19 42/93/21 43/101/21
f  44/102/23 40/103/22 41/104/22
f  42/100/3 40/92/3 45/105/3
f  43/100/3 41/92/3 44/105/3
f  44/105/6 41/92/6 43/100/6
f  46/106/24 43/107/21 42/108/21
f  40/103/22 44/102/23 45/109/23
f  42/100/3 45/105/3 46/110/3
f  43/100/3 44/105/3 47/110/3
f  47/110/6 44/105/6 43/100/6
f  43/107/21 46/106/24 47/111/24
f  48/112/25 45/113/23 44/114/23
f  46/110/3 45/105/3 49/115/3
f  47/110/3 44/105/3 48/115/3
f  48/115/6 44/105/6 47/110/6
f  50/116/26 47/117/24 46/118/24
f  45/113/23 48/112/25 49/119/25
f  46/110/3 49/115/3 51/120/3
f  47/110/3 48/115/3 52/120/3
f  52/120/6 48/115/6 47/110/6
f  47/117/24 50/116/26 53/121/26
f  46/110/3 51/120/3 50/122/3
f  52/123/27 49/124/25 48/125/25
f  49/124/25 52/123/27 51/126/27
f  47/110/3 52/120/3 53/122/3
f  53/122/6 52/120/6 47/110/6
f  54/127/28 53/128/26 50/129/26
f  50/122/3 51/120/3 55/130/3
f  52/131/29 55/132/29 51/133/29
f  53/122/3 52/120/3 56/130/3
f  56/130/6 52/120/6 53/122/6
f  53/128/26 54/127/28 57/134/28
f  50/122/3 55/130/3 54/135/3
f  55/132/29 52/131/29 56/136/29
f  53/122/3 56/130/3 57/135/3
f  57/135/6 56/130/6 53/122/6
f  55/137/30 57/138/28 54/139/28
f  58/140/1 56/141/1 55/142/1
f  57/138/28 55/137/30 56/143/30
f  56/136/29 59/144/29 55/132/29
f  56/141/1 58/140/1 60/145/1
f  59/146/3 58/147/3 55/130/3
f  59/144/29 56/136/29 61/148/29
f  60/145/1 58/140/1 62/149/1
f  63/150/1 56/141/1 60/145/1
f  58/147/3 59/146/3 64/151/3
f  56/152/6 65/153/6 61/154/6
f  65/155/31 59/156/31 61/157/31
f  58/158/32 66/159/32 62/160/32
f  62/149/1 63/150/1 60/145/1
f  56/141/1 63/150/1 67/161/1
f  59/156/31 65/155/31 64/162/31
f  66/159/32 58/158/32 64/163/32
f  65/153/6 56/152/6 67/164/6
f  68/165/32 62/160/32 66/159/32
f  63/150/1 62/149/1 69/166/1
f  67/161/1 63/150/1 69/166/1
f  64/162/31 65/155/31 68/167/31
f  64/162/31 68/167/31 66/168/31
f  69/169/32 65/170/32 67/171/32
f  62/160/32 68/165/32 69/169/32
f  65/170/32 69/169/32 68/165/32

# Mesh 'mesh1_mesh1-geometry' with 118 faces
g mesh1_mesh1-geometry
usemtl material_1_24
f  3//31 2//31 1//31
f  4//31 1//31 2//31
f  2//33 3//33 5//33
f  3//6 1//6 6//6
f  7//31 1//31 4//31
f  2//31 5//31 4//31
f  5//33 3//33 8//34
f  7//6 6//6 1//6
f  6//34 8//34 3//33
f  4//35 9//35 7//35
f  9//31 4//31 5//31
f  10//6 6//6 7//6
f  8//34 6//34 11//36
f  7//35 9//35 10//37
f  13//6 6//6 10//6
f  13//36 11//36 6//34
f  12//37 10//37 9//35
f  14//6 13//6 10//6
f  11//36 13//36 15//38
f  10//37 12//37 14//39
f  17//6 13//6 14//6
f  17//38 15//38 13//36
f  16//39 14//39 12//37
f  18//6 17//6 14//6
f  15//38 17//38 19//40
f  14//39 16//39 18//41
f  21//6 17//6 18//6
f  19//40 17//38 22//40
f  20//41 18//41 16//39
f  21//40 22//40 17//38
f  23//6 21//6 18//6
f  22//40 21//40 19//40
f  18//41 20//41 23//42
f  25//6 21//6 23//6
f  19//40 21//40 26//43
f  24//42 27//42 20//41
f  23//42 20//41 27//42
f  25//43 26//43 21//40
f  28//6 25//6 23//6
f  27//42 24//42 23//42
f  26//43 25//43 30//44
f  31//6 25//6 28//6
f  23//42 24//42 28//45
f  29//45 28//45 24//42
f  31//44 30//44 25//43
f  32//6 31//6 28//6
f  28//45 29//45 32//46
f  30//44 31//44 34//47
f  35//6 31//6 32//6
f  33//46 32//46 29//45
f  35//47 34//47 31//44
f  36//6 35//6 32//6
f  32//46 33//46 36//48
f  34//47 35//47 38//49
f  39//6 35//6 36//6
f  37//48 36//48 33//46
f  39//49 38//49 35//47
f  40//6 39//6 36//6
f  36//48 37//48 42//50
f  38//49 39//49 41//51
f  40//51 41//51 39//49
f  42//6 40//6 36//6
f  43//50 42//50 37//48
f  41//51 40//51 44//52
f  45//6 40//6 42//6
f  42//50 43//50 46//53
f  45//52 44//52 40//51
f  46//6 45//6 42//6
f  47//53 46//53 43//50
f  44//52 45//52 48//54
f  49//6 45//6 46//6
f  46//53 47//53 50//55
f  49//54 48//54 45//52
f  51//6 49//6 46//6
f  53//55 50//55 47//53
f  50//6 51//6 46//6
f  48//54 49//54 52//56
f  51//56 52//56 49//54
f  50//55 53//55 54//57
f  55//6 51//6 50//6
f  51//32 55//32 52//32
f  57//57 54//57 53//55
f  54//6 55//6 50//6
f  56//32 52//32 55//32
f  54//57 57//57 55//58
f  55//31 56//31 58//31
f  56//58 55//58 57//57
f  55//32 59//32 56//32
f  60//31 58//31 56//31
f  55//6 58//6 59//6
f  61//32 56//32 59//32
f  62//31 58//31 60//31
f  60//31 56//31 63//31
f  64//6 59//6 58//6
f  61//3 65//3 56//3
f  61//1 59//1 65//1
f  62//29 66//29 58//29
f  60//31 63//31 62//31
f  67//31 63//31 56//31
f  64//1 65//1 59//1
f  64//29 58//29 66//29
f  67//3 56//3 65//3
f  66//29 62//29 68//29
f  69//31 62//31 63//31
f  69//31 63//31 67//31
f  68//1 65//1 64//1
f  66//1 68//1 64//1
f  67//29 65//29 69//29
f  69//29 68//29 62//29
f  68//29 69//29 65//29
f  70//59 71//59 72//59
f  72//60 71//60 70//60
f  73//3 70//3 72//3
f  72//6 70//6 73//6
f  70//3 73//3 74//3
f  74//6 73//6 70//6
f  71//59 70//59 75//59
f  75//60 70//60 71//60

# Mesh 'mesh1_mesh1-geometry' with 24 faces
g mesh1_mesh1-geometry
usemtl material_2_24
f  76//3 60//3 62//3
f  77//61 63//61 60//61
f  72//3 60//3 76//3
f  69//32 76//32 62//32
f  63//61 77//61 78//61
f  70//3 77//3 60//3
f  63//6 79//6 69//6
f  70//3 60//3 72//3
f  76//3 73//3 72//3
f  76//32 69//32 79//32
f  74//62 78//62 77//62
f  78//6 75//6 63//6
f  77//3 70//3 74//3
f  63//6 71//6 79//6
f  76//62 80//62 73//62
f  80//62 76//62 79//62
f  78//62 74//62 81//62
f  75//6 78//6 81//6
f  63//6 75//6 71//6
f  27//6 79//6 71//6
f  81//62 73//62 80//62
f  79//6 27//6 80//6
f  81//62 74//62 73//62
f  75//6 81//6 22//6

# Mesh 'mesh1_mesh1-geometry' with 24 faces
g mesh1_mesh1-geometry
usemtl material_3_24
f  62//6 60//6 76//6
f  60//63 63//63 77//63
f  76//6 60//6 72//6
f  62//29 76//29 69//29
f  78//63 77//63 63//63
f  60//6 77//6 70//6
f  69//3 79//3 63//3
f  72//6 60//6 70//6
f  72//6 73//6 76//6
f  79//29 69//29 76//29
f  77//64 78//64 74//64
f  63//3 75//3 78//3
f  74//6 70//6 77//6
f  79//3 71//3 63//3
f  73//64 80//64 76//64
f  79//64 76//64 80//64
f  81//64 74//64 78//64
f  81//3 78//3 75//3
f  71//3 75//3 63//3
f  71//3 79//3 27//3
f  80//64 73//64 81//64
f  80//3 27//3 79//3
f  73//64 74//64 81//64
f  22//3 81//3 75//3

# Mesh 'mesh2_mesh2-geometry' with 4 faces
g mesh2_mesh2-geometry
usemtl material_1_0
l  72 73
l  72 70
l  74 70
l  22 74

# Mesh 'mesh3_mesh3-geometry' with 1 faces
g mesh3_mesh3-geometry
usemtl material_1_0
l  82 83

# Mesh 'mesh4_mesh4-geometry' with 1 faces
g mesh4_mesh4-geometry
usemtl material_1_0
l  1 84

