# File produced by Open Asset Import Library (http://www.assimp.sf.net)
# (assimp v3.2.202087883)

mtllib model_normalized.mtl

# 84 vertex positions
v -0.428494 0.080300 -0.230728
v 0.428494 0.080300 0.230728
v 0.428494 0.080300 -0.230728
v -0.428494 0.080300 0.230728
v -0.428494 0.067115 0.230728
v 0.428494 0.067115 -0.230728
v 0.428494 0.067115 0.230728
v -0.428494 0.067115 -0.230728
v 0.402126 0.038769 0.204359
v 0.428494 0.038769 0.230728
v 0.428494 0.038769 0.204359
v 0.402126 0.038769 0.230728
v 0.428494 -0.122741 0.204359
v 0.402126 -0.149110 0.230728
v 0.428494 -0.149110 0.230728
v 0.402126 -0.122741 0.204359
v 0.428494 -0.122741 -0.204359
v 0.402126 -0.122741 -0.204359
v 0.428494 -0.149110 -0.230728
v 0.402126 -0.149110 -0.230728
v 0.428494 0.038769 -0.204359
v 0.402126 0.038769 -0.230728
v 0.428494 0.038769 -0.230728
v 0.402126 0.038769 -0.204359
v -0.428494 0.038769 0.204359
v -0.402126 0.038769 0.230728
v -0.402126 0.038769 0.204359
v -0.428494 0.038769 0.230728
v -0.402126 -0.122741 0.204359
v -0.428494 -0.149110 0.230728
v -0.402126 -0.149110 0.230728
v -0.428494 -0.122741 0.204359
v -0.402126 -0.122741 -0.204359
v -0.428494 -0.122741 -0.204359
v -0.402126 -0.149110 -0.230728
v -0.428494 -0.149110 -0.230728
v -0.402126 0.038769 -0.204359
v -0.428494 0.038769 -0.230728
v -0.402126 0.038769 -0.230728
v -0.428494 0.038769 -0.204359
v -0.428494 0.065137 -0.230728
v -0.428494 0.065137 0.230728
v -0.412014 0.038769 -0.230728
v -0.412014 0.065137 0.230728
v -0.426517 0.065137 0.228750
v -0.412014 0.065137 -0.230728
v -0.412014 0.038769 -0.214247
v -0.412014 0.038769 0.230728
v -0.426517 0.065137 -0.228750
v -0.412014 0.065137 -0.228750
v 0.412014 0.038769 -0.230728
v -0.412014 0.038769 0.214247
v 0.412014 0.065137 0.230728
v -0.412014 0.065137 0.228750
v -0.426517 0.067115 -0.228750
v 0.412014 0.065137 -0.228750
v 0.412014 0.065137 -0.230728
v -0.412014 0.067115 0.214247
v 0.412014 0.038769 -0.214247
v 0.412014 0.038769 0.214247
v 0.412014 0.038769 0.230728
v -0.412014 0.067115 0.228750
v -0.426517 0.067115 0.228750
v -0.412014 0.067115 -0.228750
v -0.412014 0.067115 -0.214247
v 0.412014 0.067115 -0.214247
v 0.428494 0.065137 0.230728
v 0.412014 0.065137 0.228750
v 0.412014 0.067115 0.228750
v 0.426517 0.065137 -0.228750
v 0.412014 0.067115 -0.228750
v 0.428494 0.065137 -0.230728
v 0.412014 0.067115 0.214247
v 0.426517 0.065137 0.228750
v 0.426517 0.067115 0.228750
v 0.426517 0.067115 -0.228750
v -0.428494 -0.149110 -0.204359
v -0.428494 -0.149110 0.204359
v -0.402126 -0.149110 0.204359
v -0.402126 -0.149110 -0.204359
v 0.428494 -0.149110 -0.204359
v 0.428494 -0.149110 0.204359
v 0.402126 -0.149110 -0.204359
v 0.402126 -0.149110 0.204359

# 144 UV coordinates
vt 2.70352 6.61332 0
vt 0.103517 10.1133 0
vt 0.103517 6.61332 0
vt 2.70352 10.1133 0
vt -2.70352 10.1133 0
vt -0.103517 6.61332 0
vt -0.103517 10.1133 0
vt -2.70352 6.61332 0
vt 0 0 0
vt -67.4222 0.2 0
vt -44.0888 0 0
vt -44.0888 0.2 0
vt 44.0888 0.2 0
vt 67.4222 0 0
vt 67.4222 0.2 0
vt -67.4222 0 0
vt 44.0888 0 0
vt 0.207035 0 0
vt 5.40703 0.2 0
vt 0.207035 0.2 0
vt -5.40703 0 0
vt -0.207035 0.2 0
vt -5.40703 0.2 0
vt 5.40703 0 0
vt -0.207035 0 0
vt 1.81071 1.56065 0
vt 1.76252 1.60884 0
vt 1.76252 1.56065 0
vt 1.81071 1.60884 0
vt -1.60884 0.295181 0
vt -1.56065 0 0
vt -1.56065 0.295181 0
vt 1.76252 0 0
vt 1.81071 0.295181 0
vt 1.76252 0.295181 0
vt 1.56065 0.295181 0
vt 1.60884 -0.048193 0
vt 1.60884 0.295181 0
vt -1.81071 -0.048193 0
vt -1.76252 0.295181 0
vt -1.81071 0.295181 0
vt -1.60884 -0.048193 0
vt 1.81071 0 0
vt 1.56065 0 0
vt -1.76252 -0.048193 0
vt -0.813658 0 0
vt 1.81071 0.813658 0
vt 0.813658 0 0
vt -1.81071 1.60884 0
vt -1.76252 0.765465 0
vt -1.76252 1.60884 0
vt -0.765465 -0.048193 0
vt 1.76252 0.813658 0
vt 0.765465 -0.048193 0
vt -1.81071 0.765465 0
vt -0.813658 0.295181 0
vt -1.81071 0 0
vt -1.76252 0 0
vt 0.765465 0.295181 0
vt 1.76252 -0.048193 0
vt 1.81071 -0.048193 0
vt -0.765465 0.295181 0
vt 0.813658 0.295181 0
vt 1.81071 0.765465 0
vt 1.76252 0.765465 0
vt 0.077908 0.295181 0
vt -0.765465 0.343373 0
vt 0.077908 0.343373 0
vt 0.8008 0.343373 0
vt 0.77068 0.295181 0
vt 0.8008 0.295181 0
vt -0.765465 -1.24096 0
vt -1.60884 -1.27108 0
vt -0.765465 -1.27108 0
vt 0.108029 0.343373 0
vt -1.60884 1.90964 0
vt -1.60522 1.90602 0
vt -0.765465 1.90964 0
vt 0.77068 0.343373 0
vt -0.795586 -1.24096 0
vt 0.108029 0.295181 0
vt -1.60884 1.87952 0
vt -0.769079 1.90602 0
vt -0.769079 1.87952 0
vt -0.765465 1.87952 0
vt -0.735345 0.295181 0
vt -1.57872 -1.24096 0
vt -0.765465 0.26506 0
vt -1.60884 -1.24096 0
vt 1.61405 0.343373 0
vt -1.60522 1.87952 0
vt -0.599475 1.04981 0
vt -0.60309 0.213662 0
vt -0.599475 0.213662 0
vt -0.769079 0.373494 0
vt -0.735345 0.343373 0
vt -0.795586 0.295181 0
vt -1.57872 0.346988 0
vt -1.57872 0.295181 0
vt -0.795586 0.26506 0
vt -1.57872 0.26506 0
vt 1.61405 0.295181 0
vt -1.60884 0.373494 0
vt -0.60309 -1.78417 0
vt -0.599475 -1.81068 0
vt -0.599475 -1.78417 0
vt -0.60309 1.90602 0
vt -0.599475 1.87952 0
vt -0.599475 1.90602 0
vt -0.60309 1.04981 0
vt -0.765465 0.373494 0
vt -0.60309 1.87952 0
vt -0.599475 0.373494 0
vt -0.795586 0.346988 0
vt -3.08474 0.295181 0
vt 0.710439 0.346988 0
vt 0.710439 0.295181 0
vt -1.60884 0.26506 0
vt 1.64417 0.343373 0
vt -1.60522 0.373494 0
vt -0.60309 -1.81068 0
vt -0.60309 -0.278148 0
vt -0.769079 0.346988 0
vt -0.60309 0.373494 0
vt -0.795586 1.87952 0
vt -1.57872 1.87952 0
vt -3.08474 0.346988 0
vt 0.047788 0.295181 0
vt -0.735345 0.346988 0
vt 1.64417 0.295181 0
vt -1.60884 0.343373 0
vt -1.60522 0.346988 0
vt -0.599475 -0.278148 0
vt -0.599475 0.346988 0
vt -0.795586 0.373494 0
vt -1.57872 0.373494 0
vt 0.047788 0.346988 0
vt -0.60309 -0.251642 0
vt -0.599475 -0.251642 0
vt -0.60309 0.346988 0
vt -0.599475 -0.118317 0
vt -0.60309 -0.954461 0
vt -0.599475 -0.954461 0
vt -0.60309 -0.118317 0

# 6 vertex normals
vn 0 0.0254 0
vn 0 -0.0254 0
vn -0.0254 0 0
vn 0 0 0.0254
vn 0.0254 -0 -0
vn 0 -0 -0.0254

# Mesh 'mesh1_mesh1-geometry' with 4 faces
g mesh1_mesh1-geometry
usemtl material_0_2_8
f  1/1/1 2/2/1 3/3/1
f  2/2/1 1/1/1 4/4/1
f  5/5/2 6/6/2 7/7/2
f  6/6/2 5/5/2 8/8/2

# Mesh 'mesh1_mesh1-geometry' with 12 faces
g mesh1_mesh1-geometry
usemtl material_1_24
f  3/9/2 2/9/2 1/9/2
f  4/9/2 1/9/2 2/9/2
f  3/9/3 6/9/3 2/9/3
f  3/9/4 1/9/4 6/9/4
f  4/9/5 5/9/5 1/9/5
f  4/9/6 2/9/6 5/9/6
f  7/9/3 2/9/3 6/9/3
f  8/9/4 6/9/4 1/9/4
f  8/9/5 1/9/5 5/9/5
f  7/9/6 5/9/6 2/9/6
f  7/9/1 6/9/1 5/9/1
f  8/9/1 5/9/1 6/9/1

# Mesh 'mesh1_mesh1-geometry' with 4 faces
g mesh1_mesh1-geometry
usemtl material_2_3_8
f  2/10/5 6/11/5 3/12/5
f  1/13/3 5/14/3 4/15/3
f  6/11/5 2/10/5 7/16/5
f  5/14/3 1/13/3 8/17/3

# Mesh 'mesh1_mesh1-geometry' with 4 faces
g mesh1_mesh1-geometry
usemtl material_3_4_8
f  6/18/6 1/19/6 3/20/6
f  5/21/4 2/22/4 4/23/4
f  1/19/6 6/18/6 8/24/6
f  2/22/4 5/21/4 7/25/4

# Mesh 'mesh2_mesh2-geometry' with 28 faces
g mesh2_mesh2-geometry
usemtl material_4_1_8
f  9/26/1 10/27/1 11/28/1
f  10/27/1 9/26/1 12/29/1
f  10/30/5 13/31/5 11/32/5
f  13/33/6 9/34/6 11/35/6
f  9/36/3 14/37/3 12/38/3
f  14/39/4 10/40/4 12/41/4
f  15/42/5 13/31/5 10/30/5
f  9/34/6 13/33/6 16/43/6
f  16/44/3 14/37/3 9/36/3
f  10/40/4 14/39/4 15/45/4
f  15/42/5 17/46/5 13/31/5
f  13/28/1 18/47/1 16/26/1
f  18/48/3 14/37/3 16/44/3
f  14/49/2 19/50/2 15/51/2
f  19/52/5 17/46/5 15/42/5
f  18/47/1 13/28/1 17/53/1
f  18/48/3 20/54/3 14/37/3
f  19/50/2 14/49/2 20/55/2
f  19/52/5 21/56/5 17/46/5
f  21/40/4 18/57/4 17/58/4
f  20/54/3 18/48/3 22/59/3
f  22/34/6 19/60/6 20/61/6
f  21/56/5 19/52/5 23/62/5
f  18/57/4 21/40/4 24/41/4
f  24/63/3 22/59/3 18/48/3
f  19/60/6 22/34/6 23/35/6
f  22/64/1 21/53/1 23/65/1
f  21/53/1 22/64/1 24/47/1

# Mesh 'mesh2_mesh2-geometry' with 28 faces
g mesh2_mesh2-geometry
usemtl material_1_24
f  11//2 10//2 9//2
f  12//2 9//2 10//2
f  11//3 13//3 10//3
f  11//4 9//4 13//4
f  12//5 14//5 9//5
f  12//6 10//6 14//6
f  10//3 13//3 15//3
f  16//4 13//4 9//4
f  9//5 14//5 16//5
f  15//6 14//6 10//6
f  13//3 17//3 15//3
f  16//2 18//2 13//2
f  16//5 14//5 18//5
f  15//1 19//1 14//1
f  15//3 17//3 19//3
f  17//2 13//2 18//2
f  14//5 20//5 18//5
f  20//1 14//1 19//1
f  17//3 21//3 19//3
f  17//6 18//6 21//6
f  22//5 18//5 20//5
f  20//4 19//4 22//4
f  23//3 19//3 21//3
f  24//6 21//6 18//6
f  18//5 22//5 24//5
f  23//4 22//4 19//4
f  23//2 21//2 22//2
f  24//2 22//2 21//2

# Mesh 'mesh2_mesh2-geometry' with 28 faces
g mesh2_mesh2-geometry
usemtl material_4_1_8
f  25/26/1 26/27/1 27/28/1
f  26/27/1 25/26/1 28/29/1
f  26/30/5 29/31/5 27/32/5
f  29/33/6 25/34/6 27/35/6
f  25/36/3 30/37/3 28/38/3
f  30/39/4 26/40/4 28/41/4
f  31/42/5 29/31/5 26/30/5
f  25/34/6 29/33/6 32/43/6
f  32/44/3 30/37/3 25/36/3
f  26/40/4 30/39/4 31/45/4
f  31/42/5 33/46/5 29/31/5
f  29/28/1 34/47/1 32/26/1
f  34/48/3 30/37/3 32/44/3
f  30/49/2 35/50/2 31/51/2
f  35/52/5 33/46/5 31/42/5
f  34/47/1 29/28/1 33/53/1
f  34/48/3 36/54/3 30/37/3
f  35/50/2 30/49/2 36/55/2
f  35/52/5 37/56/5 33/46/5
f  37/40/4 34/57/4 33/58/4
f  36/54/3 34/48/3 38/59/3
f  38/34/6 35/60/6 36/61/6
f  37/56/5 35/52/5 39/62/5
f  34/57/4 37/40/4 40/41/4
f  40/63/3 38/59/3 34/48/3
f  35/60/6 38/34/6 39/35/6
f  38/64/1 37/53/1 39/65/1
f  37/53/1 38/64/1 40/47/1

# Mesh 'mesh2_mesh2-geometry' with 28 faces
g mesh2_mesh2-geometry
usemtl material_1_24
f  27//2 26//2 25//2
f  28//2 25//2 26//2
f  27//3 29//3 26//3
f  27//4 25//4 29//4
f  28//5 30//5 25//5
f  28//6 26//6 30//6
f  26//3 29//3 31//3
f  32//4 29//4 25//4
f  25//5 30//5 32//5
f  31//6 30//6 26//6
f  29//3 33//3 31//3
f  32//2 34//2 29//2
f  32//5 30//5 34//5
f  31//1 35//1 30//1
f  31//3 33//3 35//3
f  33//2 29//2 34//2
f  30//5 36//5 34//5
f  36//1 30//1 35//1
f  33//3 37//3 35//3
f  33//6 34//6 37//6
f  38//5 34//5 36//5
f  36//4 35//4 38//4
f  39//3 35//3 37//3
f  40//6 37//6 34//6
f  34//5 38//5 40//5
f  39//4 38//4 35//4
f  39//2 37//2 38//2
f  40//2 38//2 37//2

# Mesh 'mesh3_mesh3-geometry' with 80 faces
g mesh3_mesh3-geometry
usemtl material_4_1_8
f  28/66/3 41/67/3 38/62/3
f  41/67/3 28/66/3 42/68/3
f  41/69/6 43/70/6 38/71/6
f  43/72/2 28/73/2 38/74/2
f  28/66/4 44/75/4 42/68/4
f  42/76/1 45/77/1 41/78/1
f  43/70/6 41/69/6 46/79/6
f  47/80/2 28/73/2 43/72/2
f  44/75/4 28/66/4 48/81/4
f  44/82/1 45/77/1 42/76/1
f  49/83/1 41/78/1 45/77/1
f  41/78/1 50/84/1 46/85/1
f  46/79/6 51/86/6 43/70/6
f  52/87/2 28/73/2 47/80/2
f  51/88/2 47/80/2 43/72/2
f  52/87/2 48/89/2 28/73/2
f  48/81/4 53/90/4 44/75/4
f  45/77/1 44/82/1 54/91/1
f  50/84/1 41/78/1 49/83/1
f  45/92/3 55/93/3 49/94/3
f  56/95/1 46/85/1 50/84/1
f  51/86/6 46/79/6 57/96/6
f  47/97/5 58/98/5 52/99/5
f  51/88/2 59/100/2 47/80/2
f  60/101/2 48/89/2 52/87/2
f  53/90/4 48/81/4 61/102/4
f  53/103/1 54/91/1 44/82/1
f  62/104/4 45/105/4 54/106/4
f  55/107/6 50/108/6 49/109/6
f  55/93/3 45/92/3 63/110/3
f  46/85/1 56/95/1 57/111/1
f  64/112/6 56/113/6 50/108/6
f  57/96/6 23/62/6 51/86/6
f  58/98/5 47/97/5 65/114/5
f  58/98/6 60/115/6 52/99/6
f  23/62/2 59/100/2 51/88/2
f  66/116/4 47/97/4 59/117/4
f  48/89/2 60/101/2 61/118/2
f  61/102/4 67/119/4 53/90/4
f  54/91/1 53/103/1 68/120/1
f  45/105/4 62/104/4 63/121/4
f  54/106/4 69/122/4 62/104/4
f  50/108/6 55/107/6 64/112/6
f  62/91/1 55/83/1 63/77/1
f  70/123/1 57/111/1 56/95/1
f  56/113/6 64/112/6 71/124/6
f  23/62/6 57/96/6 72/67/6
f  47/97/4 66/116/4 65/114/4
f  65/125/1 55/83/1 58/126/1
f  60/115/6 58/98/6 73/127/6
f  23/62/2 61/118/2 59/100/2
f  60/128/3 66/129/3 59/86/3
f  59/100/2 61/118/2 60/101/2
f  67/119/4 61/102/4 10/130/4
f  67/131/1 74/132/1 53/103/1
f  53/103/1 74/132/1 68/120/1
f  69/122/4 54/106/4 68/133/4
f  69/120/1 58/126/1 62/91/1
f  55/83/1 65/125/1 64/84/1
f  58/126/1 55/83/1 62/91/1
f  70/123/1 72/67/1 57/111/1
f  71/124/6 70/134/6 56/113/6
f  64/84/1 66/135/1 71/95/1
f  67/131/5 23/62/5 72/67/5
f  66/135/1 64/84/1 65/125/1
f  58/126/1 69/120/1 73/136/1
f  66/129/3 60/128/3 73/137/3
f  61/118/2 23/62/2 10/30/2
f  23/62/5 67/131/5 10/30/5
f  74/132/1 67/131/1 70/123/1
f  75/138/4 68/133/4 74/139/4
f  68/133/4 75/138/4 69/122/4
f  72/67/1 70/123/1 67/131/1
f  70/134/6 71/124/6 76/140/6
f  69/120/1 71/95/1 66/135/1
f  69/120/1 66/135/1 73/136/1
f  70/141/5 75/142/5 74/143/5
f  75/132/1 71/95/1 69/120/1
f  71/95/1 75/132/1 76/123/1
f  75/142/5 70/141/5 76/144/5

# Mesh 'mesh3_mesh3-geometry' with 80 faces
g mesh3_mesh3-geometry
usemtl material_1_24
f  38//5 41//5 28//5
f  42//5 28//5 41//5
f  38//4 43//4 41//4
f  38//1 28//1 43//1
f  42//6 44//6 28//6
f  41//2 45//2 42//2
f  46//4 41//4 43//4
f  43//1 28//1 47//1
f  48//6 28//6 44//6
f  42//2 45//2 44//2
f  45//2 41//2 49//2
f  46//2 50//2 41//2
f  43//4 51//4 46//4
f  47//1 28//1 52//1
f  43//1 47//1 51//1
f  28//1 48//1 52//1
f  44//6 53//6 48//6
f  54//2 44//2 45//2
f  49//2 41//2 50//2
f  49//5 55//5 45//5
f  50//2 46//2 56//2
f  57//4 46//4 51//4
f  52//3 58//3 47//3
f  47//1 59//1 51//1
f  52//1 48//1 60//1
f  61//6 48//6 53//6
f  44//2 54//2 53//2
f  54//6 45//6 62//6
f  49//4 50//4 55//4
f  63//5 45//5 55//5
f  57//2 56//2 46//2
f  50//4 56//4 64//4
f  51//4 23//4 57//4
f  65//3 47//3 58//3
f  52//4 60//4 58//4
f  51//1 59//1 23//1
f  59//6 47//6 66//6
f  61//1 60//1 48//1
f  53//6 67//6 61//6
f  68//2 53//2 54//2
f  63//6 62//6 45//6
f  62//6 69//6 54//6
f  64//4 55//4 50//4
f  63//2 55//2 62//2
f  56//2 57//2 70//2
f  71//4 64//4 56//4
f  72//4 57//4 23//4
f  65//6 66//6 47//6
f  58//2 55//2 65//2
f  73//4 58//4 60//4
f  59//1 61//1 23//1
f  59//5 66//5 60//5
f  60//1 61//1 59//1
f  10//6 61//6 67//6
f  53//2 74//2 67//2
f  68//2 74//2 53//2
f  68//6 54//6 69//6
f  62//2 58//2 69//2
f  64//2 65//2 55//2
f  62//2 55//2 58//2
f  57//2 72//2 70//2
f  56//4 70//4 71//4
f  71//2 66//2 64//2
f  72//3 23//3 67//3
f  65//2 64//2 66//2
f  73//2 69//2 58//2
f  73//5 60//5 66//5
f  10//1 23//1 61//1
f  10//3 67//3 23//3
f  70//2 67//2 74//2
f  74//6 68//6 75//6
f  69//6 75//6 68//6
f  67//2 70//2 72//2
f  76//4 71//4 70//4
f  66//2 71//2 69//2
f  73//2 66//2 69//2
f  74//3 75//3 70//3
f  69//2 71//2 75//2
f  76//2 75//2 71//2
f  76//3 70//3 75//3

# Mesh 'mesh4_mesh4-geometry' with 1 faces
g mesh4_mesh4-geometry
usemtl material_1_0
l  34 77

# Mesh 'mesh5_mesh5-geometry' with 1 faces
g mesh5_mesh5-geometry
usemtl material_1_0
l  32 78

# Mesh 'mesh6_mesh6-geometry' with 1 faces
g mesh6_mesh6-geometry
usemtl material_1_0
l  29 79

# Mesh 'mesh7_mesh7-geometry' with 1 faces
g mesh7_mesh7-geometry
usemtl material_1_0
l  33 80

# Mesh 'mesh8_mesh8-geometry' with 1 faces
g mesh8_mesh8-geometry
usemtl material_1_0
l  17 81

# Mesh 'mesh9_mesh9-geometry' with 3 faces
g mesh9_mesh9-geometry
usemtl material_1_0
l  13 82
l  82 18
l  18 83

# Mesh 'mesh10_mesh10-geometry' with 1 faces
g mesh10_mesh10-geometry
usemtl material_1_0
l  16 84

