# File produced by Open Asset Import Library (http://www.assimp.sf.net)
# (assimp v3.2.202087883)

mtllib model_normalized.mtl

# 46 vertex positions
v -0.413297 0.119361 0.252782
v 0.381663 0.119361 -0.272700
v 0.381663 0.119361 0.252782
v -0.413297 0.119361 -0.272700
v 0.381663 0.153046 0.252782
v -0.413297 0.153046 -0.272700
v 0.381663 0.153046 -0.272700
v -0.413297 0.153046 0.252782
v 0.347978 0.119361 0.219097
v 0.381663 0.119361 0.219097
v 0.347978 0.119361 0.252782
v 0.381663 -0.150117 0.219097
v 0.347978 -0.150117 0.252782
v 0.381663 -0.150117 0.252782
v 0.347978 -0.150117 0.219097
v -0.413297 0.119361 0.219097
v -0.379612 0.119361 0.252782
v -0.379612 0.119361 0.219097
v -0.379612 -0.150117 0.219097
v -0.413297 -0.150117 0.252782
v -0.379612 -0.150117 0.252782
v -0.413297 -0.150117 0.219097
v 0.347978 0.119361 -0.272700
v 0.381663 0.119361 -0.239015
v 0.347978 0.119361 -0.239015
v 0.381663 -0.150117 -0.272700
v 0.347978 -0.150117 -0.239015
v 0.381663 -0.150117 -0.239015
v 0.347978 -0.150117 -0.272700
v -0.379612 0.119361 -0.239015
v -0.379612 0.119361 -0.272700
v -0.413297 0.119361 -0.239015
v -0.379612 -0.150117 -0.272700
v -0.413297 -0.150117 -0.239015
v -0.379612 -0.150117 -0.239015
v -0.413297 -0.150117 -0.272700
v -0.413297 -0.008641 -0.239015
v -0.413297 -0.015378 0.219097
v -0.413297 -0.008641 0.219097
v -0.413297 -0.015378 -0.239015
v 0.347978 -0.008641 0.219097
v 0.381663 -0.015378 -0.239015
v 0.347978 -0.015378 0.219097
v 0.381663 -0.008641 0.219097
v 0.381663 -0.008641 -0.239015
v 0.381663 -0.015378 0.219097

# 0 UV coordinates

# 6 vertex normals
vn 0 -0.001 -0
vn 0 0.001 0
vn 0.001 0 0
vn -0.001 0 0
vn 0 0 0.001
vn 0 0 -0.001

# Mesh 'mesh1_mesh1-geometry' with 24 faces
g mesh1_mesh1-geometry
usemtl material_0_24
f  1//1 2//1 3//1
f  2//1 1//1 4//1
f  3//2 2//2 1//2
f  4//2 1//2 2//2
f  2//3 5//3 3//3
f  3//4 5//4 2//4
f  5//5 1//5 3//5
f  3//6 1//6 5//6
f  1//4 6//4 4//4
f  4//3 6//3 1//3
f  6//6 2//6 4//6
f  4//5 2//5 6//5
f  5//3 2//3 7//3
f  7//4 2//4 5//4
f  1//5 5//5 8//5
f  8//6 5//6 1//6
f  6//4 1//4 8//4
f  8//3 1//3 6//3
f  2//6 6//6 7//6
f  7//5 6//5 2//5
f  6//2 5//2 7//2
f  7//1 5//1 6//1
f  5//2 6//2 8//2
f  8//1 6//1 5//1

# Mesh 'mesh2_mesh2-geometry' with 12 faces
g mesh2_mesh2-geometry
usemtl material_1_0
l  2 3
l  4 2
l  7 2
l  3 1
l  5 3
l  1 4
l  6 4
l  6 7
l  7 5
l  8 1
l  5 8
l  8 6

# Mesh 'mesh3_mesh3-geometry' with 24 faces
g mesh3_mesh3-geometry
usemtl material_0_24
f  9//2 3//2 10//2
f  3//2 9//2 11//2
f  10//1 3//1 9//1
f  11//1 9//1 3//1
f  3//3 12//3 10//3
f  10//4 12//4 3//4
f  12//6 9//6 10//6
f  10//5 9//5 12//5
f  9//4 13//4 11//4
f  11//3 13//3 9//3
f  13//5 3//5 11//5
f  11//6 3//6 13//6
f  12//3 3//3 14//3
f  14//4 3//4 12//4
f  9//6 12//6 15//6
f  15//5 12//5 9//5
f  13//4 9//4 15//4
f  15//3 9//3 13//3
f  3//5 13//5 14//5
f  14//6 13//6 3//6
f  13//1 12//1 14//1
f  14//2 12//2 13//2
f  12//1 13//1 15//1
f  15//2 13//2 12//2

# Mesh 'mesh4_mesh4-geometry' with 12 faces
g mesh4_mesh4-geometry
usemtl material_1_0
l  3 11
l  10 3
l  3 14
l  11 9
l  11 13
l  9 10
l  10 12
l  14 13
l  12 14
l  9 15
l  13 15
l  15 12

# Mesh 'mesh5_mesh5-geometry' with 24 faces
g mesh5_mesh5-geometry
usemtl material_0_24
f  16//2 17//2 18//2
f  17//2 16//2 1//2
f  18//1 17//1 16//1
f  1//1 16//1 17//1
f  17//3 19//3 18//3
f  18//4 19//4 17//4
f  19//6 16//6 18//6
f  18//5 16//5 19//5
f  16//4 20//4 1//4
f  1//3 20//3 16//3
f  20//5 17//5 1//5
f  1//6 17//6 20//6
f  19//3 17//3 21//3
f  21//4 17//4 19//4
f  16//6 19//6 22//6
f  22//5 19//5 16//5
f  20//4 16//4 22//4
f  22//3 16//3 20//3
f  17//5 20//5 21//5
f  21//6 20//6 17//6
f  20//1 19//1 21//1
f  21//2 19//2 20//2
f  19//1 20//1 22//1
f  22//2 20//2 19//2

# Mesh 'mesh6_mesh6-geometry' with 12 faces
g mesh6_mesh6-geometry
usemtl material_1_0
l  17 1
l  18 17
l  17 21
l  1 16
l  1 20
l  16 18
l  18 19
l  21 20
l  19 21
l  16 22
l  20 22
l  22 19

# Mesh 'mesh7_mesh7-geometry' with 24 faces
g mesh7_mesh7-geometry
usemtl material_0_24
f  23//2 24//2 2//2
f  24//2 23//2 25//2
f  2//1 24//1 23//1
f  25//1 23//1 24//1
f  24//3 26//3 2//3
f  2//4 26//4 24//4
f  26//6 23//6 2//6
f  2//5 23//5 26//5
f  23//4 27//4 25//4
f  25//3 27//3 23//3
f  27//5 24//5 25//5
f  25//6 24//6 27//6
f  26//3 24//3 28//3
f  28//4 24//4 26//4
f  23//6 26//6 29//6
f  29//5 26//5 23//5
f  27//4 23//4 29//4
f  29//3 23//3 27//3
f  24//5 27//5 28//5
f  28//6 27//6 24//6
f  27//1 26//1 28//1
f  28//2 26//2 27//2
f  26//1 27//1 29//1
f  29//2 27//2 26//2

# Mesh 'mesh8_mesh8-geometry' with 12 faces
g mesh8_mesh8-geometry
usemtl material_1_0
l  24 25
l  2 24
l  24 28
l  25 23
l  25 27
l  23 2
l  2 26
l  28 27
l  26 28
l  23 29
l  27 29
l  29 26

# Mesh 'mesh9_mesh9-geometry' with 24 faces
g mesh9_mesh9-geometry
usemtl material_0_24
f  4//2 30//2 31//2
f  30//2 4//2 32//2
f  31//1 30//1 4//1
f  32//1 4//1 30//1
f  30//3 33//3 31//3
f  31//4 33//4 30//4
f  33//6 4//6 31//6
f  31//5 4//5 33//5
f  4//4 34//4 32//4
f  32//3 34//3 4//3
f  34//5 30//5 32//5
f  32//6 30//6 34//6
f  33//3 30//3 35//3
f  35//4 30//4 33//4
f  4//6 33//6 36//6
f  36//5 33//5 4//5
f  34//4 4//4 36//4
f  36//3 4//3 34//3
f  30//5 34//5 35//5
f  35//6 34//6 30//6
f  34//1 33//1 35//1
f  35//2 33//2 34//2
f  33//1 34//1 36//1
f  36//2 34//2 33//2

# Mesh 'mesh10_mesh10-geometry' with 12 faces
g mesh10_mesh10-geometry
usemtl material_1_0
l  30 32
l  31 30
l  30 35
l  32 4
l  32 34
l  4 31
l  31 33
l  35 34
l  33 35
l  4 36
l  34 36
l  36 33

# Mesh 'mesh11_mesh11-geometry' with 32 faces
g mesh11_mesh11-geometry
usemtl material_0_24
f  37//4 38//4 39//4
f  38//4 37//4 40//4
f  39//3 38//3 37//3
f  40//3 37//3 38//3
f  38//5 41//5 39//5
f  39//6 41//6 38//6
f  41//2 37//2 39//2
f  39//1 37//1 41//1
f  37//6 42//6 40//6
f  40//5 42//5 37//5
f  40//1 43//1 38//1
f  38//2 43//2 40//2
f  41//5 38//5 43//5
f  43//6 38//6 41//6
f  44//2 37//2 41//2
f  41//1 37//1 44//1
f  42//6 37//6 45//6
f  45//5 37//5 42//5
f  42//1 43//1 40//1
f  40//2 43//2 42//2
f  43//5 44//5 41//5
f  41//6 44//6 43//6
f  37//2 44//2 45//2
f  45//1 44//1 37//1
f  44//3 42//3 45//3
f  45//4 42//4 44//4
f  43//1 42//1 46//1
f  46//2 42//2 43//2
f  44//5 43//5 46//5
f  46//6 43//6 44//6
f  42//3 44//3 46//3
f  46//4 44//4 42//4

# Mesh 'mesh12_mesh12-geometry' with 1 faces
g mesh12_mesh12-geometry
usemtl material_1_0
l  15 43

