# File produced by Open Asset Import Library (http://www.assimp.sf.net)
# (assimp v3.2.202087883)

mtllib model_normalized.mtl

# 130 vertex positions
v -0.246208 -0.005887 -0.365329
v 0.402178 -0.044299 -0.365329
v -0.246208 -0.044299 -0.365329
v 0.402178 -0.005887 -0.365329
v -0.246208 -0.028202 -0.130723
v 0.170782 -0.005887 -0.345002
v 0.402178 -0.005887 -0.237213
v -0.246208 -0.044299 0.080663
v -0.246208 -0.005887 -0.237213
v 0.105943 -0.005887 -0.345002
v 0.402178 -0.044299 0.080663
v -0.246208 -0.039573 0.076451
v -0.246208 -0.010738 -0.130723
v 0.041105 -0.005887 -0.237213
v 0.170782 -0.005887 -0.237213
v 0.041105 -0.005887 -0.345002
v 0.402178 -0.039573 0.076451
v -0.246208 -0.010098 0.078151
v -0.246208 -0.033918 0.073607
v -0.246208 -0.005887 0.059509
v 0.041105 -0.005887 -0.321761
v 0.170782 -0.005887 -0.321761
v 0.402178 -0.005887 0.059509
v 0.402178 -0.010098 0.078151
v -0.246208 -0.047774 0.085953
v -0.246208 -0.015389 0.074676
v -0.246208 -0.005887 0.082877
v -0.246208 -0.028202 0.070733
v -0.246208 -0.010738 0.070733
v 0.402178 -0.033918 0.073607
v 0.402178 -0.015389 0.074676
v 0.402178 -0.005887 0.082877
v 0.402178 -0.047774 0.085953
v -0.246208 -0.021399 0.072688
v -0.246208 -0.027719 0.072324
v 0.402178 -0.027719 0.072324
v -0.246208 -0.049762 0.091964
v -0.246208 -0.003043 0.088532
v 0.402178 -0.021399 0.072688
v 0.402178 -0.003043 0.088532
v 0.402178 -0.029611 0.076520
v -0.246208 0.429670 0.199584
v 0.402178 -0.049762 0.091964
v -0.246208 -0.029611 0.076520
v 0.402178 -0.036627 0.102701
v 0.402178 0.429670 0.199584
v -0.246208 -0.036627 0.102701
v -0.246208 -0.050126 0.098283
v -0.246208 -0.001759 0.094730
v 0.402178 -0.001759 0.094730
v 0.402178 0.422655 0.225765
v -0.246208 0.422655 0.225765
v 0.402178 -0.050126 0.098283
v -0.246208 -0.048842 0.104481
v -0.246208 -0.002124 0.101050
v 0.402178 -0.002124 0.101050
v 0.402178 -0.048842 0.104481
v -0.246208 -0.045998 0.110136
v -0.246208 -0.004111 0.107061
v 0.402178 -0.004111 0.107061
v 0.402178 -0.045998 0.110136
v -0.246208 -0.041787 0.114864
v -0.246208 -0.007586 0.112352
v 0.402178 -0.007586 0.112352
v 0.402178 -0.041787 0.114864
v 0.402178 -0.036496 0.118339
v -0.246208 -0.012313 0.116562
v 0.402178 -0.012313 0.116562
v -0.246208 -0.036496 0.118339
v 0.402178 -0.030486 0.120326
v 0.402178 -0.017968 0.119406
v -0.246208 -0.017968 0.119406
v -0.246208 -0.030486 0.120326
v 0.402178 -0.024166 0.120691
v -0.246208 -0.024166 0.120691
v 0.170782 -0.044299 -0.321761
v 0.105943 -0.044299 -0.321761
v 0.170782 -0.044299 -0.235309
v 0.041105 -0.044299 -0.235309
v 0.041105 -0.044299 -0.321761
v 0.105943 -0.005887 -0.321761
v -0.246208 -0.022377 -0.123012
v 0.041105 -0.005887 -0.235309
v -0.246208 -0.016340 -0.123012
v 0.170782 -0.005887 -0.235309
v -0.246208 -0.022377 -0.116976
v -0.246208 -0.016340 -0.116976
v -0.225307 -0.010098 0.079805
v -0.225451 -0.010098 0.075955
v -0.225126 -0.010098 0.077870
v -0.225982 -0.010098 0.081626
v -0.226263 -0.010098 0.074191
v -0.227106 -0.010098 0.083210
v -0.227502 -0.010098 0.072695
v -0.228601 -0.010098 0.084451
v -0.229086 -0.010098 0.071570
v -0.230366 -0.010098 0.085261
v -0.230909 -0.010098 0.070896
v -0.232282 -0.010098 0.085586
v -0.232842 -0.010098 0.070714
v -0.234216 -0.010098 0.085405
v -0.234757 -0.010098 0.071041
v -0.236038 -0.010098 0.084730
v -0.236523 -0.010098 0.071851
v -0.237623 -0.010098 0.083607
v -0.238017 -0.010098 0.073091
v -0.238862 -0.010098 0.082111
v -0.239142 -0.010098 0.074676
v -0.239672 -0.010098 0.080346
v -0.239818 -0.010098 0.076497
v -0.239998 -0.010098 0.078430
v 0.364365 -0.005887 -0.207096
v -0.210504 -0.005887 -0.207096
v 0.364365 -0.005887 0.019922
v -0.210504 -0.005887 0.019922
v 0.383070 0.015383 0.088576
v -0.223433 0.015383 0.088576
v 0.383070 0.381531 0.186685
v -0.223433 0.381531 0.186685
v -0.246208 -0.005887 0.110153
v 0.272500 -0.005887 0.110153
v -0.246208 -0.044299 0.110153
v 0.272500 -0.044299 0.110153
v 0.078681 -0.044299 -0.244121
v 0.078681 -0.044299 -0.157669
v 0.078681 -0.005887 -0.244121
v 0.013842 -0.044299 -0.244121
v 0.078681 -0.005887 -0.157669
v 0.013842 -0.005887 -0.244121
v -0.050997 -0.044299 -0.244121

# 4 UV coordinates
vt 0 0 0
vt 1 0 0
vt 0 1 0
vt 1 1 0

# 42 vertex normals
vn 0 0 -0.0254
vn -0.0254 0 0
vn 0 0.0254 0
vn 0.0254 0 0
vn 0 -0.0142772 -0.0210076
vn 0 -0.0168971 -0.0189644
vn -0 -0.0212297 -0.0139449
vn -0 -0.0228683 -0.0110545
vn 0 -0.00835358 -0.023987
vn 0 0.0165966 -0.0192279
vn 0 0.0110545 -0.0228683
vn 0 0.0182795 -0.0176358
vn 0 -0.0249502 -0.0047591
vn 0 0.0047591 -0.0249502
vn 0 0.023987 -0.00835358
vn 0 0.006574 -0.0245345
vn 0 -0.0182795 0.0176358
vn 0 -0.006574 0.0245345
vn -0 -0.00186065 -0.0253318
vn 0 -0.0253318 0.00186065
vn 0 0.0253318 -0.00186065
vn 0 -0.0245345 -0.006574
vn 0 0.0245345 0.006574
vn 0 -0.023987 0.00835358
vn 0 0.0249502 0.0047591
vn 0 -0.0210076 0.0142772
vn 0 0.0228683 0.0110545
vn 0 -0.0165966 0.0192279
vn 0 0.0192279 0.0165966
vn 0 -0.0110545 0.0228683
vn 0 0.0142772 0.0210076
vn 0 -0.0047591 0.0249502
vn 0 0.00835358 0.023987
vn 0 0.00186065 0.0253318
vn 0 0 0.0254
vn 0 -0.0254 0
vn 0 0.0168971 0.0189644
vn 0 0.0212297 0.0139449
vn 0 0.00125715 0.0253689
vn 0 0.0210076 -0.0142772
vn -0 -0.0192279 -0.0165966
vn -0 -0.00125715 -0.0253689

# Mesh 'mesh1_mesh1-geometry' with 161 faces
g mesh1_mesh1-geometry
usemtl material_0_24
f  1//1 2//1 3//1
f  2//1 1//1 4//1
f  3//2 5//2 1//2
f  6//3 4//3 1//3
f  7//4 2//4 4//4
f  5//2 3//2 8//2
f  1//2 5//2 9//2
f  4//3 6//3 7//3
f  6//3 1//3 10//3
f  2//4 7//4 11//4
f  5//2 8//2 12//2
f  13//2 9//2 5//2
f  14//3 1//3 9//3
f  6//3 15//3 7//3
f  10//3 1//3 16//3
f  11//4 7//4 17//4
f  12//5 11//6 8//6
f  18//2 12//2 8//2
f  5//2 12//2 19//2
f  9//2 13//2 20//2
f  21//3 1//3 14//3
f  15//3 6//3 22//3
f  16//3 1//3 21//3
f  17//4 7//4 23//4
f  17//4 24//4 11//4
f  11//6 12//5 17//5
f  11//7 25//8 8//7
f  26//2 12//2 18//2
f  18//2 8//2 27//2
f  19//9 17//5 12//5
f  26//2 19//2 12//2
f  5//2 19//2 28//2
f  20//2 13//2 29//2
f  17//4 23//4 30//4
f  17//4 31//4 24//4
f  11//4 24//4 32//4
f  25//8 11//7 33//8
f  27//2 8//2 25//2
f  18//10 31//11 26//11
f  18//2 29//2 26//2
f  32//12 18//10 27//12
f  27//2 29//2 18//2
f  17//5 19//9 30//9
f  34//2 19//2 26//2
f  28//2 19//2 35//2
f  20//2 29//2 27//2
f  30//4 23//4 36//4
f  30//4 31//4 17//4
f  31//11 18//10 24//10
f  31//4 23//4 24//4
f  18//10 32//12 24//10
f  24//4 23//4 32//4
f  11//4 32//4 33//4
f  33//8 37//13 25//8
f  27//2 25//2 38//2
f  39//14 26//11 31//11
f  26//2 29//2 34//2
f  27//12 40//15 32//12
f  41//16 27//12 32//12
f  32//17 27//17 41//18
f  42//16 32//12 27//12
f  27//17 32//17 42//18
f  35//19 30//9 19//9
f  19//2 34//2 35//2
f  26//11 39//14 34//14
f  28//2 35//2 29//2
f  23//4 39//4 36//4
f  39//4 30//4 36//4
f  30//9 35//19 36//19
f  30//4 39//4 31//4
f  39//4 23//4 31//4
f  33//4 32//4 40//4
f  37//13 33//8 43//13
f  38//2 25//2 37//2
f  40//15 27//12 38//15
f  34//2 29//2 35//2
f  27//12 41//16 44//16
f  44//18 41//18 27//17
f  32//4 45//4 41//4
f  41//2 45//2 32//2
f  32//12 42//16 46//16
f  46//18 42//18 32//17
f  27//2 47//2 42//2
f  42//4 47//4 27//4
f  34//14 36//19 35//19
f  36//19 34//14 39//14
f  33//4 40//4 43//4
f  43//13 48//20 37//13
f  38//2 37//2 49//2
f  38//15 50//21 40//15
f  41//22 47//22 44//22
f  44//23 47//23 41//23
f  47//2 27//2 44//2
f  44//4 27//4 47//4
f  45//4 32//4 46//4
f  46//2 32//2 45//2
f  47//22 41//22 45//22
f  45//23 41//23 47//23
f  42//23 51//23 46//23
f  46//22 51//22 42//22
f  42//2 47//2 52//2
f  52//4 47//4 42//4
f  43//4 40//4 50//4
f  48//20 43//13 53//20
f  49//2 37//2 48//2
f  50//21 38//15 49//21
f  45//4 46//4 51//4
f  51//2 46//2 45//2
f  51//18 47//18 45//18
f  45//16 47//16 51//16
f  51//23 42//23 52//23
f  52//22 42//22 51//22
f  47//18 51//18 52//18
f  52//16 51//16 47//16
f  43//4 50//4 53//4
f  53//20 54//24 48//20
f  49//2 48//2 55//2
f  49//21 56//25 50//21
f  53//4 50//4 56//4
f  54//24 53//20 57//24
f  55//2 48//2 54//2
f  56//25 49//21 55//25
f  53//4 56//4 57//4
f  57//24 58//26 54//24
f  55//2 54//2 59//2
f  55//25 60//27 56//25
f  57//4 56//4 60//4
f  58//26 57//24 61//26
f  59//2 54//2 58//2
f  60//27 55//25 59//27
f  57//4 60//4 61//4
f  61//26 62//28 58//26
f  59//2 58//2 63//2
f  59//27 64//29 60//27
f  61//4 60//4 64//4
f  62//28 61//26 65//28
f  63//2 58//2 62//2
f  64//29 59//27 63//29
f  61//4 64//4 65//4
f  66//30 62//28 65//28
f  63//2 62//2 67//2
f  67//31 64//29 63//29
f  65//4 64//4 68//4
f  62//28 66//30 69//30
f  65//4 68//4 66//4
f  67//2 62//2 69//2
f  64//29 67//31 68//31
f  70//32 69//30 66//30
f  66//4 68//4 71//4
f  67//2 69//2 72//2
f  72//33 68//31 67//31
f  69//30 70//32 73//32
f  66//4 71//4 70//4
f  68//31 72//33 71//33
f  72//2 69//2 73//2
f  74//34 73//32 70//32
f  70//4 71//4 74//4
f  75//34 71//33 72//33
f  72//2 73//2 75//2
f  73//32 74//34 75//34
f  71//33 75//34 74//34

# Mesh 'mesh1_mesh1-geometry' with 184 faces
g mesh1_mesh1-geometry
usemtl material_1_24
f  3//35 2//35 1//35
f  4//35 1//35 2//35
f  3//3 76//3 2//3
f  1//4 5//4 3//4
f  1//36 4//36 6//36
f  4//2 2//2 7//2
f  11//3 2//3 76//3
f  77//3 76//3 3//3
f  8//4 3//4 5//4
f  9//4 5//4 1//4
f  7//36 6//36 4//36
f  10//36 1//36 6//36
f  11//2 7//2 2//2
f  78//3 11//3 76//3
f  76//1 77//1 22//1
f  77//3 79//3 76//3
f  80//3 77//3 3//3
f  8//3 80//3 3//3
f  12//4 8//4 5//4
f  5//4 9//4 13//4
f  9//36 1//36 14//36
f  7//36 15//36 6//36
f  16//36 1//36 10//36
f  6//36 22//36 10//36
f  17//2 7//2 11//2
f  11//3 78//3 8//3
f  78//3 76//3 79//3
f  78//2 22//2 76//2
f  76//4 22//4 78//4
f  81//1 22//1 77//1
f  80//3 79//3 77//3
f  81//35 80//35 77//35
f  77//1 80//1 81//1
f  80//3 8//3 79//3
f  8//37 11//37 12//31
f  8//4 12//4 18//4
f  19//4 12//4 5//4
f  20//4 13//4 9//4
f  13//4 82//4 5//4
f  14//36 1//36 21//36
f  14//36 83//36 9//36
f  22//36 6//36 15//36
f  7//36 23//36 15//36
f  21//36 1//36 16//36
f  10//36 81//36 16//36
f  81//36 10//36 22//36
f  23//2 7//2 17//2
f  11//2 24//2 17//2
f  17//31 12//31 11//37
f  79//3 8//3 78//3
f  8//38 25//27 11//38
f  79//39 78//39 14//39
f  22//2 78//2 15//2
f  15//4 78//4 22//4
f  22//36 15//36 81//36
f  80//4 14//4 79//4
f  79//2 14//2 80//2
f  80//35 81//35 21//35
f  21//1 81//1 80//1
f  18//4 12//4 26//4
f  27//4 8//4 18//4
f  12//31 17//31 19//33
f  12//4 19//4 26//4
f  28//4 19//4 5//4
f  29//4 13//4 20//4
f  9//36 83//36 20//36
f  28//4 5//4 82//4
f  82//4 13//4 84//4
f  21//36 81//36 14//36
f  14//4 80//4 21//4
f  21//2 80//2 14//2
f  83//36 14//36 85//36
f  85//36 15//36 23//36
f  21//36 16//36 81//36
f  30//2 23//2 17//2
f  24//2 31//2 17//2
f  32//2 24//2 11//2
f  33//27 11//38 25//27
f  25//4 8//4 27//4
f  15//39 14//39 78//39
f  14//36 81//36 15//36
f  26//30 31//30 18//28
f  26//4 29//4 18//4
f  27//17 18//28 32//17
f  18//4 29//4 27//4
f  30//33 19//33 17//31
f  26//4 19//4 34//4
f  35//4 19//4 28//4
f  29//4 84//4 13//4
f  27//4 29//4 20//4
f  83//36 85//36 20//36
f  86//4 28//4 82//4
f  82//4 84//4 86//4
f  15//36 85//36 14//36
f  20//36 85//36 23//36
f  36//2 23//2 30//2
f  17//2 31//2 30//2
f  24//28 18//28 31//30
f  24//2 23//2 31//2
f  24//28 32//17 18//28
f  32//2 23//2 24//2
f  33//2 32//2 11//2
f  25//27 37//25 33//27
f  38//4 25//4 27//4
f  31//30 26//30 39//32
f  34//4 29//4 26//4
f  32//17 40//24 27//17
f  27//17 20//36 32//17
f  19//33 30//33 35//34
f  35//4 34//4 19//4
f  34//32 39//32 26//30
f  29//4 35//4 28//4
f  87//4 84//4 29//4
f  87//4 28//4 86//4
f  87//4 86//4 84//4
f  23//36 32//17 20//36
f  36//2 39//2 23//2
f  36//2 30//2 39//2
f  36//34 35//34 30//33
f  31//2 39//2 30//2
f  31//2 23//2 39//2
f  40//2 32//2 33//2
f  43//25 33//27 37//25
f  37//4 25//4 38//4
f  38//24 27//17 40//24
f  35//4 29//4 34//4
f  35//34 36//34 34//32
f  39//32 34//32 36//34
f  28//4 87//4 29//4
f  43//2 40//2 33//2
f  37//25 48//21 43//25
f  49//4 37//4 38//4
f  40//24 50//20 38//24
f  50//2 40//2 43//2
f  53//21 43//25 48//21
f  48//4 37//4 49//4
f  49//20 38//24 50//20
f  53//2 50//2 43//2
f  48//21 54//15 53//21
f  55//4 48//4 49//4
f  50//20 56//13 49//20
f  56//2 50//2 53//2
f  57//15 53//21 54//15
f  54//4 48//4 55//4
f  55//13 49//20 56//13
f  57//2 56//2 53//2
f  54//15 58//40 57//15
f  59//4 54//4 55//4
f  56//13 60//8 55//13
f  60//2 56//2 57//2
f  61//40 57//15 58//40
f  58//4 54//4 59//4
f  59//8 55//13 60//8
f  61//2 60//2 57//2
f  58//40 62//10 61//40
f  63//4 58//4 59//4
f  60//8 64//41 59//8
f  64//2 60//2 61//2
f  65//10 61//40 62//10
f  62//4 58//4 63//4
f  63//41 59//8 64//41
f  65//2 64//2 61//2
f  65//10 62//10 66//11
f  67//4 62//4 63//4
f  63//41 64//41 67//5
f  68//2 64//2 65//2
f  69//11 66//11 62//10
f  66//2 68//2 65//2
f  69//4 62//4 67//4
f  68//5 67//5 64//41
f  66//11 69//11 70//14
f  71//2 68//2 66//2
f  72//4 69//4 67//4
f  67//5 68//5 72//9
f  73//14 70//14 69//11
f  70//2 71//2 66//2
f  71//9 72//9 68//5
f  73//4 69//4 72//4
f  70//14 73//14 74//19
f  74//2 71//2 70//2
f  72//9 71//9 75//19
f  75//4 73//4 72//4
f  75//19 74//19 73//14
f  74//19 75//19 71//9

# Mesh 'mesh1_mesh1-geometry' with 16 faces
g mesh1_mesh1-geometry
usemtl material_5_24
f  2//36 76//36 3//36
f  76//36 2//36 11//36
f  3//36 76//36 77//36
f  76//36 11//36 78//36
f  22//35 77//35 76//35
f  76//36 79//36 77//36
f  3//36 77//36 80//36
f  3//36 80//36 8//36
f  8//36 78//36 11//36
f  79//36 76//36 78//36
f  77//35 22//35 81//35
f  77//36 79//36 80//36
f  79//36 8//36 80//36
f  78//36 8//36 79//36
f  14//42 78//42 79//42
f  78//42 14//42 15//42

# Mesh 'mesh1_mesh1-geometry' with 4 faces
g mesh1_mesh1-geometry
usemtl material_6_24
f  10//3 22//3 6//3
f  16//3 81//3 10//3
f  22//3 10//3 81//3
f  81//3 16//3 21//3

# Mesh 'mesh1_mesh1-geometry' with 8 faces
g mesh1_mesh1-geometry
usemtl material_3_24
f  5//2 82//2 13//2
f  82//2 5//2 28//2
f  84//2 13//2 82//2
f  13//2 84//2 29//2
f  82//2 28//2 86//2
f  29//2 84//2 87//2
f  86//2 28//2 87//2
f  29//2 87//2 28//2

# Mesh 'mesh1_mesh1-geometry' with 13 faces
g mesh1_mesh1-geometry
usemtl material_2_24
f  9//3 83//3 14//3
f  15//3 23//3 7//3
f  81//3 15//3 22//3
f  20//3 83//3 9//3
f  14//3 81//3 21//3
f  85//3 14//3 83//3
f  23//3 15//3 85//3
f  15//3 81//3 14//3
f  20//3 85//3 83//3
f  14//3 85//3 15//3
f  23//3 85//3 20//3
f  32//12 20//3 27//12
f  20//3 32//12 23//3

# Mesh 'mesh1_mesh1-geometry' with 2 faces
g mesh1_mesh1-geometry
usemtl material_4_24
f  86//2 84//2 82//2
f  84//2 86//2 87//2

# Mesh 'mesh2_mesh2-geometry' with 44 faces
g mesh2_mesh2-geometry
usemtl material_1_24
f  88//36 89//36 90//36
f  89//36 88//36 91//36
f  90//3 89//3 88//3
f  91//3 88//3 89//3
f  89//36 91//36 92//36
f  92//3 91//3 89//3
f  92//36 91//36 93//36
f  93//3 91//3 92//3
f  92//36 93//36 94//36
f  94//3 93//3 92//3
f  94//36 93//36 95//36
f  95//3 93//3 94//3
f  94//36 95//36 96//36
f  96//3 95//3 94//3
f  96//36 95//36 97//36
f  97//3 95//3 96//3
f  96//36 97//36 98//36
f  98//3 97//3 96//3
f  98//36 97//36 99//36
f  99//3 97//3 98//3
f  98//36 99//36 100//36
f  100//3 99//3 98//3
f  100//36 99//36 101//36
f  101//3 99//3 100//3
f  100//36 101//36 102//36
f  102//3 101//3 100//3
f  102//36 101//36 103//36
f  103//3 101//3 102//3
f  102//36 103//36 104//36
f  104//3 103//3 102//3
f  104//36 103//36 105//36
f  105//3 103//3 104//3
f  104//36 105//36 106//36
f  106//3 105//3 104//3
f  106//36 105//36 107//36
f  107//3 105//3 106//3
f  106//36 107//36 108//36
f  108//3 107//3 106//3
f  108//36 107//36 109//36
f  109//3 107//3 108//3
f  108//36 109//36 110//36
f  110//3 109//3 108//3
f  110//36 109//36 111//36
f  111//3 109//3 110//3

# Mesh 'mesh3_mesh3-geometry' with 4 faces
g mesh3_mesh3-geometry
usemtl material_1_1_0
f  112/1/3 113/2/3 114/3/3
f  112/1/36 114/3/36 113/2/36
f  115/4/3 114/3/3 113/2/3
f  115/4/36 113/2/36 114/3/36

# Mesh 'mesh4_mesh4-geometry' with 4 faces
g mesh4_mesh4-geometry
usemtl material_1_2_0
f  116/1/16 117/2/16 118/3/16
f  116/1/18 118/3/18 117/2/18
f  119/4/16 118/3/16 117/2/16
f  119/4/18 117/2/18 118/3/18

# Mesh 'mesh5_mesh5-geometry' with 1 faces
g mesh5_mesh5-geometry
usemtl material_1_0
l  120 121

# Mesh 'mesh6_mesh6-geometry' with 1 faces
g mesh6_mesh6-geometry
usemtl material_1_0
l  122 123

# Mesh 'mesh7_mesh7-geometry' with 6 faces
g mesh7_mesh7-geometry
usemtl material_1_0
l  124 125
l  126 124
l  127 124
l  128 125
l  129 127
l  130 127

# Mesh 'mesh8_mesh8-geometry' with 1 faces
g mesh8_mesh8-geometry
usemtl material_1_0
l  21 80

