# File produced by Open Asset Import Library (http://www.assimp.sf.net)
# (assimp v3.2.202087883)

mtllib model_normalized.mtl

# 103 vertex positions
v -0.346178 0.106044 -0.121122
v -0.371471 0.106044 -0.121122
v -0.346178 0.158671 -0.121122
v -0.424097 0.158671 -0.121122
v -0.346178 0.158671 0.159565
v -0.371471 0.075324 0.160179
v -0.346178 0.075324 0.160179
v -0.371471 0.158671 0.159565
v -0.345894 0.106044 -0.121122
v -0.345894 0.075324 0.160179
v -0.301588 -0.173485 0.158407
v -0.371471 -0.173485 0.228290
v -0.371471 -0.173485 0.158407
v -0.301588 -0.173485 0.228290
v -0.371471 0.075324 0.160179
v -0.371471 0.036162 0.158407
v -0.301588 0.036162 0.228290
v -0.371471 0.315691 0.158407
v -0.301588 0.036162 0.158407
v -0.371471 0.315691 0.228290
v -0.371471 0.106044 -0.121122
v -0.371186 0.075324 0.160179
v -0.301588 0.036162 -0.051240
v -0.022059 0.315691 0.228290
v -0.371471 0.036162 -0.051240
v -0.047351 0.075324 0.160179
v -0.091941 0.036162 0.228290
v -0.371471 -0.173485 -0.051240
v -0.371186 0.106044 -0.121122
v -0.022059 0.315691 0.158407
v -0.047351 0.158671 0.159565
v -0.091941 0.036162 -0.121122
v -0.091941 -0.173485 0.228290
v -0.371471 -0.173485 -0.121122
v -0.022059 0.106044 -0.121122
v -0.022059 0.075324 0.160179
v -0.022059 0.158671 0.159565
v -0.047351 0.106044 -0.121122
v -0.301588 -0.173485 -0.051240
v -0.301588 0.036162 -0.121122
v -0.091941 0.036162 -0.051240
v -0.022059 -0.173485 0.228290
v -0.091941 0.036162 0.158407
v -0.301588 -0.173485 -0.121122
v -0.022059 -0.173485 0.158407
v 0.030567 0.158671 -0.121122
v -0.047351 0.158671 -0.121122
v -0.081459 -0.173485 -0.061722
v -0.091941 -0.173485 0.158407
v -0.032541 -0.173485 -0.110640
v -0.022059 0.036162 0.158407
v -0.081459 -0.173485 -0.110640
v -0.022059 0.036162 -0.051240
v -0.032541 -0.173485 -0.061722
v 0.182353 -0.173485 -0.077680
v 0.182353 -0.173485 -0.041506
v 0.179972 -0.173485 -0.059593
v 0.189334 -0.173485 -0.094534
v 0.145030 0.106044 -0.059593
v 0.148602 0.106044 -0.086724
v 0.189334 -0.173485 -0.024652
v 0.148602 0.106044 -0.032463
v 0.159074 0.106044 -0.112005
v 0.200440 -0.173485 -0.010179
v 0.159074 0.106044 -0.007182
v 0.200440 -0.173485 -0.109008
v 0.175732 0.106044 0.014528
v 0.175732 0.106044 -0.133715
v 0.214913 -0.173485 -0.120113
v 0.214913 -0.173485 0.000926
v 0.197442 0.106044 0.031187
v 0.197442 0.106044 -0.150373
v 0.231767 -0.173485 -0.127095
v 0.231767 -0.173485 0.007908
v 0.222723 0.106044 0.041659
v 0.222723 0.106044 -0.160845
v 0.249854 -0.173485 0.010289
v 0.249854 -0.173485 -0.129476
v 0.249854 0.106044 0.045230
v 0.249854 0.106044 -0.164417
v 0.267941 -0.173485 -0.127095
v 0.276984 0.106044 0.041659
v 0.267941 -0.173485 0.007908
v 0.276984 0.106044 -0.160845
v 0.284795 -0.173485 -0.120113
v 0.302266 0.106044 0.031187
v 0.284795 -0.173485 0.000926
v 0.302266 0.106044 -0.150373
v 0.299268 -0.173485 -0.109008
v 0.323975 0.106044 0.014528
v 0.299268 -0.173485 -0.010179
v 0.323975 0.106044 -0.133715
v 0.310374 -0.173485 -0.094534
v 0.340637 0.106044 -0.007182
v 0.340637 0.106044 -0.112005
v 0.310374 -0.173485 -0.024652
v 0.351106 0.106044 -0.086724
v 0.317355 -0.173485 -0.077680
v 0.351106 0.106044 -0.032463
v 0.317355 -0.173485 -0.041506
v 0.354677 0.106044 -0.059593
v 0.319736 -0.173485 -0.059593
v -0.371186 0.158671 0.159565

# 0 UV coordinates

# 84 vertex normals
vn 0 0 -0.0254
vn -0 -0 0.0254
vn 0.0254 0 0
vn -0.0254 -0 0
vn 0 -0.0254 0
vn 0 0.0254 0
vn 0.0179072 0.0179072 0.0019556
vn -0.0179072 -0.0179072 -0.0019556
vn 0.024965 -3.44932e-05 -0.00468071
vn -0.024965 3.44932e-05 0.00468071
vn 0 -0.001 0
vn 0 0.001 0
vn -0.001 0 0
vn 0.001 0 0
vn 0 0 -0.001
vn -0 -0 0.001
vn 0 -7.37e-06 -0.000999973
vn 0 7.37e-06 0.000999973
vn 0 0.00099409 0.000108562
vn 0 -0.00099409 -0.000108562
vn -0.000998752 -4.9938e-05 -0
vn 0.000998752 4.9938e-05 0
vn 3.8902e-05 -3.8902e-05 -0.000998485
vn -3.8902e-05 3.8902e-05 0.000998485
vn -0.000982873 -1.358e-06 -0.00018428
vn 0.000982873 1.358e-06 0.00018428
vn 0 -4.9938e-05 0.000998752
vn 0 4.9938e-05 -0.000998752
vn 0.000998485 -3.8902e-05 -3.8902e-05
vn -0.000998485 3.8902e-05 3.8902e-05
vn 0 -4.9938e-05 -0.000998752
vn 0 4.9938e-05 0.000998752
vn -0.000705008 0.000705008 7.6992e-05
vn 0.000705008 -0.000705008 -7.6992e-05
vn 0.000998752 -4.9938e-05 0
vn -0.000998752 4.9938e-05 0
vn -0.000958467 -0.000124035 0.00025682
vn -0.000992278 -0.000124035 0
vn 0.000992278 0.000124035 0
vn 0.000958467 0.000124035 -0.00025682
vn -0.000958467 -0.000124035 -0.00025682
vn 0.000958467 0.000124035 0.00025682
vn -0.000859338 -0.000124035 -0.000496139
vn 0.000859338 0.000124035 0.000496139
vn -0.000859338 -0.000124035 0.000496139
vn 0.000859338 0.000124035 -0.000496139
vn -0.000701646 -0.000124035 -0.000701646
vn 0.000701646 0.000124035 0.000701646
vn -0.000701646 -0.000124035 0.000701646
vn 0.000701646 0.000124035 -0.000701646
vn -0.000496139 -0.000124035 -0.000859338
vn 0.000496139 0.000124035 0.000859338
vn -0.000496139 -0.000124035 0.000859338
vn 0.000496139 0.000124035 -0.000859338
vn -0.00025682 -0.000124035 -0.000958467
vn 0.00025682 0.000124035 0.000958467
vn -0.00025682 -0.000124035 0.000958467
vn 0.00025682 0.000124035 -0.000958467
vn 0 -0.000124035 -0.000992278
vn 0 0.000124035 0.000992278
vn -0 -0.000124035 0.000992278
vn 0 0.000124035 -0.000992278
vn 0.00025682 -0.000124035 0.000958467
vn -0.00025682 0.000124035 -0.000958467
vn 0.00025682 -0.000124035 -0.000958467
vn -0.00025682 0.000124035 0.000958467
vn 0.000496139 -0.000124035 0.000859338
vn -0.000496139 0.000124035 -0.000859338
vn 0.000496139 -0.000124035 -0.000859338
vn -0.000496139 0.000124035 0.000859338
vn 0.000701646 -0.000124035 0.000701646
vn -0.000701646 0.000124035 -0.000701646
vn 0.000701646 -0.000124035 -0.000701646
vn -0.000701646 0.000124035 0.000701646
vn 0.000859338 -0.000124035 0.000496139
vn -0.000859338 0.000124035 -0.000496139
vn 0.000859338 -0.000124035 -0.000496139
vn -0.000859338 0.000124035 0.000496139
vn 0.000958467 -0.000124035 -0.00025682
vn -0.000958467 0.000124035 0.00025682
vn 0.000958467 -0.000124035 0.00025682
vn -0.000958467 0.000124035 -0.00025682
vn 0.000992278 -0.000124035 0
vn -0.000992278 0.000124035 0

# Mesh 'mesh1_mesh1-geometry' with 16 faces
g mesh1_mesh1-geometry
usemtl material_0_24
f  1//1 2//1 3//1
f  3//2 2//2 1//2
f  4//1 3//1 2//1
f  2//2 3//2 4//2
f  3//3 5//3 1//3
f  1//4 5//4 3//4
f  3//5 5//5 4//5
f  4//6 5//6 3//6
f  4//7 6//7 2//7
f  2//8 6//8 4//8
f  7//3 1//3 5//3
f  5//4 1//4 7//4
f  8//5 4//5 5//5
f  5//6 4//6 8//6
f  8//9 6//9 4//9
f  4//10 6//10 8//10

# Mesh 'mesh2_mesh2-geometry' with 1 faces
g mesh2_mesh2-geometry
usemtl material_0_0
l  9 10

# Mesh 'mesh3_mesh3-geometry' with 6 faces
g mesh3_mesh3-geometry
usemtl material_0_0
l  1 3
l  4 3
l  3 5
l  2 4
l  4 6
l  8 4

# Mesh 'mesh4_mesh4-geometry' with 176 faces
g mesh4_mesh4-geometry
usemtl material_0_24
f  11//11 12//11 13//11
f  12//11 11//11 14//11
f  13//12 12//12 11//12
f  14//12 11//12 12//12
f  15//13 13//13 12//13
f  12//14 13//14 15//14
f  16//15 11//15 13//15
f  13//16 11//16 16//16
f  11//14 17//14 14//14
f  14//13 17//13 11//13
f  17//16 12//16 14//16
f  14//15 12//15 17//15
f  13//13 15//13 16//13
f  16//14 15//14 13//14
f  12//13 18//13 15//13
f  15//14 18//14 12//14
f  11//15 16//15 19//15
f  19//16 16//16 11//16
f  17//14 11//14 19//14
f  19//13 11//13 17//13
f  12//16 17//16 20//16
f  20//15 17//15 12//15
f  21//13 16//13 15//13
f  15//14 16//14 21//14
f  18//13 12//13 20//13
f  20//14 12//14 18//14
f  18//17 22//17 15//17
f  15//18 22//18 18//18
f  16//11 23//11 19//11
f  19//12 23//12 16//12
f  19//11 23//11 17//11
f  17//12 23//12 19//12
f  20//16 17//16 24//16
f  24//15 17//15 20//15
f  16//13 21//13 25//13
f  25//14 21//14 16//14
f  22//19 21//19 15//19
f  15//20 21//20 22//20
f  24//12 18//12 20//12
f  20//11 18//11 24//11
f  22//17 18//17 26//17
f  26//18 18//18 22//18
f  23//11 16//11 25//11
f  25//12 16//12 23//12
f  17//11 23//11 27//11
f  27//12 23//12 17//12
f  27//16 24//16 17//16
f  17//15 24//15 27//15
f  25//13 21//13 28//13
f  28//14 21//14 25//14
f  21//19 22//19 29//19
f  29//20 22//20 21//20
f  18//12 24//12 30//12
f  30//11 24//11 18//11
f  26//17 18//17 31//17
f  31//18 18//18 26//18
f  26//19 29//19 22//19
f  22//20 29//20 26//20
f  28//16 23//16 25//16
f  25//15 23//15 28//15
f  27//11 23//11 32//11
f  32//12 23//12 27//12
f  33//16 24//16 27//16
f  27//15 24//15 33//15
f  28//13 21//13 34//13
f  34//14 21//14 28//14
f  35//15 21//15 29//15
f  29//16 21//16 35//16
f  36//14 30//14 24//14
f  24//13 30//13 36//13
f  37//17 18//17 30//17
f  30//18 18//18 37//18
f  31//17 18//17 37//17
f  37//18 18//18 31//18
f  31//17 36//17 26//17
f  26//18 36//18 31//18
f  31//13 38//13 26//13
f  26//14 38//14 31//14
f  29//19 26//19 38//19
f  38//20 26//20 29//20
f  23//16 28//16 39//16
f  39//15 28//15 23//15
f  32//11 23//11 40//11
f  40//12 23//12 32//12
f  27//11 32//11 41//11
f  41//12 32//12 27//12
f  24//16 33//16 42//16
f  42//15 33//15 24//15
f  43//13 33//13 27//13
f  27//14 33//14 43//14
f  21//15 44//15 34//15
f  34//16 44//16 21//16
f  44//11 28//11 34//11
f  34//12 28//12 44//12
f  32//15 21//15 35//15
f  35//16 21//16 32//16
f  35//15 29//15 38//15
f  38//16 29//16 35//16
f  30//14 36//14 37//14
f  37//13 36//13 30//13
f  24//14 45//14 36//14
f  36//13 45//13 24//13
f  31//11 46//11 37//11
f  37//12 46//12 31//12
f  36//17 31//17 37//17
f  37//18 31//18 36//18
f  36//19 38//19 26//19
f  26//20 38//20 36//20
f  38//13 31//13 47//13
f  47//14 31//14 38//14
f  28//11 44//11 39//11
f  39//12 44//12 28//12
f  44//14 23//14 39//14
f  39//13 23//13 44//13
f  23//14 44//14 40//14
f  40//13 44//13 23//13
f  40//15 21//15 32//15
f  32//16 21//16 40//16
f  32//21 48//21 41//21
f  41//22 48//22 32//22
f  27//11 41//11 43//11
f  43//12 41//12 27//12
f  33//11 45//11 42//11
f  42//12 45//12 33//12
f  45//14 24//14 42//14
f  42//13 24//13 45//13
f  33//13 43//13 49//13
f  49//14 43//14 33//14
f  44//15 21//15 40//15
f  40//16 21//16 44//16
f  35//23 50//23 32//23
f  32//24 50//24 35//24
f  38//19 36//19 35//19
f  35//20 36//20 38//20
f  47//15 35//15 38//15
f  38//16 35//16 47//16
f  46//25 36//25 37//25
f  37//26 36//26 46//26
f  36//14 45//14 51//14
f  51//13 45//13 36//13
f  46//11 31//11 47//11
f  47//12 31//12 46//12
f  48//21 32//21 52//21
f  52//22 32//22 48//22
f  48//27 53//27 41//27
f  41//28 53//28 48//28
f  53//11 43//11 41//11
f  41//12 43//12 53//12
f  45//11 33//11 49//11
f  49//12 33//12 45//12
f  43//15 45//15 49//15
f  49//16 45//16 43//16
f  35//29 53//29 50//29
f  50//30 53//30 35//30
f  32//31 50//31 52//31
f  52//32 50//32 32//32
f  36//14 51//14 35//14
f  35//13 51//13 36//13
f  35//33 36//33 46//33
f  46//34 36//34 35//34
f  35//15 47//15 46//15
f  46//16 47//16 35//16
f  45//15 43//15 51//15
f  51//16 43//16 45//16
f  50//11 48//11 52//11
f  52//12 48//12 50//12
f  53//27 48//27 54//27
f  54//28 48//28 53//28
f  43//11 53//11 51//11
f  51//12 53//12 43//12
f  35//14 51//14 53//14
f  53//13 51//13 35//13
f  50//35 53//35 54//35
f  54//36 53//36 50//36
f  48//11 50//11 54//11
f  54//12 50//12 48//12

# Mesh 'mesh5_mesh5-geometry' with 184 faces
g mesh5_mesh5-geometry
usemtl material_0_24
f  55//11 56//11 57//11
f  56//11 55//11 58//11
f  57//12 56//12 55//12
f  58//12 55//12 56//12
f  56//37 59//38 57//38
f  57//39 59//39 56//40
f  57//38 60//41 55//41
f  55//42 60//42 57//39
f  60//41 58//43 55//41
f  55//42 58//44 60//42
f  56//11 58//11 61//11
f  61//12 58//12 56//12
f  59//38 56//37 62//37
f  62//40 56//40 59//39
f  60//41 57//38 59//38
f  59//39 57//39 60//42
f  58//43 60//41 63//43
f  63//44 60//42 58//44
f  61//11 58//11 64//11
f  64//12 58//12 61//12
f  61//45 62//37 56//37
f  56//40 62//40 61//46
f  62//12 60//12 59//12
f  59//11 60//11 62//11
f  60//12 65//12 63//12
f  63//11 65//11 60//11
f  63//43 66//47 58//43
f  58//44 66//48 63//44
f  64//11 58//11 66//11
f  66//12 58//12 64//12
f  64//49 65//45 61//45
f  61//46 65//46 64//50
f  62//37 61//45 65//45
f  65//46 61//46 62//40
f  60//12 62//12 65//12
f  65//11 62//11 60//11
f  63//12 65//12 67//12
f  67//11 65//11 63//11
f  66//47 63//43 68//47
f  68//48 63//44 66//48
f  64//11 66//11 69//11
f  69//12 66//12 64//12
f  65//45 64//49 67//49
f  67//50 64//50 65//46
f  63//12 67//12 68//12
f  68//11 67//11 63//11
f  68//47 69//51 66//47
f  66//48 69//52 68//48
f  64//11 69//11 70//11
f  70//12 69//12 64//12
f  64//49 71//53 67//49
f  67//50 71//54 64//50
f  68//12 67//12 71//12
f  71//11 67//11 68//11
f  69//51 68//47 72//51
f  72//52 68//48 69//52
f  70//11 69//11 73//11
f  73//12 69//12 70//12
f  71//53 64//49 70//53
f  70//54 64//50 71//54
f  68//12 71//12 72//12
f  72//11 71//11 68//11
f  72//51 73//55 69//51
f  69//52 73//56 72//52
f  70//11 73//11 74//11
f  74//12 73//12 70//12
f  70//53 75//57 71//53
f  71//54 75//58 70//54
f  72//12 71//12 75//12
f  75//11 71//11 72//11
f  73//55 72//51 76//55
f  76//56 72//52 73//56
f  74//11 73//11 77//11
f  77//12 73//12 74//12
f  75//57 70//53 74//57
f  74//58 70//54 75//58
f  72//12 75//12 76//12
f  76//11 75//11 72//11
f  76//55 78//59 73//55
f  73//56 78//60 76//56
f  77//11 73//11 78//11
f  78//12 73//12 77//12
f  79//61 74//57 77//61
f  77//62 74//58 79//62
f  74//57 79//61 75//57
f  75//58 79//62 74//58
f  76//12 75//12 79//12
f  79//11 75//11 76//11
f  78//59 76//55 80//59
f  80//60 76//56 78//60
f  77//11 78//11 81//11
f  81//12 78//12 77//12
f  77//61 82//63 79//61
f  79//62 82//64 77//62
f  76//12 79//12 80//12
f  80//11 79//11 76//11
f  80//59 81//65 78//59
f  78//60 81//66 80//60
f  77//11 81//11 83//11
f  83//12 81//12 77//12
f  82//63 77//61 83//63
f  83//64 77//62 82//64
f  80//12 79//12 82//12
f  82//11 79//11 80//11
f  81//65 80//59 84//65
f  84//66 80//60 81//66
f  83//11 81//11 85//11
f  85//12 81//12 83//12
f  83//63 86//67 82//63
f  82//64 86//68 83//64
f  80//12 82//12 84//12
f  84//11 82//11 80//11
f  84//65 85//69 81//65
f  81//66 85//70 84//66
f  83//11 85//11 87//11
f  87//12 85//12 83//12
f  86//67 83//63 87//67
f  87//68 83//64 86//68
f  84//12 82//12 86//12
f  86//11 82//11 84//11
f  85//69 84//65 88//69
f  88//70 84//66 85//70
f  87//11 85//11 89//11
f  89//12 85//12 87//12
f  87//67 90//71 86//67
f  86//68 90//72 87//68
f  84//12 86//12 88//12
f  88//11 86//11 84//11
f  88//69 89//73 85//69
f  85//70 89//74 88//70
f  87//11 89//11 91//11
f  91//12 89//12 87//12
f  90//71 87//67 91//71
f  91//72 87//68 90//72
f  88//12 86//12 90//12
f  90//11 86//11 88//11
f  89//73 88//69 92//73
f  92//74 88//70 89//74
f  91//11 89//11 93//11
f  93//12 89//12 91//12
f  91//71 94//75 90//71
f  90//72 94//76 91//72
f  88//12 90//12 92//12
f  92//11 90//11 88//11
f  95//77 89//73 92//73
f  92//74 89//74 95//78
f  89//73 95//77 93//77
f  93//78 95//78 89//74
f  91//11 93//11 96//11
f  96//12 93//12 91//12
f  94//75 91//71 96//75
f  96//76 91//72 94//76
f  92//12 90//12 94//12
f  94//11 90//11 92//11
f  92//12 94//12 95//12
f  95//11 94//11 92//11
f  97//79 93//77 95//77
f  95//78 93//78 97//80
f  96//11 93//11 98//11
f  98//12 93//12 96//12
f  96//75 99//81 94//75
f  94//76 99//82 96//76
f  95//12 94//12 99//12
f  99//11 94//11 95//11
f  93//77 97//79 98//79
f  98//80 97//80 93//78
f  95//12 99//12 97//12
f  97//11 99//11 95//11
f  96//11 98//11 100//11
f  100//12 98//12 96//12
f  99//81 96//75 100//81
f  100//82 96//76 99//82
f  101//83 98//79 97//79
f  97//80 98//80 101//84
f  97//12 99//12 101//12
f  101//11 99//11 97//11
f  100//11 98//11 102//11
f  102//12 98//12 100//12
f  100//81 101//83 99//81
f  99//82 101//84 100//82
f  98//79 101//83 102//83
f  102//84 101//84 98//80
f  101//83 100//81 102//83
f  102//84 100//82 101//84

# Mesh 'mesh6_mesh6-geometry' with 74 faces
g mesh6_mesh6-geometry
usemtl material_0_0
l  34 28
l  34 21
l  44 34
l  25 28
l  39 28
l  29 21
l  21 15
l  40 44
l  44 39
l  16 25
l  23 25
l  23 39
l  38 29
l  22 29
l  15 22
l  15 18
l  32 40
l  40 23
l  13 16
l  19 16
l  26 38
l  38 47
l  35 38
l  22 26
l  103 22
l  18 30
l  20 18
l  52 32
l  32 41
l  32 50
l  32 35
l  13 12
l  11 13
l  19 11
l  17 19
l  26 36
l  31 26
l  46 47
l  47 31
l  50 35
l  36 35
l  53 35
l  35 46
l  37 30
l  24 30
l  12 20
l  20 24
l  50 52
l  52 48
l  53 41
l  48 41
l  54 50
l  50 53
l  12 14
l  14 11
l  27 17
l  17 14
l  36 37
l  46 36
l  31 37
l  37 46
l  51 53
l  53 54
l  42 24
l  54 48
l  33 27
l  27 43
l  45 51
l  51 43
l  42 45
l  33 42
l  33 49
l  49 43
l  45 49

# Mesh 'mesh7_mesh7-geometry' with 24 faces
g mesh7_mesh7-geometry
usemtl material_0_0
l  57 56
l  55 57
l  56 61
l  58 55
l  61 64
l  66 58
l  64 70
l  69 66
l  70 74
l  73 69
l  74 77
l  78 73
l  77 83
l  81 78
l  83 87
l  85 81
l  87 91
l  89 85
l  91 96
l  93 89
l  96 100
l  98 93
l  100 102
l  102 98

# Mesh 'mesh8_mesh8-geometry' with 24 faces
g mesh8_mesh8-geometry
usemtl material_0_0
l  88 84
l  92 88
l  84 80
l  95 92
l  80 76
l  97 95
l  76 72
l  101 97
l  72 68
l  99 101
l  68 63
l  94 99
l  63 60
l  90 94
l  60 59
l  86 90
l  59 62
l  82 86
l  62 65
l  79 82
l  65 67
l  75 79
l  67 71
l  71 75

