# File produced by Open Asset Import Library (http://www.assimp.sf.net)
# (assimp v3.2.202087883)

mtllib model_normalized.mtl

# 129 vertex positions
v -0.075812 -0.006998 -0.379053
v -0.084387 -0.006998 -0.108174
v -0.094459 -0.006998 -0.354755
v 0.083459 -0.006998 -0.108174
v -0.084387 -0.006998 -0.047467
v -0.051511 -0.006998 -0.397705
v -0.079140 -0.006998 0.520466
v -0.023212 -0.006998 -0.409426
v -0.097590 -0.006998 0.494087
v -0.076259 -0.006998 0.013154
v 0.007157 -0.006998 -0.413424
v 0.090126 -0.006998 -0.379053
v 0.083459 -0.006998 -0.047467
v -0.042431 -0.006998 -0.022003
v -0.106181 -0.006998 -0.326453
v -0.073747 -0.006998 0.002999
v -0.076058 -0.006998 0.023612
v 0.037526 -0.006998 -0.409426
v 0.065825 -0.006998 -0.397705
v 0.084051 -0.006998 0.017618
v -0.052481 -0.006998 -0.019101
v -0.031972 -0.006998 -0.022204
v -0.108201 -0.006998 0.463696
v -0.068691 -0.006998 -0.006160
v -0.054233 -0.006998 0.540858
v 0.084472 -0.006998 0.027947
v 0.080972 -0.006998 0.007749
v -0.061438 -0.006998 -0.013697
v -0.021817 -0.006998 -0.019691
v -0.110179 -0.006998 0.431567
v -0.073156 -0.006998 0.033662
v -0.110179 -0.006998 -0.296086
v 0.093454 -0.006998 0.520466
v 0.075443 -0.006998 -0.000986
v -0.012659 -0.006998 -0.014637
v -0.067752 -0.006998 0.042620
v 0.082204 -0.006998 0.038034
v 0.108773 -0.006998 -0.354755
v 0.067841 -0.006998 -0.007992
v -0.060215 -0.006998 0.049873
v -0.051056 -0.006998 0.054928
v -0.024731 -0.006998 0.553738
v -0.040901 -0.006998 0.057441
v -0.005121 -0.006998 -0.007383
v -0.030443 -0.006998 0.057239
v 0.077404 -0.006998 0.047190
v 0.111904 -0.006998 0.494087
v 0.058685 -0.006998 -0.012793
v 0.000283 -0.006998 0.001573
v -0.020392 -0.006998 0.054338
v 0.070397 -0.006998 0.054791
v 0.120495 -0.006998 -0.326453
v 0.048599 -0.006998 -0.015060
v 0.019666 -0.006998 -0.006031
v 0.007157 -0.006998 0.558141
v -0.011435 -0.006998 0.048934
v 0.068546 -0.006998 0.540858
v 0.122515 -0.006998 0.463696
v 0.038269 -0.006998 -0.014640
v 0.061662 -0.006998 0.060320
v 0.028401 -0.006998 -0.011560
v 0.003184 -0.006998 0.011624
v -0.004182 -0.006998 0.041396
v 0.124493 -0.006998 -0.296086
v 0.051794 -0.006998 0.063400
v 0.012658 -0.006998 0.001570
v 0.000873 -0.006998 0.032238
v 0.124493 -0.006998 0.431567
v 0.041464 -0.006998 0.063821
v 0.007858 -0.006998 0.010726
v 0.003385 -0.006998 0.022083
v 0.009091 -0.006998 0.041011
v 0.039045 -0.006998 0.553738
v 0.031378 -0.006998 0.061553
v 0.014620 -0.006998 0.049746
v 0.022222 -0.006998 0.056753
v 0.005591 -0.006998 0.020812
v 0.006012 -0.006998 0.031142
v -0.075812 0.006799 -0.379053
v -0.094459 0.006799 -0.354755
v 0.124493 0.006799 -0.296086
v -0.075812 0.019296 -0.378108
v -0.051511 0.006799 -0.397705
v -0.097590 0.006799 0.494087
v -0.106181 0.006799 -0.326453
v -0.067139 0.006799 -0.385711
v -0.094459 0.015636 -0.354083
v -0.023212 0.006799 -0.409426
v -0.079140 0.006799 0.520466
v -0.103303 0.006799 0.477725
v -0.110179 0.006799 -0.296086
v -0.067139 0.020298 -0.384691
v -0.035313 0.006799 -0.404408
v 0.007157 0.006799 -0.413424
v 0.065825 0.006799 -0.397705
v -0.054233 0.006799 0.540858
v -0.106181 0.011373 -0.326105
v -0.108931 0.006799 0.451844
v -0.051511 0.022104 -0.396541
v -0.033608 0.023221 -0.403872
v -0.009375 0.006799 -0.411248
v 0.037526 0.006799 -0.409426
v 0.090126 0.006799 -0.379053
v -0.106322 0.006799 0.469078
v -0.060223 0.006799 0.535954
v -0.024731 0.006799 0.553738
v -0.110179 0.006799 0.431567
v -0.108201 0.006799 0.463696
v -0.023212 0.023870 -0.408134
v 0.023689 0.006799 -0.411248
v 0.065825 0.022104 -0.396541
v 0.108773 0.006799 -0.354755
v 0.037526 0.023870 -0.408134
v -0.043576 0.006799 0.545510
v 0.000718 0.024344 -0.411248
v 0.007157 0.024472 -0.412087
v 0.022915 0.024159 -0.410031
v 0.090126 0.019296 -0.378108
v 0.007157 0.006799 0.558141
v 0.120495 0.006799 -0.326453
v 0.108773 0.015636 -0.354083
v 0.093454 0.006799 0.520466
v 0.120495 0.011373 -0.326105
v 0.111904 0.006799 0.494087
v 0.039045 0.006799 0.553738
v 0.068546 0.006799 0.540858
v 0.124493 0.006799 0.431567
v 0.122515 0.006799 0.463696
v -0.067696 0.006799 0.530528

# 156 UV coordinates
vt 0 0 0
vt -2.74969 -0.14974 0
vt -2.88266 0 0
vt -2.88266 -0.14974 0
vt -2.74969 0 0
vt -2.26062 0 0
vt -2.39359 -0.14974 0
vt -2.26062 -0.14974 0
vt -3.04684 -0.14974 0
vt -3.17982 0 0
vt -3.17982 -0.14974 0
vt -2.74969 -0.233041 0
vt -2.8794 -0.097276 0
vt -2.88266 -0.233041 0
vt -2.39359 0 0
vt -1.61296 0 0
vt -1.74593 -0.14974 0
vt -1.61296 -0.14974 0
vt 0.393479 -0.14974 0
vt 0.253735 0 0
vt 0.253735 -0.14974 0
vt -3.04684 0 0
vt -2.74738 -0.13704 0
vt -2.25812 -0.269149 0
vt -2.30808 -0.405014 0
vt -2.26062 -0.405014 0
vt -2.30808 0 0
vt -1.74593 0 0
vt -0.850844 0 0
vt -0.983817 -0.14974 0
vt -0.850844 -0.14974 0
vt 0.393479 0 0
vt 0.199021 0 0
vt 0.274259 -0.14974 0
vt 0.274259 0 0
vt -3.13183 -0.14974 0
vt -3.2648 0 0
vt -3.2648 -0.14974 0
vt -3.17982 -0.090049 0
vt -3.04684 -0.090049 0
vt -3.17713 0.00589 0
vt -2.30538 -0.25825 0
vt -2.39359 -0.405014 0
vt -1.68907 0 0
vt -0.983817 0 0
vt -0.026217 0 0
vt -0.159191 -0.14974 0
vt -0.026217 -0.14974 0
vt 1.58536 0 0
vt 1.45239 -0.14974 0
vt 1.58536 -0.14974 0
vt 0.134515 -0.14974 0
vt 0.348739 -0.14974 0
vt 0.488483 0 0
vt 0.348739 0 0
vt 0.488483 -0.14974 0
vt -3.13183 0 0
vt -2.39053 -0.238613 0
vt -1.61103 -0.396887 0
vt -1.68907 -0.563395 0
vt -1.61296 -0.563395 0
vt -1.69501 -0.384736 0
vt -1.74593 -0.563395 0
vt -0.911427 0 0
vt -0.159191 0 0
vt 0.804727 0 0
vt 0.671753 -0.14974 0
vt 0.804727 -0.14974 0
vt 1.45239 0 0
vt 0.671753 0 0
vt 0.139744 -0.14974 0
vt 0.088196 0 0
vt 0 -0.14974 0
vt 0.159261 0 0
vt 0.454873 0 0
vt 0.412416 -0.14974 0
vt 0.55216 0 0
vt 0.412416 0 0
vt -3.15885 0 0
vt -3.15885 -0.14974 0
vt -1.74378 -0.37768 0
vt -0.850111 -0.482589 0
vt -0.911427 -0.668373 0
vt -0.850844 -0.668373 0
vt -0.983817 -0.668373 0
vt -0.098607 0 0
vt 1.5823 -0.331608 0
vt 1.45239 -0.498009 0
vt 1.58536 -0.498009 0
vt 2.12951 0 0
vt 2.26249 -0.14974 0
vt 2.26249 0 0
vt 0.802579 -0.445713 0
vt 0.671753 -0.631428 0
vt 0.804727 -0.631428 0
vt 0.139744 0 0
vt 0.134515 0 0
vt 0.55216 -0.14974 0
vt 0.462894 0 0
vt -0.954869 -0.477425 0
vt -0.026976 -0.500928 0
vt -0.098607 -0.693265 0
vt -0.026217 -0.693265 0
vt -0.09596 -0.504329 0
vt -0.159191 -0.693265 0
vt 1.44989 -0.362143 0
vt 0.669828 -0.464921 0
vt 2.12951 -0.14974 0
vt 2.25923 -0.190339 0
vt 2.12951 -0.326104 0
vt 2.26249 -0.326104 0
vt -0.159923 -0.507482 0
vt 0.440001 -0.14974 0
vt 0.579745 0 0
vt 0.440001 0 0
vt -0.983059 -0.476035 0
vt 2.65699 0 0
vt 2.78996 -0.14974 0
vt 2.78996 0 0
vt 2.12721 -0.230104 0
vt 0.330151 -0.14974 0
vt 0.190407 0 0
vt 0.190407 -0.14974 0
vt 0.579745 -0.14974 0
vt 2.99886 0 0
vt 3.13183 -0.14974 0
vt 3.13183 0 0
vt 2.78727 -0.062281 0
vt 2.65699 -0.15822 0
vt 2.78996 -0.15822 0
vt 2.65699 -0.14974 0
vt 0.330151 0 0
vt 0.439526 0 0
vt 0.299782 -0.14974 0
vt 0.439526 -0.14974 0
vt 0.42943 -0.14974 0
vt 0.569174 0 0
vt 0.42943 0 0
vt 2.99886 -0.14974 0
vt 2.6556 -0.108558 0
vt 0.201297 -0.14974 0
vt 0.061553 0 0
vt 0.061553 -0.14974 0
vt 0.299782 0 0
vt 0.569174 -0.14974 0
vt 3.15885 -0.14974 0
vt 3.15885 0 0
vt 0.201297 0 0
vt 0.521239 0 0
vt 0.381495 -0.14974 0
vt 0.521239 -0.14974 0
vt 0.381495 0 0
vt 0.062609 -0.14974 0
vt -0.077135 0 0
vt -0.077135 -0.14974 0
vt 0.062609 0 0

# 92 vertex normals
vn 0 -0.0254 0
vn 0 0.0254 0
vn 0.0179605 0 0.0179605
vn 0.021997 0 0.0127
vn 0.0127 0 0.021997
vn 0.0245345 0 0.006574
vn 0.0201298 -0.00116987 0.0154461
vn 0.006574 0 0.0245345
vn 0.0226098 0 -0.011574
vn 0.0186274 0 -0.0172679
vn 0.0154347 -0.00152349 0.0201149
vn 0.0154625 0 0.0201512
vn 0 0 0.0254
vn 0.0239804 0 -0.00837265
vn 0.0251827 0 0.00331536
vn 0.0234567 -0.000735889 0.00971608
vn 0 -0.0251103 -0.0038256
vn 0.00972015 0 0.0234666
vn -0.006574 0 0.0245345
vn -0.0127 -0 0.021997
vn -0.0179605 -0 0.0179605
vn 0.0249002 0 -0.00501393
vn 0.0132511 0 -0.0216696
vn 0.00969645 -0.001773 0.0234093
vn 0.00331536 0 0.0251827
vn 0.025352 0 -0.00156101
vn 0.0160905 0 -0.0196534
vn 0.00688307 0 -0.0244496
vn 0.0254 0 0
vn 0.00330606 -0.00190195 0.025112
vn -0.00331536 0 0.0251827
vn -0.0154347 -0.00152349 0.0201149
vn -0.021997 -0 0.0127
vn -0.00969645 -0.001773 0.0234093
vn 0.0101626 0 -0.0232784
vn -0.00330606 -0.00190195 0.025112
vn -0.0201298 -0.00116987 0.0154461
vn 0 0 -0.0254
vn -0.0245345 -0 0.006574
vn -0.0186274 0 -0.0172679
vn -0.0226098 0 -0.011574
vn -0.0251827 -0 0.00331536
vn 0.0251815 0.000251079 -0.00331521
vn -0.0251815 -0.000251079 0.00331521
vn -0.0234567 -0.000735889 0.00971608
vn -0.0132511 0 -0.0216696
vn -0.00688307 0 -0.0244496
vn -0.0249002 0 -0.00501393
vn -0.0254 -0 0
vn -0.025352 0 -0.00156101
vn -0.021997 0 -0.0127
vn -0.0179605 0 -0.0179605
vn -0.0127 0 -0.021997
vn -0.0245345 0 -0.006574
vn -0.0201298 0.00116987 -0.0154461
vn -0.006574 0 -0.0245345
vn -0.0186274 0 0.0172679
vn -0.0226098 0 0.011574
vn -0.0154347 0.00152349 -0.0201149
vn -0.0154625 0 -0.0201512
vn -0.0239804 0 0.00837265
vn -0.0251827 0 -0.00331536
vn -0.0234567 0.000735889 -0.00971608
vn -0.00972015 0 -0.0234666
vn 0.006574 0 -0.0245345
vn 0.0127 0 -0.021997
vn 0.0179605 0 -0.0179605
vn -0.0249002 0 0.00501393
vn -0.0132511 0 0.0216696
vn -0.00969645 0.001773 -0.0234093
vn -0.00331536 0 -0.0251827
vn -0.025352 0 0.00156101
vn -0.0160905 0 0.0196534
vn -0.00688307 0 0.0244496
vn -0.00330606 0.00190195 -0.025112
vn 0.00331536 0 -0.0251827
vn 0.0154347 0.00152349 -0.0201149
vn 0.021997 0 -0.0127
vn 0.00969645 0.001773 -0.0234093
vn -0.0101626 0 0.0232784
vn 0.00330606 0.00190195 -0.025112
vn 0.0201298 0.00116987 -0.0154461
vn 0.0245345 0 -0.006574
vn 0.0226098 0 0.011574
vn 0.0186274 0 0.0172679
vn 0.0251827 0 -0.00331536
vn 0.0234567 0.000735889 -0.00971608
vn 0.0132511 0 0.0216696
vn 0.00688307 0 0.0244496
vn 0.0249002 0 0.00501393
vn 0.025352 0 0.00156101
vn 0 0.0251103 0.0038256

# Mesh 'mesh1_mesh1-geometry' with 82 faces
g mesh1_mesh1-geometry
usemtl material_0_24
f  1/1/1 2/1/1 3/1/1
f  2/1/1 1/1/1 4/1/1
f  5/1/1 3/1/1 2/1/1
f  4/1/1 1/1/1 6/1/1
f  7/1/1 3/1/1 5/1/1
f  4/1/1 6/1/1 8/1/1
f  9/1/1 3/1/1 7/1/1
f  7/1/1 5/1/1 10/1/1
f  4/1/1 8/1/1 11/1/1
f  4/1/1 12/1/1 13/1/1
f  14/1/1 5/1/1 13/1/1
f  9/1/1 15/1/1 3/1/1
f  10/1/1 5/1/1 16/1/1
f  17/1/1 7/1/1 10/1/1
f  4/1/1 11/1/1 18/1/1
f  4/1/1 19/1/1 12/1/1
f  13/1/1 12/1/1 20/1/1
f  21/1/1 5/1/1 14/1/1
f  14/1/1 13/1/1 22/1/1
f  23/1/1 15/1/1 9/1/1
f  16/1/1 5/1/1 24/1/1
f  7/1/1 17/1/1 25/1/1
f  4/1/1 18/1/1 19/1/1
f  20/1/1 12/1/1 26/1/1
f  27/1/1 13/1/1 20/1/1
f  28/1/1 5/1/1 21/1/1
f  22/1/1 13/1/1 29/1/1
f  30/1/1 15/1/1 23/1/1
f  24/1/1 5/1/1 28/1/1
f  25/1/1 17/1/1 31/1/1
f  15/1/1 30/1/1 32/1/1
f  33/1/1 26/1/1 12/1/1
f  34/1/1 13/1/1 27/1/1
f  29/1/1 13/1/1 35/1/1
f  25/1/1 31/1/1 36/1/1
f  33/1/1 37/1/1 26/1/1
f  33/1/1 12/1/1 38/1/1
f  39/1/1 13/1/1 34/1/1
f  25/1/1 40/1/1 41/1/1
f  42/1/1 41/1/1 43/1/1
f  35/1/1 13/1/1 44/1/1
f  42/1/1 43/1/1 45/1/1
f  25/1/1 36/1/1 40/1/1
f  33/1/1 46/1/1 37/1/1
f  33/1/1 38/1/1 47/1/1
f  48/1/1 13/1/1 39/1/1
f  25/1/1 41/1/1 42/1/1
f  44/1/1 13/1/1 49/1/1
f  42/1/1 45/1/1 50/1/1
f  33/1/1 51/1/1 46/1/1
f  47/1/1 38/1/1 52/1/1
f  53/1/1 13/1/1 48/1/1
f  49/1/1 13/1/1 54/1/1
f  55/1/1 50/1/1 56/1/1
f  42/1/1 50/1/1 55/1/1
f  57/1/1 51/1/1 33/1/1
f  47/1/1 52/1/1 58/1/1
f  59/1/1 13/1/1 53/1/1
f  57/1/1 60/1/1 51/1/1
f  54/1/1 13/1/1 61/1/1
f  49/1/1 54/1/1 62/1/1
f  55/1/1 56/1/1 63/1/1
f  58/1/1 52/1/1 64/1/1
f  61/1/1 13/1/1 59/1/1
f  57/1/1 65/1/1 60/1/1
f  62/1/1 54/1/1 66/1/1
f  55/1/1 63/1/1 67/1/1
f  58/1/1 64/1/1 68/1/1
f  57/1/1 69/1/1 65/1/1
f  62/1/1 66/1/1 70/1/1
f  55/1/1 67/1/1 71/1/1
f  55/1/1 72/1/1 73/1/1
f  73/1/1 69/1/1 57/1/1
f  73/1/1 74/1/1 69/1/1
f  73/1/1 75/1/1 76/1/1
f  73/1/1 76/1/1 74/1/1
f  62/1/1 70/1/1 71/1/1
f  55/1/1 71/1/1 77/1/1
f  55/1/1 78/1/1 72/1/1
f  73/1/1 72/1/1 75/1/1
f  71/1/1 70/1/1 77/1/1
f  55/1/1 77/1/1 78/1/1

# Mesh 'mesh1_mesh1-geometry' with 281 faces
g mesh1_mesh1-geometry
usemtl material_1_24
f  3/1/2 2/1/2 1/1/2
f  4/1/2 1/1/2 2/1/2
f  2/1/2 3/1/2 5/1/2
f  1/1/3 79/1/3 3/1/4
f  6/1/2 1/1/2 4/1/2
f  2/1/2 5/1/2 4/1/2
f  5/1/2 3/1/2 7/1/2
f  80/1/4 3/1/4 79/1/3
f  1/1/3 6/1/5 79/1/3
f  8/1/2 6/1/2 4/1/2
f  13/1/2 4/1/2 5/1/2
f  7/1/2 3/1/2 9/1/2
f  10/1/2 5/1/2 7/1/2
f  3/1/4 80/1/4 15/1/6
f  80/1/2 81/1/2 79/1/2
f  79/1/1 81/1/1 80/1/1
f  79/1/7 82/1/7 80/1/7
f  83/1/5 79/1/3 6/1/5
f  6/1/5 8/1/8 83/1/5
f  11/1/2 8/1/2 4/1/2
f  13/1/2 12/1/2 4/1/2
f  13/1/2 5/1/2 14/1/2
f  3/1/2 15/1/2 9/1/2
f  9/1/9 84/1/9 7/1/10
f  16/1/2 5/1/2 10/1/2
f  10/1/2 7/1/2 17/1/2
f  85/1/6 15/1/6 80/1/4
f  85/1/2 81/1/2 80/1/2
f  80/1/1 81/1/1 85/1/1
f  79/1/2 81/1/2 86/1/2
f  86/1/1 81/1/1 79/1/1
f  87/1/7 80/1/7 82/1/7
f  79/1/11 86/1/11 82/1/11
f  86/1/12 79/1/3 83/1/5
f  88/1/8 83/1/5 8/1/8
f  8/1/8 11/1/13 88/1/8
f  18/1/2 11/1/2 4/1/2
f  12/1/2 19/1/2 4/1/2
f  20/1/2 12/1/2 13/1/2
f  14/1/2 5/1/2 21/1/2
f  22/1/2 13/1/2 14/1/2
f  9/1/2 15/1/2 23/1/2
f  89/1/10 7/1/10 84/1/9
f  84/1/9 9/1/9 90/1/14
f  24/1/2 5/1/2 16/1/2
f  10/1/2 17/1/2 16/1/2
f  25/1/2 17/1/2 7/1/2
f  15/1/6 85/1/6 32/1/15
f  87/1/16 85/1/16 80/1/16
f  81/1/2 85/1/2 91/1/2
f  91/1/1 85/1/1 81/1/1
f  86/1/2 81/1/2 83/1/2
f  83/1/1 81/1/1 86/1/1
f  82/1/17 81/1/17 87/1/17
f  92/1/11 82/1/11 86/1/11
f  86/1/11 83/1/11 92/1/11
f  93/1/18 83/1/5 88/1/8
f  94/1/13 88/1/8 11/1/13
f  11/1/13 18/1/19 94/1/13
f  19/1/2 18/1/2 4/1/2
f  19/1/20 12/1/21 95/1/20
f  26/1/2 12/1/2 20/1/2
f  20/1/2 13/1/2 27/1/2
f  21/1/2 5/1/2 28/1/2
f  14/1/2 21/1/2 41/1/2
f  29/1/2 13/1/2 22/1/2
f  22/1/2 14/1/2 43/1/2
f  23/1/2 15/1/2 30/1/2
f  23/1/22 90/1/14 9/1/9
f  89/1/10 96/1/23 7/1/10
f  89/1/1 84/1/1 81/1/1
f  84/1/1 90/1/1 81/1/1
f  28/1/2 5/1/2 24/1/2
f  24/1/2 16/1/2 31/1/2
f  31/1/2 16/1/2 17/1/2
f  31/1/2 17/1/2 25/1/2
f  25/1/23 7/1/10 96/1/23
f  91/1/15 32/1/15 85/1/6
f  32/1/2 30/1/2 15/1/2
f  91/1/17 97/1/17 81/1/17
f  81/1/1 98/1/1 91/1/1
f  83/1/2 81/1/2 93/1/2
f  93/1/1 81/1/1 83/1/1
f  87/1/17 81/1/17 97/1/17
f  92/1/17 81/1/17 82/1/17
f  99/1/11 92/1/11 83/1/11
f  83/1/24 93/1/24 99/1/24
f  93/1/2 81/1/2 88/1/2
f  88/1/1 81/1/1 93/1/1
f  93/1/24 88/1/24 100/1/24
f  101/1/25 88/1/8 94/1/13
f  102/1/19 94/1/13 18/1/19
f  18/1/19 19/1/20 102/1/19
f  103/1/21 95/1/20 12/1/21
f  95/1/20 102/1/19 19/1/20
f  12/1/2 26/1/2 33/1/2
f  26/1/2 20/1/2 37/1/2
f  27/1/2 13/1/2 34/1/2
f  20/1/2 27/1/2 37/1/2
f  21/1/2 28/1/2 40/1/2
f  41/1/2 21/1/2 40/1/2
f  43/1/2 14/1/2 41/1/2
f  35/1/2 13/1/2 29/1/2
f  29/1/2 22/1/2 45/1/2
f  45/1/2 22/1/2 43/1/2
f  30/1/26 98/1/26 23/1/22
f  104/1/14 90/1/14 23/1/22
f  105/1/27 96/1/23 89/1/10
f  105/1/1 89/1/1 81/1/1
f  90/1/1 104/1/1 81/1/1
f  28/1/2 24/1/2 36/1/2
f  36/1/2 24/1/2 31/1/2
f  36/1/2 31/1/2 25/1/2
f  96/1/23 106/1/28 25/1/23
f  32/1/29 91/1/29 30/1/29
f  107/1/1 91/1/1 98/1/1
f  108/1/1 98/1/1 81/1/1
f  99/1/17 81/1/17 92/1/17
f  100/1/24 99/1/24 93/1/24
f  88/1/2 81/1/2 101/1/2
f  101/1/1 81/1/1 88/1/1
f  109/1/24 100/1/24 88/1/24
f  88/1/30 101/1/30 109/1/30
f  101/1/2 81/1/2 94/1/2
f  94/1/1 81/1/1 101/1/1
f  94/1/30 109/1/30 101/1/30
f  110/1/31 94/1/13 102/1/19
f  95/1/32 103/1/32 111/1/32
f  95/1/2 81/1/2 103/1/2
f  103/1/1 81/1/1 95/1/1
f  103/1/21 12/1/21 112/1/33
f  102/1/34 95/1/34 113/1/34
f  102/1/2 81/1/2 95/1/2
f  95/1/1 81/1/1 102/1/1
f  26/1/2 37/1/2 33/1/2
f  38/1/2 12/1/2 33/1/2
f  34/1/2 13/1/2 39/1/2
f  27/1/2 34/1/2 46/1/2
f  37/1/2 27/1/2 46/1/2
f  40/1/2 28/1/2 36/1/2
f  41/1/2 40/1/2 25/1/2
f  43/1/2 41/1/2 42/1/2
f  44/1/2 13/1/2 35/1/2
f  35/1/2 29/1/2 50/1/2
f  50/1/2 29/1/2 45/1/2
f  45/1/2 43/1/2 42/1/2
f  108/1/22 23/1/22 98/1/26
f  107/1/26 98/1/26 30/1/26
f  108/1/22 104/1/14 23/1/22
f  96/1/1 105/1/1 81/1/1
f  104/1/1 108/1/1 81/1/1
f  40/1/2 36/1/2 25/1/2
f  42/1/28 25/1/23 106/1/28
f  114/1/35 106/1/28 96/1/23
f  107/1/29 30/1/29 91/1/29
f  100/1/17 81/1/17 99/1/17
f  109/1/17 81/1/17 100/1/17
f  94/1/2 81/1/2 110/1/2
f  110/1/1 81/1/1 94/1/1
f  115/1/30 109/1/30 94/1/30
f  94/1/36 110/1/36 116/1/36
f  110/1/2 81/1/2 102/1/2
f  102/1/1 81/1/1 110/1/1
f  110/1/36 102/1/36 117/1/36
f  118/1/32 111/1/32 103/1/32
f  111/1/34 113/1/34 95/1/34
f  103/1/2 81/1/2 112/1/2
f  112/1/1 81/1/1 103/1/1
f  38/1/33 112/1/33 12/1/21
f  103/1/37 112/1/37 118/1/37
f  113/1/36 117/1/36 102/1/36
f  37/1/2 46/1/2 33/1/2
f  47/1/2 38/1/2 33/1/2
f  39/1/2 13/1/2 48/1/2
f  34/1/2 39/1/2 51/1/2
f  46/1/2 34/1/2 51/1/2
f  42/1/2 41/1/2 25/1/2
f  49/1/2 13/1/2 44/1/2
f  44/1/2 35/1/2 56/1/2
f  56/1/2 35/1/2 50/1/2
f  50/1/2 45/1/2 42/1/2
f  114/1/1 96/1/1 81/1/1
f  106/1/28 119/1/38 42/1/28
f  106/1/1 114/1/1 81/1/1
f  115/1/17 81/1/17 109/1/17
f  116/1/30 115/1/30 94/1/30
f  117/1/36 116/1/36 110/1/36
f  118/1/17 81/1/17 111/1/17
f  111/1/17 81/1/17 113/1/17
f  112/1/2 81/1/2 120/1/2
f  120/1/1 81/1/1 112/1/1
f  112/1/33 38/1/33 120/1/39
f  121/1/37 118/1/37 112/1/37
f  113/1/17 81/1/17 117/1/17
f  46/1/2 51/1/2 33/1/2
f  52/1/2 38/1/2 47/1/2
f  33/1/40 122/1/40 47/1/41
f  48/1/2 13/1/2 53/1/2
f  39/1/2 48/1/2 60/1/2
f  51/1/2 39/1/2 60/1/2
f  54/1/2 13/1/2 49/1/2
f  49/1/2 44/1/2 63/1/2
f  63/1/2 44/1/2 56/1/2
f  56/1/2 50/1/2 55/1/2
f  55/1/2 50/1/2 42/1/2
f  55/1/38 42/1/28 119/1/38
f  119/1/1 106/1/1 81/1/1
f  116/1/17 81/1/17 115/1/17
f  117/1/17 81/1/17 116/1/17
f  121/1/17 81/1/17 118/1/17
f  120/1/39 52/1/39 81/1/42
f  120/1/43 123/1/43 81/1/43
f  81/1/44 123/1/44 120/1/44
f  112/1/45 120/1/45 121/1/45
f  52/1/39 120/1/39 38/1/33
f  33/1/2 51/1/2 57/1/2
f  58/1/2 52/1/2 47/1/2
f  124/1/41 47/1/41 122/1/40
f  33/1/40 57/1/46 122/1/40
f  53/1/2 13/1/2 59/1/2
f  48/1/2 53/1/2 65/1/2
f  60/1/2 48/1/2 65/1/2
f  51/1/2 60/1/2 57/1/2
f  61/1/2 13/1/2 54/1/2
f  62/1/2 54/1/2 49/1/2
f  67/1/2 49/1/2 63/1/2
f  63/1/2 56/1/2 55/1/2
f  119/1/38 125/1/47 55/1/38
f  125/1/1 119/1/1 81/1/1
f  123/1/17 81/1/17 121/1/17
f  64/1/42 81/1/42 52/1/39
f  123/1/45 121/1/45 120/1/45
f  64/1/2 52/1/2 58/1/2
f  47/1/41 124/1/41 58/1/48
f  124/1/1 122/1/1 81/1/1
f  126/1/46 122/1/40 57/1/46
f  59/1/2 13/1/2 61/1/2
f  53/1/2 59/1/2 69/1/2
f  65/1/2 53/1/2 69/1/2
f  60/1/2 65/1/2 57/1/2
f  61/1/2 54/1/2 76/1/2
f  66/1/2 54/1/2 62/1/2
f  62/1/2 49/1/2 67/1/2
f  67/1/2 63/1/2 55/1/2
f  73/1/47 55/1/38 125/1/47
f  126/1/1 125/1/1 81/1/1
f  81/1/49 64/1/49 127/1/49
f  68/1/2 64/1/2 58/1/2
f  128/1/48 58/1/48 124/1/41
f  122/1/1 126/1/1 81/1/1
f  128/1/1 124/1/1 81/1/1
f  57/1/46 73/1/47 126/1/46
f  59/1/2 61/1/2 74/1/2
f  69/1/2 59/1/2 74/1/2
f  65/1/2 69/1/2 57/1/2
f  76/1/2 54/1/2 75/1/2
f  74/1/2 61/1/2 76/1/2
f  54/1/2 66/1/2 75/1/2
f  70/1/2 66/1/2 62/1/2
f  71/1/2 62/1/2 67/1/2
f  71/1/2 67/1/2 55/1/2
f  73/1/2 72/1/2 55/1/2
f  125/1/47 126/1/46 73/1/47
f  68/1/49 127/1/49 64/1/49
f  127/1/1 128/1/1 81/1/1
f  58/1/48 128/1/48 68/1/50
f  57/1/2 69/1/2 73/1/2
f  69/1/2 74/1/2 73/1/2
f  76/1/2 75/1/2 73/1/2
f  74/1/2 76/1/2 73/1/2
f  75/1/2 66/1/2 72/1/2
f  66/1/2 70/1/2 72/1/2
f  71/1/2 70/1/2 62/1/2
f  77/1/2 71/1/2 55/1/2
f  72/1/2 78/1/2 55/1/2
f  75/1/2 72/1/2 73/1/2
f  127/1/50 68/1/50 128/1/48
f  72/1/2 70/1/2 78/1/2
f  77/1/2 70/1/2 71/1/2
f  78/1/2 77/1/2 55/1/2
f  77/1/2 78/1/2 70/1/2

# Mesh 'mesh1_mesh1-geometry' with 88 faces
g mesh1_mesh1-geometry
usemtl material_2_1_8
f  3/2/51 79/3/52 1/4/52
f  79/3/52 3/2/51 80/5/51
f  79/6/52 6/7/53 1/8/52
f  15/9/54 80/10/51 3/11/51
f  80/12/55 82/13/55 79/14/55
f  6/7/53 79/6/52 83/15/53
f  83/16/53 8/17/56 6/18/53
f  7/19/57 84/20/58 9/21/58
f  80/10/51 15/9/54 85/22/54
f  82/13/55 80/12/55 87/23/55
f  82/24/59 86/25/59 79/26/59
f  83/15/53 79/6/52 86/27/60
f  8/17/56 83/16/53 88/28/56
f  88/29/56 11/30/38 8/31/56
f  84/20/58 7/19/57 89/32/57
f  90/33/61 9/34/58 84/35/58
f  32/36/62 85/37/54 15/38/54
f  80/39/63 85/40/63 87/41/63
f  86/25/59 82/24/59 92/42/59
f  92/42/59 83/43/59 86/25/59
f  88/28/56 83/16/53 93/44/64
f  11/30/38 88/29/56 94/45/38
f  94/46/38 18/47/65 11/48/38
f  95/49/66 12/50/67 19/51/66
f  9/34/58 90/33/61 23/52/68
f  7/53/57 96/54/69 89/55/57
f  96/54/69 7/53/57 25/56/69
f  85/37/54 32/36/62 91/57/62
f  83/43/59 92/42/59 99/58/59
f  99/59/70 93/60/70 83/61/70
f  100/62/70 88/63/70 93/60/70
f  94/45/38 88/29/56 101/64/71
f  18/47/65 94/46/38 102/65/65
f  102/66/65 19/67/66 18/68/65
f  12/50/67 95/49/66 103/69/67
f  19/67/66 102/66/65 95/70/66
f  23/71/68 98/72/72 30/73/72
f  23/52/68 90/33/61 104/74/61
f  89/55/57 96/54/69 105/75/73
f  25/76/69 106/77/74 96/78/69
f  30/73/49 91/79/49 32/80/49
f  93/60/70 99/59/70 100/62/70
f  88/63/70 100/62/70 109/81/70
f  109/82/75 101/83/75 88/84/75
f  101/83/75 109/82/75 94/85/75
f  102/65/65 94/46/38 110/86/76
f  111/87/77 103/88/77 95/89/77
f  112/90/78 12/91/67 103/92/67
f  113/93/79 95/94/79 102/95/79
f  98/72/72 23/71/68 108/96/68
f  30/73/72 98/72/72 107/1/72
f  23/52/68 104/74/61 108/97/68
f  106/77/74 25/76/69 42/98/74
f  96/78/69 106/77/74 114/99/80
f  91/79/49 30/73/49 107/1/49
f  94/85/75 109/82/75 115/100/75
f  116/101/81 110/102/81 94/103/81
f  117/104/81 102/105/81 110/102/81
f  103/88/77 111/87/77 118/106/77
f  95/94/79 113/93/79 111/107/79
f  12/91/67 112/90/78 38/108/78
f  118/109/82 112/110/82 103/111/82
f  102/105/81 117/104/81 113/112/81
f  42/113/74 119/114/13 106/115/74
f  94/85/75 115/100/75 116/116/75
f  110/102/81 116/101/81 117/104/81
f  120/117/83 38/118/78 112/119/78
f  112/110/82 118/109/82 121/120/82
f  47/121/84 122/122/85 33/123/85
f  119/114/13 42/113/74 55/124/13
f  81/125/86 52/126/83 120/127/83
f  121/128/87 120/129/87 112/130/87
f  38/118/78 120/117/83 52/131/83
f  122/122/85 47/121/84 124/132/84
f  122/133/85 57/134/88 33/135/85
f  55/136/13 125/137/89 119/138/13
f  52/126/83 81/125/86 64/139/86
f  120/129/87 121/128/87 123/140/87
f  58/141/90 124/142/84 47/143/84
f  57/134/88 122/133/85 126/144/88
f  125/137/89 55/136/13 73/145/89
f  127/1/29 64/146/29 81/147/29
f  124/142/84 58/141/90 128/148/90
f  126/149/88 73/150/89 57/151/88
f  73/150/89 126/149/88 125/152/89
f  64/146/29 127/1/29 68/73/29
f  68/153/91 128/154/90 58/155/90
f  128/154/90 68/153/91 127/156/91

# Mesh 'mesh1_mesh1-geometry' with 2 faces
g mesh1_mesh1-geometry
usemtl material_4_24
f  4//1 5//1 2//1
f  5//1 4//1 13//1

# Mesh 'mesh1_mesh1-geometry' with 22 faces
g mesh1_mesh1-geometry
usemtl material_5_24
f  16//1 17//1 10//1
f  41//1 21//1 14//1
f  43//1 14//1 22//1
f  31//1 16//1 24//1
f  17//1 16//1 31//1
f  40//1 28//1 21//1
f  40//1 21//1 41//1
f  41//1 14//1 43//1
f  45//1 22//1 29//1
f  43//1 22//1 45//1
f  36//1 24//1 28//1
f  31//1 24//1 36//1
f  36//1 28//1 40//1
f  50//1 29//1 35//1
f  45//1 29//1 50//1
f  56//1 35//1 44//1
f  50//1 35//1 56//1
f  63//1 44//1 49//1
f  56//1 44//1 63//1
f  63//1 49//1 67//1
f  67//1 49//1 62//1
f  67//1 62//1 71//1

# Mesh 'mesh1_mesh1-geometry' with 33 faces
g mesh1_mesh1-geometry
usemtl material_3_24
f  87//92 81//92 82//92
f  81//2 84//2 89//2
f  81//2 90//2 84//2
f  81//92 97//92 91//92
f  91//2 98//2 81//2
f  97//92 81//92 87//92
f  82//92 81//92 92//92
f  81//2 89//2 105//2
f  81//2 104//2 90//2
f  98//2 91//2 107//2
f  81//2 98//2 108//2
f  92//92 81//92 99//92
f  81//2 105//2 96//2
f  81//2 108//2 104//2
f  99//92 81//92 100//92
f  100//92 81//92 109//92
f  81//2 96//2 114//2
f  81//2 114//2 106//2
f  109//92 81//92 115//92
f  111//92 81//92 118//92
f  113//92 81//92 111//92
f  117//92 81//92 113//92
f  81//2 106//2 119//2
f  115//92 81//92 116//92
f  116//92 81//92 117//92
f  118//92 81//92 121//92
f  81//2 119//2 125//2
f  121//92 81//92 123//92
f  81//2 122//2 124//2
f  81//2 125//2 126//2
f  81//2 126//2 122//2
f  81//2 124//2 128//2
f  81//2 128//2 127//2

# Mesh 'mesh1_mesh1-geometry' with 22 faces
g mesh1_mesh1-geometry
usemtl material_6_24
f  37//1 20//1 26//1
f  37//1 27//1 20//1
f  46//1 34//1 27//1
f  46//1 27//1 37//1
f  51//1 39//1 34//1
f  51//1 34//1 46//1
f  60//1 48//1 39//1
f  60//1 39//1 51//1
f  65//1 53//1 48//1
f  65//1 48//1 60//1
f  69//1 59//1 53//1
f  69//1 53//1 65//1
f  76//1 54//1 61//1
f  74//1 61//1 59//1
f  74//1 59//1 69//1
f  75//1 54//1 76//1
f  76//1 61//1 74//1
f  75//1 66//1 54//1
f  72//1 66//1 75//1
f  72//1 70//1 66//1
f  78//1 70//1 72//1
f  70//1 78//1 77//1

# Mesh 'mesh2_mesh2-geometry' with 2 faces
g mesh2_mesh2-geometry
usemtl material_1_0
l  81 123
l  123 120

# Mesh 'mesh3_mesh3-geometry' with 1 faces
g mesh3_mesh3-geometry
usemtl material_1_0
l  129 105

