# File produced by Open Asset Import Library (http://www.assimp.sf.net)
# (assimp v3.2.202087883)

mtllib model_normalized.mtl

# 40 vertex positions
v -0.438473 0.095207 -0.215219
v 0.437627 0.095207 0.212146
v 0.437627 0.095207 -0.215219
v -0.438473 0.095207 0.212146
v 0.437627 0.076213 -0.215219
v -0.438473 0.076213 0.212146
v 0.437627 0.076213 0.212146
v -0.438473 0.076213 -0.215219
v 0.380079 0.076213 0.170678
v 0.370003 0.076213 -0.169042
v -0.382730 0.076213 0.138920
v 0.380079 0.076213 0.139813
v 0.339138 0.076213 -0.169042
v -0.366929 0.076213 -0.169885
v -0.382730 0.076213 0.169785
v 0.349214 0.076213 0.170678
v 0.380079 -0.127972 0.170678
v 0.370003 0.076213 -0.138177
v 0.339138 -0.125598 -0.169042
v -0.336064 0.076213 -0.169885
v -0.366929 0.076213 -0.139020
v -0.351865 0.076213 0.169785
v -0.382730 -0.106604 0.169785
v 0.349214 0.076213 0.139813
v 0.349214 -0.127972 0.170678
v 0.380079 -0.127972 0.139813
v 0.370003 -0.125598 -0.138177
v 0.370003 -0.125598 -0.169042
v 0.339138 -0.125598 -0.138177
v -0.336064 0.076213 -0.139020
v -0.336064 -0.116101 -0.169885
v -0.351865 0.076213 0.138920
v -0.366929 -0.116101 -0.139020
v 0.339138 0.076213 -0.138177
v -0.382730 -0.106604 0.138920
v 0.349214 -0.127972 0.139813
v -0.336064 -0.116101 -0.139020
v -0.366929 -0.116101 -0.169885
v -0.351865 -0.106604 0.169785
v -0.351865 -0.106604 0.138920

# 104 UV coordinates
vt 1.91793 0.657755 0
vt -0.099788 1.64201 0
vt -0.099788 0.657755 0
vt 1.91793 1.64201 0
vt -1.64201 0.087489 0
vt -0.657755 0.043745 0
vt -0.657755 0.087489 0
vt -0.099788 0.043745 0
vt 1.91793 0.087489 0
vt -0.099788 0.087489 0
vt 0.657755 0.087489 0
vt 1.64201 0.043745 0
vt 1.64201 0.087489 0
vt -1.91793 0.043745 0
vt 0.099788 0.087489 0
vt -1.91793 0.087489 0
vt -1.64201 0.043745 0
vt 1.91793 0.043745 0
vt 0.657755 0.043745 0
vt 0.099788 0.043745 0
vt 0.099788 1.64201 0
vt -0.032748 1.5465 0
vt 0.099788 0.657755 0
vt -0.055954 0.7641 0
vt -1.91793 0.657755 0
vt -1.78955 1.47336 0
vt -1.91793 1.64201 0
vt -0.032748 1.47542 0
vt -0.127038 0.7641 0
vt -1.75316 0.762162 0
vt -1.78955 1.54444 0
vt -0.103833 1.5465 0
vt -1.5465 -0.426509 0
vt -1.47542 0.043745 0
vt -1.5465 0.043745 0
vt -0.055954 0.835185 0
vt 0.055954 0.043745 0
vt 0.127038 -0.421041 0
vt 0.127038 0.043745 0
vt -1.68208 0.762162 0
vt -1.75316 0.833247 0
vt -1.71846 1.54444 0
vt 1.47336 0.043745 0
vt 1.54444 -0.377297 0
vt 1.54444 0.043745 0
vt -0.103833 1.47542 0
vt -0.103833 -0.426509 0
vt -0.032748 0.043745 0
vt -0.103833 0.043745 0
vt -1.47542 -0.426509 0
vt -0.032748 -0.426509 0
vt -0.835185 -0.421041 0
vt -0.7641 0.043745 0
vt -0.835185 0.043745 0
vt 0.055954 -0.421041 0
vt 0.835185 -0.421041 0
vt 0.7641 0.043745 0
vt 0.7641 -0.421041 0
vt -1.68208 0.833247 0
vt 1.68208 -0.399169 0
vt 1.75316 0.043745 0
vt 1.68208 0.043745 0
vt -1.71846 1.47336 0
vt 0.762162 0.043745 0
vt 0.833247 -0.399169 0
vt 0.833247 0.043745 0
vt -0.127038 0.835185 0
vt -1.78955 -0.377297 0
vt -1.71846 0.043745 0
vt -1.78955 0.043745 0
vt 1.47336 -0.377297 0
vt 1.47542 0.043745 0
vt 1.5465 -0.426509 0
vt 1.5465 0.043745 0
vt 0.103833 -0.426509 0
vt 0.032748 0.043745 0
vt 0.032748 -0.426509 0
vt 0.103833 0.043745 0
vt -0.7641 -0.421041 0
vt -0.055954 0.043745 0
vt -0.127038 -0.421041 0
vt -0.055954 -0.421041 0
vt 0.835185 0.043745 0
vt -0.833247 -0.399169 0
vt -0.762162 0.043745 0
vt -0.833247 0.043745 0
vt 1.75316 -0.399169 0
vt -0.762162 -0.399169 0
vt 1.71846 0.043745 0
vt 1.78955 -0.377297 0
vt 1.78955 0.043745 0
vt 0.762162 -0.399169 0
vt -1.75316 -0.399169 0
vt -1.68208 0.043745 0
vt -1.75316 0.043745 0
vt -1.71846 -0.377297 0
vt 1.47542 -0.426509 0
vt -0.127038 0.043745 0
vt -1.68208 -0.399169 0
vt 1.71846 -0.377297 0
vt -1.54444 -0.377297 0
vt -1.47336 0.043745 0
vt -1.54444 0.043745 0
vt -1.47336 -0.377297 0

# 6 vertex normals
vn 0 1 0
vn 1 0 0
vn 0 0 -1
vn -1 0 0
vn 0 0 1
vn -0 -1 0

# Mesh 'mesh1_mesh1-geometry' with 76 faces
g mesh1_mesh1-geometry
usemtl material_0_1_8
f  1/1/1 2/2/1 3/3/1
f  2/2/1 1/1/1 4/4/1
f  2/5/2 5/6/2 3/7/2
f  5/8/3 1/9/3 3/10/3
f  1/11/4 6/12/4 4/13/4
f  6/14/5 2/15/5 4/16/5
f  5/6/2 2/5/2 7/17/2
f  1/9/3 5/8/3 8/18/3
f  6/12/4 1/11/4 8/19/4
f  2/15/5 6/14/5 7/20/5
f  7/21/6 9/22/6 5/23/6
f  5/23/6 10/24/6 8/25/6
f  8/25/6 11/26/6 6/27/6
f  9/22/6 7/21/6 6/27/6
f  12/28/6 5/23/6 9/22/6
f  10/24/6 5/23/6 12/28/6
f  8/25/6 10/24/6 13/29/6
f  8/25/6 14/30/6 11/26/6
f  15/31/6 6/27/6 11/26/6
f  9/22/6 6/27/6 16/32/6
f  17/33/2 12/34/2 9/35/2
f  10/24/6 12/28/6 18/36/6
f  10/37/3 19/38/3 13/39/3
f  8/25/6 13/29/6 20/40/6
f  8/25/6 20/40/6 14/30/6
f  21/41/6 11/26/6 14/30/6
f  22/42/6 6/27/6 15/31/6
f  11/43/4 23/44/4 15/45/4
f  16/32/6 6/27/6 24/46/6
f  25/47/5 9/48/5 16/49/5
f  12/34/2 17/33/2 26/50/2
f  9/48/5 25/47/5 17/51/5
f  24/46/6 18/36/6 12/28/6
f  27/52/2 10/53/2 18/54/2
f  19/38/3 10/37/3 28/55/3
f  29/56/4 13/57/4 19/58/4
f  20/40/6 13/29/6 30/59/6
f  31/60/3 14/61/3 20/62/3
f  21/41/6 32/63/6 11/26/6
f  14/64/4 33/65/4 21/66/4
f  34/67/6 6/27/6 22/42/6
f  23/68/5 22/69/5 15/70/5
f  23/44/4 11/43/4 35/71/4
f  24/46/6 6/27/6 34/67/6
f  24/72/4 25/73/4 16/74/4
f  25/32/6 26/28/6 17/22/6
f  36/75/3 12/76/3 26/77/3
f  18/36/6 24/46/6 34/67/6
f  12/76/3 36/75/3 24/78/3
f  10/53/2 27/52/2 28/79/2
f  18/80/5 29/81/5 27/82/5
f  28/24/6 29/67/6 19/29/6
f  13/57/4 29/56/4 34/83/4
f  13/29/6 22/42/6 30/59/6
f  37/84/2 20/85/2 30/86/2
f  14/61/3 31/60/3 38/87/3
f  20/85/2 37/84/2 31/88/2
f  30/59/6 32/63/6 21/41/6
f  32/89/3 35/90/3 11/91/3
f  33/65/4 14/64/4 38/92/4
f  33/93/5 30/94/5 21/95/5
f  34/67/6 22/42/6 13/29/6
f  22/69/5 23/68/5 39/96/5
f  40/63/6 23/31/6 35/26/6
f  25/73/4 24/72/4 36/97/4
f  26/28/6 25/32/6 36/46/6
f  29/81/5 18/80/5 34/98/5
f  29/67/6 28/24/6 27/36/6
f  32/63/6 30/59/6 22/42/6
f  30/94/5 33/93/5 37/99/5
f  31/40/6 33/41/6 38/30/6
f  33/41/6 31/40/6 37/59/6
f  35/90/3 32/89/3 40/100/3
f  23/31/6 40/63/6 39/42/6
f  39/101/2 32/102/2 22/103/2
f  32/102/2 39/101/2 40/104/2

# Mesh 'mesh1_mesh1-geometry' with 76 faces
g mesh1_mesh1-geometry
usemtl material_1_24
f  3//6 2//6 1//6
f  4//6 1//6 2//6
f  3//4 5//4 2//4
f  3//5 1//5 5//5
f  4//2 6//2 1//2
f  4//3 2//3 6//3
f  7//4 2//4 5//4
f  8//5 5//5 1//5
f  8//2 1//2 6//2
f  7//3 6//3 2//3
f  5//1 9//1 7//1
f  8//1 10//1 5//1
f  6//1 11//1 8//1
f  6//1 7//1 9//1
f  9//1 5//1 12//1
f  12//1 5//1 10//1
f  13//1 10//1 8//1
f  11//1 14//1 8//1
f  11//1 6//1 15//1
f  16//1 6//1 9//1
f  9//4 12//4 17//4
f  18//1 12//1 10//1
f  13//5 19//5 10//5
f  20//1 13//1 8//1
f  14//1 20//1 8//1
f  14//1 11//1 21//1
f  15//1 6//1 22//1
f  15//2 23//2 11//2
f  24//1 6//1 16//1
f  16//3 9//3 25//3
f  26//4 17//4 12//4
f  17//3 25//3 9//3
f  12//1 18//1 24//1
f  18//4 10//4 27//4
f  28//5 10//5 19//5
f  19//2 13//2 29//2
f  30//1 13//1 20//1
f  20//5 14//5 31//5
f  11//1 32//1 21//1
f  21//2 33//2 14//2
f  22//1 6//1 34//1
f  15//3 22//3 23//3
f  35//2 11//2 23//2
f  34//1 6//1 24//1
f  16//2 25//2 24//2
f  17//1 26//1 25//1
f  26//5 12//5 36//5
f  34//1 24//1 18//1
f  24//5 36//5 12//5
f  28//4 27//4 10//4
f  27//3 29//3 18//3
f  19//1 29//1 28//1
f  34//2 29//2 13//2
f  30//1 22//1 13//1
f  30//4 20//4 37//4
f  38//5 31//5 14//5
f  31//4 37//4 20//4
f  21//1 32//1 30//1
f  11//5 35//5 32//5
f  38//2 14//2 33//2
f  21//3 30//3 33//3
f  13//1 22//1 34//1
f  39//3 23//3 22//3
f  35//1 23//1 40//1
f  36//2 24//2 25//2
f  36//1 25//1 26//1
f  34//3 18//3 29//3
f  27//1 28//1 29//1
f  22//1 30//1 32//1
f  37//3 33//3 30//3
f  38//1 33//1 31//1
f  37//1 31//1 33//1
f  40//5 32//5 35//5
f  39//1 40//1 23//1
f  22//4 32//4 39//4
f  40//4 39//4 32//4

