# File produced by Open Asset Import Library (http://www.assimp.sf.net)
# (assimp v3.2.202087883)

mtllib model_normalized.mtl

# 48 vertex positions
v 0.377712 -0.039318 0.258033
v 0.377712 0.041680 0.257148
v 0.377712 0.002030 0.296744
v 0.377712 -0.074471 0.213620
v -0.377712 0.041680 0.257148
v -0.377712 -0.039318 0.258033
v -0.377712 -0.074471 0.213620
v 0.377712 0.075286 0.212309
v -0.377712 0.002030 0.296744
v -0.377712 0.075286 0.212309
v -0.377712 -0.102652 0.164488
v 0.377712 -0.102652 0.164488
v 0.377712 0.102163 0.163141
v -0.377712 0.102163 0.163141
v 0.377712 -0.123238 0.111720
v -0.377712 -0.123238 0.111720
v 0.377712 0.121761 0.110644
v -0.377712 0.121761 0.110644
v 0.377712 -0.135774 0.056484
v -0.377712 -0.135774 0.056484
v 0.377712 0.133683 0.055892
v -0.377712 0.133683 0.055892
v -0.377712 -0.139983 0.000000
v 0.377712 -0.139983 0.000000
v 0.377712 0.137684 0.000000
v -0.377712 0.137684 0.000000
v 0.377712 -0.135774 -0.056484
v 0.377712 0.133683 -0.055892
v -0.377712 -0.135774 -0.056484
v -0.377712 0.133683 -0.055892
v -0.377712 -0.123238 -0.111721
v 0.377712 0.121761 -0.110639
v -0.377712 0.121761 -0.110639
v 0.377712 -0.123238 -0.111721
v -0.377712 -0.102652 -0.164487
v -0.377712 0.102163 -0.163139
v 0.377712 0.102163 -0.163139
v 0.377712 -0.102652 -0.164487
v 0.377712 -0.074471 -0.213622
v -0.377712 0.075286 -0.212313
v 0.377712 0.075286 -0.212313
v -0.377712 -0.074471 -0.213622
v 0.377712 -0.039318 -0.258030
v 0.377712 0.041680 -0.257149
v -0.377712 0.041680 -0.257149
v -0.377712 -0.039318 -0.258030
v 0.377712 0.002030 -0.296750
v -0.377712 0.002030 -0.296750

# 144 UV coordinates
vt 1.35443 -0.066502 0
vt 1.35562 0.063772 0
vt 1.30255 -0 0
vt 1.41396 -0.123041 0
vt 1.46381 1.19461 0
vt 2.47631 1.10448 0
vt 2.47631 1.19461 0
vt 2.47631 -1.06827 0
vt 1.46381 -1.15937 0
vt 2.47631 -1.15937 0
vt 2.47631 -1.3157 0
vt 1.46381 -1.4068 0
vt 2.47631 -1.4068 0
vt 1.41572 0.117823 0
vt 1.46381 1.10448 0
vt 2.47631 1.33997 0
vt 1.46381 1.43009 0
vt 1.46381 1.33997 0
vt 1.46381 -1.06827 0
vt 1.46381 -1.3157 0
vt 1.46381 -1.62416 0
vt 2.47631 -1.53306 0
vt 1.46381 -1.53306 0
vt 1.47981 -0.168365 0
vt 2.47631 1.43009 0
vt -1.35562 0.063772 0
vt -1.35443 -0.066502 0
vt -1.30255 0 0
vt -1.41396 -0.123041 0
vt -1.41572 0.117823 0
vt 2.47631 -1.62416 0
vt -1.47981 -0.168365 0
vt 1.48162 0.16105 0
vt 2.47631 1.54721 0
vt 1.46381 1.63733 0
vt 1.46381 1.54721 0
vt 1.46381 -1.71553 0
vt 2.47631 -1.80663 0
vt 2.47631 -1.71553 0
vt -1.48162 0.16105 0
vt 1.55054 -0.201475 0
vt 2.47631 1.63733 0
vt 1.46381 -1.80663 0
vt -1.55054 -0.201475 0
vt 1.55198 0.192573 0
vt 2.47631 1.72198 0
vt 1.46381 1.8121 0
vt 1.46381 1.72198 0
vt 1.46381 -1.85909 0
vt 2.47631 -1.95019 0
vt 2.47631 -1.85909 0
vt -1.55198 0.192573 0
vt 1.62457 -0.221638 0
vt 2.47631 1.8121 0
vt 1.46381 -1.95019 0
vt -1.62457 -0.221638 0
vt 1.62537 0.211747 0
vt 2.47631 1.86071 0
vt 1.46381 1.95083 0
vt 1.46381 1.86071 0
vt 1.46381 -2.05167 0
vt 2.47631 -1.96057 0
vt 1.46381 -1.96057 0
vt -1.62537 0.211747 0
vt 1.70028 -0.228409 0
vt 2.47631 1.95083 0
vt 2.47631 -2.05167 0
vt -1.70028 -0.228409 0
vt 1.70028 0.218182 0
vt 2.47631 1.96058 0
vt 1.46381 2.0507 0
vt 1.46381 1.96058 0
vt -1.46381 2.01771 0
vt -2.47631 2.10881 0
vt -2.47631 2.01771 0
vt -1.70028 0.218182 0
vt 1.77519 0.211747 0
vt 2.47631 2.0507 0
vt -1.46381 2.10881 0
vt 1.77598 -0.221638 0
vt -1.77519 0.211747 0
vt -1.46381 -2.10967 0
vt -2.47631 -2.01955 0
vt -2.47631 -2.10967 0
vt -1.46381 -2.01955 0
vt -1.77598 -0.221638 0
vt -1.46381 2.12037 0
vt -2.47631 2.02927 0
vt -1.46381 2.02927 0
vt 1.84857 0.192573 0
vt -2.47631 -2.03641 0
vt -1.46381 -2.12654 0
vt -1.46381 -2.03641 0
vt -1.84857 0.192573 0
vt -2.47631 2.12037 0
vt -1.85002 -0.201475 0
vt 1.85002 -0.201475 0
vt -2.47631 -2.12654 0
vt -1.46381 2.08608 0
vt -2.47631 1.99498 0
vt -1.46381 1.99498 0
vt -1.91894 0.16105 0
vt 1.91894 0.16105 0
vt -2.47631 -2.01083 0
vt -1.46381 -2.10095 0
vt -1.46381 -2.01083 0
vt -2.47631 2.08608 0
vt -1.92074 -0.168365 0
vt 1.92074 -0.168365 0
vt -2.47631 -2.10095 0
vt -1.46381 1.9156 0
vt -2.47631 2.0067 0
vt -2.47631 1.9156 0
vt -1.98484 0.117823 0
vt 1.98484 0.117823 0
vt -2.47631 -1.94332 0
vt -1.46381 -2.03344 0
vt -1.46381 -1.94332 0
vt -1.46381 2.0067 0
vt 1.98659 -0.123041 0
vt -1.98659 -0.123041 0
vt -2.47631 -2.03344 0
vt -1.46381 1.79289 0
vt -2.47631 1.88399 0
vt -2.47631 1.79289 0
vt 2.04493 0.063772 0
vt -2.04493 0.063772 0
vt -2.47631 -1.83526 0
vt -1.46381 -1.92538 0
vt -1.46381 -1.83526 0
vt -1.46381 1.88399 0
vt 2.04612 -0.066502 0
vt -2.47631 -1.92538 0
vt -2.04612 -0.066502 0
vt -1.46381 1.62955 0
vt -2.47631 1.72065 0
vt -2.47631 1.62955 0
vt 2.09801 -0 0
vt -2.47631 -1.77898 0
vt -1.46381 -1.68885 0
vt -2.47631 -1.68885 0
vt -2.09801 0 0
vt -1.46381 1.72065 0
vt -1.46381 -1.77898 0

# 96 vertex normals
vn 0.0113844 -0.0167073 0.0153761
vn 0.0113825 0.0171513 0.0148806
vn 0.0145031 0.000336017 0.0208496
vn 0.0113844 -0.018802 0.0127295
vn -0.0113825 0.0171513 0.0148806
vn -0.0113844 -0.0167073 0.0153761
vn -0.0113844 -0.018802 0.0127295
vn 0.0113825 0.019096 0.0122859
vn -0.0145031 0.000336017 0.0208496
vn -0.0113825 0.019096 0.0122859
vn -0.0113844 -0.0204812 0.00980173
vn 0.0113844 -0.0204812 0.00980173
vn 0.0113825 0.0206513 0.00944057
vn -0.0113825 0.0206513 0.00944057
vn 0.0113844 -0.021708 0.00665734
vn -0.0113844 -0.021708 0.00665734
vn 0.0113825 0.0217854 0.00640276
vn -0.0113825 0.0217854 0.00640276
vn 0.0113844 -0.022455 0.00336586
vn -0.0113844 -0.022455 0.00336586
vn 0.0113825 0.0224753 0.00323436
vn -0.0113825 0.0224753 0.00323436
vn -0.0113844 -0.0227058 0
vn 0.0113844 -0.0227058 0
vn 0.0113825 0.0227068 0
vn -0.0113825 0.0227068 0
vn 0.0113844 -0.022455 -0.00336586
vn 0.0113825 0.0224753 -0.00323436
vn -0.0113844 -0.022455 -0.00336586
vn -0.0113825 0.0224753 -0.00323436
vn -0.0113844 -0.021708 -0.00665734
vn 0.0113825 0.0217854 -0.00640276
vn -0.0113825 0.0217854 -0.00640276
vn 0.0113844 -0.021708 -0.00665734
vn -0.0113844 -0.0204812 -0.00980173
vn -0.0113825 0.0206513 -0.00944057
vn 0.0113825 0.0206513 -0.00944057
vn 0.0113844 -0.0204812 -0.00980173
vn 0.0113844 -0.018802 -0.0127295
vn -0.0113825 0.019096 -0.0122859
vn 0.0113825 0.019096 -0.0122859
vn -0.0113844 -0.018802 -0.0127295
vn 0.0113844 -0.0167073 -0.0153761
vn 0.0113825 0.0171513 -0.0148806
vn -0.0113825 0.0171513 -0.0148806
vn -0.0113844 -0.0167073 -0.0153761
vn 0.0145031 0.000336017 -0.0208496
vn -0.0145031 0.000336017 -0.0208496
vn -0.0145031 -0.000336017 -0.0208496
vn -0.0113825 -0.0171513 -0.0148806
vn -0.0113844 0.0167073 -0.0153761
vn -0.0113844 0.018802 -0.0127295
vn 0.0113825 -0.0171513 -0.0148806
vn 0.0113844 0.0167073 -0.0153761
vn 0.0113844 0.018802 -0.0127295
vn -0.0113825 -0.019096 -0.0122859
vn 0.0145031 -0.000336017 -0.0208496
vn 0.0113825 -0.019096 -0.0122859
vn 0.0113844 0.0204812 -0.00980173
vn -0.0113844 0.0204812 -0.00980173
vn -0.0113825 -0.0206513 -0.00944057
vn 0.0113825 -0.0206513 -0.00944057
vn -0.0113844 0.021708 -0.00665734
vn 0.0113844 0.021708 -0.00665734
vn -0.0113825 -0.0217854 -0.00640276
vn 0.0113825 -0.0217854 -0.00640276
vn -0.0113844 0.022455 -0.00336586
vn 0.0113844 0.022455 -0.00336586
vn -0.0113825 -0.0224753 -0.00323436
vn 0.0113825 -0.0224753 -0.00323436
vn 0.0113844 0.0227058 0
vn -0.0113844 0.0227058 0
vn -0.0113825 -0.0227068 0
vn 0.0113825 -0.0227068 0
vn -0.0113844 0.022455 0.00336586
vn -0.0113825 -0.0224753 0.00323436
vn 0.0113844 0.022455 0.00336586
vn 0.0113825 -0.0224753 0.00323436
vn 0.0113844 0.021708 0.00665734
vn -0.0113825 -0.0217854 0.00640276
vn 0.0113825 -0.0217854 0.00640276
vn -0.0113844 0.021708 0.00665734
vn 0.0113844 0.0204812 0.00980173
vn 0.0113825 -0.0206513 0.00944057
vn -0.0113825 -0.0206513 0.00944057
vn -0.0113844 0.0204812 0.00980173
vn -0.0113844 0.018802 0.0127295
vn 0.0113825 -0.019096 0.0122859
vn -0.0113825 -0.019096 0.0122859
vn 0.0113844 0.018802 0.0127295
vn -0.0113844 0.0167073 0.0153761
vn -0.0113825 -0.0171513 0.0148806
vn 0.0113825 -0.0171513 0.0148806
vn 0.0113844 0.0167073 0.0153761
vn -0.0145031 -0.000336017 0.0208496
vn 0.0145031 -0.000336017 0.0208496

# Mesh 'mesh1_mesh1-geometry' with 92 faces
g mesh1_mesh1-geometry
usemtl material_0_1_8
f  1/1/1 2/2/2 3/3/3
f  2/2/2 1/1/1 4/4/4
f  5/5/5 3/6/3 2/7/2
f  3/8/3 6/9/6 1/10/1
f  1/11/1 7/12/7 4/13/4
f  2/2/2 4/4/4 8/14/8
f  3/6/3 5/5/5 9/15/9
f  2/16/2 10/17/10 5/18/5
f  6/9/6 3/8/3 9/19/9
f  7/12/7 1/11/1 6/20/6
f  11/21/11 4/22/4 7/23/7
f  8/14/8 4/4/4 12/24/12
f  10/17/10 2/16/2 8/25/8
f  5/26/5 6/27/6 9/28/9
f  7/29/7 5/26/5 10/30/10
f  6/27/6 5/26/5 7/29/7
f  4/22/4 11/21/11 12/31/12
f  7/29/7 10/30/10 11/32/11
f  8/14/8 12/24/12 13/33/13
f  8/34/8 14/35/14 10/36/10
f  11/37/11 15/38/15 12/39/12
f  11/32/11 10/30/10 14/40/14
f  13/33/13 12/24/12 15/41/15
f  14/35/14 8/34/8 13/42/13
f  15/38/15 11/37/11 16/43/16
f  11/32/11 14/40/14 16/44/16
f  13/33/13 15/41/15 17/45/17
f  13/46/13 18/47/18 14/48/14
f  16/49/16 19/50/19 15/51/15
f  16/44/16 14/40/14 18/52/18
f  17/45/17 15/41/15 19/53/19
f  18/47/18 13/46/13 17/54/17
f  19/50/19 16/49/16 20/55/20
f  16/44/16 18/52/18 20/56/20
f  17/45/17 19/53/19 21/57/21
f  17/58/17 22/59/22 18/60/18
f  23/61/23 19/62/19 20/63/20
f  20/56/20 18/52/18 22/64/22
f  21/57/21 19/53/19 24/65/24
f  22/59/22 17/58/17 21/66/21
f  19/62/19 23/61/23 24/67/24
f  20/56/20 22/64/22 23/68/23
f  21/57/21 24/65/24 25/69/25
f  21/70/21 26/71/26 22/72/22
f  23/73/23 27/74/27 24/75/24
f  23/68/23 22/64/22 26/76/26
f  25/69/25 24/65/24 28/77/28
f  26/71/26 21/70/21 25/78/25
f  27/74/27 23/73/23 29/79/29
f  28/77/28 24/65/24 27/80/27
f  23/68/23 26/76/26 30/81/30
f  30/82/30 25/83/25 28/84/28
f  25/83/25 30/82/30 26/85/26
f  23/68/23 30/81/30 29/86/29
f  31/87/31 27/88/27 29/89/29
f  28/77/28 27/80/27 32/90/32
f  28/91/28 33/92/33 30/93/30
f  29/86/29 30/81/30 33/94/33
f  27/88/27 31/87/31 34/95/34
f  29/86/29 33/94/33 31/96/31
f  32/90/32 27/80/27 34/97/34
f  33/92/33 28/91/28 32/98/32
f  35/99/35 34/100/34 31/101/31
f  31/96/31 33/94/33 36/102/36
f  32/90/32 34/97/34 37/103/37
f  32/104/32 36/105/36 33/106/33
f  34/100/34 35/99/35 38/107/38
f  31/96/31 36/102/36 35/108/35
f  37/103/37 34/97/34 38/109/38
f  36/105/36 32/104/32 37/110/37
f  35/111/35 39/112/39 38/113/38
f  35/108/35 36/102/36 40/114/40
f  37/103/37 38/109/38 41/115/41
f  37/116/37 40/117/40 36/118/36
f  39/112/39 35/111/35 42/119/42
f  41/115/41 38/109/38 39/120/39
f  35/108/35 40/114/40 42/121/42
f  40/117/40 37/116/37 41/122/41
f  42/123/42 43/124/43 39/125/39
f  41/115/41 39/120/39 44/126/44
f  42/121/42 40/114/40 45/127/45
f  41/128/41 45/129/45 40/130/40
f  43/124/43 42/123/42 46/131/46
f  44/126/44 39/120/39 43/132/43
f  45/129/45 41/128/41 44/133/44
f  42/121/42 45/127/45 46/134/46
f  46/135/46 47/136/47 43/137/43
f  44/126/44 43/132/43 47/138/47
f  47/139/47 45/140/45 44/141/44
f  46/134/46 45/127/45 48/142/48
f  47/136/47 46/135/46 48/143/48
f  45/140/45 47/139/47 48/144/48

# Mesh 'mesh1_mesh1-geometry' with 92 faces
g mesh1_mesh1-geometry
usemtl material_1_24
f  3//49 2//50 1//51
f  4//52 1//51 2//50
f  2//50 3//49 5//53
f  1//51 6//54 3//49
f  4//52 7//55 1//51
f  8//56 4//52 2//50
f  9//57 5//53 3//49
f  5//53 10//58 2//50
f  9//57 3//49 6//54
f  6//54 1//51 7//55
f  7//55 4//52 11//59
f  12//60 4//52 8//56
f  8//56 2//50 10//58
f  9//57 6//54 5//53
f  10//58 5//53 7//55
f  7//55 5//53 6//54
f  12//60 11//59 4//52
f  11//59 10//58 7//55
f  13//61 12//60 8//56
f  10//58 14//62 8//56
f  12//60 15//63 11//59
f  14//62 10//58 11//59
f  15//63 12//60 13//61
f  13//61 8//56 14//62
f  16//64 11//59 15//63
f  16//64 14//62 11//59
f  17//65 15//63 13//61
f  14//62 18//66 13//61
f  15//63 19//67 16//64
f  18//66 14//62 16//64
f  19//67 15//63 17//65
f  17//65 13//61 18//66
f  20//68 16//64 19//67
f  20//68 18//66 16//64
f  21//69 19//67 17//65
f  18//66 22//70 17//65
f  20//68 19//67 23//71
f  22//70 18//66 20//68
f  24//72 19//67 21//69
f  21//69 17//65 22//70
f  24//72 23//71 19//67
f  23//71 22//70 20//68
f  25//73 24//72 21//69
f  22//70 26//74 21//69
f  24//72 27//75 23//71
f  26//74 22//70 23//71
f  28//76 24//72 25//73
f  25//73 21//69 26//74
f  29//77 23//71 27//75
f  27//75 24//72 28//76
f  30//78 26//74 23//71
f  28//76 25//73 30//78
f  26//74 30//78 25//73
f  29//77 30//78 23//71
f  29//77 27//75 31//79
f  32//80 27//75 28//76
f  30//78 33//81 28//76
f  33//81 30//78 29//77
f  34//82 31//79 27//75
f  31//79 33//81 29//77
f  34//82 27//75 32//80
f  32//80 28//76 33//81
f  31//79 34//82 35//83
f  36//84 33//81 31//79
f  37//85 34//82 32//80
f  33//81 36//84 32//80
f  38//86 35//83 34//82
f  35//83 36//84 31//79
f  38//86 34//82 37//85
f  37//85 32//80 36//84
f  38//86 39//87 35//83
f  40//88 36//84 35//83
f  41//89 38//86 37//85
f  36//84 40//88 37//85
f  42//90 35//83 39//87
f  39//87 38//86 41//89
f  42//90 40//88 35//83
f  41//89 37//85 40//88
f  39//87 43//91 42//90
f  44//92 39//87 41//89
f  45//93 40//88 42//90
f  40//88 45//93 41//89
f  46//94 42//90 43//91
f  43//91 39//87 44//92
f  44//92 41//89 45//93
f  46//94 45//93 42//90
f  43//91 47//95 46//94
f  47//95 43//91 44//92
f  44//92 45//93 47//95
f  48//96 45//93 46//94
f  48//96 46//94 47//95
f  48//96 47//95 45//93

