# File produced by Open Asset Import Library (http://www.assimp.sf.net)
# (assimp v3.2.202087883)

mtllib model_normalized.mtl

# 89 vertex positions
v 0.426878 0.118244 0.120713
v 0.384944 0.118244 0.162647
v 0.426878 0.118244 0.162647
v 0.384944 0.118244 0.120713
v 0.426878 -0.196260 0.162647
v 0.384944 -0.196260 0.120713
v 0.384944 -0.196260 0.162647
v 0.426878 -0.196260 0.120713
v -0.411801 0.118244 0.120713
v -0.453735 0.118244 0.162647
v -0.411801 0.118244 0.162647
v -0.453735 0.118244 0.120713
v -0.411801 -0.196260 0.162647
v -0.453735 -0.196260 0.120713
v -0.453735 -0.196260 0.162647
v -0.411801 -0.196260 0.120713
v -0.411801 0.118244 -0.172824
v -0.453735 0.118244 -0.130890
v -0.411801 0.118244 -0.130890
v -0.453735 0.118244 -0.172824
v -0.411801 -0.196260 -0.130890
v -0.453735 -0.196260 -0.172824
v -0.453735 -0.196260 -0.130890
v -0.411801 -0.196260 -0.172824
v 0.426878 0.118244 -0.172824
v 0.384944 0.118244 -0.130890
v 0.426878 0.118244 -0.130890
v 0.384944 0.118244 -0.172824
v 0.426878 -0.196260 -0.130890
v 0.384944 -0.196260 -0.172824
v 0.384944 -0.196260 -0.130890
v 0.426878 -0.196260 -0.172824
v -0.411801 0.118244 -0.172824
v 0.384944 0.118244 -0.130890
v -0.411801 0.118244 -0.130890
v 0.384944 0.118244 -0.172824
v 0.426878 0.118244 0.162647
v 0.384944 0.103148 -0.130890
v -0.453735 0.118244 -0.172824
v -0.411801 0.103148 -0.172824
v -0.453735 0.138373 -0.172824
v 0.426878 0.118244 -0.172824
v -0.453735 0.118244 0.162647
v -0.411801 0.103148 -0.130890
v 0.426878 0.138373 -0.172824
v 0.384944 0.103148 -0.172824
v -0.453735 0.138373 0.162647
v 0.426878 0.138373 0.162647
v -0.426897 0.118244 0.120713
v -0.411801 0.118244 0.120713
v -0.426897 0.118244 -0.130890
v -0.411801 -0.154326 0.120713
v -0.426897 -0.154326 -0.130890
v -0.426897 -0.154326 0.120713
v -0.411801 -0.154326 -0.130890
v 0.400041 0.118244 -0.130890
v 0.384944 0.118244 0.120713
v 0.400041 0.118244 0.120713
v 0.384944 0.118244 -0.130890
v 0.400041 -0.154326 0.120713
v 0.384944 -0.154326 -0.130890
v 0.384944 -0.154326 0.120713
v 0.400041 -0.154326 -0.130890
v 0.384944 -0.139230 -0.172824
v -0.411801 -0.139230 0.162647
v 0.384944 -0.139230 0.162647
v -0.411801 -0.139230 -0.172824
v 0.384944 -0.154326 0.162647
v -0.411801 -0.154326 -0.172824
v -0.411801 -0.154326 0.162647
v 0.384944 -0.154326 -0.172824
v -0.020976 -0.139230 -0.156051
v -0.005880 -0.139230 0.154260
v -0.020976 -0.139230 0.154260
v -0.005880 -0.139230 -0.156051
v -0.020976 0.103148 0.154260
v -0.005880 0.103148 -0.156051
v -0.005880 0.103148 0.154260
v -0.020976 0.103148 0.120713
v -0.020976 0.103148 -0.156051
v -0.005880 0.103148 0.120713
v -0.020976 0.103148 0.162647
v -0.411801 0.103148 0.120713
v 0.384944 0.103148 0.120713
v -0.005880 0.103148 0.162647
v 0.384944 0.103148 0.162647
v 0.384944 0.118244 0.120713
v -0.411801 0.103148 0.162647
v 0.384944 0.118244 0.162647

# 0 UV coordinates

# 12 vertex normals
vn 0 0.0254 0
vn 0 -0.0254 0
vn 0 0 0.0254
vn 0 0 -0.0254
vn 0.0254 0 0
vn -0.0254 0 0
vn 0 -0.001 0
vn 0 0.001 0
vn 0 0 0.001
vn 0 0 -0.001
vn -0.001 0 0
vn 0.001 0 -0

# Mesh 'mesh1_mesh1-geometry' with 24 faces
g mesh1_mesh1-geometry
usemtl material_0_24
f  1//1 2//1 3//1
f  2//1 1//1 4//1
f  3//2 2//2 1//2
f  4//2 1//2 2//2
f  2//3 5//3 3//3
f  3//4 5//4 2//4
f  5//5 1//5 3//5
f  3//6 1//6 5//6
f  1//4 6//4 4//4
f  4//3 6//3 1//3
f  6//6 2//6 4//6
f  4//5 2//5 6//5
f  5//3 2//3 7//3
f  7//4 2//4 5//4
f  1//5 5//5 8//5
f  8//6 5//6 1//6
f  6//4 1//4 8//4
f  8//3 1//3 6//3
f  2//6 6//6 7//6
f  7//5 6//5 2//5
f  6//2 5//2 7//2
f  7//1 5//1 6//1
f  5//2 6//2 8//2
f  8//1 6//1 5//1

# Mesh 'mesh2_mesh2-geometry' with 12 faces
g mesh2_mesh2-geometry
usemtl material_0_0
l  4 2
l  1 4
l  6 4
l  2 3
l  7 2
l  3 1
l  8 1
l  6 7
l  8 6
l  5 3
l  7 5
l  5 8

# Mesh 'mesh1_mesh1-geometry' with 24 faces
g mesh1_mesh1-geometry
usemtl material_0_24
f  9//1 10//1 11//1
f  10//1 9//1 12//1
f  11//2 10//2 9//2
f  12//2 9//2 10//2
f  10//3 13//3 11//3
f  11//4 13//4 10//4
f  13//5 9//5 11//5
f  11//6 9//6 13//6
f  9//4 14//4 12//4
f  12//3 14//3 9//3
f  14//6 10//6 12//6
f  12//5 10//5 14//5
f  13//3 10//3 15//3
f  15//4 10//4 13//4
f  9//5 13//5 16//5
f  16//6 13//6 9//6
f  14//4 9//4 16//4
f  16//3 9//3 14//3
f  10//6 14//6 15//6
f  15//5 14//5 10//5
f  14//2 13//2 15//2
f  15//1 13//1 14//1
f  13//2 14//2 16//2
f  16//1 14//1 13//1

# Mesh 'mesh2_mesh2-geometry' with 12 faces
g mesh2_mesh2-geometry
usemtl material_0_0
l  12 10
l  9 12
l  14 12
l  10 11
l  15 10
l  11 9
l  16 9
l  14 15
l  16 14
l  13 11
l  15 13
l  13 16

# Mesh 'mesh1_mesh1-geometry' with 24 faces
g mesh1_mesh1-geometry
usemtl material_0_24
f  17//1 18//1 19//1
f  18//1 17//1 20//1
f  19//2 18//2 17//2
f  20//2 17//2 18//2
f  18//3 21//3 19//3
f  19//4 21//4 18//4
f  21//5 17//5 19//5
f  19//6 17//6 21//6
f  17//4 22//4 20//4
f  20//3 22//3 17//3
f  22//6 18//6 20//6
f  20//5 18//5 22//5
f  21//3 18//3 23//3
f  23//4 18//4 21//4
f  17//5 21//5 24//5
f  24//6 21//6 17//6
f  22//4 17//4 24//4
f  24//3 17//3 22//3
f  18//6 22//6 23//6
f  23//5 22//5 18//5
f  22//2 21//2 23//2
f  23//1 21//1 22//1
f  21//2 22//2 24//2
f  24//1 22//1 21//1

# Mesh 'mesh2_mesh2-geometry' with 12 faces
g mesh2_mesh2-geometry
usemtl material_0_0
l  20 18
l  17 20
l  22 20
l  18 19
l  23 18
l  19 17
l  24 17
l  22 23
l  24 22
l  21 19
l  23 21
l  21 24

# Mesh 'mesh1_mesh1-geometry' with 24 faces
g mesh1_mesh1-geometry
usemtl material_0_24
f  25//1 26//1 27//1
f  26//1 25//1 28//1
f  27//2 26//2 25//2
f  28//2 25//2 26//2
f  26//3 29//3 27//3
f  27//4 29//4 26//4
f  29//5 25//5 27//5
f  27//6 25//6 29//6
f  25//4 30//4 28//4
f  28//3 30//3 25//3
f  30//6 26//6 28//6
f  28//5 26//5 30//5
f  29//3 26//3 31//3
f  31//4 26//4 29//4
f  25//5 29//5 32//5
f  32//6 29//6 25//6
f  30//4 25//4 32//4
f  32//3 25//3 30//3
f  26//6 30//6 31//6
f  31//5 30//5 26//5
f  30//2 29//2 31//2
f  31//1 29//1 30//1
f  29//2 30//2 32//2
f  32//1 30//1 29//1

# Mesh 'mesh2_mesh2-geometry' with 12 faces
g mesh2_mesh2-geometry
usemtl material_0_0
l  28 26
l  25 28
l  30 28
l  26 27
l  31 26
l  27 25
l  32 25
l  30 31
l  32 30
l  29 27
l  31 29
l  29 32

# Mesh 'mesh3_mesh3-geometry' with 60 faces
g mesh3_mesh3-geometry
usemtl material_0_24
f  33//2 34//2 35//2
f  34//2 33//2 36//2
f  35//1 34//1 33//1
f  36//1 33//1 34//1
f  34//2 37//2 35//2
f  35//1 37//1 34//1
f  35//3 38//3 34//3
f  34//4 38//4 35//4
f  35//2 39//2 33//2
f  33//1 39//1 35//1
f  40//6 35//6 33//6
f  33//5 35//5 40//5
f  41//4 36//4 33//4
f  33//3 36//3 41//3
f  36//4 40//4 33//4
f  33//3 40//3 36//3
f  42//2 34//2 36//2
f  36//1 34//1 42//1
f  38//5 36//5 34//5
f  34//6 36//6 38//6
f  37//2 34//2 42//2
f  42//1 34//1 37//1
f  43//2 35//2 37//2
f  37//1 35//1 43//1
f  38//3 35//3 44//3
f  44//4 35//4 38//4
f  35//2 43//2 39//2
f  39//1 43//1 35//1
f  41//4 33//4 39//4
f  39//3 33//3 41//3
f  35//6 40//6 44//6
f  44//5 40//5 35//5
f  45//4 36//4 41//4
f  41//3 36//3 45//3
f  40//4 36//4 46//4
f  46//3 36//3 40//3
f  36//4 45//4 42//4
f  42//3 45//3 36//3
f  36//5 38//5 46//5
f  46//6 38//6 36//6
f  45//5 37//5 42//5
f  42//6 37//6 45//6
f  37//3 47//3 43//3
f  43//4 47//4 37//4
f  40//2 38//2 44//2
f  44//1 38//1 40//1
f  47//6 39//6 43//6
f  43//5 39//5 47//5
f  39//6 47//6 41//6
f  41//5 47//5 39//5
f  47//1 45//1 41//1
f  41//2 45//2 47//2
f  38//2 40//2 46//2
f  46//1 40//1 38//1
f  37//5 45//5 48//5
f  48//6 45//6 37//6
f  47//3 37//3 48//3
f  48//4 37//4 47//4
f  45//1 47//1 48//1
f  48//2 47//2 45//2

# Mesh 'mesh4_mesh4-geometry' with 25 faces
g mesh4_mesh4-geometry
usemtl material_0_0
l  43 47
l  37 43
l  43 39
l  47 41
l  48 47
l  42 37
l  37 48
l  39 33
l  39 41
l  41 45
l  45 48
l  42 45
l  36 42
l  36 33
l  35 33
l  33 40
l  36 34
l  36 46
l  34 35
l  35 44
l  44 40
l  40 46
l  34 38
l  46 38
l  38 44

# Mesh 'mesh5_mesh5-geometry' with 24 faces
g mesh5_mesh5-geometry
usemtl material_0_24
f  19//1 49//1 50//1
f  49//1 19//1 51//1
f  50//2 49//2 19//2
f  51//2 19//2 49//2
f  49//3 52//3 50//3
f  50//4 52//4 49//4
f  52//5 19//5 50//5
f  50//6 19//6 52//6
f  19//4 53//4 51//4
f  51//3 53//3 19//3
f  53//6 49//6 51//6
f  51//5 49//5 53//5
f  52//3 49//3 54//3
f  54//4 49//4 52//4
f  19//5 52//5 55//5
f  55//6 52//6 19//6
f  53//4 19//4 55//4
f  55//3 19//3 53//3
f  49//6 53//6 54//6
f  54//5 53//5 49//5
f  53//2 52//2 54//2
f  54//1 52//1 53//1
f  52//2 53//2 55//2
f  55//1 53//1 52//1

# Mesh 'mesh6_mesh6-geometry' with 12 faces
g mesh6_mesh6-geometry
usemtl material_0_0
l  50 52
l  50 19
l  49 50
l  52 55
l  54 52
l  19 51
l  19 55
l  51 49
l  49 54
l  55 53
l  53 54
l  51 53

# Mesh 'mesh5_mesh5-geometry' with 24 faces
g mesh5_mesh5-geometry
usemtl material_0_24
f  56//1 57//1 58//1
f  57//1 56//1 59//1
f  58//2 57//2 56//2
f  59//2 56//2 57//2
f  57//3 60//3 58//3
f  58//4 60//4 57//4
f  60//5 56//5 58//5
f  58//6 56//6 60//6
f  56//4 61//4 59//4
f  59//3 61//3 56//3
f  61//6 57//6 59//6
f  59//5 57//5 61//5
f  60//3 57//3 62//3
f  62//4 57//4 60//4
f  56//5 60//5 63//5
f  63//6 60//6 56//6
f  61//4 56//4 63//4
f  63//3 56//3 61//3
f  57//6 61//6 62//6
f  62//5 61//5 57//5
f  61//2 60//2 62//2
f  62//1 60//1 61//1
f  60//2 61//2 63//2
f  63//1 61//1 60//1

# Mesh 'mesh6_mesh6-geometry' with 12 faces
g mesh6_mesh6-geometry
usemtl material_0_0
l  58 60
l  58 56
l  57 58
l  60 63
l  62 60
l  56 59
l  56 63
l  59 57
l  57 62
l  63 61
l  61 62
l  59 61

# Mesh 'mesh7_mesh7-geometry' with 24 faces
g mesh7_mesh7-geometry
usemtl material_0_24
f  64//1 65//1 66//1
f  65//1 64//1 67//1
f  66//2 65//2 64//2
f  67//2 64//2 65//2
f  65//3 68//3 66//3
f  66//4 68//4 65//4
f  68//5 64//5 66//5
f  66//6 64//6 68//6
f  64//4 69//4 67//4
f  67//3 69//3 64//3
f  69//6 65//6 67//6
f  67//5 65//5 69//5
f  68//3 65//3 70//3
f  70//4 65//4 68//4
f  64//5 68//5 71//5
f  71//6 68//6 64//6
f  69//4 64//4 71//4
f  71//3 64//3 69//3
f  65//6 69//6 70//6
f  70//5 69//5 65//5
f  69//2 68//2 70//2
f  70//1 68//1 69//1
f  68//2 69//2 71//2
f  71//1 69//1 68//1

# Mesh 'mesh8_mesh8-geometry' with 12 faces
g mesh8_mesh8-geometry
usemtl material_0_0
l  70 69
l  65 70
l  68 70
l  71 69
l  69 67
l  67 65
l  66 65
l  66 68
l  68 71
l  71 64
l  64 67
l  64 66

# Mesh 'mesh9_mesh9-geometry' with 76 faces
g mesh9_mesh9-geometry
usemtl material_0_24
f  72//7 73//7 74//7
f  73//7 72//7 75//7
f  74//8 73//8 72//8
f  75//8 72//8 73//8
f  73//9 76//9 74//9
f  74//10 76//10 73//10
f  76//11 72//11 74//11
f  74//12 72//12 76//12
f  72//10 77//10 75//10
f  75//9 77//9 72//9
f  77//12 73//12 75//12
f  75//11 73//11 77//11
f  76//9 73//9 78//9
f  78//10 73//10 76//10
f  72//11 76//11 79//11
f  79//12 76//12 72//12
f  77//10 72//10 80//10
f  80//9 72//9 77//9
f  73//12 77//12 81//12
f  81//11 77//11 73//11
f  78//12 73//12 81//12
f  81//11 73//11 78//11
f  81//8 76//8 78//8
f  78//7 76//7 81//7
f  82//8 78//8 76//8
f  76//7 78//7 82//7
f  76//8 81//8 79//8
f  79//7 81//7 76//7
f  76//7 83//7 79//7
f  79//8 83//8 76//8
f  80//11 72//11 79//11
f  79//12 72//12 80//12
f  80//8 81//8 77//8
f  77//7 81//7 80//7
f  84//7 78//7 81//7
f  81//8 78//8 84//8
f  78//8 82//8 85//8
f  85//7 82//7 78//7
f  82//7 83//7 76//7
f  76//8 83//8 82//8
f  50//10 81//10 79//10
f  79//9 81//9 50//9
f  81//8 80//8 79//8
f  79//7 80//7 81//7
f  50//10 79//10 83//10
f  83//9 79//9 50//9
f  86//7 78//7 84//7
f  84//8 78//8 86//8
f  81//10 87//10 84//10
f  84//9 87//9 81//9
f  85//9 11//9 82//9
f  82//10 11//10 85//10
f  78//7 86//7 85//7
f  85//8 86//8 78//8
f  83//7 82//7 88//7
f  88//8 82//8 83//8
f  87//10 81//10 50//10
f  50//9 81//9 87//9
f  83//11 11//11 50//11
f  50//12 11//12 83//12
f  87//12 86//12 84//12
f  84//11 86//11 87//11
f  86//9 11//9 85//9
f  85//10 11//10 86//10
f  82//9 11//9 88//9
f  88//10 11//10 82//10
f  11//11 83//11 88//11
f  88//12 83//12 11//12
f  11//8 87//8 50//8
f  50//7 87//7 11//7
f  86//12 87//12 89//12
f  89//11 87//11 86//11
f  11//9 86//9 89//9
f  89//10 86//10 11//10
f  87//8 11//8 89//8
f  89//7 11//7 87//7

# Mesh 'mesh10_mesh10-geometry' with 32 faces
g mesh10_mesh10-geometry
usemtl material_0_0
l  72 75
l  74 72
l  72 80
l  75 73
l  75 77
l  73 74
l  74 76
l  80 77
l  79 80
l  73 78
l  77 81
l  78 76
l  82 76
l  76 79
l  79 83
l  81 79
l  81 78
l  85 78
l  84 81
l  85 82
l  82 88
l  83 50
l  88 83
l  86 85
l  84 87
l  86 84
l  11 88
l  50 11
l  87 50
l  89 86
l  87 89
l  89 11

