# File produced by Open Asset Import Library (http://www.assimp.sf.net)
# (assimp v3.2.202087883)

mtllib model_normalized.mtl

# 26 vertex positions
v 0.376651 0.050935 0.348502
v 0.376651 -0.111699 -0.348502
v 0.376651 -0.111699 0.348502
v 0.376651 0.050935 -0.348502
v 0.355132 -0.111699 0.348502
v 0.355132 0.050935 -0.348502
v 0.355132 -0.111699 -0.348502
v 0.355132 0.050935 0.348502
v 0.355132 0.039318 -0.348502
v 0.355132 0.039318 0.348502
v -0.304646 0.050935 0.348502
v -0.320352 0.050935 -0.348502
v -0.304646 0.050935 -0.348502
v -0.304646 0.039318 -0.348502
v -0.304646 0.039318 0.348502
v -0.320352 -0.111699 0.348502
v -0.320352 0.050935 0.348502
v -0.304646 -0.111699 -0.348502
v -0.304646 -0.111699 0.348502
v -0.320352 -0.111699 -0.348502
v -0.320352 0.050935 -0.348502
v -0.320352 0.050935 0.348502
v -0.320352 0.056743 0.348502
v 0.376651 0.056743 -0.348502
v 0.376651 0.056743 0.348502
v -0.320352 0.056743 -0.348502

# 65 UV coordinates
vt 0 0 0
vt -24 0 0
vt 0 5.6 0
vt -24 5.6 0
vt 0 -4 0
vt 0 -3.25906 0
vt 24 -4 0
vt -4 0 0
vt -4 5.6 0
vt -3.25906 0 0
vt -24 -4 0
vt -24 -3.25906 0
vt 4 5.6 0
vt 4 0 0
vt 3.25906 5.6 0
vt 24 -3.25906 0
vt -3.25906 5.6 0
vt 3.25906 0 0
vt 24 0 0
vt 24 5.2 0
vt -3.25906 5.2 0
vt 0 19.4591 0
vt 24 5.6 0
vt 3.25906 5.2 0
vt 0 5.2 0
vt -19.4591 5.6 0
vt 24 19.4591 0
vt 19.4591 5.2 0
vt -24 19.4591 0
vt -19.4591 5.2 0
vt 19.4591 5.6 0
vt -24 20 0
vt -24 5.2 0
vt 20 0 0
vt -20 5.6 0
vt 0 20 0
vt 19.4591 0 0
vt 20 5.6 0
vt -19.4591 0 0
vt -20 0 0
vt 24 20 0
vt -3.45498 5.67263 0
vt -1.48648 3.70412 0
vt -1.48648 5.67263 0
vt -3.45498 3.70412 0
vt -3.70412 0 0
vt -5.67263 0.016404 0
vt -5.67263 0 0
vt -1.48648 0.016404 0
vt -3.45498 0 0
vt -1.48648 0 0
vt 5.67263 0 0
vt 3.70412 0.016404 0
vt 3.70412 0 0
vt 3.45498 0.016404 0
vt 1.48648 0 0
vt 3.45498 0 0
vt -3.70412 0.016404 0
vt -3.45498 0.016404 0
vt 5.67263 0.016404 0
vt 1.48648 0.016404 0
vt 3.45498 3.70412 0
vt 1.48648 5.67263 0
vt 1.48648 3.70412 0
vt 3.45498 5.67263 0

# 6 vertex normals
vn -0.0254 0 0
vn 0 0.0254 0
vn 0 0 -0.0254
vn 0 -0.0254 -0
vn 0 0 0.0254
vn 0.0254 0 0

# Mesh 'mesh1_mesh1-geometry' with 32 faces
g mesh1_mesh1-geometry
usemtl material_0_24
f  1/1/1 2/1/1 3/1/1
f  2/1/1 1/1/1 4/1/1
f  2/1/2 5/1/2 3/1/2
f  5/1/3 1/1/3 3/1/3
f  1/1/4 6/1/4 4/1/4
f  6/1/5 2/1/5 4/1/5
f  5/1/2 2/1/2 7/1/2
f  1/1/3 5/1/3 8/1/3
f  6/1/4 1/1/4 8/1/4
f  2/1/5 6/1/5 7/1/5
f  9/1/6 5/1/6 7/1/6
f  8/1/3 5/1/3 10/1/3
f  8/1/6 9/1/6 6/1/6
f  7/1/5 6/1/5 9/1/5
f  5/1/6 9/1/6 10/1/6
f  9/1/6 8/1/6 10/1/6
f  11/1/4 12/1/4 13/1/4
f  14/1/1 11/1/1 13/1/1
f  15/1/3 16/1/3 11/1/3
f  11/1/1 14/1/1 15/1/1
f  12/1/5 14/1/5 13/1/5
f  12/1/4 11/1/4 17/1/4
f  18/1/1 15/1/1 14/1/1
f  16/1/3 15/1/3 19/1/3
f  11/1/3 16/1/3 17/1/3
f  14/1/5 12/1/5 18/1/5
f  16/1/6 12/1/6 17/1/6
f  15/1/1 18/1/1 19/1/1
f  18/1/2 16/1/2 19/1/2
f  18/1/5 12/1/5 20/1/5
f  12/1/6 16/1/6 20/1/6
f  16/1/2 18/1/2 20/1/2

# Mesh 'mesh1_mesh1-geometry' with 48 faces
g mesh1_mesh1-geometry
usemtl material_1_2_8
f  3/1/6 2/2/6 1/3/6
f  4/4/6 1/3/6 2/2/6
f  3/5/4 5/6/4 2/7/4
f  3/8/5 1/9/5 5/10/5
f  4/11/2 6/12/2 1/5/2
f  4/13/3 2/14/3 6/15/3
f  7/16/4 2/7/4 5/6/4
f  8/17/5 5/10/5 1/9/5
f  8/6/2 1/5/2 6/12/2
f  7/18/3 6/15/3 2/14/3
f  7/19/1 5/1/1 9/20/1
f  10/21/5 5/10/5 8/17/5
f  6/16/2 11/22/2 8/6/2
f  8/6/4 11/22/4 6/16/4
f  6/23/1 9/20/1 8/3/1
f  9/24/3 6/15/3 7/18/3
f  10/25/1 9/20/1 5/1/1
f  11/26/5 10/24/5 8/15/5
f  8/15/3 10/24/3 11/26/3
f  10/25/1 8/3/1 9/20/1
f  11/22/2 6/16/2 13/27/2
f  13/27/4 6/16/4 11/22/4
f  14/28/3 6/17/3 9/21/3
f  9/21/5 6/17/5 14/28/5
f  10/6/4 14/29/4 9/12/4
f  9/12/2 14/29/2 10/6/2
f  10/24/5 11/26/5 15/30/5
f  15/30/3 11/26/3 10/24/3
f  6/17/3 14/28/3 13/31/3
f  13/31/5 14/28/5 6/17/5
f  13/29/2 12/32/2 11/22/2
f  13/4/6 11/3/6 14/33/6
f  14/29/4 10/6/4 15/22/4
f  15/22/2 10/6/2 14/29/2
f  11/31/5 16/34/5 15/28/5
f  15/25/6 14/33/6 11/3/6
f  13/26/3 14/30/3 12/35/3
f  17/36/2 11/22/2 12/32/2
f  14/33/6 15/25/6 18/2/6
f  19/37/5 15/28/5 16/34/5
f  17/38/5 16/34/5 11/31/5
f  18/39/3 12/35/3 14/30/3
f  17/3/1 12/23/1 16/1/1
f  19/1/6 18/2/6 15/25/6
f  19/22/4 16/36/4 18/27/4
f  20/40/3 12/35/3 18/39/3
f  20/19/1 16/1/1 12/23/1
f  20/41/4 18/27/4 16/36/4

# Mesh 'mesh2_mesh2-geometry' with 24 faces
g mesh2_mesh2-geometry
usemtl material_2_1_8
f  21/42/4 1/43/4 22/44/4
f  1/43/4 21/42/4 4/45/4
f  22/44/2 1/43/2 21/42/2
f  4/45/2 21/42/2 1/43/2
f  1/46/5 23/47/5 22/48/5
f  22/48/3 23/47/3 1/46/3
f  23/49/1 21/50/1 22/51/1
f  22/51/6 21/50/6 23/49/6
f  21/52/3 24/53/3 4/54/3
f  4/54/5 24/53/5 21/52/5
f  24/55/6 1/56/6 4/57/6
f  4/57/1 1/56/1 24/55/1
f  23/47/5 1/46/5 25/58/5
f  25/58/3 1/46/3 23/47/3
f  21/50/1 23/49/1 26/59/1
f  26/59/6 23/49/6 21/50/6
f  24/53/3 21/52/3 26/60/3
f  26/60/5 21/52/5 24/53/5
f  1/56/6 24/55/6 25/61/6
f  25/61/1 24/55/1 1/56/1
f  24/62/2 23/63/2 25/64/2
f  25/64/4 23/63/4 24/62/4
f  23/63/2 24/62/2 26/65/2
f  26/65/4 24/62/4 23/63/4

