# File produced by Open Asset Import Library (http://www.assimp.sf.net)
# (assimp v3.2.202087883)

mtllib model_normalized.mtl

# 64 vertex positions
v -0.318103 -0.162724 0.093179
v 0.311715 -0.162724 0.086792
v 0.318103 -0.162724 0.093179
v 0.247839 -0.162724 0.086792
v 0.311715 -0.162724 -0.084396
v 0.318103 0.537357 0.093179
v -0.247839 -0.162724 0.086792
v 0.318103 -0.162724 -0.090784
v 0.311715 -0.162724 0.022916
v -0.318103 0.537357 0.093179
v -0.311715 -0.162724 0.086792
v 0.247839 -0.162724 0.022916
v -0.318103 -0.162724 -0.090784
v 0.311715 -0.162724 -0.020520
v -0.318103 0.537357 -0.090784
v 0.318103 0.537357 -0.090784
v -0.311715 -0.162724 0.022916
v 0.247839 -0.162724 -0.020520
v 0.247839 -0.162724 -0.084396
v -0.295746 -0.140368 -0.090784
v 0.295746 -0.140368 -0.090784
v -0.311715 -0.162724 -0.020520
v -0.247839 -0.162724 -0.084396
v 0.295746 0.515001 -0.090784
v -0.311715 -0.162724 -0.084396
v 0.295746 0.055732 -0.090784
v -0.247839 -0.162724 -0.020520
v -0.295746 0.055732 -0.090784
v 0.295746 -0.140368 0.086792
v 0.295746 0.318901 -0.090784
v -0.295746 0.515001 -0.090784
v 0.295746 0.078088 -0.090784
v -0.247839 -0.162724 0.022916
v -0.295746 0.078088 -0.090784
v -0.295746 -0.140368 0.086792
v 0.295746 0.296545 -0.090784
v 0.295746 0.318901 0.086792
v -0.295746 0.318901 -0.090784
v -0.295746 0.515001 0.086792
v 0.295746 0.055732 0.086792
v -0.295746 0.296545 -0.090784
v -0.295746 0.055732 0.086792
v 0.295746 0.515001 0.086792
v -0.295746 0.318901 0.086792
v 0.295746 0.078088 0.086792
v -0.295746 0.078088 0.086792
v 0.295746 0.296545 0.086792
v -0.295746 0.296545 0.086792
v 0.247839 -0.211909 0.086792
v 0.311715 -0.211909 0.086792
v 0.311715 -0.211909 0.022916
v -0.311715 -0.211909 0.086792
v 0.247839 -0.211909 0.022916
v 0.311715 -0.211909 -0.084396
v -0.247839 -0.211909 0.086792
v 0.311715 -0.211909 -0.020520
v -0.311715 -0.211909 0.022916
v -0.247839 -0.211909 0.022916
v 0.247839 -0.211909 -0.020520
v 0.247839 -0.211909 -0.084396
v -0.311715 -0.211909 -0.020520
v -0.247839 -0.211909 -0.084396
v -0.311715 -0.211909 -0.084396
v -0.247839 -0.211909 -0.020520

# 0 UV coordinates

# 6 vertex normals
vn 0 -0.001 0
vn 0 0 0.001
vn 0.001 0 0
vn 0 0.001 0
vn -0.001 0 0
vn 0 0 -0.001

# Mesh 'mesh1_mesh1-geometry' with 84 faces
g mesh1_mesh1-geometry
usemtl material_0_24
f  1//1 2//1 3//1
f  2//1 1//1 4//1
f  5//1 3//1 2//1
f  6//2 1//2 3//2
f  4//1 1//1 7//1
f  5//1 8//1 3//1
f  5//1 2//1 9//1
f  1//2 6//2 10//2
f  8//3 6//3 3//3
f  7//1 1//1 11//1
f  4//1 7//1 12//1
f  8//1 5//1 13//1
f  5//1 9//1 14//1
f  6//4 15//4 10//4
f  15//5 1//5 10//5
f  6//3 8//3 16//3
f  11//1 1//1 17//1
f  12//1 7//1 18//1
f  13//1 5//1 19//1
f  13//6 20//6 8//6
f  12//1 14//1 9//1
f  15//4 6//4 16//4
f  1//5 15//5 13//5
f  21//6 16//6 8//6
f  17//1 1//1 22//1
f  18//1 7//1 19//1
f  14//1 12//1 18//1
f  13//1 19//1 23//1
f  20//6 13//6 15//6
f  8//6 20//6 21//6
f  16//6 24//6 15//6
f  13//1 25//1 1//1
f  16//6 21//6 26//6
f  22//1 1//1 25//1
f  27//1 17//1 22//1
f  23//1 19//1 7//1
f  13//1 23//1 25//1
f  20//6 15//6 28//6
f  20//4 29//4 21//4
f  16//6 30//6 24//6
f  31//6 15//6 24//6
f  29//5 26//5 21//5
f  16//6 26//6 32//6
f  17//1 27//1 33//1
f  23//1 7//1 33//1
f  28//6 15//6 34//6
f  28//3 35//3 20//3
f  29//4 20//4 35//4
f  16//6 36//6 30//6
f  37//5 24//5 30//5
f  38//6 15//6 31//6
f  24//1 39//1 31//1
f  26//5 29//5 40//5
f  32//6 26//6 34//6
f  16//6 32//6 36//6
f  23//1 33//1 27//1
f  34//6 15//6 41//6
f  28//6 34//6 26//6
f  35//3 28//3 42//3
f  35//6 40//6 29//6
f  30//6 36//6 38//6
f  24//5 37//5 43//5
f  38//4 37//4 30//4
f  41//6 15//6 38//6
f  31//3 44//3 38//3
f  39//1 24//1 43//1
f  44//3 31//3 39//3
f  42//1 26//1 40//1
f  34//4 45//4 32//4
f  45//5 36//5 32//5
f  41//3 46//3 34//3
f  26//1 42//1 28//1
f  40//6 35//6 42//6
f  41//6 38//6 36//6
f  37//6 39//6 43//6
f  37//4 38//4 44//4
f  39//6 37//6 44//6
f  45//4 34//4 46//4
f  36//5 45//5 47//5
f  46//3 41//3 48//3
f  36//1 48//1 41//1
f  48//6 45//6 46//6
f  45//6 48//6 47//6
f  48//1 36//1 47//1

# Mesh 'mesh1_mesh1-geometry' with 126 faces
g mesh1_mesh1-geometry
usemtl material_1_24
f  3//4 2//4 1//4
f  4//4 1//4 2//4
f  2//4 3//4 5//4
f  3//6 1//6 6//6
f  7//4 1//4 4//4
f  4//6 2//6 49//6
f  3//4 8//4 5//4
f  9//4 2//4 5//4
f  10//6 6//6 1//6
f  3//5 6//5 8//5
f  11//4 1//4 7//4
f  12//4 7//4 4//4
f  50//6 49//6 2//6
f  12//5 49//5 4//5
f  4//3 49//3 12//3
f  13//4 5//4 8//4
f  9//5 51//5 2//5
f  14//4 9//4 5//4
f  10//1 15//1 6//1
f  10//3 1//3 15//3
f  16//5 8//5 6//5
f  17//4 1//4 11//4
f  11//6 7//6 52//6
f  18//4 7//4 12//4
f  50//4 51//4 49//4
f  50//5 2//5 51//5
f  49//5 12//5 53//5
f  53//3 12//3 49//3
f  19//4 5//4 13//4
f  8//2 20//2 13//2
f  9//2 12//2 51//2
f  9//4 14//4 12//4
f  5//5 54//5 14//5
f  16//1 6//1 15//1
f  13//3 15//3 1//3
f  8//2 16//2 21//2
f  22//4 1//4 17//4
f  11//3 52//3 17//3
f  55//6 52//6 7//6
f  19//4 7//4 18//4
f  18//4 12//4 14//4
f  53//4 49//4 51//4
f  53//2 51//2 12//2
f  5//2 19//2 54//2
f  23//4 19//4 13//4
f  15//2 13//2 20//2
f  21//2 20//2 8//2
f  56//5 14//5 54//5
f  15//2 24//2 16//2
f  1//4 25//4 13//4
f  26//2 21//2 16//2
f  25//4 1//4 22//4
f  22//4 17//4 27//4
f  57//3 17//3 52//3
f  55//4 58//4 52//4
f  55//5 7//5 58//5
f  7//4 19//4 23//4
f  18//3 59//3 19//3
f  18//6 14//6 59//6
f  60//2 54//2 19//2
f  25//4 23//4 13//4
f  28//2 15//2 20//2
f  21//1 29//1 20//1
f  56//6 59//6 14//6
f  56//4 54//4 59//4
f  24//2 30//2 16//2
f  24//2 15//2 31//2
f  21//3 26//3 29//3
f  32//2 26//2 16//2
f  22//3 61//3 25//3
f  33//4 27//4 17//4
f  22//6 27//6 61//6
f  57//2 58//2 17//2
f  57//4 52//4 58//4
f  33//5 58//5 7//5
f  33//4 7//4 23//4
f  60//3 19//3 59//3
f  60//4 59//4 54//4
f  23//2 25//2 62//2
f  34//2 15//2 28//2
f  20//5 35//5 28//5
f  35//1 20//1 29//1
f  30//2 36//2 16//2
f  30//3 24//3 37//3
f  31//2 15//2 38//2
f  31//4 39//4 24//4
f  40//3 29//3 26//3
f  34//2 26//2 32//2
f  36//2 32//2 16//2
f  63//3 25//3 61//3
f  27//4 33//4 23//4
f  33//2 17//2 58//2
f  64//6 61//6 27//6
f  63//2 62//2 25//2
f  23//5 62//5 27//5
f  41//2 15//2 34//2
f  26//2 34//2 28//2
f  42//5 28//5 35//5
f  29//2 40//2 35//2
f  38//2 36//2 30//2
f  43//3 37//3 24//3
f  30//1 37//1 38//1
f  38//2 15//2 41//2
f  38//5 44//5 31//5
f  43//4 24//4 39//4
f  39//5 31//5 44//5
f  40//4 26//4 42//4
f  32//1 45//1 34//1
f  32//3 36//3 45//3
f  63//4 61//4 62//4
f  64//4 62//4 61//4
f  64//5 27//5 62//5
f  34//5 46//5 41//5
f  28//4 42//4 26//4
f  42//2 35//2 40//2
f  36//2 38//2 41//2
f  43//2 39//2 37//2
f  44//1 38//1 37//1
f  44//2 37//2 39//2
f  46//1 34//1 45//1
f  47//3 45//3 36//3
f  48//5 41//5 46//5
f  41//4 48//4 36//4
f  46//2 45//2 48//2
f  47//2 48//2 45//2
f  47//4 36//4 48//4

# Mesh 'mesh1_mesh1-geometry' with 36 faces
g mesh1_mesh1-geometry
usemtl material_2_24
f  49//2 2//2 4//2
f  2//2 49//2 50//2
f  2//3 51//3 9//3
f  52//2 7//2 11//2
f  49//1 51//1 50//1
f  51//3 2//3 50//3
f  14//3 54//3 5//3
f  17//5 52//5 11//5
f  7//2 52//2 55//2
f  51//1 49//1 53//1
f  54//6 19//6 5//6
f  54//3 14//3 56//3
f  52//5 17//5 57//5
f  52//1 58//1 55//1
f  58//3 7//3 55//3
f  19//5 59//5 18//5
f  59//2 14//2 18//2
f  19//6 54//6 60//6
f  14//2 59//2 56//2
f  59//1 54//1 56//1
f  25//5 61//5 22//5
f  61//2 27//2 22//2
f  17//6 58//6 57//6
f  58//1 52//1 57//1
f  7//3 58//3 33//3
f  59//5 19//5 60//5
f  54//1 59//1 60//1
f  62//6 25//6 23//6
f  61//5 25//5 63//5
f  58//6 17//6 33//6
f  27//2 61//2 64//2
f  25//6 62//6 63//6
f  27//3 62//3 23//3
f  62//1 61//1 63//1
f  61//1 62//1 64//1
f  62//3 27//3 64//3

# Mesh 'mesh1_mesh1-geometry' with 2 faces
g mesh1_mesh1-geometry
usemtl material_3_24
f  51//6 12//6 9//6
f  12//6 51//6 53//6

