# File produced by Open Asset Import Library (http://www.assimp.sf.net)
# (assimp v3.2.202087883)

mtllib model_normalized.mtl

# 48 vertex positions
v 0.251965 0.424506 -0.072577
v -0.251965 0.424506 0.086271
v -0.251965 0.424506 -0.072577
v 0.251965 0.424506 0.086271
v -0.251965 -0.424506 -0.072577
v -0.235532 0.408074 -0.072577
v 0.251965 -0.424506 0.086271
v -0.251965 -0.424506 0.086271
v -0.235532 -0.408074 -0.072577
v -0.235532 0.257990 -0.072577
v 0.235532 0.408074 -0.072577
v 0.251965 -0.424506 -0.072577
v 0.235532 -0.408074 -0.072577
v -0.235532 -0.257990 -0.072577
v -0.235532 0.241558 -0.072577
v -0.235532 0.257990 0.069838
v 0.235532 0.257990 -0.072577
v 0.235532 0.408074 0.069838
v -0.235532 -0.408074 0.069838
v -0.235532 -0.241558 -0.072577
v -0.235532 0.091474 -0.072577
v -0.235532 0.408074 0.069838
v 0.235532 0.241558 -0.072577
v 0.235532 -0.257990 -0.072577
v 0.235532 -0.408074 0.069838
v -0.235532 -0.257990 0.069838
v 0.235532 -0.241558 -0.072577
v -0.235532 -0.091474 -0.072577
v -0.235532 0.075042 -0.072577
v -0.235532 0.091474 0.069838
v 0.235532 0.257990 0.069838
v 0.235532 0.091474 -0.072577
v 0.235532 -0.257990 0.069838
v -0.235532 -0.241558 0.069838
v -0.235532 -0.075042 -0.072577
v -0.235532 0.241558 0.069838
v 0.235532 0.241558 0.069838
v 0.235532 0.075042 -0.072577
v 0.235532 -0.091474 -0.072577
v 0.235532 -0.241558 0.069838
v -0.235532 -0.091474 0.069838
v 0.235532 -0.075042 -0.072577
v -0.235532 -0.075042 0.069838
v 0.235532 0.091474 0.069838
v 0.235532 -0.091474 0.069838
v -0.235532 0.075042 0.069838
v 0.235532 0.075042 0.069838
v 0.235532 -0.075042 0.069838

# 89 UV coordinates
vt 0 0 0
vt -5.25766 1.20369 0
vt -5.25766 1.08861 0
vt -5.62274 1.20369 0
vt -5.62274 1.08861 0
vt 1.20369 0.615079 0
vt 1.20369 0 0
vt 1.08861 0.615079 0
vt 5.62274 0.615079 0
vt 5.26957 0.603175 0
vt 5.25766 0.615079 0
vt -1.08861 0.615079 0
vt -1.08861 0 0
vt -1.20369 0.615079 0
vt -5.62274 0.615079 0
vt -5.25766 0.615079 0
vt -5.62274 0 0
vt 1.08861 0 0
vt 5.26957 0.011905 0
vt 5.25766 0 0
vt 5.26957 0.494444 0
vt 5.61084 0.603175 0
vt -1.20369 0 0
vt -5.25766 0 0
vt 5.61084 0.011905 0
vt 5.26957 0.120635 0
vt 5.26957 0.48254 0
vt -1.20369 0.494444 0
vt -1.20369 0.603175 0
vt -1.10051 0.494444 0
vt 5.61084 0.494444 0
vt 5.61084 1.20369 0
vt 5.61084 1.10051 0
vt 5.26957 1.20369 0
vt 5.62274 0 0
vt -5.26957 1.20369 0
vt -5.26957 1.10051 0
vt -5.61084 1.20369 0
vt -1.20369 0.011905 0
vt -1.20369 0.120635 0
vt -1.10051 0.011905 0
vt 5.26957 0.13254 0
vt 5.26957 0.37381 0
vt -1.10051 0.603175 0
vt 5.61084 0.48254 0
vt 1.20369 0.603175 0
vt 1.20369 0.494444 0
vt 1.10051 0.603175 0
vt 5.26957 1.10051 0
vt 5.61084 0.120635 0
vt -5.61084 1.10051 0
vt -1.10051 0.120635 0
vt 5.61084 0.13254 0
vt 5.26957 0.24127 0
vt 5.26957 0.361905 0
vt -1.20369 0.37381 0
vt -1.20369 0.48254 0
vt -1.10051 0.37381 0
vt 5.61084 0.37381 0
vt 1.10051 0.494444 0
vt 1.20369 0.120635 0
vt 1.20369 0.011905 0
vt 1.10051 0.120635 0
vt 1.10051 0.011905 0
vt -1.20369 0.13254 0
vt -1.20369 0.24127 0
vt -1.10051 0.13254 0
vt 5.26957 0.253175 0
vt -1.10051 0.48254 0
vt 5.61084 0.361905 0
vt 1.20369 0.48254 0
vt 1.20369 0.37381 0
vt 1.10051 0.48254 0
vt 5.61084 0.24127 0
vt -1.10051 0.24127 0
vt 5.61084 0.253175 0
vt -1.20369 0.253175 0
vt -1.20369 0.361905 0
vt -1.10051 0.253175 0
vt 1.10051 0.37381 0
vt 1.20369 0.24127 0
vt 1.20369 0.13254 0
vt 1.10051 0.24127 0
vt 1.10051 0.13254 0
vt -1.10051 0.361905 0
vt 1.20369 0.361905 0
vt 1.20369 0.253175 0
vt 1.10051 0.361905 0
vt 1.10051 0.253175 0

# 6 vertex normals
vn 0 -1 0
vn 1 0 0
vn 0 0 1
vn -1 0 0
vn 0 0 -1
vn 0 1 0

# Mesh 'mesh1_mesh1-geometry' with 90 faces
g mesh1_mesh1-geometry
usemtl material_0_24
f  1/1/1 2/1/1 3/1/1
f  2/1/1 1/1/1 4/1/1
f  2/1/2 5/1/2 3/1/2
f  3/1/3 6/1/3 1/1/3
f  1/1/4 7/1/4 4/1/4
f  7/1/5 2/1/5 4/1/5
f  5/1/2 2/1/2 8/1/2
f  5/1/3 9/1/3 3/1/3
f  3/1/3 10/1/3 6/1/3
f  11/1/3 1/1/3 6/1/3
f  7/1/4 1/1/4 12/1/4
f  2/1/5 7/1/5 8/1/5
f  12/1/1 8/1/1 5/1/1
f  9/1/3 5/1/3 13/1/3
f  3/1/3 9/1/3 14/1/3
f  3/1/3 15/1/3 10/1/3
f  16/1/4 6/1/4 10/1/4
f  17/1/3 1/1/3 11/1/3
f  6/1/6 18/1/6 11/1/6
f  13/1/3 12/1/3 1/1/3
f  8/1/1 12/1/1 7/1/1
f  12/1/3 13/1/3 5/1/3
f  13/1/1 19/1/1 9/1/1
f  19/1/4 14/1/4 9/1/4
f  3/1/3 14/1/3 20/1/3
f  3/1/3 21/1/3 15/1/3
f  10/1/3 15/1/3 17/1/3
f  6/1/4 16/1/4 22/1/4
f  17/1/1 16/1/1 10/1/1
f  23/1/3 1/1/3 17/1/3
f  18/1/2 17/1/2 11/1/2
f  18/1/6 6/1/6 22/1/6
f  13/1/3 1/1/3 24/1/3
f  19/1/1 13/1/1 25/1/1
f  14/1/4 19/1/4 26/1/4
f  20/1/3 14/1/3 27/1/3
f  3/1/3 20/1/3 28/1/3
f  3/1/3 29/1/3 21/1/3
f  30/1/4 15/1/4 21/1/4
f  23/1/3 17/1/3 15/1/3
f  16/1/3 18/1/3 22/1/3
f  16/1/1 17/1/1 31/1/1
f  32/1/3 1/1/3 23/1/3
f  17/1/2 18/1/2 31/1/2
f  24/1/3 1/1/3 27/1/3
f  33/1/2 13/1/2 24/1/2
f  13/1/2 33/1/2 25/1/2
f  33/1/3 19/1/3 25/1/3
f  19/1/3 33/1/3 26/1/3
f  24/1/3 27/1/3 14/1/3
f  27/1/1 34/1/1 20/1/1
f  34/1/4 28/1/4 20/1/4
f  3/1/3 28/1/3 35/1/3
f  3/1/3 35/1/3 29/1/3
f  21/1/3 29/1/3 32/1/3
f  15/1/4 30/1/4 36/1/4
f  32/1/1 30/1/1 21/1/1
f  15/1/6 37/1/6 23/1/6
f  18/1/3 16/1/3 31/1/3
f  38/1/3 1/1/3 32/1/3
f  37/1/2 32/1/2 23/1/2
f  27/1/3 1/1/3 39/1/3
f  34/1/1 27/1/1 40/1/1
f  28/1/4 34/1/4 41/1/4
f  35/1/3 28/1/3 42/1/3
f  43/1/4 29/1/4 35/1/4
f  38/1/3 32/1/3 29/1/3
f  30/1/3 37/1/3 36/1/3
f  37/1/6 15/1/6 36/1/6
f  30/1/1 32/1/1 44/1/1
f  42/1/3 1/1/3 38/1/3
f  32/1/2 37/1/2 44/1/2
f  39/1/3 1/1/3 42/1/3
f  45/1/2 27/1/2 39/1/2
f  27/1/2 45/1/2 40/1/2
f  45/1/3 34/1/3 40/1/3
f  34/1/3 45/1/3 41/1/3
f  45/1/6 28/1/6 41/1/6
f  39/1/3 42/1/3 28/1/3
f  42/1/1 43/1/1 35/1/1
f  29/1/4 43/1/4 46/1/4
f  29/1/6 47/1/6 38/1/6
f  37/1/3 30/1/3 44/1/3
f  47/1/2 42/1/2 38/1/2
f  28/1/6 45/1/6 39/1/6
f  43/1/1 42/1/1 48/1/1
f  43/1/3 47/1/3 46/1/3
f  47/1/6 29/1/6 46/1/6
f  42/1/2 47/1/2 48/1/2
f  47/1/3 43/1/3 48/1/3

# Mesh 'mesh1_mesh1-geometry' with 90 faces
g mesh1_mesh1-geometry
usemtl material_1_1_8
f  3/2/6 2/3/6 1/4/6
f  4/5/6 1/4/6 2/3/6
f  3/6/4 5/7/4 2/8/4
f  1/9/5 6/10/5 3/11/5
f  4/12/2 7/13/2 1/14/2
f  4/15/3 2/16/3 7/17/3
f  8/18/4 2/8/4 5/7/4
f  3/11/5 9/19/5 5/20/5
f  6/10/5 10/21/5 3/11/5
f  6/10/5 1/9/5 11/22/5
f  12/23/2 1/14/2 7/13/2
f  8/24/3 7/17/3 2/16/3
f  5/2/6 8/3/6 12/4/6
f  13/25/5 5/20/5 9/19/5
f  14/26/5 9/19/5 3/11/5
f  10/21/5 15/27/5 3/11/5
f  10/28/2 6/29/2 16/30/2
f  11/22/5 1/9/5 17/31/5
f  11/32/1 18/33/1 6/34/1
f  1/9/5 12/35/5 13/25/5
f  7/5/6 12/4/6 8/3/6
f  5/20/5 13/25/5 12/35/5
f  9/36/6 19/37/6 13/38/6
f  9/39/2 14/40/2 19/41/2
f  20/42/5 14/26/5 3/11/5
f  15/27/5 21/43/5 3/11/5
f  17/31/5 15/27/5 10/21/5
f  22/44/2 16/30/2 6/29/2
f  10/36/6 16/37/6 17/38/6
f  17/31/5 1/9/5 23/45/5
f  11/46/4 17/47/4 18/48/4
f  22/49/1 6/34/1 18/33/1
f  24/50/5 1/9/5 13/25/5
f  25/51/6 13/38/6 19/37/6
f  26/52/2 19/41/2 14/40/2
f  27/53/5 14/26/5 20/42/5
f  28/54/5 20/42/5 3/11/5
f  21/43/5 29/55/5 3/11/5
f  21/56/2 15/57/2 30/58/2
f  15/27/5 17/31/5 23/45/5
f  22/10/5 18/22/5 16/21/5
f  31/51/6 17/38/6 16/37/6
f  23/45/5 1/9/5 32/59/5
f  31/60/4 18/48/4 17/47/4
f  27/53/5 1/9/5 24/50/5
f  24/61/4 13/62/4 33/63/4
f  25/64/4 33/63/4 13/62/4
f  25/25/5 19/19/5 33/50/5
f  26/26/5 33/50/5 19/19/5
f  14/26/5 27/53/5 24/50/5
f  20/36/6 34/37/6 27/38/6
f  20/65/2 28/66/2 34/67/2
f  35/68/5 28/54/5 3/11/5
f  29/55/5 35/68/5 3/11/5
f  32/59/5 29/55/5 21/43/5
f  36/69/2 30/58/2 15/57/2
f  21/36/6 30/37/6 32/38/6
f  23/32/1 37/33/1 15/34/1
f  31/31/5 16/21/5 18/22/5
f  32/59/5 1/9/5 38/70/5
f  23/71/4 32/72/4 37/73/4
f  39/74/5 1/9/5 27/53/5
f  40/51/6 27/38/6 34/37/6
f  41/75/2 34/67/2 28/66/2
f  42/76/5 28/54/5 35/68/5
f  35/77/2 29/78/2 43/79/2
f  29/55/5 32/59/5 38/70/5
f  36/27/5 37/45/5 30/43/5
f  36/49/1 15/34/1 37/33/1
f  44/51/6 32/38/6 30/37/6
f  38/70/5 1/9/5 42/76/5
f  44/80/4 37/73/4 32/72/4
f  42/76/5 1/9/5 39/74/5
f  39/81/4 27/82/4 45/83/4
f  40/84/4 45/83/4 27/82/4
f  40/53/5 34/42/5 45/74/5
f  41/54/5 45/74/5 34/42/5
f  41/49/1 28/34/1 45/33/1
f  28/54/5 42/76/5 39/74/5
f  35/36/6 43/37/6 42/38/6
f  46/85/2 43/79/2 29/78/2
f  38/32/1 47/33/1 29/34/1
f  44/59/5 30/43/5 37/45/5
f  38/86/4 42/87/4 47/88/4
f  39/32/1 45/33/1 28/34/1
f  48/51/6 42/38/6 43/37/6
f  46/55/5 47/70/5 43/68/5
f  46/49/1 29/34/1 47/33/1
f  48/89/4 47/88/4 42/87/4
f  48/76/5 43/68/5 47/70/5

