# File produced by Open Asset Import Library (http://www.assimp.sf.net)
# (assimp v3.2.202087883)

mtllib model_normalized.mtl

# 82 vertex positions
v 0.137278 -0.461930 0.095132
v 0.186650 -0.461930 0.144504
v 0.137278 -0.461930 0.144504
v 0.186650 -0.461930 0.095132
v 0.137278 -0.066953 0.144504
v 0.186650 -0.066953 0.095132
v 0.186650 -0.066953 0.144504
v 0.137278 -0.066953 0.095132
v 0.143452 -0.066953 0.095132
v 0.137278 -0.027456 0.144504
v 0.186650 -0.027456 0.095132
v 0.137278 0.367521 0.144504
v 0.186650 0.367521 0.144504
v 0.137278 0.318149 0.144504
v -0.158954 -0.066953 0.095132
v -0.158954 -0.066953 0.144504
v -0.165127 -0.066953 0.095132
v -0.158954 -0.461930 0.144504
v 0.186650 0.367521 0.095132
v 0.137278 0.324252 0.138400
v 0.137278 0.268777 0.144504
v -0.158954 -0.027456 0.144504
v -0.208326 -0.066953 0.144504
v 0.137278 0.219404 0.144504
v 0.137278 -0.027456 0.095132
v -0.208326 -0.066953 0.095132
v -0.208326 -0.461930 0.095132
v -0.158954 -0.461930 0.095132
v 0.143452 -0.066953 -0.207274
v 0.186650 -0.066953 -0.250473
v 0.186650 -0.066953 -0.207274
v 0.186650 -0.461930 -0.207274
v 0.186650 -0.027456 -0.250473
v 0.186650 -0.066953 -0.201101
v 0.186650 -0.027456 -0.201101
v -0.165127 -0.066953 -0.207274
v -0.208326 -0.066953 -0.250473
v -0.165127 -0.066953 -0.250473
v -0.165127 -0.461930 -0.207274
v 0.137278 0.367521 0.095132
v 0.137278 0.318149 0.095132
v 0.137278 0.361417 0.138400
v 0.137278 0.268777 0.095132
v -0.208326 0.367521 0.144504
v -0.158954 -0.027456 0.095132
v -0.158954 0.225508 0.101235
v 0.137278 0.219404 0.095132
v -0.208326 -0.461930 0.144504
v 0.143452 -0.066953 -0.250473
v 0.143452 -0.461930 -0.207274
v 0.137278 -0.027456 -0.201101
v -0.208326 -0.066953 -0.207274
v -0.208326 -0.461930 -0.250473
v -0.208326 -0.027456 -0.250473
v -0.165127 -0.461930 -0.250473
v 0.143452 -0.461930 -0.250473
v 0.137278 0.361417 0.101235
v 0.137278 0.324252 0.101235
v -0.158954 0.361417 0.138400
v 0.137278 0.262673 0.101235
v 0.137278 0.225508 0.138400
v -0.158954 0.367521 0.144504
v -0.158954 0.367521 0.095132
v -0.158954 0.225508 0.138400
v 0.137278 -0.027456 -0.250473
v 0.186650 -0.461930 -0.250473
v -0.208326 -0.027456 -0.201101
v -0.158954 -0.027456 -0.250473
v -0.208326 -0.461930 -0.207274
v -0.158954 -0.066953 -0.250473
v -0.208326 -0.027456 0.095132
v -0.158954 0.324252 0.101235
v -0.158954 0.324252 0.138400
v 0.137278 0.225508 0.101235
v 0.137278 0.262673 0.138400
v -0.158954 0.262673 0.101235
v -0.208326 -0.066953 -0.201101
v 0.137278 -0.066953 -0.250473
v -0.208326 0.367521 0.095132
v -0.158954 0.361417 0.101235
v -0.158954 0.262673 0.138400
v -0.158954 -0.027456 -0.201101

# 133 UV coordinates
vt -0.125 0.125 0
vt 0 0 0
vt 0 0.125 0
vt -0.125 0 0
vt -0.125 1 0
vt 0 1 0
vt 0.125 0 0
vt 0.125 1 0
vt 0.109371 1 0
vt -0.125 1.1 0
vt -0.125 0.109371 0
vt 0.125 1.1 0
vt -0.125 2.1 0
vt 0 2.1 0
vt -0.125 1.975 0
vt -0.125 0.875 0
vt 0 0.875 0
vt -0.125 0.890629 0
vt 0.125 2.1 0
vt -0.015452 1.99045 0
vt 0 1.975 0
vt -0.125 1.85 0
vt -0.875 1.1 0
vt -1 1 0
vt -0.875 1 0
vt 0 1.725 0
vt 0 1.1 0
vt 0.875 1 0
vt 1 0 0
vt 0.890629 1 0
vt -0.875 0 0
vt -0.890629 0.109371 0
vt -1 0 0
vt -0.890629 0 0
vt -0.109371 1 0
vt 1 1.1 0
vt 0.875 1.1 0
vt -0.890629 0.890629 0
vt -1 0.890629 0
vt 0.890629 0 0
vt 1 1 0
vt 0.125 0.125 0
vt -0.015452 2.08455 0
vt 0 1.85 0
vt -0.125 1.725 0
vt -1 2.1 0
vt 0.109548 1.74045 0
vt 0.875 0 0
vt -1 0.109371 0
vt -0.109371 0 0
vt 0.875 0.125 0
vt -0.890629 1 0
vt -0.109548 2.08455 0
vt -0.109548 1.99045 0
vt -0.875 2.08455 0
vt -0.125 1.99045 0
vt -0.125 2.08455 0
vt -0.109548 1.83455 0
vt -0.015452 1.74045 0
vt -0.875 2.1 0
vt 0.015452 1.74045 0
vt 0.125 1.725 0
vt 0.109371 0 0
vt 1 0.125 0
vt -1 1.1 0
vt 0.875 2.1 0
vt -0.015452 0.125 0
vt -0.109548 0.875 0
vt -0.109548 0.125 0
vt 0.125 1.85 0
vt 0.125 1.975 0
vt 0.109548 0.125 0
vt 0.015452 0.875 0
vt 0.015452 0.125 0
vt -0.875 1.99045 0
vt -0.109548 1.74045 0
vt -0.015452 1.83455 0
vt 0.125 0.875 0
vt 0.109548 1.83455 0
vt -0.015452 0.875 0
vt 1 0.875 0
vt 1 2.1 0
vt 0.875 1.99045 0
vt 0.125 2.08455 0
vt 0.125 1.99045 0
vt 0.109548 0.875 0
vt 0.015452 1.99045 0
vt 0.015452 2.08455 0
vt 0.875 1.74045 0
vt 0.125 1.83455 0
vt 0.125 1.74045 0
vt -0.875 1.83455 0
vt -0.125 1.74045 0
vt -0.125 1.83455 0
vt 0.015452 1.83455 0
vt 0.109548 1.99045 0
vt 0.875 1.83455 0
vt -0.875 1.74045 0
vt 0.875 0.875 0
vt 0.875 2.08455 0
vt 0.109548 2.08455 0
vt 0 0.166667 0
vt -0.083333 1.16667 0
vt -0.083333 0.166667 0
vt -0.593753 0.145828 0
vt -0.083333 0 0
vt -0.083333 0.145828 0
vt -0.583333 1.46667 0
vt -0.083333 1.33333 0
vt -0.083333 1.46667 0
vt 0 1.16667 0
vt -0.593753 1.18751 0
vt -0.583333 -0 0
vt 0.083333 1.33333 0
vt 0.583333 1.46667 0
vt 0.083333 1.46667 0
vt -0.583333 1.33333 0
vt 0.083333 0.166667 0
vt -0.083333 1.18751 0
vt -0.593753 0 0
vt 0.583333 1.33333 0
vt -0.666667 1.18751 0
vt 0.583333 -0 0
vt 0.083333 -0 0
vt 0.083333 1.16667 0
vt -0.666667 0.145828 0
vt -0.666667 1.16667 0
vt -0.593753 1.33333 0
vt 0.583333 0.166667 0
vt -0.666667 0.166667 0
vt 0.666667 0.166667 0
vt 0.583333 1.16667 0
vt 0.666667 1.16667 0

# 6 vertex normals
vn 0 -1 0
vn 0 0 1
vn -1 0 0
vn 0 0 -1
vn 1 0 0
vn 0 1 0

# Mesh 'mesh1_mesh1-geometry' with 144 faces
g mesh1_mesh1-geometry
usemtl material_0_1_8
f  1/1/1 2/2/1 3/3/1
f  2/2/1 1/1/1 4/4/1
f  2/2/2 5/5/2 3/4/2
f  5/6/3 1/4/3 3/2/3
f  1/7/4 6/6/4 4/2/4
f  6/8/5 2/2/5 4/7/5
f  5/5/2 2/2/2 7/6/2
f  1/4/3 5/6/3 8/5/3
f  6/6/4 1/7/4 9/9/4
f  2/2/5 6/8/5 7/6/5
f  8/1/1 7/2/1 5/3/1
f  7/6/2 10/10/2 5/5/2
f  9/9/4 1/7/4 8/8/4
f  6/4/1 8/1/1 9/11/1
f  7/2/1 8/1/1 6/4/1
f  11/12/5 7/6/5 6/8/5
f  7/6/2 12/13/2 10/10/2
f  7/6/5 11/12/5 13/14/5
f  12/13/2 7/6/2 13/14/2
f  10/10/2 12/13/2 14/15/2
f  15/16/1 16/17/1 17/18/1
f  18/2/5 15/8/5 16/6/5
f  13/14/5 11/12/5 19/19/5
f  19/7/6 12/3/6 13/2/6
f  20/20/3 14/21/3 12/14/3
f  10/10/2 14/15/2 21/22/2
f  22/23/2 23/24/2 16/25/2
f  24/26/3 25/10/3 10/27/3
f  16/17/1 26/5/1 17/18/1
f  15/28/4 27/29/4 17/30/4
f  15/8/5 18/2/5 28/7/5
f  23/24/2 18/31/2 16/25/2
f  29/32/1 30/33/1 31/34/1
f  29/35/2 32/2/2 31/6/2
f  31/30/5 33/36/5 34/28/5
f  34/28/5 33/36/5 35/37/5
f  36/38/1 37/24/1 38/39/1
f  39/40/5 38/41/5 36/30/5
f  25/12/4 19/14/4 11/27/4
f  12/3/6 19/7/6 40/42/6
f  14/21/3 20/20/3 41/15/3
f  20/20/3 12/14/3 42/43/3
f  14/21/3 43/22/3 21/44/3
f  10/10/2 21/22/2 24/45/2
f  23/24/2 22/23/2 44/46/2
f  26/5/1 16/17/1 23/6/1
f  45/12/5 46/47/5 22/27/5
f  25/10/3 24/26/3 47/45/3
f  17/30/4 27/29/4 26/41/4
f  27/29/4 15/28/4 28/48/4
f  18/17/1 27/5/1 28/16/1
f  18/31/2 23/24/2 48/33/2
f  30/33/1 29/32/1 49/49/1
f  32/40/5 30/41/5 31/30/5
f  33/36/5 31/30/5 30/41/5
f  32/2/2 29/35/2 50/50/2
f  33/29/6 51/51/6 35/48/6
f  37/24/1 36/38/1 52/52/1
f  38/30/4 53/29/4 37/41/4
f  54/36/4 38/30/4 37/41/4
f  38/41/5 39/40/5 55/29/5
f  52/24/2 39/34/2 36/52/2
f  56/33/3 29/52/3 49/24/3
f  19/14/4 25/12/4 40/19/4
f  40/13/3 57/53/3 12/14/3
f  58/54/3 41/15/3 20/20/3
f  43/22/3 14/21/3 41/15/3
f  42/43/3 12/14/3 57/53/3
f  59/55/2 20/56/2 42/57/2
f  43/22/3 60/58/3 21/44/3
f  61/59/3 24/26/3 21/44/3
f  44/46/2 22/23/2 62/60/2
f  44/14/3 26/5/3 23/6/3
f  27/4/3 23/6/3 26/5/3
f  46/47/5 45/12/5 63/19/5
f  64/61/5 22/27/5 46/47/5
f  24/26/3 61/59/3 47/45/3
f  40/19/4 25/12/4 47/62/4
f  27/5/1 18/17/1 48/6/1
f  23/6/3 27/4/3 48/2/3
f  30/6/4 56/63/4 49/9/4
f  65/12/4 30/6/4 49/9/4
f  30/41/5 32/40/5 66/29/5
f  30/6/4 65/12/4 33/27/4
f  29/52/3 56/33/3 50/34/3
f  50/32/1 66/33/1 32/34/1
f  51/51/6 33/29/6 65/64/6
f  53/33/3 52/52/3 37/24/3
f  52/52/3 67/23/3 37/24/3
f  53/29/4 38/30/4 55/40/4
f  68/37/4 38/30/4 54/36/4
f  37/24/3 67/23/3 54/65/3
f  39/38/1 53/24/1 55/39/1
f  39/34/2 52/24/2 69/33/2
f  38/30/4 68/37/4 70/28/4
f  71/36/4 63/66/4 45/37/4
f  40/13/3 58/54/3 57/53/3
f  41/15/3 58/54/3 40/13/3
f  20/67/1 72/68/1 58/69/1
f  40/19/4 43/70/4 41/71/4
f  57/72/6 59/73/6 42/74/6
f  20/56/2 59/55/2 73/75/2
f  43/22/3 74/76/3 60/58/3
f  75/77/3 21/44/3 60/58/3
f  61/59/3 21/44/3 75/77/3
f  22/27/5 64/61/5 62/14/5
f  63/78/6 44/6/6 62/17/6
f  26/5/3 44/14/3 71/10/3
f  46/47/5 63/19/5 76/79/5
f  46/68/1 61/67/1 64/80/1
f  74/76/3 47/45/3 61/59/3
f  40/19/4 47/62/4 43/70/4
f  67/23/3 52/52/3 77/25/3
f  56/63/4 30/6/4 66/2/4
f  65/12/4 49/9/4 78/8/4
f  66/33/1 50/32/1 56/49/1
f  52/52/3 53/33/3 69/34/3
f  67/28/6 68/81/6 54/41/6
f  53/24/1 39/38/1 69/52/1
f  63/66/4 71/36/4 79/82/4
f  72/83/4 57/84/4 58/85/4
f  72/68/1 20/67/1 73/80/1
f  59/73/6 57/72/6 80/86/6
f  62/14/5 73/87/5 59/88/5
f  47/45/3 74/76/3 43/22/3
f  46/89/4 60/90/4 74/91/4
f  60/72/6 81/73/6 75/74/6
f  81/92/2 61/93/2 75/94/2
f  62/14/5 64/61/5 81/95/5
f  44/6/6 63/78/6 79/8/6
f  62/14/5 59/88/5 63/19/5
f  71/10/3 44/14/3 79/13/3
f  76/79/5 63/19/5 72/96/5
f  60/90/4 46/89/4 76/97/4
f  61/67/1 46/68/1 74/69/1
f  61/93/2 81/92/2 64/98/2
f  68/81/6 67/28/6 82/99/6
f  57/84/4 72/83/4 80/100/4
f  73/87/5 81/95/5 72/96/5
f  80/101/5 63/19/5 59/88/5
f  62/14/5 81/95/5 73/87/5
f  81/73/6 60/72/6 76/86/6
f  72/96/5 63/19/5 80/101/5
f  76/79/5 72/96/5 81/95/5

# Mesh 'mesh1_mesh1-geometry' with 178 faces
g mesh1_mesh1-geometry
usemtl material_1_24
f  3/2/6 2/2/6 1/2/6
f  4/2/6 1/2/6 2/2/6
f  3/2/4 5/2/4 2/2/4
f  3/2/5 1/2/5 5/2/5
f  4/2/2 6/2/2 1/2/2
f  4/2/3 2/2/3 6/2/3
f  7/2/4 2/2/4 5/2/4
f  8/2/5 5/2/5 1/2/5
f  9/2/2 1/2/2 6/2/2
f  7/2/3 6/2/3 2/2/3
f  5/2/6 7/2/6 8/2/6
f  5/2/4 10/2/4 7/2/4
f  8/2/6 15/2/6 5/2/6
f  8/2/2 1/2/2 9/2/2
f  9/2/6 8/2/6 6/2/6
f  9/2/6 6/2/6 29/2/6
f  6/2/6 8/2/6 7/2/6
f  6/2/3 7/2/3 11/2/3
f  10/2/4 12/2/4 7/2/4
f  10/2/4 5/2/4 22/2/4
f  16/2/6 5/2/6 15/2/6
f  8/2/6 36/2/6 15/2/6
f  9/2/6 36/2/6 8/2/6
f  34/2/6 29/2/6 6/2/6
f  29/2/6 36/2/6 9/2/6
f  13/2/3 11/2/3 7/2/3
f  11/2/3 35/2/3 6/2/3
f  13/2/4 7/2/4 12/2/4
f  14/2/4 12/2/4 10/2/4
f  16/2/4 22/2/4 5/2/4
f  10/2/1 22/2/1 25/2/1
f  17/2/6 16/2/6 15/2/6
f  16/2/3 15/2/3 18/2/3
f  17/2/6 15/2/6 36/2/6
f  31/2/6 29/2/6 34/2/6
f  34/2/3 6/2/3 35/2/3
f  38/2/6 36/2/6 29/2/6
f  19/2/3 11/2/3 13/2/3
f  11/2/1 25/2/1 35/2/1
f  13/2/1 12/2/1 19/2/1
f  12/2/5 14/2/5 20/2/5
f  21/2/4 14/2/4 10/2/4
f  16/2/4 23/2/4 22/2/4
f  45/2/1 25/2/1 22/2/1
f  10/2/5 25/2/5 24/2/5
f  17/2/6 26/2/6 16/2/6
f  17/2/2 27/2/2 15/2/2
f  28/2/3 18/2/3 15/2/3
f  16/2/4 18/2/4 23/2/4
f  17/2/6 36/2/6 26/2/6
f  31/2/6 30/2/6 29/2/6
f  31/2/4 32/2/4 29/2/4
f  34/2/3 33/2/3 31/2/3
f  35/2/3 33/2/3 34/2/3
f  38/2/6 37/2/6 36/2/6
f  36/2/3 38/2/3 39/2/3
f  49/2/6 38/2/6 29/2/6
f  11/2/2 19/2/2 25/2/2
f  45/2/1 35/2/1 25/2/1
f  40/2/1 19/2/1 12/2/1
f  41/2/5 20/2/5 14/2/5
f  42/2/5 12/2/5 20/2/5
f  21/2/5 43/2/5 14/2/5
f  24/2/4 21/2/4 10/2/4
f  44/2/4 22/2/4 23/2/4
f  23/2/6 16/2/6 26/2/6
f  22/2/3 46/2/3 45/2/3
f  47/2/5 24/2/5 25/2/5
f  26/2/2 27/2/2 17/2/2
f  28/2/2 15/2/2 27/2/2
f  28/2/6 27/2/6 18/2/6
f  48/2/4 23/2/4 18/2/4
f  77/2/6 26/2/6 36/2/6
f  49/2/6 29/2/6 30/2/6
f  31/2/3 30/2/3 32/2/3
f  30/2/3 31/2/3 33/2/3
f  50/2/4 29/2/4 32/2/4
f  35/2/1 51/2/1 33/2/1
f  52/2/6 36/2/6 37/2/6
f  37/2/2 53/2/2 38/2/2
f  37/2/2 38/2/2 54/2/2
f  55/2/3 39/2/3 38/2/3
f  36/2/4 39/2/4 52/2/4
f  70/2/6 38/2/6 49/2/6
f  49/2/5 29/2/5 56/2/5
f  40/2/2 25/2/2 19/2/2
f  71/2/1 35/2/1 45/2/1
f  12/2/5 57/2/5 40/2/5
f  20/2/5 41/2/5 58/2/5
f  41/2/5 14/2/5 43/2/5
f  57/2/5 12/2/5 42/2/5
f  42/2/4 20/2/4 59/2/4
f  21/2/5 60/2/5 43/2/5
f  21/2/5 24/2/5 61/2/5
f  62/2/4 22/2/4 44/2/4
f  23/2/5 26/2/5 44/2/5
f  26/2/5 23/2/5 27/2/5
f  63/2/3 45/2/3 46/2/3
f  46/2/3 22/2/3 64/2/3
f  47/2/5 61/2/5 24/2/5
f  47/2/2 25/2/2 40/2/2
f  48/2/6 18/2/6 27/2/6
f  48/2/5 27/2/5 23/2/5
f  77/2/5 67/2/5 26/2/5
f  52/2/6 77/2/6 36/2/6
f  49/2/2 56/2/2 30/2/2
f  49/2/2 30/2/2 65/2/2
f  66/2/3 32/2/3 30/2/3
f  33/2/2 65/2/2 30/2/2
f  50/2/5 56/2/5 29/2/5
f  32/2/6 66/2/6 50/2/6
f  65/2/1 33/2/1 51/2/1
f  51/2/1 35/2/1 67/2/1
f  37/2/5 52/2/5 53/2/5
f  37/2/5 67/2/5 52/2/5
f  55/2/2 38/2/2 53/2/2
f  54/2/2 38/2/2 68/2/2
f  54/2/5 67/2/5 37/2/5
f  55/2/6 53/2/6 39/2/6
f  69/2/4 52/2/4 39/2/4
f  70/2/2 68/2/2 38/2/2
f  78/2/6 70/2/6 49/2/6
f  67/2/1 35/2/1 71/2/1
f  45/2/2 63/2/2 71/2/2
f  57/2/5 58/2/5 40/2/5
f  40/2/5 58/2/5 41/2/5
f  58/2/6 72/2/6 20/2/6
f  41/2/2 43/2/2 40/2/2
f  42/2/1 59/2/1 57/2/1
f  73/2/4 59/2/4 20/2/4
f  60/2/5 74/2/5 43/2/5
f  60/2/5 21/2/5 75/2/5
f  75/2/5 21/2/5 61/2/5
f  62/2/3 64/2/3 22/2/3
f  62/2/1 44/2/1 63/2/1
f  71/2/5 44/2/5 26/2/5
f  76/2/3 63/2/3 46/2/3
f  64/2/6 61/2/6 46/2/6
f  61/2/5 47/2/5 74/2/5
f  43/2/2 47/2/2 40/2/2
f  71/2/5 26/2/5 67/2/5
f  77/2/5 52/2/5 67/2/5
f  66/2/2 30/2/2 56/2/2
f  78/2/2 49/2/2 65/2/2
f  56/2/6 50/2/6 66/2/6
f  51/2/1 82/2/1 65/2/1
f  82/2/1 51/2/1 67/2/1
f  69/2/5 53/2/5 52/2/5
f  54/2/1 68/2/1 67/2/1
f  69/2/6 39/2/6 53/2/6
f  68/2/2 70/2/2 65/2/2
f  78/2/2 65/2/2 70/2/2
f  79/2/2 71/2/2 63/2/2
f  58/2/2 57/2/2 72/2/2
f  73/2/6 20/2/6 72/2/6
f  80/2/1 57/2/1 59/2/1
f  59/2/3 73/2/3 62/2/3
f  43/2/5 74/2/5 47/2/5
f  74/2/2 60/2/2 46/2/2
f  75/2/1 81/2/1 60/2/1
f  75/2/4 61/2/4 81/2/4
f  81/2/3 64/2/3 62/2/3
f  79/2/1 63/2/1 44/2/1
f  63/2/3 59/2/3 62/2/3
f  79/2/5 44/2/5 71/2/5
f  72/2/3 63/2/3 76/2/3
f  76/2/2 46/2/2 60/2/2
f  74/2/6 46/2/6 61/2/6
f  64/2/4 81/2/4 61/2/4
f  68/2/1 65/2/1 82/2/1
f  82/2/1 67/2/1 68/2/1
f  80/2/2 72/2/2 57/2/2
f  72/2/3 81/2/3 73/2/3
f  59/2/3 63/2/3 80/2/3
f  73/2/3 81/2/3 62/2/3
f  76/2/1 60/2/1 81/2/1
f  80/2/3 63/2/3 72/2/3
f  81/2/3 72/2/3 76/2/3

# Mesh 'mesh1_mesh1-geometry' with 34 faces
g mesh1_mesh1-geometry
usemtl material_2_2_8
f  5/102/1 15/103/1 8/104/1
f  29/105/1 6/106/1 9/107/1
f  22/108/2 5/109/2 10/110/2
f  15/103/1 5/102/1 16/111/1
f  15/103/1 36/112/1 8/104/1
f  8/104/1 36/112/1 9/107/1
f  6/106/1 29/105/1 34/113/1
f  9/107/1 36/112/1 29/105/1
f  6/114/5 35/115/5 11/116/5
f  5/109/2 22/108/2 16/117/2
f  25/118/6 22/111/6 10/102/6
f  36/112/1 15/103/1 17/119/1
f  34/113/1 29/105/1 31/120/1
f  35/115/5 6/114/5 34/121/5
f  29/105/1 36/112/1 38/122/1
f  35/123/6 25/118/6 11/124/6
f  22/111/6 25/118/6 45/125/6
f  26/109/1 36/112/1 17/119/1
f  29/105/1 38/122/1 49/126/1
f  25/118/6 35/123/6 45/125/6
f  36/112/1 26/109/1 77/117/1
f  49/126/1 38/122/1 70/127/1
f  45/125/6 35/123/6 71/114/6
f  26/109/3 67/108/3 77/117/3
f  36/112/1 77/117/1 52/128/1
f  67/121/6 35/123/6 51/129/6
f  49/126/1 70/127/1 78/130/1
f  71/114/6 35/123/6 67/121/6
f  67/108/3 26/109/3 71/110/3
f  65/131/6 82/132/6 51/129/6
f  67/121/6 51/129/6 82/132/6
f  65/116/4 70/121/4 68/115/4
f  70/121/4 65/116/4 78/114/4
f  82/132/6 65/131/6 68/133/6

# Mesh 'mesh2_mesh2-geometry' with 1 faces
g mesh2_mesh2-geometry
usemtl material_1_0
l  4 32

