# File produced by Open Asset Import Library (http://www.assimp.sf.net)
# (assimp v3.2.202087883)

mtllib model_normalized.mtl

# 128 vertex positions
v 0.075204 -0.247431 -0.172296
v 0.116545 -0.247431 -0.114627
v 0.067040 -0.247431 -0.122791
v 0.124718 -0.247431 -0.164132
v 0.067040 0.116188 -0.122791
v 0.124718 0.116188 -0.164132
v 0.116545 0.116188 -0.114627
v 0.075204 0.116188 -0.172296
v 0.015622 0.116188 0.149235
v 0.025076 -0.247431 0.091873
v 0.015622 -0.247431 0.149235
v 0.025076 0.116188 0.091873
v 0.072985 -0.247431 0.158698
v 0.082447 0.116188 0.101336
v 0.082447 -0.247431 0.101336
v 0.072985 0.116188 0.158698
v -0.230090 -0.247431 0.048637
v -0.188569 -0.247431 0.114416
v -0.239553 -0.247431 0.105999
v -0.179106 -0.247431 0.057044
v -0.239553 0.064692 0.105999
v -0.179106 0.064692 0.057044
v -0.188569 0.064692 0.114416
v -0.230090 0.064692 0.048637
v 0.072985 0.064692 0.158698
v -0.239553 0.116188 0.105999
v -0.194513 0.064692 -0.167073
v 0.126369 0.064692 -0.165016
v -0.239734 0.514287 0.107127
v -0.239734 0.064692 0.107127
v -0.230090 0.116188 0.048637
v -0.145008 0.064692 -0.158909
v -0.226807 0.095003 0.028738
v -0.231895 0.130451 0.059579
v 0.007892 0.093208 0.147963
v 0.118674 0.097196 -0.118344
v -0.145008 -0.247431 -0.158909
v -0.196931 0.095003 -0.152396
v -0.136835 0.064692 -0.208424
v -0.183815 0.093208 0.116346
v -0.231895 0.514287 0.059579
v 0.007892 0.109992 0.147963
v 0.126369 0.130451 -0.165016
v 0.087688 0.097196 0.069520
v -0.194513 0.116188 -0.167073
v -0.226807 0.110354 0.028738
v -0.194513 -0.247431 -0.167073
v -0.186349 0.116188 -0.216587
v 0.091062 0.096900 -0.170835
v -0.183815 0.109992 0.116346
v -0.143790 0.514287 0.074102
v -0.151629 0.514287 0.121659
v 0.091062 0.112080 -0.170835
v 0.118674 0.109454 -0.118344
v 0.080823 0.130451 0.111150
v -0.196931 0.110354 -0.152396
v -0.186349 -0.247431 -0.216587
v -0.136835 -0.247431 -0.208424
v -0.136835 0.116188 -0.208424
v -0.121608 0.112080 -0.205907
v -0.121608 0.096900 -0.205907
v 0.080823 0.514287 0.111150
v 0.072985 0.514287 0.158698
v -0.186349 0.130451 -0.216587
v 0.087688 0.109454 0.069520
v -0.179106 0.116188 0.057044
v -0.188569 0.116188 0.114416
v -0.145008 0.116188 -0.158909
v -0.238624 0.514287 0.050189
v -0.249124 0.514287 0.113856
v 0.090214 0.514287 0.104421
v 0.079714 0.514287 0.168088
v -0.239734 0.563900 0.107127
v -0.231895 0.563900 0.059579
v -0.143790 0.563900 0.074102
v -0.151629 0.563900 0.121659
v -0.145820 0.514287 0.086389
v -0.149148 0.547465 0.106613
v -0.145820 0.547465 0.086389
v -0.149148 0.514287 0.106613
v 0.116545 -0.169243 -0.114627
v 0.031463 -0.169243 0.092929
v 0.080977 -0.169243 0.101092
v 0.067040 -0.169243 -0.122791
v 0.191065 -0.198113 -0.153190
v 0.138474 -0.198113 0.165680
v 0.124718 -0.198113 -0.164132
v 0.073598 -0.198113 0.154981
v 0.080977 -0.198113 0.101092
v 0.067040 -0.198113 -0.122791
v 0.031463 -0.198113 0.092929
v 0.116545 -0.198113 -0.114627
v 0.022613 -0.198113 0.146574
v 0.075204 -0.198113 -0.172296
v 0.138474 -0.247431 0.165680
v 0.022613 -0.247431 0.146574
v 0.145700 -0.247431 0.121912
v 0.147892 -0.247431 0.108597
v 0.191065 -0.247431 -0.153190
v 0.150057 -0.212453 0.095490
v 0.110528 -0.212649 -0.166469
v 0.150057 -0.223279 0.095490
v 0.151816 -0.212453 0.084801
v 0.191065 -0.212649 -0.153190
v 0.145700 -0.225605 0.121912
v 0.155289 -0.212528 0.063720
v 0.179996 -0.212649 -0.086041
v 0.166114 -0.223536 -0.001887
v 0.157021 -0.212528 0.053265
v 0.155289 -0.223125 0.063720
v 0.110528 -0.222902 -0.166469
v 0.167782 -0.223536 -0.011999
v 0.160620 -0.223423 0.031417
v 0.151816 -0.223279 0.084801
v 0.160620 -0.212998 0.031417
v 0.172852 -0.213761 -0.042751
v 0.179996 -0.222773 -0.086041
v 0.191065 -0.222902 -0.153190
v 0.191065 -0.222773 -0.153190
v 0.147892 -0.225605 0.108597
v 0.162316 -0.223423 0.021133
v 0.157021 -0.223125 0.053265
v 0.162316 -0.212998 0.021133
v 0.172852 -0.223327 -0.042751
v 0.171291 -0.213761 -0.033315
v 0.171291 -0.223327 -0.033315
v 0.167782 -0.213283 -0.011999
v 0.166114 -0.213283 -0.001887

# 260 UV coordinates
vt -19.8187 3.13204 0
vt -16.777 0.090376 0
vt -16.777 3.13204 0
vt -19.8187 0.090376 0
vt -0.090376 0 0
vt -3.13204 22.0417 0
vt -3.13204 0 0
vt -16.777 22.0417 0
vt -19.8187 0 0
vt -16.777 0 0
vt 3.13204 0 0
vt 0.090376 22.0417 0
vt 0.090376 0 0
vt 19.8187 22.0417 0
vt 16.777 0 0
vt 19.8187 0 0
vt -0.090376 22.0417 0
vt -19.8187 22.0417 0
vt 3.13204 22.0417 0
vt 16.777 22.0417 0
vt 19.8187 0.090376 0
vt 16.777 3.13204 0
vt 16.777 0.090376 0
vt 19.8187 3.13204 0
vt 0 22.0417 0
vt -3.52431 0 0
vt 0 0 0
vt -3.52431 22.0417 0
vt -3.52431 3.52431 0
vt 0 3.52431 0
vt 3.52431 0 0
vt 3.52431 3.52431 0
vt 3.52431 22.0417 0
vt -4.08832 23.1983 0
vt -0.564012 20.0662 0
vt -0.564012 23.1983 0
vt -4.08832 20.0662 0
vt -20.0662 0 0
vt -23.1983 18.9201 0
vt -23.1983 0 0
vt -0.564012 18.9201 0
vt -4.08832 0 0
vt -0.564012 0 0
vt 23.1983 0 0
vt 20.0662 18.9201 0
vt 20.0662 0 0
vt 4.08832 18.9201 0
vt 0.564012 0 0
vt 4.08832 0 0
vt -20.0662 18.9201 0
vt -4.08832 18.9201 0
vt 23.1983 18.9201 0
vt 0.564012 18.9201 0
vt -0.495076 3.98601 0
vt -0.564012 22.0417 0
vt -17.341 23.1983 0
vt -20.3827 3.98601 0
vt -0.495076 46.1736 0
vt -0.495076 23.1983 0
vt -4.08832 22.0417 0
vt -17.341 20.1566 0
vt -5.31066 20.7575 0
vt -17.341 18.9201 0
vt -0.495076 18.9201 0
vt -3.41637 22.9062 0
vt -3.98601 18.9201 0
vt -7.98478 20.6487 0
vt 20.3827 18.9201 0
vt 17.5157 20.8904 0
vt 0.495076 18.9201 0
vt -20.1566 0 0
vt -20.1566 18.9201 0
vt -16.4391 20.7575 0
vt -20.3827 20.1566 0
vt -19.7626 20.6487 0
vt -23.1983 46.1736 0
vt -3.41637 46.1736 0
vt -7.98478 21.6661 0
vt 20.3827 22.9062 0
vt 5.97405 20.8904 0
vt -17.341 22.0417 0
vt -5.31066 21.688 0
vt 17.341 0 0
vt 17.341 18.9201 0
vt -20.3827 22.0417 0
vt 20.1566 18.9201 0
vt 6.15501 20.8725 0
vt 3.98601 18.9201 0
vt -19.7626 21.6661 0
vt 17.7856 46.1736 0
vt 23.1983 22.9062 0
vt 23.1983 46.1736 0
vt -17.7856 46.1736 0
vt 6.15501 21.7927 0
vt 3.98601 22.9062 0
vt 17.5157 21.6335 0
vt 3.41637 22.9062 0
vt -16.4391 21.688 0
vt -20.3827 0 0
vt -17.341 0 0
vt -20.3827 23.1983 0
vt 20.3827 0 0
vt 20.1566 22.0417 0
vt 19.221 21.7927 0
vt 19.221 20.8725 0
vt 3.98601 46.1736 0
vt -3.98601 46.1736 0
vt 5.97405 21.6335 0
vt 0.495076 46.1736 0
vt -20.3827 22.9062 0
vt 20.1566 0 0
vt 23.1983 22.0417 0
vt 3.41637 23.1983 0
vt 20.3827 3.98601 0
vt 20.3827 23.1983 0
vt 3.41637 46.1736 0
vt 3.41637 3.98601 0
vt 11.7343 71.0801 0
vt 1.48523 69.5948 0
vt 10.2491 69.5948 0
vt 0 71.0801 0
vt 11.7343 10.4728 0
vt 10.2491 53.3567 0
vt 1.48523 11.958 0
vt 1.48523 53.3567 0
vt 0 10.4728 0
vt 10.2491 11.958 0
vt -0.742614 110.656 0
vt -5.12456 103.891 0
vt -0.742614 103.891 0
vt -5.12456 110.656 0
vt -26.6783 103.891 0
vt -34.7974 110.656 0
vt -34.7974 103.891 0
vt 34.7974 103.891 0
vt 26.6783 110.656 0
vt 26.6783 103.891 0
vt 34.7974 110.656 0
vt -26.6783 110.656 0
vt 5.12456 110.656 0
vt 3.99265 103.891 0
vt 5.12456 103.891 0
vt 0.742614 103.891 0
vt 2.12856 108.415 0
vt 0.742614 110.656 0
vt 3.99265 108.415 0
vt 2.12856 103.891 0
vt 0.742614 34.7974 0
vt 5.12456 26.6783 0
vt 5.12456 34.7974 0
vt 0.742614 26.6783 0
vt 3.19412 21.3427 0
vt 4.09965 4.78322 0
vt 4.09965 21.3427 0
vt 0.594091 21.3427 0
vt 0.594091 4.78322 0
vt 1.70284 21.3427 0
vt 5.04335 91.2967 0
vt 2.6887 87.4868 0
vt 5.04335 87.4868 0
vt 2.6887 91.2967 0
vt 51.8163 12.2292 0
vt 12.0581 21.3542 0
vt 12.0581 12.2292 0
vt 51.8163 21.3542 0
vt 12.0581 16.8465 0
vt 60.9413 3.53805 0
vt 51.8163 16.8465 0
vt 2.17043 3.53805 0
vt 12.2292 -48.3499 0
vt 12.2292 -37.8224 0
vt -0 -48.3499 0
vt -12.2292 17.318 0
vt -11.958 6.12292 0
vt -0 6.12292 0
vt -25.9081 6.72656 0
vt -6.02907 10.6641 0
vt -25.9081 10.6641 0
vt -6.02907 6.72656 0
vt 1.08521 6.72656 0
vt 7.55402 4.77074 0
vt 30.4706 6.72656 0
vt 0 6.72656 0
vt 7.42188 4.74401 0
vt 6.11458 6.72656 0
vt -30.4706 6.72656 0
vt -1.08521 6.72656 0
vt -5.97902 6.72656 0
vt 7.55402 3.29417 0
vt 8.5384 4.77074 0
vt 0 4.74401 0
vt 10.6771 6.72656 0
vt -30.4706 0 0
vt -10.6771 0 0
vt -10.6771 6.72656 0
vt 1.08521 -0 0
vt 5.11902 2.97694 0
vt 10.4813 4.76048 0
vt 24.283 4.74401 0
vt 30.4706 4.74401 0
vt 10.6771 0 0
vt -1.08521 0 0
vt 5.11902 -0 0
vt 16.5273 3.25914 0
vt 11.4448 4.76048 0
vt 10.4813 3.31516 0
vt 7.42188 3.34558 0
vt 17.4596 3.25914 0
vt 13.458 3.27456 0
vt 8.5384 3.29417 0
vt 13.458 4.69644 0
vt 20.2931 4.5923 0
vt 24.283 3.36328 0
vt 30.4706 3.34558 0
vt 30.4706 3.36328 0
vt 6.34558 2.97694 0
vt 14.4059 3.27456 0
vt 11.4448 3.31516 0
vt 14.4059 4.69644 0
vt 20.2931 3.28761 0
vt 19.4233 4.5923 0
vt 0 3.34558 0
vt 6.34558 -0 0
vt 19.4233 3.28761 0
vt 17.4596 4.65757 0
vt 16.5273 4.65757 0
vt 30.4706 -0 0
vt 5.03601 1.42503 0
vt 5.69226 2.06379 0
vt 5.03601 2.06379 0
vt 0 1.45493 0
vt 4.94792 2.05223 0
vt 0 2.05223 0
vt 5.69226 1.42503 0
vt 16.1887 1.45493 0
vt 20.3138 2.05223 0
vt 16.1887 2.05223 0
vt 4.94792 1.44727 0
vt 20.3138 1.45493 0
vt 6.98753 1.43411 0
vt 7.62989 2.05935 0
vt 6.98753 2.05935 0
vt 0 1.44727 0
vt 11.6397 2.01483 0
vt 11.0182 1.40988 0
vt 11.6397 1.40988 0
vt 7.62989 1.43411 0
vt 11.0182 2.01483 0
vt 9.60395 2.03164 0
vt 8.97201 1.41655 0
vt 9.60395 1.41655 0
vt 8.97201 2.03164 0
vt 13.5287 1.98659 0
vt 12.9489 1.42219 0
vt 13.5287 1.42219 0
vt 12.9489 1.98659 0
vt 2.45713 0 0
vt 3.04588 3.96925 0
vt 2.45713 3.96925 0
vt 3.04588 0 0

# 9 vertex normals
vn 0 -0.0254 -0
vn -0.00413319 0 0.0250614
vn -0.0250614 0 -0.00413319
vn 0.00413319 0 -0.0250614
vn 0.0250614 0 0.00413319
vn 0 0.0254 0
vn 0.0098864 0.0233401 0.00163048
vn 0.0020612 0.0220162 -0.012498
vn -0.00193829 0.0224338 0.0117527

# Mesh 'mesh1_mesh1-geometry' with 12 faces
g mesh1_mesh1-geometry
usemtl material_0_2_0
f  1/1/1 2/2/1 3/3/1
f  2/2/1 1/1/1 4/4/1
f  2/5/2 5/6/2 3/7/2
f  5/8/3 1/9/3 3/10/3
f  1/11/4 6/12/4 4/13/4
f  6/14/5 2/15/5 4/16/5
f  5/6/2 2/5/2 7/17/2
f  1/9/3 5/8/3 8/18/3
f  6/12/4 1/11/4 8/19/4
f  2/15/5 6/14/5 7/20/5
f  6/21/6 5/22/6 7/23/6
f  5/22/6 6/21/6 8/24/6

# Mesh 'mesh2_mesh2-geometry' with 12 faces
g mesh2_mesh2-geometry
usemtl material_0_2_0
f  9/25/3 10/26/3 11/27/3
f  10/26/3 9/25/3 12/28/3
f  10/29/1 13/27/1 11/30/1
f  13/27/2 9/28/2 11/26/2
f  9/30/6 14/31/6 12/32/6
f  14/25/4 10/31/4 12/33/4
f  13/27/1 10/29/1 15/26/1
f  9/28/2 13/27/2 16/25/2
f  14/31/6 9/30/6 16/27/6
f  10/31/4 14/25/4 15/27/4
f  14/33/5 13/27/5 15/31/5
f  13/27/5 14/33/5 16/25/5

# Mesh 'mesh3_mesh3-geometry' with 12 faces
g mesh3_mesh3-geometry
usemtl material_1_0
l  10 12
l  10 11
l  15 10
l  14 12
l  12 9
l  11 9
l  11 13
l  13 15
l  15 14
l  16 14
l  9 16
l  13 16

# Mesh 'mesh4_mesh4-geometry' with 12 faces
g mesh4_mesh4-geometry
usemtl material_1_0
l  1 8
l  1 4
l  3 1
l  5 8
l  8 6
l  4 6
l  4 2
l  3 5
l  2 3
l  7 5
l  6 7
l  2 7

# Mesh 'mesh5_mesh5-geometry' with 82 faces
g mesh5_mesh5-geometry
usemtl material_0_2_0
f  17/34/1 18/35/1 19/36/1
f  18/35/1 17/34/1 20/37/1
f  18/38/2 21/39/2 19/40/2
f  21/41/3 17/42/3 19/43/3
f  17/44/4 22/45/4 20/46/4
f  22/47/5 18/48/5 20/49/5
f  21/39/2 18/38/2 23/50/2
f  17/42/3 21/41/3 24/51/3
f  22/45/4 17/44/4 24/52/4
f  18/48/5 22/47/5 23/53/5
f  25/54/1 21/36/1 23/35/1
f  24/51/3 21/41/3 26/55/3
f  27/56/1 22/37/1 24/34/1
f  28/57/1 23/35/1 22/37/1
f  21/41/3 29/58/3 26/55/3
f  21/36/1 25/54/1 30/59/1
f  25/54/1 23/35/1 28/57/1
f  24/51/3 26/55/3 31/60/3
f  32/61/1 22/37/1 27/56/1
f  24/51/3 33/62/3 27/63/3
f  28/57/1 22/37/1 32/61/1
f  29/58/3 21/41/3 30/64/3
f  26/55/3 29/58/3 34/65/3
f  25/66/2 35/67/2 30/39/2
f  28/68/5 36/69/5 25/70/5
f  26/55/3 34/65/3 31/60/3
f  33/62/3 24/51/3 31/60/3
f  27/39/2 37/71/2 32/72/2
f  38/73/3 27/63/3 33/62/3
f  28/57/1 32/61/1 39/74/1
f  30/39/2 40/75/2 29/76/2
f  34/65/3 29/58/3 41/77/3
f  35/67/2 25/66/2 42/78/2
f  30/39/2 35/67/2 40/75/2
f  36/69/5 28/68/5 43/79/5
f  44/80/5 25/70/5 36/69/5
f  31/60/3 34/65/3 45/81/3
f  33/62/3 31/60/3 46/82/3
f  37/71/2 27/39/2 47/40/2
f  37/83/5 39/68/5 32/84/5
f  27/63/3 38/73/3 45/81/3
f  48/85/3 27/63/3 45/81/3
f  39/86/4 49/87/4 28/88/4
f  50/89/2 29/76/2 40/75/2
f  51/90/4 34/91/4 41/92/4
f  25/66/2 52/93/2 42/78/2
f  53/94/4 43/95/4 28/88/4
f  36/69/5 43/79/5 54/96/5
f  55/97/5 25/70/5 44/80/5
f  45/81/3 34/65/3 48/85/3
f  45/81/3 56/98/3 31/60/3
f  46/82/3 31/60/3 56/98/3
f  27/63/3 57/99/3 47/100/3
f  57/101/1 37/61/1 47/56/1
f  39/68/5 37/83/5 58/102/5
f  45/81/3 38/73/3 56/98/3
f  57/99/3 27/63/3 48/85/3
f  39/86/4 57/44/4 59/103/4
f  59/103/4 60/104/4 39/86/4
f  49/87/4 39/86/4 61/105/4
f  53/94/4 28/88/4 49/87/4
f  50/89/2 52/93/2 29/76/2
f  62/106/4 34/91/4 51/90/4
f  52/93/2 25/66/2 63/107/2
f  42/78/2 52/93/2 50/89/2
f  43/95/4 53/94/4 64/91/4
f  54/96/5 43/79/5 65/108/5
f  25/70/5 55/97/5 63/109/5
f  55/97/5 44/80/5 65/108/5
f  64/110/3 48/85/3 34/65/3
f  37/61/1 57/101/1 58/74/1
f  57/44/4 39/86/4 58/111/4
f  59/103/4 57/44/4 48/112/4
f  64/91/4 60/104/4 59/103/4
f  61/105/4 39/86/4 60/104/4
f  34/91/4 62/106/4 55/95/4
f  64/91/4 53/94/4 60/104/4
f  34/113/6 43/114/6 64/115/6
f  55/97/5 65/108/5 43/79/5
f  63/109/5 55/97/5 62/116/5
f  64/91/4 59/103/4 48/112/4
f  43/114/6 34/113/6 55/117/6

# Mesh 'mesh5_mesh5-geometry' with 14 faces
g mesh5_mesh5-geometry
usemtl material_1_16
f  23/27/2 26/27/2 21/27/2
f  24/27/4 66/27/4 22/27/4
f  66/27/5 23/27/5 22/27/5
f  26/27/2 23/27/2 67/27/2
f  66/27/4 24/27/4 31/27/4
f  23/27/5 66/27/5 67/27/5
f  31/27/1 67/27/1 26/27/1
f  67/27/1 31/27/1 66/27/1
f  32/27/2 45/27/2 27/27/2
f  45/27/2 32/27/2 68/27/2
f  59/27/5 32/27/5 39/27/5
f  32/27/5 59/27/5 68/27/5
f  48/27/1 68/27/1 45/27/1
f  68/27/1 48/27/1 59/27/1

# Mesh 'mesh5_mesh5-geometry' with 8 faces
g mesh5_mesh5-geometry
usemtl material_8_16
f  46/27/3 38/27/3 33/27/3
f  50/27/2 35/27/2 42/27/2
f  35/27/2 50/27/2 40/27/2
f  54/27/5 44/27/5 36/27/5
f  38/27/3 46/27/3 56/27/3
f  44/27/5 54/27/5 65/27/5
f  61/27/4 53/27/4 49/27/4
f  53/27/4 61/27/4 60/27/4

# Mesh 'mesh5_mesh5-geometry' with 10 faces
g mesh5_mesh5-geometry
usemtl material_4_5_0
f  69/118/6 29/119/6 41/120/6
f  70/121/6 29/119/6 69/118/6
f  69/118/6 41/120/6 71/122/6
f  51/123/6 71/122/6 41/120/6
f  29/119/6 63/124/6 52/125/6
f  29/119/6 70/121/6 72/126/6
f  62/127/6 71/122/6 51/123/6
f  29/119/6 72/126/6 63/124/6
f  63/124/6 71/122/6 62/127/6
f  71/122/6 63/124/6 72/126/6

# Mesh 'mesh5_mesh5-geometry' with 12 faces
g mesh5_mesh5-geometry
usemtl material_5_6_0
f  73/128/3 41/129/3 29/130/3
f  41/129/3 73/128/3 74/131/3
f  52/132/2 73/133/2 29/134/2
f  41/135/4 75/136/4 51/137/4
f  75/136/4 41/135/4 74/138/4
f  73/133/2 52/132/2 76/139/2
f  75/140/5 77/141/5 51/142/5
f  52/143/5 78/144/5 76/145/5
f  77/141/5 75/140/5 79/146/5
f  76/145/5 78/144/5 75/140/5
f  78/144/5 52/143/5 80/147/5
f  79/146/5 75/140/5 78/144/5

# Mesh 'mesh5_mesh5-geometry' with 2 faces
g mesh5_mesh5-geometry
usemtl material_10_10_0
f  73/148/6 75/149/6 74/150/6
f  75/149/6 73/148/6 76/151/6

# Mesh 'mesh5_mesh5-geometry' with 4 faces
g mesh5_mesh5-geometry
usemtl material_2_3_0
f  77/152/6 62/153/6 51/154/6
f  62/153/6 52/155/6 63/156/6
f  80/157/6 62/153/6 77/152/6
f  52/155/6 62/153/6 80/157/6

# Mesh 'mesh5_mesh5-geometry' with 2 faces
g mesh5_mesh5-geometry
usemtl material_9_9_0
f  79/158/5 80/159/5 77/160/5
f  80/159/5 79/158/5 78/161/5

# Mesh 'mesh6_mesh6-geometry' with 6 faces
g mesh6_mesh6-geometry
usemtl material_3_4_0
f  81/162/6 82/163/6 83/164/6
f  82/163/6 81/162/6 84/165/6
f  83/166/7 85/167/7 81/168/7
f  85/167/7 83/166/7 86/169/7
f  87/170/8 81/171/8 85/172/8
f  83/173/9 88/174/9 86/175/9

# Mesh 'mesh6_mesh6-geometry' with 18 faces
g mesh6_mesh6-geometry
usemtl material_1_16
f  82/27/2 89/27/2 83/27/2
f  89/27/5 81/27/5 83/27/5
f  81/27/4 90/27/4 84/27/4
f  89/27/2 82/27/2 91/27/2
f  81/27/5 89/27/5 92/27/5
f  90/27/4 81/27/4 92/27/4
f  91/27/6 93/27/6 89/27/6
f  85/27/6 88/27/6 86/27/6
f  94/27/6 85/27/6 87/27/6
f  89/27/6 85/27/6 92/27/6
f  92/27/6 85/27/6 90/27/6
f  88/27/6 89/27/6 93/27/6
f  88/27/6 85/27/6 89/27/6
f  90/27/6 85/27/6 94/27/6
f  1/27/1 95/27/1 96/27/1
f  95/27/1 1/27/1 97/27/1
f  97/27/1 1/27/1 98/27/1
f  98/27/1 1/27/1 99/27/1

# Mesh 'mesh6_mesh6-geometry' with 57 faces
g mesh6_mesh6-geometry
usemtl material_5_6_0
f  90/176/3 82/177/3 84/178/3
f  82/177/3 90/176/3 91/179/3
f  86/180/5 100/181/5 85/182/5
f  85/183/4 101/184/4 87/185/4
f  94/186/3 91/179/3 90/176/3
f  94/186/3 93/187/3 91/179/3
f  88/188/2 95/27/2 86/183/2
f  86/180/5 102/189/5 100/181/5
f  103/190/5 85/182/5 100/181/5
f  101/184/4 85/183/4 104/191/4
f  87/185/4 101/184/4 94/192/4
f  1/193/3 93/187/3 94/186/3
f  96/194/2 88/188/2 93/195/2
f  95/27/2 88/188/2 96/194/2
f  95/196/5 105/197/5 86/180/5
f  86/180/5 105/197/5 102/189/5
f  106/198/5 85/182/5 103/190/5
f  85/182/5 107/199/5 104/200/5
f  94/192/4 101/184/4 1/201/4
f  93/187/3 1/193/3 96/202/3
f  105/197/5 95/196/5 97/203/5
f  102/189/5 105/197/5 108/204/5
f  109/205/5 85/182/5 106/198/5
f  103/190/5 110/206/5 106/198/5
f  107/199/5 85/182/5 109/205/5
f  111/207/4 1/201/4 101/184/4
f  108/204/5 105/197/5 112/208/5
f  102/189/5 108/204/5 113/209/5
f  102/189/5 113/209/5 114/210/5
f  114/210/5 110/206/5 103/190/5
f  109/205/5 115/211/5 107/199/5
f  116/212/5 117/213/5 107/199/5
f  117/213/5 118/214/5 119/215/5
f  111/207/4 99/27/4 1/201/4
f  120/216/5 118/214/5 105/197/5
f  105/197/5 118/214/5 112/208/5
f  113/209/5 108/204/5 121/217/5
f  113/209/5 122/218/5 114/210/5
f  110/206/5 114/210/5 122/218/5
f  122/218/5 115/211/5 109/205/5
f  123/219/5 107/199/5 115/211/5
f  124/220/5 117/213/5 116/212/5
f  116/212/5 107/199/5 125/221/5
f  99/27/4 111/207/4 118/222/4
f  124/220/5 118/214/5 117/213/5
f  98/223/5 118/214/5 120/216/5
f  112/208/5 118/214/5 124/220/5
f  112/208/5 126/224/5 127/225/5
f  128/226/5 121/217/5 108/204/5
f  122/218/5 113/209/5 115/211/5
f  128/226/5 107/199/5 123/219/5
f  125/221/5 107/199/5 127/225/5
f  118/214/5 98/223/5 99/227/5
f  126/224/5 112/208/5 124/220/5
f  127/225/5 107/199/5 128/226/5
f  127/225/5 126/224/5 125/221/5
f  121/217/5 128/226/5 123/219/5

# Mesh 'mesh6_mesh6-geometry' with 15 faces
g mesh6_mesh6-geometry
usemtl material_7_8_0
f  102/228/5 103/229/5 100/230/5
f  119/231/4 101/232/4 104/233/4
f  103/229/5 102/228/5 114/234/5
f  117/235/5 104/236/5 107/237/5
f  101/232/4 119/231/4 111/238/4
f  104/236/5 117/235/5 119/239/5
f  110/240/5 109/241/5 106/242/5
f  111/238/4 119/231/4 118/243/4
f  127/244/5 108/245/5 112/246/5
f  109/241/5 110/240/5 122/247/5
f  108/245/5 127/244/5 128/248/5
f  123/249/5 113/250/5 121/251/5
f  113/250/5 123/249/5 115/252/5
f  116/253/5 126/254/5 124/255/5
f  126/254/5 116/253/5 125/256/5

# Mesh 'mesh6_mesh6-geometry' with 2 faces
g mesh6_mesh6-geometry
usemtl material_6_7_0
f  97/257/5 120/258/5 105/259/5
f  120/258/5 97/257/5 98/260/5

# Mesh 'mesh7_mesh7-geometry' with 5 faces
g mesh7_mesh7-geometry
usemtl material_1_0
l  66 31
l  67 66
l  22 66
l  26 67
l  23 67

# Mesh 'mesh8_mesh8-geometry' with 5 faces
g mesh8_mesh8-geometry
usemtl material_1_0
l  89 83
l  89 91
l  92 89
l  92 81
l  90 92

# Mesh 'mesh9_mesh9-geometry' with 3 faces
g mesh9_mesh9-geometry
usemtl material_1_0
l  59 68
l  68 45
l  32 68

# Mesh 'mesh10_mesh10-geometry' with 1 faces
g mesh10_mesh10-geometry
usemtl material_1_0
l  95 97

# Mesh 'mesh11_mesh11-geometry' with 1 faces
g mesh11_mesh11-geometry
usemtl material_1_0
l  98 99

