# File produced by Open Asset Import Library (http://www.assimp.sf.net)
# (assimp v3.2.202087883)

mtllib model_normalized.mtl

# 54 vertex positions
v 0.110764 0.087797 0.028174
v 0.110764 0.109882 0.009164
v 0.110764 0.087797 0.009164
v 0.110764 0.109882 0.028174
v 0.110764 0.109882 -0.011721
v -0.119409 0.087797 0.028174
v 0.110764 -0.161337 0.028174
v 0.110764 0.087797 -0.031094
v 0.110764 0.109882 0.028537
v -0.119409 0.109882 0.028174
v 0.110764 0.087797 -0.011721
v -0.294710 0.087797 0.096808
v 0.110764 -0.161337 0.009164
v 0.286472 0.087797 -0.096921
v 0.110764 0.109882 -0.031094
v -0.119409 -0.161337 0.028174
v -0.119409 0.087797 0.008227
v 0.286472 0.087797 0.096808
v 0.110764 -0.161337 -0.011721
v 0.110764 -0.161337 0.028537
v -0.294710 0.087797 -0.096921
v -0.119409 0.109882 -0.031094
v -0.119409 0.087797 -0.031094
v -0.178678 -0.161337 0.094816
v -0.119409 -0.161337 0.008227
v -0.119409 0.109882 0.008227
v 0.286472 0.111045 0.096808
v -0.119409 0.087797 -0.011146
v 0.110764 -0.161337 -0.031094
v -0.294710 0.111045 -0.096921
v -0.119409 -0.161337 -0.031094
v 0.170032 -0.161337 0.094816
v -0.178678 -0.161337 -0.098913
v -0.119409 -0.161337 -0.011146
v -0.294710 0.111045 0.096808
v 0.286472 0.111045 -0.096921
v -0.119409 0.109882 -0.011146
v -0.178678 -0.169396 0.094816
v -0.440006 0.111045 0.193672
v 0.170032 -0.161337 -0.098913
v -0.440006 0.111045 -0.193785
v 0.431768 0.111045 -0.193785
v 0.170032 -0.169396 0.094816
v -0.178678 -0.169396 -0.098913
v 0.431768 0.111045 0.193672
v 0.170032 -0.169396 -0.098913
v 0.431768 0.130418 0.193672
v -0.440006 0.130418 -0.193785
v -0.440006 0.130418 0.193672
v 0.431768 0.130418 -0.193785
v -0.119409 -0.169396 0.028174
v 0.110764 -0.169396 0.028174
v 0.110764 -0.169396 -0.031094
v -0.119409 -0.169396 -0.031094

# 129 UV coordinates
vt 0 0 0
vt 0.832873 0.351597 0
vt 0.832873 0.382765 0
vt 0.859703 0.351597 0
vt 0.859703 0.382765 0
vt 0.859703 0 0
vt 0.118758 0.382765 0
vt 0.443597 0.382765 0
vt 0.118758 0.351597 0
vt 0.443597 0.351597 0
vt 0.118758 0 0
vt 0.832873 0 0
vt 0.8034 0.382765 0
vt 0.8034 0.351597 0
vt 0.776059 0.382765 0
vt 0.443597 0 0
vt 0.8034 0 0
vt 0.776059 0.351597 0
vt 0.776059 0 0
vt -0.118758 0.351597 0
vt -0.443597 0.351597 0
vt -0.118758 0.382765 0
vt -0.443597 0.382765 0
vt -0.443597 0 0
vt -0.831551 0.351597 0
vt -0.831551 0.382765 0
vt -0.804211 0.351597 0
vt -0.831551 0 0
vt -0.804211 0 0
vt -0.118758 0 0
vt -0.804211 0.382765 0
vt 0.129215 0.956562 0
vt -0.896047 1.09326 0
vt -0.690995 0.956562 0
vt 0.129215 0.683159 0
vt -0.896047 0.546457 0
vt -0.690995 0.683159 0
vt 0.334268 0.546457 0
vt 0.334268 1.09326 0
vt 0.334268 0.411745 0
vt -0.896047 0.384405 0
vt 0.334268 0.384405 0
vt 0.896047 0.411745 0
vt -0.334268 0.384405 0
vt 0.896047 0.384405 0
vt 1.09326 0.384405 0
vt 0.546457 0.411745 0
vt 0.546457 0.384405 0
vt -0.546457 0.384405 0
vt -1.09326 0.411745 0
vt -1.09326 0.384405 0
vt -0.896047 0.411745 0
vt -0.334268 0.411745 0
vt 1.09326 0.411745 0
vt -0.546457 0.411745 0
vt -0.334268 1.09326 0
vt 0.896047 0.546457 0
vt 0.896047 1.09326 0
vt -0.334268 0.546457 0
vt 1.1105 0.510353 0
vt 1.1105 0.468796 0
vt 1.0712 0.510353 0
vt -0.591462 1.14627 0
vt -0.158344 1.1105 0
vt -0.158344 1.14627 0
vt -0.158344 1.03475 0
vt 1.0712 0.468796 0
vt -0.158344 1.0712 0
vt -0.921326 1.27542 0
vt 0.172287 0.910878 0
vt 1.1105 0 0
vt -1.14627 0.468796 0
vt -1.14627 0.510353 0
vt -1.10873 0.468796 0
vt 0.172287 1.27542 0
vt -0.591462 1.10873 0
vt 0.158344 1.14627 0
vt 0.158344 1.0712 0
vt 0.158344 1.1105 0
vt -0.921326 0.910878 0
vt 1.0712 0 0
vt -0.591462 1.03475 0
vt 0.702987 1.27167 0
vt 0.591462 1.14627 0
vt -1.14627 0 0
vt -1.10873 0 0
vt -1.10873 0.510353 0
vt 0.172287 0.51254 0
vt -0.921326 0.468796 0
vt 0.172287 0.468796 0
vt -0.591462 1.07228 0
vt 0.158344 1.03475 0
vt 0.921326 0.51254 0
vt -0.172287 0.468796 0
vt 0.921326 0.468796 0
vt -0.910878 0.468796 0
vt -1.27542 0.51254 0
vt -1.27542 0.468796 0
vt 0.046819 1.27167 0
vt 0.702987 0.90713 0
vt 0.591462 1.10873 0
vt -0.921326 0.51254 0
vt -0.172287 0.51254 0
vt 1.27542 0.468796 0
vt 0.910878 0.51254 0
vt 0.910878 0.468796 0
vt -0.910878 0.51254 0
vt -1.03475 0.510353 0
vt -1.03475 0.468796 0
vt -1.07228 0.510353 0
vt -1.03475 0 0
vt -1.07228 0.468796 0
vt 0.591462 1.07228 0
vt 1.27542 0.51254 0
vt -1.07228 0 0
vt 0.046819 0.90713 0
vt 0.591462 1.03475 0
vt -1.27167 0 0
vt -0.90713 -0.015165 0
vt -0.90713 0 0
vt -0.702987 1.27167 0
vt -0.046819 0.90713 0
vt -0.046819 1.27167 0
vt -1.27167 -0.015165 0
vt 0.702987 0 0
vt 0.046819 -0.015165 0
vt 0.702987 -0.015165 0
vt -0.702987 0.90713 0
vt 0.046819 0 0

# 6 vertex normals
vn -0.001 0 0
vn 0 0.001 0
vn 0.001 0 0
vn 0 0 -0.001
vn 0 -0.001 0
vn 0 0 0.001

# Mesh 'mesh1_mesh1-geometry' with 122 faces
g mesh1_mesh1-geometry
usemtl material_0_24
f  1/1/1 2/1/1 3/1/1
f  2/1/1 1/1/1 4/1/1
f  5/1/1 3/1/1 2/1/1
f  1/1/2 3/1/2 6/1/2
f  3/1/1 7/1/1 1/1/1
f  3/1/2 1/1/2 8/1/2
f  9/1/3 1/1/3 4/1/3
f  4/1/1 1/1/1 9/1/1
f  1/1/4 10/1/4 4/1/4
f  10/1/5 2/1/5 4/1/5
f  4/1/2 2/1/2 10/1/2
f  3/1/1 5/1/1 11/1/1
f  2/1/5 10/1/5 5/1/5
f  5/1/2 10/1/2 2/1/2
f  11/1/2 6/1/2 3/1/2
f  7/1/4 6/1/4 1/1/4
f  10/1/4 1/1/4 6/1/4
f  6/1/2 12/1/2 1/1/2
f  7/1/1 3/1/1 13/1/1
f  1/1/3 9/1/3 7/1/3
f  7/1/1 9/1/1 1/1/1
f  1/1/2 14/1/2 8/1/2
f  11/1/2 3/1/2 8/1/2
f  15/1/1 11/1/1 5/1/1
f  11/1/1 13/1/1 3/1/1
f  5/1/5 10/1/5 15/1/5
f  15/1/2 10/1/2 5/1/2
f  8/1/2 6/1/2 11/1/2
f  6/1/4 7/1/4 16/1/4
f  17/1/3 10/1/3 6/1/3
f  12/1/2 18/1/2 1/1/2
f  17/1/2 12/1/2 6/1/2
f  13/1/5 19/1/5 7/1/5
f  7/1/3 9/1/3 20/1/3
f  20/1/1 9/1/1 7/1/1
f  21/1/2 8/1/2 14/1/2
f  14/1/2 1/1/2 18/1/2
f  8/1/1 19/1/1 11/1/1
f  11/1/1 15/1/1 8/1/1
f  13/1/1 11/1/1 19/1/1
f  15/1/5 10/1/5 22/1/5
f  22/1/2 10/1/2 15/1/2
f  23/1/2 6/1/2 8/1/2
f  16/1/5 7/1/5 24/1/5
f  25/1/3 6/1/3 16/1/3
f  10/1/3 17/1/3 26/1/3
f  17/1/2 6/1/2 23/1/2
f  6/1/3 25/1/3 17/1/3
f  18/1/4 12/1/4 27/1/4
f  28/1/2 12/1/2 17/1/2
f  19/1/5 29/1/5 7/1/5
f  23/1/2 8/1/2 21/1/2
f  21/1/6 14/1/6 30/1/6
f  18/1/1 27/1/1 14/1/1
f  19/1/1 8/1/1 29/1/1
f  15/1/6 23/1/6 8/1/6
f  22/1/5 10/1/5 26/1/5
f  26/1/2 10/1/2 22/1/2
f  23/1/6 15/1/6 22/1/6
f  31/1/6 8/1/6 23/1/6
f  24/1/5 7/1/5 32/1/5
f  33/1/5 16/1/5 24/1/5
f  16/1/5 33/1/5 25/1/5
f  28/1/3 26/1/3 17/1/3
f  28/1/2 17/1/2 23/1/2
f  34/1/3 17/1/3 25/1/3
f  35/1/4 27/1/4 12/1/4
f  23/1/2 12/1/2 28/1/2
f  17/1/3 34/1/3 28/1/3
f  29/1/5 32/1/5 7/1/5
f  12/1/2 23/1/2 21/1/2
f  36/1/6 30/1/6 14/1/6
f  21/1/3 30/1/3 12/1/3
f  36/1/1 14/1/1 27/1/1
f  8/1/6 31/1/6 29/1/6
f  22/1/5 26/1/5 37/1/5
f  37/1/2 26/1/2 22/1/2
f  37/1/3 23/1/3 22/1/3
f  28/1/3 31/1/3 23/1/3
f  38/1/6 32/1/6 24/1/6
f  24/1/4 32/1/4 38/1/4
f  33/1/1 38/1/1 24/1/1
f  24/1/3 38/1/3 33/1/3
f  25/1/5 33/1/5 34/1/5
f  26/1/3 28/1/3 37/1/3
f  23/1/3 37/1/3 28/1/3
f  35/1/2 39/1/2 27/1/2
f  27/1/2 36/1/2 35/1/2
f  35/1/3 12/1/3 30/1/3
f  31/1/3 28/1/3 34/1/3
f  32/1/5 29/1/5 40/1/5
f  30/1/2 36/1/2 41/1/2
f  30/1/2 35/1/2 36/1/2
f  27/1/2 42/1/2 36/1/2
f  31/1/5 33/1/5 29/1/5
f  32/1/6 38/1/6 43/1/6
f  43/1/4 38/1/4 32/1/4
f  38/1/1 33/1/1 44/1/1
f  44/1/3 33/1/3 38/1/3
f  34/1/5 33/1/5 31/1/5
f  39/1/2 45/1/2 27/1/2
f  30/1/2 39/1/2 35/1/2
f  33/1/5 40/1/5 29/1/5
f  40/1/1 46/1/1 32/1/1
f  41/1/2 36/1/2 42/1/2
f  39/1/2 30/1/2 41/1/2
f  42/1/2 27/1/2 45/1/2
f  43/1/2 46/1/2 38/1/2
f  43/1/1 32/1/1 46/1/1
f  44/1/6 46/1/6 33/1/6
f  44/1/2 38/1/2 46/1/2
f  45/1/4 39/1/4 47/1/4
f  40/1/6 33/1/6 46/1/6
f  41/1/6 42/1/6 48/1/6
f  41/1/3 48/1/3 39/1/3
f  45/1/1 47/1/1 42/1/1
f  49/1/4 47/1/4 39/1/4
f  50/1/6 48/1/6 42/1/6
f  49/1/3 39/1/3 48/1/3
f  50/1/1 42/1/1 47/1/1
f  49/1/5 48/1/5 47/1/5
f  50/1/5 47/1/5 48/1/5

# Mesh 'mesh1_mesh1-geometry' with 40 faces
g mesh1_mesh1-geometry
usemtl material_1_1_8
f  3/2/3 2/3/3 1/4/3
f  4/5/3 1/4/3 2/3/3
f  1/4/3 7/6/3 3/2/3
f  4/7/6 10/8/6 1/9/6
f  1/9/6 6/10/6 7/11/6
f  6/10/6 1/9/6 10/8/6
f  13/12/3 3/2/3 7/6/3
f  5/13/3 11/14/3 15/15/3
f  16/16/6 7/11/6 6/10/6
f  11/14/3 19/17/3 8/18/3
f  8/18/3 15/15/3 11/14/3
f  29/19/3 8/18/3 19/17/3
f  8/20/4 23/21/4 15/22/4
f  22/23/4 15/22/4 23/21/4
f  23/21/4 8/20/4 31/24/4
f  17/25/1 26/26/1 28/27/1
f  25/28/1 17/25/1 34/29/1
f  28/27/1 34/29/1 17/25/1
f  29/30/4 31/24/4 8/20/4
f  37/31/1 28/27/1 26/26/1
f  27/32/5 39/33/5 35/34/5
f  35/34/5 36/35/5 27/32/5
f  41/36/5 36/35/5 30/37/5
f  36/35/5 35/34/5 30/37/5
f  36/35/5 42/38/5 27/32/5
f  27/32/5 45/39/5 39/33/5
f  35/34/5 39/33/5 30/37/5
f  42/38/5 36/35/5 41/36/5
f  41/36/5 30/37/5 39/33/5
f  45/39/5 27/32/5 42/38/5
f  47/40/6 39/41/6 45/42/6
f  48/43/4 42/44/4 41/45/4
f  39/46/1 48/47/1 41/48/1
f  42/49/3 47/50/3 45/51/3
f  39/41/6 47/40/6 49/52/6
f  42/44/4 48/43/4 50/53/4
f  48/47/1 39/46/1 49/54/1
f  47/50/3 42/49/3 50/55/3
f  47/56/2 48/57/2 49/58/2
f  48/57/2 47/56/2 50/59/2

# Mesh 'mesh1_mesh1-geometry' with 56 faces
g mesh1_mesh1-geometry
usemtl material_2_2_8
f  2/60/3 3/61/3 5/62/3
f  6/63/5 3/64/5 1/65/5
f  8/66/5 1/65/5 3/64/5
f  11/67/3 5/62/3 3/61/3
f  3/64/5 6/63/5 11/68/5
f  1/65/5 12/69/5 6/63/5
f  8/66/5 14/70/5 1/65/5
f  8/66/5 3/64/5 11/68/5
f  3/61/3 13/71/3 11/67/3
f  11/68/5 6/63/5 8/66/5
f  6/72/1 10/73/1 17/74/1
f  1/65/5 18/75/5 12/69/5
f  6/63/5 12/69/5 17/76/5
f  7/77/2 19/78/2 13/79/2
f  14/70/5 8/66/5 21/80/5
f  18/75/5 1/65/5 14/70/5
f  19/81/3 11/67/3 13/71/3
f  8/66/5 6/63/5 23/82/5
f  24/83/2 7/77/2 16/84/2
f  16/85/1 6/72/1 25/86/1
f  26/87/1 17/74/1 10/73/1
f  23/82/5 6/63/5 17/76/5
f  17/74/1 25/86/1 6/72/1
f  27/88/6 12/89/6 18/90/6
f  17/76/5 12/69/5 28/91/5
f  7/77/2 29/92/2 19/78/2
f  21/80/5 8/66/5 23/82/5
f  30/93/4 14/94/4 21/95/4
f  14/96/3 27/97/3 18/98/3
f  32/99/2 7/77/2 24/83/2
f  24/83/2 16/84/2 33/100/2
f  25/101/2 33/100/2 16/84/2
f  23/82/5 17/76/5 28/91/5
f  12/89/6 27/88/6 35/102/6
f  28/91/5 12/69/5 23/82/5
f  7/77/2 32/99/2 29/92/2
f  21/80/5 23/82/5 12/69/5
f  14/94/4 30/93/4 36/103/4
f  12/104/1 30/105/1 21/106/1
f  27/97/3 14/96/3 36/107/3
f  22/108/1 23/109/1 37/110/1
f  23/109/1 31/111/1 28/112/1
f  34/113/2 33/100/2 25/101/2
f  28/112/1 37/110/1 23/109/1
f  30/105/1 12/104/1 35/114/1
f  34/115/1 28/112/1 31/111/1
f  40/116/2 29/92/2 32/99/2
f  29/92/2 33/100/2 31/117/2
f  31/117/2 33/100/2 34/113/2
f  29/92/2 40/116/2 33/100/2
f  32/118/3 46/119/3 40/120/3
f  38/121/5 46/122/5 43/123/5
f  46/119/3 32/118/3 43/124/3
f  33/125/4 46/126/4 44/127/4
f  46/122/5 38/121/5 44/128/5
f  46/126/4 33/125/4 40/129/4

# Mesh 'mesh2_mesh2-geometry' with 7 faces
g mesh2_mesh2-geometry
usemtl material_0_0
l  24 32
l  33 24
l  24 38
l  32 43
l  33 44
l  44 38
l  38 43

# Mesh 'mesh3_mesh3-geometry' with 5 faces
g mesh3_mesh3-geometry
usemtl material_0_0
l  15 22
l  15 5
l  37 22
l  26 37
l  10 26

# Mesh 'mesh4_mesh4-geometry' with 1 faces
g mesh4_mesh4-geometry
usemtl material_0_0
l  16 51

# Mesh 'mesh5_mesh5-geometry' with 1 faces
g mesh5_mesh5-geometry
usemtl material_0_0
l  7 52

# Mesh 'mesh6_mesh6-geometry' with 1 faces
g mesh6_mesh6-geometry
usemtl material_0_0
l  29 53

# Mesh 'mesh7_mesh7-geometry' with 1 faces
g mesh7_mesh7-geometry
usemtl material_0_0
l  31 54

