# File produced by Open Asset Import Library (http://www.assimp.sf.net)
# (assimp v3.2.202087883)

mtllib model_normalized.mtl

# 58 vertex positions
v 0.134601 -0.496966 0.095139
v 0.098244 -0.183511 0.095139
v 0.098244 -0.496966 0.095139
v 0.099114 0.394010 0.095139
v 0.098244 -0.496966 0.026259
v 0.118504 0.375851 0.095139
v 0.076970 0.408689 0.095139
v 0.098244 -0.183511 0.026259
v 0.134601 -0.496966 0.026259
v 0.134601 0.354713 0.095139
v 0.118504 0.375851 0.026259
v 0.052692 0.419478 0.095139
v 0.099114 0.394010 0.026259
v -0.095482 -0.183511 0.026259
v 0.134601 -0.183511 0.026259
v 0.026957 0.426072 0.095139
v 0.076970 0.408689 0.026259
v -0.095482 -0.183511 0.095139
v -0.133636 -0.183511 0.026259
v 0.134601 -0.054562 0.026259
v 0.134601 0.354713 0.026259
v 0.000482 0.428290 0.095139
v 0.052692 0.419478 0.026259
v -0.076005 0.408689 0.095139
v -0.095482 -0.496966 0.095139
v -0.133636 -0.496966 0.026259
v -0.133636 -0.183511 -0.128350
v 0.134601 -0.054562 -0.173097
v -0.025991 0.426072 0.095139
v 0.026957 0.426072 0.026259
v -0.098149 0.394010 0.095139
v -0.051727 0.419478 0.095139
v -0.095482 -0.496966 0.026259
v -0.133636 0.354713 0.095139
v -0.095482 -0.183511 -0.128350
v -0.133636 -0.054562 0.026259
v 0.134601 -0.183511 -0.128350
v 0.000482 0.428290 0.026259
v -0.076005 0.408689 0.026259
v -0.051727 0.419478 0.026259
v -0.117539 0.375851 0.095139
v -0.133636 -0.496966 0.095139
v 0.087655 -0.183511 -0.128350
v -0.095482 -0.496966 -0.128350
v -0.133636 -0.054562 -0.173097
v 0.134601 -0.496966 -0.128350
v -0.117539 0.375851 0.026259
v -0.025991 0.426072 0.026259
v -0.098149 0.394010 0.026259
v -0.133636 0.354713 0.026259
v -0.095482 -0.183511 -0.173097
v -0.133636 -0.496966 -0.128350
v -0.133636 -0.496966 -0.173097
v 0.134601 -0.496966 -0.173097
v 0.087655 -0.183511 -0.173097
v -0.095482 -0.496966 -0.173097
v 0.087655 -0.496966 -0.173097
v 0.087655 -0.496966 -0.128350

# 0 UV coordinates

# 30 vertex normals
vn 0 0 0.0254
vn -0 -0 -0.0254
vn -0.0254 0 0
vn 0.0254 0 0
vn 0 -0.0254 0
vn 0 0.0254 0
vn 0.018851 0.0170235 0
vn 0.0157538 0.0199243 0
vn -0.018851 -0.0170235 -0
vn -0.0157538 -0.0199243 -0
vn 0.012217 0.0222689 0
vn -0.012217 -0.0222689 -0
vn 0.0202071 0.0153894 0
vn -0.0202071 -0.0153894 -0
vn 0.00833915 0.0239921 0
vn -0.00833915 -0.0239921 -0
vn 0.00422859 0.0250455 0
vn -0.00422859 -0.0250455 -0
vn -0.00422859 0.0250455 0
vn 0.00422859 -0.0250455 0
vn -0.012217 0.0222689 0
vn -0.0157538 0.0199243 0
vn 0.012217 -0.0222689 0
vn 0.0157538 -0.0199243 0
vn -0.00833915 0.0239921 0
vn 0.00833915 -0.0239921 0
vn -0.018851 0.0170235 0
vn 0.018851 -0.0170235 0
vn -0.0202071 0.0153894 0
vn 0.0202071 -0.0153894 0

# Mesh 'mesh1_mesh1-geometry' with 224 faces
g mesh1_mesh1-geometry
usemtl material_0_24
f  1//1 2//1 3//1
f  2//1 1//1 4//1
f  3//2 2//2 1//2
f  4//2 1//2 2//2
f  2//3 5//3 3//3
f  3//4 5//4 2//4
f  5//5 1//5 3//5
f  3//6 1//6 5//6
f  4//1 1//1 6//1
f  6//2 1//2 4//2
f  7//1 2//1 4//1
f  4//2 2//2 7//2
f  5//3 2//3 8//3
f  8//4 2//4 5//4
f  1//5 5//5 9//5
f  9//6 5//6 1//6
f  6//1 1//1 10//1
f  10//2 1//2 6//2
f  11//7 4//8 6//7
f  6//9 4//10 11//9
f  12//1 2//1 7//1
f  7//2 2//2 12//2
f  13//8 7//11 4//8
f  4//10 7//12 13//10
f  2//5 14//5 8//5
f  8//6 14//6 2//6
f  15//2 5//2 8//2
f  8//1 5//1 15//1
f  5//2 15//2 9//2
f  9//1 15//1 5//1
f  15//4 1//4 9//4
f  9//3 1//3 15//3
f  1//4 15//4 10//4
f  10//3 15//3 1//3
f  10//13 11//7 6//7
f  6//9 11//9 10//14
f  4//8 11//7 13//8
f  13//10 11//9 4//10
f  16//1 2//1 12//1
f  12//2 2//2 16//2
f  17//11 12//15 7//11
f  7//12 12//16 17//12
f  7//11 13//8 17//11
f  17//12 13//10 7//12
f  14//5 2//5 18//5
f  18//6 2//6 14//6
f  19//5 8//5 14//5
f  14//6 8//6 19//6
f  19//5 15//5 8//5
f  8//6 15//6 19//6
f  10//4 15//4 20//4
f  20//3 15//3 10//3
f  11//7 10//13 21//13
f  21//14 10//14 11//9
f  20//2 13//2 11//2
f  11//1 13//1 20//1
f  22//1 2//1 16//1
f  16//2 2//2 22//2
f  23//15 16//17 12//15
f  12//16 16//18 23//16
f  12//15 17//11 23//15
f  23//16 17//12 12//16
f  20//2 17//2 13//2
f  13//1 17//1 20//1
f  24//1 18//1 2//1
f  2//2 18//2 24//2
f  25//4 14//4 18//4
f  18//3 14//3 25//3
f  14//2 26//2 19//2
f  19//1 26//1 14//1
f  27//5 15//5 19//5
f  19//6 15//6 27//6
f  20//4 15//4 28//4
f  28//3 15//3 20//3
f  10//4 20//4 21//4
f  21//3 20//3 10//3
f  20//2 11//2 21//2
f  21//1 11//1 20//1
f  29//1 2//1 22//1
f  22//2 2//2 29//2
f  30//17 22//6 16//17
f  16//18 22//5 30//18
f  16//17 23//15 30//17
f  30//18 23//16 16//18
f  20//2 23//2 17//2
f  17//1 23//1 20//1
f  31//1 18//1 24//1
f  24//2 18//2 31//2
f  24//1 2//1 32//1
f  32//2 2//2 24//2
f  14//4 25//4 33//4
f  33//3 25//3 14//3
f  31//1 25//1 18//1
f  18//2 25//2 31//2
f  26//2 14//2 33//2
f  33//1 14//1 26//1
f  26//3 34//3 19//3
f  19//4 34//4 26//4
f  35//5 15//5 27//5
f  27//6 15//6 35//6
f  19//3 36//3 27//3
f  27//4 36//4 19//4
f  37//4 28//4 15//4
f  15//3 28//3 37//3
f  28//6 36//6 20//6
f  20//5 36//5 28//5
f  32//1 2//1 29//1
f  29//2 2//2 32//2
f  38//6 29//19 22//6
f  22//5 29//20 38//5
f  22//6 30//17 38//6
f  38//5 30//18 22//5
f  20//2 30//2 23//2
f  23//1 30//1 20//1
f  39//21 31//22 24//21
f  24//23 31//24 39//23
f  40//25 24//21 32//25
f  32//26 24//23 40//26
f  25//5 26//5 33//5
f  33//6 26//6 25//6
f  41//1 25//1 31//1
f  31//2 25//2 41//2
f  34//3 26//3 42//3
f  42//4 26//4 34//4
f  19//3 34//3 36//3
f  36//4 34//4 19//4
f  43//5 15//5 35//5
f  35//6 15//6 43//6
f  27//1 44//1 35//1
f  35//2 44//2 27//2
f  45//3 27//3 36//3
f  36//4 27//4 45//4
f  46//4 28//4 37//4
f  37//3 28//3 46//3
f  15//5 43//5 37//5
f  37//6 43//6 15//6
f  36//6 28//6 45//6
f  45//5 28//5 36//5
f  36//2 47//2 20//2
f  20//1 47//1 36//1
f  48//19 32//25 29//19
f  29//20 32//26 48//20
f  29//19 38//6 48//19
f  48//20 38//5 29//20
f  20//2 38//2 30//2
f  30//1 38//1 20//1
f  31//22 39//21 49//22
f  49//24 39//23 31//24
f  24//21 40//25 39//21
f  39//23 40//26 24//23
f  32//25 48//19 40//25
f  40//26 48//20 32//26
f  26//5 25//5 42//5
f  42//6 25//6 26//6
f  41//1 42//1 25//1
f  25//2 42//2 41//2
f  49//22 41//27 31//22
f  31//24 41//28 49//24
f  42//1 41//1 34//1
f  34//2 41//2 42//2
f  36//3 34//3 50//3
f  50//4 34//4 36//4
f  51//5 43//5 35//5
f  35//6 43//6 51//6
f  44//1 27//1 52//1
f  52//2 27//2 44//2
f  44//4 51//4 35//4
f  35//3 51//3 44//3
f  53//3 27//3 45//3
f  45//4 27//4 53//4
f  28//4 46//4 54//4
f  54//3 46//3 28//3
f  43//1 46//1 37//1
f  37//2 46//2 43//2
f  51//2 45//2 28//2
f  28//1 45//1 51//1
f  47//2 36//2 50//2
f  50//1 36//1 47//1
f  20//2 47//2 49//2
f  49//1 47//1 20//1
f  20//2 48//2 38//2
f  38//1 48//1 20//1
f  20//2 49//2 39//2
f  39//1 49//1 20//1
f  20//2 39//2 40//2
f  40//1 39//1 20//1
f  20//2 40//2 48//2
f  48//1 40//1 20//1
f  41//27 49//22 47//27
f  47//28 49//24 41//28
f  41//27 50//29 34//29
f  34//30 50//30 41//28
f  43//5 51//5 55//5
f  55//6 51//6 43//6
f  27//3 53//3 52//3
f  52//4 53//4 27//4
f  52//5 56//5 44//5
f  44//6 56//6 52//6
f  51//4 44//4 56//4
f  56//3 44//3 51//3
f  45//2 51//2 53//2
f  53//1 51//1 45//1
f  46//5 57//5 54//5
f  54//6 57//6 46//6
f  57//2 28//2 54//2
f  54//1 28//1 57//1
f  46//1 43//1 58//1
f  58//2 43//2 46//2
f  51//2 28//2 55//2
f  55//1 28//1 51//1
f  50//29 41//27 47//27
f  47//28 41//28 50//30
f  57//3 43//3 55//3
f  55//4 43//4 57//4
f  56//5 52//5 53//5
f  53//6 52//6 56//6
f  56//2 53//2 51//2
f  51//1 53//1 56//1
f  57//5 46//5 58//5
f  58//6 46//6 57//6
f  55//2 28//2 57//2
f  57//1 28//1 55//1
f  43//3 57//3 58//3
f  58//4 57//4 43//4

# Mesh 'mesh2_mesh2-geometry' with 77 faces
g mesh2_mesh2-geometry
usemtl material_0_0
l  54 57
l  54 28
l  46 54
l  57 55
l  58 57
l  20 28
l  45 28
l  46 37
l  58 46
l  51 55
l  43 55
l  58 43
l  36 20
l  21 20
l  36 45
l  53 45
l  37 15
l  43 37
l  35 51
l  51 56
l  50 36
l  21 11
l  21 10
l  53 52
l  56 53
l  15 9
l  8 15
l  27 35
l  35 44
l  44 56
l  47 50
l  50 34
l  11 13
l  1 10
l  10 6
l  52 27
l  52 44
l  1 9
l  5 9
l  8 2
l  5 8
l  14 8
l  27 19
l  49 47
l  42 34
l  41 34
l  13 17
l  3 1
l  6 4
l  5 3
l  2 18
l  3 2
l  19 14
l  14 18
l  14 33
l  19 26
l  39 49
l  26 42
l  42 25
l  31 41
l  17 23
l  4 7
l  18 25
l  33 25
l  26 33
l  40 39
l  24 31
l  23 30
l  7 12
l  48 40
l  32 24
l  30 38
l  12 16
l  38 48
l  29 32
l  16 22
l  22 29

