# File produced by Open Asset Import Library (http://www.assimp.sf.net)
# (assimp v3.2.202087883)

mtllib model_normalized.mtl

# 8 vertex positions
v -0.260581 0.359422 0.230030
v -0.260581 -0.359422 -0.230030
v -0.260581 -0.359422 0.230030
v -0.260581 0.359422 -0.230030
v 0.260581 -0.359422 0.230030
v 0.260581 0.359422 -0.230030
v 0.260581 -0.359422 -0.230030
v 0.260581 0.359422 0.230030

# 4 UV coordinates
vt 0 0 0
vt 1 0 0
vt 0 1 0
vt 1 1 0

# 8 vertex normals
vn -0.001 0 0
vn 0 -0.001 0
vn 0 0 0.001
vn 0 0.001 0
vn 0 0 -0.001
vn 0.001 0 0
vn -0.0254 0 0
vn 0.0254 0 0

# Mesh 'mesh1_mesh1-geometry' with 12 faces
g mesh1_mesh1-geometry
usemtl material_0_24
f  1/1/1 2/1/1 3/1/1
f  2/1/1 1/1/1 4/1/1
f  2/1/2 5/1/2 3/1/2
f  5/1/3 1/1/3 3/1/3
f  1/1/4 6/1/4 4/1/4
f  6/1/5 2/1/5 4/1/5
f  5/1/2 2/1/2 7/1/2
f  1/1/3 5/1/3 8/1/3
f  6/1/4 1/1/4 8/1/4
f  2/1/5 6/1/5 7/1/5
f  6/1/6 5/1/6 7/1/6
f  5/1/6 6/1/6 8/1/6

# Mesh 'mesh1_mesh1-geometry' with 12 faces
g mesh1_mesh1-geometry
usemtl material_1_24
f  3/1/6 2/1/6 1/1/6
f  4/1/6 1/1/6 2/1/6
f  3/1/4 5/1/4 2/1/4
f  3/1/5 1/1/5 5/1/5
f  4/1/2 6/1/2 1/1/2
f  4/1/3 2/1/3 6/1/3
f  7/1/4 2/1/4 5/1/4
f  8/1/5 5/1/5 1/1/5
f  8/1/2 1/1/2 6/1/2
f  7/1/3 6/1/3 2/1/3
f  7/1/1 5/1/1 6/1/1
f  8/1/1 6/1/1 5/1/1

# Mesh 'mesh1_mesh1-geometry' with 4 faces
g mesh1_mesh1-geometry
usemtl material_1_1_0
f  2/1/7 3/2/7 4/3/7
f  2/1/8 4/3/8 3/2/8
f  1/4/7 4/3/7 3/2/7
f  1/4/8 3/2/8 4/3/8

# Mesh 'mesh1_mesh1-geometry' with 4 faces
g mesh1_mesh1-geometry
usemtl material_1_2_0
f  5/1/8 7/2/8 8/3/8
f  5/1/7 8/3/7 7/2/7
f  6/4/8 8/3/8 7/2/8
f  6/4/7 7/2/7 8/3/7

