# File produced by Open Asset Import Library (http://www.assimp.sf.net)
# (assimp v3.2.202087883)

mtllib model_normalized.mtl

# 37 vertex positions
v -0.337697 -0.062976 -0.322009
v -0.382201 -0.062976 -0.365377
v -0.337697 -0.062976 -0.365377
v -0.382201 -0.062976 -0.322009
v -0.337697 0.050776 -0.365377
v -0.382201 0.035880 -0.322009
v -0.382201 0.118486 -0.365377
v -0.337697 0.035880 -0.322009
v 0.361256 0.118486 -0.365377
v -0.337697 0.035880 0.231409
v -0.382201 0.118486 0.278318
v 0.323603 0.050776 -0.365377
v -0.337697 0.050776 0.278318
v -0.382201 0.035880 0.231409
v 0.361256 0.118486 0.278318
v 0.323603 -0.062976 -0.365377
v 0.323603 0.050776 0.278318
v -0.337697 -0.062976 0.278318
v -0.382201 -0.062976 0.231409
v -0.345052 0.052131 0.278318
v 0.361256 0.039492 0.245274
v 0.361256 -0.062976 -0.365377
v 0.323603 0.039492 -0.328455
v -0.337697 -0.062976 0.231409
v 0.323472 0.050776 0.278318
v -0.382201 -0.062976 0.278318
v -0.345052 -0.062976 0.278318
v 0.323472 0.052131 0.278318
v 0.361256 -0.062976 0.278318
v 0.361256 0.039492 -0.328455
v 0.361256 -0.062976 -0.328455
v 0.323603 -0.062976 -0.328455
v 0.323603 0.039492 0.245274
v 0.323472 -0.062976 0.278318
v 0.361256 -0.062976 0.245274
v 0.323603 -0.062976 0.245274
v 0.323603 -0.062976 0.278318

# 0 UV coordinates

# 6 vertex normals
vn 0 -0.0254 0
vn 0 0 -0.0254
vn 0.0254 0 0
vn 0 0 0.0254
vn -0.0254 0 0
vn 0 0.0254 0

# Mesh 'mesh1_mesh1-geometry' with 70 faces
g mesh1_mesh1-geometry
usemtl material_0_24
f  1//1 2//1 3//1
f  2//1 1//1 4//1
f  3//2 2//2 5//2
f  5//3 1//3 3//3
f  1//4 6//4 4//4
f  6//5 2//5 4//5
f  7//2 5//2 2//2
f  1//3 5//3 8//3
f  6//4 1//4 8//4
f  2//5 6//5 7//5
f  5//2 7//2 9//2
f  8//3 5//3 10//3
f  10//1 6//1 8//1
f  7//5 6//5 11//5
f  11//6 9//6 7//6
f  5//2 9//2 12//2
f  13//3 10//3 5//3
f  6//1 10//1 14//1
f  14//5 11//5 6//5
f  9//6 11//6 15//6
f  12//2 9//2 16//2
f  17//1 5//1 12//1
f  18//3 10//3 13//3
f  5//1 17//1 13//1
f  10//2 19//2 14//2
f  19//5 11//5 14//5
f  11//4 20//4 15//4
f  15//3 21//3 9//3
f  16//2 9//2 22//2
f  16//5 23//5 12//5
f  12//5 23//5 17//5
f  10//3 18//3 24//3
f  20//4 18//4 13//4
f  13//1 17//1 25//1
f  19//2 10//2 24//2
f  11//5 19//5 26//5
f  11//4 27//4 20//4
f  15//4 20//4 28//4
f  29//3 21//3 15//3
f  30//3 9//3 21//3
f  9//3 31//3 22//3
f  31//1 16//1 22//1
f  23//5 16//5 32//5
f  33//5 17//5 23//5
f  18//1 19//1 24//1
f  18//4 20//4 27//4
f  20//4 13//4 28//4
f  17//2 34//2 25//2
f  17//4 28//4 25//4
f  28//4 13//4 25//4
f  19//1 18//1 26//1
f  27//4 11//4 26//4
f  15//4 28//4 17//4
f  21//3 29//3 35//3
f  15//4 17//4 29//4
f  31//3 9//3 30//3
f  21//1 23//1 30//1
f  16//1 31//1 32//1
f  31//4 23//4 32//4
f  36//5 17//5 33//5
f  23//1 21//1 33//1
f  26//1 18//1 27//1
f  34//2 17//2 37//2
f  29//1 36//1 35//1
f  36//2 21//2 35//2
f  29//4 17//4 37//4
f  23//4 31//4 30//4
f  17//5 36//5 37//5
f  21//2 36//2 33//2
f  36//1 29//1 37//1

# Mesh 'mesh1_mesh1-geometry' with 70 faces
g mesh1_mesh1-geometry
usemtl material_1_24
f  3//6 2//6 1//6
f  4//6 1//6 2//6
f  5//4 2//4 3//4
f  3//5 1//5 5//5
f  4//2 6//2 1//2
f  4//3 2//3 6//3
f  2//4 5//4 7//4
f  8//5 5//5 1//5
f  8//2 1//2 6//2
f  7//3 6//3 2//3
f  9//4 7//4 5//4
f  10//5 5//5 8//5
f  8//6 6//6 10//6
f  11//3 6//3 7//3
f  7//1 9//1 11//1
f  12//4 9//4 5//4
f  5//5 10//5 13//5
f  14//6 10//6 6//6
f  6//3 11//3 14//3
f  15//1 11//1 9//1
f  16//4 9//4 12//4
f  12//6 5//6 17//6
f  13//5 10//5 18//5
f  13//6 17//6 5//6
f  14//4 19//4 10//4
f  14//3 11//3 19//3
f  15//2 20//2 11//2
f  9//5 21//5 15//5
f  22//4 9//4 16//4
f  12//3 23//3 16//3
f  17//3 23//3 12//3
f  24//5 18//5 10//5
f  13//2 18//2 20//2
f  25//6 17//6 13//6
f  24//4 10//4 19//4
f  26//3 19//3 11//3
f  20//2 27//2 11//2
f  28//2 20//2 15//2
f  15//5 21//5 29//5
f  21//5 9//5 30//5
f  22//5 31//5 9//5
f  22//6 16//6 31//6
f  32//3 16//3 23//3
f  23//3 17//3 33//3
f  24//6 19//6 18//6
f  27//2 20//2 18//2
f  28//2 13//2 20//2
f  25//4 34//4 17//4
f  25//2 28//2 17//2
f  25//2 13//2 28//2
f  26//6 18//6 19//6
f  26//2 11//2 27//2
f  17//2 28//2 15//2
f  35//5 29//5 21//5
f  29//2 17//2 15//2
f  30//5 9//5 31//5
f  30//6 23//6 21//6
f  32//6 31//6 16//6
f  32//2 23//2 31//2
f  33//3 17//3 36//3
f  33//6 21//6 23//6
f  27//6 18//6 26//6
f  37//4 17//4 34//4
f  35//6 36//6 29//6
f  35//4 21//4 36//4
f  37//2 17//2 29//2
f  30//2 31//2 23//2
f  37//3 36//3 17//3
f  33//4 36//4 21//4
f  37//6 29//6 36//6

