# File produced by Open Asset Import Library (http://www.assimp.sf.net)
# (assimp v3.2.202087883)

mtllib model_normalized.mtl

# 72 vertex positions
v 0.466307 -0.046241 -0.063065
v -0.461358 -0.056496 -0.075903
v -0.460640 -0.046241 -0.096071
v 0.465589 -0.056496 -0.042897
v -0.466443 -0.038635 0.066921
v 0.467017 -0.035556 -0.083010
v 0.460504 -0.038635 0.099927
v -0.462084 -0.066318 -0.055521
v -0.466427 -0.059438 0.066427
v -0.459931 -0.035556 -0.116016
v 0.460522 -0.059438 0.099433
v 0.464863 -0.066318 -0.022515
v -0.466443 -0.017828 0.066921
v 0.467718 -0.024448 -0.102721
v 0.460504 -0.017828 0.099927
v -0.462818 -0.075702 -0.034934
v -0.459229 -0.024448 -0.135727
v 0.464129 -0.075702 -0.001928
v -0.466391 -0.080221 0.065441
v -0.458535 -0.012922 -0.155198
v 0.468412 -0.012922 -0.122192
v 0.460556 -0.080221 0.098447
v -0.463558 -0.084645 -0.014151
v -0.466427 0.002973 0.066427
v 0.460522 0.002973 0.099433
v 0.463389 -0.084645 0.018855
v -0.464304 -0.093142 0.006818
v -0.458102 -0.005362 -0.167364
v 0.468845 -0.005362 -0.134358
v 0.462643 -0.093142 0.039823
v -0.466339 -0.100975 0.063961
v -0.458515 0.003032 -0.155751
v 0.468432 0.003032 -0.122745
v -0.466391 0.023756 0.065441
v 0.460609 -0.100975 0.096967
v -0.465056 -0.101187 0.027963
v 0.460556 0.023756 0.098447
v -0.459178 0.015894 -0.137138
v 0.461891 -0.101187 0.060969
v -0.465816 -0.108781 0.049276
v -0.466298 -0.113271 0.062792
v 0.467769 0.015894 -0.104132
v -0.459850 0.028362 -0.118257
v -0.466339 0.044511 0.063961
v 0.461131 -0.108781 0.082282
v 0.460651 -0.113271 0.095798
v 0.467097 0.028362 -0.085251
v 0.460609 0.044511 0.096967
v -0.460531 0.040428 -0.099117
v 0.466416 0.040428 -0.066111
v -0.461223 0.052086 -0.079726
v -0.466268 0.065225 0.061991
v 0.465724 0.052086 -0.046720
v 0.460679 0.065225 0.094997
v -0.461921 0.063332 -0.060094
v 0.465026 0.063332 -0.027087
v -0.462628 0.074158 -0.040228
v -0.466181 0.085885 0.059529
v 0.464319 0.074158 -0.007222
v 0.460766 0.085885 0.092535
v -0.463344 0.084562 -0.020138
v 0.463603 0.084562 0.012868
v -0.464068 0.094541 0.000167
v -0.466076 0.106482 0.056579
v 0.462881 0.094541 0.033173
v 0.460871 0.106482 0.089585
v -0.464798 0.104087 0.020679
v 0.462149 0.104087 0.053686
v -0.465536 0.113197 0.041388
v -0.466004 0.118655 0.054541
v 0.461413 0.113197 0.074394
v 0.460943 0.118655 0.087547

# 0 UV coordinates

# 80 vertex normals
vn 1.6459e-05 -0.0008866 -0.000462244
vn 1.5782e-05 -0.000896276 -0.000443217
vn -0.000999367 0 -3.5585e-05
vn 1.7129e-05 -0.00087652 -0.000481061
vn 0.000999367 0 3.5585e-05
vn 1.5097e-05 -0.000905542 -0.000423987
vn 1.7791e-05 -0.00086604 -0.000499658
vn 1.4405e-05 -0.000914396 -0.000404564
vn 1.8446e-05 -0.000855165 -0.000518027
vn 1.3707e-05 -0.000922833 -0.000384957
vn 1.8769e-05 -0.000849581 -0.000527123
vn 1.3003e-05 -0.000930849 -0.000365173
vn 2.0531e-05 0.00081677 -0.000576599
vn 2.0837e-05 0.000810627 -0.000585193
vn 1.2292e-05 -0.00093844 -0.000345224
vn 1.9912e-05 0.000828781 -0.000559218
vn 1.1217e-05 -0.000949023 -0.000315007
vn 1.1577e-05 -0.000945603 -0.000325117
vn 1.9284e-05 0.000840423 -0.000541588
vn 1.8648e-05 0.000851689 -0.000523716
vn 1.8003e-05 0.000862574 -0.00050561
vn 1.7351e-05 0.000873074 -0.000487279
vn 1.669e-05 0.000883184 -0.000468729
vn 1.6022e-05 0.0008929 -0.00044997
vn 1.5347e-05 0.000902217 -0.00043101
vn 1.4665e-05 0.00091113 -0.000411858
vn 1.3977e-05 0.000919637 -0.000392521
vn 1.363e-05 0.000923736 -0.000382787
vn -1.6459e-05 0.0008866 0.000462244
vn -1.5782e-05 0.000896276 0.000443217
vn -1.7129e-05 0.00087652 0.000481061
vn -1.5097e-05 0.000905542 0.000423987
vn 3.5582e-05 1.1864e-05 -0.000999296
vn 3.5562e-05 3.5585e-05 -0.000998734
vn -1.7791e-05 0.00086604 0.000499658
vn -1.4405e-05 0.000914396 0.000404564
vn 3.5582e-05 -1.1864e-05 -0.000999296
vn 3.5522e-05 5.9286e-05 -0.000997609
vn -1.8446e-05 0.000855165 0.000518027
vn 3.5562e-05 -3.5585e-05 -0.000998734
vn -1.3707e-05 0.000922833 0.000384957
vn 3.5462e-05 8.2953e-05 -0.000995922
vn -1.8769e-05 0.000849581 0.000527123
vn 3.5522e-05 -5.9286e-05 -0.000997609
vn -1.3003e-05 0.000930849 0.000365173
vn 3.5425e-05 9.477e-05 -0.000994869
vn -2.0837e-05 -0.000810627 0.000585193
vn -2.0531e-05 -0.00081677 0.000576599
vn 3.5462e-05 -8.2953e-05 -0.000995922
vn -1.2292e-05 0.00093844 0.000345224
vn -1.9912e-05 -0.000828781 0.000559218
vn -1.1217e-05 0.000949023 0.000315007
vn -1.1577e-05 0.000945603 0.000325117
vn 3.5382e-05 -0.000106574 -0.000993675
vn -1.9284e-05 -0.000840423 0.000541588
vn -1.8648e-05 -0.000851689 0.000523716
vn 3.5282e-05 -0.000130135 -0.000990868
vn -1.8003e-05 -0.000862574 0.00050561
vn -1.7351e-05 -0.000873074 0.000487279
vn 3.5162e-05 -0.000153622 -0.000987504
vn -1.669e-05 -0.000883184 0.000468729
vn -1.6022e-05 -0.0008929 0.00044997
vn 3.5095e-05 -0.000165334 -0.000985613
vn -1.5347e-05 -0.000902217 0.00043101
vn -1.4665e-05 -0.00091113 0.000411858
vn -1.363e-05 -0.000923736 0.000382787
vn -1.3977e-05 -0.000919637 0.000392521
vn -3.5562e-05 -3.5585e-05 0.000998734
vn -3.5582e-05 -1.1864e-05 0.000999296
vn -3.5582e-05 1.1864e-05 0.000999296
vn -3.5522e-05 -5.9286e-05 0.000997609
vn -3.5562e-05 3.5585e-05 0.000998734
vn -3.5462e-05 -8.2953e-05 0.000995922
vn -3.5522e-05 5.9286e-05 0.000997609
vn -3.5425e-05 -9.477e-05 0.000994869
vn -3.5462e-05 8.2953e-05 0.000995922
vn -3.5382e-05 0.000106574 0.000993675
vn -3.5282e-05 0.000130135 0.000990868
vn -3.5162e-05 0.000153622 0.000987504
vn -3.5095e-05 0.000165334 0.000985613

# Mesh 'mesh1_mesh1-geometry' with 116 faces
g mesh1_mesh1-geometry
usemtl material_0_24
f  1//1 2//2 3//1
f  2//2 1//1 4//2
f  2//3 5//3 3//3
f  3//1 6//4 1//1
f  7//5 4//5 1//5
f  4//2 8//6 2//2
f  2//3 9//3 5//3
f  3//3 5//3 10//3
f  6//4 3//1 10//4
f  7//5 1//5 6//5
f  11//5 4//5 7//5
f  8//6 4//2 12//6
f  8//3 9//3 2//3
f  10//3 5//3 13//3
f  10//4 14//7 6//4
f  7//5 6//5 15//5
f  11//5 12//5 4//5
f  12//6 16//8 8//6
f  16//3 9//3 8//3
f  10//3 13//3 17//3
f  14//7 10//4 17//7
f  15//5 6//5 14//5
f  11//5 18//5 12//5
f  16//8 12//6 18//8
f  16//3 19//3 9//3
f  17//3 13//3 20//3
f  17//7 21//9 14//7
f  15//5 14//5 21//5
f  22//5 18//5 11//5
f  18//8 23//10 16//8
f  23//3 19//3 16//3
f  20//3 13//3 24//3
f  21//9 17//7 20//9
f  15//5 21//5 25//5
f  22//5 26//5 18//5
f  23//10 18//8 26//10
f  27//3 19//3 23//3
f  20//3 24//3 28//3
f  20//9 29//11 21//9
f  25//5 21//5 29//5
f  22//5 30//5 26//5
f  27//3 31//3 19//3
f  26//10 27//12 23//10
f  28//3 24//3 32//3
f  29//11 20//9 28//11
f  25//5 29//5 33//5
f  32//3 24//3 34//3
f  35//5 30//5 22//5
f  27//12 26//10 30//12
f  36//3 31//3 27//3
f  32//13 29//14 28//14
f  29//14 32//13 33//13
f  25//5 33//5 37//5
f  32//3 34//3 38//3
f  35//5 39//5 30//5
f  30//12 36//15 27//12
f  31//3 40//3 41//3
f  40//3 31//3 36//3
f  38//16 33//13 32//13
f  37//5 33//5 42//5
f  43//3 34//3 44//3
f  38//3 34//3 43//3
f  35//5 45//5 39//5
f  36//15 30//12 39//15
f  41//17 45//18 46//17
f  45//5 35//5 46//5
f  45//18 41//17 40//18
f  39//15 40//18 36//15
f  33//13 38//16 42//16
f  37//5 42//5 47//5
f  37//5 47//5 48//5
f  43//3 44//3 49//3
f  43//19 42//16 38//16
f  40//18 39//15 45//18
f  42//16 43//19 47//19
f  48//5 47//5 50//5
f  51//3 44//3 52//3
f  49//3 44//3 51//3
f  49//20 47//19 43//19
f  47//19 49//20 50//20
f  48//5 50//5 53//5
f  48//5 53//5 54//5
f  51//3 52//3 55//3
f  51//21 50//20 49//20
f  50//20 51//21 53//21
f  54//5 53//5 56//5
f  57//3 52//3 58//3
f  55//3 52//3 57//3
f  55//22 53//21 51//21
f  53//21 55//22 56//22
f  54//5 56//5 59//5
f  54//5 59//5 60//5
f  57//3 58//3 61//3
f  57//23 56//22 55//22
f  56//22 57//23 59//23
f  60//5 59//5 62//5
f  63//3 58//3 64//3
f  61//3 58//3 63//3
f  61//24 59//23 57//23
f  59//23 61//24 62//24
f  60//5 62//5 65//5
f  60//5 65//5 66//5
f  63//3 64//3 67//3
f  63//25 62//24 61//24
f  62//24 63//25 65//25
f  66//5 65//5 68//5
f  69//3 64//3 70//3
f  67//3 64//3 69//3
f  67//26 65//25 63//25
f  65//25 67//26 68//26
f  66//5 68//5 71//5
f  66//5 71//5 72//5
f  71//27 70//28 72//28
f  70//28 71//27 69//27
f  69//27 68//26 67//26
f  68//26 69//27 71//27

# Mesh 'mesh1_mesh1-geometry' with 140 faces
g mesh1_mesh1-geometry
usemtl material_1_24
f  3//29 2//30 1//29
f  4//30 1//29 2//30
f  3//5 5//5 2//5
f  1//29 6//31 3//29
f  1//3 4//3 7//3
f  2//30 8//32 4//30
f  5//5 9//5 2//5
f  10//5 5//5 3//5
f  10//31 3//29 6//31
f  6//3 1//3 7//3
f  7//3 4//3 11//3
f  12//32 4//30 8//32
f  2//5 9//5 8//5
f  5//33 7//33 9//34
f  13//5 5//5 10//5
f  6//31 14//35 10//31
f  15//3 6//3 7//3
f  4//3 12//3 11//3
f  11//34 9//34 7//33
f  8//32 16//36 12//32
f  8//5 9//5 16//5
f  5//33 13//37 7//33
f  17//5 13//5 10//5
f  17//35 10//31 14//35
f  14//3 6//3 15//3
f  15//37 7//33 13//37
f  12//3 18//3 11//3
f  9//34 11//34 19//38
f  18//36 12//32 16//36
f  9//5 19//5 16//5
f  20//5 13//5 17//5
f  14//35 21//39 17//35
f  21//3 14//3 15//3
f  13//37 24//40 15//37
f  11//3 18//3 22//3
f  22//38 19//38 11//34
f  16//36 23//41 18//36
f  16//5 19//5 23//5
f  24//5 13//5 20//5
f  20//39 17//35 21//39
f  25//3 21//3 15//3
f  25//40 15//37 24//40
f  18//3 26//3 22//3
f  19//38 22//38 31//42
f  26//41 18//36 23//41
f  23//5 19//5 27//5
f  28//5 24//5 20//5
f  21//39 29//43 20//39
f  29//3 21//3 25//3
f  24//40 34//44 25//40
f  26//3 30//3 22//3
f  35//42 31//42 22//38
f  19//5 31//5 27//5
f  23//41 27//45 26//41
f  32//5 24//5 28//5
f  28//43 20//39 29//43
f  33//3 29//3 25//3
f  37//44 25//40 34//44
f  34//5 24//5 32//5
f  22//3 30//3 35//3
f  30//45 26//41 27//45
f  31//42 35//42 41//46
f  27//5 31//5 36//5
f  28//47 29//47 32//48
f  33//48 32//48 29//47
f  37//3 33//3 25//3
f  34//44 44//49 37//44
f  38//5 34//5 32//5
f  30//3 39//3 35//3
f  27//45 36//50 30//45
f  46//46 41//46 35//42
f  41//5 40//5 31//5
f  36//5 31//5 40//5
f  32//48 33//48 38//51
f  42//3 33//3 37//3
f  48//49 37//44 44//49
f  44//5 34//5 43//5
f  43//5 34//5 38//5
f  39//3 45//3 35//3
f  39//50 30//45 36//50
f  46//52 45//53 41//52
f  46//3 35//3 45//3
f  40//53 41//52 45//53
f  36//50 40//53 39//50
f  42//51 38//51 33//48
f  47//3 42//3 37//3
f  48//3 47//3 37//3
f  44//49 52//54 48//49
f  49//5 44//5 43//5
f  38//51 42//51 43//55
f  45//53 39//50 40//53
f  47//55 43//55 42//51
f  50//3 47//3 48//3
f  54//54 48//49 52//54
f  52//5 44//5 51//5
f  51//5 44//5 49//5
f  43//55 47//55 49//56
f  50//56 49//56 47//55
f  53//3 50//3 48//3
f  54//3 53//3 48//3
f  52//54 58//57 54//54
f  55//5 52//5 51//5
f  49//56 50//56 51//58
f  53//58 51//58 50//56
f  56//3 53//3 54//3
f  60//57 54//54 58//57
f  58//5 52//5 57//5
f  57//5 52//5 55//5
f  51//58 53//58 55//59
f  56//59 55//59 53//58
f  59//3 56//3 54//3
f  60//3 59//3 54//3
f  58//57 64//60 60//57
f  61//5 58//5 57//5
f  55//59 56//59 57//61
f  59//61 57//61 56//59
f  62//3 59//3 60//3
f  66//60 60//57 64//60
f  64//5 58//5 63//5
f  63//5 58//5 61//5
f  57//61 59//61 61//62
f  62//62 61//62 59//61
f  65//3 62//3 60//3
f  66//3 65//3 60//3
f  64//60 70//63 66//60
f  67//5 64//5 63//5
f  61//62 62//62 63//64
f  65//64 63//64 62//62
f  68//3 65//3 66//3
f  72//63 66//60 70//63
f  70//5 64//5 69//5
f  69//5 64//5 67//5
f  63//64 65//64 67//65
f  68//65 67//65 65//64
f  71//3 68//3 66//3
f  72//3 71//3 66//3
f  72//66 70//66 71//67
f  69//67 71//67 70//66
f  67//65 68//65 69//67
f  71//67 69//67 68//65

# Mesh 'mesh1_mesh1-geometry' with 24 faces
g mesh1_mesh1-geometry
usemtl material_2_24
f  9//68 7//69 5//69
f  7//69 9//68 11//68
f  7//69 13//70 5//69
f  13//70 7//69 15//70
f  19//71 11//68 9//68
f  15//70 24//72 13//70
f  11//68 19//71 22//71
f  24//72 15//70 25//72
f  31//73 22//71 19//71
f  25//72 34//74 24//72
f  22//71 31//73 35//73
f  34//74 25//72 37//74
f  41//75 35//73 31//73
f  37//74 44//76 34//74
f  35//73 41//75 46//75
f  44//76 37//74 48//76
f  48//76 52//77 44//76
f  52//77 48//76 54//77
f  54//77 58//78 52//77
f  58//78 54//77 60//78
f  60//78 64//79 58//78
f  64//79 60//78 66//79
f  66//79 70//80 64//79
f  70//80 66//79 72//80

