# File produced by Open Asset Import Library (http://www.assimp.sf.net)
# (assimp v3.2.202087883)

mtllib model_normalized.mtl

# 41 vertex positions
v 0.400976 0.111460 0.220467
v -0.461263 0.111460 -0.210653
v -0.461263 0.111460 0.220467
v 0.400976 0.111460 -0.210653
v -0.461263 0.097090 0.220467
v 0.400976 0.097090 -0.210653
v -0.461263 0.097090 -0.210653
v 0.400976 0.097090 0.220467
v 0.400976 -0.140026 0.206096
v 0.400976 0.097090 0.206096
v 0.400976 -0.154397 0.220467
v 0.386606 0.082719 0.206096
v 0.400976 -0.140026 -0.196282
v 0.386606 0.082719 0.220467
v 0.386606 -0.140026 0.206096
v -0.446892 0.082719 0.206096
v 0.400976 -0.154397 -0.210653
v 0.386606 -0.140026 -0.196282
v -0.446892 0.082719 0.220467
v 0.386606 -0.154397 0.220467
v -0.461263 0.097090 0.206096
v 0.400976 0.097090 -0.196282
v 0.386606 0.082719 -0.196282
v 0.386606 0.097090 0.220467
v 0.386606 0.097090 0.206096
v -0.461263 -0.140026 0.206096
v -0.446892 -0.140026 0.206096
v 0.386606 -0.154397 -0.210653
v 0.386606 0.082719 -0.210653
v -0.461263 -0.154397 0.220467
v -0.446892 -0.154397 0.220467
v 0.386606 0.097090 -0.210653
v -0.461263 0.082719 -0.196282
v -0.446892 0.082719 -0.196282
v -0.461263 -0.140026 -0.196282
v -0.446892 -0.140026 -0.196282
v 0.386606 0.097090 -0.196282
v -0.446892 0.082719 -0.210653
v -0.461263 -0.154397 -0.210653
v -0.446892 -0.154397 -0.210653
v -0.461263 0.097090 -0.196282

# 62 UV coordinates
vt -2.95645 1.9685 0
vt 0 0 0
vt 0 1.9685 0
vt -2.95645 0 0
vt -1.47823 0.065617 0
vt -1.47823 0 0
vt 0 0.065617 0
vt 1.47823 0 0
vt 2.95645 0.065617 0
vt 2.95645 0 0
vt -2.95645 0.065617 0
vt 1.47823 0.065617 0
vt 2.95645 1.9685 0
vt 5.90551 0 0
vt 5.70866 3.24803 0
vt 5.70866 0 0
vt 5.90551 3.44488 0
vt 11.811 3.24803 0
vt 11.6142 0.19685 0
vt 11.811 0 0
vt 0.19685 3.24803 0
vt -11.811 0 0
vt -11.6142 0.19685 0
vt -11.811 3.44488 0
vt 11.6142 3.24803 0
vt 0.19685 0.19685 0
vt 0 3.44488 0
vt -11.811 5.70866 0
vt -11.811 0.19685 0
vt -0.19685 0.19685 0
vt -11.6142 3.44488 0
vt -11.6142 5.70866 0
vt -5.70866 3.24803 0
vt -5.90551 3.44488 0
vt -5.70866 0.19685 0
vt 11.6142 5.70866 0
vt 0.19685 5.90551 0
vt 0.19685 5.70866 0
vt 0.19685 0 0
vt 11.6142 5.90551 0
vt 11.811 5.90551 0
vt -11.811 3.24803 0
vt -11.6142 3.24803 0
vt -11.6142 0 0
vt -5.90551 0.19685 0
vt -0.19685 3.24803 0
vt 11.6142 0 0
vt 0 3.24803 0
vt 5.90551 0.19685 0
vt 5.70866 0.19685 0
vt 0 0.19685 0
vt -0 5.70866 0
vt -11.6142 5.90551 0
vt -5.70866 -0 0
vt 11.811 3.44488 0
vt 11.6142 3.44488 0
vt 0 5.90551 0
vt -0.19685 5.70866 0
vt -5.90551 0 0
vt -0.19685 3.44488 0
vt -0.19685 -0 0
vt 0.19685 3.44488 0

# 6 vertex normals
vn 0 1 0
vn -0 -1 0
vn -1 0 0
vn 1 0 0
vn 0 0 1
vn 0 0 -1

# Mesh 'mesh1_mesh1-geometry' with 24 faces
g mesh1_mesh1-geometry
usemtl material_0_2_8
f  1/1/1 2/2/1 3/3/1
f  2/2/1 1/1/1 4/4/1
f  3/3/2 2/2/2 1/1/2
f  4/4/2 1/1/2 2/2/2
f  2/2/3 5/5/3 3/6/3
f  3/6/4 5/5/4 2/2/4
f  5/7/5 1/4/5 3/2/5
f  3/2/6 1/4/6 5/7/6
f  1/8/4 6/7/4 4/2/4
f  4/2/3 6/7/3 1/8/3
f  6/9/6 2/2/6 4/10/6
f  4/10/5 2/2/5 6/9/5
f  5/5/3 2/2/3 7/7/3
f  7/7/4 2/2/4 5/5/4
f  1/4/5 5/7/5 8/11/5
f  8/11/6 5/7/6 1/4/6
f  6/7/4 1/8/4 8/12/4
f  8/12/3 1/8/3 6/7/3
f  2/2/6 6/9/6 7/7/6
f  7/7/5 6/9/5 2/2/5
f  6/10/2 5/3/2 7/2/2
f  7/2/1 5/3/1 6/10/1
f  5/3/2 6/10/2 8/13/2
f  8/13/1 6/10/1 5/3/1

# Mesh 'mesh2_mesh2-geometry' with 12 faces
g mesh2_mesh2-geometry
usemtl material_1_0
l  3 5
l  3 2
l  1 3
l  5 7
l  8 5
l  2 7
l  2 4
l  4 1
l  1 8
l  7 6
l  6 8
l  4 6

# Mesh 'mesh3_mesh3-geometry' with 140 faces
g mesh3_mesh3-geometry
usemtl material_2_1_8
f  8/14/4 9/15/4 10/16/4
f  11/17/4 9/15/4 8/14/4
f  10/16/3 9/15/3 8/14/3
f  8/14/3 9/15/3 11/17/3
f  9/18/6 12/19/6 10/20/6
f  10/20/5 12/19/5 9/18/5
f  11/17/4 13/21/4 9/15/4
f  9/15/3 13/21/3 11/17/3
f  8/22/5 14/23/5 11/24/5
f  11/24/6 14/23/6 8/22/6
f  12/19/6 9/18/6 15/25/6
f  15/25/5 9/18/5 12/19/5
f  16/26/6 10/20/6 12/19/6
f  12/19/5 10/20/5 16/26/5
f  17/27/4 13/21/4 11/17/4
f  11/17/3 13/21/3 17/27/3
f  18/23/1 9/28/1 13/29/1
f  13/29/2 9/28/2 18/23/2
f  14/23/5 8/22/5 19/30/5
f  19/30/6 8/22/6 14/23/6
f  11/24/5 14/23/5 20/31/5
f  20/31/6 14/23/6 11/24/6
f  9/28/1 18/23/1 15/32/1
f  15/32/2 18/23/2 9/28/2
f  15/33/3 20/34/3 12/35/3
f  12/35/4 20/34/4 15/33/4
f  21/2/6 10/20/6 16/26/6
f  16/26/5 10/20/5 21/2/5
f  12/36/2 19/37/2 16/38/2
f  16/38/1 19/37/1 12/36/1
f  17/27/4 22/39/4 13/21/4
f  13/21/3 22/39/3 17/27/3
f  20/40/2 17/20/2 11/41/2
f  11/41/1 17/20/1 20/40/1
f  13/42/5 23/23/5 18/43/5
f  18/43/6 23/23/6 13/42/6
f  24/44/5 19/30/5 8/22/5
f  8/22/6 19/30/6 24/44/6
f  19/37/2 12/36/2 14/40/2
f  14/40/1 12/36/1 19/37/1
f  12/35/3 20/34/3 14/45/3
f  14/45/4 20/34/4 12/35/4
f  18/46/3 20/34/3 15/33/3
f  15/33/4 20/34/4 18/46/4
f  10/20/6 21/2/6 25/47/6
f  25/47/5 21/2/5 10/20/5
f  21/2/6 16/26/6 26/48/6
f  26/48/5 16/26/5 21/2/5
f  19/49/4 27/15/4 16/50/4
f  16/50/3 27/15/3 19/49/3
f  22/39/4 17/27/4 6/2/4
f  6/2/3 17/27/3 22/39/3
f  22/22/5 23/23/5 13/42/5
f  13/42/6 23/23/6 22/22/6
f  17/20/2 20/40/2 28/47/2
f  28/47/1 20/40/1 17/20/1
f  23/30/3 29/51/3 18/46/3
f  18/46/4 29/51/4 23/30/4
f  5/2/5 19/30/5 24/44/5
f  24/44/6 19/30/6 5/2/6
f  18/46/3 28/27/3 20/34/3
f  20/34/4 28/27/4 18/46/4
f  21/52/1 24/53/1 25/32/1
f  25/32/2 24/53/2 21/52/2
f  26/48/6 16/26/6 27/21/6
f  27/21/5 16/26/5 26/48/5
f  26/33/3 30/34/3 21/54/3
f  21/54/4 30/34/4 26/33/4
f  31/17/4 27/15/4 19/49/4
f  19/49/3 27/15/3 31/17/3
f  17/55/6 32/47/6 6/20/6
f  6/20/5 32/47/5 17/55/5
f  22/22/5 33/51/5 23/23/5
f  23/23/6 33/51/6 22/22/6
f  29/19/6 17/55/6 28/56/6
f  28/56/5 17/55/5 29/19/5
f  34/26/2 29/47/2 23/19/2
f  23/19/1 29/47/1 34/26/1
f  28/27/3 18/46/3 29/51/3
f  29/51/4 18/46/4 28/27/4
f  19/30/5 5/2/5 30/27/5
f  30/27/6 5/2/6 19/30/6
f  24/53/1 21/52/1 5/57/1
f  5/57/2 21/52/2 24/53/2
f  27/58/1 35/51/1 26/52/1
f  26/52/2 35/51/2 27/58/2
f  35/46/3 30/34/3 26/33/3
f  26/33/4 30/34/4 35/46/4
f  21/54/3 30/34/3 5/59/3
f  5/59/4 30/34/4 21/54/4
f  31/17/4 36/21/4 27/15/4
f  27/15/3 36/21/3 31/17/3
f  19/30/5 30/27/5 31/60/5
f  31/60/6 30/27/6 19/30/6
f  32/47/6 17/55/6 29/19/6
f  29/19/5 17/55/5 32/47/5
f  37/44/5 33/51/5 22/22/5
f  22/22/6 33/51/6 37/44/6
f  23/23/5 33/51/5 34/30/5
f  34/30/6 33/51/6 23/23/6
f  29/47/2 34/26/2 38/39/2
f  38/39/1 34/26/1 29/47/1
f  35/51/1 27/58/1 36/30/1
f  36/30/2 27/58/2 35/51/2
f  35/46/3 39/27/3 30/34/3
f  30/34/4 39/27/4 35/46/4
f  40/27/4 36/21/4 31/17/4
f  31/17/3 36/21/3 40/27/3
f  30/57/2 40/39/2 31/37/2
f  31/37/1 40/39/1 30/57/1
f  32/47/6 29/19/6 7/2/6
f  7/2/5 29/19/5 32/47/5
f  33/51/5 37/44/5 41/2/5
f  41/2/6 37/44/6 33/51/6
f  35/48/5 34/30/5 33/51/5
f  33/51/6 34/30/6 35/48/6
f  34/26/4 40/27/4 38/51/4
f  38/51/3 40/27/3 34/26/3
f  38/26/6 7/2/6 29/19/6
f  29/19/5 7/2/5 38/26/5
f  34/30/5 35/48/5 36/46/5
f  36/46/6 35/48/6 34/30/6
f  39/27/3 35/46/3 7/2/3
f  7/2/4 35/46/4 39/27/4
f  40/39/2 30/57/2 39/2/2
f  39/2/1 30/57/1 40/39/1
f  40/27/4 34/26/4 36/21/4
f  36/21/3 34/26/3 40/27/3
f  41/51/1 32/44/1 7/2/1
f  7/2/2 32/44/2 41/51/2
f  32/44/1 41/51/1 37/23/1
f  37/23/2 41/51/2 32/44/2
f  41/61/3 35/46/3 33/30/3
f  33/30/4 35/46/4 41/61/4
f  39/27/6 38/26/6 40/62/6
f  40/62/5 38/26/5 39/27/5
f  7/2/6 38/26/6 39/27/6
f  39/27/5 38/26/5 7/2/5
f  35/46/3 41/61/3 7/2/3
f  7/2/4 41/61/4 35/46/4

# Mesh 'mesh4_mesh4-geometry' with 2 faces
g mesh4_mesh4-geometry
usemtl material_1_0
l  9 15
l  15 18

# Mesh 'mesh5_mesh5-geometry' with 1 faces
g mesh5_mesh5-geometry
usemtl material_1_0
l  41 37

# Mesh 'mesh6_mesh6-geometry' with 1 faces
g mesh6_mesh6-geometry
usemtl material_1_0
l  22 10

