# File produced by Open Asset Import Library (http://www.assimp.sf.net)
# (assimp v3.2.202087883)

mtllib model_normalized.mtl

# 40 vertex positions
v 0.424265 -0.184257 -0.211419
v 0.424265 0.112422 -0.182179
v 0.424265 -0.184257 -0.182179
v 0.424265 0.133742 -0.211419
v 0.424265 0.133742 -0.045288
v 0.394267 0.112422 -0.211419
v 0.424265 0.132278 -0.045288
v -0.423734 0.133742 -0.211419
v 0.394267 -0.184257 -0.211419
v 0.394267 0.112422 0.185972
v 0.394267 0.112422 -0.182179
v 0.424265 0.132278 0.034283
v -0.423734 0.132278 -0.045288
v -0.423734 0.133742 -0.045288
v -0.395063 0.112422 -0.211419
v 0.424265 0.112422 0.185972
v 0.394267 0.112422 0.212580
v -0.395063 -0.184257 -0.211419
v -0.395063 0.112422 -0.180130
v -0.395063 0.112422 0.212580
v 0.424265 0.133742 0.034283
v -0.423734 0.112422 -0.180130
v -0.423734 -0.184257 -0.211419
v -0.395063 0.112422 0.185019
v 0.424265 0.133742 0.212580
v 0.424265 -0.184257 0.185972
v -0.423734 0.133742 0.034283
v -0.423734 0.132278 0.034283
v -0.423734 -0.184257 -0.180130
v -0.423734 0.112422 0.185019
v 0.424265 -0.184257 0.212580
v -0.423734 0.133742 0.212580
v -0.423734 -0.184257 0.212580
v -0.423734 -0.184257 0.185019
v 0.394267 -0.184257 -0.182179
v 0.394267 -0.184257 0.212580
v 0.394267 -0.184257 0.185972
v -0.395063 -0.184257 -0.180130
v -0.395063 -0.184257 0.185019
v -0.395063 -0.184257 0.212580

# 83 UV coordinates
vt 0.742875 0 0
vt 0.691645 1.71194 0
vt 0.691645 0 0
vt 0.742875 1.83496 0
vt 0.451803 1.83496 0
vt -1.32067 0 0
vt -1.27394 1.71194 0
vt -1.32067 1.83496 0
vt 0.451803 1.82651 0
vt 0 1 0
vt 1 0.608182 0
vt 1 0.999999 0
vt -1.27394 0 0
vt 0 1.83496 0
vt -1.32067 2.02313 0
vt -1.27394 0.136364 0
vt -1.27394 2.02313 0
vt 0.312389 1.82651 0
vt 1 0.844444 0
vt 0 0.840556 0
vt 1 0.840555 0
vt 0 0.608182 0
vt -0.044652 1.71194 0
vt -1.32067 0.136364 0
vt -1.27394 2.17298 0
vt 0.046619 1.71194 0
vt 0 0.844444 0
vt -0.742875 1.83496 0
vt -0.451803 1.82651 0
vt -0.451803 1.83496 0
vt -0.044652 0 0
vt -0.044652 2.01262 0
vt -0.044652 2.17298 0
vt 0.312389 1.83496 0
vt -0.688055 1.71194 0
vt 0 0 0
vt -0.044652 0.141251 0
vt 0.046619 0 0
vt -1 0.840556 0
vt -1 0.844445 0
vt -0.312389 1.82651 0
vt -0.688055 0 0
vt -0.742875 0 0
vt 0 0.141251 0
vt 0 0.420513 0
vt 1 0 0
vt 1 0.420513 0
vt -0.048289 1.71194 0
vt -0.312389 1.83496 0
vt 0 2.01262 0
vt -0.048289 0 0
vt 1 1 0
vt -15.0208 0.992147 0
vt -13.985 0 0
vt -13.985 0.992147 0
vt -15.0208 0 0
vt -26.7037 0 0
vt -25.759 0.992147 0
vt -26.7037 0.992147 0
vt -0.942625 0.992147 0
vt 0 0.992147 0
vt 13.9124 0.992147 0
vt 15.0208 0 0
vt 15.0208 0.992147 0
vt -25.759 0 0
vt -0.942625 0 0
vt 13.9124 0 0
vt 0.013073 0.993237 0
vt 0.989479 0.001089 0
vt 0.989479 0.993237 0
vt 0.902853 0.992147 0
vt 0.902853 0 0
vt -0.902853 0 0
vt -0.902853 0.992147 0
vt 0.013073 0.001089 0
vt 0.000825 3.0022 0
vt 3.03829 1.99581 0
vt 3.03829 3.0022 0
vt 0.000825 1.99581 0
vt 0.964623 0 0
vt 0.964623 0.932956 0
vt 0.03381 0.932956 0
vt 0.03381 0 0

# 6 vertex normals
vn 0.01 0 0
vn 0 0 -0.01
vn 0 0.01 0
vn 0 -0.01 0
vn 0 0 0.01
vn -0.01 0 0

# Mesh 'mesh1_mesh1-geometry' with 44 faces
g mesh1_mesh1-geometry
usemtl material_0_1_8
f  1/1/1 2/2/1 3/3/1
f  4/4/1 2/2/1 1/1/1
f  5/5/1 2/2/1 4/4/1
f  1/6/2 6/7/2 4/8/2
f  7/9/1 2/2/1 5/5/1
f  8/10/3 5/11/3 4/12/3
f  6/7/2 1/6/2 9/13/2
f  4/8/2 6/7/2 8/14/2
f  2/15/4 10/16/4 11/17/4
f  12/18/1 2/2/1 7/9/1
f  5/19/5 13/20/5 7/21/5
f  5/11/3 8/10/3 14/22/3
f  15/23/2 8/14/2 6/7/2
f  10/16/4 2/15/4 16/24/4
f  17/13/4 11/17/4 10/16/4
f  17/13/4 6/25/4 11/17/4
f  2/2/1 12/18/1 16/26/1
f  13/20/5 5/19/5 14/27/5
f  8/28/6 13/29/6 14/30/6
f  18/31/2 8/14/2 15/23/2
f  6/25/4 19/32/4 15/33/4
f  20/31/4 6/25/4 17/13/4
f  21/34/1 16/26/1 12/18/1
f  13/29/6 8/28/6 22/35/6
f  8/14/2 18/31/2 23/36/2
f  19/32/4 6/25/4 24/37/4
f  25/14/1 26/38/1 16/26/1
f  24/37/4 6/25/4 20/31/4
f  25/14/1 16/26/1 21/34/1
f  12/39/2 27/27/2 21/40/2
f  22/35/6 28/41/6 13/29/6
f  27/27/2 12/39/2 28/20/2
f  22/35/6 8/28/6 29/42/6
f  29/42/6 8/28/6 23/43/6
f  30/44/4 19/32/4 24/37/4
f  26/38/1 25/14/1 31/36/1
f  27/45/3 25/46/3 21/47/3
f  30/48/6 28/41/6 22/35/6
f  30/48/6 27/49/6 28/41/6
f  19/32/4 30/44/4 22/50/4
f  25/46/3 27/45/3 32/36/3
f  30/48/6 32/14/6 27/49/6
f  32/14/6 30/48/6 33/36/6
f  34/51/6 33/36/6 30/48/6

# Mesh 'mesh1_mesh1-geometry' with 84 faces
g mesh1_mesh1-geometry
usemtl material_1_24
f  3/36/6 2/36/6 1/36/6
f  1/36/6 2/36/6 4/36/6
f  3/36/2 35/36/2 2/36/2
f  35/36/4 1/36/4 3/36/4
f  3/36/3 1/36/3 35/36/3
f  4/36/6 2/36/6 5/36/6
f  4/36/5 6/36/5 1/36/5
f  11/36/2 2/36/2 35/36/2
f  1/36/4 35/36/4 9/36/4
f  9/36/3 35/36/3 1/36/3
f  5/36/6 2/36/6 7/36/6
f  4/36/4 5/36/4 8/36/4
f  9/36/5 1/36/5 6/36/5
f  8/36/5 6/36/5 4/36/5
f  11/36/3 10/36/3 2/36/3
f  11/36/1 35/36/1 6/36/1
f  9/36/1 6/36/1 35/36/1
f  7/36/6 2/36/6 12/36/6
f  7/36/2 13/36/2 5/36/2
f  14/36/4 8/36/4 5/36/4
f  6/36/5 8/36/5 15/36/5
f  16/36/3 2/36/3 10/36/3
f  10/36/3 11/36/3 17/36/3
f  11/36/3 6/36/3 17/36/3
f  16/36/6 12/36/6 2/36/6
f  7/36/4 12/36/4 13/36/4
f  14/36/2 5/36/2 13/36/2
f  14/36/1 13/36/1 8/36/1
f  15/36/5 8/36/5 18/36/5
f  15/36/3 19/36/3 6/36/3
f  16/36/5 10/36/5 26/36/5
f  17/36/1 36/36/1 10/36/1
f  17/36/3 6/36/3 20/36/3
f  12/36/6 16/36/6 21/36/6
f  28/36/4 13/36/4 12/36/4
f  22/36/1 8/36/1 13/36/1
f  23/36/5 18/36/5 8/36/5
f  15/36/6 18/36/6 19/36/6
f  24/36/3 6/36/3 19/36/3
f  37/36/5 26/36/5 10/36/5
f  16/36/6 26/36/6 25/36/6
f  37/36/1 10/36/1 36/36/1
f  17/36/2 25/36/2 36/36/2
f  20/36/3 6/36/3 24/36/3
f  20/36/2 25/36/2 17/36/2
f  21/36/6 16/36/6 25/36/6
f  21/36/5 27/36/5 12/36/5
f  13/36/1 28/36/1 22/36/1
f  28/36/5 12/36/5 27/36/5
f  29/36/1 8/36/1 22/36/1
f  18/36/4 29/36/4 23/36/4
f  23/36/3 29/36/3 18/36/3
f  23/36/1 8/36/1 29/36/1
f  38/36/6 19/36/6 18/36/6
f  24/36/3 19/36/3 30/36/3
f  26/36/4 36/36/4 37/36/4
f  37/36/3 36/36/3 26/36/3
f  31/36/6 25/36/6 26/36/6
f  31/36/2 36/36/2 25/36/2
f  24/36/6 39/36/6 20/36/6
f  25/36/2 20/36/2 32/36/2
f  21/36/4 25/36/4 27/36/4
f  22/36/1 28/36/1 30/36/1
f  28/36/1 27/36/1 30/36/1
f  22/36/2 19/36/2 29/36/2
f  29/36/4 18/36/4 38/36/4
f  38/36/3 18/36/3 29/36/3
f  38/36/2 29/36/2 19/36/2
f  22/36/3 30/36/3 19/36/3
f  24/36/5 30/36/5 39/36/5
f  36/36/4 26/36/4 31/36/4
f  31/36/3 26/36/3 36/36/3
f  40/36/6 20/36/6 39/36/6
f  32/36/2 20/36/2 33/36/2
f  32/36/4 27/36/4 25/36/4
f  27/36/1 32/36/1 30/36/1
f  34/36/5 39/36/5 30/36/5
f  40/36/2 33/36/2 20/36/2
f  33/36/4 39/36/4 40/36/4
f  40/36/3 39/36/3 33/36/3
f  33/36/1 30/36/1 32/36/1
f  39/36/4 33/36/4 34/36/4
f  34/36/3 33/36/3 39/36/3
f  30/36/1 33/36/1 34/36/1

# Mesh 'mesh1_mesh1-geometry' with 2 faces
g mesh1_mesh1-geometry
usemtl material_2_2_8
f  2/52/5 35/36/5 3/46/5
f  35/36/5 2/52/5 11/10/5

# Mesh 'mesh1_mesh1-geometry' with 14 faces
g mesh1_mesh1-geometry
usemtl material_3_3_8
f  6/53/6 35/54/6 11/55/6
f  35/54/6 6/53/6 9/56/6
f  26/57/2 10/58/2 16/59/2
f  10/60/6 36/36/6 17/61/6
f  19/62/1 18/63/1 15/64/1
f  10/58/2 26/57/2 37/65/2
f  36/36/6 10/60/6 37/66/6
f  18/63/1 19/62/1 38/67/1
f  20/68/1 39/69/1 24/70/1
f  29/36/5 19/71/5 22/61/5
f  19/71/5 29/36/5 38/72/5
f  39/73/2 30/61/2 24/74/2
f  39/69/1 20/68/1 40/75/1
f  30/61/2 39/73/2 34/36/2

# Mesh 'mesh1_mesh1-geometry' with 2 faces
g mesh1_mesh1-geometry
usemtl material_4_4_8
f  13/76/3 12/77/3 7/78/3
f  12/77/3 13/76/3 28/79/3

# Mesh 'mesh1_mesh1-geometry' with 6 faces
g mesh1_mesh1-geometry
usemtl material_2_5_8
f  36/80/5 25/52/5 17/81/5
f  17/81/5 25/52/5 20/82/5
f  25/52/5 36/80/5 31/46/5
f  32/10/5 20/82/5 25/52/5
f  33/36/5 20/82/5 32/10/5
f  20/82/5 33/36/5 40/83/5

# Mesh 'mesh2_mesh2-geometry' with 3 faces
g mesh2_mesh2-geometry
usemtl material_1_0
l  33 40
l  40 39
l  39 34

