# File produced by Open Asset Import Library (http://www.assimp.sf.net)
# (assimp v3.2.202087883)

mtllib model_normalized.mtl

# 141 vertex positions
v 0.057690 0.026101 0.279505
v 0.057777 0.019988 0.279995
v 0.060764 0.023045 0.279216
v 0.054703 0.023045 0.280284
v -0.001546 -0.006156 -0.074164
v -0.004620 -0.003099 -0.073874
v -0.004534 -0.009213 -0.073385
v -0.007607 -0.006156 -0.073095
v -0.003463 0.337262 -0.068351
v 0.045161 0.083913 -0.005231
v -0.003463 -0.002754 -0.068351
v 0.008797 0.557785 0.001181
v 0.074854 0.083913 0.163163
v 0.057482 0.028111 0.277287
v 0.010889 0.558294 -0.000754
v 0.006045 0.558193 0.000410
v 0.005385 0.559109 -0.002295
v -0.008433 0.256780 -0.096538
v 0.010229 0.559210 -0.003459
v -0.011845 0.258104 -0.100013
v -0.011185 0.257188 -0.097308
v -0.006341 0.257288 -0.098473
v -0.007001 0.258204 -0.101178
v 0.007477 0.559617 -0.004229
v -0.009753 0.258611 -0.101948
v -0.003718 -0.036034 0.307977
v -0.003718 -0.039523 0.191929
v -0.003718 -0.044136 0.192068
v -0.003718 -0.030453 0.309277
v -0.003718 -0.034654 0.322025
v -0.003718 -0.069248 0.314579
v -0.003718 -0.027586 0.318989
v -0.003718 -0.096160 0.315388
v -0.003718 -0.026250 0.313772
v -0.003718 -0.142513 0.283182
v -0.003718 -0.122651 0.326772
v -0.003718 -0.156353 0.283598
v -0.003718 -0.108042 0.326333
v -0.003718 -0.166578 0.296105
v -0.003718 -0.171193 0.314775
v -0.003538 0.375568 -0.089320
v 0.033387 0.047750 -0.168579
v 0.033387 0.047750 -0.208851
v -0.003538 0.018372 -0.108471
v -0.003538 -0.028587 -0.313552
v -0.012696 -0.106746 -0.296343
v -0.003718 -0.086038 -0.312320
v -0.003718 -0.106746 -0.296343
v -0.006732 -0.086038 -0.312320
v -0.018875 -0.116532 -0.279787
v -0.062977 -0.051605 -0.161634
v -0.003718 -0.044134 -0.320395
v -0.003718 -0.116532 -0.279787
v -0.062977 -0.116261 -0.161634
v -0.062680 -0.116532 -0.162430
v -0.083722 -0.097295 -0.005363
v -0.003718 -0.031949 -0.320395
v -0.003718 -0.116532 0.152541
v -0.083722 -0.058600 -0.005363
v -0.062680 -0.116532 0.152541
v -0.078644 -0.101938 0.152196
v -0.080418 -0.059595 0.097159
v -0.071815 -0.108181 0.186512
v -0.078644 -0.053862 0.152196
v -0.003718 -0.081088 0.296717
v -0.049885 -0.081088 0.296717
v -0.047878 -0.037760 0.306806
v -0.003718 -0.037760 0.306806
v 0.005259 -0.106746 -0.296343
v -0.000705 -0.086038 -0.312320
v 0.011439 -0.116532 -0.279787
v 0.055540 -0.051605 -0.161634
v 0.055540 -0.116261 -0.161634
v 0.055243 -0.116532 -0.162430
v 0.076286 -0.097295 -0.005363
v 0.076286 -0.058600 -0.005363
v 0.071207 -0.101938 0.152196
v 0.055243 -0.116532 0.152541
v 0.072981 -0.059595 0.097159
v 0.071207 -0.053862 0.152196
v 0.064379 -0.108181 0.186512
v 0.042449 -0.081088 0.296717
v 0.040441 -0.037760 0.306806
v -0.073049 -0.067404 -0.016188
v -0.073049 -0.070481 -0.043112
v -0.073049 -0.070481 -0.016188
v -0.073049 -0.067404 -0.043112
v 0.064650 -0.070481 -0.016188
v 0.064650 -0.067404 -0.043112
v 0.064650 -0.070481 -0.043112
v 0.064650 -0.067404 -0.016188
v -0.070322 -0.067419 -0.061709
v -0.070322 -0.070466 -0.088364
v -0.070322 -0.070466 -0.061709
v -0.070322 -0.067419 -0.088364
v 0.060547 -0.070466 -0.061709
v 0.060547 -0.067419 -0.088364
v 0.060547 -0.070466 -0.088364
v 0.060547 -0.067419 -0.061709
v -0.051705 -0.067404 -0.155425
v -0.051705 -0.070481 -0.182349
v -0.051705 -0.070481 -0.155425
v -0.051705 -0.067404 -0.182349
v 0.043307 -0.070481 -0.155425
v 0.043307 -0.067404 -0.182349
v 0.043307 -0.070481 -0.182349
v 0.043307 -0.067404 -0.155425
v -0.073049 -0.067404 0.126127
v -0.073049 -0.070481 0.099203
v -0.073049 -0.070481 0.126127
v -0.073049 -0.067404 0.099203
v 0.064650 -0.070481 0.126127
v 0.064650 -0.067404 0.099203
v 0.064650 -0.070481 0.099203
v 0.064650 -0.067404 0.126127
v -0.009048 -0.113455 -0.074675
v 0.001611 -0.113455 -0.074675
v -0.003718 -0.113455 -0.071598
v -0.009048 -0.113455 -0.080829
v -0.003718 -0.098781 -0.071598
v -0.009048 -0.098781 -0.074675
v 0.001611 -0.113455 -0.080829
v 0.001611 -0.098781 -0.074675
v -0.009048 -0.098781 -0.080829
v -0.003718 -0.113455 -0.083906
v 0.001611 -0.098781 -0.080829
v -0.003718 0.440418 -0.071598
v -0.009048 0.440418 -0.074675
v 0.001611 0.440418 -0.080829
v 0.001611 0.440418 -0.074675
v -0.009048 0.440418 -0.080829
v -0.003718 -0.098781 -0.083906
v -0.003718 0.440418 -0.083906
v -0.003718 0.389277 -0.083906
v -0.003718 -0.179899 0.002753
v -0.003718 -0.185751 -0.023780
v -0.003718 -0.185751 -0.002240
v -0.003718 -0.180391 -0.030328
v -0.003718 -0.118071 -0.040086
v -0.003718 -0.118346 -0.006936
v -0.003718 -0.031949 -0.320395

# 0 UV coordinates

# 134 vertex normals
vn 0.00439613 0.00206019 0.0249317
vn 0.000357759 -0.0253163 0.00202888
vn 0.0250141 0 -0.00441066
vn -0.000357759 0.0253163 -0.00202888
vn -0.0250141 0 0.00441066
vn -0.00439613 -0.00206019 -0.0249317
vn 0.0218349 0.000966597 -0.0129407
vn 0.0237452 -0.00157795 -0.00887895
vn 0.022844 -0.00787197 -0.00783214
vn -0.022844 0.00787197 0.00783214
vn -0.0237452 0.00157795 0.00887895
vn -0.0218349 -0.000966597 0.0129407
vn 0.0250272 0.00326281 -0.00285539
vn -0.0250272 -0.00326281 0.00285539
vn 0.0250512 -0.00398856 -0.00129952
vn -0.0250512 0.00398856 0.00129952
vn 0.0250384 -0.00379679 0.00195476
vn -0.0250384 0.00379679 -0.00195476
vn 0.00138087 0.0241231 0.00783133
vn -0.0185899 -0.00437256 0.0167469
vn 0.00577576 -0.00793595 0.0234269
vn 0.0242966 -0.00350799 0.00652163
vn -0.0242966 0.00350799 -0.00652163
vn 0.0185899 0.00437256 -0.0167469
vn -0.00577576 0.00793595 -0.0234269
vn -0.00138087 -0.0241231 -0.00783133
vn -0.0254 0 0
vn 0.0254 -0 0
vn 0.0251772 0.00334955 0.000216814
vn 0.0240425 -0.00682343 0.00453454
vn 0.0249933 -0.000472465 -0.00450258
vn -0.0249933 0.000472465 0.00450258
vn -0.0240425 0.00682343 -0.00453454
vn -0.0251772 -0.00334955 -0.000216814
vn 0.0219234 -0.00913765 0.00900158
vn -0.0219234 0.00913765 -0.00900158
vn 0.023948 -0.00778949 -0.00331348
vn -0.023948 0.00778949 0.00331348
vn -0.00990902 -0.015566 -0.0174548
vn 0 -0.010444 -0.0231535
vn 0 -0.0190329 -0.0168199
vn -0.00969345 -0.00827804 -0.0219698
vn 0 0.0190329 0.0168199
vn 0 0.010444 0.0231535
vn 0.00990902 0.015566 0.0174548
vn 0.00969345 0.00827804 0.0219698
vn -0.0105604 -0.0209757 -0.00967776
vn 0.0105604 0.0209757 0.00967776
vn -0.0246439 0 -0.00615137
vn 0.0246439 -0 0.00615137
vn -0.0145177 -0.00293177 -0.020635
vn 0.0145177 0.00293177 0.020635
vn 0 -0.0245004 -0.00669989
vn 0 0.0245004 0.00669989
vn -0.0240589 -0.00682198 -0.00444863
vn 0.0240589 0.00682198 0.00444863
vn -0.0170852 -0.0184259 -0.00370723
vn 0.0170852 0.0184259 0.00370723
vn -0.0244632 -0.00677365 -0.000912089
vn 0.0244632 0.00677365 0.000912089
vn -0.0237964 0 -0.00888218
vn 0.0237964 0 0.00888218
vn 0 -0.0252157 0.00305412
vn 0 0.0252157 -0.00305412
vn -0.0253684 0 -0.00126642
vn 0.0253684 -0 0.00126642
vn -0.00611622 -0.0245575 0.00216405
vn 0.00611622 0.0245575 -0.00216405
vn -0.0243891 -0.00677995 0.00208874
vn 0.0243891 0.00677995 -0.00208874
vn -0.0253868 0 0.000818287
vn 0.0253868 0 -0.000818287
vn -0.0173852 -0.0179486 0.00455658
vn 0.0173852 0.0179486 -0.00455658
vn -0.0252342 0 0.00289748
vn 0.0252342 0 -0.00289748
vn 0 -0.01785 0.0180704
vn 0 0.01785 -0.0180704
vn -0.0119048 -0.0145401 0.0170886
vn 0.0119048 0.0145401 -0.0170886
vn -0.0161472 -0.003734 0.0192479
vn 0.0161472 0.003734 -0.0192479
vn -0 -0.00576072 0.0247381
vn 0 0.00576072 -0.0247381
vn 0.00990902 -0.015566 -0.0174548
vn -0.00990902 0.015566 0.0174548
vn 0.00969345 -0.00827804 -0.0219698
vn -0.00969345 0.00827804 0.0219698
vn 0.0105604 -0.0209757 -0.00967776
vn -0.0105604 0.0209757 0.00967776
vn 0.0246439 0 -0.00615137
vn -0.0246439 0 0.00615137
vn 0.0145177 -0.00293177 -0.020635
vn -0.0145177 0.00293177 0.020635
vn 0.0240589 -0.00682198 -0.00444863
vn -0.0240589 0.00682198 0.00444863
vn 0.0170852 -0.0184259 -0.00370723
vn -0.0170852 0.0184259 0.00370723
vn 0.0237964 0 -0.00888218
vn -0.0237964 0 0.00888218
vn 0.0244632 -0.00677365 -0.000912089
vn -0.0244632 0.00677365 0.000912089
vn 0.0253684 0 -0.00126642
vn -0.0253684 0 0.00126642
vn 0.0243891 -0.00677995 0.00208874
vn -0.0243891 0.00677995 -0.00208874
vn 0.00611622 -0.0245575 0.00216405
vn -0.00611622 0.0245575 -0.00216405
vn 0.0253868 0 0.000818287
vn -0.0253868 0 -0.000818287
vn 0.0252342 0 0.00289748
vn -0.0252342 0 -0.00289748
vn 0.0173852 -0.0179486 0.00455658
vn -0.0173852 0.0179486 -0.00455658
vn 0.0119048 -0.0145401 0.0170886
vn -0.0119048 0.0145401 -0.0170886
vn 0.0161472 -0.003734 0.0192479
vn -0.0161472 0.003734 -0.0192479
vn 0 -0.0254 0
vn 0 0.0254 0
vn 0 0 0.0254
vn 0 0 -0.0254
vn -0.0241402 0 0
vn 0.0241402 -0 0
vn 0 -0.025146 0
vn 0 0.025146 0
vn 0 0 0.025146
vn 0 0 -0.025146
vn -0.017526 0 0
vn 0.017526 -0 0
vn 0.021997 -0 0.0127
vn -0.021997 0 0.0127
vn -0.021997 0 -0.0127
vn 0.021997 0 -0.0127

# Mesh 'mesh1_mesh1-geometry' with 10 faces
g mesh1_mesh1-geometry
usemtl material_0_24
f  1//1 2//1 3//1
f  2//1 1//1 4//1
f  2//2 5//3 3//3
f  5//3 1//4 3//3
f  6//4 4//5 1//4
f  4//5 7//2 2//2
f  5//3 2//2 7//2
f  1//4 5//3 6//4
f  4//5 6//4 8//5
f  7//2 4//5 8//5

# Mesh 'mesh1_mesh1-geometry' with 14 faces
g mesh1_mesh1-geometry
usemtl material_1_24
f  3//6 2//6 1//6
f  4//6 1//6 2//6
f  3//5 5//5 2//4
f  3//5 1//2 5//5
f  1//2 4//3 6//2
f  2//4 7//4 4//3
f  7//4 2//4 5//5
f  6//2 5//5 1//2
f  8//3 6//2 4//3
f  8//3 4//3 7//4
f  7//6 6//6 5//6
f  5//1 6//1 7//1
f  6//6 7//6 8//6
f  8//1 7//1 6//1

# Mesh 'mesh2_mesh2-geometry' with 12 faces
g mesh2_mesh2-geometry
usemtl material_2_24
f  9//7 10//8 11//9
f  11//10 10//11 9//12
f  12//13 10//8 9//7
f  9//12 10//11 12//14
f  13//15 11//9 10//8
f  10//11 11//10 13//16
f  12//13 13//15 10//8
f  10//11 13//16 12//14
f  13//15 14//17 11//9
f  11//10 14//18 13//16
f  12//13 14//17 13//15
f  13//16 14//18 12//14

# Mesh 'mesh3_mesh3-geometry' with 20 faces
g mesh3_mesh3-geometry
usemtl material_0_24
f  15//19 16//19 12//19
f  16//19 15//19 17//19
f  16//20 18//21 12//21
f  18//21 15//22 12//21
f  17//19 15//19 19//19
f  20//23 16//20 17//23
f  18//21 16//20 21//20
f  15//22 18//21 22//22
f  15//22 23//24 19//24
f  17//19 19//19 24//19
f  16//20 20//23 21//20
f  17//23 25//25 20//23
f  21//26 22//26 18//26
f  23//24 15//22 22//22
f  25//25 19//24 23//24
f  19//24 25//25 24//25
f  25//25 17//23 24//25
f  22//26 21//26 20//26
f  23//26 20//26 25//26
f  22//26 20//26 23//26

# Mesh 'mesh3_mesh3-geometry' with 20 faces
g mesh3_mesh3-geometry
usemtl material_1_24
f  12//26 16//26 15//26
f  17//26 15//26 16//26
f  12//25 18//25 16//24
f  12//25 15//23 18//25
f  19//26 15//26 17//26
f  17//22 16//24 20//22
f  21//24 16//24 18//25
f  22//23 18//25 15//23
f  19//20 23//20 15//23
f  24//26 19//26 17//26
f  21//24 20//22 16//24
f  20//22 25//21 17//22
f  18//19 22//19 21//19
f  22//23 15//23 23//20
f  23//20 19//20 25//21
f  24//21 25//21 19//20
f  24//21 17//22 25//21
f  20//19 21//19 22//19
f  25//19 20//19 23//19
f  23//19 20//19 22//19

# Mesh 'mesh4_mesh4-geometry' with 1 faces
g mesh4_mesh4-geometry
usemtl material_3_0
l  8 7

# Mesh 'mesh5_mesh5-geometry' with 26 faces
g mesh5_mesh5-geometry
usemtl material_4_24
f  26//27 27//27 28//27
f  27//27 26//27 29//27
f  28//28 27//28 26//28
f  29//28 26//28 27//28
f  26//27 30//27 29//27
f  29//28 30//28 26//28
f  26//27 31//27 30//27
f  30//28 31//28 26//28
f  29//27 30//27 32//27
f  32//28 30//28 29//28
f  26//27 33//27 31//27
f  31//28 33//28 26//28
f  29//27 32//27 34//27
f  34//28 32//28 29//28
f  35//27 33//27 26//27
f  26//28 33//28 35//28
f  35//27 36//27 33//27
f  33//28 36//28 35//28
f  37//27 36//27 35//27
f  35//28 36//28 37//28
f  33//27 36//27 38//27
f  38//28 36//28 33//28
f  39//27 36//27 37//27
f  37//28 36//28 39//28
f  36//27 39//27 40//27
f  40//28 39//28 36//28

# Mesh 'mesh6_mesh6-geometry' with 1 faces
g mesh6_mesh6-geometry
usemtl material_3_0
l  29 26

# Mesh 'mesh7_mesh7-geometry' with 10 faces
g mesh7_mesh7-geometry
usemtl material_5_24
f  41//29 42//30 43//31
f  43//32 42//33 41//34
f  41//29 44//35 42//30
f  42//33 44//36 41//34
f  42//30 45//37 43//31
f  43//32 45//38 42//33
f  41//29 43//31 45//37
f  45//38 43//32 41//34
f  42//30 44//35 45//37
f  45//38 44//36 42//33

# Mesh 'mesh8_mesh8-geometry' with 62 faces
g mesh8_mesh8-geometry
usemtl material_4_24
f  46//39 47//40 48//41
f  47//40 46//39 49//42
f  48//43 47//44 46//45
f  49//46 46//45 47//44
f  48//41 50//47 46//39
f  46//45 50//48 48//43
f  46//39 51//49 49//42
f  49//46 51//50 46//45
f  49//42 52//51 47//40
f  47//44 52//52 49//46
f  50//47 48//41 53//53
f  53//54 48//43 50//48
f  50//47 54//55 46//39
f  46//45 54//56 50//48
f  46//39 54//55 51//49
f  51//50 54//56 46//45
f  49//42 51//49 52//51
f  52//52 51//50 49//46
f  53//53 55//57 50//47
f  50//48 55//58 53//54
f  54//55 50//47 55//57
f  55//58 50//48 54//56
f  56//59 51//49 54//55
f  54//56 51//50 56//60
f  52//51 51//49 57//61
f  57//62 51//50 52//52
f  58//63 55//57 53//53
f  53//54 55//58 58//64
f  55//57 56//59 54//55
f  54//56 56//60 55//58
f  51//49 56//59 59//65
f  59//66 56//60 51//50
f  55//57 58//63 60//67
f  60//68 58//64 55//58
f  55//57 61//69 56//59
f  56//60 61//70 55//58
f  59//65 56//59 62//71
f  62//72 56//60 59//66
f  58//63 63//73 60//67
f  60//68 63//74 58//64
f  60//67 61//69 55//57
f  55//58 61//70 60//68
f  64//75 56//59 61//69
f  61//70 56//60 64//76
f  56//59 64//75 62//71
f  62//72 64//76 56//60
f  65//77 63//73 58//63
f  58//64 63//74 65//78
f  61//69 60//67 63//73
f  63//74 60//68 61//70
f  61//69 66//79 64//75
f  64//76 66//80 61//70
f  63//73 65//77 66//79
f  66//80 65//78 63//74
f  66//79 61//69 63//73
f  63//74 61//70 66//80
f  64//75 66//79 67//81
f  67//82 66//80 64//76
f  65//77 67//81 66//79
f  66//80 67//82 65//78
f  67//81 65//77 68//83
f  68//84 65//78 67//82

# Mesh 'mesh9_mesh9-geometry' with 62 faces
g mesh9_mesh9-geometry
usemtl material_4_24
f  48//41 47//40 69//85
f  69//86 47//44 48//43
f  70//87 69//85 47//40
f  47//44 69//86 70//88
f  69//85 71//89 48//41
f  48//43 71//90 69//86
f  70//87 72//91 69//85
f  69//86 72//92 70//88
f  47//40 52//93 70//87
f  70//88 52//94 47//44
f  69//85 73//95 71//89
f  71//90 73//96 69//86
f  53//53 48//41 71//89
f  71//90 48//43 53//54
f  52//93 72//91 70//87
f  70//88 72//92 52//94
f  72//91 73//95 69//85
f  69//86 73//96 72//92
f  74//97 71//89 73//95
f  73//96 71//90 74//98
f  71//89 74//97 53//53
f  53//54 74//98 71//90
f  57//99 72//91 52//93
f  52//94 72//92 57//100
f  73//95 72//91 75//101
f  75//102 72//92 73//96
f  73//95 75//101 74//97
f  74//98 75//102 73//96
f  53//53 74//97 58//63
f  58//64 74//98 53//54
f  76//103 75//101 72//91
f  72//92 75//102 76//104
f  75//101 77//105 74//97
f  74//98 77//106 75//102
f  78//107 58//63 74//97
f  74//98 58//64 78//108
f  79//109 75//101 76//103
f  76//104 75//102 79//110
f  77//105 75//101 80//111
f  80//112 75//102 77//106
f  74//97 77//105 78//107
f  78//108 77//106 74//98
f  78//107 81//113 58//63
f  58//64 81//114 78//108
f  79//109 80//111 75//101
f  75//102 80//112 79//110
f  80//111 82//115 77//105
f  77//106 82//116 80//112
f  81//113 78//107 77//105
f  77//106 78//108 81//114
f  58//63 81//113 65//77
f  65//78 81//114 58//64
f  83//117 82//115 80//111
f  80//112 82//116 83//118
f  81//113 77//105 82//115
f  82//116 77//106 81//114
f  82//115 65//77 81//113
f  81//114 65//78 82//116
f  82//115 83//117 65//77
f  65//78 83//118 82//116
f  68//83 65//77 83//117
f  83//118 65//78 68//84

# Mesh 'mesh10_mesh10-geometry' with 24 faces
g mesh10_mesh10-geometry
usemtl material_4_24
f  84//27 85//27 86//27
f  85//27 84//27 87//27
f  86//28 85//28 84//28
f  87//28 84//28 85//28
f  85//119 88//119 86//119
f  86//120 88//120 85//120
f  88//121 84//121 86//121
f  86//122 84//122 88//122
f  84//120 89//120 87//120
f  87//119 89//119 84//119
f  89//122 85//122 87//122
f  87//121 85//121 89//121
f  88//119 85//119 90//119
f  90//120 85//120 88//120
f  84//121 88//121 91//121
f  91//122 88//122 84//122
f  89//120 84//120 91//120
f  91//119 84//119 89//119
f  85//122 89//122 90//122
f  90//121 89//121 85//121
f  89//28 88//28 90//28
f  90//27 88//27 89//27
f  88//28 89//28 91//28
f  91//27 89//27 88//27

# Mesh 'mesh11_mesh11-geometry' with 12 faces
g mesh11_mesh11-geometry
usemtl material_3_0
l  85 86
l  85 87
l  90 85
l  86 84
l  86 88
l  87 84
l  89 87
l  90 89
l  88 90
l  84 91
l  88 91
l  91 89

# Mesh 'mesh10_mesh10-geometry' with 24 faces
g mesh10_mesh10-geometry
usemtl material_4_24
f  92//123 93//123 94//123
f  93//123 92//123 95//123
f  94//124 93//124 92//124
f  95//124 92//124 93//124
f  93//125 96//125 94//125
f  94//126 96//126 93//126
f  96//127 92//127 94//127
f  94//128 92//128 96//128
f  92//126 97//126 95//126
f  95//125 97//125 92//125
f  97//128 93//128 95//128
f  95//127 93//127 97//127
f  96//125 93//125 98//125
f  98//126 93//126 96//126
f  92//127 96//127 99//127
f  99//128 96//128 92//128
f  97//126 92//126 99//126
f  99//125 92//125 97//125
f  93//128 97//128 98//128
f  98//127 97//127 93//127
f  97//124 96//124 98//124
f  98//123 96//123 97//123
f  96//124 97//124 99//124
f  99//123 97//123 96//123

# Mesh 'mesh11_mesh11-geometry' with 12 faces
g mesh11_mesh11-geometry
usemtl material_3_0
l  93 94
l  93 95
l  98 93
l  94 92
l  94 96
l  95 92
l  97 95
l  98 97
l  96 98
l  92 99
l  96 99
l  99 97

# Mesh 'mesh10_mesh10-geometry' with 24 faces
g mesh10_mesh10-geometry
usemtl material_4_24
f  100//129 101//129 102//129
f  101//129 100//129 103//129
f  102//130 101//130 100//130
f  103//130 100//130 101//130
f  101//119 104//119 102//119
f  102//120 104//120 101//120
f  104//121 100//121 102//121
f  102//122 100//122 104//122
f  100//120 105//120 103//120
f  103//119 105//119 100//119
f  105//122 101//122 103//122
f  103//121 101//121 105//121
f  104//119 101//119 106//119
f  106//120 101//120 104//120
f  100//121 104//121 107//121
f  107//122 104//122 100//122
f  105//120 100//120 107//120
f  107//119 100//119 105//119
f  101//122 105//122 106//122
f  106//121 105//121 101//121
f  105//130 104//130 106//130
f  106//129 104//129 105//129
f  104//130 105//130 107//130
f  107//129 105//129 104//129

# Mesh 'mesh11_mesh11-geometry' with 12 faces
g mesh11_mesh11-geometry
usemtl material_3_0
l  101 102
l  101 103
l  106 101
l  102 100
l  102 104
l  103 100
l  105 103
l  106 105
l  104 106
l  100 107
l  104 107
l  107 105

# Mesh 'mesh10_mesh10-geometry' with 24 faces
g mesh10_mesh10-geometry
usemtl material_4_24
f  108//27 109//27 110//27
f  109//27 108//27 111//27
f  110//28 109//28 108//28
f  111//28 108//28 109//28
f  109//119 112//119 110//119
f  110//120 112//120 109//120
f  112//121 108//121 110//121
f  110//122 108//122 112//122
f  108//120 113//120 111//120
f  111//119 113//119 108//119
f  113//122 109//122 111//122
f  111//121 109//121 113//121
f  112//119 109//119 114//119
f  114//120 109//120 112//120
f  108//121 112//121 115//121
f  115//122 112//122 108//122
f  113//120 108//120 115//120
f  115//119 108//119 113//119
f  109//122 113//122 114//122
f  114//121 113//121 109//121
f  113//28 112//28 114//28
f  114//27 112//27 113//27
f  112//28 113//28 115//28
f  115//27 113//27 112//27

# Mesh 'mesh11_mesh11-geometry' with 12 faces
g mesh11_mesh11-geometry
usemtl material_3_0
l  109 110
l  109 111
l  114 109
l  110 108
l  110 112
l  111 108
l  113 111
l  114 113
l  112 114
l  108 115
l  112 115
l  115 113

# Mesh 'mesh12_mesh12-geometry' with 34 faces
g mesh12_mesh12-geometry
usemtl material_0_24
f  116//119 117//119 118//119
f  117//119 116//119 119//119
f  117//131 120//121 118//121
f  118//121 121//132 116//132
f  121//132 119//133 116//132
f  117//119 119//119 122//119
f  120//121 117//131 123//131
f  121//132 118//121 120//121
f  119//133 121//132 124//133
f  122//119 119//119 125//119
f  126//134 117//131 122//134
f  117//131 126//134 123//131
f  123//131 127//121 120//121
f  120//121 128//132 121//132
f  128//132 124//133 121//132
f  124//133 125//122 119//133
f  125//122 126//134 122//134
f  129//134 123//131 126//134
f  127//121 123//131 130//131
f  128//132 120//121 127//121
f  124//133 128//132 131//133
f  125//122 124//133 132//122
f  126//134 125//122 132//122
f  123//131 129//134 130//131
f  126//134 133//122 129//134
f  130//120 128//120 127//120
f  128//120 129//120 131//120
f  131//133 132//122 124//133
f  133//122 126//134 132//122
f  128//120 130//120 129//120
f  131//120 129//120 133//120
f  131//133 134//122 132//122
f  133//122 132//122 134//122
f  134//122 131//133 133//122

# Mesh 'mesh12_mesh12-geometry' with 34 faces
g mesh12_mesh12-geometry
usemtl material_3_24
f  118//120 117//120 116//120
f  119//120 116//120 117//120
f  118//122 120//122 117//133
f  116//134 121//134 118//122
f  116//134 119//131 121//134
f  122//120 119//120 117//120
f  123//133 117//133 120//122
f  120//122 118//122 121//134
f  124//131 121//134 119//131
f  125//120 119//120 122//120
f  122//132 117//133 126//132
f  123//133 126//132 117//133
f  120//122 127//122 123//133
f  121//134 128//134 120//122
f  121//134 124//131 128//134
f  119//131 125//121 124//131
f  122//132 126//132 125//121
f  126//132 123//133 129//132
f  130//133 123//133 127//122
f  127//122 120//122 128//134
f  131//131 128//134 124//131
f  132//121 124//131 125//121
f  132//121 125//121 126//132
f  130//133 129//132 123//133
f  129//132 133//121 126//132
f  127//119 128//119 130//119
f  131//119 129//119 128//119
f  124//131 132//121 131//131
f  132//121 126//132 133//121
f  129//119 130//119 128//119
f  133//119 129//119 131//119
f  132//121 134//121 131//131
f  134//121 132//121 133//121
f  133//121 131//131 134//121

# Mesh 'mesh13_mesh13-geometry' with 4 faces
g mesh13_mesh13-geometry
usemtl material_6_24
f  135//27 136//27 137//27
f  136//27 135//27 138//27
f  138//27 135//27 139//27
f  139//27 135//27 140//27

# Mesh 'mesh13_mesh13-geometry' with 4 faces
g mesh13_mesh13-geometry
usemtl material_4_24
f  137//28 136//28 135//28
f  138//28 135//28 136//28
f  139//28 135//28 138//28
f  140//28 135//28 139//28

# Mesh 'mesh14_mesh14-geometry' with 1 faces
g mesh14_mesh14-geometry
usemtl material_3_0
l  45 141

# Mesh 'mesh15_mesh15-geometry' with 1 faces
g mesh15_mesh15-geometry
usemtl material_3_0
l  41 134

