# File produced by Open Asset Import Library (http://www.assimp.sf.net)
# (assimp v3.2.202087883)

mtllib model_normalized.mtl

# 100 vertex positions
v -0.283877 -0.000997 0.283877
v 0.283877 -0.000997 0.316828
v -0.283877 -0.000997 0.316828
v 0.283877 -0.000997 0.283877
v 0.278804 -0.026362 0.311755
v -0.296560 0.062418 0.296560
v -0.278804 -0.026362 0.278804
v 0.278804 -0.026362 0.278804
v 0.296560 0.062418 0.296560
v -0.278804 -0.026362 0.311755
v 0.263609 -0.267093 0.263609
v -0.296560 0.062418 0.329511
v -0.316828 -0.000997 0.283877
v -0.311755 -0.026362 0.278804
v -0.278804 -0.026362 -0.278804
v 0.311755 -0.026362 0.278804
v 0.278804 -0.026362 -0.278804
v 0.296560 0.062418 0.329511
v 0.316828 -0.000997 0.283877
v -0.329511 0.062418 0.329511
v 0.230658 -0.267093 0.263609
v -0.329511 0.062418 0.296560
v -0.283877 -0.000997 -0.283877
v -0.230658 -0.267093 0.230658
v -0.311755 -0.026362 -0.278804
v -0.263609 -0.267093 0.230658
v 0.311755 -0.026362 -0.278804
v 0.263609 -0.267093 0.230658
v 0.283877 -0.000997 -0.283877
v 0.329511 0.062418 0.296560
v 0.316828 -0.000997 -0.283877
v -0.263609 -0.267093 0.263609
v 0.329511 0.062418 0.329511
v 0.230658 -0.267093 0.230658
v -0.329511 0.095369 0.329511
v -0.329511 0.062418 -0.296560
v -0.316828 -0.000997 -0.283877
v -0.230658 -0.267093 0.263609
v -0.278804 -0.026362 -0.311755
v -0.263609 -0.267093 -0.230658
v 0.283877 -0.000997 -0.316828
v 0.263609 -0.267093 -0.230658
v -0.230658 0.062418 0.263609
v -0.263609 0.062418 0.230658
v -0.296560 0.062418 -0.296560
v -0.283877 -0.000997 -0.316828
v -0.230658 -0.267093 -0.263609
v 0.278804 -0.026362 -0.311755
v -0.230658 -0.267093 -0.230658
v -0.329511 0.062418 -0.329511
v 0.329511 0.062418 -0.329511
v 0.296560 0.062418 -0.296560
v 0.230658 -0.267093 -0.230658
v 0.263609 -0.267093 -0.263609
v 0.329511 0.095369 -0.329511
v 0.230658 0.062418 0.263609
v 0.329511 0.095369 0.329511
v -0.263609 0.062418 -0.230658
v -0.296560 0.062418 -0.329511
v -0.263609 -0.267093 -0.263609
v 0.329511 0.062418 -0.296560
v 0.296560 0.062418 -0.329511
v 0.230658 -0.267093 -0.263609
v -0.230658 0.062418 0.230658
v 0.230658 0.078893 0.263609
v 0.263609 0.062418 0.230658
v 0.230658 0.095369 0.263609
v -0.230658 0.062418 -0.230658
v -0.263609 0.078893 -0.230658
v -0.329511 0.095369 -0.329511
v -0.230658 0.078893 0.230658
v 0.263609 0.095369 0.230658
v -0.230658 0.078893 0.263609
v 0.230658 0.062418 0.230658
v -0.230658 0.095369 0.263609
v -0.230658 0.062418 -0.263609
v -0.263609 0.078893 0.230658
v -0.263609 0.095369 0.230658
v 0.230658 0.062418 -0.263609
v 0.263609 0.062418 -0.230658
v 0.263609 0.095369 -0.230658
v 0.230658 0.078893 0.230658
v 0.263609 0.078893 0.230658
v 0.230658 0.095369 0.230658
v -0.230658 0.078893 -0.263609
v -0.230658 0.078893 -0.230658
v -0.263609 0.095369 -0.230658
v -0.230658 0.095369 0.230658
v 0.230658 0.095369 -0.230658
v 0.263609 0.078893 -0.230658
v -0.230658 0.095369 -0.263609
v 0.230658 0.062418 -0.230658
v 0.230658 0.095369 -0.263609
v 0.230658 0.078893 -0.263609
v -0.230658 0.095369 -0.230658
v 0.230658 0.078893 -0.230658
v -0.296560 0.095369 0.296560
v 0.296560 0.095369 0.296560
v 0.296560 0.095369 -0.296560
v -0.296560 0.095369 -0.296560

# 212 UV coordinates
vt 0 0 0
vt -0.03157 1.52683 0
vt -0.03157 0.113591 0
vt -0.113591 1.52683 0
vt -0.113591 0.113591 0
vt 0.113591 0.643307 0
vt 1.52683 0.643307 0
vt 0.126219 0.578916 0
vt -0.113591 0.948934 0
vt -0.082021 1.10991 0
vt -0.03157 0.948934 0
vt -0.126219 0.884544 0
vt -0.113591 0.627221 0
vt -0.126219 0.562831 0
vt -1.52683 0.627221 0
vt 0.113591 0.627221 0
vt 0.03157 0.627221 0
vt 0.082021 0.788196 0
vt 0.126219 0.562831 0
vt 1.5142 0.578916 0
vt 0.164042 -0.032171 0
vt 0.044198 0.562831 0
vt -0 1.10991 0
vt -1.60885 0.627221 0
vt -1.5584 0.788196 0
vt -0.044198 0.884544 0
vt -1.5142 0.562831 0
vt -1.59622 0.562831 0
vt -1.5142 0.884544 0
vt -0.044198 0.562831 0
vt 1.5142 0.562831 0
vt 0 0.788196 0
vt -0.082021 0.788196 0
vt -0.03157 0.627221 0
vt 0.044198 1.5142 0
vt 0.126219 1.5142 0
vt 0.044198 0.126219 0
vt 1.64042 0.804282 0
vt 0.082021 0.804282 0
vt 0.246063 -0.032171 0
vt 0.164042 -0.048257 0
vt 0.126219 0.126219 0
vt 1.5584 0.804282 0
vt -0.082021 1.5584 0
vt 0 0.082021 0
vt 0 1.5584 0
vt -1.64042 0.788196 0
vt -1.52683 1.52683 0
vt -0.113591 1.60885 0
vt -0.246063 0.273456 0
vt 0.126219 1.59622 0
vt 1.5142 1.59622 0
vt -1.47638 -0.048257 0
vt -1.52683 0.948934 0
vt 1.5142 1.5142 0
vt 0.126219 0.044198 0
vt 1.5142 0.044198 0
vt -0.164042 -0.048257 0
vt 1.52683 0.627221 0
vt 1.5142 0.126219 0
vt -0.082021 0.082021 0
vt 1.52683 0.03157 0
vt 0.113591 0.113591 0
vt 0.113591 0.03157 0
vt 1.47638 -0.032171 0
vt -0 0.804282 0
vt -0.246063 0.246063 0
vt -0.164042 0.164042 0
vt -0.164042 0.246063 0
vt 0.246063 -0.048257 0
vt -1.5584 0.82021 0
vt -1.64042 0.902231 0
vt -1.64042 0.82021 0
vt -0.082021 0.82021 0
vt -1.5584 1.64042 0
vt -0.082021 1.64042 0
vt 0.082021 1.126 0
vt 0.113591 0.965019 0
vt 0 1.126 0
vt 0.126219 0.900629 0
vt 1.5142 0.900629 0
vt -1.52683 1.60885 0
vt -0.164042 0.273456 0
vt -1.39436 -0.048257 0
vt 0.246063 0.289542 0
vt 0.164042 0.289542 0
vt 1.5142 0.884544 0
vt 1.52683 0.948934 0
vt 1.59622 0.884544 0
vt -1.59622 0.884544 0
vt 0.126219 0.884544 0
vt 1.47638 0.273456 0
vt -0.113591 0.643307 0
vt -0.126219 0.578916 0
vt -1.52683 0.643307 0
vt -1.5142 0.578916 0
vt -0.246063 -0.048257 0
vt -0.246063 -0.032171 0
vt 1.60885 0.627221 0
vt 0.044198 0.884544 0
vt 0.113591 0.948934 0
vt 1.52683 0.113591 0
vt 0.164042 0.273456 0
vt -0.164042 1.39436 0
vt -0.082021 0.804282 0
vt -0.082021 0 0
vt 1.39436 -0.032171 0
vt 0 0.82021 0
vt -0.164042 -0.032171 0
vt -0.246063 0.164042 0
vt 0 0.902231 0
vt -0.246063 1.47638 0
vt 1.52683 0.965019 0
vt 1.60885 0.948934 0
vt 1.5584 1.10991 0
vt -0.246063 1.39436 0
vt -0.164042 1.47638 0
vt -1.60885 0.948934 0
vt -1.47638 0.273456 0
vt 1.59622 1.5142 0
vt 1.59622 0.126219 0
vt 1.39436 0.273456 0
vt 1.64042 1.126 0
vt 1.39436 0.289542 0
vt -1.64042 0.804282 0
vt 0.03157 0.948934 0
vt 1.59622 0.562831 0
vt -1.60885 0.113591 0
vt -1.60885 1.52683 0
vt -1.52683 0.113591 0
vt 1.5584 0.788196 0
vt 0.082021 1.10991 0
vt 0.246063 0.273456 0
vt -1.39436 -0.032171 0
vt -1.47638 -0.032171 0
vt 0.082021 0.82021 0
vt 1.64042 0.902231 0
vt -1.39436 1.47638 0
vt 1.64042 1.10991 0
vt -1.5584 1.10991 0
vt -1.64042 1.10991 0
vt -1.5142 0.900629 0
vt -1.52683 0.965019 0
vt -0.126219 0.900629 0
vt -1.64042 1.126 0
vt -1.39436 0.273456 0
vt -1.39436 0.289542 0
vt -1.47638 0.289542 0
vt 1.39436 -0.048257 0
vt -1.47638 1.47638 0
vt -1.39436 1.39436 0
vt 1.47638 0.289542 0
vt -1.5584 0.804282 0
vt -0.113591 0.965019 0
vt -0.164042 0.289542 0
vt 1.64042 0.788196 0
vt -1.47638 0.246063 0
vt -1.39436 0.164042 0
vt -1.39436 0.246063 0
vt -1.47638 0.164042 0
vt 1.5584 0.82021 0
vt 1.39436 0.82021 0
vt 0.246063 0.86122 0
vt 0.246063 0.82021 0
vt 0.164042 0.246063 0
vt 0 1.64042 0
vt 1.39436 0.86122 0
vt 1.5584 1.126 0
vt -1.5584 0 0
vt -1.5584 1.5584 0
vt -1.64042 1.5584 0
vt -1.5584 0.082021 0
vt -1.5584 1.126 0
vt -1.47638 1.39436 0
vt 1.47638 -0.048257 0
vt -0.082021 1.126 0
vt 1.64042 0.82021 0
vt -0.246063 0.289542 0
vt -1.64042 0.082021 0
vt 1.47638 0.82021 0
vt 0.164042 0.82021 0
vt 0.246063 0.164042 0
vt 1.64042 -0 0
vt -0.164042 0.86122 0
vt -0.246063 0.82021 0
vt -0.164042 0.82021 0
vt 0.164042 1.39436 0
vt -1.39436 0.82021 0
vt -1.47638 0.86122 0
vt -1.47638 0.82021 0
vt 0.246063 1.47638 0
vt 1.64042 1.64042 0
vt 1.47638 0.86122 0
vt 0.164042 0.86122 0
vt 1.39436 0.164042 0
vt 0.246063 0.902231 0
vt -0.246063 0.86122 0
vt 0.246063 0.246063 0
vt 1.39436 0.902231 0
vt -1.39436 0.86122 0
vt 1.39436 1.47638 0
vt 1.39436 0.246063 0
vt -0.246063 0.902231 0
vt -1.39436 0.902231 0
vt -0.164042 0.902231 0
vt 0.164042 0.902231 0
vt 0.246063 1.39436 0
vt -1.47638 0.902231 0
vt 1.47638 1.39436 0
vt 1.47638 0.902231 0
vt 1.47638 0.246063 0
vt 1.39436 1.39436 0

# 14 vertex normals
vn -0 -1 0
vn 0 0.196116 -0.980581
vn -0.980581 -0.196116 0
vn 0 -0.196116 0.980581
vn 0.980581 -0.196116 -0
vn 0 1 0
vn 0 0 -1
vn 0.980581 0.196116 0
vn 0 -0.196116 -0.980581
vn -0.980581 0.196116 0
vn 1 -0 0
vn -1 0 0
vn 0 0.196116 0.980581
vn -0 0 1

# Mesh 'mesh1_mesh1-geometry' with 224 faces
g mesh1_mesh1-geometry
usemtl material_0_24
f  1/1/1 2/1/1 3/1/1
f  2/1/1 1/1/1 4/1/1
f  5/1/2 3/1/2 2/1/2
f  3/1/3 6/1/3 1/1/3
f  7/1/3 3/1/3 1/1/3
f  1/1/4 8/1/4 4/1/4
f  9/1/5 2/1/5 4/1/5
f  2/1/5 8/1/5 4/1/5
f  3/1/2 5/1/2 10/1/2
f  2/1/2 11/1/2 5/1/2
f  8/1/5 2/1/5 5/1/5
f  6/1/3 3/1/3 12/1/3
f  6/1/4 13/1/4 1/1/4
f  3/1/3 7/1/3 10/1/3
f  1/1/4 14/1/4 7/1/4
f  1/1/3 15/1/3 7/1/3
f  8/1/4 1/1/4 7/1/4
f  16/1/4 4/1/4 8/1/4
f  17/1/5 4/1/5 8/1/5
f  2/1/5 9/1/5 18/1/5
f  19/1/4 9/1/4 4/1/4
f  5/1/6 7/1/6 10/1/6
f  10/1/2 20/1/2 3/1/2
f  18/1/2 11/1/2 2/1/2
f  5/1/2 11/1/2 21/1/2
f  21/1/5 8/1/5 5/1/5
f  7/1/6 5/1/6 8/1/6
f  3/1/2 20/1/2 12/1/2
f  12/1/6 18/1/6 6/1/6
f  13/1/4 6/1/4 22/1/4
f  14/1/4 1/1/4 13/1/4
f  13/1/1 23/1/1 1/1/1
f  24/1/3 10/1/3 7/1/3
f  7/1/6 25/1/6 14/1/6
f  26/1/4 7/1/4 14/1/4
f  15/1/3 1/1/3 23/1/3
f  25/1/6 7/1/6 15/1/6
f  4/1/4 16/1/4 19/1/4
f  27/1/6 8/1/6 16/1/6
f  8/1/4 28/1/4 16/1/4
f  4/1/5 17/1/5 29/1/5
f  8/1/6 27/1/6 17/1/6
f  9/1/6 6/1/6 18/1/6
f  9/1/4 19/1/4 30/1/4
f  19/1/1 4/1/1 31/1/1
f  10/1/2 32/1/2 20/1/2
f  11/1/2 18/1/2 33/1/2
f  21/1/6 11/1/6 34/1/6
f  8/1/5 21/1/5 34/1/5
f  20/1/7 35/1/7 12/1/7
f  12/1/7 35/1/7 18/1/7
f  22/1/6 6/1/6 36/1/6
f  20/1/8 13/1/8 22/1/8
f  25/1/8 13/1/8 14/1/8
f  20/1/8 14/1/8 13/1/8
f  23/1/1 13/1/1 37/1/1
f  10/1/3 24/1/3 38/1/3
f  7/1/4 26/1/4 24/1/4
f  14/1/8 32/1/8 26/1/8
f  25/1/9 23/1/9 15/1/9
f  23/1/3 39/1/3 15/1/3
f  23/1/9 17/1/9 15/1/9
f  15/1/9 40/1/9 25/1/9
f  31/1/10 16/1/10 19/1/10
f  16/1/10 33/1/10 19/1/10
f  16/1/10 31/1/10 27/1/10
f  28/1/4 8/1/4 34/1/4
f  28/1/10 33/1/10 16/1/10
f  17/1/5 41/1/5 29/1/5
f  29/1/9 27/1/9 17/1/9
f  17/1/9 23/1/9 29/1/9
f  29/1/1 31/1/1 4/1/1
f  42/1/9 17/1/9 27/1/9
f  9/1/6 43/1/6 6/1/6
f  19/1/10 33/1/10 30/1/10
f  30/1/6 43/1/6 9/1/6
f  32/1/2 10/1/2 38/1/2
f  32/1/8 14/1/8 20/1/8
f  18/1/7 35/1/7 33/1/7
f  33/1/10 28/1/10 11/1/10
f  28/1/6 34/1/6 11/1/6
f  20/1/11 22/1/11 35/1/11
f  44/1/6 36/1/6 6/1/6
f  36/1/11 35/1/11 22/1/11
f  13/1/8 25/1/8 37/1/8
f  23/1/9 25/1/9 37/1/9
f  37/1/9 45/1/9 23/1/9
f  24/1/6 26/1/6 38/1/6
f  32/1/6 38/1/6 26/1/6
f  39/1/3 23/1/3 46/1/3
f  47/1/3 15/1/3 39/1/3
f  15/1/6 48/1/6 39/1/6
f  48/1/6 15/1/6 17/1/6
f  40/1/9 15/1/9 49/1/9
f  40/1/8 50/1/8 25/1/8
f  51/1/10 27/1/10 31/1/10
f  27/1/9 29/1/9 31/1/9
f  41/1/5 17/1/5 48/1/5
f  29/1/1 46/1/1 41/1/1
f  41/1/5 52/1/5 29/1/5
f  46/1/1 29/1/1 23/1/1
f  52/1/9 31/1/9 29/1/9
f  17/1/9 42/1/9 53/1/9
f  27/1/10 54/1/10 42/1/10
f  43/1/6 44/1/6 6/1/6
f  33/1/12 55/1/12 30/1/12
f  56/1/6 43/1/6 30/1/6
f  57/1/7 33/1/7 35/1/7
f  58/1/6 36/1/6 44/1/6
f  50/1/11 35/1/11 36/1/11
f  25/1/8 50/1/8 37/1/8
f  45/1/9 37/1/9 36/1/9
f  59/1/3 23/1/3 45/1/3
f  23/1/3 59/1/3 46/1/3
f  48/1/13 46/1/13 39/1/13
f  50/1/13 39/1/13 46/1/13
f  15/1/3 47/1/3 49/1/3
f  39/1/13 60/1/13 47/1/13
f  53/1/5 48/1/5 17/1/5
f  40/1/6 49/1/6 60/1/6
f  50/1/8 40/1/8 60/1/8
f  54/1/10 27/1/10 51/1/10
f  51/1/10 31/1/10 61/1/10
f  46/1/13 48/1/13 41/1/13
f  54/1/13 41/1/13 48/1/13
f  52/1/5 41/1/5 62/1/5
f  31/1/9 52/1/9 61/1/9
f  53/1/6 42/1/6 63/1/6
f  54/1/6 63/1/6 42/1/6
f  64/1/6 44/1/6 43/1/6
f  30/1/12 55/1/12 61/1/12
f  57/1/12 55/1/12 33/1/12
f  56/1/14 65/1/14 43/1/14
f  56/1/6 30/1/6 66/1/6
f  35/1/1 67/1/1 57/1/1
f  68/1/6 36/1/6 58/1/6
f  58/1/12 44/1/12 69/1/12
f  70/1/11 35/1/11 50/1/11
f  37/1/8 50/1/8 36/1/8
f  45/1/6 36/1/6 61/1/6
f  45/1/6 52/1/6 59/1/6
f  50/1/13 46/1/13 59/1/13
f  60/1/13 39/1/13 50/1/13
f  47/1/6 60/1/6 49/1/6
f  48/1/5 53/1/5 63/1/5
f  62/1/13 54/1/13 51/1/13
f  51/1/12 61/1/12 55/1/12
f  54/1/13 62/1/13 41/1/13
f  54/1/13 48/1/13 63/1/13
f  62/1/6 59/1/6 52/1/6
f  52/1/6 45/1/6 61/1/6
f  64/1/14 71/1/14 44/1/14
f  64/1/12 43/1/12 71/1/12
f  61/1/6 66/1/6 30/1/6
f  55/1/1 57/1/1 72/1/1
f  73/1/14 43/1/14 65/1/14
f  56/1/11 74/1/11 65/1/11
f  74/1/6 56/1/6 66/1/6
f  72/1/1 57/1/1 67/1/1
f  67/1/1 35/1/1 75/1/1
f  76/1/6 36/1/6 68/1/6
f  58/1/7 69/1/7 68/1/7
f  77/1/12 69/1/12 44/1/12
f  70/1/1 78/1/1 35/1/1
f  50/1/14 59/1/14 70/1/14
f  36/1/6 79/1/6 61/1/6
f  51/1/14 55/1/14 62/1/14
f  59/1/14 62/1/14 70/1/14
f  77/1/14 44/1/14 71/1/14
f  73/1/12 71/1/12 43/1/12
f  80/1/6 66/1/6 61/1/6
f  81/1/1 55/1/1 72/1/1
f  65/1/14 67/1/14 73/1/14
f  82/1/11 65/1/11 74/1/11
f  66/1/14 83/1/14 74/1/14
f  72/1/1 67/1/1 84/1/1
f  75/1/1 35/1/1 78/1/1
f  75/1/14 73/1/14 67/1/14
f  79/1/6 36/1/6 76/1/6
f  76/1/12 68/1/12 85/1/12
f  86/1/7 68/1/7 69/1/7
f  69/1/12 77/1/12 87/1/12
f  87/1/1 78/1/1 70/1/1
f  79/1/6 80/1/6 61/1/6
f  70/1/14 62/1/14 55/1/14
f  71/1/14 88/1/14 77/1/14
f  71/1/12 73/1/12 88/1/12
f  66/1/11 80/1/11 83/1/11
f  89/1/1 55/1/1 81/1/1
f  81/1/11 72/1/11 90/1/11
f  65/1/11 82/1/11 67/1/11
f  82/1/14 74/1/14 83/1/14
f  84/1/11 67/1/11 82/1/11
f  84/1/14 82/1/14 72/1/14
f  88/1/1 75/1/1 78/1/1
f  75/1/12 88/1/12 73/1/12
f  76/1/7 85/1/7 79/1/7
f  86/1/12 85/1/12 68/1/12
f  69/1/7 87/1/7 86/1/7
f  78/1/12 87/1/12 77/1/12
f  91/1/1 87/1/1 70/1/1
f  92/1/6 80/1/6 79/1/6
f  55/1/1 91/1/1 70/1/1
f  78/1/14 77/1/14 88/1/14
f  90/1/11 83/1/11 80/1/11
f  93/1/1 55/1/1 89/1/1
f  81/1/7 90/1/7 89/1/7
f  83/1/11 90/1/11 72/1/11
f  83/1/14 72/1/14 82/1/14
f  94/1/7 79/1/7 85/1/7
f  85/1/12 86/1/12 91/1/12
f  95/1/7 86/1/7 87/1/7
f  95/1/1 87/1/1 91/1/1
f  92/1/7 96/1/7 80/1/7
f  92/1/11 79/1/11 96/1/11
f  91/1/1 55/1/1 93/1/1
f  90/1/7 80/1/7 96/1/7
f  93/1/11 89/1/11 94/1/11
f  96/1/7 89/1/7 90/1/7
f  94/1/11 96/1/11 79/1/11
f  85/1/7 91/1/7 94/1/7
f  95/1/12 91/1/12 86/1/12
f  93/1/7 94/1/7 91/1/7
f  96/1/11 94/1/11 89/1/11

# Mesh 'mesh1_mesh1-geometry' with 224 faces
g mesh1_mesh1-geometry
usemtl material_1_1_8
f  3/2/6 2/3/6 1/4/6
f  4/5/6 1/4/6 2/3/6
f  2/6/4 3/7/4 5/8/4
f  1/9/8 6/10/8 3/11/8
f  1/9/8 3/11/8 7/12/8
f  4/13/2 8/14/2 1/15/2
f  4/16/10 2/17/10 9/18/10
f  4/16/10 8/19/10 2/17/10
f  10/20/4 5/8/4 3/7/4
f  5/8/4 11/21/4 2/6/4
f  5/22/10 2/17/10 8/19/10
f  12/23/8 3/11/8 6/10/8
f  1/15/2 13/24/2 6/25/2
f  10/26/8 7/12/8 3/11/8
f  7/27/2 14/28/2 1/15/2
f  7/12/8 15/29/8 1/9/8
f  7/27/2 1/15/2 8/14/2
f  8/14/2 4/13/2 16/30/2
f  8/19/10 4/16/10 17/31/10
f  18/32/10 9/18/10 2/17/10
f  4/13/2 9/33/2 19/34/2
f  10/35/1 7/36/1 5/37/1
f  3/7/4 20/38/4 10/20/4
f  2/6/4 11/21/4 18/39/4
f  21/40/4 11/21/4 5/8/4
f  5/22/10 8/19/10 21/41/10
f  8/42/1 5/37/1 7/36/1
f  12/43/4 20/38/4 3/7/4
f  6/44/1 18/45/1 12/46/1
f  22/47/2 6/25/2 13/24/2
f  13/24/2 1/15/2 14/28/2
f  1/4/6 23/48/6 13/49/6
f  7/12/8 10/26/8 24/50/8
f  14/51/1 25/52/1 7/36/1
f  14/28/2 7/27/2 26/53/2
f  23/54/8 1/9/8 15/29/8
f  15/55/1 7/36/1 25/52/1
f  19/34/2 16/30/2 4/13/2
f  16/56/1 8/42/1 27/57/1
f  16/30/2 28/58/2 8/14/2
f  29/59/10 17/31/10 4/16/10
f  17/60/1 27/57/1 8/42/1
f  18/45/1 6/44/1 9/61/1
f  30/32/2 19/34/2 9/33/2
f  31/62/6 4/63/6 19/64/6
f  20/38/4 32/65/4 10/20/4
f  33/66/4 18/39/4 11/21/4
f  34/67/1 11/68/1 21/69/1
f  34/70/10 21/41/10 8/19/10
f  12/71/14 35/72/14 20/73/14
f  18/74/14 35/72/14 12/71/14
f  36/75/1 6/44/1 22/76/1
f  22/77/3 13/78/3 20/79/3
f  14/80/3 13/78/3 25/81/3
f  13/78/3 14/80/3 20/79/3
f  37/82/6 13/49/6 23/48/6
f  38/83/8 24/50/8 10/26/8
f  24/84/2 26/53/2 7/27/2
f  26/85/3 32/86/3 14/80/3
f  15/87/13 23/88/13 25/89/13
f  15/29/8 39/90/8 23/54/8
f  15/87/13 17/91/13 23/88/13
f  25/89/13 40/92/13 15/87/13
f  19/93/5 16/94/5 31/95/5
f  19/93/5 33/66/5 16/94/5
f  27/96/5 31/95/5 16/94/5
f  34/97/2 8/14/2 28/58/2
f  16/94/5 33/66/5 28/98/5
f  29/59/10 41/99/10 17/31/10
f  17/91/13 27/100/13 29/101/13
f  29/101/13 23/88/13 17/91/13
f  4/63/6 31/62/6 29/102/6
f  27/100/13 17/91/13 42/103/13
f  6/44/1 43/104/1 9/61/1
f  30/105/5 33/66/5 19/93/5
f  9/61/1 43/104/1 30/106/1
f  38/107/4 10/20/4 32/65/4
f  20/79/3 14/80/3 32/86/3
f  33/108/14 35/72/14 18/74/14
f  11/109/5 28/98/5 33/66/5
f  11/68/1 34/67/1 28/110/1
f  35/111/12 22/74/12 20/108/12
f  6/44/1 36/75/1 44/112/1
f  22/74/12 35/111/12 36/71/12
f  37/113/3 25/81/3 13/78/3
f  37/114/13 25/89/13 23/88/13
f  23/88/13 45/115/13 37/114/13
f  38/104/1 26/112/1 24/116/1
f  26/112/1 38/104/1 32/117/1
f  46/118/8 23/54/8 39/90/8
f  39/90/8 15/29/8 47/119/8
f  39/120/1 48/121/1 15/55/1
f  17/60/1 15/55/1 48/121/1
f  49/122/13 15/87/13 40/92/13
f  25/81/3 50/123/3 40/124/3
f  31/95/5 27/96/5 51/125/5
f  31/126/13 29/101/13 27/100/13
f  48/127/10 17/31/10 41/99/10
f  41/128/6 46/129/6 29/130/6
f  29/59/10 52/131/10 41/99/10
f  23/48/6 29/130/6 46/129/6
f  29/101/13 31/126/13 52/132/13
f  53/133/13 42/103/13 17/91/13
f  42/134/5 54/135/5 27/96/5
f  6/44/1 44/112/1 43/104/1
f  30/136/11 55/137/11 33/108/11
f  30/106/1 43/104/1 56/69/1
f  35/72/14 33/108/14 57/111/14
f  44/112/1 36/75/1 58/138/1
f  36/71/12 35/111/12 50/73/12
f  37/113/3 50/123/3 25/81/3
f  36/139/13 37/114/13 45/115/13
f  45/140/8 23/54/8 59/141/8
f  46/118/8 59/141/8 23/54/8
f  39/142/9 46/143/9 48/144/9
f  46/143/9 39/142/9 50/145/9
f  49/146/8 47/119/8 15/29/8
f  47/147/9 60/148/9 39/142/9
f  17/31/10 48/127/10 53/149/10
f  60/150/1 49/151/1 40/138/1
f  60/152/3 40/124/3 50/123/3
f  51/125/5 27/96/5 54/135/5
f  61/153/5 31/95/5 51/125/5
f  41/154/9 48/144/9 46/143/9
f  48/144/9 41/154/9 54/155/9
f  62/156/10 41/99/10 52/131/10
f  61/23/13 52/132/13 31/126/13
f  63/157/1 42/158/1 53/159/1
f  42/158/1 63/157/1 54/160/1
f  43/104/1 44/112/1 64/116/1
f  61/161/11 55/137/11 30/136/11
f  33/108/11 55/137/11 57/111/11
f  43/162/7 65/163/7 56/164/7
f  66/110/1 30/106/1 56/69/1
f  57/1/6 67/165/6 35/166/6
f  58/138/1 36/75/1 68/151/1
f  69/167/11 44/164/11 58/162/11
f  50/73/12 35/111/12 70/72/12
f  36/168/3 50/123/3 37/113/3
f  61/169/1 36/75/1 45/170/1
f  59/171/1 52/172/1 45/170/1
f  59/173/9 46/143/9 50/145/9
f  50/145/9 39/142/9 60/148/9
f  49/151/1 60/150/1 47/174/1
f  63/175/10 53/149/10 48/127/10
f  51/79/9 54/155/9 62/176/9
f  55/137/11 61/161/11 51/177/11
f  41/154/9 62/176/9 54/155/9
f  63/178/9 48/144/9 54/155/9
f  52/172/1 59/171/1 62/179/1
f  61/169/1 45/170/1 52/172/1
f  44/180/7 71/167/7 64/162/7
f  71/163/11 43/181/11 64/164/11
f  30/106/1 66/110/1 61/169/1
f  72/182/6 57/1/6 55/183/6
f  65/163/7 43/162/7 73/167/7
f  65/184/12 74/185/12 56/186/12
f  66/110/1 56/69/1 74/67/1
f  67/165/6 57/1/6 72/182/6
f  75/187/6 35/166/6 67/165/6
f  68/151/1 36/75/1 76/174/1
f  68/188/14 69/189/14 58/190/14
f  44/164/11 69/167/11 77/163/11
f  35/166/6 78/191/6 70/192/6
f  70/137/7 59/161/7 50/177/7
f  61/169/1 79/157/1 36/75/1
f  62/136/7 55/111/7 51/108/7
f  70/137/7 62/136/7 59/161/7
f  71/167/7 44/180/7 77/193/7
f  43/181/11 71/163/11 73/194/11
f  61/169/1 66/110/1 80/158/1
f  72/182/6 55/183/6 81/195/6
f  73/167/7 67/196/7 65/163/7
f  74/185/12 65/184/12 82/197/12
f  74/164/7 83/194/7 66/181/7
f  84/198/6 67/165/6 72/182/6
f  78/191/6 35/166/6 75/187/6
f  67/196/7 73/167/7 75/199/7
f  76/174/1 36/75/1 79/157/1
f  85/193/11 68/162/11 76/180/11
f  69/189/14 68/188/14 86/200/14
f  87/199/11 77/163/11 69/167/11
f  70/192/6 78/191/6 87/201/6
f  61/169/1 80/158/1 79/157/1
f  55/111/7 62/136/7 70/137/7
f  77/193/7 88/199/7 71/167/7
f  88/196/11 73/194/11 71/163/11
f  83/197/12 80/188/12 66/185/12
f  81/195/6 55/183/6 89/202/6
f  90/200/12 72/203/12 81/204/12
f  67/205/12 82/197/12 65/184/12
f  83/194/7 74/164/7 82/163/7
f  82/197/12 67/205/12 84/203/12
f  72/206/7 82/163/7 84/196/7
f  78/191/6 75/187/6 88/207/6
f  73/194/11 88/196/11 75/206/11
f  79/185/14 85/200/14 76/188/14
f  68/162/11 85/193/11 86/167/11
f  86/200/14 87/208/14 69/189/14
f  77/163/11 87/199/11 78/196/11
f  70/192/6 87/201/6 91/209/6
f  79/157/1 80/158/1 92/159/1
f  70/192/6 91/209/6 55/183/6
f  88/199/7 77/193/7 78/210/7
f  80/188/12 83/197/12 90/200/12
f  89/202/6 55/183/6 93/211/6
f  89/203/14 90/184/14 81/205/14
f  72/203/12 90/200/12 83/197/12
f  82/163/7 72/206/7 83/194/7
f  85/200/14 79/185/14 94/197/14
f  91/210/11 86/167/11 85/193/11
f  87/208/14 86/200/14 95/204/14
f  91/209/6 87/201/6 95/212/6
f  80/186/14 96/197/14 92/185/14
f  96/200/12 79/190/12 92/188/12
f  93/211/6 55/183/6 91/209/6
f  96/197/14 80/186/14 90/184/14
f  94/189/12 89/204/12 93/208/12
f  90/184/14 89/203/14 96/197/14
f  79/190/12 96/200/12 94/189/12
f  94/197/14 91/204/14 85/200/14
f  86/167/11 91/210/11 95/199/11
f  91/204/14 94/197/14 93/203/14
f  89/204/12 94/189/12 96/200/12

# Mesh 'mesh1_mesh1-geometry' with 20 faces
g mesh1_mesh1-geometry
usemtl material_2_24
f  73//1 82//1 65//1
f  65//6 82//6 73//6
f  82//1 77//1 69//1
f  69//6 77//6 82//6
f  82//1 71//1 77//1
f  77//6 71//6 82//6
f  82//1 73//1 71//1
f  71//6 73//6 82//6
f  90//1 69//1 86//1
f  86//6 69//6 90//6
f  82//1 69//1 83//1
f  83//6 69//6 82//6
f  85//1 96//1 86//1
f  86//6 96//6 85//6
f  83//1 69//1 90//1
f  90//6 69//6 83//6
f  90//1 86//1 96//1
f  96//6 86//6 90//6
f  96//1 85//1 94//1
f  94//6 85//6 96//6

# Mesh 'mesh2_mesh2-geometry' with 1 faces
g mesh2_mesh2-geometry
usemtl material_0_0
l  6 97

# Mesh 'mesh3_mesh3-geometry' with 1 faces
g mesh3_mesh3-geometry
usemtl material_0_0
l  9 98

# Mesh 'mesh4_mesh4-geometry' with 1 faces
g mesh4_mesh4-geometry
usemtl material_0_0
l  52 99

# Mesh 'mesh5_mesh5-geometry' with 1 faces
g mesh5_mesh5-geometry
usemtl material_0_0
l  45 100

