# File produced by Open Asset Import Library (http://www.assimp.sf.net)
# (assimp v3.2.202087883)

mtllib model_normalized.mtl

# 50 vertex positions
v -0.415520 0.010955 0.169985
v -0.415520 0.147887 0.132211
v -0.415520 0.010955 0.094436
v -0.415520 0.147887 0.169985
v -0.141654 0.010955 0.094436
v -0.415520 -0.111813 0.169985
v -0.415520 0.072338 0.169985
v -0.141654 0.147887 0.169985
v -0.141654 0.147887 0.132211
v -0.415520 0.010955 -0.132211
v -0.415520 -0.111813 -0.132211
v -0.453294 0.072338 0.169985
v 0.415520 0.010955 0.169985
v -0.415520 0.072338 -0.132211
v 0.415520 0.072338 0.169985
v 0.415520 0.147887 0.169985
v 0.141654 0.147887 0.169985
v 0.141654 0.010955 0.094436
v -0.415520 0.010955 -0.151098
v -0.415520 -0.026820 -0.132211
v 0.415520 -0.111813 0.169985
v -0.415520 -0.125978 -0.132211
v -0.453294 -0.125978 0.169985
v -0.453294 0.072338 -0.132211
v 0.141654 0.147887 0.132211
v -0.141654 0.010955 -0.151098
v -0.415520 -0.026820 -0.141654
v -0.415520 -0.111813 -0.141654
v -0.415520 -0.125978 0.169985
v 0.415520 0.010955 0.094436
v 0.453294 0.072338 0.169985
v 0.141654 0.010955 -0.151098
v -0.141654 -0.026820 -0.151098
v -0.415520 -0.026820 -0.151098
v 0.415520 -0.111813 -0.132211
v -0.453294 -0.125978 -0.132211
v 0.415520 0.147887 0.132211
v 0.415520 -0.125978 0.169985
v 0.415520 0.072338 -0.132211
v 0.141654 -0.026820 -0.151098
v 0.415520 -0.111813 -0.141654
v 0.415520 -0.125978 -0.132211
v 0.415520 -0.026820 -0.132211
v 0.453294 -0.125978 0.169985
v 0.415520 0.010955 -0.132211
v 0.453294 0.072338 -0.132211
v 0.415520 -0.026820 -0.151098
v 0.415520 -0.026820 -0.141654
v 0.453294 -0.125978 -0.132211
v 0.415520 0.010955 -0.151098

# 0 UV coordinates

# 8 vertex normals
vn -0.0254 0 0
vn 0.0254 0 0
vn 0 0.0067546 -0.0244854
vn 0 -0.0067546 0.0244854
vn 0 0.0254 0
vn 0 -0.0254 -0
vn 0 0 0.0254
vn 0 -0 -0.0254

# Mesh 'mesh1_mesh1-geometry' with 216 faces
g mesh1_mesh1-geometry
usemtl material_0_24
f  1//1 2//1 3//1
f  2//1 1//1 4//1
f  3//2 2//2 1//2
f  4//2 1//2 2//2
f  2//3 5//3 3//3
f  3//4 5//4 2//4
f  6//2 3//2 1//2
f  1//1 3//1 6//1
f  3//2 7//2 1//2
f  1//1 7//1 3//1
f  4//1 1//1 7//1
f  7//2 1//2 4//2
f  8//5 2//5 4//5
f  4//6 2//6 8//6
f  5//3 2//3 9//3
f  9//4 2//4 5//4
f  5//5 10//5 3//5
f  3//6 10//6 5//6
f  11//2 3//2 6//2
f  6//1 3//1 11//1
f  12//7 6//7 1//7
f  1//8 6//8 12//8
f  6//7 13//7 1//7
f  1//8 13//8 6//8
f  3//2 14//2 7//2
f  7//1 14//1 3//1
f  12//7 1//7 7//7
f  7//8 1//8 12//8
f  1//7 15//7 7//7
f  7//8 15//8 1//8
f  7//7 16//7 4//7
f  4//8 16//8 7//8
f  2//5 8//5 9//5
f  9//6 8//6 2//6
f  4//7 17//7 8//7
f  8//8 17//8 4//8
f  9//3 18//3 5//3
f  5//4 18//4 9//4
f  5//5 19//5 10//5
f  10//6 19//6 5//6
f  3//2 20//2 10//2
f  10//1 20//1 3//1
f  14//2 3//2 10//2
f  10//1 3//1 14//1
f  20//2 3//2 11//2
f  11//1 3//1 20//1
f  6//6 11//6 21//6
f  21//5 11//5 6//5
f  6//2 22//2 11//2
f  11//1 22//1 6//1
f  23//7 6//7 12//7
f  12//8 6//8 23//8
f  13//7 6//7 21//7
f  21//8 6//8 13//8
f  1//7 13//7 15//7
f  15//8 13//8 1//8
f  24//5 7//5 14//5
f  14//6 7//6 24//6
f  7//5 24//5 12//5
f  12//6 24//6 7//6
f  7//7 15//7 16//7
f  16//8 15//8 7//8
f  4//7 16//7 17//7
f  17//8 16//8 4//8
f  17//5 9//5 8//5
f  8//6 9//6 17//6
f  18//3 9//3 25//3
f  25//4 9//4 18//4
f  18//5 26//5 5//5
f  5//6 26//6 18//6
f  19//5 5//5 26//5
f  26//6 5//6 19//6
f  19//1 27//1 10//1
f  10//2 27//2 19//2
f  20//8 24//8 10//8
f  10//7 24//7 20//7
f  10//1 27//1 20//1
f  20//2 27//2 10//2
f  10//8 24//8 14//8
f  14//7 24//7 10//7
f  27//1 11//1 20//1
f  20//2 11//2 27//2
f  11//8 24//8 20//8
f  20//7 24//7 11//7
f  28//6 21//6 11//6
f  11//5 21//5 28//5
f  22//2 6//2 29//2
f  29//1 6//1 22//1
f  22//8 24//8 11//8
f  11//7 24//7 22//7
f  6//7 23//7 29//7
f  29//8 23//8 6//8
f  24//1 23//1 12//1
f  12//2 23//2 24//2
f  21//2 30//2 13//2
f  13//1 30//1 21//1
f  21//7 31//7 13//7
f  13//8 31//8 21//8
f  13//2 16//2 15//2
f  15//1 16//1 13//1
f  15//1 30//1 13//1
f  13//2 30//2 15//2
f  13//7 31//7 15//7
f  15//8 31//8 13//8
f  16//5 25//5 17//5
f  17//6 25//6 16//6
f  9//5 17//5 25//5
f  25//6 17//6 9//6
f  25//3 30//3 18//3
f  18//4 30//4 25//4
f  26//5 18//5 32//5
f  32//6 18//6 26//6
f  33//8 19//8 26//8
f  26//7 19//7 33//7
f  27//1 19//1 34//1
f  34//2 19//2 27//2
f  11//1 27//1 28//1
f  28//2 27//2 11//2
f  28//6 35//6 21//6
f  21//5 35//5 28//5
f  29//6 36//6 22//6
f  22//5 36//5 29//5
f  24//8 22//8 36//8
f  36//7 22//7 24//7
f  36//6 29//6 23//6
f  23//5 29//5 36//5
f  23//1 24//1 36//1
f  36//2 24//2 23//2
f  35//2 30//2 21//2
f  21//1 30//1 35//1
f  37//2 13//2 30//2
f  30//1 13//1 37//1
f  38//7 31//7 21//7
f  21//8 31//8 38//8
f  13//2 37//2 16//2
f  16//1 37//1 13//1
f  39//1 30//1 15//1
f  15//2 30//2 39//2
f  31//5 39//5 15//5
f  15//6 39//6 31//6
f  25//5 16//5 37//5
f  37//6 16//6 25//6
f  30//3 25//3 37//3
f  37//4 25//4 30//4
f  30//5 32//5 18//5
f  18//6 32//6 30//6
f  40//8 26//8 32//8
f  32//7 26//7 40//7
f  19//8 33//8 34//8
f  34//7 33//7 19//7
f  26//8 40//8 33//8
f  33//7 40//7 26//7
f  33//6 27//6 34//6
f  34//5 27//5 33//5
f  27//8 41//8 28//8
f  28//7 41//7 27//7
f  35//6 28//6 41//6
f  41//5 28//5 35//5
f  42//1 21//1 35//1
f  35//2 21//2 42//2
f  43//2 30//2 35//2
f  35//1 30//1 43//1
f  31//7 38//7 44//7
f  44//8 38//8 31//8
f  21//1 42//1 38//1
f  38//2 42//2 21//2
f  30//1 39//1 45//1
f  45//2 39//2 30//2
f  39//5 31//5 46//5
f  46//6 31//6 39//6
f  45//5 32//5 30//5
f  30//6 32//6 45//6
f  32//8 47//8 40//8
f  40//7 47//7 32//7
f  40//6 27//6 33//6
f  33//5 27//5 40//5
f  41//8 27//8 48//8
f  48//7 27//7 41//7
f  41//2 43//2 35//2
f  35//1 43//1 41//1
f  35//8 49//8 42//8
f  42//7 49//7 35//7
f  30//2 43//2 45//2
f  45//1 43//1 30//1
f  46//8 35//8 43//8
f  43//7 35//7 46//7
f  42//6 44//6 38//6
f  38//5 44//5 42//5
f  49//2 31//2 44//2
f  44//1 31//1 49//1
f  46//8 45//8 39//8
f  39//7 45//7 46//7
f  31//2 49//2 46//2
f  46//1 49//1 31//1
f  32//5 45//5 50//5
f  50//6 45//6 32//6
f  47//8 32//8 50//8
f  50//7 32//7 47//7
f  48//6 40//6 47//6
f  47//5 40//5 48//5
f  40//6 48//6 27//6
f  27//5 48//5 40//5
f  43//2 41//2 48//2
f  48//1 41//1 43//1
f  49//8 35//8 46//8
f  46//7 35//7 49//7
f  44//6 42//6 49//6
f  49//5 42//5 44//5
f  48//2 45//2 43//2
f  43//1 45//1 48//1
f  46//8 43//8 45//8
f  45//7 43//7 46//7
f  45//2 47//2 50//2
f  50//1 47//1 45//1
f  47//2 45//2 48//2
f  48//1 45//1 47//1

# Mesh 'mesh2_mesh2-geometry' with 84 faces
g mesh2_mesh2-geometry
usemtl material_0_0
l  11 28
l  11 20
l  22 11
l  6 11
l  28 41
l  28 27
l  27 20
l  20 10
l  36 22
l  29 22
l  1 6
l  6 21
l  29 6
l  41 48
l  35 41
l  48 27
l  27 34
l  10 14
l  10 19
l  3 10
l  36 24
l  23 36
l  23 29
l  1 3
l  1 7
l  13 21
l  21 38
l  35 21
l  48 47
l  43 48
l  43 35
l  35 42
l  33 34
l  34 19
l  24 14
l  14 7
l  19 26
l  3 2
l  5 3
l  12 24
l  12 23
l  4 7
l  7 12
l  13 30
l  15 13
l  38 42
l  44 38
l  47 50
l  40 47
l  43 45
l  42 49
l  40 33
l  26 33
l  26 32
l  26 5
l  2 4
l  9 2
l  5 18
l  9 5
l  8 4
l  45 30
l  30 37
l  30 18
l  15 16
l  31 15
l  39 15
l  31 44
l  49 44
l  32 50
l  50 45
l  32 40
l  45 39
l  49 46
l  18 32
l  8 9
l  9 25
l  25 18
l  17 8
l  37 16
l  25 37
l  16 17
l  46 31
l  39 46
l  17 25

