# File produced by Open Asset Import Library (http://www.assimp.sf.net)
# (assimp v3.2.202087883)

mtllib model_normalized.mtl

# 80 vertex positions
v -0.371625 -0.216124 -0.138513
v -0.371625 -0.143460 -0.121920
v -0.371625 -0.147612 -0.121920
v -0.371625 0.248927 -0.085807
v -0.379930 -0.143460 -0.121920
v -0.371625 -0.216124 -0.022251
v -0.392387 0.269688 -0.083454
v -0.371625 -0.018893 -0.107803
v -0.379930 -0.147612 -0.121920
v -0.379930 -0.143460 -0.014016
v -0.371625 -0.147612 -0.014486
v 0.371625 -0.216124 -0.022251
v -0.392387 -0.236885 -0.140866
v 0.371625 0.248927 -0.085807
v -0.371625 0.105674 -0.093685
v -0.371625 -0.023045 -0.107803
v -0.379930 -0.147612 -0.014486
v -0.371625 -0.143460 -0.014016
v 0.371625 -0.216124 -0.138513
v -0.392387 -0.236885 -0.024603
v 0.392387 0.269688 -0.083454
v -0.371625 0.248927 0.030455
v -0.371625 0.105674 0.014220
v -0.371625 0.101522 -0.093685
v -0.379930 -0.018893 -0.107803
v -0.379930 -0.023045 -0.000368
v -0.392387 0.248927 0.030455
v 0.371625 -0.147612 -0.121920
v 0.392387 -0.236885 -0.024603
v 0.392387 -0.236885 -0.140866
v 0.392387 0.269688 0.216226
v -0.392387 0.248927 0.216226
v -0.379930 0.105674 0.014220
v -0.371625 -0.018893 0.000103
v -0.379930 0.105674 -0.093685
v -0.371625 -0.023045 -0.000368
v -0.379930 -0.023045 -0.107803
v -0.379930 -0.018893 0.000103
v 0.371625 -0.147612 -0.014486
v 0.371625 -0.143460 -0.121920
v 0.379930 -0.147612 -0.014486
v -0.392387 0.269688 0.216226
v 0.392387 0.248927 0.030455
v 0.371625 0.248927 0.030455
v -0.371625 0.101522 0.013750
v -0.379930 0.101522 -0.093685
v 0.379930 -0.147612 -0.121920
v 0.371625 -0.018893 -0.107803
v 0.392387 0.248927 0.216226
v 0.371625 0.105674 0.014220
v -0.379930 0.101522 0.013750
v 0.379930 -0.143460 -0.121920
v 0.379930 -0.143460 -0.014016
v 0.371625 -0.023045 -0.107803
v 0.371625 0.105674 -0.093685
v 0.379930 0.105674 0.014220
v 0.379930 -0.023045 -0.000368
v 0.371625 -0.143460 -0.014016
v 0.379930 -0.023045 -0.107803
v 0.371625 0.101522 -0.093685
v 0.379930 0.101522 0.013750
v 0.379930 -0.018893 0.000103
v 0.371625 -0.023045 -0.000368
v 0.379930 -0.018893 -0.107803
v 0.371625 -0.018893 0.000103
v 0.379930 0.101522 -0.093685
v 0.379930 0.105674 -0.093685
v 0.371625 0.101522 0.013750
v 0.379930 0.101522 0.216226
v -0.379930 0.101522 0.216226
v 0.379930 0.105674 0.216226
v -0.379930 0.105674 0.216226
v 0.379930 -0.143460 0.216226
v 0.379930 -0.147612 0.216226
v -0.379930 -0.147612 0.216226
v -0.379930 -0.143460 0.216226
v 0.379930 -0.023045 0.216226
v -0.379930 -0.023045 0.216226
v 0.379930 -0.018893 0.216226
v -0.379930 -0.018893 0.216226

# 174 UV coordinates
vt -0.023611 0.208333 0
vt -0.190117 0.9375 0
vt -0.190117 0.895833 0
vt -0.5525 4.875 0
vt -7.75 0.9375 0
vt -7.66667 0.895833 0
vt -7.66667 0.9375 0
vt -1.19028 0.208333 0
vt 7.66667 0.209667 0
vt 7.875 5.11587 0
vt 7.66667 4.90621 0
vt -0.331783 2.1875 0
vt -7.75 0.895833 0
vt -7.66667 0.190117 0
vt -7.75 1.27292 0
vt -7.75 0.190117 0
vt -1.26819 0.895833 0
vt 0.208333 1.19028 0
vt 7.66667 0.023611 0
vt 7.66667 1.19028 0
vt 7.875 0 0
vt 0.208333 4.90621 0
vt -0.47345 3.4375 0
vt -0.331783 2.14583 0
vt 7.75 1.26819 0
vt 7.66667 0.190117 0
vt 7.75 0.190117 0
vt -7.66667 1.27292 0
vt -1.27292 0.9375 0
vt 7.66667 1.26819 0
vt -7.66667 1.03295 0
vt -7.75 1.03295 0
vt -7.66667 0.341048 0
vt 0.208333 0.023611 0
vt -7.875 0.131381 0
vt -0.208333 0.341048 0
vt 0.208333 0.209667 0
vt 1.16667 0 0
vt 0.576111 5.08333 0
vt 0 0 0
vt -0 5.11587 0
vt -7.66667 0.5525 0
vt -0.208333 0.5525 0
vt -7.66667 1.71917 0
vt -1.55625 3.4375 0
vt -0.47345 3.39583 0
vt -7.75 2.1875 0
vt -7.66667 2.14583 0
vt -7.66667 2.1875 0
vt -7.75 2.29095 0
vt -7.75 1.07488 0
vt -7.66667 1.07488 0
vt -7.875 5.03759 0
vt 1.19028 0.208333 0
vt 0.190117 0.895833 0
vt 0.023611 0.208333 0
vt 0 0.131381 0
vt 1.71917 4.875 0
vt -7.875 1.16667 0
vt -7.875 -0 0
vt 7.875 0.576111 0
vt 0 3.58333 0
vt 0 0.576111 0
vt -7.875 3.58333 0
vt -1.71917 4.875 0
vt -7.75 1.55625 0
vt -7.66667 0.47345 0
vt -7.66667 1.55625 0
vt -1.41458 2.1875 0
vt -7.75 3.4375 0
vt -7.66667 3.39583 0
vt -7.66667 3.4375 0
vt -1.40986 2.14583 0
vt -7.75 2.14583 0
vt -7.66667 0.331783 0
vt -7.75 1.41458 0
vt -7.75 0.331783 0
vt -7.66667 2.29095 0
vt 1.26819 0.895833 0
vt 0.190117 0.9375 0
vt -0.125 1.03295 0
vt 0 1.16667 0
vt 3.58333 5.08333 0
vt 0.5525 4.875 0
vt 7.875 3.58333 0
vt -0.576111 5.08333 0
vt -3.58333 5.08333 0
vt -0.208333 1.71917 0
vt -7.875 1.71917 0
vt -7.66667 3.59089 0
vt -7.66667 5.03759 0
vt -7.75 0.47345 0
vt -7.75 3.59089 0
vt -1.55153 3.39583 0
vt -7.66667 1.41458 0
vt -7.75 3.39583 0
vt 7.75 0.331783 0
vt 7.66667 1.40986 0
vt 7.66667 0.331783 0
vt -7.75 2.33289 0
vt 7.75 1.40986 0
vt -0.208333 1.03295 0
vt 0.125 1.26819 0
vt 0.208333 0.190117 0
vt 0.208333 1.26819 0
vt -0.125 0.895833 0
vt -0.208333 0.9375 0
vt -0.208333 0.895833 0
vt 0 5.03759 0
vt -1.16667 0 0
vt 3.58333 4.875 0
vt 0.331783 2.1875 0
vt -7.875 4.875 0
vt 0 5.08333 0
vt -7.875 5.08333 0
vt -3.58333 4.875 0
vt 0 1.71917 0
vt 1.55625 3.4375 0
vt -7.75 3.54895 0
vt 7.75 0.47345 0
vt 7.66667 1.55153 0
vt 7.66667 0.47345 0
vt -7.66667 3.54895 0
vt -7.66667 2.33289 0
vt 0.125 0.190117 0
vt -0.125 0.9375 0
vt -0.125 1.07488 0
vt 0.331783 2.14583 0
vt 0.47345 3.4375 0
vt 0 4.875 0
vt -0.208333 5.03759 0
vt -0.125 3.59089 0
vt -0.208333 3.59089 0
vt 7.75 1.55153 0
vt -0.125 1.27292 0
vt -0.208333 0.190117 0
vt -0.125 0.190117 0
vt -0.125 2.29095 0
vt 1.27292 0.9375 0
vt -0.125 2.14583 0
vt -0.208333 2.1875 0
vt -0.208333 2.14583 0
vt 0.47345 3.39583 0
vt -0.125 3.54895 0
vt -0.208333 0.47345 0
vt -0.125 1.55625 0
vt -0.208333 1.55625 0
vt -0.208333 1.27292 0
vt -0.125 2.33289 0
vt -0.208333 2.29095 0
vt 1.40986 2.14583 0
vt -0.125 2.1875 0
vt 0.208333 1.40986 0
vt 0.125 0.331783 0
vt 0.208333 0.331783 0
vt 1.41458 2.1875 0
vt -0.125 3.39583 0
vt -0.208333 3.4375 0
vt -0.208333 3.39583 0
vt 1.55153 3.39583 0
vt -0.125 0.47345 0
vt -0.208333 1.07488 0
vt 0.125 1.40986 0
vt -0.125 1.41458 0
vt -0.208333 0.331783 0
vt -0.125 0.331783 0
vt -0.208333 1.41458 0
vt -0.125 3.4375 0
vt 0.208333 1.55153 0
vt 0.125 0.47345 0
vt 0.208333 0.47345 0
vt -0.208333 3.54895 0
vt -0.208333 2.33289 0
vt 0.125 1.55153 0

# 8 vertex normals
vn 0.0254 0 0
vn -0.0254 0 0
vn 0 0 0.0254
vn 0 0 -0.0254
vn 0 0.00286034 -0.0252384
vn 0 -0.00286034 0.0252384
vn 0 -0.0254 0
vn 0 0.0254 0

# Mesh 'mesh1_mesh1-geometry' with 272 faces
g mesh1_mesh1-geometry
usemtl material_0_1_8
f  1/1/1 2/2/1 3/3/1
f  2/2/1 1/1/1 4/4/1
f  3/3/2 2/2/2 1/1/2
f  4/4/2 1/1/2 2/2/2
f  5/5/3 3/6/3 2/7/3
f  2/7/4 3/6/4 5/5/4
f  3/3/1 6/8/1 1/1/1
f  1/1/2 6/8/2 3/3/2
f  1/9/5 7/10/5 4/11/5
f  4/11/6 7/10/6 1/9/6
f  2/2/1 4/4/1 8/12/1
f  8/12/2 4/4/2 2/2/2
f  3/6/3 5/5/3 9/13/3
f  9/13/4 5/5/4 3/6/4
f  2/14/7 10/15/7 5/16/7
f  5/16/8 10/15/8 2/14/8
f  6/8/1 3/3/1 11/17/1
f  11/17/2 3/3/2 6/8/2
f  12/18/8 1/19/8 6/20/8
f  6/20/7 1/19/7 12/18/7
f  7/10/5 1/9/5 13/21/5
f  13/21/6 1/9/6 7/10/6
f  4/11/5 7/10/5 14/22/5
f  14/22/6 7/10/6 4/11/6
f  8/12/1 4/4/1 15/23/1
f  15/23/2 4/4/2 8/12/2
f  16/24/1 2/2/1 8/12/1
f  8/12/2 2/2/2 16/24/2
f  5/2/1 17/17/1 9/3/1
f  9/3/2 17/17/2 5/2/2
f  17/25/8 3/26/8 9/27/8
f  9/27/7 3/26/7 17/25/7
f  10/15/7 2/14/7 18/28/7
f  18/28/8 2/14/8 10/15/8
f  17/17/1 5/2/1 10/29/1
f  10/29/2 5/2/2 17/17/2
f  3/26/8 17/25/8 11/30/8
f  11/30/7 17/25/7 3/26/7
f  11/31/6 17/32/6 6/33/6
f  6/33/5 17/32/5 11/31/5
f  1/19/8 12/18/8 19/34/8
f  19/34/7 12/18/7 1/19/7
f  20/35/6 12/36/6 6/33/6
f  6/33/5 12/36/5 20/35/5
f  19/37/5 13/21/5 1/9/5
f  1/9/6 13/21/6 19/37/6
f  20/38/2 7/39/2 13/40/2
f  13/40/1 7/39/1 20/38/1
f  21/41/5 14/22/5 7/10/5
f  7/10/6 14/22/6 21/41/6
f  4/42/7 14/43/7 22/44/7
f  22/44/8 14/43/8 4/42/8
f  15/23/1 4/4/1 23/45/1
f  23/45/2 4/4/2 15/23/2
f  24/46/1 8/12/1 15/23/1
f  15/23/2 8/12/2 24/46/2
f  2/2/1 16/24/1 18/29/1
f  18/29/2 16/24/2 2/2/2
f  25/47/3 16/48/3 8/49/3
f  8/49/4 16/48/4 25/47/4
f  26/50/6 10/51/6 18/52/6
f  18/52/5 10/51/5 26/50/5
f  27/53/6 17/32/6 10/51/6
f  10/51/5 17/32/5 27/53/5
f  17/32/6 20/35/6 6/33/6
f  6/33/5 20/35/5 17/32/5
f  12/54/2 28/55/2 19/56/2
f  19/56/1 28/55/1 12/54/1
f  29/57/6 12/36/6 20/35/6
f  20/35/5 12/36/5 29/57/5
f  19/37/5 30/40/5 13/21/5
f  13/21/6 30/40/6 19/37/6
f  7/39/2 20/38/2 27/58/2
f  27/58/1 20/38/1 7/39/1
f  30/40/7 20/59/7 13/60/7
f  13/60/8 20/59/8 30/40/8
f  21/41/5 19/37/5 14/22/5
f  14/22/6 19/37/6 21/41/6
f  7/61/8 31/62/8 21/63/8
f  21/63/7 31/62/7 7/61/7
f  14/43/7 32/64/7 22/44/7
f  22/44/8 32/64/8 14/43/8
f  23/45/1 4/4/1 22/65/1
f  22/65/2 4/4/2 23/45/2
f  33/66/7 15/67/7 23/68/7
f  23/68/8 15/67/8 33/66/8
f  8/12/1 24/46/1 34/69/1
f  34/69/2 24/46/2 8/12/2
f  35/70/3 24/71/3 15/72/3
f  15/72/4 24/71/4 35/70/4
f  18/29/1 16/24/1 36/73/1
f  36/73/2 16/24/2 18/29/2
f  16/48/3 25/47/3 37/74/3
f  37/74/4 25/47/4 16/48/4
f  8/75/7 38/76/7 25/77/7
f  25/77/8 38/76/8 8/75/8
f  27/53/6 10/51/6 26/50/6
f  26/50/5 10/51/5 27/53/5
f  36/78/6 26/50/6 18/52/6
f  18/52/5 26/50/5 36/78/5
f  20/35/6 17/32/6 27/53/6
f  27/53/5 17/32/5 20/35/5
f  28/55/2 12/54/2 39/79/2
f  39/79/1 12/54/1 28/55/1
f  40/80/2 19/56/2 28/55/2
f  28/55/1 19/56/1 40/80/1
f  12/36/6 29/57/6 41/81/6
f  41/81/5 29/57/5 12/36/5
f  20/59/7 30/40/7 29/82/7
f  29/82/8 30/40/8 20/59/8
f  30/40/5 19/37/5 21/41/5
f  21/41/6 19/37/6 30/40/6
f  7/39/2 27/58/2 42/83/2
f  42/83/1 27/58/1 7/39/1
f  19/56/2 40/80/2 14/84/2
f  14/84/1 40/80/1 19/56/1
f  31/62/8 7/61/8 42/85/8
f  42/85/7 7/61/7 31/62/7
f  43/65/1 21/86/1 31/87/1
f  31/87/2 21/86/2 43/65/2
f  44/88/7 32/64/7 14/43/7
f  14/43/8 32/64/8 44/88/8
f  22/44/7 32/64/7 27/89/7
f  27/89/8 32/64/8 22/44/8
f  27/53/6 23/90/6 22/91/6
f  22/91/5 23/90/5 27/53/5
f  15/67/7 33/66/7 35/92/7
f  35/92/8 33/66/8 15/67/8
f  27/53/6 33/93/6 23/90/6
f  23/90/5 33/93/5 27/53/5
f  34/69/1 24/46/1 45/94/1
f  45/94/2 24/46/2 34/69/2
f  38/76/7 8/75/7 34/95/7
f  34/95/8 8/75/8 38/76/8
f  24/71/3 35/70/3 46/96/3
f  46/96/4 35/70/4 24/71/4
f  37/97/8 36/98/8 16/99/8
f  16/99/7 36/98/7 37/97/7
f  38/69/1 37/24/1 25/12/1
f  25/12/2 37/24/2 38/69/2
f  27/53/6 26/50/6 38/100/6
f  38/100/5 26/50/5 27/53/5
f  36/98/8 37/97/8 26/101/8
f  26/101/7 37/97/7 36/98/7
f  12/36/6 41/81/6 39/102/6
f  39/102/5 41/81/5 12/36/5
f  41/103/8 28/104/8 39/105/8
f  39/105/7 28/104/7 41/103/7
f  47/106/3 40/107/3 28/108/3
f  28/108/4 40/107/4 47/106/4
f  41/81/6 29/57/6 43/109/6
f  43/109/5 29/57/5 41/81/5
f  21/86/1 29/110/1 30/40/1
f  30/40/2 29/110/2 21/86/2
f  42/83/2 27/58/2 32/111/2
f  32/111/1 27/58/1 42/83/1
f  14/84/2 40/80/2 48/112/2
f  48/112/1 40/80/1 14/84/1
f  32/113/3 31/114/3 42/115/3
f  42/115/4 31/114/4 32/113/4
f  29/110/1 21/86/1 43/65/1
f  43/65/2 21/86/2 29/110/2
f  43/65/1 31/87/1 49/116/1
f  49/116/2 31/87/2 43/65/2
f  43/117/7 32/64/7 44/88/7
f  44/88/8 32/64/8 43/117/8
f  14/84/2 50/118/2 44/58/2
f  44/58/1 50/118/1 14/84/1
f  33/45/1 46/46/1 35/23/1
f  35/23/2 46/46/2 33/45/2
f  27/53/6 51/119/6 33/93/6
f  33/93/5 51/119/5 27/53/5
f  46/120/8 45/121/8 24/122/8
f  24/122/7 45/121/7 46/120/7
f  45/123/6 51/119/6 34/124/6
f  34/124/5 51/119/5 45/123/5
f  27/53/6 38/100/6 34/124/6
f  34/124/5 38/100/5 27/53/5
f  37/24/1 38/69/1 26/73/1
f  26/73/2 38/69/2 37/24/2
f  28/104/8 41/103/8 47/125/8
f  47/125/7 41/103/7 28/104/7
f  40/107/3 47/106/3 52/126/3
f  52/126/4 47/106/4 40/107/4
f  41/81/6 43/109/6 53/127/6
f  53/127/5 43/109/5 41/81/5
f  48/112/2 40/80/2 54/128/2
f  54/128/1 40/80/1 48/112/1
f  14/84/2 48/112/2 55/129/2
f  55/129/1 48/112/1 14/84/1
f  31/114/3 32/113/3 49/130/3
f  49/130/4 32/113/4 31/114/4
f  32/64/7 43/117/7 49/62/7
f  49/62/8 43/117/8 32/64/8
f  44/131/6 56/132/6 43/109/6
f  43/109/5 56/132/5 44/131/5
f  14/84/2 55/129/2 50/118/2
f  50/118/1 55/129/1 14/84/1
f  56/132/6 44/131/6 50/133/6
f  50/133/5 44/131/5 56/132/5
f  46/46/1 33/45/1 51/94/1
f  51/94/2 33/45/2 46/46/2
f  27/53/6 34/124/6 51/119/6
f  51/119/5 34/124/5 27/53/5
f  45/121/8 46/120/8 51/134/8
f  51/134/7 46/120/7 45/121/7
f  41/79/2 52/80/2 47/55/2
f  47/55/1 52/80/1 41/79/1
f  53/135/7 40/136/7 52/137/7
f  52/137/8 40/136/8 53/135/8
f  53/127/6 43/109/6 57/138/6
f  57/138/5 43/109/5 53/127/5
f  52/80/2 41/79/2 53/139/2
f  53/139/1 41/79/1 52/80/1
f  58/139/2 54/128/2 40/80/2
f  40/80/1 54/128/1 58/139/1
f  59/140/3 48/141/3 54/142/3
f  54/142/4 48/141/4 59/140/4
f  55/129/2 48/112/2 60/143/2
f  60/143/1 48/112/1 55/129/1
f  61/144/6 43/109/6 56/132/6
f  56/132/5 43/109/5 61/144/5
f  55/145/7 56/146/7 50/147/7
f  50/147/8 56/146/8 55/145/8
f  40/136/7 53/135/7 58/148/7
f  58/148/8 53/135/8 40/136/8
f  57/138/6 43/109/6 62/149/6
f  62/149/5 43/109/5 57/138/5
f  53/127/6 57/138/6 63/150/6
f  63/150/5 57/138/5 53/127/5
f  54/128/2 58/139/2 63/151/2
f  63/151/1 58/139/1 54/128/1
f  48/141/3 59/140/3 64/152/3
f  64/152/4 59/140/4 48/141/4
f  63/153/8 59/154/8 54/155/8
f  54/155/7 59/154/7 63/153/7
f  65/156/2 60/143/2 48/112/2
f  48/112/1 60/143/1 65/156/1
f  66/157/3 55/158/3 60/159/3
f  60/159/4 55/158/4 66/157/4
f  62/149/6 43/109/6 61/144/6
f  61/144/5 43/109/5 62/149/5
f  67/129/2 61/160/2 56/118/2
f  56/118/1 61/160/1 67/129/1
f  56/146/7 55/145/7 67/161/7
f  67/161/8 55/145/8 56/146/8
f  63/150/6 58/162/6 53/127/6
f  53/127/5 58/162/5 63/150/5
f  64/112/2 57/151/2 62/156/2
f  62/156/1 57/151/1 64/112/1
f  59/154/8 63/153/8 57/163/8
f  57/163/7 63/153/7 59/154/7
f  57/151/2 64/112/2 59/128/2
f  59/128/1 64/112/1 57/151/1
f  62/164/7 48/165/7 64/166/7
f  64/166/8 48/165/8 62/164/8
f  60/143/2 65/156/2 68/160/2
f  68/160/1 65/156/1 60/143/1
f  48/165/7 62/164/7 65/167/7
f  65/167/8 62/164/8 48/165/8
f  55/158/3 66/157/3 67/168/3
f  67/168/4 66/157/4 55/158/4
f  68/169/8 66/170/8 60/171/8
f  60/171/7 66/170/7 68/169/7
f  68/172/6 62/149/6 61/144/6
f  61/144/5 62/149/5 68/172/5
f  61/160/2 67/129/2 66/143/2
f  66/143/1 67/129/1 61/160/1
f  62/149/6 68/172/6 65/173/6
f  65/173/5 68/172/5 62/149/5
f  66/170/8 68/169/8 61/174/8
f  61/174/7 68/169/7 66/170/7

# Mesh 'mesh2_mesh2-geometry' with 24 faces
g mesh2_mesh2-geometry
usemtl material_1_24
f  69//7 46//7 66//7
f  46//7 69//7 70//7
f  66//8 46//8 69//8
f  70//8 69//8 46//8
f  35//4 66//4 46//4
f  46//3 66//3 35//3
f  66//1 71//1 69//1
f  69//2 71//2 66//2
f  69//3 72//3 70//3
f  70//4 72//4 69//4
f  70//2 35//2 46//2
f  46//1 35//1 70//1
f  66//4 35//4 67//4
f  67//3 35//3 66//3
f  71//1 66//1 67//1
f  67//2 66//2 71//2
f  72//3 69//3 71//3
f  71//4 69//4 72//4
f  35//2 70//2 72//2
f  72//1 70//1 35//1
f  72//8 67//8 35//8
f  35//7 67//7 72//7
f  67//8 72//8 71//8
f  71//7 72//7 67//7

# Mesh 'mesh3_mesh3-geometry' with 24 faces
g mesh3_mesh3-geometry
usemtl material_1_24
f  73//1 47//1 52//1
f  47//1 73//1 74//1
f  52//2 47//2 73//2
f  74//2 73//2 47//2
f  9//4 52//4 47//4
f  47//3 52//3 9//3
f  5//8 73//8 52//8
f  52//7 73//7 5//7
f  73//3 75//3 74//3
f  74//4 75//4 73//4
f  74//7 9//7 47//7
f  47//8 9//8 74//8
f  52//4 9//4 5//4
f  5//3 9//3 52//3
f  73//8 5//8 76//8
f  76//7 5//7 73//7
f  75//3 73//3 76//3
f  76//4 73//4 75//4
f  9//7 74//7 75//7
f  75//8 74//8 9//8
f  75//2 5//2 9//2
f  9//1 5//1 75//1
f  5//2 75//2 76//2
f  76//1 75//1 5//1

# Mesh 'mesh4_mesh4-geometry' with 24 faces
g mesh4_mesh4-geometry
usemtl material_1_24
f  77//7 37//7 59//7
f  37//7 77//7 78//7
f  59//8 37//8 77//8
f  78//8 77//8 37//8
f  25//4 59//4 37//4
f  37//3 59//3 25//3
f  59//1 79//1 77//1
f  77//2 79//2 59//2
f  77//3 80//3 78//3
f  78//4 80//4 77//4
f  78//2 25//2 37//2
f  37//1 25//1 78//1
f  59//4 25//4 64//4
f  64//3 25//3 59//3
f  79//1 59//1 64//1
f  64//2 59//2 79//2
f  80//3 77//3 79//3
f  79//4 77//4 80//4
f  25//2 78//2 80//2
f  80//1 78//1 25//1
f  25//8 79//8 64//8
f  64//7 79//7 25//7
f  79//8 25//8 80//8
f  80//7 25//7 79//7

