# File produced by Open Asset Import Library (http://www.assimp.sf.net)
# (assimp v3.2.202087883)

mtllib model_normalized.mtl

# 100 vertex positions
v -0.266308 -0.147254 0.164425
v 0.102364 -0.147254 -0.089884
v 0.102364 -0.147254 0.164425
v -0.266308 -0.147254 -0.089884
v -0.266308 0.003225 0.164425
v 0.102364 0.003225 -0.089884
v 0.102364 0.003225 0.164425
v -0.266308 0.003225 -0.089884
v -0.266308 0.349325 0.171949
v 0.297986 0.349325 -0.106436
v 0.297986 0.349325 0.171949
v -0.266308 0.349325 -0.106436
v 0.297986 -0.373005 0.171949
v 0.313016 0.364355 0.171949
v -0.266308 0.153703 -0.106436
v -0.281355 0.364355 -0.106436
v 0.297986 0.161227 -0.106436
v -0.281355 0.364355 0.171949
v -0.266308 0.153703 -0.097408
v 0.313016 0.364355 -0.106436
v 0.297986 -0.373005 -0.106436
v 0.313016 -0.388036 0.171949
v -0.266308 -0.373005 0.171949
v -0.281355 0.153703 -0.097408
v -0.281355 0.153703 -0.106436
v 0.109888 -0.373005 -0.106436
v -0.281355 -0.388036 0.171949
v 0.313016 -0.388036 -0.106436
v -0.266308 -0.373005 -0.097408
v 0.109888 -0.373005 0.164425
v 0.102364 -0.373005 -0.106436
v -0.266308 -0.373005 -0.106436
v -0.281355 -0.373005 -0.097408
v -0.281355 -0.388036 -0.106436
v -0.281355 -0.373005 -0.106436
v 0.102364 -0.373005 0.164425
v 0.109888 -0.034395 -0.106436
v 0.297986 -0.034395 0.171949
v 0.297986 -0.034395 -0.106436
v 0.109888 -0.034395 0.164425
v 0.297986 -0.041919 -0.106436
v 0.109888 -0.041919 0.164425
v 0.109888 -0.034395 0.171949
v 0.297986 -0.041919 0.171949
v 0.109888 -0.041919 -0.106436
v 0.109888 -0.041919 0.171949
v 0.090601 -0.035660 -0.106436
v 0.083077 -0.081556 -0.106436
v 0.090601 -0.081556 -0.106436
v 0.083077 -0.035660 -0.106436
v 0.090601 -0.081556 -0.112004
v 0.083077 -0.035660 -0.112004
v 0.083077 -0.081556 -0.112004
v 0.090601 -0.035660 -0.112004
v -0.266308 0.161227 -0.106436
v 0.297986 0.153703 -0.106436
v -0.266308 0.153703 0.171949
v 0.297986 0.161227 0.171949
v 0.297986 0.153703 0.171949
v -0.266308 0.161227 0.171949
v -0.078210 0.349325 0.171949
v -0.078210 0.161227 -0.106436
v -0.078210 0.349325 -0.106436
v -0.078210 0.161227 0.171949
v -0.085734 0.349325 -0.106436
v -0.085734 0.161227 0.171949
v -0.085734 0.161227 -0.106436
v -0.085734 0.349325 0.171949
v -0.266308 0.153703 0.164425
v -0.266308 -0.373005 0.164425
v 0.109888 -0.373005 0.171949
v 0.109888 0.153703 0.171949
v 0.109888 0.153703 0.164425
v 0.102364 0.153703 -0.106436
v 0.109888 0.153703 -0.106436
v 0.102364 0.153703 0.164425
v 0.002296 0.153703 -0.106436
v 0.002296 -0.373005 -0.106436
v 0.002296 -0.373005 -0.102674
v 0.102364 0.153703 -0.098912
v 0.002296 -0.373005 -0.098912
v 0.002296 0.153703 -0.102674
v 0.102364 -0.373005 -0.098912
v -0.166240 -0.373005 -0.102674
v 0.002296 0.153703 -0.098912
v -0.166240 -0.373005 -0.098912
v -0.166240 0.153703 -0.102674
v -0.166240 0.153703 -0.098912
v -0.166240 -0.373005 -0.106436
v -0.281355 -0.373005 -0.098912
v -0.166240 0.153703 -0.106436
v -0.281355 0.153703 -0.098912
v 0.109888 0.349325 0.171949
v 0.109888 0.161227 -0.106436
v 0.109888 0.349325 -0.106436
v 0.109888 0.161227 0.171949
v 0.102364 0.349325 -0.106436
v 0.102364 0.161227 0.171949
v 0.102364 0.161227 -0.106436
v 0.102364 0.349325 0.171949

# 8 UV coordinates
vt -0.803806 0.554462 0
vt -0 -0 0
vt 0 0.554462 0
vt -0.803806 -0 0
vt -0.58563 1.14837 0
vt -0.218176 0 0
vt -0.218176 1.14837 0
vt -0.58563 -0 0

# 6 vertex normals
vn -0 -0.001 0
vn 0 0.001 0
vn -0.001 0 0
vn 0.001 -0 -0
vn 0 0 0.001
vn 0 0 -0.001

# Mesh 'mesh1_mesh1-geometry' with 4 faces
g mesh1_mesh1-geometry
usemtl material_0_1_8
f  1/1/1 2/2/1 3/3/1
f  2/2/1 1/1/1 4/4/1
f  3/3/2 2/2/2 1/1/2
f  4/4/2 1/1/2 2/2/2

# Mesh 'mesh2_mesh2-geometry' with 4 faces
g mesh2_mesh2-geometry
usemtl material_0_1_8
f  5/1/1 6/2/1 7/3/1
f  6/2/1 5/1/1 8/4/1
f  7/3/2 6/2/2 5/1/2
f  8/4/2 5/1/2 6/2/2

# Mesh 'mesh3_mesh3-geometry' with 108 faces
g mesh3_mesh3-geometry
usemtl material_1_24
f  9//1 10//1 11//1
f  10//1 9//1 12//1
f  11//2 10//2 9//2
f  12//2 9//2 10//2
f  10//3 13//3 11//3
f  11//4 13//4 10//4
f  11//5 14//5 9//5
f  9//6 14//6 11//6
f  9//4 15//4 12//4
f  12//3 15//3 9//3
f  12//6 16//6 10//6
f  10//5 16//5 12//5
f  17//3 13//3 10//3
f  10//4 13//4 17//4
f  13//5 14//5 11//5
f  11//6 14//6 13//6
f  18//5 9//5 14//5
f  14//6 9//6 18//6
f  15//4 9//4 19//4
f  19//3 9//3 15//3
f  15//6 16//6 12//6
f  12//5 16//5 15//5
f  20//6 10//6 16//6
f  16//5 10//5 20//5
f  13//3 17//3 21//3
f  21//4 17//4 13//4
f  20//6 17//6 10//6
f  10//5 17//5 20//5
f  13//5 22//5 14//5
f  14//6 22//6 13//6
f  18//5 23//5 9//5
f  9//6 23//6 18//6
f  14//2 16//2 18//2
f  18//1 16//1 14//1
f  23//4 19//4 9//4
f  9//3 19//3 23//3
f  24//1 15//1 19//1
f  19//2 15//2 24//2
f  16//6 15//6 25//6
f  25//5 15//5 16//5
f  16//2 14//2 20//2
f  20//1 14//1 16//1
f  20//6 21//6 17//6
f  17//5 21//5 20//5
f  26//2 13//2 21//2
f  21//1 13//1 26//1
f  22//5 13//5 27//5
f  27//6 13//6 22//6
f  28//4 14//4 22//4
f  22//3 14//3 28//3
f  27//5 23//5 18//5
f  18//6 23//6 27//6
f  25//3 18//3 16//3
f  16//4 18//4 25//4
f  19//4 23//4 29//4
f  29//3 23//3 19//3
f  15//1 24//1 25//1
f  25//2 24//2 15//2
f  29//6 24//6 19//6
f  19//5 24//5 29//5
f  14//4 28//4 20//4
f  20//3 28//3 14//3
f  28//6 21//6 20//6
f  20//5 21//5 28//5
f  13//2 26//2 30//2
f  30//1 26//1 13//1
f  21//6 31//6 26//6
f  26//5 31//5 21//5
f  23//5 27//5 13//5
f  13//6 27//6 23//6
f  27//1 28//1 22//1
f  22//2 28//2 27//2
f  18//3 24//3 27//3
f  27//4 24//4 18//4
f  18//3 25//3 24//3
f  24//4 25//4 18//4
f  23//2 32//2 29//2
f  29//1 32//1 23//1
f  24//6 29//6 33//6
f  33//5 29//5 24//5
f  21//6 28//6 34//6
f  34//5 28//5 21//5
f  30//2 23//2 13//2
f  13//1 23//1 30//1
f  31//6 21//6 32//6
f  32//5 21//5 31//5
f  28//1 27//1 34//1
f  34//2 27//2 28//2
f  33//3 27//3 24//3
f  24//4 27//4 33//4
f  23//2 31//2 32//2
f  32//1 31//1 23//1
f  35//2 29//2 32//2
f  32//1 29//1 35//1
f  29//2 35//2 33//2
f  33//1 35//1 29//1
f  21//6 34//6 35//6
f  35//5 34//5 21//5
f  23//2 30//2 36//2
f  36//1 30//1 23//1
f  21//6 35//6 32//6
f  32//5 35//5 21//5
f  27//3 35//3 34//3
f  34//4 35//4 27//4
f  35//3 27//3 33//3
f  33//4 27//4 35//4
f  23//2 36//2 31//2
f  31//1 36//1 23//1

# Mesh 'mesh4_mesh4-geometry' with 37 faces
g mesh4_mesh4-geometry
usemtl material_2_0
l  27 18
l  22 27
l  27 34
l  18 16
l  14 18
l  28 22
l  22 14
l  34 35
l  34 28
l  16 20
l  25 16
l  20 14
l  28 20
l  32 35
l  35 33
l  15 25
l  25 24
l  31 32
l  32 29
l  29 33
l  33 24
l  15 12
l  15 19
l  19 24
l  29 19
l  29 23
l  12 9
l  12 10
l  13 23
l  23 9
l  9 11
l  10 11
l  10 17
l  21 13
l  11 13
l  17 21
l  21 26

# Mesh 'mesh5_mesh5-geometry' with 32 faces
g mesh5_mesh5-geometry
usemtl material_1_24
f  37//2 38//2 39//2
f  38//2 37//2 40//2
f  39//1 38//1 37//1
f  40//1 37//1 38//1
f  38//4 41//4 39//4
f  39//3 41//3 38//3
f  41//6 37//6 39//6
f  39//5 37//5 41//5
f  37//3 42//3 40//3
f  40//4 42//4 37//4
f  43//2 38//2 40//2
f  40//1 38//1 43//1
f  41//4 38//4 44//4
f  44//3 38//3 41//3
f  37//6 41//6 45//6
f  45//5 41//5 37//5
f  42//3 37//3 45//3
f  45//4 37//4 42//4
f  46//3 40//3 42//3
f  42//4 40//4 46//4
f  46//5 38//5 43//5
f  43//6 38//6 46//6
f  40//3 46//3 43//3
f  43//4 46//4 40//4
f  38//5 46//5 44//5
f  44//6 46//6 38//6
f  46//1 41//1 44//1
f  44//2 41//2 46//2
f  45//1 41//1 42//1
f  42//2 41//2 45//2
f  41//1 46//1 42//1
f  42//2 46//2 41//2

# Mesh 'mesh6_mesh6-geometry' with 15 faces
g mesh6_mesh6-geometry
usemtl material_2_0
l  37 40
l  39 37
l  37 45
l  40 43
l  40 42
l  38 39
l  39 41
l  45 42
l  41 45
l  43 38
l  43 46
l  42 46
l  38 44
l  44 41
l  46 44

# Mesh 'mesh7_mesh7-geometry' with 24 faces
g mesh7_mesh7-geometry
usemtl material_2_24
f  47//5 48//5 49//5
f  48//5 47//5 50//5
f  49//6 48//6 47//6
f  50//6 47//6 48//6
f  48//1 51//1 49//1
f  49//2 51//2 48//2
f  51//4 47//4 49//4
f  49//3 47//3 51//3
f  47//2 52//2 50//2
f  50//1 52//1 47//1
f  52//3 48//3 50//3
f  50//4 48//4 52//4
f  51//1 48//1 53//1
f  53//2 48//2 51//2
f  47//4 51//4 54//4
f  54//3 51//3 47//3
f  52//2 47//2 54//2
f  54//1 47//1 52//1
f  48//3 52//3 53//3
f  53//4 52//4 48//4
f  52//6 51//6 53//6
f  53//5 51//5 52//5
f  51//6 52//6 54//6
f  54//5 52//5 51//5

# Mesh 'mesh8_mesh8-geometry' with 12 faces
g mesh8_mesh8-geometry
usemtl material_2_0
l  47 50
l  49 47
l  47 54
l  50 48
l  50 52
l  48 49
l  49 51
l  54 52
l  51 54
l  48 53
l  52 53
l  53 51

# Mesh 'mesh9_mesh9-geometry' with 24 faces
g mesh9_mesh9-geometry
usemtl material_1_24
f  55//6 56//6 15//6
f  56//6 55//6 17//6
f  15//5 56//5 55//5
f  17//5 55//5 56//5
f  56//1 57//1 15//1
f  15//2 57//2 56//2
f  57//3 55//3 15//3
f  15//4 55//4 57//4
f  55//2 58//2 17//2
f  17//1 58//1 55//1
f  58//4 56//4 17//4
f  17//3 56//3 58//3
f  57//1 56//1 59//1
f  59//2 56//2 57//2
f  55//3 57//3 60//3
f  60//4 57//4 55//4
f  58//2 55//2 60//2
f  60//1 55//1 58//1
f  56//4 58//4 59//4
f  59//3 58//3 56//3
f  58//5 57//5 59//5
f  59//6 57//6 58//6
f  57//5 58//5 60//5
f  60//6 58//6 57//6

# Mesh 'mesh10_mesh10-geometry' with 12 faces
g mesh10_mesh10-geometry
usemtl material_2_0
l  59 57
l  58 59
l  59 56
l  15 57
l  57 60
l  58 60
l  17 58
l  15 56
l  56 17
l  55 15
l  60 55
l  55 17

# Mesh 'mesh11_mesh11-geometry' with 24 faces
g mesh11_mesh11-geometry
usemtl material_1_24
f  61//4 62//4 63//4
f  62//4 61//4 64//4
f  63//3 62//3 61//3
f  64//3 61//3 62//3
f  62//6 65//6 63//6
f  63//5 65//5 62//5
f  65//2 61//2 63//2
f  63//1 61//1 65//1
f  61//5 66//5 64//5
f  64//6 66//6 61//6
f  66//1 62//1 64//1
f  64//2 62//2 66//2
f  65//6 62//6 67//6
f  67//5 62//5 65//5
f  61//2 65//2 68//2
f  68//1 65//1 61//1
f  66//5 61//5 68//5
f  68//6 61//6 66//6
f  62//1 66//1 67//1
f  67//2 66//2 62//2
f  66//3 65//3 67//3
f  67//4 65//4 66//4
f  65//3 66//3 68//3
f  68//4 66//4 65//4

# Mesh 'mesh12_mesh12-geometry' with 12 faces
g mesh12_mesh12-geometry
usemtl material_2_0
l  62 64
l  63 62
l  62 67
l  64 61
l  64 66
l  61 63
l  63 65
l  67 66
l  65 67
l  61 68
l  66 68
l  68 65

# Mesh 'mesh13_mesh13-geometry' with 24 faces
g mesh13_mesh13-geometry
usemtl material_1_24
f  23//3 69//3 70//3
f  69//3 23//3 57//3
f  70//4 69//4 23//4
f  57//4 23//4 69//4
f  69//6 30//6 70//6
f  70//5 30//5 69//5
f  30//1 23//1 70//1
f  70//2 23//2 30//2
f  71//5 57//5 23//5
f  23//6 57//6 71//6
f  72//2 69//2 57//2
f  57//1 69//1 72//1
f  30//6 69//6 73//6
f  73//5 69//5 30//5
f  23//1 30//1 71//1
f  71//2 30//2 23//2
f  57//5 71//5 72//5
f  72//6 71//6 57//6
f  69//2 72//2 73//2
f  73//1 72//1 69//1
f  72//4 30//4 73//4
f  73//3 30//3 72//3
f  30//4 72//4 71//4
f  71//3 72//3 30//3

# Mesh 'mesh14_mesh14-geometry' with 12 faces
g mesh14_mesh14-geometry
usemtl material_2_0
l  23 57
l  23 70
l  71 23
l  57 69
l  57 72
l  70 69
l  30 70
l  71 30
l  72 71
l  69 73
l  72 73
l  73 30

# Mesh 'mesh15_mesh15-geometry' with 16 faces
g mesh15_mesh15-geometry
usemtl material_1_24
f  74//6 26//6 31//6
f  26//6 74//6 75//6
f  31//5 26//5 74//5
f  75//5 74//5 26//5
f  36//3 74//3 31//3
f  31//4 74//4 36//4
f  74//2 73//2 75//2
f  75//1 73//1 74//1
f  73//4 26//4 75//4
f  75//3 26//3 73//3
f  74//3 36//3 76//3
f  76//4 36//4 74//4
f  73//2 74//2 76//2
f  76//1 74//1 73//1
f  26//4 73//4 30//4
f  30//3 73//3 26//3

# Mesh 'mesh16_mesh16-geometry' with 5 faces
g mesh16_mesh16-geometry
usemtl material_2_0
l  75 26
l  75 74
l  73 75
l  74 31
l  76 74

# Mesh 'mesh17_mesh17-geometry' with 72 faces
g mesh17_mesh17-geometry
usemtl material_1_24
f  77/2/6 31/2/6 78/2/6
f  31/2/6 77/2/6 74/2/6
f  78/2/5 31/2/5 77/2/5
f  74/2/5 77/2/5 31/2/5
f  31/2/1 79/2/1 78/2/1
f  78/2/2 79/2/2 31/2/2
f  79/2/3 77/2/3 78/2/3
f  78/2/4 77/2/4 79/2/4
f  77/2/2 80/2/2 74/2/2
f  74/2/1 80/2/1 77/2/1
f  80/2/4 31/2/4 74/2/4
f  74/2/3 31/2/3 80/2/3
f  31/2/1 81/2/1 79/2/1
f  79/2/2 81/2/2 31/2/2
f  77/2/3 79/2/3 82/2/3
f  82/2/4 79/2/4 77/2/4
f  80/2/2 77/2/2 82/2/2
f  82/2/1 77/2/1 80/2/1
f  31/2/4 80/2/4 83/2/4
f  83/2/3 80/2/3 31/2/3
f  81/2/1 31/2/1 83/2/1
f  83/2/2 31/2/2 81/2/2
f  81/2/1 84/2/1 79/2/1
f  79/2/2 84/2/2 81/2/2
f  81/2/3 82/2/3 79/2/3
f  79/2/4 82/2/4 81/2/4
f  80/2/2 82/2/2 85/2/2
f  85/2/1 82/2/1 80/2/1
f  85/2/5 83/2/5 80/2/5
f  80/2/6 83/2/6 85/2/6
f  83/2/5 85/2/5 81/2/5
f  81/2/6 85/2/6 83/2/6
f  84/2/1 81/2/1 86/2/1
f  86/2/2 81/2/2 84/2/2
f  82/2/3 81/2/3 85/2/3
f  85/2/4 81/2/4 82/2/4
f  87/2/2 85/2/2 82/2/2
f  82/2/1 85/2/1 87/2/1
f  35/2/1 84/2/1 86/2/1
f  86/2/2 84/2/2 35/2/2
f  84/2/4 88/2/4 86/2/4
f  86/2/3 88/2/3 84/2/3
f  89/2/4 87/2/4 84/2/4
f  84/2/3 87/2/3 89/2/3
f  88/2/4 84/2/4 87/2/4
f  87/2/3 84/2/3 88/2/3
f  85/2/2 87/2/2 88/2/2
f  88/2/1 87/2/1 85/2/1
f  84/2/1 35/2/1 89/2/1
f  89/2/2 35/2/2 84/2/2
f  35/2/1 86/2/1 90/2/1
f  90/2/2 86/2/2 35/2/2
f  88/2/5 90/2/5 86/2/5
f  86/2/6 90/2/6 88/2/6
f  87/2/4 89/2/4 91/2/4
f  91/2/3 89/2/3 87/2/3
f  87/2/2 25/2/2 88/2/2
f  88/2/1 25/2/1 87/2/1
f  25/2/6 89/2/6 35/2/6
f  35/2/5 89/2/5 25/2/5
f  90/2/3 25/2/3 35/2/3
f  35/2/4 25/2/4 90/2/4
f  90/2/5 88/2/5 92/2/5
f  92/2/6 88/2/6 90/2/6
f  89/2/6 25/2/6 91/2/6
f  91/2/5 25/2/5 89/2/5
f  25/2/2 87/2/2 91/2/2
f  91/2/1 87/2/1 25/2/1
f  88/2/2 25/2/2 92/2/2
f  92/2/1 25/2/1 88/2/1
f  25/2/3 90/2/3 92/2/3
f  92/2/4 90/2/4 25/2/4

# Mesh 'mesh17_mesh17-geometry' with 4 faces
g mesh17_mesh17-geometry
usemtl material_0_1_8
f  87/5/5 79/6/5 82/7/5
f  82/7/6 79/6/6 87/5/6
f  79/6/5 87/5/5 84/8/5
f  84/8/6 87/5/6 79/6/6

# Mesh 'mesh18_mesh18-geometry' with 14 faces
g mesh18_mesh18-geometry
usemtl material_2_0
l  90 86
l  92 90
l  90 35
l  88 86
l  84 86
l  92 25
l  88 92
l  35 89
l  25 35
l  87 88
l  89 84
l  91 25
l  91 89
l  91 87

# Mesh 'mesh19_mesh19-geometry' with 14 faces
g mesh19_mesh19-geometry
usemtl material_2_0
l  83 80
l  83 31
l  81 83
l  80 85
l  80 74
l  31 74
l  78 31
l  81 85
l  79 81
l  82 85
l  74 77
l  78 77
l  78 79
l  77 82

# Mesh 'mesh20_mesh20-geometry' with 24 faces
g mesh20_mesh20-geometry
usemtl material_1_24
f  93//4 94//4 95//4
f  94//4 93//4 96//4
f  95//3 94//3 93//3
f  96//3 93//3 94//3
f  94//6 97//6 95//6
f  95//5 97//5 94//5
f  97//2 93//2 95//2
f  95//1 93//1 97//1
f  93//5 98//5 96//5
f  96//6 98//6 93//6
f  98//1 94//1 96//1
f  96//2 94//2 98//2
f  97//6 94//6 99//6
f  99//5 94//5 97//5
f  93//2 97//2 100//2
f  100//1 97//1 93//1
f  98//5 93//5 100//5
f  100//6 93//6 98//6
f  94//1 98//1 99//1
f  99//2 98//2 94//2
f  98//3 97//3 99//3
f  99//4 97//4 98//4
f  97//3 98//3 100//3
f  100//4 98//4 97//4

# Mesh 'mesh21_mesh21-geometry' with 12 faces
g mesh21_mesh21-geometry
usemtl material_2_0
l  94 96
l  95 94
l  94 99
l  96 93
l  96 98
l  93 95
l  95 97
l  99 98
l  97 99
l  93 100
l  98 100
l  100 97

# Mesh 'mesh22_mesh22-geometry' with 6 faces
g mesh22_mesh22-geometry
usemtl material_2_24
f  26//2 36//2 30//2
f  36//2 26//2 31//2
f  30//1 36//1 26//1
f  31//1 26//1 36//1
f  36//2 31//2 83//2
f  83//1 31//1 36//1

# Mesh 'mesh23_mesh23-geometry' with 2 faces
g mesh23_mesh23-geometry
usemtl material_2_0
l  30 40
l  40 73

# Mesh 'mesh24_mesh24-geometry' with 2 faces
g mesh24_mesh24-geometry
usemtl material_2_0
l  36 7
l  7 76

