# File produced by Open Asset Import Library (http://www.assimp.sf.net)
# (assimp v3.2.202087883)

mtllib model_normalized.mtl

# 98 vertex positions
v -0.095395 -0.306996 0.060001
v 0.171148 -0.306996 -0.073270
v 0.171148 -0.306996 0.060001
v -0.095395 -0.306996 -0.073270
v 0.171148 -0.296571 0.060001
v -0.095395 -0.296571 -0.073270
v 0.171148 -0.296571 -0.073270
v -0.095395 -0.296571 0.060001
v 0.082257 -0.267015 0.015622
v 0.082257 -0.267015 0.060001
v -0.006503 -0.267015 0.060001
v -0.006503 -0.267015 0.015622
v 0.082257 0.025306 0.060001
v -0.006503 0.025306 0.060001
v -0.006503 0.078614 0.015622
v 0.082257 0.078614 0.015622
v -0.361938 -0.174601 -0.037687
v -0.348611 -0.161275 -0.037687
v 0.437692 -0.174601 -0.037687
v -0.361938 0.278521 -0.037687
v 0.424364 -0.161275 -0.037687
v 0.437692 -0.174601 -0.011033
v -0.361938 -0.174601 -0.011033
v -0.348611 0.265194 -0.037687
v 0.437692 0.278521 -0.037687
v 0.424364 -0.161275 -0.032356
v 0.437692 0.278521 -0.011033
v -0.361938 0.278521 -0.011033
v 0.424364 0.265194 -0.037687
v -0.348611 0.265194 -0.032356
v -0.348611 -0.161275 -0.032356
v 0.421377 -0.158287 -0.006796
v -0.361938 0.078614 -0.011033
v 0.424364 0.265194 -0.032356
v -0.345623 -0.158287 -0.006796
v 0.421377 0.262208 -0.006796
v -0.345623 0.262208 -0.006796
v 0.404973 -0.141884 -0.002922
v -0.345623 0.078614 -0.006796
v -0.329220 -0.141884 -0.002922
v -0.329220 0.245803 -0.002922
v 0.404973 0.245803 -0.002922
v 0.388488 -0.125398 0.000590
v -0.329220 0.078614 -0.002922
v -0.312734 -0.125398 0.000590
v -0.312734 0.229318 0.000590
v 0.388488 0.229318 0.000590
v 0.371929 -0.108839 0.003737
v -0.312734 0.078614 0.000590
v -0.296175 -0.108839 0.003737
v -0.296175 0.212759 0.003737
v 0.371929 0.212759 0.003737
v 0.355304 -0.092215 0.006517
v -0.296175 0.078614 0.003737
v -0.279551 -0.092215 0.006517
v -0.279551 0.196134 0.006517
v 0.355304 0.196134 0.006517
v 0.338622 -0.075532 0.008929
v -0.279551 0.078614 0.006517
v -0.262868 -0.075532 0.008929
v -0.262868 0.179453 0.008929
v 0.338622 0.179453 0.008929
v 0.321891 -0.058801 0.010972
v -0.262868 0.078614 0.008929
v -0.246137 -0.058801 0.010972
v -0.246137 0.162722 0.010972
v 0.321891 0.162722 0.010972
v 0.305119 -0.042029 0.012645
v -0.246137 0.078614 0.010972
v -0.229365 -0.042029 0.012645
v -0.229365 0.145950 0.012645
v 0.305119 0.145950 0.012645
v 0.288314 -0.025224 0.013946
v -0.229365 0.078614 0.012645
v -0.212561 -0.025224 0.013946
v -0.212561 0.129144 0.013946
v 0.288314 0.129144 0.013946
v 0.271484 -0.008395 0.014877
v -0.212561 0.078614 0.013946
v -0.195731 -0.008395 0.014877
v -0.195731 0.112315 0.014877
v 0.271484 0.112315 0.014877
v 0.254639 0.008452 0.015435
v -0.195731 0.078614 0.014877
v -0.178884 0.008452 0.015435
v -0.178884 0.095469 0.015435
v 0.254639 0.095469 0.015435
v 0.237784 0.025306 0.015622
v -0.178884 0.078614 0.015435
v -0.162031 0.025306 0.015622
v -0.162031 0.078614 0.015622
v 0.237784 0.078614 0.015622
v 0.054097 -0.178006 -0.037687
v 0.018347 -0.178006 -0.037687
v 0.054097 -0.157880 -0.037687
v 0.018347 -0.157880 -0.037687
v 0.424364 -0.161275 -0.032356
v -0.348611 -0.161275 -0.032356

# 4 UV coordinates
vt 0 0 0
vt 1 0 0
vt 0 1 0
vt 1 1 0

# 118 vertex normals
vn 0 -0.0254 0
vn 0 0.0254 0
vn 0.0254 0 0
vn -0.0254 0 0
vn 0 0 0.0254
vn 0 -0 -0.0254
vn 0.00801408 0.0241026 0
vn -0.00801408 -0.0241026 0
vn -0.00801408 0.0241026 0
vn 0.00801408 -0.0241026 -0
vn 0 0.0241026 -0.00801408
vn 0 -0.0241026 0.00801408
vn 0 0.0162512 0.0195207
vn -0 -0.0162512 -0.0195207
vn 0 -0.0061119 0.0246537
vn 0 -0.00638386 0.0245847
vn 0 0.00638386 -0.0245847
vn 0 0.0061119 -0.0246537
vn 0.00638386 0 0.0245847
vn 0.0061119 0 0.0246537
vn -0.00638386 0 -0.0245847
vn -0.0061119 0 -0.0246537
vn -0.0061119 0 0.0246537
vn -0.00638386 0 0.0245847
vn 0.00638386 0 -0.0245847
vn 0.0061119 0 -0.0246537
vn 0 0.0061119 0.0246537
vn 0 0.00638386 0.0245847
vn 0 -0.00638386 -0.0245847
vn 0 -0.0061119 -0.0246537
vn 0 -0.00556583 0.0247827
vn 0 0.00556583 -0.0247827
vn 0.00556583 0 0.0247827
vn -0.00556583 0 -0.0247827
vn 0 0.00556583 0.0247827
vn 0 -0.00556583 -0.0247827
vn -0.00556583 0 0.0247827
vn 0.00556583 -0 -0.0247827
vn 0 -0.00501701 0.0248996
vn 0 0.00501701 -0.0248996
vn 0.00501701 0 0.0248996
vn -0.00501701 0 -0.0248996
vn 0 0.00501701 0.0248996
vn 0 -0.00501701 -0.0248996
vn -0.00501701 0 0.0248996
vn 0.00501701 -0 -0.0248996
vn 0 -0.00446575 0.0250043
vn 0 0.00446575 -0.0250043
vn 0.00446575 0 0.0250043
vn -0.00446575 0 -0.0250043
vn 0 0.00446575 0.0250043
vn 0 -0.00446575 -0.0250043
vn -0.00446575 0 0.0250043
vn 0.00446575 -0 -0.0250043
vn 0 -0.00391231 0.0250969
vn 0 0.00391231 -0.0250969
vn 0.00391231 0 0.0250969
vn -0.00391231 0 -0.0250969
vn 0 0.00391231 0.0250969
vn 0 -0.00391231 -0.0250969
vn -0.00391231 0 0.0250969
vn 0.00391231 -0 -0.0250969
vn 0 -0.00335697 0.0251772
vn 0 0.00335697 -0.0251772
vn 0.00335697 0 0.0251772
vn -0.00335697 0 -0.0251772
vn 0 0.00335697 0.0251772
vn 0 -0.00335697 -0.0251772
vn -0.00335697 0 0.0251772
vn 0.00335697 -0 -0.0251772
vn 0 -0.00279997 0.0252452
vn 0 0.00279997 -0.0252452
vn 0.00279997 0 0.0252452
vn -0.00279997 0 -0.0252452
vn 0 0.00279997 0.0252452
vn 0 -0.00279997 -0.0252452
vn -0.00279997 0 0.0252452
vn 0.00279997 -0 -0.0252452
vn 0 -0.00224163 0.0253009
vn 0 0.00224163 -0.0253009
vn 0.00224163 0 0.0253009
vn -0.00224163 0 -0.0253009
vn 0 0.00224163 0.0253009
vn 0 -0.00224163 -0.0253009
vn -0.00224163 0 0.0253009
vn 0.00224163 -0 -0.0253009
vn 0 -0.00168217 0.0253442
vn 0 0.00168217 -0.0253442
vn 0.00168217 0 0.0253442
vn -0.00168217 0 -0.0253442
vn 0 0.00168217 0.0253442
vn 0 -0.00168217 -0.0253442
vn -0.00168217 0 0.0253442
vn 0.00168217 -0 -0.0253442
vn 0 -0.00112189 0.0253752
vn 0 0.00112189 -0.0253752
vn 0.00112189 0 0.0253752
vn -0.00112189 0 -0.0253752
vn 0 0.00112189 0.0253752
vn 0 -0.00112189 -0.0253752
vn -0.00112189 0 0.0253752
vn 0.00112189 -0 -0.0253752
vn 0 -0.000561086 0.0253938
vn 0 0.000561086 -0.0253938
vn 0.000561086 0 0.0253938
vn -0.000561086 0 -0.0253938
vn 0 0.000561086 0.0253938
vn 0 -0.000561086 -0.0253938
vn -0.000561086 0 0.0253938
vn 0.000561086 -0 -0.0253938
vn 0 -0.000280568 0.0253985
vn 0 0.000280568 -0.0253985
vn 0.000280568 0 0.0253985
vn -0.000280568 0 -0.0253985
vn 0 0.000280568 0.0253985
vn 0 -0.000280568 -0.0253985
vn -0.000280568 0 0.0253985
vn 0.000280568 -0 -0.0253985

# Mesh 'mesh1_mesh1-geometry' with 56 faces
g mesh1_mesh1-geometry
usemtl material_0_24
f  1//1 2//1 3//1
f  2//1 1//1 4//1
f  3//2 2//2 1//2
f  4//2 1//2 2//2
f  2//3 5//3 3//3
f  3//4 5//4 2//4
f  5//5 1//5 3//5
f  3//6 1//6 5//6
f  1//4 6//4 4//4
f  4//3 6//3 1//3
f  6//6 2//6 4//6
f  4//5 2//5 6//5
f  5//3 2//3 7//3
f  7//4 2//4 5//4
f  1//5 5//5 8//5
f  8//6 5//6 1//6
f  6//4 1//4 8//4
f  8//3 1//3 6//3
f  2//6 6//6 7//6
f  7//5 6//5 2//5
f  9//7 5//7 7//7
f  7//8 5//8 9//8
f  8//5 5//5 10//5
f  10//6 5//6 8//6
f  11//9 6//9 8//9
f  8//10 6//10 11//10
f  6//11 9//11 7//11
f  7//12 9//12 6//12
f  5//7 9//7 10//7
f  10//8 9//8 5//8
f  8//5 10//5 11//5
f  11//6 10//6 8//6
f  6//9 11//9 12//9
f  12//10 11//10 6//10
f  9//11 6//11 12//11
f  12//12 6//12 9//12
f  9//3 13//3 10//3
f  10//4 13//4 9//4
f  11//5 10//5 13//5
f  13//6 10//6 11//6
f  14//4 12//4 11//4
f  11//3 12//3 14//3
f  15//6 9//6 12//6
f  12//5 9//5 15//5
f  13//3 9//3 16//3
f  16//4 9//4 13//4
f  11//5 13//5 14//5
f  14//6 13//6 11//6
f  12//4 14//4 15//4
f  15//3 14//3 12//3
f  9//6 15//6 16//6
f  16//5 15//5 9//5
f  16//13 14//13 13//13
f  13//14 14//14 16//14
f  14//13 16//13 15//13
f  15//14 16//14 14//14

# Mesh 'mesh2_mesh2-geometry' with 26 faces
g mesh2_mesh2-geometry
usemtl material_1_0
l  4 6
l  4 1
l  2 4
l  7 6
l  6 8
l  12 6
l  3 1
l  1 8
l  2 3
l  2 7
l  5 7
l  9 7
l  11 8
l  12 15
l  9 12
l  12 11
l  3 5
l  10 5
l  9 16
l  10 9
l  11 14
l  15 14
l  15 16
l  10 13
l  16 13
l  13 14

# Mesh 'mesh3_mesh3-geometry' with 292 faces
g mesh3_mesh3-geometry
usemtl material_0_24
f  17//6 18//6 19//6
f  18//6 17//6 20//6
f  19//5 18//5 17//5
f  20//5 17//5 18//5
f  21//6 19//6 18//6
f  18//5 19//5 21//5
f  22//1 17//1 19//1
f  19//2 17//2 22//2
f  23//4 20//4 17//4
f  17//3 20//3 23//3
f  18//6 20//6 24//6
f  24//5 20//5 18//5
f  19//6 21//6 25//6
f  25//5 21//5 19//5
f  18//2 26//2 21//2
f  21//1 26//1 18//1
f  17//1 22//1 23//1
f  23//2 22//2 17//2
f  19//3 27//3 22//3
f  22//4 27//4 19//4
f  20//4 23//4 28//4
f  28//3 23//3 20//3
f  24//6 20//6 29//6
f  29//5 20//5 24//5
f  30//3 18//3 24//3
f  24//4 18//4 30//4
f  25//6 21//6 29//6
f  29//5 21//5 25//5
f  27//3 19//3 25//3
f  25//4 19//4 27//4
f  26//2 18//2 31//2
f  31//1 18//1 26//1
f  26//4 29//4 21//4
f  21//3 29//3 26//3
f  32//15 23//16 22//16
f  22//17 23//17 32//18
f  27//19 32//20 22//19
f  22//21 32//22 27//21
f  28//4 23//4 33//4
f  33//3 23//3 28//3
f  27//2 20//2 28//2
f  28//1 20//1 27//1
f  25//6 29//6 20//6
f  20//5 29//5 25//5
f  29//1 30//1 24//1
f  24//2 30//2 29//2
f  18//3 30//3 31//3
f  31//4 30//4 18//4
f  20//2 27//2 25//2
f  25//1 27//1 20//1
f  29//4 26//4 34//4
f  34//3 26//3 29//3
f  23//16 32//15 35//15
f  35//18 32//18 23//17
f  32//20 27//19 36//20
f  36//22 27//21 32//22
f  35//23 33//24 23//24
f  23//25 33//25 35//26
f  33//24 37//23 28//24
f  28//25 37//26 33//25
f  37//27 27//28 28//28
f  28//29 27//29 37//30
f  30//1 29//1 34//1
f  34//2 29//2 30//2
f  38//31 35//15 32//15
f  32//18 35//18 38//32
f  27//28 37//27 36//27
f  36//30 37//30 27//29
f  36//20 38//33 32//20
f  32//22 38//34 36//22
f  33//24 35//23 39//23
f  39//26 35//26 33//25
f  33//24 39//23 37//23
f  37//26 39//26 33//25
f  35//15 38//31 40//31
f  40//32 38//32 35//18
f  41//35 36//27 37//27
f  37//30 36//30 41//36
f  38//33 36//20 42//33
f  42//34 36//22 38//34
f  40//37 39//23 35//23
f  35//26 39//26 40//38
f  39//23 41//37 37//23
f  37//26 41//38 39//26
f  43//39 40//31 38//31
f  38//32 40//32 43//40
f  36//27 41//35 42//35
f  42//36 41//36 36//30
f  42//33 43//41 38//33
f  38//34 43//42 42//34
f  39//23 40//37 44//37
f  44//38 40//38 39//26
f  39//23 44//37 41//37
f  41//38 44//38 39//26
f  40//31 43//39 45//39
f  45//40 43//40 40//32
f  46//43 42//35 41//35
f  41//36 42//36 46//44
f  43//41 42//33 47//41
f  47//42 42//34 43//42
f  45//45 44//37 40//37
f  40//38 44//38 45//46
f  44//37 46//45 41//37
f  41//38 46//46 44//38
f  48//47 45//39 43//39
f  43//40 45//40 48//48
f  42//35 46//43 47//43
f  47//44 46//44 42//36
f  47//41 48//49 43//41
f  43//42 48//50 47//42
f  44//37 45//45 49//45
f  49//46 45//46 44//38
f  44//37 49//45 46//45
f  46//46 49//46 44//38
f  45//39 48//47 50//47
f  50//48 48//48 45//40
f  51//51 47//43 46//43
f  46//44 47//44 51//52
f  48//49 47//41 52//49
f  52//50 47//42 48//50
f  50//53 49//45 45//45
f  45//46 49//46 50//54
f  49//45 51//53 46//45
f  46//46 51//54 49//46
f  53//55 50//47 48//47
f  48//48 50//48 53//56
f  47//43 51//51 52//51
f  52//52 51//52 47//44
f  52//49 53//57 48//49
f  48//50 53//58 52//50
f  49//45 50//53 54//53
f  54//54 50//54 49//46
f  49//45 54//53 51//53
f  51//54 54//54 49//46
f  50//47 53//55 55//55
f  55//56 53//56 50//48
f  56//59 52//51 51//51
f  51//52 52//52 56//60
f  53//57 52//49 57//57
f  57//58 52//50 53//58
f  55//61 54//53 50//53
f  50//54 54//54 55//62
f  54//53 56//61 51//53
f  51//54 56//62 54//54
f  58//63 55//55 53//55
f  53//56 55//56 58//64
f  52//51 56//59 57//59
f  57//60 56//60 52//52
f  57//57 58//65 53//57
f  53//58 58//66 57//58
f  54//53 55//61 59//61
f  59//62 55//62 54//54
f  54//53 59//61 56//61
f  56//62 59//62 54//54
f  55//55 58//63 60//63
f  60//64 58//64 55//56
f  61//67 57//59 56//59
f  56//60 57//60 61//68
f  58//65 57//57 62//65
f  62//66 57//58 58//66
f  60//69 59//61 55//61
f  55//62 59//62 60//70
f  59//61 61//69 56//61
f  56//62 61//70 59//62
f  63//71 60//63 58//63
f  58//64 60//64 63//72
f  57//59 61//67 62//67
f  62//68 61//68 57//60
f  62//65 63//73 58//65
f  58//66 63//74 62//66
f  59//61 60//69 64//69
f  64//70 60//70 59//62
f  59//61 64//69 61//69
f  61//70 64//70 59//62
f  60//63 63//71 65//71
f  65//72 63//72 60//64
f  66//75 62//67 61//67
f  61//68 62//68 66//76
f  63//73 62//65 67//73
f  67//74 62//66 63//74
f  65//77 64//69 60//69
f  60//70 64//70 65//78
f  64//69 66//77 61//69
f  61//70 66//78 64//70
f  68//79 65//71 63//71
f  63//72 65//72 68//80
f  62//67 66//75 67//75
f  67//76 66//76 62//68
f  67//73 68//81 63//73
f  63//74 68//82 67//74
f  64//69 65//77 69//77
f  69//78 65//78 64//70
f  64//69 69//77 66//77
f  66//78 69//78 64//70
f  65//71 68//79 70//79
f  70//80 68//80 65//72
f  71//83 67//75 66//75
f  66//76 67//76 71//84
f  68//81 67//73 72//81
f  72//82 67//74 68//82
f  70//85 69//77 65//77
f  65//78 69//78 70//86
f  69//77 71//85 66//77
f  66//78 71//86 69//78
f  73//87 70//79 68//79
f  68//80 70//80 73//88
f  67//75 71//83 72//83
f  72//84 71//84 67//76
f  72//81 73//89 68//81
f  68//82 73//90 72//82
f  69//77 70//85 74//85
f  74//86 70//86 69//78
f  69//77 74//85 71//85
f  71//86 74//86 69//78
f  70//79 73//87 75//87
f  75//88 73//88 70//80
f  76//91 72//83 71//83
f  71//84 72//84 76//92
f  73//89 72//81 77//89
f  77//90 72//82 73//90
f  75//93 74//85 70//85
f  70//86 74//86 75//94
f  74//85 76//93 71//85
f  71//86 76//94 74//86
f  78//95 75//87 73//87
f  73//88 75//88 78//96
f  72//83 76//91 77//91
f  77//92 76//92 72//84
f  77//89 78//97 73//89
f  73//90 78//98 77//90
f  74//85 75//93 79//93
f  79//94 75//94 74//86
f  74//85 79//93 76//93
f  76//94 79//94 74//86
f  75//87 78//95 80//95
f  80//96 78//96 75//88
f  81//99 77//91 76//91
f  76//92 77//92 81//100
f  78//97 77//89 82//97
f  82//98 77//90 78//98
f  80//101 79//93 75//93
f  75//94 79//94 80//102
f  79//93 81//101 76//93
f  76//94 81//102 79//94
f  83//103 80//95 78//95
f  78//96 80//96 83//104
f  77//91 81//99 82//99
f  82//100 81//100 77//92
f  82//97 83//105 78//97
f  78//98 83//106 82//98
f  79//93 80//101 84//101
f  84//102 80//102 79//94
f  79//93 84//101 81//101
f  81//102 84//102 79//94
f  80//95 83//103 85//103
f  85//104 83//104 80//96
f  86//107 82//99 81//99
f  81//100 82//100 86//108
f  83//105 82//97 87//105
f  87//106 82//98 83//106
f  85//109 84//101 80//101
f  80//102 84//102 85//110
f  84//101 86//109 81//101
f  81//102 86//110 84//102
f  88//111 85//103 83//103
f  83//104 85//104 88//112
f  82//99 86//107 87//107
f  87//108 86//108 82//100
f  87//105 88//113 83//105
f  83//106 88//114 87//106
f  84//101 85//109 89//109
f  89//110 85//110 84//102
f  84//101 89//109 86//109
f  86//110 89//110 84//102
f  85//103 88//111 90//111
f  90//112 88//112 85//104
f  91//115 87//107 86//107
f  86//108 87//108 91//116
f  88//113 87//105 92//113
f  92//114 87//106 88//114
f  90//117 89//109 85//109
f  85//110 89//110 90//118
f  89//109 91//117 86//109
f  86//110 91//118 89//110
f  92//5 90//5 88//5
f  88//6 90//6 92//6
f  87//107 91//115 92//115
f  92//116 91//116 87//108
f  89//109 90//117 91//117
f  91//118 90//118 89//110
f  90//5 92//5 91//5
f  91//6 92//6 90//6

# Mesh 'mesh4_mesh4-geometry' with 4 faces
g mesh4_mesh4-geometry
usemtl material_1_2_0
f  93/1/6 94/2/6 95/3/6
f  93/1/5 95/3/5 94/2/5
f  96/4/6 95/3/6 94/2/6
f  96/4/5 94/2/5 95/3/5

# Mesh 'mesh5_mesh5-geometry' with 65 faces
g mesh5_mesh5-geometry
usemtl material_1_0
l  20 28
l  17 20
l  20 25
l  37 28
l  28 27
l  33 28
l  19 17
l  17 23
l  25 19
l  25 27
l  41 37
l  27 22
l  27 36
l  23 33
l  22 19
l  22 23
l  23 35
l  46 41
l  22 32
l  36 42
l  35 40
l  51 46
l  32 38
l  42 47
l  40 45
l  56 51
l  38 43
l  47 52
l  45 50
l  61 56
l  43 48
l  52 57
l  50 55
l  66 61
l  48 53
l  57 62
l  55 60
l  71 66
l  53 58
l  62 67
l  60 65
l  76 71
l  58 63
l  67 72
l  65 70
l  81 76
l  63 68
l  72 77
l  70 75
l  86 81
l  68 73
l  77 82
l  75 80
l  91 86
l  73 78
l  82 87
l  80 85
l  91 92
l  90 91
l  78 83
l  87 92
l  85 90
l  92 88
l  88 90
l  83 88

# Mesh 'mesh6_mesh6-geometry' with 8 faces
g mesh6_mesh6-geometry
usemtl material_1_0
l  24 18
l  29 24
l  24 30
l  18 21
l  18 31
l  21 29
l  29 34
l  21 26

# Mesh 'mesh7_mesh7-geometry' with 4 faces
g mesh7_mesh7-geometry
usemtl material_1_1_0
f  97/1/6 98/2/6 34/3/6
f  97/1/5 34/3/5 98/2/5
f  30/4/6 34/3/6 98/2/6
f  30/4/5 98/2/5 34/3/5

