# File produced by Open Asset Import Library (http://www.assimp.sf.net)
# (assimp v3.2.202087883)

mtllib model_normalized.mtl

# 138 vertex positions
v -0.168168 0.137828 -0.079801
v -0.168168 0.113052 -0.079228
v -0.168168 0.108700 -0.079801
v -0.168168 0.141188 -0.071689
v -0.201802 0.108700 -0.079801
v -0.168168 -0.189497 -0.079801
v -0.201802 0.137828 -0.079801
v -0.168168 0.117108 -0.077548
v -0.201802 0.113052 -0.079228
v -0.201802 -0.160369 -0.079801
v -0.168168 -0.184152 -0.086767
v -0.168168 -0.160369 -0.079801
v -0.201802 0.141188 -0.071689
v -0.201802 0.132483 -0.086767
v -0.168168 0.120591 -0.074875
v -0.201802 0.117108 -0.077548
v -0.201802 -0.189497 -0.079801
v -0.168168 0.132483 -0.086767
v -0.168168 -0.164722 -0.079228
v -0.168168 0.142334 -0.062984
v -0.201802 -0.184152 -0.086767
v -0.168168 0.123264 -0.071392
v -0.201802 0.120591 -0.074875
v -0.201802 -0.164722 -0.079228
v -0.168168 -0.177186 -0.092112
v -0.201802 -0.192857 -0.071689
v -0.168168 -0.192857 -0.071689
v -0.201802 0.142334 -0.062984
v -0.168168 0.125517 -0.092112
v -0.201802 -0.177186 -0.092112
v -0.201802 -0.168778 -0.077548
v -0.168168 -0.168778 -0.077548
v -0.201802 0.123264 -0.071392
v -0.168168 0.142334 0.407887
v -0.201802 0.142334 -0.096618
v -0.168168 0.124944 -0.067336
v -0.201802 0.125517 -0.092112
v -0.168168 0.117405 -0.095472
v -0.201802 -0.169074 -0.095472
v -0.201802 -0.194003 -0.062984
v -0.168168 -0.172260 -0.074875
v -0.201802 0.124944 -0.067336
v -0.201802 0.142334 0.441521
v -0.168168 0.125517 -0.062984
v 0.168168 0.142334 0.407887
v 0.168168 0.142334 -0.062984
v -0.201802 0.209601 -0.096618
v -0.201802 -0.172260 -0.074875
v -0.168168 -0.169074 -0.095472
v -0.168168 -0.194003 -0.062984
v -0.201802 -0.174933 -0.071392
v -0.168168 -0.174933 -0.071392
v -0.201802 0.125517 -0.062984
v -0.201802 0.209601 0.374253
v -0.168168 0.125517 0.407887
v 0.201802 0.142334 -0.096618
v 0.201802 0.209601 -0.096618
v -0.201802 0.117405 -0.095472
v -0.168168 -0.160369 -0.096618
v -0.201802 -0.160369 -0.096618
v -0.201802 -0.194003 0.441521
v -0.201802 -0.176613 -0.067336
v 0.201802 0.142334 0.441521
v -0.201802 0.125517 0.441521
v -0.201802 0.545937 0.374253
v 0.168168 0.125517 0.407887
v 0.168168 0.125517 -0.062984
v 0.201802 0.142334 -0.062984
v 0.201802 0.209601 0.374253
v -0.168168 0.108700 -0.096618
v -0.201802 0.108700 -0.096618
v -0.168168 -0.176613 -0.067336
v -0.168168 -0.194003 0.407887
v -0.201802 -0.177186 -0.062984
v 0.201802 0.545937 0.441521
v -0.201802 0.545937 0.441521
v 0.168168 0.124944 -0.067336
v 0.168168 0.141188 -0.071689
v -0.168168 -0.177186 -0.062984
v 0.168168 -0.194003 0.407887
v -0.201802 -0.177186 0.441521
v 0.201802 0.125517 0.441521
v 0.201802 0.545937 0.374253
v 0.201802 0.125517 -0.062984
v 0.168168 0.123264 -0.071392
v 0.201802 0.124944 -0.067336
v 0.201802 0.141188 -0.071689
v 0.201802 -0.194003 0.441521
v 0.168168 -0.177186 0.407887
v -0.168168 -0.177186 0.407887
v 0.201802 -0.177186 0.441521
v 0.201802 0.123264 -0.071392
v 0.168168 0.137828 -0.079801
v 0.168168 0.120591 -0.074875
v 0.201802 -0.194003 -0.062984
v 0.168168 -0.177186 -0.062984
v 0.201802 0.120591 -0.074875
v 0.201802 0.137828 -0.079801
v 0.168168 0.113052 -0.079228
v 0.168168 0.117108 -0.077548
v 0.168168 -0.194003 -0.062984
v 0.201802 -0.177186 -0.062984
v 0.201802 0.117108 -0.077548
v 0.201802 0.113052 -0.079228
v 0.168168 0.132483 -0.086767
v 0.168168 0.108700 -0.079801
v 0.201802 -0.192857 -0.071689
v 0.201802 -0.176613 -0.067336
v 0.168168 -0.176613 -0.067336
v 0.201802 0.108700 -0.079801
v 0.201802 0.132483 -0.086767
v 0.168168 -0.184152 -0.086767
v 0.168168 -0.189497 -0.079801
v 0.168168 -0.192857 -0.071689
v 0.201802 -0.174933 -0.071392
v 0.168168 -0.174933 -0.071392
v 0.201802 -0.189497 -0.079801
v 0.201802 -0.184152 -0.086767
v 0.201802 0.125517 -0.092112
v 0.168168 -0.177186 -0.092112
v 0.168168 -0.160369 -0.079801
v 0.201802 -0.172260 -0.074875
v 0.201802 -0.160369 -0.079801
v 0.201802 -0.177186 -0.092112
v 0.168168 0.125517 -0.092112
v 0.168168 -0.164722 -0.079228
v 0.168168 -0.172260 -0.074875
v 0.201802 -0.164722 -0.079228
v 0.201802 -0.168778 -0.077548
v 0.201802 0.117405 -0.095472
v 0.168168 0.117405 -0.095472
v 0.168168 -0.168778 -0.077548
v 0.168168 -0.169074 -0.095472
v 0.201802 -0.169074 -0.095472
v 0.201802 0.108700 -0.096618
v 0.201802 -0.160369 -0.096618
v 0.168168 -0.160369 -0.096618
v 0.168168 0.108700 -0.096618

# 0 UV coordinates

# 34 vertex normals
vn 0.0254 0 0
vn -0.0254 0 0
vn 0 -0.006574 0.0245345
vn 0 -0.00331536 0.0251827
vn 0 0.00331536 -0.0251827
vn 0 0.006574 -0.0245345
vn 0 0.021997 -0.0127
vn 0 0.0245345 -0.006574
vn 0 -0.021997 0.0127
vn 0 -0.0245345 0.006574
vn 0 0 0.0254
vn 0 -0 -0.0254
vn 0 0.0179605 -0.0179605
vn 0 -0.0179605 0.0179605
vn 0 -0.0127 0.021997
vn 0 0.0127 -0.021997
vn -0 -0.021997 -0.0127
vn -0 -0.0179605 -0.0179605
vn 0 0.021997 0.0127
vn 0 0.0179605 0.0179605
vn 0 0.0251827 -0.00331536
vn 0 -0.0251827 0.00331536
vn 0 0.006574 0.0245345
vn 0 0.00331536 0.0251827
vn 0 -0.00331536 -0.0251827
vn 0 -0.006574 -0.0245345
vn -0 -0.0245345 -0.006574
vn 0 0.0245345 0.006574
vn -0 -0.0127 -0.021997
vn 0 0.0127 0.021997
vn 0 0.0254 0
vn 0 -0.0254 0
vn -0 -0.0251827 -0.00331536
vn 0 0.0251827 0.00331536

# Mesh 'mesh1_mesh1-geometry' with 564 faces
g mesh1_mesh1-geometry
usemtl material_0_24
f  1//1 2//1 3//1
f  2//1 1//1 4//1
f  3//2 2//2 1//2
f  4//2 1//2 2//2
f  2//3 5//4 3//4
f  3//5 5//5 2//6
f  6//1 1//1 3//1
f  3//2 1//2 6//2
f  7//7 4//8 1//7
f  1//9 4//10 7//9
f  2//1 4//1 8//1
f  8//2 4//2 2//2
f  5//4 2//3 9//3
f  9//6 2//6 5//5
f  10//11 3//11 5//11
f  5//12 3//12 10//12
f  11//1 1//1 6//1
f  6//2 1//2 11//2
f  6//1 3//1 12//1
f  12//2 3//2 6//2
f  4//8 7//7 13//8
f  13//10 7//9 4//10
f  1//7 14//13 7//7
f  7//9 14//14 1//9
f  8//1 4//1 15//1
f  15//2 4//2 8//2
f  16//15 2//3 8//15
f  8//16 2//6 16//16
f  2//3 16//15 9//3
f  9//6 16//16 2//6
f  7//2 5//2 9//2
f  9//1 5//1 7//1
f  3//11 10//11 12//11
f  12//12 10//12 3//12
f  5//2 17//2 10//2
f  10//1 17//1 5//1
f  11//1 18//1 1//1
f  1//2 18//2 11//2
f  17//17 11//18 6//17
f  6//19 11//20 17//19
f  6//1 12//1 19//1
f  19//2 12//2 6//2
f  7//2 9//2 13//2
f  13//1 9//1 7//1
f  13//8 20//21 4//8
f  4//10 20//22 13//10
f  14//13 1//7 18//13
f  18//14 1//9 14//14
f  14//2 21//2 7//2
f  7//1 21//1 14//1
f  15//1 4//1 22//1
f  22//2 4//2 15//2
f  23//14 8//15 15//14
f  15//13 8//16 23//13
f  8//15 23//14 16//15
f  16//16 23//13 8//16
f  13//2 9//2 16//2
f  16//1 9//1 13//1
f  7//2 17//2 5//2
f  5//1 17//1 7//1
f  24//23 12//24 10//24
f  10//25 12//25 24//26
f  17//2 24//2 10//2
f  10//1 24//1 17//1
f  25//1 18//1 11//1
f  11//2 18//2 25//2
f  11//18 17//17 21//18
f  21//20 17//19 11//20
f  6//17 26//27 17//17
f  17//19 26//28 6//19
f  12//24 24//23 19//23
f  19//26 24//26 12//25
f  6//1 19//1 27//1
f  27//2 19//2 6//2
f  20//21 13//8 28//21
f  28//22 13//10 20//22
f  22//1 4//1 20//1
f  20//2 4//2 22//2
f  29//16 14//13 18//13
f  18//14 14//14 29//15
f  14//2 30//2 21//2
f  21//1 30//1 14//1
f  7//2 21//2 17//2
f  17//1 21//1 7//1
f  22//9 23//14 15//14
f  15//13 23//13 22//7
f  13//2 16//2 23//2
f  23//1 16//1 13//1
f  24//2 17//2 26//2
f  26//1 17//1 24//1
f  25//1 29//1 18//1
f  18//2 29//2 25//2
f  11//18 30//29 25//29
f  25//30 30//30 11//20
f  30//29 11//18 21//18
f  21//20 11//20 30//30
f  26//27 6//17 27//27
f  27//28 6//19 26//28
f  31//30 19//23 24//23
f  24//26 19//26 31//29
f  27//1 19//1 32//1
f  32//2 19//2 27//2
f  13//2 33//2 28//2
f  28//1 33//1 13//1
f  28//31 34//31 20//31
f  20//32 34//32 28//32
f  20//31 35//31 28//31
f  28//32 35//32 20//32
f  22//1 20//1 36//1
f  36//2 20//2 22//2
f  14//13 29//16 37//16
f  37//15 29//15 14//14
f  37//2 30//2 14//2
f  14//1 30//1 37//1
f  23//14 22//9 33//9
f  33//7 22//7 23//13
f  13//2 23//2 33//2
f  33//1 23//1 13//1
f  24//2 26//2 31//2
f  31//1 26//1 24//1
f  25//1 38//1 29//1
f  29//2 38//2 25//2
f  39//26 25//29 30//29
f  30//30 25//30 39//23
f  27//27 40//33 26//27
f  26//28 40//34 27//28
f  19//23 31//30 32//30
f  32//29 31//29 19//26
f  27//1 32//1 41//1
f  41//2 32//2 27//2
f  28//2 33//2 42//2
f  42//1 33//1 28//1
f  43//31 34//31 28//31
f  28//32 34//32 43//32
f  44//1 20//1 34//1
f  34//2 20//2 44//2
f  34//31 45//31 20//31
f  20//32 45//32 34//32
f  46//31 35//31 20//31
f  20//32 35//32 46//32
f  28//2 47//2 35//2
f  35//1 47//1 28//1
f  36//1 20//1 44//1
f  44//2 20//2 36//2
f  42//10 22//9 36//10
f  36//8 22//7 42//8
f  38//6 37//16 29//16
f  29//15 37//15 38//3
f  37//2 39//2 30//2
f  30//1 39//1 37//1
f  22//9 42//10 33//9
f  33//7 42//8 22//7
f  31//2 26//2 48//2
f  48//1 26//1 31//1
f  49//1 38//1 25//1
f  25//2 38//2 49//2
f  25//29 39//26 49//26
f  49//23 39//23 25//30
f  40//33 27//27 50//33
f  50//34 27//28 40//34
f  51//2 26//2 40//2
f  40//1 26//1 51//1
f  48//20 32//30 31//30
f  31//29 32//29 48//18
f  32//30 48//20 41//20
f  41//18 48//18 32//29
f  27//1 41//1 52//1
f  52//2 41//2 27//2
f  28//2 42//2 53//2
f  53//1 42//1 28//1
f  43//31 45//31 34//31
f  34//32 45//32 43//32
f  28//2 53//2 43//2
f  43//1 53//1 28//1
f  54//2 28//2 43//2
f  43//1 28//1 54//1
f  44//1 34//1 55//1
f  55//2 34//2 44//2
f  45//12 55//12 34//12
f  34//11 55//11 45//11
f  46//31 20//31 45//31
f  45//32 20//32 46//32
f  46//31 56//31 35//31
f  35//32 56//32 46//32
f  47//2 28//2 54//2
f  54//1 28//1 47//1
f  35//11 57//11 47//11
f  47//12 57//12 35//12
f  53//22 36//10 44//22
f  44//21 36//8 53//21
f  36//10 53//22 42//10
f  42//8 53//21 36//8
f  37//16 38//6 58//6
f  58//3 38//3 37//15
f  58//2 39//2 37//2
f  37//1 39//1 58//1
f  48//2 26//2 51//2
f  51//1 26//1 48//1
f  59//1 38//1 49//1
f  49//2 38//2 59//2
f  60//25 49//26 39//26
f  39//23 49//23 60//24
f  27//1 52//1 50//1
f  50//2 52//2 27//2
f  50//32 61//32 40//32
f  40//31 61//31 50//31
f  51//2 40//2 62//2
f  62//1 40//1 51//1
f  48//20 52//19 41//20
f  41//18 52//17 48//18
f  63//31 45//31 43//31
f  43//32 45//32 63//32
f  43//2 53//2 64//2
f  64//1 53//1 43//1
f  54//2 43//2 65//2
f  65//1 43//1 54//1
f  53//32 44//32 55//32
f  55//31 44//31 53//31
f  55//12 45//12 66//12
f  66//11 45//11 55//11
f  63//31 46//31 45//31
f  45//32 46//32 63//32
f  46//2 67//2 45//2
f  45//1 67//1 46//1
f  56//31 46//31 68//31
f  68//32 46//32 56//32
f  57//11 35//11 56//11
f  56//12 35//12 57//12
f  69//31 47//31 54//31
f  54//32 47//32 69//32
f  47//31 69//31 57//31
f  57//32 69//32 47//32
f  70//5 58//6 38//6
f  38//3 58//3 70//4
f  71//2 39//2 58//2
f  58//1 39//1 71//1
f  52//19 48//20 51//19
f  51//17 48//18 52//17
f  38//1 59//1 70//1
f  70//2 59//2 38//2
f  49//26 60//25 59//25
f  59//24 60//24 49//23
f  39//2 71//2 60//2
f  60//1 71//1 39//1
f  50//1 52//1 72//1
f  72//2 52//2 50//2
f  73//32 61//32 50//32
f  50//31 61//31 73//31
f  74//2 40//2 61//2
f  61//1 40//1 74//1
f  62//2 40//2 74//2
f  74//1 40//1 62//1
f  72//28 51//19 62//28
f  62//27 51//17 72//27
f  64//11 63//11 43//11
f  43//12 63//12 64//12
f  75//11 43//11 63//11
f  63//12 43//12 75//12
f  55//32 64//32 53//32
f  53//31 64//31 55//31
f  65//2 43//2 76//2
f  76//1 43//1 65//1
f  65//12 69//12 54//12
f  54//11 69//11 65//11
f  45//2 67//2 66//2
f  66//1 67//1 45//1
f  66//32 64//32 55//32
f  55//31 64//31 66//31
f  46//31 63//31 68//31
f  68//32 63//32 46//32
f  46//2 77//2 67//2
f  67//1 77//1 46//1
f  68//21 78//8 46//21
f  46//22 78//10 68//22
f  56//1 69//1 68//1
f  68//2 69//2 56//2
f  69//1 56//1 57//1
f  57//2 56//2 69//2
f  58//6 70//5 71//5
f  71//4 70//4 58//3
f  51//19 72//28 52//19
f  52//17 72//27 51//17
f  59//12 71//12 70//12
f  70//11 71//11 59//11
f  71//12 59//12 60//12
f  60//11 59//11 71//11
f  50//1 72//1 79//1
f  79//2 72//2 50//2
f  80//32 61//32 73//32
f  73//31 61//31 80//31
f  50//1 79//1 73//1
f  73//2 79//2 50//2
f  74//2 61//2 81//2
f  81//1 61//1 74//1
f  79//34 62//28 74//34
f  74//33 62//27 79//33
f  62//28 79//34 72//28
f  72//27 79//33 62//27
f  63//11 64//11 82//11
f  82//12 64//12 63//12
f  43//11 75//11 76//11
f  76//12 75//12 43//12
f  63//1 69//1 75//1
f  75//2 69//2 63//2
f  75//31 65//31 76//31
f  76//32 65//32 75//32
f  69//12 65//12 83//12
f  83//11 65//11 69//11
f  67//32 82//32 66//32
f  66//31 82//31 67//31
f  66//32 82//32 64//32
f  64//31 82//31 66//31
f  84//1 68//1 63//1
f  63//2 68//2 84//2
f  68//1 69//1 63//1
f  63//2 69//2 68//2
f  46//2 85//2 77//2
f  77//1 85//1 46//1
f  86//10 67//22 77//10
f  77//8 67//21 86//8
f  78//8 68//21 87//8
f  87//10 68//22 78//10
f  78//2 85//2 46//2
f  46//1 85//1 78//1
f  80//32 88//32 61//32
f  61//31 88//31 80//31
f  73//12 89//12 80//12
f  80//11 89//11 73//11
f  73//1 79//1 90//1
f  90//2 79//2 73//2
f  61//11 91//11 81//11
f  81//12 91//12 61//12
f  81//31 90//31 74//31
f  74//32 90//32 81//32
f  74//31 90//31 79//31
f  79//32 90//32 74//32
f  84//1 63//1 82//1
f  82//2 63//2 84//2
f  75//1 69//1 83//1
f  83//2 69//2 75//2
f  65//31 75//31 83//31
f  83//32 75//32 65//32
f  82//32 67//32 84//32
f  84//31 67//31 82//31
f  86//1 68//1 84//1
f  84//2 68//2 86//2
f  92//9 77//10 85//9
f  85//7 77//8 92//7
f  67//22 86//10 84//22
f  84//21 86//8 67//21
f  77//10 92//9 86//10
f  86//8 92//7 77//8
f  92//1 87//1 68//1
f  68//2 87//2 92//2
f  87//8 93//7 78//8
f  78//10 93//9 87//10
f  78//2 94//2 85//2
f  85//1 94//1 78//1
f  88//32 80//32 95//32
f  95//31 80//31 88//31
f  91//11 61//11 88//11
f  88//12 61//12 91//12
f  89//12 73//12 90//12
f  90//11 73//11 89//11
f  96//2 80//2 89//2
f  89//1 80//1 96//1
f  91//31 89//31 81//31
f  81//32 89//32 91//32
f  81//31 89//31 90//31
f  90//32 89//32 81//32
f  92//1 68//1 86//1
f  86//2 68//2 92//2
f  94//14 92//9 85//9
f  85//7 92//7 94//13
f  97//1 87//1 92//1
f  92//2 87//2 97//2
f  93//7 87//8 98//7
f  98//9 87//10 93//9
f  93//2 99//2 78//2
f  78//1 99//1 93//1
f  78//2 100//2 94//2
f  94//1 100//1 78//1
f  101//32 95//32 80//32
f  80//31 95//31 101//31
f  95//1 102//1 88//1
f  88//2 102//2 95//2
f  88//1 102//1 91//1
f  91//2 102//2 88//2
f  96//2 101//2 80//2
f  80//1 101//1 96//1
f  96//31 89//31 102//31
f  102//32 89//32 96//32
f  89//31 91//31 102//31
f  102//32 91//32 89//32
f  92//9 94//14 97//14
f  97//13 94//13 92//7
f  103//1 87//1 97//1
f  97//2 87//2 103//2
f  104//1 98//1 87//1
f  87//2 98//2 104//2
f  98//7 105//13 93//7
f  93//9 105//14 98//9
f  93//2 106//2 99//2
f  99//1 106//1 93//1
f  78//2 99//2 100//2
f  100//1 99//1 78//1
f  100//15 97//14 94//14
f  94//13 97//13 100//16
f  101//33 107//27 95//33
f  95//34 107//28 101//34
f  95//1 108//1 102//1
f  102//2 108//2 95//2
f  109//2 101//2 96//2
f  96//1 101//1 109//1
f  102//34 109//28 96//34
f  96//33 109//27 102//33
f  104//1 87//1 103//1
f  103//2 87//2 104//2
f  97//14 100//15 103//15
f  103//16 100//16 97//13
f  98//1 104//1 110//1
f  110//2 104//2 98//2
f  105//13 98//7 111//13
f  111//14 98//9 105//14
f  105//2 112//2 93//2
f  93//1 112//1 105//1
f  93//2 113//2 106//2
f  106//1 113//1 93//1
f  106//4 104//3 99//3
f  99//6 104//6 106//5
f  99//3 103//15 100//15
f  100//16 103//16 99//6
f  107//27 101//33 114//27
f  114//28 101//34 107//28
f  107//1 115//1 95//1
f  95//2 115//2 107//2
f  95//1 115//1 108//1
f  108//2 115//2 95//2
f  109//28 102//34 108//28
f  108//27 102//33 109//27
f  116//2 101//2 109//2
f  109//1 101//1 116//1
f  103//15 99//3 104//3
f  104//6 99//6 103//16
f  104//3 106//4 110//4
f  110//5 106//5 104//6
f  117//1 98//1 110//1
f  110//2 98//2 117//2
f  118//1 111//1 98//1
f  98//2 111//2 118//2
f  119//16 105//13 111//13
f  111//14 105//14 119//15
f  105//2 120//2 112//2
f  112//1 120//1 105//1
f  93//2 112//2 113//2
f  113//1 112//1 93//1
f  106//2 113//2 121//2
f  121//1 113//1 106//1
f  116//2 114//2 101//2
f  101//1 114//1 116//1
f  114//27 117//17 107//27
f  107//28 117//19 114//28
f  107//1 122//1 115//1
f  115//2 122//2 107//2
f  116//19 108//28 115//19
f  115//17 108//27 116//17
f  108//28 116//19 109//28
f  109//27 116//17 108//27
f  106//11 123//11 110//11
f  110//12 123//12 106//12
f  118//1 98//1 117//1
f  117//2 98//2 118//2
f  117//1 110//1 123//1
f  123//2 110//2 117//2
f  124//1 111//1 118//1
f  118//2 111//2 124//2
f  105//13 119//16 125//16
f  125//15 119//15 105//14
f  124//1 119//1 111//1
f  111//2 119//2 124//2
f  125//2 120//2 105//2
f  105//1 120//1 125//1
f  120//29 118//18 112//18
f  112//20 118//20 120//30
f  118//18 113//17 112//18
f  112//20 113//19 118//20
f  113//2 126//2 121//2
f  121//1 126//1 113//1
f  123//11 106//11 121//11
f  121//12 106//12 123//12
f  127//2 114//2 116//2
f  116//1 114//1 127//1
f  117//17 114//27 113//17
f  113//19 114//28 117//19
f  117//1 128//1 107//1
f  107//2 128//2 117//2
f  107//1 129//1 122//1
f  122//2 129//2 107//2
f  127//20 115//19 122//20
f  122//18 115//17 127//18
f  115//19 127//20 116//19
f  116//17 127//18 115//17
f  113//17 118//18 117//17
f  117//19 118//20 113//19
f  117//1 123//1 128//1
f  128//2 123//2 117//2
f  118//18 120//29 124//29
f  124//30 120//30 118//20
f  130//6 125//16 119//16
f  119//15 125//15 130//3
f  124//1 130//1 119//1
f  119//2 130//2 124//2
f  131//2 120//2 125//2
f  125//1 120//1 131//1
f  126//2 113//2 114//2
f  114//1 113//1 126//1
f  128//23 121//24 126//23
f  126//26 121//25 128//26
f  121//24 128//23 123//24
f  123//25 128//26 121//25
f  132//2 114//2 127//2
f  127//1 114//1 132//1
f  107//1 128//1 129//1
f  129//2 128//2 107//2
f  132//30 122//20 129//30
f  129//29 122//18 132//29
f  122//20 132//30 127//20
f  127//18 132//29 122//18
f  133//26 124//29 120//29
f  120//30 124//30 133//23
f  125//16 130//6 131//6
f  131//3 130//3 125//15
f  134//1 130//1 124//1
f  124//2 130//2 134//2
f  131//2 133//2 120//2
f  120//1 133//1 131//1
f  126//2 114//2 132//2
f  132//1 114//1 126//1
f  126//23 129//30 128//23
f  128//26 129//29 126//26
f  129//30 126//23 132//30
f  132//29 126//26 129//29
f  124//29 133//26 134//26
f  134//23 133//23 124//30
f  135//5 131//6 130//6
f  130//3 131//3 135//4
f  136//1 130//1 134//1
f  134//2 130//2 136//2
f  131//2 137//2 133//2
f  133//1 137//1 131//1
f  137//25 134//26 133//26
f  133//23 134//23 137//24
f  131//6 135//5 138//5
f  138//4 135//4 131//3
f  130//1 136//1 135//1
f  135//2 136//2 130//2
f  134//26 137//25 136//25
f  136//24 137//24 134//23
f  137//2 131//2 138//2
f  138//1 131//1 137//1
f  136//12 138//12 135//12
f  135//11 138//11 136//11
f  138//12 136//12 137//12
f  137//11 136//11 138//11

