# File produced by Open Asset Import Library (http://www.assimp.sf.net)
# (assimp v3.2.202087883)

mtllib model_normalized.mtl

# 64 vertex positions
v -0.380193 0.043511 -0.168975
v -0.380193 0.085755 0.168975
v -0.380193 0.043511 0.168975
v -0.380193 0.085755 -0.168975
v 0.380193 0.043511 0.168975
v -0.380193 0.043511 0.177423
v -0.388642 0.043511 0.168975
v 0.380193 0.085755 -0.168975
v -0.388642 0.085755 -0.168975
v -0.380193 0.085755 -0.177423
v 0.380193 0.085755 0.168975
v -0.380193 0.085755 0.177423
v -0.380193 -0.231073 0.168975
v -0.388642 0.085755 0.168975
v -0.422437 -0.231073 0.168975
v -0.388642 0.043511 -0.168975
v 0.380193 0.043511 -0.168975
v -0.380193 0.085755 -0.211218
v -0.380193 0.043511 -0.177423
v 0.380193 0.085755 0.177423
v 0.388642 0.085755 0.168975
v 0.380193 0.043511 0.177423
v -0.380193 -0.231073 0.211218
v -0.380193 0.085755 0.211218
v -0.422437 0.085755 0.168975
v -0.380193 -0.231073 -0.168975
v 0.380193 0.043511 -0.177423
v 0.388642 0.043511 -0.168975
v 0.380193 0.085755 -0.177423
v -0.422437 0.085755 -0.168975
v 0.388642 0.043511 0.168975
v 0.380193 -0.231073 0.168975
v -0.422437 0.085755 0.211218
v 0.380193 -0.231073 -0.211218
v 0.388642 0.085755 -0.168975
v 0.422437 -0.231073 -0.168975
v 0.422437 0.085755 -0.211218
v -0.422437 0.085755 -0.211218
v -0.380193 -0.231073 -0.211218
v 0.380193 0.085755 0.211218
v 0.422437 0.085755 0.168975
v -0.422437 -0.231073 0.211218
v -0.422437 -0.231073 -0.168975
v 0.380193 -0.231073 -0.168975
v 0.422437 0.085755 -0.168975
v 0.380193 0.085755 -0.211218
v -0.422437 -0.231073 -0.211218
v 0.422437 0.085755 0.211218
v 0.380193 -0.231073 0.211218
v 0.422437 -0.231073 0.211218
v 0.422437 -0.231073 0.168975
v 0.422437 -0.231073 -0.211218
v 0.401315 0.085755 -0.190096
v -0.401315 0.085755 0.190096
v -0.401315 0.085755 -0.190096
v 0.401315 0.085755 0.190096
v -0.422437 0.096316 0.211218
v 0.422437 0.096316 -0.211218
v 0.422437 0.096316 0.211218
v -0.422437 0.096316 -0.211218
v -0.422437 0.097160 0.211218
v 0.422437 0.097160 -0.211218
v -0.422437 0.097160 -0.211218
v 0.422437 0.097160 0.211218

# 104 UV coordinates
vt 0.492126 0.355424 0
vt 0.054681 0.410105 0
vt 0.054681 0.355424 0
vt 0.492126 0.410105 0
vt -0.054681 0.410105 0
vt -1.03893 0.355424 0
vt -0.054681 0.355424 0
vt -0.043745 0.355424 0
vt 0.043745 0.355424 0
vt -0.043745 0.054681 0
vt -0.054681 0.492126 0
vt -0.054681 0.054681 0
vt 1.03893 0.410105 0
vt -0.043745 0.410105 0
vt -0.503062 0.410105 0
vt -0.492126 0.355424 0
vt -0.492126 0.410105 0
vt 0.043745 0.492126 0
vt 0.054681 0.054681 0
vt 0.054681 0.492126 0
vt -1.03893 0.410105 0
vt -1.03893 0.054681 0
vt -0.054681 0.043745 0
vt -0.054681 0 0
vt 0.043745 0.410105 0
vt 0 0 0
vt -0.043745 0.492126 0
vt 1.03893 0.355424 0
vt 1.03893 0.492126 0
vt 0.054681 0.503062 0
vt -0.054681 0.546807 0
vt -0.503062 0.355424 0
vt -0.054681 0.503062 0
vt 0.043745 0.054681 0
vt 1.03893 0.043745 0
vt 1.03893 0.054681 0
vt 1.04987 0.410105 0
vt -1.03893 0.043745 0
vt 0.054681 0.043745 0
vt 0.054681 0 0
vt 0 0.410105 0
vt -1.03893 0.503062 0
vt -1.03893 0.492126 0
vt 0.503062 0.355424 0
vt -1.04987 0.355424 0
vt 1.03893 0.503062 0
vt 0 0.492126 0
vt -0.546807 0.410105 0
vt -0.492126 0 0
vt -1.04987 0.054681 0
vt 1.04987 0.054681 0
vt 1.04987 0.355424 0
vt 0 0.054681 0
vt 0.546807 0 0
vt -1.04987 0.492126 0
vt 0.503062 0.410105 0
vt -1.04987 0.410105 0
vt -1.09361 0 0
vt -1.09361 0.546807 0
vt 0 0.546807 0
vt -0.546807 0 0
vt -1.03893 0 0
vt 1.04987 0.492126 0
vt 1.03893 0 0
vt 1.09361 0.410105 0
vt 0.492126 0 0
vt -1.09361 0.410105 0
vt -1.03893 0.546807 0
vt 0.546807 0.410105 0
vt -1.09361 0.054681 0
vt -1.09361 0.492126 0
vt 1.09361 0 0
vt -1.06627 0.519466 0
vt -0.02734 0.02734 0
vt -0.02734 0.519466 0
vt -1.06627 0.02734 0
vt 0 0.006113 0
vt -0.519466 -0.024454 0
vt -0.02734 -0.024454 0
vt -0.02734 0.464625 0
vt -1.09361 0.495192 0
vt -1.06627 0.464625 0
vt 0.546807 0.984271 0
vt 0.02734 0.953704 0
vt 0.519466 0.953704 0
vt 1.09361 0.006113 0
vt 0.02734 -0.024454 0
vt 1.06627 -0.024454 0
vt -0.546807 0.006113 0
vt -0 0.495192 0
vt 0 0.984271 0
vt 0.546807 0.01367 0
vt 0 0.014764 0
vt 0 0.01367 0
vt -1.09361 0.01367 0
vt 1.09361 0.014764 0
vt 1.09361 0.01367 0
vt -0.546807 0.014764 0
vt -0.546807 0.01367 0
vt 0.546807 0.014764 0
vt -1.09361 0.014764 0
vt -1 0.354872 0
vt 0 0.354872 0
vt -1 0 0

# 14 vertex normals
vn 0.0254 0 0
vn -0.0254 -0 0
vn 0 0 -0.0254
vn -0 -0 0.0254
vn 0 -0.0254 0
vn 0 0.0254 0
vn -0.0113592 -0.0227184 -0
vn 0.0113592 0.0227184 0
vn 0 -0.0227184 -0.0113592
vn 0 0.0227184 0.0113592
vn 0.0113592 -0.0227184 0
vn -0.0113592 0.0227184 0
vn 0 -0.0227184 0.0113592
vn 0 0.0227184 -0.0113592

# Mesh 'mesh1_mesh1-geometry' with 224 faces
g mesh1_mesh1-geometry
usemtl material_0_1_8
f  1/1/1 2/2/1 3/3/1
f  2/2/1 1/1/1 4/4/1
f  3/3/2 2/2/2 1/1/2
f  4/4/2 1/1/2 2/2/2
f  2/5/3 5/6/3 3/7/3
f  3/7/4 5/6/4 2/5/4
f  6/8/2 2/5/2 3/7/2
f  3/7/1 2/5/1 6/8/1
f  2/2/4 7/9/4 3/3/4
f  3/3/3 7/9/3 2/2/3
f  7/10/5 1/11/5 3/12/5
f  3/12/6 1/11/6 7/10/6
f  1/3/4 8/13/4 4/2/4
f  4/2/3 8/13/3 1/3/3
f  1/7/3 9/14/3 4/5/3
f  4/5/4 9/14/4 1/7/4
f  10/15/2 1/16/2 4/17/2
f  4/17/1 1/16/1 10/15/1
f  9/18/6 2/19/6 4/20/6
f  4/20/5 2/19/5 9/18/5
f  5/6/3 2/5/3 11/21/3
f  11/21/4 2/5/4 5/6/4
f  5/22/5 6/23/5 3/12/5
f  3/12/6 6/23/6 5/22/6
f  2/5/2 6/8/2 12/14/2
f  12/14/1 6/8/1 2/5/1
f  13/24/2 6/8/2 3/7/2
f  3/7/1 6/8/1 13/24/1
f  7/9/4 2/2/4 14/25/4
f  14/25/3 2/2/3 7/9/3
f  15/26/4 3/3/4 7/9/4
f  7/9/3 3/3/3 15/26/3
f  1/11/5 7/10/5 16/27/5
f  16/27/6 7/10/6 1/11/6
f  8/13/4 1/3/4 17/28/4
f  17/28/3 1/3/3 8/13/3
f  8/29/6 10/30/6 4/20/6
f  4/20/5 10/30/5 8/29/5
f  9/14/3 1/7/3 16/8/3
f  16/8/4 1/7/4 9/14/4
f  9/27/5 18/31/5 4/11/5
f  4/11/6 18/31/6 9/27/6
f  1/16/2 10/15/2 19/32/2
f  19/32/1 10/15/1 1/16/1
f  4/11/5 18/31/5 10/33/5
f  10/33/6 18/31/6 4/11/6
f  2/19/6 9/18/6 14/34/6
f  14/34/5 9/18/5 2/19/5
f  2/19/6 20/35/6 11/36/6
f  11/36/5 20/35/5 2/19/5
f  8/17/2 5/7/2 11/5/2
f  11/5/1 5/7/1 8/17/1
f  20/25/1 5/3/1 11/2/1
f  11/2/2 5/3/2 20/25/2
f  5/28/4 21/37/4 11/13/4
f  11/13/3 21/37/3 5/28/3
f  6/23/5 5/22/5 22/38/5
f  22/38/6 5/22/6 6/23/6
f  23/26/2 12/14/2 6/8/2
f  6/8/1 12/14/1 23/26/1
f  6/3/4 20/13/4 12/2/4
f  12/2/3 20/13/3 6/3/3
f  24/24/5 2/12/5 12/23/5
f  12/23/6 2/12/6 24/24/6
f  20/35/6 2/19/6 12/39/6
f  12/39/5 2/19/5 20/35/5
f  23/26/2 6/8/2 13/24/2
f  13/24/1 6/8/1 23/26/1
f  3/3/4 15/26/4 13/40/4
f  13/40/3 15/26/3 3/3/3
f  24/24/5 14/10/5 2/12/5
f  2/12/6 14/10/6 24/24/6
f  25/41/4 7/9/4 14/25/4
f  14/25/3 7/9/3 25/41/3
f  9/17/2 7/7/2 14/5/2
f  14/5/1 7/7/1 9/17/1
f  15/26/4 7/9/4 25/41/4
f  25/41/3 7/9/3 15/26/3
f  7/7/2 9/17/2 16/16/2
f  16/16/1 9/17/1 7/7/1
f  1/7/3 26/24/3 16/8/3
f  16/8/4 26/24/4 1/7/4
f  1/11/5 27/42/5 17/43/5
f  17/43/6 27/42/6 1/11/6
f  5/7/2 8/17/2 17/16/2
f  17/16/1 8/17/1 5/7/1
f  27/44/1 8/4/1 17/1/1
f  17/1/2 8/4/2 27/44/2
f  8/21/3 28/45/3 17/6/3
f  17/6/4 28/45/4 8/21/4
f  10/30/6 8/29/6 29/46/6
f  29/46/5 8/29/5 10/30/5
f  16/8/3 30/41/3 9/14/3
f  9/14/4 30/41/4 16/8/4
f  30/47/5 18/31/5 9/27/5
f  9/27/6 18/31/6 30/47/6
f  18/48/2 19/32/2 10/15/2
f  10/15/1 19/32/1 18/48/1
f  10/5/3 27/6/3 19/7/3
f  19/7/4 27/6/4 10/5/4
f  19/32/2 26/49/2 1/16/2
f  1/16/1 26/49/1 19/32/1
f  27/42/5 1/11/5 19/33/5
f  19/33/6 1/11/6 27/42/6
f  21/50/5 20/38/5 11/22/5
f  11/22/6 20/38/6 21/50/6
f  21/51/6 8/29/6 11/36/6
f  11/36/5 8/29/5 21/51/5
f  5/3/1 20/25/1 22/9/1
f  22/9/2 20/25/2 5/3/2
f  21/37/4 5/28/4 31/52/4
f  31/52/3 5/28/3 21/37/3
f  22/9/1 32/40/1 5/3/1
f  5/3/2 32/40/2 22/9/2
f  20/13/4 6/3/4 22/28/4
f  22/28/3 6/3/3 20/13/3
f  12/14/2 23/26/2 24/41/2
f  24/41/1 23/26/1 12/14/1
f  33/26/5 14/10/5 24/24/5
f  24/24/6 14/10/6 33/26/6
f  14/10/5 33/26/5 25/53/5
f  25/53/6 33/26/6 14/10/6
f  33/41/1 15/40/1 25/2/1
f  25/2/2 15/40/2 33/41/2
f  26/24/3 30/41/3 16/8/3
f  16/8/4 30/41/4 26/24/4
f  17/1/1 34/54/1 27/44/1
f  27/44/2 34/54/2 17/1/2
f  28/55/5 5/22/5 17/43/5
f  17/43/6 5/22/6 28/55/6
f  8/4/1 27/44/1 29/56/1
f  29/56/2 27/44/2 8/4/2
f  28/45/3 8/21/3 35/57/3
f  35/57/4 8/21/4 28/45/4
f  36/58/3 17/6/3 28/45/3
f  28/45/4 17/6/4 36/58/4
f  29/42/5 37/59/5 8/43/5
f  8/43/6 37/59/6 29/42/6
f  27/6/3 10/5/3 29/21/3
f  29/21/4 10/5/4 27/6/4
f  18/31/5 30/47/5 38/60/5
f  38/60/6 30/47/6 18/31/6
f  39/61/2 19/32/2 18/48/2
f  18/48/1 19/32/1 39/61/1
f  26/49/2 19/32/2 39/61/2
f  39/61/1 19/32/1 26/49/1
f  20/38/5 21/50/5 40/62/5
f  40/62/6 21/50/6 20/38/6
f  8/29/6 21/51/6 35/63/6
f  35/63/5 21/51/5 8/29/5
f  20/25/1 40/41/1 22/9/1
f  22/9/2 40/41/2 20/25/2
f  5/28/4 32/64/4 31/52/4
f  31/52/3 32/64/3 5/28/3
f  5/22/5 28/55/5 31/50/5
f  31/50/6 28/55/6 5/22/6
f  31/52/4 41/65/4 21/37/4
f  21/37/3 41/65/3 31/52/3
f  28/1/1 21/2/1 31/3/1
f  31/3/2 21/2/2 28/1/2
f  40/41/1 32/40/1 22/9/1
f  22/9/2 32/40/2 40/41/2
f  23/24/3 33/41/3 24/5/3
f  24/5/4 33/41/4 23/24/4
f  15/40/1 33/41/1 42/26/1
f  42/26/2 33/41/2 15/40/2
f  30/41/3 26/24/3 43/26/3
f  43/26/4 26/24/4 30/41/4
f  34/54/1 17/1/1 44/66/1
f  44/66/2 17/1/2 34/54/2
f  27/44/1 34/54/1 29/56/1
f  29/56/2 34/54/2 27/44/2
f  8/43/5 37/59/5 35/55/5
f  35/55/6 37/59/6 8/43/6
f  45/67/3 28/45/3 35/57/3
f  35/57/4 28/45/4 45/67/4
f  21/2/1 28/1/1 35/4/1
f  35/4/2 28/1/2 21/2/2
f  17/6/3 36/58/3 44/62/3
f  44/62/4 36/58/4 17/6/4
f  36/58/3 28/45/3 45/67/3
f  45/67/4 28/45/4 36/58/4
f  37/59/5 29/42/5 46/68/5
f  46/68/6 29/42/6 37/59/6
f  30/4/1 47/54/1 38/69/1
f  38/69/2 47/54/2 30/4/2
f  47/26/4 18/2/4 38/41/4
f  38/41/3 18/2/3 47/26/3
f  18/2/4 47/26/4 39/40/4
f  39/40/3 47/26/3 18/2/3
f  40/62/5 21/50/5 48/58/5
f  48/58/6 21/50/6 40/62/6
f  32/64/4 41/65/4 31/52/4
f  31/52/3 41/65/3 32/64/3
f  48/58/5 21/50/5 41/70/5
f  41/70/6 21/50/6 48/58/6
f  32/40/1 40/41/1 49/26/1
f  49/26/2 40/41/2 32/40/2
f  33/41/3 23/24/3 42/26/3
f  42/26/4 23/24/4 33/41/4
f  47/54/1 30/4/1 43/66/1
f  43/66/2 30/4/2 47/54/2
f  29/56/1 34/54/1 46/69/1
f  46/69/2 34/54/2 29/56/2
f  35/55/5 37/59/5 45/71/5
f  45/71/6 37/59/6 35/55/6
f  37/48/2 36/49/2 45/17/2
f  45/17/1 36/49/1 37/48/1
f  34/64/4 37/65/4 46/13/4
f  46/13/3 37/65/3 34/64/3
f  50/58/3 40/21/3 48/67/3
f  48/67/4 40/21/4 50/58/4
f  41/65/4 32/64/4 51/72/4
f  51/72/3 32/64/3 41/65/3
f  41/5/2 50/26/2 48/41/2
f  48/41/1 50/26/1 41/5/1
f  40/21/3 50/58/3 49/62/3
f  49/62/4 50/58/4 40/21/4
f  36/49/2 37/48/2 52/61/2
f  52/61/1 37/48/1 36/49/1
f  37/65/4 34/64/4 52/72/4
f  52/72/3 34/64/3 37/65/3
f  50/26/2 41/5/2 51/24/2
f  51/24/1 41/5/1 50/26/1

# Mesh 'mesh2_mesh2-geometry' with 76 faces
g mesh2_mesh2-geometry
usemtl material_1_0
l  2 4
l  3 2
l  2 12
l  2 11
l  14 2
l  4 1
l  4 10
l  4 8
l  9 4
l  1 3
l  13 3
l  5 3
l  3 7
l  3 6
l  12 24
l  6 12
l  12 20
l  11 8
l  11 5
l  11 20
l  21 11
l  25 14
l  7 14
l  14 9
l  26 1
l  17 1
l  1 19
l  1 16
l  10 19
l  10 18
l  10 29
l  8 17
l  8 29
l  35 8
l  30 9
l  9 16
l  17 5
l  32 5
l  5 22
l  5 31
l  16 7
l  22 6
l  33 24
l  23 24
l  20 40
l  20 22
l  41 21
l  21 31
l  21 35
l  25 33
l  15 25
l  44 17
l  17 28
l  17 27
l  27 19
l  18 38
l  39 18
l  29 46
l  29 27
l  45 35
l  35 28
l  43 30
l  38 30
l  28 31
l  42 33
l  40 48
l  49 40
l  48 41
l  51 41
l  47 38
l  34 46
l  37 46
l  45 37
l  36 45
l  50 48
l  52 37

# Mesh 'mesh3_mesh3-geometry' with 40 faces
g mesh3_mesh3-geometry
usemtl material_0_1_8
f  53/73/5 54/74/5 55/75/5
f  54/74/5 53/73/5 56/76/5
f  55/75/6 54/74/6 53/73/6
f  56/76/6 53/73/6 54/74/6
f  57/77/7 55/78/7 54/79/7
f  54/79/8 55/78/8 57/77/8
f  55/80/9 58/81/9 53/82/9
f  53/82/10 58/81/10 55/80/10
f  58/83/11 56/84/11 53/85/11
f  53/85/12 56/84/12 58/83/12
f  59/86/13 54/87/13 56/88/13
f  56/88/14 54/87/14 59/86/14
f  55/78/7 57/77/7 60/89/7
f  60/89/8 57/77/8 55/78/8
f  54/87/13 59/86/13 57/77/13
f  57/77/14 59/86/14 54/87/14
f  58/81/9 55/80/9 60/90/9
f  60/90/10 55/80/10 58/81/10
f  56/84/11 58/83/11 59/91/11
f  59/91/12 58/83/12 56/84/12
f  60/92/1 61/93/1 57/94/1
f  57/94/2 61/93/2 60/92/2
f  61/93/3 59/95/3 57/94/3
f  57/94/4 59/95/4 61/93/4
f  62/96/4 60/94/4 58/97/4
f  58/97/3 60/94/3 62/96/3
f  59/94/2 62/98/2 58/99/2
f  58/99/1 62/98/1 59/94/1
f  61/93/1 60/92/1 63/100/1
f  63/100/2 60/92/2 61/93/2
f  59/95/3 61/93/3 64/101/3
f  64/101/4 61/93/4 59/95/4
f  60/94/4 62/96/4 63/93/4
f  63/93/3 62/96/3 60/94/3
f  62/98/2 59/94/2 64/93/2
f  64/93/1 59/94/1 62/98/1
f  62/59/5 61/26/5 63/60/5
f  63/102/6 61/103/6 62/104/6
f  61/26/5 62/59/5 64/58/5
f  64/26/6 62/104/6 61/103/6

