# File produced by Open Asset Import Library (http://www.assimp.sf.net)
# (assimp v3.2.202087883)

mtllib model_normalized.mtl

# 58 vertex positions
v 0.223578 0.279113 0.135389
v 0.223578 -0.105844 0.088850
v 0.223578 0.279113 0.088850
v 0.223578 -0.402394 0.135389
v -0.223578 0.279113 0.088850
v 0.192552 0.306533 0.088850
v 0.173894 -0.402394 0.135389
v 0.223578 -0.402394 0.085705
v -0.223578 -0.105844 0.088850
v 0.192552 0.306533 0.135389
v 0.173894 -0.155527 0.135389
v 0.223578 -0.155527 0.085705
v -0.223578 -0.105844 -0.311766
v -0.223578 -0.402394 0.135389
v -0.192552 0.306533 0.088850
v 0.158196 0.329645 0.088850
v -0.223578 0.279113 0.135389
v -0.173894 -0.155527 0.135389
v 0.173894 -0.155527 0.085705
v 0.173894 -0.402394 0.085705
v 0.223578 -0.155527 -0.262082
v 0.223578 -0.105844 -0.311766
v -0.223578 -0.155527 -0.262082
v -0.223578 -0.155527 0.085705
v -0.192552 0.306533 0.135389
v -0.158196 0.329645 0.088850
v 0.158196 0.329645 0.135389
v 0.173894 -0.155527 -0.311766
v -0.223578 -0.402394 -0.262082
v -0.223578 -0.402394 0.085705
v -0.158196 0.329645 0.135389
v 0.121105 0.348049 0.088850
v 0.173894 -0.155527 -0.262082
v 0.223578 -0.400842 -0.311766
v -0.173894 -0.155527 -0.311766
v -0.223578 -0.402394 -0.311766
v -0.173894 -0.155527 -0.262082
v -0.173894 -0.402394 0.085705
v -0.173894 -0.402394 0.135389
v -0.121105 0.348049 0.135389
v 0.121105 0.348049 0.135389
v -0.121105 0.348049 0.088850
v 0.223578 -0.400842 -0.262082
v 0.173894 -0.400842 -0.262082
v 0.173894 -0.400842 -0.311766
v -0.173894 -0.402394 -0.311766
v -0.173894 -0.402394 -0.262082
v -0.173894 -0.155527 0.085705
v 0.081919 0.361427 0.088850
v -0.081919 0.361427 0.135389
v 0.081919 0.361427 0.135389
v -0.081919 0.361427 0.088850
v 0.041317 0.369547 0.088850
v -0.041317 0.369547 0.088850
v -0.041317 0.369547 0.135389
v 0.041317 0.369547 0.135389
v 0.000000 0.372270 0.088850
v 0.000000 0.372270 0.135389

# 0 UV coordinates

# 30 vertex normals
vn 0.0254 0 0
vn -0.0254 0 0
vn 0 -0 -0.0254
vn 0 0 0.0254
vn 0.0155327 0.0200971 0
vn 0.0168205 0.0190323 0
vn -0.0168205 -0.0190323 0
vn -0.0155327 -0.0200971 0
vn 0 -0.0254 0
vn 0 0.0254 0
vn 0.0127613 0.0219615 0
vn -0.0127613 -0.0219615 0
vn -0.0168205 0.0190323 0
vn -0.0155327 0.0200971 0
vn 0.0155327 -0.0200971 0
vn 0.0168205 -0.0190323 0
vn -0.0127613 0.0219615 0
vn 0.0127613 -0.0219615 0
vn 0.00976922 0.0234462 0
vn -0.00976922 -0.0234462 0
vn -0.00976922 0.0234462 0
vn 0.00976922 -0.0234462 0
vn 0.00660822 0.0245253 0
vn -0.00660822 -0.0245253 0
vn -0.00660822 0.0245253 0
vn 0.00660822 -0.0245253 0
vn 0.00333294 0.0251804 0
vn -0.00333294 -0.0251804 0
vn -0.00333294 0.0251804 0
vn 0.00333294 -0.0251804 0

# Mesh 'mesh1_mesh1-geometry' with 224 faces
g mesh1_mesh1-geometry
usemtl material_0_24
f  1//1 2//1 3//1
f  2//1 1//1 4//1
f  3//2 2//2 1//2
f  4//2 1//2 2//2
f  2//3 5//3 3//3
f  3//4 5//4 2//4
f  6//5 1//6 3//6
f  3//7 1//7 6//8
f  1//4 7//4 4//4
f  4//3 7//3 1//3
f  8//1 2//1 4//1
f  4//2 2//2 8//2
f  5//3 2//3 9//3
f  9//4 2//4 5//4
f  3//3 5//3 6//3
f  6//4 5//4 3//4
f  1//6 6//5 10//5
f  10//8 6//8 1//7
f  7//4 1//4 11//4
f  11//3 1//3 7//3
f  7//9 8//9 4//9
f  4//10 8//10 7//10
f  12//1 2//1 8//1
f  8//2 2//2 12//2
f  2//10 13//10 9//10
f  9//9 13//9 2//9
f  9//2 14//2 5//2
f  5//1 14//1 9//1
f  6//3 5//3 15//3
f  15//4 5//4 6//4
f  16//11 10//5 6//5
f  6//8 10//8 16//12
f  17//4 1//4 10//4
f  10//3 1//3 17//3
f  11//4 1//4 18//4
f  18//3 1//3 11//3
f  19//2 7//2 11//2
f  11//1 7//1 19//1
f  8//9 7//9 20//9
f  20//10 7//10 8//10
f  21//1 2//1 12//1
f  12//2 2//2 21//2
f  8//3 19//3 12//3
f  12//4 19//4 8//4
f  13//10 2//10 22//10
f  22//9 2//9 13//9
f  13//2 23//2 9//2
f  9//1 23//1 13//1
f  24//2 14//2 9//2
f  9//1 14//1 24//1
f  5//2 14//2 17//2
f  17//1 14//1 5//1
f  5//13 25//14 15//14
f  15//15 25//15 5//16
f  6//3 15//3 26//3
f  26//4 15//4 6//4
f  10//5 16//11 27//11
f  27//12 16//12 10//8
f  6//3 26//3 16//3
f  16//4 26//4 6//4
f  17//4 18//4 1//4
f  1//3 18//3 17//3
f  17//4 10//4 25//4
f  25//3 10//3 17//3
f  18//9 19//9 11//9
f  11//10 19//10 18//10
f  7//2 19//2 20//2
f  20//1 19//1 7//1
f  19//3 8//3 20//3
f  20//4 8//4 19//4
f  21//1 22//1 2//1
f  2//2 22//2 21//2
f  19//9 21//9 12//9
f  12//10 21//10 19//10
f  22//3 28//3 13//3
f  13//4 28//4 22//4
f  13//2 29//2 23//2
f  23//1 29//1 13//1
f  9//2 23//2 24//2
f  24//1 23//1 9//1
f  14//2 24//2 30//2
f  30//1 24//1 14//1
f  14//4 18//4 17//4
f  17//3 18//3 14//3
f  25//14 5//13 17//13
f  17//16 5//16 25//15
f  31//17 15//14 25//14
f  25//15 15//15 31//18
f  15//14 31//17 26//17
f  26//18 31//18 15//15
f  32//19 27//11 16//11
f  16//12 27//12 32//20
f  25//4 10//4 27//4
f  27//3 10//3 25//3
f  16//3 26//3 32//3
f  32//4 26//4 16//4
f  19//9 18//9 33//9
f  33//10 18//10 19//10
f  22//1 21//1 34//1
f  34//2 21//2 22//2
f  21//9 19//9 33//9
f  33//10 19//10 21//10
f  34//3 28//3 22//3
f  22//4 28//4 34//4
f  35//3 13//3 28//3
f  28//4 13//4 35//4
f  29//2 13//2 36//2
f  36//1 13//1 29//1
f  29//4 37//4 23//4
f  23//3 37//3 29//3
f  37//9 24//9 23//9
f  23//10 24//10 37//10
f  24//3 38//3 30//3
f  30//4 38//4 24//4
f  38//9 14//9 30//9
f  30//10 14//10 38//10
f  18//4 14//4 39//4
f  39//3 14//3 18//3
f  25//4 27//4 31//4
f  31//3 27//3 25//3
f  40//21 26//17 31//17
f  31//18 26//18 40//22
f  27//11 32//19 41//19
f  41//20 32//20 27//12
f  32//3 26//3 42//3
f  42//4 26//4 32//4
f  33//9 18//9 28//9
f  28//10 18//10 33//10
f  43//1 34//1 21//1
f  21//2 34//2 43//2
f  44//4 21//4 33//4
f  33//3 21//3 44//3
f  28//3 34//3 45//3
f  45//4 34//4 28//4
f  46//3 13//3 35//3
f  35//4 13//4 46//4
f  28//9 18//9 35//9
f  35//10 18//10 28//10
f  13//3 46//3 36//3
f  36//4 46//4 13//4
f  46//9 29//9 36//9
f  36//10 29//10 46//10
f  37//4 29//4 47//4
f  47//3 29//3 37//3
f  24//9 37//9 48//9
f  48//10 37//10 24//10
f  38//3 24//3 48//3
f  48//4 24//4 38//4
f  14//9 38//9 39//9
f  39//10 38//10 14//10
f  38//1 18//1 39//1
f  39//2 18//2 38//2
f  31//4 27//4 41//4
f  41//3 27//3 31//3
f  26//17 40//21 42//21
f  42//22 40//22 26//18
f  31//4 41//4 40//4
f  40//3 41//3 31//3
f  49//23 41//19 32//19
f  32//20 41//20 49//24
f  32//3 42//3 49//3
f  49//4 42//4 32//4
f  28//2 44//2 33//2
f  33//1 44//1 28//1
f  44//9 34//9 43//9
f  43//10 34//10 44//10
f  21//4 44//4 43//4
f  43//3 44//3 21//3
f  34//9 44//9 45//9
f  45//10 44//10 34//10
f  44//2 28//2 45//2
f  45//1 28//1 44//1
f  37//1 46//1 35//1
f  35//2 46//2 37//2
f  35//9 18//9 48//9
f  48//10 18//10 35//10
f  29//9 46//9 47//9
f  47//10 46//10 29//10
f  46//1 37//1 47//1
f  47//2 37//2 46//2
f  35//9 48//9 37//9
f  37//10 48//10 35//10
f  18//1 38//1 48//1
f  48//2 38//2 18//2
f  50//25 42//21 40//21
f  40//22 42//22 50//26
f  40//4 41//4 51//4
f  51//3 41//3 40//3
f  41//19 49//23 51//23
f  51//24 49//24 41//20
f  49//3 42//3 52//3
f  52//4 42//4 49//4
f  42//21 50//25 52//25
f  52//26 50//26 42//22
f  40//4 51//4 50//4
f  50//3 51//3 40//3
f  53//27 51//23 49//23
f  49//24 51//24 53//28
f  49//3 52//3 54//3
f  54//4 52//4 49//4
f  55//29 52//25 50//25
f  50//26 52//26 55//30
f  50//4 51//4 56//4
f  56//3 51//3 50//3
f  51//23 53//27 56//27
f  56//28 53//28 51//24
f  49//3 54//3 53//3
f  53//4 54//4 49//4
f  52//25 55//29 54//29
f  54//30 55//30 52//26
f  50//4 56//4 55//4
f  55//3 56//3 50//3
f  57//10 56//27 53//27
f  53//28 56//28 57//9
f  53//3 54//3 57//3
f  57//4 54//4 53//4
f  58//10 54//29 55//29
f  55//30 54//30 58//9
f  55//4 56//4 58//4
f  58//3 56//3 55//3
f  56//27 57//10 58//10
f  58//9 57//9 56//28
f  54//29 58//10 57//10
f  57//9 58//9 54//30

# Mesh 'mesh2_mesh2-geometry' with 76 faces
g mesh2_mesh2-geometry
usemtl material_0_0
l  13 9
l  22 13
l  36 13
l  9 5
l  2 9
l  34 22
l  2 22
l  46 36
l  36 29
l  15 5
l  5 17
l  2 3
l  43 34
l  34 45
l  46 47
l  35 46
l  47 29
l  23 29
l  26 15
l  14 17
l  25 17
l  3 6
l  3 1
l  44 43
l  21 43
l  45 44
l  28 45
l  37 47
l  28 35
l  35 37
l  37 23
l  23 24
l  42 26
l  30 14
l  14 39
l  31 25
l  6 16
l  4 1
l  1 10
l  33 44
l  12 21
l  33 21
l  28 33
l  48 24
l  24 30
l  52 42
l  38 30
l  39 38
l  18 39
l  40 31
l  16 32
l  7 4
l  4 8
l  10 27
l  19 12
l  12 8
l  18 48
l  48 38
l  54 52
l  18 11
l  50 40
l  32 49
l  7 20
l  11 7
l  20 8
l  27 41
l  11 19
l  19 20
l  57 54
l  55 50
l  49 53
l  41 51
l  53 57
l  58 55
l  51 56
l  56 58

