# File produced by Open Asset Import Library (http://www.assimp.sf.net)
# (assimp v3.2.202087883)

mtllib model_normalized.mtl

# 96 vertex positions
v -0.331593 0.085547 0.100193
v -0.349929 -0.171169 0.248411
v -0.331593 -0.171169 0.248411
v -0.349929 0.085547 0.100193
v -0.331593 -0.171169 0.184889
v -0.349929 0.085547 0.036673
v -0.349929 -0.171169 0.184889
v -0.331593 0.085547 0.036673
v 0.346873 0.085574 0.100193
v 0.328536 -0.171142 0.248411
v 0.346873 -0.171142 0.248411
v 0.328536 0.085574 0.100193
v 0.346873 -0.171142 0.184889
v 0.328536 0.085574 0.036673
v 0.328536 -0.171142 0.184889
v 0.346873 0.085574 0.036673
v 0.328536 0.085574 -0.100195
v 0.346873 -0.171142 -0.248410
v 0.328536 -0.171142 -0.248410
v 0.346873 0.085574 -0.100195
v 0.328536 -0.171142 -0.184889
v 0.346873 0.085574 -0.036674
v 0.346873 -0.171142 -0.184889
v 0.328536 0.085574 -0.036674
v -0.349929 0.085574 -0.100195
v -0.331593 -0.171142 -0.248410
v -0.349929 -0.171142 -0.248410
v -0.331593 0.085574 -0.100195
v -0.349929 -0.171142 -0.184889
v -0.331593 0.085574 -0.036674
v -0.331593 -0.171142 -0.184889
v -0.349929 0.085574 -0.036674
v 0.273526 0.085574 -0.100853
v 0.328536 0.085574 0.100854
v 0.328536 0.085574 -0.100853
v 0.273526 0.085574 0.100854
v 0.328536 0.067238 -0.100853
v 0.273526 0.067238 0.100854
v 0.328536 0.067238 0.100854
v 0.273526 0.067238 -0.100853
v -0.331593 0.085574 -0.100853
v -0.276582 0.085574 0.100854
v -0.276582 0.085574 -0.100853
v -0.331593 0.085574 0.100854
v -0.276582 0.067238 -0.100853
v -0.331593 0.067238 0.100854
v -0.276582 0.067238 0.100854
v -0.331593 0.067238 -0.100853
v -0.386603 0.085574 0.137527
v 0.383547 0.085574 0.045842
v 0.383547 0.085574 0.137527
v -0.386603 0.085574 0.045842
v 0.383547 0.103911 0.137527
v -0.386603 0.103911 0.045842
v 0.383547 0.103911 0.045842
v -0.386603 0.103911 0.137527
v -0.386603 0.085574 -0.045843
v 0.383547 0.085574 -0.137527
v 0.383547 0.085574 -0.045843
v -0.386603 0.085574 -0.137527
v 0.383547 0.103911 -0.045843
v -0.386603 0.103911 -0.137527
v 0.383547 0.103911 -0.137527
v -0.386603 0.103911 -0.045843
v -0.368266 -0.015278 0.183370
v 0.401884 -0.015278 0.275054
v 0.401884 -0.015278 0.183370
v -0.368266 -0.015278 0.275054
v 0.401884 -0.033615 0.183370
v -0.368266 -0.033615 0.275054
v 0.401884 -0.033615 0.275054
v -0.368266 -0.033615 0.183370
v -0.386603 -0.015278 -0.275054
v 0.383547 -0.015278 -0.183369
v 0.383547 -0.015278 -0.275054
v -0.386603 -0.015278 -0.183369
v 0.383547 -0.033615 -0.275054
v -0.386603 -0.033615 -0.183369
v 0.383547 -0.033615 -0.183369
v -0.386603 -0.033615 -0.275054
v -0.331593 -0.033615 -0.275054
v -0.313256 -0.033615 0.275054
v -0.313256 -0.033615 -0.275054
v -0.331593 -0.033615 0.275054
v -0.313256 -0.088626 -0.243293
v -0.331593 -0.088626 -0.243293
v -0.331593 -0.088626 0.243293
v -0.313256 -0.088626 0.243293
v 0.310200 -0.033615 -0.275054
v 0.328536 -0.033615 0.275054
v 0.328536 -0.033615 -0.275054
v 0.310200 -0.033615 0.275054
v 0.328536 -0.088626 -0.243293
v 0.310200 -0.088626 -0.243293
v 0.310200 -0.088626 0.243293
v 0.328536 -0.088626 0.243293

# 0 UV coordinates

# 10 vertex normals
vn 0 0.0127 0.021997
vn 0 -0.0127 -0.021997
vn 0 -0.0254 0
vn 0 0.0254 0
vn 0.0254 0 0
vn -0.0254 0 0
vn 0 0.0127 -0.021997
vn -0 -0.0127 0.021997
vn 0 0 -0.0254
vn 0 0 0.0254

# Mesh 'mesh1_mesh1-geometry' with 24 faces
g mesh1_mesh1-geometry
usemtl material_0_24
f  1//1 2//1 3//1
f  2//1 1//1 4//1
f  3//2 2//2 1//2
f  4//2 1//2 2//2
f  2//3 5//3 3//3
f  3//4 5//4 2//4
f  5//5 1//5 3//5
f  3//6 1//6 5//6
f  1//4 6//4 4//4
f  4//3 6//3 1//3
f  4//6 7//6 2//6
f  2//5 7//5 4//5
f  5//3 2//3 7//3
f  7//4 2//4 5//4
f  1//5 5//5 8//5
f  8//6 5//6 1//6
f  6//4 1//4 8//4
f  8//3 1//3 6//3
f  7//6 4//6 6//6
f  6//5 4//5 7//5
f  6//2 5//2 7//2
f  7//1 5//1 6//1
f  5//2 6//2 8//2
f  8//1 6//1 5//1

# Mesh 'mesh2_mesh2-geometry' with 12 faces
g mesh2_mesh2-geometry
usemtl material_0_0
l  3 1
l  3 2
l  5 3
l  1 4
l  1 8
l  2 4
l  7 2
l  8 5
l  7 5
l  4 6
l  8 6
l  6 7

# Mesh 'mesh1_mesh1-geometry' with 24 faces
g mesh1_mesh1-geometry
usemtl material_0_24
f  9//1 10//1 11//1
f  10//1 9//1 12//1
f  11//2 10//2 9//2
f  12//2 9//2 10//2
f  10//3 13//3 11//3
f  11//4 13//4 10//4
f  13//5 9//5 11//5
f  11//6 9//6 13//6
f  9//4 14//4 12//4
f  12//3 14//3 9//3
f  12//6 15//6 10//6
f  10//5 15//5 12//5
f  13//3 10//3 15//3
f  15//4 10//4 13//4
f  9//5 13//5 16//5
f  16//6 13//6 9//6
f  14//4 9//4 16//4
f  16//3 9//3 14//3
f  15//6 12//6 14//6
f  14//5 12//5 15//5
f  14//2 13//2 15//2
f  15//1 13//1 14//1
f  13//2 14//2 16//2
f  16//1 14//1 13//1

# Mesh 'mesh2_mesh2-geometry' with 12 faces
g mesh2_mesh2-geometry
usemtl material_0_0
l  11 9
l  11 10
l  13 11
l  9 12
l  9 16
l  10 12
l  15 10
l  16 13
l  15 13
l  12 14
l  16 14
l  14 15

# Mesh 'mesh1_mesh1-geometry' with 24 faces
g mesh1_mesh1-geometry
usemtl material_0_24
f  17//7 18//7 19//7
f  18//7 17//7 20//7
f  19//8 18//8 17//8
f  20//8 17//8 18//8
f  18//3 21//3 19//3
f  19//4 21//4 18//4
f  21//6 17//6 19//6
f  19//5 17//5 21//5
f  17//4 22//4 20//4
f  20//3 22//3 17//3
f  20//5 23//5 18//5
f  18//6 23//6 20//6
f  21//3 18//3 23//3
f  23//4 18//4 21//4
f  17//6 21//6 24//6
f  24//5 21//5 17//5
f  22//4 17//4 24//4
f  24//3 17//3 22//3
f  23//5 20//5 22//5
f  22//6 20//6 23//6
f  22//8 21//8 23//8
f  23//7 21//7 22//7
f  21//8 22//8 24//8
f  24//7 22//7 21//7

# Mesh 'mesh2_mesh2-geometry' with 12 faces
g mesh2_mesh2-geometry
usemtl material_0_0
l  19 17
l  19 18
l  21 19
l  17 20
l  17 24
l  18 20
l  23 18
l  24 21
l  23 21
l  20 22
l  24 22
l  22 23

# Mesh 'mesh1_mesh1-geometry' with 24 faces
g mesh1_mesh1-geometry
usemtl material_0_24
f  25//7 26//7 27//7
f  26//7 25//7 28//7
f  27//8 26//8 25//8
f  28//8 25//8 26//8
f  26//3 29//3 27//3
f  27//4 29//4 26//4
f  29//6 25//6 27//6
f  27//5 25//5 29//5
f  25//4 30//4 28//4
f  28//3 30//3 25//3
f  28//5 31//5 26//5
f  26//6 31//6 28//6
f  29//3 26//3 31//3
f  31//4 26//4 29//4
f  25//6 29//6 32//6
f  32//5 29//5 25//5
f  30//4 25//4 32//4
f  32//3 25//3 30//3
f  31//5 28//5 30//5
f  30//6 28//6 31//6
f  30//8 29//8 31//8
f  31//7 29//7 30//7
f  29//8 30//8 32//8
f  32//7 30//7 29//7

# Mesh 'mesh2_mesh2-geometry' with 12 faces
g mesh2_mesh2-geometry
usemtl material_0_0
l  27 25
l  27 26
l  29 27
l  25 28
l  25 32
l  26 28
l  31 26
l  32 29
l  31 29
l  28 30
l  32 30
l  30 31

# Mesh 'mesh3_mesh3-geometry' with 24 faces
g mesh3_mesh3-geometry
usemtl material_0_24
f  33//4 34//4 35//4
f  34//4 33//4 36//4
f  35//3 34//3 33//3
f  36//3 33//3 34//3
f  34//5 37//5 35//5
f  35//6 37//6 34//6
f  37//9 33//9 35//9
f  35//10 33//10 37//10
f  33//6 38//6 36//6
f  36//5 38//5 33//5
f  38//10 34//10 36//10
f  36//9 34//9 38//9
f  37//5 34//5 39//5
f  39//6 34//6 37//6
f  33//9 37//9 40//9
f  40//10 37//10 33//10
f  38//6 33//6 40//6
f  40//5 33//5 38//5
f  34//10 38//10 39//10
f  39//9 38//9 34//9
f  38//3 37//3 39//3
f  39//4 37//4 38//4
f  37//3 38//3 40//3
f  40//4 38//4 37//4

# Mesh 'mesh4_mesh4-geometry' with 12 faces
g mesh4_mesh4-geometry
usemtl material_0_0
l  36 34
l  33 36
l  36 38
l  34 35
l  34 39
l  35 33
l  33 40
l  38 39
l  40 38
l  35 37
l  39 37
l  37 40

# Mesh 'mesh3_mesh3-geometry' with 24 faces
g mesh3_mesh3-geometry
usemtl material_0_24
f  41//4 42//4 43//4
f  42//4 41//4 44//4
f  43//3 42//3 41//3
f  44//3 41//3 42//3
f  42//5 45//5 43//5
f  43//6 45//6 42//6
f  45//9 41//9 43//9
f  43//10 41//10 45//10
f  41//6 46//6 44//6
f  44//5 46//5 41//5
f  46//10 42//10 44//10
f  44//9 42//9 46//9
f  45//5 42//5 47//5
f  47//6 42//6 45//6
f  41//9 45//9 48//9
f  48//10 45//10 41//10
f  46//6 41//6 48//6
f  48//5 41//5 46//5
f  42//10 46//10 47//10
f  47//9 46//9 42//9
f  46//3 45//3 47//3
f  47//4 45//4 46//4
f  45//3 46//3 48//3
f  48//4 46//4 45//4

# Mesh 'mesh4_mesh4-geometry' with 12 faces
g mesh4_mesh4-geometry
usemtl material_0_0
l  44 42
l  41 44
l  44 46
l  42 43
l  42 47
l  43 41
l  41 48
l  46 47
l  48 46
l  43 45
l  47 45
l  45 48

# Mesh 'mesh5_mesh5-geometry' with 24 faces
g mesh5_mesh5-geometry
usemtl material_0_24
f  49//3 50//3 51//3
f  50//3 49//3 52//3
f  51//4 50//4 49//4
f  52//4 49//4 50//4
f  50//5 53//5 51//5
f  51//6 53//6 50//6
f  53//10 49//10 51//10
f  51//9 49//9 53//9
f  49//6 54//6 52//6
f  52//5 54//5 49//5
f  54//9 50//9 52//9
f  52//10 50//10 54//10
f  53//5 50//5 55//5
f  55//6 50//6 53//6
f  49//10 53//10 56//10
f  56//9 53//9 49//9
f  54//6 49//6 56//6
f  56//5 49//5 54//5
f  50//9 54//9 55//9
f  55//10 54//10 50//10
f  54//4 53//4 55//4
f  55//3 53//3 54//3
f  53//4 54//4 56//4
f  56//3 54//3 53//3

# Mesh 'mesh6_mesh6-geometry' with 12 faces
g mesh6_mesh6-geometry
usemtl material_0_0
l  50 51
l  52 50
l  55 50
l  51 49
l  53 51
l  49 52
l  54 52
l  54 55
l  55 53
l  56 49
l  53 56
l  56 54

# Mesh 'mesh5_mesh5-geometry' with 24 faces
g mesh5_mesh5-geometry
usemtl material_0_24
f  57//3 58//3 59//3
f  58//3 57//3 60//3
f  59//4 58//4 57//4
f  60//4 57//4 58//4
f  58//5 61//5 59//5
f  59//6 61//6 58//6
f  61//10 57//10 59//10
f  59//9 57//9 61//9
f  57//6 62//6 60//6
f  60//5 62//5 57//5
f  62//9 58//9 60//9
f  60//10 58//10 62//10
f  61//5 58//5 63//5
f  63//6 58//6 61//6
f  57//10 61//10 64//10
f  64//9 61//9 57//9
f  62//6 57//6 64//6
f  64//5 57//5 62//5
f  58//9 62//9 63//9
f  63//10 62//10 58//10
f  62//4 61//4 63//4
f  63//3 61//3 62//3
f  61//4 62//4 64//4
f  64//3 62//3 61//3

# Mesh 'mesh6_mesh6-geometry' with 12 faces
g mesh6_mesh6-geometry
usemtl material_0_0
l  58 59
l  60 58
l  63 58
l  59 57
l  61 59
l  57 60
l  62 60
l  62 63
l  63 61
l  64 57
l  61 64
l  64 62

# Mesh 'mesh5_mesh5-geometry' with 24 faces
g mesh5_mesh5-geometry
usemtl material_0_24
f  52//3 59//3 50//3
f  59//3 52//3 57//3
f  50//4 59//4 52//4
f  57//4 52//4 59//4
f  59//5 55//5 50//5
f  50//6 55//6 59//6
f  55//10 52//10 50//10
f  50//9 52//9 55//9
f  52//6 64//6 57//6
f  57//5 64//5 52//5
f  64//9 59//9 57//9
f  57//10 59//10 64//10
f  55//5 59//5 61//5
f  61//6 59//6 55//6
f  52//10 55//10 54//10
f  54//9 55//9 52//9
f  64//6 52//6 54//6
f  54//5 52//5 64//5
f  59//9 64//9 61//9
f  61//10 64//10 59//10
f  64//4 55//4 61//4
f  61//3 55//3 64//3
f  55//4 64//4 54//4
f  54//3 64//3 55//3

# Mesh 'mesh6_mesh6-geometry' with 12 faces
g mesh6_mesh6-geometry
usemtl material_0_0
l  59 50
l  57 59
l  61 59
l  50 52
l  55 50
l  52 57
l  64 57
l  64 61
l  61 55
l  54 52
l  55 54
l  54 64

# Mesh 'mesh5_mesh5-geometry' with 24 faces
g mesh5_mesh5-geometry
usemtl material_0_24
f  65//4 66//4 67//4
f  66//4 65//4 68//4
f  67//3 66//3 65//3
f  68//3 65//3 66//3
f  66//5 69//5 67//5
f  67//6 69//6 66//6
f  69//9 65//9 67//9
f  67//10 65//10 69//10
f  65//6 70//6 68//6
f  68//5 70//5 65//5
f  70//10 66//10 68//10
f  68//9 66//9 70//9
f  69//5 66//5 71//5
f  71//6 66//6 69//6
f  65//9 69//9 72//9
f  72//10 69//10 65//10
f  70//6 65//6 72//6
f  72//5 65//5 70//5
f  66//10 70//10 71//10
f  71//9 70//9 66//9
f  70//3 69//3 71//3
f  71//4 69//4 70//4
f  69//3 70//3 72//3
f  72//4 70//4 69//4

# Mesh 'mesh6_mesh6-geometry' with 12 faces
g mesh6_mesh6-geometry
usemtl material_0_0
l  66 67
l  68 66
l  71 66
l  67 65
l  69 67
l  65 68
l  70 68
l  70 71
l  71 69
l  72 65
l  69 72
l  72 70

# Mesh 'mesh5_mesh5-geometry' with 24 faces
g mesh5_mesh5-geometry
usemtl material_0_24
f  73//4 74//4 75//4
f  74//4 73//4 76//4
f  75//3 74//3 73//3
f  76//3 73//3 74//3
f  74//5 77//5 75//5
f  75//6 77//6 74//6
f  77//9 73//9 75//9
f  75//10 73//10 77//10
f  73//6 78//6 76//6
f  76//5 78//5 73//5
f  78//10 74//10 76//10
f  76//9 74//9 78//9
f  77//5 74//5 79//5
f  79//6 74//6 77//6
f  73//9 77//9 80//9
f  80//10 77//10 73//10
f  78//6 73//6 80//6
f  80//5 73//5 78//5
f  74//10 78//10 79//10
f  79//9 78//9 74//9
f  78//3 77//3 79//3
f  79//4 77//4 78//4
f  77//3 78//3 80//3
f  80//4 78//4 77//4

# Mesh 'mesh6_mesh6-geometry' with 12 faces
g mesh6_mesh6-geometry
usemtl material_0_0
l  74 75
l  76 74
l  79 74
l  75 73
l  77 75
l  73 76
l  78 76
l  78 79
l  79 77
l  80 73
l  77 80
l  80 78

# Mesh 'mesh7_mesh7-geometry' with 24 faces
g mesh7_mesh7-geometry
usemtl material_0_24
f  81//4 82//4 83//4
f  82//4 81//4 84//4
f  83//3 82//3 81//3
f  84//3 81//3 82//3
f  82//5 85//5 83//5
f  83//6 85//6 82//6
f  85//2 81//2 83//2
f  83//1 81//1 85//1
f  86//6 84//6 81//6
f  81//5 84//5 86//5
f  87//8 82//8 84//8
f  84//7 82//7 87//7
f  85//5 82//5 88//5
f  88//6 82//6 85//6
f  81//2 85//2 86//2
f  86//1 85//1 81//1
f  84//6 86//6 87//6
f  87//5 86//5 84//5
f  82//8 87//8 88//8
f  88//7 87//7 82//7
f  87//3 85//3 88//3
f  88//4 85//4 87//4
f  85//3 87//3 86//3
f  86//4 87//4 85//4

# Mesh 'mesh8_mesh8-geometry' with 12 faces
g mesh8_mesh8-geometry
usemtl material_0_0
l  83 82
l  83 81
l  83 85
l  82 84
l  88 82
l  81 84
l  81 86
l  85 88
l  85 86
l  87 84
l  88 87
l  86 87

# Mesh 'mesh7_mesh7-geometry' with 24 faces
g mesh7_mesh7-geometry
usemtl material_0_24
f  89//4 90//4 91//4
f  90//4 89//4 92//4
f  91//3 90//3 89//3
f  92//3 89//3 90//3
f  90//5 93//5 91//5
f  91//6 93//6 90//6
f  93//2 89//2 91//2
f  91//1 89//1 93//1
f  94//6 92//6 89//6
f  89//5 92//5 94//5
f  95//8 90//8 92//8
f  92//7 90//7 95//7
f  93//5 90//5 96//5
f  96//6 90//6 93//6
f  89//2 93//2 94//2
f  94//1 93//1 89//1
f  92//6 94//6 95//6
f  95//5 94//5 92//5
f  90//8 95//8 96//8
f  96//7 95//7 90//7
f  95//3 93//3 96//3
f  96//4 93//4 95//4
f  93//3 95//3 94//3
f  94//4 95//4 93//4

# Mesh 'mesh8_mesh8-geometry' with 12 faces
g mesh8_mesh8-geometry
usemtl material_0_0
l  91 90
l  91 89
l  91 93
l  90 92
l  96 90
l  89 92
l  89 94
l  93 96
l  93 94
l  95 92
l  96 95
l  94 95

