# File produced by Open Asset Import Library (http://www.assimp.sf.net)
# (assimp v3.2.202087883)

mtllib model_normalized.mtl

# 92 vertex positions
v 0.250929 0.107439 -0.304739
v 0.334574 0.107439 -0.228556
v 0.250929 0.107439 -0.228556
v 0.334574 0.107439 -0.304739
v 0.313198 0.107439 -0.207180
v 0.229556 0.107439 -0.283366
v 0.334574 -0.317740 -0.304739
v 0.334574 0.107439 0.228555
v 0.313198 0.107439 0.207181
v 0.229556 0.107439 -0.207180
v -0.250930 0.107439 -0.304739
v 0.250929 -0.317740 -0.304739
v 0.334574 0.026556 -0.228556
v 0.334574 0.107439 0.304740
v -0.229556 0.107439 -0.283366
v 0.250929 0.026556 -0.304739
v 0.250929 -0.317740 -0.228556
v 0.334574 -0.317740 -0.228556
v 0.250929 0.107439 0.228555
v 0.229556 0.107439 0.207181
v -0.250930 0.107439 -0.228556
v -0.250930 0.026556 -0.304739
v 0.334574 0.026556 0.228555
v 0.250929 0.107439 0.304740
v 0.313198 0.019484 -0.207180
v 0.276582 0.019484 0.170565
v 0.313198 0.019484 0.207181
v 0.192940 0.107439 0.170565
v -0.276583 0.107439 -0.170566
v 0.276582 0.107439 0.170565
v 0.276582 0.107439 -0.170566
v 0.229556 0.019484 -0.207180
v 0.276582 0.019484 -0.170566
v -0.192940 0.107439 -0.170566
v 0.192940 0.107439 -0.170566
v 0.229556 0.019484 -0.283366
v 0.192940 0.019484 -0.246750
v -0.192940 0.107439 -0.246750
v 0.192940 0.107439 -0.246750
v -0.229556 0.107439 -0.207180
v -0.334573 0.107439 -0.304739
v 0.250929 0.026556 -0.228556
v 0.334574 -0.317740 0.228555
v 0.250929 -0.317740 0.304740
v 0.229556 0.107439 0.283365
v 0.192940 0.019484 0.170565
v 0.229556 0.019484 0.207181
v -0.192940 0.107439 0.170565
v 0.192940 0.019484 -0.170566
v -0.229556 0.019484 -0.283366
v -0.334573 0.107439 -0.228556
v -0.250930 -0.317740 -0.304739
v -0.250930 0.026556 -0.228556
v 0.334574 -0.317740 0.304740
v 0.250929 0.026556 0.228555
v 0.250929 0.026556 0.304740
v -0.229556 0.107439 0.283365
v 0.192940 0.107439 0.246750
v 0.192940 0.019484 0.246750
v 0.229556 0.019484 0.283365
v -0.276583 0.107439 0.170565
v -0.192940 0.019484 -0.246750
v -0.313199 0.107439 -0.207180
v -0.334573 0.107439 0.304740
v -0.229556 0.019484 -0.207180
v -0.334573 -0.317740 -0.304739
v -0.250930 -0.317740 -0.228556
v 0.250929 -0.317740 0.228555
v -0.250930 0.026556 0.304740
v -0.250930 0.107439 0.304740
v -0.192940 0.107439 0.246750
v -0.192940 0.019484 0.246750
v -0.313199 0.107439 0.207181
v -0.334573 0.026556 0.228555
v -0.334573 0.107439 0.228555
v -0.192940 0.019484 -0.170566
v -0.313199 0.019484 -0.207180
v -0.334573 -0.317740 -0.228556
v -0.334573 0.026556 -0.228556
v -0.250930 -0.317740 0.228555
v -0.250930 0.026556 0.228555
v -0.250930 0.107439 0.228555
v -0.229556 0.019484 0.283365
v -0.276583 0.019484 -0.170566
v -0.334573 -0.317740 0.304740
v -0.334573 -0.317740 0.228555
v -0.250930 -0.317740 0.304740
v -0.229556 0.107439 0.207181
v -0.229556 0.019484 0.207181
v -0.276583 0.019484 0.170565
v -0.192940 0.019484 0.170565
v -0.313199 0.019484 0.207181

# 140 UV coordinates
vt 0 0 0
vt -1.2569 -1.37995 0
vt -1.2569 -1.57708 0
vt -1.43646 -1.37995 0
vt -1.43646 -1.57708 0
vt -1.20652 -1.52671 0
vt -1.38608 -1.32957 0
vt 1.57708 1.00208 0
vt 1.57708 0 0
vt 1.37995 1.00208 0
vt -1.2569 1.00208 0
vt -0.179557 1.00208 0
vt -1.43646 1.00208 0
vt -0.229934 -1.52671 0
vt -1.20652 -1.32957 0
vt -1.43646 -0.197135 0
vt 1.37995 0 0
vt -1.2569 0.811458 0
vt -1.43646 0 0
vt 0 1.00208 0
vt -0.179557 -1.57708 0
vt 0.229934 0.794792 0
vt 1.20652 1.00208 0
vt 0.229934 1.00208 0
vt -1.52671 1.00208 0
vt -1.32957 0.794792 0
vt -1.32957 1.00208 0
vt 1.20652 0.794792 0
vt 1.38608 1.00208 0
vt -1.38608 -0.247512 0
vt 1.37995 0.811458 0
vt 0.197135 1.00208 0
vt 1.43646 -1.37995 0
vt 1.43646 -1.57708 0
vt 1.2569 -1.37995 0
vt -1.2569 0 0
vt -0.179557 -1.37995 0
vt 0 -1.57708 0
vt -0.229934 -1.32957 0
vt 1.32957 1.00208 0
vt 1.52671 0.794792 0
vt 1.52671 1.00208 0
vt -1.52671 0.794792 0
vt 1.38608 0.794792 0
vt -1.2569 -0.197135 0
vt -0.247512 0.794792 0
vt -0.247512 1.00208 0
vt 0.197135 0.811458 0
vt 1.43646 0 0
vt 1.2569 0 0
vt 1.43646 0.811458 0
vt 1.2569 -1.57708 0
vt -1.57708 0 0
vt -1.57708 0.811458 0
vt -1.37995 0 0
vt -0.179557 0.811458 0
vt 0 -1.37995 0
vt -0.316231 -1.44041 0
vt 1.32957 0.794792 0
vt -1.44041 1.00208 0
vt -1.24327 0.794792 0
vt -1.24327 1.00208 0
vt -1.12023 0.794792 0
vt -0.316231 1.00208 0
vt -1.12023 1.00208 0
vt -1.12023 -1.44041 0
vt 1.24327 1.00208 0
vt 1.44041 0.794792 0
vt 1.44041 1.00208 0
vt -1.29978 -1.24327 0
vt -1.29978 0.794792 0
vt -1.29978 1.00208 0
vt -1.20652 -0.247512 0
vt -1.38608 0.794792 0
vt -1.20652 1.00208 0
vt -1.38608 1.00208 0
vt 1.2569 -0.197135 0
vt 1.43646 -0.197135 0
vt 1.2569 0.811458 0
vt -1.37995 0.811458 0
vt -0.179557 0 0
vt 0.179557 -1.37995 0
vt 0.179557 -1.57708 0
vt -1.37995 1.00208 0
vt -1.57708 1.00208 0
vt -0.050377 -1.32957 0
vt -0.316231 -1.24327 0
vt 0.050377 0.794792 0
vt -1.44041 0.794792 0
vt -0.316231 0.794792 0
vt -0.136674 1.00208 0
vt -1.12023 -1.24327 0
vt 1.24327 0.794792 0
vt 0.33381 1.00208 0
vt -1.20652 0.794792 0
vt 0.197135 0 0
vt -1.43646 0.811458 0
vt 1.57708 0.811458 0
vt 0.179557 -0.197135 0
vt -0.050377 -0.247512 0
vt 0.050377 1.00208 0
vt -0.136674 -1.24327 0
vt -0.136674 0.794792 0
vt 0.136674 1.00208 0
vt 0.33381 0.794792 0
vt 1.12023 0.794792 0
vt 1.29978 1.00208 0
vt 1.12023 1.00208 0
vt -1.29978 -0.33381 0
vt -1.20652 -0.050377 0
vt 1.2569 1.00208 0
vt 1.43646 1.00208 0
vt -0.050377 0.794792 0
vt 0.179557 0 0
vt 0 -0.197135 0
vt 0 0.811458 0
vt 0.179557 0.811458 0
vt -0.197135 0.811458 0
vt 0.247512 1.00208 0
vt -0.136674 -0.33381 0
vt -0.33381 1.00208 0
vt 0.316231 0.794792 0
vt 0.316231 1.00208 0
vt -0.33381 0.794792 0
vt 0.136674 0.794792 0
vt 1.29978 0.794792 0
vt -0.229934 -0.050377 0
vt -0.050377 1.00208 0
vt 0.179557 1.00208 0
vt -1.12023 -0.33381 0
vt -0.197135 0 0
vt -0.197135 1.00208 0
vt -0.179557 -0.197135 0
vt 0.247512 0.794792 0
vt -1.12023 -0.136674 0
vt -0.229934 1.00208 0
vt -0.229934 -0.247512 0
vt -0.229934 0.794792 0
vt -0.316231 -0.33381 0
vt -0.316231 -0.136674 0

# 6 vertex normals
vn 0 -0.0254 0
vn 0 0 0.0254
vn -0.0254 0 0
vn 0 0.0254 0
vn 0.0254 0 0
vn 0 0 -0.0254

# Mesh 'mesh1_mesh1-geometry' with 132 faces
g mesh1_mesh1-geometry
usemtl material_0_24
f  1/1/1 2/1/1 3/1/1
f  2/1/1 1/1/1 4/1/1
f  2/1/1 5/1/1 3/1/1
f  3/1/1 6/1/1 1/1/1
f  1/1/2 7/1/2 4/1/2
f  4/1/3 8/1/3 2/1/3
f  2/1/1 9/1/1 5/1/1
f  10/1/1 3/1/1 5/1/1
f  3/1/1 10/1/1 6/1/1
f  1/1/1 6/1/1 11/1/1
f  7/1/2 1/1/2 12/1/2
f  7/1/3 13/1/3 4/1/3
f  4/1/3 14/1/3 8/1/3
f  8/1/1 9/1/1 2/1/1
f  15/1/1 11/1/1 6/1/1
f  11/1/2 16/1/2 1/1/2
f  12/1/2 1/1/2 16/1/2
f  17/1/4 7/1/4 12/1/4
f  13/1/3 7/1/3 18/1/3
f  4/1/3 13/1/3 14/1/3
f  14/1/1 19/1/1 8/1/1
f  8/1/1 20/1/1 9/1/1
f  15/1/1 21/1/1 11/1/1
f  16/1/2 11/1/2 22/1/2
f  16/1/5 17/1/5 12/1/5
f  7/1/4 17/1/4 18/1/4
f  17/1/6 13/1/6 18/1/6
f  23/1/3 14/1/3 13/1/3
f  19/1/1 14/1/1 24/1/1
f  19/1/1 20/1/1 8/1/1
f  25/1/4 26/1/4 27/1/4
f  28/1/1 29/1/1 30/1/1
f  30/1/4 29/1/4 28/1/4
f  30/1/1 29/1/1 31/1/1
f  31/1/4 29/1/4 30/1/4
f  32/1/4 33/1/4 25/1/4
f  31/1/1 34/1/1 35/1/1
f  35/1/4 34/1/4 31/1/4
f  36/1/4 37/1/4 32/1/4
f  35/1/1 38/1/1 39/1/1
f  39/1/4 38/1/4 35/1/4
f  40/1/1 21/1/1 15/1/1
f  21/1/1 41/1/1 11/1/1
f  22/1/2 11/1/2 41/1/2
f  17/1/5 16/1/5 42/1/5
f  13/1/6 17/1/6 42/1/6
f  43/1/3 14/1/3 23/1/3
f  14/1/6 44/1/6 24/1/6
f  24/1/1 45/1/1 19/1/1
f  19/1/1 45/1/1 20/1/1
f  26/1/4 46/1/4 27/1/4
f  33/1/4 26/1/4 25/1/4
f  27/1/4 46/1/4 47/1/4
f  48/1/1 29/1/1 28/1/1
f  28/1/4 29/1/4 48/1/4
f  31/1/1 29/1/1 34/1/1
f  34/1/4 29/1/4 31/1/4
f  33/1/4 32/1/4 49/1/4
f  38/1/1 35/1/1 34/1/1
f  34/1/4 35/1/4 38/1/4
f  37/1/4 49/1/4 32/1/4
f  50/1/4 37/1/4 36/1/4
f  40/1/1 51/1/1 21/1/1
f  41/1/1 21/1/1 51/1/1
f  22/1/2 41/1/2 52/1/2
f  52/1/3 53/1/3 22/1/3
f  14/1/3 43/1/3 54/1/3
f  55/1/2 43/1/2 23/1/2
f  44/1/6 14/1/6 54/1/6
f  24/1/6 44/1/6 56/1/6
f  45/1/1 24/1/1 57/1/1
f  58/1/1 48/1/1 28/1/1
f  28/1/4 48/1/4 58/1/4
f  47/1/4 59/1/4 60/1/4
f  46/1/4 59/1/4 47/1/4
f  29/1/1 48/1/1 61/1/1
f  61/1/4 48/1/4 29/1/4
f  37/1/4 50/1/4 62/1/4
f  63/1/1 51/1/1 40/1/1
f  64/1/5 41/1/5 51/1/5
f  50/1/4 65/1/4 62/1/4
f  52/1/2 41/1/2 66/1/2
f  53/1/3 52/1/3 67/1/3
f  43/1/4 44/1/4 54/1/4
f  43/1/2 55/1/2 68/1/2
f  44/1/5 55/1/5 56/1/5
f  24/1/6 56/1/6 69/1/6
f  70/1/1 57/1/1 24/1/1
f  48/1/1 58/1/1 71/1/1
f  71/1/4 58/1/4 48/1/4
f  72/1/4 60/1/4 59/1/4
f  73/1/1 51/1/1 63/1/1
f  64/1/5 74/1/5 41/1/5
f  64/1/5 51/1/5 75/1/5
f  62/1/4 65/1/4 76/1/4
f  65/1/4 77/1/4 76/1/4
f  41/1/5 78/1/5 66/1/5
f  78/1/4 52/1/4 66/1/4
f  53/1/6 78/1/6 79/1/6
f  52/1/4 78/1/4 67/1/4
f  78/1/6 53/1/6 67/1/6
f  79/1/5 41/1/5 74/1/5
f  44/1/4 43/1/4 68/1/4
f  55/1/5 44/1/5 68/1/5
f  74/1/2 80/1/2 81/1/2
f  80/1/3 69/1/3 81/1/3
f  24/1/6 69/1/6 70/1/6
f  57/1/1 70/1/1 82/1/1
f  60/1/4 72/1/4 83/1/4
f  76/1/4 77/1/4 84/1/4
f  73/1/1 75/1/1 51/1/1
f  85/1/5 74/1/5 64/1/5
f  75/1/1 70/1/1 64/1/1
f  78/1/5 41/1/5 79/1/5
f  80/1/2 74/1/2 86/1/2
f  69/1/3 80/1/3 87/1/3
f  69/1/6 85/1/6 70/1/6
f  70/1/1 75/1/1 82/1/1
f  57/1/1 82/1/1 88/1/1
f  89/1/4 83/1/4 72/1/4
f  90/1/4 89/1/4 91/1/4
f  88/1/1 82/1/1 73/1/1
f  84/1/4 77/1/4 90/1/4
f  75/1/1 73/1/1 82/1/1
f  74/1/5 85/1/5 86/1/5
f  70/1/6 85/1/6 64/1/6
f  85/1/4 80/1/4 86/1/4
f  80/1/4 85/1/4 87/1/4
f  85/1/6 69/1/6 87/1/6
f  91/1/4 89/1/4 72/1/4
f  89/1/4 90/1/4 92/1/4
f  77/1/4 92/1/4 90/1/4

# Mesh 'mesh1_mesh1-geometry' with 228 faces
g mesh1_mesh1-geometry
usemtl material_1_1_8
f  3/2/4 2/3/4 1/4/4
f  4/5/4 1/4/4 2/3/4
f  3/2/4 5/6/4 2/3/4
f  1/4/4 6/7/4 3/2/4
f  4/8/6 7/9/6 1/10/6
f  2/11/5 8/12/5 4/13/5
f  5/6/4 9/14/4 2/3/4
f  5/6/4 3/2/4 10/15/4
f  6/7/4 10/15/4 3/2/4
f  11/16/4 6/7/4 1/4/4
f  12/17/6 1/10/6 7/9/6
f  4/13/5 13/18/5 7/19/5
f  8/12/5 14/20/5 4/13/5
f  2/3/4 9/14/4 8/21/4
f  27/22/5 5/23/5 9/24/5
f  9/24/3 5/23/3 27/22/3
f  5/25/6 32/26/6 10/27/6
f  10/27/2 32/26/2 5/25/2
f  32/28/5 6/29/5 10/23/5
f  10/23/3 6/29/3 32/28/3
f  6/7/4 11/16/4 15/30/4
f  1/10/6 16/31/6 11/32/6
f  16/31/6 1/10/6 12/17/6
f  12/33/1 7/34/1 17/35/1
f  18/36/5 7/19/5 13/18/5
f  14/20/5 13/18/5 4/13/5
f  8/21/4 19/37/4 14/38/4
f  9/14/4 20/39/4 8/21/4
f  5/23/5 27/22/5 25/28/5
f  25/28/3 27/22/3 5/23/3
f  20/40/2 27/41/2 9/42/2
f  9/42/6 27/41/6 20/40/6
f  32/26/6 5/25/6 25/43/6
f  25/43/2 5/25/2 32/26/2
f  6/29/5 32/28/5 36/44/5
f  36/44/3 32/28/3 6/29/3
f  11/16/4 21/45/4 15/30/4
f  6/27/6 50/46/6 15/47/6
f  15/47/2 50/46/2 6/27/2
f  22/48/6 11/32/6 16/31/6
f  12/49/3 17/50/3 16/51/3
f  18/52/1 17/35/1 7/34/1
f  18/53/2 13/54/2 17/55/2
f  13/18/5 14/20/5 23/56/5
f  24/57/4 14/38/4 19/37/4
f  8/21/4 20/39/4 19/37/4
f  27/14/1 26/58/1 25/6/1
f  27/41/2 20/40/2 47/59/2
f  47/59/6 20/40/6 27/41/6
f  30/60/6 46/61/6 28/62/6
f  28/62/2 46/61/2 30/60/2
f  33/63/3 30/64/3 31/65/3
f  31/65/5 30/64/5 33/63/5
f  25/6/1 33/66/1 32/15/1
f  35/67/2 33/68/2 31/69/2
f  31/69/6 33/68/6 35/67/6
f  32/15/1 37/70/1 36/7/1
f  50/46/6 6/27/6 36/26/6
f  36/26/2 6/27/2 50/46/2
f  37/71/3 35/65/3 39/72/3
f  39/72/5 35/65/5 37/71/5
f  15/30/4 21/45/4 40/73/4
f  11/16/4 41/19/4 21/45/4
f  50/74/3 40/75/3 15/76/3
f  15/76/5 40/75/5 50/74/5
f  41/20/6 11/32/6 22/48/6
f  53/77/4 16/33/4 22/78/4
f  22/78/1 16/33/1 53/77/1
f  42/79/3 16/51/3 17/50/3
f  42/80/2 17/55/2 13/54/2
f  23/56/5 14/20/5 43/81/5
f  13/52/4 55/82/4 23/83/4
f  23/83/1 55/82/1 13/52/1
f  24/84/2 44/55/2 14/85/2
f  19/37/4 45/86/4 24/57/4
f  20/39/4 45/86/4 19/37/4
f  27/14/1 46/87/1 26/58/1
f  25/6/1 26/58/1 33/66/1
f  20/24/5 60/88/5 47/22/5
f  47/22/3 60/88/3 20/24/3
f  47/39/1 46/87/1 27/14/1
f  46/61/6 30/60/6 26/89/6
f  26/89/2 30/60/2 46/61/2
f  46/90/3 58/91/3 28/64/3
f  28/64/5 58/91/5 46/90/5
f  30/64/3 33/63/3 26/90/3
f  26/90/5 33/63/5 30/64/5
f  49/92/1 32/15/1 33/66/1
f  33/68/2 35/67/2 49/93/2
f  49/93/6 35/67/6 33/68/6
f  32/15/1 49/92/1 37/70/1
f  36/7/1 37/70/1 50/30/1
f  38/94/2 37/93/2 39/67/2
f  39/67/6 37/93/6 38/94/6
f  35/65/3 37/71/3 49/63/3
f  49/63/5 37/71/5 35/65/5
f  21/45/4 51/36/4 40/73/4
f  51/36/4 21/45/4 41/19/4
f  40/75/3 50/74/3 65/95/3
f  65/95/5 50/74/5 40/75/5
f  52/96/6 41/20/6 22/48/6
f  16/33/4 53/77/4 42/35/4
f  42/35/1 53/77/1 16/33/1
f  22/97/5 53/18/5 52/19/5
f  79/50/4 13/52/4 42/35/4
f  42/35/1 13/52/1 79/50/1
f  54/1/5 43/81/5 14/20/5
f  23/98/6 43/9/6 55/31/6
f  55/82/4 13/52/4 81/99/4
f  81/99/1 13/52/1 55/82/1
f  54/53/2 14/85/2 44/55/2
f  56/80/2 44/55/2 24/84/2
f  57/100/4 24/57/4 45/86/4
f  60/88/5 20/24/5 45/101/5
f  45/101/3 20/24/3 60/88/3
f  60/86/1 59/102/1 47/39/1
f  47/39/1 59/102/1 46/87/1
f  58/91/3 46/90/3 59/103/3
f  59/103/5 46/90/5 58/91/5
f  29/104/2 76/105/2 34/94/2
f  34/94/6 76/105/6 29/104/6
f  76/106/5 38/107/5 34/108/5
f  34/108/3 38/107/3 76/106/3
f  62/109/1 50/30/1 37/70/1
f  37/93/2 38/94/2 62/105/2
f  62/105/6 38/94/6 37/93/6
f  40/73/4 51/36/4 63/110/4
f  51/111/3 41/112/3 64/20/3
f  62/109/1 65/73/1 50/30/1
f  77/113/6 40/47/6 65/46/6
f  65/46/2 40/47/2 77/113/2
f  66/1/6 41/20/6 52/96/6
f  79/50/4 42/35/4 53/77/4
f  53/77/1 42/35/1 79/50/1
f  67/36/5 52/19/5 53/18/5
f  74/114/4 13/52/4 79/50/4
f  79/50/1 13/52/1 74/114/1
f  54/38/1 44/57/1 43/83/1
f  68/17/6 55/31/6 43/9/6
f  81/99/4 13/52/4 74/114/4
f  74/114/1 13/52/1 81/99/1
f  69/115/4 55/82/4 81/99/4
f  81/99/1 55/82/1 69/115/1
f  56/116/3 55/117/3 44/1/3
f  69/118/2 56/80/2 24/84/2
f  24/57/4 57/100/4 70/115/4
f  57/119/2 60/59/2 45/40/2
f  45/40/6 60/59/6 57/119/6
f  59/102/1 60/86/1 72/120/1
f  48/121/6 90/103/6 61/91/6
f  61/91/2 90/103/2 48/121/2
f  90/122/5 29/108/5 61/123/5
f  61/123/3 29/108/3 90/122/3
f  72/124/6 58/62/6 59/61/6
f  59/61/2 58/62/2 72/124/2
f  76/105/2 29/104/2 84/125/2
f  84/125/6 29/104/6 76/105/6
f  38/107/5 76/106/5 62/126/5
f  62/126/3 76/106/3 38/107/3
f  63/110/4 51/36/4 73/127/4
f  40/47/6 77/113/6 63/128/6
f  63/128/2 77/113/2 40/47/2
f  41/112/3 74/117/3 64/20/3
f  75/129/3 51/111/3 64/20/3
f  76/130/1 65/73/1 62/109/1
f  76/130/1 77/110/1 65/73/1
f  66/49/3 78/50/3 41/112/3
f  66/49/1 52/78/1 78/50/1
f  79/116/2 78/1/2 53/118/2
f  67/77/1 78/50/1 52/78/1
f  67/131/2 53/118/2 78/1/2
f  74/117/3 41/112/3 79/79/3
f  68/82/1 43/83/1 44/57/1
f  68/114/3 44/1/3 55/117/3
f  81/48/6 80/96/6 74/116/6
f  55/82/4 69/115/4 56/57/4
f  56/57/1 69/115/1 55/82/1
f  81/56/5 69/116/5 80/81/5
f  70/132/2 69/118/2 24/84/2
f  82/133/4 70/115/4 57/100/4
f  60/59/2 57/119/2 83/134/2
f  83/134/6 57/119/6 60/59/6
f  58/62/6 72/124/6 71/121/6
f  71/121/2 72/124/2 58/62/2
f  72/125/5 48/123/5 71/104/5
f  71/104/3 48/123/3 72/125/3
f  83/100/1 72/120/1 60/86/1
f  90/103/6 48/121/6 91/124/6
f  91/124/2 48/121/2 90/103/2
f  29/108/5 90/122/5 84/106/5
f  84/106/3 90/122/3 29/108/3
f  84/135/1 77/110/1 76/130/1
f  51/36/4 75/81/4 73/127/4
f  77/95/3 73/136/3 63/75/3
f  63/75/5 73/136/5 77/95/5
f  64/20/3 74/117/3 85/1/3
f  64/1/4 70/115/4 75/81/4
f  79/79/3 41/112/3 78/50/3
f  86/1/6 74/116/6 80/96/6
f  87/1/5 80/81/5 69/116/5
f  70/132/2 85/1/2 69/118/2
f  82/133/4 75/81/4 70/115/4
f  88/137/4 82/133/4 57/100/4
f  57/128/3 89/138/3 83/113/3
f  83/113/5 89/138/5 57/128/5
f  89/138/3 57/128/3 88/136/3
f  88/136/5 57/128/5 89/138/5
f  48/123/5 72/125/5 91/122/5
f  91/122/3 72/125/3 48/123/3
f  72/120/1 83/100/1 89/137/1
f  91/139/1 89/137/1 90/140/1
f  73/101/2 89/134/2 88/119/2
f  88/119/6 89/134/6 73/101/6
f  73/127/4 82/133/4 88/137/4
f  90/140/1 77/110/1 84/135/1
f  82/133/4 73/127/4 75/81/4
f  73/136/3 77/95/3 92/138/3
f  92/138/5 77/95/5 73/136/5
f  86/114/3 85/1/3 74/117/3
f  64/20/2 85/1/2 70/132/2
f  86/114/1 80/99/1 85/1/1
f  87/115/1 85/1/1 80/99/1
f  87/131/2 69/118/2 85/1/2
f  72/120/1 89/137/1 91/139/1
f  92/127/1 90/140/1 89/137/1
f  89/134/2 73/101/2 92/88/2
f  92/88/6 73/101/6 89/134/6
f  90/140/1 92/127/1 77/110/1

# Mesh 'mesh1_mesh1-geometry' with 48 faces
g mesh1_mesh1-geometry
usemtl material_2_24
f  9//1 30//1 5//1
f  5//4 30//4 9//4
f  5//1 31//1 10//1
f  10//4 31//4 5//4
f  10//1 39//1 6//1
f  6//4 39//4 10//4
f  9//1 28//1 30//1
f  30//4 28//4 9//4
f  5//1 30//1 31//1
f  31//4 30//4 5//4
f  35//1 10//1 31//1
f  31//4 10//4 35//4
f  10//1 35//1 39//1
f  39//4 35//4 10//4
f  6//1 39//1 15//1
f  15//4 39//4 6//4
f  20//1 28//1 9//1
f  9//4 28//4 20//4
f  38//1 15//1 39//1
f  39//4 15//4 38//4
f  20//1 58//1 28//1
f  28//4 58//4 20//4
f  38//1 40//1 15//1
f  15//4 40//4 38//4
f  45//1 58//1 20//1
f  20//4 58//4 45//4
f  29//1 63//1 34//1
f  34//4 63//4 29//4
f  34//1 40//1 38//1
f  38//4 40//4 34//4
f  57//1 71//1 45//1
f  45//4 71//4 57//4
f  58//1 45//1 71//1
f  71//4 45//4 58//4
f  48//1 88//1 61//1
f  61//4 88//4 48//4
f  61//1 63//1 29//1
f  29//4 63//4 61//4
f  34//1 63//1 40//1
f  40//4 63//4 34//4
f  71//1 57//1 88//1
f  88//4 57//4 71//4
f  71//1 88//1 48//1
f  48//4 88//4 71//4
f  73//1 61//1 88//1
f  88//4 61//4 73//4
f  61//1 73//1 63//1
f  63//4 73//4 61//4

