# File produced by Open Asset Import Library (http://www.assimp.sf.net)
# (assimp v3.2.202087883)

mtllib model_normalized.mtl

# 36 vertex positions
v 0.495525 0.138855 0.150002
v -0.398282 0.138855 -0.185175
v -0.398282 0.138855 0.150002
v 0.495525 0.138855 -0.185175
v -0.398282 0.138273 0.150002
v 0.495525 0.119652 0.131381
v 0.476904 0.119652 -0.185175
v -0.398282 0.138273 0.131381
v -0.379661 0.119652 0.150002
v 0.495525 -0.159081 0.131381
v 0.495525 0.119652 -0.166554
v 0.495525 -0.159081 -0.185175
v -0.379661 0.119652 -0.185175
v -0.398282 0.119652 0.131381
v -0.398282 -0.159081 0.150002
v 0.476904 0.119652 0.150002
v 0.495525 -0.159081 0.150002
v 0.476904 0.119652 0.131381
v 0.476904 -0.159081 -0.185175
v -0.379661 -0.159081 -0.185175
v -0.379661 0.119652 -0.166554
v -0.398282 0.119652 -0.166554
v -0.398282 -0.159081 0.131381
v 0.476904 -0.159081 0.150002
v -0.379661 -0.159081 0.150002
v 0.476904 -0.159081 0.131381
v 0.476904 0.119652 -0.166554
v 0.495525 -0.159081 -0.166554
v 0.476904 -0.159081 -0.166554
v -0.398282 -0.159081 -0.185175
v -0.379661 0.119652 0.131381
v -0.398282 -0.159081 -0.166554
v -0.379661 -0.159081 0.131381
v -0.379661 -0.159081 -0.166554
v -0.379664 0.138750 0.131381
v -0.379664 0.138750 0.150002

# 59 UV coordinates
vt 4.18024 3.0263 0
vt 2.84691 3.5263 0
vt 2.84691 3.0263 0
vt 4.18024 3.5263 0
vt -3.5263 0.444444 0
vt -3.0263 0.443576 0
vt -3.0263 0.444444 0
vt 2.84691 0.443576 0
vt 4.18024 0.444444 0
vt 2.84691 0.444444 0
vt 3.0263 0.444444 0
vt 3.05407 0.415799 0
vt 3.5263 0.444444 0
vt -4.18024 0.444444 0
vt -4.15246 0.415799 0
vt -2.84691 0.444444 0
vt -3.05407 0.443576 0
vt 2.87469 0.415799 0
vt 3.05407 0 0
vt 3.49852 0.415799 0
vt -4.18024 0 0
vt -2.87469 0.415799 0
vt -3.05407 0.415799 0
vt -3.0263 0 0
vt 4.15246 0.415799 0
vt 2.84691 0 0
vt 3.0263 0 0
vt -4.18024 0.415799 0
vt -4.15246 3.05407 0
vt -4.18024 3.49852 0
vt -4.18024 3.05407 0
vt 3.5263 0 0
vt -4.15246 0 0
vt -2.87469 0 0
vt -4.15246 3.5263 0
vt -2.87469 3.49852 0
vt -2.87469 3.5263 0
vt -3.49852 0.415799 0
vt -3.05407 0 0
vt 4.15246 0 0
vt -2.87469 3.0263 0
vt -4.15246 3.0263 0
vt 2.87469 0 0
vt 4.18024 0 0
vt -4.15246 3.49852 0
vt 3.49852 0 0
vt -3.49852 0 0
vt -3.5263 0.415799 0
vt -3.5263 0 0
vt -2.84691 0 0
vt 3.5263 0.415799 0
vt -2.87469 3.05407 0
vt -2.84691 3.05407 0
vt -2.84691 3.49852 0
vt -2.84691 0.415799 0
vt -3.0263 0.415799 0
vt 3.0263 0.415799 0
vt 4.18024 0.415799 0
vt 2.84691 0.415799 0

# 8 vertex normals
vn 0 0.0254 0
vn -0.0254 0 0
vn 0 0 0.0254
vn 0.0254 0 0
vn 0 0 -0.0254
vn 0 -0.0254 0
vn 0.00065057 -0.0253917 0
vn -0.00065057 0.0253917 0

# Mesh 'mesh1_mesh1-geometry' with 56 faces
g mesh1_mesh1-geometry
usemtl material_0_1_8
f  1/1/1 2/2/1 3/3/1
f  2/2/1 1/1/1 4/4/1
f  2/5/2 5/6/2 3/7/2
f  5/8/3 1/9/3 3/10/3
f  1/11/4 6/12/4 4/13/4
f  4/14/5 7/15/5 2/16/5
f  5/6/2 2/5/2 8/17/2
f  9/18/3 1/9/3 5/8/3
f  1/11/4 10/19/4 6/12/4
f  4/13/4 6/12/4 11/20/4
f  12/21/5 7/15/5 4/14/5
f  13/22/5 2/16/5 7/15/5
f  8/17/2 2/5/2 14/23/2
f  8/17/2 15/24/2 5/6/2
f  16/25/3 1/9/3 9/18/3
f  15/26/3 9/18/3 5/8/3
f  10/19/4 1/11/4 17/27/4
f  10/21/5 18/15/5 6/28/5
f  18/29/6 11/30/6 6/31/6
f  4/13/4 11/20/4 12/32/4
f  7/15/5 12/21/5 19/33/5
f  20/34/5 2/16/5 13/22/5
f  7/35/6 21/36/6 13/37/6
f  14/23/2 2/5/2 22/38/2
f  23/39/2 8/17/2 14/23/2
f  15/24/2 8/17/2 23/39/2
f  24/40/3 1/9/3 16/25/3
f  9/41/6 7/35/6 16/42/6
f  9/18/3 15/26/3 25/43/3
f  1/9/3 24/40/3 17/44/3
f  18/15/5 10/21/5 26/33/5
f  11/30/6 18/29/6 27/45/6
f  12/32/4 11/20/4 28/46/4
f  29/47/2 7/48/2 19/49/2
f  2/16/5 20/34/5 30/50/5
f  21/20/4 20/32/4 13/51/4
f  21/36/6 7/35/6 31/52/6
f  22/38/2 2/5/2 32/47/2
f  21/36/6 14/53/6 22/54/6
f  14/55/5 33/34/5 23/50/5
f  18/23/2 24/24/2 16/56/2
f  31/52/6 7/35/6 9/41/6
f  16/42/6 7/35/6 27/45/6
f  33/19/4 9/57/4 25/27/4
f  24/24/2 18/23/2 26/39/2
f  16/42/6 27/45/6 18/29/6
f  29/40/3 11/58/3 27/25/3
f  11/58/3 29/40/3 28/44/3
f  7/48/2 29/47/2 27/38/2
f  32/47/2 2/5/2 30/49/2
f  20/32/4 21/20/4 34/46/4
f  14/53/6 21/36/6 31/52/6
f  32/26/3 21/18/3 22/59/3
f  33/34/5 14/55/5 31/22/5
f  9/57/4 33/19/4 31/12/4
f  21/18/3 32/26/3 34/43/3

# Mesh 'mesh1_mesh1-geometry' with 60 faces
g mesh1_mesh1-geometry
usemtl material_1_24
f  3//6 2//6 1//6
f  4//6 1//6 2//6
f  3//4 5//4 2//4
f  3//5 1//5 5//5
f  4//2 6//2 1//2
f  2//3 7//3 4//3
f  8//4 2//4 5//4
f  5//5 1//5 9//5
f  6//2 10//2 1//2
f  11//2 6//2 4//2
f  4//3 7//3 12//3
f  7//3 2//3 13//3
f  14//4 2//4 8//4
f  35//7 5//7 8//7
f  8//8 5//8 35//8
f  5//4 15//4 8//4
f  9//5 1//5 16//5
f  5//5 9//5 15//5
f  17//2 1//2 10//2
f  6//3 18//3 10//3
f  6//1 11//1 18//1
f  12//2 11//2 4//2
f  19//3 12//3 7//3
f  13//3 2//3 20//3
f  13//1 21//1 7//1
f  22//4 2//4 14//4
f  14//4 8//4 23//4
f  5//7 35//7 36//7
f  36//8 35//8 5//8
f  23//4 8//4 15//4
f  16//5 1//5 24//5
f  16//1 7//1 9//1
f  25//5 15//5 9//5
f  17//5 24//5 1//5
f  26//3 10//3 18//3
f  27//1 18//1 11//1
f  28//2 11//2 12//2
f  19//4 7//4 29//4
f  30//3 20//3 2//3
f  13//2 20//2 21//2
f  31//1 7//1 21//1
f  32//4 2//4 22//4
f  22//1 14//1 21//1
f  23//3 33//3 14//3
f  16//4 24//4 18//4
f  9//1 7//1 31//1
f  27//1 7//1 16//1
f  25//2 9//2 33//2
f  26//4 18//4 24//4
f  18//1 27//1 16//1
f  27//5 11//5 29//5
f  28//5 29//5 11//5
f  27//4 29//4 7//4
f  30//4 2//4 32//4
f  34//2 21//2 20//2
f  31//1 21//1 14//1
f  22//5 21//5 32//5
f  31//3 14//3 33//3
f  31//2 33//2 9//2
f  34//5 32//5 21//5

