# File produced by Open Asset Import Library (http://www.assimp.sf.net)
# (assimp v3.2.202087883)

mtllib model_normalized.mtl

# 150 vertex positions
v -0.265576 -0.640982 0.056301
v 0.284884 0.188698 0.056301
v -0.265576 0.188698 0.056301
v 0.284884 -0.640982 0.056301
v -0.000864 0.188698 0.037699
v -0.265576 0.188698 -0.027765
v 0.284884 -0.640982 -0.027765
v 0.005089 0.188698 0.036195
v -0.007002 0.188698 0.037612
v -0.265576 -0.640982 -0.027765
v -0.026958 0.188698 0.017077
v 0.284884 0.188698 -0.027765
v 0.010449 0.188698 0.033201
v 0.003156 0.188698 0.031570
v -0.001629 0.188698 0.032425
v -0.012909 0.188698 0.035938
v -0.199812 0.114203 -0.027765
v -0.025454 0.188698 0.023030
v -0.026871 0.188698 0.010939
v -0.195445 -0.597967 -0.027765
v 0.215303 0.114203 -0.027765
v -0.000198 0.188698 -0.008930
v 0.014852 0.188698 0.028923
v 0.007556 0.188698 0.029506
v -0.006471 0.188698 0.032012
v -0.011042 0.188698 0.030360
v -0.018182 0.188698 0.032793
v -0.199812 -0.156438 -0.027765
v -0.022460 0.188698 0.028390
v -0.025197 0.188698 0.005031
v -0.195445 -0.513394 -0.027765
v -0.054851 -0.597967 -0.027765
v 0.215303 -0.156438 -0.027765
v 0.005709 0.188698 -0.007256
v 0.017997 0.188698 0.023650
v 0.014051 0.188698 0.022386
v 0.011272 0.188698 0.026374
v 0.006068 0.188698 0.022378
v 0.000648 0.188698 0.025507
v -0.002482 0.188698 0.025919
v -0.015029 0.188698 0.027581
v -0.199812 0.114203 -0.019280
v -0.195445 -0.230118 -0.027765
v -0.022052 0.188698 -0.000241
v -0.195445 -0.428817 -0.027765
v -0.195445 -0.513394 -0.036388
v 0.085743 -0.597967 -0.027765
v -0.054851 -0.597967 -0.036388
v 0.209802 -0.230118 -0.027765
v 0.215303 -0.156438 -0.019280
v -0.006337 0.188698 -0.009018
v 0.001506 0.188698 -0.004357
v 0.010982 0.188698 -0.004111
v 0.019670 0.188698 0.017743
v 0.016115 0.188698 0.012973
v 0.015702 0.188698 0.017816
v 0.009610 0.188698 0.013827
v 0.007990 0.188698 0.019873
v 0.003564 0.188698 0.024299
v -0.005612 0.188698 0.025507
v -0.008528 0.188698 0.024299
v -0.012955 0.188698 0.019873
v -0.018161 0.188698 0.023865
v -0.020225 0.188698 0.019465
v 0.215303 0.114203 -0.019280
v -0.199812 -0.156438 -0.019280
v -0.195445 -0.334012 -0.027765
v -0.017649 0.188698 -0.004520
v -0.195445 -0.428817 -0.036572
v -0.195445 -0.597967 -0.036388
v 0.209802 -0.597967 -0.027765
v 0.085743 -0.597967 -0.036572
v -0.054851 -0.597967 -0.036572
v 0.209802 -0.334012 -0.027765
v -0.012289 0.188698 -0.007513
v -0.003336 0.188698 -0.004770
v 0.006077 0.188698 -0.002705
v 0.010064 0.188698 0.000073
v 0.015261 0.188698 0.000292
v 0.019758 0.188698 0.011604
v 0.018254 0.188698 0.005652
v 0.015261 0.188698 0.008189
v 0.013197 0.188698 0.003789
v 0.009198 0.188698 0.016957
v 0.006068 0.188698 0.005277
v 0.003564 0.188698 0.003355
v 0.002930 0.188698 0.015277
v 0.000320 0.188698 0.018680
v -0.003932 0.188698 0.019240
v -0.011033 0.188698 0.022378
v -0.014162 0.188698 0.016957
v -0.016236 0.188698 0.001281
v -0.021079 0.188698 0.014681
v 0.085743 -0.230118 -0.027765
v -0.195445 -0.230118 -0.036572
v -0.019015 0.188698 0.005268
v -0.195445 -0.334012 -0.036572
v -0.195445 -0.513394 -0.036572
v 0.209802 -0.513394 -0.027765
v 0.209802 -0.597967 -0.036572
v -0.054851 -0.513394 -0.036572
v 0.209802 -0.428817 -0.027765
v 0.209802 -0.334012 -0.036572
v -0.008120 0.188698 -0.003916
v 0.000648 0.188698 0.002147
v 0.009198 0.188698 0.010697
v 0.007990 0.188698 0.007781
v 0.003121 0.188698 0.013827
v 0.002370 0.188698 0.016629
v 0.001480 0.188698 0.017789
v -0.001032 0.188698 0.019240
v -0.002482 0.188698 0.019431
v -0.005284 0.188698 0.018680
v -0.006445 0.188698 0.017789
v -0.011033 0.188698 0.005277
v -0.012955 0.188698 0.007781
v -0.014575 0.188698 0.013827
v -0.020667 0.188698 0.009838
v 0.085743 -0.230118 -0.036572
v -0.054851 -0.230118 -0.027765
v -0.012520 0.188698 -0.001852
v -0.054851 -0.428817 -0.036572
v -0.054851 -0.513394 -0.036388
v 0.085743 -0.513394 -0.036572
v 0.209802 -0.428817 -0.036572
v 0.209802 -0.230118 -0.036572
v -0.005612 0.188698 0.002147
v -0.002482 0.188698 0.001735
v 0.002930 0.188698 0.012377
v 0.002370 0.188698 0.011025
v 0.000320 0.188698 0.008974
v -0.001032 0.188698 0.008414
v -0.003932 0.188698 0.008414
v -0.005284 0.188698 0.008974
v -0.007335 0.188698 0.016629
v -0.008528 0.188698 0.003355
v -0.014162 0.188698 0.010697
v 0.071263 -0.230118 -0.036572
v -0.054851 -0.334012 -0.036572
v -0.054851 -0.230118 -0.036572
v 0.209802 -0.513394 -0.036572
v 0.085743 -0.334012 -0.036572
v 0.001480 0.188698 0.009865
v -0.002482 0.188698 0.008223
v -0.006445 0.188698 0.009865
v -0.007335 0.188698 0.011025
v -0.007895 0.188698 0.015277
v -0.008086 0.188698 0.013827
v 0.085743 -0.428817 -0.036572
v -0.007895 0.188698 0.012377

# 74 UV coordinates
vt 0 0 0
vt 0.870297 0 0
vt 0.41852 0.02941 0
vt 0 0.13291 0
vt -1.31175 0 0
vt -0.870297 0.13291 0
vt -0.870297 0 0
vt 1.31175 0.13291 0
vt 1.31175 0 0
vt 0.427931 0.031788 0
vt 0.408814 0.029548 0
vt -1.31175 0.13291 0
vt 0.377263 0.062013 0
vt 0.436405 0.036521 0
vt 0.399475 0.032194 0
vt 0.117778 -0.103975 0
vt 0.379641 0.052603 0
vt 0.377402 0.071719 0
vt 1.24374 -0.11088 0
vt 1.31175 -0.870297 0
vt 0.117778 -0.760288 0
vt 0 -0.870297 0
vt 0.870297 0.13291 0
vt 0.419572 0.103132 0
vt 0.443366 0.043286 0
vt 0.391139 0.037167 0
vt 0.545672 -0.103975 0
vt 0.384374 0.044128 0
vt 0.380047 0.081058 0
vt 1.11003 -0.11088 0
vt 1.24374 -0.333164 0
vt 0.545672 -0.760288 0
vt 0.428911 0.100486 0
vt 0.448339 0.051622 0
vt -0.760288 0.13291 0
vt -0.103975 0.119495 0
vt -0.103975 0.13291 0
vt 0.117778 0.119495 0
vt 0.545672 0.13291 0
vt 0.117778 0.13291 0
vt 0.662161 -0.11088 0
vt 0.38502 0.089394 0
vt 0.976314 -0.11088 0
vt 1.24374 -0.555448 0
vt 0.662161 -0.751591 0
vt -0.545672 0.119495 0
vt -0.117778 0.13291 0
vt -0.545672 0.13291 0
vt 0.409867 0.10327 0
vt 0.437247 0.095513 0
vt 0.450985 0.060961 0
vt -0.760288 0.119495 0
vt 0.545672 0.119495 0
vt 0.82642 -0.11088 0
vt 0.391981 0.096159 0
vt 1.24374 -0.751591 0
vt 0.82642 -0.751591 0
vt -0.117778 0.119495 0
vt 0.103975 0.13291 0
vt 0.760288 0.119495 0
vt 0.760288 0.13291 0
vt 0.400456 0.100892 0
vt 0.444012 0.088552 0
vt 0.451124 0.070667 0
vt 0.103975 0.119495 0
vt 0.662161 -0.555448 0
vt 1.11003 -0.751591 0
vt 0.976314 -0.751591 0
vt 0.448745 0.080078 0
vt 0.662161 -0.333164 0
vt 0.409254 -0.570216 0
vt 0.088333 -0.077981 0
vt 0.088333 -0.570216 0
vt 0.409254 -0.077981 0

# 6 vertex normals
vn 0 0 0.001
vn 0 0 -0.001
vn 0 -0.001 0
vn 0.001 0 0
vn 0 0.001 0
vn -0.001 0 0

# Mesh 'mesh1_mesh1-geometry' with 296 faces
g mesh1_mesh1-geometry
usemtl material_0_24
f  1/1/1 2/1/1 3/1/1
f  2/1/1 1/1/1 4/1/1
f  3/1/2 2/1/2 1/1/2
f  4/1/2 1/1/2 2/1/2
f  3/1/3 5/1/3 2/1/3
f  3/1/4 1/1/4 6/1/4
f  4/1/5 7/1/5 1/1/5
f  4/1/6 2/1/6 7/1/6
f  8/1/3 2/1/3 5/1/3
f  9/1/3 5/1/3 3/1/3
f  10/1/4 6/1/4 1/1/4
f  6/1/3 11/1/3 3/1/3
f  10/1/5 1/1/5 7/1/5
f  12/1/6 7/1/6 2/1/6
f  13/1/3 2/1/3 8/1/3
f  5/1/3 14/1/3 8/1/3
f  9/1/3 15/1/3 5/1/3
f  16/1/3 9/1/3 3/1/3
f  10/1/1 17/1/1 6/1/1
f  11/1/3 18/1/3 3/1/3
f  11/1/3 6/1/3 19/1/3
f  7/1/1 20/1/1 10/1/1
f  7/1/1 12/1/1 21/1/1
f  2/1/3 22/1/3 12/1/3
f  23/1/3 2/1/3 13/1/3
f  8/1/3 24/1/3 13/1/3
f  14/1/3 24/1/3 8/1/3
f  15/1/3 14/1/3 5/1/3
f  25/1/3 15/1/3 9/1/3
f  16/1/3 26/1/3 9/1/3
f  27/1/3 16/1/3 3/1/3
f  21/1/1 6/1/1 17/1/1
f  28/1/1 17/1/1 10/1/1
f  18/1/3 29/1/3 3/1/3
f  11/1/3 19/1/3 18/1/3
f  19/1/3 6/1/3 30/1/3
f  20/1/1 31/1/1 10/1/1
f  20/1/1 7/1/1 32/1/1
f  6/1/1 21/1/1 12/1/1
f  33/1/1 7/1/1 21/1/1
f  6/1/3 12/1/3 22/1/3
f  34/1/3 22/1/3 2/1/3
f  35/1/3 2/1/3 23/1/3
f  13/1/3 36/1/3 23/1/3
f  24/1/3 37/1/3 13/1/3
f  14/1/3 38/1/3 24/1/3
f  15/1/3 39/1/3 14/1/3
f  25/1/3 40/1/3 15/1/3
f  26/1/3 25/1/3 9/1/3
f  41/1/3 26/1/3 16/1/3
f  27/1/3 41/1/3 16/1/3
f  29/1/3 27/1/3 3/1/3
f  17/1/5 42/1/5 21/1/5
f  17/1/6 28/1/6 42/1/6
f  43/1/1 28/1/1 10/1/1
f  18/1/3 30/1/3 29/1/3
f  19/1/3 30/1/3 18/1/3
f  30/1/3 6/1/3 44/1/3
f  31/1/1 45/1/1 10/1/1
f  31/1/4 20/1/4 46/1/4
f  32/1/1 7/1/1 47/1/1
f  32/1/5 48/1/5 20/1/5
f  49/1/1 7/1/1 33/1/1
f  33/1/4 21/1/4 50/1/4
f  51/1/3 6/1/3 22/1/3
f  22/1/3 34/1/3 52/1/3
f  53/1/3 34/1/3 2/1/3
f  54/1/3 2/1/3 35/1/3
f  35/1/3 23/1/3 55/1/3
f  36/1/3 56/1/3 23/1/3
f  37/1/3 36/1/3 13/1/3
f  24/1/3 57/1/3 37/1/3
f  38/1/3 58/1/3 24/1/3
f  59/1/3 38/1/3 14/1/3
f  39/1/3 59/1/3 14/1/3
f  40/1/3 39/1/3 15/1/3
f  60/1/3 40/1/3 25/1/3
f  26/1/3 61/1/3 25/1/3
f  41/1/3 62/1/3 26/1/3
f  63/1/3 41/1/3 27/1/3
f  29/1/3 64/1/3 27/1/3
f  65/1/5 21/1/5 42/1/5
f  66/1/6 42/1/6 28/1/6
f  49/1/1 28/1/1 43/1/1
f  67/1/1 43/1/1 10/1/1
f  30/1/3 44/1/3 29/1/3
f  44/1/3 6/1/3 68/1/3
f  45/1/1 67/1/1 10/1/1
f  45/1/4 31/1/4 69/1/4
f  70/1/4 46/1/4 20/1/4
f  46/1/4 69/1/4 31/1/4
f  47/1/1 7/1/1 71/1/1
f  47/1/5 72/1/5 32/1/5
f  70/1/5 20/1/5 48/1/5
f  48/1/5 32/1/5 73/1/5
f  74/1/1 7/1/1 49/1/1
f  28/1/1 49/1/1 33/1/1
f  65/1/4 50/1/4 21/1/4
f  33/1/3 50/1/3 28/1/3
f  75/1/3 6/1/3 51/1/3
f  51/1/3 22/1/3 76/1/3
f  52/1/3 34/1/3 77/1/3
f  76/1/3 22/1/3 52/1/3
f  34/1/3 53/1/3 78/1/3
f  79/1/3 53/1/3 2/1/3
f  80/1/3 2/1/3 54/1/3
f  35/1/3 81/1/3 54/1/3
f  56/1/3 55/1/3 23/1/3
f  55/1/3 79/1/3 35/1/3
f  36/1/3 82/1/3 56/1/3
f  37/1/3 83/1/3 36/1/3
f  57/1/3 78/1/3 37/1/3
f  84/1/3 57/1/3 24/1/3
f  58/1/3 84/1/3 24/1/3
f  38/1/3 85/1/3 58/1/3
f  59/1/3 86/1/3 38/1/3
f  39/1/3 87/1/3 59/1/3
f  40/1/3 88/1/3 39/1/3
f  60/1/3 89/1/3 40/1/3
f  61/1/3 60/1/3 25/1/3
f  90/1/3 61/1/3 26/1/3
f  62/1/3 90/1/3 26/1/3
f  91/1/3 62/1/3 41/1/3
f  63/1/3 92/1/3 41/1/3
f  64/1/3 63/1/3 27/1/3
f  93/1/3 64/1/3 29/1/3
f  66/1/3 28/1/3 50/1/3
f  94/1/1 49/1/1 43/1/1
f  43/1/4 67/1/4 95/1/4
f  44/1/3 93/1/3 29/1/3
f  68/1/3 6/1/3 75/1/3
f  44/1/3 68/1/3 96/1/3
f  67/1/4 45/1/4 97/1/4
f  69/1/4 97/1/4 45/1/4
f  70/1/1 48/1/1 46/1/1
f  98/1/4 69/1/4 46/1/4
f  71/1/1 7/1/1 99/1/1
f  71/1/5 100/1/5 47/1/5
f  73/1/5 32/1/5 72/1/5
f  72/1/5 47/1/5 100/1/5
f  73/1/4 101/1/4 48/1/4
f  102/1/1 7/1/1 74/1/1
f  74/1/6 49/1/6 103/1/6
f  75/1/3 51/1/3 104/1/3
f  104/1/3 51/1/3 76/1/3
f  77/1/3 34/1/3 78/1/3
f  52/1/3 77/1/3 85/1/3
f  76/1/3 52/1/3 105/1/3
f  78/1/3 53/1/3 83/1/3
f  53/1/3 79/1/3 82/1/3
f  81/1/3 79/1/3 2/1/3
f  80/1/3 81/1/3 2/1/3
f  80/1/3 54/1/3 81/1/3
f  79/1/3 81/1/3 35/1/3
f  55/1/3 56/1/3 82/1/3
f  82/1/3 79/1/3 55/1/3
f  83/1/3 82/1/3 36/1/3
f  78/1/3 83/1/3 37/1/3
f  57/1/3 106/1/3 78/1/3
f  57/1/3 84/1/3 106/1/3
f  58/1/3 107/1/3 84/1/3
f  85/1/3 107/1/3 58/1/3
f  86/1/3 85/1/3 38/1/3
f  108/1/3 86/1/3 59/1/3
f  108/1/3 59/1/3 87/1/3
f  109/1/3 87/1/3 39/1/3
f  88/1/3 110/1/3 39/1/3
f  111/1/3 88/1/3 40/1/3
f  89/1/3 112/1/3 40/1/3
f  113/1/3 89/1/3 60/1/3
f  61/1/3 114/1/3 60/1/3
f  90/1/3 115/1/3 61/1/3
f  62/1/3 116/1/3 90/1/3
f  91/1/3 116/1/3 62/1/3
f  117/1/3 91/1/3 41/1/3
f  41/1/3 92/1/3 117/1/3
f  96/1/3 92/1/3 63/1/3
f  64/1/3 96/1/3 63/1/3
f  93/1/3 118/1/3 64/1/3
f  94/1/3 119/1/3 49/1/3
f  120/1/1 94/1/1 43/1/1
f  97/1/4 95/1/4 67/1/4
f  43/1/3 95/1/3 120/1/3
f  93/1/3 44/1/3 118/1/3
f  68/1/3 75/1/3 121/1/3
f  96/1/3 68/1/3 92/1/3
f  118/1/3 44/1/3 96/1/3
f  69/1/1 122/1/1 97/1/1
f  123/1/1 46/1/1 48/1/1
f  98/1/1 101/1/1 69/1/1
f  98/1/5 46/1/5 101/1/5
f  99/1/1 7/1/1 102/1/1
f  71/1/6 99/1/6 100/1/6
f  73/1/1 72/1/1 101/1/1
f  72/1/1 100/1/1 124/1/1
f  123/1/4 48/1/4 101/1/4
f  102/1/6 74/1/6 125/1/6
f  126/1/6 103/1/6 49/1/6
f  103/1/6 125/1/6 74/1/6
f  121/1/3 75/1/3 104/1/3
f  104/1/3 76/1/3 127/1/3
f  77/1/3 78/1/3 106/1/3
f  85/1/3 77/1/3 107/1/3
f  86/1/3 52/1/3 85/1/3
f  105/1/3 52/1/3 86/1/3
f  128/1/3 76/1/3 105/1/3
f  83/1/3 53/1/3 82/1/3
f  107/1/3 106/1/3 84/1/3
f  129/1/3 86/1/3 108/1/3
f  108/1/3 87/1/3 129/1/3
f  109/1/3 130/1/3 87/1/3
f  110/1/3 109/1/3 39/1/3
f  88/1/3 131/1/3 110/1/3
f  111/1/3 132/1/3 88/1/3
f  112/1/3 111/1/3 40/1/3
f  89/1/3 133/1/3 112/1/3
f  113/1/3 134/1/3 89/1/3
f  114/1/3 113/1/3 60/1/3
f  135/1/3 114/1/3 61/1/3
f  115/1/3 136/1/3 61/1/3
f  116/1/3 115/1/3 90/1/3
f  137/1/3 116/1/3 91/1/3
f  117/1/3 137/1/3 91/1/3
f  117/1/3 92/1/3 137/1/3
f  118/1/3 96/1/3 64/1/3
f  126/1/3 49/1/3 119/1/3
f  119/1/3 94/1/3 138/1/3
f  120/1/3 138/1/3 94/1/3
f  97/1/1 139/1/1 95/1/1
f  140/1/3 120/1/3 95/1/3
f  92/1/3 68/1/3 121/1/3
f  139/1/1 97/1/1 122/1/1
f  122/1/1 69/1/1 101/1/1
f  123/1/5 101/1/5 46/1/5
f  99/1/6 102/1/6 141/1/6
f  141/1/6 100/1/6 99/1/6
f  124/1/1 101/1/1 72/1/1
f  141/1/1 124/1/1 100/1/1
f  125/1/6 141/1/6 102/1/6
f  126/1/1 119/1/1 103/1/1
f  103/1/1 142/1/1 125/1/1
f  121/1/3 104/1/3 136/1/3
f  127/1/3 76/1/3 128/1/3
f  136/1/3 104/1/3 127/1/3
f  107/1/3 77/1/3 106/1/3
f  105/1/3 86/1/3 129/1/3
f  128/1/3 105/1/3 131/1/3
f  130/1/3 129/1/3 87/1/3
f  143/1/3 130/1/3 109/1/3
f  110/1/3 143/1/3 109/1/3
f  131/1/3 143/1/3 110/1/3
f  132/1/3 131/1/3 88/1/3
f  144/1/3 132/1/3 111/1/3
f  112/1/3 144/1/3 111/1/3
f  133/1/3 144/1/3 112/1/3
f  134/1/3 133/1/3 89/1/3
f  145/1/3 134/1/3 113/1/3
f  114/1/3 145/1/3 113/1/3
f  135/1/3 146/1/3 114/1/3
f  147/1/3 135/1/3 61/1/3
f  136/1/3 148/1/3 61/1/3
f  115/1/3 121/1/3 136/1/3
f  116/1/3 121/1/3 115/1/3
f  137/1/3 92/1/3 116/1/3
f  119/1/1 138/1/1 142/1/1
f  140/1/3 138/1/3 120/1/3
f  140/1/1 95/1/1 139/1/1
f  92/1/3 121/1/3 116/1/3
f  139/1/1 122/1/1 142/1/1
f  101/1/1 124/1/1 122/1/1
f  124/1/1 141/1/1 149/1/1
f  125/1/1 149/1/1 141/1/1
f  142/1/1 103/1/1 119/1/1
f  149/1/1 125/1/1 142/1/1
f  127/1/3 128/1/3 144/1/3
f  136/1/3 127/1/3 145/1/3
f  130/1/3 105/1/3 129/1/3
f  131/1/3 105/1/3 143/1/3
f  132/1/3 128/1/3 131/1/3
f  143/1/3 105/1/3 130/1/3
f  144/1/3 128/1/3 132/1/3
f  133/1/3 127/1/3 144/1/3
f  134/1/3 127/1/3 133/1/3
f  145/1/3 127/1/3 134/1/3
f  146/1/3 145/1/3 114/1/3
f  150/1/3 146/1/3 135/1/3
f  147/1/3 150/1/3 135/1/3
f  148/1/3 147/1/3 61/1/3
f  148/1/3 136/1/3 150/1/3
f  140/1/1 142/1/1 138/1/1
f  139/1/1 142/1/1 140/1/1
f  149/1/1 142/1/1 122/1/1
f  149/1/1 122/1/1 124/1/1
f  146/1/3 136/1/3 145/1/3
f  150/1/3 136/1/3 146/1/3
f  148/1/3 150/1/3 147/1/3

# Mesh 'mesh1_mesh1-geometry' with 66 faces
g mesh1_mesh1-geometry
usemtl material_1_1_8
f  2/2/5 5/3/5 3/1/5
f  6/4/6 1/5/6 3/1/6
f  1/1/3 7/6/3 4/7/3
f  7/8/4 2/1/4 4/9/4
f  5/3/5 2/2/5 8/10/5
f  3/1/5 5/3/5 9/11/5
f  1/5/6 6/4/6 10/12/6
f  3/1/5 11/13/5 6/4/5
f  7/6/3 1/1/3 10/4/3
f  2/1/4 7/8/4 12/4/4
f  8/10/5 2/2/5 13/14/5
f  3/1/5 9/11/5 16/15/5
f  6/1/2 17/16/2 10/9/2
f  3/1/5 18/17/5 11/13/5
f  19/18/5 6/4/5 11/13/5
f  10/9/2 20/19/2 7/20/2
f  21/21/2 12/22/2 7/20/2
f  12/23/5 22/24/5 2/2/5
f  13/14/5 2/2/5 23/25/5
f  3/1/5 16/15/5 27/26/5
f  17/16/2 6/1/2 21/21/2
f  10/9/2 17/16/2 28/27/2
f  3/1/5 29/28/5 18/17/5
f  30/29/5 6/4/5 19/18/5
f  10/9/2 31/30/2 20/19/2
f  32/31/2 7/20/2 20/19/2
f  12/22/2 21/21/2 6/1/2
f  21/21/2 7/20/2 33/32/2
f  22/24/5 12/23/5 6/4/5
f  2/2/5 22/24/5 34/33/5
f  23/25/5 2/2/5 35/34/5
f  3/1/5 27/26/5 29/28/5
f  21/35/3 42/36/3 17/37/3
f  42/38/4 28/39/4 17/40/4
f  10/9/2 28/27/2 43/41/2
f  44/42/5 6/4/5 30/29/5
f  10/9/2 45/43/2 31/30/2
f  47/44/2 7/20/2 32/31/2
f  33/32/2 7/20/2 49/45/2
f  50/46/6 21/47/6 33/48/6
f  22/24/5 6/4/5 51/49/5
f  2/2/5 34/33/5 53/50/5
f  35/34/5 2/2/5 54/51/5
f  42/36/3 21/35/3 65/52/3
f  28/39/4 42/38/4 66/53/4
f  43/41/2 28/27/2 49/45/2
f  10/9/2 43/41/2 67/54/2
f  68/55/5 6/4/5 44/42/5
f  10/9/2 67/54/2 45/43/2
f  71/56/2 7/20/2 47/44/2
f  49/45/2 7/20/2 74/57/2
f  33/32/2 49/45/2 28/27/2
f  21/47/6 50/46/6 65/58/6
f  28/59/5 50/60/5 33/61/5
f  51/49/5 6/4/5 75/62/5
f  2/2/5 53/50/5 79/63/5
f  54/51/5 2/2/5 80/64/5
f  50/60/5 28/59/5 66/65/5
f  43/41/2 49/45/2 94/66/2
f  75/62/5 6/4/5 68/55/5
f  99/67/2 7/20/2 71/56/2
f  74/57/2 7/20/2 102/68/2
f  2/2/5 79/63/5 81/69/5
f  2/2/5 81/69/5 80/64/5
f  43/41/2 94/66/2 120/70/2
f  102/68/2 7/20/2 99/67/2

# Mesh 'mesh1_mesh1-geometry' with 96 faces
g mesh1_mesh1-geometry
usemtl material_5_24
f  8/1/5 14/1/5 5/1/5
f  5/1/5 15/1/5 9/1/5
f  13/1/5 24/1/5 8/1/5
f  8/1/5 24/1/5 14/1/5
f  5/1/5 14/1/5 15/1/5
f  9/1/5 15/1/5 25/1/5
f  9/1/5 26/1/5 16/1/5
f  18/1/5 19/1/5 11/1/5
f  23/1/5 36/1/5 13/1/5
f  13/1/5 37/1/5 24/1/5
f  9/1/5 25/1/5 26/1/5
f  16/1/5 26/1/5 41/1/5
f  16/1/5 41/1/5 27/1/5
f  29/1/5 30/1/5 18/1/5
f  18/1/5 30/1/5 19/1/5
f  52/1/5 34/1/5 22/1/5
f  55/1/5 23/1/5 35/1/5
f  23/1/5 56/1/5 36/1/5
f  13/1/5 36/1/5 37/1/5
f  27/1/5 41/1/5 63/1/5
f  27/1/5 64/1/5 29/1/5
f  29/1/5 44/1/5 30/1/5
f  76/1/5 22/1/5 51/1/5
f  77/1/5 34/1/5 52/1/5
f  52/1/5 22/1/5 76/1/5
f  78/1/5 53/1/5 34/1/5
f  54/1/5 81/1/5 35/1/5
f  23/1/5 55/1/5 56/1/5
f  35/1/5 79/1/5 55/1/5
f  58/1/5 85/1/5 38/1/5
f  38/1/5 86/1/5 59/1/5
f  59/1/5 87/1/5 39/1/5
f  39/1/5 88/1/5 40/1/5
f  40/1/5 89/1/5 60/1/5
f  27/1/5 63/1/5 64/1/5
f  29/1/5 64/1/5 93/1/5
f  29/1/5 93/1/5 44/1/5
f  96/1/5 68/1/5 44/1/5
f  104/1/5 51/1/5 75/1/5
f  76/1/5 51/1/5 104/1/5
f  78/1/5 34/1/5 77/1/5
f  83/1/5 53/1/5 78/1/5
f  82/1/5 79/1/5 53/1/5
f  81/1/5 54/1/5 80/1/5
f  35/1/5 81/1/5 79/1/5
f  55/1/5 79/1/5 82/1/5
f  106/1/5 84/1/5 57/1/5
f  84/1/5 107/1/5 58/1/5
f  58/1/5 107/1/5 85/1/5
f  38/1/5 85/1/5 86/1/5
f  59/1/5 86/1/5 108/1/5
f  87/1/5 59/1/5 108/1/5
f  39/1/5 87/1/5 109/1/5
f  39/1/5 110/1/5 88/1/5
f  40/1/5 88/1/5 111/1/5
f  40/1/5 112/1/5 89/1/5
f  60/1/5 89/1/5 113/1/5
f  60/1/5 114/1/5 61/1/5
f  61/1/5 115/1/5 90/1/5
f  90/1/5 116/1/5 62/1/5
f  62/1/5 116/1/5 91/1/5
f  118/1/5 44/1/5 93/1/5
f  121/1/5 75/1/5 68/1/5
f  92/1/5 68/1/5 96/1/5
f  96/1/5 44/1/5 118/1/5
f  104/1/5 75/1/5 121/1/5
f  82/1/5 53/1/5 83/1/5
f  84/1/5 106/1/5 107/1/5
f  108/1/5 86/1/5 129/1/5
f  39/1/5 109/1/5 110/1/5
f  40/1/5 111/1/5 112/1/5
f  60/1/5 113/1/5 114/1/5
f  61/1/5 114/1/5 135/1/5
f  61/1/5 136/1/5 115/1/5
f  90/1/5 115/1/5 116/1/5
f  91/1/5 116/1/5 137/1/5
f  91/1/5 137/1/5 117/1/5
f  121/1/5 68/1/5 92/1/5
f  129/1/5 86/1/5 105/1/5
f  131/1/5 105/1/5 128/1/5
f  61/1/5 135/1/5 147/1/5
f  61/1/5 148/1/5 136/1/5
f  144/1/5 128/1/5 127/1/5
f  145/1/5 127/1/5 136/1/5
f  129/1/5 105/1/5 130/1/5
f  143/1/5 105/1/5 131/1/5
f  131/1/5 128/1/5 132/1/5
f  130/1/5 105/1/5 143/1/5
f  132/1/5 128/1/5 144/1/5
f  144/1/5 127/1/5 133/1/5
f  133/1/5 127/1/5 134/1/5
f  134/1/5 127/1/5 145/1/5
f  61/1/5 147/1/5 148/1/5
f  150/1/5 136/1/5 148/1/5
f  145/1/5 136/1/5 146/1/5
f  146/1/5 136/1/5 150/1/5

# Mesh 'mesh1_mesh1-geometry' with 70 faces
g mesh1_mesh1-geometry
usemtl material_6_24
f  24/1/5 38/1/5 14/1/5
f  14/1/5 39/1/5 15/1/5
f  15/1/5 40/1/5 25/1/5
f  37/1/5 57/1/5 24/1/5
f  24/1/5 58/1/5 38/1/5
f  14/1/5 38/1/5 59/1/5
f  14/1/5 59/1/5 39/1/5
f  15/1/5 39/1/5 40/1/5
f  25/1/5 40/1/5 60/1/5
f  25/1/5 61/1/5 26/1/5
f  26/1/5 62/1/5 41/1/5
f  56/1/5 82/1/5 36/1/5
f  36/1/5 83/1/5 37/1/5
f  37/1/5 78/1/5 57/1/5
f  24/1/5 57/1/5 84/1/5
f  24/1/5 84/1/5 58/1/5
f  25/1/5 60/1/5 61/1/5
f  26/1/5 61/1/5 90/1/5
f  26/1/5 90/1/5 62/1/5
f  41/1/5 62/1/5 91/1/5
f  41/1/5 92/1/5 63/1/5
f  85/1/5 77/1/5 52/1/5
f  105/1/5 52/1/5 76/1/5
f  82/1/5 56/1/5 55/1/5
f  36/1/5 82/1/5 83/1/5
f  37/1/5 83/1/5 78/1/5
f  78/1/5 106/1/5 57/1/5
f  41/1/5 91/1/5 117/1/5
f  117/1/5 92/1/5 41/1/5
f  63/1/5 92/1/5 96/1/5
f  63/1/5 96/1/5 64/1/5
f  64/1/5 118/1/5 93/1/5
f  127/1/5 76/1/5 104/1/5
f  106/1/5 78/1/5 77/1/5
f  107/1/5 77/1/5 85/1/5
f  85/1/5 52/1/5 86/1/5
f  86/1/5 52/1/5 105/1/5
f  105/1/5 76/1/5 128/1/5
f  129/1/5 87/1/5 108/1/5
f  87/1/5 130/1/5 109/1/5
f  110/1/5 131/1/5 88/1/5
f  88/1/5 132/1/5 111/1/5
f  112/1/5 133/1/5 89/1/5
f  89/1/5 134/1/5 113/1/5
f  137/1/5 92/1/5 117/1/5
f  64/1/5 96/1/5 118/1/5
f  136/1/5 104/1/5 121/1/5
f  128/1/5 76/1/5 127/1/5
f  127/1/5 104/1/5 136/1/5
f  106/1/5 77/1/5 107/1/5
f  87/1/5 129/1/5 130/1/5
f  109/1/5 130/1/5 143/1/5
f  109/1/5 143/1/5 110/1/5
f  110/1/5 143/1/5 131/1/5
f  88/1/5 131/1/5 132/1/5
f  111/1/5 132/1/5 144/1/5
f  111/1/5 144/1/5 112/1/5
f  112/1/5 144/1/5 133/1/5
f  89/1/5 133/1/5 134/1/5
f  113/1/5 134/1/5 145/1/5
f  113/1/5 145/1/5 114/1/5
f  114/1/5 146/1/5 135/1/5
f  136/1/5 121/1/5 115/1/5
f  115/1/5 121/1/5 116/1/5
f  116/1/5 92/1/5 137/1/5
f  116/1/5 121/1/5 92/1/5
f  114/1/5 145/1/5 146/1/5
f  135/1/5 146/1/5 150/1/5
f  135/1/5 150/1/5 147/1/5
f  147/1/5 150/1/5 148/1/5

# Mesh 'mesh1_mesh1-geometry' with 60 faces
g mesh1_mesh1-geometry
usemtl material_4_24
f  46/1/6 20/1/6 31/1/6
f  20/1/3 48/1/3 32/1/3
f  69/1/6 31/1/6 45/1/6
f  20/1/6 46/1/6 70/1/6
f  31/1/6 69/1/6 46/1/6
f  32/1/3 72/1/3 47/1/3
f  48/1/3 20/1/3 70/1/3
f  73/1/3 32/1/3 48/1/3
f  95/1/6 67/1/6 43/1/6
f  97/1/6 45/1/6 67/1/6
f  45/1/6 97/1/6 69/1/6
f  46/1/2 48/1/2 70/1/2
f  46/1/6 69/1/6 98/1/6
f  47/1/3 100/1/3 71/1/3
f  72/1/3 32/1/3 73/1/3
f  100/1/3 47/1/3 72/1/3
f  48/1/6 101/1/6 73/1/6
f  103/1/4 49/1/4 74/1/4
f  49/1/5 119/1/5 94/1/5
f  67/1/6 95/1/6 97/1/6
f  120/1/5 95/1/5 43/1/5
f  97/1/2 122/1/2 69/1/2
f  48/1/2 46/1/2 123/1/2
f  69/1/2 101/1/2 98/1/2
f  101/1/3 46/1/3 98/1/3
f  100/1/4 99/1/4 71/1/4
f  101/1/2 72/1/2 73/1/2
f  124/1/2 100/1/2 72/1/2
f  101/1/6 48/1/6 123/1/6
f  125/1/4 74/1/4 102/1/4
f  49/1/4 103/1/4 126/1/4
f  74/1/4 125/1/4 103/1/4
f  119/1/5 49/1/5 126/1/5
f  138/1/5 94/1/5 119/1/5
f  94/1/5 138/1/5 120/1/5
f  95/1/2 139/1/2 97/1/2
f  95/1/5 120/1/5 140/1/5
f  122/1/2 97/1/2 139/1/2
f  101/1/2 69/1/2 122/1/2
f  46/1/3 101/1/3 123/1/3
f  141/1/4 102/1/4 99/1/4
f  99/1/4 100/1/4 141/1/4
f  72/1/2 101/1/2 124/1/2
f  100/1/2 124/1/2 141/1/2
f  102/1/4 141/1/4 125/1/4
f  103/1/2 119/1/2 126/1/2
f  125/1/2 142/1/2 103/1/2
f  142/1/2 138/1/2 119/1/2
f  120/1/5 138/1/5 140/1/5
f  139/1/2 95/1/2 140/1/2
f  142/1/2 122/1/2 139/1/2
f  122/1/2 124/1/2 101/1/2
f  149/1/2 141/1/2 124/1/2
f  141/1/2 149/1/2 125/1/2
f  119/1/2 103/1/2 142/1/2
f  142/1/2 125/1/2 149/1/2
f  138/1/2 142/1/2 140/1/2
f  140/1/2 142/1/2 139/1/2
f  122/1/2 142/1/2 149/1/2
f  124/1/2 122/1/2 149/1/2

# Mesh 'mesh1_mesh1-geometry' with 2 faces
g mesh1_mesh1-geometry
usemtl material_2_2_8
f  50/71/2 42/72/2 65/73/2
f  42/72/2 50/71/2 66/74/2

# Mesh 'mesh1_mesh1-geometry' with 2 faces
g mesh1_mesh1-geometry
usemtl material_3_24
f  65//1 42//1 50//1
f  66//1 50//1 42//1

# Mesh 'mesh2_mesh2-geometry' with 4 faces
g mesh2_mesh2-geometry
usemtl material_0_0
l  2 3
l  4 2
l  3 1
l  1 4

