# File produced by Open Asset Import Library (http://www.assimp.sf.net)
# (assimp v3.2.202087883)

mtllib model_normalized.mtl

# 44 vertex positions
v -0.285392 -0.187718 -0.285392
v -0.327361 -0.187718 -0.327361
v -0.285392 -0.187718 -0.327361
v -0.327361 -0.187718 -0.285392
v -0.285392 0.148038 -0.327361
v -0.327361 0.148038 -0.285392
v -0.327361 0.148038 -0.327361
v -0.285392 0.148038 -0.285392
v 0.327361 -0.187718 -0.285392
v 0.285392 -0.187718 -0.327361
v 0.327361 -0.187718 -0.327361
v 0.285392 -0.187718 -0.285392
v 0.327361 0.148038 -0.327361
v 0.285392 0.148038 -0.285392
v 0.285392 0.148038 -0.327361
v 0.327361 0.148038 -0.285392
v 0.327361 0.148038 0.327361
v -0.327361 0.148038 0.327361
v 0.327361 0.190007 -0.327361
v -0.327361 0.190007 0.327361
v -0.327361 0.190007 -0.327361
v 0.327361 0.190007 0.327361
v -0.285392 -0.187718 0.327361
v -0.327361 -0.187718 0.285392
v -0.285392 -0.187718 0.285392
v -0.327361 -0.187718 0.327361
v -0.285392 0.148038 0.285392
v -0.327361 0.148038 0.285392
v -0.285392 0.148038 0.327361
v 0.327361 -0.187718 0.327361
v 0.285392 -0.187718 0.285392
v 0.327361 -0.187718 0.285392
v 0.285392 -0.187718 0.327361
v 0.327361 0.148038 0.285392
v 0.285392 0.148038 0.327361
v 0.285392 0.148038 0.285392
v -0.285392 -0.011446 0.327361
v 0.285392 -0.011446 -0.327361
v -0.285392 -0.011446 -0.327361
v 0.285392 -0.011446 0.327361
v -0.285392 -0.019840 -0.327361
v 0.285392 -0.019840 0.327361
v 0.285392 -0.019840 -0.327361
v -0.285392 -0.019840 0.327361

# 0 UV coordinates

# 6 vertex normals
vn 0 -0.001 0
vn 0 0.001 0
vn 0 0 -0.001
vn 0 -0 0.001
vn 0.001 0 -0
vn -0.001 0 0

# Mesh 'mesh1_mesh1-geometry' with 24 faces
g mesh1_mesh1-geometry
usemtl material_0_24
f  1//1 2//1 3//1
f  2//1 1//1 4//1
f  3//2 2//2 1//2
f  4//2 1//2 2//2
f  2//3 5//3 3//3
f  3//4 5//4 2//4
f  5//5 1//5 3//5
f  3//6 1//6 5//6
f  1//4 6//4 4//4
f  4//3 6//3 1//3
f  6//6 2//6 4//6
f  4//5 2//5 6//5
f  5//3 2//3 7//3
f  7//4 2//4 5//4
f  1//5 5//5 8//5
f  8//6 5//6 1//6
f  6//4 1//4 8//4
f  8//3 1//3 6//3
f  2//6 6//6 7//6
f  7//5 6//5 2//5
f  6//2 5//2 7//2
f  7//1 5//1 6//1
f  5//2 6//2 8//2
f  8//1 6//1 5//1

# Mesh 'mesh2_mesh2-geometry' with 12 faces
g mesh2_mesh2-geometry
usemtl material_1_0
l  2 3
l  4 2
l  7 2
l  3 1
l  5 3
l  1 4
l  6 4
l  7 5
l  6 7
l  8 1
l  5 8
l  8 6

# Mesh 'mesh3_mesh3-geometry' with 24 faces
g mesh3_mesh3-geometry
usemtl material_0_24
f  9//1 10//1 11//1
f  10//1 9//1 12//1
f  11//2 10//2 9//2
f  12//2 9//2 10//2
f  10//3 13//3 11//3
f  11//4 13//4 10//4
f  13//5 9//5 11//5
f  11//6 9//6 13//6
f  9//4 14//4 12//4
f  12//3 14//3 9//3
f  14//6 10//6 12//6
f  12//5 10//5 14//5
f  13//3 10//3 15//3
f  15//4 10//4 13//4
f  9//5 13//5 16//5
f  16//6 13//6 9//6
f  14//4 9//4 16//4
f  16//3 9//3 14//3
f  10//6 14//6 15//6
f  15//5 14//5 10//5
f  14//2 13//2 15//2
f  15//1 13//1 14//1
f  13//2 14//2 16//2
f  16//1 14//1 13//1

# Mesh 'mesh4_mesh4-geometry' with 12 faces
g mesh4_mesh4-geometry
usemtl material_1_0
l  10 11
l  12 10
l  15 10
l  11 9
l  13 11
l  9 12
l  14 12
l  15 13
l  14 15
l  16 9
l  13 16
l  16 14

# Mesh 'mesh5_mesh5-geometry' with 24 faces
g mesh5_mesh5-geometry
usemtl material_0_24
f  17//1 7//1 13//1
f  7//1 17//1 18//1
f  13//2 7//2 17//2
f  18//2 17//2 7//2
f  7//3 19//3 13//3
f  13//4 19//4 7//4
f  19//5 17//5 13//5
f  13//6 17//6 19//6
f  17//4 20//4 18//4
f  18//3 20//3 17//3
f  20//6 7//6 18//6
f  18//5 7//5 20//5
f  19//3 7//3 21//3
f  21//4 7//4 19//4
f  17//5 19//5 22//5
f  22//6 19//6 17//6
f  20//4 17//4 22//4
f  22//3 17//3 20//3
f  7//6 20//6 21//6
f  21//5 20//5 7//5
f  20//2 19//2 21//2
f  21//1 19//1 20//1
f  19//2 20//2 22//2
f  22//1 20//1 19//1

# Mesh 'mesh6_mesh6-geometry' with 12 faces
g mesh6_mesh6-geometry
usemtl material_1_0
l  17 18
l  13 17
l  22 17
l  18 7
l  20 18
l  7 13
l  19 13
l  22 20
l  19 22
l  21 7
l  20 21
l  21 19

# Mesh 'mesh7_mesh7-geometry' with 24 faces
g mesh7_mesh7-geometry
usemtl material_0_24
f  23//1 24//1 25//1
f  24//1 23//1 26//1
f  25//2 24//2 23//2
f  26//2 23//2 24//2
f  24//3 27//3 25//3
f  25//4 27//4 24//4
f  27//5 23//5 25//5
f  25//6 23//6 27//6
f  23//4 18//4 26//4
f  26//3 18//3 23//3
f  18//6 24//6 26//6
f  26//5 24//5 18//5
f  27//3 24//3 28//3
f  28//4 24//4 27//4
f  23//5 27//5 29//5
f  29//6 27//6 23//6
f  18//4 23//4 29//4
f  29//3 23//3 18//3
f  24//6 18//6 28//6
f  28//5 18//5 24//5
f  18//2 27//2 28//2
f  28//1 27//1 18//1
f  27//2 18//2 29//2
f  29//1 18//1 27//1

# Mesh 'mesh8_mesh8-geometry' with 12 faces
g mesh8_mesh8-geometry
usemtl material_1_0
l  24 25
l  26 24
l  28 24
l  25 23
l  27 25
l  23 26
l  18 26
l  28 27
l  18 28
l  29 23
l  27 29
l  29 18

# Mesh 'mesh9_mesh9-geometry' with 24 faces
g mesh9_mesh9-geometry
usemtl material_0_24
f  30//1 31//1 32//1
f  31//1 30//1 33//1
f  32//2 31//2 30//2
f  33//2 30//2 31//2
f  31//3 34//3 32//3
f  32//4 34//4 31//4
f  34//5 30//5 32//5
f  32//6 30//6 34//6
f  30//4 35//4 33//4
f  33//3 35//3 30//3
f  35//6 31//6 33//6
f  33//5 31//5 35//5
f  34//3 31//3 36//3
f  36//4 31//4 34//4
f  30//5 34//5 17//5
f  17//6 34//6 30//6
f  35//4 30//4 17//4
f  17//3 30//3 35//3
f  31//6 35//6 36//6
f  36//5 35//5 31//5
f  35//2 34//2 36//2
f  36//1 34//1 35//1
f  34//2 35//2 17//2
f  17//1 35//1 34//1

# Mesh 'mesh10_mesh10-geometry' with 12 faces
g mesh10_mesh10-geometry
usemtl material_1_0
l  31 32
l  33 31
l  36 31
l  32 30
l  34 32
l  30 33
l  35 33
l  36 34
l  35 36
l  17 30
l  34 17
l  17 35

# Mesh 'mesh11_mesh11-geometry' with 24 faces
g mesh11_mesh11-geometry
usemtl material_0_24
f  37//2 38//2 39//2
f  38//2 37//2 40//2
f  39//1 38//1 37//1
f  40//1 37//1 38//1
f  38//3 41//3 39//3
f  39//4 41//4 38//4
f  41//6 37//6 39//6
f  39//5 37//5 41//5
f  37//4 42//4 40//4
f  40//3 42//3 37//3
f  42//5 38//5 40//5
f  40//6 38//6 42//6
f  41//3 38//3 43//3
f  43//4 38//4 41//4
f  37//6 41//6 44//6
f  44//5 41//5 37//5
f  42//4 37//4 44//4
f  44//3 37//3 42//3
f  38//5 42//5 43//5
f  43//6 42//6 38//6
f  42//1 41//1 43//1
f  43//2 41//2 42//2
f  41//1 42//1 44//1
f  44//2 42//2 41//2

