# File produced by Open Asset Import Library (http://www.assimp.sf.net)
# (assimp v3.2.202087883)

mtllib model_normalized.mtl

# 104 vertex positions
v 0.057779 -0.224123 -0.260818
v 0.035307 -0.221596 -0.194794
v 0.023861 -0.221596 -0.229629
v 0.075164 -0.224123 -0.207890
v 0.180121 0.128672 0.178435
v 0.024672 -0.204952 -0.230374
v 0.193445 -0.224123 0.152178
v -0.281869 -0.224123 0.078830
v 0.199477 0.126145 0.103865
v 0.025250 -0.206906 -0.228240
v 0.023861 -0.204483 -0.229629
v 0.160076 0.128672 0.117417
v 0.057779 -0.244169 -0.260818
v 0.041498 -0.224123 -0.174224
v -0.316203 -0.224123 0.113164
v 0.219522 0.126145 0.164887
v 0.193445 -0.244169 0.152178
v 0.146374 -0.224123 0.145034
v -0.221873 -0.224123 0.089148
v -0.259014 -0.223216 0.101681
v -0.316203 -0.244169 0.113164
v 0.028659 0.126145 -0.246509
v 0.199934 0.117092 0.104325
v 0.075164 -0.244169 -0.207890
v 0.146374 -0.244169 0.145034
v 0.146374 -0.236409 0.145034
v 0.041498 -0.244169 -0.174224
v 0.144797 -0.224123 0.183127
v -0.221873 -0.244169 0.089148
v -0.276517 -0.223216 0.119184
v 0.093914 0.127051 -0.265140
v 0.070602 0.126145 -0.288450
v 0.051971 0.127051 -0.223197
v 0.219978 0.117092 0.165343
v -0.277087 -0.206724 0.119099
v -0.276517 -0.206472 0.119184
v 0.144797 -0.244169 0.183127
v 0.071058 0.117092 -0.287993
v 0.026753 0.061076 -0.193336
v 0.144553 -0.244034 0.184748
v 0.149632 -0.226778 0.151266
v 0.029116 0.117092 -0.246049
v 0.027556 0.102261 -0.197747
v 0.003136 0.077470 -0.172301
v 0.186993 -0.246689 0.158598
v 0.182158 -0.244034 0.190455
v 0.149388 -0.246689 0.152891
v -0.303376 0.126145 0.085531
v -0.300904 0.126145 0.083054
v -0.269046 0.126145 0.051197
v -0.300574 0.126145 0.085954
v 0.029116 0.111272 -0.246049
v 0.068150 0.102261 -0.236073
v 0.182406 -0.224123 0.188834
v -0.298085 0.123489 0.054130
v -0.211258 0.126145 0.061498
v 0.083058 0.117092 -0.251462
v 0.080957 0.117092 -0.257869
v 0.187241 -0.226778 0.156976
v -0.237034 0.123489 0.063392
v -0.242329 0.126145 0.094793
v -0.208590 0.126145 0.061971
v 0.211534 -0.226778 0.160663
v 0.206699 -0.224123 0.192520
v 0.158080 0.117092 0.155950
v 0.095058 0.117092 -0.214933
v 0.159657 0.117092 0.117856
v 0.054781 0.117092 -0.201401
v -0.268904 0.121503 0.051339
v -0.210167 0.117092 0.100064
v 0.159657 0.126145 0.117856
v -0.268586 0.111272 0.051653
v -0.208590 0.117092 0.061971
v 0.054781 0.126145 -0.201401
v -0.241869 0.117092 0.095254
v -0.208590 0.111272 0.061971
v 0.054781 0.111272 -0.201401
v 0.157620 0.126145 0.155490
v 0.094602 0.126145 -0.215393
v -0.210623 0.126145 0.099604
v 0.342789 0.126145 0.023360
v 0.333253 0.126145 -0.061198
v 0.330117 0.126145 0.107498
v 0.302157 0.126145 -0.140403
v 0.095388 0.126145 0.333660
v 0.251624 0.126145 -0.208859
v 0.010835 0.126145 0.343196
v 0.174594 0.126145 0.302565
v 0.185091 0.126145 -0.261906
v 0.022953 0.126145 -0.308598
v 0.296100 0.126145 0.185494
v -0.073308 0.126145 0.330524
v 0.107095 0.126145 -0.295925
v -0.309001 0.126145 0.011238
v 0.243054 0.126145 0.252027
v -0.268370 0.126145 0.175001
v -0.151303 0.126145 0.296503
v -0.061601 0.126145 -0.299061
v -0.217833 0.126145 0.243457
v -0.296329 0.126145 -0.072905
v -0.299466 0.126145 0.095795
v -0.140806 0.126145 -0.267967
v -0.262309 0.126145 -0.150896
v -0.209262 0.126145 -0.217429

# 264 UV coordinates
vt 0 0 0
vt 2.489 -5.19343 0
vt 2.54807 -5.19343 0
vt 2.45832 -5.26113 0
vt 2.54807 -5.26113 0
vt 3.19208 0.882191 0
vt 2.489 0.316923 0
vt 2.54807 0.316923 0
vt -3.70885 0.004071 0
vt -3.71062 0.030882 0
vt -3.78307 -0 0
vt -2.45832 -4.77354 0
vt -2.54807 -4.77354 0
vt -2.48827 -4.7007 0
vt 2.49182 0.340628 0
vt -3.70885 0.031638 0
vt -2.489 -4.69891 0
vt 2.48827 0.343782 0
vt 3.08861 0.882191 0
vt 4.69328 2.5249 0
vt 4.75284 2.55012 0
vt 4.85009 2.5249 0
vt 5.37231 0.001472 0
vt 5.37138 0.02804 0
vt 5.30765 1.2e-05 0
vt 2.82118 0.00146 0
vt 2.78131 0.028433 0
vt 2.78131 0.00146 0
vt 5.14946 3.34095 0
vt 5.16059 3.23447 0
vt 5.2418 3.29428 0
vt 4.66634 3.58515 0
vt 5.119 3.27966 0
vt 5.37231 0.028445 0
vt 3.44633 0.405409 0
vt 2.74483 -0.025613 0
vt 2.7847 -0.052588 0
vt 2.86726 0.365867 0
vt 3.54548 0.341886 0
vt 3.54548 0.365867 0
vt 4.63588 3.52385 0
vt 3.59443 0.168437 0
vt 3.54351 0.194901 0
vt 2.89346 -0.263443 0
vt 2.86726 0.358384 0
vt 4.55579 3.64103 0
vt 4.55579 3.54548 0
vt 4.60137 3.61799 0
vt 4.67747 2.87867 0
vt 4.61106 3.61309 0
vt -3.08908 0.564245 0
vt -3.08908 0.549662 0
vt -2.54775 0.549662 0
vt 3.69812 0.250591 0
vt 3.55144 0.210582 0
vt 3.60236 0.184124 0
vt 2.86726 0.341886 0
vt 3.70988 0.207982 0
vt 3.61995 0.207982 0
vt 3.5632 0.167948 0
vt 4.63588 2.92385 0
vt -2.54775 0.564245 0
vt 3.74898 -1.43581 0
vt 3.61995 -1.46227 0
vt 3.70988 -1.46227 0
vt 4.63588 2.84804 0
vt -3.52385 0.549662 0
vt -2.92385 0.549662 0
vt -2.92385 0.564245 0
vt -2.92385 0.540287 0
vt -3.52385 0.540287 0
vt -3.15859 0 0
vt -2.45832 0 0
vt -2.54807 0 0
vt -4.57161 3.59495 0
vt -4.57161 2.82118 0
vt -4.65171 3.55447 0
vt -3.08769 0.877797 0
vt -2.54807 0.312557 0
vt -2.45832 0.312557 0
vt 5.44299 2.49636 0
vt 5.36507 1.643 0
vt 5.43249 1.63685 0
vt -5.43196 2.41001 0
vt -5.42332 1.56072 0
vt -5.3595 1.60687 0
vt -2.45832 -0.032292 0
vt -4.65171 3.47777 0
vt -5.19658 3.27905 0
vt -4.57161 2.74296 0
vt -3.59495 -0.032292 0
vt -2.82118 0 0
vt -3.59495 0 0
vt -3.19115 0.877797 0
vt -5.46189 2.45783 0
vt -5.39473 1.61457 0
vt -5.39492 2.46391 0
vt 5.47168 2.54469 0
vt 5.40472 2.55085 0
vt 5.40284 1.69128 0
vt -3.15859 -0.032292 0
vt -5.13483 3.23357 0
vt -4.65171 2.87777 0
vt -2.74296 -0.032292 0
vt -2.74296 0 0
vt -3.54548 0.427878 0
vt -2.82118 -0.136619 0
vt -2.74296 -0.136619 0
vt 3.08769 0.39313 0
vt 3.19115 0.39313 0
vt 3.08861 0.378539 0
vt -3.08769 -5.26029 0
vt -3.19208 -5.19305 0
vt -3.19115 -5.26029 0
vt -3.08861 -5.19305 0
vt -2.54807 -0.032292 0
vt 6.12878 -0 0
vt 6.05208 -0.032292 0
vt 6.12878 -0.032292 0
vt 6.05208 -0.019792 0
vt 6.05208 -0 0
vt 2.58266 -0 0
vt 3.12399 -0.019792 0
vt 3.12399 -0 0
vt 2.87777 0 0
vt 3.47777 -0.032292 0
vt 3.47777 0 0
vt -5.17642 3.18839 0
vt -4.45425 2.47252 0
vt -4.45743 3.46926 0
vt -4.50627 2.47508 0
vt 5.30765 -0.032292 0
vt 6.05877 -0 0
vt 5.30765 -0 0
vt -3.64103 0.427878 0
vt 4.46005 2.38813 0
vt 4.46465 3.37066 0
vt 4.41159 3.3681 0
vt 3.19208 0.378539 0
vt 2.54729 0.378539 0
vt -6.05208 -0.019792 0
vt -5.45208 -0 0
vt -6.05208 -0 0
vt -1.09849 -0 0
vt -1.09849 -0.032292 0
vt -1.09849 -0.019792 0
vt 2.58266 -0.032292 0
vt 2.87777 -0.032292 0
vt -5.45208 -0.032292 0
vt -4.40436 3.46667 0
vt 6.05877 -0.032292 0
vt -3.54548 4.62166 0
vt -3.64103 4.56853 0
vt -3.54548 4.56853 0
vt 3.64103 0.238299 0
vt 3.64103 0.223679 0
vt 3.54548 0.238299 0
vt 4.50984 2.4368 0
vt -6.17422 0.529877 0
vt -6.07252 0.544474 0
vt -6.17338 0.544474 0
vt 2.54636 0.39313 0
vt 3.12399 -0.032292 0
vt -6.05208 -0.032292 0
vt -1.1599 -0 0
vt -3.64103 4.62166 0
vt -1.1599 -0.032292 0
vt 0.50236 -0.032292 0
vt 0.505003 -0.032074 0
vt 0.50236 0 0
vt 0.450453 -0.004277 0
vt 3.54548 0.223679 0
vt 2.47449 0.378539 0
vt 2.42248 0.39313 0
vt 2.42341 0.378539 0
vt -6.07336 0.529877 0
vt 6.05877 0.498011 0
vt 6.12005 0.44858 0
vt 6.05877 0.500663 0
vt 6.12005 -0.073437 0
vt 6.05877 -0.041254 0
vt 6.05877 -0.073437 0
vt 0.453096 -0.036351 0
vt 1.14381 -4.71989 0
vt 1.01855 -3.79868 0
vt 1.0922 -4.72687 0
vt 4.55842 2.79176 0
vt 4.55474 2.86726 0
vt 4.55474 2.79469 0
vt -4.55579 0.540287 0
vt -4.55579 0.549662 0
vt -4.55474 0.564245 0
vt 3.48789 0.479555 0
vt 3.4889 0.464969 0
vt 3.57186 0.479555 0
vt 2.48535 0.378539 0
vt -5.47252 0.544474 0
vt 6.05877 0.44858 0
vt 6.12005 0.500663 0
vt 6.12005 -0.041254 0
vt -6.05877 -0.041254 0
vt -6.12005 -0.073437 0
vt -6.05877 -0.073437 0
vt 6.12005 -0.041799 0
vt 5.32139 0.52441 0
vt 6.05877 -0.041799 0
vt 1.00286 -4.74169 0
vt 0.940175 -3.81269 0
vt 0.889177 -3.81968 0
vt 4.6323 2.92136 0
vt 4.55474 2.78905 0
vt -5.47338 0.532916 0
vt -5.37472 0.549404 0
vt -5.37446 0.556882 0
vt 3.474 0.540287 0
vt 3.55697 0.549662 0
vt 3.474 0.549662 0
vt 3.55697 0.564245 0
vt -5.47336 0.529877 0
vt 6.06666 0.564245 0
vt 5.46666 0.549662 0
vt 6.06666 0.549662 0
vt -0.453096 -0.036351 0
vt -0.50236 0 0
vt -0.505003 -0.032074 0
vt -6.12005 -0.041254 0
vt 5.32596 0.52441 0
vt -5.32139 0.500565 0
vt -5.4217 0.449097 0
vt -5.32223 0.449097 0
vt -5.32223 0.524903 0
vt 4.63484 2.84804 0
vt -5.47502 0.564245 0
vt -5.3761 0.564245 0
vt -5.47066 0.564245 0
vt -5.32596 0.500565 0
vt -5.37531 0.532916 0
vt 4.55579 2.86726 0
vt -5.47502 0.549662 0
vt -5.47502 0.540287 0
vt 3.55697 0.540287 0
vt -5.42087 0.544474 0
vt 5.46666 0.564245 0
vt -0.450453 -0.004277 0
vt 5.42087 0.52441 0
vt -5.4217 0.524903 0
vt -5.42087 0.500565 0
vt 2.92385 0.217972 0
vt 2.84804 0.232593 0
vt 2.84804 0.217972 0
vt -5.4217 0.529877 0
vt 2.98727 0.564245 0
vt 2.91144 0.564245 0
vt 2.98727 0.549662 0
vt 6.15963 0.44858 0
vt 6.15963 -0.041799 0
vt -6.15963 -0.041254 0
vt -1.01332 -4.82431 0
vt -0.89936 -3.90123 0
vt -0.950357 -3.89423 0
vt 6.15963 0.500663 0
vt -1.15574 -4.80232 0
vt -1.10413 -4.80931 0
vt -1.03019 -3.88004 0

# 100 vertex normals
vn -0.00145101 -0.0253541 0.000476654
vn 0.0240877 -0.00152728 -0.00791276
vn 0.0171933 0 0.0186962
vn -0.0241313 0 0.00792711
vn 0 -0.0254 0
vn 0.0102308 0.0230043 -0.00336079
vn -0.0240889 0.00150625 0.00791315
vn -0.00413871 0.0190551 -0.0162768
vn 0.0042124 -0.0188752 0.0164664
vn 0.0179605 0 0.0179605
vn 0.00443213 -0.018876 0.0164077
vn -0.00435562 0.0190561 -0.0162189
vn 0.000503613 -0.02539 0.000503613
vn -0.000503613 0.02539 -0.000503613
vn 0.0179525 0.000759054 0.0179525
vn -0.0241188 -0.000818007 0.00792299
vn -0.00146112 -0.0253534 0.000479977
vn 0.00381111 0 -0.0251125
vn 0.0241313 0 -0.00792711
vn -0.0179605 -0 -0.0179605
vn 0.00626664 0 0.0246148
vn -0.00626664 0 -0.0246148
vn 0.000362946 -0.0253574 0.00142563
vn -0.010596 0.0209127 0.00977469
vn 0.0107403 -0.0207673 -0.00992586
vn 0 0.0254 0
vn -0.00381111 0 0.0251125
vn -0.0253783 -0 -0.00105058
vn 0.00381108 5.842e-07 -0.0251125
vn 0.000493752 -0.0253904 0.000493752
vn 0.0179149 0.00180967 0.0179149
vn -0.0181001 -0.000295504 -0.0178174
vn 0.0251125 0 0.00381111
vn -0.0106776 0.0207698 0.00998816
vn 0.0106776 -0.0207698 -0.00998816
vn -0.0174803 -0.0016275 -0.0183562
vn 0.00031298 0.0253142 -0.00206226
vn 0.00379824 -0.00208587 -0.0250276
vn 0.0155425 0.0200779 0.000685391
vn 0.0179605 0 -0.0179605
vn -0.0174517 -0.00154216 -0.0183907
vn -0.00379824 0.00208587 0.0250276
vn 0.00379789 -0.00211341 -0.0250254
vn 0.015517 0.0200884 0.000916542
vn -0.0148646 0.020009 0.004883
vn 0.0148646 -0.020009 -0.004883
vn -0.0173929 -0.00178377 -0.0184246
vn -0.0251125 0 -0.00381111
vn -0.000316716 -0.0253121 0.00208694
vn -0.0157433 -0.0109171 -0.0166771
vn -0.0154992 -0.0201023 -0.000912322
vn -0.0155245 -0.0200919 -0.000681511
vn 0.00145101 0.0253541 -0.000476654
vn -0.0240877 0.00152728 0.00791276
vn -0.0171933 0 -0.0186962
vn -0.0102308 -0.0230043 0.00336079
vn -0.000362946 0.0253574 -0.00142563
vn -0.00381108 -5.842e-07 0.0251125
vn 0.0181001 0.000295504 0.0178174
vn 0.0179436 0.0011033 0.0179436
vn 0.0174803 0.0016275 0.0183562
vn 0.0174517 0.00154216 0.0183907
vn 0.0173929 0.00178377 0.0184246
vn 0.0157433 0.0109171 0.0166771
vn 0.0240889 -0.00150625 -0.00791315
vn 0.00413871 -0.0190551 0.0162768
vn -0.0042124 0.0188752 -0.0164664
vn -0.00443213 0.018876 -0.0164077
vn 0.00435562 -0.0190561 0.0162189
vn -0.0179525 -0.000759054 -0.0179525
vn 0.0241188 0.000818007 -0.00792299
vn 0.00146112 0.0253534 -0.000479977
vn 0.010596 -0.0209127 -0.00977469
vn -0.0107403 0.0207673 0.00992586
vn 0.0253783 0 0.00105058
vn -0.000493752 0.0253904 -0.000493752
vn -0.0179149 -0.00180967 -0.0179149
vn 0.00380768 -0.00107493 -0.02509
vn -0.00380768 0.00107493 0.02509
vn -0.0179436 -0.0011033 -0.0179436
vn -0.00031298 -0.0253142 0.00206226
vn -0.0155425 -0.0200779 -0.000685391
vn -0.0179605 -0 0.0179605
vn -0.0219768 -0.000467208 0.0127264
vn 0.0219768 0.000467208 -0.0127264
vn -0.00379789 0.00211341 0.0250254
vn -0.015517 -0.0200884 -0.000916542
vn 0.00430348 -0.000637057 -0.0250247
vn -0.00430348 0.000637057 0.0250247
vn -0.0220216 0 0.0126575
vn 0.0220216 0 -0.0126575
vn 0.000316716 0.0253121 -0.00208694
vn 0.00445686 0 -0.0250059
vn -0.00445686 0 0.0250059
vn 0.0177121 0 0.0182056
vn -0.0177121 0 -0.0182056
vn 0.0154992 0.0201023 0.000912322
vn 0.0155245 0.0200919 0.000681511
vn 0.000114983 0.0253884 -0.000757682
vn -0.000114983 -0.0253884 0.000757682

# Mesh 'mesh1_mesh1-geometry' with 133 faces
g mesh1_mesh1-geometry
usemtl material_0_24
f  1/1/1 2/1/1 3/1/1
f  2/1/1 1/1/1 4/1/1
f  2/1/2 3/1/2 5/1/2
f  1/1/3 6/1/3 3/1/3
f  4/1/4 1/1/4 7/1/4
f  4/1/5 8/1/5 1/1/5
f  6/1/6 4/1/6 1/1/6
f  1/1/7 4/1/7 9/1/7
f  4/1/8 2/1/8 5/1/8
f  10/1/2 5/1/2 3/1/2
f  11/1/3 3/1/3 6/1/3
f  6/1/9 1/1/9 12/1/9
f  1/1/4 13/1/4 7/1/4
f  7/1/5 14/1/5 4/1/5
f  8/1/5 4/1/5 15/1/5
f  1/1/10 8/1/10 13/1/10
f  4/1/6 6/1/6 11/1/6
f  16/1/7 9/1/7 4/1/7
f  12/1/11 1/1/11 9/1/11
f  4/1/12 5/1/12 16/1/12
f  6/1/2 5/1/2 10/1/2
f  12/1/2 5/1/2 6/1/2
f  7/1/4 13/1/4 17/1/4
f  14/1/5 7/1/5 18/1/5
f  19/1/5 4/1/5 14/1/5
f  15/1/5 4/1/5 19/1/5
f  20/1/13 15/1/13 8/1/13
f  8/1/14 15/1/14 20/1/14
f  15/1/10 21/1/10 8/1/10
f  15/1/15 8/1/15 22/1/15
f  13/1/10 8/1/10 21/1/10
f  23/1/16 16/1/16 9/1/16
f  16/1/17 5/1/17 9/1/17
f  12/1/17 9/1/17 5/1/17
f  24/1/4 17/1/4 13/1/4
f  17/1/18 25/1/18 7/1/18
f  18/1/18 7/1/18 26/1/18
f  18/1/19 26/1/19 14/1/19
f  14/1/20 27/1/20 19/1/20
f  19/1/5 28/1/5 15/1/5
f  15/1/21 29/1/21 19/1/21
f  19/1/22 29/1/22 15/1/22
f  19/1/23 30/1/23 15/1/23
f  15/1/13 20/1/13 30/1/13
f  30/1/14 20/1/14 15/1/14
f  20/1/24 31/1/24 8/1/24
f  15/1/18 28/1/18 21/1/18
f  29/1/21 15/1/21 21/1/21
f  21/1/22 15/1/22 29/1/22
f  32/1/15 22/1/15 8/1/15
f  22/1/25 33/1/25 15/1/25
f  13/1/26 21/1/26 24/1/26
f  16/1/16 23/1/16 34/1/16
f  24/1/26 27/1/26 17/1/26
f  26/1/18 7/1/18 25/1/18
f  25/1/26 17/1/26 27/1/26
f  18/1/27 19/1/27 26/1/27
f  26/1/28 25/1/28 18/1/28
f  14/1/19 26/1/19 27/1/19
f  29/1/20 19/1/20 27/1/20
f  28/1/5 19/1/5 18/1/5
f  19/1/27 29/1/27 26/1/27
f  15/1/29 35/1/29 30/1/29
f  30/1/20 36/1/20 20/1/20
f  32/1/24 8/1/24 31/1/24
f  37/1/18 21/1/18 28/1/18
f  21/1/26 37/1/26 29/1/26
f  29/1/26 24/1/26 21/1/26
f  22/1/30 32/1/30 33/1/30
f  22/1/31 38/1/31 32/1/31
f  35/1/25 15/1/25 33/1/25
f  27/1/26 24/1/26 29/1/26
f  25/1/19 27/1/19 26/1/19
f  25/1/27 26/1/27 29/1/27
f  18/1/28 25/1/28 28/1/28
f  36/1/29 30/1/29 35/1/29
f  20/1/32 36/1/32 39/1/32
f  31/1/30 33/1/30 32/1/30
f  37/1/28 28/1/28 25/1/28
f  28/1/33 40/1/33 37/1/33
f  28/1/33 37/1/33 41/1/33
f  25/1/26 29/1/26 37/1/26
f  38/1/31 22/1/31 42/1/31
f  35/1/34 43/1/34 33/1/34
f  33/1/35 43/1/35 35/1/35
f  35/1/34 43/1/34 33/1/34
f  33/1/35 43/1/35 35/1/35
f  44/1/34 35/1/34 36/1/34
f  36/1/35 35/1/35 44/1/35
f  44/1/34 35/1/34 36/1/34
f  36/1/35 35/1/35 44/1/35
f  36/1/36 44/1/36 39/1/36
f  40/1/37 45/1/37 37/1/37
f  40/1/38 28/1/38 46/1/38
f  47/1/33 41/1/33 37/1/33
f  41/1/39 48/1/39 28/1/39
f  49/1/5 50/1/5 51/1/5
f  22/1/40 42/1/40 52/1/40
f  43/1/34 35/1/34 44/1/34
f  44/1/35 35/1/35 43/1/35
f  43/1/34 35/1/34 44/1/34
f  44/1/35 35/1/35 43/1/35
f  39/1/41 44/1/41 53/1/41
f  47/1/37 37/1/37 45/1/37
f  46/1/37 45/1/37 40/1/37
f  54/1/38 46/1/38 28/1/38
f  47/1/42 45/1/42 41/1/42
f  28/1/43 48/1/43 54/1/43
f  55/1/44 48/1/44 41/1/44
f  56/1/5 51/1/5 50/1/5
f  48/1/5 49/1/5 51/1/5
f  53/1/45 57/1/45 58/1/45
f  58/1/46 57/1/46 53/1/46
f  44/1/47 43/1/47 53/1/47
f  46/1/48 54/1/48 45/1/48
f  59/1/42 41/1/42 45/1/42
f  51/1/43 54/1/43 48/1/43
f  55/1/49 60/1/49 48/1/49
f  55/1/42 41/1/42 59/1/42
f  61/1/5 51/1/5 56/1/5
f  51/1/49 48/1/49 60/1/49
f  53/1/50 43/1/50 58/1/50
f  59/1/48 45/1/48 54/1/48
f  51/1/43 61/1/43 54/1/43
f  55/1/42 59/1/42 60/1/42
f  61/1/49 51/1/49 60/1/49
f  62/1/5 61/1/5 56/1/5
f  59/1/37 54/1/37 63/1/37
f  64/1/43 54/1/43 61/1/43
f  63/1/42 60/1/42 59/1/42
f  61/1/51 60/1/51 63/1/51
f  64/1/37 63/1/37 54/1/37
f  61/1/52 63/1/52 64/1/52

# Mesh 'mesh1_mesh1-geometry' with 38 faces
g mesh1_mesh1-geometry
usemtl material_1_1_8
f  3/2/53 2/3/53 1/4/53
f  4/5/53 1/4/53 2/3/53
f  5/6/54 3/7/54 2/8/54
f  3/9/55 6/10/55 1/11/55
f  1/12/56 4/13/56 6/14/56
f  3/7/54 5/6/54 10/15/54
f  6/10/55 3/9/55 11/16/55
f  11/17/56 6/14/56 4/13/56
f  10/15/54 5/6/54 6/18/54
f  6/18/54 5/6/54 12/19/54
f  15/20/57 30/21/57 19/22/57
f  30/23/58 35/24/58 15/25/58
f  20/26/10 36/27/10 30/28/10
f  23/29/26 65/30/26 34/31/26
f  66/32/26 67/33/26 23/29/26
f  35/24/58 30/23/58 36/34/58
f  39/35/59 36/36/59 20/37/59
f  50/38/60 52/39/60 22/40/60
f  67/33/26 65/30/26 23/29/26
f  66/32/26 68/41/26 67/33/26
f  39/42/61 44/43/61 36/44/61
f  69/45/60 52/39/60 50/38/60
f  68/41/26 38/46/26 42/47/26
f  38/46/26 68/41/26 58/48/26
f  67/33/26 70/49/26 65/30/26
f  57/50/26 68/41/26 66/32/26
f  71/51/19 67/52/19 68/53/19
f  53/54/62 44/55/62 39/56/62
f  52/39/60 69/45/60 72/57/60
f  58/48/26 68/41/26 57/50/26
f  53/58/63 43/59/63 44/60/63
f  73/61/26 70/49/26 67/33/26
f  71/51/19 68/53/19 74/62/19
f  58/63/64 43/64/64 53/65/64
f  70/49/26 73/61/26 75/66/26
f  68/67/20 73/68/20 62/69/20
f  73/68/20 68/67/20 76/70/20
f  76/70/20 68/67/20 77/71/20

# Mesh 'mesh1_mesh1-geometry' with 165 faces
g mesh1_mesh1-geometry
usemtl material_2_2_8
f  7/72/19 1/73/19 4/74/19
f  1/75/26 8/76/26 4/77/26
f  9/78/65 4/79/65 1/80/65
f  5/81/66 2/82/66 4/83/66
f  12/84/67 1/85/67 6/86/67
f  7/72/19 13/87/19 1/73/19
f  4/77/26 14/88/26 7/89/26
f  15/90/26 4/77/26 8/76/26
f  13/91/20 8/92/20 1/93/20
f  4/79/65 9/78/65 16/94/65
f  9/95/68 1/96/68 12/97/68
f  16/98/69 5/99/69 4/100/69
f  17/101/19 13/87/19 7/72/19
f  18/102/26 7/89/26 14/88/26
f  14/88/26 4/77/26 19/103/26
f  19/103/26 4/77/26 15/90/26
f  8/92/20 21/104/20 15/105/20
f  22/106/70 8/107/70 15/108/70
f  21/104/20 8/92/20 13/91/20
f  9/109/71 16/110/71 23/111/71
f  9/112/72 5/113/72 16/114/72
f  5/113/72 9/112/72 12/115/72
f  13/87/19 17/101/19 24/116/19
f  7/117/27 25/118/27 17/119/27
f  26/120/27 7/117/27 18/121/27
f  14/122/4 26/123/4 18/124/4
f  19/125/10 27/126/10 14/127/10
f  15/90/26 28/128/26 19/103/26
f  8/129/73 31/130/73 20/131/73
f  21/132/27 28/133/27 15/134/27
f  8/107/70 22/106/70 32/135/70
f  15/136/74 33/137/74 22/138/74
f  24/77/5 21/90/5 13/75/5
f  34/139/71 23/111/71 16/110/71
f  9/109/16 66/140/16 23/111/16
f  23/111/71 66/140/71 9/109/71
f  17/89/5 27/88/5 24/77/5
f  25/118/27 7/117/27 26/120/27
f  27/88/5 17/89/5 25/102/5
f  26/141/18 19/142/18 18/143/18
f  18/144/75 25/145/75 26/146/75
f  27/147/4 26/123/4 14/122/4
f  27/126/10 19/125/10 29/148/10
f  18/102/26 19/103/26 28/128/26
f  26/141/18 29/149/18 19/142/18
f  31/130/73 8/129/73 32/150/73
f  28/133/27 21/132/27 37/151/27
f  29/103/5 37/128/5 21/90/5
f  21/90/5 24/77/5 29/103/5
f  33/152/76 32/153/76 22/154/76
f  32/155/77 38/156/77 22/157/77
f  33/137/74 15/136/74 35/158/74
f  34/31/5 65/30/5 23/29/5
f  34/159/78 78/160/78 16/161/78
f  16/161/79 78/160/79 34/159/79
f  66/140/16 9/109/16 79/162/16
f  79/162/71 9/109/71 66/140/71
f  23/29/5 67/33/5 66/32/5
f  29/103/5 24/77/5 27/88/5
f  26/123/4 27/147/4 25/163/4
f  29/149/18 26/141/18 25/164/18
f  28/165/75 25/145/75 18/144/75
f  32/153/76 33/152/76 31/166/76
f  25/145/75 28/165/75 37/167/75
f  37/168/48 40/169/48 28/170/48
f  41/171/48 37/168/48 28/170/48
f  37/128/5 29/103/5 25/102/5
f  22/40/80 52/39/80 50/38/80
f  42/172/77 22/157/77 38/156/77
f  58/173/16 32/174/16 38/175/16
f  38/175/71 32/174/71 58/173/71
f  23/29/5 65/30/5 67/33/5
f  78/160/78 34/159/78 65/176/78
f  65/176/79 34/159/79 78/160/79
f  32/174/16 66/140/16 79/162/16
f  79/162/71 66/140/71 32/174/71
f  67/33/5 68/41/5 66/32/5
f  37/177/81 45/178/81 40/179/81
f  46/180/42 28/181/42 40/182/42
f  37/168/48 41/171/48 47/183/48
f  28/184/82 48/185/82 41/186/82
f  51/187/26 50/188/26 49/189/26
f  50/38/80 52/39/80 69/45/80
f  52/190/83 42/191/83 22/192/83
f  22/193/84 42/194/84 74/195/84
f  74/195/85 42/194/85 22/193/85
f  42/47/5 38/46/5 68/41/5
f  57/196/16 32/174/16 58/173/16
f  58/173/71 32/174/71 57/196/71
f  58/48/5 68/41/5 38/46/5
f  65/30/5 70/49/5 67/33/5
f  65/176/78 80/197/78 78/160/78
f  78/160/79 80/197/79 65/176/79
f  32/174/16 57/196/16 66/140/16
f  66/140/71 57/196/71 32/174/71
f  66/32/5 68/41/5 57/50/5
f  68/53/4 67/52/4 71/51/4
f  45/178/81 37/177/81 47/198/81
f  40/179/81 45/178/81 46/199/81
f  28/181/42 46/180/42 54/200/42
f  41/201/38 45/202/38 47/203/38
f  54/204/86 48/205/86 28/206/86
f  41/207/87 48/208/87 55/209/87
f  50/188/26 51/187/26 56/210/26
f  51/187/26 49/189/26 48/211/26
f  72/57/80 69/45/80 52/39/80
f  76/212/88 69/213/88 50/214/88
f  50/214/89 69/213/89 76/212/89
f  52/215/90 68/216/90 42/217/90
f  42/217/91 68/216/91 52/215/91
f  74/218/90 42/217/90 68/216/90
f  68/216/91 42/217/91 74/218/91
f  57/50/5 68/41/5 58/48/5
f  67/33/5 70/49/5 73/61/5
f  80/197/78 65/176/78 70/219/78
f  70/219/79 65/176/79 80/197/79
f  71/220/27 73/221/27 67/222/27
f  67/222/18 73/221/18 71/220/18
f  74/62/4 68/53/4 71/51/4
f  45/223/33 54/224/33 46/225/33
f  45/202/38 41/201/38 59/226/38
f  48/205/86 54/204/86 51/227/86
f  48/228/92 60/229/92 55/230/92
f  59/226/38 41/201/38 55/231/38
f  56/210/26 51/187/26 61/232/26
f  62/233/93 50/234/93 56/235/93
f  56/235/94 50/234/94 62/233/94
f  60/229/92 48/228/92 51/236/92
f  69/213/88 76/212/88 72/237/88
f  72/237/89 76/212/89 69/213/89
f  76/61/26 52/47/26 72/238/26
f  72/238/5 52/47/5 76/61/5
f  50/234/93 73/239/93 76/240/93
f  76/240/94 73/239/94 50/234/94
f  68/216/90 52/215/90 77/241/90
f  77/241/91 52/215/91 68/216/91
f  75/66/5 73/61/5 70/49/5
f  70/219/78 61/242/78 80/197/78
f  80/197/79 61/242/79 70/219/79
f  73/221/27 71/220/27 62/243/27
f  62/243/18 71/220/18 73/221/18
f  62/69/10 73/68/10 68/67/10
f  54/224/33 45/223/33 59/244/33
f  54/204/86 61/245/86 51/227/86
f  60/246/38 59/226/38 55/231/38
f  60/229/92 51/236/92 61/247/92
f  56/210/26 61/232/26 62/61/26
f  73/239/93 50/234/93 62/233/93
f  62/233/94 50/234/94 73/239/94
f  52/47/26 76/61/26 77/41/26
f  77/41/5 76/61/5 52/47/5
f  76/70/10 68/67/10 73/68/10
f  77/71/10 68/67/10 76/70/10
f  73/248/31 61/249/31 75/250/31
f  75/250/77 61/249/77 73/248/77
f  61/242/78 70/219/78 75/251/78
f  75/251/79 70/219/79 61/242/79
f  62/252/95 61/253/95 73/254/95
f  73/254/96 61/253/96 62/252/96
f  63/255/81 54/199/81 59/178/81
f  61/245/86 54/204/86 64/256/86
f  59/226/38 60/246/38 63/257/38
f  63/258/97 60/259/97 61/260/97
f  54/199/81 63/255/81 64/261/81
f  64/262/98 63/263/98 61/264/98

# Mesh 'mesh1_mesh1-geometry' with 68 faces
g mesh1_mesh1-geometry
usemtl material_3_24
f  81//26 9//26 16//26
f  16//5 9//5 81//5
f  82//26 9//26 81//26
f  81//5 9//5 82//5
f  81//26 16//26 83//26
f  83//5 16//5 81//5
f  32//26 50//26 22//26
f  22//5 50//5 32//5
f  84//26 9//26 82//26
f  82//5 9//5 84//5
f  83//26 16//26 85//26
f  85//5 16//5 83//5
f  32//26 49//26 50//26
f  50//5 49//5 32//5
f  86//26 9//26 84//26
f  84//5 9//5 86//5
f  16//26 87//26 85//26
f  85//5 87//5 16//5
f  83//26 85//26 88//26
f  88//5 85//5 83//5
f  78//26 87//26 16//26
f  16//5 87//5 78//5
f  89//26 79//26 9//26
f  9//5 79//5 89//5
f  90//26 49//26 32//26
f  32//5 49//5 90//5
f  89//26 9//26 86//26
f  86//5 9//5 89//5
f  83//26 88//26 91//26
f  91//5 88//5 83//5
f  78//26 92//26 87//26
f  87//5 92//5 78//5
f  93//26 79//26 89//26
f  89//5 79//5 93//5
f  93//26 32//26 79//26
f  79//5 32//5 93//5
f  90//26 94//26 49//26
f  49//5 94//5 90//5
f  90//26 32//26 93//26
f  93//5 32//5 90//5
f  91//26 88//26 95//26
f  95//5 88//5 91//5
f  80//26 96//26 78//26
f  78//5 96//5 80//5
f  78//26 97//26 92//26
f  92//5 97//5 78//5
f  71//99 68//99 62//99
f  62//100 68//100 71//100
f  98//26 94//26 90//26
f  90//5 94//5 98//5
f  61//26 96//26 80//26
f  80//5 96//5 61//5
f  78//26 96//26 99//26
f  99//5 96//5 78//5
f  78//26 99//26 97//26
f  97//5 99//5 78//5
f  98//26 100//26 94//26
f  94//5 100//5 98//5
f  101//26 61//26 51//26
f  51//5 61//5 101//5
f  61//26 101//26 96//26
f  96//5 101//5 61//5
f  102//26 100//26 98//26
f  98//5 100//5 102//5
f  102//26 103//26 100//26
f  100//5 103//5 102//5
f  103//26 102//26 104//26
f  104//5 102//5 103//5

# Mesh 'mesh2_mesh2-geometry' with 1 faces
g mesh2_mesh2-geometry
usemtl material_0_0
l  64 7

# Mesh 'mesh3_mesh3-geometry' with 2 faces
g mesh3_mesh3-geometry
usemtl material_0_0
l  20 30
l  8 20

# Mesh 'mesh4_mesh4-geometry' with 1 faces
g mesh4_mesh4-geometry
usemtl material_0_0
l  67 56

# Mesh 'mesh5_mesh5-geometry' with 1 faces
g mesh5_mesh5-geometry
usemtl material_0_0
l  55 69

# Mesh 'mesh6_mesh6-geometry' with 3 faces
g mesh6_mesh6-geometry
usemtl material_0_0
l  77 57
l  33 77
l  43 33

# Mesh 'mesh7_mesh7-geometry' with 1 faces
g mesh7_mesh7-geometry
usemtl material_0_0
l  58 53

