# File produced by Open Asset Import Library (http://www.assimp.sf.net)
# (assimp v3.2.202087883)

mtllib model_normalized.mtl

# 28 vertex positions
v -0.379505 0.093034 -0.062188
v -0.392898 0.093034 0.006986
v -0.392898 0.093034 -0.062188
v -0.379505 0.093034 0.006986
v -0.392898 -0.116972 -0.062188
v -0.379505 -0.048177 -0.062188
v -0.379505 -0.048177 0.006986
v -0.392898 -0.116972 0.006986
v 0.364082 -0.048177 -0.062188
v 0.381353 -0.116972 0.006986
v 0.381353 -0.116972 -0.062188
v 0.364082 -0.048177 0.006986
v 0.381353 0.081542 -0.062188
v 0.364082 0.081542 0.006986
v 0.381353 0.081542 0.006986
v 0.364082 0.081542 -0.062188
v -0.456419 0.121761 0.129590
v -0.430806 -0.116972 0.129590
v -0.456419 -0.116972 0.129590
v -0.430806 0.088541 0.129590
v -0.456419 -0.116972 -0.148775
v 0.449753 0.088541 0.129590
v -0.456419 0.121761 -0.148775
v 0.473914 0.121761 0.129590
v 0.473914 0.121761 -0.148775
v 0.473914 -0.116972 0.129590
v 0.473914 -0.116972 -0.148775
v 0.449753 -0.116972 0.129590

# 45 UV coordinates
vt 0 0 0
vt -0.403448 0.16925 0
vt -0.403448 0.055444 0
vt -0.425749 0.16925 0
vt -0.192659 0.16925 0
vt -0.188342 0.16925 0
vt -0.192659 0.055444 0
vt -0.425749 0.055444 0
vt -0.188342 0 0
vt -0.192659 1.06437 0
vt -0.192659 1.00862 0
vt -0.432372 1.06437 0
vt -0.437941 0 0
vt -0.432372 1.00862 0
vt -0.432372 0.055444 0
vt 0.403448 0.055444 0
vt 0.403448 0.159989 0
vt 0.425749 0.055444 0
vt -0.437941 0.159989 0
vt 0.425749 0.159989 0
vt -0.432372 0.159989 0
vt -0.167864 0 0
vt -0.176121 0 0
vt -0.167864 0.192402 0
vt -0.176121 0.16563 0
vt 0.453662 0 0
vt 0.363924 0.192402 0
vt 0.363924 0 0
vt -0.45999 0.16563 0
vt 0.453662 0.192402 0
vt -0.467778 0.192402 0
vt 0.167864 0 0
vt 0.467778 0.192402 0
vt 0.167864 0.192402 0
vt -0.167864 1.13416 0
vt -0.167864 0.90981 0
vt -0.467778 1.13416 0
vt -0.467778 0 0
vt -0.467778 0.90981 0
vt 0.467778 0 0
vt -0.45999 0 0
vt -0.453662 0.192402 0
vt -0.363924 0 0
vt -0.363924 0.192402 0
vt -0.453662 0 0

# 6 vertex normals
vn 0 -0.0254 0
vn 0 0.0254 0
vn 0.0254 0 0
vn -0.0254 -0 0
vn 0 0 0.0254
vn 0 0 -0.0254

# Mesh 'mesh1_mesh1-geometry' with 40 faces
g mesh1_mesh1-geometry
usemtl material_0_24
f  1/1/1 2/1/1 3/1/1
f  2/1/1 1/1/1 4/1/1
f  3/1/2 2/1/2 1/1/2
f  4/1/2 1/1/2 2/1/2
f  2/1/3 5/1/3 3/1/3
f  3/1/4 5/1/4 2/1/4
f  3/1/5 6/1/5 1/1/5
f  1/1/6 6/1/6 3/1/6
f  1/1/4 7/1/4 4/1/4
f  7/1/6 2/1/6 4/1/6
f  5/1/3 2/1/3 8/1/3
f  8/1/4 2/1/4 5/1/4
f  5/1/5 6/1/5 3/1/5
f  3/1/6 6/1/6 5/1/6
f  7/1/4 1/1/4 6/1/4
f  7/1/6 8/1/6 2/1/6
f  6/1/5 5/1/5 9/1/5
f  9/1/6 5/1/6 6/1/6
f  9/1/1 7/1/1 6/1/1
f  8/1/6 7/1/6 10/1/6
f  11/1/5 9/1/5 5/1/5
f  5/1/6 9/1/6 11/1/6
f  7/1/1 9/1/1 12/1/1
f  12/1/6 10/1/6 7/1/6
f  9/1/5 11/1/5 13/1/5
f  13/1/6 11/1/6 9/1/6
f  9/1/3 14/1/3 12/1/3
f  10/1/6 12/1/6 15/1/6
f  10/1/4 13/1/4 11/1/4
f  11/1/3 13/1/3 10/1/3
f  9/1/5 13/1/5 16/1/5
f  16/1/6 13/1/6 9/1/6
f  14/1/3 9/1/3 16/1/3
f  15/1/6 12/1/6 14/1/6
f  13/1/4 10/1/4 15/1/4
f  15/1/3 10/1/3 13/1/3
f  13/1/1 14/1/1 16/1/1
f  16/1/2 14/1/2 13/1/2
f  14/1/1 13/1/1 15/1/1
f  15/1/2 13/1/2 14/1/2

# Mesh 'mesh1_mesh1-geometry' with 12 faces
g mesh1_mesh1-geometry
usemtl material_1_1_8
f  4/2/3 7/3/3 1/4/3
f  4/5/5 2/6/5 7/7/5
f  6/8/3 1/4/3 7/3/3
f  2/6/5 8/9/5 7/7/5
f  6/10/2 7/11/2 9/12/2
f  10/13/5 7/7/5 8/9/5
f  12/14/2 9/12/2 7/11/2
f  7/7/5 10/13/5 12/15/5
f  12/16/4 14/17/4 9/18/4
f  15/19/5 12/15/5 10/13/5
f  16/20/4 9/18/4 14/17/4
f  14/21/5 12/15/5 15/19/5

# Mesh 'mesh2_mesh2-geometry' with 14 faces
g mesh2_mesh2-geometry
usemtl material_0_24
f  17/1/6 18/1/6 19/1/6
f  18/1/6 17/1/6 20/1/6
f  19/1/4 17/1/4 21/1/4
f  20/1/6 17/1/6 22/1/6
f  23/1/4 21/1/4 17/1/4
f  24/1/6 22/1/6 17/1/6
f  23/1/6 25/1/6 21/1/6
f  25/1/1 17/1/1 23/1/1
f  26/1/6 22/1/6 24/1/6
f  17/1/1 25/1/1 24/1/1
f  27/1/6 21/1/6 25/1/6
f  22/1/6 26/1/6 28/1/6
f  24/1/3 26/1/3 25/1/3
f  27/1/3 25/1/3 26/1/3

# Mesh 'mesh2_mesh2-geometry' with 14 faces
g mesh2_mesh2-geometry
usemtl material_1_1_8
f  19/22/5 18/23/5 17/24/5
f  20/25/5 17/24/5 18/23/5
f  21/26/3 17/27/3 19/28/3
f  22/29/5 17/24/5 20/25/5
f  17/27/3 21/26/3 23/30/3
f  17/24/5 22/29/5 24/31/5
f  21/32/5 25/33/5 23/34/5
f  23/35/2 17/36/2 25/37/2
f  24/31/5 22/29/5 26/38/5
f  24/39/2 25/37/2 17/36/2
f  25/33/5 21/32/5 27/40/5
f  28/41/5 26/38/5 22/29/5
f  25/42/4 26/43/4 24/44/4
f  26/43/4 25/42/4 27/45/4

# Mesh 'mesh3_mesh3-geometry' with 5 faces
g mesh3_mesh3-geometry
usemtl material_0_0
l  3 1
l  2 3
l  5 3
l  1 4
l  4 2

# Mesh 'mesh4_mesh4-geometry' with 5 faces
g mesh4_mesh4-geometry
usemtl material_0_0
l  15 14
l  13 15
l  14 16
l  16 13
l  11 13

