# File produced by Open Asset Import Library (http://www.assimp.sf.net)
# (assimp v3.2.202087883)

mtllib model_normalized.mtl

# 32 vertex positions
v -0.214149 0.414486 0.071383
v 0.214149 0.231223 0.071383
v 0.214149 0.414486 0.071383
v -0.214149 0.231223 0.071383
v 0.214149 0.414486 -0.071383
v -0.214149 0.438304 0.071383
v -0.214149 0.231223 -0.071383
v 0.214149 0.069876 0.071383
v 0.214149 0.231223 -0.071383
v 0.214149 0.438304 -0.071383
v -0.214149 0.414486 -0.071383
v 0.214149 0.438304 0.071383
v -0.214149 0.069876 -0.071383
v -0.214149 0.069876 0.071383
v -0.214149 0.438304 -0.071383
v 0.214149 -0.079931 0.071383
v 0.214149 0.069876 -0.071383
v -0.214149 -0.079931 -0.071383
v -0.214149 -0.079931 0.071383
v 0.214149 -0.229551 0.071383
v 0.214149 -0.079931 -0.071383
v -0.214149 -0.229551 -0.071383
v -0.214149 -0.229551 0.071383
v 0.214149 -0.390423 0.071383
v 0.214149 -0.229551 -0.071383
v -0.214149 -0.390423 -0.071383
v -0.214149 -0.390423 0.071383
v 0.214149 -0.453984 0.071383
v 0.214149 -0.390423 -0.071383
v -0.214149 -0.453984 -0.071383
v -0.214149 -0.453984 0.071383
v 0.214149 -0.453984 -0.071383

# 0 UV coordinates

# 6 vertex normals
vn 0 0 0.0254
vn 0 0 -0.0254
vn 0.0254 0 0
vn -0.0254 0 0
vn 0 0.0254 0
vn 0 -0.0254 0

# Mesh 'mesh1_mesh1-geometry' with 88 faces
g mesh1_mesh1-geometry
usemtl material_0_24
f  1//1 2//1 3//1
f  2//1 1//1 4//1
f  3//2 2//2 1//2
f  4//2 1//2 2//2
f  2//3 5//3 3//3
f  3//4 5//4 2//4
f  3//1 6//1 1//1
f  1//4 7//4 4//4
f  4//3 7//3 1//3
f  4//1 8//1 2//1
f  2//2 8//2 4//2
f  9//5 4//5 2//5
f  5//3 2//3 9//3
f  9//4 2//4 5//4
f  10//3 3//3 5//3
f  7//4 1//4 11//4
f  11//3 1//3 7//3
f  6//4 11//4 1//4
f  6//1 3//1 12//1
f  4//5 9//5 7//5
f  13//4 4//4 7//4
f  7//3 4//3 13//3
f  8//1 4//1 14//1
f  14//2 4//2 8//2
f  8//3 9//3 2//3
f  2//4 9//4 8//4
f  11//2 10//2 5//2
f  3//3 10//3 12//3
f  11//4 6//4 15//4
f  10//5 6//5 12//5
f  4//4 13//4 14//4
f  14//3 13//3 4//3
f  14//5 8//5 13//5
f  14//1 16//1 8//1
f  8//2 16//2 14//2
f  9//3 8//3 17//3
f  17//4 8//4 9//4
f  10//2 11//2 15//2
f  6//5 10//5 15//5
f  18//4 14//4 13//4
f  13//3 14//3 18//3
f  17//5 13//5 8//5
f  16//1 14//1 19//1
f  19//2 14//2 16//2
f  16//3 17//3 8//3
f  8//4 17//4 16//4
f  14//4 18//4 19//4
f  19//3 18//3 14//3
f  19//1 20//1 16//1
f  16//2 20//2 19//2
f  19//5 16//5 18//5
f  17//3 16//3 21//3
f  21//4 16//4 17//4
f  22//4 19//4 18//4
f  18//3 19//3 22//3
f  20//1 19//1 23//1
f  23//2 19//2 20//2
f  20//3 21//3 16//3
f  16//4 21//4 20//4
f  21//5 18//5 16//5
f  19//4 22//4 23//4
f  23//3 22//3 19//3
f  23//5 20//5 22//5
f  23//1 24//1 20//1
f  20//2 24//2 23//2
f  21//3 20//3 25//3
f  25//4 20//4 21//4
f  26//4 23//4 22//4
f  22//3 23//3 26//3
f  25//5 22//5 20//5
f  24//1 23//1 27//1
f  27//2 23//2 24//2
f  24//3 25//3 20//3
f  20//4 25//4 24//4
f  23//4 26//4 27//4
f  27//3 26//3 23//3
f  27//1 28//1 24//1
f  29//5 27//5 24//5
f  25//3 24//3 29//3
f  29//4 24//4 25//4
f  30//4 27//4 26//4
f  27//5 29//5 26//5
f  28//1 27//1 31//1
f  28//3 29//3 24//3
f  27//4 30//4 31//4
f  29//2 30//2 26//2
f  29//3 28//3 32//3
f  30//2 29//2 32//2

# Mesh 'mesh1_mesh1-geometry' with 36 faces
g mesh1_mesh1-geometry
usemtl material_1_24
f  11//6 3//6 1//6
f  1//5 3//5 11//5
f  1//2 6//2 3//2
f  2//6 4//6 9//6
f  3//6 11//6 5//6
f  5//5 11//5 3//5
f  5//4 3//4 10//4
f  1//3 11//3 6//3
f  12//2 3//2 6//2
f  7//6 9//6 4//6
f  5//1 10//1 11//1
f  12//4 10//4 3//4
f  15//3 6//3 11//3
f  12//6 6//6 10//6
f  13//6 8//6 14//6
f  15//1 11//1 10//1
f  15//6 10//6 6//6
f  8//6 13//6 17//6
f  18//6 16//6 19//6
f  16//6 18//6 21//6
f  22//6 20//6 23//6
f  20//6 22//6 25//6
f  24//2 28//2 27//2
f  24//6 27//6 29//6
f  26//3 27//3 30//3
f  26//6 29//6 27//6
f  31//2 27//2 28//2
f  24//4 29//4 28//4
f  31//3 30//3 27//3
f  26//1 30//1 29//1
f  30//6 28//6 31//6
f  31//5 28//5 30//5
f  32//4 28//4 29//4
f  32//1 29//1 30//1
f  28//6 30//6 32//6
f  32//5 30//5 28//5

# Mesh 'mesh2_mesh2-geometry' with 1 faces
g mesh2_mesh2-geometry
usemtl material_1_0
l  5 11

# Mesh 'mesh3_mesh3-geometry' with 4 faces
g mesh3_mesh3-geometry
usemtl material_1_0
l  30 31
l  32 30
l  31 28
l  28 32

