# File produced by Open Asset Import Library (http://www.assimp.sf.net)
# (assimp v3.2.202087883)

mtllib model_normalized.mtl

# 91 vertex positions
v 0.233457 -0.386284 -0.155674
v 0.212622 -0.386284 -0.134839
v 0.212622 -0.386284 -0.155674
v 0.233457 -0.386284 -0.134839
v 0.212622 -0.094596 -0.134839
v 0.212622 0.013050 -0.155674
v 0.233457 -0.094596 -0.134839
v 0.212622 -0.052927 -0.134839
v 0.233457 0.134587 -0.155674
v 0.233457 -0.052927 -0.134839
v 0.212622 0.134587 -0.155674
v 0.212622 0.013050 -0.134839
v 0.233457 0.134587 -0.134839
v 0.212622 0.134587 -0.134839
v -0.204075 -0.386284 -0.114004
v -0.217964 -0.094596 -0.114004
v -0.204075 -0.094596 -0.114004
v -0.217964 0.120697 -0.114004
v -0.204075 -0.052927 -0.114004
v -0.217964 -0.052927 -0.114004
v -0.217964 -0.386284 -0.114004
v -0.204075 -0.039037 -0.114004
v -0.217964 -0.386284 -0.009830
v -0.204075 -0.052927 -0.009830
v -0.204075 0.120697 -0.114004
v -0.217964 0.120697 -0.079279
v -0.204075 -0.386284 -0.009830
v -0.204075 0.120697 -0.079279
v -0.217964 0.120697 -0.009830
v -0.204075 0.120697 -0.009830
v -0.204075 -0.039037 -0.009830
v 0.136228 0.120697 0.191574
v 0.136228 0.099862 0.170739
v 0.136228 0.120697 0.170739
v 0.136228 0.099862 0.191574
v -0.106845 0.099862 0.170739
v -0.106845 0.120697 0.170739
v -0.266579 0.120697 0.170739
v -0.127680 0.120697 0.170739
v -0.266579 0.099862 0.191574
v -0.127680 0.120697 0.191574
v -0.266579 0.099862 0.170739
v -0.266579 0.120697 0.191574
v -0.245744 -0.052927 -0.134839
v 0.261237 -0.094596 -0.114004
v 0.261237 -0.094596 -0.134839
v -0.245744 -0.094596 -0.134839
v -0.204075 -0.052927 -0.134839
v 0.261237 -0.052927 -0.114004
v 0.212622 0.221399 -0.190398
v 0.212622 0.013050 -0.190398
v 0.261237 -0.052927 -0.134839
v -0.245744 -0.094596 -0.114004
v 0.164008 -0.052927 -0.134839
v 0.198732 0.013050 -0.134839
v -0.245744 -0.052927 -0.114004
v 0.164008 -0.052927 -0.114004
v 0.164008 -0.052927 -0.155674
v 0.212622 0.013050 0.191574
v 0.198732 0.221399 -0.190398
v 0.198732 0.013050 -0.190398
v 0.198732 0.013050 0.156849
v -0.204075 -0.039037 -0.155674
v 0.164008 -0.039037 -0.155674
v -0.204075 -0.052927 -0.155674
v 0.212622 0.221399 0.191574
v 0.198732 0.013050 0.191574
v 0.198732 0.013050 0.170739
v 0.164008 -0.039037 0.158238
v 0.198732 0.221399 0.156849
v 0.198732 -0.386284 0.156849
v -0.204075 -0.052927 0.158238
v 0.164008 -0.052927 0.158238
v 0.198732 0.221399 0.191574
v 0.198732 0.221399 0.170739
v 0.198732 -0.386284 0.170739
v -0.106845 0.349880 0.156849
v 0.198732 0.349880 0.170739
v -0.106845 -0.386284 0.170739
v -0.106845 -0.386284 0.156849
v 0.198732 0.349880 0.156849
v -0.266579 0.134587 -0.079279
v -0.204075 -0.039037 0.158238
v -0.106845 0.349880 0.170739
v -0.127680 0.120697 -0.079279
v -0.266579 0.120697 -0.079279
v -0.127680 0.134587 -0.079279
v -0.127680 0.134587 0.233243
v -0.266579 0.120697 0.233243
v -0.266579 0.134587 0.233243
v -0.127680 0.120697 0.233243

# 0 UV coordinates

# 6 vertex normals
vn 0 -0.0254 0
vn -0.0254 0 0
vn 0 0 -0.0254
vn 0.0254 0 0
vn 0 0 0.0254
vn 0 0.0254 0

# Mesh 'mesh1_mesh1-geometry' with 60 faces
g mesh1_mesh1-geometry
usemtl material_0_24
f  1//1 2//1 3//1
f  2//1 1//1 4//1
f  5//2 3//2 2//2
f  6//3 1//3 3//3
f  1//4 7//4 4//4
f  7//5 2//5 4//5
f  3//2 5//2 8//2
f  2//5 7//5 5//5
f  1//3 6//3 9//3
f  3//2 8//2 6//2
f  7//4 1//4 10//4
f  9//3 6//3 11//3
f  9//4 10//4 1//4
f  6//2 8//2 12//2
f  13//5 8//5 10//5
f  11//6 13//6 9//6
f  10//4 9//4 13//4
f  8//5 13//5 12//5
f  13//6 11//6 14//6
f  12//5 13//5 14//5
f  15//3 16//3 17//3
f  18//3 19//3 20//3
f  16//3 15//3 21//3
f  19//4 15//4 17//4
f  21//2 20//2 16//2
f  19//3 18//3 22//3
f  21//2 18//2 20//2
f  15//1 23//1 21//1
f  24//4 15//4 19//4
f  22//3 18//3 25//3
f  21//2 26//2 18//2
f  23//1 15//1 27//1
f  23//2 26//2 21//2
f  15//4 24//4 27//4
f  18//6 28//6 25//6
f  28//4 22//4 25//4
f  28//6 18//6 26//6
f  24//5 23//5 27//5
f  26//2 23//2 29//2
f  30//4 22//4 28//4
f  22//4 30//4 31//4
f  29//5 24//5 31//5
f  23//5 24//5 29//5
f  29//5 31//5 30//5
f  32//4 33//4 34//4
f  35//1 36//1 33//1
f  37//3 38//3 39//3
f  37//6 32//6 34//6
f  33//4 32//4 35//4
f  40//1 36//1 35//1
f  36//3 38//3 37//3
f  39//6 32//6 37//6
f  32//6 39//6 41//6
f  32//5 40//5 35//5
f  36//1 40//1 42//1
f  38//2 40//2 43//2
f  38//3 36//3 42//3
f  43//5 32//5 41//5
f  40//5 32//5 43//5
f  40//2 38//2 42//2

# Mesh 'mesh1_mesh1-geometry' with 208 faces
g mesh1_mesh1-geometry
usemtl material_1_24
f  3//6 2//6 1//6
f  4//6 1//6 2//6
f  2//4 3//4 5//4
f  3//5 1//5 6//5
f  4//2 7//2 1//2
f  4//3 2//3 7//3
f  8//4 5//4 3//4
f  5//3 7//3 2//3
f  9//5 6//5 1//5
f  6//4 8//4 3//4
f  10//2 1//2 7//2
f  8//5 44//5 5//5
f  5//5 10//5 8//5
f  8//3 10//3 5//3
f  7//6 5//6 45//6
f  10//5 5//5 7//5
f  7//3 5//3 10//3
f  11//5 6//5 9//5
f  1//2 10//2 9//2
f  12//4 8//4 6//4
f  7//5 46//5 10//5
f  47//5 5//5 44//5
f  48//5 44//5 8//5
f  10//1 49//1 8//1
f  10//3 8//3 13//3
f  45//6 5//6 17//6
f  46//6 7//6 45//6
f  11//2 50//2 6//2
f  12//2 11//2 6//2
f  6//4 11//4 12//4
f  9//1 13//1 11//1
f  13//2 9//2 10//2
f  12//3 13//3 8//3
f  6//6 51//6 12//6
f  52//5 10//5 46//5
f  47//6 53//6 5//6
f  47//4 44//4 53//4
f  48//1 20//1 44//1
f  54//5 48//5 8//5
f  8//1 49//1 54//1
f  52//1 49//1 10//1
f  17//6 5//6 16//6
f  45//3 17//3 49//3
f  45//2 49//2 46//2
f  14//2 50//2 11//2
f  6//2 50//2 51//2
f  11//2 12//2 14//2
f  14//4 12//4 11//4
f  14//1 11//1 13//1
f  14//3 13//3 12//3
f  12//6 51//6 55//6
f  52//2 46//2 49//2
f  16//6 5//6 53//6
f  56//4 53//4 44//4
f  56//1 44//1 20//1
f  19//1 20//1 48//1
f  48//6 57//6 54//6
f  54//1 57//1 48//1
f  54//6 58//6 48//6
f  57//1 54//1 49//1
f  17//5 16//5 15//5
f  20//3 17//3 16//3
f  16//5 17//5 20//5
f  19//3 49//3 17//3
f  59//2 50//2 14//2
f  50//5 60//5 51//5
f  12//2 59//2 14//2
f  61//6 55//6 51//6
f  55//6 62//6 12//6
f  53//3 56//3 16//3
f  20//3 16//3 56//3
f  20//5 19//5 18//5
f  17//3 20//3 19//3
f  19//5 20//5 17//5
f  48//4 63//4 19//4
f  57//6 48//6 19//6
f  19//1 48//1 57//1
f  54//2 57//2 64//2
f  65//6 48//6 58//6
f  58//2 54//2 64//2
f  57//3 49//3 19//3
f  21//5 15//5 16//5
f  17//2 15//2 19//2
f  16//4 20//4 21//4
f  50//2 59//2 66//2
f  61//5 51//5 60//5
f  50//1 66//1 60//1
f  59//6 12//6 67//6
f  61//4 60//4 55//4
f  68//6 12//6 62//6
f  55//4 60//4 62//4
f  22//5 18//5 19//5
f  20//4 18//4 21//4
f  22//4 19//4 63//4
f  65//4 63//4 48//4
f  19//6 24//6 57//6
f  64//2 57//2 69//2
f  65//5 58//5 63//5
f  64//5 63//5 58//5
f  21//6 23//6 15//6
f  19//2 15//2 24//2
f  59//3 67//3 66//3
f  60//1 66//1 70//1
f  67//6 12//6 68//6
f  62//2 71//2 68//2
f  70//4 62//4 60//4
f  25//5 18//5 22//5
f  18//4 26//4 21//4
f  63//1 69//1 22//1
f  72//6 57//6 24//6
f  73//2 69//2 57//2
f  64//1 69//1 63//1
f  27//6 15//6 23//6
f  21//4 26//4 23//4
f  27//2 24//2 15//2
f  74//3 66//3 67//3
f  70//1 66//1 75//1
f  68//4 75//4 67//4
f  76//2 68//2 71//2
f  62//5 77//5 71//5
f  70//5 77//5 62//5
f  25//1 28//1 18//1
f  25//2 22//2 28//2
f  26//1 18//1 28//1
f  22//1 69//1 31//1
f  73//6 57//6 72//6
f  24//4 31//4 72//4
f  73//3 72//3 69//3
f  27//3 23//3 24//3
f  29//4 23//4 26//4
f  74//1 75//1 66//1
f  74//4 67//4 75//4
f  75//2 78//2 70//2
f  68//3 33//3 75//3
f  76//3 79//3 68//3
f  76//6 71//6 79//6
f  80//5 71//5 77//5
f  81//5 77//5 70//5
f  28//2 22//2 30//2
f  28//5 82//5 26//5
f  28//1 29//1 26//1
f  26//6 29//6 28//6
f  83//1 31//1 69//1
f  31//2 30//2 22//2
f  83//4 72//4 31//4
f  31//3 24//3 29//3
f  83//3 69//3 72//3
f  29//3 24//3 23//3
f  29//6 26//6 38//6
f  81//2 70//2 78//2
f  78//3 75//3 84//3
f  34//3 75//3 33//3
f  33//3 68//3 36//3
f  36//3 68//3 79//3
f  80//6 79//6 71//6
f  80//4 77//4 79//4
f  81//1 78//1 77//1
f  28//6 30//6 85//6
f  29//1 28//1 30//1
f  30//6 28//6 29//6
f  86//5 26//5 82//5
f  85//5 82//5 28//5
f  30//3 31//3 29//3
f  86//6 38//6 26//6
f  39//6 29//6 38//6
f  84//3 75//3 37//3
f  84//1 77//1 78//1
f  37//3 75//3 34//3
f  34//2 33//2 32//2
f  33//6 36//6 35//6
f  79//4 77//4 36//4
f  85//6 30//6 39//6
f  30//6 29//6 39//6
f  86//4 82//4 38//4
f  87//5 82//5 85//5
f  39//5 38//5 37//5
f  38//6 41//6 39//6
f  39//1 41//1 38//1
f  84//4 37//4 77//4
f  34//1 32//1 37//1
f  35//2 32//2 33//2
f  35//6 36//6 40//6
f  36//4 77//4 37//4
f  85//2 39//2 87//2
f  38//4 82//4 43//4
f  87//1 88//1 82//1
f  37//5 38//5 36//5
f  37//1 32//1 39//1
f  41//6 38//6 43//6
f  43//1 38//1 41//1
f  41//1 39//1 32//1
f  39//2 41//2 87//2
f  35//3 40//3 32//3
f  42//6 40//6 36//6
f  43//4 82//4 89//4
f  43//4 40//4 38//4
f  90//1 82//1 88//1
f  87//2 41//2 88//2
f  42//5 36//5 38//5
f  41//3 32//3 43//3
f  43//6 89//6 41//6
f  43//3 32//3 40//3
f  42//4 38//4 40//4
f  90//4 89//4 82//4
f  90//3 88//3 89//3
f  91//2 88//2 41//2
f  91//6 41//6 89//6
f  91//3 89//3 88//3

# Mesh 'mesh1_mesh1-geometry' with 54 faces
g mesh1_mesh1-geometry
usemtl material_2_24
f  5//3 44//3 8//3
f  45//1 5//1 7//1
f  10//3 46//3 7//3
f  44//3 5//3 47//3
f  8//3 44//3 48//3
f  8//6 49//6 10//6
f  17//1 5//1 45//1
f  45//1 7//1 46//1
f  6//4 50//4 11//4
f  12//1 51//1 6//1
f  46//3 10//3 52//3
f  5//1 53//1 47//1
f  53//2 44//2 47//2
f  44//6 20//6 48//6
f  8//3 48//3 54//3
f  54//6 49//6 8//6
f  10//6 49//6 52//6
f  16//1 5//1 17//1
f  49//5 17//5 45//5
f  46//4 49//4 45//4
f  11//4 50//4 14//4
f  51//4 50//4 6//4
f  55//1 51//1 12//1
f  49//4 46//4 52//4
f  53//1 5//1 16//1
f  44//2 53//2 56//2
f  20//6 44//6 56//6
f  48//6 20//6 19//6
f  49//6 54//6 57//6
f  17//5 49//5 19//5
f  14//4 50//4 59//4
f  51//3 60//3 50//3
f  14//4 59//4 12//4
f  51//1 55//1 61//1
f  12//1 62//1 55//1
f  16//5 56//5 53//5
f  56//5 16//5 20//5
f  19//5 49//5 57//5
f  66//4 59//4 50//4
f  60//3 51//3 61//3
f  60//6 66//6 50//6
f  67//1 12//1 59//1
f  55//2 60//2 61//2
f  62//1 12//1 68//1
f  62//2 60//2 55//2
f  66//5 67//5 59//5
f  70//6 66//6 60//6
f  68//1 12//1 67//1
f  60//2 62//2 70//2
f  67//5 66//5 74//5
f  75//6 66//6 70//6
f  67//2 75//2 68//2
f  66//6 75//6 74//6
f  75//2 67//2 74//2

# Mesh 'mesh1_mesh1-geometry' with 22 faces
g mesh1_mesh1-geometry
usemtl material_5_24
f  48//1 58//1 54//1
f  19//2 63//2 48//2
f  64//4 57//4 54//4
f  58//1 48//1 65//1
f  64//4 54//4 58//4
f  63//2 19//2 22//2
f  48//2 63//2 65//2
f  57//1 24//1 19//1
f  69//4 57//4 64//4
f  63//3 58//3 65//3
f  58//3 63//3 64//3
f  22//6 69//6 63//6
f  24//1 57//1 72//1
f  57//4 69//4 73//4
f  63//6 69//6 64//6
f  31//6 69//6 22//6
f  72//1 57//1 73//1
f  72//2 31//2 24//2
f  69//5 72//5 73//5
f  69//6 31//6 83//6
f  31//2 72//2 83//2
f  72//5 69//5 83//5

# Mesh 'mesh1_mesh1-geometry' with 20 faces
g mesh1_mesh1-geometry
usemtl material_3_24
f  68//4 71//4 62//4
f  71//4 68//4 76//4
f  70//4 78//4 75//4
f  75//5 33//5 68//5
f  68//5 79//5 76//5
f  79//1 71//1 76//1
f  78//4 70//4 81//4
f  84//5 75//5 78//5
f  33//5 75//5 34//5
f  36//5 68//5 33//5
f  79//5 68//5 36//5
f  71//1 79//1 80//1
f  79//2 77//2 80//2
f  77//6 78//6 81//6
f  37//5 75//5 84//5
f  78//6 77//6 84//6
f  34//5 75//5 37//5
f  36//2 77//2 79//2
f  77//2 37//2 84//2
f  37//2 77//2 36//2

# Mesh 'mesh1_mesh1-geometry' with 28 faces
g mesh1_mesh1-geometry
usemtl material_4_24
f  71//3 77//3 62//3
f  62//3 77//3 70//3
f  77//3 71//3 80//3
f  70//3 77//3 81//3
f  26//3 82//3 28//3
f  38//1 26//1 29//1
f  85//1 30//1 28//1
f  82//3 26//3 86//3
f  28//3 82//3 85//3
f  26//1 38//1 86//1
f  38//1 29//1 39//1
f  39//1 30//1 85//1
f  39//1 29//1 30//1
f  38//2 82//2 86//2
f  85//3 82//3 87//3
f  87//4 39//4 85//4
f  43//2 82//2 38//2
f  82//6 88//6 87//6
f  87//4 41//4 39//4
f  89//2 82//2 43//2
f  88//6 82//6 90//6
f  88//4 41//4 87//4
f  41//1 89//1 43//1
f  82//2 89//2 90//2
f  89//5 88//5 90//5
f  41//4 88//4 91//4
f  89//1 41//1 91//1
f  88//5 89//5 91//5

