# File produced by Open Asset Import Library (http://www.assimp.sf.net)
# (assimp v3.2.202087883)

mtllib model_normalized.mtl

# 94 vertex positions
v 0.237322 -0.249199 0.202288
v 0.191205 -0.254634 0.156173
v 0.191205 -0.249199 0.156173
v 0.237322 -0.254634 0.202288
v 0.192114 -0.254634 0.172450
v 0.238231 -0.249199 0.218566
v 0.192114 -0.249199 0.172450
v 0.238231 -0.254634 0.218566
v 0.237322 0.125814 0.202288
v 0.191205 0.125814 0.156173
v 0.238231 0.125814 0.218566
v 0.192114 0.125814 0.172450
v -0.166204 -0.249199 -0.201237
v -0.212322 -0.254634 -0.247358
v -0.212322 -0.249199 -0.247358
v -0.166204 -0.254634 -0.201237
v -0.211413 -0.254634 -0.231075
v -0.165295 -0.249199 -0.184959
v -0.211413 -0.249199 -0.231075
v -0.165295 -0.254634 -0.184959
v -0.166204 0.125814 -0.201237
v -0.212322 0.125814 -0.247358
v -0.165295 0.125814 -0.184959
v -0.211413 0.125814 -0.231075
v -0.203905 -0.249199 0.173363
v -0.250022 -0.254634 0.219485
v -0.250022 -0.249199 0.219485
v -0.203905 -0.254634 0.173363
v -0.233742 -0.254634 0.218572
v -0.187625 -0.249199 0.172456
v -0.233742 -0.249199 0.218572
v -0.187625 -0.254634 0.172456
v -0.203905 0.125814 0.173363
v -0.250022 0.125814 0.219485
v -0.187625 0.125814 0.172456
v -0.233742 0.125814 0.218572
v 0.224859 -0.249199 -0.208705
v 0.178742 -0.254634 -0.162583
v 0.178742 -0.249199 -0.162583
v 0.224859 -0.254634 -0.208705
v 0.195021 -0.254634 -0.163496
v 0.241138 -0.249199 -0.209612
v 0.195021 -0.249199 -0.163496
v 0.241138 -0.254634 -0.209612
v 0.224859 0.125814 -0.208705
v 0.178742 0.125814 -0.162583
v 0.241138 0.125814 -0.209612
v 0.195021 0.125814 -0.163496
v 0.139235 0.136684 0.297678
v 0.058572 0.125814 0.324891
v 0.139235 0.125814 0.297678
v 0.058572 0.136684 0.324891
v -0.313035 0.125814 -0.100467
v 0.210106 0.136684 0.250513
v -0.313035 0.136684 -0.100467
v -0.026385 0.125814 0.330293
v -0.329801 0.125814 -0.017008
v -0.275239 0.125814 -0.176747
v 0.210106 0.125814 0.250513
v -0.275239 0.136684 -0.176747
v -0.329801 0.136684 -0.017008
v -0.026385 0.136684 0.330293
v 0.266356 0.136684 0.186619
v -0.218989 0.136684 -0.240646
v -0.109846 0.136684 0.313531
v -0.324394 0.125814 0.067947
v -0.218989 0.125814 -0.240646
v 0.266356 0.125814 0.186619
v -0.324394 0.136684 0.067947
v -0.109846 0.125814 0.313531
v 0.304152 0.136684 0.110339
v -0.148118 0.136684 -0.287805
v -0.148118 0.125814 -0.287805
v -0.186125 0.136684 0.275731
v -0.297183 0.136684 0.148612
v -0.297183 0.125814 0.148612
v 0.304152 0.125814 0.110339
v -0.186125 0.125814 0.275731
v 0.320918 0.136684 0.026880
v -0.067455 0.136684 -0.315018
v -0.067455 0.125814 -0.315018
v -0.250022 0.136684 0.219485
v 0.320918 0.125814 0.026880
v 0.315511 0.125814 -0.058080
v 0.017502 0.136684 -0.320426
v 0.017502 0.125814 -0.320426
v 0.315511 0.136684 -0.058080
v 0.288300 0.125814 -0.138740
v 0.100963 0.125814 -0.303659
v 0.100963 0.136684 -0.303659
v 0.288300 0.136684 -0.138740
v 0.177242 0.125814 -0.265864
v 0.177242 0.136684 -0.265864
v 0.241138 0.136684 -0.209612

# 164 UV coordinates
vt 0 0 0
vt 1.29076 0.007291 0
vt 1.20327 0.510353 0
vt 1.20327 0.007291 0
vt 1.29076 0.510353 0
vt -3.53999 0.510353 0
vt -3.51811 0.007291 0
vt -3.51811 0.510353 0
vt -3.53999 0.007291 0
vt 3.47477 0.007291 0
vt 3.4529 0.510353 0
vt 3.4529 0.007291 0
vt 5.79775 3.4529 0
vt 5.73943 3.53999 0
vt 5.73943 3.51811 0
vt -1.18697 0.007291 0
vt -1.27446 0.510353 0
vt -1.27446 0.007291 0
vt -1.18697 0.510353 0
vt 3.47477 0.510353 0
vt 5.79775 3.47477 0
vt 1.14479 0.065617 0
vt 0.630903 0 0
vt 1.14479 0 0
vt 0.630903 0.065617 0
vt -0.867305 0.329363 0
vt -1.09674 3.73118 0
vt -1.32776 0.101207 0
vt 1.28183 0 0
vt 1.79571 0.065617 0
vt 1.28183 0.065617 0
vt 1.09674 3.73118 0
vt 0.867305 0.329363 0
vt 1.32776 0.101207 0
vt 0.43336 0.065617 0
vt -0.080523 0 0
vt 0.43336 0 0
vt -0.66892 3.4465 0
vt -1.58366 3.89544 0
vt 1.79571 0 0
vt 1.58366 3.89544 0
vt 1.83158 0 0
vt 0.66892 3.4465 0
vt -0.080523 0.065617 0
vt -0.48159 0.66892 0
vt -2.46623 0.065617 0
vt -2.98012 0 0
vt -2.46623 0 0
vt -2.23186 0.065617 0
vt -2.74574 0 0
vt -2.23186 0 0
vt -1.83158 0 0
vt 1.82788 0 0
vt 2.34176 0.065617 0
vt 1.82788 0.065617 0
vt 2.0965 3.92808 0
vt 0.48159 0.66892 0
vt -2.98012 0.065617 0
vt -2.74574 0.065617 0
vt -0.803972 0.065617 0
vt -0.29009 0 0
vt -0.29009 0.065617 0
vt -0.329363 3.06078 0
vt -2.51503 0 0
vt -3.02891 0.065617 0
vt -3.02891 0 0
vt -2.0965 3.92808 0
vt 2.34176 0 0
vt 2.34442 0.032639 0
vt -2.34176 0 0
vt -1.82788 0.065617 0
vt -2.34176 0.065617 0
vt 0.329363 3.06078 0
vt -1.82788 0 0
vt -0.803972 0 0
vt 0.196901 1.09674 0
vt -0.196901 1.09674 0
vt -2.51503 0.065617 0
vt -2.34442 0.032639 0
vt 2.23186 0 0
vt 2.74574 0.065617 0
vt 2.23186 0.065617 0
vt 2.60032 3.82688 0
vt -1.28183 0.065617 0
vt -1.79571 0 0
vt -1.28183 0 0
vt -1.49014 0.065617 0
vt -0.976259 0 0
vt -0.976259 0.065617 0
vt 0.101207 2.60032 0
vt -0.101207 2.60032 0
vt -2.37491 0 0
vt -2.88879 0.065617 0
vt -2.88879 0 0
vt -2.60032 3.82688 0
vt 2.74574 0 0
vt 2.83135 0.196901 0
vt -1.79571 0.065617 0
vt -1.49014 0 0
vt 0.032639 1.58366 0
vt -2.37491 0.065617 0
vt -0.032639 1.58366 0
vt -2.83135 0.196901 0
vt 2.46623 0 0
vt 2.98012 0.065617 0
vt 2.46623 0.065617 0
vt 3.06078 3.59872 0
vt -0.630903 0.065617 0
vt -1.14479 0 0
vt -0.630903 0 0
vt -2.09227 0.065617 0
vt -1.57839 0 0
vt -1.57839 0.065617 0
vt 0 2.0965 0
vt -2.05544 0 0
vt -2.56933 0.065617 0
vt -2.56933 0 0
vt -3.06078 3.59872 0
vt 2.98012 0 0
vt 3.25917 0.48159 0
vt -1.14479 0.065617 0
vt -2.09227 0 0
vt -2.05544 0.065617 0
vt -3.25917 0.48159 0
vt 3.02891 0 0
vt 2.51503 0.065617 0
vt 2.51503 0 0
vt 3.4465 3.25917 0
vt 0.080523 0.065617 0
vt -0.43336 0 0
vt 0.080523 0 0
vt -3.4465 3.25917 0
vt 3.02891 0.065617 0
vt -3.59872 0.867305 0
vt 3.59872 0.867305 0
vt -0.43336 0.065617 0
vt 2.88879 0 0
vt 2.37491 0.065617 0
vt 2.37491 0 0
vt -3.73118 2.83135 0
vt 3.73118 2.83135 0
vt 0.29009 0.065617 0
vt 0.803972 0 0
vt 0.803972 0.065617 0
vt 2.88879 0.065617 0
vt -3.82688 1.32776 0
vt 0.29009 0 0
vt 3.82688 1.32776 0
vt 2.56933 0 0
vt 2.05544 0.065617 0
vt 2.05544 0 0
vt -3.89544 2.34442 0
vt 0.976259 0.065617 0
vt 1.49014 0 0
vt 1.49014 0.065617 0
vt 3.89544 2.34442 0
vt 2.56933 0.065617 0
vt -3.92808 1.83158 0
vt 0.976259 0 0
vt 3.92808 1.83158 0
vt 2.09227 0 0
vt 1.57839 0.065617 0
vt 1.57839 0 0
vt 2.09227 0.065617 0

# 34 vertex normals
vn 0.0179605 0 -0.0179605
vn -0.0253605 0 0.00141622
vn 0.0253605 0 -0.00141622
vn -0 -0.0254 0
vn -0.0179605 0 0.0179605
vn 0 0.0254 0
vn -0.0179605 0 -0.0179605
vn 0.00141622 0 0.0253605
vn -0.00141622 0 -0.0253605
vn 0.0179605 0 0.0179605
vn 0.011191 0 0.0228018
vn 0.00490816 0 0.0249213
vn -0.011191 0 -0.0228018
vn -0.00490816 0 -0.0249213
vn 0.0167112 0 0.0191284
vn -0.0167112 0 -0.0191284
vn -0.00170919 0 0.0253424
vn 0.00170919 0 -0.0253424
vn -0.0253424 0 -0.00170919
vn -0.0240365 0 -0.00821006
vn 0.0253424 0 0.00170919
vn 0.0240365 0 0.00821006
vn -0.0210926 0 -0.0141514
vn 0.0210926 0 0.0141514
vn -0.00821006 0 0.0240365
vn 0.00821006 0 -0.0240365
vn -0.0249213 0 0.00490816
vn 0.0249213 0 -0.00490816
vn -0.0141514 0 0.0210926
vn 0.0141514 0 -0.0210926
vn -0.0228018 0 0.011191
vn 0.0228018 0 -0.011191
vn -0.0191284 0 0.0167112
vn 0.0191284 0 -0.0167112

# Mesh 'mesh1_mesh1-geometry' with 10 faces
g mesh1_mesh1-geometry
usemtl material_0_24
f  1/1/1 2/1/1 3/1/1
f  2/1/1 1/1/1 4/1/1
f  5/1/2 3/1/2 2/1/2
f  6/1/3 4/1/3 1/1/3
f  4/1/4 5/1/4 2/1/4
f  3/1/2 5/1/2 7/1/2
f  4/1/3 6/1/3 8/1/3
f  5/1/4 4/1/4 8/1/4
f  8/1/5 7/1/5 5/1/5
f  7/1/5 8/1/5 6/1/5

# Mesh 'mesh1_mesh1-geometry' with 24 faces
g mesh1_mesh1-geometry
usemtl material_1_24
f  3/1/5 2/1/5 1/1/5
f  4/1/5 1/1/5 2/1/5
f  2/1/3 3/1/3 5/1/3
f  1/1/5 9/1/5 3/1/5
f  3/1/6 6/1/6 1/1/6
f  1/1/4 6/1/4 3/1/4
f  1/1/2 4/1/2 6/1/2
f  2/1/6 5/1/6 4/1/6
f  7/1/3 5/1/3 3/1/3
f  10/1/5 3/1/5 9/1/5
f  9/1/2 1/1/2 11/1/2
f  6/1/6 3/1/6 7/1/6
f  7/1/4 3/1/4 6/1/4
f  6/1/2 11/1/2 1/1/2
f  8/1/2 6/1/2 4/1/2
f  8/1/6 4/1/6 5/1/6
f  5/1/1 7/1/1 8/1/1
f  3/1/3 10/1/3 7/1/3
f  9/1/4 11/1/4 10/1/4
f  6/1/1 8/1/1 7/1/1
f  7/1/1 12/1/1 6/1/1
f  11/1/1 6/1/1 12/1/1
f  12/1/3 7/1/3 10/1/3
f  12/1/4 10/1/4 11/1/4

# Mesh 'mesh1_mesh1-geometry' with 10 faces
g mesh1_mesh1-geometry
usemtl material_2_1_8
f  3/2/1 9/3/1 1/4/1
f  9/3/1 3/2/1 10/5/1
f  11/6/3 1/7/3 9/8/3
f  1/7/3 11/6/3 6/9/3
f  7/10/2 10/11/2 3/12/2
f  10/13/6 11/14/6 9/15/6
f  6/16/5 12/17/5 7/18/5
f  12/17/5 6/16/5 11/19/5
f  10/11/2 7/10/2 12/20/2
f  11/14/6 10/13/6 12/21/6

# Mesh 'mesh2_mesh2-geometry' with 10 faces
g mesh2_mesh2-geometry
usemtl material_0_24
f  13/1/1 14/1/1 15/1/1
f  14/1/1 13/1/1 16/1/1
f  17/1/2 15/1/2 14/1/2
f  18/1/3 16/1/3 13/1/3
f  16/1/4 17/1/4 14/1/4
f  15/1/2 17/1/2 19/1/2
f  16/1/3 18/1/3 20/1/3
f  17/1/4 16/1/4 20/1/4
f  20/1/5 19/1/5 17/1/5
f  19/1/5 20/1/5 18/1/5

# Mesh 'mesh2_mesh2-geometry' with 24 faces
g mesh2_mesh2-geometry
usemtl material_1_24
f  15/1/5 14/1/5 13/1/5
f  16/1/5 13/1/5 14/1/5
f  14/1/3 15/1/3 17/1/3
f  13/1/5 21/1/5 15/1/5
f  15/1/6 18/1/6 13/1/6
f  13/1/4 18/1/4 15/1/4
f  13/1/2 16/1/2 18/1/2
f  14/1/6 17/1/6 16/1/6
f  19/1/3 17/1/3 15/1/3
f  22/1/5 15/1/5 21/1/5
f  21/1/2 13/1/2 23/1/2
f  18/1/6 15/1/6 19/1/6
f  19/1/4 15/1/4 18/1/4
f  18/1/2 23/1/2 13/1/2
f  20/1/2 18/1/2 16/1/2
f  20/1/6 16/1/6 17/1/6
f  17/1/1 19/1/1 20/1/1
f  15/1/3 22/1/3 19/1/3
f  21/1/4 23/1/4 22/1/4
f  18/1/1 20/1/1 19/1/1
f  19/1/1 24/1/1 18/1/1
f  23/1/1 18/1/1 24/1/1
f  24/1/3 19/1/3 22/1/3
f  24/1/4 22/1/4 23/1/4

# Mesh 'mesh2_mesh2-geometry' with 10 faces
g mesh2_mesh2-geometry
usemtl material_2_1_8
f  15/2/1 21/3/1 13/4/1
f  21/3/1 15/2/1 22/5/1
f  23/6/3 13/7/3 21/8/3
f  13/7/3 23/6/3 18/9/3
f  19/10/2 22/11/2 15/12/2
f  22/13/6 23/14/6 21/15/6
f  18/16/5 24/17/5 19/18/5
f  24/17/5 18/16/5 23/19/5
f  22/11/2 19/10/2 24/20/2
f  23/14/6 22/13/6 24/21/6

# Mesh 'mesh3_mesh3-geometry' with 10 faces
g mesh3_mesh3-geometry
usemtl material_0_24
f  25/1/7 26/1/7 27/1/7
f  26/1/7 25/1/7 28/1/7
f  29/1/8 27/1/8 26/1/8
f  30/1/9 28/1/9 25/1/9
f  28/1/4 29/1/4 26/1/4
f  27/1/8 29/1/8 31/1/8
f  28/1/9 30/1/9 32/1/9
f  29/1/4 28/1/4 32/1/4
f  32/1/10 31/1/10 29/1/10
f  31/1/10 32/1/10 30/1/10

# Mesh 'mesh3_mesh3-geometry' with 24 faces
g mesh3_mesh3-geometry
usemtl material_1_24
f  27/1/10 26/1/10 25/1/10
f  28/1/10 25/1/10 26/1/10
f  26/1/9 27/1/9 29/1/9
f  25/1/10 33/1/10 27/1/10
f  27/1/6 30/1/6 25/1/6
f  25/1/4 30/1/4 27/1/4
f  25/1/8 28/1/8 30/1/8
f  26/1/6 29/1/6 28/1/6
f  31/1/9 29/1/9 27/1/9
f  34/1/10 27/1/10 33/1/10
f  33/1/8 25/1/8 35/1/8
f  30/1/6 27/1/6 31/1/6
f  31/1/4 27/1/4 30/1/4
f  30/1/8 35/1/8 25/1/8
f  32/1/8 30/1/8 28/1/8
f  32/1/6 28/1/6 29/1/6
f  29/1/7 31/1/7 32/1/7
f  27/1/9 34/1/9 31/1/9
f  33/1/4 35/1/4 34/1/4
f  30/1/7 32/1/7 31/1/7
f  31/1/7 36/1/7 30/1/7
f  35/1/7 30/1/7 36/1/7
f  36/1/9 31/1/9 34/1/9
f  36/1/4 34/1/4 35/1/4

# Mesh 'mesh3_mesh3-geometry' with 10 faces
g mesh3_mesh3-geometry
usemtl material_2_1_8
f  27/2/7 33/3/7 25/4/7
f  33/3/7 27/2/7 34/5/7
f  35/6/9 25/7/9 33/8/9
f  25/7/9 35/6/9 30/9/9
f  31/10/8 34/11/8 27/12/8
f  34/13/6 35/14/6 33/15/6
f  30/16/10 36/17/10 31/18/10
f  36/17/10 30/16/10 35/19/10
f  34/11/8 31/10/8 36/20/8
f  35/14/6 34/13/6 36/21/6

# Mesh 'mesh4_mesh4-geometry' with 10 faces
g mesh4_mesh4-geometry
usemtl material_0_24
f  37/1/7 38/1/7 39/1/7
f  38/1/7 37/1/7 40/1/7
f  41/1/8 39/1/8 38/1/8
f  42/1/9 40/1/9 37/1/9
f  40/1/4 41/1/4 38/1/4
f  39/1/8 41/1/8 43/1/8
f  40/1/9 42/1/9 44/1/9
f  41/1/4 40/1/4 44/1/4
f  44/1/10 43/1/10 41/1/10
f  43/1/10 44/1/10 42/1/10

# Mesh 'mesh4_mesh4-geometry' with 24 faces
g mesh4_mesh4-geometry
usemtl material_1_24
f  39/1/10 38/1/10 37/1/10
f  40/1/10 37/1/10 38/1/10
f  38/1/9 39/1/9 41/1/9
f  37/1/10 45/1/10 39/1/10
f  39/1/6 42/1/6 37/1/6
f  37/1/4 42/1/4 39/1/4
f  37/1/8 40/1/8 42/1/8
f  38/1/6 41/1/6 40/1/6
f  43/1/9 41/1/9 39/1/9
f  46/1/10 39/1/10 45/1/10
f  45/1/8 37/1/8 47/1/8
f  42/1/6 39/1/6 43/1/6
f  43/1/4 39/1/4 42/1/4
f  42/1/8 47/1/8 37/1/8
f  44/1/8 42/1/8 40/1/8
f  44/1/6 40/1/6 41/1/6
f  41/1/7 43/1/7 44/1/7
f  39/1/9 46/1/9 43/1/9
f  45/1/4 47/1/4 46/1/4
f  42/1/7 44/1/7 43/1/7
f  43/1/7 48/1/7 42/1/7
f  47/1/7 42/1/7 48/1/7
f  48/1/9 43/1/9 46/1/9
f  48/1/4 46/1/4 47/1/4

# Mesh 'mesh4_mesh4-geometry' with 10 faces
g mesh4_mesh4-geometry
usemtl material_2_1_8
f  39/2/7 45/3/7 37/4/7
f  45/3/7 39/2/7 46/5/7
f  47/6/9 37/7/9 45/8/9
f  37/7/9 47/6/9 42/9/9
f  43/10/8 46/11/8 39/12/8
f  46/13/6 47/14/6 45/15/6
f  42/16/10 48/17/10 43/18/10
f  48/17/10 42/16/10 47/19/10
f  46/11/8 43/10/8 48/20/8
f  47/14/6 46/13/6 48/21/6

# Mesh 'mesh5_mesh5-geometry' with 184 faces
g mesh5_mesh5-geometry
usemtl material_3_2_8
f  49/22/11 50/23/12 51/24/11
f  50/23/12 49/22/11 52/25/12
f  51/24/13 50/23/14 49/22/13
f  52/25/14 49/22/13 50/23/14
f  50/26/4 53/27/4 51/28/4
f  51/28/6 53/27/6 50/26/6
f  51/29/11 54/30/15 49/31/11
f  49/31/13 54/30/16 51/29/13
f  55/32/6 52/33/6 49/34/6
f  49/34/4 52/33/4 55/32/4
f  52/35/12 56/36/17 50/37/12
f  50/37/14 56/36/18 52/35/14
f  50/26/4 57/38/4 53/27/4
f  53/27/6 57/38/6 50/26/6
f  51/28/4 53/27/4 58/39/4
f  58/39/6 53/27/6 51/28/6
f  54/30/15 51/29/11 59/40/15
f  59/40/16 51/29/13 54/30/16
f  60/41/6 49/34/6 54/42/6
f  54/42/4 49/34/4 60/41/4
f  61/43/6 52/33/6 55/32/6
f  55/32/4 52/33/4 61/43/4
f  55/32/6 49/34/6 60/41/6
f  60/41/4 49/34/4 55/32/4
f  56/36/17 52/35/12 62/44/17
f  62/44/18 52/35/14 56/36/18
f  56/45/4 57/38/4 50/26/4
f  50/26/6 57/38/6 56/45/6
f  61/46/19 53/47/20 57/48/19
f  57/48/21 53/47/22 61/46/21
f  55/49/20 58/50/23 53/51/20
f  53/51/22 58/50/24 55/49/22
f  51/28/4 58/39/4 59/52/4
f  59/52/6 58/39/6 51/28/6
f  59/53/15 63/54/24 54/55/15
f  54/55/16 63/54/23 59/53/16
f  60/41/6 54/42/6 64/56/6
f  64/56/4 54/42/4 60/41/4
f  61/43/6 62/57/6 52/33/6
f  52/33/4 62/57/4 61/43/4
f  53/47/20 61/46/19 55/58/20
f  55/58/22 61/46/21 53/47/22
f  58/50/23 55/49/20 60/59/23
f  60/59/24 55/49/22 58/50/24
f  65/60/25 56/61/17 62/62/17
f  62/62/18 56/61/18 65/60/26
f  56/45/4 66/63/4 57/38/4
f  57/38/6 66/63/6 56/45/6
f  66/64/27 61/65/19 57/66/19
f  57/66/21 61/65/21 66/64/28
f  59/52/4 58/39/4 67/67/4
f  67/67/6 58/39/6 59/52/6
f  63/54/24 59/53/15 68/68/24
f  68/68/23 59/53/16 63/54/23
f  64/56/6 54/42/6 63/69/6
f  63/69/4 54/42/4 64/56/4
f  67/70/16 60/71/23 64/72/16
f  64/72/15 60/71/24 67/70/15
f  69/73/6 62/57/6 61/43/6
f  61/43/4 62/57/4 69/73/4
f  60/71/23 67/70/16 58/74/23
f  58/74/24 67/70/15 60/71/24
f  56/61/17 65/60/25 70/75/25
f  70/75/26 65/60/26 56/61/18
f  69/73/6 65/76/6 62/57/6
f  62/57/4 65/76/4 69/73/4
f  70/77/4 66/63/4 56/45/4
f  56/45/6 66/63/6 70/77/6
f  61/65/19 66/64/27 69/78/27
f  69/78/28 66/64/28 61/65/21
f  59/52/4 67/67/4 68/79/4
f  68/79/6 67/67/6 59/52/6
f  68/80/24 71/81/22 63/82/24
f  63/82/23 71/81/20 68/80/23
f  64/56/6 63/69/6 72/83/6
f  72/83/4 63/69/4 64/56/4
f  64/84/16 73/85/13 67/86/16
f  67/86/15 73/85/11 64/84/15
f  74/87/29 70/88/25 65/89/25
f  65/89/26 70/88/26 74/87/30
f  75/90/6 65/76/6 69/73/6
f  69/73/4 65/76/4 75/90/4
f  70/77/4 76/91/4 66/63/4
f  66/63/6 76/91/6 70/77/6
f  76/92/31 69/93/27 66/94/27
f  66/94/28 69/93/28 76/92/32
f  68/79/4 67/67/4 73/95/4
f  73/95/6 67/67/6 68/79/6
f  71/81/22 68/80/24 77/96/22
f  77/96/20 68/80/23 71/81/20
f  72/83/6 63/69/6 71/97/6
f  71/97/4 63/69/4 72/83/4
f  73/85/13 64/84/16 72/98/13
f  72/98/11 64/84/15 73/85/11
f  70/88/25 74/87/29 78/99/29
f  78/99/30 74/87/30 70/88/26
f  75/90/6 74/100/6 65/76/6
f  65/76/4 74/100/4 75/90/4
f  69/93/27 76/92/31 75/101/31
f  75/101/32 76/92/32 69/93/28
f  78/102/4 76/91/4 70/77/4
f  70/77/6 76/91/6 78/102/6
f  68/79/4 73/95/4 77/103/4
f  77/103/6 73/95/6 68/79/6
f  77/104/22 79/105/21 71/106/22
f  71/106/20 79/105/19 77/104/20
f  72/83/6 71/97/6 80/107/6
f  80/107/4 71/97/4 72/83/4
f  72/108/13 81/109/14 73/110/13
f  73/110/11 81/109/12 72/108/11
f  82/111/33 78/112/29 74/113/29
f  74/113/30 78/112/30 82/111/34
f  74/100/6 75/90/6 82/114/6
f  82/114/4 75/90/4 74/100/4
f  34/115/33 75/116/31 76/117/31
f  76/117/32 75/116/32 34/115/34
f  76/91/4 78/102/4 34/114/4
f  34/114/6 78/102/6 76/91/6
f  77/103/4 73/95/4 81/118/4
f  81/118/6 73/95/6 77/103/6
f  79/105/21 77/104/22 83/119/21
f  83/119/19 77/104/20 79/105/19
f  80/107/6 71/97/6 79/120/6
f  79/120/4 71/97/4 80/107/4
f  81/109/14 72/108/13 80/121/14
f  80/121/12 72/108/11 81/109/12
f  78/112/29 82/111/33 34/122/33
f  34/122/34 82/111/34 78/112/30
f  75/116/31 34/115/33 82/123/33
f  82/123/34 34/115/34 75/116/32
f  77/103/4 81/118/4 83/124/4
f  83/124/6 81/118/6 77/103/6
f  84/125/28 79/126/21 83/127/21
f  83/127/19 79/126/19 84/125/27
f  80/107/6 79/120/6 85/128/6
f  85/128/4 79/120/4 80/107/4
f  80/129/14 86/130/18 81/131/14
f  81/131/12 86/130/17 80/129/12
f  83/124/4 81/118/4 86/132/4
f  86/132/6 81/118/6 83/124/6
f  79/126/21 84/125/28 87/133/28
f  87/133/27 84/125/27 79/126/19
f  83/124/4 86/132/4 84/134/4
f  84/134/6 86/132/6 83/124/6
f  85/128/6 79/120/6 87/135/6
f  87/135/4 79/120/4 85/128/4
f  86/130/18 80/129/14 85/136/18
f  85/136/17 80/129/12 86/130/17
f  88/137/32 87/138/28 84/139/28
f  84/139/27 87/138/27 88/137/31
f  84/134/4 86/132/4 89/140/4
f  89/140/6 86/132/6 84/134/6
f  85/128/6 87/135/6 90/141/6
f  90/141/4 87/135/4 85/128/4
f  90/142/26 86/143/18 85/144/18
f  85/144/17 86/143/17 90/142/25
f  87/138/28 88/137/32 91/145/32
f  91/145/31 88/137/31 87/138/27
f  84/134/4 89/140/4 88/146/4
f  88/146/6 89/140/6 84/134/6
f  86/143/18 90/142/26 89/147/26
f  89/147/25 90/142/25 86/143/17
f  90/141/6 87/135/6 91/148/6
f  91/148/4 87/135/4 90/141/4
f  47/149/34 91/150/32 88/151/32
f  88/151/31 91/150/31 47/149/33
f  88/146/4 89/140/4 92/152/4
f  92/152/6 89/140/6 88/146/6
f  93/153/30 89/154/26 90/155/26
f  90/155/25 89/154/25 93/153/29
f  90/141/6 91/148/6 93/156/6
f  93/156/4 91/148/4 90/141/4
f  91/150/32 47/149/34 94/157/34
f  94/157/33 47/149/33 91/150/31
f  88/146/4 92/152/4 47/158/4
f  47/158/6 92/152/6 88/146/6
f  89/154/26 93/153/30 92/159/30
f  92/159/29 93/153/29 89/154/25
f  93/156/6 91/148/6 94/160/6
f  94/160/4 91/148/4 93/156/4
f  92/161/30 94/162/34 47/163/34
f  47/163/33 94/162/33 92/161/29
f  94/162/34 92/161/30 93/164/30
f  93/164/29 92/161/29 94/162/33

# Mesh 'mesh6_mesh6-geometry' with 24 faces
g mesh6_mesh6-geometry
usemtl material_1_0
l  50 51
l  56 50
l  51 59
l  70 56
l  59 68
l  78 70
l  68 77
l  34 78
l  77 83
l  76 34
l  83 84
l  66 76
l  84 88
l  57 66
l  88 47
l  53 57
l  47 92
l  58 53
l  92 89
l  67 58
l  89 86
l  73 67
l  86 81
l  81 73

# Mesh 'mesh7_mesh7-geometry' with 24 faces
g mesh7_mesh7-geometry
usemtl material_1_0
l  52 49
l  62 52
l  49 54
l  65 62
l  54 63
l  74 65
l  63 71
l  82 74
l  71 79
l  75 82
l  79 87
l  69 75
l  87 91
l  61 69
l  91 94
l  55 61
l  94 93
l  60 55
l  93 90
l  64 60
l  90 85
l  72 64
l  85 80
l  80 72

