# File produced by Open Asset Import Library (http://www.assimp.sf.net)
# (assimp v3.2.202087883)

mtllib model_normalized.mtl

# 116 vertex positions
v 0.169871 0.014547 -0.218092
v 0.133770 -0.402001 -0.218092
v 0.169871 -0.402001 -0.218092
v 0.133770 0.014547 -0.218092
v 0.169871 -0.402001 -0.176438
v 0.133770 0.014547 -0.176438
v 0.133770 0.009919 -0.211039
v 0.169871 0.014547 -0.176438
v 0.133770 0.009919 -0.189749
v 0.133770 -0.031736 -0.211039
v 0.155986 -0.031736 -0.176438
v 0.155986 0.009919 -0.176438
v 0.133770 -0.031736 -0.189749
v -0.150819 -0.031736 -0.211039
v 0.133770 -0.031736 -0.176438
v 0.133770 0.009919 -0.176438
v -0.150819 0.009919 -0.211039
v 0.133770 -0.402001 -0.176438
v -0.150819 -0.031736 -0.189749
v -0.150819 0.014547 -0.215667
v -0.150819 0.009919 -0.174012
v -0.150819 0.009919 -0.189749
v -0.150819 -0.402001 -0.174012
v -0.150819 -0.402001 -0.215667
v -0.164704 0.009919 -0.174012
v -0.164704 -0.031736 -0.174012
v -0.164704 0.009919 0.119775
v -0.164704 0.009919 0.122200
v -0.150819 0.014547 -0.174012
v -0.186920 -0.402001 -0.215667
v -0.186920 0.009919 -0.174012
v -0.186920 0.014547 -0.174012
v -0.186920 -0.031736 -0.174012
v -0.186920 0.014547 -0.215667
v -0.164704 -0.031736 0.122200
v -0.186920 0.009919 0.122200
v -0.186920 -0.402001 -0.174012
v -0.186920 -0.031736 0.122200
v -0.150819 0.450535 0.122200
v -0.176715 -0.189099 0.122200
v -0.156350 -0.189099 0.122200
v -0.186920 0.450535 0.122200
v -0.176715 -0.216868 0.122200
v -0.156350 -0.216868 0.122200
v -0.186920 -0.402001 0.122200
v -0.186920 0.450535 0.163855
v -0.176715 -0.216868 -0.186046
v -0.156350 -0.189099 -0.186046
v -0.150819 -0.402001 0.122200
v -0.150819 0.450535 0.163855
v -0.176715 -0.189099 -0.186046
v -0.150819 -0.031736 0.126671
v -0.156350 -0.216868 -0.186046
v -0.186920 -0.402001 0.163855
v -0.150819 0.443129 0.147035
v -0.150819 -0.402001 0.163855
v -0.150819 -0.031736 0.147961
v -0.150819 0.009919 0.126671
v -0.150819 0.443129 0.126671
v 0.133770 -0.031736 0.147961
v -0.150819 0.102485 0.126671
v 0.133770 0.009919 0.126671
v -0.150819 0.274659 0.147961
v -0.150819 0.376482 0.126671
v 0.133770 0.443129 0.126671
v 0.133770 -0.031736 0.126671
v -0.150819 0.009919 0.147961
v -0.150819 0.148768 0.126671
v 0.133770 0.009919 0.119775
v -0.150819 0.376482 0.147035
v -0.150819 0.274659 0.126671
v 0.133770 0.443129 0.147035
v -0.150819 0.233004 0.147961
v 0.133770 -0.402001 0.119775
v 0.133770 0.009919 0.147961
v -0.150819 0.102485 0.147961
v -0.150819 0.233004 0.126671
v 0.133770 0.148768 0.126671
v -0.150819 0.009919 0.119775
v 0.133770 0.102485 0.126671
v 0.133770 0.376482 0.147035
v 0.133770 0.376482 0.126671
v 0.133770 0.450535 0.119775
v 0.133770 0.233004 0.147961
v -0.150819 0.148768 0.147961
v 0.133770 -0.402001 0.161429
v 0.133770 0.274659 0.147961
v 0.133770 0.102485 0.147961
v 0.148192 0.009919 -0.174012
v 0.133770 -0.031736 0.119775
v 0.133770 0.274659 0.126671
v 0.133770 0.450535 0.161429
v 0.133770 0.148768 0.147961
v 0.148192 0.009919 0.119775
v 0.143980 -0.216868 0.119775
v 0.133770 0.233004 0.126671
v 0.169871 0.450535 0.119775
v 0.169871 -0.402001 0.161429
v 0.148192 0.009919 -0.157026
v 0.164345 -0.216868 0.119775
v 0.143980 -0.189099 0.119775
v 0.148192 -0.031736 0.119775
v 0.169871 0.450535 0.161429
v 0.148192 -0.031736 -0.193100
v 0.169871 0.009919 -0.193100
v 0.169871 0.009919 -0.157026
v 0.169871 0.009919 0.119775
v 0.169871 -0.402001 0.119775
v 0.143980 -0.216868 -0.188471
v 0.169871 -0.031736 0.119775
v 0.148192 0.009919 -0.193100
v 0.164345 -0.216868 -0.188471
v 0.143980 -0.189099 -0.188471
v 0.164345 -0.189099 0.119775
v 0.169871 -0.031736 -0.193100
v 0.164345 -0.189099 -0.188471

# 260 UV coordinates
vt 0 0 0
vt 0.210764 0 0
vt 0.189438 0 0
vt 0.210764 0.246063 0
vt 0.189438 0.246063 0
vt -0.225623 0 0
vt -0.225623 0.246063 0
vt -0.201017 0 0
vt -0.189438 0.225623 0
vt -0.189438 0.201017 0
vt -0.210764 0.225623 0
vt 0.225623 0 0
vt 0.221457 0.243329 0
vt 0.225623 0.246063 0
vt -0.201017 0.246063 0
vt -0.210764 0.201017 0
vt 0.20888 0.243329 0
vt 0.201017 0.246063 0
vt 0.221457 0.218723 0
vt -0.210764 0.246063 0
vt -0.202562 0.218723 0
vt -0.210764 0 0
vt -0.189438 0.246063 0
vt -0.202562 0.243329 0
vt 0.20888 0.218723 0
vt -0.189438 0.026039 0
vt -0.189438 0.221457 0
vt -0.189438 0.20888 0
vt 0.189438 0.218723 0
vt 0.021325 0.218723 0
vt 0.189438 0.243329 0
vt -0.189438 0.218723 0
vt -0.189438 0.243329 0
vt -0.021325 0.199584 0
vt 0.189438 0.221457 0
vt 0.189438 0.20888 0
vt 0.021325 0.221457 0
vt 0.021325 0.243329 0
vt -0.189438 0 0
vt 0.201017 0.243329 0
vt -0.013123 0.026039 0
vt -0.021325 0.20888 0
vt 0.021325 0.20888 0
vt -0.021325 0.221457 0
vt -0.221457 0.218723 0
vt -0.224191 0.246063 0
vt -0.221457 0.243329 0
vt 0.201017 0 0
vt 0.201017 0.218723 0
vt -0.013123 0.199584 0
vt -0.20888 0.243329 0
vt -0.199584 0.243329 0
vt -0.199584 0 0
vt -0.20888 0.218723 0
vt -0.224191 0 0
vt 0.026039 0.243329 0
vt 0.199584 0.218723 0
vt 0.199584 0.243329 0
vt 0.013123 0.199584 0
vt 0.013123 0.024606 0
vt 0.013123 0.026039 0
vt -0.013123 0.243329 0
vt -0.013123 0.218723 0
vt -0.021325 0.243329 0
vt -0.021325 0.246063 0
vt -0.199584 0.246063 0
vt -0.021325 0 0
vt 0.021325 0 0
vt 0.021325 0.246063 0
vt 0.024606 0.243329 0
vt 0 0.199584 0
vt 0 0.246063 0
vt -0.021325 0.224191 0
vt 0 0.218723 0
vt 0.024606 0.218723 0
vt 0 0.243329 0
vt 0 0.024606 0
vt 0 0.224191 0
vt 0.224191 0.246063 0
vt 0.224191 0 0
vt 0.199584 0.246063 0
vt 0.013123 0.243329 0
vt 0.021325 0.503609 0
vt 0.013123 0.218723 0
vt -0.013123 0.024606 0
vt -0.024606 0.218723 0
vt -0.199584 0.218723 0
vt -0.024606 0.243329 0
vt 0.199584 0 0
vt 0.006028 0.125766 0
vt 0.018057 0.125766 0
vt 0.024606 0.503609 0
vt 0 0.503609 0
vt 0.006028 0.109361 0
vt 0.018057 0.109361 0
vt 0.024606 0 0
vt -0.021325 0.024606 0
vt 0.024606 0.109361 0
vt 0.024606 0.125766 0
vt 0.206693 0.109361 0
vt -0.018057 0.024606 0
vt -0.018057 0.206693 0
vt -0.006028 0.024606 0
vt -0.024606 0.125766 0
vt -0.024606 0.109361 0
vt -0.206693 0.125766 0
vt 0.206693 0.125766 0
vt -0.006028 0.206693 0
vt -0.024606 0.503609 0
vt -0.021966 0.218723 0
vt -0.024606 0 0
vt -0.206693 0.109361 0
vt -0.009936 0.499234 0
vt -0.021325 0.503609 0
vt -0.009389 0.218723 0
vt -0.021966 0.243329 0
vt -0.021966 0.499234 0
vt 0.021325 0.009389 0
vt 0.021325 0.021966 0
vt 0.189438 0.009389 0
vt -0.021966 0.29801 0
vt -0.009389 0.399716 0
vt -0.021966 0.459864 0
vt -0.021325 0.021966 0
vt -0.021325 0.009936 0
vt -0.189438 0.021966 0
vt 0.189438 0.021966 0
vt -0.021325 0.218723 0
vt -0.021966 0.32535 0
vt -0.009389 0.243329 0
vt -0.021325 0.009389 0
vt -0.009936 0.459864 0
vt -0.021966 0.399716 0
vt 0.021325 0.499234 0
vt 0.189438 0.499234 0
vt 0.021325 0.459864 0
vt -0.189438 0.009936 0
vt -0.009389 0.375109 0
vt 0.021966 0.218723 0
vt 0.026039 0 0
vt 0.009389 0.218723 0
vt -0.009389 0.29801 0
vt -0.021966 0.375109 0
vt 0.021325 0.32535 0
vt 0.189438 0.32535 0
vt 0.021325 0.29801 0
vt 0.021966 0.243329 0
vt -0.189438 0.009389 0
vt -0.021325 0.026039 0
vt 0.021966 0.29801 0
vt -0.021325 0.459864 0
vt -0.189438 0.459864 0
vt -0.021325 0.499234 0
vt 0.189438 0.459864 0
vt 0.021966 0.499234 0
vt 0.009936 0.499234 0
vt 0.026039 0.503609 0
vt -0.189438 0.499234 0
vt -0.021325 0.375109 0
vt -0.189438 0.375109 0
vt -0.021325 0.399716 0
vt -0.009389 0.32535 0
vt 0.001433 0 0
vt 0.009389 0.243329 0
vt 0.009389 0.399716 0
vt 0.189438 0.29801 0
vt 0.009389 0.29801 0
vt -0.197954 0.199584 0
vt 0.026039 0.218723 0
vt 0.021966 0.32535 0
vt 0.021325 0.399716 0
vt 0.189438 0.399716 0
vt 0.021325 0.375109 0
vt 0.021966 0.459864 0
vt 0.001433 0.503609 0
vt 0.009936 0.459864 0
vt -0.189438 0.399716 0
vt -0.021325 0.29801 0
vt -0.189438 0.29801 0
vt -0.021325 0.32535 0
vt -0.197954 0.026039 0
vt 0.195466 0.109361 0
vt 0.197954 0.243329 0
vt 0.021966 0.375109 0
vt 0.189438 0.375109 0
vt 0.021966 0.399716 0
vt -0.189438 0.001433 0
vt -0.210764 0.026039 0
vt 0.189438 0.503609 0
vt 0.210764 0.503609 0
vt 0.009389 0.375109 0
vt 0.009389 0.32535 0
vt -0.189438 0.503609 0
vt -0.189438 0.32535 0
vt -0.197954 0.189554 0
vt 0.207496 0.109361 0
vt 0.195466 0.125766 0
vt 0.197954 0.218723 0
vt -0.210764 0.001433 0
vt -0.210764 0.503609 0
vt 0.210859 0.218723 0
vt 0.189554 0.243329 0
vt -0.210764 0.210859 0
vt -0.210764 0.189554 0
vt 0.210764 0.243329 0
vt 0.026039 0.109361 0
vt 0.026039 0.125766 0
vt 0.208125 0.109361 0
vt 0.210764 0.218723 0
vt -0.001433 0.503609 0
vt -0.001433 0 0
vt -0.026039 0.503609 0
vt 0.210859 0.243329 0
vt -0.197954 0.210859 0
vt -0.026039 0.243329 0
vt -0.026039 0 0
vt 0.208125 0.125766 0
vt 0.207496 0.125766 0
vt 0.197954 0.026039 0
vt 0.197954 0.210859 0
vt 0.210764 0.026039 0
vt -0.210859 0.243329 0
vt -0.189554 0.243329 0
vt -0.210859 0.218723 0
vt -0.026039 0.218723 0
vt -0.208125 0.109361 0
vt -0.208125 0.125766 0
vt -0.026039 0.109361 0
vt -0.195466 0.208125 0
vt -0.195466 0.026039 0
vt -0.207496 0.208125 0
vt -0.207496 0.026039 0
vt 0.210764 0.210859 0
vt -0.026039 0.125766 0
vt 0.013562 0.055364 0
vt 0.013562 0.465059 0
vt 0.040629 0.055364 0
vt 0.013562 0.282972 0
vt 0.040629 0.282972 0
vt 0.013562 0.246063 0
vt 0.040629 0.465059 0
vt 0.040629 0.246063 0
vt 0.047982 0.021126 0
vt 0.047982 0.049423 0
vt 0.426236 0.021126 0
vt 0.047982 0.022356 0
vt 0.426236 0.022356 0
vt 0.426236 0.049423 0
vt 0.439799 0.058587 0
vt 0.439799 0.468282 0
vt 0.466866 0.058587 0
vt 0.466866 0.468282 0
vt 0.445396 0.54749 0
vt 0.474219 0.54749 0
vt 0.445396 0.492126 0
vt 0.466866 0.246063 0
vt 0.439799 0.246063 0
vt 0.466866 0.282972 0
vt 0.439799 0.282972 0
vt 0.474219 0.492126 0

# 6 vertex normals
vn 0 0 0.0254
vn -0.0254 0 0
vn 0 -0.0254 0
vn 0.0254 0 0
vn 0 0 -0.0254
vn 0 0.0254 0

# Mesh 'mesh1_mesh1-geometry' with 244 faces
g mesh1_mesh1-geometry
usemtl material_0_24
f  1/1/1 2/1/1 3/1/1
f  2/1/1 1/1/1 4/1/1
f  5/1/2 1/1/2 3/1/2
f  1/1/3 6/1/3 4/1/3
f  4/1/4 7/1/4 2/1/4
f  1/1/2 5/1/2 8/1/2
f  6/1/3 1/1/3 8/1/3
f  6/1/4 9/1/4 4/1/4
f  4/1/4 9/1/4 7/1/4
f  10/1/4 2/1/4 7/1/4
f  5/1/5 11/1/5 8/1/5
f  8/1/5 12/1/5 6/1/5
f  9/1/4 6/1/4 13/1/4
f  13/1/4 2/1/4 10/1/4
f  7/1/1 14/1/1 10/1/1
f  5/1/5 15/1/5 11/1/5
f  8/1/5 11/1/5 12/1/5
f  6/1/5 12/1/5 16/1/5
f  6/1/4 2/1/4 13/1/4
f  14/1/6 13/1/6 10/1/6
f  14/1/1 7/1/1 17/1/1
f  15/1/5 5/1/5 18/1/5
f  16/1/5 11/1/5 15/1/5
f  15/1/1 11/1/1 16/1/1
f  11/1/5 16/1/5 12/1/5
f  12/1/1 16/1/1 11/1/1
f  16/1/4 2/1/4 6/1/4
f  13/1/6 14/1/6 19/1/6
f  17/1/2 20/1/2 14/1/2
f  2/1/4 15/1/4 18/1/4
f  15/1/4 2/1/4 16/1/4
f  21/1/2 20/1/2 22/1/2
f  22/1/2 23/1/2 21/1/2
f  24/1/2 19/1/2 14/1/2
f  22/1/2 20/1/2 17/1/2
f  24/1/2 14/1/2 20/1/2
f  25/1/2 26/1/2 27/1/2
f  27/1/3 28/1/3 25/1/3
f  21/1/5 26/1/5 25/1/5
f  25/1/5 29/1/5 21/1/5
f  20/1/2 21/1/2 29/1/2
f  23/1/2 22/1/2 19/1/2
f  23/1/5 26/1/5 21/1/5
f  23/1/2 19/1/2 24/1/2
f  20/1/1 30/1/1 24/1/1
f  27/1/2 26/1/2 28/1/2
f  26/1/5 31/1/5 25/1/5
f  25/1/1 31/1/1 26/1/1
f  25/1/3 28/1/3 31/1/3
f  29/1/5 25/1/5 32/1/5
f  32/1/3 20/1/3 29/1/3
f  23/1/5 33/1/5 26/1/5
f  30/1/1 20/1/1 34/1/1
f  35/1/2 28/1/2 26/1/2
f  31/1/5 26/1/5 33/1/5
f  33/1/1 26/1/1 31/1/1
f  32/1/5 25/1/5 31/1/5
f  36/1/3 31/1/3 28/1/3
f  20/1/3 32/1/3 34/1/3
f  33/1/5 23/1/5 37/1/5
f  33/1/6 38/1/6 26/1/6
f  32/1/4 30/1/4 34/1/4
f  28/1/1 38/1/1 35/1/1
f  35/1/5 38/1/5 28/1/5
f  35/1/1 39/1/1 28/1/1
f  35/1/6 26/1/6 38/1/6
f  33/1/4 31/1/4 38/1/4
f  33/1/4 30/1/4 31/1/4
f  31/1/4 30/1/4 32/1/4
f  36/1/4 38/1/4 31/1/4
f  38/1/1 28/1/1 36/1/1
f  36/1/5 28/1/5 38/1/5
f  28/1/1 39/1/1 36/1/1
f  30/1/4 33/1/4 37/1/4
f  38/1/1 40/1/1 35/1/1
f  41/1/1 39/1/1 35/1/1
f  42/1/4 38/1/4 36/1/4
f  36/1/1 39/1/1 42/1/1
f  38/1/1 43/1/1 40/1/1
f  41/1/1 35/1/1 40/1/1
f  44/1/1 39/1/1 41/1/1
f  42/1/4 45/1/4 38/1/4
f  39/1/3 46/1/3 42/1/3
f  45/1/1 43/1/1 38/1/1
f  47/1/4 40/1/4 43/1/4
f  40/1/3 48/1/3 41/1/3
f  44/1/1 49/1/1 39/1/1
f  48/1/2 44/1/2 41/1/2
f  46/1/4 45/1/4 42/1/4
f  46/1/3 39/1/3 50/1/3
f  43/1/1 45/1/1 44/1/1
f  40/1/4 47/1/4 51/1/4
f  44/1/6 47/1/6 43/1/6
f  48/1/3 40/1/3 51/1/3
f  49/1/1 44/1/1 45/1/1
f  49/1/2 52/1/2 39/1/2
f  44/1/2 48/1/2 53/1/2
f  45/1/4 46/1/4 54/1/4
f  55/1/2 50/1/2 39/1/2
f  56/1/5 46/1/5 50/1/5
f  47/1/1 48/1/1 51/1/1
f  47/1/6 44/1/6 53/1/6
f  49/1/2 57/1/2 52/1/2
f  58/1/2 39/1/2 52/1/2
f  48/1/1 47/1/1 53/1/1
f  46/1/5 56/1/5 54/1/5
f  50/1/2 55/1/2 56/1/2
f  55/1/2 39/1/2 59/1/2
f  56/1/2 57/1/2 49/1/2
f  60/1/6 52/1/6 57/1/6
f  61/1/2 39/1/2 58/1/2
f  52/1/1 62/1/1 58/1/1
f  56/1/2 55/1/2 63/1/2
f  59/1/2 39/1/2 64/1/2
f  65/1/3 55/1/3 59/1/3
f  57/1/2 56/1/2 63/1/2
f  52/1/6 60/1/6 66/1/6
f  67/1/5 60/1/5 57/1/5
f  68/1/2 39/1/2 61/1/2
f  67/1/2 61/1/2 58/1/2
f  62/1/1 52/1/1 66/1/1
f  62/1/3 67/1/3 58/1/3
f  62/1/3 67/1/3 58/1/3
f  58/1/3 69/1/3 62/1/3
f  70/1/2 63/1/2 55/1/2
f  64/1/2 39/1/2 71/1/2
f  64/1/1 65/1/1 59/1/1
f  55/1/3 65/1/3 72/1/3
f  57/1/2 63/1/2 73/1/2
f  60/1/4 74/1/4 66/1/4
f  60/1/5 67/1/5 75/1/5
f  57/1/2 76/1/2 67/1/2
f  77/1/2 39/1/2 68/1/2
f  61/1/1 78/1/1 68/1/1
f  61/1/2 67/1/2 76/1/2
f  66/1/4 74/1/4 62/1/4
f  67/1/3 62/1/3 75/1/3
f  67/1/3 62/1/3 75/1/3
f  69/1/3 58/1/3 79/1/3
f  62/1/4 74/1/4 69/1/4
f  80/1/4 62/1/4 69/1/4
f  63/1/2 70/1/2 71/1/2
f  55/1/5 81/1/5 70/1/5
f  71/1/2 39/1/2 77/1/2
f  71/1/2 70/1/2 64/1/2
f  65/1/1 64/1/1 82/1/1
f  83/1/4 72/1/4 65/1/4
f  81/1/5 55/1/5 72/1/5
f  63/1/5 84/1/5 73/1/5
f  57/1/2 73/1/2 85/1/2
f  60/1/4 86/1/4 74/1/4
f  87/1/4 60/1/4 75/1/4
f  57/1/2 85/1/2 76/1/2
f  85/1/2 77/1/2 68/1/2
f  78/1/1 61/1/1 80/1/1
f  78/1/3 85/1/3 68/1/3
f  88/1/6 61/1/6 76/1/6
f  62/1/4 88/1/4 75/1/4
f  79/1/3 89/1/3 69/1/3
f  69/1/4 74/1/4 90/1/4
f  88/1/4 62/1/4 80/1/4
f  80/1/4 69/1/4 78/1/4
f  91/1/3 63/1/3 71/1/3
f  81/1/6 64/1/6 70/1/6
f  77/1/1 91/1/1 71/1/1
f  64/1/6 81/1/6 82/1/6
f  82/1/4 69/1/4 65/1/4
f  92/1/4 72/1/4 83/1/4
f  83/1/4 65/1/4 69/1/4
f  72/1/4 87/1/4 81/1/4
f  84/1/5 63/1/5 87/1/5
f  84/1/6 77/1/6 73/1/6
f  77/1/2 85/1/2 73/1/2
f  86/1/4 60/1/4 92/1/4
f  87/1/4 92/1/4 60/1/4
f  87/1/4 75/1/4 88/1/4
f  85/1/5 88/1/5 76/1/5
f  61/1/6 88/1/6 80/1/6
f  85/1/3 78/1/3 93/1/3
f  89/1/3 79/1/3 21/1/3
f  69/1/3 89/1/3 94/1/3
f  74/1/1 95/1/1 90/1/1
f  90/1/1 94/1/1 69/1/1
f  78/1/4 69/1/4 96/1/4
f  63/1/3 91/1/3 87/1/3
f  91/1/1 77/1/1 96/1/1
f  81/1/4 91/1/4 82/1/4
f  91/1/4 69/1/4 82/1/4
f  72/1/4 92/1/4 87/1/4
f  97/1/3 92/1/3 83/1/3
f  69/1/1 97/1/1 83/1/1
f  91/1/4 81/1/4 87/1/4
f  87/1/4 93/1/4 84/1/4
f  77/1/6 84/1/6 96/1/6
f  92/1/5 98/1/5 86/1/5
f  87/1/4 88/1/4 93/1/4
f  88/1/5 85/1/5 93/1/5
f  78/1/4 84/1/4 93/1/4
f  94/1/3 89/1/3 99/1/3
f  94/1/1 97/1/1 69/1/1
f  95/1/1 74/1/1 100/1/1
f  90/1/1 95/1/1 101/1/1
f  94/1/1 90/1/1 102/1/1
f  96/1/4 69/1/4 91/1/4
f  84/1/4 78/1/4 96/1/4
f  92/1/3 97/1/3 103/1/3
f  98/1/5 92/1/5 103/1/5
f  99/1/4 104/1/4 89/1/4
f  89/1/3 105/1/3 99/1/3
f  106/1/3 94/1/3 99/1/3
f  94/1/4 104/1/4 99/1/4
f  97/1/1 94/1/1 107/1/1
f  108/1/1 100/1/1 74/1/1
f  100/1/6 109/1/6 95/1/6
f  109/1/4 101/1/4 95/1/4
f  90/1/1 101/1/1 110/1/1
f  90/1/1 110/1/1 102/1/1
f  104/1/4 94/1/4 102/1/4
f  97/1/2 98/1/2 103/1/2
f  89/1/4 104/1/4 111/1/4
f  105/1/3 89/1/3 111/1/3
f  99/1/3 105/1/3 106/1/3
f  94/1/3 106/1/3 107/1/3
f  108/1/2 97/1/2 107/1/2
f  100/1/1 108/1/1 110/1/1
f  109/1/6 100/1/6 112/1/6
f  101/1/4 109/1/4 113/1/4
f  114/1/1 110/1/1 101/1/1
f  110/1/6 104/1/6 102/1/6
f  98/1/2 97/1/2 108/1/2
f  104/1/1 105/1/1 111/1/1
f  115/1/2 106/1/2 105/1/2
f  106/1/2 110/1/2 107/1/2
f  108/1/2 107/1/2 110/1/2
f  100/1/1 110/1/1 114/1/1
f  100/1/2 116/1/2 112/1/2
f  116/1/1 109/1/1 112/1/1
f  109/1/1 116/1/1 113/1/1
f  116/1/3 101/1/3 113/1/3
f  101/1/3 116/1/3 114/1/3
f  104/1/6 110/1/6 115/1/6
f  105/1/1 104/1/1 115/1/1
f  110/1/2 106/1/2 115/1/2
f  116/1/2 100/1/2 114/1/2

# Mesh 'mesh1_mesh1-geometry' with 230 faces
g mesh1_mesh1-geometry
usemtl material_1_1_8
f  3/2/5 2/3/5 1/4/5
f  4/5/5 1/4/5 2/3/5
f  3/6/4 1/7/4 5/8/4
f  4/9/6 6/10/6 1/11/6
f  2/12/2 7/13/2 4/14/2
f  8/15/4 5/8/4 1/7/4
f  8/16/6 1/11/6 6/10/6
f  4/14/2 9/17/2 6/18/2
f  7/13/2 9/17/2 4/14/2
f  7/13/2 2/12/2 10/19/2
f  8/20/1 11/21/1 5/22/1
f  6/23/1 12/24/1 8/20/1
f  13/25/2 6/18/2 9/17/2
f  69/26/3 7/27/3 9/28/3
f  9/28/6 7/27/6 69/26/6
f  10/19/2 2/12/2 13/25/2
f  10/29/5 14/30/5 7/31/5
f  11/21/1 15/32/1 5/22/1
f  12/24/1 11/21/1 8/20/1
f  16/33/1 12/24/1 6/23/1
f  13/25/2 2/12/2 6/18/2
f  69/26/3 21/34/3 7/27/3
f  7/27/6 21/34/6 69/26/6
f  69/26/3 9/28/3 16/10/3
f  16/10/6 9/28/6 69/26/6
f  10/35/3 13/36/3 14/37/3
f  17/38/5 7/31/5 14/30/5
f  18/39/1 5/22/1 15/32/1
f  6/18/2 2/12/2 16/40/2
f  27/41/3 21/34/3 69/26/3
f  69/26/6 21/34/6 27/41/6
f  22/42/3 7/27/3 21/34/3
f  21/34/6 7/27/6 22/42/6
f  19/43/3 14/37/3 13/36/3
f  7/27/3 22/42/3 17/44/3
f  17/44/6 22/42/6 7/27/6
f  14/45/4 20/46/4 17/47/4
f  18/48/2 15/49/2 2/12/2
f  16/40/2 2/12/2 15/49/2
f  21/34/3 27/41/3 25/50/3
f  25/50/6 27/41/6 21/34/6
f  22/51/4 20/46/4 21/52/4
f  21/52/4 23/53/4 22/51/4
f  14/45/4 19/54/4 24/55/4
f  17/47/4 20/46/4 22/51/4
f  20/46/4 14/45/4 24/55/4
f  27/56/4 26/57/4 25/58/4
f  25/59/6 28/60/6 27/61/6
f  25/62/1 26/63/1 21/64/1
f  21/64/1 29/65/1 25/62/1
f  29/66/4 21/52/4 20/46/4
f  19/54/4 22/51/4 23/53/4
f  21/64/1 26/63/1 23/67/1
f  24/55/4 19/54/4 23/53/4
f  24/68/5 30/1/5 20/69/5
f  28/70/4 26/57/4 27/56/4
f  31/71/6 28/60/6 25/59/6
f  32/72/1 25/62/1 29/65/1
f  29/34/6 20/73/6 32/71/6
f  26/63/1 33/74/1 23/67/1
f  34/72/5 20/69/5 30/1/5
f  26/57/4 28/70/4 35/75/4
f  31/76/1 25/62/1 32/72/1
f  28/60/6 31/71/6 36/77/6
f  34/78/6 32/71/6 20/73/6
f  37/1/1 23/67/1 33/74/1
f  26/50/3 38/77/3 33/71/3
f  34/79/2 30/80/2 32/81/2
f  28/82/5 39/83/5 35/84/5
f  38/77/3 26/50/3 35/85/3
f  38/86/2 31/52/2 33/87/2
f  31/58/2 30/80/2 33/57/2
f  32/81/2 30/80/2 31/58/2
f  31/52/2 38/86/2 36/88/2
f  36/76/5 39/83/5 28/82/5
f  37/89/2 33/57/2 30/80/2
f  35/84/5 40/90/5 38/74/5
f  35/84/5 39/83/5 41/91/5
f  36/70/2 38/75/2 42/92/2
f  42/93/5 39/83/5 36/76/5
f  40/90/5 43/94/5 38/74/5
f  40/90/5 35/84/5 41/91/5
f  41/91/5 39/83/5 44/95/5
f  38/75/2 45/96/2 42/92/2
f  42/77/6 46/1/6 39/97/6
f  38/74/5 43/94/5 45/1/5
f  43/98/2 40/99/2 47/100/2
f  41/101/6 48/102/6 40/103/6
f  39/83/5 49/68/5 44/95/5
f  41/104/4 44/105/4 48/106/4
f  42/92/2 45/96/2 46/93/2
f  50/67/6 39/97/6 46/1/6
f  44/95/5 45/1/5 43/94/5
f  51/107/2 47/100/2 40/99/2
f  51/108/6 40/103/6 48/102/6
f  45/1/5 44/95/5 49/68/5
f  39/109/4 52/110/4 49/111/4
f  53/112/4 48/106/4 44/105/4
f  54/1/2 46/93/2 45/96/2
f  39/109/4 50/93/4 55/113/4
f  50/114/1 46/93/1 56/67/1
f  52/110/4 57/115/4 49/111/4
f  52/110/4 39/109/4 58/116/4
f  54/1/1 56/67/1 46/93/1
f  56/1/4 55/113/4 50/93/4
f  59/117/4 39/109/4 55/113/4
f  49/111/4 57/115/4 56/1/4
f  57/118/3 52/119/3 60/120/3
f  58/116/4 39/109/4 61/121/4
f  58/38/5 62/31/5 52/30/5
f  63/122/4 55/113/4 56/1/4
f  64/123/4 39/109/4 59/117/4
f  59/124/6 55/125/6 65/126/6
f  63/122/4 56/1/4 57/115/4
f  66/127/3 60/120/3 52/119/3
f  57/128/1 60/32/1 67/64/1
f  61/121/4 39/109/4 68/129/4
f  58/116/4 61/121/4 67/130/4
f  66/29/5 52/30/5 62/31/5
f  58/124/6 67/131/6 62/126/6
f  58/124/6 67/131/6 62/126/6
f  62/126/6 69/26/6 58/124/6
f  55/113/4 63/122/4 70/132/4
f  71/133/4 39/109/4 64/123/4
f  59/134/5 65/135/5 64/136/5
f  72/137/6 65/126/6 55/125/6
f  73/138/4 63/122/4 57/115/4
f  66/139/2 74/140/2 60/141/2
f  75/33/1 67/64/1 60/32/1
f  67/130/4 76/142/4 57/115/4
f  68/129/4 39/109/4 77/143/4
f  68/144/5 78/145/5 61/146/5
f  76/142/4 67/130/4 61/121/4
f  62/147/2 74/140/2 66/139/2
f  75/148/6 62/126/6 67/131/6
f  75/148/6 62/126/6 67/131/6
f  79/149/6 58/124/6 69/26/6
f  69/56/2 74/140/2 62/147/2
f  69/56/2 62/147/2 80/150/2
f  71/133/4 70/132/4 63/122/4
f  70/151/1 81/152/1 55/153/1
f  77/143/4 39/109/4 71/133/4
f  64/123/4 70/132/4 71/133/4
f  82/154/5 64/136/5 65/135/5
f  65/155/2 72/156/2 83/157/2
f  72/158/1 55/153/1 81/152/1
f  73/159/1 84/160/1 63/161/1
f  85/162/4 73/138/4 57/115/4
f  74/140/2 86/163/2 60/141/2
f  75/164/2 60/141/2 87/165/2
f  76/142/4 85/162/4 57/115/4
f  68/129/4 77/143/4 85/162/4
f  80/166/5 61/146/5 78/145/5
f  68/124/6 85/131/6 78/126/6
f  75/164/2 88/167/2 62/147/2
f  69/26/6 89/168/6 79/149/6
f  90/169/2 74/140/2 69/56/2
f  80/150/2 62/147/2 88/167/2
f  78/170/2 69/56/2 80/150/2
f  71/124/6 63/131/6 91/126/6
f  71/171/5 91/172/5 77/173/5
f  65/155/2 69/56/2 82/174/2
f  83/157/2 72/156/2 92/175/2
f  69/56/2 65/155/2 83/157/2
f  81/176/2 87/165/2 72/156/2
f  87/177/1 63/161/1 84/160/1
f  73/138/4 85/162/4 77/143/4
f  92/175/2 60/141/2 86/163/2
f  60/141/2 92/175/2 87/165/2
f  88/167/2 75/164/2 87/165/2
f  76/178/1 88/179/1 85/180/1
f  93/148/6 78/126/6 85/131/6
f  21/34/6 79/149/6 89/168/6
f  94/181/6 89/168/6 69/26/6
f  90/29/5 95/182/5 74/3/5
f  69/31/5 94/183/5 90/29/5
f  96/184/2 69/56/2 78/170/2
f  87/148/6 91/126/6 63/131/6
f  96/185/5 77/173/5 91/172/5
f  82/174/2 91/186/2 81/176/2
f  82/174/2 69/56/2 91/186/2
f  87/165/2 92/175/2 72/156/2
f  83/26/6 92/187/6 97/188/6
f  83/189/5 97/190/5 69/31/5
f  87/165/2 81/176/2 91/186/2
f  84/191/2 93/192/2 87/165/2
f  86/39/1 98/22/1 92/193/1
f  93/192/2 88/167/2 87/165/2
f  93/194/1 85/180/1 88/179/1
f  93/192/2 84/191/2 78/170/2
f  99/195/6 89/168/6 94/181/6
f  69/31/5 97/190/5 94/183/5
f  100/196/5 74/3/5 95/182/5
f  101/197/5 95/182/5 90/29/5
f  102/198/5 90/29/5 94/183/5
f  91/186/2 69/56/2 96/184/2
f  96/184/2 78/170/2 84/191/2
f  103/199/6 97/188/6 92/187/6
f  103/200/1 92/193/1 98/22/1
f  89/58/2 104/201/2 99/202/2
f  99/195/6 105/203/6 89/168/6
f  99/195/6 94/181/6 106/204/6
f  99/202/2 104/201/2 94/56/2
f  107/205/5 94/183/5 97/190/5
f  74/3/5 100/196/5 108/2/5
f  95/206/2 101/207/2 109/208/2
f  110/209/5 101/197/5 90/29/5
f  102/198/5 110/209/5 90/29/5
f  102/169/2 94/56/2 104/201/2
f  103/210/4 98/211/4 97/212/4
f  111/213/2 104/201/2 89/58/2
f  111/214/6 89/168/6 105/203/6
f  106/204/6 105/203/6 99/195/6
f  107/188/6 106/204/6 94/181/6
f  107/215/4 97/212/4 108/216/4
f  110/209/5 108/2/5 100/196/5
f  113/217/2 109/208/2 101/207/2
f  101/197/5 110/209/5 114/218/5
f  102/219/3 104/220/3 110/221/3
f  108/216/4 97/212/4 98/211/4
f  105/222/4 106/223/4 115/224/4
f  107/215/4 110/225/4 106/223/4
f  110/225/4 107/215/4 108/216/4
f  114/218/5 110/209/5 100/196/5
f  112/226/4 116/227/4 100/228/4
f  113/229/6 101/230/6 116/231/6
f  114/232/6 116/231/6 101/230/6
f  115/233/3 110/221/3 104/220/3
f  115/224/4 106/223/4 110/225/4
f  114/234/4 100/228/4 116/227/4

# Mesh 'mesh1_mesh1-geometry' with 16 faces
g mesh1_mesh1-geometry
usemtl material_2_2_8
f  43/235/3 47/236/3 44/237/3
f  51/238/5 48/239/5 47/240/5
f  53/241/3 44/237/3 47/236/3
f  53/242/5 47/240/5 48/239/5
f  76/243/3 61/244/3 88/245/3
f  70/246/3 64/244/3 81/247/3
f  82/248/3 81/247/3 64/244/3
f  73/243/3 77/244/3 84/245/3
f  80/248/3 88/245/3 61/244/3
f  96/248/3 84/245/3 77/244/3
f  95/249/3 109/250/3 100/251/3
f  112/252/3 100/251/3 109/250/3
f  111/253/5 105/254/5 104/255/5
f  112/256/5 109/257/5 116/258/5
f  113/259/5 116/258/5 109/257/5
f  115/260/5 104/255/5 105/254/5

# Mesh 'mesh2_mesh2-geometry' with 3 faces
g mesh2_mesh2-geometry
usemtl material_0_0
l  11 15
l  11 12
l  12 16

