# File produced by Open Asset Import Library (http://www.assimp.sf.net)
# (assimp v3.2.202087883)

mtllib model_normalized.mtl

# 106 vertex positions
v -0.403627 0.082977 0.248203
v -0.360773 0.082977 -0.047001
v -0.403627 0.082977 -0.111087
v -0.358499 0.082977 -0.044037
v -0.362203 0.082977 -0.050453
v -0.355534 0.082977 -0.041763
v -0.362690 0.082977 -0.054157
v -0.403627 0.064900 0.248203
v 0.464092 0.082977 0.248203
v -0.352083 0.082977 -0.040333
v -0.362203 0.082977 -0.057861
v -0.403627 0.064900 -0.111087
v -0.367472 0.064900 -0.074932
v 0.464092 0.064900 0.248203
v -0.360773 0.082977 -0.061312
v -0.358499 0.082977 -0.064276
v 0.464092 0.064900 -0.111087
v -0.367472 0.064900 0.212048
v -0.348379 0.082977 -0.039845
v -0.355534 0.082977 -0.066551
v -0.348379 0.082977 -0.068468
v 0.464092 0.082977 -0.111087
v -0.349437 0.064900 -0.074932
v -0.349437 0.064900 0.212048
v -0.344675 0.082977 -0.040333
v -0.352083 0.082977 -0.067981
v -0.344675 0.082977 -0.067981
v 0.423572 0.082977 -0.054157
v -0.349437 0.064900 -0.071919
v -0.367472 -0.260495 0.212048
v -0.341223 0.082977 -0.041763
v -0.341223 0.082977 -0.066551
v 0.423008 0.082977 -0.058446
v 0.423008 0.082977 -0.049868
v -0.349437 -0.260495 0.212048
v -0.349437 0.047345 0.199235
v -0.338259 0.082977 -0.044037
v -0.338259 0.082977 -0.064276
v 0.421352 0.082977 -0.062442
v 0.421352 0.082977 -0.045871
v -0.349437 -0.071528 -0.071919
v -0.349437 -0.119734 -0.071919
v 0.409732 0.064900 -0.071919
v -0.349437 -0.260495 -0.074932
v -0.349437 0.047345 -0.058369
v -0.335985 0.082977 -0.047001
v -0.335985 0.082977 -0.061312
v 0.418718 0.082977 -0.065874
v 0.418718 0.082977 -0.042439
v 0.409732 -0.071528 -0.071919
v -0.349437 -0.244154 -0.058369
v -0.349437 -0.119734 -0.074932
v -0.367472 -0.260495 -0.074932
v -0.349437 -0.244154 0.199235
v -0.354710 0.047345 -0.058369
v -0.334555 0.082977 -0.050453
v -0.334555 0.082977 -0.057861
v 0.415288 0.082977 -0.068508
v 0.415288 0.082977 -0.039806
v 0.409732 -0.119734 -0.071919
v -0.354710 -0.244154 0.199235
v -0.354710 0.047345 0.199235
v -0.334068 0.082977 -0.054157
v 0.411288 0.082977 -0.070163
v 0.411288 0.082977 -0.038150
v 0.409732 0.046539 -0.047694
v 0.409732 -0.119734 -0.074932
v 0.409732 -0.260495 -0.074932
v -0.354710 -0.244154 -0.058369
v 0.390995 0.082977 -0.049868
v 0.398714 0.082977 -0.068508
v 0.407004 0.082977 -0.070728
v 0.407004 0.082977 -0.037586
v 0.409732 0.046539 0.190327
v 0.427937 0.064900 0.212048
v 0.427937 -0.260495 -0.074932
v 0.427937 0.064900 -0.074932
v 0.392651 0.082977 -0.045871
v 0.390430 0.082977 -0.054157
v 0.395284 0.082977 -0.065874
v 0.402714 0.082977 -0.070163
v 0.402714 0.082977 -0.038150
v 0.409732 0.064900 0.212048
v 0.415008 0.046539 0.190327
v 0.409732 -0.244961 -0.047694
v 0.409732 -0.260495 0.212048
v 0.427937 -0.260495 0.212048
v 0.395284 0.082977 -0.042439
v 0.390995 0.082977 -0.058446
v 0.392651 0.082977 -0.062442
v 0.398714 0.082977 -0.039806
v 0.409732 -0.244961 0.190327
v 0.415008 0.046539 -0.047694
v 0.415008 -0.244961 -0.047694
v 0.415008 -0.244961 0.190327
v -0.367472 0.051460 0.199608
v -0.349437 -0.071528 -0.074932
v -0.367472 0.051460 -0.061762
v -0.367472 -0.249831 0.199608
v -0.367472 -0.249831 -0.061762
v -0.361446 0.051460 -0.061762
v -0.361446 -0.249831 0.199608
v -0.361446 0.051460 0.199608
v 0.409732 -0.071528 -0.074932
v -0.361446 -0.249831 -0.061762
v 0.409732 0.064900 -0.074932

# 181 UV coordinates
vt 3.72187 -0.496875 0
vt 3.78114 -0.088627 0
vt 3.72187 0 0
vt 3.78428 -0.092726 0
vt 3.77916 -0.083853 0
vt 3.78838 -0.095871 0
vt 3.77849 -0.078731 0
vt 3.72187 0.45 0
vt 4.92187 0.475 0
vt 3.72187 0.475 0
vt 3.79315 -0.097848 0
vt 3.77916 -0.073608 0
vt -3.72187 0 0
vt -3.77187 -0.05 0
vt -3.72187 -0.496875 0
vt 4.92187 0.45 0
vt 4.92187 -0.496875 0
vt 3.78114 -0.068835 0
vt 3.78428 -0.064736 0
vt -4.92187 0 0
vt -3.77187 -0.446875 0
vt -4.92187 -0.496875 0
vt 0 0.45 0
vt -0.496875 0.475 0
vt -0.496875 0.45 0
vt 3.79828 -0.098522 0
vt 3.78838 -0.061591 0
vt 3.79828 -0.058939 0
vt 4.92187 0 0
vt 0 0.475 0
vt -3.79681 -0.05 0
vt -3.79681 -0.446875 0
vt 3.8034 -0.097848 0
vt 3.79315 -0.059614 0
vt 3.8034 -0.059614 0
vt 4.86584 -0.078731 0
vt -3.79681 -0.054167 0
vt 3.77187 0 0
vt 3.79681 0.45 0
vt 3.77187 0.45 0
vt 3.80817 -0.095871 0
vt 3.80817 -0.061591 0
vt 4.86505 -0.0728 0
vt 4.86505 -0.084662 0
vt 3.79681 0 0
vt 0.054167 0.45 0
vt 0.446875 0.45 0
vt 0.429155 0.425723 0
vt 3.81227 -0.092726 0
vt 3.81227 -0.064736 0
vt 4.86276 -0.067272 0
vt 4.86276 -0.090189 0
vt 0.054167 0.261329 0
vt 0.054167 0.194663 0
vt 3.79681 0.261329 0
vt 4.8467 0.45 0
vt 0.446875 0 0
vt 0.072905 0.425723 0
vt 3.81542 -0.088627 0
vt 3.81542 -0.068835 0
vt 4.85912 -0.062526 0
vt 4.85912 -0.094935 0
vt 3.79681 0.194663 0
vt 4.8467 0.261329 0
vt 0.072905 0.022598 0
vt 0.05 0.194663 0
vt 0.05 0 0
vt 0.429155 0.022598 0
vt 3.79681 -0.072905 0
vt 3.79681 -0.429155 0
vt 3.78952 -0.072905 0
vt 3.81739 -0.083853 0
vt 3.81739 -0.073608 0
vt 4.85438 -0.058884 0
vt 4.85438 -0.098577 0
vt 4.8467 0.194663 0
vt -0.054167 0.261329 0
vt -0.054167 0.194663 0
vt -0.054167 0.45 0
vt 3.79681 0.022598 0
vt 3.78952 0.022598 0
vt 3.79681 0.425723 0
vt -3.79681 0.425723 0
vt -3.78952 0.425723 0
vt -3.79681 0.022598 0
vt 3.78952 -0.429155 0
vt 3.81807 -0.078731 0
vt 4.84885 -0.056595 0
vt 4.84885 -0.100867 0
vt -0.087669 0.424607 0
vt -0.05 0.194663 0
vt -0.05 0 0
vt -3.79681 -0.429155 0
vt -3.79681 -0.072905 0
vt -3.78952 -0.429155 0
vt 3.78952 0.425723 0
vt -3.78952 0.022598 0
vt 4.82078 -0.084662 0
vt 4.83146 -0.058884 0
vt 4.84292 -0.055814 0
vt 4.84292 -0.101647 0
vt -0.416836 0.424607 0
vt -0.446875 0.45 0
vt -0.05 0.45 0
vt -3.78952 -0.072905 0
vt 4.82307 -0.090189 0
vt 4.82 -0.078731 0
vt 4.82671 -0.062526 0
vt 4.83699 -0.056595 0
vt 4.83699 -0.100867 0
vt 4.8467 -0.416836 0
vt 4.8467 -0.087669 0
vt 4.85399 -0.416836 0
vt -0.087669 0.021482 0
vt -4.87187 -0.05 0
vt -4.8467 -0.446875 0
vt -4.8467 -0.05 0
vt -0.446875 0 0
vt 4.82671 -0.094935 0
vt 4.82078 -0.0728 0
vt 4.82307 -0.067272 0
vt 4.83146 -0.098577 0
vt -0.416836 0.021482 0
vt 4.85399 -0.087669 0
vt 4.8467 0.424607 0
vt 4.85399 0.424607 0
vt 4.8467 0.021482 0
vt -4.8467 0.021482 0
vt -4.85399 0.021482 0
vt -4.8467 0.424607 0
vt -4.87187 -0.446875 0
vt 4.87187 0.45 0
vt 4.8467 0 0
vt 4.87187 0 0
vt -4.85399 0.424607 0
vt 4.85399 0.021482 0
vt -4.8467 -0.087669 0
vt -4.8467 -0.416836 0
vt -4.85399 -0.087669 0
vt -4.85399 -0.416836 0
vt 0 0 0
vt 0.496875 0.45 0
vt 0.496875 0.475 0
vt -3.72187 0.475 0
vt -4.92187 0.45 0
vt -3.72187 0.45 0
vt -4.92187 0.475 0
vt 0.429671 0.431414 0
vt 0.05 0.45 0
vt -3.79681 0.261329 0
vt -3.77187 0.45 0
vt -3.79681 0.45 0
vt 0.068213 0.431414 0
vt -3.79681 0.194663 0
vt 0.429671 0.014747 0
vt 0.068213 0.014747 0
vt -3.78021 -0.068213 0
vt -3.77187 -0.429671 0
vt -3.77187 -0.068213 0
vt -3.79681 0 0
vt -4.8467 0.194663 0
vt -3.77187 0.431414 0
vt -3.78021 0.014747 0
vt -3.77187 0.014747 0
vt 3.77187 0.014747 0
vt 3.78021 0.431414 0
vt 3.77187 0.431414 0
vt -3.78021 -0.429671 0
vt -3.77187 0 0
vt -4.8467 0.261329 0
vt -3.78021 0.431414 0
vt 3.78021 -0.429671 0
vt 3.77187 -0.068213 0
vt 3.77187 -0.429671 0
vt 3.78021 0.014747 0
vt -4.87187 0.45 0
vt -0.05 0.261329 0
vt 3.78021 -0.068213 0
vt -4.87187 0 0
vt -4.8467 0.45 0
vt -4.8467 0 0

# 6 vertex normals
vn 0 0.0254 0
vn 0 0 0.0254
vn 0 -0.0254 0
vn 0.0254 0 0
vn -0.0254 -0 0
vn 0 0 -0.0254

# Mesh 'mesh1_mesh1-geometry' with 123 faces
g mesh1_mesh1-geometry
usemtl material_0_1_8
f  1/1/1 2/2/1 3/3/1
f  2/2/1 1/1/1 4/4/1
f  3/3/1 2/2/1 5/5/1
f  4/4/1 1/1/1 6/6/1
f  3/3/1 5/5/1 7/7/1
f  8/8/2 9/9/2 1/10/2
f  6/6/1 1/1/1 10/11/1
f  11/12/1 3/3/1 7/7/1
f  12/13/3 13/14/3 8/15/3
f  9/9/2 8/8/2 14/16/2
f  10/11/1 1/1/1 9/17/1
f  15/18/1 3/3/1 11/12/1
f  16/19/1 3/3/1 15/18/1
f  13/14/3 12/13/3 17/20/3
f  18/21/3 8/15/3 13/14/3
f  8/15/3 18/21/3 14/22/3
f  17/23/4 9/24/4 14/25/4
f  10/11/1 9/17/1 19/26/1
f  20/27/1 3/3/1 16/19/1
f  3/3/1 21/28/1 22/29/1
f  9/24/4 17/23/4 22/30/4
f  13/14/3 17/20/3 23/31/3
f  14/22/3 18/21/3 24/32/3
f  14/22/3 24/32/3 17/20/3
f  19/26/1 9/17/1 25/33/1
f  26/34/1 3/3/1 20/27/1
f  21/28/1 3/3/1 26/34/1
f  22/29/1 21/28/1 27/35/1
f  22/29/1 28/36/1 9/17/1
f  23/31/3 17/20/3 29/37/3
f  30/38/2 24/39/2 18/40/2
f  29/37/3 17/20/3 24/32/3
f  25/33/1 9/17/1 31/41/1
f  22/29/1 27/35/1 32/42/1
f  22/29/1 33/43/1 28/36/1
f  34/44/1 9/17/1 28/36/1
f  24/39/2 30/38/2 35/45/2
f  29/46/4 24/47/4 36/48/4
f  31/41/1 9/17/1 37/49/1
f  22/29/1 32/42/1 38/50/1
f  22/29/1 39/51/1 33/43/1
f  40/52/1 9/17/1 34/44/1
f  41/53/4 29/46/4 42/54/4
f  41/55/2 43/56/2 29/39/2
f  30/21/3 44/31/3 35/32/3
f  35/57/4 36/48/4 24/47/4
f  45/58/4 29/46/4 36/48/4
f  37/49/1 9/17/1 46/59/1
f  22/29/1 38/50/1 47/60/1
f  22/29/1 48/61/1 39/51/1
f  49/62/1 9/17/1 40/52/1
f  42/63/2 50/64/2 41/55/2
f  29/46/4 51/65/4 42/54/4
f  41/55/2 50/64/2 43/56/2
f  52/66/4 42/54/4 44/67/4
f  44/31/3 30/21/3 53/14/3
f  44/67/4 54/68/4 35/57/4
f  36/48/4 35/57/4 54/68/4
f  51/65/4 29/46/4 45/58/4
f  45/69/3 36/70/3 55/71/3
f  46/59/1 9/17/1 56/72/1
f  22/29/1 47/60/1 57/73/1
f  22/29/1 58/74/1 48/61/1
f  59/75/1 9/17/1 49/62/1
f  50/64/2 42/63/2 60/76/2
f  42/54/4 51/65/4 44/67/4
f  50/77/5 60/78/5 43/79/5
f  51/65/4 54/68/4 44/67/4
f  54/80/6 61/81/6 36/82/6
f  45/83/2 55/84/2 51/85/2
f  62/86/3 55/71/3 36/70/3
f  56/72/1 9/17/1 63/87/1
f  22/29/1 57/73/1 63/87/1
f  22/29/1 64/88/1 58/74/1
f  65/89/1 9/17/1 59/75/1
f  60/78/5 66/90/5 43/79/5
f  67/91/5 68/92/5 60/78/5
f  54/93/1 51/94/1 61/95/1
f  62/96/6 36/82/6 61/81/6
f  69/97/2 51/85/2 55/84/2
f  62/48/4 61/68/4 55/58/4
f  63/87/1 9/17/1 70/98/1
f  22/29/1 63/87/1 71/99/1
f  22/29/1 72/100/1 64/88/1
f  73/101/1 9/17/1 65/89/1
f  66/90/5 74/102/5 43/79/5
f  60/78/5 68/92/5 66/90/5
f  75/103/4 76/92/4 77/104/4
f  69/105/1 61/95/1 51/94/1
f  69/65/4 55/58/4 61/68/4
f  70/98/1 9/17/1 78/106/1
f  63/87/1 70/98/1 79/107/1
f  71/99/1 63/87/1 80/108/1
f  22/29/1 71/99/1 81/109/1
f  22/29/1 81/109/1 72/100/1
f  82/110/1 9/17/1 73/101/1
f  43/79/5 74/102/5 83/103/5
f  74/111/3 66/112/3 84/113/3
f  66/90/5 68/92/5 85/114/5
f  76/115/3 86/116/3 68/117/3
f  76/92/4 75/103/4 87/118/4
f  78/106/1 9/17/1 88/119/1
f  89/120/1 63/87/1 79/107/1
f  80/108/1 63/87/1 90/121/1
f  91/122/1 9/17/1 82/110/1
f  92/123/5 83/103/5 74/102/5
f  93/124/3 84/113/3 66/112/3
f  74/125/6 84/126/6 92/127/6
f  85/114/5 68/92/5 92/123/5
f  85/128/2 94/129/2 66/130/2
f  86/116/3 76/115/3 87/131/3
f  68/92/5 86/118/5 92/123/5
f  75/132/2 86/133/2 87/134/2
f  86/133/2 75/132/2 83/56/2
f  88/119/1 9/17/1 91/122/1
f  90/121/1 63/87/1 89/120/1
f  83/103/5 92/123/5 86/118/5
f  93/90/5 94/114/5 84/102/5
f  93/135/2 66/130/2 94/129/2
f  95/136/6 92/127/6 84/126/6
f  85/137/1 92/138/1 94/139/1
f  95/123/5 84/102/5 94/114/5
f  95/140/1 94/139/1 92/138/1

# Mesh 'mesh1_mesh1-geometry' with 217 faces
g mesh1_mesh1-geometry
usemtl material_1_24
f  3/141/3 2/141/3 1/141/3
f  4/141/3 1/141/3 2/141/3
f  5/141/3 2/141/3 3/141/3
f  1/141/4 8/141/4 3/141/4
f  6/141/3 1/141/3 4/141/3
f  4/141/3 2/141/3 15/141/3
f  2/141/3 5/141/3 11/141/3
f  7/141/3 5/141/3 3/141/3
f  12/141/4 3/141/4 8/141/4
f  1/141/6 9/141/6 8/141/6
f  10/141/3 1/141/3 6/141/3
f  6/141/3 4/141/3 16/141/3
f  15/141/3 2/141/3 11/141/3
f  16/141/3 4/141/3 15/141/3
f  7/141/3 11/141/3 5/141/3
f  7/141/3 3/141/3 11/141/3
f  12/141/2 17/141/2 3/141/2
f  8/141/1 13/141/1 12/141/1
f  14/141/6 8/141/6 9/141/6
f  9/141/3 1/141/3 10/141/3
f  10/141/3 6/141/3 20/141/3
f  20/141/3 6/141/3 16/141/3
f  11/141/3 3/141/3 15/141/3
f  15/141/3 3/141/3 16/141/3
f  22/141/2 3/141/2 17/141/2
f  17/141/1 12/141/1 13/141/1
f  13/141/1 8/141/1 18/141/1
f  14/141/1 18/141/1 8/141/1
f  14/141/5 9/141/5 17/141/5
f  19/141/3 9/141/3 10/141/3
f  26/141/3 10/141/3 20/141/3
f  16/141/3 3/141/3 20/141/3
f  22/141/3 21/141/3 3/141/3
f  22/141/5 17/141/5 9/141/5
f  23/141/1 17/141/1 13/141/1
f  13/141/4 18/141/4 96/141/4
f  24/141/1 18/141/1 14/141/1
f  17/141/1 24/141/1 14/141/1
f  25/141/3 9/141/3 19/141/3
f  19/141/3 10/141/3 26/141/3
f  20/141/3 3/141/3 26/141/3
f  26/141/3 3/141/3 21/141/3
f  27/141/3 21/141/3 22/141/3
f  9/141/3 28/141/3 22/141/3
f  29/141/1 17/141/1 23/141/1
f  23/141/2 13/141/2 97/141/2
f  30/141/4 96/141/4 18/141/4
f  98/141/4 13/141/4 96/141/4
f  18/141/6 24/141/6 30/141/6
f  24/141/1 17/141/1 29/141/1
f  31/141/3 9/141/3 25/141/3
f  25/141/3 19/141/3 21/141/3
f  21/141/3 19/141/3 26/141/3
f  27/141/3 25/141/3 21/141/3
f  32/141/3 27/141/3 22/141/3
f  28/141/3 33/141/3 22/141/3
f  28/141/3 9/141/3 34/141/3
f  23/141/5 41/141/5 29/141/5
f  29/141/4 41/141/4 23/141/4
f  97/141/2 13/141/2 52/141/2
f  52/141/5 23/141/5 97/141/5
f  97/141/4 23/141/4 52/141/4
f  96/141/4 30/141/4 99/141/4
f  100/141/4 13/141/4 98/141/4
f  98/141/1 96/141/1 101/141/1
f  35/141/6 30/141/6 24/141/6
f  36/141/5 24/141/5 29/141/5
f  37/141/3 9/141/3 31/141/3
f  31/141/3 25/141/3 27/141/3
f  32/141/3 31/141/3 27/141/3
f  38/141/3 32/141/3 22/141/3
f  33/141/3 39/141/3 22/141/3
f  28/141/3 34/141/3 33/141/3
f  34/141/3 9/141/3 40/141/3
f  41/141/5 23/141/5 42/141/5
f  42/141/4 23/141/4 41/141/4
f  42/141/5 29/141/5 41/141/5
f  52/141/2 13/141/2 44/141/2
f  52/141/2 67/141/2 97/141/2
f  42/141/5 23/141/5 52/141/5
f  52/141/4 23/141/4 42/141/4
f  53/141/4 99/141/4 30/141/4
f  99/141/2 102/141/2 96/141/2
f  13/141/4 100/141/4 53/141/4
f  98/141/6 101/141/6 100/141/6
f  103/141/1 101/141/1 96/141/1
f  35/141/1 44/141/1 30/141/1
f  24/141/5 36/141/5 35/141/5
f  36/141/5 29/141/5 45/141/5
f  46/141/3 9/141/3 37/141/3
f  37/141/3 31/141/3 32/141/3
f  38/141/3 37/141/3 32/141/3
f  47/141/3 38/141/3 22/141/3
f  39/141/3 48/141/3 22/141/3
f  33/141/3 34/141/3 39/141/3
f  40/141/3 9/141/3 49/141/3
f  34/141/3 40/141/3 39/141/3
f  42/141/5 51/141/5 29/141/5
f  53/141/2 44/141/2 13/141/2
f  44/141/5 42/141/5 52/141/5
f  104/141/2 97/141/2 67/141/2
f  67/141/3 42/141/3 52/141/3
f  52/141/1 42/141/1 67/141/1
f  100/141/4 99/141/4 53/141/4
f  53/141/1 30/141/1 44/141/1
f  103/141/2 96/141/2 102/141/2
f  99/141/3 100/141/3 102/141/3
f  105/141/6 100/141/6 101/141/6
f  103/141/4 102/141/4 101/141/4
f  35/141/5 54/141/5 44/141/5
f  54/141/5 35/141/5 36/141/5
f  45/141/5 29/141/5 51/141/5
f  55/141/1 36/141/1 45/141/1
f  56/141/3 9/141/3 46/141/3
f  46/141/3 37/141/3 38/141/3
f  47/141/3 46/141/3 38/141/3
f  57/141/3 47/141/3 22/141/3
f  48/141/3 58/141/3 22/141/3
f  39/141/3 40/141/3 48/141/3
f  49/141/3 9/141/3 59/141/3
f  40/141/3 49/141/3 48/141/3
f  44/141/5 51/141/5 42/141/5
f  43/141/4 60/141/4 50/141/4
f  50/141/4 67/141/4 43/141/4
f  104/141/2 67/141/2 77/141/2
f  106/141/4 67/141/4 104/141/4
f  42/141/3 67/141/3 60/141/3
f  60/141/1 67/141/1 42/141/1
f  105/141/3 102/141/3 100/141/3
f  105/141/4 101/141/4 102/141/4
f  44/141/5 54/141/5 51/141/5
f  36/141/2 61/141/2 54/141/2
f  51/141/6 55/141/6 45/141/6
f  36/141/1 55/141/1 62/141/1
f  63/141/3 9/141/3 56/141/3
f  56/141/3 46/141/3 47/141/3
f  57/141/3 56/141/3 47/141/3
f  63/141/3 57/141/3 22/141/3
f  58/141/3 64/141/3 22/141/3
f  48/141/3 49/141/3 58/141/3
f  59/141/3 9/141/3 65/141/3
f  49/141/3 59/141/3 58/141/3
f  67/141/4 50/141/4 60/141/4
f  43/141/4 66/141/4 60/141/4
f  43/141/4 67/141/4 106/141/4
f  77/141/2 67/141/2 76/141/2
f  106/141/2 104/141/2 77/141/2
f  60/141/4 68/141/4 67/141/4
f  61/141/3 51/141/3 54/141/3
f  61/141/2 36/141/2 62/141/2
f  55/141/6 51/141/6 69/141/6
f  55/141/5 61/141/5 62/141/5
f  70/141/3 9/141/3 63/141/3
f  63/141/3 56/141/3 57/141/3
f  71/141/3 63/141/3 22/141/3
f  64/141/3 72/141/3 22/141/3
f  58/141/3 59/141/3 64/141/3
f  65/141/3 9/141/3 73/141/3
f  59/141/3 65/141/3 64/141/3
f  43/141/4 74/141/4 66/141/4
f  66/141/4 68/141/4 60/141/4
f  77/141/3 43/141/3 106/141/3
f  106/141/1 43/141/1 77/141/1
f  68/141/2 76/141/2 67/141/2
f  77/141/5 76/141/5 75/141/5
f  51/141/3 61/141/3 69/141/3
f  61/141/5 55/141/5 69/141/5
f  78/141/3 9/141/3 70/141/3
f  79/141/3 70/141/3 63/141/3
f  80/141/3 63/141/3 71/141/3
f  81/141/3 71/141/3 22/141/3
f  72/141/3 81/141/3 22/141/3
f  64/141/3 65/141/3 72/141/3
f  73/141/3 9/141/3 82/141/3
f  65/141/3 73/141/3 72/141/3
f  83/141/4 74/141/4 43/141/4
f  84/141/1 66/141/1 74/141/1
f  85/141/4 68/141/4 66/141/4
f  43/141/3 77/141/3 83/141/3
f  83/141/1 77/141/1 43/141/1
f  68/141/1 86/141/1 76/141/1
f  87/141/5 75/141/5 76/141/5
f  83/141/3 77/141/3 75/141/3
f  75/141/1 77/141/1 83/141/1
f  88/141/3 9/141/3 78/141/3
f  78/141/3 70/141/3 89/141/3
f  79/141/3 89/141/3 70/141/3
f  79/141/3 63/141/3 89/141/3
f  90/141/3 63/141/3 80/141/3
f  71/141/3 91/141/3 80/141/3
f  81/141/3 82/141/3 71/141/3
f  72/141/3 73/141/3 81/141/3
f  82/141/3 9/141/3 91/141/3
f  73/141/3 82/141/3 81/141/3
f  74/141/4 83/141/4 92/141/4
f  66/141/1 84/141/1 93/141/1
f  92/141/2 84/141/2 74/141/2
f  92/141/4 68/141/4 85/141/4
f  66/141/6 94/141/6 85/141/6
f  87/141/1 76/141/1 86/141/1
f  92/141/4 86/141/4 68/141/4
f  87/141/6 86/141/6 75/141/6
f  83/141/6 75/141/6 86/141/6
f  91/141/3 9/141/3 88/141/3
f  88/141/3 78/141/3 90/141/3
f  90/141/3 78/141/3 89/141/3
f  89/141/3 63/141/3 90/141/3
f  80/141/3 88/141/3 90/141/3
f  91/141/3 88/141/3 80/141/3
f  82/141/3 91/141/3 71/141/3
f  86/141/4 92/141/4 83/141/4
f  84/141/4 94/141/4 93/141/4
f  94/141/6 66/141/6 93/141/6
f  84/141/2 92/141/2 95/141/2
f  94/141/3 92/141/3 85/141/3
f  94/141/4 84/141/4 95/141/4
f  92/141/3 94/141/3 95/141/3

# Mesh 'mesh1_mesh1-geometry' with 40 faces
g mesh1_mesh1-geometry
usemtl material_2_2_8
f  3/30/5 8/142/5 1/143/5
f  8/142/5 3/30/5 12/23/5
f  3/144/6 17/145/6 12/146/6
f  17/145/6 3/144/6 22/147/6
f  96/148/5 18/47/5 13/149/5
f  97/150/6 13/151/6 23/152/6
f  18/47/5 96/148/5 30/57/5
f  96/148/5 13/149/5 98/153/5
f  52/154/6 13/151/6 97/150/6
f  99/155/5 30/57/5 96/148/5
f  98/153/5 13/149/5 100/156/5
f  101/157/3 96/158/3 98/159/3
f  29/39/6 43/56/6 41/55/6
f  44/160/6 13/151/6 52/154/6
f  97/150/6 67/161/6 52/154/6
f  30/57/5 99/155/5 53/67/5
f  96/162/6 102/163/6 99/164/6
f  53/67/5 100/156/5 13/149/5
f  100/165/2 101/166/2 98/167/2
f  96/158/3 101/157/3 103/168/3
f  41/55/6 50/64/6 42/63/6
f  43/56/6 50/64/6 41/55/6
f  13/151/6 44/160/6 53/169/6
f  67/161/6 97/150/6 104/170/6
f  53/67/5 99/155/5 100/156/5
f  102/163/6 96/162/6 103/171/6
f  102/172/1 100/173/1 99/174/1
f  101/166/2 100/165/2 105/175/2
f  101/153/5 102/155/5 103/148/5
f  60/76/6 42/63/6 50/64/6
f  43/79/5 67/91/5 50/77/5
f  77/176/6 67/161/6 104/170/6
f  104/177/5 67/91/5 106/104/5
f  100/173/1 102/172/1 105/178/1
f  102/155/5 101/153/5 105/156/5
f  60/78/5 50/77/5 67/91/5
f  106/104/5 67/91/5 43/79/5
f  76/179/6 67/161/6 77/176/6
f  77/176/6 104/170/6 106/180/6
f  67/161/6 76/179/6 68/181/6

# Mesh 'mesh1_mesh1-geometry' with 44 faces
g mesh1_mesh1-geometry
usemtl material_3_24
f  15//1 2//1 4//1
f  11//1 5//1 2//1
f  16//1 4//1 6//1
f  11//1 2//1 15//1
f  15//1 4//1 16//1
f  5//1 11//1 7//1
f  20//1 6//1 10//1
f  16//1 6//1 20//1
f  20//1 10//1 26//1
f  26//1 10//1 19//1
f  21//1 19//1 25//1
f  26//1 19//1 21//1
f  21//1 25//1 27//1
f  27//1 25//1 31//1
f  27//1 31//1 32//1
f  33//1 34//1 28//1
f  32//1 31//1 37//1
f  32//1 37//1 38//1
f  39//1 34//1 33//1
f  39//1 40//1 34//1
f  38//1 37//1 46//1
f  38//1 46//1 47//1
f  48//1 40//1 39//1
f  48//1 49//1 40//1
f  47//1 46//1 56//1
f  47//1 56//1 57//1
f  58//1 49//1 48//1
f  58//1 59//1 49//1
f  57//1 56//1 63//1
f  64//1 59//1 58//1
f  64//1 65//1 59//1
f  72//1 65//1 64//1
f  72//1 73//1 65//1
f  89//1 70//1 78//1
f  70//1 89//1 79//1
f  80//1 91//1 71//1
f  71//1 82//1 81//1
f  81//1 73//1 72//1
f  81//1 82//1 73//1
f  90//1 78//1 88//1
f  89//1 78//1 90//1
f  90//1 88//1 80//1
f  80//1 88//1 91//1
f  71//1 91//1 82//1

# Mesh 'mesh2_mesh2-geometry' with 1 faces
g mesh2_mesh2-geometry
usemtl material_1_0
l  52 67

# Mesh 'mesh3_mesh3-geometry' with 1 faces
g mesh3_mesh3-geometry
usemtl material_1_0
l  104 50

# Mesh 'mesh4_mesh4-geometry' with 1 faces
g mesh4_mesh4-geometry
usemtl material_1_0
l  97 41

