# File produced by Open Asset Import Library (http://www.assimp.sf.net)
# (assimp v3.2.202087883)

mtllib model_normalized.mtl

# 146 vertex positions
v 0.041675 0.438662 -0.066743
v -0.006382 0.429755 -0.121580
v -0.006382 0.441291 -0.067296
v 0.041675 0.427126 -0.121019
v -0.009383 0.429835 -0.121595
v 0.089733 0.436033 -0.066182
v -0.009383 0.441378 -0.067318
v 0.089733 0.424497 -0.120458
v -0.012398 0.429923 -0.121616
v 0.109119 0.433891 -0.065723
v -0.012398 0.441458 -0.067332
v 0.109119 0.422356 -0.120007
v -0.016789 0.429850 -0.121602
v 0.128505 0.431750 -0.065271
v -0.016789 0.441385 -0.067318
v 0.128505 0.420215 -0.119548
v -0.021180 0.429777 -0.121580
v 0.145976 0.426026 -0.064055
v -0.021180 0.441312 -0.067303
v 0.145976 0.414491 -0.118332
v -0.061023 0.427767 -0.121158
v 0.163454 0.420295 -0.062839
v -0.061023 0.439310 -0.066881
v 0.163454 0.408759 -0.117116
v -0.100866 0.425764 -0.120728
v 0.173474 0.411986 -0.061069
v -0.100866 0.437307 -0.066451
v 0.173474 0.400443 -0.115346
v -0.136099 0.419217 -0.119337
v 0.183502 0.403669 -0.059300
v -0.136099 0.430753 -0.065060
v 0.183502 0.392133 -0.113584
v -0.171339 0.412670 -0.117946
v 0.190727 0.393590 -0.057159
v -0.171339 0.424206 -0.063669
v 0.190727 0.382054 -0.111443
v -0.183508 0.404732 -0.116264
v 0.197944 0.383518 -0.055018
v -0.183508 0.416268 -0.061980
v 0.197944 0.371983 -0.109302
v -0.195670 0.396794 -0.114574
v 0.200558 0.374422 -0.053088
v -0.195670 0.408330 -0.060290
v 0.200558 0.362887 -0.107364
v -0.202406 0.382433 -0.111523
v 0.203173 0.365334 -0.051151
v -0.202406 0.393969 -0.057239
v 0.203173 0.353791 -0.105435
v -0.209135 0.368072 -0.108471
v 0.197754 0.009837 0.024413
v -0.209135 0.379608 -0.054187
v 0.197754 -0.001706 -0.029871
v -0.215653 0.002642 -0.030789
v 0.192336 -0.345659 0.099976
v -0.215653 0.014178 0.023488
v 0.192336 -0.357202 0.045692
v -0.222178 -0.362788 0.046887
v 0.185585 -0.360931 0.103217
v -0.222178 -0.351252 0.101163
v 0.185585 -0.372466 0.048940
v -0.215900 -0.373755 0.049217
v 0.178834 -0.376195 0.106465
v -0.215900 -0.362220 0.103494
v 0.178834 -0.387731 0.052188
v -0.209616 -0.384723 0.051548
v 0.172171 -0.386937 0.108752
v -0.209616 -0.373180 0.105824
v 0.172171 -0.398480 0.054468
v -0.197774 -0.394875 0.053703
v 0.165507 -0.397686 0.111031
v -0.197774 -0.383339 0.107987
v 0.165507 -0.409221 0.056755
v -0.185933 -0.405027 0.055859
v 0.149653 -0.404648 0.112517
v -0.185933 -0.393491 0.110143
v 0.149653 -0.416191 0.058233
v -0.173990 -0.409760 0.056864
v 0.133807 -0.411617 0.113995
v -0.173990 -0.398217 0.111148
v 0.133807 -0.423153 0.059711
v -0.162046 -0.414487 0.057869
v 0.118994 -0.412273 0.114134
v -0.162046 -0.402951 0.112153
v 0.118994 -0.423808 0.059857
v -0.146374 -0.417465 0.058502
v 0.104181 -0.412921 0.114272
v -0.146374 -0.405930 0.112786
v 0.104181 -0.424464 0.059995
v -0.130702 -0.420451 0.059136
v 0.083768 -0.416191 0.114964
v -0.130702 -0.408915 0.113420
v 0.083768 -0.427733 0.060687
v -0.091930 -0.424733 0.060046
v 0.063363 -0.419461 0.115663
v -0.091930 -0.413190 0.114330
v 0.063363 -0.431003 0.061386
v -0.053158 -0.429015 0.060957
v 0.035602 -0.419897 0.115750
v -0.053158 -0.417472 0.115241
v 0.035602 -0.431433 0.061474
v -0.022651 -0.430435 0.061262
v 0.007848 -0.420327 0.115845
v -0.022651 -0.418900 0.115546
v 0.007848 -0.431863 0.061568
v 0.133807 -0.411705 0.113573
v 0.178834 -0.376282 0.106043
v 0.165507 -0.397773 0.110616
v 0.104181 -0.413008 0.113850
v 0.089733 0.435945 -0.066604
v -0.222178 -0.351340 0.100741
v 0.197944 0.383431 -0.055440
v -0.130702 -0.409003 0.112998
v -0.209135 0.379520 -0.054610
v 0.128505 0.431663 -0.065694
v 0.192336 -0.345754 0.099554
v 0.007848 -0.420415 0.115423
v -0.185933 -0.393578 0.109720
v -0.006382 0.441203 -0.067718
v 0.183502 0.403582 -0.059722
v 0.203173 0.365239 -0.051573
v -0.053158 -0.417567 0.114818
v 0.063363 -0.419555 0.115241
v -0.162046 -0.403038 0.111730
v -0.209616 -0.373275 0.105402
v -0.012398 0.441371 -0.067755
v 0.163454 0.420208 -0.063254
v -0.100866 0.437212 -0.066874
v -0.171339 0.424118 -0.064084
v -0.021180 0.441225 -0.067726
v -0.195670 0.408242 -0.060713
v -0.209135 0.368072 -0.108464
v -0.012398 0.429923 -0.121616
v -0.006382 0.429755 -0.121580
v -0.100866 0.425764 -0.120728
v -0.171339 0.412670 -0.117946
v -0.195670 0.396794 -0.114574
v 0.104181 -0.424464 0.059995
v -0.130702 -0.420451 0.059143
v -0.185933 -0.405027 0.055859
v 0.133807 -0.423153 0.059719
v -0.053158 -0.429015 0.060957
v -0.162046 -0.414487 0.057869
v -0.209616 -0.384723 0.051548
v 0.192336 -0.357202 0.045692
v 0.165507 -0.409221 0.056755
v 0.183502 0.392133 -0.113584

# 72 UV coordinates
vt -1.982 0.085244 0
vt -1.51957 0.015481 0
vt -1.50543 0.015668 0
vt -1.98199 0.085267 0
vt -1.72751 0.020191 0
vt -1.51955 0.015504 0
vt -1.98201 0.085242 0
vt -1.50543 0.015666 0
vt -1.27953 0.021599 0
vt -1.98202 0.085238 0
vt -1.89318 0.034938 0
vt -1.72754 0.020162 0
vt -1.7273 0.022184 0
vt -1.54 0.017665 0
vt -1.51935 0.017498 0
vt -2.01266 0.909604 0
vt -1.98201 0.08524 0
vt -1.27953 0.021597 0
vt -1.98195 0.085265 0
vt -1.9503 0.052866 0
vt -1.89311 0.034965 0
vt -1.24556 0.979164 0
vt -2.01266 0.909604 0
vt -1.27953 0.021597 0
vt -1.24557 0.979169 0
vt -1.79766 0.974646 0
vt -2.01266 0.909609 0
vt -1.24557 0.979164 0
vt -1.27953 0.021597 0
vt -1.07009 0.937738 0
vt -1.472 0.987552 0
vt -1.79766 0.974678 0
vt -1.24557 0.979202 0
vt -1.79766 0.97465 0
vt -1.92747 0.957257 0
vt -2.01267 0.909614 0
vt -1.07009 0.937739 0
vt -1.27954 0.021598 0
vt -1.02518 0.080833 0
vt -1.24562 0.979114 0
vt -1.07014 0.937688 0
vt -1.17599 0.977643 0
vt -1.47194 0.987173 0
vt -1.61532 0.983957 0
vt -1.79759 0.974299 0
vt -1.47201 0.987499 0
vt -1.24558 0.979149 0
vt -1.34152 0.986527 0
vt -1.7976 0.974544 0
vt -1.87127 0.967817 0
vt -1.92741 0.957151 0
vt -1.92743 0.957241 0
vt -1.98311 0.934333 0
vt -2.01263 0.909597 0
vt -1.02514 0.080793 0
vt -1.2795 0.021557 0
vt -1.18836 0.026386 0
vt -1.07013 0.937739 0
vt -1.02522 0.080833 0
vt -1.03841 0.903299 0
vt -1.17593 0.977677 0
vt -1.07008 0.937722 0
vt -1.10142 0.961959 0
vt -1.02526 0.080872 0
vt -1.18848 0.026466 0
vt -1.0592 0.058142 0
vt -1.03834 0.903299 0
vt -1.02515 0.080833 0
vt -1.01287 0.101344 0
vt -1.05908 0.058035 0
vt -1.18836 0.026358 0
vt -1.10622 0.039278 0

# 206 vertex normals
vn 0.001419 0.0248061 -0.00527279
vn 0.00141902 0.0248061 -0.00527279
vn 0.000708634 0.0248353 -0.00527896
vn 0.00141905 0.0248061 -0.00527279
vn 0.000708888 0.0248353 -0.00527898
vn 0.00141902 0.0248061 -0.00527276
vn 0.000724738 0.0248348 -0.00527888
vn 0.00284899 0.0246882 -0.00524769
vn 0.000723747 0.0248348 -0.00527883
vn 0.00284912 0.0246881 -0.00524772
vn -0.00044511 0.0248411 -0.00528018
vn 0.00284909 0.0246881 -0.00524772
vn -0.000444678 0.0248411 -0.0052802
vn -0.000433603 0.0248413 -0.00528025
vn 0.00807042 0.0235575 -0.00500738
vn -0.000433349 0.0248413 -0.00528028
vn 0.00807024 0.0235575 -0.00500733
vn -0.00130401 0.0248122 -0.00527408
vn 0.00807019 0.0235576 -0.00500733
vn -0.00130398 0.0248122 -0.00527408
vn 0.00807029 0.0235575 -0.00500736
vn -0.00130383 0.0248122 -0.00527408
vn 0.0164248 0.0189514 -0.00402831
vn -0.00130391 0.0248122 -0.00527406
vn 0.0164249 0.0189514 -0.00402831
vn -0.00474246 0.024408 -0.00518815
vn -0.00474238 0.024408 -0.00518818
vn -0.00474215 0.0244081 -0.0051882
vn 0.0207995 0.0142602 -0.00303113
vn -0.0140912 0.020671 -0.00439384
vn 0.0207994 0.0142603 -0.00303116
vn -0.0140913 0.0206709 -0.00439379
vn 0.0207995 0.0142602 -0.00303116
vn -0.0140912 0.020671 -0.00439382
vn 0.0244525 0.00672257 -0.00142895
vn 0.0244525 0.00672267 -0.00142895
vn -0.0230891 0.0103541 -0.00220086
vn 0.0244524 0.00672277 -0.00142898
vn 0.0244525 0.00672272 -0.00142898
vn -0.0230892 0.0103541 -0.00220086
vn 0.0253972 -0.000370383 7.874e-05
vn -0.0230892 0.010354 -0.00220083
vn -0.0253961 0.000433603 -9.21766e-05
vn 0.0233145 -0.00985921 0.00209565
vn 0.0233145 -0.00985919 0.00209565
vn -0.02216 -0.0121422 0.00258092
vn 0.0233145 -0.00985921 0.00209568
vn 0.0233144 -0.00985926 0.00209565
vn 0.0217133 -0.0128912 0.00274013
vn -0.0167428 -0.0186833 0.00397131
vn 0.0217132 -0.0128913 0.00274015
vn -0.0167428 -0.0186833 0.00397129
vn 0.0217133 -0.0128913 0.00274015
vn -0.0167428 -0.0186833 0.00397129
vn 0.0104124 -0.0226614 0.00481688
vn -0.00953074 -0.0230296 0.00489511
vn 0.0104126 -0.0226613 0.00481688
vn -0.00953033 -0.0230297 0.00489527
vn -0.00953028 -0.0230298 0.00489527
vn 0.0011416 -0.0248198 0.00527568
vn 0.00114191 -0.0248198 0.00527576
vn -0.00485005 -0.0243878 0.00518391
vn -0.00485033 -0.0243877 0.00518383
vn 0.0011415 -0.0248198 0.00527566
vn -0.00484993 -0.0243878 0.00518386
vn 0.00410682 -0.024518 0.00521149
vn -0.00485003 -0.0243878 0.00518381
vn 0.0041069 -0.024518 0.00521152
vn -0.00284909 -0.0246881 0.00524766
vn 0.00410687 -0.024518 0.00521152
vn -0.00284904 -0.0246881 0.00524769
vn 0.000403073 -0.0248418 0.00528035
vn -0.00121232 -0.0248166 0.005275
vn 0.000402971 -0.0248418 0.00528035
vn -0.001419 -0.0248061 0.00527279
vn -0.00141902 -0.0248061 0.00527279
vn -0.000708634 -0.0248353 0.00527896
vn -0.00141905 -0.0248061 0.00527279
vn -0.000708888 -0.0248353 0.00527898
vn -0.00141902 -0.0248061 0.00527276
vn -0.000724738 -0.0248348 0.00527888
vn -0.00284899 -0.0246882 0.00524769
vn -0.000723747 -0.0248348 0.00527883
vn -0.00284912 -0.0246881 0.00524772
vn 0.00044511 -0.0248411 0.00528018
vn -0.00284909 -0.0246881 0.00524772
vn 0.000444678 -0.0248411 0.0052802
vn 0.000433603 -0.0248413 0.00528025
vn -0.00807042 -0.0235575 0.00500738
vn 0.000433349 -0.0248413 0.00528028
vn -0.00807024 -0.0235575 0.00500733
vn 0.00130401 -0.0248122 0.00527408
vn -0.00807019 -0.0235576 0.00500733
vn 0.00130398 -0.0248122 0.00527408
vn -0.00807029 -0.0235575 0.00500736
vn 0.00130383 -0.0248122 0.00527408
vn -0.0164248 -0.0189514 0.00402831
vn 0.00130391 -0.0248122 0.00527406
vn -0.0164249 -0.0189514 0.00402831
vn 0.00474246 -0.024408 0.00518815
vn 0.00474238 -0.024408 0.00518818
vn 0.00474215 -0.0244081 0.0051882
vn -0.0207995 -0.0142602 0.00303113
vn 0.0140912 -0.020671 0.00439384
vn -0.0207994 -0.0142603 0.00303116
vn 0.0140913 -0.0206709 0.00439379
vn -0.0207995 -0.0142602 0.00303116
vn 0.0140912 -0.020671 0.00439382
vn -0.0244525 -0.00672257 0.00142895
vn -0.0244525 -0.00672267 0.00142895
vn 0.0230891 -0.0103541 0.00220086
vn -0.0244524 -0.00672277 0.00142898
vn -0.0244525 -0.00672272 0.00142898
vn 0.0230892 -0.0103541 0.00220086
vn -0.0253972 0.000370383 -7.874e-05
vn 0.0230892 -0.010354 0.00220083
vn 0.0253961 -0.000433603 9.21766e-05
vn -0.0233145 0.00985921 -0.00209565
vn -0.0233145 0.00985919 -0.00209565
vn 0.02216 0.0121422 -0.00258092
vn -0.0233145 0.00985921 -0.00209568
vn -0.0233144 0.00985926 -0.00209565
vn -0.0217133 0.0128912 -0.00274013
vn 0.0167428 0.0186833 -0.00397131
vn -0.0217132 0.0128913 -0.00274015
vn 0.0167428 0.0186833 -0.00397129
vn -0.0217133 0.0128913 -0.00274015
vn 0.0167428 0.0186833 -0.00397129
vn -0.0104124 0.0226614 -0.00481688
vn 0.00953074 0.0230296 -0.00489511
vn -0.0104126 0.0226613 -0.00481688
vn 0.00953033 0.0230297 -0.00489527
vn 0.00953028 0.0230298 -0.00489527
vn -0.0011416 0.0248198 -0.00527568
vn -0.00114191 0.0248198 -0.00527576
vn 0.00485005 0.0243878 -0.00518391
vn 0.00485033 0.0243877 -0.00518383
vn -0.0011415 0.0248198 -0.00527566
vn 0.00484993 0.0243878 -0.00518386
vn -0.00410682 0.024518 -0.00521149
vn 0.00485003 0.0243878 -0.00518381
vn -0.0041069 0.024518 -0.00521152
vn 0.00284909 0.0246881 -0.00524766
vn -0.00410687 0.024518 -0.00521152
vn 0.00284904 0.0246881 -0.00524769
vn -0.000403073 0.0248418 -0.00528035
vn 0.00121232 0.0248166 -0.005275
vn -0.000402971 0.0248418 -0.00528035
vn 0 -0.00528119 -0.0248449
vn 1.778e-07 -0.00528137 -0.0248449
vn -2.54e-08 -0.00528101 -0.0248449
vn 0 -0.00528101 -0.0248449
vn 2.54e-08 -0.00528101 -0.0248449
vn 0 -0.00528099 -0.0248449
vn -1.016e-07 -0.00528127 -0.0248449
vn 1.27e-07 -0.00528101 -0.0248449
vn 0 -0.00528068 -0.024845
vn 5.08e-08 -0.00528091 -0.024845
vn 2.54e-07 -0.00528079 -0.024845
vn -7.62e-08 -0.00528101 -0.0248449
vn -2.032e-07 -0.00528302 -0.0248445
vn 2.54e-08 -0.00528096 -0.024845
vn -1.27e-07 -0.0052815 -0.0248448
vn -1.778e-07 -0.00528109 -0.0248449
vn -5.08e-08 -0.00528089 -0.024845
vn -1.016e-07 -0.00528145 -0.0248448
vn -5.08e-08 -0.00528084 -0.024845
vn 5.08e-08 -0.00528104 -0.0248449
vn -6.858e-07 -0.00526809 -0.0248477
vn -1.778e-07 -0.00528086 -0.024845
vn 0 0.00528119 0.0248449
vn -1.778e-07 0.00528137 0.0248449
vn 2.54e-08 0.00528101 0.0248449
vn 0 0.00528101 0.0248449
vn -2.54e-08 0.00528101 0.0248449
vn 0 0.00528099 0.0248449
vn 1.016e-07 0.00528127 0.0248449
vn -1.27e-07 0.00528101 0.0248449
vn 0 0.00528068 0.024845
vn -5.08e-08 0.00528091 0.024845
vn -2.54e-07 0.00528079 0.024845
vn 7.62e-08 0.00528101 0.0248449
vn 2.032e-07 0.00528302 0.0248445
vn -2.54e-08 0.00528096 0.024845
vn 1.27e-07 0.0052815 0.0248448
vn 1.778e-07 0.00528109 0.0248449
vn 5.08e-08 0.00528089 0.024845
vn 1.016e-07 0.00528145 0.0248448
vn 5.08e-08 0.00528084 0.024845
vn -5.08e-08 0.00528104 0.0248449
vn 6.858e-07 0.00526809 0.0248477
vn 1.778e-07 0.00528086 0.024845
vn 0 -0.00528079 -0.024845
vn 1.778e-07 -0.00528134 -0.0248449
vn -2.032e-07 -0.0052832 -0.0248445
vn 2.54e-08 -0.00528112 -0.0248449
vn -1.778e-07 -0.00528162 -0.0248448
vn -1.016e-07 -0.00528107 -0.0248449
vn -2.54e-08 -0.00528112 -0.0248449
vn 0 0.00528079 0.024845
vn -1.778e-07 0.00528134 0.0248449
vn 2.032e-07 0.0052832 0.0248445
vn -2.54e-08 0.00528112 0.0248449
vn 1.778e-07 0.00528162 0.0248448
vn 1.016e-07 0.00528107 0.0248449
vn 2.54e-08 0.00528112 0.0248449

# Mesh 'mesh1_mesh1-geometry' with 104 faces
g mesh1_mesh1-geometry
usemtl material_0_24
f  1//1 2//1 3//1
f  4//2 2//2 1//2
f  2//3 5//3 3//3
f  6//4 4//4 1//4
f  3//5 5//5 7//5
f  8//6 4//6 6//6
f  5//7 9//7 7//7
f  10//8 8//8 6//8
f  7//9 9//9 11//9
f  12//10 8//10 10//10
f  9//11 13//11 11//11
f  14//12 12//12 10//12
f  11//13 13//13 15//13
f  16//12 12//12 14//12
f  13//14 17//14 15//14
f  18//15 16//15 14//15
f  15//16 17//16 19//16
f  20//17 16//17 18//17
f  17//18 21//18 19//18
f  22//19 20//19 18//19
f  19//20 21//20 23//20
f  24//21 20//21 22//21
f  21//22 25//22 23//22
f  26//23 24//23 22//23
f  23//24 25//24 27//24
f  28//25 24//25 26//25
f  25//26 29//26 27//26
f  30//25 28//25 26//25
f  27//27 29//27 31//27
f  32//23 28//23 30//23
f  29//28 33//28 31//28
f  34//29 32//29 30//29
f  31//28 33//28 35//28
f  34//29 36//29 32//29
f  33//30 37//30 35//30
f  38//31 36//31 34//31
f  35//32 37//32 39//32
f  38//33 40//33 36//33
f  37//34 41//34 39//34
f  42//35 40//35 38//35
f  39//34 41//34 43//34
f  42//36 44//36 40//36
f  43//37 41//37 45//37
f  46//38 44//38 42//38
f  47//37 43//37 45//37
f  46//39 48//39 44//39
f  47//40 45//40 49//40
f  50//41 48//41 46//41
f  51//42 47//42 49//42
f  50//41 52//41 48//41
f  53//43 51//43 49//43
f  54//41 52//41 50//41
f  55//43 51//43 53//43
f  54//41 56//41 52//41
f  57//43 55//43 53//43
f  58//44 56//44 54//44
f  59//43 55//43 57//43
f  58//45 60//45 56//45
f  59//46 57//46 61//46
f  62//47 60//47 58//47
f  63//46 59//46 61//46
f  62//48 64//48 60//48
f  63//46 61//46 65//46
f  66//49 64//49 62//49
f  67//46 63//46 65//46
f  66//49 68//49 64//49
f  69//50 67//50 65//50
f  70//51 68//51 66//51
f  71//52 67//52 69//52
f  70//53 72//53 68//53
f  73//54 71//54 69//54
f  70//55 74//55 72//55
f  75//54 71//54 73//54
f  72//55 74//55 76//55
f  77//56 75//56 73//56
f  74//57 78//57 76//57
f  79//58 75//58 77//58
f  76//57 78//57 80//57
f  81//59 79//59 77//59
f  78//60 82//60 80//60
f  83//59 79//59 81//59
f  80//61 82//61 84//61
f  85//62 83//62 81//62
f  82//61 86//61 84//61
f  87//63 83//63 85//63
f  84//64 86//64 88//64
f  89//65 87//65 85//65
f  86//66 90//66 88//66
f  91//67 87//67 89//67
f  88//68 90//68 92//68
f  93//69 91//69 89//69
f  90//70 94//70 92//70
f  95//71 91//71 93//71
f  92//70 94//70 96//70
f  97//71 95//71 93//71
f  94//72 98//72 96//72
f  99//71 95//71 97//71
f  96//72 98//72 100//72
f  101//73 99//73 97//73
f  98//74 102//74 100//74
f  103//73 99//73 101//73
f  100//74 102//74 104//74
f  104//73 103//73 101//73
f  102//73 103//73 104//73

# Mesh 'mesh1_mesh1-geometry' with 104 faces
g mesh1_mesh1-geometry
usemtl material_1_24
f  3//75 2//75 1//75
f  1//76 2//76 4//76
f  3//77 5//77 2//77
f  1//78 4//78 6//78
f  7//79 5//79 3//79
f  6//80 4//80 8//80
f  7//81 9//81 5//81
f  6//82 8//82 10//82
f  11//83 9//83 7//83
f  10//84 8//84 12//84
f  11//85 13//85 9//85
f  10//86 12//86 14//86
f  15//87 13//87 11//87
f  14//86 12//86 16//86
f  15//88 17//88 13//88
f  14//89 16//89 18//89
f  19//90 17//90 15//90
f  18//91 16//91 20//91
f  19//92 21//92 17//92
f  18//93 20//93 22//93
f  23//94 21//94 19//94
f  22//95 20//95 24//95
f  23//96 25//96 21//96
f  22//97 24//97 26//97
f  27//98 25//98 23//98
f  26//99 24//99 28//99
f  27//100 29//100 25//100
f  26//99 28//99 30//99
f  31//101 29//101 27//101
f  30//97 28//97 32//97
f  31//102 33//102 29//102
f  30//103 32//103 34//103
f  35//102 33//102 31//102
f  32//103 36//103 34//103
f  35//104 37//104 33//104
f  34//105 36//105 38//105
f  39//106 37//106 35//106
f  36//107 40//107 38//107
f  39//108 41//108 37//108
f  38//109 40//109 42//109
f  43//108 41//108 39//108
f  40//110 44//110 42//110
f  45//111 41//111 43//111
f  42//112 44//112 46//112
f  45//111 43//111 47//111
f  44//113 48//113 46//113
f  49//114 45//114 47//114
f  46//115 48//115 50//115
f  49//116 47//116 51//116
f  48//115 52//115 50//115
f  49//117 51//117 53//117
f  50//115 52//115 54//115
f  53//117 51//117 55//117
f  52//115 56//115 54//115
f  53//117 55//117 57//117
f  54//118 56//118 58//118
f  57//117 55//117 59//117
f  56//119 60//119 58//119
f  61//120 57//120 59//120
f  58//121 60//121 62//121
f  61//120 59//120 63//120
f  60//122 64//122 62//122
f  65//120 61//120 63//120
f  62//123 64//123 66//123
f  65//120 63//120 67//120
f  64//123 68//123 66//123
f  65//124 67//124 69//124
f  66//125 68//125 70//125
f  69//126 67//126 71//126
f  68//127 72//127 70//127
f  69//128 71//128 73//128
f  72//129 74//129 70//129
f  73//128 71//128 75//128
f  76//129 74//129 72//129
f  73//130 75//130 77//130
f  76//131 78//131 74//131
f  77//132 75//132 79//132
f  80//131 78//131 76//131
f  77//133 79//133 81//133
f  80//134 82//134 78//134
f  81//133 79//133 83//133
f  84//135 82//135 80//135
f  81//136 83//136 85//136
f  84//135 86//135 82//135
f  85//137 83//137 87//137
f  88//138 86//138 84//138
f  85//139 87//139 89//139
f  88//140 90//140 86//140
f  89//141 87//141 91//141
f  92//142 90//142 88//142
f  89//143 91//143 93//143
f  92//144 94//144 90//144
f  93//145 91//145 95//145
f  96//144 94//144 92//144
f  93//145 95//145 97//145
f  96//146 98//146 94//146
f  97//145 95//145 99//145
f  100//146 98//146 96//146
f  97//147 99//147 101//147
f  100//148 102//148 98//148
f  101//147 99//147 103//147
f  104//148 102//148 100//148
f  101//147 103//147 104//147
f  104//147 103//147 102//147

# Mesh 'mesh2_mesh2-geometry' with 24 faces
g mesh2_mesh2-geometry
usemtl material_2_24
f  105//149 106//149 107//149
f  108//150 106//150 105//150
f  108//151 109//151 106//151
f  108//152 110//152 109//152
f  106//153 109//153 111//153
f  108//154 112//154 110//154
f  110//152 113//152 109//152
f  111//155 109//155 114//155
f  106//156 111//156 115//156
f  116//157 112//157 108//157
f  112//158 117//158 110//158
f  113//152 118//152 109//152
f  111//159 114//159 119//159
f  115//160 111//160 120//160
f  116//161 121//161 112//161
f  116//162 108//162 122//162
f  112//163 123//163 117//163
f  117//164 124//164 110//164
f  113//165 125//165 118//165
f  119//166 114//166 126//166
f  113//167 127//167 125//167
f  113//168 128//168 127//168
f  127//169 129//169 125//169
f  113//170 130//170 128//170

# Mesh 'mesh2_mesh2-geometry' with 24 faces
g mesh2_mesh2-geometry
usemtl material_0_24
f  107//171 106//171 105//171
f  105//172 106//172 108//172
f  106//173 109//173 108//173
f  109//174 110//174 108//174
f  111//175 109//175 106//175
f  110//176 112//176 108//176
f  109//174 113//174 110//174
f  114//177 109//177 111//177
f  115//178 111//178 106//178
f  108//179 112//179 116//179
f  110//180 117//180 112//180
f  109//174 118//174 113//174
f  119//181 114//181 111//181
f  120//182 111//182 115//182
f  112//183 121//183 116//183
f  122//184 108//184 116//184
f  117//185 123//185 112//185
f  110//186 124//186 117//186
f  118//187 125//187 113//187
f  126//188 114//188 119//188
f  125//189 127//189 113//189
f  127//190 128//190 113//190
f  125//191 129//191 127//191
f  128//192 130//192 113//192

# Mesh 'mesh3_mesh3-geometry' with 24 faces
g mesh3_mesh3-geometry
usemtl material_3_1_8
f  131/1/154 132/2/154 133/3/154
f  131/4/167 134/5/167 132/6/167
f  131/7/152 133/8/152 8/9/152
f  131/10/168 135/11/168 134/12/168
f  134/13/169 17/14/169 132/15/169
f  57/16/152 131/17/152 8/18/152
f  131/19/170 136/20/170 135/21/170
f  137/22/152 57/23/152 8/24/152
f  137/25/154 138/26/154 57/27/154
f  137/28/152 8/29/152 64/30/152
f  104/31/193 138/32/193 137/33/193
f  138/34/162 139/35/162 57/36/162
f  64/37/153 8/38/153 40/39/153
f  137/40/194 64/41/194 140/42/194
f  104/43/195 141/44/195 138/45/195
f  104/46/196 137/47/196 96/48/196
f  138/49/197 142/50/197 139/51/197
f  139/52/198 143/53/198 57/54/198
f  40/55/155 8/56/155 16/57/155
f  64/58/156 40/59/156 144/60/156
f  140/61/199 64/62/199 145/63/199
f  40/64/159 16/65/159 146/66/159
f  144/67/160 40/68/160 48/69/160
f  146/70/166 16/71/166 24/72/166

# Mesh 'mesh3_mesh3-geometry' with 24 faces
g mesh3_mesh3-geometry
usemtl material_1_24
f  133//176 132//176 131//176
f  132//189 134//189 131//189
f  8//174 133//174 131//174
f  134//190 135//190 131//190
f  132//191 17//191 134//191
f  8//174 131//174 57//174
f  135//192 136//192 131//192
f  8//174 57//174 137//174
f  57//176 138//176 137//176
f  64//174 8//174 137//174
f  137//200 138//200 104//200
f  57//184 139//184 138//184
f  40//175 8//175 64//175
f  140//201 64//201 137//201
f  138//202 141//202 104//202
f  96//203 137//203 104//203
f  139//204 142//204 138//204
f  57//205 143//205 139//205
f  16//177 8//177 40//177
f  144//178 40//178 64//178
f  145//206 64//206 140//206
f  146//181 16//181 40//181
f  48//182 40//182 144//182
f  24//188 16//188 146//188

