# File produced by Open Asset Import Library (http://www.assimp.sf.net)
# (assimp v3.2.202087883)

mtllib model_normalized.mtl

# 112 vertex positions
v 0.379035 0.035996 -0.247125
v 0.379035 0.063145 0.241550
v 0.379035 0.035996 0.241550
v 0.379035 0.063145 -0.247125
v -0.435423 0.035996 0.241550
v -0.435423 0.063145 -0.247125
v -0.435423 0.063145 0.241550
v -0.435423 0.035996 -0.247125
v 0.358674 -0.018301 0.214401
v 0.385823 -0.208341 0.214401
v 0.358674 -0.208341 0.214401
v 0.385823 -0.018301 0.214401
v 0.358674 -0.208341 0.241550
v 0.385823 -0.018301 -0.219976
v 0.385823 0.008848 0.241550
v 0.385823 -0.208341 0.241550
v 0.358674 0.008848 0.241550
v 0.358674 -0.018301 -0.219976
v 0.385823 0.008848 -0.186041
v 0.385823 0.008848 0.180466
v 0.358674 0.008848 0.180466
v 0.358674 0.008848 -0.186041
v 0.358674 -0.208341 -0.219976
v 0.385823 0.008848 -0.247125
v 0.385823 0.008848 -0.158892
v 0.385823 0.008848 0.153317
v 0.358674 0.029209 0.153317
v 0.358674 0.008848 -0.247125
v 0.358674 0.008848 -0.158892
v 0.385823 -0.208341 -0.219976
v 0.385823 -0.208341 -0.247125
v 0.385823 0.066538 -0.158892
v 0.385823 0.066538 0.180466
v 0.379035 0.035996 0.180466
v 0.358674 0.008848 0.153317
v 0.358674 0.029209 0.180466
v 0.358674 0.029209 -0.186041
v 0.358674 -0.208341 -0.247125
v 0.385823 0.066538 -0.186041
v 0.379035 0.035996 -0.158892
v 0.385823 0.066538 0.153317
v 0.358674 0.029209 -0.158892
v 0.351887 0.066538 -0.186041
v 0.379035 0.063145 -0.158892
v 0.351887 0.066538 0.153317
v 0.379035 0.063145 0.180466
v 0.358674 0.035996 0.180466
v 0.351887 0.066538 -0.158892
v 0.351887 0.063145 -0.158892
v 0.379035 0.063145 -0.186041
v 0.351887 0.066538 0.180466
v 0.351887 0.063145 0.180466
v 0.379035 0.063145 0.153317
v 0.358674 0.035996 0.153317
v 0.358674 0.035996 -0.158892
v 0.379035 0.035996 -0.186041
v 0.379035 0.035996 0.153317
v 0.358674 0.035996 -0.186041
v 0.351887 0.063145 -0.186041
v 0.351887 0.063145 0.153317
v -0.442210 0.008848 -0.247125
v -0.415061 -0.208341 -0.247125
v -0.442210 -0.208341 -0.247125
v -0.415061 0.008848 -0.247125
v -0.442210 -0.208341 -0.219976
v -0.415061 -0.018301 -0.219976
v -0.415061 -0.208341 -0.219976
v -0.442210 -0.018301 -0.219976
v -0.415061 0.008848 -0.186041
v -0.442210 0.008848 -0.186041
v -0.415061 0.029209 -0.158892
v -0.442210 0.008848 -0.158892
v -0.442210 -0.018301 0.214401
v -0.415061 0.008848 -0.158892
v -0.415061 0.029209 -0.186041
v -0.442210 0.008848 0.153317
v -0.442210 0.066538 -0.186041
v -0.415061 -0.018301 0.214401
v -0.442210 0.008848 0.180466
v -0.415061 0.008848 0.153317
v -0.442210 0.066538 -0.158892
v -0.415061 0.008848 0.180466
v -0.415061 -0.208341 0.214401
v -0.442210 0.008848 0.241550
v -0.435423 0.035996 -0.158892
v -0.442210 0.066538 0.153317
v -0.415061 0.008848 0.241550
v -0.442210 -0.208341 0.214401
v -0.442210 -0.208341 0.241550
v -0.415061 0.029209 0.180466
v -0.442210 0.066538 0.180466
v -0.435423 0.063145 -0.158892
v -0.408274 0.066538 -0.158892
v -0.415061 -0.208341 0.241550
v -0.415061 0.029209 0.153317
v -0.435423 0.035996 0.180466
v -0.408274 0.063145 -0.158892
v -0.435423 0.063145 0.180466
v -0.408274 0.066538 0.180466
v -0.408274 0.063145 0.180466
v 0.379035 0.029209 0.180466
v -0.435423 0.035996 -0.186041
v -0.435423 0.063145 -0.186041
v -0.408274 0.063145 -0.186041
v -0.435423 0.035996 0.153317
v -0.408274 0.066538 -0.186041
v -0.435423 0.063145 0.153317
v -0.408274 0.066538 0.153317
v -0.408274 0.063145 0.153317
v 0.379035 0.029209 0.153317
v 0.379035 0.008848 0.153317
v 0.360341 0.063145 -0.186041

# 90 UV coordinates
vt 1 0 0
vt 0 0.389403 0
vt 0 0 0
vt 1 0.389403 0
vt 3.73015 0.233642 0
vt 2.73015 0 0
vt 3.73015 0 0
vt 1 0.233642 0
vt 0 0.233642 0
vt 2.73015 0.233642 0
vt -1 0.389403 0
vt -1 0 0
vt 2.29292 3.24274 0
vt 2.37292 3.06275 0
vt 2.37292 3.24274 0
vt 2.29292 3.06275 0
vt -2.29292 0.64 0
vt -2.31292 0.72 0
vt -2.37292 0.64 0
vt -2.29292 0.81 0
vt -2.37292 0.7 0
vt -2.31292 0.8 0
vt -4.65292 0.7 0
vt -4.65292 3.06275 0
vt -2.37292 2.98274 0
vt -2.37292 3.06275 0
vt 2.37292 2.06275 0
vt 2.29292 2.98274 0
vt 2.29292 2.06275 0
vt -2.39292 0.8 0
vt 2.98274 0.8 0
vt 3.06275 0.72 0
vt 3.06275 0.8 0
vt -4.65292 0.72 0
vt 2.37292 2.98274 0
vt -4.65292 2.98274 0
vt 2.39292 2.98274 0
vt -2.39292 0.81 0
vt -2.39292 3.06275 0
vt -2.31292 2.98274 0
vt -2.31292 3.06275 0
vt 2.98274 0.72 0
vt -4.71292 0.72 0
vt 3.06275 0.7 0
vt 2.31292 3.06275 0
vt 4.65292 2.98274 0
vt 4.65292 3.06275 0
vt 2.98274 0.7 0
vt 2.39292 3.06275 0
vt -2.37292 1.88275 0
vt -2.29292 1.80274 0
vt -2.29292 1.88275 0
vt 2.98274 0.81 0
vt 3.06275 0.81 0
vt -2.39292 2.98274 0
vt 2.31292 2.98274 0
vt -4.73292 0.64 0
vt 2.39292 1.98274 0
vt 2.29292 1.98274 0
vt -2.37292 1.80274 0
vt -4.65292 0.64 0
vt -4.73292 0.81 0
vt -4.65292 2.06275 0
vt -2.37292 1.98274 0
vt -2.37292 2.06275 0
vt 2.39292 2.06275 0
vt 1.98274 0.8 0
vt 2.06275 0.72 0
vt 2.06275 0.8 0
vt -4.71292 0.7 0
vt -4.71292 0.8 0
vt -4.71292 1.98274 0
vt 1.98274 0.72 0
vt 1.98274 0.81 0
vt 2.06275 0.81 0
vt -2.39292 2.06275 0
vt -2.31292 1.98274 0
vt -2.31292 2.06275 0
vt -4.71292 2.06275 0
vt -4.71292 0.64 0
vt -4.63292 0.81 0
vt 4.71292 1.98274 0
vt 2.31292 2.06275 0
vt 2.31292 1.98274 0
vt -2.39292 1.98274 0
vt 2.06275 0.7 0
vt 4.71292 2.06275 0
vt 1.98274 0.7 0
vt -4.65784 0.8 0
vt -4.63292 0.8 0

# 6 vertex normals
vn 0.0254 0 0
vn 0 0 0.0254
vn 0 0 -0.0254
vn -0.0254 0 0
vn 0 -0.0254 0
vn 0 0.0254 0

# Mesh 'mesh1_mesh1-geometry' with 10 faces
g mesh1_mesh1-geometry
usemtl material_0_2_8
f  1/1/1 2/2/1 3/3/1
f  2/2/1 1/1/1 4/4/1
f  2/5/2 5/6/2 3/7/2
f  1/3/3 6/8/3 4/9/3
f  5/6/2 2/5/2 7/10/2
f  6/8/3 1/3/3 8/1/3
f  6/2/4 5/1/4 7/4/4
f  7/2/1 5/3/1 6/11/1
f  5/1/4 6/2/4 8/3/4
f  8/12/1 6/11/1 5/3/1

# Mesh 'mesh1_mesh1-geometry' with 14 faces
g mesh1_mesh1-geometry
usemtl material_1_24
f  3//4 2//4 1//4
f  4//4 1//4 2//4
f  3//3 5//3 2//3
f  5//5 1//5 3//5
f  3//6 1//6 5//6
f  4//2 6//2 1//2
f  6//6 2//6 4//6
f  4//5 2//5 6//5
f  7//3 2//3 5//3
f  1//5 5//5 8//5
f  8//6 5//6 1//6
f  8//2 1//2 6//2
f  2//6 6//6 7//6
f  7//5 6//5 2//5

# Mesh 'mesh2_mesh2-geometry' with 164 faces
g mesh2_mesh2-geometry
usemtl material_2_24
f  9//3 10//3 11//3
f  10//3 9//3 12//3
f  11//2 10//2 9//2
f  12//2 9//2 10//2
f  10//5 13//5 11//5
f  11//6 13//6 10//6
f  13//4 9//4 11//4
f  11//1 9//1 13//1
f  9//5 14//5 12//5
f  12//6 14//6 9//6
f  12//1 15//1 10//1
f  10//4 15//4 12//4
f  13//5 10//5 16//5
f  16//6 10//6 13//6
f  17//4 9//4 13//4
f  13//1 9//1 17//1
f  14//5 9//5 18//5
f  18//6 9//6 14//6
f  14//1 19//1 12//1
f  12//4 19//4 14//4
f  12//1 20//1 15//1
f  15//4 20//4 12//4
f  10//1 15//1 16//1
f  16//4 15//4 10//4
f  15//2 13//2 16//2
f  16//3 13//3 15//3
f  21//4 9//4 17//4
f  17//1 9//1 21//1
f  13//2 15//2 17//2
f  17//3 15//3 13//3
f  22//4 18//4 9//4
f  9//1 18//1 22//1
f  23//2 14//2 18//2
f  18//3 14//3 23//3
f  14//1 24//1 19//1
f  19//4 24//4 14//4
f  12//1 19//1 25//1
f  25//4 19//4 12//4
f  12//1 26//1 20//1
f  20//4 26//4 12//4
f  21//6 15//6 20//6
f  20//5 15//5 21//5
f  27//4 9//4 21//4
f  21//1 9//1 27//1
f  15//6 21//6 17//6
f  17//5 21//5 15//5
f  28//4 18//4 22//4
f  22//1 18//1 28//1
f  22//4 9//4 29//4
f  29//1 9//1 22//1
f  14//2 23//2 30//2
f  30//3 23//3 14//3
f  28//4 23//4 18//4
f  18//1 23//1 28//1
f  24//1 14//1 31//1
f  31//4 14//4 24//4
f  28//6 19//6 24//6
f  24//5 19//5 28//5
f  25//1 19//1 32//1
f  32//4 19//4 25//4
f  12//1 25//1 26//1
f  26//4 25//4 12//4
f  20//1 26//1 33//1
f  33//4 26//4 20//4
f  20//2 34//2 21//2
f  21//3 34//3 20//3
f  35//4 9//4 27//4
f  27//1 9//1 35//1
f  36//4 27//4 21//4
f  21//1 27//1 36//1
f  19//6 28//6 22//6
f  22//5 28//5 19//5
f  29//4 9//4 35//4
f  35//1 9//1 29//1
f  22//4 29//4 37//4
f  37//1 29//1 22//1
f  23//5 31//5 30//5
f  30//6 31//6 23//6
f  30//1 31//1 14//1
f  14//4 31//4 30//4
f  23//4 28//4 38//4
f  38//1 28//1 23//1
f  31//3 28//3 24//3
f  24//2 28//2 31//2
f  32//1 19//1 39//1
f  39//4 19//4 32//4
f  40//2 25//2 32//2
f  32//3 25//3 40//3
f  29//6 26//6 25//6
f  25//5 26//5 29//5
f  33//1 26//1 41//1
f  41//4 26//4 33//4
f  34//2 20//2 33//2
f  33//3 20//3 34//3
f  21//2 34//2 36//2
f  36//3 34//3 21//3
f  26//6 29//6 35//6
f  35//5 29//5 26//5
f  42//4 37//4 29//4
f  29//1 37//1 42//1
f  31//5 23//5 38//5
f  38//6 23//6 31//6
f  28//3 31//3 38//3
f  38//2 31//2 28//2
f  43//6 32//6 39//6
f  39//5 32//5 43//5
f  25//2 40//2 29//2
f  29//3 40//3 25//3
f  40//2 32//2 44//2
f  44//3 32//3 40//3
f  45//6 33//6 41//6
f  41//5 33//5 45//5
f  34//2 33//2 46//2
f  46//3 33//3 34//3
f  47//2 36//2 34//2
f  34//3 36//3 47//3
f  29//2 40//2 42//2
f  42//3 40//3 29//3
f  32//6 43//6 48//6
f  48//5 43//5 32//5
f  44//2 32//2 49//2
f  49//3 32//3 44//3
f  50//4 40//4 44//4
f  44//1 40//1 50//1
f  33//6 45//6 51//6
f  51//5 45//5 33//5
f  46//2 33//2 52//2
f  52//3 33//3 46//3
f  53//4 34//4 46//4
f  46//1 34//1 53//1
f  34//6 54//6 47//6
f  47//5 54//5 34//5
f  55//2 42//2 40//2
f  40//3 42//3 55//3
f  43//4 49//4 48//4
f  48//1 49//1 43//1
f  49//2 32//2 48//2
f  48//3 32//3 49//3
f  49//5 50//5 44//5
f  44//6 50//6 49//6
f  40//4 50//4 56//4
f  56//1 50//1 40//1
f  45//4 52//4 51//4
f  51//1 52//1 45//1
f  52//2 33//2 51//2
f  51//3 33//3 52//3
f  52//5 53//5 46//5
f  46//6 53//6 52//6
f  34//4 53//4 57//4
f  57//1 53//1 34//1
f  54//6 34//6 57//6
f  57//5 34//5 54//5
f  40//6 58//6 55//6
f  55//5 58//5 40//5
f  49//4 43//4 59//4
f  59//1 43//1 49//1
f  50//5 49//5 59//5
f  59//6 49//6 50//6
f  58//6 40//6 56//6
f  56//5 40//5 58//5
f  52//4 45//4 60//4
f  60//1 45//1 52//1
f  53//5 52//5 60//5
f  60//6 52//6 53//6

# Mesh 'mesh3_mesh3-geometry' with 58 faces
g mesh3_mesh3-geometry
usemtl material_2_24
f  61/3/3 62/3/3 63/3/3
f  62/3/3 61/3/3 64/3/3
f  62/3/5 65/3/5 63/3/5
f  65/3/4 61/3/4 63/3/4
f  64/3/1 66/3/1 62/3/1
f  65/3/5 62/3/5 67/3/5
f  68/3/4 61/3/4 65/3/4
f  69/3/1 66/3/1 64/3/1
f  62/3/1 66/3/1 67/3/1
f  66/3/2 65/3/2 67/3/2
f  68/3/4 70/3/4 61/3/4
f  65/3/2 66/3/2 68/3/2
f  71/3/1 66/3/1 69/3/1
f  68/3/4 72/3/4 70/3/4
f  66/3/5 73/3/5 68/3/5
f  74/3/1 66/3/1 71/3/1
f  75/3/1 71/3/1 69/3/1
f  68/3/4 76/3/4 72/3/4
f  70/3/4 72/3/4 77/3/4
f  73/3/5 66/3/5 78/3/5
f  73/3/4 79/3/4 68/3/4
f  80/3/1 66/3/1 74/3/1
f  71/3/2 72/3/2 74/3/2
f  68/3/4 79/3/4 76/3/4
f  77/3/4 72/3/4 81/3/4
f  82/3/1 78/3/1 66/3/1
f  83/3/3 73/3/3 78/3/3
f  73/3/4 84/3/4 79/3/4
f  82/3/1 66/3/1 80/3/1
f  72/3/2 71/3/2 85/3/2
f  76/3/4 79/3/4 86/3/4
f  72/3/2 85/3/2 81/3/2
f  87/3/1 78/3/1 82/3/1
f  73/3/3 83/3/3 88/3/3
f  87/3/1 83/3/1 78/3/1
f  84/3/4 73/3/4 89/3/4
f  87/3/6 79/3/6 84/3/6
f  82/3/1 80/3/1 90/3/1
f  85/3/2 71/3/2 55/3/2
f  55/3/2 71/3/2 42/3/2
f  86/3/4 79/3/4 91/3/4
f  81/3/2 85/3/2 92/3/2
f  81/3/2 92/3/2 93/3/2
f  79/3/6 87/3/6 82/3/6
f  88/3/4 89/3/4 73/3/4
f  83/3/1 87/3/1 94/3/1
f  89/3/2 87/3/2 84/3/2
f  95/3/1 90/3/1 80/3/1
f  90/3/2 79/3/2 82/3/2
f  79/3/2 96/3/2 91/3/2
f  93/3/2 92/3/2 97/3/2
f  87/3/2 89/3/2 94/3/2
f  79/3/2 90/3/2 96/3/2
f  91/3/2 96/3/2 98/3/2
f  91/3/2 98/3/2 99/3/2
f  96/3/2 90/3/2 34/3/2
f  99/3/2 98/3/2 100/3/2
f  34/3/2 90/3/2 101/3/2

# Mesh 'mesh3_mesh3-geometry' with 126 faces
g mesh3_mesh3-geometry
usemtl material_3_24
f  63/3/2 62/3/2 61/3/2
f  64/3/2 61/3/2 62/3/2
f  63/3/6 65/3/6 62/3/6
f  63/3/1 61/3/1 65/3/1
f  64/3/5 69/3/5 61/3/5
f  62/3/4 66/3/4 64/3/4
f  67/3/6 62/3/6 65/3/6
f  65/3/1 61/3/1 68/3/1
f  70/3/5 61/3/5 69/3/5
f  64/3/4 66/3/4 69/3/4
f  67/3/4 66/3/4 62/3/4
f  67/3/3 65/3/3 66/3/3
f  61/3/1 70/3/1 68/3/1
f  68/3/3 66/3/3 65/3/3
f  69/3/2 102/3/2 70/3/2
f  69/3/4 66/3/4 71/3/4
f  70/3/1 72/3/1 68/3/1
f  68/3/6 73/3/6 66/3/6
f  77/3/2 70/3/2 102/3/2
f  75/3/2 102/3/2 69/3/2
f  71/3/4 66/3/4 74/3/4
f  69/3/4 71/3/4 75/3/4
f  72/3/1 76/3/1 68/3/1
f  77/3/1 72/3/1 70/3/1
f  78/3/6 66/3/6 73/3/6
f  68/3/1 79/3/1 73/3/1
f  103/3/2 77/3/2 102/3/2
f  37/3/2 102/3/2 75/3/2
f  74/3/4 66/3/4 80/3/4
f  74/3/3 72/3/3 71/3/3
f  75/3/6 71/3/6 37/3/6
f  76/3/1 79/3/1 68/3/1
f  76/3/5 72/3/5 80/3/5
f  81/3/1 72/3/1 77/3/1
f  66/3/4 78/3/4 82/3/4
f  78/3/2 73/3/2 83/3/2
f  79/3/1 84/3/1 73/3/1
f  104/3/2 77/3/2 103/3/2
f  103/3/4 102/3/4 92/3/4
f  102/3/2 37/3/2 58/3/2
f  80/3/4 66/3/4 82/3/4
f  74/3/5 80/3/5 72/3/5
f  85/3/3 71/3/3 72/3/3
f  42/3/6 37/3/6 71/3/6
f  86/3/1 79/3/1 76/3/1
f  80/3/2 105/3/2 76/3/2
f  81/3/3 85/3/3 72/3/3
f  81/3/5 77/3/5 93/3/5
f  82/3/4 78/3/4 87/3/4
f  88/3/2 83/3/2 73/3/2
f  78/3/4 83/3/4 87/3/4
f  89/3/1 73/3/1 84/3/1
f  84/3/5 79/3/5 87/3/5
f  106/3/2 77/3/2 104/3/2
f  103/3/6 92/3/6 104/3/6
f  85/3/4 92/3/4 102/3/4
f  58/3/2 37/3/2 56/3/2
f  58/3/4 37/3/4 55/3/4
f  58/3/5 55/3/5 102/3/5
f  90/3/4 80/3/4 82/3/4
f  55/3/3 71/3/3 85/3/3
f  42/3/4 55/3/4 37/3/4
f  42/3/3 71/3/3 55/3/3
f  91/3/1 79/3/1 86/3/1
f  86/3/2 76/3/2 105/3/2
f  95/3/2 105/3/2 80/3/2
f  92/3/3 85/3/3 81/3/3
f  106/3/5 93/3/5 77/3/5
f  93/3/3 92/3/3 81/3/3
f  82/3/5 87/3/5 79/3/5
f  88/3/6 89/3/6 83/3/6
f  73/3/1 89/3/1 88/3/1
f  94/3/4 87/3/4 83/3/4
f  84/3/3 87/3/3 89/3/3
f  106/3/4 104/3/4 93/3/4
f  97/3/6 104/3/6 92/3/6
f  85/3/5 102/3/5 55/3/5
f  56/3/2 37/3/2 19/3/2
f  80/3/4 90/3/4 95/3/4
f  82/3/3 79/3/3 90/3/3
f  91/3/3 96/3/3 79/3/3
f  91/3/5 86/3/5 99/3/5
f  107/3/2 86/3/2 105/3/2
f  27/3/2 105/3/2 95/3/2
f  97/3/3 92/3/3 93/3/3
f  94/3/6 83/3/6 89/3/6
f  94/3/3 89/3/3 87/3/3
f  97/3/4 93/3/4 104/3/4
f  22/3/2 19/3/2 37/3/2
f  39/3/2 56/3/2 19/3/2
f  95/3/6 90/3/6 27/3/6
f  96/3/3 90/3/3 79/3/3
f  98/3/3 96/3/3 91/3/3
f  108/3/5 99/3/5 86/3/5
f  99/3/3 98/3/3 91/3/3
f  109/3/2 86/3/2 107/3/2
f  107/3/4 105/3/4 98/3/4
f  110/3/2 105/3/2 27/3/2
f  50/3/2 56/3/2 39/3/2
f  101/3/6 27/3/6 90/3/6
f  34/3/3 90/3/3 96/3/3
f  96/3/4 98/3/4 105/3/4
f  108/3/4 109/3/4 99/3/4
f  108/3/2 86/3/2 109/3/2
f  100/3/3 98/3/3 99/3/3
f  107/3/6 98/3/6 109/3/6
f  105/3/2 110/3/2 57/3/2
f  110/3/6 27/3/6 101/3/6
f  110/3/2 27/3/2 111/3/2
f  43/3/2 50/3/2 39/3/2
f  101/3/3 90/3/3 34/3/3
f  96/3/5 105/3/5 34/3/5
f  100/3/4 99/3/4 109/3/4
f  100/3/6 109/3/6 98/3/6
f  57/3/4 110/3/4 34/3/4
f  57/3/2 110/3/2 41/3/2
f  57/3/5 34/3/5 105/3/5
f  101/3/4 34/3/4 110/3/4
f  35/3/2 111/3/2 27/3/2
f  111/3/2 26/3/2 110/3/2
f  50/3/2 43/3/2 112/3/2
f  41/3/2 110/3/2 26/3/2
f  53/3/2 57/3/2 41/3/2
f  59/3/2 112/3/2 43/3/2
f  45/3/2 53/3/2 41/3/2
f  60/3/2 53/3/2 45/3/2

# Mesh 'mesh3_mesh3-geometry' with 68 faces
g mesh3_mesh3-geometry
usemtl material_4_1_8
f  61/13/6 69/14/6 64/15/6
f  69/14/6 61/13/6 70/16/6
f  70/17/3 102/18/3 69/19/3
f  102/18/3 70/17/3 77/20/3
f  69/19/3 102/18/3 75/21/3
f  102/18/3 77/20/3 103/22/3
f  75/21/3 102/18/3 37/23/3
f  37/24/5 71/25/5 75/26/5
f  80/27/6 72/28/6 76/29/6
f  103/22/3 77/20/3 104/30/3
f  92/31/1 102/32/1 103/33/1
f  58/34/3 37/23/3 102/18/3
f  72/28/6 80/27/6 74/35/6
f  71/25/5 37/24/5 42/36/5
f  76/17/3 105/18/3 80/19/3
f  93/37/6 77/16/6 81/28/6
f  104/30/3 77/20/3 106/38/3
f  104/39/5 92/40/5 103/41/5
f  102/32/1 92/31/1 85/42/1
f  56/43/3 37/23/3 58/34/3
f  55/42/1 37/44/1 58/32/1
f  102/45/6 55/46/6 58/47/6
f  37/44/1 55/42/1 42/48/1
f  105/18/3 76/17/3 86/20/3
f  80/19/3 105/18/3 95/21/3
f  77/16/6 93/37/6 106/49/6
f  83/50/5 89/51/5 88/52/5
f  93/53/1 104/33/1 106/54/1
f  92/40/5 104/39/5 97/55/5
f  55/46/6 102/45/6 85/56/6
f  19/57/3 37/23/3 56/43/3
f  99/58/6 86/29/6 91/59/6
f  105/18/3 86/20/3 107/22/3
f  95/21/3 105/18/3 27/23/3
f  89/51/5 83/50/5 94/60/5
f  104/33/1 93/53/1 97/31/1
f  37/23/3 19/57/3 22/61/3
f  19/57/3 56/43/3 39/62/3
f  27/63/5 90/64/5 95/65/5
f  86/29/6 99/58/6 108/66/6
f  107/22/3 86/20/3 109/30/3
f  98/67/1 105/68/1 107/69/1
f  27/23/3 105/18/3 110/70/3
f  39/62/3 56/43/3 50/71/3
f  90/64/5 27/63/5 101/72/5
f  105/68/1 98/67/1 96/73/1
f  99/74/1 109/69/1 108/75/1
f  109/30/3 86/20/3 108/38/3
f  109/76/5 98/77/5 107/78/5
f  57/43/3 110/70/3 105/18/3
f  101/72/5 27/63/5 110/79/5
f  111/80/3 27/23/3 110/70/3
f  39/62/3 50/71/3 43/81/3
f  34/82/6 105/83/6 96/84/6
f  109/69/1 99/74/1 100/67/1
f  98/77/5 109/76/5 100/85/5
f  34/73/1 110/86/1 57/68/1
f  41/62/3 110/70/3 57/43/3
f  105/83/6 34/82/6 57/87/6
f  110/86/1 34/73/1 101/88/1
f  27/23/3 111/80/3 35/61/3
f  110/70/3 26/57/3 111/80/3
f  112/89/3 43/81/3 50/71/3
f  26/57/3 110/70/3 41/62/3
f  41/62/3 57/43/3 53/71/3
f  43/81/3 112/89/3 59/90/3
f  41/62/3 53/71/3 45/81/3
f  45/81/3 53/71/3 60/90/3

