# File produced by Open Asset Import Library (http://www.assimp.sf.net)
# (assimp v3.2.202087883)

mtllib model_normalized.mtl

# 117 vertex positions
v -0.425063 0.123518 0.212880
v -0.425063 0.137131 -0.215925
v -0.425063 0.123518 -0.215925
v -0.425063 0.137131 0.212880
v -0.003064 0.123518 -0.215925
v -0.375149 0.123518 -0.188699
v -0.003064 0.137131 0.212880
v -0.003064 0.137131 -0.215925
v -0.347923 0.123518 -0.188699
v -0.375149 0.123518 -0.161473
v -0.003064 0.123518 0.212880
v 0.418935 0.123518 -0.215925
v -0.347923 0.123518 0.185655
v -0.375149 -0.185040 -0.188699
v -0.375149 0.123518 0.158429
v 0.418935 0.137131 0.212880
v 0.418935 0.137131 -0.215925
v 0.369021 0.123518 -0.188699
v 0.341795 0.123518 -0.188699
v -0.347923 0.123518 0.181117
v -0.347923 -0.185040 -0.188699
v -0.375149 0.123518 0.185655
v -0.370611 0.123518 -0.161473
v -0.370611 -0.008073 -0.161473
v -0.375149 -0.185040 -0.161473
v 0.418935 0.123518 0.212880
v 0.369021 0.123518 0.185655
v 0.341795 0.123518 -0.184161
v -0.347923 -0.185040 0.185655
v -0.347923 0.123518 0.172042
v -0.347923 -0.185040 -0.161473
v -0.347923 -0.107901 -0.184161
v -0.347923 0.123518 -0.184161
v -0.347923 0.123518 -0.175086
v -0.375149 -0.185040 0.158429
v -0.370611 0.123518 0.158429
v -0.370611 -0.094288 -0.161473
v -0.370611 -0.107901 -0.161473
v 0.369021 0.123518 0.158429
v 0.341795 -0.185040 -0.188699
v 0.341795 0.123518 -0.175086
v 0.341795 -0.107901 -0.184161
v -0.347923 0.001002 0.181117
v -0.347923 0.123518 0.158429
v -0.347923 -0.094288 -0.184161
v -0.347923 0.123518 -0.161473
v -0.370611 -0.008073 0.158429
v -0.375149 -0.185040 0.185655
v -0.370611 -0.107901 0.158429
v -0.347923 -0.094288 -0.161473
v -0.361536 -0.008073 -0.161473
v -0.361536 -0.008073 0.158429
v -0.347923 -0.008073 -0.161473
v 0.341795 0.123518 0.185655
v 0.369021 -0.185040 0.185655
v 0.369021 0.123518 -0.161473
v 0.369021 -0.185040 -0.188699
v 0.341795 0.123518 -0.161473
v 0.341795 -0.094288 -0.184161
v -0.347923 -0.008073 0.181117
v 0.341795 0.123518 0.181117
v -0.347923 -0.107901 -0.161473
v -0.361536 0.123518 0.158429
v -0.361536 0.123518 -0.161473
v -0.347923 -0.008073 -0.184161
v -0.370611 -0.094288 0.158429
v -0.347923 -0.107901 0.158429
v -0.347923 -0.008073 0.158429
v 0.341795 -0.185040 0.185655
v 0.369021 -0.185040 0.158429
v 0.364483 0.123518 0.158429
v 0.369021 -0.185040 -0.161473
v 0.364483 -0.008073 -0.161473
v 0.364483 0.123518 -0.161473
v 0.341795 -0.185040 -0.161473
v 0.341795 0.123518 0.158429
v 0.341795 -0.008073 -0.184161
v -0.347923 -0.094288 0.181117
v 0.341795 0.001002 0.181117
v 0.341795 0.123518 0.172042
v -0.347923 -0.008073 -0.175086
v -0.347923 -0.094288 0.158429
v -0.347923 -0.185040 0.158429
v 0.364483 -0.008073 0.158429
v 0.364483 -0.107901 0.158429
v 0.341795 -0.185040 0.158429
v 0.364483 -0.107901 -0.161473
v 0.364483 -0.094288 -0.161473
v 0.355408 0.123518 -0.161473
v 0.355408 0.123518 0.158429
v 0.341795 -0.107901 -0.161473
v 0.341795 -0.008073 -0.175086
v 0.341795 -0.094288 -0.161473
v -0.347923 -0.107901 0.181117
v 0.341795 -0.008073 0.181117
v 0.364483 -0.094288 0.158429
v 0.341795 -0.107901 0.158429
v 0.355408 -0.008073 -0.161473
v 0.341795 -0.008073 -0.161473
v 0.341795 -0.107901 0.181117
v 0.341795 -0.008073 0.158429
v 0.341795 -0.094288 0.158429
v 0.355408 -0.008073 0.158429
v 0.341795 -0.094288 0.181117
v -0.361536 0.001002 -0.161473
v -0.347923 0.001002 -0.161473
v -0.347923 0.001002 0.172042
v -0.347923 0.001002 -0.175086
v -0.347923 0.001002 0.158429
v -0.361536 0.001002 0.158429
v 0.355408 0.001002 -0.161473
v 0.341795 0.001002 -0.161473
v 0.341795 0.001002 -0.175086
v 0.341795 0.001002 0.172042
v 0.355408 0.001710 0.158429
v 0.355408 0.001002 0.158429
v 0.341795 0.001002 0.158429

# 165 UV coordinates
vt 0 1.41667 0
vt -1.96875 1.47917 0
vt -1.96875 1.41667 0
vt 0 1.47917 0
vt 3.875 1.47917 0
vt 1.9375 1.41667 0
vt 3.875 1.41667 0
vt -3.875 -1.96875 0
vt -3.64583 -1.84375 0
vt -3.875 0 0
vt -3.875 1.41667 0
vt -1.9375 1.47917 0
vt -3.875 1.47917 0
vt 1.9375 0 0
vt 3.875 -1.96875 0
vt 3.875 0 0
vt 1.9375 1.47917 0
vt -1.9375 -1.96875 0
vt -3.52083 -1.84375 0
vt -3.64583 -1.71875 0
vt -1.9375 1.41667 0
vt 1.9375 -1.96875 0
vt -3.52083 -0.125 0
vt -3.64583 1.41667 0
vt -3.52083 1.41667 0
vt -3.64583 0 0
vt -3.64583 -0.25 0
vt 1.84375 1.41667 0
vt 1.84375 0 0
vt 1.71875 1.41667 0
vt -1.9375 0 0
vt 0 0 0
vt 0 -1.96875 0
vt -0.229167 -1.84375 0
vt -0.354167 -1.84375 0
vt -3.52083 -0.145833 0
vt -3.52083 0 0
vt -3.64583 -0.125 0
vt -3.625 -1.71875 0
vt 3.625 1.41667 0
vt 3.64583 1.41667 0
vt 3.625 0.8125 0
vt 1.71875 0 0
vt 1.96875 1.41667 0
vt 1.96875 1.47917 0
vt -0.229167 -0.125 0
vt -0.354167 -1.82292 0
vt -0.125 1.41667 0
vt -0.125 0 0
vt -0.145833 1.41667 0
vt -3.52083 -0.1875 0
vt 3.52083 -1.84375 0
vt 3.52083 -1.71875 0
vt 3.64583 -1.84375 0
vt -1.84375 1.41667 0
vt -1.82292 0.354167 0
vt -1.84375 0 0
vt -1.82292 1.41667 0
vt -3.52083 -1.78125 0
vt -3.52083 -1.82292 0
vt 0.25 1.41667 0
vt 0.25 0 0
vt 0.125 1.41667 0
vt -3.625 -0.25 0
vt 3.625 0.416667 0
vt 1.71875 0.8125 0
vt 3.64583 0 0
vt 3.625 0.354167 0
vt 3.64583 -1.71875 0
vt 3.52083 1.41667 0
vt 3.52083 0 0
vt -0.229167 -0.25 0
vt -0.354167 1.41667 0
vt -0.229167 1.41667 0
vt -0.354167 0 0
vt -0.354167 -1.78125 0
vt -0.145833 0.854167 0
vt -3.52083 -0.25 0
vt -1.71875 0 0
vt -1.82292 0.416667 0
vt -3.52083 -1.71875 0
vt -3.625 1.41667 0
vt -3.625 0.8125 0
vt 0.125 0 0
vt -3.625 0.354167 0
vt 3.52083 0.416667 0
vt 3.625 -1.71875 0
vt 3.58333 -1.71875 0
vt 3.58333 -0.25 0
vt 3.58333 0.8125 0
vt 3.52083 0.8125 0
vt 0.25 0.8125 0
vt -0.354167 -0.125 0
vt -0.25 1.41667 0
vt -0.229167 -1.71875 0
vt -0.229167 0 0
vt -0.354167 -1.71875 0
vt -0.145833 0.8125 0
vt -3.52083 0.854167 0
vt -1.71875 0.354167 0
vt -3.58333 -0.25 0
vt -3.58333 -1.71875 0
vt -3.52083 0.8125 0
vt -3.52083 0.416667 0
vt -0.354167 0.416667 0
vt -3.52083 0.354167 0
vt -1.82292 0.8125 0
vt -3.625 0.416667 0
vt 3.64583 -0.125 0
vt 3.64583 -0.25 0
vt 3.52083 -0.125 0
vt 1.71875 0.416667 0
vt 1.71875 0.354167 0
vt 0.25 0.416667 0
vt 3.52083 -0.25 0
vt 3.625 -0.25 0
vt 3.52083 0.354167 0
vt -0.354167 -0.145833 0
vt -0.25 0 0
vt -0.25 -0.25 0
vt -1.71875 1.41667 0
vt -0.25 0.8125 0
vt -0.25 -1.71875 0
vt 0.229167 -1.84375 0
vt 0.229167 -1.71875 0
vt 0.354167 -1.84375 0
vt -0.354167 -0.25 0
vt -0.354167 0.354167 0
vt -0.145833 0.416667 0
vt -0.354167 0.854167 0
vt -0.354167 -0.1875 0
vt 3.52083 -1.78125 0
vt 3.52083 -1.82292 0
vt 3.52083 -0.145833 0
vt -1.78125 0.8125 0
vt -1.71875 0.416667 0
vt -0.354167 0.8125 0
vt 0.25 0.354167 0
vt -1.71875 0.8125 0
vt -3.58333 0.8125 0
vt 0.229167 1.41667 0
vt 0.229167 0 0
vt 0.229167 -0.25 0
vt 0.229167 -0.125 0
vt 0.354167 -0.25 0
vt 0.354167 -0.125 0
vt -0.25 0.354167 0
vt -0.25 0.416667 0
vt -0.291667 -1.71875 0
vt -0.291667 -0.25 0
vt 0.354167 -1.71875 0
vt 0.354167 -1.82292 0
vt 0.354167 -1.78125 0
vt -0.145833 0.354167 0
vt 0.354167 -0.145833 0
vt 0.354167 0.354167 0
vt 0.354167 0 0
vt 0.25 -1.71875 0
vt 0.25 -0.25 0
vt 0.291667 -1.71875 0
vt -0.291667 0.8125 0
vt 0.354167 0.8125 0
vt 0.291667 -0.25 0
vt 0.354167 0.416667 0
vt 0.291667 0.8125 0

# 6 vertex normals
vn -0.0254 0 0
vn 0 0 -0.0254
vn 0 -0.0254 0
vn 0 0 0.0254
vn 0 0.0254 0
vn 0.0254 0 0

# Mesh 'mesh1_mesh1-geometry' with 206 faces
g mesh1_mesh1-geometry
usemtl material_0_1_8
f  1/1/1 2/2/1 3/3/1
f  2/2/1 1/1/1 4/4/1
f  2/5/2 5/6/2 3/7/2
f  3/8/3 6/9/3 1/10/3
f  1/11/4 7/12/4 4/13/4
f  7/14/5 2/15/5 4/16/5
f  5/6/2 2/5/2 8/17/2
f  5/18/3 9/19/3 3/8/3
f  3/8/3 9/19/3 6/9/3
f  10/20/3 1/10/3 6/9/3
f  7/12/4 1/11/4 11/21/4
f  2/15/5 7/14/5 8/22/5
f  8/17/2 12/1/2 5/6/2
f  9/19/3 5/18/3 13/23/3
f  6/24/2 9/25/2 14/26/2
f  15/27/3 1/10/3 10/20/3
f  6/28/1 14/29/1 10/30/1
f  13/23/3 11/31/3 1/10/3
f  11/21/4 16/4/4 7/12/4
f  16/32/5 8/22/5 7/14/5
f  12/1/2 8/17/2 17/4/2
f  12/33/3 18/34/3 5/18/3
f  5/18/3 19/35/3 11/31/3
f  11/31/3 13/23/3 5/18/3
f  9/19/3 13/23/3 20/36/3
f  21/37/2 14/26/2 9/25/2
f  22/38/3 1/10/3 15/27/3
f  23/39/3 15/27/3 10/20/3
f  23/40/4 10/41/4 24/42/4
f  25/43/1 10/30/1 14/29/1
f  13/23/3 1/10/3 22/38/3
f  16/4/4 11/21/4 26/1/4
f  8/22/5 16/32/5 17/33/5
f  16/4/6 12/44/6 17/45/6
f  18/34/3 12/33/3 27/46/3
f  5/18/3 18/34/3 19/35/3
f  28/47/3 11/31/3 19/35/3
f  13/48/6 29/49/6 20/50/6
f  9/19/3 20/36/3 30/51/3
f  21/52/3 31/53/3 14/54/3
f  9/55/6 32/56/6 21/57/6
f  9/55/6 33/58/6 32/56/6
f  9/19/3 34/59/3 33/60/3
f  15/61/1 35/62/1 22/63/1
f  15/27/3 23/39/3 36/64/3
f  24/42/4 10/41/4 37/65/4
f  23/30/1 24/66/1 36/61/1
f  10/41/4 25/67/4 38/68/4
f  25/69/3 14/54/3 31/53/3
f  13/70/4 22/41/4 29/71/4
f  27/46/3 26/32/3 11/31/3
f  12/44/6 16/4/6 26/1/6
f  26/32/3 27/46/3 12/33/3
f  18/34/3 27/46/3 39/72/3
f  19/73/2 18/74/2 40/75/2
f  41/76/3 11/31/3 28/47/3
f  42/56/1 28/58/1 19/55/1
f  20/50/6 29/49/6 43/77/6
f  9/19/3 30/51/3 44/78/3
f  31/79/6 21/57/6 32/56/6
f  45/80/6 32/56/6 33/58/6
f  9/19/3 46/81/3 34/59/3
f  36/82/2 47/83/2 15/24/2
f  48/84/1 22/63/1 35/62/1
f  15/24/2 49/85/2 35/26/2
f  37/65/4 10/41/4 38/68/4
f  50/86/4 24/42/4 37/65/4
f  24/87/3 51/88/3 52/89/3
f  51/90/4 24/42/4 53/91/4
f  47/92/1 36/61/1 24/66/1
f  31/71/4 38/68/4 25/67/4
f  48/67/4 29/71/4 22/41/4
f  27/46/3 11/31/3 54/93/3
f  27/48/6 55/49/6 39/94/6
f  18/34/3 39/72/3 56/95/3
f  57/96/2 40/75/2 18/74/2
f  40/57/1 42/56/1 19/55/1
f  58/97/3 11/31/3 41/76/3
f  28/58/1 42/56/1 59/80/1
f  43/77/6 29/49/6 60/98/6
f  43/99/4 61/73/4 20/25/4
f  9/19/3 44/78/3 46/81/3
f  62/100/6 31/79/6 32/56/6
f  46/81/3 63/101/3 64/102/3
f  33/25/2 28/73/2 65/103/2
f  45/104/2 59/105/2 32/106/2
f  65/107/6 45/80/6 33/58/6
f  47/83/2 66/108/2 15/24/2
f  48/109/3 35/110/3 29/111/3
f  49/85/2 67/106/2 35/26/2
f  66/108/2 49/85/2 15/24/2
f  37/112/1 38/113/1 66/114/1
f  50/86/4 53/91/4 24/42/4
f  37/39/5 66/64/5 50/81/5
f  52/89/3 51/88/3 68/115/3
f  47/116/3 24/87/3 52/89/3
f  53/53/3 68/115/3 51/88/3
f  38/68/4 31/71/4 62/117/4
f  54/93/3 11/31/3 61/118/3
f  69/75/4 27/74/4 54/73/4
f  70/119/6 39/94/6 55/49/6
f  27/74/4 69/75/4 55/96/4
f  71/120/3 56/95/3 39/72/3
f  56/121/6 72/79/6 18/55/6
f  73/122/4 56/74/4 74/94/4
f  56/95/3 71/120/3 74/123/3
f  57/124/3 72/125/3 40/126/3
f  57/57/6 18/55/6 72/79/6
f  42/56/1 40/57/1 75/79/1
f  76/127/3 11/31/3 58/97/3
f  42/128/2 32/106/2 59/105/2
f  28/58/1 59/80/1 77/107/1
f  60/98/6 29/49/6 78/129/6
f  60/103/4 79/130/4 43/99/4
f  43/99/4 79/130/4 61/73/4
f  61/118/3 11/31/3 80/131/3
f  63/101/3 46/81/3 44/78/3
f  32/60/3 67/78/3 62/81/3
f  81/132/3 65/133/3 60/134/3
f  81/135/6 50/136/6 65/107/6
f  77/137/2 65/103/2 28/73/2
f  50/81/5 82/78/5 45/60/5
f  45/80/6 65/107/6 50/136/6
f  45/60/5 78/36/5 59/47/5
f  68/103/2 66/108/2 47/83/2
f  83/115/3 29/111/3 35/110/3
f  83/37/2 35/26/2 67/106/2
f  49/64/3 62/81/3 67/78/3
f  49/138/1 66/114/1 38/113/1
f  62/81/3 49/64/3 38/39/3
f  53/139/6 50/136/6 81/135/6
f  82/78/5 50/81/5 66/64/5
f  52/140/2 68/103/2 47/83/2
f  68/115/3 53/53/3 60/134/3
f  61/50/1 69/49/1 54/48/1
f  39/141/2 84/92/2 71/61/2
f  70/142/2 85/138/2 39/141/2
f  70/143/3 55/144/3 86/145/3
f  69/146/3 86/145/3 55/144/3
f  87/147/4 72/96/4 56/74/4
f  88/148/4 56/74/4 73/122/4
f  73/139/6 74/121/6 84/122/6
f  71/94/6 84/122/6 74/121/6
f  76/127/3 89/149/3 90/150/3
f  89/149/3 76/127/3 58/97/3
f  75/151/3 40/126/3 72/125/3
f  42/56/1 75/79/1 91/100/1
f  80/131/3 11/31/3 76/127/3
f  77/152/3 92/153/3 65/133/3
f  77/107/1 93/136/1 92/135/1
f  91/97/3 94/36/3 42/47/3
f  42/47/3 94/36/3 32/60/3
f  93/136/1 77/107/1 59/80/1
f  78/129/6 29/49/6 94/154/6
f  60/98/6 78/129/6 68/122/6
f  79/130/4 60/103/4 95/137/4
f  79/77/1 69/49/1 61/50/1
f  32/60/3 94/36/3 67/78/3
f  60/134/3 65/133/3 95/155/3
f  53/53/3 81/132/3 60/134/3
f  82/78/5 78/36/5 45/60/5
f  59/47/5 78/36/5 93/97/5
f  82/104/2 66/108/2 68/103/2
f  83/119/6 67/147/6 29/49/6
f  39/141/2 96/114/2 84/92/2
f  70/142/2 97/156/2 85/138/2
f  39/141/2 85/138/2 96/114/2
f  97/156/2 70/142/2 86/157/2
f  69/49/1 97/147/1 86/119/1
f  72/96/4 87/147/4 75/75/4
f  87/147/4 56/74/4 88/148/4
f  88/148/4 73/122/4 93/105/4
f  73/158/3 84/159/3 98/160/3
f  99/137/4 73/122/4 98/161/4
f  91/128/4 75/75/4 87/147/4
f  99/151/3 65/133/3 92/153/3
f  92/135/1 93/136/1 99/139/1
f  97/127/3 94/36/3 91/97/3
f  94/154/6 29/49/6 67/147/6
f  94/117/4 100/156/4 78/86/4
f  82/148/6 68/122/6 78/129/6
f  95/98/1 69/49/1 79/77/1
f  95/155/3 65/133/3 101/145/3
f  93/97/5 78/36/5 102/127/5
f  84/92/2 96/114/2 101/162/2
f  97/127/3 87/123/3 85/120/3
f  96/148/6 85/147/6 88/136/6
f  97/147/1 69/49/1 100/154/1
f  87/100/6 88/136/6 85/147/6
f  73/122/4 99/137/4 93/105/4
f  93/97/5 102/127/5 88/123/5
f  103/163/3 98/160/3 84/159/3
f  99/151/3 98/160/3 103/163/3
f  87/123/3 97/127/3 91/97/3
f  101/145/3 65/133/3 99/151/3
f  94/36/3 97/127/3 100/118/3
f  104/164/4 78/86/4 100/156/4
f  104/129/1 69/49/1 95/98/1
f  101/122/1 104/129/1 95/98/1
f  104/118/5 102/127/5 78/36/5
f  101/162/2 96/114/2 102/164/2
f  84/92/2 101/162/2 103/165/2
f  96/120/5 88/123/5 102/127/5
f  100/154/1 69/49/1 104/129/1
f  101/145/3 99/151/3 103/163/3
f  104/129/1 101/122/1 102/148/1

# Mesh 'mesh1_mesh1-geometry' with 460 faces
g mesh1_mesh1-geometry
usemtl material_1_24
f  3//6 2//6 1//6
f  4//6 1//6 2//6
f  3//4 5//4 2//4
f  1//5 6//5 3//5
f  4//2 7//2 1//2
f  4//3 2//3 7//3
f  8//4 2//4 5//4
f  3//5 9//5 5//5
f  6//5 9//5 3//5
f  6//5 1//5 10//5
f  11//2 1//2 7//2
f  8//3 7//3 2//3
f  5//4 12//4 8//4
f  11//1 8//1 5//1
f  5//6 8//6 11//6
f  13//5 5//5 9//5
f  14//4 9//4 6//4
f  9//3 64//3 6//3
f  6//5 64//5 9//5
f  10//5 1//5 15//5
f  6//3 23//3 10//3
f  10//5 23//5 6//5
f  10//6 14//6 6//6
f  1//5 11//5 13//5
f  7//2 16//2 11//2
f  8//1 11//1 7//1
f  7//6 11//6 8//6
f  7//3 8//3 16//3
f  17//4 8//4 12//4
f  5//5 18//5 12//5
f  11//5 19//5 5//5
f  5//5 13//5 11//5
f  20//5 13//5 9//5
f  9//4 14//4 21//4
f  33//3 64//3 9//3
f  9//5 64//5 33//5
f  6//3 64//3 23//3
f  23//5 64//5 6//5
f  15//5 1//5 22//5
f  10//5 15//5 23//5
f  24//2 10//2 23//2
f  14//6 10//6 25//6
f  22//5 1//5 13//5
f  26//2 11//2 16//2
f  17//3 16//3 8//3
f  17//1 12//1 16//1
f  27//5 12//5 18//5
f  19//5 18//5 5//5
f  19//5 11//5 28//5
f  22//3 20//3 13//3
f  13//5 20//5 22//5
f  20//1 29//1 13//1
f  30//5 20//5 9//5
f  14//5 31//5 21//5
f  21//1 32//1 9//1
f  34//3 64//3 33//3
f  33//5 64//5 34//5
f  32//1 33//1 9//1
f  33//5 34//5 9//5
f  105//2 23//2 64//2
f  64//4 23//4 105//4
f  64//3 36//3 23//3
f  23//5 36//5 64//5
f  36//3 22//3 15//3
f  15//5 22//5 36//5
f  22//6 35//6 15//6
f  36//5 23//5 15//5
f  37//2 10//2 24//2
f  23//2 51//2 24//2
f  24//4 51//4 23//4
f  36//6 24//6 23//6
f  38//2 25//2 10//2
f  31//5 14//5 25//5
f  29//2 22//2 13//2
f  11//5 26//5 27//5
f  26//1 16//1 12//1
f  12//5 27//5 26//5
f  39//5 27//5 18//5
f  18//3 74//3 19//3
f  19//5 74//5 18//5
f  40//4 18//4 19//4
f  28//5 11//5 41//5
f  19//3 41//3 28//3
f  28//5 41//5 19//5
f  19//6 28//6 42//6
f  20//3 22//3 30//3
f  30//5 22//5 20//5
f  43//1 29//1 20//1
f  80//3 20//3 30//3
f  30//5 20//5 80//5
f  30//1 43//1 20//1
f  20//6 43//6 30//6
f  44//5 30//5 9//5
f  32//1 21//1 31//1
f  64//3 34//3 46//3
f  46//5 34//5 64//5
f  33//1 81//1 34//1
f  34//6 81//6 33//6
f  28//3 34//3 33//3
f  33//5 34//5 28//5
f  33//1 32//1 45//1
f  34//5 46//5 9//5
f  51//2 23//2 105//2
f  105//4 23//4 51//4
f  64//2 106//2 105//2
f  105//4 106//4 64//4
f  63//6 105//6 64//6
f  64//1 105//1 63//1
f  36//3 64//3 63//3
f  63//5 64//5 36//5
f  63//3 22//3 36//3
f  36//5 22//5 63//5
f  15//4 47//4 36//4
f  35//6 22//6 48//6
f  35//4 49//4 15//4
f  38//2 10//2 37//2
f  37//2 24//2 50//2
f  52//5 51//5 24//5
f  53//2 24//2 51//2
f  24//6 36//6 47//6
f  25//2 38//2 31//2
f  22//2 29//2 48//2
f  54//5 11//5 27//5
f  54//3 39//3 27//3
f  27//5 39//5 54//5
f  39//1 55//1 27//1
f  56//5 39//5 18//5
f  74//3 18//3 56//3
f  56//5 18//5 74//5
f  19//3 74//3 89//3
f  89//5 74//5 19//5
f  18//4 40//4 57//4
f  19//6 42//6 40//6
f  41//5 11//5 58//5
f  28//1 92//1 41//1
f  41//6 92//6 28//6
f  34//3 28//3 41//3
f  41//5 28//5 34//5
f  19//3 58//3 41//3
f  41//5 58//5 19//5
f  59//6 42//6 28//6
f  30//3 22//3 44//3
f  44//5 22//5 30//5
f  60//1 29//1 43//1
f  20//2 61//2 43//2
f  20//3 80//3 61//3
f  61//5 80//5 20//5
f  107//4 80//4 30//4
f  30//2 80//2 107//2
f  43//1 30//1 107//1
f  107//6 30//6 43//6
f  44//1 107//1 30//1
f  30//6 107//6 44//6
f  46//5 44//5 9//5
f  32//1 31//1 62//1
f  34//1 106//1 46//1
f  46//6 106//6 34//6
f  106//2 64//2 46//2
f  46//4 64//4 106//4
f  64//5 63//5 46//5
f  81//1 33//1 65//1
f  65//6 33//6 81//6
f  34//1 81//1 108//1
f  108//6 81//6 34//6
f  65//4 28//4 33//4
f  50//6 32//6 45//6
f  45//1 32//1 50//1
f  32//4 59//4 45//4
f  33//1 45//1 65//1
f  105//2 53//2 51//2
f  51//4 53//4 105//4
f  53//2 105//2 106//2
f  106//4 105//4 53//4
f  105//5 109//5 106//5
f  106//3 109//3 105//3
f  105//6 63//6 110//6
f  110//1 63//1 105//1
f  36//4 110//4 63//4
f  63//2 110//2 36//2
f  44//3 22//3 63//3
f  63//5 22//5 44//5
f  15//4 66//4 47//4
f  47//4 110//4 36//4
f  36//2 110//2 47//2
f  29//5 35//5 48//5
f  35//4 67//4 49//4
f  15//4 49//4 66//4
f  37//2 62//2 38//2
f  38//4 62//4 37//4
f  66//6 38//6 37//6
f  24//2 53//2 50//2
f  62//2 37//2 50//2
f  50//4 37//4 62//4
f  50//3 66//3 37//3
f  68//5 51//5 52//5
f  52//5 24//5 47//5
f  51//5 68//5 53//5
f  62//2 31//2 38//2
f  61//5 11//5 54//5
f  54//2 27//2 69//2
f  39//3 54//3 71//3
f  71//5 54//5 39//5
f  55//1 39//1 70//1
f  55//2 69//2 27//2
f  39//5 56//5 71//5
f  18//1 72//1 56//1
f  74//2 56//2 73//2
f  74//5 71//5 56//5
f  111//4 74//4 89//4
f  89//2 74//2 111//2
f  74//3 90//3 89//3
f  89//5 90//5 74//5
f  19//3 89//3 58//3
f  58//5 89//5 19//5
f  40//5 72//5 57//5
f  72//1 18//1 57//1
f  75//6 40//6 42//6
f  58//5 11//5 76//5
f  41//1 112//1 58//1
f  58//6 112//6 41//6
f  92//1 28//1 77//1
f  77//6 28//6 92//6
f  41//1 92//1 113//1
f  113//6 92//6 41//6
f  108//4 41//4 34//4
f  34//2 41//2 108//2
f  91//1 59//1 42//1
f  42//6 59//6 91//6
f  59//4 32//4 42//4
f  77//6 59//6 28//6
f  78//1 29//1 60//1
f  107//1 60//1 43//1
f  43//6 60//6 107//6
f  43//2 79//2 60//2
f  61//2 79//2 43//2
f  76//3 61//3 80//3
f  80//5 61//5 76//5
f  80//1 79//1 61//1
f  61//6 79//6 80//6
f  80//5 11//5 61//5
f  80//4 107//4 114//4
f  114//2 107//2 80//2
f  107//1 44//1 109//1
f  109//6 44//6 107//6
f  44//5 46//5 63//5
f  62//5 67//5 32//5
f  32//6 50//6 62//6
f  62//1 50//1 32//1
f  106//1 34//1 108//1
f  108//6 34//6 106//6
f  60//5 65//5 81//5
f  65//1 50//1 81//1
f  53//1 108//1 81//1
f  81//6 108//6 53//6
f  28//4 65//4 77//4
f  45//3 82//3 50//3
f  50//1 65//1 45//1
f  59//3 78//3 45//3
f  108//1 53//1 106//1
f  106//6 53//6 108//6
f  109//5 105//5 110//5
f  110//3 105//3 109//3
f  107//5 106//5 109//5
f  109//3 106//3 107//3
f  110//4 44//4 63//4
f  63//2 44//2 110//2
f  47//4 66//4 68//4
f  110//4 47//4 52//4
f  52//2 47//2 110//2
f  35//5 29//5 83//5
f  67//4 35//4 83//4
f  67//5 62//5 49//5
f  82//4 49//4 67//4
f  67//2 49//2 82//2
f  38//6 66//6 49//6
f  49//4 82//4 66//4
f  66//2 82//2 49//2
f  38//5 49//5 62//5
f  81//1 50//1 53//1
f  66//3 50//3 82//3
f  47//4 68//4 52//4
f  109//4 52//4 68//4
f  68//2 52//2 109//2
f  60//5 53//5 68//5
f  76//3 54//3 61//3
f  61//5 54//5 76//5
f  54//6 69//6 61//6
f  71//3 54//3 90//3
f  90//5 54//5 71//5
f  71//4 84//4 39//4
f  39//4 85//4 70//4
f  86//5 55//5 70//5
f  55//5 86//5 69//5
f  56//2 72//2 87//2
f  73//2 56//2 88//2
f  74//4 98//4 73//4
f  73//2 98//2 74//2
f  84//1 74//1 73//1
f  74//1 84//1 71//1
f  90//3 74//3 71//3
f  71//5 74//5 90//5
f  98//4 74//4 111//4
f  111//2 74//2 98//2
f  90//6 111//6 89//6
f  89//1 111//1 90//1
f  89//4 112//4 111//4
f  111//2 112//2 89//2
f  90//5 89//5 76//5
f  112//4 89//4 58//4
f  58//2 89//2 112//2
f  58//5 76//5 89//5
f  72//5 40//5 75//5
f  91//6 75//6 42//6
f  76//5 11//5 80//5
f  112//1 41//1 113//1
f  113//6 41//6 112//6
f  65//5 92//5 77//5
f  92//6 93//6 77//6
f  99//1 113//1 92//1
f  92//6 113//6 99//6
f  41//4 108//4 113//4
f  113//2 108//2 41//2
f  59//1 91//1 93//1
f  93//6 91//6 59//6
f  42//5 94//5 91//5
f  32//5 94//5 42//5
f  59//6 77//6 93//6
f  94//1 29//1 78//1
f  68//1 78//1 60//1
f  109//1 60//1 107//1
f  107//6 60//6 109//6
f  95//2 60//2 79//2
f  61//6 69//6 79//6
f  76//1 114//1 80//1
f  80//6 114//6 76//6
f  79//1 80//1 114//1
f  114//6 80//6 79//6
f  114//5 108//5 107//5
f  107//3 108//3 114//3
f  44//4 110//4 109//4
f  109//2 110//2 44//2
f  67//5 94//5 32//5
f  107//5 108//5 106//5
f  106//3 108//3 107//3
f  95//5 65//5 60//5
f  60//5 81//5 53//5
f  45//3 78//3 82//3
f  93//3 78//3 59//3
f  52//4 109//4 110//4
f  110//2 109//2 52//2
f  68//4 66//4 82//4
f  29//1 67//1 83//1
f  94//1 82//1 67//1
f  67//6 82//6 94//6
f  60//1 109//1 68//1
f  68//6 109//6 60//6
f  90//3 54//3 76//3
f  76//5 54//5 90//5
f  71//2 115//2 90//2
f  90//4 115//4 71//4
f  84//4 96//4 39//4
f  84//2 116//2 71//2
f  71//4 116//4 84//4
f  85//4 97//4 70//4
f  96//4 85//4 39//4
f  86//4 70//4 97//4
f  86//6 97//6 69//6
f  75//2 87//2 72//2
f  88//2 56//2 87//2
f  93//2 73//2 88//2
f  98//5 84//5 73//5
f  98//2 73//2 99//2
f  111//4 99//4 98//4
f  98//2 99//2 111//2
f  111//6 90//6 115//6
f  115//1 90//1 111//1
f  99//4 111//4 112//4
f  112//2 111//2 99//2
f  112//5 116//5 111//5
f  111//3 116//3 112//3
f  115//2 76//2 90//2
f  90//4 76//4 115//4
f  87//2 75//2 91//2
f  113//1 99//1 112//1
f  112//6 99//6 113//6
f  108//5 112//5 113//5
f  113//3 112//3 108//3
f  92//5 65//5 99//5
f  99//6 93//6 92//6
f  91//4 88//4 93//4
f  93//2 88//2 91//2
f  91//5 94//5 97//5
f  67//1 29//1 94//1
f  78//2 100//2 94//2
f  82//1 94//1 78//1
f  78//6 94//6 82//6
f  78//1 68//1 82//1
f  79//6 69//6 95//6
f  114//1 95//1 79//1
f  79//6 95//6 114//6
f  114//1 76//1 117//1
f  117//6 76//6 114//6
f  117//5 108//5 114//5
f  114//3 108//3 117//3
f  101//5 65//5 95//5
f  102//3 78//3 93//3
f  71//2 116//2 115//2
f  115//4 116//4 71//4
f  101//4 96//4 84//4
f  116//2 84//2 103//2
f  103//4 84//4 116//4
f  85//5 87//5 97//5
f  102//2 85//2 97//2
f  97//4 85//4 102//4
f  85//2 102//2 96//2
f  96//4 102//4 85//4
f  88//1 85//1 96//1
f  100//6 69//6 97//6
f  88//4 91//4 87//4
f  87//2 91//2 88//2
f  85//1 88//1 87//1
f  93//2 99//2 73//2
f  88//3 102//3 93//3
f  84//5 98//5 103//5
f  103//5 98//5 99//5
f  116//6 111//6 115//6
f  115//1 111//1 116//1
f  116//5 112//5 117//5
f  117//3 112//3 116//3
f  116//2 76//2 115//2
f  115//4 76//4 116//4
f  91//5 97//5 87//5
f  112//5 108//5 117//5
f  117//3 108//3 112//3
f  99//5 65//5 101//5
f  100//5 97//5 94//5
f  100//2 78//2 104//2
f  95//6 69//6 104//6
f  117//1 95//1 114//1
f  114//6 95//6 117//6
f  76//2 116//2 117//2
f  117//4 116//4 76//4
f  95//6 104//6 101//6
f  95//1 117//1 101//1
f  101//6 117//6 95//6
f  78//3 102//3 104//3
f  102//4 96//4 101//4
f  103//4 101//4 84//4
f  103//2 117//2 116//2
f  116//4 117//4 103//4
f  100//1 102//1 97//1
f  97//6 102//6 100//6
f  102//3 88//3 96//3
f  104//6 69//6 100//6
f  103//5 99//5 101//5
f  102//1 100//1 104//1
f  104//6 100//6 102//6
f  102//6 101//6 104//6
f  117//2 103//2 101//2
f  101//4 103//4 117//4

# Mesh 'mesh2_mesh2-geometry' with 55 faces
g mesh2_mesh2-geometry
usemtl material_1_0
l  44 109
l  63 44
l  109 68
l  110 109
l  107 109
l  36 63
l  64 63
l  63 110
l  110 52
l  105 110
l  43 107
l  107 30
l  114 107
l  23 64
l  64 46
l  64 105
l  105 51
l  106 105
l  30 80
l  117 114
l  114 79
l  80 114
l  34 46
l  106 46
l  53 106
l  106 108
l  80 61
l  117 76
l  101 117
l  116 117
l  33 34
l  41 34
l  34 108
l  108 81
l  113 108
l  76 90
l  116 103
l  115 116
l  111 116
l  28 41
l  41 58
l  41 113
l  113 92
l  113 112
l  90 71
l  90 89
l  90 115
l  115 111
l  89 111
l  111 98
l  112 111
l  58 112
l  89 58
l  112 99
l  74 89

# Mesh 'mesh3_mesh3-geometry' with 1 faces
g mesh3_mesh3-geometry
usemtl material_1_0
l  97 102

# Mesh 'mesh4_mesh4-geometry' with 1 faces
g mesh4_mesh4-geometry
usemtl material_1_0
l  93 91

# Mesh 'mesh5_mesh5-geometry' with 1 faces
g mesh5_mesh5-geometry
usemtl material_1_0
l  50 62

# Mesh 'mesh6_mesh6-geometry' with 1 faces
g mesh6_mesh6-geometry
usemtl material_1_0
l  67 82

