# File produced by Open Asset Import Library (http://www.assimp.sf.net)
# (assimp v3.2.202087883)

mtllib model_normalized.mtl

# 71 vertex positions
v 0.013477 0.232326 -0.070313
v 0.035283 0.216484 -0.000977
v 0.035283 0.216484 -0.070313
v 0.013477 0.232326 -0.000977
v 0.043612 0.190849 -0.070313
v 0.055708 0.362300 -0.263462
v -0.013477 0.232326 -0.070313
v -0.035283 0.216484 -0.000977
v 0.043612 0.190849 -0.000977
v 0.180274 0.190849 -0.263462
v -0.035283 0.216484 -0.070313
v 0.145845 0.296811 -0.263462
v -0.055708 0.362300 -0.263462
v -0.013477 0.232326 -0.000977
v -0.043612 0.190849 -0.000977
v 0.035283 0.165214 -0.070313
v 0.145845 0.084887 -0.263462
v -0.043612 0.190849 -0.070313
v -0.035283 0.165214 -0.000977
v 0.035283 0.165214 -0.000977
v -0.145845 0.296811 -0.263462
v 0.013477 0.149372 -0.000977
v 0.055708 0.019398 -0.263462
v -0.035283 0.165214 -0.070313
v -0.180274 0.190849 -0.263462
v -0.013477 0.149372 -0.000977
v 0.013477 0.149372 -0.070313
v -0.013477 0.149372 -0.070313
v -0.055708 0.019398 -0.263462
v -0.145845 0.084887 -0.263462
v -0.022109 0.225160 0.068359
v -0.022109 0.156535 0.068359
v -0.022109 0.190849 0.048549
v -0.022109 0.225160 0.107980
v -0.022109 0.156535 0.107980
v -0.022109 0.190849 0.127790
v 0.022109 0.225160 0.068359
v 0.022109 0.156535 0.068359
v 0.022109 0.190849 0.048549
v 0.022109 0.225160 0.107980
v 0.022109 0.156535 0.107980
v 0.022109 0.190849 0.127790
v 0.113045 -0.443082 0.124900
v 0.069865 -0.443082 -0.007992
v 0.113045 -0.443082 0.051439
v 0.069865 -0.443082 0.184331
v 0.113045 -0.363840 0.051439
v 0.113045 -0.363840 0.124900
v 0.069865 -0.363840 0.184331
v -0.000000 -0.443082 -0.030692
v 0.069865 -0.363840 -0.007992
v -0.000000 -0.443082 0.207032
v -0.000000 -0.363840 -0.030692
v -0.000000 -0.363840 0.207032
v -0.069865 -0.443082 -0.007992
v -0.069865 -0.363840 -0.007992
v 0.017156 -0.363840 0.078265
v -0.069865 -0.443082 0.184331
v -0.017156 -0.363840 0.078265
v -0.000000 -0.363840 0.107980
v -0.069865 -0.363840 0.184331
v -0.113045 -0.443082 0.051439
v -0.113045 -0.363840 0.124900
v -0.113045 -0.443082 0.124900
v -0.113045 -0.363840 0.051439
v -0.000000 0.210659 0.107980
v -0.017156 0.180944 0.078265
v 0.017156 0.180944 0.078265
v 0.017156 0.180944 -0.000977
v -0.000000 0.210659 -0.000977
v -0.017156 0.180944 -0.000977

# 0 UV coordinates

# 50 vertex normals
vn 0.00784903 0.0241568 0
vn 0.020549 0.0149297 0
vn -0.020549 -0.0149297 0
vn -0.00784903 -0.0241568 0
vn 0.0254 0 0
vn -0.0254 0 0
vn 0.0167748 0.0121876 0.0146707
vn 0.0064074 0.01972 0.0146707
vn -0.0064074 -0.01972 -0.0146707
vn -0.0167748 -0.0121876 -0.0146707
vn 0 0 -0.0254
vn -0.00784903 0.0241568 0
vn 0.00784903 -0.0241568 0
vn 0 0 0.0254
vn 0.0207348 0 0.0146707
vn -0.0207348 0 -0.0146707
vn -0.0064074 0.01972 0.0146707
vn 0.0064074 -0.01972 -0.0146707
vn 0.020549 -0.0149297 0
vn -0.020549 0.0149297 0
vn 0.0167748 -0.0121876 0.0146707
vn -0.0167748 0.0121876 -0.0146707
vn -0.0167748 0.0121876 0.0146707
vn 0.0167748 -0.0121876 -0.0146707
vn -0.0207348 0 0.0146707
vn 0.0207348 -0 -0.0146707
vn 0.0064074 -0.01972 0.0146707
vn -0.0064074 0.01972 -0.0146707
vn -0.0167748 -0.0121876 0.0146707
vn 0.0167748 0.0121876 -0.0146707
vn -0.0064074 -0.01972 0.0146707
vn 0.0064074 0.01972 -0.0146707
vn 0 -0.0254 0
vn 0 0.0254 0
vn -0.0241568 0 0.00784903
vn -0.0149297 0 0.020549
vn -0.0241568 0 -0.00784903
vn -0.0149297 0 -0.020549
vn 0.0149297 0 0.020549
vn 0.0149297 -0 -0.020549
vn 0.0241568 0 0.00784903
vn 0.0241568 -0 -0.00784903
vn 0.021997 -0 -0.0127
vn -0.021997 0 0.0127
vn -0.021997 0 -0.0127
vn 0.021997 0 0.0127
vn 0.021997 -0.0127 -0
vn -0.021997 0.0127 0
vn -0.021997 -0.0127 0
vn 0.021997 0.0127 0

# Mesh 'mesh1_mesh1-geometry' with 104 faces
g mesh1_mesh1-geometry
usemtl material_0_24
f  1//1 2//2 3//2
f  2//2 1//1 4//1
f  3//3 2//3 1//4
f  4//4 1//4 2//3
f  2//2 5//5 3//2
f  3//3 5//6 2//3
f  3//7 6//8 1//8
f  1//9 6//9 3//10
f  3//11 7//11 1//11
f  7//12 4//1 1//1
f  1//4 4//4 7//13
f  8//14 2//14 4//14
f  4//11 2//11 8//11
f  5//5 2//2 9//5
f  9//6 2//3 5//6
f  10//15 3//7 5//15
f  5//16 3//10 10//16
f  5//11 11//11 3//11
f  6//8 3//7 12//7
f  12//10 3//10 6//9
f  13//17 1//8 6//8
f  6//9 1//9 13//18
f  3//11 11//11 7//11
f  1//8 13//17 7//17
f  7//18 13//18 1//9
f  4//1 7//12 14//12
f  14//13 7//13 4//4
f  15//14 2//14 8//14
f  8//11 2//11 15//11
f  8//14 4//14 14//14
f  14//11 4//11 8//11
f  15//14 9//14 2//14
f  2//11 9//11 15//11
f  9//5 16//19 5//5
f  5//6 16//20 9//6
f  3//7 10//15 12//7
f  12//10 10//16 3//10
f  5//15 17//21 10//15
f  10//16 17//22 5//16
f  5//11 18//11 11//11
f  11//20 14//12 7//12
f  7//13 14//13 11//19
f  13//17 11//23 7//17
f  7//18 11//24 13//18
f  11//20 15//6 8//20
f  8//19 15//5 11//19
f  14//12 11//20 8//20
f  8//19 11//19 14//13
f  19//14 9//14 15//14
f  15//11 9//11 19//11
f  16//19 9//5 20//19
f  20//20 9//6 16//20
f  17//21 5//15 16//21
f  16//22 5//16 17//22
f  16//11 18//11 5//11
f  15//6 11//20 18//6
f  18//5 11//19 15//5
f  21//23 18//25 11//23
f  11//24 18//26 21//24
f  11//23 13//17 21//23
f  21//24 13//18 11//24
f  19//14 20//14 9//14
f  9//11 20//11 19//11
f  18//6 19//3 15//6
f  15//5 19//2 18//5
f  22//13 16//19 20//19
f  20//20 16//20 22//12
f  16//21 23//27 17//21
f  17//22 23//28 16//22
f  16//11 24//11 18//11
f  18//25 21//23 25//25
f  25//26 21//24 18//26
f  26//14 20//14 19//14
f  19//11 20//11 26//11
f  19//3 18//6 24//3
f  24//2 18//5 19//2
f  16//19 22//13 27//13
f  27//12 22//12 16//20
f  20//14 26//14 22//14
f  22//11 26//11 20//11
f  23//27 16//21 27//27
f  27//28 16//22 23//28
f  27//11 24//11 16//11
f  25//25 24//29 18//25
f  18//26 24//30 25//26
f  19//3 28//4 26//4
f  26//1 28//1 19//2
f  28//4 19//3 24//3
f  24//2 19//2 28//1
f  26//4 27//13 22//13
f  22//12 27//12 26//1
f  27//27 29//31 23//27
f  23//28 29//32 27//28
f  24//11 27//11 28//11
f  24//29 25//25 30//29
f  30//30 25//26 24//30
f  27//13 26//4 28//4
f  28//1 26//1 27//12
f  24//29 29//31 28//31
f  28//32 29//32 24//30
f  29//31 27//27 28//31
f  28//32 27//28 29//32
f  29//31 24//29 30//29
f  30//30 24//30 29//32

# Mesh 'mesh1_mesh1-geometry' with 8 faces
g mesh1_mesh1-geometry
usemtl material_1_24
f  1//14 7//14 3//14
f  3//14 11//14 5//14
f  7//14 11//14 3//14
f  11//14 18//14 5//14
f  5//14 18//14 16//14
f  18//14 24//14 16//14
f  16//14 24//14 27//14
f  28//14 27//14 24//14

# Mesh 'mesh2_mesh2-geometry' with 8 faces
g mesh2_mesh2-geometry
usemtl material_0_24
f  31//5 32//5 33//5
f  32//5 31//5 34//5
f  33//6 32//6 31//6
f  34//6 31//6 32//6
f  32//5 34//5 35//5
f  35//6 34//6 32//6
f  35//5 34//5 36//5
f  36//6 34//6 35//6

# Mesh 'mesh2_mesh2-geometry' with 8 faces
g mesh2_mesh2-geometry
usemtl material_0_24
f  37//5 38//5 39//5
f  38//5 37//5 40//5
f  39//6 38//6 37//6
f  40//6 37//6 38//6
f  38//5 40//5 41//5
f  41//6 40//6 38//6
f  41//5 40//5 42//5
f  42//6 40//6 41//6

# Mesh 'mesh3_mesh3-geometry' with 49 faces
g mesh3_mesh3-geometry
usemtl material_1_24
f  43//33 44//33 45//33
f  44//33 43//33 46//33
f  45//34 44//34 43//34
f  46//34 43//34 44//34
f  45//35 47//35 44//36
f  43//37 48//37 45//35
f  46//38 49//38 43//37
f  44//33 46//33 50//33
f  50//34 46//34 44//34
f  51//36 44//36 47//35
f  47//35 45//35 48//37
f  48//37 43//37 49//38
f  46//38 52//11 49//38
f  50//33 46//33 52//33
f  52//34 46//34 50//34
f  50//14 44//36 53//14
f  51//36 53//14 44//36
f  47//33 48//33 51//33
f  49//33 51//33 48//33
f  54//11 49//38 52//11
f  50//33 52//33 55//33
f  55//34 52//34 50//34
f  53//14 56//39 50//14
f  53//33 51//33 49//33
f  49//33 54//33 57//33
f  52//11 58//40 54//11
f  55//33 52//33 58//33
f  58//34 52//34 55//34
f  55//39 50//14 56//39
f  56//33 53//33 59//33
f  57//33 53//33 49//33
f  60//33 57//33 54//33
f  61//40 54//11 58//40
f  55//33 58//33 62//33
f  62//34 58//34 55//34
f  55//39 56//39 62//41
f  59//33 53//33 57//33
f  56//33 59//33 61//33
f  59//33 60//33 54//33
f  61//33 59//33 54//33
f  61//40 58//40 63//42
f  62//33 58//33 64//33
f  64//34 58//34 62//34
f  65//41 62//41 56//39
f  65//33 56//33 61//33
f  64//42 63//42 58//40
f  63//33 65//33 61//33
f  62//41 65//41 64//42
f  63//42 64//42 65//41

# Mesh 'mesh3_mesh3-geometry' with 57 faces
g mesh3_mesh3-geometry
usemtl material_0_24
f  44//40 47//42 45//42
f  45//42 48//41 43//41
f  43//41 49//39 46//39
f  47//42 44//40 51//40
f  48//41 45//42 47//42
f  49//39 43//41 48//41
f  49//39 52//14 46//39
f  53//11 44//40 50//11
f  44//40 53//11 51//40
f  51//34 48//34 47//34
f  48//34 51//34 49//34
f  52//14 49//39 54//14
f  50//11 56//38 53//11
f  49//34 51//34 53//34
f  57//34 54//34 49//34
f  54//14 58//36 52//14
f  56//38 50//11 55//38
f  59//34 53//34 56//34
f  49//34 53//34 57//34
f  54//34 57//34 60//34
f  58//36 54//14 61//36
f  62//37 56//38 55//38
f  57//34 53//34 59//34
f  61//34 59//34 56//34
f  57//43 66//14 60//14
f  60//11 66//11 57//44
f  54//34 60//34 59//34
f  54//34 59//34 61//34
f  63//35 58//36 61//36
f  56//38 62//37 65//37
f  67//45 57//43 59//45
f  59//46 57//44 67//46
f  61//34 56//34 65//34
f  66//14 57//43 68//43
f  68//44 57//44 66//11
f  67//45 60//14 66//14
f  66//11 60//11 67//46
f  60//14 67//45 59//45
f  59//46 67//46 60//11
f  58//36 63//35 64//35
f  61//34 65//34 63//34
f  64//35 65//37 62//37
f  57//43 67//45 68//43
f  68//44 67//46 57//44
f  69//47 66//34 68//47
f  68//48 66//33 69//48
f  70//34 67//49 66//34
f  66//33 67//50 70//33
f  65//37 64//35 63//35
f  67//49 69//47 68//47
f  68//48 69//48 67//50
f  66//34 69//47 70//34
f  70//33 69//48 66//33
f  67//49 70//34 71//49
f  71//50 70//33 67//50
f  69//47 67//49 71//49
f  71//50 67//50 69//48

# Mesh 'mesh4_mesh4-geometry' with 10 faces
g mesh4_mesh4-geometry
usemtl material_1_0
l  50 55
l  44 50
l  55 62
l  45 44
l  62 64
l  43 45
l  64 58
l  46 43
l  58 52
l  52 46

