# File produced by Open Asset Import Library (http://www.assimp.sf.net)
# (assimp v3.2.202087883)

mtllib model_normalized.mtl

# 48 vertex positions
v -0.249591 -0.249591 0.028619
v -0.176487 -0.305684 -0.028619
v -0.176487 -0.305684 0.028619
v -0.249591 -0.249591 -0.028619
v -0.091356 -0.340946 -0.028619
v 0.176487 -0.305684 0.028619
v -0.305684 -0.176487 -0.028619
v -0.091356 -0.340946 0.028619
v 0.091356 -0.340946 0.028619
v 0.249591 -0.249591 0.028619
v -0.305684 -0.176487 0.028619
v -0.000000 -0.352974 -0.028619
v 0.176487 -0.305684 -0.028619
v 0.249591 -0.249591 -0.028619
v -0.340947 -0.091356 -0.028619
v 0.091356 -0.340946 -0.028619
v -0.000000 -0.352974 0.028619
v 0.305684 -0.176487 0.028619
v -0.340947 -0.091356 0.028619
v 0.305684 -0.176487 -0.028619
v -0.352974 0.000000 -0.028619
v 0.340946 -0.091356 0.028619
v -0.352974 0.000000 0.028619
v 0.340946 -0.091356 -0.028619
v -0.340947 0.091356 -0.028619
v 0.352974 0.000000 0.028619
v -0.340947 0.091356 0.028619
v 0.352974 0.000000 -0.028619
v -0.305684 0.176487 -0.028619
v 0.340946 0.091356 0.028619
v -0.305684 0.176487 0.028619
v 0.340946 0.091356 -0.028619
v -0.249591 0.249591 -0.028619
v 0.305684 0.176487 0.028619
v -0.249591 0.249591 0.028619
v 0.305684 0.176487 -0.028619
v -0.176487 0.305684 0.028619
v 0.249591 0.249591 0.028619
v -0.176487 0.305684 -0.028619
v 0.176487 0.305684 0.028619
v 0.249591 0.249591 -0.028619
v -0.091356 0.340947 0.028619
v 0.091356 0.340947 0.028619
v 0.176487 0.305684 -0.028619
v -0.091356 0.340947 -0.028619
v 0.091356 0.340947 -0.028619
v -0.000000 0.352974 0.028619
v -0.000000 0.352974 -0.028619

# 25 UV coordinates
vt 0 0 0
vt 0.268773 0.127598 0
vt 0.709732 0.127598 0
vt 0.801057 0.197674 0
vt 0.375124 0.083546 0
vt 0.603381 0.083546 0
vt 0.177448 0.197674 0
vt 0.871134 0.289 0
vt 0.489253 0.06852 0
vt 0.107371 0.289 0
vt 0.915186 0.39535 0
vt 0.063319 0.39535 0
vt 0.930211 0.509479 0
vt 0.048294 0.509479 0
vt 0.915186 0.623607 0
vt 0.063319 0.623607 0
vt 0.871134 0.729958 0
vt 0.107371 0.729958 0
vt 0.801058 0.821284 0
vt 0.177448 0.821284 0
vt 0.709732 0.89136 0
vt 0.268773 0.89136 0
vt 0.603381 0.935412 0
vt 0.375124 0.935412 0
vt 0.489253 0.950438 0

# 26 vertex normals
vn -0.00707107 -0.00707107 0
vn -0.005 -0.00866025 0
vn 0.005 0.00866025 0
vn 0.00707107 0.00707107 0
vn -0.00258819 -0.00965926 0
vn 0.00258819 0.00965926 0
vn 0 0 0.01
vn 0 -0 -0.01
vn -0.00866025 -0.005 0
vn 0.00866025 0.005 0
vn 0 -0.01 0
vn 0 0.01 0
vn 0.00258819 -0.00965926 0
vn 0.005 -0.00866025 0
vn -0.005 0.00866025 0
vn -0.00258819 0.00965926 0
vn 0.00707107 -0.00707107 0
vn -0.00707107 0.00707107 0
vn -0.00965926 -0.00258819 0
vn 0.00965926 0.00258819 0
vn 0.00866025 -0.005 0
vn -0.00866025 0.005 0
vn -0.01 0 0
vn 0.01 0 0
vn 0.00965926 -0.00258819 0
vn -0.00965926 0.00258819 0

# Mesh 'mesh1_mesh1-geometry' with 140 faces
g mesh1_mesh1-geometry
usemtl material_0_24
f  1/1/1 2/1/2 3/1/2
f  2/1/2 1/1/1 4/1/1
f  3/1/3 2/1/3 1/1/4
f  4/1/4 1/1/4 2/1/3
f  5/1/5 3/1/2 2/1/2
f  2/1/3 3/1/3 5/1/6
f  3/1/7 6/1/7 1/1/7
f  1/1/8 6/1/8 3/1/8
f  1/1/1 7/1/9 4/1/1
f  4/1/4 7/1/10 1/1/4
f  3/1/2 5/1/5 8/1/5
f  8/1/6 5/1/6 3/1/3
f  3/1/7 9/1/7 6/1/7
f  6/1/8 9/1/8 3/1/8
f  1/1/7 6/1/7 10/1/7
f  10/1/8 6/1/8 1/1/8
f  7/1/9 1/1/1 11/1/9
f  11/1/10 1/1/4 7/1/10
f  12/1/11 8/1/5 5/1/5
f  5/1/6 8/1/6 12/1/12
f  8/1/7 9/1/7 3/1/7
f  3/1/8 9/1/8 8/1/8
f  9/1/13 13/1/14 6/1/14
f  6/1/15 13/1/15 9/1/16
f  6/1/14 14/1/17 10/1/17
f  10/1/18 14/1/18 6/1/15
f  1/1/7 10/1/7 11/1/7
f  11/1/8 10/1/8 1/1/8
f  11/1/9 15/1/19 7/1/9
f  7/1/10 15/1/20 11/1/10
f  13/1/14 9/1/13 16/1/13
f  16/1/16 9/1/16 13/1/15
f  14/1/17 6/1/14 13/1/14
f  13/1/15 6/1/15 14/1/18
f  8/1/5 12/1/11 17/1/11
f  17/1/12 12/1/12 8/1/6
f  9/1/7 8/1/7 17/1/7
f  17/1/8 8/1/8 9/1/8
f  16/1/13 17/1/11 12/1/11
f  12/1/12 17/1/12 16/1/16
f  14/1/17 18/1/21 10/1/17
f  10/1/18 18/1/22 14/1/18
f  11/1/7 10/1/7 18/1/7
f  18/1/8 10/1/8 11/1/8
f  15/1/19 11/1/9 19/1/19
f  19/1/20 11/1/10 15/1/20
f  18/1/21 14/1/17 20/1/21
f  20/1/22 14/1/18 18/1/22
f  17/1/11 16/1/13 9/1/13
f  9/1/16 16/1/16 17/1/12
f  11/1/7 18/1/7 19/1/7
f  19/1/8 18/1/8 11/1/8
f  19/1/19 21/1/23 15/1/19
f  15/1/20 21/1/24 19/1/20
f  20/1/21 22/1/25 18/1/21
f  18/1/22 22/1/26 20/1/22
f  19/1/7 18/1/7 22/1/7
f  22/1/8 18/1/8 19/1/8
f  21/1/23 19/1/19 23/1/23
f  23/1/24 19/1/20 21/1/24
f  22/1/25 20/1/21 24/1/25
f  24/1/26 20/1/22 22/1/26
f  19/1/7 22/1/7 23/1/7
f  23/1/8 22/1/8 19/1/8
f  23/1/23 25/1/26 21/1/23
f  21/1/24 25/1/25 23/1/24
f  24/1/25 26/1/24 22/1/25
f  22/1/26 26/1/23 24/1/26
f  23/1/7 22/1/7 26/1/7
f  26/1/8 22/1/8 23/1/8
f  25/1/26 23/1/23 27/1/26
f  27/1/25 23/1/24 25/1/25
f  26/1/24 24/1/25 28/1/24
f  28/1/23 24/1/26 26/1/23
f  23/1/7 26/1/7 27/1/7
f  27/1/8 26/1/8 23/1/8
f  27/1/26 29/1/22 25/1/26
f  25/1/25 29/1/21 27/1/25
f  28/1/24 30/1/20 26/1/24
f  26/1/23 30/1/19 28/1/23
f  27/1/7 26/1/7 30/1/7
f  30/1/8 26/1/8 27/1/8
f  29/1/22 27/1/26 31/1/22
f  31/1/21 27/1/25 29/1/21
f  30/1/20 28/1/24 32/1/20
f  32/1/19 28/1/23 30/1/19
f  27/1/7 30/1/7 31/1/7
f  31/1/8 30/1/8 27/1/8
f  31/1/22 33/1/18 29/1/22
f  29/1/21 33/1/17 31/1/21
f  32/1/20 34/1/10 30/1/20
f  30/1/19 34/1/9 32/1/19
f  31/1/7 30/1/7 34/1/7
f  34/1/8 30/1/8 31/1/8
f  33/1/18 31/1/22 35/1/18
f  35/1/17 31/1/21 33/1/17
f  34/1/10 32/1/20 36/1/10
f  36/1/9 32/1/19 34/1/9
f  31/1/7 34/1/7 35/1/7
f  35/1/8 34/1/8 31/1/8
f  37/1/15 33/1/18 35/1/18
f  35/1/17 33/1/17 37/1/14
f  36/1/10 38/1/4 34/1/10
f  34/1/9 38/1/1 36/1/9
f  35/1/7 34/1/7 38/1/7
f  38/1/8 34/1/8 35/1/8
f  33/1/18 37/1/15 39/1/15
f  39/1/14 37/1/14 33/1/17
f  35/1/7 40/1/7 37/1/7
f  37/1/8 40/1/8 35/1/8
f  38/1/4 36/1/10 41/1/4
f  41/1/1 36/1/9 38/1/1
f  35/1/7 38/1/7 40/1/7
f  40/1/8 38/1/8 35/1/8
f  42/1/16 39/1/15 37/1/15
f  37/1/14 39/1/14 42/1/13
f  37/1/7 40/1/7 43/1/7
f  43/1/8 40/1/8 37/1/8
f  44/1/3 38/1/4 41/1/4
f  41/1/1 38/1/1 44/1/2
f  38/1/4 44/1/3 40/1/3
f  40/1/2 44/1/2 38/1/1
f  39/1/15 42/1/16 45/1/16
f  45/1/13 42/1/13 39/1/14
f  37/1/7 43/1/7 42/1/7
f  42/1/8 43/1/8 37/1/8
f  40/1/3 46/1/6 43/1/6
f  43/1/5 46/1/5 40/1/2
f  46/1/6 40/1/3 44/1/3
f  44/1/2 40/1/2 46/1/5
f  47/1/12 45/1/16 42/1/16
f  42/1/13 45/1/13 47/1/11
f  42/1/7 43/1/7 47/1/7
f  47/1/8 43/1/8 42/1/8
f  48/1/12 43/1/6 46/1/6
f  46/1/5 43/1/5 48/1/11
f  45/1/16 47/1/12 48/1/12
f  48/1/11 47/1/11 45/1/13
f  43/1/6 48/1/12 47/1/12
f  47/1/11 48/1/11 43/1/5

# Mesh 'mesh1_mesh1-geometry' with 44 faces
g mesh1_mesh1-geometry
usemtl material_1_1_8
f  13/2/8 2/3/8 4/4/8
f  4/4/7 2/3/7 13/2/7
f  16/5/8 5/6/8 2/3/8
f  2/3/7 5/6/7 16/5/7
f  14/7/8 4/4/8 7/8/8
f  7/8/7 4/4/7 14/7/7
f  16/5/8 2/3/8 13/2/8
f  13/2/7 2/3/7 16/5/7
f  13/2/8 4/4/8 14/7/8
f  14/7/7 4/4/7 13/2/7
f  5/6/8 16/5/8 12/9/8
f  12/9/7 16/5/7 5/6/7
f  14/7/8 7/8/8 20/10/8
f  20/10/7 7/8/7 14/7/7
f  20/10/8 7/8/8 15/11/8
f  15/11/7 7/8/7 20/10/7
f  20/10/8 15/11/8 24/12/8
f  24/12/7 15/11/7 20/10/7
f  24/12/8 15/11/8 21/13/8
f  21/13/7 15/11/7 24/12/7
f  24/12/8 21/13/8 28/14/8
f  28/14/7 21/13/7 24/12/7
f  28/14/8 21/13/8 25/15/8
f  25/15/7 21/13/7 28/14/7
f  28/14/8 25/15/8 32/16/8
f  32/16/7 25/15/7 28/14/7
f  32/16/8 25/15/8 29/17/8
f  29/17/7 25/15/7 32/16/7
f  32/16/8 29/17/8 36/18/8
f  36/18/7 29/17/7 32/16/7
f  36/18/8 29/17/8 33/19/8
f  33/19/7 29/17/7 36/18/7
f  36/18/8 33/19/8 41/20/8
f  41/20/7 33/19/7 36/18/7
f  41/20/8 33/19/8 39/21/8
f  39/21/7 33/19/7 41/20/7
f  41/20/8 39/21/8 44/22/8
f  44/22/7 39/21/7 41/20/7
f  44/22/8 39/21/8 45/23/8
f  45/23/7 39/21/7 44/22/7
f  44/22/8 45/23/8 46/24/8
f  46/24/7 45/23/7 44/22/7
f  46/24/8 45/23/8 48/25/8
f  48/25/7 45/23/7 46/24/7

# Mesh 'mesh2_mesh2-geometry' with 24 faces
g mesh2_mesh2-geometry
usemtl material_0_0
l  37 42
l  35 37
l  42 47
l  31 35
l  47 43
l  27 31
l  43 40
l  23 27
l  40 38
l  19 23
l  38 34
l  11 19
l  34 30
l  1 11
l  30 26
l  3 1
l  26 22
l  8 3
l  22 18
l  17 8
l  18 10
l  9 17
l  10 6
l  6 9

# Mesh 'mesh3_mesh3-geometry' with 4 faces
g mesh3_mesh3-geometry
usemtl material_0_0
l  2 4
l  5 2
l  4 7
l  7 15

# Mesh 'mesh4_mesh4-geometry' with 2 faces
g mesh4_mesh4-geometry
usemtl material_0_0
l  39 45
l  45 48

# Mesh 'mesh5_mesh5-geometry' with 1 faces
g mesh5_mesh5-geometry
usemtl material_0_0
l  21 25

