# File produced by Open Asset Import Library (http://www.assimp.sf.net)
# (assimp v3.2.202087883)

mtllib model_normalized.mtl

# 60 vertex positions
v 0.269877 0.538712 0.228805
v 0.269877 0.343148 0.150580
v 0.269877 0.538712 0.150580
v 0.269877 -0.134026 0.228805
v -0.269877 0.538712 0.150580
v 0.269877 -0.134026 -0.232724
v -0.269877 -0.134026 0.228805
v 0.199475 0.343148 0.150580
v -0.269877 0.538712 0.228805
v 0.269877 0.343148 -0.232724
v 0.262055 -0.134026 0.220982
v -0.199475 0.343148 0.150580
v 0.199475 0.343148 -0.232724
v 0.199475 0.225810 -0.232724
v 0.262055 -0.134026 -0.170144
v 0.207297 -0.134026 0.220982
v -0.269877 0.343148 0.150580
v 0.199475 0.225810 0.150580
v 0.199475 -0.134026 -0.232724
v 0.262055 -0.134026 -0.224902
v 0.262055 -0.134026 0.166225
v -0.207297 -0.134026 0.220982
v 0.207297 -0.165316 0.220982
v -0.269877 0.343148 -0.232724
v -0.199475 0.225810 0.150580
v 0.199475 0.014602 -0.201434
v 0.262055 -0.165316 -0.224902
v 0.207297 -0.134026 -0.170144
v 0.262055 -0.165316 0.166225
v -0.262055 -0.134026 0.220982
v 0.207297 -0.134026 0.166225
v 0.262055 -0.165316 0.220982
v -0.199475 0.343148 -0.232724
v -0.199475 0.225810 -0.232724
v -0.269877 -0.134026 -0.232724
v 0.207297 -0.134026 -0.224902
v 0.199475 -0.134026 0.150580
v 0.262055 -0.165316 -0.170144
v 0.207297 -0.165316 -0.170144
v -0.262055 -0.134026 0.166225
v -0.262055 -0.165316 0.220982
v 0.207297 -0.165316 0.166225
v -0.199475 -0.134026 -0.232724
v -0.262055 -0.134026 -0.224902
v 0.199475 0.014602 0.150580
v -0.199475 0.014602 -0.201434
v 0.207297 -0.165316 -0.224902
v -0.262055 -0.134026 -0.152482
v -0.207297 -0.165316 0.220982
v -0.199475 -0.134026 0.150580
v -0.207297 -0.134026 -0.224902
v -0.199475 0.014602 0.150580
v -0.207297 -0.134026 -0.152482
v -0.262055 -0.165316 0.166225
v -0.207297 -0.165316 0.166225
v -0.207297 -0.134026 0.166225
v -0.207297 -0.165316 -0.224902
v -0.262055 -0.165316 -0.152482
v -0.262055 -0.165316 -0.224902
v -0.207297 -0.165316 -0.152482

# 94 UV coordinates
vt -0.59 0.86 0
vt -0.49 0.61 0
vt -0.49 0.86 0
vt -0.59 0 0
vt 0 0.61 0
vt 0.69 0.86 0
vt 0 0.86 0
vt 0.69 0.49 0
vt 0 0.59 0
vt 0 0.49 0
vt 0 0 0
vt -0.69 0 0
vt 0.09 0.61 0
vt 0.69 0.59 0
vt -0.01 0.58 0
vt -0.69 0.86 0
vt -0.69 0.59 0
vt 0.6 0.61 0
vt 0.09 0 0
vt 0.09 0.49 0
vt 0.49 0.86 0
vt 0.59 0 0
vt 0.59 0.86 0
vt 0.09 0.46 0
vt -0.01 0.08 0
vt -0.08 0.58 0
vt 0.69 0.61 0
vt 0.49 0.46 0
vt 0.49 0.61 0
vt -0.01 0.01 0
vt -0.01 0.51 0
vt -0.61 0.58 0
vt -0.08 -0.04 0
vt -0.01 0 0
vt -0.08 0 0
vt 0.6 0.49 0
vt 0.69 0 0
vt 0.6 0.46 0
vt 0 0.46 0
vt -0.09 0 0
vt 0.04 0.19 0
vt -0.01 -0.04 0
vt -0.08 0.08 0
vt -0.58 0 0
vt -0.51 -0.04 0
vt -0.51 0 0
vt -0.68 0.58 0
vt -0.08 0.51 0
vt 0.51 0 0
vt 0.58 -0.04 0
vt 0.58 0 0
vt 0.6 0 0
vt -0.49 0.46 0
vt -0.08 0.01 0
vt 0.49 0 0
vt 0.09 0.182087 0
vt 0.6 0.455034 0
vt 0.09 0.455034 0
vt 0.01 -0.04 0
vt 0.08 0 0
vt 0.01 0 0
vt -0.58 -0.04 0
vt -0.68 0.51 0
vt -0.68 -0.04 0
vt -0.61 0 0
vt -0.68 0 0
vt -0.09 0.49 0
vt 0.51 -0.04 0
vt -0.68 0.01 0
vt 0.49 0.19 0
vt 0.6 0.182087 0
vt 0.08 -0.04 0
vt -0.68 0.102578 0
vt -0.61 -0.04 0
vt -0.6 0.49 0
vt -0.6 0 0
vt -0.61 0.01 0
vt 0.6 0.19 0
vt 0.09 0.19 0
vt -0.09 0.04 0
vt -0.6 0.04 0
vt -0.04 0.19 0
vt -0.61 0.102578 0
vt -0.61 0.51 0
vt 0.61 -0.04 0
vt 0.68 0 0
vt 0.61 0 0
vt 0.102578 -0.04 0
vt 0.102578 0 0
vt -0.49 0 0
vt -0.49 0.19 0
vt 0.68 -0.04 0
vt -0.102578 0 0
vt -0.102578 -0.04 0

# 16 vertex normals
vn 0.0146647 0.0146647 0.0146647
vn 0.0146647 0.0146647 -0.0146647
vn 0.0146647 -0.0146647 0.0146647
vn -0.0146647 0.0146647 -0.0146647
vn 0.0146647 -0.0146647 -0.0146647
vn -0.0146647 -0.0146647 0.0146647
vn -0.0146647 0.0146647 0.0146647
vn -0.0172374 0.00735564 -0.0171443
vn -0.0146647 -0.0146647 -0.0146647
vn -0.0139969 -0.0160481 -0.0138458
vn 0.0172374 0.00735564 -0.0171443
vn 0.0139969 -0.0160481 -0.0138458
vn 0.0172374 -0.00735564 0.0171443
vn 0.0139969 0.0160481 0.0138458
vn -0.0172374 -0.00735564 0.0171443
vn -0.0139969 0.0160481 0.0138458

# Mesh 'mesh1_mesh1-geometry' with 116 faces
g mesh1_mesh1-geometry
usemtl material_0_1_8
f  1/1/1 2/2/2 3/3/2
f  4/4/3 2/2/2 1/1/1
f  2/5/2 5/6/4 3/7/2
f  5/8/4 1/9/1 3/10/2
f  6/11/5 2/2/2 4/4/3
f  1/7/1 7/12/6 4/11/3
f  8/13/4 5/6/4 2/5/2
f  1/9/1 5/8/4 9/14/7
f  2/2/2 6/11/5 10/5/2
f  4/9/3 11/15/3 6/11/5
f  7/12/6 1/7/1 9/16/7
f  11/15/3 4/9/3 7/17/6
f  12/18/2 5/6/4 8/13/4
f  2/10/2 13/19/4 8/20/4
f  5/21/4 7/22/6 9/23/7
f  6/11/5 14/24/8 10/5/2
f  13/19/4 2/10/2 10/11/2
f  15/25/3 6/11/5 11/15/3
f  11/15/3 7/17/6 16/26/6
f  5/6/4 12/18/2 17/27/4
f  18/24/4 12/18/2 8/13/4
f  13/5/4 18/28/4 8/29/4
f  17/29/4 7/22/6 5/21/4
f  14/24/8 6/11/5 19/19/9
f  10/5/2 14/24/8 13/13/4
f  20/30/5 6/11/5 15/25/3
f  21/31/5 15/25/3 11/15/3
f  16/26/6 7/17/6 22/32/3
f  23/33/6 11/34/3 16/35/6
f  12/36/2 24/37/4 17/8/4
f  12/18/2 18/24/4 25/38/2
f  18/28/4 13/5/4 14/39/8
f  24/5/4 7/22/6 17/29/4
f  6/11/5 20/30/5 19/40/9
f  19/11/9 26/41/10 14/39/8
f  15/35/3 27/42/5 20/34/5
f  15/25/3 21/31/5 28/43/6
f  11/44/3 29/45/5 21/46/5
f  22/32/3 7/17/6 30/47/6
f  16/26/6 22/32/3 31/48/9
f  11/34/3 23/33/6 32/42/3
f  31/49/9 23/50/6 16/51/6
f  24/37/4 12/36/2 33/52/2
f  18/20/4 34/52/11 25/36/2
f  34/39/11 12/2/2 25/53/2
f  34/52/11 18/20/4 14/19/8
f  7/22/6 24/5/4 35/11/9
f  19/40/9 20/30/5 36/54/9
f  26/41/10 19/11/9 37/55/9
f  26/56/10 34/57/11 14/58/8
f  27/42/5 15/35/3 38/33/3
f  27/59/5 36/60/9 20/61/5
f  28/43/6 21/31/5 31/48/9
f  39/33/6 15/34/3 28/35/6
f  29/45/5 11/44/3 32/62/3
f  29/59/5 31/60/9 21/61/5
f  30/47/6 7/17/6 40/63/9
f  41/64/6 22/65/3 30/66/6
f  31/48/9 22/32/3 37/67/9
f  23/26/6 29/31/5 32/15/3
f  23/50/6 31/49/9 42/68/9
f  12/2/2 34/39/11 33/5/2
f  34/38/11 24/27/4 33/18/2
f  24/27/4 43/52/5 35/37/9
f  35/12/9 44/69/9 7/17/6
f  19/40/9 36/54/9 37/67/9
f  26/41/10 37/55/9 45/70/9
f  34/57/11 26/56/10 46/71/12
f  15/34/3 39/33/6 38/42/3
f  39/43/6 27/30/5 38/25/3
f  36/60/9 27/59/5 47/72/9
f  31/48/9 37/67/9 28/43/6
f  36/61/9 39/72/6 28/60/6
f  31/60/9 29/59/5 42/72/9
f  40/63/9 7/17/6 48/73/6
f  40/49/9 41/50/6 30/51/6
f  22/65/3 41/64/6 49/74/3
f  37/67/9 22/32/3 50/75/5
f  29/31/5 23/26/6 42/48/9
f  43/52/5 24/27/4 34/38/11
f  43/76/5 51/77/5 35/12/9
f  35/12/9 51/77/5 44/69/9
f  48/73/6 7/17/6 44/69/9
f  28/43/6 37/67/9 36/54/9
f  37/19/9 52/78/5 45/79/9
f  52/75/5 26/80/10 45/67/9
f  26/80/10 52/75/5 46/81/12
f  46/82/12 43/11/5 34/39/11
f  27/30/5 39/43/6 47/54/9
f  39/72/6 36/61/9 47/59/9
f  53/83/3 40/63/9 48/73/6
f  41/50/6 40/49/9 54/68/9
f  41/47/6 55/84/5 49/32/3
f  55/45/5 22/44/3 49/62/3
f  50/75/5 22/32/3 43/76/5
f  52/78/5 37/19/9 50/52/5
f  51/77/5 43/76/5 56/84/5
f  57/85/5 44/86/9 51/87/5
f  44/61/9 58/88/6 48/89/6
f  50/90/5 46/82/12 52/91/5
f  43/11/5 46/82/12 50/90/5
f  40/63/9 53/83/3 56/84/5
f  58/64/6 53/65/3 48/66/6
f  40/86/9 55/85/5 54/92/9
f  55/84/5 41/47/6 54/63/9
f  22/44/3 55/45/5 56/46/5
f  56/84/5 43/76/5 22/32/3
f  51/77/5 56/84/5 53/83/3
f  44/86/9 57/85/5 59/92/9
f  53/93/3 57/42/5 51/34/5
f  58/88/6 44/61/9 59/59/9
f  55/85/5 40/86/9 56/87/5
f  53/65/3 58/64/6 60/74/3
f  57/77/5 58/73/6 59/69/9
f  57/42/5 53/93/3 60/94/3
f  58/73/6 57/77/5 60/83/3

# Mesh 'mesh1_mesh1-geometry' with 116 faces
g mesh1_mesh1-geometry
usemtl material_1_24
f  3//6 2//6 1//9
f  1//9 2//6 4//4
f  3//6 5//3 2//6
f  3//6 1//9 5//3
f  4//4 2//6 6//7
f  4//4 7//2 1//9
f  2//6 5//3 8//3
f  9//5 5//3 1//9
f  10//6 6//7 2//6
f  6//7 11//4 4//4
f  9//5 1//9 7//2
f  7//2 4//4 11//4
f  8//3 5//3 12//6
f  8//3 13//3 2//6
f  9//5 7//2 5//3
f  10//6 14//13 6//7
f  10//6 2//6 13//3
f  11//4 6//7 15//4
f  16//2 7//2 11//4
f  17//3 12//6 5//3
f  8//3 12//6 18//3
f  8//3 18//3 13//3
f  5//3 7//2 17//3
f  19//1 6//7 14//13
f  13//3 14//13 10//6
f  15//4 6//7 20//7
f  11//4 15//4 21//7
f  22//4 7//2 16//2
f  16//2 11//4 23//2
f  17//3 24//3 12//6
f  25//6 18//3 12//6
f  14//13 13//3 18//3
f  17//3 7//2 24//3
f  19//1 20//7 6//7
f  14//13 26//14 19//1
f  20//7 27//7 15//4
f  28//2 21//7 15//4
f  21//7 29//7 11//4
f  30//2 7//2 22//4
f  31//1 22//4 16//2
f  32//4 23//2 11//4
f  16//2 23//2 31//1
f  33//6 12//6 24//3
f  25//6 34//15 18//3
f  25//6 12//6 34//15
f  14//13 18//3 34//15
f  35//1 24//3 7//2
f  36//1 20//7 19//1
f  37//1 19//1 26//14
f  14//13 34//15 26//14
f  38//4 15//4 27//7
f  20//7 36//1 27//7
f  31//1 21//7 28//2
f  28//2 15//4 39//2
f  32//4 11//4 29//7
f  21//7 31//1 29//7
f  40//1 7//2 30//2
f  30//2 22//4 41//2
f  37//1 22//4 31//1
f  32//4 29//7 23//2
f  42//1 31//1 23//2
f  33//6 34//15 12//6
f  33//6 24//3 34//15
f  35//1 43//7 24//3
f  7//2 44//1 35//1
f  37//1 36//1 19//1
f  45//1 37//1 26//14
f  46//16 26//14 34//15
f  38//4 39//2 15//4
f  38//4 27//7 39//2
f  47//1 27//7 36//1
f  28//2 37//1 31//1
f  28//2 39//2 36//1
f  42//1 29//7 31//1
f  48//2 7//2 40//1
f  30//2 41//2 40//1
f  49//4 41//2 22//4
f  50//7 22//4 37//1
f  42//1 23//2 29//7
f  34//15 24//3 43//7
f  35//1 51//7 43//7
f  44//1 51//7 35//1
f  44//1 7//2 48//2
f  36//1 37//1 28//2
f  45//1 52//7 37//1
f  45//1 26//14 52//7
f  46//16 52//7 26//14
f  34//15 43//7 46//16
f  47//1 39//2 27//7
f  47//1 36//1 39//2
f  48//2 40//1 53//4
f  54//1 40//1 41//2
f  49//4 55//7 41//2
f  49//4 22//4 55//7
f  43//7 22//4 50//7
f  50//7 37//1 52//7
f  56//7 43//7 51//7
f  51//7 44//1 57//7
f  48//2 58//2 44//1
f  52//7 46//16 50//7
f  50//7 46//16 43//7
f  56//7 53//4 40//1
f  48//2 53//4 58//2
f  54//1 55//7 40//1
f  54//1 41//2 55//7
f  56//7 55//7 22//4
f  22//4 43//7 56//7
f  53//4 56//7 51//7
f  59//1 57//7 44//1
f  51//7 57//7 53//4
f  59//1 44//1 58//2
f  56//7 40//1 55//7
f  60//4 58//2 53//4
f  59//1 58//2 57//7
f  60//4 53//4 57//7
f  60//4 57//7 58//2

