# File produced by Open Asset Import Library (http://www.assimp.sf.net)
# (assimp v3.2.202087883)

mtllib model_normalized.mtl

# 81 vertex positions
v 0.194798 -0.002294 0.027248
v 0.194798 0.017738 -0.142827
v 0.194798 -0.002294 -0.149087
v 0.194798 0.017738 0.023014
v 0.194798 -0.393794 -0.271426
v 0.194798 0.017738 -0.163301
v 0.194798 -0.393794 -0.294336
v 0.211177 -0.002294 0.027248
v 0.211177 -0.002294 -0.149087
v 0.194798 0.017738 0.043489
v 0.194798 -0.393794 0.109990
v 0.194798 -0.393794 0.129480
v 0.211177 -0.393794 -0.294336
v 0.211177 0.017738 -0.163301
v 0.211177 -0.393794 -0.271426
v 0.211177 0.017738 -0.142827
v 0.211177 0.017738 0.023014
v 0.211177 -0.393794 0.109990
v 0.211177 0.017738 0.043489
v 0.211177 -0.393794 0.129480
v 0.211177 0.048449 0.129480
v -0.197283 0.017738 0.129480
v 0.211177 0.017738 0.129480
v -0.197283 0.048449 0.129480
v 0.211177 0.048449 0.100816
v 0.211177 0.017738 -0.294336
v 0.211177 0.048449 -0.294336
v 0.211177 0.386274 0.179642
v -0.197283 0.386274 0.179642
v -0.197283 0.017738 -0.163301
v -0.197283 0.048449 -0.294336
v -0.197283 0.017738 -0.294336
v -0.197283 0.048449 -0.163301
v -0.197283 0.017738 -0.142827
v -0.197283 0.048449 0.027248
v -0.197283 0.017738 0.023014
v -0.197283 0.017738 0.043489
v -0.197283 0.048449 0.100816
v -0.180904 0.017738 0.043489
v -0.180904 0.017738 -0.163301
v -0.180904 0.017738 -0.142827
v -0.180904 0.017738 0.023014
v 0.211177 0.386274 0.150978
v -0.197283 0.386274 0.150978
v -0.008530 0.104154 0.109088
v -0.024893 0.110859 0.110083
v -0.038945 0.121524 0.111667
v -0.049726 0.135423 0.113730
v 0.009029 0.101867 0.108748
v -0.056503 0.151607 0.116134
v -0.058816 0.168977 0.118713
v -0.056503 0.186346 0.121292
v -0.049726 0.202531 0.123695
v -0.038945 0.216430 0.125759
v -0.024893 0.227095 0.127343
v -0.008530 0.233799 0.128338
v 0.009029 0.236086 0.128678
v 0.067784 0.135423 0.113730
v 0.057003 0.121524 0.111667
v 0.042952 0.110859 0.110083
v 0.026589 0.104154 0.109088
v 0.074562 0.151607 0.116134
v 0.076874 0.168977 0.118713
v 0.074562 0.186346 0.121292
v 0.067784 0.202531 0.123695
v 0.057003 0.216430 0.125759
v 0.042952 0.227095 0.127343
v 0.026589 0.233799 0.128338
v -0.180904 -0.002111 0.027051
v -0.197283 -0.002111 -0.149087
v -0.180904 -0.002111 -0.149087
v -0.197283 -0.002111 0.027051
v -0.197283 -0.393794 -0.272615
v -0.197283 -0.393794 -0.294336
v -0.197283 -0.024566 -0.156169
v -0.197283 -0.393794 0.106719
v -0.197283 -0.393794 0.129480
v -0.180904 -0.393794 -0.272615
v -0.180904 -0.393794 -0.294336
v -0.180904 -0.393794 0.106719
v -0.180904 -0.393794 0.129480

# 74 UV coordinates
vt 0.687086 0.836466 0
vt 0.323709 0.879265 0
vt 0.310335 0.836466 0
vt 0.67804 0.879265 0
vt 0.0489485 -2.13926e-15 0
vt 0.279965 0.879265 0
vt 8.06296e-15 -2.13926e-15 0
vt -6.31594e-14 0.687086 0
vt -0.0349956 0.310335 0
vt -5.68434e-14 0.310335 0
vt -0.0349956 0.687086 0
vt 0.721785 0.879265 0
vt 0.863869 1.34506e-16 0
vt 0.905512 1.34506e-16 0
vt 0.0349956 0.922761 0
vt 2.52637e-14 1.34137e-14 0
vt 0.0349956 9.58265e-15 0
vt -2.52674e-13 0.922761 0
vt -2.38873e-13 0.890955 0
vt -0.0349956 0.0145997 0
vt -7.29226e-14 0.0145997 0
vt -0.0349956 0.890955 0
vt -0.323709 0.879265 0
vt -0.687086 0.836466 0
vt -0.310335 0.836466 0
vt -0.67804 0.879265 0
vt 0.0349956 0.676314 0
vt 7.7776e-13 -0.178629 0
vt 0.0349956 -0.178629 0
vt 6.36547e-13 0.676314 0
vt -3.68622e-13 0.713044 0
vt -0.0349956 -0.185211 0
vt -4.68425e-13 -0.185211 0
vt -0.0349956 0.713044 0
vt -0.279965 0.879265 0
vt -0.0489485 -2.63284e-27 0
vt -4.42115e-14 -4.87293e-27 0
vt -0.721785 0.879265 0
vt -0.863869 -9.12189e-26 0
vt -0.905512 -8.93321e-26 0
vt 0.686666 0.836858 0
vt 0.310335 0.836858 0
vt 0.0464086 -1.83275e-13 0
vt 6.01848e-13 -1.83275e-13 0
vt 0.295204 0.788881 0
vt -0.872703 0.686666 0
vt -0.837708 0.310335 0
vt -0.837708 0.686666 0
vt -0.872703 0.310335 0
vt 0.856881 1.13137e-14 0
vt 0.905512 1.13137e-14 0
vt -0.837708 0.891448 0
vt -0.872703 0.0139585 0
vt -0.837708 0.0139585 0
vt -0.872703 0.841142 0
vt -0.872703 0.891448 0
vt 0.872703 0.922761 0
vt 0.837708 -1.01227e-13 0
vt 0.872703 -1.05536e-13 0
vt 0.837708 0.922761 0
vt -0.686666 0.836858 0
vt -0.310335 0.836858 0
vt 0.872703 0.683202 0
vt 0.837708 -0.170791 0
vt 0.872703 -0.170791 0
vt 0.837708 0.683202 0
vt -0.837708 0.713044 0
vt -0.872703 -0.185211 0
vt -0.837708 -0.185211 0
vt -0.872703 0.713044 0
vt -0.0464086 7.85811e-14 0
vt 1.97666e-13 7.85811e-14 0
vt -0.856881 1.81738e-15 0
vt -0.905512 1.81738e-15 0

# 40 vertex normals
vn -0.0254 1.5125e-14 -2.61199e-15
vn -0.0254 1.55269e-15 -5.85213e-15
vn 0 -0.0254 0
vn -0.0254 -9.76254e-17 3.72588e-15
vn 2.18435e-14 0.00770634 -0.0242027
vn 1.42204e-14 -0.00757595 0.0242439
vn 0.0254 -1.12678e-14 4.56834e-16
vn -2.07387e-14 -0.00525215 -0.0248511
vn 1.0087e-14 0.00519525 0.024863
vn 0.0254 -4.89921e-15 1.58588e-14
vn 0.0254 3.84876e-15 1.93718e-14
vn -9.02389e-17 0 0.0254
vn 0.0254 1.67633e-15 2.1474e-15
vn -9.60198e-16 -0.00373061 0.0251245
vn -0.0254 -1.02233e-16 -2.07902e-15
vn 0 0.0254 0
vn 0.0254 -3.33392e-16 5.24655e-15
vn 1.61302e-15 0 -0.0254
vn -0.0254 -1.278e-15 1.30952e-14
vn 1.07159e-15 0.00373061 -0.0251245
vn -2.35453e-14 -0.00525215 -0.0248511
vn 2.84415e-14 -0.00757595 0.0242439
vn 2.35453e-14 0.00525215 0.0248511
vn -2.84415e-14 0.00757595 -0.0242439
vn -2.91937e-14 -0.00506266 -0.0248903
vn -3.82458e-15 -0.00763967 0.0242239
vn -1.45983e-14 -0.00506266 -0.0248903
vn 2.91937e-14 0.00506266 0.0248903
vn 3.82458e-15 0.00763967 -0.0242239
vn 1.45983e-14 0.00506266 0.0248903
vn -0.0254 9.82564e-17 -1.76318e-15
vn -0.0254 5.3342e-15 -1.73329e-14
vn -0.0254 -3.29284e-16 -1.88444e-15
vn -6.42811e-15 -0.00763967 0.0242239
vn -9.82194e-15 0.00770634 -0.0242027
vn 0.0254 1.51348e-14 -3.80695e-17
vn -5.62583e-16 -0.00506266 -0.0248903
vn 1.68775e-15 0.00519525 0.024863
vn 0.0254 2.38264e-15 -6.18489e-15
vn 0.0254 5.51045e-17 1.21964e-16

# Mesh 'SketchUp_ID2' with 26 faces
g SketchUp_ID2
usemtl material
f  1/1/1 2/2/1 3/3/1
f  2/2/1 1/1/1 4/4/1
f  5/5/2 6/6/2 7/7/2
f  6/6/2 5/5/2 3/3/2
f  6/6/2 3/3/2 2/2/2
f  8/8/3 3/9/3 9/10/3
f  3/9/3 8/8/3 1/11/3
f  1/1/4 10/12/4 4/4/4
f  10/12/4 1/1/4 11/13/4
f  10/12/4 11/13/4 12/14/4
f  6/15/5 13/16/5 7/17/5
f  13/16/5 6/15/5 14/18/5
f  9/19/6 5/20/6 15/21/6
f  5/20/6 9/19/6 3/22/6
f  16/23/7 8/24/7 9/25/7
f  8/24/7 16/23/7 17/26/7
f  1/27/8 18/28/8 11/29/8
f  18/28/8 1/27/8 8/30/8
f  19/31/9 12/32/9 20/33/9
f  12/32/9 19/31/9 10/34/9
f  14/35/10 15/36/10 13/37/10
f  15/36/10 14/35/10 9/25/10
f  9/25/10 14/35/10 16/23/10
f  19/38/11 8/24/11 17/26/11
f  8/24/11 19/38/11 18/39/11
f  18/39/11 19/38/11 20/40/11

# Mesh 'SketchUp_ID15' with 72 faces
g SketchUp_ID15
usemtl material_0
f  21//12 22//12 23//12
f  22//12 21//12 24//12
f  25//13 26//13 27//13
f  26//13 25//13 14//13
f  14//13 25//13 16//13
f  16//13 25//13 17//13
f  17//13 25//13 19//13
f  19//13 25//13 23//13
f  23//13 25//13 21//13
f  28//14 24//14 21//14
f  24//14 28//14 29//14
f  30//15 31//15 32//15
f  31//15 30//15 33//15
f  33//15 30//15 34//15
f  33//15 34//15 35//15
f  35//15 34//15 36//15
f  35//15 36//15 37//15
f  35//15 37//15 38//15
f  38//15 37//15 22//15
f  38//15 22//15 24//15
f  4//3 6//3 2//3
f  23//3 10//3 19//3
f  10//3 23//3 22//3
f  10//3 22//3 4//3
f  4//3 22//3 39//3
f  4//3 39//3 40//3
f  40//3 39//3 41//3
f  39//3 22//3 37//3
f  42//3 41//3 39//3
f  6//3 26//3 14//3
f  26//3 6//3 32//3
f  32//3 6//3 4//3
f  32//3 4//3 40//3
f  32//3 40//3 30//3
f  31//16 25//16 27//16
f  25//16 31//16 38//16
f  38//16 31//16 33//16
f  38//16 33//16 35//16
f  43//17 21//17 25//17
f  21//17 43//17 28//17
f  31//18 26//18 32//18
f  26//18 31//18 27//18
f  24//19 44//19 38//19
f  44//19 24//19 29//19
f  38//20 45//20 25//20
f  45//20 38//20 46//20
f  46//20 38//20 47//20
f  47//20 38//20 48//20
f  48//20 38//20 44//20
f  25//20 45//20 49//20
f  48//20 44//20 50//20
f  50//20 44//20 51//20
f  51//20 44//20 52//20
f  52//20 44//20 53//20
f  53//20 44//20 54//20
f  54//20 44//20 55//20
f  55//20 44//20 56//20
f  56//20 44//20 57//20
f  25//20 58//20 43//20
f  58//20 25//20 59//20
f  59//20 25//20 60//20
f  60//20 25//20 61//20
f  61//20 25//20 49//20
f  43//20 58//20 62//20
f  43//20 62//20 63//20
f  43//20 63//20 64//20
f  43//20 64//20 65//20
f  43//20 65//20 66//20
f  43//20 66//20 67//20
f  43//20 67//20 68//20
f  43//20 68//20 57//20
f  43//20 57//20 44//20

# Mesh 'SketchUp_ID23' with 10 faces
g SketchUp_ID23
usemtl material_1
f  17//3 2//3 16//3
f  2//3 17//3 4//3
f  4//21 8//21 1//21
f  8//21 4//21 17//21
f  19//3 4//3 17//3
f  4//3 19//3 10//3
f  16//22 3//22 9//22
f  3//22 16//22 2//22
f  16//3 6//3 14//3
f  6//3 16//3 2//3

# Mesh 'SketchUp_ID23' with 10 faces
g SketchUp_ID23
usemtl material_2
f  4//16 17//16 2//16
f  16//16 2//16 17//16
f  17//23 4//23 8//23
f  1//23 8//23 4//23
f  10//16 19//16 4//16
f  17//16 4//16 19//16
f  2//24 16//24 3//24
f  9//24 3//24 16//24
f  2//16 16//16 6//16
f  14//16 6//16 16//16

# Mesh 'SketchUp_ID33' with 2 faces
g SketchUp_ID33
usemtl material_1
f  38//16 21//16 25//16
f  21//16 38//16 24//16

# Mesh 'SketchUp_ID33' with 2 faces
g SketchUp_ID33
usemtl material_2
f  24//3 38//3 21//3
f  25//3 21//3 38//3

# Mesh 'SketchUp_ID39' with 2 faces
g SketchUp_ID39
usemtl material_1
f  44//16 28//16 43//16
f  28//16 44//16 29//16

# Mesh 'SketchUp_ID39' with 2 faces
g SketchUp_ID39
usemtl material_2
f  29//3 44//3 28//3
f  43//3 28//3 44//3

# Mesh 'SketchUp_ID45' with 10 faces
g SketchUp_ID45
usemtl material_1
f  37//3 42//3 39//3
f  42//3 37//3 36//3
f  42//3 34//3 41//3
f  34//3 42//3 36//3
f  42//25 69//25 36//25
f  41//26 70//26 71//26
f  70//26 41//26 34//26
f  41//3 30//3 40//3
f  30//3 41//3 34//3
f  36//27 69//27 72//27

# Mesh 'SketchUp_ID45' with 10 faces
g SketchUp_ID45
usemtl material_2
f  36//16 37//16 42//16
f  39//16 42//16 37//16
f  36//16 42//16 34//16
f  41//16 34//16 42//16
f  36//28 69//28 42//28
f  34//29 41//29 70//29
f  71//29 70//29 41//29
f  34//16 41//16 30//16
f  40//16 30//16 41//16
f  72//30 69//30 36//30

# Mesh 'SketchUp_ID51' with 28 faces
g SketchUp_ID51
usemtl material
f  72/41/31 34/2/31 70/42/31
f  34/2/31 72/41/31 36/4/31
f  73/43/32 30/6/32 74/44/32
f  30/6/32 73/43/32 75/45/32
f  30/6/32 75/45/32 34/2/32
f  34/2/32 75/45/32 70/42/32
f  72/46/3 71/47/3 69/48/3
f  71/47/3 72/46/3 70/49/3
f  72/41/33 37/12/33 36/4/33
f  37/12/33 72/41/33 76/50/33
f  37/12/33 76/50/33 77/51/33
f  71/52/34 73/53/34 78/54/34
f  73/53/34 71/52/34 75/55/34
f  75/55/34 71/52/34 70/56/34
f  30/57/35 79/58/35 74/59/35
f  79/58/35 30/57/35 40/60/35
f  41/23/36 69/61/36 71/62/36
f  69/61/36 41/23/36 42/26/36
f  72/63/37 80/64/37 76/65/37
f  80/64/37 72/63/37 69/66/37
f  39/67/38 77/68/38 81/69/38
f  77/68/38 39/67/38 37/70/38
f  40/35/39 78/71/39 79/72/39
f  78/71/39 40/35/39 71/62/39
f  71/62/39 40/35/39 41/23/39
f  39/38/40 69/61/40 42/26/40
f  69/61/40 39/38/40 80/73/40
f  80/73/40 39/38/40 81/74/40

# Mesh 'SketchUp_ID59' with 2 faces
g SketchUp_ID59
usemtl material_1
f  73//3 79//3 78//3
f  79//3 73//3 74//3

# Mesh 'SketchUp_ID59' with 2 faces
g SketchUp_ID59
usemtl material_2
f  74//16 73//16 79//16
f  78//16 79//16 73//16

# Mesh 'SketchUp_ID65' with 2 faces
g SketchUp_ID65
usemtl material_1
f  81//3 76//3 80//3
f  76//3 81//3 77//3

# Mesh 'SketchUp_ID65' with 2 faces
g SketchUp_ID65
usemtl material_2
f  77//16 81//16 76//16
f  80//16 76//16 81//16

# Mesh 'SketchUp_ID71' with 2 faces
g SketchUp_ID71
usemtl material_1
f  20//3 11//3 18//3
f  11//3 20//3 12//3

# Mesh 'SketchUp_ID71' with 2 faces
g SketchUp_ID71
usemtl material_2
f  12//16 20//16 11//16
f  18//16 11//16 20//16

# Mesh 'SketchUp_ID77' with 2 faces
g SketchUp_ID77
usemtl material_1
f  15//3 7//3 13//3
f  7//3 15//3 5//3

# Mesh 'SketchUp_ID77' with 2 faces
g SketchUp_ID77
usemtl material_2
f  5//16 15//16 7//16
f  13//16 7//16 15//16

