# File produced by Open Asset Import Library (http://www.assimp.sf.net)
# (assimp v3.2.202087883)

mtllib model_normalized.mtl

# 122 vertex positions
v 0.352881 -0.244855 -0.159489
v -0.352881 -0.244855 0.090470
v -0.352881 -0.244855 -0.159489
v 0.352881 -0.244855 0.090470
v 0.352881 -0.237462 -0.178924
v 0.352881 -0.217481 0.114280
v -0.352881 -0.217481 0.114280
v -0.352881 -0.237462 -0.178924
v 0.352881 -0.188244 0.135764
v 0.352881 -0.227886 -0.197382
v -0.352881 -0.227886 -0.197382
v -0.352881 -0.188244 0.135764
v 0.352881 -0.216254 -0.214616
v -0.352881 -0.216254 -0.214616
v 0.352881 -0.157341 0.154775
v 0.352881 -0.202719 -0.230402
v -0.352881 -0.157341 0.154775
v 0.352881 -0.187461 -0.244529
v -0.352881 -0.202719 -0.230402
v 0.352881 -0.124983 0.171183
v 0.352881 -0.170682 -0.256810
v -0.352881 -0.187461 -0.244529
v -0.352881 -0.124983 0.171183
v 0.352881 -0.152603 -0.267082
v -0.352881 -0.170682 -0.256810
v 0.352881 -0.091386 0.184880
v 0.352881 -0.133464 -0.275211
v -0.352881 -0.152603 -0.267082
v -0.352881 -0.091386 0.184880
v 0.352881 -0.108706 0.090470
v -0.352881 -0.133464 -0.275211
v 0.352881 -0.113518 -0.281088
v 0.352881 -0.056778 0.195771
v 0.352881 -0.079961 0.077311
v -0.352881 -0.113518 -0.281088
v -0.352881 -0.056778 0.195771
v 0.352881 -0.093029 -0.284634
v -0.352881 -0.108706 0.090470
v -0.352881 -0.093029 -0.284634
v 0.352881 -0.021392 0.203784
v 0.352881 -0.050630 0.065513
v -0.352881 -0.079961 0.077311
v 0.352881 -0.096063 0.061048
v -0.352881 -0.021392 0.203784
v 0.352881 -0.084794 0.031073
v -0.352881 -0.072268 -0.285805
v -0.352881 -0.096063 0.061048
v 0.352881 0.014531 0.208865
v 0.352881 -0.020779 0.055104
v -0.352881 -0.050630 0.065513
v 0.352881 -0.072268 -0.285805
v -0.352881 0.014531 0.208865
v -0.352881 -0.084794 0.031073
v 0.352881 -0.074924 0.000609
v -0.352881 -0.051511 -0.284583
v 0.352881 0.050752 0.210979
v 0.352881 0.009527 0.046106
v -0.352881 -0.020779 0.055104
v 0.352881 -0.066474 -0.030278
v 0.352881 -0.051511 -0.284583
v -0.352881 -0.074924 0.000609
v -0.352881 0.050752 0.210979
v 0.352881 0.040221 0.038537
v -0.352881 -0.048212 -0.252731
v -0.352881 -0.066474 -0.030278
v 0.352881 0.087022 0.210111
v 0.352881 0.071237 0.032417
v -0.352881 0.009527 0.046106
v 0.352881 -0.059463 -0.061524
v 0.352881 -0.048212 -0.252731
v -0.352881 -0.059463 -0.061524
v -0.352881 0.087022 0.210111
v -0.352881 0.040221 0.038537
v 0.352881 -0.053903 -0.093061
v -0.352881 -0.046390 -0.220759
v 0.352881 -0.049810 -0.124821
v -0.352881 -0.053903 -0.093061
v 0.352881 0.123099 0.206269
v 0.352881 0.102506 0.027755
v -0.352881 0.071237 0.032417
v 0.352881 -0.046390 -0.220759
v 0.352881 -0.047190 -0.156736
v -0.352881 -0.049810 -0.124821
v -0.352881 -0.047190 -0.156736
v -0.352881 0.123099 0.206269
v -0.352881 -0.046049 -0.188738
v 0.352881 -0.046049 -0.188738
v 0.352881 0.158740 0.199477
v 0.352881 0.133959 0.024564
v -0.352881 0.102506 0.027755
v -0.352881 0.158740 0.199477
v -0.352881 0.173826 0.190479
v 0.352881 0.165526 0.022853
v -0.352881 0.133959 0.024564
v 0.352881 0.173826 0.190479
v -0.352881 0.188029 0.180145
v -0.352881 0.165526 0.022853
v 0.352881 0.197139 0.022621
v 0.352881 0.188029 0.180145
v -0.352881 0.197139 0.022621
v -0.352881 0.201230 0.168558
v 0.352881 0.228728 0.023871
v 0.352881 0.201230 0.168558
v -0.352881 0.228728 0.023871
v 0.352881 0.213319 0.155816
v 0.352881 0.260225 0.026600
v -0.352881 0.213319 0.155816
v -0.352881 0.260225 0.026600
v 0.352881 0.233771 0.127297
v 0.352881 0.224197 0.142024
v -0.352881 0.224197 0.142024
v -0.352881 0.259722 0.044158
v 0.352881 0.241962 0.111759
v -0.352881 0.233771 0.127297
v 0.352881 0.259722 0.044158
v 0.352881 0.248703 0.095539
v -0.352881 0.241962 0.111759
v -0.352881 0.257619 0.061597
v 0.352881 0.257619 0.061597
v 0.352881 0.253936 0.078772
v -0.352881 0.248703 0.095539
v -0.352881 0.253936 0.078772

# 0 UV coordinates

# 134 vertex normals
vn 0 -1 0
vn 0 -0.934666 -0.355527
vn 0 -0.912669 -0.408699
vn 1 0 0
vn 0 -0.624746 0.780828
vn 0 -0.656302 0.754498
vn 0 -0.558523 0.829489
vn 0 -0.859693 -0.510811
vn 0 -0.79534 -0.606164
vn 0 -0.488529 0.872548
vn 0 -0.720462 -0.693495
vn 0 -0.415235 0.909714
vn 0 -0.636049 -0.771648
vn 0 -0.54322 -0.839591
vn 0 -0.339137 0.940737
vn 0 -0.443202 -0.896422
vn 0 -0.337318 -0.941391
vn 0 -0.260749 0.965407
vn 0 -0.226971 -0.973901
vn 0 -0.416227 -0.909261
vn 0 -0.394798 -0.918768
vn 0 -0.11362 -0.993524
vn 0 -0.1806 0.983557
vn 0 0.927648 0.373456
vn 0 0.918759 0.39482
vn 0 -0.351303 -0.936262
vn 0 0.001234 -0.999999
vn 0 -0.099231 0.995064
vn 0 0.943932 0.33014
vn 0 -0.307036 -0.951698
vn 0 0.05875 -0.998273
vn 0 -0.017192 0.999852
vn 0 0.958195 0.286117
vn 0 -0.262093 -0.965043
vn 0 0.970405 0.241482
vn 0 0.996797 -0.079979
vn 0 0.994679 -0.103022
vn 0 0.064963 0.997888
vn 0 -0.216575 -0.976266
vn 0 0.980538 0.196329
vn 0 -0.17058 -0.985344
vn 0 0.999429 -0.033779
vn 0 0.988571 0.150756
vn 0 0.146679 0.989184
vn 0 0.994487 0.104861
vn 0 0.998273 0.05874
vn 0 -0.124211 -0.992256
vn 0 0.999922 0.012494
vn 0 0.1872 0.982322
vn 0 -0.077569 -0.996987
vn 0 0.512213 0.858858
vn 0 0.550877 0.834586
vn 0 -0.030756 -0.999527
vn 0 0.624682 0.780879
vn 0 0.016125 -0.99987
vn 0 0.693282 0.720666
vn 0 0.06297 -0.998015
vn 0 0.756106 0.654449
vn 0 0.086347 -0.996265
vn 0 0.812631 0.582779
vn 0 0.997242 0.07422
vn 0 0.99959 0.028629
vn 0 0.862385 0.506253
vn 0 0.904954 0.42551
vn 0 0.98632 0.164842
vn 0 0.939983 0.341222
vn 0 0.967181 0.25409
vn 0 1 0
vn -1 -0 -0
vn 0 0.934666 0.355527
vn 0 0.912669 0.408699
vn 0 0.656302 -0.754498
vn 0 0.624746 -0.780828
vn 0 0.558523 -0.829489
vn 0 0.859693 0.510811
vn 0 0.79534 0.606164
vn 0 0.488529 -0.872548
vn 0 0.720462 0.693495
vn 0 0.415235 -0.909714
vn 0 0.636049 0.771648
vn 0 0.54322 0.839591
vn 0 0.339137 -0.940737
vn 0 0.443202 0.896422
vn 0 0.337318 0.941391
vn 0 0.260749 -0.965407
vn 0 0.226971 0.973901
vn 0 0.416227 0.909261
vn 0 0.394798 0.918768
vn 0 0.11362 0.993524
vn 0 0.1806 -0.983557
vn 0 -0.918759 -0.39482
vn 0 -0.927648 -0.373456
vn 0 0.351303 0.936262
vn 0 -0.001234 0.999999
vn 0 0.099231 -0.995064
vn 0 -0.943932 -0.33014
vn 0 0.307036 0.951698
vn 0 -0.05875 0.998273
vn 0 0.017192 -0.999852
vn 0 -0.958195 -0.286117
vn 0 0.262093 0.965043
vn 0 -0.970405 -0.241482
vn 0 -0.994679 0.103022
vn 0 -0.996797 0.079979
vn 0 -0.064963 -0.997888
vn 0 0.216575 0.976266
vn 0 -0.980538 -0.196329
vn 0 0.17058 0.985344
vn 0 -0.999429 0.033779
vn 0 -0.988571 -0.150756
vn 0 -0.146679 -0.989184
vn 0 -0.994487 -0.104861
vn 0 -0.998273 -0.05874
vn 0 0.124211 0.992256
vn 0 -0.999922 -0.012494
vn 0 -0.1872 -0.982322
vn 0 0.077569 0.996987
vn 0 -0.512213 -0.858858
vn 0 -0.550877 -0.834586
vn 0 0.030756 0.999527
vn 0 -0.624682 -0.780879
vn 0 -0.016125 0.99987
vn 0 -0.693282 -0.720666
vn 0 -0.06297 0.998015
vn 0 -0.756106 -0.654449
vn 0 -0.086347 0.996265
vn 0 -0.812631 -0.582779
vn 0 -0.99959 -0.028629
vn 0 -0.997242 -0.07422
vn 0 -0.862385 -0.506253
vn 0 -0.904954 -0.42551
vn 0 -0.98632 -0.164842
vn 0 -0.939983 -0.341222
vn 0 -0.967181 -0.25409

# Mesh 'mesh1_mesh1-geometry' with 181 faces
g mesh1_mesh1-geometry
usemtl material_0_24
f  1//1 2//1 3//1
f  2//1 1//1 4//1
f  3//2 5//3 1//2
f  1//4 6//4 4//4
f  6//5 2//6 4//6
f  2//6 6//5 7//5
f  5//3 3//2 8//3
f  6//4 1//4 5//4
f  9//7 7//5 6//5
f  8//3 10//8 5//3
f  6//4 5//4 10//4
f  10//8 8//3 11//8
f  7//5 9//7 12//7
f  6//4 13//4 9//4
f  6//4 10//4 13//4
f  13//9 11//8 14//9
f  11//8 13//9 10//8
f  15//10 12//7 9//7
f  9//4 13//4 16//4
f  14//9 16//11 13//9
f  12//7 15//10 17//10
f  9//4 18//4 15//4
f  9//4 16//4 18//4
f  16//11 14//9 19//11
f  20//12 17//10 15//10
f  15//4 18//4 21//4
f  19//11 18//13 16//11
f  18//13 19//11 22//13
f  17//10 20//12 23//12
f  15//4 24//4 20//4
f  18//13 25//14 21//14
f  15//4 21//4 24//4
f  25//14 18//13 22//13
f  26//15 23//12 20//12
f  20//4 24//4 27//4
f  28//16 21//14 25//14
f  21//14 28//16 24//16
f  23//12 26//15 29//15
f  20//4 30//4 26//4
f  24//16 31//17 27//17
f  20//4 27//4 32//4
f  31//17 24//16 28//16
f  33//18 29//15 26//15
f  20//4 32//4 30//4
f  26//4 30//4 34//4
f  35//19 27//17 31//17
f  27//17 35//19 32//19
f  29//15 33//18 36//18
f  26//4 34//4 33//4
f  37//4 30//4 32//4
f  38//20 34//21 30//20
f  39//22 32//19 35//19
f  40//23 36//18 33//18
f  33//4 34//4 41//4
f  34//21 38//20 42//21
f  30//4 37//4 43//4
f  32//19 39//22 37//22
f  43//24 38//25 30//25
f  36//18 40//23 44//23
f  33//4 41//4 40//4
f  42//21 41//26 34//21
f  43//4 37//4 45//4
f  46//27 37//22 39//22
f  38//25 43//24 47//24
f  48//28 44//23 40//23
f  40//4 41//4 49//4
f  41//26 42//21 50//26
f  45//4 37//4 51//4
f  45//29 47//24 43//24
f  37//22 46//27 51//27
f  44//23 48//28 52//28
f  40//4 49//4 48//4
f  50//26 49//30 41//26
f  47//24 45//29 53//29
f  45//4 51//4 54//4
f  55//31 51//27 46//27
f  56//32 52//28 48//28
f  48//4 49//4 57//4
f  49//30 50//26 58//30
f  54//33 53//29 45//29
f  54//4 51//4 59//4
f  51//27 55//31 60//31
f  53//29 54//33 61//33
f  52//28 56//32 62//32
f  48//4 63//4 56//4
f  58//30 57//34 49//30
f  48//4 57//4 63//4
f  59//4 51//4 60//4
f  59//35 61//33 54//33
f  64//36 60//37 55//37
f  61//33 59//35 65//35
f  66//38 62//32 56//32
f  56//4 63//4 67//4
f  57//34 58//30 68//34
f  68//34 63//39 57//34
f  59//4 60//4 69//4
f  60//37 64//36 70//36
f  65//35 69//40 71//40
f  69//40 65//35 59//35
f  62//32 66//38 72//38
f  56//4 67//4 66//4
f  73//39 67//41 63//39
f  63//39 68//34 73//39
f  69//4 60//4 74//4
f  75//42 70//36 64//36
f  76//4 60//4 70//4
f  74//43 71//40 69//40
f  71//40 74//43 77//43
f  78//44 72//38 66//38
f  66//4 67//4 79//4
f  67//41 73//39 80//41
f  74//4 60//4 76//4
f  70//36 75//42 81//42
f  76//4 70//4 82//4
f  77//43 76//45 83//45
f  83//45 82//46 84//46
f  76//45 77//43 74//43
f  72//38 78//44 85//44
f  66//4 79//4 78//4
f  80//41 79//47 67//41
f  86//48 81//42 75//42
f  82//4 70//4 81//4
f  82//46 83//45 76//45
f  87//48 84//46 82//46
f  88//49 85//44 78//44
f  78//4 79//4 89//4
f  79//47 80//41 90//47
f  81//42 86//48 87//48
f  82//4 81//4 87//4
f  84//46 87//48 86//48
f  85//44 88//49 91//49
f  78//4 89//4 88//4
f  90//47 89//50 79//47
f  88//51 92//52 91//51
f  88//4 89//4 93//4
f  89//50 90//47 94//50
f  92//52 88//51 95//52
f  94//50 93//53 89//50
f  88//4 93//4 95//4
f  95//52 96//54 92//52
f  93//53 94//50 97//53
f  95//4 93//4 98//4
f  96//54 95//52 99//54
f  98//55 97//53 100//55
f  97//53 98//55 93//53
f  95//4 98//4 99//4
f  99//54 101//56 96//54
f  100//55 102//57 98//55
f  99//4 98//4 103//4
f  101//56 99//54 103//56
f  102//57 100//55 104//57
f  103//4 98//4 102//4
f  105//58 101//56 103//56
f  104//57 106//59 102//57
f  103//4 102//4 105//4
f  101//56 105//58 107//58
f  106//59 104//57 108//59
f  109//4 102//4 106//4
f  105//4 102//4 110//4
f  110//60 107//58 105//58
f  107//58 110//60 111//60
f  112//61 106//62 108//62
f  110//4 102//4 109//4
f  109//4 106//4 113//4
f  109//63 111//60 110//60
f  111//60 109//63 114//63
f  106//62 112//61 115//61
f  113//4 106//4 116//4
f  113//64 114//63 109//63
f  114//63 113//64 117//64
f  118//65 115//61 112//61
f  119//4 106//4 115//4
f  116//4 106//4 120//4
f  116//66 117//64 113//64
f  117//64 116//66 121//66
f  115//61 118//65 119//65
f  120//4 106//4 119//4
f  122//67 119//65 118//65
f  120//67 121//66 116//66
f  121//66 120//67 122//67
f  119//65 122//67 120//67

# Mesh 'mesh1_mesh1-geometry' with 299 faces
g mesh1_mesh1-geometry
usemtl material_1_24
f  3//68 2//68 1//68
f  4//68 1//68 2//68
f  7//69 3//69 2//69
f  2//4 3//4 7//4
f  1//70 5//71 3//70
f  4//69 6//69 1//69
f  4//72 2//72 6//73
f  3//69 7//69 8//69
f  8//4 7//4 3//4
f  7//73 6//73 2//72
f  8//71 3//70 5//71
f  5//69 1//69 6//69
f  8//69 7//69 11//69
f  11//4 7//4 8//4
f  6//73 7//73 9//74
f  5//71 10//75 8//71
f  10//69 5//69 6//69
f  11//69 7//69 14//69
f  14//4 7//4 11//4
f  11//75 8//71 10//75
f  12//74 9//74 7//73
f  9//69 13//69 6//69
f  13//69 10//69 6//69
f  14//69 7//69 12//69
f  12//4 7//4 14//4
f  14//76 11//75 13//76
f  10//75 13//76 11//75
f  9//74 12//74 15//77
f  16//69 13//69 9//69
f  14//69 12//69 19//69
f  19//4 12//4 14//4
f  13//76 16//78 14//76
f  17//77 15//77 12//74
f  15//69 18//69 9//69
f  18//69 16//69 9//69
f  19//69 12//69 22//69
f  22//4 12//4 19//4
f  19//78 14//76 16//78
f  15//77 17//77 20//79
f  22//69 12//69 17//69
f  17//4 12//4 22//4
f  21//69 18//69 15//69
f  16//78 18//80 19//78
f  22//80 19//78 18//80
f  23//79 20//79 17//77
f  20//69 24//69 15//69
f  22//69 17//69 25//69
f  25//4 17//4 22//4
f  21//81 25//81 18//80
f  24//69 21//69 15//69
f  22//80 18//80 25//81
f  20//79 23//79 26//82
f  28//69 17//69 23//69
f  23//4 17//4 28//4
f  27//69 24//69 20//69
f  25//69 17//69 28//69
f  28//4 17//4 25//4
f  25//81 21//81 28//83
f  24//83 28//83 21//81
f  29//82 26//82 23//79
f  26//69 30//69 20//69
f  28//69 23//69 31//69
f  31//4 23//4 28//4
f  27//84 31//84 24//83
f  32//69 27//69 20//69
f  28//83 24//83 31//84
f  26//82 29//82 33//85
f  38//69 23//69 29//69
f  29//4 23//4 38//4
f  30//69 32//69 20//69
f  34//69 30//69 26//69
f  31//69 23//69 35//69
f  35//4 23//4 31//4
f  31//84 27//84 35//86
f  32//86 35//86 27//84
f  36//85 33//85 29//82
f  33//69 34//69 26//69
f  35//69 23//69 38//69
f  38//4 23//4 35//4
f  38//69 29//69 42//69
f  42//4 29//4 38//4
f  32//69 30//69 37//69
f  30//87 34//88 38//87
f  35//86 32//86 39//89
f  33//85 36//85 40//90
f  42//69 29//69 36//69
f  36//4 29//4 42//4
f  41//69 34//69 33//69
f  38//69 39//69 35//69
f  35//4 39//4 38//4
f  42//88 38//87 34//88
f  43//69 37//69 30//69
f  37//89 39//89 32//86
f  30//91 38//91 43//92
f  44//90 40//90 36//85
f  40//69 41//69 33//69
f  42//69 36//69 50//69
f  50//4 36//4 42//4
f  34//88 41//93 42//88
f  39//69 38//69 47//69
f  47//4 38//4 39//4
f  45//69 37//69 43//69
f  39//89 37//89 46//94
f  47//92 43//92 38//91
f  40//90 44//90 48//95
f  50//69 36//69 44//69
f  44//4 36//4 50//4
f  49//69 41//69 40//69
f  50//93 42//88 41//93
f  39//69 47//69 53//69
f  53//4 47//4 39//4
f  51//69 37//69 45//69
f  43//92 47//92 45//96
f  51//94 46//94 37//89
f  39//69 53//69 46//69
f  46//4 53//4 39//4
f  52//95 48//95 44//90
f  48//69 49//69 40//69
f  50//69 44//69 58//69
f  58//4 44//4 50//4
f  41//93 49//97 50//93
f  53//96 45//96 47//92
f  54//69 51//69 45//69
f  46//94 51//94 55//98
f  46//69 53//69 61//69
f  61//4 53//4 46//4
f  48//95 52//95 56//99
f  58//69 44//69 52//69
f  52//4 44//4 58//4
f  57//69 49//69 48//69
f  58//97 50//93 49//97
f  45//96 53//96 54//100
f  59//69 51//69 54//69
f  60//98 55//98 51//94
f  46//69 65//69 55//69
f  55//4 65//4 46//4
f  61//100 54//100 53//96
f  46//69 61//69 65//69
f  65//4 61//4 46//4
f  62//99 56//99 52//95
f  56//69 63//69 48//69
f  58//69 52//69 68//69
f  68//4 52//4 58//4
f  49//97 57//101 58//97
f  63//69 57//69 48//69
f  60//69 51//69 59//69
f  54//100 61//100 59//102
f  55//103 60//103 64//104
f  55//69 65//69 71//69
f  71//4 65//4 55//4
f  65//102 59//102 61//100
f  56//99 62//99 66//105
f  73//69 52//69 62//69
f  62//4 52//4 73//4
f  67//69 63//69 56//69
f  68//69 52//69 73//69
f  73//4 52//4 68//4
f  68//101 58//97 57//101
f  57//101 63//106 68//101
f  69//69 60//69 59//69
f  70//104 64//104 60//103
f  55//69 83//69 64//69
f  64//4 83//4 55//4
f  71//107 69//107 65//102
f  55//69 71//69 77//69
f  77//4 71//4 55//4
f  59//102 65//102 69//107
f  72//105 66//105 62//99
f  66//69 67//69 56//69
f  73//69 62//69 80//69
f  80//4 62//4 73//4
f  63//106 67//108 73//106
f  73//106 68//101 63//106
f  74//69 60//69 69//69
f  64//104 70//104 75//109
f  70//69 60//69 76//69
f  55//69 77//69 83//69
f  83//4 77//4 55//4
f  64//69 83//69 84//69
f  84//4 83//4 64//4
f  69//107 71//107 74//110
f  77//110 74//110 71//107
f  66//105 72//105 78//111
f  80//69 62//69 72//69
f  72//4 62//4 80//4
f  79//69 67//69 66//69
f  80//108 73//106 67//108
f  76//69 60//69 74//69
f  81//109 75//109 70//104
f  64//69 84//69 75//69
f  75//4 84//4 64//4
f  82//69 70//69 76//69
f  83//112 76//112 77//110
f  84//113 82//113 83//112
f  74//110 77//110 76//112
f  85//111 78//111 72//105
f  78//69 79//69 66//69
f  80//69 72//69 90//69
f  90//4 72//4 80//4
f  67//108 79//114 80//108
f  75//109 81//109 86//115
f  81//69 70//69 82//69
f  75//69 84//69 86//69
f  86//4 84//4 75//4
f  76//112 83//112 82//113
f  82//113 84//113 87//115
f  78//111 85//111 88//116
f  90//69 72//69 85//69
f  85//4 72//4 90//4
f  89//69 79//69 78//69
f  90//114 80//108 79//114
f  87//115 86//115 81//109
f  87//69 81//69 82//69
f  86//115 87//115 84//113
f  91//116 88//116 85//111
f  88//69 89//69 78//69
f  90//69 85//69 94//69
f  94//4 85//4 90//4
f  79//114 89//117 90//114
f  91//118 92//119 88//118
f  94//69 85//69 91//69
f  91//4 85//4 94//4
f  93//69 89//69 88//69
f  94//117 90//114 89//117
f  95//119 88//118 92//119
f  97//69 91//69 92//69
f  92//4 91//4 97//4
f  94//69 91//69 97//69
f  97//4 91//4 94//4
f  89//117 93//120 94//117
f  95//69 93//69 88//69
f  92//119 96//121 95//119
f  97//69 92//69 100//69
f  100//4 92//4 97//4
f  97//120 94//117 93//120
f  98//69 93//69 95//69
f  99//121 95//119 96//121
f  100//69 92//69 96//69
f  96//4 92//4 100//4
f  100//122 97//120 98//122
f  93//120 98//122 97//120
f  99//69 98//69 95//69
f  96//121 101//123 99//121
f  100//69 96//69 101//69
f  101//4 96//4 100//4
f  98//122 102//124 100//122
f  103//69 98//69 99//69
f  103//123 99//121 101//123
f  100//69 101//69 104//69
f  104//4 101//4 100//4
f  104//124 100//122 102//124
f  102//69 98//69 103//69
f  103//123 101//123 105//125
f  104//69 101//69 107//69
f  107//4 101//4 104//4
f  102//124 106//126 104//124
f  105//69 102//69 103//69
f  107//125 105//125 101//123
f  104//69 107//69 111//69
f  111//4 107//4 104//4
f  108//126 104//124 106//126
f  106//69 102//69 109//69
f  110//69 102//69 105//69
f  105//125 107//125 110//127
f  111//127 110//127 107//125
f  104//69 111//69 114//69
f  114//4 111//4 104//4
f  104//69 114//69 108//69
f  108//4 114//4 104//4
f  108//128 106//128 112//129
f  109//69 102//69 110//69
f  113//69 106//69 109//69
f  110//127 111//127 109//130
f  114//130 109//130 111//127
f  108//69 114//69 117//69
f  117//4 114//4 108//4
f  115//129 112//129 106//128
f  108//69 118//69 112//69
f  112//4 118//4 108//4
f  116//69 106//69 113//69
f  109//130 114//130 113//131
f  117//131 113//131 114//130
f  108//69 117//69 121//69
f  121//4 117//4 108//4
f  112//129 115//129 118//132
f  115//69 106//69 119//69
f  108//69 122//69 118//69
f  118//4 122//4 108//4
f  120//69 106//69 116//69
f  113//131 117//131 116//133
f  121//133 116//133 117//131
f  108//69 121//69 122//69
f  122//4 121//4 108//4
f  119//132 118//132 115//129
f  119//69 106//69 120//69
f  118//132 119//132 122//134
f  116//133 121//133 120//134
f  122//134 120//134 121//133
f  120//134 122//134 119//132

# Mesh 'mesh2_mesh2-geometry' with 60 faces
g mesh2_mesh2-geometry
usemtl material_1_0
l  3 8
l  8 11
l  11 14
l  14 19
l  19 22
l  22 25
l  25 28
l  28 31
l  31 35
l  35 39
l  39 46
l  46 55
l  55 64
l  64 75
l  75 86
l  86 84
l  84 83
l  83 77
l  77 71
l  71 65
l  65 61
l  61 53
l  53 47
l  47 38
l  38 42
l  42 50
l  50 58
l  58 68
l  68 73
l  73 80
l  80 90
l  90 94
l  94 97
l  97 100
l  100 104
l  104 108
l  108 112
l  112 118
l  118 122
l  122 121
l  121 117
l  117 114
l  114 111
l  111 107
l  107 101
l  101 96
l  96 92
l  92 91
l  91 85
l  85 72
l  72 62
l  62 52
l  52 44
l  44 36
l  36 29
l  29 23
l  23 17
l  17 12
l  12 7
l  7 2

