# File produced by Open Asset Import Library (http://www.assimp.sf.net)
# (assimp v3.2.202087883)

mtllib model_normalized.mtl

# 72 vertex positions
v -0.291049 -0.348757 -0.077986
v -0.291049 -0.348757 0.077987
v -0.301316 -0.348757 -0.000000
v -0.260947 -0.348757 0.150658
v -0.301316 0.174378 -0.000000
v -0.291049 0.174378 -0.077986
v -0.260947 -0.348757 -0.150658
v -0.291049 0.174378 0.077987
v -0.260947 0.174378 -0.150658
v -0.213062 -0.348757 0.213062
v -0.260947 0.174378 0.150658
v -0.264132 0.174378 -0.000000
v -0.213062 0.174378 -0.213063
v -0.213062 -0.348757 -0.213063
v -0.255132 0.174378 -0.068362
v -0.150658 -0.348757 0.260947
v -0.213062 0.174378 0.213062
v -0.255132 0.174378 0.068363
v -0.150658 -0.348757 -0.260947
v -0.228745 0.174378 -0.132066
v -0.150658 0.174378 0.260947
v -0.150658 0.174378 -0.260947
v -0.186769 0.174378 -0.186770
v -0.077987 -0.348757 0.291049
v -0.077987 0.174378 0.291049
v -0.186769 0.174378 0.186769
v -0.228745 0.174378 0.132066
v -0.077987 -0.348757 -0.291048
v -0.132066 0.174378 0.228746
v -0.132066 0.174378 -0.228745
v -0.077987 0.174378 -0.291048
v 0.000000 -0.348757 0.301315
v 0.000000 0.174378 0.301315
v -0.068363 0.174378 0.255132
v 0.000000 -0.348757 -0.301316
v -0.068363 0.174378 -0.255131
v 0.000000 0.174378 -0.301316
v 0.077986 -0.348757 -0.291048
v 0.077986 0.174378 0.291049
v 0.000000 0.174378 0.264132
v 0.077986 -0.348757 0.291049
v 0.000000 0.174378 -0.264132
v 0.077986 0.174378 -0.291048
v 0.150658 -0.348757 0.260947
v 0.150658 0.174378 0.260947
v 0.068363 0.174378 0.255132
v 0.068363 0.174378 -0.255131
v 0.150658 -0.348757 -0.260947
v 0.132066 0.174378 0.228746
v 0.132066 0.174378 -0.228745
v 0.150658 0.174378 -0.260947
v 0.213062 -0.348757 0.213062
v 0.213062 0.174378 0.213062
v 0.186765 0.174378 0.186769
v 0.213062 -0.348757 -0.213063
v 0.186765 0.174378 -0.186770
v 0.213062 0.174378 -0.213063
v 0.260952 -0.348757 -0.150658
v 0.260952 -0.348757 0.150658
v 0.228744 0.174378 0.132066
v 0.260952 0.174378 -0.150658
v 0.260952 0.174378 0.150658
v 0.228744 0.174378 -0.132066
v 0.291046 0.174378 -0.077986
v 0.291046 -0.348757 -0.077986
v 0.291046 -0.348757 0.077987
v 0.255131 0.174378 0.068363
v 0.255131 0.174378 -0.068362
v 0.264132 0.174378 -0.000000
v 0.291046 0.174378 0.077987
v 0.301316 0.174378 -0.000000
v 0.301316 -0.348757 -0.000000

# 0 UV coordinates

# 26 vertex normals
vn 0 -0.01 0
vn 0 0.01 0
vn -0.00965926 0 0.00258819
vn -0.01 0 0
vn 0.01 0 0
vn 0.00965926 0 -0.00258819
vn -0.00965926 0 -0.00258819
vn 0.00965926 0 0.00258819
vn -0.00866025 0 0.005
vn 0.00866025 0 -0.005
vn -0.00866025 0 -0.005
vn 0.00866025 0 0.005
vn -0.00707107 0 -0.00707107
vn 0.00707107 0 0.00707107
vn -0.00707107 0 0.00707107
vn 0.00707107 0 -0.00707107
vn -0.005 0 -0.00866025
vn 0.005 0 0.00866025
vn -0.005 0 0.00866025
vn 0.005 0 -0.00866025
vn -0.00258819 0 0.00965926
vn 0.00258819 0 -0.00965926
vn -0.00258819 0 -0.00965926
vn 0.00258819 0 0.00965926
vn 0 0 0.01
vn 0 0 -0.01

# Mesh 'mesh1_mesh1-geometry' with 188 faces
g mesh1_mesh1-geometry
usemtl material_0_24
f  1//1 2//1 3//1
f  2//1 1//1 4//1
f  3//2 2//2 1//2
f  4//2 1//2 2//2
f  2//3 5//4 3//4
f  3//5 5//5 2//6
f  3//4 6//7 1//7
f  1//8 6//8 3//5
f  4//1 1//1 7//1
f  7//2 1//2 4//2
f  4//9 8//3 2//3
f  2//6 8//6 4//10
f  5//4 2//3 8//3
f  8//6 2//6 5//5
f  6//7 3//4 5//4
f  5//5 3//5 6//8
f  9//11 1//7 6//7
f  6//8 1//8 9//12
f  1//7 9//11 7//11
f  7//12 9//12 1//8
f  4//1 7//1 10//1
f  10//2 7//2 4//2
f  8//3 4//9 11//9
f  11//10 4//10 8//6
f  8//2 6//2 5//2
f  12//2 9//2 6//2
f  13//13 7//11 9//11
f  9//12 7//12 13//14
f  10//1 7//1 14//1
f  14//2 7//2 10//2
f  10//15 11//9 4//9
f  4//10 11//10 10//16
f  6//2 8//2 11//2
f  9//2 12//2 15//2
f  6//2 11//2 12//2
f  7//11 13//13 14//13
f  14//14 13//14 7//12
f  9//2 15//2 13//2
f  10//1 14//1 16//1
f  16//2 14//2 10//2
f  11//9 10//15 17//15
f  17//16 10//16 11//10
f  12//2 11//2 18//2
f  13//13 19//17 14//13
f  14//14 19//18 13//14
f  13//2 15//2 20//2
f  16//1 14//1 19//1
f  19//2 14//2 16//2
f  21//19 10//15 16//19
f  16//20 10//16 21//20
f  10//15 21//19 17//15
f  17//16 21//20 10//16
f  18//2 11//2 17//2
f  19//17 13//13 22//17
f  22//18 13//14 19//18
f  13//2 20//2 23//2
f  16//1 19//1 24//1
f  24//2 19//2 16//2
f  16//19 25//21 21//19
f  21//20 25//22 16//20
f  26//2 17//2 21//2
f  18//2 17//2 27//2
f  13//2 23//2 22//2
f  22//17 28//23 19//17
f  19//18 28//24 22//18
f  24//1 19//1 28//1
f  28//2 19//2 24//2
f  25//21 16//19 24//21
f  24//22 16//20 25//22
f  29//2 21//2 25//2
f  27//2 17//2 26//2
f  26//2 21//2 29//2
f  22//2 23//2 30//2
f  28//23 22//17 31//23
f  31//24 22//18 28//24
f  24//1 28//1 32//1
f  32//2 28//2 24//2
f  24//21 33//25 25//21
f  25//22 33//26 24//22
f  29//2 25//2 34//2
f  22//2 30//2 31//2
f  31//23 35//26 28//23
f  28//24 35//25 31//24
f  32//1 28//1 35//1
f  35//2 28//2 32//2
f  33//25 24//21 32//25
f  32//26 24//22 33//26
f  34//2 25//2 33//2
f  31//2 30//2 36//2
f  35//26 31//23 37//26
f  37//25 31//24 35//25
f  32//1 35//1 38//1
f  38//2 35//2 32//2
f  32//25 39//24 33//25
f  33//26 39//23 32//26
f  34//2 33//2 40//2
f  31//2 36//2 37//2
f  37//26 38//22 35//26
f  35//25 38//21 37//25
f  32//1 38//1 41//1
f  41//2 38//2 32//2
f  39//24 32//25 41//24
f  41//23 32//26 39//23
f  40//2 33//2 39//2
f  37//2 36//2 42//2
f  38//22 37//26 43//22
f  43//21 37//25 38//21
f  41//1 38//1 44//1
f  44//2 38//2 41//2
f  41//24 45//18 39//24
f  39//23 45//17 41//23
f  40//2 39//2 46//2
f  37//2 42//2 47//2
f  37//2 47//2 43//2
f  43//22 48//20 38//22
f  38//21 48//19 43//21
f  44//1 38//1 48//1
f  48//2 38//2 44//2
f  45//18 41//24 44//18
f  44//17 41//23 45//17
f  49//2 39//2 45//2
f  46//2 39//2 49//2
f  43//2 47//2 50//2
f  48//20 43//22 51//20
f  51//19 43//21 48//19
f  44//1 48//1 52//1
f  52//2 48//2 44//2
f  44//18 53//14 45//18
f  45//17 53//13 44//17
f  49//2 45//2 54//2
f  43//2 50//2 51//2
f  51//20 55//16 48//20
f  48//19 55//15 51//19
f  52//1 48//1 55//1
f  55//2 48//2 52//2
f  53//14 44//18 52//14
f  52//13 44//17 53//13
f  54//2 45//2 53//2
f  51//2 50//2 56//2
f  55//16 51//20 57//16
f  57//15 51//19 55//15
f  52//1 55//1 58//1
f  58//2 55//2 52//2
f  59//12 53//14 52//14
f  52//13 53//13 59//11
f  54//2 53//2 60//2
f  51//2 56//2 57//2
f  61//10 55//16 57//16
f  57//15 55//15 61//9
f  55//16 61//10 58//10
f  58//9 61//9 55//15
f  52//1 58//1 59//1
f  59//2 58//2 52//2
f  53//14 59//12 62//12
f  62//11 59//11 53//13
f  60//2 53//2 62//2
f  57//2 56//2 63//2
f  57//2 63//2 61//2
f  64//6 58//10 61//10
f  61//9 58//9 64//3
f  59//1 58//1 65//1
f  65//2 58//2 59//2
f  66//8 62//12 59//12
f  59//11 62//11 66//7
f  60//2 62//2 67//2
f  61//2 63//2 68//2
f  58//10 64//6 65//6
f  65//3 64//3 58//9
f  61//2 69//2 64//2
f  59//1 65//1 66//1
f  66//2 65//2 59//2
f  62//12 66//8 70//8
f  70//7 66//7 62//11
f  67//2 62//2 69//2
f  61//2 68//2 69//2
f  71//5 65//6 64//6
f  64//3 65//3 71//4
f  64//2 69//2 70//2
f  66//1 65//1 72//1
f  72//2 65//2 66//2
f  72//5 70//8 66//8
f  66//7 70//7 72//4
f  69//2 62//2 70//2
f  65//6 71//5 72//5
f  72//4 71//4 65//3
f  64//2 70//2 71//2
f  70//8 72//5 71//5
f  71//4 72//4 70//7

# Mesh 'mesh1_mesh1-geometry' with 48 faces
g mesh1_mesh1-geometry
usemtl material_1_24
f  5//1 6//1 8//1
f  6//1 9//1 12//1
f  11//1 8//1 6//1
f  15//1 12//1 9//1
f  12//1 11//1 6//1
f  13//1 15//1 9//1
f  18//1 11//1 12//1
f  20//1 15//1 13//1
f  17//1 11//1 18//1
f  23//1 20//1 13//1
f  21//1 17//1 26//1
f  27//1 17//1 18//1
f  22//1 23//1 13//1
f  25//1 21//1 29//1
f  26//1 17//1 27//1
f  29//1 21//1 26//1
f  30//1 23//1 22//1
f  34//1 25//1 29//1
f  31//1 30//1 22//1
f  33//1 25//1 34//1
f  36//1 30//1 31//1
f  40//1 33//1 34//1
f  37//1 36//1 31//1
f  39//1 33//1 40//1
f  42//1 36//1 37//1
f  46//1 39//1 40//1
f  47//1 42//1 37//1
f  43//1 47//1 37//1
f  45//1 39//1 49//1
f  49//1 39//1 46//1
f  50//1 47//1 43//1
f  54//1 45//1 49//1
f  51//1 50//1 43//1
f  53//1 45//1 54//1
f  56//1 50//1 51//1
f  60//1 53//1 54//1
f  57//1 56//1 51//1
f  62//1 53//1 60//1
f  63//1 56//1 57//1
f  61//1 63//1 57//1
f  67//1 62//1 60//1
f  68//1 63//1 61//1
f  64//1 69//1 61//1
f  69//1 62//1 67//1
f  69//1 68//1 61//1
f  70//1 69//1 64//1
f  70//1 62//1 69//1
f  71//1 70//1 64//1

