# File produced by Open Asset Import Library (http://www.assimp.sf.net)
# (assimp v3.2.202087883)

mtllib model_normalized.mtl

# 98 vertex positions
v 0.388777 -0.058750 -0.090545
v 0.388777 -0.046261 0.090545
v 0.388777 -0.058750 0.090545
v 0.388777 -0.046261 0.006245
v -0.360563 -0.058750 0.090545
v 0.270132 -0.058750 0.090545
v 0.388777 -0.046261 -0.006245
v 0.294691 -0.046261 0.006245
v 0.257643 -0.058750 0.090545
v -0.360563 -0.046261 0.090545
v 0.270132 -0.058750 -0.090545
v 0.388777 -0.046261 -0.090545
v 0.388777 0.141074 0.006245
v -0.231000 -0.046261 -0.090545
v -0.266479 -0.058750 0.006245
v -0.231000 -0.046261 0.090545
v -0.360563 -0.046261 -0.090545
v 0.257643 -0.058750 -0.090545
v 0.270132 -0.246085 -0.090545
v -0.360563 -0.058750 -0.090545
v 0.257643 -0.246085 0.090545
v 0.294691 -0.046261 -0.006245
v 0.388777 0.141074 -0.006245
v 0.294691 0.141074 0.006245
v -0.360563 -0.058750 0.006245
v -0.241918 -0.046261 0.090545
v 0.270132 -0.246085 0.090545
v -0.241918 -0.046261 -0.090545
v 0.294691 0.141074 -0.006245
v 0.388777 0.153563 -0.090545
v -0.231000 0.141074 0.090545
v 0.388777 0.141074 0.090545
v -0.266479 -0.058750 -0.006245
v -0.360563 -0.246085 0.006245
v -0.360563 -0.058750 -0.006245
v 0.257643 -0.246085 -0.090545
v 0.388777 -0.246085 0.090545
v -0.360563 -0.246085 0.090545
v 0.388777 0.153563 0.090545
v 0.388777 0.141074 -0.090545
v -0.231000 0.141074 -0.090545
v -0.266479 -0.246085 -0.006245
v -0.266479 -0.246085 0.006245
v -0.241918 0.141074 0.090545
v -0.241918 0.141074 -0.090545
v 0.388777 -0.246085 -0.090545
v 0.270132 0.153563 -0.090545
v -0.360563 0.153563 -0.090545
v -0.360563 0.141074 0.090545
v -0.360563 -0.246085 -0.006245
v -0.360563 -0.246085 -0.090545
v 0.388777 -0.258574 -0.090545
v -0.360563 -0.258574 0.090545
v 0.270132 0.153563 0.090545
v 0.257643 0.153563 -0.090545
v -0.360563 0.141074 -0.090545
v -0.360563 0.153563 0.090545
v -0.360563 -0.258574 -0.090545
v 0.388777 -0.258574 0.090545
v -0.260651 -0.258574 0.090545
v 0.270132 0.334656 0.090545
v 0.257643 0.334656 -0.090545
v -0.360563 0.153563 -0.006245
v -0.266479 0.153563 -0.006245
v -0.360563 0.153563 0.006245
v 0.288865 -0.258574 -0.090545
v 0.288865 -0.258574 0.090545
v -0.248162 -0.258574 0.090545
v -0.260651 -0.258574 -0.090545
v 0.270132 0.334656 -0.090545
v 0.257643 0.153563 0.090545
v 0.275277 -0.258574 -0.090545
v 0.275277 -0.258574 0.090545
v -0.260651 -0.289796 0.090545
v 0.388777 0.334656 -0.090545
v 0.257643 0.334656 0.090545
v -0.360563 0.347145 -0.090545
v -0.360563 0.334656 -0.006245
v -0.266479 0.153563 0.006245
v -0.248000 -0.258574 -0.090545
v 0.288865 -0.289796 -0.090545
v 0.275277 -0.289796 0.090545
v -0.248162 -0.289796 0.090545
v -0.260651 -0.289796 -0.090545
v 0.388777 0.334656 0.090545
v 0.388777 0.347145 0.090545
v -0.360563 0.334656 -0.090545
v -0.360563 0.334656 0.090545
v -0.360563 0.334656 0.006245
v -0.266479 0.340901 -0.006245
v -0.266479 0.340901 0.006245
v -0.248000 -0.289796 -0.090545
v 0.275277 -0.289796 -0.090545
v 0.288865 -0.289796 0.090545
v 0.388777 0.347145 -0.090545
v -0.360563 0.340901 -0.006245
v -0.360563 0.347145 0.090545
v -0.360563 0.340901 0.006245

# 0 UV coordinates

# 8 vertex normals
vn 1 0 0
vn -1 -0 0
vn 0 0 1
vn 0 0 -1
vn 0 -1 0
vn 0 1 0
vn 1 0 0.000899
vn -1 0 -0.000899

# Mesh 'mesh1_mesh1-geometry' with 432 faces
g mesh1_mesh1-geometry
usemtl material_0_24
f  1//1 2//1 3//1
f  2//1 1//1 4//1
f  3//2 2//2 1//2
f  4//2 1//2 2//2
f  5//3 3//3 2//3
f  2//4 3//4 5//4
f  6//5 1//5 3//5
f  3//6 1//6 6//6
f  4//1 1//1 7//1
f  7//2 1//2 4//2
f  8//6 2//6 4//6
f  4//5 2//5 8//5
f  9//3 3//3 5//3
f  5//4 3//4 9//4
f  5//3 2//3 10//3
f  10//4 2//4 5//4
f  1//5 6//5 11//5
f  11//6 6//6 1//6
f  3//3 9//3 6//3
f  6//4 9//4 3//4
f  7//1 1//1 12//1
f  12//2 1//2 7//2
f  4//1 7//1 13//1
f  13//2 7//2 4//2
f  14//6 2//6 8//6
f  8//5 2//5 14//5
f  13//3 8//3 4//3
f  4//4 8//4 13//4
f  5//5 15//5 9//5
f  9//6 15//6 5//6
f  10//3 2//3 16//3
f  16//4 2//4 10//4
f  17//2 5//2 10//2
f  10//1 5//1 17//1
f  18//6 6//6 11//6
f  11//5 6//5 18//5
f  6//1 19//1 11//1
f  11//2 19//2 6//2
f  11//4 20//4 1//4
f  1//3 20//3 11//3
f  6//6 18//6 9//6
f  9//5 18//5 6//5
f  21//3 6//3 9//3
f  9//4 6//4 21//4
f  1//4 17//4 12//4
f  12//3 17//3 1//3
f  12//6 22//6 7//6
f  7//5 22//5 12//5
f  23//1 13//1 7//1
f  7//2 13//2 23//2
f  2//6 14//6 16//6
f  16//5 14//5 2//5
f  22//6 14//6 8//6
f  8//5 14//5 22//5
f  8//3 13//3 24//3
f  24//4 13//4 8//4
f  15//5 5//5 25//5
f  25//6 5//6 15//6
f  9//5 15//5 18//5
f  18//6 15//6 9//6
f  10//3 16//3 26//3
f  26//4 16//4 10//4
f  5//2 17//2 25//2
f  25//1 17//1 5//1
f  26//6 17//6 10//6
f  10//5 17//5 26//5
f  19//4 18//4 11//4
f  11//3 18//3 19//3
f  20//4 11//4 18//4
f  18//3 11//3 20//3
f  19//1 6//1 27//1
f  27//2 6//2 19//2
f  1//4 20//4 17//4
f  17//3 20//3 1//3
f  18//2 21//2 9//2
f  9//1 21//1 18//1
f  6//3 21//3 27//3
f  27//4 21//4 6//4
f  12//4 17//4 28//4
f  28//3 17//3 12//3
f  14//6 22//6 12//6
f  12//5 22//5 14//5
f  29//4 7//4 22//4
f  22//3 7//3 29//3
f  30//1 13//1 23//1
f  23//2 13//2 30//2
f  29//6 13//6 23//6
f  23//5 13//5 29//5
f  7//4 29//4 23//4
f  23//3 29//3 7//3
f  14//1 31//1 16//1
f  16//2 31//2 14//2
f  8//2 29//2 22//2
f  22//1 29//1 8//1
f  32//5 24//5 13//5
f  13//6 24//6 32//6
f  13//6 29//6 24//6
f  24//5 29//5 13//5
f  29//2 8//2 24//2
f  24//1 8//1 29//1
f  25//5 33//5 15//5
f  15//6 33//6 25//6
f  34//3 15//3 25//3
f  25//4 15//4 34//4
f  33//5 18//5 15//5
f  15//6 18//6 33//6
f  31//3 26//3 16//3
f  16//4 26//4 31//4
f  25//2 17//2 35//2
f  35//1 17//1 25//1
f  17//6 26//6 28//6
f  28//5 26//5 17//5
f  18//4 19//4 36//4
f  36//3 19//3 18//3
f  18//5 35//5 20//5
f  20//6 35//6 18//6
f  37//6 19//6 27//6
f  27//5 19//5 37//5
f  35//2 17//2 20//2
f  20//1 17//1 35//1
f  21//2 18//2 36//2
f  36//1 18//1 21//1
f  38//3 27//3 21//3
f  21//4 27//4 38//4
f  12//4 28//4 14//4
f  14//3 28//3 12//3
f  39//1 13//1 30//1
f  30//2 13//2 39//2
f  30//1 23//1 40//1
f  40//2 23//2 30//2
f  29//5 40//5 23//5
f  23//6 40//6 29//6
f  31//1 14//1 41//1
f  41//2 14//2 31//2
f  31//5 24//5 32//5
f  32//6 24//6 31//6
f  13//1 39//1 32//1
f  32//2 39//2 13//2
f  24//5 31//5 29//5
f  29//6 31//6 24//6
f  33//5 25//5 35//5
f  35//6 25//6 33//6
f  15//1 42//1 33//1
f  33//2 42//2 15//2
f  15//3 34//3 43//3
f  43//4 34//4 15//4
f  35//2 34//2 25//2
f  25//1 34//1 35//1
f  35//5 18//5 33//5
f  33//6 18//6 35//6
f  26//3 31//3 44//3
f  44//4 31//4 26//4
f  26//2 45//2 28//2
f  28//1 45//1 26//1
f  46//4 36//4 19//4
f  19//3 36//3 46//3
f  19//6 37//6 46//6
f  46//5 37//5 19//5
f  38//3 37//3 27//3
f  27//4 37//4 38//4
f  36//6 42//6 21//6
f  21//5 42//5 36//5
f  21//6 34//6 38//6
f  38//5 34//5 21//5
f  45//4 14//4 28//4
f  28//3 14//3 45//3
f  47//6 39//6 30//6
f  30//5 39//5 47//5
f  40//4 48//4 30//4
f  30//3 48//3 40//3
f  31//5 40//5 29//5
f  29//6 40//6 31//6
f  14//4 45//4 41//4
f  41//3 45//3 14//3
f  45//6 31//6 41//6
f  41//5 31//5 45//5
f  40//5 31//5 41//5
f  41//6 31//6 40//6
f  32//3 44//3 31//3
f  31//4 44//4 32//4
f  49//3 32//3 39//3
f  39//4 32//4 49//4
f  42//4 35//4 33//4
f  33//3 35//3 42//3
f  42//1 15//1 43//1
f  43//2 15//2 42//2
f  34//6 21//6 43//6
f  43//5 21//5 34//5
f  50//2 34//2 35//2
f  35//1 34//1 50//1
f  31//6 45//6 44//6
f  44//5 45//5 31//5
f  45//2 26//2 44//2
f  44//1 26//1 45//1
f  46//4 51//4 36//4
f  36//3 51//3 46//3
f  37//1 52//1 46//1
f  46//2 52//2 37//2
f  53//3 37//3 38//3
f  38//4 37//4 53//4
f  51//6 42//6 36//6
f  36//5 42//5 51//5
f  43//6 21//6 42//6
f  42//5 21//5 43//5
f  34//2 53//2 38//2
f  38//1 53//1 34//1
f  39//6 47//6 54//6
f  54//5 47//5 39//5
f  30//4 55//4 47//4
f  47//3 55//3 30//3
f  40//4 56//4 48//4
f  48//3 56//3 40//3
f  30//4 48//4 55//4
f  55//3 48//3 30//3
f  56//4 41//4 45//4
f  45//3 41//3 56//3
f  41//4 56//4 40//4
f  40//3 56//3 41//3
f  44//3 32//3 49//3
f  49//4 32//4 44//4
f  49//3 39//3 57//3
f  57//4 39//4 49//4
f  35//4 42//4 50//4
f  50//3 42//3 35//3
f  58//2 34//2 50//2
f  50//1 34//1 58//1
f  49//5 45//5 44//5
f  44//6 45//6 49//6
f  52//4 51//4 46//4
f  46//3 51//3 52//3
f  52//1 37//1 59//1
f  59//2 37//2 52//2
f  60//3 37//3 53//3
f  53//4 37//4 60//4
f  42//6 51//6 50//6
f  50//5 51//5 42//5
f  53//2 34//2 58//2
f  58//1 34//1 53//1
f  47//1 61//1 54//1
f  54//2 61//2 47//2
f  57//3 39//3 54//3
f  54//4 39//4 57//4
f  62//4 47//4 55//4
f  55//3 47//3 62//3
f  56//2 63//2 48//2
f  48//1 63//1 56//1
f  48//6 64//6 55//6
f  55//5 64//5 48//5
f  45//5 49//5 56//5
f  56//6 49//6 45//6
f  65//2 49//2 57//2
f  57//1 49//1 65//1
f  58//2 50//2 51//2
f  51//1 50//1 58//1
f  66//4 51//4 52//4
f  52//3 51//3 66//3
f  37//3 67//3 59//3
f  59//4 67//4 37//4
f  67//5 52//5 59//5
f  59//6 52//6 67//6
f  68//3 37//3 60//3
f  60//4 37//4 68//4
f  53//5 69//5 60//5
f  60//6 69//6 53//6
f  69//5 53//5 58//5
f  58//6 53//6 69//6
f  61//1 47//1 70//1
f  70//2 47//2 61//2
f  61//3 71//3 54//3
f  54//4 71//4 61//4
f  57//3 54//3 71//3
f  71//4 54//4 57//4
f  47//4 62//4 70//4
f  70//3 62//3 47//3
f  71//2 62//2 55//2
f  55//1 62//1 71//1
f  56//2 65//2 63//2
f  63//1 65//1 56//1
f  64//6 48//6 63//6
f  63//5 48//5 64//5
f  55//6 64//6 71//6
f  71//5 64//5 55//5
f  49//2 65//2 56//2
f  56//1 65//1 49//1
f  71//6 65//6 57//6
f  57//5 65//5 71//5
f  51//4 69//4 58//4
f  58//3 69//3 51//3
f  72//4 51//4 66//4
f  66//3 51//3 72//3
f  52//5 67//5 66//5
f  66//6 67//6 52//6
f  67//3 37//3 73//3
f  73//4 37//4 67//4
f  73//3 37//3 68//3
f  68//4 37//4 73//4
f  74//3 68//3 60//3
f  60//4 68//4 74//4
f  69//2 74//2 60//2
f  60//1 74//1 69//1
f  75//5 61//5 70//5
f  70//6 61//6 75//6
f  76//5 70//5 61//5
f  61//6 70//6 76//6
f  71//3 61//3 76//3
f  76//4 61//4 71//4
f  62//4 77//4 70//4
f  70//3 77//3 62//3
f  70//5 76//5 62//5
f  62//6 76//6 70//6
f  62//2 71//2 76//2
f  76//1 71//1 62//1
f  63//2 65//2 78//2
f  78//1 65//1 63//1
f  78//4 64//4 63//4
f  63//3 64//3 78//3
f  79//6 71//6 64//6
f  64//5 71//5 79//5
f  65//6 71//6 79//6
f  79//5 71//5 65//5
f  69//4 51//4 80//4
f  80//3 51//3 69//3
f  80//4 51//4 72//4
f  72//3 51//3 80//3
f  81//4 72//4 66//4
f  66//3 72//3 81//3
f  67//1 81//1 66//1
f  66//2 81//2 67//2
f  82//3 67//3 73//3
f  73//4 67//4 82//4
f  80//5 73//5 68//5
f  68//6 73//6 80//6
f  68//3 74//3 83//3
f  83//4 74//4 68//4
f  74//2 69//2 84//2
f  84//1 69//1 74//1
f  61//5 75//5 85//5
f  85//6 75//6 61//6
f  70//4 77//4 75//4
f  75//3 77//3 70//3
f  61//3 86//3 76//3
f  76//4 86//4 61//4
f  77//4 62//4 87//4
f  87//3 62//3 77//3
f  88//5 62//5 76//5
f  76//6 62//6 88//6
f  78//2 65//2 89//2
f  89//1 65//1 78//1
f  64//4 78//4 90//4
f  90//3 78//3 64//3
f  64//1 91//1 79//1
f  79//2 91//2 64//2
f  91//3 65//3 79//3
f  79//4 65//4 91//4
f  92//4 69//4 80//4
f  80//3 69//3 92//3
f  73//5 80//5 72//5
f  72//6 80//6 73//6
f  72//4 81//4 93//4
f  93//3 81//3 72//3
f  81//1 67//1 94//1
f  94//2 67//2 81//2
f  67//3 82//3 94//3
f  94//4 82//4 67//4
f  72//2 82//2 73//2
f  73//1 82//1 72//1
f  68//7 92//7 80//7
f  80//8 92//8 68//8
f  74//5 92//5 83//5
f  83//6 92//6 74//6
f  92//7 68//7 83//7
f  83//8 68//8 92//8
f  69//4 92//4 84//4
f  84//3 92//3 69//3
f  92//5 74//5 84//5
f  84//6 74//6 92//6
f  75//1 86//1 85//1
f  85//2 86//2 75//2
f  86//3 61//3 85//3
f  85//4 61//4 86//4
f  75//4 77//4 95//4
f  95//3 77//3 75//3
f  76//3 86//3 88//3
f  88//4 86//4 76//4
f  62//5 78//5 87//5
f  87//6 78//6 62//6
f  78//2 77//2 87//2
f  87//1 77//1 78//1
f  89//5 62//5 88//5
f  88//6 62//6 89//6
f  65//3 91//3 89//3
f  89//4 91//4 65//4
f  89//2 96//2 78//2
f  78//1 96//1 89//1
f  78//5 62//5 89//5
f  89//6 62//6 78//6
f  90//4 78//4 96//4
f  96//3 78//3 90//3
f  91//1 64//1 90//1
f  90//2 64//2 91//2
f  81//5 82//5 93//5
f  93//6 82//6 81//6
f  82//2 72//2 93//2
f  93//1 72//1 82//1
f  82//5 81//5 94//5
f  94//6 81//6 82//6
f  86//1 75//1 95//1
f  95//2 75//2 86//2
f  77//6 86//6 95//6
f  95//5 86//5 77//5
f  88//3 86//3 97//3
f  97//4 86//4 88//4
f  96//2 77//2 78//2
f  78//1 77//1 96//1
f  89//2 88//2 98//2
f  98//1 88//1 89//1
f  89//3 91//3 98//3
f  98//4 91//4 89//4
f  96//2 89//2 98//2
f  98//1 89//1 96//1
f  96//6 91//6 90//6
f  90//5 91//5 96//5
f  86//6 77//6 97//6
f  97//5 77//5 86//5
f  97//2 98//2 88//2
f  88//1 98//1 97//1
f  98//2 77//2 96//2
f  96//1 77//1 98//1
f  91//6 96//6 98//6
f  98//5 96//5 91//5
f  98//2 97//2 77//2
f  77//1 97//1 98//1

# Mesh 'mesh2_mesh2-geometry' with 157 faces
g mesh2_mesh2-geometry
usemtl material_1_0
l  33 15
l  33 35
l  42 33
l  15 25
l  43 15
l  35 20
l  50 35
l  25 35
l  42 43
l  42 50
l  34 25
l  5 25
l  43 34
l  20 18
l  20 17
l  51 50
l  34 38
l  5 10
l  9 5
l  18 11
l  18 9
l  36 18
l  17 28
l  10 17
l  36 51
l  58 51
l  38 21
l  53 38
l  26 10
l  6 9
l  21 9
l  6 11
l  11 1
l  19 11
l  36 21
l  28 26
l  28 45
l  69 58
l  58 53
l  53 60
l  26 44
l  16 26
l  3 6
l  27 6
l  1 3
l  1 12
l  46 19
l  27 19
l  45 56
l  45 44
l  41 45
l  60 69
l  69 84
l  60 74
l  49 44
l  44 31
l  16 14
l  2 16
l  16 31
l  3 2
l  27 37
l  12 7
l  14 12
l  37 46
l  52 46
l  56 49
l  56 48
l  40 41
l  14 41
l  31 41
l  74 84
l  92 84
l  74 83
l  49 57
l  31 32
l  4 2
l  59 37
l  7 23
l  22 7
l  59 52
l  52 66
l  48 63
l  55 48
l  23 40
l  40 30
l  80 92
l  83 92
l  68 83
l  65 57
l  57 71
l  32 39
l  32 13
l  4 13
l  8 4
l  67 59
l  13 23
l  29 23
l  22 8
l  22 29
l  67 66
l  66 81
l  64 63
l  63 78
l  71 55
l  55 62
l  30 47
l  39 30
l  72 80
l  68 80
l  68 73
l  65 89
l  79 65
l  71 76
l  54 39
l  24 13
l  8 24
l  67 94
l  29 24
l  94 81
l  81 93
l  64 79
l  64 90
l  78 96
l  78 89
l  87 78
l  70 62
l  62 87
l  76 62
l  47 54
l  47 70
l  73 72
l  72 93
l  73 82
l  89 98
l  89 88
l  79 91
l  76 61
l  88 76
l  54 61
l  82 94
l  82 93
l  90 91
l  90 96
l  96 98
l  87 77
l  75 70
l  70 61
l  91 98
l  88 97
l  61 85
l  95 77
l  77 97
l  75 95
l  85 75
l  97 86
l  85 86
l  86 95

