# File produced by Open Asset Import Library (http://www.assimp.sf.net)
# (assimp v3.2.202087883)

mtllib model_normalized.mtl

# 116 vertex positions
v 0.181623 -0.105291 0.048859
v 0.180894 -0.105291 -0.048306
v 0.187654 -0.105291 0.000228
v 0.163210 -0.105291 0.094272
v 0.175356 -0.093454 -0.046777
v 0.181908 -0.093454 0.000271
v 0.158212 -0.093454 0.091436
v 0.161803 -0.105291 -0.093437
v 0.156848 -0.093454 -0.090526
v 0.176062 -0.093454 0.047414
v 0.129577 -0.093454 0.129339
v 0.133671 -0.105291 0.133372
v 0.143828 -0.093454 0.039036
v 0.131681 -0.105291 -0.132090
v 0.127648 -0.093454 -0.127996
v 0.148605 -0.093454 0.000521
v 0.095018 -0.105291 0.163494
v 0.129246 -0.093454 0.075001
v 0.143251 -0.093454 -0.037916
v 0.092109 -0.093454 0.158539
v 0.092581 -0.105291 -0.161629
v 0.089746 -0.093454 -0.156631
v 0.128131 -0.093454 -0.073659
v 0.049888 -0.105291 0.182585
v 0.105852 -0.093454 0.105966
v 0.104275 -0.093454 -0.104270
v 0.048359 -0.093454 0.177046
v 0.075240 -0.093454 0.129822
v 0.047169 -0.105291 -0.180041
v 0.045723 -0.093454 -0.174480
v 0.073309 -0.093454 -0.127664
v 0.001353 -0.105291 0.189345
v 0.039498 -0.093454 0.144942
v 0.001310 -0.093454 0.183600
v -0.001462 -0.105291 -0.186073
v -0.001419 -0.093454 -0.180327
v 0.037345 -0.093454 -0.142246
v -0.047278 -0.105291 0.183314
v 0.001060 -0.093454 0.150296
v -0.045832 -0.093454 0.177752
v -0.049997 -0.105291 -0.179313
v -0.048467 -0.093454 -0.173774
v -0.001169 -0.093454 -0.147023
v -0.092691 -0.105291 0.164901
v -0.039607 -0.093454 -0.141669
v -0.085461 0.095940 -0.003471
v 0.085639 0.056124 -0.003471
v -0.085461 0.056124 -0.003471
v -0.343724 0.015232 -0.003471
v -0.150026 0.095940 -0.003471
v -0.037454 -0.093454 0.145519
v -0.089854 -0.093454 0.159903
v -0.095128 -0.105291 -0.160221
v -0.092217 -0.093454 -0.155266
v -0.075349 -0.093454 -0.126549
v 0.085639 0.095940 -0.003471
v 0.343903 0.015232 -0.003471
v -0.073419 -0.093454 0.130937
v -0.131790 -0.105291 0.135362
v 0.150205 0.095940 -0.003471
v -0.343724 0.399400 -0.003471
v -0.381544 -0.005897 -0.011004
v -0.104385 -0.093454 0.107542
v -0.127758 -0.093454 0.131268
v -0.105961 -0.093454 -0.102694
v -0.133781 -0.105291 -0.130099
v -0.129687 -0.093454 -0.126067
v -0.150026 0.281029 -0.003471
v -0.381544 0.420529 -0.011004
v 0.343903 0.399400 -0.003471
v 0.381722 -0.005897 -0.011004
v -0.085461 0.281029 -0.003471
v 0.085639 0.281029 -0.003471
v -0.161912 -0.105291 0.096709
v -0.128240 -0.093454 0.076932
v 0.150205 0.281029 -0.003471
v 0.381722 0.420529 -0.011004
v 0.381722 -0.005897 -0.028221
v -0.381544 0.420529 -0.028221
v -0.156958 -0.093454 0.093800
v -0.129355 -0.093454 -0.071728
v -0.163319 -0.105291 -0.091000
v -0.381544 -0.005897 -0.028221
v -0.181004 -0.105291 0.051579
v -0.143937 -0.093454 -0.035763
v -0.143360 -0.093454 0.041189
v -0.158321 -0.093454 -0.088163
v 0.381722 0.420529 -0.028221
v -0.367433 0.008213 -0.028221
v -0.175464 -0.093454 0.050050
v -0.148714 -0.093454 0.002751
v -0.181733 -0.105291 -0.045588
v 0.367612 0.406419 -0.028221
v 0.367612 0.008213 -0.028221
v -0.367433 0.406419 -0.028221
v -0.187764 -0.105291 0.003044
v -0.176170 -0.093454 -0.044141
v 0.363970 0.011856 -0.024011
v -0.363791 0.402776 -0.024011
v -0.182018 -0.093454 0.003000
v 0.363970 0.402776 -0.024011
v -0.363791 0.011856 -0.024011
v 0.085639 -0.093454 0.071318
v 0.085639 -0.093454 0.034192
v -0.085461 -0.093454 0.071318
v -0.085461 -0.093454 0.034192
v 0.085639 0.056124 0.012864
v -0.085461 0.056124 0.012864
v 0.085639 0.095940 0.012864
v -0.085461 0.095940 0.012864
v -0.150026 0.095940 0.002103
v 0.085639 0.281029 0.012864
v -0.085461 0.281029 0.012864
v 0.150205 0.281029 0.002103
v -0.150026 0.281029 0.002103
v 0.150205 0.095940 0.002103

# 4 UV coordinates
vt 0 0 0
vt 1 1 0
vt 1 0 0
vt 0 1 0

# 78 vertex normals
vn 0 -1 0
vn 0.867177 0.436715 -0.239342
vn 0.899575 0.436715 -0.006745
vn 0.870668 0.436715 0.226312
vn 0.782427 0.436715 0.443946
vn 0.775682 0.436715 -0.455628
vn 0.640864 0.436715 0.631326
vn 0 1 0
vn 0.631326 0.436715 -0.640864
vn 0.455628 0.436715 0.775682
vn 0.443946 0.436715 -0.782427
vn 0.239342 0.436715 0.867177
vn 0.226312 0.436715 -0.870668
vn 0.006745 0.436715 0.899575
vn -0.006745 0.436715 -0.899575
vn -0.226312 0.436715 0.870668
vn -0.239342 0.436715 -0.867177
vn -0.443946 0.436715 0.782427
vn 0 0 -1
vn 0 0 1
vn -0.455628 0.436715 -0.775682
vn -0.631326 0.436715 0.640864
vn 0 -0.335805 0.941932
vn -0.640864 0.436715 -0.631326
vn -0.195338 0 0.980736
vn -0.775682 0.436715 0.455628
vn 0 0.335805 0.941932
vn 0.195338 0 0.980736
vn -1 0 0
vn -0.782427 0.436715 -0.443946
vn 1 0 0
vn -0.867177 0.436715 0.239342
vn -0.870668 0.436715 -0.226312
vn -0.899575 0.436715 0.006745
vn 0 0.756277 -0.654251
vn 0.756277 0 -0.654251
vn -0.756277 0 -0.654251
vn 0 -0.756277 -0.654251
vn -0.867177 -0.436715 0.239342
vn -0.899575 -0.436715 0.006745
vn -0.870668 -0.436715 -0.226312
vn -0.782427 -0.436715 -0.443946
vn -0.775682 -0.436715 0.455628
vn -0.640864 -0.436715 -0.631326
vn -0.631326 -0.436715 0.640864
vn -0.455628 -0.436715 -0.775682
vn -0.443946 -0.436715 0.782427
vn -0.239342 -0.436715 -0.867177
vn -0.226312 -0.436715 0.870668
vn -0.006745 -0.436715 -0.899575
vn 0.006745 -0.436715 0.899575
vn 0.226312 -0.436715 -0.870668
vn 0 -0.363985 -0.931405
vn 0 0.244177 0.969731
vn 0.239342 -0.436715 0.867177
vn 0.443946 -0.436715 -0.782427
vn 0.455628 -0.436715 0.775682
vn 0.631326 -0.436715 -0.640864
vn 0 0.335805 -0.941932
vn -0.164399 0 -0.986394
vn 0.640864 -0.436715 0.631326
vn 0.195338 0 -0.980736
vn 0.164399 0 -0.986394
vn 0.775682 -0.436715 -0.455628
vn -0 -0.335805 -0.941932
vn -0.195338 0 -0.980736
vn 0.782427 -0.436715 0.443946
vn 0.867177 -0.436715 -0.239342
vn 0.870668 -0.436715 0.226312
vn 0.899575 -0.436715 -0.006745
vn 0 -0.756277 0.654251
vn -0.756277 0 0.654251
vn 0.756277 0 0.654251
vn 0 0.756277 0.654251
vn 0 0.363985 0.931405
vn -0 -0.244177 -0.969731
vn 0.164399 0 0.986394
vn -0.164399 0 0.986394

# Mesh 'mesh1_mesh1-geometry' with 166 faces
g mesh1_mesh1-geometry
usemtl material_0_24
f  1/1/1 2/1/1 3/1/1
f  2/1/1 1/1/1 4/1/1
f  5/1/2 3/1/3 2/1/2
f  6/1/3 1/1/4 3/1/3
f  1/1/4 7/1/5 4/1/5
f  2/1/1 4/1/1 8/1/1
f  3/1/3 5/1/2 6/1/3
f  2/1/2 9/1/6 5/1/2
f  1/1/4 6/1/3 10/1/4
f  7/1/5 1/1/4 10/1/4
f  11/1/7 4/1/5 7/1/5
f  8/1/1 4/1/1 12/1/1
f  9/1/6 2/1/2 8/1/6
f  5/1/8 10/1/8 6/1/8
f  7/1/8 5/1/8 9/1/8
f  10/1/8 5/1/8 7/1/8
f  4/1/5 11/1/7 12/1/7
f  7/1/8 13/1/8 11/1/8
f  8/1/1 12/1/1 14/1/1
f  8/1/6 15/1/9 9/1/6
f  7/1/8 9/1/8 16/1/8
f  11/1/7 17/1/10 12/1/7
f  7/1/8 16/1/8 13/1/8
f  11/1/8 13/1/8 18/1/8
f  14/1/1 12/1/1 17/1/1
f  15/1/9 8/1/6 14/1/9
f  19/1/8 9/1/8 15/1/8
f  9/1/8 19/1/8 16/1/8
f  17/1/10 11/1/7 20/1/10
f  11/1/8 18/1/8 20/1/8
f  14/1/1 17/1/1 21/1/1
f  14/1/9 22/1/11 15/1/9
f  19/1/8 15/1/8 23/1/8
f  20/1/10 24/1/12 17/1/10
f  20/1/8 18/1/8 25/1/8
f  21/1/1 17/1/1 24/1/1
f  22/1/11 14/1/9 21/1/11
f  26/1/8 15/1/8 22/1/8
f  23/1/8 15/1/8 26/1/8
f  24/1/12 20/1/10 27/1/12
f  20/1/8 25/1/8 28/1/8
f  21/1/1 24/1/1 29/1/1
f  21/1/11 30/1/13 22/1/11
f  26/1/8 22/1/8 31/1/8
f  20/1/8 28/1/8 27/1/8
f  27/1/12 32/1/14 24/1/12
f  29/1/1 24/1/1 32/1/1
f  30/1/13 21/1/11 29/1/13
f  31/1/8 22/1/8 30/1/8
f  27/1/8 28/1/8 33/1/8
f  32/1/14 27/1/12 34/1/14
f  29/1/1 32/1/1 35/1/1
f  29/1/13 36/1/15 30/1/13
f  31/1/8 30/1/8 37/1/8
f  27/1/8 33/1/8 34/1/8
f  34/1/14 38/1/16 32/1/14
f  35/1/1 32/1/1 38/1/1
f  36/1/15 29/1/13 35/1/15
f  37/1/8 30/1/8 36/1/8
f  34/1/8 33/1/8 39/1/8
f  38/1/16 34/1/14 40/1/16
f  35/1/1 38/1/1 41/1/1
f  35/1/15 42/1/17 36/1/15
f  37/1/8 36/1/8 43/1/8
f  34/1/8 39/1/8 40/1/8
f  40/1/16 44/1/18 38/1/16
f  41/1/1 38/1/1 44/1/1
f  42/1/17 35/1/15 41/1/17
f  45/1/8 36/1/8 42/1/8
f  43/1/8 36/1/8 45/1/8
f  46/1/19 47/1/19 48/1/19
f  48/1/20 49/1/20 47/1/20
f  50/1/20 48/1/20 46/1/20
f  40/1/8 39/1/8 51/1/8
f  44/1/18 40/1/16 52/1/18
f  41/1/1 44/1/1 53/1/1
f  41/1/17 54/1/21 42/1/17
f  45/1/8 42/1/8 55/1/8
f  47/1/19 46/1/19 56/1/19
f  50/1/20 49/1/20 48/1/20
f  57/1/20 47/1/20 49/1/20
f  40/1/8 51/1/8 58/1/8
f  40/1/8 58/1/8 52/1/8
f  52/1/18 59/1/22 44/1/18
f  53/1/1 44/1/1 59/1/1
f  54/1/21 41/1/17 53/1/21
f  55/1/8 42/1/8 54/1/8
f  56/1/20 47/1/20 60/1/20
f  49/1/20 50/1/20 61/1/20
f  47/1/20 57/1/20 60/1/20
f  62/1/23 57/1/23 49/1/23
f  52/1/8 58/1/8 63/1/8
f  59/1/22 52/1/18 64/1/22
f  55/1/8 54/1/8 65/1/8
f  53/1/1 59/1/1 66/1/1
f  53/1/21 67/1/24 54/1/21
f  61/1/20 50/1/20 68/1/20
f  69/1/25 49/1/25 61/1/25
f  60/1/20 57/1/20 70/1/20
f  57/1/23 62/1/23 71/1/23
f  49/1/25 69/1/25 62/1/25
f  72/1/20 70/1/20 68/1/20
f  73/1/20 70/1/20 72/1/20
f  52/1/8 63/1/8 64/1/8
f  64/1/22 74/1/26 59/1/22
f  65/1/8 54/1/8 67/1/8
f  64/1/8 63/1/8 75/1/8
f  66/1/1 59/1/1 74/1/1
f  67/1/24 53/1/21 66/1/24
f  76/1/20 70/1/20 73/1/20
f  60/1/20 70/1/20 76/1/20
f  61/1/20 68/1/20 70/1/20
f  61/1/27 77/1/27 69/1/27
f  57/1/28 77/1/28 70/1/28
f  62/1/1 78/1/1 71/1/1
f  77/1/28 57/1/28 71/1/28
f  79/1/29 62/1/29 69/1/29
f  74/1/26 64/1/22 80/1/26
f  65/1/8 67/1/8 81/1/8
f  64/1/8 75/1/8 80/1/8
f  66/1/1 74/1/1 82/1/1
f  82/1/30 67/1/24 66/1/24
f  77/1/27 61/1/27 70/1/27
f  77/1/8 79/1/8 69/1/8
f  78/1/1 62/1/1 83/1/1
f  78/1/31 77/1/31 71/1/31
f  62/1/29 79/1/29 83/1/29
f  80/1/26 84/1/32 74/1/26
f  81/1/8 67/1/8 85/1/8
f  80/1/8 75/1/8 86/1/8
f  82/1/1 74/1/1 84/1/1
f  67/1/24 82/1/30 87/1/30
f  79/1/8 77/1/8 88/1/8
f  83/1/19 89/1/19 78/1/19
f  77/1/31 78/1/31 88/1/31
f  89/1/19 83/1/19 79/1/19
f  84/1/32 80/1/26 90/1/32
f  85/1/8 67/1/8 87/1/8
f  80/1/8 86/1/8 91/1/8
f  82/1/1 84/1/1 92/1/1
f  92/1/33 87/1/30 82/1/30
f  88/1/19 93/1/19 79/1/19
f  94/1/19 78/1/19 89/1/19
f  78/1/19 94/1/19 88/1/19
f  89/1/19 79/1/19 95/1/19
f  80/1/8 87/1/8 90/1/8
f  90/1/32 96/1/34 84/1/32
f  85/1/8 87/1/8 91/1/8
f  91/1/8 87/1/8 80/1/8
f  92/1/1 84/1/1 96/1/1
f  87/1/30 92/1/33 97/1/33
f  88/1/19 94/1/19 93/1/19
f  95/1/19 79/1/19 93/1/19
f  89/1/35 98/1/35 94/1/35
f  99/1/36 89/1/36 95/1/36
f  90/1/8 87/1/8 97/1/8
f  96/1/34 90/1/32 100/1/34
f  96/1/34 97/1/33 92/1/33
f  98/1/37 93/1/37 94/1/37
f  101/1/38 95/1/38 93/1/38
f  98/1/35 89/1/35 102/1/35
f  89/1/36 99/1/36 102/1/36
f  95/1/38 101/1/38 99/1/38
f  90/1/8 97/1/8 100/1/8
f  97/1/33 96/1/34 100/1/34
f  93/1/37 98/1/37 101/1/37

# Mesh 'mesh1_mesh1-geometry' with 242 faces
g mesh1_mesh1-geometry
usemtl material_1_24
f  3/1/8 2/1/8 1/1/8
f  4/1/8 1/1/8 2/1/8
f  2/1/39 3/1/40 5/1/39
f  3/1/40 1/1/41 6/1/40
f  4/1/42 7/1/42 1/1/41
f  8/1/8 4/1/8 2/1/8
f  6/1/40 5/1/39 3/1/40
f  5/1/39 9/1/43 2/1/39
f  10/1/41 6/1/40 1/1/41
f  10/1/41 1/1/41 7/1/42
f  7/1/42 4/1/42 11/1/44
f  12/1/8 4/1/8 8/1/8
f  8/1/43 2/1/39 9/1/43
f  6/1/1 10/1/1 5/1/1
f  9/1/1 5/1/1 7/1/1
f  7/1/1 5/1/1 10/1/1
f  12/1/44 11/1/44 4/1/42
f  11/1/1 13/1/1 7/1/1
f  14/1/8 12/1/8 8/1/8
f  9/1/43 15/1/45 8/1/43
f  16/1/1 9/1/1 7/1/1
f  12/1/44 17/1/46 11/1/44
f  13/1/1 16/1/1 7/1/1
f  18/1/1 13/1/1 11/1/1
f  17/1/8 12/1/8 14/1/8
f  14/1/45 8/1/43 15/1/45
f  15/1/1 9/1/1 19/1/1
f  16/1/1 19/1/1 9/1/1
f  20/1/46 11/1/44 17/1/46
f  16/1/1 13/1/1 19/1/1
f  18/1/1 19/1/1 13/1/1
f  20/1/1 18/1/1 11/1/1
f  21/1/8 17/1/8 14/1/8
f  15/1/45 22/1/47 14/1/45
f  23/1/1 15/1/1 19/1/1
f  17/1/46 24/1/48 20/1/46
f  23/1/1 19/1/1 18/1/1
f  25/1/1 18/1/1 20/1/1
f  24/1/8 17/1/8 21/1/8
f  21/1/47 14/1/45 22/1/47
f  22/1/1 15/1/1 26/1/1
f  26/1/1 15/1/1 23/1/1
f  27/1/48 20/1/46 24/1/48
f  25/1/1 23/1/1 18/1/1
f  28/1/1 25/1/1 20/1/1
f  29/1/8 24/1/8 21/1/8
f  22/1/47 30/1/49 21/1/47
f  31/1/1 22/1/1 26/1/1
f  26/1/1 23/1/1 25/1/1
f  27/1/1 28/1/1 20/1/1
f  24/1/48 32/1/50 27/1/48
f  28/1/1 103/1/1 25/1/1
f  32/1/8 24/1/8 29/1/8
f  29/1/49 21/1/47 30/1/49
f  30/1/1 22/1/1 31/1/1
f  26/1/1 104/1/1 31/1/1
f  103/1/1 26/1/1 25/1/1
f  33/1/1 28/1/1 27/1/1
f  34/1/50 27/1/48 32/1/50
f  105/1/1 103/1/1 28/1/1
f  35/1/8 32/1/8 29/1/8
f  30/1/49 36/1/51 29/1/49
f  37/1/1 30/1/1 31/1/1
f  106/1/1 31/1/1 104/1/1
f  104/1/1 26/1/1 103/1/1
f  33/1/1 105/1/1 28/1/1
f  34/1/1 33/1/1 27/1/1
f  32/1/50 38/1/52 34/1/50
f  103/1/53 105/1/53 107/1/53
f  38/1/8 32/1/8 35/1/8
f  35/1/51 29/1/49 36/1/51
f  36/1/1 30/1/1 37/1/1
f  37/1/1 31/1/1 106/1/1
f  106/1/54 104/1/54 48/1/54
f  103/1/29 107/1/29 104/1/29
f  39/1/1 105/1/1 33/1/1
f  39/1/1 33/1/1 34/1/1
f  40/1/52 34/1/50 38/1/52
f  108/1/53 107/1/53 105/1/53
f  41/1/8 38/1/8 35/1/8
f  36/1/51 42/1/55 35/1/51
f  43/1/1 36/1/1 37/1/1
f  43/1/1 37/1/1 106/1/1
f  47/1/54 48/1/54 104/1/54
f  48/1/31 46/1/31 106/1/31
f  104/1/29 107/1/29 47/1/29
f  51/1/1 105/1/1 39/1/1
f  40/1/1 39/1/1 34/1/1
f  38/1/52 44/1/56 40/1/52
f  107/1/19 108/1/19 109/1/19
f  105/1/31 106/1/31 108/1/31
f  44/1/8 38/1/8 41/1/8
f  41/1/55 35/1/51 42/1/55
f  42/1/1 36/1/1 45/1/1
f  45/1/1 36/1/1 43/1/1
f  45/1/1 43/1/1 106/1/1
f  48/1/20 47/1/20 46/1/20
f  47/1/19 49/1/19 48/1/19
f  108/1/31 106/1/31 46/1/31
f  46/1/19 48/1/19 50/1/19
f  107/1/29 109/1/29 47/1/29
f  58/1/1 105/1/1 51/1/1
f  51/1/1 39/1/1 40/1/1
f  52/1/56 40/1/52 44/1/56
f  110/1/19 109/1/19 108/1/19
f  105/1/1 65/1/1 106/1/1
f  53/1/8 44/1/8 41/1/8
f  42/1/55 54/1/57 41/1/55
f  55/1/1 42/1/1 45/1/1
f  55/1/1 45/1/1 106/1/1
f  56/1/20 46/1/20 47/1/20
f  48/1/19 49/1/19 50/1/19
f  49/1/19 47/1/19 57/1/19
f  108/1/31 46/1/31 110/1/31
f  46/1/19 50/1/19 72/1/19
f  50/1/8 111/1/8 46/1/8
f  56/1/29 47/1/29 109/1/29
f  63/1/1 105/1/1 58/1/1
f  58/1/1 51/1/1 40/1/1
f  52/1/1 58/1/1 40/1/1
f  44/1/56 59/1/58 52/1/56
f  110/1/1 46/1/1 109/1/1
f  109/1/19 110/1/19 112/1/19
f  65/1/1 55/1/1 106/1/1
f  63/1/1 65/1/1 105/1/1
f  59/1/8 44/1/8 53/1/8
f  53/1/57 41/1/55 54/1/57
f  54/1/1 42/1/1 55/1/1
f  56/1/1 109/1/1 46/1/1
f  56/1/19 46/1/19 73/1/19
f  60/1/19 47/1/19 56/1/19
f  61/1/19 50/1/19 49/1/19
f  60/1/19 57/1/19 47/1/19
f  49/1/59 57/1/59 62/1/59
f  110/1/8 46/1/8 111/1/8
f  46/1/31 72/1/31 110/1/31
f  68/1/19 72/1/19 50/1/19
f  72/1/19 73/1/19 46/1/19
f  50/1/31 68/1/31 111/1/31
f  56/1/8 109/1/8 60/1/8
f  109/1/29 112/1/29 56/1/29
f  63/1/1 58/1/1 52/1/1
f  64/1/58 52/1/56 59/1/58
f  113/1/19 112/1/19 110/1/19
f  112/1/60 114/1/60 109/1/60
f  65/1/1 54/1/1 55/1/1
f  75/1/1 65/1/1 63/1/1
f  66/1/8 59/1/8 53/1/8
f  54/1/57 67/1/61 53/1/57
f  73/1/29 56/1/29 112/1/29
f  73/1/19 76/1/19 56/1/19
f  60/1/19 56/1/19 76/1/19
f  68/1/19 50/1/19 61/1/19
f  61/1/62 49/1/62 69/1/62
f  70/1/19 57/1/19 60/1/19
f  71/1/59 62/1/59 57/1/59
f  62/1/62 69/1/62 49/1/62
f  110/1/63 111/1/63 113/1/63
f  113/1/31 110/1/31 72/1/31
f  68/1/19 70/1/19 72/1/19
f  72/1/1 113/1/1 68/1/1
f  72/1/19 70/1/19 73/1/19
f  73/1/1 112/1/1 72/1/1
f  115/1/31 111/1/31 68/1/31
f  116/1/8 60/1/8 109/1/8
f  64/1/1 63/1/1 52/1/1
f  59/1/58 74/1/64 64/1/58
f  113/1/1 72/1/1 112/1/1
f  116/1/60 109/1/60 114/1/60
f  112/1/1 73/1/1 114/1/1
f  67/1/1 54/1/1 65/1/1
f  81/1/1 65/1/1 75/1/1
f  75/1/1 63/1/1 64/1/1
f  74/1/8 59/1/8 66/1/8
f  66/1/61 53/1/57 67/1/61
f  73/1/19 70/1/19 76/1/19
f  76/1/1 114/1/1 73/1/1
f  76/1/19 70/1/19 60/1/19
f  76/1/29 60/1/29 114/1/29
f  70/1/19 68/1/19 61/1/19
f  69/1/65 77/1/65 61/1/65
f  70/1/66 77/1/66 57/1/66
f  71/1/8 78/1/8 62/1/8
f  71/1/66 57/1/66 77/1/66
f  69/1/31 62/1/31 79/1/31
f  115/1/63 113/1/63 111/1/63
f  115/1/1 68/1/1 113/1/1
f  116/1/29 114/1/29 60/1/29
f  80/1/64 64/1/58 74/1/64
f  81/1/1 67/1/1 65/1/1
f  86/1/1 81/1/1 75/1/1
f  80/1/1 75/1/1 64/1/1
f  82/1/8 74/1/8 66/1/8
f  66/1/61 67/1/61 82/1/67
f  70/1/65 61/1/65 77/1/65
f  69/1/1 79/1/1 77/1/1
f  83/1/8 62/1/8 78/1/8
f  71/1/29 77/1/29 78/1/29
f  83/1/31 79/1/31 62/1/31
f  74/1/64 84/1/68 80/1/64
f  85/1/1 67/1/1 81/1/1
f  85/1/1 81/1/1 86/1/1
f  86/1/1 75/1/1 80/1/1
f  84/1/8 74/1/8 82/1/8
f  87/1/67 82/1/67 67/1/61
f  88/1/1 77/1/1 79/1/1
f  78/1/20 89/1/20 83/1/20
f  88/1/29 78/1/29 77/1/29
f  79/1/20 83/1/20 89/1/20
f  90/1/68 80/1/64 84/1/68
f  87/1/1 67/1/1 85/1/1
f  91/1/1 85/1/1 86/1/1
f  91/1/1 86/1/1 80/1/1
f  92/1/8 84/1/8 82/1/8
f  82/1/67 87/1/67 92/1/69
f  79/1/20 93/1/20 88/1/20
f  89/1/20 78/1/20 94/1/20
f  88/1/20 94/1/20 78/1/20
f  95/1/20 79/1/20 89/1/20
f  90/1/1 87/1/1 80/1/1
f  84/1/68 96/1/70 90/1/68
f  91/1/1 87/1/1 85/1/1
f  80/1/1 87/1/1 91/1/1
f  96/1/8 84/1/8 92/1/8
f  97/1/69 92/1/69 87/1/67
f  93/1/20 94/1/20 88/1/20
f  93/1/20 79/1/20 95/1/20
f  94/1/71 98/1/71 89/1/71
f  95/1/72 89/1/72 99/1/72
f  97/1/1 87/1/1 90/1/1
f  100/1/70 90/1/68 96/1/70
f  92/1/69 97/1/69 96/1/70
f  94/1/73 93/1/73 98/1/73
f  93/1/74 95/1/74 101/1/74
f  102/1/71 89/1/71 98/1/71
f  102/1/72 99/1/72 89/1/72
f  99/1/74 101/1/74 95/1/74
f  100/1/1 97/1/1 90/1/1
f  100/1/70 96/1/70 97/1/69
f  101/1/73 98/1/73 93/1/73
f  102/1/20 98/1/20 99/1/20
f  101/1/20 99/1/20 98/1/20

# Mesh 'mesh1_mesh1-geometry' with 74 faces
g mesh1_mesh1-geometry
usemtl material_2_24
f  19/1/8 13/1/8 16/1/8
f  13/1/8 19/1/8 18/1/8
f  18/1/8 19/1/8 23/1/8
f  18/1/8 23/1/8 25/1/8
f  25/1/8 23/1/8 26/1/8
f  25/1/8 103/1/8 28/1/8
f  31/1/8 104/1/8 26/1/8
f  25/1/8 26/1/8 103/1/8
f  28/1/8 103/1/8 105/1/8
f  104/1/8 31/1/8 106/1/8
f  103/1/8 26/1/8 104/1/8
f  28/1/8 105/1/8 33/1/8
f  107/1/75 105/1/75 103/1/75
f  106/1/8 31/1/8 37/1/8
f  48/1/76 104/1/76 106/1/76
f  104/1/31 107/1/31 103/1/31
f  33/1/8 105/1/8 39/1/8
f  105/1/75 107/1/75 108/1/75
f  106/1/8 37/1/8 43/1/8
f  104/1/76 48/1/76 47/1/76
f  106/1/29 46/1/29 48/1/29
f  47/1/31 107/1/31 104/1/31
f  39/1/8 105/1/8 51/1/8
f  109/1/20 108/1/20 107/1/20
f  108/1/29 106/1/29 105/1/29
f  106/1/8 43/1/8 45/1/8
f  46/1/29 106/1/29 108/1/29
f  47/1/31 109/1/31 107/1/31
f  51/1/8 105/1/8 58/1/8
f  108/1/20 109/1/20 110/1/20
f  106/1/8 65/1/8 105/1/8
f  106/1/8 45/1/8 55/1/8
f  110/1/29 46/1/29 108/1/29
f  72/1/20 50/1/20 46/1/20
f  46/1/1 111/1/1 50/1/1
f  109/1/31 47/1/31 56/1/31
f  58/1/8 105/1/8 63/1/8
f  109/1/8 46/1/8 110/1/8
f  112/1/20 110/1/20 109/1/20
f  106/1/8 55/1/8 65/1/8
f  105/1/8 65/1/8 63/1/8
f  46/1/8 109/1/8 56/1/8
f  73/1/20 46/1/20 56/1/20
f  111/1/1 46/1/1 110/1/1
f  110/1/29 72/1/29 46/1/29
f  50/1/20 72/1/20 68/1/20
f  46/1/20 73/1/20 72/1/20
f  111/1/29 68/1/29 50/1/29
f  60/1/1 109/1/1 56/1/1
f  56/1/31 112/1/31 109/1/31
f  110/1/20 112/1/20 113/1/20
f  109/1/77 114/1/77 112/1/77
f  63/1/8 65/1/8 75/1/8
f  112/1/31 56/1/31 73/1/31
f  56/1/20 76/1/20 73/1/20
f  76/1/20 56/1/20 60/1/20
f  113/1/78 111/1/78 110/1/78
f  72/1/29 110/1/29 113/1/29
f  68/1/8 113/1/8 72/1/8
f  72/1/8 112/1/8 73/1/8
f  68/1/29 111/1/29 115/1/29
f  109/1/1 60/1/1 116/1/1
f  112/1/8 72/1/8 113/1/8
f  114/1/77 109/1/77 116/1/77
f  114/1/8 73/1/8 112/1/8
f  75/1/8 65/1/8 81/1/8
f  73/1/8 114/1/8 76/1/8
f  114/1/31 60/1/31 76/1/31
f  111/1/78 113/1/78 115/1/78
f  113/1/8 68/1/8 115/1/8
f  60/1/31 114/1/31 116/1/31
f  75/1/8 81/1/8 86/1/8
f  86/1/8 81/1/8 85/1/8
f  86/1/8 85/1/8 91/1/8

# Mesh 'mesh1_mesh1-geometry' with 2 faces
g mesh1_mesh1-geometry
usemtl material_3_1_8
f  99/2/19 98/1/19 102/3/19
f  98/1/19 99/2/19 101/4/19

