# File produced by Open Asset Import Library (http://www.assimp.sf.net)
# (assimp v3.2.202087883)

mtllib model_normalized.mtl

# 162 vertex positions
v 0.296915 0.278711 0.143120
v 0.296915 -0.060443 0.128767
v 0.296915 0.278711 0.128767
v 0.296915 -0.064413 0.128767
v 0.274148 -0.033004 0.128767
v -0.320038 0.278711 0.128767
v 0.296915 -0.091246 0.143120
v 0.283603 -0.060443 0.128767
v -0.320038 -0.060443 0.128767
v 0.274148 0.264240 0.128767
v -0.320038 0.278711 0.143120
v -0.003613 0.278019 0.128767
v 0.296915 -0.064413 0.122512
v 0.296915 -0.060151 0.143120
v 0.283603 -0.064413 0.128767
v -0.298501 -0.033004 0.128767
v 0.274148 -0.033004 0.138960
v -0.003613 0.264707 0.128767
v -0.320038 -0.091246 0.143120
v -0.320038 -0.060151 0.143120
v -0.001890 0.277793 0.128767
v -0.005336 0.277793 0.128767
v 0.296915 -0.091246 0.121358
v 0.283603 -0.064413 0.122512
v 0.296915 -0.095644 0.146177
v -0.307558 -0.060443 0.128767
v 0.274148 0.264240 0.138960
v -0.298501 0.264240 0.128767
v -0.001890 0.264933 0.128767
v -0.000285 0.277127 0.128767
v -0.006941 0.277127 0.128767
v 0.296915 -0.091246 -0.226304
v 0.296915 -0.092503 0.122323
v 0.284188 -0.064413 0.104140
v 0.296915 -0.097618 0.141411
v 0.296915 -0.061417 0.146177
v -0.307558 -0.064413 0.128767
v -0.298501 -0.033004 0.138960
v -0.298501 0.264240 0.138960
v -0.000285 0.265598 0.128767
v -0.320038 -0.064413 0.128767
v 0.001093 0.276070 0.128767
v -0.008320 0.276070 0.128767
v 0.296915 -0.091142 -0.226304
v -0.320038 -0.091246 0.121358
v 0.296915 -0.095644 0.126416
v 0.284188 -0.064413 -0.118846
v -0.308221 -0.064413 0.104140
v 0.296915 -0.098291 0.136296
v 0.296915 -0.092503 0.150269
v -0.307558 -0.064413 0.122512
v -0.005336 0.264933 0.128767
v 0.001093 0.266656 0.128767
v -0.320038 -0.064413 0.122512
v 0.002151 0.274691 0.128767
v -0.009379 0.274691 0.128767
v 0.296915 -0.064517 -0.226304
v -0.320038 -0.091246 -0.226304
v 0.296915 -0.097618 0.131182
v 0.296915 -0.064413 -0.226304
v 0.296915 -0.064557 0.150269
v -0.006941 0.265598 0.128767
v 0.002151 0.268035 0.128767
v -0.320455 -0.091246 0.143120
v -0.320455 -0.095644 0.146177
v -0.320455 -0.060151 0.143120
v -0.320455 -0.061417 0.146177
v 0.002816 0.273086 0.128767
v -0.010043 0.273086 0.128767
v 0.296915 -0.090688 -0.229749
v -0.320038 -0.091142 -0.226304
v -0.320455 -0.092503 0.122323
v -0.320455 -0.091246 0.121358
v -0.320038 -0.064413 -0.226304
v 0.122315 -0.064413 -0.226304
v -0.320455 -0.097618 0.141411
v -0.320455 -0.092503 0.150269
v 0.296915 -0.088411 0.153410
v -0.008320 0.266656 0.128767
v 0.002816 0.269640 0.128767
v 0.003043 0.271363 0.128767
v -0.010270 0.271363 0.128767
v 0.296915 -0.064970 -0.229749
v -0.320038 -0.064517 -0.226304
v -0.320038 -0.064970 -0.229749
v -0.320455 -0.095644 0.126416
v -0.320455 -0.097618 0.131182
v 0.122315 -0.064413 -0.132492
v -0.320455 -0.064557 0.150269
v -0.320455 -0.098291 0.136296
v 0.296915 -0.068650 0.153410
v -0.308221 -0.064413 -0.118846
v -0.009379 0.268035 0.128767
v -0.010043 0.269640 0.128767
v 0.296915 -0.089358 -0.232960
v -0.320038 -0.090688 -0.229749
v 0.122315 -0.064413 -0.225887
v -0.320455 -0.088411 0.153410
v -0.320455 -0.068650 0.153410
v 0.296915 -0.083645 0.155384
v -0.029476 -0.064413 -0.132492
v -0.029476 -0.064413 -0.226096
v -0.029476 -0.064413 -0.226304
v 0.296915 -0.066300 -0.232960
v -0.320038 -0.066300 -0.232960
v 0.122315 -0.064413 -0.205739
v -0.320455 -0.083645 0.155384
v 0.296915 -0.073416 0.155384
v -0.029476 -0.064413 -0.205739
v 0.296915 -0.087243 -0.235717
v -0.320038 -0.089358 -0.232960
v -0.320455 -0.073416 0.155384
v 0.296915 -0.078530 0.156057
v 0.296915 -0.068416 -0.235717
v -0.320038 -0.068416 -0.235717
v -0.320455 -0.078530 0.156057
v 0.296915 -0.084486 -0.237833
v -0.320038 -0.087243 -0.235717
v 0.296915 -0.071173 -0.237833
v -0.320038 -0.071173 -0.237833
v -0.320038 -0.084486 -0.237833
v 0.296915 -0.081275 -0.239163
v -0.320038 -0.074384 -0.239163
v 0.296915 -0.074384 -0.239163
v -0.320038 -0.081275 -0.239163
v 0.296915 -0.077829 -0.239616
v -0.320038 -0.077829 -0.239616
v 0.283603 -0.061417 0.126416
v -0.307558 -0.061417 0.126416
v 0.284188 -0.065245 0.104140
v 0.284188 -0.065245 -0.118846
v -0.308221 -0.065245 0.104140
v 0.048500 -0.064413 -0.226304
v -0.308221 -0.065245 -0.118846
v 0.046420 -0.064413 -0.226304
v 0.048500 -0.064413 -0.225887
v 0.046420 -0.064413 -0.226096
v 0.048500 -0.064413 -0.205739
v 0.048500 -0.061917 -0.225887
v 0.122315 -0.061917 -0.205739
v 0.122315 -0.067117 -0.132492
v -0.029476 -0.067117 -0.205739
v -0.029476 -0.061917 -0.226096
v 0.046420 -0.064413 -0.205739
v 0.122315 -0.061917 -0.225887
v 0.122315 -0.067117 -0.205739
v -0.029476 -0.067117 -0.132492
v -0.029476 -0.061917 -0.205739
v 0.046420 -0.061917 -0.205739
v 0.046420 -0.061917 -0.226096
v 0.048500 -0.061917 -0.205739
v 0.046420 -0.067117 -0.205739
v 0.283132 -0.065245 -0.115348
v -0.308221 -0.065245 -0.115348
v 0.283132 -0.065245 0.098969
v -0.308221 -0.065245 0.098969
v 0.274148 -0.029638 0.138960
v -0.298501 -0.029638 0.138960
v 0.274148 0.260590 0.138960
v -0.298501 0.260590 0.138960
v 0.516989 -0.091246 0.143120
v 0.516989 -0.091246 0.140977

# 4 UV coordinates
vt 0 0 0
vt 1 0 0
vt 0 1 0
vt 1 1 0

# 38 vertex normals
vn 0.0254 0 0
vn 0 0 -0.0254
vn 0 0.0254 0
vn -0.0254 0 0
vn 0 0 0.0254
vn 0 -0.0254 0
vn -0 -0.0234666 -0.00972015
vn -0 -0.021997 -0.0127
vn 0 -0.0234666 0.00972015
vn 0 -0.021997 0.0127
vn 0 0.0154625 0.0201512
vn 0 0.0179605 0.0179605
vn 0 0.021997 -0.0127
vn 0 0.0245345 -0.006574
vn 0 -0.0201512 0.0154625
vn 0 0.021997 0.0127
vn 0 -0.0179605 -0.0179605
vn 0 0.0179605 -0.0179605
vn 0 0.0251827 0.00331536
vn 0 0.0245345 0.006574
vn 0 0.0127 -0.021997
vn 0 -0.0251827 0.00331536
vn 0 -0.0245345 0.006574
vn 0 -0.0127 -0.021997
vn 0 0.006574 -0.0245345
vn 0 -0.006574 -0.0245345
vn 0 -0.0179605 0.0179605
vn 0 0.0127 0.021997
vn 0 -0.0127 0.021997
vn 0 0.006574 0.0245345
vn 0 -0.006574 0.0245345
vn 0 0.0234666 0.00972015
vn 0 0.0234666 -0.00972015
vn 0 -0.0154625 -0.0201512
vn 0 0.0201512 -0.0154625
vn 0 -0.0251827 -0.00331536
vn 0 -0.0245345 -0.006574
vn 0 0.0251827 -0.00331536

# Mesh 'mesh1_mesh1-geometry' with 150 faces
g mesh1_mesh1-geometry
usemtl material_0_24
f  1//1 2//1 3//1
f  2//1 1//1 4//1
f  2//2 5//2 3//2
f  6//3 1//3 3//3
f  7//1 4//1 1//1
f  4//2 8//2 2//2
f  2//2 9//2 5//2
f  3//2 5//2 10//2
f  1//3 6//3 11//3
f  3//2 12//2 6//2
f  7//1 13//1 4//1
f  7//1 1//1 14//1
f  8//2 4//2 15//2
f  8//2 9//2 2//2
f  5//2 9//2 16//2
f  17//4 10//4 5//4
f  3//2 10//2 18//2
f  6//4 19//4 11//4
f  20//5 1//5 11//5
f  11//2 1//2 20//2
f  3//2 21//2 12//2
f  22//2 6//2 12//2
f  23//1 13//1 7//1
f  24//3 4//3 13//3
f  1//5 20//5 14//5
f  14//2 20//2 1//2
f  25//1 7//1 14//1
f  4//3 24//3 15//3
f  9//2 8//2 26//2
f  6//2 16//2 9//2
f  16//3 17//3 5//3
f  10//4 17//4 27//4
f  28//2 18//2 10//2
f  3//2 18//2 29//2
f  9//4 19//4 6//4
f  11//4 19//4 20//4
f  3//2 30//2 21//2
f  31//2 6//2 22//2
f  32//1 13//1 23//1
f  7//1 33//1 23//1
f  13//3 34//3 24//3
f  35//1 7//1 25//1
f  25//1 14//1 36//1
f  37//2 9//2 26//2
f  16//2 6//2 28//2
f  17//3 16//3 38//3
f  39//6 10//6 27//6
f  28//2 6//2 18//2
f  10//6 39//6 28//6
f  3//2 29//2 40//2
f  41//4 19//4 9//4
f  3//2 42//2 30//2
f  43//2 6//2 31//2
f  44//1 13//1 32//1
f  45//6 32//6 23//6
f  33//1 7//1 46//1
f  34//3 13//3 47//3
f  24//3 34//3 48//3
f  49//1 7//1 35//1
f  25//1 36//1 50//1
f  24//3 48//3 51//3
f  9//2 37//2 41//2
f  39//1 16//1 28//1
f  16//1 39//1 38//1
f  18//2 6//2 52//2
f  3//2 40//2 53//2
f  54//4 19//4 41//4
f  3//2 55//2 42//2
f  56//2 6//2 43//2
f  57//1 13//1 44//1
f  32//6 45//6 58//6
f  46//1 7//1 59//1
f  54//4 45//4 19//4
f  60//3 47//3 13//3
f  59//1 7//1 49//1
f  50//1 36//1 61//1
f  54//3 37//3 51//3
f  51//3 48//3 54//3
f  37//3 54//3 41//3
f  52//2 6//2 62//2
f  3//2 53//2 63//2
f  64//4 65//4 66//4
f  66//4 65//4 67//4
f  3//2 68//2 55//2
f  69//2 6//2 56//2
f  13//1 57//1 60//1
f  70//1 57//1 44//1
f  45//4 71//4 58//4
f  72//4 64//4 73//4
f  74//4 45//4 54//4
f  47//3 60//3 75//3
f  64//4 76//4 65//4
f  67//4 65//4 77//4
f  50//1 61//1 78//1
f  54//3 48//3 74//3
f  62//2 6//2 79//2
f  3//2 63//2 80//2
f  3//2 81//2 68//2
f  82//2 6//2 69//2
f  70//1 83//1 57//1
f  71//4 45//4 84//4
f  85//4 71//4 84//4
f  64//4 72//4 86//4
f  64//4 86//4 87//4
f  84//4 45//4 74//4
f  47//3 75//3 88//3
f  67//4 77//4 89//4
f  64//4 90//4 76//4
f  78//1 61//1 91//1
f  92//3 74//3 48//3
f  79//2 6//2 93//2
f  3//2 80//2 81//2
f  94//2 6//2 82//2
f  95//1 83//1 70//1
f  85//4 96//4 71//4
f  64//4 87//4 90//4
f  88//3 75//3 97//3
f  47//3 88//3 92//3
f  89//4 77//4 98//4
f  89//4 98//4 99//4
f  78//1 91//1 100//1
f  101//3 74//3 92//3
f  93//2 6//2 94//2
f  74//3 102//3 103//3
f  95//1 104//1 83//1
f  105//4 96//4 85//4
f  88//3 97//3 106//3
f  92//3 88//3 101//3
f  99//4 98//4 107//4
f  100//1 91//1 108//1
f  109//3 74//3 101//3
f  102//3 74//3 109//3
f  110//1 104//1 95//1
f  105//4 111//4 96//4
f  99//4 107//4 112//4
f  100//1 108//1 113//1
f  110//1 114//1 104//1
f  115//4 111//4 105//4
f  112//4 107//4 116//4
f  117//1 114//1 110//1
f  115//4 118//4 111//4
f  117//1 119//1 114//1
f  120//4 118//4 115//4
f  120//4 121//4 118//4
f  122//1 119//1 117//1
f  123//4 121//4 120//4
f  122//1 124//1 119//1
f  123//4 125//4 121//4
f  124//1 122//1 126//1
f  125//4 123//4 127//4

# Mesh 'mesh1_mesh1-geometry' with 357 faces
g mesh1_mesh1-geometry
usemtl material_1_24
f  3//4 2//4 1//4
f  4//4 1//4 2//4
f  3//5 5//5 2//5
f  3//6 1//6 6//6
f  1//4 4//4 7//4
f  2//5 8//5 4//5
f  5//5 9//5 2//5
f  10//5 5//5 3//5
f  11//6 6//6 1//6
f  6//5 12//5 3//5
f  4//4 13//4 7//4
f  14//4 1//4 7//4
f  15//5 4//5 8//5
f  2//5 9//5 8//5
f  16//5 9//5 5//5
f  5//1 10//1 17//1
f  18//5 10//5 3//5
f  11//1 19//1 6//1
f  12//5 21//5 3//5
f  12//5 6//5 22//5
f  7//4 13//4 23//4
f  13//6 4//6 24//6
f  14//4 7//4 25//4
f  15//6 24//6 4//6
f  15//2 26//2 8//2
f  8//5 26//5 15//5
f  15//1 128//1 8//1
f  8//4 128//4 15//4
f  26//5 8//5 9//5
f  9//5 16//5 6//5
f  5//6 17//6 16//6
f  27//1 17//1 10//1
f  10//5 18//5 28//5
f  29//5 18//5 3//5
f  6//1 19//1 9//1
f  20//1 19//1 11//1
f  21//5 30//5 3//5
f  12//5 22//5 21//5
f  22//5 6//5 31//5
f  23//4 13//4 32//4
f  23//4 33//4 7//4
f  19//6 23//6 7//6
f  7//3 23//3 19//3
f  24//6 34//6 13//6
f  14//7 36//8 20//7
f  25//4 7//4 35//4
f  36//4 14//4 25//4
f  51//3 15//3 24//3
f  24//6 15//6 51//6
f  128//1 15//1 24//1
f  24//4 15//4 128//4
f  26//2 15//2 37//2
f  37//5 15//5 26//5
f  26//9 129//10 8//9
f  128//10 8//9 129//10
f  26//5 9//5 37//5
f  28//5 6//5 16//5
f  38//6 16//6 17//6
f  17//2 39//2 27//2
f  27//5 39//5 17//5
f  27//3 10//3 39//3
f  18//5 6//5 28//5
f  28//3 39//3 10//3
f  18//5 29//5 52//5
f  40//5 29//5 3//5
f  9//1 19//1 41//1
f  19//2 66//2 20//2
f  20//5 66//5 19//5
f  30//5 42//5 3//5
f  21//5 22//5 30//5
f  31//5 6//5 43//5
f  22//5 31//5 30//5
f  32//4 13//4 44//4
f  23//3 32//3 45//3
f  46//4 7//4 33//4
f  23//11 73//11 33//12
f  23//6 19//6 45//6
f  45//3 19//3 23//3
f  47//6 13//6 34//6
f  48//6 34//6 24//6
f  67//8 20//7 36//8
f  35//4 7//4 49//4
f  25//13 35//14 65//13
f  50//4 36//4 25//4
f  15//3 51//3 37//3
f  37//6 51//6 15//6
f  24//15 128//10 51//15
f  51//6 48//6 24//6
f  129//4 37//4 26//4
f  26//1 37//1 129//1
f  129//10 51//15 128//10
f  41//5 37//5 9//5
f  28//4 16//4 39//4
f  38//4 39//4 16//4
f  39//2 17//2 38//2
f  38//5 17//5 39//5
f  52//5 6//5 18//5
f  62//5 52//5 29//5
f  40//5 62//5 29//5
f  53//5 40//5 3//5
f  41//1 19//1 54//1
f  66//2 19//2 64//2
f  64//5 19//5 66//5
f  66//7 20//7 67//8
f  42//5 55//5 3//5
f  30//5 31//5 42//5
f  43//5 6//5 56//5
f  31//5 43//5 42//5
f  44//4 13//4 57//4
f  32//2 71//2 44//2
f  44//5 71//5 32//5
f  58//3 45//3 32//3
f  45//11 73//11 23//11
f  59//4 7//4 46//4
f  46//16 33//12 86//16
f  72//12 33//12 73//11
f  19//1 45//1 54//1
f  73//3 19//3 45//3
f  45//6 19//6 73//6
f  13//6 47//6 60//6
f  47//4 130//4 34//4
f  34//1 130//1 47//1
f  34//5 48//5 130//5
f  36//8 61//17 67//8
f  49//4 7//4 59//4
f  35//14 49//3 76//14
f  76//14 65//13 35//14
f  65//13 77//18 25//13
f  61//4 36//4 50//4
f  50//18 25//13 77//18
f  37//4 129//4 51//4
f  51//1 129//1 37//1
f  51//6 37//6 54//6
f  54//6 48//6 51//6
f  41//6 54//6 37//6
f  62//5 6//5 52//5
f  79//5 62//5 40//5
f  53//5 79//5 40//5
f  63//5 53//5 3//5
f  19//3 73//3 64//3
f  64//6 73//6 19//6
f  66//1 65//1 64//1
f  67//1 65//1 66//1
f  55//5 68//5 3//5
f  42//5 43//5 55//5
f  56//5 6//5 69//5
f  43//5 56//5 55//5
f  60//4 57//4 13//4
f  44//4 57//4 70//4
f  44//2 84//2 57//2
f  57//5 84//5 44//5
f  71//2 32//2 58//2
f  58//5 32//5 71//5
f  84//2 44//2 71//2
f  71//5 44//5 84//5
f  44//19 70//20 71//19
f  58//1 71//1 45//1
f  59//20 46//16 87//20
f  72//12 86//16 33//12
f  86//16 87//20 46//16
f  73//1 64//1 72//1
f  54//1 45//1 74//1
f  75//6 60//6 47//6
f  130//4 47//4 131//4
f  131//1 47//1 130//1
f  132//5 130//5 48//5
f  89//17 67//8 61//17
f  49//3 59//20 90//3
f  90//3 76//14 49//3
f  65//1 76//1 64//1
f  77//1 65//1 67//1
f  78//4 61//4 50//4
f  50//18 77//18 78//21
f  74//6 48//6 54//6
f  79//5 6//5 62//5
f  93//5 79//5 53//5
f  63//5 93//5 53//5
f  80//5 63//5 3//5
f  68//5 81//5 3//5
f  55//5 56//5 68//5
f  69//5 6//5 82//5
f  56//5 69//5 68//5
f  57//2 74//2 60//2
f  60//5 74//5 57//5
f  57//4 83//4 70//4
f  84//22 85//23 57//22
f  74//2 57//2 84//2
f  84//5 57//5 74//5
f  84//1 45//1 71//1
f  84//1 71//1 85//1
f  96//20 71//19 70//20
f  87//20 90//3 59//20
f  86//1 72//1 64//1
f  87//1 86//1 64//1
f  74//1 45//1 84//1
f  60//2 133//2 75//2
f  75//5 133//5 60//5
f  88//6 75//6 47//6
f  47//5 134//5 131//5
f  131//2 134//2 47//2
f  131//6 130//6 134//6
f  132//6 134//6 130//6
f  134//1 48//1 132//1
f  132//4 48//4 134//4
f  89//1 77//1 67//1
f  89//17 61//17 99//24
f  76//1 90//1 64//1
f  91//4 61//4 78//4
f  98//21 78//21 77//18
f  48//6 74//6 92//6
f  93//5 6//5 79//5
f  94//5 93//5 63//5
f  80//5 94//5 63//5
f  81//5 80//5 3//5
f  68//5 69//5 81//5
f  82//5 6//5 94//5
f  69//5 82//5 81//5
f  60//2 74//2 103//2
f  103//5 74//5 60//5
f  70//4 83//4 95//4
f  83//23 57//22 85//23
f  71//1 96//1 85//1
f  70//20 95//16 96//20
f  90//1 87//1 64//1
f  60//2 135//2 133//2
f  133//5 135//5 60//5
f  75//6 97//6 133//6
f  97//6 75//6 88//6
f  92//6 88//6 47//6
f  134//5 47//5 92//5
f  92//2 47//2 134//2
f  48//1 134//1 92//1
f  92//4 134//4 48//4
f  98//1 77//1 89//1
f  91//24 99//24 61//17
f  99//1 98//1 89//1
f  100//4 91//4 78//4
f  78//21 98//21 100//25
f  92//6 74//6 101//6
f  94//5 6//5 93//5
f  82//5 94//5 80//5
f  81//5 82//5 80//5
f  103//6 102//6 74//6
f  60//2 103//2 135//2
f  135//5 103//5 60//5
f  83//4 104//4 95//4
f  85//23 105//10 83//23
f  85//1 96//1 105//1
f  111//16 96//20 95//16
f  133//6 136//6 135//6
f  136//6 133//6 97//6
f  106//6 97//6 88//6
f  101//6 88//6 92//6
f  99//24 91//24 112//26
f  107//1 98//1 99//1
f  108//4 91//4 100//4
f  107//25 100//25 98//21
f  101//6 74//6 109//6
f  109//6 74//6 102//6
f  137//3 103//3 102//3
f  102//6 103//6 137//6
f  103//3 137//3 135//3
f  135//6 137//6 103//6
f  95//4 104//4 110//4
f  104//10 83//23 105//10
f  96//1 111//1 105//1
f  95//16 110//12 111//16
f  138//6 135//6 136//6
f  136//5 97//5 139//5
f  97//6 106//6 136//6
f  106//4 140//4 97//4
f  106//4 141//4 88//4
f  88//1 141//1 106//1
f  88//6 136//6 106//6
f  141//2 101//2 88//2
f  88//5 101//5 141//5
f  101//6 138//6 88//6
f  108//26 112//26 91//24
f  112//1 107//1 99//1
f  113//4 108//4 100//4
f  100//25 107//25 113//2
f  101//1 142//1 109//1
f  109//4 142//4 101//4
f  109//6 102//6 101//6
f  102//1 143//1 109//1
f  137//6 144//6 102//6
f  102//5 137//5 143//5
f  137//6 135//6 144//6
f  104//4 114//4 110//4
f  105//10 115//27 104//10
f  105//1 111//1 115//1
f  118//12 111//16 110//12
f  144//6 135//6 138//6
f  136//1 139//1 138//1
f  138//6 136//6 88//6
f  145//5 139//5 97//5
f  145//4 97//4 140//4
f  106//2 138//2 140//2
f  141//4 106//4 146//4
f  146//1 106//1 141//1
f  101//2 141//2 147//2
f  147//5 141//5 101//5
f  144//6 138//6 101//6
f  112//26 108//26 116//2
f  116//1 107//1 112//1
f  113//2 116//2 108//26
f  116//2 113//2 107//25
f  142//1 101//1 147//1
f  147//4 101//4 142//4
f  109//2 144//2 142//2
f  102//6 144//6 101//6
f  148//1 109//1 143//1
f  144//4 149//4 137//4
f  150//5 143//5 137//5
f  110//4 114//4 117//4
f  114//27 104//10 115//27
f  111//1 118//1 115//1
f  118//12 110//12 121//28
f  138//2 106//2 144//2
f  151//1 138//1 139//1
f  145//6 140//6 139//6
f  151//2 140//2 138//2
f  146//2 152//2 106//2
f  152//3 141//3 146//3
f  146//6 141//6 152//6
f  141//3 152//3 147//3
f  147//6 152//6 141//6
f  147//3 152//3 142//3
f  142//6 152//6 147//6
f  152//2 142//2 144//2
f  149//2 144//2 109//2
f  148//2 149//2 109//2
f  148//6 143//6 149//6
f  150//4 137//4 149//4
f  150//6 149//6 143//6
f  114//4 119//4 117//4
f  117//28 121//28 110//12
f  114//27 115//27 119//29
f  115//1 118//1 120//1
f  118//1 121//1 120//1
f  144//2 106//2 152//2
f  151//6 139//6 140//6
f  117//4 119//4 122//4
f  121//28 117//28 125//30
f  120//29 119//29 115//27
f  120//1 121//1 123//1
f  119//4 124//4 122//4
f  122//30 125//30 117//28
f  121//1 125//1 123//1
f  119//29 120//29 124//31
f  123//31 124//31 120//29
f  126//4 122//4 124//4
f  125//30 122//30 127//5
f  127//1 123//1 125//1
f  124//31 123//31 126//5
f  126//5 127//5 122//30
f  127//5 126//5 123//31

# Mesh 'mesh1_mesh1-geometry' with 125 faces
g mesh1_mesh1-geometry
usemtl material_2_24
f  21//2 22//2 12//2
f  20//32 36//16 14//32
f  8//33 129//13 26//33
f  129//13 8//33 128//13
f  52//2 29//2 18//2
f  30//2 22//2 21//2
f  30//2 31//2 22//2
f  33//17 73//34 23//34
f  36//16 20//32 67//16
f  65//10 35//23 25//10
f  51//35 128//13 24//35
f  128//13 51//35 129//13
f  29//2 52//2 62//2
f  29//2 62//2 40//2
f  67//16 20//32 66//32
f  42//2 31//2 30//2
f  42//2 43//2 31//2
f  23//34 73//34 45//34
f  86//8 33//17 46//8
f  73//34 33//17 72//17
f  130//2 48//2 34//2
f  67//16 61//12 36//16
f  76//23 49//6 35//23
f  35//23 65//10 76//23
f  25//10 77//27 65//10
f  77//27 25//10 50//27
f  40//2 62//2 79//2
f  40//2 79//2 53//2
f  55//2 43//2 42//2
f  55//2 56//2 43//2
f  71//36 70//37 44//36
f  87//37 46//8 59//37
f  33//17 86//8 72//17
f  46//8 87//37 86//8
f  48//2 130//2 132//2
f  61//12 67//16 89//12
f  90//6 59//37 49//6
f  49//6 76//23 90//6
f  78//29 77//27 50//27
f  53//2 79//2 93//2
f  53//2 93//2 63//2
f  68//2 56//2 55//2
f  68//2 69//2 56//2
f  57//38 85//14 84//38
f  70//37 71//36 96//37
f  59//37 90//6 87//37
f  134//3 130//3 131//3
f  130//3 134//3 132//3
f  99//28 61//12 89//12
f  77//27 78//29 98//29
f  63//2 93//2 94//2
f  63//2 94//2 80//2
f  81//2 69//2 68//2
f  81//2 82//2 69//2
f  85//14 57//38 83//14
f  96//37 95//8 70//37
f  133//3 97//3 75//3
f  61//12 99//28 91//28
f  100//31 98//29 78//29
f  80//2 94//2 82//2
f  80//2 82//2 81//2
f  83//14 105//13 85//14
f  95//8 96//37 111//8
f  135//3 136//3 133//3
f  97//3 133//3 136//3
f  112//30 91//28 99//28
f  98//29 100//31 107//31
f  105//13 83//14 104//13
f  111//8 110//17 95//8
f  136//3 135//3 138//3
f  139//2 97//2 136//2
f  136//3 106//3 97//3
f  97//1 140//1 106//1
f  106//3 136//3 88//3
f  88//3 138//3 101//3
f  91//28 112//30 108//30
f  113//5 107//31 100//31
f  101//3 102//3 109//3
f  109//4 143//4 102//4
f  102//3 144//3 137//3
f  143//2 137//2 102//2
f  144//3 135//3 137//3
f  104//13 115//18 105//13
f  110//17 111//8 118//17
f  138//3 135//3 144//3
f  138//4 139//4 136//4
f  88//3 136//3 138//3
f  97//2 139//2 145//2
f  140//1 97//1 145//1
f  140//5 138//5 106//5
f  101//3 138//3 144//3
f  116//5 108//30 112//30
f  108//30 116//5 113//5
f  107//31 113//5 116//5
f  142//5 144//5 109//5
f  101//3 144//3 102//3
f  143//4 109//4 148//4
f  137//1 149//1 144//1
f  137//2 143//2 150//2
f  115//18 104//13 114//18
f  121//24 110//17 118//17
f  144//5 106//5 138//5
f  139//4 138//4 151//4
f  139//3 140//3 145//3
f  138//5 140//5 151//5
f  106//5 152//5 146//5
f  144//5 142//5 152//5
f  109//5 144//5 149//5
f  109//5 149//5 148//5
f  149//3 143//3 148//3
f  149//1 137//1 150//1
f  143//3 149//3 150//3
f  110//17 121//24 117//24
f  119//21 115//18 114//18
f  152//5 106//5 144//5
f  140//3 139//3 151//3
f  125//26 117//24 121//24
f  115//18 119//21 120//21
f  117//24 125//26 122//26
f  124//25 120//21 119//21
f  120//21 124//25 123//25
f  127//2 122//26 125//26
f  126//2 123//25 124//25
f  122//26 127//2 126//2
f  123//25 126//2 127//2

# Mesh 'mesh2_mesh2-geometry' with 4 faces
g mesh2_mesh2-geometry
usemtl material_1_1_0
f  153/1/3 154/2/3 155/3/3
f  153/1/6 155/3/6 154/2/6
f  156/4/3 155/3/3 154/2/3
f  156/4/6 154/2/6 155/3/6

# Mesh 'mesh3_mesh3-geometry' with 4 faces
g mesh3_mesh3-geometry
usemtl material_1_2_0
f  157/1/2 158/2/2 159/3/2
f  157/1/5 159/3/5 158/2/5
f  160/4/2 159/3/2 158/2/2
f  160/4/5 158/2/5 159/3/5

# Mesh 'mesh4_mesh4-geometry' with 1 faces
g mesh4_mesh4-geometry
usemtl material_1_0
l  161 162

# Mesh 'mesh5_mesh5-geometry' with 1 faces
g mesh5_mesh5-geometry
usemtl material_1_0
l  32 58

# Mesh 'mesh6_mesh6-geometry' with 4 faces
g mesh6_mesh6-geometry
usemtl material_1_0
l  17 27
l  38 17
l  27 39
l  39 38

# Mesh 'mesh7_mesh7-geometry' with 7 faces
g mesh7_mesh7-geometry
usemtl material_1_0
l  47 34
l  92 47
l  47 131
l  34 130
l  48 92
l  92 134
l  48 132

# Mesh 'mesh8_mesh8-geometry' with 8 faces
g mesh8_mesh8-geometry
usemtl material_1_0
l  141 146
l  147 141
l  88 141
l  152 146
l  106 146
l  142 147
l  101 147
l  142 152

# Mesh 'mesh9_mesh9-geometry' with 2 faces
g mesh9_mesh9-geometry
usemtl material_1_0
l  103 135
l  103 102

# Mesh 'mesh10_mesh10-geometry' with 1 faces
g mesh10_mesh10-geometry
usemtl material_1_0
l  19 64

# Mesh 'mesh11_mesh11-geometry' with 7 faces
g mesh11_mesh11-geometry
usemtl material_1_0
l  129 51
l  26 129
l  51 37
l  26 37
l  15 37
l  8 15
l  24 15

# Mesh 'mesh12_mesh12-geometry' with 1 faces
g mesh12_mesh12-geometry
usemtl material_1_0
l  44 71

