# File produced by Open Asset Import Library (http://www.assimp.sf.net)
# (assimp v3.2.202087883)

mtllib model_normalized.mtl

# 186 vertex positions
v -0.099172 -0.345503 0.039513
v 0.100301 -0.345503 0.665855
v -0.099172 -0.345503 0.665855
v 0.100301 -0.345503 0.039513
v -0.099172 0.185094 0.665855
v 0.085163 -0.332541 0.039513
v 0.100301 -0.211660 0.039513
v 0.100301 0.185094 0.665855
v -0.099172 -0.211660 0.039513
v -0.084385 -0.332541 0.039513
v 0.100301 0.185094 0.039513
v -0.099172 -0.089786 0.039513
v -0.084385 -0.222832 0.039513
v 0.085163 -0.222832 0.039513
v 0.035599 -0.273344 0.039513
v 0.100301 -0.089786 0.039513
v -0.099172 0.185094 0.039513
v 0.100301 0.047653 0.039513
v -0.099172 0.047653 0.039513
v -0.088403 -0.107429 0.039513
v -0.030226 -0.247413 0.039513
v -0.030226 -0.273344 0.039513
v 0.083143 -0.199187 0.039513
v 0.002434 0.183294 0.039513
v 0.083598 0.061496 0.039513
v -0.085840 0.031842 0.039513
v 0.083143 -0.107429 0.039513
v -0.088403 -0.199187 0.039513
v 0.035599 -0.247413 0.039513
v 0.029738 -0.269670 0.039513
v 0.085219 -0.073879 0.039513
v 0.003985 0.183089 0.039513
v 0.000885 0.183089 0.039513
v -0.081964 0.169211 0.039513
v 0.083598 0.169211 0.039513
v 0.085219 0.031842 0.039513
v -0.085840 -0.073879 0.039513
v 0.021479 -0.120750 0.039513
v -0.040357 -0.120750 0.039513
v 0.029738 -0.251718 0.039513
v -0.026114 -0.251718 0.039513
v -0.026114 -0.269670 0.039513
v 0.021479 -0.146682 0.039513
v 0.003985 0.183089 0.032373
v 0.002434 0.183294 0.032373
v -0.000557 0.182493 0.039513
v -0.003551 0.177310 0.039513
v -0.081964 0.061496 0.039513
v 0.083598 0.169211 -0.096128
v 0.074665 0.031842 0.026816
v -0.085840 -0.073879 -0.157964
v -0.040357 -0.146682 0.039513
v 0.085219 0.031842 -0.157964
v 0.005427 0.182493 0.039513
v 0.005427 0.182493 0.032373
v 0.000885 0.183089 0.032373
v -0.001798 0.181541 0.039513
v -0.003346 0.178858 0.039513
v -0.003346 0.175761 0.039513
v -0.081964 0.061496 -0.096128
v 0.083598 0.061496 -0.096128
v 0.077372 0.169211 0.032373
v -0.076934 0.031842 0.026816
v -0.085840 0.031842 -0.157964
v 0.013673 -0.143343 0.039513
v 0.013673 -0.125390 0.039513
v -0.036195 -0.125390 0.039513
v 0.085219 -0.073879 -0.157964
v 0.006668 0.181541 0.039513
v 0.002434 0.171325 0.032373
v 0.003985 0.171530 0.032373
v 0.000885 0.171530 0.032373
v -0.000557 0.182493 0.032373
v -0.002746 0.180300 0.039513
v -0.003551 0.177310 0.032373
v -0.002746 0.174316 0.039513
v -0.003346 0.175761 0.032373
v -0.081964 0.169211 -0.096128
v 0.031274 0.129329 -0.096128
v 0.077372 0.169211 -0.089305
v 0.074665 0.031842 -0.150714
v -0.076934 -0.071884 0.026816
v -0.027804 0.015680 -0.157964
v -0.036195 -0.143343 0.039513
v 0.026053 -0.012246 -0.157964
v 0.007617 0.180300 0.039513
v 0.006668 0.181541 0.032373
v 0.005427 0.172126 0.032373
v -0.000557 0.172126 0.032373
v -0.001798 0.181541 0.032373
v -0.002746 0.180300 0.032373
v -0.003346 0.178858 0.032373
v -0.001798 0.173078 0.039513
v -0.002746 0.174316 0.032373
v -0.076221 0.169211 0.032373
v -0.026573 0.157255 -0.096128
v 0.031274 0.157255 -0.096128
v 0.002434 0.171325 0.039513
v -0.076221 0.169211 -0.089305
v 0.077372 0.081443 -0.089305
v -0.076934 0.031842 -0.150714
v 0.074665 -0.071884 -0.150714
v 0.074665 -0.071884 0.026816
v 0.026053 0.015680 -0.157964
v -0.027804 -0.012246 -0.157964
v 0.008217 0.178858 0.039513
v 0.003985 0.171530 0.039513
v 0.005427 0.172126 0.039513
v 0.000885 0.171530 0.039513
v -0.001798 0.173078 0.032373
v -0.000557 0.172126 0.039513
v -0.026573 0.129329 -0.096128
v 0.025459 0.134965 -0.096128
v -0.076221 0.081443 0.032373
v 0.077372 0.081443 0.032373
v -0.076934 -0.071884 -0.150714
v 0.022852 0.011663 -0.157964
v -0.025021 0.011663 -0.157964
v 0.022852 -0.008284 -0.157964
v 0.008418 0.177310 0.039513
v 0.007617 0.180300 0.032373
v 0.006668 0.173078 0.032373
v 0.006668 0.173078 0.039513
v 0.025459 0.152917 -0.096128
v -0.020419 0.152917 -0.096128
v -0.076221 0.081443 -0.089305
v -0.025021 -0.008284 -0.157964
v 0.008217 0.175761 0.039513
v 0.008217 0.178858 0.032373
v -0.020419 0.134965 -0.096128
v 0.007617 0.174316 0.039513
v 0.008418 0.177310 0.032373
v 0.007617 0.174316 0.032373
v 0.008217 0.175761 0.032373
v 0.031902 0.113076 -0.096128
v 0.028243 0.108477 -0.096128
v 0.023882 0.104538 -0.096128
v 0.018938 0.101359 -0.096128
v 0.013541 0.099025 -0.096128
v 0.007840 0.097599 -0.096128
v 0.001981 0.097119 -0.096128
v -0.003877 0.097599 -0.096128
v -0.009579 0.099025 -0.096128
v -0.014972 0.101359 -0.096128
v -0.019917 0.104538 -0.096128
v -0.024277 0.108477 -0.096128
v -0.027940 0.113076 -0.096128
v 0.031579 -0.020953 -0.157964
v 0.028720 -0.027041 -0.157964
v 0.024674 -0.032416 -0.157964
v 0.019620 -0.036852 -0.157964
v 0.013761 -0.040161 -0.157964
v 0.007353 -0.042204 -0.157964
v 0.000662 -0.042895 -0.157964
v -0.006029 -0.042204 -0.157964
v -0.012437 -0.040161 -0.157964
v -0.018296 -0.036852 -0.157964
v -0.023350 -0.032416 -0.157964
v -0.027396 -0.027041 -0.157964
v -0.030258 -0.020953 -0.157964
v 0.035800 -0.153877 0.039513
v 0.030310 -0.160774 0.039513
v 0.023766 -0.166686 0.039513
v 0.016353 -0.171455 0.039513
v 0.008261 -0.174956 0.039513
v -0.000293 -0.177094 0.039513
v -0.009079 -0.177814 0.039513
v -0.017869 -0.177094 0.039513
v -0.026422 -0.174956 0.039513
v -0.034514 -0.171455 0.039513
v -0.041928 -0.166686 0.039513
v -0.048468 -0.160774 0.039513
v -0.053962 -0.153877 0.039513
v 0.041543 -0.289995 0.039513
v 0.037085 -0.296799 0.039513
v 0.031481 -0.302693 0.039513
v 0.024913 -0.307488 0.039513
v 0.017590 -0.311029 0.039513
v 0.009750 -0.313200 0.039513
v 0.001648 -0.313932 0.039513
v -0.006450 -0.313200 0.039513
v -0.014291 -0.311029 0.039513
v -0.021613 -0.307488 0.039513
v -0.028181 -0.302693 0.039513
v -0.033789 -0.296799 0.039513
v -0.038246 -0.289995 0.039513

# 0 UV coordinates

# 26 vertex normals
vn 0 -0.0254 0
vn 0 0.0254 0
vn 0 0 0.0254
vn 0 0 -0.0254
vn 0.0254 -0 0
vn -0.0254 0 0
vn -0.006574 -0.0245345 0
vn 0.006574 -0.0245345 0
vn -0.0127 -0.021997 0
vn 0.0127 -0.021997 0
vn 0.0179605 -0.0179605 0
vn 0.0245345 -0.006574 0
vn 0.0245345 0.006574 0
vn -0.0179605 -0.0179605 0
vn 0.021997 -0.0127 0
vn 0.021997 0.0127 0
vn -0.021997 -0.0127 0
vn -0.006574 0.0245345 0
vn 0.006574 0.0245345 0
vn -0.0127 0.021997 0
vn 0.0127 0.021997 0
vn 0.0179605 0.0179605 0
vn -0.0245345 -0.006574 0
vn -0.0179605 0.0179605 0
vn -0.0245345 0.006574 0
vn -0.021997 0.0127 0

# Mesh 'mesh1_mesh1-geometry' with 276 faces
g mesh1_mesh1-geometry
usemtl material_0_24
f  1//1 2//1 3//1
f  2//1 1//1 4//1
f  3//2 2//2 1//2
f  4//2 1//2 2//2
f  2//3 5//3 3//3
f  3//4 5//4 2//4
f  3//5 1//5 5//5
f  1//3 4//3 6//3
f  4//6 2//6 7//6
f  5//3 2//3 8//3
f  8//4 2//4 5//4
f  9//5 5//5 1//5
f  7//3 6//3 4//3
f  10//3 1//3 6//3
f  8//6 7//6 2//6
f  8//1 5//1 11//1
f  12//5 5//5 9//5
f  1//3 13//3 9//3
f  6//3 7//3 14//3
f  13//3 1//3 10//3
f  10//3 6//3 15//3
f  16//6 7//6 8//6
f  17//1 11//1 5//1
f  11//6 18//6 8//6
f  19//5 5//5 12//5
f  9//3 20//3 12//3
f  13//3 14//3 9//3
f  9//3 14//3 7//3
f  14//3 15//3 6//3
f  10//3 21//3 13//3
f  22//3 10//3 15//3
f  16//3 23//3 7//3
f  18//6 16//6 8//6
f  17//3 24//3 11//3
f  17//5 5//5 19//5
f  11//3 25//3 18//3
f  12//3 26//3 19//3
f  20//3 27//3 12//3
f  20//3 9//3 28//3
f  13//3 29//3 14//3
f  9//3 7//3 23//3
f  15//3 14//3 29//3
f  21//3 29//3 13//3
f  21//3 10//3 22//3
f  22//3 15//3 30//3
f  23//3 16//3 27//3
f  18//3 31//3 16//3
f  32//3 11//3 24//3
f  33//3 24//3 17//3
f  19//3 34//3 17//3
f  19//3 18//3 25//3
f  25//3 11//3 35//3
f  26//3 36//3 19//3
f  26//3 12//3 37//3
f  12//3 27//3 16//3
f  20//3 38//3 27//3
f  28//3 9//3 23//3
f  28//3 39//3 20//3
f  29//3 30//3 15//3
f  21//3 40//3 29//3
f  22//3 41//3 21//3
f  42//3 22//3 30//3
f  27//3 43//3 23//3
f  12//3 16//3 31//3
f  31//3 18//3 36//3
f  35//3 11//3 32//3
f  32//7 24//1 44//7
f  24//1 33//8 45//1
f  46//3 33//3 17//3
f  34//3 47//3 17//3
f  34//3 19//3 48//3
f  19//3 36//3 18//3
f  48//3 19//3 25//3
f  35//6 49//6 25//6
f  26//1 50//1 36//1
f  37//3 12//3 31//3
f  37//5 51//5 26//5
f  43//3 27//3 38//3
f  39//3 38//3 20//3
f  28//3 23//3 43//3
f  39//3 28//3 52//3
f  30//3 29//3 40//3
f  41//3 40//3 21//3
f  41//3 22//3 42//3
f  30//3 40//3 42//3
f  36//6 53//6 31//6
f  54//3 35//3 32//3
f  45//1 44//7 24//1
f  44//7 55//9 32//7
f  56//8 45//1 33//8
f  33//8 46//10 56//8
f  57//3 46//3 17//3
f  47//3 58//3 17//3
f  47//3 34//3 59//3
f  48//5 60//5 34//5
f  60//1 25//1 48//1
f  48//2 25//2 60//2
f  61//6 25//6 49//6
f  49//1 35//1 62//1
f  53//1 36//1 50//1
f  50//1 26//1 63//1
f  51//1 31//1 37//1
f  37//2 31//2 51//2
f  64//5 26//5 51//5
f  38//3 65//3 43//3
f  39//3 66//3 38//3
f  52//3 28//3 43//3
f  52//3 67//3 39//3
f  41//3 42//3 40//3
f  68//6 31//6 53//6
f  69//3 35//3 54//3
f  54//9 32//7 55//9
f  45//3 70//3 44//3
f  44//3 71//3 55//3
f  56//3 72//3 45//3
f  73//10 56//8 46//10
f  46//10 57//11 73//10
f  74//3 57//3 17//3
f  58//3 74//3 17//3
f  47//5 75//5 58//12
f  59//3 34//3 76//3
f  59//13 77//13 47//5
f  78//5 34//5 60//5
f  25//1 60//1 61//1
f  61//2 60//2 25//2
f  49//3 79//3 61//3
f  34//1 62//1 35//1
f  80//1 49//1 62//1
f  81//1 53//1 50//1
f  64//1 63//1 26//1
f  63//3 82//3 50//3
f  31//1 51//1 68//1
f  68//2 51//2 31//2
f  51//3 83//3 64//3
f  52//3 43//3 65//3
f  65//3 38//3 66//3
f  67//3 66//3 39//3
f  67//3 52//3 84//3
f  53//3 85//3 68//3
f  86//3 35//3 69//3
f  69//14 54//9 87//14
f  55//9 87//14 54//9
f  70//3 71//3 44//3
f  72//3 70//3 45//3
f  71//3 88//3 55//3
f  89//3 72//3 56//3
f  73//3 89//3 56//3
f  90//11 73//10 57//11
f  74//15 91//15 57//11
f  58//12 92//12 74//15
f  92//12 58//12 75//5
f  75//5 47//5 77//13
f  76//3 34//3 93//3
f  76//16 94//16 59//13
f  77//13 59//13 94//16
f  78//1 95//1 34//1
f  60//3 96//3 78//3
f  60//3 61//3 79//3
f  79//3 49//3 97//3
f  62//1 34//1 95//1
f  34//3 35//3 98//3
f  99//1 49//1 80//1
f  80//5 62//5 100//5
f  101//1 53//1 81//1
f  81//5 50//5 102//5
f  101//1 63//1 64//1
f  103//3 50//3 82//3
f  63//6 101//6 82//6
f  51//3 68//3 85//3
f  83//3 104//3 64//3
f  83//3 51//3 105//3
f  84//3 52//3 65//3
f  65//3 66//3 84//3
f  67//3 84//3 66//3
f  85//3 53//3 104//3
f  106//3 35//3 86//3
f  69//14 87//14 86//17
f  55//3 88//3 87//3
f  71//18 70//2 107//18
f  70//2 72//19 98//2
f  88//20 71//18 108//20
f  72//19 89//21 109//19
f  110//3 89//3 73//3
f  90//3 110//3 73//3
f  90//11 57//11 91//15
f  91//15 74//15 92//12
f  75//3 77//3 92//3
f  93//3 34//3 111//3
f  93//22 110//22 76//16
f  94//16 76//16 110//22
f  77//3 94//3 91//3
f  99//1 95//1 78//1
f  96//3 97//3 78//3
f  96//3 60//3 112//3
f  112//3 60//3 79//3
f  78//3 97//3 49//3
f  97//3 113//3 79//3
f  95//3 114//3 62//3
f  98//3 35//3 107//3
f  109//3 34//3 98//3
f  49//1 99//1 78//1
f  99//3 100//3 80//3
f  80//4 100//4 99//4
f  115//5 100//5 62//5
f  53//1 101//1 64//1
f  101//3 102//3 81//3
f  81//4 102//4 101//4
f  103//5 102//5 50//5
f  103//1 82//1 102//1
f  116//6 82//6 101//6
f  105//3 51//3 85//3
f  64//3 104//3 53//3
f  83//3 117//3 104//3
f  105//3 118//3 83//3
f  104//3 119//3 85//3
f  120//3 35//3 106//3
f  86//17 121//17 106//23
f  121//17 86//17 87//14
f  88//3 122//3 87//3
f  98//2 107//18 70//2
f  107//18 108//20 71//18
f  109//19 98//2 72//19
f  108//20 123//24 88//20
f  111//21 109//19 89//21
f  89//21 110//22 111//21
f  94//3 110//3 90//3
f  91//3 94//3 90//3
f  92//3 77//3 91//3
f  111//3 34//3 109//3
f  93//22 111//21 110//22
f  95//6 99//6 114//6
f  96//3 124//3 97//3
f  112//3 125//3 96//3
f  112//3 79//3 113//3
f  113//3 97//3 124//3
f  115//3 62//3 114//3
f  107//3 35//3 108//3
f  100//3 99//3 126//3
f  126//4 99//4 100//4
f  115//1 114//1 100//1
f  102//3 101//3 116//3
f  116//4 101//4 102//4
f  116//1 102//1 82//1
f  105//3 85//3 119//3
f  119//3 104//3 117//3
f  118//3 117//3 83//3
f  118//3 105//3 127//3
f  120//3 128//3 35//3
f  106//23 129//23 120//6
f  129//23 106//23 121//17
f  87//3 122//3 121//3
f  122//24 88//20 123//24
f  108//3 35//3 123//3
f  126//6 114//6 99//6
f  125//3 124//3 96//3
f  125//3 112//3 130//3
f  130//3 112//3 113//3
f  113//3 124//3 130//3
f  126//1 100//1 114//1
f  127//3 105//3 119//3
f  119//3 117//3 127//3
f  118//3 127//3 117//3
f  131//3 35//3 128//3
f  120//6 132//6 128//25
f  132//6 120//6 129//23
f  121//3 133//3 129//3
f  122//3 133//3 121//3
f  122//24 123//24 133//26
f  123//3 35//3 131//3
f  125//3 130//3 124//3
f  128//25 134//25 131//26
f  134//25 128//25 132//6
f  132//3 129//3 134//3
f  133//3 134//3 129//3
f  131//26 133//26 123//24
f  133//26 131//26 134//25

# Mesh 'mesh1_mesh1-geometry' with 17 faces
g mesh1_mesh1-geometry
usemtl material_2_24
f  5//6 1//6 3//6
f  1//6 5//6 9//6
f  9//6 5//6 12//6
f  12//6 5//6 19//6
f  19//6 5//6 17//6
f  26//6 51//6 37//6
f  34//6 60//6 48//6
f  51//6 26//6 64//6
f  60//6 34//6 78//6
f  100//6 62//6 80//6
f  102//6 50//6 81//6
f  62//6 100//6 115//6
f  50//6 102//6 103//6
f  102//2 82//2 103//2
f  100//2 114//2 115//2
f  82//2 102//2 116//2
f  114//2 100//2 126//2

# Mesh 'mesh1_mesh1-geometry' with 203 faces
g mesh1_mesh1-geometry
usemtl material_1_24
f  6//4 4//4 1//4
f  7//5 2//5 4//5
f  4//4 6//4 7//4
f  6//4 1//4 10//4
f  2//5 7//5 8//5
f  11//2 5//2 8//2
f  9//4 13//4 1//4
f  14//4 7//4 6//4
f  10//4 1//4 13//4
f  15//4 6//4 10//4
f  8//5 7//5 16//5
f  5//2 11//2 17//2
f  8//5 18//5 11//5
f  12//4 20//4 9//4
f  9//4 14//4 13//4
f  7//4 14//4 9//4
f  6//4 15//4 14//4
f  13//4 21//4 10//4
f  15//4 10//4 22//4
f  7//4 23//4 16//4
f  8//5 16//5 18//5
f  11//4 24//4 17//4
f  18//4 25//4 11//4
f  19//4 26//4 12//4
f  12//4 27//4 20//4
f  28//4 9//4 20//4
f  14//4 29//4 13//4
f  23//4 7//4 9//4
f  29//4 14//4 15//4
f  13//4 29//4 21//4
f  22//4 10//4 21//4
f  27//4 16//4 23//4
f  16//4 31//4 18//4
f  24//4 11//4 32//4
f  17//4 24//4 33//4
f  17//4 34//4 19//4
f  25//4 18//4 19//4
f  35//4 11//4 25//4
f  19//4 36//4 26//4
f  37//4 12//4 26//4
f  16//4 27//4 12//4
f  27//4 38//4 20//4
f  23//4 9//4 28//4
f  20//4 39//4 28//4
f  23//4 43//4 27//4
f  31//4 16//4 12//4
f  36//4 18//4 31//4
f  32//4 11//4 35//4
f  44//19 24//2 32//19
f  45//2 33//18 24//2
f  17//4 33//4 46//4
f  17//4 47//4 34//4
f  48//4 19//4 34//4
f  18//4 36//4 19//4
f  25//4 19//4 48//4
f  25//5 49//5 35//5
f  36//2 50//2 26//2
f  31//4 12//4 37//4
f  38//4 27//4 43//4
f  20//4 38//4 39//4
f  43//4 23//4 28//4
f  52//4 28//4 39//4
f  42//4 40//4 30//4
f  31//5 53//5 36//5
f  32//4 35//4 54//4
f  24//2 44//19 45//2
f  32//19 55//21 44//19
f  33//18 45//2 56//18
f  56//18 46//20 33//18
f  17//4 46//4 57//4
f  17//4 58//4 47//4
f  59//4 34//4 47//4
f  49//5 25//5 61//5
f  62//2 35//2 49//2
f  50//2 36//2 53//2
f  63//2 26//2 50//2
f  43//4 28//4 52//4
f  40//4 42//4 41//4
f  53//5 31//5 68//5
f  54//4 35//4 69//4
f  55//21 32//19 54//21
f  44//4 70//4 45//4
f  55//4 71//4 44//4
f  45//4 72//4 56//4
f  46//20 56//18 73//20
f  73//20 57//24 46//20
f  17//4 57//4 74//4
f  17//4 74//4 58//4
f  58//25 75//6 47//6
f  76//4 34//4 59//4
f  47//6 77//23 59//23
f  61//4 79//4 49//4
f  35//2 62//2 34//2
f  62//2 49//2 80//2
f  50//2 53//2 81//2
f  26//2 63//2 64//2
f  50//4 82//4 63//4
f  64//4 83//4 51//4
f  68//4 85//4 53//4
f  69//4 35//4 86//4
f  87//22 54//21 69//22
f  54//21 87//22 55//21
f  44//4 71//4 70//4
f  45//4 70//4 72//4
f  55//4 88//4 71//4
f  56//4 72//4 89//4
f  56//4 89//4 73//4
f  57//24 73//20 90//24
f  57//24 91//26 74//26
f  74//26 92//25 58//25
f  75//6 58//25 92//25
f  77//23 47//6 75//6
f  93//4 34//4 76//4
f  59//23 94//17 76//17
f  94//17 59//23 77//23
f  34//2 95//2 78//2
f  78//4 96//4 60//4
f  79//4 61//4 60//4
f  97//4 49//4 79//4
f  95//2 34//2 62//2
f  98//4 35//4 34//4
f  80//2 49//2 99//2
f  81//2 53//2 101//2
f  64//2 63//2 101//2
f  82//4 50//4 103//4
f  82//5 101//5 63//5
f  85//4 68//4 51//4
f  64//4 104//4 83//4
f  105//4 51//4 83//4
f  84//4 66//4 65//4
f  66//4 84//4 67//4
f  104//4 53//4 85//4
f  86//4 35//4 106//4
f  86//16 87//22 69//22
f  87//4 88//4 55//4
f  107//8 70//1 71//8
f  98//1 72//7 70//1
f  108//10 71//8 88//10
f  109//7 89//9 72//7
f  73//4 89//4 110//4
f  73//4 110//4 90//4
f  91//26 57//24 90//24
f  92//25 74//26 91//26
f  92//4 77//4 75//4
f  111//4 34//4 93//4
f  76//17 110//14 93//14
f  110//14 76//17 94//17
f  91//4 94//4 77//4
f  78//2 95//2 99//2
f  78//4 97//4 96//4
f  112//4 60//4 96//4
f  79//4 60//4 112//4
f  49//4 97//4 78//4
f  62//4 114//4 95//4
f  107//4 35//4 98//4
f  98//4 34//4 109//4
f  78//2 99//2 49//2
f  64//2 101//2 53//2
f  101//5 82//5 116//5
f  85//4 51//4 105//4
f  53//4 104//4 64//4
f  106//4 35//4 120//4
f  106//13 121//16 86//16
f  87//22 86//16 121//16
f  87//4 122//4 88//4
f  70//1 107//8 98//1
f  71//8 108//10 107//8
f  72//7 98//1 109//7
f  88//10 123//11 108//10
f  89//9 109//7 111//9
f  111//9 110//14 89//9
f  90//4 110//4 94//4
f  90//4 94//4 91//4
f  91//4 77//4 92//4
f  109//4 34//4 111//4
f  110//14 111//9 93//14
f  114//5 99//5 95//5
f  114//4 62//4 115//4
f  108//4 35//4 107//4
f  35//4 128//4 120//4
f  120//5 129//13 106//13
f  121//16 106//13 129//13
f  121//4 122//4 87//4
f  123//11 88//10 122//11
f  123//4 35//4 108//4
f  99//5 114//5 126//5
f  130//4 124//4 113//4
f  127//4 117//4 119//4
f  117//4 127//4 118//4
f  128//4 35//4 131//4
f  128//12 132//5 120//5
f  129//13 120//5 132//5
f  129//4 133//4 121//4
f  121//4 133//4 122//4
f  133//15 123//11 122//11
f  131//4 35//4 123//4
f  124//4 130//4 125//4
f  131//15 134//12 128//12
f  132//5 128//12 134//12
f  134//4 129//4 132//4
f  129//4 134//4 133//4
f  123//11 133//15 131//15
f  134//12 131//15 133//15

# Mesh 'mesh1_mesh1-geometry' with 32 faces
g mesh1_mesh1-geometry
usemtl material_3_24
f  30//4 15//4 22//4
f  15//4 30//4 29//4
f  29//4 40//4 21//4
f  21//4 41//4 22//4
f  30//4 22//4 42//4
f  40//4 29//4 30//4
f  21//4 40//4 41//4
f  42//4 22//4 41//4
f  43//4 65//4 38//4
f  38//4 66//4 39//4
f  39//4 67//4 52//4
f  65//4 43//4 52//4
f  66//4 38//4 65//4
f  39//4 66//4 67//4
f  84//4 52//4 67//4
f  65//4 52//4 84//4
f  79//4 113//4 97//4
f  104//4 117//4 83//4
f  83//4 118//4 105//4
f  85//4 119//4 104//4
f  97//4 124//4 96//4
f  96//4 125//4 112//4
f  113//4 79//4 112//4
f  124//4 97//4 113//4
f  119//4 85//4 105//4
f  117//4 104//4 119//4
f  83//4 117//4 118//4
f  127//4 105//4 118//4
f  96//4 124//4 125//4
f  130//4 112//4 125//4
f  113//4 112//4 130//4
f  119//4 105//4 127//4

# Mesh 'mesh2_mesh2-geometry' with 6 faces
g mesh2_mesh2-geometry
usemtl material_0_0
l  2 3
l  4 2
l  2 8
l  3 1
l  3 5
l  1 4

# Mesh 'mesh3_mesh3-geometry' with 1 faces
g mesh3_mesh3-geometry
usemtl material_0_0
l  37 51

# Mesh 'mesh4_mesh4-geometry' with 1 faces
g mesh4_mesh4-geometry
usemtl material_0_0
l  101 116

# Mesh 'mesh5_mesh5-geometry' with 1 faces
g mesh5_mesh5-geometry
usemtl material_0_0
l  81 102

# Mesh 'mesh6_mesh6-geometry' with 1 faces
g mesh6_mesh6-geometry
usemtl material_0_0
l  48 60

# Mesh 'mesh7_mesh7-geometry' with 1 faces
g mesh7_mesh7-geometry
usemtl material_0_0
l  25 61

# Mesh 'mesh8_mesh8-geometry' with 1 faces
g mesh8_mesh8-geometry
usemtl material_0_0
l  99 126

# Mesh 'mesh9_mesh9-geometry' with 12 faces
g mesh9_mesh9-geometry
usemtl material_0_0
l  135 136
l  136 137
l  137 138
l  138 139
l  139 140
l  140 141
l  141 142
l  142 143
l  143 144
l  144 145
l  145 146
l  146 147

# Mesh 'mesh10_mesh10-geometry' with 12 faces
g mesh10_mesh10-geometry
usemtl material_0_0
l  148 149
l  149 150
l  150 151
l  151 152
l  152 153
l  153 154
l  154 155
l  155 156
l  156 157
l  157 158
l  158 159
l  159 160

# Mesh 'mesh11_mesh11-geometry' with 12 faces
g mesh11_mesh11-geometry
usemtl material_0_0
l  161 162
l  162 163
l  163 164
l  164 165
l  165 166
l  166 167
l  167 168
l  168 169
l  169 170
l  170 171
l  171 172
l  172 173

# Mesh 'mesh12_mesh12-geometry' with 12 faces
g mesh12_mesh12-geometry
usemtl material_0_0
l  174 175
l  175 176
l  176 177
l  177 178
l  178 179
l  179 180
l  180 181
l  181 182
l  182 183
l  183 184
l  184 185
l  185 186

