# File produced by Open Asset Import Library (http://www.assimp.sf.net)
# (assimp v3.2.202087883)

mtllib model_normalized.mtl

# 107 vertex positions
v -0.079095 0.105971 0.061836
v 0.079096 0.105971 0.033074
v 0.079096 0.105971 0.061836
v -0.079095 0.105971 0.033074
v 0.079096 0.264162 0.104101
v 0.079096 -0.196030 0.061836
v -0.079095 0.264162 0.104101
v -0.079095 0.264162 0.033074
v 0.079096 0.264162 0.033074
v -0.079095 -0.196030 0.061836
v 0.079096 -0.196030 0.104101
v 0.076579 -0.196030 -0.159245
v -0.076579 0.264162 0.106032
v -0.079095 -0.196030 0.104101
v 0.076579 0.264162 0.106032
v 0.076579 -0.196030 0.106032
v 0.108298 -0.196030 0.081692
v 0.039640 -0.196030 -0.174546
v -0.039641 0.264162 0.121332
v -0.076579 -0.196030 0.106032
v -0.108299 -0.196030 -0.134906
v 0.039640 0.264162 0.121332
v 0.039640 -0.196030 0.121332
v 0.108298 -0.196030 -0.134906
v 0.078017 -0.216163 -0.161736
v 0.000000 -0.196030 -0.179764
v 0.000000 0.264162 0.126551
v -0.039641 -0.196030 0.121332
v -0.108299 -0.196030 0.081692
v -0.076579 -0.196030 -0.159245
v 0.078017 -0.216163 0.108523
v 0.000000 -0.196030 0.126551
v 0.040384 -0.216163 0.124110
v 0.132638 -0.196030 -0.103186
v 0.110333 -0.216163 -0.136939
v 0.040384 -0.216163 -0.177324
v -0.039641 -0.196030 -0.174546
v 0.000000 -0.059022 0.126551
v -0.078017 -0.216163 0.108523
v -0.110332 -0.216163 0.083726
v -0.078017 -0.216163 -0.161736
v -0.132639 -0.196030 -0.103186
v 0.110333 -0.216163 0.083726
v 0.000000 -0.216163 0.129427
v 0.132638 -0.196030 0.049972
v 0.135128 -0.216163 -0.104624
v 0.000000 -0.216163 -0.182641
v -0.040385 -0.216163 0.124110
v -0.135129 -0.216163 0.051410
v -0.040385 -0.216163 -0.177324
v -0.110332 -0.216163 -0.136939
v -0.135129 -0.216163 -0.104624
v -0.132639 -0.196030 0.049972
v 0.135128 -0.216163 0.051410
v 0.147939 -0.196030 -0.066247
v 0.150717 -0.216163 -0.066992
v -0.150717 -0.216163 -0.066992
v -0.147939 -0.196030 -0.066247
v 0.147939 -0.196030 0.013033
v 0.150717 -0.216163 0.013778
v -0.150717 -0.216163 0.013778
v -0.147939 -0.196030 0.013033
v 0.153158 -0.196030 -0.026607
v 0.156034 -0.216163 -0.026607
v -0.156034 -0.216163 -0.026607
v -0.153157 -0.196030 -0.026607
v 0.334358 0.458694 0.033074
v 0.000000 -0.059022 0.033074
v 0.334358 -0.059022 0.033074
v -0.334358 -0.059022 0.033074
v 0.334358 -0.059022 -0.001440
v -0.334358 0.458694 0.033074
v -0.334358 -0.059022 -0.001440
v 0.334358 0.458694 -0.001440
v -0.334358 0.458694 -0.001440
v 0.334358 -0.059022 -0.011590
v -0.334358 0.458694 -0.011590
v -0.334358 -0.059022 -0.011590
v 0.334358 0.458694 -0.011590
v 0.333458 -0.058122 -0.012764
v 0.333458 0.457794 -0.012764
v -0.333458 0.457794 -0.012764
v -0.333458 -0.058122 -0.012764
v -0.331194 -0.055858 -0.014501
v 0.331194 -0.055858 -0.014501
v 0.331194 0.455530 -0.014501
v -0.331194 0.455530 -0.014501
v -0.328558 -0.053222 -0.015592
v 0.328558 -0.053222 -0.015592
v 0.328558 0.452894 -0.015592
v -0.328558 0.452894 -0.015592
v -0.325730 -0.050393 -0.015965
v 0.325729 -0.050393 -0.015965
v 0.325729 0.450066 -0.015965
v -0.325730 0.450066 -0.015965
v -0.309910 -0.034574 -0.015965
v 0.309911 -0.034574 -0.015965
v 0.309911 0.434247 -0.015965
v -0.309910 0.434247 -0.015965
v 0.309911 -0.034574 -0.008774
v -0.309910 0.434247 -0.008774
v -0.309910 -0.034574 -0.008774
v 0.309911 0.434247 -0.008774
v -0.309910 -0.034574 -0.001440
v 0.309911 -0.034574 -0.001440
v -0.309910 0.434247 -0.001440
v 0.309911 0.434247 -0.001440

# 5 UV coordinates
vt 0 0 0
vt 0.033478 0.069045 0
vt -0.202196 0.069045 0
vt 0.033478 0.247304 0
vt -0.202196 0.247304 0

# 102 vertex normals
vn 0 -0.001 0
vn 0.001 0 0
vn 0 -0 -0.001
vn -0.001 0 0
vn 0 0.001 0
vn 0.000608761 0 0.000793353
vn 0.0005 0 0.000866025
vn -0.000608761 0 0.000793353
vn -0.0005 0 0.000866025
vn 0.000494975 0.000141421 0.000857321
vn 0.0007 0.000141421 0.0007
vn 0.000602746 0.000140235 0.000785514
vn 0.000494975 0.000141421 -0.000857321
vn 0.000256218 0.000141421 -0.000956218
vn -0.000258819 0 0.000965926
vn -0.0007 0.000141421 0.0007
vn -0.000494975 0.000141421 0.000857321
vn -0.000602746 0.000140235 0.000785514
vn 0.000258819 0 0.000965926
vn 0.000256218 0.000141421 0.000956218
vn 0.0007 0.000141421 -0.0007
vn 0 0.000141421 -0.000989949
vn 0 0 0.001
vn -0.000256218 0.000141421 0.000956218
vn -0.000494975 0.000141421 -0.000857321
vn -0.0007 0.000141421 -0.0007
vn 0 0.000141421 0.000989949
vn 0.000857321 0.000141421 -0.000494975
vn -0.000256218 0.000141421 -0.000956218
vn -0.000857321 0.000141421 0.000494975
vn -0.000857321 0.000141421 -0.000494975
vn 0.000857321 0.000141421 0.000494975
vn 0.000956218 0.000141421 -0.000256218
vn -0.000956218 0.000141421 -0.000256218
vn 0.000956218 0.000141421 0.000256218
vn -0.000956218 0.000141421 0.000256218
vn 0.000989949 0.000141421 0
vn -0.000989949 0.000141421 0
vn -0.000608761 0 -0.000793353
vn -0.0005 0 -0.000866025
vn 0.000608761 -0 -0.000793353
vn 0.0005 -0 -0.000866025
vn -0.000602746 -0.000140235 -0.000785514
vn -0.0007 -0.000141421 -0.0007
vn -0.000494975 -0.000141421 -0.000857321
vn -0.000494975 -0.000141421 0.000857321
vn -0.000256218 -0.000141421 0.000956218
vn 0.000258819 -0 -0.000965926
vn 0.000602746 -0.000140235 -0.000785514
vn 0.000494975 -0.000141421 -0.000857321
vn 0.0007 -0.000141421 -0.0007
vn -0.000258819 0 -0.000965926
vn -0.000256218 -0.000141421 -0.000956218
vn -0.0007 -0.000141421 0.0007
vn 0 -0.000141421 0.000989949
vn 0.000256218 -0.000141421 -0.000956218
vn 0.000494975 -0.000141421 0.000857321
vn 0.0007 -0.000141421 0.0007
vn -0 -0.000141421 -0.000989949
vn -0.000857321 -0.000141421 0.000494975
vn 0.000256218 -0.000141421 0.000956218
vn 0.000857321 -0.000141421 -0.000494975
vn 0.000857321 -0.000141421 0.000494975
vn -0.000857321 -0.000141421 -0.000494975
vn -0.000956218 -0.000141421 0.000256218
vn 0.000956218 -0.000141421 0.000256218
vn -0.000956218 -0.000141421 -0.000256218
vn 0.000956218 -0.000141421 -0.000256218
vn -0.000989949 -0.000141421 0
vn 0.000989949 -0.000141421 0
vn -0 -0.000793353 -0.000608761
vn 0 -0.000707107 -0.000707107
vn 0 0.000793353 0.000608761
vn 0 0.000707107 0.000707107
vn 0.000793353 0 -0.000608761
vn 0.000707107 0 -0.000707107
vn -0.000793353 0 0.000608761
vn -0.000707107 0 0.000707107
vn -0.000707107 0 -0.000707107
vn -0.000793353 0 -0.000608761
vn 0.000793353 0 0.000608761
vn 0.000707107 0 0.000707107
vn 0 0.000707107 -0.000707107
vn 0 0.000793353 -0.000608761
vn 0 -0.000793353 0.000608761
vn 0 -0.000707107 0.000707107
vn 0 -0.0005 -0.000866025
vn 0 0.0005 0.000866025
vn 0 0.0005 -0.000866025
vn 0 -0.0005 0.000866025
vn 0 -0.000258819 -0.000965926
vn 0 0.000258819 0.000965926
vn 0 0.000258819 -0.000965926
vn 0 -0.000258819 0.000965926
vn -0 -0.000130526 -0.000991445
vn 0 0.000130526 0.000991445
vn 0.000130526 0 -0.000991445
vn -0.000130526 0 0.000991445
vn -0.000130526 0 -0.000991445
vn 0.000130526 0 0.000991445
vn 0 0.000130526 -0.000991445
vn 0 -0.000130526 0.000991445

# Mesh 'mesh1_mesh1-geometry' with 135 faces
g mesh1_mesh1-geometry
usemtl material_0_24
f  1//1 2//1 3//1
f  2//1 1//1 4//1
f  2//2 5//2 3//2
f  6//3 1//3 3//3
f  7//4 4//4 1//4
f  8//3 2//3 4//3
f  5//2 2//2 9//2
f  3//2 5//2 6//2
f  1//3 6//3 10//3
f  4//4 7//4 8//4
f  7//4 1//4 10//4
f  2//3 8//3 9//3
f  8//5 5//5 9//5
f  6//2 5//2 11//2
f  10//5 11//5 6//5
f  6//5 12//5 10//5
f  13//5 8//5 7//5
f  7//4 10//4 14//4
f  5//5 8//5 15//5
f  5//6 16//7 11//6
f  11//5 17//5 6//5
f  11//5 10//5 16//5
f  17//5 12//5 6//5
f  10//5 12//5 18//5
f  19//5 8//5 13//5
f  14//8 13//9 7//8
f  20//5 10//5 14//5
f  10//5 21//5 14//5
f  15//5 8//5 22//5
f  16//7 5//6 15//7
f  16//10 17//11 11//12
f  16//5 10//5 23//5
f  17//5 24//5 12//5
f  25//13 18//14 12//13
f  10//5 18//5 26//5
f  27//5 8//5 19//5
f  20//9 19//15 13//9
f  13//9 14//8 20//9
f  28//5 10//5 20//5
f  29//16 20//17 14//18
f  10//5 30//5 21//5
f  14//5 21//5 29//5
f  22//5 8//5 27//5
f  23//19 15//7 22//19
f  15//7 23//19 16//7
f  31//10 17//11 16//10
f  23//5 10//5 32//5
f  33//20 16//10 23//20
f  17//5 34//5 24//5
f  35//21 12//13 24//21
f  18//14 25//13 36//14
f  12//13 35//21 25//13
f  36//14 26//22 18//14
f  10//5 26//5 37//5
f  19//15 38//23 27//23
f  19//15 20//9 28//15
f  32//5 10//5 28//5
f  39//17 28//24 20//17
f  40//16 20//17 29//16
f  10//5 37//5 30//5
f  41//25 21//26 30//25
f  29//5 21//5 42//5
f  38//23 22//19 27//23
f  22//19 32//23 23//19
f  17//11 31//10 43//11
f  16//10 33//20 31//10
f  44//27 23//20 32//27
f  23//20 44//27 33//20
f  45//5 34//5 17//5
f  46//28 24//21 34//28
f  24//21 46//28 35//21
f  25//1 31//1 36//1
f  35//1 43//1 25//1
f  26//22 36//14 47//22
f  47//22 37//29 26//22
f  28//15 38//23 19//15
f  38//23 28//15 32//23
f  48//24 32//27 28//24
f  28//24 39//17 48//24
f  20//17 40//16 39//17
f  29//16 49//30 40//16
f  50//29 30//25 37//29
f  21//26 41//25 51//26
f  30//25 50//29 41//25
f  21//26 52//31 42//31
f  29//5 42//5 53//5
f  32//23 22//19 38//23
f  25//1 43//1 31//1
f  54//32 17//11 43//11
f  36//1 31//1 33//1
f  32//27 48//24 44//27
f  47//1 33//1 44//1
f  45//5 55//5 34//5
f  17//11 54//32 45//32
f  34//28 56//33 46//28
f  46//1 54//1 35//1
f  35//1 54//1 43//1
f  36//1 33//1 47//1
f  37//29 47//22 50//29
f  41//1 48//1 39//1
f  51//1 39//1 40//1
f  49//30 29//16 53//30
f  52//1 40//1 49//1
f  41//1 39//1 51//1
f  52//31 21//26 51//26
f  50//1 48//1 41//1
f  57//34 42//31 52//31
f  53//5 42//5 58//5
f  50//1 44//1 48//1
f  47//1 44//1 50//1
f  59//5 55//5 45//5
f  56//33 34//28 55//33
f  60//35 45//32 54//32
f  56//1 60//1 46//1
f  46//1 60//1 54//1
f  51//1 40//1 52//1
f  53//30 61//36 49//30
f  52//1 49//1 61//1
f  42//31 57//34 58//34
f  52//1 61//1 57//1
f  53//5 58//5 62//5
f  55//5 59//5 63//5
f  45//32 60//35 59//35
f  55//33 64//37 56//33
f  60//1 56//1 64//1
f  61//36 53//30 62//36
f  65//38 58//34 57//34
f  57//1 61//1 65//1
f  62//5 58//5 66//5
f  59//35 64//37 63//37
f  64//37 55//33 63//37
f  64//37 59//35 60//35
f  62//36 65//38 61//36
f  58//34 65//38 66//38
f  65//38 62//36 66//38

# Mesh 'mesh1_mesh1-geometry' with 135 faces
g mesh1_mesh1-geometry
usemtl material_1_24
f  3//5 2//5 1//5
f  4//5 1//5 2//5
f  3//4 5//4 2//4
f  3//23 1//23 6//23
f  1//2 4//2 7//2
f  4//23 2//23 8//23
f  9//4 2//4 5//4
f  6//4 5//4 3//4
f  10//23 6//23 1//23
f  8//2 7//2 4//2
f  10//2 1//2 7//2
f  9//23 8//23 2//23
f  9//1 5//1 8//1
f  11//4 5//4 6//4
f  6//1 11//1 10//1
f  10//1 12//1 6//1
f  7//1 8//1 13//1
f  14//2 10//2 7//2
f  15//1 8//1 5//1
f  11//39 16//40 5//39
f  6//1 17//1 11//1
f  16//1 10//1 11//1
f  6//1 12//1 17//1
f  18//1 12//1 10//1
f  13//1 8//1 19//1
f  7//41 13//42 14//41
f  14//1 10//1 20//1
f  14//1 21//1 10//1
f  22//1 8//1 15//1
f  15//40 5//39 16//40
f  11//43 17//44 16//45
f  23//1 10//1 16//1
f  12//1 24//1 17//1
f  12//46 18//47 25//46
f  26//1 18//1 10//1
f  19//1 8//1 27//1
f  13//42 19//48 20//42
f  20//42 14//41 13//42
f  20//1 10//1 28//1
f  14//49 20//50 29//51
f  21//1 30//1 10//1
f  29//1 21//1 14//1
f  27//1 8//1 22//1
f  22//52 15//40 23//52
f  16//40 23//52 15//40
f  16//45 17//44 31//45
f  32//1 10//1 23//1
f  23//53 16//45 33//53
f  24//1 34//1 17//1
f  24//54 12//46 35//54
f  36//47 25//46 18//47
f  25//46 35//54 12//46
f  18//47 26//55 36//47
f  37//1 26//1 10//1
f  27//3 38//3 19//48
f  28//48 20//42 19//48
f  28//1 10//1 32//1
f  20//50 28//56 39//50
f  29//51 20//50 40//51
f  30//1 37//1 10//1
f  30//57 21//58 41//57
f  42//1 21//1 29//1
f  27//3 22//52 38//3
f  23//52 32//3 22//52
f  43//44 31//45 17//44
f  31//45 33//53 16//45
f  32//59 23//53 44//59
f  33//53 44//59 23//53
f  17//1 34//1 45//1
f  34//60 24//54 46//60
f  35//54 46//60 24//54
f  36//5 31//5 25//5
f  25//5 43//5 35//5
f  47//55 36//47 26//55
f  26//55 37//61 47//55
f  19//48 38//3 28//48
f  32//3 28//48 38//3
f  28//56 32//59 48//56
f  48//56 39//50 28//56
f  39//50 40//51 20//50
f  40//51 49//62 29//51
f  37//61 30//57 50//61
f  51//58 41//57 21//58
f  41//57 50//61 30//57
f  42//63 52//63 21//58
f  53//1 42//1 29//1
f  38//3 22//52 32//3
f  31//5 43//5 25//5
f  43//44 17//44 54//64
f  33//5 31//5 36//5
f  44//59 48//56 32//59
f  44//5 33//5 47//5
f  34//1 55//1 45//1
f  45//64 54//64 17//44
f  46//60 56//65 34//60
f  35//5 54//5 46//5
f  43//5 54//5 35//5
f  47//5 33//5 36//5
f  50//61 47//55 37//61
f  39//5 48//5 41//5
f  40//5 39//5 51//5
f  53//62 29//51 49//62
f  49//5 40//5 52//5
f  51//5 39//5 41//5
f  51//58 21//58 52//63
f  41//5 48//5 50//5
f  52//63 42//63 57//66
f  58//1 42//1 53//1
f  48//5 44//5 50//5
f  50//5 44//5 47//5
f  45//1 55//1 59//1
f  55//65 34//60 56//65
f  54//64 45//64 60//67
f  46//5 60//5 56//5
f  54//5 60//5 46//5
f  52//5 40//5 51//5
f  49//62 61//68 53//62
f  61//5 49//5 52//5
f  58//66 57//66 42//63
f  57//5 61//5 52//5
f  62//1 58//1 53//1
f  63//1 59//1 55//1
f  59//67 60//67 45//64
f  56//65 64//69 55//65
f  64//5 56//5 60//5
f  62//68 53//62 61//68
f  57//66 58//66 65//70
f  65//5 61//5 57//5
f  66//1 58//1 62//1
f  63//69 64//69 59//67
f  63//69 55//65 64//69
f  60//67 59//67 64//69
f  61//68 65//70 62//68
f  66//70 65//70 58//66
f  66//70 62//68 65//70

# Mesh 'mesh2_mesh2-geometry' with 12 faces
g mesh2_mesh2-geometry
usemtl material_0_24
f  67/1/23 68/1/23 69/1/23
f  68/1/23 67/1/23 70/1/23
f  68/1/1 71/1/1 69/1/1
f  71/1/2 67/1/2 69/1/2
f  70/1/23 67/1/23 72/1/23
f  73/1/1 68/1/1 70/1/1
f  71/1/1 68/1/1 73/1/1
f  67/1/2 71/1/2 74/1/2
f  67/1/5 75/1/5 72/1/5
f  75/1/4 70/1/4 72/1/4
f  70/1/4 75/1/4 73/1/4
f  75/1/5 67/1/5 74/1/5

# Mesh 'mesh2_mesh2-geometry' with 12 faces
g mesh2_mesh2-geometry
usemtl material_2_24
f  69/1/3 68/1/3 67/1/3
f  70/1/3 67/1/3 68/1/3
f  69/1/5 71/1/5 68/1/5
f  69/1/4 67/1/4 71/1/4
f  72/1/3 67/1/3 70/1/3
f  70/1/5 68/1/5 73/1/5
f  73/1/5 68/1/5 71/1/5
f  74/1/4 71/1/4 67/1/4
f  72/1/1 75/1/1 67/1/1
f  72/1/2 70/1/2 75/1/2
f  73/1/2 75/1/2 70/1/2
f  74/1/1 67/1/1 75/1/1

# Mesh 'mesh2_mesh2-geometry' with 116 faces
g mesh2_mesh2-geometry
usemtl material_1_24
f  73/1/1 76/1/1 71/1/1
f  71/1/5 76/1/5 73/1/5
f  74/1/23 73/1/23 71/1/23
f  71/1/3 73/1/3 74/1/3
f  76/1/2 74/1/2 71/1/2
f  71/1/4 74/1/4 76/1/4
f  73/1/23 74/1/23 75/1/23
f  75/1/3 74/1/3 73/1/3
f  77/1/4 73/1/4 75/1/4
f  75/1/2 73/1/2 77/1/2
f  76/1/1 73/1/1 78/1/1
f  78/1/5 73/1/5 76/1/5
f  74/1/2 76/1/2 79/1/2
f  79/1/4 76/1/4 74/1/4
f  74/1/5 77/1/5 75/1/5
f  75/1/1 77/1/1 74/1/1
f  73/1/4 77/1/4 78/1/4
f  78/1/2 77/1/2 73/1/2
f  78/1/71 80/1/72 76/1/71
f  76/1/73 80/1/74 78/1/73
f  76/1/75 81/1/76 79/1/75
f  79/1/77 81/1/78 76/1/77
f  77/1/5 74/1/5 79/1/5
f  79/1/1 74/1/1 77/1/1
f  82/1/79 78/1/80 77/1/80
f  77/1/81 78/1/81 82/1/82
f  80/1/72 78/1/71 83/1/72
f  83/1/74 78/1/73 80/1/74
f  81/1/76 76/1/75 80/1/76
f  80/1/78 76/1/77 81/1/78
f  81/1/83 77/1/84 79/1/84
f  79/1/85 77/1/85 81/1/86
f  78/1/80 82/1/79 83/1/79
f  83/1/82 82/1/82 78/1/81
f  77/1/84 81/1/83 82/1/83
f  82/1/86 81/1/86 77/1/85
f  84/1/87 80/1/72 83/1/72
f  83/1/74 80/1/74 84/1/88
f  85/1/42 81/1/76 80/1/76
f  80/1/78 81/1/78 85/1/9
f  82/1/79 84/1/40 83/1/79
f  83/1/82 84/1/7 82/1/82
f  86/1/89 82/1/83 81/1/83
f  81/1/86 82/1/86 86/1/90
f  80/1/72 84/1/87 85/1/87
f  85/1/88 84/1/88 80/1/74
f  81/1/76 85/1/42 86/1/42
f  86/1/9 85/1/9 81/1/78
f  84/1/40 82/1/79 87/1/40
f  87/1/7 82/1/82 84/1/7
f  82/1/83 86/1/89 87/1/89
f  87/1/90 86/1/90 82/1/86
f  88/1/91 85/1/87 84/1/87
f  84/1/88 85/1/88 88/1/92
f  89/1/48 86/1/42 85/1/42
f  85/1/9 86/1/9 89/1/15
f  87/1/40 88/1/52 84/1/40
f  84/1/7 88/1/19 87/1/7
f  90/1/93 87/1/89 86/1/89
f  86/1/90 87/1/90 90/1/94
f  85/1/87 88/1/91 89/1/91
f  89/1/92 88/1/92 85/1/88
f  86/1/42 89/1/48 90/1/48
f  90/1/15 89/1/15 86/1/9
f  88/1/52 87/1/40 91/1/52
f  91/1/19 87/1/7 88/1/19
f  87/1/89 90/1/93 91/1/93
f  91/1/94 90/1/94 87/1/90
f  92/1/95 89/1/91 88/1/91
f  88/1/92 89/1/92 92/1/96
f  93/1/97 90/1/48 89/1/48
f  89/1/15 90/1/15 93/1/98
f  91/1/52 92/1/99 88/1/52
f  88/1/19 92/1/100 91/1/19
f  94/1/101 91/1/93 90/1/93
f  90/1/94 91/1/94 94/1/102
f  89/1/91 92/1/95 93/1/95
f  93/1/96 92/1/96 89/1/92
f  90/1/48 93/1/97 94/1/97
f  94/1/98 93/1/98 90/1/15
f  92/1/99 91/1/52 95/1/99
f  95/1/100 91/1/19 92/1/100
f  91/1/93 94/1/101 95/1/101
f  95/1/102 94/1/102 91/1/94
f  92/1/3 96/1/3 93/1/3
f  93/1/23 96/1/23 92/1/23
f  97/1/3 94/1/3 93/1/3
f  93/1/23 94/1/23 97/1/23
f  96/1/3 92/1/3 95/1/3
f  95/1/23 92/1/23 96/1/23
f  94/1/3 98/1/3 95/1/3
f  95/1/23 98/1/23 94/1/23
f  93/1/3 96/1/3 97/1/3
f  97/1/23 96/1/23 93/1/23
f  94/1/3 97/1/3 98/1/3
f  98/1/23 97/1/23 94/1/23
f  96/1/3 95/1/3 99/1/3
f  99/1/23 95/1/23 96/1/23
f  99/1/3 95/1/3 98/1/3
f  98/1/23 95/1/23 99/1/23
f  96/1/5 100/1/5 97/1/5
f  97/1/1 100/1/1 96/1/1
f  100/1/4 98/1/4 97/1/4
f  97/1/2 98/1/2 100/1/2
f  101/1/2 96/1/2 99/1/2
f  99/1/4 96/1/4 101/1/4
f  98/1/1 101/1/1 99/1/1
f  99/1/5 101/1/5 98/1/5
f  100/1/5 96/1/5 102/1/5
f  102/1/1 96/1/1 100/1/1
f  98/1/4 100/1/4 103/1/4
f  103/1/2 100/1/2 98/1/2
f  96/1/2 101/1/2 102/1/2
f  102/1/4 101/1/4 96/1/4
f  101/1/1 98/1/1 103/1/1
f  103/1/5 98/1/5 101/1/5

# Mesh 'mesh2_mesh2-geometry' with 2 faces
g mesh2_mesh2-geometry
usemtl material_3_24
f  103/1/23 102/1/23 100/1/23
f  102/1/23 103/1/23 101/1/23

# Mesh 'mesh2_mesh2-geometry' with 2 faces
g mesh2_mesh2-geometry
usemtl material_4_1_8
f  100/2/3 102/3/3 103/4/3
f  101/5/3 103/4/3 102/3/3

# Mesh 'mesh3_mesh3-geometry' with 16 faces
g mesh3_mesh3-geometry
usemtl material_1_0
l  102 96
l  102 100
l  104 102
l  101 102
l  96 97
l  96 99
l  97 100
l  100 103
l  100 105
l  103 101
l  99 101
l  101 106
l  98 97
l  98 99
l  103 98
l  107 103

# Mesh 'mesh4_mesh4-geometry' with 31 faces
g mesh4_mesh4-geometry
usemtl material_1_0
l  77 79
l  77 75
l  77 82
l  78 77
l  79 74
l  79 76
l  81 79
l  75 74
l  82 87
l  76 78
l  83 78
l  78 73
l  71 74
l  76 71
l  80 76
l  86 81
l  87 91
l  84 83
l  73 71
l  85 80
l  90 86
l  91 95
l  88 84
l  89 85
l  94 90
l  95 94
l  92 95
l  92 88
l  93 89
l  94 93
l  93 92

