# File produced by Open Asset Import Library (http://www.assimp.sf.net)
# (assimp v3.2.202087883)

mtllib model_normalized.mtl

# 112 vertex positions
v 0.263842 0.128394 -0.000000
v 0.277951 0.142503 -0.000000
v 0.277951 0.128394 -0.000000
v 0.263842 0.142503 -0.000000
v 0.277951 0.142503 0.107230
v 0.263842 0.128394 -0.107230
v 0.263842 0.142503 0.107230
v 0.263842 0.142503 -0.107230
v 0.277951 0.128394 0.107230
v 0.277951 0.270897 0.107230
v 0.406346 0.142503 0.107230
v 0.277951 0.128394 -0.107230
v -0.263842 0.128394 -0.107230
v 0.263842 0.007055 -0.107230
v 0.263843 0.128394 0.107230
v -0.263842 0.142503 -0.107230
v 0.263842 0.270897 0.107230
v 0.277951 0.142503 -0.107230
v 0.406346 0.128394 0.107230
v 0.277951 0.007055 -0.000000
v 0.277951 0.007055 -0.107230
v 0.406346 0.128394 -0.107230
v -0.263842 0.128394 -0.000000
v -0.277952 0.128394 -0.107230
v 0.263842 0.007055 -0.000000
v -0.263842 0.128394 0.107230
v -0.263842 0.142503 0.107230
v -0.263842 0.142503 -0.000000
v 0.277951 0.270897 -0.107230
v 0.263842 0.270897 -0.107230
v 0.277951 0.007055 0.107230
v 0.406346 0.142503 -0.107230
v -0.406345 0.128394 -0.107230
v -0.263842 0.007055 -0.107230
v -0.277952 0.128394 -0.000000
v -0.277952 0.007055 -0.107230
v 0.263842 0.007055 0.107230
v -0.277952 0.142503 -0.000000
v -0.263842 0.270897 0.107230
v 0.406346 0.007055 0.107230
v 0.277951 -0.007055 -0.000000
v -0.406345 0.142503 -0.107230
v -0.263842 0.007055 -0.000000
v 0.263842 -0.007055 -0.000000
v -0.277952 0.142503 0.107230
v -0.277952 0.142503 -0.107230
v -0.263842 0.270897 -0.107230
v 0.406346 0.007055 -0.107230
v 0.277951 -0.007055 0.107230
v 0.406346 -0.007055 -0.107230
v -0.406345 0.128394 0.107230
v -0.263842 0.007055 0.107230
v -0.277952 0.128394 0.107230
v -0.277952 0.007055 -0.000000
v -0.277952 0.270897 0.107230
v 0.263843 -0.007055 0.107230
v -0.277952 0.270897 -0.107230
v 0.406346 -0.007055 0.107230
v 0.277951 -0.128394 -0.000000
v 0.263842 -0.007055 -0.107230
v -0.406345 0.142503 0.107230
v -0.263842 -0.007055 -0.000000
v -0.406345 0.007055 -0.107230
v 0.263842 -0.128394 -0.000000
v -0.263842 -0.007055 0.107230
v 0.277951 -0.128394 -0.107230
v 0.277951 -0.128394 0.107230
v 0.277951 -0.007055 -0.107230
v 0.263842 -0.128394 -0.107230
v -0.263842 -0.007055 -0.107230
v -0.277952 0.007055 0.107230
v -0.277952 -0.007055 -0.000000
v -0.406345 -0.007055 -0.107230
v 0.263842 -0.128394 0.107230
v 0.406346 -0.128394 0.107230
v 0.277951 -0.142503 -0.000000
v -0.277952 -0.007055 -0.107230
v -0.263842 -0.128394 -0.000000
v -0.406345 -0.007055 0.107230
v -0.406345 0.007055 0.107230
v -0.263842 -0.128394 -0.107230
v 0.263842 -0.142503 -0.000000
v 0.406346 -0.128394 -0.107230
v 0.277951 -0.142503 0.107230
v -0.277952 -0.128394 -0.107230
v -0.277952 -0.007055 0.107230
v -0.263842 -0.128394 0.107230
v 0.263843 -0.142503 0.107230
v 0.406346 -0.142503 -0.107230
v 0.406346 -0.142503 0.107230
v 0.277951 -0.270897 0.107230
v 0.263842 -0.142503 -0.107230
v -0.263842 -0.142503 -0.000000
v -0.277952 -0.128394 -0.000000
v 0.263842 -0.270897 0.107230
v -0.263842 -0.142503 0.107230
v 0.277951 -0.270897 -0.107230
v 0.277951 -0.142503 -0.107230
v 0.263842 -0.270897 -0.107230
v -0.263842 -0.142503 -0.107230
v -0.277952 -0.128394 0.107230
v -0.277952 -0.142503 -0.000000
v -0.406345 -0.128394 -0.107230
v -0.277952 -0.142503 -0.107230
v -0.263842 -0.270897 0.107230
v -0.406345 -0.142503 -0.107230
v -0.277952 -0.270897 -0.107230
v -0.263842 -0.270897 -0.107230
v -0.277952 -0.142503 0.107230
v -0.277952 -0.270897 0.107230
v -0.406345 -0.128394 0.107230
v -0.406345 -0.142503 0.107230

# 137 UV coordinates
vt 0.175347 0.539322 0
vt 0.157986 0.558379 0
vt 0.157986 0.539322 0
vt 0.175347 0.558379 0
vt -0.263889 0.558379 0
vt -0.131945 0.539322 0
vt -0.131945 0.558379 0
vt 0.157986 0.144836 0
vt 0.175347 0 0
vt 0.175347 0.144836 0
vt -0.175347 0 0
vt -0.157986 0.144836 0
vt -0.175347 0.144836 0
vt 0.131945 0.539322 0
vt 0.263889 0.558379 0
vt 0.131945 0.558379 0
vt -0.263889 0.539322 0
vt -0.263889 0.731801 0
vt 0 0.289671 0
vt 0.157986 0.289671 0
vt 0.157986 0 0
vt -0.157986 0 0
vt -0.824653 0 0
vt 0 0.375429 0
vt 0 0.539322 0
vt 0.263889 0.539322 0
vt 0.824653 0 0
vt 0.175347 0.289671 0
vt 0.263889 0.731801 0
vt 0 0.558379 0
vt -0.157986 0.539322 0
vt -0.157986 0.558379 0
vt -0.175347 0.558379 0
vt -0.157986 0.289671 0
vt -0.131945 0.375429 0
vt -0.175347 0.731801 0
vt -0.157986 0.731801 0
vt 0.175347 0.375429 0
vt -0.824653 0.144836 0
vt 0.842014 0.539322 0
vt 0.824653 0.539322 0
vt 0.131945 0.375429 0
vt -0.824653 0.289671 0
vt -0.175347 0.289671 0
vt -0.175347 0.539322 0
vt -0.824653 0.558379 0
vt 0.824653 0.144836 0
vt 0.157986 0.731801 0
vt 0.824653 0.558379 0
vt 0 0.731801 0
vt -0.263889 0.375429 0
vt -0 0 0
vt 0.157986 0.375429 0
vt 1 0.539322 0
vt -0.131944 0.539322 0
vt 0.842014 0.144836 0
vt -0.842014 0.144836 0
vt 0.842014 0 0
vt 0.842014 0.375429 0
vt -0.842014 0 0
vt -0.824653 0.539322 0
vt 0.263889 0.375429 0
vt -0.157986 0.375429 0
vt 0.824653 0.289671 0
vt -0.131944 0.558379 0
vt 0.175347 0.731801 0
vt -0.131945 0.356372 0
vt 0.824653 0.375429 0
vt 1 0.558379 0
vt 0.842014 0.558379 0
vt -1 -0 0
vt 0.131944 0.539322 0
vt 0.175347 0.356372 0
vt -0.842014 0.558379 0
vt 0.131945 0.356372 0
vt -0.175347 0.375429 0
vt -0.157986 0.356372 0
vt -0.263889 0.356372 0
vt 0.157986 0.356372 0
vt -0 0.356372 0
vt -0.842014 0.289671 0
vt -0.842014 0.539322 0
vt -0.842014 0.731801 0
vt 0.263889 0.356372 0
vt -0.824653 0.731801 0
vt 0.131944 0.558379 0
vt 0.842014 0.289671 0
vt 0.824653 0.731801 0
vt -0.131945 0.192479 0
vt -1 0.289671 0
vt 1 -0 0
vt -0.824653 0.375429 0
vt 1 0.375429 0
vt -1 0.558379 0
vt 0.131945 0.192479 0
vt -0.175347 0.356372 0
vt 0.842014 0.731801 0
vt -0 0.192479 0
vt -0.263889 0.192479 0
vt -1 0.539322 0
vt 1 0.289671 0
vt -0.842014 0.375429 0
vt -0.842014 0.356372 0
vt -0.824653 0.356372 0
vt 1 0.356372 0
vt 0.263889 0.192479 0
vt -0.157986 0.192479 0
vt -0.131945 0.173422 0
vt 0.175347 0.192479 0
vt 0.842014 0.356372 0
vt 0.824653 0.356372 0
vt 0.131945 0.173422 0
vt -0.175347 0.192479 0
vt 0.157986 0.192479 0
vt 0.824653 0.192479 0
vt -0.157986 0.173422 0
vt -0.263889 0.173422 0
vt 0.175347 0.173422 0
vt 0.157986 0.173422 0
vt 0.842014 0.192479 0
vt -1 0.375429 0
vt 0.263889 0.173422 0
vt -0 0.173422 0
vt -0.263889 0 0
vt -0.824653 0.192479 0
vt -1 0.356372 0
vt 0.263889 -0 0
vt -0.175347 0.173422 0
vt -0.842014 0.192479 0
vt -0.842014 0.173422 0
vt -0.824653 0.173422 0
vt 1 0.192479 0
vt 0.842014 0.173422 0
vt 0.824653 0.173422 0
vt 1 0.173422 0
vt -1 0.192479 0
vt -1 0.173422 0

# 6 vertex normals
vn 0 -0 -0.0254
vn 0.0254 0 0
vn 0 0.0254 0
vn 0 -0.0254 0
vn -0.0254 0 0
vn 0 0 0.0254

# Mesh 'mesh1_mesh1-geometry' with 364 faces
g mesh1_mesh1-geometry
usemtl material_0_1_8
f  1/1/1 2/2/1 3/3/1
f  2/2/1 1/1/1 4/4/1
f  5/5/2 3/6/2 2/7/2
f  5/5/2 3/6/2 2/7/2
f  3/8/3 6/9/3 1/10/3
f  1/10/4 6/9/4 3/8/4
f  6/11/4 3/12/4 1/13/4
f  1/14/5 7/15/5 4/16/5
f  1/14/5 7/15/5 4/16/5
f  8/11/4 2/12/4 4/13/4
f  4/13/3 2/12/3 8/11/3
f  2/8/3 8/9/3 4/10/3
f  3/6/2 5/5/2 9/17/2
f  3/6/2 5/5/2 9/17/2
f  2/7/2 10/18/2 5/5/2
f  11/19/3 2/8/3 5/20/3
f  6/9/3 3/8/3 12/21/3
f  12/21/4 3/8/4 6/9/4
f  3/12/4 6/11/4 12/22/4
f  1/13/4 13/23/4 6/11/4
f  14/24/5 1/14/5 6/25/5
f  7/15/5 1/14/5 15/26/5
f  7/15/5 1/14/5 15/26/5
f  4/10/3 16/27/3 7/28/3
f  17/29/5 4/16/5 7/15/5
f  2/12/4 8/11/4 18/22/4
f  18/22/3 8/11/3 2/12/3
f  8/9/3 2/8/3 18/21/3
f  16/27/3 4/10/3 8/9/3
f  17/29/5 8/30/5 4/16/5
f  9/31/6 11/30/6 5/32/6
f  7/33/6 9/31/6 5/32/6
f  3/12/4 19/19/4 9/34/4
f  20/35/2 3/6/2 9/17/2
f  18/30/2 10/18/2 2/7/2
f  17/36/6 5/32/6 10/37/6
f  11/19/3 18/21/3 2/8/3
f  12/22/4 19/19/4 3/12/4
f  3/6/2 21/24/2 12/25/2
f  12/3/1 14/38/1 6/1/1
f  6/1/1 22/25/1 12/3/1
f  13/23/4 1/13/4 23/39/4
f  24/40/1 6/1/1 13/41/1
f  1/14/5 14/24/5 25/42/5
f  26/43/4 1/13/4 15/44/4
f  1/14/5 25/42/5 15/26/5
f  15/45/6 9/31/6 7/33/6
f  27/46/6 15/45/6 7/33/6
f  7/28/3 16/27/3 28/47/3
f  7/33/6 5/32/6 17/36/6
f  8/4/1 29/48/1 18/2/1
f  8/4/1 18/2/1 16/49/1
f  8/30/5 17/29/5 30/50/5
f  11/30/6 9/31/6 19/25/6
f  21/24/2 3/6/2 20/35/2
f  20/35/2 9/17/2 31/51/2
f  10/18/2 18/30/2 29/50/2
f  10/20/3 30/9/3 17/28/3
f  18/21/3 11/19/3 32/52/3
f  19/19/4 12/22/4 22/52/4
f  14/38/1 12/3/1 21/53/1
f  22/25/1 6/1/1 33/54/1
f  1/13/4 26/43/4 23/39/4
f  23/55/2 34/24/2 13/25/2
f  13/27/3 35/56/3 23/47/3
f  23/47/4 35/56/4 13/27/4
f  35/57/4 13/23/4 23/39/4
f  6/1/1 24/40/1 33/54/1
f  35/56/3 13/27/3 24/58/3
f  24/58/4 13/27/4 35/56/4
f  13/41/1 36/59/1 24/40/1
f  13/23/4 35/57/4 24/60/4
f  14/11/4 20/12/4 25/13/4
f  25/13/3 20/12/3 14/11/3
f  34/27/3 25/10/3 14/9/3
f  20/8/3 14/9/3 25/10/3
f  15/45/6 27/46/6 26/61/6
f  15/26/5 25/42/5 37/62/5
f  15/45/6 31/63/6 9/31/6
f  27/64/3 7/28/3 28/47/3
f  38/57/4 16/23/4 28/39/4
f  28/39/3 16/23/3 38/57/3
f  16/27/3 38/56/3 28/47/3
f  16/30/2 39/18/2 28/65/2
f  29/48/1 8/4/1 30/66/1
f  18/2/1 22/25/1 16/49/1
f  19/17/2 32/30/2 11/5/2
f  20/12/4 14/11/4 21/22/4
f  21/22/3 14/11/3 20/12/3
f  40/19/3 21/21/3 20/8/3
f  14/9/3 20/8/3 21/21/3
f  40/19/3 20/8/3 31/20/3
f  31/51/2 41/67/2 20/35/2
f  31/51/2 41/67/2 20/35/2
f  30/9/3 10/20/3 29/21/3
f  22/25/1 18/2/1 32/30/1
f  32/30/2 19/17/2 22/25/2
f  14/38/1 21/53/1 34/68/1
f  22/25/1 33/54/1 42/69/1
f  43/35/2 23/55/2 26/17/2
f  27/15/5 23/14/5 26/26/5
f  23/6/2 27/5/2 26/17/2
f  34/24/2 23/55/2 43/35/2
f  36/59/1 13/41/1 34/68/1
f  38/70/1 23/41/1 35/40/1
f  35/40/6 23/41/6 38/70/6
f  35/57/4 33/71/4 24/60/4
f  36/24/5 35/72/5 24/25/5
f  20/53/1 44/73/1 25/38/1
f  25/38/6 44/73/6 20/53/6
f  25/10/3 34/27/3 37/28/3
f  45/74/6 26/61/6 27/46/6
f  44/75/5 37/62/5 25/42/5
f  44/75/5 37/62/5 25/42/5
f  37/76/6 31/63/6 15/45/6
f  23/14/5 27/15/5 28/16/5
f  27/5/2 23/6/2 28/7/2
f  28/65/2 39/18/2 27/5/2
f  16/23/4 38/57/4 46/60/4
f  46/60/3 38/57/3 16/23/3
f  38/56/3 16/27/3 46/58/3
f  23/41/1 38/70/1 28/49/1
f  28/49/6 38/70/6 23/41/6
f  39/18/2 16/30/2 47/50/2
f  22/25/1 46/70/1 16/49/1
f  21/21/3 40/19/3 48/52/3
f  49/77/6 40/24/6 31/63/6
f  41/67/2 31/51/2 49/78/2
f  41/67/2 31/51/2 49/78/2
f  44/73/1 20/53/1 41/79/1
f  41/79/6 20/53/6 44/73/6
f  21/53/1 50/80/1 34/68/1
f  51/26/5 42/30/5 33/25/5
f  22/25/1 42/69/1 46/70/1
f  43/35/2 26/17/2 52/51/2
f  43/39/4 36/60/4 34/23/4
f  34/23/3 36/60/3 43/39/3
f  37/28/3 34/27/3 43/47/3
f  36/58/3 43/47/3 34/27/3
f  50/80/1 36/59/1 34/68/1
f  45/5/2 35/6/2 38/7/2
f  35/14/5 45/15/5 38/16/5
f  33/71/4 35/57/4 53/81/4
f  35/72/5 36/24/5 54/42/5
f  53/82/6 26/61/6 45/74/6
f  45/74/6 27/46/6 55/83/6
f  37/62/5 44/75/5 56/84/5
f  37/62/5 44/75/5 56/84/5
f  37/76/6 49/77/6 31/63/6
f  55/83/6 27/46/6 39/85/6
f  55/29/5 46/30/5 38/86/5
f  46/58/3 45/87/3 38/56/3
f  46/70/1 47/88/1 16/49/1
f  57/58/3 39/64/3 47/27/3
f  58/78/2 48/24/2 40/51/2
f  50/80/1 21/53/1 48/24/1
f  40/24/6 49/77/6 58/80/6
f  59/89/2 41/67/2 49/78/2
f  41/12/4 58/19/4 49/34/4
f  41/8/3 60/9/3 44/10/3
f  44/10/4 60/9/4 41/8/4
f  60/11/4 41/12/4 44/13/4
f  42/30/5 51/26/5 61/15/5
f  33/71/4 53/81/4 51/90/4
f  45/87/3 46/58/3 42/91/3
f  53/82/6 52/92/6 26/61/6
f  62/75/5 52/62/5 43/42/5
f  37/28/3 43/47/3 52/64/3
f  52/51/2 62/67/2 43/35/2
f  36/60/4 43/39/4 54/57/4
f  54/57/3 43/39/3 36/60/3
f  43/47/3 36/58/3 54/56/3
f  50/80/1 63/93/1 36/59/1
f  35/6/2 45/5/2 53/17/2
f  45/15/5 35/14/5 53/26/5
f  55/29/5 38/86/5 45/15/5
f  35/72/5 54/42/5 53/26/5
f  63/91/3 54/56/3 36/58/3
f  61/94/6 53/82/6 45/74/6
f  44/75/5 64/95/5 56/84/5
f  65/43/4 44/13/4 56/44/4
f  56/96/6 49/77/6 37/76/6
f  52/92/6 56/96/6 37/76/6
f  39/64/3 57/58/3 55/87/3
f  46/30/5 55/29/5 57/50/5
f  47/88/1 46/70/1 57/97/1
f  48/24/2 58/78/2 50/80/2
f  66/98/2 41/67/2 59/89/2
f  59/89/2 49/78/2 67/99/2
f  68/22/4 58/19/4 41/12/4
f  60/9/3 41/8/3 68/21/3
f  68/21/4 41/8/4 60/9/4
f  41/12/4 60/11/4 68/22/4
f  69/98/5 44/75/5 60/80/5
f  70/23/4 60/11/4 44/13/4
f  53/82/6 61/94/6 51/100/6
f  45/87/3 42/91/3 61/101/3
f  71/102/6 52/92/6 53/82/6
f  52/62/5 62/75/5 65/84/5
f  62/67/2 52/51/2 65/78/2
f  43/92/6 72/103/6 62/104/6
f  72/103/6 43/92/6 54/102/6
f  50/80/1 73/105/1 63/93/1
f  53/26/5 54/42/5 71/62/5
f  54/56/3 63/91/3 71/87/3
f  44/75/5 69/98/5 64/95/5
f  56/84/5 64/95/5 74/106/5
f  44/13/4 65/43/4 62/39/4
f  56/96/6 52/92/6 65/104/6
f  56/96/6 67/107/6 49/77/6
f  58/19/4 68/22/4 50/52/4
f  41/67/2 66/98/2 68/80/2
f  69/9/3 59/8/3 66/21/3
f  59/12/4 69/11/4 66/22/4
f  66/22/3 69/11/3 59/12/3
f  75/19/3 66/21/3 59/8/3
f  75/19/3 59/8/3 67/20/3
f  67/99/2 76/108/2 59/89/2
f  67/99/2 76/108/2 59/89/2
f  68/79/1 69/109/1 60/73/1
f  60/73/1 50/80/1 68/79/1
f  77/110/1 60/73/1 70/111/1
f  44/13/4 62/39/4 70/23/4
f  71/102/6 65/104/6 52/92/6
f  78/89/2 62/67/2 65/78/2
f  62/47/3 77/58/3 72/56/3
f  72/56/4 77/58/4 62/47/4
f  77/60/4 62/39/4 72/57/4
f  71/51/2 72/67/2 54/35/2
f  72/75/5 71/62/5 54/42/5
f  50/80/1 60/73/1 73/105/1
f  79/84/5 63/24/5 73/80/5
f  71/87/3 63/91/3 80/101/3
f  59/8/3 69/9/3 64/10/3
f  69/11/4 59/12/4 64/13/4
f  64/13/3 59/12/3 69/11/3
f  81/27/3 64/10/3 69/9/3
f  82/112/5 74/106/5 64/95/5
f  64/10/3 81/27/3 74/28/3
f  82/112/5 74/106/5 64/95/5
f  74/113/6 67/107/6 56/96/6
f  69/109/1 68/79/1 66/114/1
f  69/109/1 66/114/1 81/115/1
f  66/21/3 75/19/3 83/52/3
f  84/116/6 75/98/6 67/107/6
f  76/108/2 67/99/2 84/117/2
f  76/108/2 67/99/2 84/117/2
f  82/118/1 59/114/1 76/119/1
f  60/73/1 77/110/1 73/105/1
f  70/111/1 85/120/1 77/110/1
f  77/58/3 62/47/3 70/27/3
f  70/27/4 62/47/4 77/58/4
f  62/39/4 77/60/4 70/23/4
f  62/67/2 81/98/2 70/80/2
f  86/103/6 65/104/6 71/102/6
f  81/98/2 62/67/2 78/89/2
f  78/89/2 65/78/2 87/99/2
f  72/57/4 73/71/4 77/60/4
f  85/98/5 72/75/5 77/80/5
f  72/67/2 71/51/2 86/78/2
f  71/62/5 72/75/5 86/84/5
f  63/24/5 79/84/5 80/62/5
f  73/71/4 86/81/4 79/90/4
f  80/121/6 86/103/6 71/102/6
f  59/114/1 82/118/1 64/109/1
f  74/106/5 82/112/5 88/122/5
f  74/106/5 82/112/5 88/122/5
f  74/28/3 81/27/3 78/47/3
f  74/113/6 84/116/6 67/107/6
f  66/114/1 89/123/1 81/115/1
f  90/117/2 83/98/2 75/99/2
f  89/123/1 66/114/1 83/98/1
f  75/98/6 84/116/6 90/123/6
f  91/124/2 76/108/2 84/117/2
f  76/12/4 90/19/4 84/34/4
f  76/8/3 92/9/3 82/10/3
f  82/10/4 92/9/4 76/8/4
f  92/11/4 76/12/4 82/13/4
f  85/120/1 70/111/1 81/115/1
f  86/103/6 87/125/6 65/104/6
f  78/39/4 85/60/4 81/23/4
f  81/23/3 85/60/3 78/39/3
f  85/58/3 78/47/3 81/27/3
f  93/112/5 87/106/5 78/95/5
f  74/28/3 78/47/3 87/64/3
f  87/99/2 93/108/2 78/89/2
f  73/71/4 72/57/4 86/81/4
f  72/75/5 85/98/5 94/95/5
f  72/75/5 94/95/5 86/84/5
f  86/103/6 80/121/6 79/126/6
f  82/112/5 95/127/5 88/122/5
f  96/43/4 82/13/4 88/44/4
f  88/128/6 84/116/6 74/113/6
f  87/125/6 88/128/6 74/113/6
f  89/123/1 85/120/1 81/115/1
f  83/98/2 90/117/2 89/123/2
f  97/52/2 76/108/2 91/124/2
f  84/116/6 95/11/6 91/22/6
f  98/22/4 90/19/4 76/12/4
f  92/9/3 76/8/3 98/21/3
f  98/21/4 76/8/4 92/9/4
f  76/12/4 92/11/4 98/22/4
f  99/52/5 82/112/5 92/123/5
f  100/23/4 92/11/4 82/13/4
f  101/129/6 87/125/6 86/103/6
f  85/60/4 78/39/4 94/57/4
f  94/57/3 78/39/3 85/60/3
f  78/47/3 85/58/3 94/56/3
f  87/106/5 93/112/5 96/122/5
f  93/108/2 87/99/2 96/117/2
f  78/125/6 102/130/6 93/131/6
f  103/91/3 94/56/3 85/58/3
f  86/84/5 94/95/5 101/106/5
f  82/112/5 99/52/5 95/127/5
f  95/11/6 84/116/6 88/128/6
f  82/13/4 96/43/4 93/39/4
f  88/128/6 87/125/6 96/131/6
f  89/123/1 103/132/1 85/120/1
f  90/19/4 98/22/4 89/52/4
f  76/108/2 97/52/2 98/123/2
f  91/34/4 99/11/4 97/22/4
f  99/11/4 91/34/4 95/44/4
f  98/119/1 99/9/1 92/118/1
f  92/118/1 89/123/1 98/119/1
f  104/133/1 92/118/1 100/134/1
f  82/13/4 93/39/4 100/23/4
f  101/129/6 96/131/6 87/125/6
f  102/130/6 78/125/6 94/129/6
f  105/124/2 93/108/2 96/117/2
f  93/47/3 104/58/3 102/56/3
f  102/56/4 104/58/4 93/47/4
f  104/60/4 93/39/4 102/57/4
f  94/56/3 103/91/3 101/87/3
f  101/99/2 102/108/2 94/89/2
f  102/112/5 101/106/5 94/95/5
f  89/123/1 106/135/1 103/132/1
f  99/9/1 98/119/1 97/21/1
f  89/123/1 92/118/1 106/135/1
f  92/118/1 104/133/1 106/135/1
f  100/134/1 107/58/1 104/133/1
f  104/58/3 93/47/3 100/27/3
f  100/27/4 93/47/4 104/58/4
f  93/39/4 104/60/4 100/23/4
f  93/108/2 108/52/2 100/123/2
f  109/130/6 96/131/6 101/129/6
f  108/52/2 93/108/2 105/124/2
f  96/131/6 110/60/6 105/23/6
f  102/57/4 106/71/4 104/60/4
f  107/52/5 102/112/5 104/123/5
f  101/87/3 103/91/3 111/101/3
f  102/108/2 101/99/2 109/117/2
f  101/106/5 102/112/5 109/122/5
f  112/122/5 103/98/5 106/123/5
f  107/58/1 100/134/1 108/27/1
f  110/60/6 96/131/6 109/130/6
f  111/136/6 109/130/6 101/129/6
f  105/43/4 107/60/4 108/23/4
f  107/60/4 105/43/4 110/81/4
f  106/71/4 102/57/4 109/81/4
f  102/112/5 107/52/5 110/127/5
f  103/98/5 112/122/5 111/106/5
f  102/112/5 110/127/5 109/122/5
f  106/71/4 109/81/4 112/90/4
f  109/130/6 111/136/6 112/137/6

# Mesh 'mesh1_mesh1-geometry' with 308 faces
g mesh1_mesh1-geometry
usemtl material_1_24
f  3//6 2//6 1//6
f  4//6 1//6 2//6
f  2//5 3//5 5//5
f  2//5 3//5 5//5
f  1//3 3//3 6//3
f  4//2 7//2 1//2
f  4//2 7//2 1//2
f  4//4 8//4 2//4
f  9//5 5//5 3//5
f  9//5 5//5 3//5
f  5//5 10//5 2//5
f  5//4 2//4 11//4
f  12//3 6//3 3//3
f  6//3 13//3 1//3
f  6//2 1//2 14//2
f  15//2 1//2 7//2
f  15//2 1//2 7//2
f  7//4 16//4 4//4
f  7//2 4//2 17//2
f  18//4 2//4 8//4
f  8//4 4//4 16//4
f  4//2 8//2 17//2
f  5//1 11//1 9//1
f  5//1 9//1 7//1
f  9//3 19//3 3//3
f  9//5 3//5 20//5
f  2//5 10//5 18//5
f  10//1 5//1 17//1
f  2//4 18//4 11//4
f  3//3 19//3 12//3
f  12//5 21//5 3//5
f  6//6 14//6 12//6
f  12//6 22//6 6//6
f  23//3 1//3 13//3
f  13//6 6//6 24//6
f  25//2 14//2 1//2
f  15//3 1//3 26//3
f  15//2 25//2 1//2
f  7//1 9//1 15//1
f  7//1 15//1 27//1
f  28//4 16//4 7//4
f  17//1 5//1 7//1
f  18//6 29//6 8//6
f  16//6 18//6 8//6
f  30//2 17//2 8//2
f  19//1 9//1 11//1
f  20//5 3//5 21//5
f  31//5 9//5 20//5
f  29//5 18//5 10//5
f  17//4 30//4 10//4
f  32//4 11//4 18//4
f  22//3 12//3 19//3
f  21//6 12//6 14//6
f  33//6 6//6 22//6
f  23//3 26//3 1//3
f  13//5 34//5 23//5
f  23//3 13//3 35//3
f  33//6 24//6 6//6
f  24//6 36//6 13//6
f  24//3 35//3 13//3
f  14//4 25//4 34//4
f  25//4 14//4 20//4
f  26//1 27//1 15//1
f  37//2 25//2 15//2
f  9//1 31//1 15//1
f  28//4 7//4 27//4
f  28//4 38//4 16//4
f  28//5 39//5 16//5
f  30//6 8//6 29//6
f  16//6 22//6 18//6
f  11//5 32//5 19//5
f  20//4 21//4 40//4
f  21//4 20//4 14//4
f  31//4 20//4 40//4
f  20//5 41//5 31//5
f  20//5 41//5 31//5
f  29//4 10//4 30//4
f  32//6 18//6 22//6
f  22//5 19//5 32//5
f  34//6 21//6 14//6
f  42//6 33//6 22//6
f  26//5 23//5 43//5
f  26//2 23//2 27//2
f  26//5 27//5 23//5
f  43//5 23//5 34//5
f  34//6 13//6 36//6
f  24//3 33//3 35//3
f  24//2 35//2 36//2
f  37//4 34//4 25//4
f  27//1 26//1 45//1
f  25//2 37//2 44//2
f  25//2 37//2 44//2
f  15//1 31//1 37//1
f  28//2 27//2 23//2
f  28//5 23//5 27//5
f  27//5 39//5 28//5
f  46//4 16//4 38//4
f  47//5 16//5 39//5
f  16//6 46//6 22//6
f  48//4 40//4 21//4
f  31//1 40//1 49//1
f  49//5 31//5 41//5
f  49//5 31//5 41//5
f  34//6 50//6 21//6
f  33//2 42//2 51//2
f  46//6 42//6 22//6
f  52//5 26//5 43//5
f  43//4 34//4 37//4
f  34//4 43//4 36//4
f  34//6 36//6 50//6
f  38//5 35//5 45//5
f  38//2 45//2 35//2
f  53//3 35//3 33//3
f  54//2 36//2 35//2
f  45//1 26//1 53//1
f  55//1 27//1 45//1
f  56//2 44//2 37//2
f  56//2 44//2 37//2
f  31//1 49//1 37//1
f  39//1 27//1 55//1
f  38//2 46//2 55//2
f  38//4 45//4 46//4
f  16//6 47//6 46//6
f  47//4 39//4 57//4
f  40//5 48//5 58//5
f  48//6 21//6 50//6
f  58//1 49//1 40//1
f  49//5 41//5 59//5
f  49//3 58//3 41//3
f  44//3 41//3 60//3
f  61//2 51//2 42//2
f  51//3 53//3 33//3
f  42//4 46//4 45//4
f  26//1 52//1 53//1
f  43//2 52//2 62//2
f  52//4 43//4 37//4
f  43//5 62//5 52//5
f  54//4 36//4 43//4
f  36//6 63//6 50//6
f  53//5 45//5 35//5
f  53//2 35//2 45//2
f  45//2 38//2 55//2
f  53//2 54//2 35//2
f  36//4 54//4 63//4
f  45//1 53//1 61//1
f  56//2 64//2 44//2
f  56//3 44//3 65//3
f  37//1 49//1 56//1
f  37//1 56//1 52//1
f  55//4 57//4 39//4
f  57//2 55//2 46//2
f  57//6 46//6 47//6
f  50//5 58//5 48//5
f  59//5 41//5 66//5
f  67//5 49//5 59//5
f  41//3 58//3 68//3
f  68//3 60//3 41//3
f  60//2 44//2 69//2
f  44//3 60//3 70//3
f  51//1 61//1 53//1
f  61//4 42//4 45//4
f  53//1 52//1 71//1
f  65//2 62//2 52//2
f  65//5 52//5 62//5
f  62//1 72//1 43//1
f  54//1 43//1 72//1
f  63//6 73//6 50//6
f  71//2 54//2 53//2
f  71//4 63//4 54//4
f  64//2 69//2 44//2
f  74//2 64//2 56//2
f  62//3 65//3 44//3
f  65//1 52//1 56//1
f  49//1 67//1 56//1
f  50//3 68//3 58//3
f  68//5 66//5 41//5
f  66//4 59//4 69//4
f  59//4 66//4 75//4
f  67//4 59//4 75//4
f  59//5 76//5 67//5
f  59//5 76//5 67//5
f  60//6 69//6 68//6
f  68//6 50//6 60//6
f  70//6 60//6 77//6
f  70//3 62//3 44//3
f  52//1 65//1 71//1
f  65//5 62//5 78//5
f  72//3 62//3 77//3
f  54//5 72//5 71//5
f  54//2 71//2 72//2
f  73//6 60//6 50//6
f  73//2 63//2 79//2
f  80//4 63//4 71//4
f  64//4 69//4 59//4
f  69//4 64//4 81//4
f  64//2 74//2 82//2
f  74//4 81//4 64//4
f  64//2 74//2 82//2
f  56//1 67//1 74//1
f  66//6 68//6 69//6
f  81//6 66//6 69//6
f  83//4 75//4 66//4
f  67//1 75//1 84//1
f  84//5 67//5 76//5
f  84//5 67//5 76//5
f  76//6 59//6 82//6
f  73//6 77//6 60//6
f  77//6 85//6 70//6
f  70//3 77//3 62//3
f  70//5 81//5 62//5
f  71//1 65//1 86//1
f  78//5 62//5 81//5
f  87//5 65//5 78//5
f  77//3 73//3 72//3
f  77//2 72//2 85//2
f  86//5 71//5 72//5
f  86//2 72//2 71//2
f  80//2 79//2 63//2
f  79//3 86//3 73//3
f  71//1 86//1 80//1
f  64//6 82//6 59//6
f  88//2 82//2 74//2
f  88//2 82//2 74//2
f  78//4 81//4 74//4
f  67//1 84//1 74//1
f  81//6 89//6 66//6
f  75//5 83//5 90//5
f  83//6 66//6 89//6
f  90//1 84//1 75//1
f  84//5 76//5 91//5
f  84//3 90//3 76//3
f  82//3 76//3 92//3
f  81//6 70//6 85//6
f  65//1 87//1 86//1
f  81//4 78//4 85//4
f  78//2 87//2 93//2
f  87//4 78//4 74//4
f  78//5 93//5 87//5
f  86//3 72//3 73//3
f  94//2 85//2 72//2
f  86//2 94//2 72//2
f  79//1 80//1 86//1
f  88//2 95//2 82//2
f  88//3 82//3 96//3
f  74//1 84//1 88//1
f  74//1 88//1 87//1
f  81//6 85//6 89//6
f  89//5 90//5 83//5
f  91//5 76//5 97//5
f  91//1 95//1 84//1
f  76//3 90//3 98//3
f  98//3 92//3 76//3
f  92//2 82//2 99//2
f  82//3 92//3 100//3
f  86//1 87//1 101//1
f  94//4 85//4 78//4
f  96//2 93//2 87//2
f  96//5 87//5 93//5
f  93//1 102//1 78//1
f  85//4 94//4 103//4
f  101//2 94//2 86//2
f  95//2 99//2 82//2
f  88//1 84//1 95//1
f  93//3 96//3 82//3
f  96//1 87//1 88//1
f  85//6 103//6 89//6
f  89//3 98//3 90//3
f  98//5 97//5 76//5
f  97//3 99//3 91//3
f  95//3 91//3 99//3
f  92//6 99//6 98//6
f  98//6 89//6 92//6
f  100//6 92//6 104//6
f  100//3 93//3 82//3
f  87//1 96//1 101//1
f  94//1 78//1 102//1
f  96//5 93//5 105//5
f  102//3 93//3 104//3
f  101//4 103//4 94//4
f  94//5 102//5 101//5
f  94//2 101//2 102//2
f  103//6 106//6 89//6
f  97//6 98//6 99//6
f  106//6 92//6 89//6
f  106//6 104//6 92//6
f  104//6 107//6 100//6
f  100//3 104//3 93//3
f  100//5 108//5 93//5
f  101//1 96//1 109//1
f  105//5 93//5 108//5
f  105//1 110//1 96//1
f  104//3 106//3 102//3
f  104//2 102//2 107//2
f  111//4 103//4 101//4
f  109//5 101//5 102//5
f  109//2 102//2 101//2
f  106//2 103//2 112//2
f  108//6 100//6 107//6
f  109//1 96//1 110//1
f  101//1 109//1 111//1
f  108//3 107//3 105//3
f  110//3 105//3 107//3
f  109//3 102//3 106//3
f  110//2 107//2 102//2
f  111//2 112//2 103//2
f  109//2 110//2 102//2
f  112//3 109//3 106//3
f  112//1 111//1 109//1

