# File produced by Open Asset Import Library (http://www.assimp.sf.net)
# (assimp v3.2.202087883)

mtllib model_normalized.mtl

# 87 vertex positions
v -0.089174 0.060612 0.118701
v -0.089174 0.049443 0.100831
v -0.089174 0.060612 0.100831
v -0.089174 0.049443 0.118701
v -0.089174 0.046092 0.098597
v -0.089174 0.063962 0.120935
v -0.089174 0.046092 0.120935
v -0.089174 0.063962 0.098597
v -0.091408 0.046092 0.120935
v -0.091408 0.063962 0.098597
v -0.091408 0.046092 0.098597
v -0.091408 0.063962 0.120935
v -0.091408 0.055027 0.120935
v 0.085065 0.060612 0.100831
v 0.085065 0.049443 0.100831
v 0.085065 0.060612 0.118701
v 0.085065 0.049443 0.118701
v 0.085065 0.046092 0.098597
v 0.085065 0.063962 0.120935
v 0.085065 0.063962 0.098597
v 0.085065 0.046092 0.120935
v 0.087299 0.063962 0.098597
v 0.087299 0.046092 0.120935
v 0.087299 0.046092 0.098597
v 0.087299 0.063962 0.120935
v 0.087299 0.055027 0.120935
v 0.087299 -0.064088 0.221458
v 0.087299 -0.101341 0.266135
v 0.087299 -0.064088 0.266135
v 0.087299 -0.101341 0.132104
v -0.091408 -0.064088 0.266135
v 0.087299 -0.036414 0.221458
v -0.091408 -0.101341 0.132104
v -0.091408 -0.101341 0.266135
v -0.091408 -0.064088 0.221458
v -0.091408 -0.036414 0.221458
v 0.087299 -0.036414 0.176781
v -0.091408 0.001370 0.132104
v 0.087299 0.001370 0.176781
v 0.087299 0.001370 0.132104
v -0.091408 -0.036414 0.176781
v -0.314791 -0.101341 0.132104
v -0.091408 0.001370 0.176781
v 0.310683 0.077366 0.132104
v 0.310683 -0.101341 0.132104
v 0.310683 -0.101341 -0.493369
v -0.091408 0.032689 0.132104
v -0.314791 0.077366 0.132104
v -0.314791 0.077366 -0.493369
v -0.314791 -0.101341 -0.493369
v 0.310683 0.077366 -0.493369
v 0.087299 0.032689 0.132104
v 0.266006 0.077366 -0.448693
v 0.087299 0.077366 0.132104
v -0.091408 0.077366 0.132104
v 0.087299 0.032689 0.087428
v -0.270114 0.077366 -0.448693
v 0.266006 0.077366 0.087428
v 0.087299 0.077366 0.087428
v -0.270114 0.077366 0.087428
v -0.091408 0.032689 0.087428
v 0.266006 0.010350 -0.448693
v -0.270114 0.010350 -0.448693
v -0.091408 0.077366 0.087428
v 0.266006 0.010350 0.087428
v -0.270114 0.010350 0.087428
v 0.266006 -0.011988 -0.448693
v -0.270114 -0.011988 -0.448693
v 0.266006 -0.011988 0.087428
v -0.270114 -0.011988 0.087428
v 0.176653 -0.011988 -0.359339
v 0.266006 -0.090172 -0.448693
v -0.180761 -0.011988 -0.359339
v -0.270114 -0.090172 -0.448693
v -0.180761 -0.011988 -0.017563
v 0.266006 -0.090172 0.087428
v 0.176653 -0.011988 -0.017563
v -0.270114 -0.090172 0.087428
v -0.180761 -0.090172 -0.359339
v 0.176653 -0.090172 -0.359339
v 0.176653 -0.090172 -0.017563
v -0.180761 -0.090172 -0.017563
v -0.180761 -0.101341 -0.359339
v 0.266006 -0.101341 0.087428
v 0.176653 -0.101341 -0.359339
v -0.270114 -0.101341 -0.448693
v 0.176653 -0.101341 -0.017563

# 112 UV coordinates
vt 3.83853 0.166098 0
vt 3.90415 0.029312 0
vt 3.90415 0.166098 0
vt 3.7073 0.029312 0
vt 3.91716 0.029312 0
vt 4.17963 0.166098 0
vt 3.91716 0.166098 0
vt 3.90415 0.854795 0
vt 3.83853 0.198627 0
vt 3.90415 0.198627 0
vt 3.83853 0.267709 0
vt 3.7073 -0.003217 0
vt 3.90415 -0.003217 0
vt 3.7073 -0.659384 0
vt 4.17963 0.029312 0
vt 3.83853 0.854795 0
vt 3.85155 0.166098 0
vt 4.11401 0.267709 0
vt 3.85155 0.267709 0
vt 3.77292 0.267709 0
vt 3.90415 -0.659384 0
vt 3.43182 0.029312 0
vt 3.43182 0.406442 0
vt 3.69429 0.029312 0
vt 4.38949 0.029312 0
vt 4.19264 0.166098 0
vt 4.19264 0.029312 0
vt 4.25826 0.166098 0
vt 4.11401 0.166098 0
vt 3.83853 0.956406 0
vt 3.77292 0.300238 0
vt 3.83853 0.300238 0
vt 3.77292 0.406442 0
vt 3.69429 0.406442 0
vt 4.32387 0.267709 0
vt 4.38949 0.406442 0
vt 3.65111 0.406442 0
vt 3.32302 0.029312 0
vt 3.65111 0.029312 0
vt 4.25826 0.267709 0
vt 3.77292 0.956406 0
vt 3.78593 0.267709 0
vt 4.0484 0.406442 0
vt 3.78593 0.406442 0
vt 3.7073 0.406442 0
vt 4.24166 0.68548 0
vt 3.91357 0.029312 0
vt 4.24166 0.029312 0
vt 1.48575 0.029312 0
vt 0.567117 0.68548 0
vt 0.567117 0.029312 0
vt 3.91357 0.406442 0
vt 3.77292 0.438971 0
vt 3.7073 1.09514 0
vt 3.7073 0.438971 0
vt 3.65111 0.521438 0
vt 4.32387 0.406442 0
vt 3.32302 0.68548 0
vt 4.0484 0.267709 0
vt 3.77292 1.09514 0
vt 2.40439 0.68548 0
vt 2.40439 0.029312 0
vt 1.48575 0.68548 0
vt 3.91357 0.521438 0
vt 2.47 0.68548 0
vt 3.32302 0.849522 0
vt 2.40439 0.849522 0
vt 3.91357 0.68548 0
vt 3.65111 0.68548 0
vt 2.58019 0.521438 0
vt 2.84265 0.68548 0
vt 2.58019 0.68548 0
vt 2.40439 -1.44706 0
vt 2.47 -1.28302 0
vt 3.32302 -1.44706 0
vt 3.25741 0.68548 0
vt 3.25741 0.029312 0
vt 3.32302 0.521438 0
vt 2.76063 0.636268 0
vt 2.74423 0.68548 0
vt 2.74423 0.521438 0
vt 3.32302 -0.626855 0
vt 3.25741 -1.28302 0
vt 2.84265 0.521438 0
vt 3.25741 0.521438 0
vt 2.47 0.439417 0
vt 1.6826 0.439417 0
vt 1.6826 0.68548 0
vt 2.80984 0.68548 0
vt 2.76063 0.570651 0
vt 3.25741 -0.626855 0
vt 2.31772 0.439417 0
vt 2.80984 0.521438 0
vt 2.31772 0.68548 0
vt 3.10512 0.68548 0
vt 3.89252 0.439417 0
vt 3.89252 0.68548 0
vt 3.25741 0.439417 0
vt 2.79344 0.636268 0
vt 3.10512 0.439417 0
vt 2.79344 0.570651 0
vt 2.47 0.357396 0
vt 1.6826 0.357396 0
vt 2.31772 0.357396 0
vt 3.89252 0.357396 0
vt 3.25741 0.357396 0
vt 3.10512 0.357396 0
vt 0 0 0
vt -1.18666 -2.96499 0
vt -0.32969 -4.06185 0
vt -0.20974 -3.08494 0
vt -1.3066 -3.94191 0

# 6 vertex normals
vn 1 0 0
vn -1 0 0
vn 0 1 0
vn 0 0 1
vn 0 -1 -0
vn 0 -0 -1

# Mesh 'mesh1_mesh1-geometry' with 2 faces
g mesh1_mesh1-geometry
usemtl material_0_24
f  1//1 2//1 3//1
f  2//1 1//1 4//1

# Mesh 'mesh1_mesh1-geometry' with 19 faces
g mesh1_mesh1-geometry
usemtl material_1_24
f  3//2 2//2 1//2
f  4//2 1//2 2//2
f  3//2 5//2 2//2
f  1//2 6//2 3//2
f  4//2 6//2 1//2
f  4//2 2//2 7//2
f  7//2 2//2 5//2
f  5//2 3//2 8//2
f  6//2 8//2 3//2
f  6//2 4//2 7//2
f  7//3 5//3 9//3
f  8//4 10//4 5//4
f  8//5 6//5 10//5
f  7//6 9//6 6//6
f  11//3 9//3 5//3
f  11//4 5//4 10//4
f  12//5 10//5 6//5
f  13//6 6//6 9//6
f  12//6 6//6 13//6

# Mesh 'mesh1_mesh1-geometry' with 17 faces
g mesh1_mesh1-geometry
usemtl material_2_24
f  2//1 5//1 3//1
f  3//1 6//1 1//1
f  1//1 6//1 4//1
f  7//1 2//1 4//1
f  5//1 2//1 7//1
f  8//1 3//1 5//1
f  3//1 8//1 6//1
f  7//1 4//1 6//1
f  9//5 5//5 7//5
f  5//6 10//6 8//6
f  10//3 6//3 8//3
f  6//4 9//4 7//4
f  5//5 9//5 11//5
f  10//6 5//6 11//6
f  6//3 10//3 12//3
f  9//4 6//4 13//4
f  13//4 6//4 12//4

# Mesh 'mesh2_mesh2-geometry' with 2 faces
g mesh2_mesh2-geometry
usemtl material_0_24
f  14//2 15//2 16//2
f  17//2 16//2 15//2

# Mesh 'mesh2_mesh2-geometry' with 19 faces
g mesh2_mesh2-geometry
usemtl material_1_24
f  16//1 15//1 14//1
f  15//1 18//1 14//1
f  15//1 16//1 17//1
f  14//1 19//1 16//1
f  20//1 14//1 18//1
f  18//1 15//1 21//1
f  16//1 19//1 17//1
f  21//1 15//1 17//1
f  14//1 20//1 19//1
f  18//4 22//4 20//4
f  23//3 18//3 21//3
f  21//1 17//1 19//1
f  22//5 19//5 20//5
f  22//4 18//4 24//4
f  18//3 23//3 24//3
f  19//6 23//6 21//6
f  19//5 22//5 25//5
f  23//6 19//6 26//6
f  26//6 19//6 25//6

# Mesh 'mesh2_mesh2-geometry' with 17 faces
g mesh2_mesh2-geometry
usemtl material_2_24
f  14//2 18//2 15//2
f  16//2 19//2 14//2
f  18//2 14//2 20//2
f  21//2 15//2 18//2
f  17//2 19//2 16//2
f  17//2 15//2 21//2
f  19//2 20//2 14//2
f  20//6 22//6 18//6
f  21//5 18//5 23//5
f  19//2 17//2 21//2
f  20//3 19//3 22//3
f  24//6 18//6 22//6
f  24//5 23//5 18//5
f  21//4 23//4 19//4
f  25//3 22//3 19//3
f  26//4 19//4 23//4
f  25//4 19//4 26//4

# Mesh 'mesh3_mesh3-geometry' with 110 faces
g mesh3_mesh3-geometry
usemtl material_3_1_8
f  27/1/2 28/2/2 29/3/2
f  28/2/2 27/1/2 30/4/2
f  29/3/1 28/2/1 27/1/1
f  30/4/1 27/1/1 28/2/1
f  28/5/6 31/6/6 29/7/6
f  29/7/4 31/6/4 28/5/4
f  31/8/5 27/9/5 29/10/5
f  29/10/3 27/9/3 31/8/3
f  30/4/2 27/1/2 32/11/2
f  32/11/1 27/1/1 30/4/1
f  30/12/5 28/13/5 33/14/5
f  31/6/6 28/5/6 34/15/6
f  34/15/4 28/5/4 31/6/4
f  27/9/5 31/8/5 35/16/5
f  35/16/3 31/8/3 27/9/3
f  27/17/6 36/18/6 32/19/6
f  32/19/4 36/18/4 27/17/4
f  30/4/2 32/11/2 37/20/2
f  37/20/1 32/11/1 30/4/1
f  34/21/5 33/14/5 28/13/5
f  33/22/6 38/23/6 30/24/6
f  33/25/1 31/26/1 34/27/1
f  34/27/2 31/26/2 33/25/2
f  31/26/1 33/25/1 35/28/1
f  35/28/2 33/25/2 31/26/2
f  36/18/6 27/17/6 35/29/6
f  35/29/4 27/17/4 36/18/4
f  36/30/5 37/31/5 32/32/5
f  32/32/3 37/31/3 36/30/3
f  30/4/2 37/20/2 39/33/2
f  39/33/1 37/20/1 30/4/1
f  40/34/6 30/24/6 38/23/6
f  41/35/1 33/25/1 38/36/1
f  38/36/2 33/25/2 41/35/2
f  38/37/4 42/38/4 33/39/4
f  35/28/1 33/25/1 36/40/1
f  36/40/2 33/25/2 35/28/2
f  37/31/5 36/30/5 41/41/5
f  41/41/3 36/30/3 37/31/3
f  37/42/6 43/43/6 39/44/6
f  39/44/4 43/43/4 37/42/4
f  30/4/2 39/33/2 40/45/2
f  40/45/1 39/33/1 30/4/1
f  44/46/4 30/47/4 45/48/4
f  46/49/1 44/50/1 45/51/1
f  30/47/4 44/46/4 40/52/4
f  39/53/5 38/54/5 40/55/5
f  40/55/3 38/54/3 39/53/3
f  47/56/4 38/37/4 40/52/4
f  36/40/1 33/25/1 41/35/1
f  41/35/2 33/25/2 36/40/2
f  38/36/1 43/57/1 41/35/1
f  41/35/2 43/57/2 38/36/2
f  42/38/4 38/37/4 48/58/4
f  43/43/6 37/42/6 41/59/6
f  41/59/4 37/42/4 43/43/4
f  38/54/5 39/53/5 43/60/5
f  43/60/3 39/53/3 38/54/3
f  49/61/6 46/49/6 50/62/6
f  48/58/2 50/62/2 42/38/2
f  44/50/1 46/49/1 51/63/1
f  40/52/4 44/46/4 52/64/4
f  48/58/4 38/37/4 47/56/4
f  47/56/4 40/52/4 52/64/4
f  46/49/6 49/61/6 51/63/6
f  50/62/2 48/58/2 49/61/2
f  53/65/3 44/66/3 51/67/3
f  52/64/4 44/46/4 54/68/4
f  48/58/4 47/56/4 55/69/4
f  56/70/3 47/71/3 52/72/3
f  49/73/3 57/74/3 51/67/3
f  57/74/3 49/73/3 48/75/3
f  58/76/3 44/66/3 53/65/3
f  51/67/3 57/74/3 53/65/3
f  44/66/3 59/77/3 54/38/3
f  59/76/2 52/78/2 54/58/2
f  12/79/1 55/80/1 47/81/1
f  55/82/3 60/83/3 48/75/3
f  47/71/3 56/70/3 61/84/3
f  52/78/2 59/76/2 56/85/2
f  57/74/3 48/75/3 60/83/3
f  59/77/3 44/66/3 58/76/3
f  62/86/2 58/76/2 53/65/2
f  63/87/4 53/65/4 57/88/4
f  55/80/1 12/79/1 64/89/1
f  12/79/1 47/81/1 9/90/1
f  60/83/3 55/82/3 64/91/3
f  65/92/6 61/84/6 56/70/6
f  61/93/1 9/90/1 47/81/1
f  58/94/6 56/70/6 59/72/6
f  60/95/1 63/96/1 57/97/1
f  58/76/2 62/86/2 65/98/2
f  53/65/4 63/87/4 62/86/4
f  64/89/1 12/79/1 10/99/1
f  61/84/6 60/95/6 64/71/6
f  66/100/6 61/84/6 65/92/6
f  56/70/6 58/94/6 65/92/6
f  9/90/1 61/93/1 11/101/1
f  63/96/1 60/95/1 66/100/1
f  67/102/2 65/98/2 62/86/2
f  68/103/4 62/86/4 63/87/4
f  10/99/1 61/93/1 64/89/1
f  61/84/6 66/100/6 60/95/6
f  69/104/6 66/100/6 65/92/6
f  11/101/1 61/93/1 10/99/1
f  66/100/1 68/105/1 63/96/1
f  65/98/2 67/102/2 69/106/2
f  62/86/4 68/103/4 67/102/4
f  66/100/6 69/104/6 70/107/6
f  68/105/1 66/100/1 70/107/1

# Mesh 'mesh3_mesh3-geometry' with 18 faces
g mesh3_mesh3-geometry
usemtl material_1_24
f  33/108/3 28/108/3 30/108/3
f  28/108/3 33/108/3 34/108/3
f  30/108/4 38/108/4 33/108/4
f  38/108/4 30/108/4 40/108/4
f  52/108/5 47/108/5 56/108/5
f  54/108/1 52/108/1 59/108/1
f  47/108/2 55/108/2 12/108/2
f  61/108/5 56/108/5 47/108/5
f  56/108/1 59/108/1 52/108/1
f  64/108/2 12/108/2 55/108/2
f  9/108/2 47/108/2 12/108/2
f  47/108/2 9/108/2 61/108/2
f  10/108/2 12/108/2 64/108/2
f  9/108/2 12/108/2 11/108/2
f  11/108/2 61/108/2 9/108/2
f  10/108/2 11/108/2 12/108/2
f  64/108/2 61/108/2 10/108/2
f  10/108/2 61/108/2 11/108/2

# Mesh 'mesh3_mesh3-geometry' with 106 faces
g mesh3_mesh3-geometry
usemtl material_4_24
f  46/108/3 33/108/3 30/108/3
f  30/108/5 33/108/5 46/108/5
f  46/108/3 42/108/3 33/108/3
f  33/108/5 42/108/5 46/108/5
f  46/108/3 30/108/3 45/108/3
f  45/108/5 30/108/5 46/108/5
f  33/108/6 42/108/6 38/108/6
f  42/108/3 46/108/3 50/108/3
f  50/108/5 46/108/5 42/108/5
f  45/108/6 30/108/6 44/108/6
f  45/108/2 44/108/2 46/108/2
f  40/108/6 44/108/6 30/108/6
f  40/108/6 38/108/6 47/108/6
f  48/108/6 38/108/6 42/108/6
f  50/108/4 46/108/4 49/108/4
f  42/108/1 50/108/1 48/108/1
f  51/108/2 46/108/2 44/108/2
f  52/108/6 44/108/6 40/108/6
f  47/108/6 38/108/6 48/108/6
f  52/108/6 40/108/6 47/108/6
f  51/108/4 49/108/4 46/108/4
f  49/108/1 48/108/1 50/108/1
f  51/108/5 44/108/5 53/108/5
f  54/108/6 44/108/6 52/108/6
f  55/108/6 47/108/6 48/108/6
f  51/108/5 57/108/5 49/108/5
f  48/108/5 49/108/5 57/108/5
f  53/108/5 44/108/5 58/108/5
f  53/108/5 57/108/5 51/108/5
f  54/108/5 59/108/5 44/108/5
f  48/108/5 60/108/5 55/108/5
f  60/108/5 48/108/5 57/108/5
f  58/108/5 44/108/5 59/108/5
f  53/108/1 58/108/1 62/108/1
f  57/108/6 53/108/6 63/108/6
f  64/108/5 55/108/5 60/108/5
f  56/108/4 61/108/4 65/108/4
f  59/108/4 56/108/4 58/108/4
f  57/108/2 63/108/2 60/108/2
f  65/108/1 62/108/1 58/108/1
f  62/108/6 63/108/6 53/108/6
f  64/108/4 60/108/4 61/108/4
f  65/108/4 61/108/4 66/108/4
f  65/108/4 58/108/4 56/108/4
f  66/108/2 60/108/2 63/108/2
f  62/108/1 65/108/1 67/108/1
f  63/108/6 62/108/6 68/108/6
f  60/108/4 66/108/4 61/108/4
f  65/108/4 66/108/4 69/108/4
f  63/108/2 68/108/2 66/108/2
f  69/108/1 67/108/1 65/108/1
f  67/108/6 68/108/6 62/108/6
f  70/108/4 69/108/4 66/108/4
f  70/108/2 66/108/2 68/108/2
f  67/108/3 71/108/3 69/108/3
f  69/108/5 71/108/5 67/108/5
f  72/108/2 69/108/2 67/108/2
f  67/108/1 69/108/1 72/108/1
f  68/108/3 73/108/3 67/108/3
f  67/108/5 73/108/5 68/108/5
f  74/108/4 67/108/4 68/108/4
f  68/108/6 67/108/6 74/108/6
f  75/108/3 70/108/3 69/108/3
f  69/108/5 70/108/5 75/108/5
f  76/108/6 70/108/6 69/108/6
f  69/108/4 70/108/4 76/108/4
f  70/108/1 74/108/1 68/108/1
f  68/108/2 74/108/2 70/108/2
f  70/108/3 75/108/3 68/108/3
f  68/108/5 75/108/5 70/108/5
f  67/108/3 73/108/3 71/108/3
f  71/108/5 73/108/5 67/108/5
f  77/108/3 69/108/3 71/108/3
f  71/108/5 69/108/5 77/108/5
f  69/108/2 72/108/2 76/108/2
f  76/108/1 72/108/1 69/108/1
f  67/108/4 74/108/4 72/108/4
f  72/108/6 74/108/6 67/108/6
f  73/108/3 68/108/3 75/108/3
f  75/108/5 68/108/5 73/108/5
f  75/108/3 69/108/3 77/108/3
f  77/108/5 69/108/5 75/108/5
f  70/108/6 76/108/6 78/108/6
f  78/108/4 76/108/4 70/108/4
f  74/108/1 70/108/1 78/108/1
f  78/108/2 70/108/2 74/108/2
f  79/108/4 71/108/4 73/108/4
f  73/108/6 71/108/6 79/108/6
f  80/108/2 77/108/2 71/108/2
f  71/108/1 77/108/1 80/108/1
f  75/108/1 79/108/1 73/108/1
f  73/108/2 79/108/2 75/108/2
f  81/108/6 75/108/6 77/108/6
f  77/108/4 75/108/4 81/108/4
f  71/108/4 79/108/4 80/108/4
f  80/108/6 79/108/6 71/108/6
f  77/108/2 80/108/2 81/108/2
f  81/108/1 80/108/1 77/108/1
f  79/108/1 75/108/1 82/108/1
f  82/108/2 75/108/2 79/108/2
f  75/108/6 81/108/6 82/108/6
f  82/108/4 81/108/4 75/108/4
f  79/108/3 81/108/3 80/108/3
f  80/108/5 81/108/5 79/108/5
f  81/108/3 79/108/3 82/108/3
f  82/108/5 79/108/5 81/108/5

# Mesh 'mesh3_mesh3-geometry' with 2 faces
g mesh3_mesh3-geometry
usemtl material_2_24
f  11/108/1 12/108/1 9/108/1
f  12/108/1 11/108/1 10/108/1

# Mesh 'mesh3_mesh3-geometry' with 4 faces
g mesh3_mesh3-geometry
usemtl material_5_2_8
f  63/109/3 65/110/3 62/111/3
f  62/111/5 65/110/5 63/109/5
f  65/110/3 63/109/3 66/112/3
f  66/112/5 63/109/5 65/110/5

# Mesh 'mesh4_mesh4-geometry' with 1 faces
g mesh4_mesh4-geometry
usemtl material_1_0
l  83 79

# Mesh 'mesh5_mesh5-geometry' with 1 faces
g mesh5_mesh5-geometry
usemtl material_1_0
l  84 76

# Mesh 'mesh6_mesh6-geometry' with 1 faces
g mesh6_mesh6-geometry
usemtl material_1_0
l  85 80

# Mesh 'mesh7_mesh7-geometry' with 1 faces
g mesh7_mesh7-geometry
usemtl material_1_0
l  86 74

# Mesh 'mesh8_mesh8-geometry' with 1 faces
g mesh8_mesh8-geometry
usemtl material_1_0
l  87 81

