# File produced by Open Asset Import Library (http://www.assimp.sf.net)
# (assimp v3.2.202087883)

mtllib model_normalized.mtl

# 40 vertex positions
v -0.099263 -0.017175 0.168399
v 0.135132 -0.017175 -0.131889
v 0.135132 -0.017175 0.168399
v -0.099263 -0.017175 -0.131889
v 0.369525 -0.017175 -0.131889
v 0.135132 0.161268 0.168399
v -0.280466 -0.017175 0.168399
v -0.099263 -0.106320 -0.131889
v 0.369525 -0.017175 0.168399
v 0.135132 -0.106320 -0.131889
v -0.099263 0.161268 0.168399
v 0.369525 0.078851 0.168399
v -0.099263 -0.017175 -0.360350
v 0.369525 -0.106320 -0.131889
v -0.280466 0.161268 0.214307
v 0.369525 0.161268 0.168399
v -0.280466 -0.017175 -0.131889
v -0.280466 0.078877 0.168399
v -0.280466 -0.106320 0.214307
v -0.099263 -0.106320 -0.360350
v 0.369525 0.078851 -0.131889
v 0.434681 0.078851 0.168399
v 0.369525 -0.106320 0.214307
v 0.369525 -0.106320 0.168399
v 0.434681 0.078851 -0.131889
v -0.280466 0.161268 0.168399
v -0.280466 0.078877 -0.131889
v -0.282149 -0.017175 -0.360350
v -0.338731 0.078877 0.168399
v -0.280466 -0.106320 0.168399
v -0.282149 -0.106320 -0.360350
v 0.434681 -0.106320 0.168399
v 0.434681 -0.106320 -0.131889
v 0.369525 0.161268 0.214307
v -0.282149 -0.017175 -0.131889
v -0.282149 0.078877 -0.131889
v -0.338731 -0.106320 0.168399
v -0.282149 -0.106320 -0.131889
v -0.338731 0.078877 -0.131889
v -0.338731 -0.106320 -0.131889

# 0 UV coordinates

# 6 vertex normals
vn 0 -0.001 0
vn 0 0 0.001
vn -0.001 0 0
vn 0.001 0 0
vn 0 0.001 0
vn 0 0 -0.001

# Mesh 'mesh1_mesh1-geometry' with 82 faces
g mesh1_mesh1-geometry
usemtl material_0_24
f  1//1 2//1 3//1
f  2//1 1//1 4//1
f  5//1 3//1 2//1
f  6//2 1//2 3//2
f  7//1 4//1 1//1
f  8//2 2//2 4//2
f  3//1 5//1 9//1
f  10//2 5//2 2//2
f  1//2 6//2 11//2
f  3//2 12//2 6//2
f  4//1 7//1 13//1
f  11//2 7//2 1//2
f  2//2 8//2 10//2
f  13//3 8//3 4//3
f  5//4 12//4 9//4
f  12//2 3//2 9//2
f  5//2 10//2 14//2
f  6//1 15//1 11//1
f  6//2 12//2 16//2
f  13//1 7//1 17//1
f  7//2 11//2 18//2
f  19//5 10//5 8//5
f  8//3 13//3 20//3
f  12//4 5//4 21//4
f  22//6 9//6 12//6
f  9//3 23//3 12//3
f  24//5 14//5 10//5
f  14//2 25//2 5//2
f  16//1 15//1 6//1
f  11//1 15//1 26//1
f  12//3 23//3 16//3
f  7//3 27//3 17//3
f  13//1 17//1 28//1
f  18//2 11//2 26//2
f  18//4 15//4 7//4
f  7//6 29//6 18//6
f  27//3 7//3 18//3
f  23//5 10//5 19//5
f  19//5 8//5 30//5
f  13//2 31//2 20//2
f  31//5 8//5 20//5
f  5//2 25//2 21//2
f  25//1 12//1 21//1
f  32//6 9//6 22//6
f  12//1 25//1 22//1
f  23//3 9//3 24//3
f  32//5 14//5 24//5
f  24//5 10//5 23//5
f  25//2 14//2 33//2
f  15//1 16//1 34//1
f  15//4 18//4 26//4
f  16//3 23//3 34//3
f  27//2 35//2 17//2
f  17//6 35//6 27//6
f  28//1 17//1 35//1
f  31//2 13//2 28//2
f  7//4 15//4 30//4
f  30//6 29//6 7//6
f  29//1 27//1 18//1
f  15//6 23//6 19//6
f  8//5 31//5 30//5
f  30//4 15//4 19//4
f  9//6 32//6 24//6
f  25//3 32//3 22//3
f  14//5 32//5 33//5
f  32//3 25//3 33//3
f  23//6 15//6 34//6
f  35//2 27//2 36//2
f  36//6 27//6 35//6
f  35//4 31//4 28//4
f  29//6 30//6 37//6
f  27//1 29//1 36//1
f  30//5 31//5 38//5
f  39//2 35//2 36//2
f  31//4 35//4 38//4
f  30//5 38//5 37//5
f  40//4 29//4 37//4
f  36//1 29//1 39//1
f  40//2 35//2 39//2
f  35//2 40//2 38//2
f  37//5 38//5 40//5
f  29//4 40//4 39//4

# Mesh 'mesh1_mesh1-geometry' with 78 faces
g mesh1_mesh1-geometry
usemtl material_1_24
f  3//5 2//5 1//5
f  4//5 1//5 2//5
f  2//5 3//5 5//5
f  3//6 1//6 6//6
f  1//5 4//5 7//5
f  4//6 2//6 8//6
f  9//5 5//5 3//5
f  2//6 5//6 10//6
f  11//6 6//6 1//6
f  6//6 12//6 3//6
f  13//5 7//5 4//5
f  1//6 7//6 11//6
f  10//6 8//6 2//6
f  4//4 8//4 13//4
f  9//3 12//3 5//3
f  9//6 3//6 12//6
f  14//6 10//6 5//6
f  11//5 15//5 6//5
f  16//6 12//6 6//6
f  17//5 7//5 13//5
f  18//6 11//6 7//6
f  8//1 10//1 19//1
f  20//4 13//4 8//4
f  21//3 5//3 12//3
f  12//2 9//2 22//2
f  12//4 23//4 9//4
f  10//1 14//1 24//1
f  5//6 25//6 14//6
f  6//5 15//5 16//5
f  26//5 15//5 11//5
f  16//4 23//4 12//4
f  17//4 27//4 7//4
f  28//5 17//5 13//5
f  26//6 11//6 18//6
f  7//3 15//3 18//3
f  18//2 29//2 7//2
f  18//4 7//4 27//4
f  19//1 10//1 23//1
f  30//1 8//1 19//1
f  20//6 31//6 13//6
f  20//1 8//1 31//1
f  21//6 25//6 5//6
f  21//5 12//5 25//5
f  22//2 9//2 32//2
f  22//5 25//5 12//5
f  24//4 9//4 23//4
f  24//1 14//1 32//1
f  23//1 10//1 24//1
f  33//6 14//6 25//6
f  34//5 16//5 15//5
f  26//3 18//3 15//3
f  34//4 23//4 16//4
f  35//5 17//5 28//5
f  28//6 13//6 31//6
f  30//3 15//3 7//3
f  7//2 29//2 30//2
f  18//5 27//5 29//5
f  19//2 23//2 15//2
f  30//1 31//1 8//1
f  19//3 15//3 30//3
f  24//2 32//2 9//2
f  22//4 32//4 25//4
f  33//1 32//1 14//1
f  33//4 25//4 32//4
f  34//2 15//2 23//2
f  28//3 31//3 35//3
f  37//2 30//2 29//2
f  36//5 29//5 27//5
f  38//1 31//1 30//1
f  36//6 35//6 39//6
f  38//3 35//3 31//3
f  37//1 38//1 30//1
f  37//3 29//3 40//3
f  39//5 29//5 36//5
f  39//6 35//6 40//6
f  38//6 40//6 35//6
f  40//1 38//1 37//1
f  39//3 40//3 29//3

# Mesh 'mesh2_mesh2-geometry' with 4 faces
g mesh2_mesh2-geometry
usemtl material_0_0
l  35 36
l  17 35
l  27 36
l  17 27

