# File produced by Open Asset Import Library (http://www.assimp.sf.net)
# (assimp v3.2.202087883)

mtllib model_normalized.mtl

# 136 vertex positions
v 0.090888 -0.326919 -0.245822
v 0.248685 -0.326919 -0.363737
v 0.248685 -0.326919 -0.245822
v 0.169786 -0.326919 -0.363737
v 0.248685 -0.165190 -0.245822
v 0.090888 -0.326919 -0.363737
v 0.090888 -0.165190 -0.245822
v 0.090888 -0.163402 -0.363737
v 0.090888 -0.165190 0.063467
v 0.090888 -0.163402 -0.245822
v 0.248685 -0.165190 -0.205520
v -0.050746 -0.165190 0.190415
v -0.106459 -0.163402 -0.245822
v 0.147987 -0.028529 -0.363737
v 0.198336 -0.028529 -0.138197
v 0.248685 -0.028529 -0.363737
v 0.075261 -0.028529 -0.363737
v 0.248685 -0.165190 -0.026573
v 0.090888 -0.165190 0.190415
v -0.106459 -0.165190 -0.245822
v -0.007786 -0.163402 -0.363737
v 0.173161 -0.028529 -0.250967
v 0.248685 -0.165190 0.063467
v 0.090888 -0.326919 0.190415
v -0.106459 -0.165190 0.190415
v -0.106459 -0.163402 -0.363737
v 0.248685 -0.326919 0.063467
v 0.090888 -0.326919 0.063467
v -0.106459 -0.165190 0.063467
v -0.266900 -0.326919 -0.245822
v -0.106459 -0.326919 -0.245822
v 0.248685 -0.326919 0.111266
v 0.248685 -0.326919 0.190415
v -0.266900 -0.165190 0.063467
v -0.106459 -0.326919 -0.363737
v -0.266900 -0.165190 -0.245822
v 0.248685 -0.241398 0.190415
v -0.106459 -0.326919 0.063467
v -0.266900 -0.326919 -0.363737
v -0.186680 -0.177724 -0.363737
v -0.266900 -0.177724 -0.363737
v -0.266900 -0.028529 -0.363737
v 0.079676 -0.028529 0.087343
v 0.101402 0.038527 0.087343
v 0.168458 -0.028529 0.087343
v -0.009108 0.149037 0.087343
v -0.009108 -0.028529 0.087343
v 0.248685 -0.170523 0.111266
v 0.248685 0.258938 0.190415
v 0.079515 0.123949 0.190415
v 0.124651 0.012180 0.190415
v -0.266900 -0.326919 0.190415
v -0.106459 -0.326919 0.190415
v -0.266900 -0.326919 0.063467
v -0.266900 -0.165190 -0.146185
v 0.182356 0.209666 0.190415
v -0.266900 -0.153853 0.065448
v -0.266900 -0.180454 0.190415
v 0.167055 0.072929 0.087343
v 0.248685 0.209666 0.087343
v 0.167055 0.012180 0.087343
v -0.266900 0.258938 0.190415
v -0.266900 0.258938 0.087343
v -0.266900 0.112476 0.190415
v 0.035750 0.324683 0.190415
v 0.167055 0.296158 0.087343
v -0.226882 0.279299 0.190415
v 0.208666 0.279299 0.190415
v 0.248685 0.258938 0.087343
v -0.226882 0.279299 0.087343
v 0.167055 0.296158 0.190415
v 0.208666 0.279299 0.087343
v -0.185270 0.296158 0.190415
v 0.124154 0.309409 0.190415
v -0.009108 0.326600 0.190415
v 0.035750 0.324683 0.087343
v -0.185270 0.296158 0.087343
v 0.080279 0.318938 0.190415
v -0.142370 0.309409 0.087343
v 0.248685 -0.211890 -0.324183
v 0.209235 -0.177724 -0.363737
v 0.248685 -0.096860 -0.284629
v 0.248685 -0.028529 -0.205520
v 0.126418 -0.028529 -0.081812
v 0.248685 -0.028529 -0.047303
v 0.001923 0.015556 0.190415
v 0.064476 -0.028529 -0.222775
v 0.248685 -0.028529 0.087343
v 0.248685 -0.099648 0.032118
v -0.178757 -0.033989 0.190415
v 0.169786 -0.099589 0.190415
v -0.152974 -0.028529 -0.363737
v 0.002535 -0.028529 -0.363737
v -0.266900 -0.033989 0.190415
v 0.248685 -0.033989 0.190415
v -0.152974 -0.028529 -0.213965
v -0.073556 -0.028529 -0.363737
v -0.004539 -0.028529 -0.067716
v -0.178757 0.125697 0.190415
v -0.266900 -0.103873 0.190415
v -0.266900 -0.028529 -0.213965
v -0.152974 -0.028529 -0.064192
v -0.039048 -0.028529 -0.215727
v 0.248685 0.070383 0.164647
v 0.001923 0.125697 0.190415
v -0.266900 -0.028529 0.087343
v 0.248685 0.090568 0.087343
v -0.073556 -0.028529 0.087343
v -0.009108 0.237822 0.087343
v 0.248685 0.174754 0.138879
v -0.111095 0.125697 0.190415
v -0.266900 -0.108805 -0.146185
v -0.266900 -0.028529 -0.146185
v 0.101402 0.198806 0.087343
v 0.039626 0.181845 0.190415
v -0.178757 0.233375 0.190415
v -0.111095 0.209666 0.190415
v -0.266900 0.115206 0.087343
v -0.266900 -0.152652 0.059802
v -0.138004 -0.028529 0.087343
v -0.138004 0.108924 0.087343
v 0.001923 0.274940 0.190415
v 0.058308 0.209666 0.190415
v -0.266900 -0.028529 0.023521
v -0.140187 0.209165 0.087343
v -0.009108 0.326600 0.087343
v -0.060349 0.209666 0.190415
v -0.194916 0.168583 0.087343
v 0.001923 0.209666 0.190415
v 0.124154 0.309409 0.087343
v 0.080279 0.318938 0.087343
v -0.098494 0.318938 0.087343
v -0.053965 0.324683 0.087343
v -0.098494 0.318938 0.190415
v -0.053965 0.324683 0.190415
v -0.142370 0.309409 0.190415

# 0 UV coordinates

# 44 vertex normals
vn 0 -1 0
vn 0 0 1
vn -1 0 0
vn 0 1 0
vn 0 0 -1
vn 1 0 0
vn -0.414866 0.909882 0
vn -0.453399 0.891307 0
vn -0.335595 0.942006 0
vn 0.042767 0.999085 0
vn 0.085455 0.996342 0
vn 0.127987 0.991776 0
vn -0.295002 0.955497 0
vn 0.453399 -0.891307 -0
vn 0.414866 -0.909882 -0
vn -0.453399 -0.891307 0
vn -0.042767 -0.999085 0
vn 0.335595 -0.942006 -0
vn -0.414866 -0.909882 0
vn -0.335595 -0.942006 0
vn -0.253868 -0.967239 0
vn -0.085455 -0.996342 0
vn 0.042767 -0.999085 -0
vn -0.170285 -0.985395 0
vn -0.127987 -0.991776 0
vn -0.212271 -0.977211 0
vn 0.170285 -0.985395 -0
vn 0.212271 -0.977211 -0
vn 0.085455 -0.996342 0
vn 0.295002 -0.955497 -0
vn 0.253868 -0.967239 0
vn 0.127987 -0.991776 -0
vn -0.212271 0.977211 0
vn -0.170285 0.985395 0
vn -0.127987 0.991776 0
vn 0.414866 0.909882 0
vn 0.453399 0.891307 0
vn 0.335595 0.942006 0
vn 0.253868 0.967239 0
vn 0.212271 0.977211 0
vn 0.170285 0.985395 0
vn -0.253868 0.967239 0
vn -0.042767 0.999085 0
vn -0.085455 0.996342 0

# Mesh 'mesh1_mesh1-geometry' with 70 faces
g mesh1_mesh1-geometry
usemtl material_0_24
f  1//1 2//1 3//1
f  2//1 1//1 4//1
f  5//2 1//2 3//2
f  4//1 1//1 6//1
f  1//2 5//2 7//2
f  1//3 8//3 6//3
f  5//1 9//1 7//1
f  10//3 1//3 7//3
f  8//3 1//3 10//3
f  11//1 9//1 5//1
f  9//1 12//1 7//1
f  13//1 8//1 10//1
f  14//4 15//4 16//4
f  14//5 8//5 17//5
f  18//1 9//1 11//1
f  12//1 9//1 19//1
f  7//1 12//1 20//1
f  8//1 13//1 21//1
f  15//4 14//4 22//4
f  9//1 18//1 23//1
f  9//3 24//3 19//3
f  20//1 12//1 25//1
f  21//1 13//1 26//1
f  27//5 9//5 23//5
f  24//3 9//3 28//3
f  20//1 25//1 29//1
f  20//2 30//2 31//2
f  9//5 27//5 28//5
f  27//1 24//1 28//1
f  24//1 32//1 33//1
f  34//1 20//1 29//1
f  30//1 35//1 31//1
f  30//2 20//2 36//2
f  32//1 24//1 27//1
f  32//6 37//6 33//6
f  38//5 34//5 29//5
f  20//1 34//1 36//1
f  35//1 30//1 39//1
f  40//5 41//5 42//5
f  43//5 44//5 45//5
f  46//5 43//5 47//5
f  37//6 32//6 48//6
f  49//2 50//2 51//2
f  52//1 38//1 53//1
f  34//5 38//5 54//5
f  36//1 34//1 55//1
f  41//5 40//5 39//5
f  43//5 46//5 44//5
f  50//2 49//2 56//2
f  57//3 52//3 58//3
f  38//1 52//1 54//1
f  52//3 34//3 54//3
f  59//5 60//5 61//5
f  62//3 63//3 64//3
f  56//2 49//2 65//2
f  52//3 57//3 34//3
f  60//5 59//5 66//5
f  67//7 63//8 62//8
f  65//2 49//2 68//2
f  60//5 66//5 69//5
f  63//8 67//7 70//7
f  65//2 68//2 71//2
f  69//5 66//5 72//5
f  73//9 70//7 67//7
f  65//2 71//2 74//2
f  75//10 65//11 76//11
f  70//7 73//9 77//9
f  65//2 74//2 78//2
f  65//11 78//12 76//11
f  73//9 79//13 77//9

# Mesh 'mesh1_mesh1-geometry' with 280 faces
g mesh1_mesh1-geometry
usemtl material_1_24
f  3//4 2//4 1//4
f  4//4 1//4 2//4
f  80//3 2//3 3//3
f  3//5 1//5 5//5
f  6//4 1//4 4//4
f  4//2 2//2 81//2
f  80//3 82//3 2//3
f  80//3 3//3 82//3
f  7//5 5//5 1//5
f  5//3 82//3 3//3
f  6//6 8//6 1//6
f  6//2 4//2 8//2
f  16//2 81//2 2//2
f  81//2 8//2 4//2
f  16//3 2//3 82//3
f  7//4 9//4 5//4
f  7//6 1//6 10//6
f  11//3 82//3 5//3
f  10//6 1//6 8//6
f  14//2 81//2 16//2
f  14//2 8//2 81//2
f  16//3 82//3 83//3
f  5//4 9//4 11//4
f  7//4 12//4 9//4
f  7//5 13//5 10//5
f  10//2 13//2 7//2
f  11//3 83//3 82//3
f  10//4 8//4 13//4
f  16//1 15//1 14//1
f  17//2 8//2 14//2
f  16//1 83//1 15//1
f  11//4 9//4 18//4
f  19//4 9//4 12//4
f  20//4 12//4 7//4
f  13//5 7//5 20//5
f  20//2 7//2 13//2
f  83//3 11//3 18//3
f  21//4 13//4 8//4
f  22//1 14//1 15//1
f  21//2 8//2 17//2
f  17//1 14//1 84//1
f  85//1 15//1 83//1
f  23//4 18//4 9//4
f  19//6 24//6 9//6
f  19//5 12//5 86//5
f  25//4 12//4 20//4
f  20//3 13//3 31//3
f  83//3 18//3 85//3
f  26//4 13//4 21//4
f  22//1 84//1 14//1
f  22//1 15//1 45//1
f  21//2 17//2 42//2
f  87//1 17//1 84//1
f  88//1 15//1 85//1
f  18//3 23//3 89//3
f  23//2 9//2 27//2
f  28//6 9//6 24//6
f  33//5 24//5 19//5
f  90//5 86//5 12//5
f  19//5 86//5 91//5
f  12//5 25//5 90//5
f  29//4 25//4 20//4
f  31//3 13//3 35//3
f  31//5 30//5 20//5
f  89//3 85//3 18//3
f  26//3 35//3 13//3
f  21//2 42//2 26//2
f  84//1 22//1 45//1
f  88//1 45//1 15//1
f  92//2 42//2 17//2
f  93//1 17//1 87//1
f  84//1 43//1 87//1
f  85//3 89//3 88//3
f  48//3 89//3 23//3
f  28//2 27//2 9//2
f  27//3 48//3 23//3
f  28//4 24//4 27//4
f  33//4 32//4 24//4
f  33//5 19//5 37//5
f  94//5 86//5 90//5
f  51//5 91//5 86//5
f  91//5 95//5 19//5
f  90//5 25//5 58//5
f  29//3 38//3 25//3
f  29//4 20//4 34//4
f  31//4 35//4 30//4
f  36//5 20//5 30//5
f  35//2 26//2 40//2
f  42//2 40//2 26//2
f  43//1 84//1 45//1
f  45//2 88//2 44//2
f  92//1 96//1 42//1
f  97//2 92//2 17//2
f  93//2 97//2 17//2
f  87//1 98//1 93//1
f  47//1 87//1 43//1
f  48//3 88//3 89//3
f  32//3 48//3 27//3
f  27//4 24//4 32//4
f  33//3 37//3 32//3
f  95//5 37//5 19//5
f  99//5 86//5 94//5
f  94//5 90//5 100//5
f  91//5 51//5 95//5
f  50//5 51//5 86//5
f  53//5 58//5 25//5
f  58//5 100//5 90//5
f  53//3 25//3 38//3
f  29//2 34//2 38//2
f  36//4 34//4 20//4
f  39//4 30//4 35//4
f  30//6 39//6 36//6
f  39//2 35//2 40//2
f  42//2 41//2 40//2
f  45//2 44//2 43//2
f  61//2 44//2 88//2
f  101//1 42//1 96//1
f  96//1 92//1 102//1
f  92//1 97//1 102//1
f  97//1 93//1 103//1
f  103//1 93//1 98//1
f  98//1 87//1 47//1
f  47//2 43//2 46//2
f  104//3 88//3 48//3
f  48//3 32//3 37//3
f  95//3 104//3 37//3
f  105//5 86//5 99//5
f  94//5 64//5 99//5
f  94//6 100//6 64//6
f  49//5 95//5 51//5
f  51//5 50//5 49//5
f  86//5 105//5 50//5
f  53//5 52//5 58//5
f  100//6 58//6 106//6
f  53//4 38//4 52//4
f  54//2 38//2 34//2
f  55//4 34//4 36//4
f  39//6 41//6 36//6
f  39//2 40//2 41//2
f  41//6 42//6 36//6
f  44//2 46//2 43//2
f  59//2 44//2 61//2
f  88//2 107//2 61//2
f  42//6 101//6 36//6
f  96//1 102//1 101//1
f  103//1 102//1 97//1
f  98//1 108//1 103//1
f  108//1 98//1 47//1
f  46//2 109//2 47//2
f  104//3 110//3 88//3
f  37//3 104//3 48//3
f  95//3 49//3 104//3
f  111//5 105//5 99//5
f  62//5 99//5 64//5
f  106//6 64//6 100//6
f  56//5 49//5 50//5
f  56//5 50//5 105//5
f  58//6 52//6 57//6
f  57//6 106//6 58//6
f  54//4 52//4 38//4
f  54//6 34//6 52//6
f  55//6 112//6 34//6
f  36//6 113//6 55//6
f  44//2 114//2 46//2
f  114//2 44//2 59//2
f  61//2 60//2 59//2
f  60//2 61//2 107//2
f  107//3 88//3 110//3
f  113//6 36//6 101//6
f  106//1 101//1 102//1
f  102//1 103//1 108//1
f  108//2 47//2 109//2
f  109//2 46//2 114//2
f  110//3 104//3 49//3
f  105//5 111//5 115//5
f  116//5 111//5 99//5
f  99//2 111//2 116//2
f  111//5 99//5 117//5
f  116//5 99//5 62//5
f  64//6 63//6 62//6
f  106//6 118//6 64//6
f  65//5 49//5 56//5
f  115//5 56//5 105//5
f  34//6 57//6 52//6
f  57//6 119//6 106//6
f  119//6 34//6 112//6
f  112//6 55//6 113//6
f  59//2 66//2 114//2
f  66//2 59//2 60//2
f  107//3 49//3 60//3
f  110//3 49//3 107//3
f  113//1 101//1 106//1
f  106//1 102//1 120//1
f  120//1 102//1 108//1
f  109//2 121//2 108//2
f  76//2 109//2 114//2
f  117//5 115//5 111//5
f  111//5 116//5 117//5
f  117//2 116//2 111//2
f  116//5 117//5 99//5
f  122//5 116//5 62//5
f  62//2 116//2 122//2
f  62//5 122//5 116//5
f  62//14 63//14 67//15
f  63//6 64//6 118//6
f  106//2 120//2 118//2
f  68//5 49//5 65//5
f  56//5 123//5 65//5
f  123//5 56//5 115//5
f  34//6 119//6 57//6
f  124//6 106//6 119//6
f  112//6 113//6 119//6
f  76//2 114//2 66//2
f  69//2 66//2 60//2
f  69//3 60//3 49//3
f  124//1 113//1 106//1
f  120//2 108//2 121//2
f  121//2 109//2 125//2
f  126//2 109//2 76//2
f  123//5 115//5 117//5
f  117//5 116//5 127//5
f  127//2 116//2 117//2
f  116//5 122//5 117//5
f  127//5 116//5 122//5
f  122//2 116//2 127//2
f  122//5 62//5 67//5
f  70//15 67//15 63//14
f  118//2 128//2 63//2
f  128//2 118//2 120//2
f  69//16 49//16 68//16
f  71//5 68//5 65//5
f  129//5 65//5 123//5
f  124//6 119//6 113//6
f  130//2 76//2 66//2
f  72//2 66//2 69//2
f  120//2 121//2 128//2
f  79//2 125//2 109//2
f  125//2 128//2 121//2
f  109//2 126//2 79//2
f  126//1 76//17 75//1
f  129//5 123//5 117//5
f  127//5 129//5 117//5
f  127//5 117//5 122//5
f  129//5 127//5 122//5
f  67//5 65//5 122//5
f  67//15 70//15 73//18
f  70//2 63//2 128//2
f  72//19 69//16 68//19
f  71//20 66//20 68//19
f  74//5 71//5 65//5
f  122//5 65//5 129//5
f  131//2 76//2 130//2
f  66//20 71//20 130//21
f  72//19 68//19 66//20
f  79//2 70//2 125//2
f  128//2 125//2 70//2
f  132//2 79//2 126//2
f  76//22 65//22 75//17
f  126//1 75//1 133//23
f  73//5 65//5 67//5
f  77//18 73//18 70//15
f  74//21 130//21 71//20
f  78//5 74//5 65//5
f  131//24 78//24 76//25
f  131//24 130//26 78//24
f  77//2 70//2 79//2
f  132//27 134//27 79//28
f  133//2 132//2 126//2
f  75//5 65//5 135//5
f  76//22 78//25 65//22
f  133//29 75//23 135//29
f  136//5 65//5 73//5
f  77//18 79//30 73//18
f  130//21 74//21 78//26
f  79//31 134//28 136//31
f  132//27 133//32 134//27
f  135//5 65//5 134//5
f  133//29 135//29 134//32
f  134//5 65//5 136//5
f  79//31 136//31 73//30

# Mesh 'mesh1_mesh1-geometry' with 7 faces
g mesh1_mesh1-geometry
usemtl material_21_24
f  3//6 2//6 80//6
f  87//4 43//4 84//4
f  43//4 87//4 47//4
f  47//4 87//4 98//4
f  36//3 42//3 41//3
f  47//4 98//4 108//4
f  57//3 119//3 34//3

# Mesh 'mesh1_mesh1-geometry' with 8 faces
g mesh1_mesh1-geometry
usemtl material_16_24
f  81//5 2//5 4//5
f  2//6 82//6 80//6
f  2//5 81//5 16//5
f  82//6 2//6 16//6
f  46//5 114//5 44//5
f  114//5 46//5 109//5
f  114//5 109//5 76//5
f  76//5 109//5 126//5

# Mesh 'mesh1_mesh1-geometry' with 18 faces
g mesh1_mesh1-geometry
usemtl material_13_24
f  82//6 3//6 80//6
f  3//6 82//6 5//6
f  5//6 82//6 11//6
f  86//2 12//2 19//2
f  12//2 86//2 90//2
f  90//2 86//2 94//2
f  94//2 86//2 99//2
f  99//2 86//2 105//2
f  58//2 52//2 53//2
f  99//2 105//2 111//2
f  115//2 111//2 105//2
f  108//5 121//5 109//5
f  111//2 115//2 117//2
f  121//5 108//5 120//5
f  117//2 115//2 123//2
f  117//2 123//2 129//2
f  117//2 129//2 127//2
f  122//2 127//2 129//2

# Mesh 'mesh1_mesh1-geometry' with 8 faces
g mesh1_mesh1-geometry
usemtl material_4_24
f  8//5 4//5 6//5
f  4//5 8//5 81//5
f  81//5 8//5 14//5
f  18//6 11//6 83//6
f  45//4 15//4 22//4
f  45//4 22//4 84//4
f  15//4 45//4 88//4
f  45//4 84//4 43//4

# Mesh 'mesh1_mesh1-geometry' with 5 faces
g mesh1_mesh1-geometry
usemtl material_5_24
f  16//5 81//5 14//5
f  55//3 113//3 36//3
f  113//3 55//3 112//3
f  63//5 128//5 118//5
f  128//5 63//5 70//5

# Mesh 'mesh1_mesh1-geometry' with 5 faces
g mesh1_mesh1-geometry
usemtl material_22_24
f  83//6 82//6 16//6
f  82//6 83//6 11//6
f  102//4 92//4 96//4
f  102//4 97//4 92//4
f  97//4 102//4 103//4

# Mesh 'mesh1_mesh1-geometry' with 8 faces
g mesh1_mesh1-geometry
usemtl material_20_24
f  15//4 83//4 16//4
f  83//4 15//4 85//4
f  85//4 15//4 88//4
f  42//4 96//4 92//4
f  93//4 98//4 87//4
f  96//4 42//4 101//4
f  103//4 93//4 97//4
f  98//4 93//4 103//4

# Mesh 'mesh1_mesh1-geometry' with 11 faces
g mesh1_mesh1-geometry
usemtl material_11_24
f  17//5 8//5 21//5
f  64//3 100//3 94//3
f  36//3 41//3 39//3
f  100//3 64//3 106//3
f  117//2 99//2 111//2
f  99//2 117//2 116//2
f  116//2 122//2 62//2
f  117//2 122//2 116//2
f  122//2 117//2 127//2
f  79//33 134//34 132//34
f  134//34 133//35 132//34

# Mesh 'mesh1_mesh1-geometry' with 9 faces
g mesh1_mesh1-geometry
usemtl material_8_24
f  84//4 14//4 17//4
f  14//4 84//4 22//4
f  84//4 17//4 87//4
f  87//4 17//4 93//4
f  95//2 51//2 91//2
f  51//2 95//2 49//2
f  79//5 126//5 109//5
f  126//5 79//5 132//5
f  126//5 132//5 133//5

# Mesh 'mesh1_mesh1-geometry' with 8 faces
g mesh1_mesh1-geometry
usemtl material_6_24
f  31//6 13//6 20//6
f  42//5 17//5 21//5
f  35//6 13//6 31//6
f  13//6 35//6 26//6
f  17//5 42//5 92//5
f  17//5 92//5 97//5
f  17//5 97//5 93//5
f  40//5 35//5 39//5

# Mesh 'mesh1_mesh1-geometry' with 13 faces
g mesh1_mesh1-geometry
usemtl material_12_24
f  85//6 18//6 83//6
f  91//2 86//2 19//2
f  18//6 85//6 89//6
f  86//2 91//2 51//2
f  100//2 90//2 94//2
f  86//2 51//2 50//2
f  90//2 100//2 58//2
f  104//6 49//6 95//6
f  34//3 112//3 55//3
f  49//6 104//6 110//6
f  64//3 118//3 106//3
f  112//3 34//3 119//3
f  118//3 64//3 63//3

# Mesh 'mesh1_mesh1-geometry' with 18 faces
g mesh1_mesh1-geometry
usemtl material_2_24
f  89//6 23//6 18//6
f  23//6 89//6 48//6
f  23//6 48//6 27//6
f  37//2 19//2 33//2
f  19//2 95//2 91//2
f  27//6 48//6 32//6
f  19//2 37//2 95//2
f  99//2 64//2 94//2
f  88//6 110//6 104//6
f  64//2 99//2 62//2
f  110//6 88//6 107//6
f  62//2 99//2 116//2
f  68//36 69//37 72//36
f  68//36 66//38 71//38
f  130//39 71//38 66//38
f  66//38 68//36 72//36
f  71//38 130//39 74//39
f  78//40 74//39 130//39

# Mesh 'mesh1_mesh1-geometry' with 13 faces
g mesh1_mesh1-geometry
usemtl material_9_24
f  19//2 24//2 33//2
f  88//6 89//6 85//6
f  89//6 88//6 48//6
f  48//6 88//6 104//6
f  37//6 104//6 95//6
f  48//6 104//6 37//6
f  125//5 109//5 121//5
f  68//37 49//37 69//37
f  109//5 125//5 79//5
f  76//12 78//41 131//41
f  78//41 130//40 131//41
f  136//42 134//33 79//42
f  73//13 136//42 79//42

# Mesh 'mesh1_mesh1-geometry' with 5 faces
g mesh1_mesh1-geometry
usemtl material_14_24
f  90//2 25//2 12//2
f  58//2 25//2 90//2
f  25//2 58//2 53//2
f  106//3 58//3 100//3
f  58//3 106//3 57//3

# Mesh 'mesh1_mesh1-geometry' with 15 faces
g mesh1_mesh1-geometry
usemtl material_7_24
f  26//5 42//5 21//5
f  25//6 38//6 29//6
f  40//5 26//5 35//5
f  26//5 40//5 42//5
f  38//6 25//6 53//6
f  50//2 105//2 86//2
f  36//3 101//3 42//3
f  103//4 108//4 98//4
f  105//2 50//2 56//2
f  101//3 36//3 113//3
f  108//4 103//4 102//4
f  105//2 56//2 115//2
f  120//4 102//4 106//4
f  108//4 102//4 120//4
f  115//2 56//2 123//2

# Mesh 'mesh1_mesh1-geometry' with 10 faces
g mesh1_mesh1-geometry
usemtl material_19_24
f  44//5 88//5 45//5
f  88//5 44//5 61//5
f  61//5 44//5 59//5
f  61//5 107//5 88//5
f  47//5 109//5 46//5
f  59//5 44//5 114//5
f  107//5 61//5 60//5
f  109//5 47//5 108//5
f  128//5 121//5 120//5
f  121//5 128//5 125//5

# Mesh 'mesh1_mesh1-geometry' with 5 faces
g mesh1_mesh1-geometry
usemtl material_10_24
f  36//3 39//3 30//3
f  106//3 119//3 57//3
f  119//3 106//3 124//3
f  75//4 76//10 126//4
f  133//43 75//4 126//4

# Mesh 'mesh1_mesh1-geometry' with 9 faces
g mesh1_mesh1-geometry
usemtl material_3_24
f  101//4 102//4 96//4
f  102//4 101//4 106//4
f  60//6 49//6 107//6
f  107//6 49//6 110//6
f  106//4 101//4 113//4
f  49//6 60//6 69//6
f  106//4 113//4 124//4
f  135//44 75//43 133//44
f  134//35 135//44 133//44

# Mesh 'mesh1_mesh1-geometry' with 16 faces
g mesh1_mesh1-geometry
usemtl material_15_24
f  114//5 66//5 59//5
f  65//2 123//2 56//2
f  119//3 113//3 112//3
f  66//5 114//5 76//5
f  67//2 62//2 122//2
f  123//2 65//2 129//2
f  113//3 119//3 124//3
f  66//5 76//5 130//5
f  122//2 65//2 67//2
f  129//2 65//2 122//2
f  130//5 76//5 131//5
f  67//2 65//2 73//2
f  135//2 65//2 75//2
f  73//2 65//2 136//2
f  134//2 65//2 135//2
f  136//2 65//2 134//2

# Mesh 'mesh1_mesh1-geometry' with 2 faces
g mesh1_mesh1-geometry
usemtl material_17_24
f  118//5 120//5 106//5
f  120//5 118//5 128//5

# Mesh 'mesh1_mesh1-geometry' with 3 faces
g mesh1_mesh1-geometry
usemtl material_18_24
f  125//5 70//5 79//5
f  70//5 125//5 128//5
f  79//5 70//5 77//5

# Mesh 'mesh2_mesh2-geometry' with 1 faces
g mesh2_mesh2-geometry
usemtl material_1_0
l  13 10

# Mesh 'mesh3_mesh3-geometry' with 1 faces
g mesh3_mesh3-geometry
usemtl material_1_0
l  20 7

# Mesh 'mesh4_mesh4-geometry' with 1 faces
g mesh4_mesh4-geometry
usemtl material_1_0
l  31 1

# Mesh 'mesh5_mesh5-geometry' with 1 faces
g mesh5_mesh5-geometry
usemtl material_1_0
l  63 73

# Mesh 'mesh6_mesh6-geometry' with 1 faces
g mesh6_mesh6-geometry
usemtl material_1_0
l  130 68

