# File produced by Open Asset Import Library (http://www.assimp.sf.net)
# (assimp v3.2.202087883)

mtllib model_normalized.mtl

# 74 vertex positions
v 0.202733 0.225206 -0.019957
v -0.121422 0.225206 -0.010869
v 0.202733 0.225206 -0.010869
v -0.121422 0.225206 -0.019957
v -0.418642 0.225206 -0.010869
v 0.481019 0.225206 -0.010869
v -0.418642 0.225206 0.028510
v 0.481019 0.225206 0.028510
v -0.418642 -0.201906 -0.010869
v -0.396203 0.205757 -0.026015
v -0.396203 0.205757 -0.010869
v -0.344707 0.205757 -0.010869
v 0.387956 -0.144112 -0.010869
v -0.308753 -0.186520 -0.026015
v -0.308753 -0.144112 -0.010869
v 0.429621 0.197304 0.028510
v 0.481019 -0.201906 0.028510
v -0.418642 -0.201906 0.028510
v 0.466099 0.197042 -0.026015
v 0.405516 0.197042 -0.010869
v 0.466099 0.197042 -0.010869
v -0.396203 -0.172891 -0.026015
v -0.344707 -0.172891 -0.010869
v 0.387956 -0.186520 -0.010869
v 0.387956 -0.186520 -0.026015
v -0.308753 -0.186520 -0.010869
v -0.376134 0.197304 0.028510
v 0.481019 -0.201906 -0.010869
v -0.388351 -0.201906 0.028510
v 0.405516 -0.172514 -0.010869
v -0.396203 -0.172891 -0.010869
v 0.429621 -0.132876 0.028510
v -0.376134 -0.132876 0.028510
v -0.375728 -0.201906 0.019063
v -0.388351 -0.201906 0.019063
v 0.466099 -0.172514 -0.026015
v 0.466099 -0.172514 -0.010869
v -0.375728 -0.201906 0.028510
v -0.388351 -0.207964 0.019063
v -0.375728 -0.207964 0.028510
v -0.388351 -0.207964 0.028510
v -0.375728 -0.207964 0.019063
v 0.202733 0.119185 -0.010869
v -0.121422 0.119185 -0.019957
v 0.202733 0.119185 -0.019957
v -0.121422 0.119185 -0.010869
v -0.376134 0.197304 0.001247
v 0.429621 -0.132876 0.001247
v 0.429621 0.197304 0.001247
v -0.376134 -0.132876 0.001247
v -0.256060 0.197304 0.001247
v 0.319273 0.197304 0.001247
v -0.256060 -0.132876 0.001247
v -0.135981 0.197304 0.001247
v 0.319273 -0.132876 0.001247
v 0.208924 0.197304 0.001247
v -0.135981 -0.132876 0.001247
v -0.011776 0.197304 0.001247
v 0.098575 0.197304 0.001247
v 0.208924 -0.132876 0.001247
v -0.011776 -0.132876 0.001247
v -0.011776 0.114758 0.001247
v 0.208924 0.114758 0.001247
v -0.011776 -0.091604 0.001247
v -0.011776 0.073485 0.001247
v 0.098575 0.114758 0.001247
v -0.011776 -0.050331 0.001247
v -0.011776 0.032212 0.001247
v 0.208924 0.073485 0.001247
v 0.208924 -0.091604 0.001247
v -0.011776 -0.009060 0.001247
v 0.208924 0.032212 0.001247
v 0.208924 -0.050331 0.001247
v 0.208924 -0.009060 0.001247

# 0 UV coordinates

# 12 vertex normals
vn 0 0.0254 0
vn -0.0254 0 0
vn 0 0.00854293 -0.0239202
vn 0 0 0.0254
vn 0.0254 0 0
vn 0.00716702 0 -0.0243679
vn 0 -0.0254 0
vn -0.00616041 0 -0.0246416
vn 0 0 -0.0254
vn 0 -0.00854293 0.0239202
vn -0.00716702 0 0.0243679
vn 0.00616041 -0 0.0246416

# Mesh 'mesh1_mesh1-geometry' with 44 faces
g mesh1_mesh1-geometry
usemtl material_0_24
f  1//1 2//1 3//1
f  2//1 1//1 4//1
f  5//1 3//1 2//1
f  5//1 6//1 3//1
f  7//1 6//1 5//1
f  6//1 7//1 8//1
f  9//2 7//2 5//2
f  10//1 11//1 12//1
f  13//3 14//3 15//3
f  16//4 8//4 7//4
f  17//5 6//5 8//5
f  7//2 9//2 18//2
f  19//1 20//1 21//1
f  22//6 12//6 23//6
f  12//6 22//6 10//6
f  13//5 24//5 25//5
f  14//3 13//3 25//3
f  15//2 14//2 26//2
f  8//4 16//4 17//4
f  16//4 7//4 27//4
f  6//5 17//5 28//5
f  9//7 29//7 18//7
f  29//4 7//4 18//4
f  19//8 30//8 20//8
f  22//7 23//7 31//7
f  32//4 17//4 16//4
f  27//4 7//4 33//4
f  17//7 34//7 28//7
f  29//7 9//7 35//7
f  33//4 7//4 29//4
f  36//7 37//7 30//7
f  30//8 19//8 36//8
f  17//4 32//4 38//4
f  34//7 17//7 38//7
f  28//7 34//7 9//7
f  35//7 9//7 34//7
f  39//2 29//2 35//2
f  38//4 33//4 29//4
f  38//4 32//4 33//4
f  40//5 34//5 38//5
f  34//9 39//9 35//9
f  29//2 39//2 41//2
f  34//5 40//5 42//5
f  39//9 34//9 42//9

# Mesh 'mesh1_mesh1-geometry' with 148 faces
g mesh1_mesh1-geometry
usemtl material_1_24
f  3//7 2//7 1//7
f  4//7 1//7 2//7
f  2//7 3//7 5//7
f  3//2 1//2 43//2
f  4//4 44//4 1//4
f  4//5 2//5 44//5
f  3//7 6//7 5//7
f  5//4 12//4 2//4
f  45//2 43//2 1//2
f  43//4 13//4 3//4
f  45//4 1//4 44//4
f  46//5 44//5 2//5
f  5//7 6//7 7//7
f  3//4 21//4 6//4
f  12//4 15//4 2//4
f  11//4 12//4 5//4
f  45//1 44//1 43//1
f  13//4 20//4 3//4
f  13//4 43//4 15//4
f  46//1 43//1 44//1
f  2//4 15//4 46//4
f  8//7 7//7 6//7
f  5//5 7//5 9//5
f  37//4 6//4 21//4
f  20//4 21//4 3//4
f  23//4 15//4 12//4
f  12//7 11//7 10//7
f  9//4 11//4 5//4
f  24//4 20//4 13//4
f  46//4 15//4 43//4
f  15//10 14//10 13//10
f  7//9 8//9 16//9
f  8//2 6//2 17//2
f  18//5 9//5 7//5
f  6//4 37//4 28//4
f  21//2 19//2 37//2
f  21//7 20//7 19//7
f  15//4 23//4 26//4
f  23//11 12//11 22//11
f  10//5 11//5 22//5
f  10//11 22//11 12//11
f  11//4 9//4 31//4
f  20//4 24//4 30//4
f  25//2 24//2 13//2
f  25//10 13//10 14//10
f  26//5 14//5 15//5
f  17//9 16//9 8//9
f  27//9 7//9 16//9
f  28//2 17//2 6//2
f  18//1 29//1 9//1
f  18//9 7//9 29//9
f  24//4 28//4 37//4
f  36//2 37//2 19//2
f  20//12 30//12 19//12
f  23//4 9//4 26//4
f  31//1 23//1 22//1
f  31//5 22//5 11//5
f  31//4 9//4 23//4
f  30//4 24//4 37//4
f  25//1 14//1 24//1
f  26//1 24//1 14//1
f  16//9 17//9 32//9
f  33//9 7//9 27//9
f  27//1 16//1 47//1
f  28//1 34//1 17//1
f  35//1 9//1 29//1
f  29//9 7//9 33//9
f  9//4 28//4 24//4
f  30//1 37//1 36//1
f  36//12 19//12 30//12
f  26//4 9//4 24//4
f  38//9 32//9 17//9
f  32//5 48//5 16//5
f  27//2 47//2 33//2
f  49//1 47//1 16//1
f  38//1 17//1 34//1
f  9//1 34//1 28//1
f  34//1 9//1 35//1
f  35//5 29//5 39//5
f  35//7 38//7 29//7
f  29//1 38//1 35//1
f  29//9 33//9 38//9
f  33//9 32//9 38//9
f  49//5 16//5 48//5
f  32//7 33//7 48//7
f  50//2 33//2 47//2
f  51//1 47//1 49//1
f  38//2 34//2 40//2
f  38//7 35//7 34//7
f  34//1 35//1 38//1
f  35//4 39//4 34//4
f  41//5 39//5 29//5
f  38//9 40//9 29//9
f  49//9 48//9 52//9
f  50//7 48//7 33//7
f  50//9 47//9 53//9
f  51//9 53//9 47//9
f  54//1 51//1 49//1
f  42//2 40//2 34//2
f  42//4 34//4 39//4
f  41//1 40//1 39//1
f  41//9 29//9 40//9
f  55//9 52//9 48//9
f  52//1 56//1 49//1
f  55//7 48//7 50//7
f  53//7 57//7 50//7
f  53//9 51//9 57//9
f  54//9 57//9 51//9
f  58//1 54//1 49//1
f  42//1 39//1 40//1
f  52//9 55//9 56//9
f  56//1 59//1 49//1
f  60//7 55//7 50//7
f  57//7 61//7 50//7
f  57//9 54//9 61//9
f  58//9 62//9 54//9
f  59//1 58//1 49//1
f  60//9 56//9 55//9
f  56//9 63//9 59//9
f  61//7 60//7 50//7
f  61//9 54//9 64//9
f  65//9 54//9 62//9
f  62//9 58//9 66//9
f  59//9 66//9 58//9
f  63//9 56//9 60//9
f  66//9 59//9 63//9
f  61//9 64//9 60//9
f  64//9 54//9 67//9
f  68//9 54//9 65//9
f  62//9 66//9 65//9
f  69//9 63//9 60//9
f  63//9 69//9 66//9
f  70//9 60//9 64//9
f  67//9 54//9 71//9
f  64//9 67//9 70//9
f  71//9 54//9 68//9
f  68//9 65//9 72//9
f  65//9 66//9 69//9
f  72//9 69//9 60//9
f  70//9 73//9 60//9
f  67//9 71//9 73//9
f  73//9 70//9 67//9
f  71//9 68//9 74//9
f  69//9 72//9 65//9
f  72//9 74//9 68//9
f  74//9 72//9 60//9
f  73//9 74//9 60//9
f  74//9 73//9 71//9

# Mesh 'mesh1_mesh1-geometry' with 27 faces
g mesh1_mesh1-geometry
usemtl material_4_24
f  43//5 1//5 3//5
f  1//9 44//9 4//9
f  44//2 2//2 4//2
f  1//5 43//5 45//5
f  44//9 1//9 45//9
f  2//2 44//2 46//2
f  43//7 44//7 45//7
f  44//7 43//7 46//7
f  47//7 16//7 27//7
f  16//2 48//2 32//2
f  33//5 47//5 27//5
f  16//7 47//7 49//7
f  48//2 16//2 49//2
f  48//1 33//1 32//1
f  47//5 33//5 50//5
f  49//7 47//7 51//7
f  33//1 48//1 50//1
f  49//7 51//7 54//7
f  49//7 56//7 52//7
f  50//1 48//1 55//1
f  50//1 57//1 53//1
f  49//7 54//7 58//7
f  49//7 59//7 56//7
f  50//1 55//1 60//1
f  50//1 61//1 57//1
f  49//7 58//7 59//7
f  50//1 60//1 61//1

# Mesh 'mesh1_mesh1-geometry' with 24 faces
g mesh1_mesh1-geometry
usemtl material_5_24
f  2//9 12//9 5//9
f  3//9 13//9 43//9
f  6//9 21//9 3//9
f  2//9 15//9 12//9
f  5//9 12//9 11//9
f  3//9 20//9 13//9
f  15//9 43//9 13//9
f  46//9 15//9 2//9
f  21//9 6//9 37//9
f  3//9 21//9 20//9
f  12//9 15//9 23//9
f  5//9 11//9 9//9
f  13//9 20//9 24//9
f  43//9 15//9 46//9
f  28//9 37//9 6//9
f  26//9 23//9 15//9
f  31//9 9//9 11//9
f  30//9 24//9 20//9
f  37//9 28//9 24//9
f  26//9 9//9 23//9
f  23//9 9//9 31//9
f  37//9 24//9 30//9
f  24//9 28//9 9//9
f  24//9 9//9 26//9

# Mesh 'mesh1_mesh1-geometry' with 13 faces
g mesh1_mesh1-geometry
usemtl material_3_24
f  37//5 19//5 21//5
f  22//2 11//2 10//2
f  19//5 37//5 36//5
f  11//2 22//2 31//2
f  24//7 14//7 25//7
f  14//7 24//7 26//7
f  52//4 48//4 49//4
f  39//7 40//7 41//7
f  48//4 52//4 55//4
f  40//7 39//7 42//7
f  65//4 66//4 62//4
f  66//4 69//4 63//4
f  69//4 66//4 65//4

# Mesh 'mesh1_mesh1-geometry' with 12 faces
g mesh1_mesh1-geometry
usemtl material_2_24
f  29//4 40//4 38//4
f  40//4 29//4 41//4
f  61//4 54//4 57//4
f  54//4 62//4 58//4
f  64//4 54//4 61//4
f  62//4 54//4 65//4
f  60//4 64//4 61//4
f  67//4 54//4 64//4
f  65//4 54//4 68//4
f  64//4 60//4 70//4
f  71//4 54//4 67//4
f  68//4 54//4 71//4

# Mesh 'mesh1_mesh1-geometry' with 6 faces
g mesh1_mesh1-geometry
usemtl material_6_24
f  53//4 47//4 50//4
f  47//4 53//4 51//4
f  59//4 63//4 56//4
f  63//4 59//4 66//4
f  73//4 71//4 67//4
f  71//4 73//4 74//4

# Mesh 'mesh1_mesh1-geometry' with 4 faces
g mesh1_mesh1-geometry
usemtl material_7_24
f  57//4 51//4 53//4
f  51//4 57//4 54//4
f  74//4 68//4 71//4
f  68//4 74//4 72//4

# Mesh 'mesh1_mesh1-geometry' with 10 faces
g mesh1_mesh1-geometry
usemtl material_8_24
f  56//4 55//4 52//4
f  55//4 56//4 60//4
f  66//4 58//4 62//4
f  58//4 66//4 59//4
f  60//4 56//4 63//4
f  60//4 63//4 69//4
f  60//4 69//4 72//4
f  60//4 73//4 70//4
f  60//4 72//4 74//4
f  60//4 74//4 73//4

# Mesh 'mesh1_mesh1-geometry' with 2 faces
g mesh1_mesh1-geometry
usemtl material_9_24
f  70//4 67//4 64//4
f  67//4 70//4 73//4

# Mesh 'mesh1_mesh1-geometry' with 2 faces
g mesh1_mesh1-geometry
usemtl material_10_24
f  72//4 65//4 68//4
f  65//4 72//4 69//4

