# File produced by Open Asset Import Library (http://www.assimp.sf.net)
# (assimp v3.2.202087883)

mtllib model_normalized.mtl

# 121 vertex positions
v 0.137508 -0.533336 -0.026991
v -0.194475 -0.502109 -0.026991
v 0.137508 -0.502109 -0.026991
v -0.225702 -0.533336 -0.026991
v 0.168735 -0.533336 -0.000632
v -0.194475 0.139586 -0.026991
v 0.083055 -0.533336 0.010665
v 0.137508 0.139586 -0.026991
v 0.083055 -0.533336 0.048320
v -0.225702 0.170813 -0.026991
v -0.225702 -0.533336 0.010665
v 0.137508 0.170813 -0.026991
v 0.168735 -0.533336 0.010665
v -0.225702 0.136601 -0.022650
v 0.083055 0.170813 0.010665
v -0.225702 0.136601 0.009357
v 0.168735 0.170813 -0.000632
v 0.434433 -0.533336 0.010665
v 0.168735 -0.496922 0.010665
v -0.225702 0.132459 -0.022104
v -0.225702 0.140743 -0.022104
v 0.083055 -0.502109 0.048320
v -0.225702 0.170813 0.010665
v -0.225702 0.132459 0.008812
v 0.168735 0.170813 0.010665
v 0.449022 -0.533336 0.048320
v 0.137508 0.139586 0.048320
v 0.137508 -0.502109 0.048320
v 0.083055 0.139586 0.048320
v 0.168735 0.136601 0.010665
v -0.225702 0.128599 -0.020505
v -0.225702 0.144602 -0.020505
v -0.225702 0.128599 0.007213
v -0.225702 0.140743 0.008812
v 0.449022 0.170813 0.048320
v 0.476122 -0.533336 0.010715
v 0.434433 -0.496922 0.010665
v -0.225702 0.125285 -0.017962
v -0.225702 0.147917 -0.017962
v 0.083055 0.170813 0.048320
v -0.225702 0.150460 0.001356
v -0.225702 0.125285 0.004670
v -0.225702 0.144602 0.007213
v 0.434433 0.136601 0.010665
v 0.477506 0.170813 0.021387
v 0.477506 -0.533336 0.021387
v -0.225702 0.122741 -0.014648
v -0.225702 0.150460 -0.014648
v -0.225702 0.147917 0.004670
v -0.225702 0.152059 -0.002504
v -0.225702 0.122741 0.001356
v 0.434433 0.170813 0.010665
v 0.476122 0.170813 0.010715
v -0.225702 0.121143 -0.010788
v -0.225702 0.152059 -0.010788
v -0.225702 0.152604 -0.006646
v -0.225702 0.121143 -0.002504
v -0.225702 0.120597 -0.006646
v -0.194475 -0.502109 -0.035463
v 0.137508 -0.502109 -0.035463
v -0.194475 0.139586 -0.011928
v 0.137508 0.139586 -0.035463
v -0.194475 0.139586 -0.035463
v -0.194475 -0.502109 -0.011928
v 0.083055 -0.502109 -0.011928
v -0.227585 0.136601 -0.022650
v -0.227585 0.140743 -0.022104
v 0.083055 0.139586 -0.011928
v -0.227585 0.132459 0.008812
v 0.197942 0.109913 0.010665
v -0.227585 0.132459 -0.022104
v -0.227585 0.144602 -0.020505
v -0.227585 0.136601 0.009357
v -0.227585 0.128599 0.007213
v 0.210179 0.097675 0.010665
v 0.198359 0.113080 0.010665
v 0.198359 0.106745 0.010665
v -0.227585 0.128599 -0.020505
v -0.227585 0.147917 -0.017962
v -0.227585 0.140743 0.008812
v -0.227585 0.125285 0.004670
v 0.213347 0.121734 0.010665
v 0.207012 0.098092 0.010665
v 0.213347 0.098092 0.010665
v 0.199581 0.116032 0.010665
v 0.222000 0.113080 0.010665
v 0.222000 0.106745 0.010665
v 0.199581 0.103794 0.010665
v -0.227585 0.122741 -0.014648
v -0.227585 0.125285 -0.017962
v -0.227585 0.150460 0.001356
v -0.227585 0.152059 -0.002504
v -0.227585 0.144602 0.007213
v 0.216298 0.120511 0.010665
v 0.210179 0.122151 0.010665
v 0.204061 0.099314 0.010665
v 0.216298 0.099314 0.010665
v 0.201526 0.118566 0.010665
v 0.220778 0.116032 0.010665
v 0.222417 0.109913 0.010665
v 0.220778 0.103794 0.010665
v 0.201526 0.101259 0.010665
v -0.227585 0.121143 -0.010788
v -0.227585 0.150460 -0.014648
v -0.227585 0.147917 0.004670
v -0.227585 0.152604 -0.006646
v -0.227585 0.122741 0.001356
v 0.218833 0.118566 0.010665
v 0.207012 0.121734 0.010665
v 0.218833 0.101259 0.010665
v 0.204061 0.120511 0.010665
v -0.227585 0.120597 -0.006646
v -0.227585 0.152059 -0.010788
v -0.227585 0.121143 -0.002504
v 0.168614 0.136601 0.010665
v 0.168614 -0.496922 0.010665
v 0.137708 0.139586 -0.035463
v -0.194475 -0.501449 -0.035463
v 0.137708 -0.501449 -0.035463
v 0.083055 0.170813 -0.011928
v 0.083055 -0.533336 -0.011928

# 4 UV coordinates
vt 0 0 0
vt 1 0 0
vt 0 1 0
vt 1 1 0

# 36 vertex normals
vn 0 0 -0.001
vn 0.000645024 0 -0.000764162
vn 0 -0.001 0
vn -0.001 0 0
vn 0 0 0.001
vn 0.001 0 0
vn 0 0.001 0
vn 0.000687039 0 0.000726621
vn 1.2e-06 0 -0.000999999
vn 0.00099169 0 -0.000128648
vn -0.000645024 0 0.000764162
vn 0 0.000258819 0.000965926
vn 0 -0.000258819 0.000965926
vn 0 0.000258819 -0.000965926
vn 0 0.0005 0.000866025
vn 0 -0.0005 0.000866025
vn 0 0.0005 -0.000866025
vn 0 -0.000258819 -0.000965926
vn -0.000687039 0 -0.000726621
vn -1.2e-06 0 0.000999999
vn 0 0.000707107 0.000707107
vn 0 -0.000707107 0.000707107
vn 0 0.000707107 -0.000707107
vn 0 -0.0005 -0.000866025
vn -0.00099169 0 0.000128648
vn 0 0.000866025 0.0005
vn 0 -0.000866025 0.0005
vn 0 -0.000866025 -0.0005
vn 0 -0.000707107 -0.000707107
vn 0 -0.000965926 -0.000258819
vn 0 0.000866025 -0.0005
vn 0 0.000965926 0.000258819
vn 0 -0.000965926 0.000258819
vn 0 0.000965926 -0.000258819
vn 0 0 -0.0254
vn 0 0 0.0254

# Mesh 'mesh1_mesh1-geometry' with 86 faces
g mesh1_mesh1-geometry
usemtl material_0_24
f  1/1/1 2/1/1 3/1/1
f  4/1/1 2/1/1 1/1/1
f  3/1/2 5/1/2 1/1/2
f  4/1/1 6/1/1 2/1/1
f  1/1/3 7/1/3 4/1/3
f  8/1/2 5/1/2 3/1/2
f  5/1/3 9/1/3 1/1/3
f  10/1/1 6/1/1 4/1/1
f  1/1/3 9/1/3 7/1/3
f  4/1/3 7/1/3 11/1/3
f  12/1/2 5/1/2 8/1/2
f  13/1/3 9/1/3 5/1/3
f  10/1/1 8/1/1 6/1/1
f  4/1/4 14/1/4 10/1/4
f  9/1/4 15/1/4 7/1/4
f  15/1/5 11/1/5 7/1/5
f  16/1/4 4/1/4 11/1/4
f  5/1/2 12/1/2 17/1/2
f  8/1/1 10/1/1 12/1/1
f  18/1/3 9/1/3 13/1/3
f  5/1/6 19/1/6 13/1/6
f  4/1/4 20/1/4 14/1/4
f  21/1/4 10/1/4 14/1/4
f  22/1/4 15/1/4 9/1/4
f  11/1/5 15/1/5 23/1/5
f  4/1/4 16/1/4 24/1/4
f  23/1/4 16/1/4 11/1/4
f  12/1/7 25/1/7 17/1/7
f  25/1/6 5/1/6 17/1/6
f  15/1/7 12/1/7 10/1/7
f  26/1/5 27/1/5 28/1/5
f  29/1/5 28/1/5 27/1/5
f  18/1/3 26/1/3 9/1/3
f  19/1/1 18/1/1 13/1/1
f  19/1/6 5/1/6 30/1/6
f  4/1/4 31/1/4 20/1/4
f  32/1/4 10/1/4 21/1/4
f  29/1/4 15/1/4 22/1/4
f  9/1/5 28/1/5 22/1/5
f  15/1/7 10/1/7 23/1/7
f  4/1/4 24/1/4 33/1/4
f  16/1/4 23/1/4 34/1/4
f  25/1/7 12/1/7 15/1/7
f  30/1/6 5/1/6 25/1/6
f  27/1/5 26/1/5 35/1/5
f  26/1/5 28/1/5 9/1/5
f  28/1/5 29/1/5 22/1/5
f  35/1/5 29/1/5 27/1/5
f  36/1/3 26/1/3 18/1/3
f  18/1/1 19/1/1 37/1/1
f  4/1/4 38/1/4 31/1/4
f  39/1/4 10/1/4 32/1/4
f  15/1/4 29/1/4 40/1/4
f  41/1/4 23/1/4 10/1/4
f  4/1/4 33/1/4 42/1/4
f  34/1/4 23/1/4 43/1/4
f  40/1/7 25/1/7 15/1/7
f  25/1/1 44/1/1 30/1/1
f  26/1/8 45/1/8 35/1/8
f  29/1/5 35/1/5 40/1/5
f  26/1/3 36/1/3 46/1/3
f  37/1/9 36/1/9 18/1/9
f  4/1/4 47/1/4 38/1/4
f  48/1/4 10/1/4 39/1/4
f  49/1/4 23/1/4 41/1/4
f  41/1/4 10/1/4 50/1/4
f  4/1/4 42/1/4 51/1/4
f  43/1/4 23/1/4 49/1/4
f  40/1/7 52/1/7 25/1/7
f  44/1/1 25/1/1 52/1/1
f  45/1/8 26/1/8 46/1/8
f  53/1/7 35/1/7 45/1/7
f  35/1/7 52/1/7 40/1/7
f  36/1/10 45/1/10 46/1/10
f  44/1/9 36/1/9 37/1/9
f  4/1/4 54/1/4 47/1/4
f  55/1/4 10/1/4 48/1/4
f  50/1/4 10/1/4 56/1/4
f  4/1/4 51/1/4 57/1/4
f  52/1/9 36/1/9 44/1/9
f  35/1/7 53/1/7 52/1/7
f  45/1/10 36/1/10 53/1/10
f  4/1/4 58/1/4 54/1/4
f  56/1/4 10/1/4 55/1/4
f  4/1/4 57/1/4 58/1/4
f  36/1/9 52/1/9 53/1/9

# Mesh 'mesh1_mesh1-geometry' with 230 faces
g mesh1_mesh1-geometry
usemtl material_1_24
f  3/1/5 2/1/5 1/1/5
f  1/1/5 2/1/5 4/1/5
f  3/1/7 59/1/7 2/1/7
f  1/1/11 5/1/11 3/1/11
f  2/1/5 6/1/5 4/1/5
f  4/1/7 7/1/7 1/1/7
f  59/1/7 3/1/7 60/1/7
f  59/1/6 6/1/6 2/1/6
f  3/1/11 5/1/11 8/1/11
f  1/1/7 9/1/7 5/1/7
f  4/1/5 6/1/5 10/1/5
f  61/1/6 2/1/6 6/1/6
f  6/1/4 2/1/4 61/1/4
f  7/1/7 9/1/7 1/1/7
f  11/1/7 7/1/7 4/1/7
f  3/1/4 62/1/4 60/1/4
f  60/1/5 63/1/5 59/1/5
f  59/1/1 63/1/1 60/1/1
f  6/1/6 59/1/6 63/1/6
f  8/1/11 5/1/11 12/1/11
f  62/1/4 3/1/4 8/1/4
f  28/1/4 8/1/4 3/1/4
f  3/1/6 8/1/6 28/1/6
f  5/1/7 9/1/7 13/1/7
f  6/1/5 8/1/5 10/1/5
f  10/1/6 14/1/6 4/1/6
f  2/1/6 61/1/6 64/1/6
f  64/1/4 61/1/4 2/1/4
f  7/1/6 15/1/6 9/1/6
f  7/1/1 11/1/1 15/1/1
f  11/1/6 4/1/6 16/1/6
f  63/1/5 60/1/5 62/1/5
f  62/1/1 60/1/1 63/1/1
f  62/1/3 6/1/3 63/1/3
f  17/1/11 12/1/11 5/1/11
f  12/1/5 10/1/5 8/1/5
f  6/1/3 62/1/3 8/1/3
f  8/1/4 28/1/4 27/1/4
f  27/1/6 28/1/6 8/1/6
f  13/1/7 9/1/7 18/1/7
f  13/1/4 19/1/4 5/1/4
f  14/1/6 20/1/6 4/1/6
f  14/1/6 10/1/6 21/1/6
f  65/1/5 61/1/5 64/1/5
f  64/1/1 61/1/1 65/1/1
f  9/1/6 15/1/6 22/1/6
f  23/1/1 15/1/1 11/1/1
f  24/1/6 16/1/6 4/1/6
f  11/1/6 16/1/6 23/1/6
f  17/1/3 25/1/3 12/1/3
f  17/1/4 5/1/4 25/1/4
f  10/1/3 12/1/3 15/1/3
f  28/1/1 27/1/1 26/1/1
f  27/1/1 28/1/1 29/1/1
f  9/1/7 26/1/7 18/1/7
f  13/1/5 18/1/5 19/1/5
f  30/1/4 5/1/4 19/1/4
f  20/1/6 31/1/6 4/1/6
f  14/1/5 66/1/5 20/1/12
f  21/1/6 10/1/6 32/1/6
f  21/1/13 67/1/13 14/1/5
f  61/1/5 65/1/5 68/1/5
f  68/1/1 65/1/1 61/1/1
f  22/1/6 15/1/6 29/1/6
f  22/1/1 28/1/1 9/1/1
f  23/1/3 10/1/3 15/1/3
f  24/1/14 69/1/14 16/1/1
f  33/1/6 24/1/6 4/1/6
f  34/1/6 23/1/6 16/1/6
f  15/1/3 12/1/3 25/1/3
f  25/1/4 5/1/4 30/1/4
f  35/1/1 26/1/1 27/1/1
f  9/1/1 28/1/1 26/1/1
f  22/1/1 29/1/1 28/1/1
f  27/1/1 29/1/1 35/1/1
f  18/1/7 26/1/7 36/1/7
f  37/1/5 19/1/5 18/1/5
f  19/1/5 70/1/5 30/1/5
f  31/1/6 38/1/6 4/1/6
f  20/1/12 71/1/12 31/1/15
f  71/1/12 20/1/12 66/1/5
f  66/1/5 14/1/5 67/1/13
f  32/1/6 10/1/6 39/1/6
f  32/1/16 72/1/16 21/1/13
f  67/1/13 21/1/13 72/1/16
f  40/1/6 29/1/6 15/1/6
f  10/1/6 23/1/6 41/1/6
f  73/1/1 16/1/1 69/1/14
f  69/1/14 24/1/14 74/1/17
f  33/1/17 74/1/17 24/1/14
f  42/1/6 33/1/6 4/1/6
f  43/1/6 23/1/6 34/1/6
f  16/1/1 73/1/1 34/1/18
f  15/1/3 25/1/3 40/1/3
f  30/1/5 44/1/5 25/1/5
f  35/1/19 45/1/19 26/1/19
f  40/1/1 35/1/1 29/1/1
f  46/1/7 36/1/7 26/1/7
f  18/1/20 36/1/20 37/1/20
f  37/1/5 75/1/5 19/1/5
f  76/1/5 30/1/5 70/1/5
f  77/1/5 70/1/5 19/1/5
f  38/1/6 47/1/6 4/1/6
f  31/1/15 78/1/15 38/1/21
f  78/1/15 31/1/15 71/1/12
f  66/1/6 67/1/6 71/1/6
f  39/1/6 10/1/6 48/1/6
f  39/1/22 79/1/22 32/1/16
f  72/1/16 32/1/16 79/1/22
f  67/1/6 72/1/6 78/1/6
f  41/1/6 23/1/6 49/1/6
f  50/1/6 10/1/6 41/1/6
f  73/1/6 69/1/6 80/1/6
f  74/1/6 80/1/6 69/1/6
f  74/1/17 33/1/17 81/1/23
f  42/1/23 81/1/23 33/1/17
f  51/1/6 42/1/6 4/1/6
f  49/1/6 23/1/6 43/1/6
f  34/1/18 80/1/18 43/1/24
f  80/1/18 34/1/18 73/1/1
f  25/1/3 52/1/3 40/1/3
f  52/1/5 25/1/5 44/1/5
f  30/1/5 82/1/5 44/1/5
f  46/1/19 26/1/19 45/1/19
f  45/1/3 35/1/3 53/1/3
f  40/1/3 52/1/3 35/1/3
f  46/1/25 45/1/25 36/1/25
f  37/1/20 36/1/20 44/1/20
f  75/1/5 83/1/5 19/1/5
f  75/1/5 37/1/5 84/1/5
f  85/1/5 30/1/5 76/1/5
f  70/1/5 86/1/5 76/1/5
f  77/1/5 87/1/5 70/1/5
f  88/1/5 77/1/5 19/1/5
f  47/1/6 54/1/6 4/1/6
f  47/1/26 38/1/21 89/1/26
f  90/1/21 38/1/21 78/1/15
f  71/1/6 67/1/6 78/1/6
f  48/1/6 10/1/6 55/1/6
f  39/1/22 48/1/27 79/1/22
f  72/1/6 79/1/6 78/1/6
f  41/1/28 49/1/29 91/1/28
f  56/1/6 10/1/6 50/1/6
f  50/1/30 41/1/28 92/1/30
f  93/1/6 80/1/6 74/1/6
f  81/1/6 93/1/6 74/1/6
f  42/1/23 51/1/31 81/1/23
f  57/1/6 51/1/6 4/1/6
f  43/1/24 93/1/24 49/1/29
f  93/1/24 43/1/24 80/1/18
f  44/1/20 36/1/20 52/1/20
f  94/1/5 44/1/5 82/1/5
f  95/1/5 82/1/5 30/1/5
f  52/1/3 53/1/3 35/1/3
f  53/1/25 36/1/25 45/1/25
f  37/1/5 44/1/5 86/1/5
f  83/1/5 96/1/5 19/1/5
f  75/1/5 84/1/5 83/1/5
f  84/1/5 37/1/5 97/1/5
f  98/1/5 30/1/5 85/1/5
f  76/1/5 99/1/5 85/1/5
f  86/1/5 99/1/5 76/1/5
f  100/1/5 86/1/5 70/1/5
f  87/1/5 100/1/5 70/1/5
f  101/1/5 87/1/5 77/1/5
f  88/1/5 101/1/5 77/1/5
f  102/1/5 88/1/5 19/1/5
f  54/1/6 58/1/6 4/1/6
f  54/1/32 47/1/26 103/1/32
f  90/1/21 89/1/26 38/1/21
f  89/1/26 103/1/32 47/1/26
f  78/1/6 79/1/6 90/1/6
f  55/1/6 10/1/6 56/1/6
f  48/1/27 55/1/33 104/1/27
f  104/1/27 79/1/22 48/1/27
f  105/1/29 91/1/28 49/1/29
f  91/1/28 92/1/30 41/1/28
f  56/1/3 50/1/30 106/1/3
f  92/1/30 106/1/3 50/1/30
f  105/1/6 93/1/6 81/1/6
f  107/1/31 81/1/23 51/1/31
f  51/1/31 57/1/34 107/1/31
f  58/1/6 57/1/6 4/1/6
f  105/1/29 49/1/29 93/1/24
f  53/1/20 52/1/20 36/1/20
f  108/1/5 44/1/5 94/1/5
f  94/1/5 82/1/5 109/1/5
f  95/1/5 109/1/5 82/1/5
f  95/1/5 30/1/5 109/1/5
f  86/1/5 44/1/5 99/1/5
f  100/1/5 37/1/5 86/1/5
f  96/1/5 102/1/5 19/1/5
f  83/1/5 84/1/5 96/1/5
f  97/1/5 37/1/5 110/1/5
f  84/1/5 97/1/5 96/1/5
f  111/1/5 30/1/5 98/1/5
f  85/1/5 108/1/5 98/1/5
f  99/1/5 108/1/5 85/1/5
f  87/1/5 37/1/5 100/1/5
f  101/1/5 37/1/5 87/1/5
f  102/1/5 101/1/5 88/1/5
f  58/1/7 54/1/32 112/1/7
f  103/1/32 112/1/7 54/1/32
f  90/1/6 79/1/6 89/1/6
f  89/1/6 104/1/6 103/1/6
f  55/1/33 56/1/3 113/1/33
f  113/1/33 104/1/27 55/1/33
f  79/1/6 104/1/6 89/1/6
f  91/1/6 105/1/6 107/1/6
f  92/1/6 91/1/6 114/1/6
f  106/1/3 113/1/33 56/1/3
f  106/1/6 92/1/6 112/1/6
f  107/1/6 105/1/6 81/1/6
f  114/1/34 107/1/31 57/1/34
f  57/1/34 58/1/7 114/1/34
f  99/1/5 44/1/5 108/1/5
f  108/1/5 94/1/5 111/1/5
f  111/1/5 94/1/5 109/1/5
f  109/1/5 30/1/5 111/1/5
f  96/1/5 110/1/5 102/1/5
f  110/1/5 37/1/5 101/1/5
f  97/1/5 110/1/5 96/1/5
f  98/1/5 108/1/5 111/1/5
f  110/1/5 101/1/5 102/1/5
f  112/1/7 114/1/34 58/1/7
f  103/1/6 113/1/6 112/1/6
f  104/1/6 113/1/6 103/1/6
f  114/1/6 91/1/6 107/1/6
f  112/1/6 92/1/6 114/1/6
f  113/1/6 106/1/6 112/1/6

# Mesh 'mesh1_mesh1-geometry' with 78 faces
g mesh1_mesh1-geometry
usemtl material_2_24
f  2/1/3 59/1/3 3/1/3
f  60/1/3 3/1/3 59/1/3
f  2/1/4 6/1/4 59/1/4
f  60/1/6 62/1/6 3/1/6
f  63/1/4 59/1/4 6/1/4
f  8/1/6 3/1/6 62/1/6
f  63/1/7 6/1/7 62/1/7
f  8/1/7 62/1/7 6/1/7
f  20/1/18 66/1/1 14/1/1
f  14/1/1 67/1/14 21/1/14
f  16/1/5 69/1/13 24/1/13
f  31/1/24 71/1/18 20/1/18
f  66/1/1 20/1/18 71/1/18
f  67/1/14 14/1/1 66/1/1
f  21/1/14 72/1/17 32/1/17
f  72/1/17 21/1/14 67/1/14
f  69/1/13 16/1/5 73/1/5
f  74/1/16 24/1/13 69/1/13
f  24/1/13 74/1/16 33/1/16
f  34/1/12 73/1/5 16/1/5
f  38/1/29 78/1/24 31/1/24
f  71/1/18 31/1/24 78/1/24
f  71/1/4 67/1/4 66/1/4
f  32/1/17 79/1/23 39/1/23
f  79/1/23 32/1/17 72/1/17
f  78/1/4 72/1/4 67/1/4
f  80/1/4 69/1/4 73/1/4
f  69/1/4 80/1/4 74/1/4
f  81/1/22 33/1/16 74/1/16
f  33/1/16 81/1/22 42/1/22
f  43/1/15 80/1/12 34/1/12
f  73/1/5 34/1/12 80/1/12
f  89/1/28 38/1/29 47/1/28
f  78/1/24 38/1/29 90/1/29
f  78/1/4 67/1/4 71/1/4
f  79/1/23 48/1/31 39/1/23
f  78/1/4 79/1/4 72/1/4
f  91/1/26 49/1/21 41/1/26
f  92/1/32 41/1/26 50/1/32
f  74/1/4 80/1/4 93/1/4
f  74/1/4 93/1/4 81/1/4
f  81/1/22 51/1/27 42/1/22
f  49/1/21 93/1/15 43/1/15
f  80/1/12 43/1/15 93/1/15
f  103/1/30 47/1/28 54/1/30
f  38/1/29 89/1/28 90/1/29
f  47/1/28 103/1/30 89/1/28
f  90/1/4 79/1/4 78/1/4
f  104/1/31 55/1/34 48/1/31
f  48/1/31 79/1/23 104/1/31
f  49/1/21 91/1/26 105/1/21
f  41/1/26 92/1/32 91/1/26
f  106/1/7 50/1/32 56/1/7
f  50/1/32 106/1/7 92/1/32
f  81/1/4 93/1/4 105/1/4
f  51/1/27 81/1/22 107/1/27
f  107/1/27 57/1/33 51/1/27
f  93/1/15 49/1/21 105/1/21
f  112/1/3 54/1/30 58/1/3
f  54/1/30 112/1/3 103/1/30
f  89/1/4 79/1/4 90/1/4
f  103/1/4 104/1/4 89/1/4
f  113/1/34 56/1/7 55/1/34
f  55/1/34 104/1/31 113/1/34
f  89/1/4 104/1/4 79/1/4
f  107/1/4 105/1/4 91/1/4
f  114/1/4 91/1/4 92/1/4
f  56/1/7 113/1/34 106/1/7
f  112/1/4 92/1/4 106/1/4
f  81/1/4 105/1/4 107/1/4
f  57/1/33 107/1/27 114/1/33
f  114/1/33 58/1/3 57/1/33
f  58/1/3 114/1/33 112/1/3
f  112/1/4 113/1/4 103/1/4
f  103/1/4 113/1/4 104/1/4
f  107/1/4 91/1/4 114/1/4
f  114/1/4 92/1/4 112/1/4
f  112/1/4 106/1/4 113/1/4

# Mesh 'mesh1_mesh1-geometry' with 50 faces
g mesh1_mesh1-geometry
usemtl material_3_24
f  30/1/1 70/1/1 19/1/1
f  19/1/1 75/1/1 37/1/1
f  70/1/1 30/1/1 76/1/1
f  19/1/1 70/1/1 77/1/1
f  44/1/1 82/1/1 30/1/1
f  19/1/1 83/1/1 75/1/1
f  84/1/1 37/1/1 75/1/1
f  76/1/1 30/1/1 85/1/1
f  76/1/1 86/1/1 70/1/1
f  70/1/1 87/1/1 77/1/1
f  19/1/1 77/1/1 88/1/1
f  82/1/1 44/1/1 94/1/1
f  30/1/1 82/1/1 95/1/1
f  86/1/1 44/1/1 37/1/1
f  19/1/1 96/1/1 83/1/1
f  83/1/1 84/1/1 75/1/1
f  97/1/1 37/1/1 84/1/1
f  85/1/1 30/1/1 98/1/1
f  85/1/1 99/1/1 76/1/1
f  76/1/1 99/1/1 86/1/1
f  70/1/1 86/1/1 100/1/1
f  70/1/1 100/1/1 87/1/1
f  77/1/1 87/1/1 101/1/1
f  77/1/1 101/1/1 88/1/1
f  19/1/1 88/1/1 102/1/1
f  94/1/1 44/1/1 108/1/1
f  109/1/1 82/1/1 94/1/1
f  82/1/1 109/1/1 95/1/1
f  109/1/1 30/1/1 95/1/1
f  99/1/1 44/1/1 86/1/1
f  86/1/1 37/1/1 100/1/1
f  19/1/1 102/1/1 96/1/1
f  96/1/1 84/1/1 83/1/1
f  110/1/1 37/1/1 97/1/1
f  96/1/1 97/1/1 84/1/1
f  98/1/1 30/1/1 111/1/1
f  98/1/1 108/1/1 85/1/1
f  85/1/1 108/1/1 99/1/1
f  100/1/1 37/1/1 87/1/1
f  87/1/1 37/1/1 101/1/1
f  88/1/1 101/1/1 102/1/1
f  108/1/1 44/1/1 99/1/1
f  111/1/1 94/1/1 108/1/1
f  109/1/1 94/1/1 111/1/1
f  111/1/1 30/1/1 109/1/1
f  102/1/1 110/1/1 96/1/1
f  101/1/1 37/1/1 110/1/1
f  96/1/1 110/1/1 97/1/1
f  111/1/1 108/1/1 98/1/1
f  102/1/1 101/1/1 110/1/1

# Mesh 'mesh1_mesh1-geometry' with 4 faces
g mesh1_mesh1-geometry
usemtl material_1_1_0
f  44/1/35 37/2/35 115/3/35
f  44/1/36 115/3/36 37/2/36
f  116/4/35 115/3/35 37/2/35
f  116/4/36 37/2/36 115/3/36

# Mesh 'mesh2_mesh2-geometry' with 4 faces
g mesh2_mesh2-geometry
usemtl material_1_2_0
f  63/1/35 117/2/35 118/3/35
f  63/1/36 118/3/36 117/2/36
f  119/4/35 118/3/35 117/2/35
f  119/4/36 117/2/36 118/3/36

# Mesh 'mesh3_mesh3-geometry' with 1 faces
g mesh3_mesh3-geometry
usemtl material_1_0
l  68 120

# Mesh 'mesh4_mesh4-geometry' with 1 faces
g mesh4_mesh4-geometry
usemtl material_1_0
l  65 121

