# File produced by Open Asset Import Library (http://www.assimp.sf.net)
# (assimp v3.2.202087883)

mtllib model_normalized.mtl

# 58 vertex positions
v -0.200396 0.159703 0.181393
v -0.194830 0.159703 0.175827
v -0.200396 0.159703 -0.219399
v 0.200396 0.159703 0.181393
v -0.194830 0.159703 -0.213833
v -0.200396 0.092904 0.181393
v 0.194830 0.159703 0.175827
v 0.200396 0.159703 -0.219399
v -0.194830 0.159703 0.159127
v -0.200396 0.092904 -0.219399
v 0.200396 0.092904 0.181393
v 0.194830 0.159703 0.159127
v 0.194830 0.426898 0.175827
v 0.194830 0.159703 -0.213833
v 0.200396 0.092904 -0.219399
v -0.194830 0.426898 0.159127
v -0.183697 0.092904 -0.202700
v -0.183697 0.092904 0.164693
v -0.194830 0.426898 0.175827
v 0.183697 0.092904 0.164693
v 0.194830 0.426898 0.159127
v 0.183697 0.092904 -0.202700
v -0.183697 0.115170 0.164693
v 0.183697 0.115170 -0.202700
v -0.183697 0.115170 -0.202700
v 0.183697 0.115170 0.164693
v -0.166997 0.115170 -0.186000
v -0.166997 0.115170 0.147994
v -0.133597 0.115170 0.147994
v 0.166997 0.115170 0.147994
v -0.133597 0.115170 -0.186000
v -0.166997 0.115170 -0.152601
v -0.166997 -0.396953 0.147994
v 0.133597 0.115170 0.147994
v 0.166997 0.115170 0.114594
v -0.133597 0.115170 -0.152601
v -0.133597 -0.396953 -0.186000
v -0.166997 -0.396953 -0.152601
v -0.166997 0.115170 0.114594
v -0.133597 -0.396953 0.147994
v 0.133597 0.115170 -0.186000
v 0.133597 -0.396953 0.147994
v 0.166997 0.115170 -0.152601
v 0.166997 -0.396953 0.114594
v -0.166997 -0.396953 -0.186000
v -0.133597 -0.396953 0.114594
v -0.166997 -0.396953 0.114594
v -0.133597 0.115170 0.114594
v 0.133597 0.115170 -0.152601
v 0.166997 -0.396953 0.147994
v 0.133597 0.115170 0.114594
v 0.166997 0.115170 -0.186000
v -0.133597 -0.396953 -0.152601
v 0.133597 -0.396953 -0.152601
v 0.133597 -0.396953 0.114594
v 0.166997 -0.396953 -0.186000
v 0.133597 -0.396953 -0.186000
v 0.166997 -0.396953 -0.152601

# 0 UV coordinates

# 6 vertex normals
vn 0 0.0254 0
vn -0 -0.0254 0
vn -0.0254 0 0
vn 0.0254 0 0
vn 0 0 0.0254
vn 0 0 -0.0254

# Mesh 'mesh1_mesh1-geometry' with 224 faces
g mesh1_mesh1-geometry
usemtl material_0_24
f  1//1 2//1 3//1
f  2//1 1//1 4//1
f  3//2 2//2 1//2
f  4//2 1//2 2//2
f  5//1 3//1 2//1
f  2//2 3//2 5//2
f  3//3 6//3 1//3
f  1//4 6//4 3//4
f  6//5 4//5 1//5
f  1//6 4//6 6//6
f  2//1 4//1 7//1
f  7//2 4//2 2//2
f  3//1 5//1 8//1
f  8//2 5//2 3//2
f  5//1 2//1 9//1
f  9//2 2//2 5//2
f  6//3 3//3 10//3
f  10//4 3//4 6//4
f  4//5 6//5 11//5
f  11//6 6//6 4//6
f  7//1 4//1 12//1
f  12//2 4//2 7//2
f  13//5 2//5 7//5
f  7//6 2//6 13//6
f  8//1 5//1 14//1
f  14//2 5//2 8//2
f  15//6 3//6 8//6
f  8//5 3//5 15//5
f  2//3 16//3 9//3
f  9//4 16//4 2//4
f  12//1 5//1 9//1
f  9//2 5//2 12//2
f  3//6 15//6 10//6
f  10//5 15//5 3//5
f  10//2 17//2 6//2
f  6//1 17//1 10//1
f  6//2 18//2 11//2
f  11//1 18//1 6//1
f  15//4 4//4 11//4
f  11//3 4//3 15//3
f  12//1 4//1 14//1
f  14//2 4//2 12//2
f  12//4 13//4 7//4
f  7//3 13//3 12//3
f  2//5 13//5 19//5
f  19//6 13//6 2//6
f  5//1 12//1 14//1
f  14//2 12//2 5//2
f  8//1 14//1 4//1
f  4//2 14//2 8//2
f  4//4 15//4 8//4
f  8//3 15//3 4//3
f  16//3 2//3 19//3
f  19//4 2//4 16//4
f  16//6 12//6 9//6
f  9//5 12//5 16//5
f  17//2 10//2 15//2
f  15//1 10//1 17//1
f  18//2 6//2 17//2
f  17//1 6//1 18//1
f  11//2 18//2 20//2
f  20//1 18//1 11//1
f  11//2 20//2 15//2
f  15//1 20//1 11//1
f  13//4 12//4 21//4
f  21//3 12//3 13//3
f  13//1 16//1 19//1
f  19//2 16//2 13//2
f  12//6 16//6 21//6
f  21//5 16//5 12//5
f  17//2 15//2 22//2
f  22//1 15//1 17//1
f  17//4 23//4 18//4
f  18//3 23//3 17//3
f  23//6 20//6 18//6
f  18//5 20//5 23//5
f  22//2 15//2 20//2
f  20//1 15//1 22//1
f  16//1 13//1 21//1
f  21//2 13//2 16//2
f  24//5 17//5 22//5
f  22//6 17//6 24//6
f  23//4 17//4 25//4
f  25//3 17//3 23//3
f  20//6 23//6 26//6
f  26//5 23//5 20//5
f  20//3 24//3 22//3
f  22//4 24//4 20//4
f  17//5 24//5 25//5
f  25//6 24//6 17//6
f  25//2 27//2 23//2
f  23//1 27//1 25//1
f  23//2 28//2 26//2
f  26//1 28//1 23//1
f  24//3 20//3 26//3
f  26//4 20//4 24//4
f  27//2 25//2 24//2
f  24//1 25//1 27//1
f  28//2 23//2 27//2
f  27//1 23//1 28//1
f  26//2 28//2 29//2
f  29//1 28//1 26//1
f  26//2 30//2 24//2
f  24//1 30//1 26//1
f  27//2 24//2 31//2
f  31//1 24//1 27//1
f  28//2 27//2 32//2
f  32//1 27//1 28//1
f  33//5 29//5 28//5
f  28//6 29//6 33//6
f  26//2 29//2 34//2
f  34//1 29//1 26//1
f  26//2 34//2 30//2
f  30//1 34//1 26//1
f  35//2 24//2 30//2
f  30//1 24//1 35//1
f  31//2 24//2 36//2
f  36//1 24//1 31//1
f  37//6 27//6 31//6
f  31//5 27//5 37//5
f  27//3 38//3 32//3
f  32//4 38//4 27//4
f  28//2 32//2 39//2
f  39//1 32//1 28//1
f  29//5 33//5 40//5
f  40//6 33//6 29//6
f  39//3 33//3 28//3
f  28//4 33//4 39//4
f  34//2 29//2 41//2
f  41//1 29//1 34//1
f  42//5 30//5 34//5
f  34//6 30//6 42//6
f  43//2 24//2 35//2
f  35//1 24//1 43//1
f  30//4 44//4 35//4
f  35//3 44//3 30//3
f  36//2 24//2 41//2
f  41//1 24//1 36//1
f  36//4 37//4 31//4
f  31//3 37//3 36//3
f  27//6 37//6 45//6
f  45//5 37//5 27//5
f  38//3 27//3 45//3
f  45//4 27//4 38//4
f  38//5 36//5 32//5
f  32//6 36//6 38//6
f  36//2 39//2 32//2
f  32//1 39//1 36//1
f  33//2 46//2 40//2
f  40//1 46//1 33//1
f  46//4 29//4 40//4
f  40//3 29//3 46//3
f  33//3 39//3 47//3
f  47//4 39//4 33//4
f  48//2 41//2 29//2
f  29//1 41//1 48//1
f  34//2 41//2 49//2
f  49//1 41//1 34//1
f  30//5 42//5 50//5
f  50//6 42//6 30//6
f  51//3 42//3 34//3
f  34//4 42//4 51//4
f  52//2 24//2 43//2
f  43//1 24//1 52//1
f  51//2 43//2 35//2
f  35//1 43//1 51//1
f  44//4 30//4 50//4
f  50//3 30//3 44//3
f  44//6 51//6 35//6
f  35//5 51//5 44//5
f  41//2 24//2 52//2
f  52//1 24//1 41//1
f  36//2 41//2 48//2
f  48//1 41//1 36//1
f  37//4 36//4 53//4
f  53//3 36//3 37//3
f  37//2 38//2 45//2
f  45//1 38//1 37//1
f  36//5 38//5 53//5
f  53//6 38//6 36//6
f  39//2 36//2 48//2
f  48//1 36//1 39//1
f  46//2 33//2 47//2
f  47//1 33//1 46//1
f  29//4 46//4 48//4
f  48//3 46//3 29//3
f  39//6 46//6 47//6
f  47//5 46//5 39//5
f  41//3 54//3 49//3
f  49//4 54//4 41//4
f  34//2 49//2 51//2
f  51//1 49//1 34//1
f  42//2 44//2 50//2
f  50//1 44//1 42//1
f  42//3 51//3 55//3
f  55//4 51//4 42//4
f  43//4 56//4 52//4
f  52//3 56//3 43//3
f  43//2 51//2 49//2
f  49//1 51//1 43//1
f  51//6 44//6 55//6
f  55//5 44//5 51//5
f  56//6 41//6 52//6
f  52//5 41//5 56//5
f  38//2 37//2 53//2
f  53//1 37//1 38//1
f  46//6 39//6 48//6
f  48//5 39//5 46//5
f  54//3 41//3 57//3
f  57//4 41//4 54//4
f  54//5 43//5 49//5
f  49//6 43//6 54//6
f  44//2 42//2 55//2
f  55//1 42//1 44//1
f  56//4 43//4 58//4
f  58//3 43//3 56//3
f  41//6 56//6 57//6
f  57//5 56//5 41//5
f  56//2 54//2 57//2
f  57//1 54//1 56//1
f  43//5 54//5 58//5
f  58//6 54//6 43//6
f  54//2 56//2 58//2
f  58//1 56//1 54//1

# Mesh 'mesh2_mesh2-geometry' with 12 faces
g mesh2_mesh2-geometry
usemtl material_0_0
l  28 29
l  39 28
l  28 33
l  29 48
l  29 40
l  48 39
l  39 47
l  47 33
l  33 40
l  48 46
l  40 46
l  46 47

# Mesh 'mesh3_mesh3-geometry' with 12 faces
g mesh3_mesh3-geometry
usemtl material_0_0
l  41 49
l  52 41
l  41 57
l  49 43
l  49 54
l  43 52
l  52 56
l  57 54
l  56 57
l  43 58
l  54 58
l  58 56

# Mesh 'mesh4_mesh4-geometry' with 12 faces
g mesh4_mesh4-geometry
usemtl material_0_0
l  34 51
l  34 30
l  34 42
l  51 35
l  51 55
l  30 35
l  30 50
l  42 55
l  42 50
l  35 44
l  55 44
l  50 44

# Mesh 'mesh5_mesh5-geometry' with 12 faces
g mesh5_mesh5-geometry
usemtl material_0_0
l  4 1
l  8 4
l  11 4
l  1 3
l  6 1
l  3 8
l  15 8
l  15 11
l  11 6
l  10 3
l  6 10
l  10 15

# Mesh 'mesh6_mesh6-geometry' with 12 faces
g mesh6_mesh6-geometry
usemtl material_0_0
l  24 26
l  25 24
l  24 22
l  26 20
l  26 23
l  23 25
l  25 17
l  22 20
l  17 22
l  20 18
l  23 18
l  18 17

# Mesh 'mesh7_mesh7-geometry' with 15 faces
g mesh7_mesh7-geometry
usemtl material_0_0
l  7 12
l  2 7
l  7 13
l  12 14
l  12 9
l  12 21
l  9 2
l  2 19
l  13 21
l  19 13
l  14 5
l  5 9
l  9 16
l  21 16
l  16 19

# Mesh 'mesh8_mesh8-geometry' with 12 faces
g mesh8_mesh8-geometry
usemtl material_0_0
l  32 36
l  27 32
l  32 38
l  31 36
l  36 53
l  31 27
l  27 45
l  38 53
l  45 38
l  31 37
l  37 53
l  37 45

