# File produced by Open Asset Import Library (http://www.assimp.sf.net)
# (assimp v3.2.202087883)

mtllib model_normalized.mtl

# 84 vertex positions
v -0.152396 0.004211 -0.217962
v -0.115449 -0.085154 -0.184379
v -0.138740 -0.085154 -0.135428
v -0.126801 0.004211 -0.273586
v 0.114120 -0.085154 -0.184379
v -0.173190 0.004211 -0.149907
v -0.087098 -0.085154 -0.225611
v 0.125473 0.004211 -0.273586
v 0.085770 -0.085154 -0.225611
v 0.137412 -0.085154 -0.135428
v -0.157662 -0.085154 -0.075540
v -0.106466 0.004211 -0.193203
v -0.095646 0.004211 -0.320442
v 0.094318 0.004211 -0.320442
v -0.000664 0.004211 -0.234656
v -0.180221 0.004211 -0.069122
v -0.059135 0.004211 -0.223231
v -0.125236 0.004211 -0.149452
v -0.060973 0.004211 -0.351180
v -0.055545 -0.085154 -0.252660
v 0.151068 0.004211 -0.217962
v 0.054217 -0.085154 -0.252660
v 0.156333 -0.085154 -0.075540
v -0.164061 -0.085154 -0.004449
v -0.106466 0.030776 -0.177701
v -0.125236 0.034246 -0.138041
v 0.057806 0.004211 -0.223231
v -0.059135 0.028394 -0.204923
v 0.059644 0.004211 -0.351180
v 0.162733 -0.085154 -0.004449
v -0.141689 -0.085154 0.469817
v -0.136829 0.004211 -0.027358
v -0.136829 0.043929 -0.027358
v -0.017259 0.004211 -0.366551
v 0.014437 -0.085154 -0.266187
v 0.105138 0.004211 -0.193203
v -0.000664 0.027488 -0.215282
v 0.171861 0.004211 -0.149907
v -0.155636 0.004211 0.469817
v -0.154235 0.004211 0.155946
v 0.105138 0.030776 -0.177701
v 0.123907 0.034246 -0.138041
v -0.000664 0.041565 -0.054382
v -0.015765 -0.085154 -0.266187
v 0.057806 0.028394 -0.204923
v 0.015931 0.004211 -0.366551
v 0.178893 0.004211 -0.069122
v 0.140360 -0.085154 0.469817
v 0.154308 0.004211 0.469817
v 0.135501 0.043929 -0.027358
v -0.000664 0.096885 0.001971
v -0.000664 0.004211 -0.368863
v -0.000664 -0.085154 -0.268221
v 0.123907 0.004211 -0.149452
v 0.083796 -0.085154 0.469817
v -0.071176 -0.071914 0.469817
v -0.141069 0.004211 0.444551
v -0.154235 0.096885 0.155946
v -0.139670 0.096885 0.027100
v 0.135501 0.004211 -0.027358
v 0.083796 -0.071914 0.469817
v -0.071176 -0.085154 0.469817
v 0.139741 0.004211 0.444551
v -0.154235 -0.065295 0.155946
v 0.152906 0.096885 0.155946
v 0.138341 0.096885 0.027100
v 0.152906 0.004211 0.155946
v 0.083796 -0.085154 0.526084
v -0.071176 -0.085154 0.526084
v -0.071176 -0.071914 0.526084
v 0.139741 -0.065295 0.444551
v -0.141069 -0.065295 0.444551
v 0.083796 -0.071914 0.526084
v 0.152906 -0.065295 0.155946
v 0.002646 0.179625 0.070136
v -0.000664 0.096885 0.045269
v -0.000664 0.179625 0.070136
v 0.007610 0.096885 0.045269
v -0.000664 0.096885 0.037400
v -0.000664 0.179625 0.072436
v -0.003974 0.179625 0.070136
v -0.000664 0.179625 0.067836
v -0.000664 0.096885 0.053138
v -0.008939 0.096885 0.045269

# 134 UV coordinates
vt -0.19166 -0.669452 0
vt -0.227898 -0.917412 0
vt -0.280717 -0.917412 0
vt -0.27397 0.115096 0
vt -0.22115 0.179724 0
vt -0.184912 0.077206 0
vt -0.131638 -0.669452 0
vt -0.12489 0.148225 0
vt -0.22115 0.816705 0
vt -0.265095 -0.669452 0
vt -0.258347 0.019513 0
vt -0.183407 -0.917412 0
vt -0.176659 0.258388 0
vt -0.12489 0.848204 0
vt -0.176659 0.73804 0
vt -0.27397 0.881332 0
vt -0.34534 -0.917412 0
vt -0.338592 0.062596 0
vt -0.211629 0.204647 0
vt -0.08108 -0.669452 0
vt -0.074332 0.234669 0
vt -0.074332 0.761759 0
vt -0.166898 0.498214 0
vt -0.352265 -0.669452 0
vt -0.345518 -0 0
vt -0.179227 0.335977 0
vt -0.258837 0.152569 0
vt -0.047911 -0.669452 0
vt -0.041164 0.330877 0
vt -0.147471 0.345938 0
vt -0.184912 0.919223 0
vt -0.154218 -0.917412 0
vt -0.147471 0.650491 0
vt -0.338592 0.933832 0
vt -0.42205 -0.917412 0
vt -0.415302 0.044839 0
vt -0.228355 0.204647 0
vt -0.27115 0.152569 0
vt -0.179227 0.660452 0
vt -0.198981 0.335977 0
vt -0.041164 0.665551 0
vt -0.415302 0.951589 0
vt -0.933804 -0.917412 0
vt -0.927056 0.889512 0
vt -0.345518 0.996429 0
vt -0.390582 0.1204 0
vt -0.031326 -0.669452 0
vt -0.024578 0.452169 0
vt -0.132875 0.540115 0
vt -0.211629 0.791781 0
vt -0.187804 0.498214 0
vt -0.139623 -0.917412 0
vt -0.258347 0.976915 0
vt -0.927056 0.106916 0
vt -0.933804 -0.669452 0
vt -0.927056 0.928212 0
vt -0.588375 0.072105 0
vt -0.228355 0.791781 0
vt -0.27115 0.84386 0
vt -0.361422 0.498214 0
vt -0.132875 0.456313 0
vt -0.198981 0.660452 0
vt -0.024578 0.544259 0
vt 0.177381 -0.46021 0
vt 0.496774 -0.212251 0
vt 0.162331 -0.212251 0
vt -0.927056 0.068216 0
vt 0.847798 0.342025 0
vt 0.649116 0.452229 0
vt 0.649116 0.342025 0
vt -0.390582 0.876028 0
vt -0.197257 0.390902 0
vt -0.273362 0.615068 0
vt -0.279287 0.380894 0
vt -0.028832 -0.669452 0
vt -0.022084 0.498214 0
vt -0.130681 0.498214 0
vt -0.258837 0.84386 0
vt -0.137429 -0.917412 0
vt -0.927056 0.732563 0
vt 0.253466 -0.423476 0
vt -0.927056 0.302565 0
vt -0.899793 0.108636 0
vt 0.847798 0.599168 0
vt -0.18988 0.615068 0
vt 0.481724 -0.46021 0
vt 0.420688 -0.423476 0
vt 0.420688 -0.46021 0
vt 0.253466 -0.46021 0
vt -0.899793 0.887793 0
vt -0.595123 -0.669452 0
vt -0.906541 -0.669452 0
vt -0.595123 -0.86231 0
vt -0.192949 0.593548 0
vt -0.192949 0.519295 0
vt -0.288649 0.593548 0
vt 0.707882 0.599368 0
vt -0.449344 0.112519 0
vt -0.449344 0.88391 0
vt -0.422229 0.498214 0
vt -0.588375 0.924323 0
vt 0.117664 -0.230574 0
vt 0.284886 -0.267309 0
vt 0.284886 -0.230574 0
vt -0.98777 0.732563 0
vt 0.117664 -0.267309 0
vt 0.98777 0.283215 0
vt 0.927056 0.713213 0
vt 0.927056 0.283215 0
vt -0.98777 0.302565 0
vt 0.481055 -0.212251 0
vt 0.481055 -0.405108 0
vt 0.178049 -0.212251 0
vt -0.906541 -0.86231 0
vt -0.192949 0.463606 0
vt -0.355011 0.599168 0
vt -0.156328 0.342025 0
vt -0.156328 0.452229 0
vt -0.215095 0.599368 0
vt -0.355011 0.342025 0
vt 0.98777 0.713213 0
vt 0.178049 -0.405108 0
vt -0.288649 0.463606 0
vt -0.288649 0.519296 0
vt 0.762319 0.879955 0
vt 0.738956 0.647703 0
vt 0.765739 0.877317 0
vt 0.730404 0.6543 0
vt 0.730465 0.647691 0
vt 0.768222 0.87732 0
vt 0.76916 0.874678 0
vt 0.763257 0.877313 0
vt 0.747447 0.647716 0
vt 0.747508 0.641107 0

# 133 vertex normals
vn -0.829374 -0.443201 -0.340165
vn -0.763387 -0.501174 -0.407512
vn -0.855659 -0.414558 -0.309822
vn 0.855659 0.414558 0.309822
vn 0.763387 0.501174 0.407512
vn 0.829374 0.443201 0.340165
vn -0.72872 -0.529054 -0.434821
vn 0.72872 0.529054 0.434821
vn 0 -1 0
vn 0 1 0
vn -0.916902 -0.338002 -0.21224
vn 0.916902 0.338002 0.21224
vn -0.596874 -0.609888 -0.521323
vn 0.596874 0.609888 0.521323
vn -0.945365 -0.288978 -0.150921
vn 0.945365 0.288978 0.150921
vn -0.602405 -0.607291 -0.517983
vn 0.602405 0.607291 0.517983
vn 0.596832 -0.609934 -0.521317
vn 0.725429 -0.531467 -0.437372
vn 0.590589 -0.613186 -0.524603
vn -0.590589 0.613186 0.524603
vn -0.725429 0.531467 0.437372
vn -0.596832 0.609934 0.521317
vn 0.766527 -0.498833 -0.404477
vn 0.827263 -0.445332 -0.342512
vn -0.827263 0.445332 0.342512
vn -0.766527 0.498833 0.404477
vn -0.980715 -0.194421 -0.019979
vn 0.980715 0.194421 0.019979
vn -0.410726 -0.685597 -0.60105
vn 0.410726 0.685597 0.60105
vn 0.408601 -0.686151 -0.601865
vn -0.408601 0.686151 0.601865
vn 0.857871 -0.412293 -0.306712
vn -0.857871 0.412293 0.306712
vn -0.981162 -0.192117 -0.020299
vn 0.981162 0.192117 0.020299
vn -0.783335 0.292478 -0.548492
vn -0.604647 0.433919 -0.667919
vn -0.346863 0.537511 -0.768614
vn -0.977763 0.063785 -0.199778
vn -0.937364 0.149342 -0.314716
vn -0.315201 -0.712051 -0.6274
vn 0.315201 0.712051 0.6274
vn -0.226092 0.600146 -0.767272
vn -0.043976 0.62725 -0.777575
vn 0.319612 -0.711027 -0.626329
vn -0.319612 0.711027 0.626329
vn 0.916371 -0.338896 -0.213103
vn -0.916371 0.338896 0.213103
vn -0.987696 -0.149518 0.045825
vn 0.987696 0.149518 -0.045825
vn -0.073462 -0.975708 0.206391
vn -0.180251 -0.735452 -0.653162
vn 0.180251 0.735452 0.653162
vn 0.141599 -0.84478 -0.51604
vn -0.141599 0.84478 0.51604
vn 0.051764 0.626989 -0.777306
vn 0.246555 0.597153 -0.763295
vn 0.946381 -0.28703 -0.148242
vn -0.946381 0.28703 0.148242
vn 0.977291 -0.20776 -0.041684
vn -0.977291 0.20776 0.041684
vn -0.987037 -0.15405 0.045027
vn 0.987037 0.15405 -0.045027
vn 0 0 0
vn 0 0.996195 -0.087156
vn -0.105694 -0.848237 -0.518963
vn 0.105694 0.848237 0.518963
vn 0.340606 0.537952 -0.7711
vn 0.70053 0.368299 -0.611239
vn 0.13637 -0.740952 -0.657566
vn -0.13637 0.740952 0.657566
vn 0.983872 -0.178856 0.002465
vn -0.983872 0.178856 -0.002465
vn 0 0 1
vn 0 0 -1
vn -0.995522 -0 -0.09453
vn 0.073462 0.975708 -0.206391
vn -0.12564 0.707952 -0.694995
vn 0 0.713607 -0.700547
vn -0.029812 -0.747349 -0.663763
vn 0.029812 0.747349 0.663763
vn 0.024272 -0.852112 -0.522797
vn -0.024272 0.852112 0.522797
vn 0.677114 0.370865 -0.63559
vn 0.987696 -0.149518 0.045825
vn -0.987696 0.149518 -0.045825
vn -0.994157 0.031061 -0.103374
vn 0.937364 0.149342 -0.314716
vn 0.977763 0.063785 -0.199778
vn 0.073462 -0.975708 0.206391
vn 0.12564 0.707952 -0.694995
vn 0.987037 -0.15405 0.045027
vn -0.987037 0.15405 -0.045027
vn 0.998961 0 -0.045571
vn -0.991754 0.062089 -0.11211
vn 1 0 0
vn -1 0 0
vn 0.994157 0.031061 -0.103374
vn -0.073462 0.975708 -0.206391
vn 0.991754 0.062089 -0.11211
vn 0.995522 0 -0.09453
vn -0.998961 0 -0.045571
vn 0.346863 -0.537511 0.768614
vn 0.604647 -0.433919 0.667919
vn 0.783335 -0.292478 0.548492
vn 0.937364 -0.149342 0.314716
vn 0.977763 -0.063785 0.199778
vn 0.043976 -0.62725 0.777575
vn 0.226092 -0.600146 0.767272
vn -0.246555 -0.597153 0.763295
vn -0.051764 -0.626989 0.777306
vn 0 -0.996195 0.087156
vn -0.70053 -0.368299 0.611239
vn -0.340606 -0.537952 0.7711
vn 0.995522 0 0.09453
vn 0 -0.713607 0.700547
vn 0.12564 -0.707952 0.694995
vn -0.677114 -0.370865 0.63559
vn 0.994157 -0.031061 0.103374
vn -0.937364 -0.149342 0.314716
vn -0.977763 -0.063785 0.199778
vn -0.12564 -0.707952 0.694995
vn -0.998961 0 0.045571
vn 0.991754 -0.062089 0.11211
vn -0.994157 -0.031061 0.103374
vn -0.991754 -0.062089 0.11211
vn -0.995522 0 0.09453
vn 0.998961 0 0.045571
vn 0 0.28783 -0.957682
vn 0 -0.28783 0.957682

# Mesh 'mesh1_mesh1-geometry' with 204 faces
g mesh1_mesh1-geometry
usemtl material_0_1_8
f  1/1/1 2/2/2 3/3/3
f  3/4/4 2/5/5 1/6/6
f  4/7/7 2/2/2 1/1/1
f  1/6/6 2/5/5 4/8/8
f  2/5/9 5/9/9 3/4/9
f  3/4/10 5/9/10 2/5/10
f  1/1/1 3/3/3 6/10/11
f  6/11/12 3/4/4 1/6/6
f  4/7/7 7/12/13 2/2/2
f  2/5/5 7/13/14 4/8/8
f  1/6/10 8/14/10 4/8/10
f  2/5/9 9/15/9 5/9/9
f  5/9/10 9/15/10 2/5/10
f  3/4/9 5/9/9 10/16/9
f  10/16/10 5/9/10 3/4/10
f  6/10/11 3/3/3 11/17/15
f  11/18/16 3/4/4 6/11/12
f  6/11/10 12/19/10 1/6/10
f  13/20/17 7/12/13 4/7/7
f  4/8/8 7/13/14 13/21/18
f  7/13/9 9/15/9 2/5/9
f  2/5/10 9/15/10 7/13/10
f  8/14/10 14/22/10 4/8/10
f  15/23/10 8/14/10 1/6/10
f  14/20/19 5/2/20 9/12/21
f  9/15/22 5/9/23 14/22/24
f  8/7/25 10/3/26 5/2/20
f  5/9/23 10/16/27 8/14/28
f  3/4/9 10/16/9 11/18/9
f  11/18/10 10/16/10 3/4/10
f  6/10/11 11/17/15 16/24/29
f  16/25/30 11/18/16 6/11/12
f  12/19/10 17/26/10 1/6/10
f  18/27/10 12/19/10 6/11/10
f  7/12/13 13/20/17 19/28/31
f  19/29/32 13/21/18 7/13/14
f  4/8/10 14/22/10 13/21/10
f  20/30/9 9/15/9 7/13/9
f  7/13/10 9/15/10 20/30/10
f  8/7/25 5/2/20 14/20/19
f  14/22/24 5/9/23 8/14/28
f  8/14/10 15/23/10 21/31/10
f  17/26/10 15/23/10 1/6/10
f  9/12/21 22/32/33 14/20/19
f  14/22/24 22/33/34 9/15/22
f  21/1/35 10/3/26 8/7/25
f  8/14/28 10/16/27 21/31/36
f  11/18/9 10/16/9 23/34/9
f  23/34/10 10/16/10 11/18/10
f  16/24/29 11/17/15 24/35/37
f  24/36/38 11/18/16 16/25/30
f  16/25/10 18/27/10 6/11/10
f  12/19/39 25/37/40 17/26/41
f  12/19/39 18/27/42 26/38/43
f  13/21/10 14/22/10 19/29/10
f  7/12/13 19/28/31 20/32/44
f  20/30/45 19/29/32 7/13/14
f  20/30/9 22/33/9 9/15/9
f  9/15/10 22/33/10 20/30/10
f  27/39/10 21/31/10 15/23/10
f  17/26/41 28/40/46 15/23/47
f  22/32/33 29/28/48 14/20/19
f  14/22/24 29/41/49 22/33/34
f  21/1/35 23/17/50 10/3/26
f  10/16/27 23/34/51 21/31/36
f  11/18/9 23/34/9 30/42/9
f  30/42/10 23/34/10 11/18/10
f  11/18/9 30/42/9 24/36/9
f  24/36/10 30/42/10 11/18/10
f  16/24/29 24/35/37 31/43/52
f  31/44/53 24/42/38 16/45/30
f  32/46/10 18/27/10 16/25/10
f  17/26/41 25/37/40 28/40/46
f  25/37/40 12/19/39 26/38/43
f  26/38/43 18/27/42 33/46/54
f  14/22/10 29/41/10 19/29/10
f  20/32/44 19/28/31 34/47/55
f  34/48/56 19/29/32 20/30/45
f  20/30/9 35/49/57 22/33/9
f  22/33/10 35/49/58 20/30/10
f  36/50/10 21/31/10 27/39/10
f  15/23/47 37/51/59 27/39/60
f  15/23/47 28/40/46 37/51/59
f  22/32/33 35/52/57 29/28/48
f  29/41/49 35/49/58 22/33/34
f  38/10/61 23/17/50 21/1/35
f  21/31/36 23/34/51 38/53/62
f  38/10/61 30/35/63 23/17/50
f  23/34/51 30/42/64 38/53/62
f  24/36/9 30/42/9 31/54/9
f  31/54/10 30/42/10 24/36/10
f  16/24/29 31/43/52 39/55/65
f  39/56/66 31/44/53 16/45/30
f  18/27/42 32/46/67 33/46/54
f  40/57/10 32/46/10 16/25/10
f  25/37/68 41/58/68 28/40/68
f  26/38/68 42/59/68 25/37/68
f  43/60/68 26/38/68 33/46/68
f  19/29/10 29/41/10 34/48/10
f  20/32/44 34/47/55 44/52/69
f  44/61/70 34/48/56 20/30/45
f  44/61/69 35/49/57 20/30/9
f  20/30/10 35/49/58 44/61/70
f  38/53/10 21/31/10 36/50/10
f  27/39/60 45/62/71 36/50/72
f  27/39/60 37/51/59 45/62/71
f  37/51/68 28/40/68 45/62/68
f  35/52/57 46/47/73 29/28/48
f  29/41/49 46/63/74 35/49/58
f  47/24/75 30/35/63 38/10/61
f  38/53/62 30/42/64 47/45/76
f  31/54/9 30/42/9 48/44/9
f  48/44/10 30/42/10 31/54/10
f  31/64/77 49/65/77 39/66/77
f  39/67/78 49/56/78 31/54/78
f  39/67/10 40/57/10 16/25/10
f  40/68/79 33/69/80 32/70/67
f  41/58/68 45/62/68 28/40/68
f  42/59/68 41/58/68 25/37/68
f  50/71/68 42/59/68 26/38/68
f  43/60/68 50/71/68 26/38/68
f  50/71/68 43/60/68 33/46/68
f  33/72/81 51/73/82 43/74/82
f  29/41/10 46/63/10 34/48/10
f  44/52/69 34/47/55 52/75/83
f  52/76/84 34/48/56 44/61/70
f  35/49/57 44/61/69 53/77/85
f  53/77/86 44/61/70 35/49/58
f  54/78/10 38/53/10 36/50/10
f  36/50/72 45/62/71 41/58/87
f  35/52/57 53/79/85 46/47/73
f  46/63/74 53/77/86 35/49/58
f  47/24/75 48/43/88 30/35/63
f  30/42/64 48/44/89 47/45/76
f  47/45/10 38/53/10 54/78/10
f  31/54/9 48/44/9 55/80/9
f  55/80/10 48/44/10 31/54/10
f  49/65/77 31/64/77 56/81/77
f  56/82/78 31/54/78 49/56/78
f  49/56/10 57/83/10 39/67/10
f  57/83/10 40/57/10 39/67/10
f  33/69/80 40/68/79 58/84/90
f  36/50/72 41/58/87 42/59/91
f  54/78/92 42/59/91 50/71/93
f  51/73/82 50/72/94 43/74/82
f  51/73/82 33/72/81 59/85/81
f  52/76/10 34/48/10 46/63/10
f  44/52/69 52/75/83 53/79/85
f  53/77/86 52/76/84 44/61/70
f  54/78/92 36/50/72 42/59/91
f  53/79/85 52/75/83 46/47/73
f  46/63/74 52/76/84 53/77/86
f  49/55/95 48/43/88 47/24/75
f  47/45/76 48/44/89 49/56/96
f  60/71/10 47/45/10 54/78/10
f  48/86/77 61/87/77 55/88/77
f  55/80/78 61/80/78 48/44/78
f  31/54/9 55/80/9 62/82/9
f  62/82/10 55/80/10 31/54/10
f  56/81/77 31/64/77 62/89/77
f  62/82/78 31/54/78 56/82/78
f  49/65/77 56/81/77 61/87/77
f  61/80/78 56/82/78 49/56/78
f  57/83/10 49/56/10 63/90/10
f  40/91/97 57/92/97 64/93/97
f  58/94/77 40/95/77 65/96/77
f  59/97/98 33/69/80 58/84/90
f  60/71/67 54/78/92 50/71/93
f  50/72/94 51/73/82 66/85/94
f  59/98/10 66/99/10 51/100/10
f  49/65/77 61/87/77 48/86/77
f  48/44/78 61/80/78 49/56/78
f  49/56/10 47/45/10 67/101/10
f  67/101/10 47/45/10 60/71/10
f  56/102/77 55/103/77 61/104/77
f  61/80/99 68/105/99 55/80/99
f  55/103/77 56/102/77 62/106/77
f  69/107/10 55/108/10 62/109/10
f  62/82/9 55/80/9 69/110/9
f  62/82/100 70/110/100 56/82/100
f  70/110/10 61/80/10 56/82/10
f  63/90/10 49/56/10 67/101/10
f  63/111/78 71/112/78 57/113/78
f  72/114/97 64/93/97 57/92/97
f  64/115/77 65/96/77 40/95/77
f  66/99/10 58/57/10 65/101/10
f  66/99/10 59/98/10 58/57/10
f  65/116/101 60/117/67 50/118/102
f  65/116/101 50/118/102 66/119/103
f  60/117/67 65/116/101 67/120/104
f  68/105/99 61/80/99 73/105/99
f  55/108/10 69/107/10 68/121/10
f  68/105/9 69/110/9 55/80/9
f  70/110/100 62/82/100 69/110/100
f  61/80/10 70/110/10 73/105/10
f  63/92/105 67/91/105 71/114/105
f  72/122/78 57/113/78 71/112/78
f  72/83/10 71/90/10 64/57/10
f  74/123/77 65/96/77 64/115/77
f  67/124/77 65/96/77 74/123/77
f  70/110/77 68/105/77 73/105/77
f  68/105/77 70/110/77 69/110/77
f  74/93/105 71/114/105 67/91/105
f  74/101/10 64/57/10 71/90/10

# Mesh 'mesh1_mesh1-geometry' with 90 faces
g mesh1_mesh1-geometry
usemtl material_1_24
f  4//9 8//9 1//9
f  1//9 12//9 6//9
f  4//9 14//9 8//9
f  1//9 8//9 15//9
f  1//9 17//9 12//9
f  6//9 12//9 18//9
f  13//9 14//9 4//9
f  21//9 15//9 8//9
f  1//9 15//9 17//9
f  6//9 18//9 16//9
f  17//106 25//107 12//108
f  26//109 18//110 12//108
f  19//9 14//9 13//9
f  15//9 21//9 27//9
f  15//111 28//112 17//106
f  16//9 18//9 32//9
f  28//112 25//107 17//106
f  26//109 12//108 25//107
f  33//80 18//110 26//109
f  19//9 29//9 14//9
f  27//9 21//9 36//9
f  27//113 37//114 15//111
f  37//114 28//112 15//111
f  33//80 32//67 18//110
f  16//9 32//9 40//9
f  28//115 41//115 25//115
f  25//115 42//115 26//115
f  33//115 26//115 43//115
f  34//9 29//9 19//9
f  36//9 21//9 38//9
f  36//116 45//117 27//113
f  45//117 37//114 27//113
f  45//115 28//115 37//115
f  16//9 40//9 39//9
f  32//67 33//54 40//118
f  28//115 45//115 41//115
f  25//115 41//115 42//115
f  26//115 42//115 50//115
f  26//115 50//115 43//115
f  33//115 43//115 50//115
f  43//119 51//119 33//120
f  34//9 46//9 29//9
f  36//9 38//9 54//9
f  41//121 45//117 36//116
f  54//9 38//9 47//9
f  39//9 57//9 49//9
f  39//9 40//9 57//9
f  58//122 40//118 33//54
f  42//123 41//121 36//116
f  50//102 42//123 54//124
f  43//119 50//125 51//119
f  59//120 33//120 51//119
f  46//9 34//9 52//9
f  42//123 36//116 54//124
f  54//9 47//9 60//9
f  63//9 49//9 57//9
f  64//126 57//126 40//126
f  65//78 40//78 58//78
f  58//122 33//54 59//127
f  50//102 54//124 60//67
f  66//125 51//119 50//125
f  51//9 66//9 59//9
f  67//9 47//9 49//9
f  60//9 47//9 67//9
f  61//78 55//78 56//78
f  55//100 68//100 61//100
f  62//78 56//78 55//78
f  56//99 70//99 62//99
f  56//9 61//9 70//9
f  67//9 49//9 63//9
f  57//77 71//77 63//77
f  57//126 64//126 72//126
f  40//78 65//78 64//78
f  65//9 58//9 66//9
f  58//9 59//9 66//9
f  50//93 60//67 65//128
f  66//129 50//93 65//128
f  67//130 65//128 60//67
f  73//100 61//100 68//100
f  69//99 62//99 70//99
f  73//9 70//9 61//9
f  71//131 67//131 63//131
f  71//77 57//77 72//77
f  64//9 71//9 72//9
f  64//78 65//78 74//78
f  74//78 65//78 67//78
f  73//78 68//78 70//78
f  69//78 70//78 68//78
f  67//131 71//131 74//131
f  71//9 64//9 74//9

# Mesh 'mesh2_mesh2-geometry' with 16 faces
g mesh2_mesh2-geometry
usemtl material_0_1_8
f  75/125/132 76/126/132 77/127/132
f  76/126/132 75/125/132 78/128/132
f  77/127/133 76/126/133 75/125/133
f  78/128/133 75/125/133 76/126/133
f  77/127/100 79/129/100 76/126/100
f  76/126/99 79/129/99 77/127/99
f  76/126/100 80/130/100 77/127/100
f  77/127/99 80/130/99 76/126/99
f  76/126/132 81/131/132 77/127/132
f  77/127/133 81/131/133 76/126/133
f  79/129/100 77/127/100 82/132/100
f  82/132/99 77/127/99 79/129/99
f  80/130/100 76/126/100 83/133/100
f  83/133/99 76/126/99 80/130/99
f  81/131/132 76/126/132 84/134/132
f  84/134/133 76/126/133 81/131/133

