# File produced by Open Asset Import Library (http://www.assimp.sf.net)
# (assimp v3.2.202087883)

mtllib model_normalized.mtl

# 35 vertex positions
v -0.399895 0.081807 -0.380867
v -0.198587 -0.044964 -0.380867
v -0.399895 -0.044964 -0.380867
v -0.153852 -0.044360 -0.380867
v -0.198587 -0.044964 0.058097
v -0.399895 -0.044964 0.281773
v -0.153852 0.081807 -0.380867
v -0.198587 -0.044964 0.013362
v -0.399895 0.081807 0.281773
v -0.366344 0.081807 -0.347315
v -0.153852 -0.044360 0.013362
v 0.304684 -0.044964 0.281773
v 0.338235 -0.044360 0.281773
v -0.366344 0.081807 0.248222
v -0.187403 0.081807 -0.347315
v -0.153852 0.081807 0.013362
v 0.304684 -0.044964 0.125200
v 0.338235 0.081807 0.281773
v -0.366344 -0.037021 -0.347315
v -0.187403 -0.037021 -0.347315
v 0.304684 -0.044360 0.013362
v 0.304684 -0.044964 0.059103
v 0.338235 0.081807 0.013362
v 0.304684 0.081807 0.248222
v -0.366344 -0.037021 0.248222
v -0.187403 0.081807 0.046914
v 0.287721 -0.044360 0.013362
v 0.304684 -0.044964 0.058097
v 0.338235 -0.044360 0.028381
v 0.304684 0.081807 0.046914
v 0.304684 -0.037021 0.248222
v -0.187403 -0.037021 0.046914
v 0.338235 -0.044360 0.013362
v 0.304684 -0.037021 0.046914
v 0.304684 -0.044360 0.281773

# 0 UV coordinates

# 6 vertex normals
vn 0 0 -0.0254
vn 0 0 0.0254
vn 0 -0.0254 0
vn 0 0.0254 0
vn -0.0254 0 -0
vn 0.0254 0 0

# Mesh 'mesh1_mesh1-geometry' with 104 faces
g mesh1_mesh1-geometry
usemtl material_0_24
f  1//1 2//1 3//1
f  2//1 1//1 4//1
f  3//2 2//2 1//2
f  4//2 1//2 2//2
f  5//3 3//3 2//3
f  2//4 3//4 5//4
f  6//5 1//5 3//5
f  3//6 1//6 6//6
f  4//1 1//1 7//1
f  7//2 1//2 4//2
f  5//3 6//3 3//3
f  3//4 6//4 5//4
f  8//3 5//3 2//3
f  2//4 5//4 8//4
f  1//5 6//5 9//5
f  9//6 6//6 1//6
f  1//4 10//4 7//4
f  7//3 10//3 1//3
f  7//6 11//6 4//6
f  4//5 11//5 7//5
f  6//3 5//3 12//3
f  12//4 5//4 6//4
f  6//2 13//2 9//2
f  9//1 13//1 6//1
f  9//4 14//4 1//4
f  1//3 14//3 9//3
f  10//4 1//4 14//4
f  14//3 1//3 10//3
f  7//4 10//4 15//4
f  15//3 10//3 7//3
f  11//6 7//6 16//6
f  16//5 7//5 11//5
f  12//3 5//3 17//3
f  17//4 5//4 12//4
f  13//2 6//2 12//2
f  12//1 6//1 13//1
f  9//2 13//2 18//2
f  18//1 13//1 9//1
f  14//4 9//4 18//4
f  18//3 9//3 14//3
f  14//6 19//6 10//6
f  10//5 19//5 14//5
f  10//2 20//2 15//2
f  15//1 20//1 10//1
f  15//4 16//4 7//4
f  7//3 16//3 15//3
f  21//1 11//1 16//1
f  16//2 11//2 21//2
f  5//3 22//3 17//3
f  17//4 22//4 5//4
f  13//6 23//6 18//6
f  18//5 23//5 13//5
f  14//4 18//4 24//4
f  24//3 18//3 14//3
f  19//6 14//6 25//6
f  25//5 14//5 19//5
f  20//2 10//2 19//2
f  19//1 10//1 20//1
f  20//5 26//5 15//5
f  15//6 26//6 20//6
f  26//4 16//4 15//4
f  15//3 16//3 26//3
f  11//1 21//1 27//1
f  27//2 21//2 11//2
f  21//1 16//1 23//1
f  23//2 16//2 21//2
f  22//3 5//3 28//3
f  28//4 5//4 22//4
f  23//6 13//6 29//6
f  29//5 13//5 23//5
f  23//4 30//4 18//4
f  18//3 30//3 23//3
f  24//4 18//4 30//4
f  30//3 18//3 24//3
f  31//1 14//1 24//1
f  24//2 14//2 31//2
f  14//1 31//1 25//1
f  25//2 31//2 14//2
f  25//4 32//4 19//4
f  19//3 32//3 25//3
f  20//4 19//4 32//4
f  32//3 19//3 20//3
f  26//5 20//5 32//5
f  32//6 20//6 26//6
f  16//4 26//4 30//4
f  30//3 26//3 16//3
f  16//4 30//4 23//4
f  23//3 30//3 16//3
f  23//1 33//1 21//1
f  21//2 33//2 23//2
f  23//6 29//6 33//6
f  33//5 29//5 23//5
f  34//5 24//5 30//5
f  30//6 24//6 34//6
f  24//5 34//5 31//5
f  31//6 34//6 24//6
f  32//4 25//4 31//4
f  31//3 25//3 32//3
f  34//2 26//2 32//2
f  32//1 26//1 34//1
f  26//2 34//2 30//2
f  30//1 34//1 26//1
f  32//4 31//4 34//4
f  34//3 31//3 32//3

# Mesh 'mesh2_mesh2-geometry' with 16 faces
g mesh2_mesh2-geometry
usemtl material_0_0
l  2 3
l  3 1
l  6 3
l  7 1
l  9 1
l  12 6
l  6 9
l  4 7
l  7 16
l  18 9
l  35 12
l  16 11
l  16 23
l  18 13
l  18 23
l  23 33

# Mesh 'mesh3_mesh3-geometry' with 18 faces
g mesh3_mesh3-geometry
usemtl material_0_0
l  24 30
l  24 31
l  14 24
l  30 34
l  30 26
l  31 34
l  25 31
l  10 14
l  14 25
l  34 32
l  15 26
l  26 32
l  19 25
l  10 15
l  10 19
l  20 32
l  15 20
l  19 20

