# File produced by Open Asset Import Library (http://www.assimp.sf.net)
# (assimp v3.2.202087883)

mtllib model_normalized.mtl

# 164 vertex positions
v 0.135994 -0.305245 -0.232531
v 0.073640 -0.305245 -0.217949
v 0.012445 -0.305245 -0.226003
v 0.194436 -0.305245 -0.187687
v 0.012445 -0.061198 -0.226003
v -0.146185 -0.305245 -0.232531
v 0.130656 -0.305245 -0.194330
v 0.073640 -0.061198 -0.217949
v -0.048742 -0.061198 -0.217949
v -0.078134 -0.305245 -0.260718
v -0.048742 -0.305245 -0.217949
v 0.179625 -0.305245 -0.156754
v 0.067936 -0.305245 -0.260718
v -0.204627 -0.305245 -0.187687
v 0.239280 -0.305245 -0.129246
v 0.130656 -0.061198 -0.194330
v -0.105765 -0.061198 -0.194330
v -0.005096 -0.305245 -0.270335
v -0.105765 -0.305245 -0.194330
v 0.217193 -0.305245 -0.107792
v 0.179625 -0.061198 -0.156754
v -0.154727 -0.305245 -0.156754
v 0.267467 -0.305245 -0.061194
v 0.217193 -0.061198 -0.107792
v -0.154727 -0.061198 -0.156754
v -0.249471 -0.305245 -0.129246
v 0.240813 -0.305245 -0.050769
v 0.240813 -0.061198 -0.050769
v -0.192295 -0.061198 -0.107792
v -0.192295 -0.305245 -0.107792
v 0.277084 -0.305245 0.011844
v -0.215914 -0.061198 -0.050769
v -0.277658 -0.305245 -0.061194
v 0.248866 -0.305245 0.010418
v 0.248866 -0.061198 0.010418
v -0.223976 -0.061198 0.010418
v -0.215914 -0.305245 -0.050769
v 0.240813 -0.305245 0.071613
v 0.267467 -0.305245 0.084876
v -0.223976 -0.305245 0.010418
v -0.287275 -0.305245 0.011844
v 0.217193 -0.305245 0.128629
v 0.240813 -0.061198 0.071613
v -0.215914 -0.305245 0.071613
v 0.239280 -0.305245 0.152934
v 0.217193 -0.061198 0.128629
v -0.215914 -0.061198 0.071613
v 0.179625 -0.305245 0.177591
v 0.179625 -0.061198 0.177591
v -0.192295 -0.061198 0.128629
v -0.192295 -0.305245 0.128629
v -0.277658 -0.305245 0.084876
v 0.194436 -0.305245 0.211376
v -0.154727 -0.061198 0.177591
v 0.130656 -0.305245 0.215166
v 0.130656 -0.061198 0.215166
v -0.154727 -0.305245 0.177591
v -0.249471 -0.305245 0.152934
v 0.135994 -0.305245 0.256220
v -0.105765 -0.061198 0.215166
v 0.073640 -0.305245 0.238786
v 0.073640 -0.061198 0.238786
v -0.105765 -0.305245 0.215166
v -0.204627 -0.305245 0.211376
v 0.012445 -0.305245 0.246839
v -0.048742 -0.061198 0.238786
v -0.146185 -0.305245 0.256220
v -0.078134 -0.305245 0.284407
v 0.067936 -0.305245 0.284407
v 0.012445 -0.061198 0.246839
v -0.048742 -0.305245 0.238786
v -0.005096 -0.305245 0.294024
v 0.194436 0.053199 -0.187687
v 0.135994 0.053199 -0.232531
v -0.078134 0.053199 -0.260718
v -0.204627 0.053199 -0.187687
v 0.239280 0.053199 -0.129246
v -0.146185 0.053199 -0.232531
v -0.005096 0.053199 -0.270335
v 0.067936 0.053199 -0.260718
v -0.249471 0.053199 -0.129246
v -0.250058 0.053199 -0.088795
v 0.267467 0.053199 -0.061194
v -0.257204 0.053199 -0.087857
v 0.239730 0.053199 -0.088924
v 0.259345 0.053199 -0.080802
v -0.277658 0.053199 -0.061194
v -0.263862 0.053199 -0.085096
v -0.250058 0.297247 -0.088795
v 0.232553 0.053199 -0.087979
v 0.246906 0.053199 -0.087979
v 0.253602 0.053199 -0.085210
v 0.263753 0.053199 -0.075059
v 0.259345 0.297247 -0.080802
v 0.277084 0.297247 0.011844
v -0.269574 0.053199 -0.080711
v -0.257204 0.297247 -0.087857
v -0.242912 0.297247 -0.087857
v -0.242912 0.053199 -0.087857
v 0.239730 0.297247 -0.088924
v 0.246906 0.297247 -0.087979
v 0.266522 0.053199 -0.068371
v 0.267467 0.297247 -0.061194
v -0.287275 0.297247 0.011844
v -0.273960 0.053199 -0.074991
v -0.277658 0.297247 -0.061194
v -0.263862 0.297247 -0.085096
v 0.225865 0.053199 -0.085210
v 0.232553 0.297247 -0.087979
v 0.253602 0.297247 -0.085210
v 0.220114 0.297247 -0.080802
v 0.213952 0.297247 0.002792
v 0.267467 0.297247 0.084876
v -0.276720 0.053199 -0.068333
v -0.269574 0.297247 -0.080711
v -0.236254 0.297247 -0.085096
v -0.236254 0.053199 -0.085096
v 0.225865 0.297247 -0.085210
v 0.215714 0.297247 -0.075059
v 0.211992 0.297247 -0.061194
v 0.197456 0.297247 0.064643
v -0.277658 0.297247 0.084876
v -0.222450 0.297247 -0.061194
v -0.230534 0.297247 -0.080711
v 0.220114 0.053199 -0.080802
v 0.215714 0.053199 -0.075059
v 0.212938 0.297247 -0.068371
v 0.211992 0.053199 -0.061194
v 0.213952 0.053199 0.002792
v 0.163900 0.297247 0.119157
v 0.239280 0.297247 0.152934
v -0.207914 0.297247 0.064643
v -0.223388 0.297247 -0.068333
v -0.224410 0.297247 0.002792
v -0.226149 0.297247 -0.074991
v -0.230534 0.053199 -0.080711
v 0.212938 0.053199 -0.068371
v 0.197456 0.053199 0.064643
v -0.249471 0.297247 0.152934
v -0.174358 0.297247 0.119157
v -0.222450 0.053199 -0.061194
v -0.224410 0.053199 0.002792
v -0.226149 0.053199 -0.074991
v -0.223388 0.053199 -0.068333
v 0.163900 0.053199 0.119157
v 0.116112 0.297247 0.161750
v 0.194436 0.297247 0.211376
v -0.207914 0.053199 0.064643
v -0.174358 0.053199 0.119157
v 0.116112 0.053199 0.161750
v 0.135994 0.297247 0.256220
v -0.204627 0.297247 0.211376
v -0.126570 0.297247 0.161750
v 0.058105 0.053199 0.188824
v 0.058105 0.297247 0.188824
v -0.146185 0.297247 0.256220
v -0.126570 0.053199 0.161750
v -0.068563 0.053199 0.188824
v -0.005225 0.297247 0.198106
v 0.067936 0.297247 0.284407
v -0.078134 0.297247 0.284407
v -0.068563 0.297247 0.188824
v -0.005225 0.053199 0.198106
v -0.005096 0.297247 0.294024

# 0 UV coordinates

# 62 vertex normals
vn 0 -1 0
vn -0.258819 0 0.965926
vn 0 0 1
vn 0.258819 0 0.965926
vn -0.5 0 0.866025
vn -0.707107 0 0.707107
vn 0.5 0 0.866025
vn -0.866025 0 0.5
vn 0.707107 0 0.707107
vn -0.965926 0 0.258819
vn 0.866025 0 0.5
vn -1 0 0
vn 0.965926 0 0.258819
vn 1 0 0
vn -0.965926 0 -0.258819
vn 0.965926 0 -0.258819
vn -0.866025 0 -0.5
vn -0.707107 0 -0.707107
vn 0.866025 0 -0.5
vn -0.5 0 -0.866025
vn 0.707107 0 -0.707107
vn 0.5 0 -0.866025
vn -0.258819 0 -0.965926
vn 0.258819 0 -0.965926
vn 0 0 -1
vn 0 1 0
vn -0.92388 0 0.382683
vn 0.92388 0 0.382683
vn -0.608761 0 0.793353
vn -0.991445 0 0.130526
vn 0.608761 0 0.793353
vn 0.991445 0 0.130526
vn 0.999533 0 -0.030561
vn 0.993393 0 0.11476
vn 0.918641 0 0.395094
vn 0.766562 0 0.64217
vn -0.993393 0 0.11476
vn -0.999533 0 -0.030561
vn -0.918641 0 0.395094
vn -0.766562 0 0.64217
vn 0.549957 0 0.835193
vn -0.549957 0 0.835193
vn 0.28706 0 0.957912
vn -0.28706 0 0.957912
vn 0.92388 0 -0.382683
vn -0.92388 0 -0.382683
vn 0.991445 0 -0.130526
vn -0.991445 0 -0.130526
vn 0.608761 0 -0.793353
vn -0.608761 -0 -0.793353
vn -0.999533 0 0.030561
vn -0.993393 0 -0.11476
vn -0.918641 0 -0.395094
vn -0.766562 0 -0.64217
vn 0.993393 0 -0.11476
vn 0.999533 0 0.030561
vn 0.918641 0 -0.395094
vn 0.766562 0 -0.64217
vn -0.549957 0 -0.835193
vn 0.549957 0 -0.835193
vn -0.28706 0 -0.957912
vn 0.28706 0 -0.957912

# Mesh 'mesh1_mesh1-geometry' with 118 faces
g mesh1_mesh1-geometry
usemtl material_0_24
f  1//1 2//1 3//1
f  2//1 1//1 4//1
f  2//2 5//3 3//3
f  6//1 1//1 3//1
f  2//1 4//1 7//1
f  5//3 2//2 8//2
f  9//4 3//3 5//3
f  10//1 1//1 6//1
f  6//1 3//1 11//1
f  7//1 4//1 12//1
f  7//5 8//2 2//2
f  8//1 9//1 5//1
f  3//3 9//4 11//4
f  10//1 13//1 1//1
f  6//1 11//1 14//1
f  12//1 4//1 15//1
f  12//6 16//5 7//5
f  8//2 7//5 16//5
f  9//1 8//1 17//1
f  17//7 11//4 9//4
f  13//1 10//1 18//1
f  14//1 11//1 19//1
f  12//1 15//1 20//1
f  16//5 12//6 21//6
f  17//1 8//1 16//1
f  11//4 17//7 19//7
f  14//1 19//1 22//1
f  20//1 15//1 23//1
f  24//8 12//6 20//8
f  12//6 24//8 21//6
f  25//1 16//1 21//1
f  17//1 16//1 25//1
f  25//9 19//7 17//7
f  19//7 25//9 22//9
f  14//1 22//1 26//1
f  20//1 23//1 27//1
f  20//8 28//10 24//8
f  29//1 21//1 24//1
f  25//1 21//1 29//1
f  25//9 30//11 22//9
f  26//1 22//1 30//1
f  27//1 23//1 31//1
f  28//10 20//8 27//10
f  32//1 24//1 28//1
f  29//1 24//1 32//1
f  30//11 25//9 29//11
f  26//1 30//1 33//1
f  27//1 31//1 34//1
f  27//10 35//12 28//10
f  32//1 28//1 36//1
f  37//13 29//11 32//13
f  29//11 37//13 30//11
f  33//1 30//1 37//1
f  38//1 31//1 39//1
f  34//1 31//1 38//1
f  35//12 27//10 34//12
f  36//1 28//1 35//1
f  40//14 32//13 36//14
f  32//13 40//14 37//13
f  33//1 37//1 41//1
f  38//1 39//1 42//1
f  43//15 34//12 38//15
f  34//12 43//15 35//12
f  36//1 35//1 43//1
f  36//14 44//16 40//14
f  41//1 37//1 40//1
f  42//1 39//1 45//1
f  46//17 38//15 42//17
f  38//15 46//17 43//15
f  36//1 43//1 47//1
f  44//16 36//14 47//16
f  41//1 40//1 44//1
f  42//1 45//1 48//1
f  42//17 49//18 46//17
f  50//1 43//1 46//1
f  47//1 43//1 50//1
f  47//16 51//19 44//16
f  41//1 44//1 52//1
f  48//1 45//1 53//1
f  49//18 42//17 48//18
f  54//1 46//1 49//1
f  50//1 46//1 54//1
f  51//19 47//16 50//19
f  52//1 44//1 51//1
f  48//1 53//1 55//1
f  55//20 49//18 48//18
f  54//1 49//1 56//1
f  57//21 50//19 54//21
f  50//19 57//21 51//19
f  52//1 51//1 58//1
f  55//1 53//1 59//1
f  49//18 55//20 56//20
f  54//1 56//1 60//1
f  60//22 57//21 54//21
f  58//1 51//1 57//1
f  55//1 59//1 61//1
f  61//23 56//20 55//20
f  60//1 56//1 62//1
f  57//21 60//22 63//22
f  58//1 57//1 64//1
f  61//1 59//1 65//1
f  56//20 61//23 62//23
f  60//1 62//1 66//1
f  66//24 63//22 60//22
f  64//1 57//1 63//1
f  64//1 63//1 67//1
f  68//1 59//1 69//1
f  65//1 59//1 67//1
f  65//25 62//23 61//23
f  66//1 62//1 70//1
f  63//22 66//24 71//24
f  67//1 63//1 71//1
f  67//1 59//1 68//1
f  68//1 69//1 72//1
f  67//1 71//1 65//1
f  62//23 65//25 70//25
f  70//25 71//24 66//24
f  71//24 70//25 65//25

# Mesh 'mesh1_mesh1-geometry' with 324 faces
g mesh1_mesh1-geometry
usemtl material_1_24
f  3//26 2//26 1//26
f  4//26 1//26 2//26
f  3//25 5//25 2//24
f  3//26 1//26 6//26
f  4//6 73//6 1//5
f  7//26 4//26 2//26
f  8//24 2//24 5//25
f  5//25 3//25 9//23
f  6//26 1//26 10//26
f  11//26 3//26 6//26
f  74//5 1//5 73//6
f  4//6 15//8 73//6
f  12//26 4//26 7//26
f  2//24 8//24 7//22
f  5//26 9//26 8//26
f  11//23 9//23 3//25
f  1//26 13//26 10//26
f  10//4 75//4 6//7
f  14//26 11//26 6//26
f  1//5 74//5 13//2
f  73//1 76//1 74//1
f  77//8 73//6 15//8
f  15//26 4//26 12//26
f  7//22 16//22 12//21
f  16//22 7//22 8//24
f  17//26 8//26 9//26
f  9//23 11//23 17//20
f  18//26 10//26 13//26
f  78//7 6//7 75//4
f  75//4 10//4 79//3
f  19//26 11//26 14//26
f  6//7 78//7 14//9
f  80//2 13//2 74//5
f  76//1 78//1 74//1
f  81//1 76//1 73//1
f  77//1 81//1 73//1
f  15//8 23//10 77//8
f  20//26 15//26 12//26
f  21//21 12//21 16//22
f  16//26 8//26 17//26
f  19//20 17//20 11//23
f  18//3 79//3 10//4
f  13//2 80//2 18//3
f  78//1 75//1 80//1
f  79//1 80//1 75//1
f  22//26 19//26 14//26
f  76//9 14//9 78//7
f  74//1 78//1 80//1
f  76//9 81//11 14//9
f  82//1 81//1 77//1
f  83//10 77//8 23//10
f  23//26 15//26 20//26
f  20//19 12//21 24//19
f  21//21 24//19 12//21
f  21//26 16//26 25//26
f  25//26 16//26 17//26
f  17//20 19//20 25//18
f  79//3 18//3 80//2
f  22//18 25//18 19//20
f  26//26 22//26 14//26
f  26//11 14//9 81//11
f  84//1 81//1 82//1
f  85//1 82//1 77//1
f  86//27 77//8 83//10
f  23//10 31//12 83//10
f  27//26 23//26 20//26
f  24//19 28//16 20//19
f  24//26 21//26 29//26
f  29//26 21//26 25//26
f  22//18 30//17 25//18
f  30//26 22//26 26//26
f  81//11 87//13 26//11
f  88//1 81//1 84//1
f  82//3 89//3 84//4
f  85//1 90//1 82//1
f  85//1 77//1 91//1
f  86//1 92//1 77//1
f  83//26 93//26 86//26
f  86//1 93//1 83//1
f  86//27 83//27 94//27
f  95//12 83//10 31//12
f  31//26 23//26 27//26
f  27//16 20//19 28//16
f  28//26 24//26 32//26
f  32//26 24//26 29//26
f  29//17 25//18 30//17
f  33//26 30//26 26//26
f  33//13 26//11 87//13
f  96//28 87//13 81//11
f  96//1 81//1 88//1
f  84//4 97//4 88//7
f  97//4 84//4 89//3
f  89//3 82//3 98//2
f  99//1 82//1 90//1
f  85//3 100//3 90//4
f  91//1 77//1 92//1
f  91//2 101//2 85//3
f  86//29 94//29 92//5
f  93//26 83//26 102//26
f  102//1 83//1 93//1
f  103//27 94//27 83//27
f  103//30 83//10 95//12
f  31//12 39//15 95//12
f  34//26 31//26 27//26
f  28//16 35//14 27//16
f  36//26 28//26 32//26
f  32//15 29//17 37//15
f  30//17 37//15 29//17
f  37//26 30//26 33//26
f  87//13 104//14 33//13
f  105//26 87//26 96//26
f  96//1 87//1 105//1
f  87//28 96//28 106//28
f  88//7 107//7 96//31
f  107//7 88//7 97//4
f  89//1 98//1 97//1
f  99//2 98//2 82//3
f  108//1 99//1 90//1
f  109//4 90//4 100//3
f  100//3 85//3 101//2
f  92//5 110//5 91//2
f  101//2 91//2 110//5
f  110//5 92//5 94//29
f  103//1 111//1 94//1
f  95//1 112//1 103//1
f  113//15 95//12 39//15
f  39//26 31//26 38//26
f  38//26 31//26 34//26
f  34//14 27//16 35//14
f  35//26 28//26 36//26
f  36//12 32//15 40//12
f  37//15 40//12 32//15
f  41//26 37//26 33//26
f  41//14 33//13 104//14
f  106//32 104//14 87//13
f  87//26 105//26 114//26
f  114//1 105//1 87//1
f  115//28 106//28 96//28
f  115//31 96//31 107//7
f  107//1 97//1 98//1
f  98//2 99//2 116//5
f  117//1 99//1 108//1
f  90//4 109//4 108//7
f  100//1 101//1 109//1
f  110//1 109//1 101//1
f  94//1 118//1 110//1
f  111//1 118//1 94//1
f  119//1 111//1 103//1
f  112//1 120//1 103//1
f  121//1 112//1 95//1
f  113//1 121//1 95//1
f  39//15 45//17 113//15
f  42//26 39//26 38//26
f  38//13 34//14 43//13
f  35//14 43//13 34//14
f  43//26 35//26 36//26
f  40//12 44//10 36//12
f  40//26 37//26 41//26
f  104//14 122//16 41//14
f  104//1 106//1 123//1
f  106//1 115//1 124//1
f  115//1 107//1 116//1
f  116//1 107//1 98//1
f  117//5 116//5 99//2
f  125//1 117//1 108//1
f  118//7 108//7 109//4
f  118//1 109//1 110//1
f  111//9 125//9 118//7
f  119//11 126//11 111//9
f  127//1 119//1 103//1
f  120//1 127//1 103//1
f  120//33 112//34 128//33
f  112//34 121//35 129//34
f  130//1 121//1 113//1
f  131//17 113//15 45//17
f  45//26 39//26 42//26
f  42//11 38//13 46//11
f  43//13 46//11 38//13
f  47//26 43//26 36//26
f  47//10 36//12 44//10
f  44//26 40//26 41//26
f  52//16 41//14 122//16
f  122//1 104//1 132//1
f  123//1 106//1 133//1
f  134//1 104//1 123//1
f  124//1 115//1 116//1
f  135//1 106//1 124//1
f  116//5 117//5 124//6
f  136//1 117//1 125//1
f  108//7 118//7 125//9
f  125//9 111//9 126//11
f  119//11 127//13 126//11
f  127//13 120//32 137//13
f  129//34 128//33 112//34
f  128//32 137//13 120//32
f  138//35 129//34 121//35
f  121//35 130//36 138//35
f  131//1 130//1 113//1
f  45//17 53//18 131//17
f  48//26 45//26 42//26
f  46//11 49//9 42//11
f  46//26 43//26 50//26
f  50//26 43//26 47//26
f  44//10 51//8 47//10
f  52//26 44//26 41//26
f  122//16 139//19 52//16
f  132//1 104//1 134//1
f  140//1 122//1 132//1
f  133//1 106//1 135//1
f  123//30 133//10 141//30
f  134//37 123//38 142//37
f  135//8 124//6 143//8
f  136//6 124//6 117//5
f  126//1 136//1 125//1
f  137//13 126//11 127//13
f  129//1 141//1 128//1
f  128//1 144//1 137//1
f  138//1 142//1 129//1
f  145//36 138//35 130//36
f  146//1 130//1 131//1
f  147//18 131//17 53//18
f  53//26 45//26 48//26
f  48//9 42//11 49//9
f  49//26 46//26 54//26
f  54//26 46//26 50//26
f  50//8 47//10 51//8
f  51//26 44//26 52//26
f  58//19 52//16 139//19
f  139//1 122//1 140//1
f  132//39 134//37 148//39
f  140//40 132//39 149//40
f  133//10 135//8 144//10
f  144//10 141//30 133//10
f  141//38 142//37 123//38
f  142//37 148//39 134//37
f  136//6 143//8 124//6
f  143//8 144//10 135//8
f  143//1 136//1 126//1
f  137//1 143//1 126//1
f  141//1 144//1 128//1
f  142//1 141//1 129//1
f  144//1 143//1 137//1
f  148//1 142//1 138//1
f  145//1 148//1 138//1
f  145//36 130//36 150//41
f  146//41 150//41 130//36
f  147//1 146//1 131//1
f  147//18 53//18 151//20
f  55//26 53//26 48//26
f  48//9 49//9 55//7
f  56//26 49//26 54//26
f  54//6 50//8 57//6
f  51//8 57//6 50//8
f  58//26 51//26 52//26
f  139//19 152//21 58//19
f  153//1 139//1 140//1
f  148//39 149//40 132//39
f  140//40 149//40 153//42
f  149//1 148//1 145//1
f  150//1 149//1 145//1
f  150//41 146//41 154//43
f  155//1 146//1 147//1
f  59//20 151//20 53//18
f  151//1 156//1 147//1
f  59//26 53//26 55//26
f  56//7 55//7 49//9
f  60//26 56//26 54//26
f  54//6 57//6 60//5
f  57//26 51//26 58//26
f  64//21 58//19 152//21
f  152//1 139//1 153//1
f  157//42 153//42 149//40
f  157//1 149//1 150//1
f  155//43 154//43 146//41
f  154//1 158//1 150//1
f  159//1 155//1 147//1
f  151//20 59//20 160//23
f  156//1 152//1 147//1
f  161//1 156//1 151//1
f  61//26 59//26 55//26
f  55//7 56//7 61//4
f  62//26 56//26 60//26
f  63//5 60//5 57//6
f  64//26 57//26 58//26
f  64//21 152//21 67//22
f  162//1 152//1 153//1
f  153//42 157//42 162//44
f  158//1 157//1 150//1
f  154//43 155//43 163//3
f  163//1 158//1 154//1
f  159//3 163//3 155//43
f  152//1 159//1 147//1
f  69//23 160//23 59//20
f  160//1 161//1 151//1
f  156//22 67//22 152//21
f  161//24 68//24 156//22
f  65//26 59//26 61//26
f  62//4 61//4 56//7
f  66//26 62//26 60//26
f  60//5 63//5 66//2
f  63//26 57//26 64//26
f  67//26 63//26 64//26
f  159//1 152//1 162//1
f  158//44 162//44 157//42
f  163//3 159//3 158//44
f  160//23 69//23 164//25
f  69//26 59//26 68//26
f  164//1 161//1 160//1
f  67//22 156//22 68//24
f  68//24 161//24 72//25
f  67//26 59//26 65//26
f  61//4 62//4 65//3
f  70//26 62//26 66//26
f  71//2 66//2 63//5
f  71//26 63//26 67//26
f  162//44 158//44 159//3
f  72//25 164//25 69//23
f  68//26 59//26 67//26
f  72//26 69//26 68//26
f  164//25 72//25 161//24
f  65//26 71//26 67//26
f  70//3 65//3 62//4
f  66//2 71//2 70//3
f  65//3 70//3 71//2

# Mesh 'mesh1_mesh1-geometry' with 52 faces
g mesh1_mesh1-geometry
usemtl material_3_24
f  1//22 73//21 4//21
f  73//21 1//22 74//22
f  73//21 15//19 4//21
f  6//20 75//23 10//23
f  13//24 74//22 1//22
f  15//19 73//21 77//19
f  75//23 6//20 78//20
f  79//25 10//23 75//23
f  14//18 78//20 6//20
f  74//22 13//24 80//24
f  77//19 23//16 15//19
f  10//23 79//25 18//25
f  18//25 80//24 13//24
f  78//20 14//18 76//18
f  14//18 81//17 76//18
f  23//16 77//19 83//16
f  80//24 18//25 79//25
f  81//17 14//18 26//17
f  83//16 77//19 86//45
f  83//16 31//14 23//16
f  26//17 87//15 81//17
f  31//14 83//16 95//14
f  87//15 26//17 33//15
f  81//17 87//15 96//46
f  95//14 83//16 103//47
f  95//14 39//13 31//14
f  33//15 104//12 87//15
f  39//13 95//14 113//13
f  104//12 33//15 41//12
f  87//15 104//12 106//48
f  113//13 45//11 39//13
f  41//12 122//10 104//12
f  45//11 113//13 131//11
f  122//10 41//12 52//10
f  131//11 53//9 45//11
f  52//10 139//8 122//10
f  53//9 131//11 147//9
f  139//8 52//10 58//8
f  151//7 53//9 147//9
f  58//8 152//6 139//8
f  53//9 151//7 59//7
f  152//6 58//8 64//6
f  160//4 59//7 151//7
f  67//5 152//6 64//6
f  59//7 160//4 69//4
f  152//6 67//5 156//5
f  156//5 68//2 161//2
f  164//3 69//4 160//4
f  68//2 156//5 67//5
f  72//3 161//2 68//2
f  69//4 164//3 72//3
f  161//2 72//3 164//3

# Mesh 'mesh1_mesh1-geometry' with 146 faces
g mesh1_mesh1-geometry
usemtl material_2_24
f  74//26 76//26 73//26
f  74//26 78//26 76//26
f  73//26 76//26 81//26
f  73//26 81//26 77//26
f  80//26 75//26 78//26
f  75//26 80//26 79//26
f  80//26 78//26 74//26
f  77//26 81//26 82//26
f  82//26 81//26 84//26
f  77//26 82//26 85//26
f  84//26 81//26 88//26
f  84//23 89//25 82//25
f  82//26 90//26 85//26
f  91//26 77//26 85//26
f  77//26 92//26 86//26
f  94//45 83//45 86//45
f  88//26 81//26 96//26
f  88//20 97//23 84//23
f  89//25 84//23 97//23
f  98//24 82//25 89//25
f  90//26 82//26 99//26
f  90//23 100//25 85//25
f  92//26 77//26 91//26
f  85//25 101//24 91//24
f  92//22 94//49 86//49
f  83//45 94//45 103//45
f  106//46 96//46 87//46
f  96//50 107//20 88//20
f  97//23 88//20 107//20
f  97//26 98//26 89//26
f  82//25 98//24 99//24
f  90//26 99//26 108//26
f  100//25 90//23 109//23
f  101//24 85//25 100//25
f  91//24 110//22 92//22
f  110//22 91//24 101//24
f  94//49 92//22 110//22
f  94//26 111//26 103//26
f  103//26 112//26 95//26
f  96//46 106//46 115//46
f  107//20 96//50 115//50
f  98//26 97//26 107//26
f  116//22 99//24 98//24
f  108//26 99//26 117//26
f  108//20 109//23 90//23
f  109//26 101//26 100//26
f  101//26 109//26 110//26
f  110//26 118//26 94//26
f  94//26 118//26 111//26
f  103//26 111//26 119//26
f  103//26 120//26 112//26
f  95//26 112//26 121//26
f  95//26 121//26 113//26
f  123//26 106//26 104//26
f  124//26 115//26 106//26
f  116//26 107//26 115//26
f  98//26 107//26 116//26
f  99//24 116//22 117//22
f  108//26 117//26 125//26
f  109//23 108//20 118//20
f  110//26 109//26 118//26
f  118//20 125//18 111//18
f  111//18 126//17 119//17
f  103//26 119//26 127//26
f  103//26 127//26 120//26
f  128//51 112//52 120//51
f  129//52 121//53 112//52
f  113//26 121//26 130//26
f  132//26 104//26 122//26
f  133//26 106//26 123//26
f  123//26 104//26 134//26
f  116//26 115//26 124//26
f  124//26 106//26 135//26
f  124//21 117//22 116//22
f  125//26 117//26 136//26
f  125//18 118//20 108//20
f  126//17 111//18 125//18
f  126//17 127//15 119//17
f  137//15 120//48 127//15
f  112//52 128//51 129//52
f  120//48 137//15 128//48
f  121//53 129//52 138//53
f  138//53 130//54 121//53
f  113//26 130//26 131//26
f  134//26 104//26 132//26
f  132//26 122//26 140//26
f  135//26 106//26 133//26
f  141//47 133//16 123//47
f  142//55 123//56 134//55
f  143//19 124//21 135//19
f  117//22 124//21 136//21
f  125//26 136//26 126//26
f  127//15 126//17 137//15
f  128//26 141//26 129//26
f  137//26 144//26 128//26
f  129//26 142//26 138//26
f  130//54 138//53 145//54
f  131//26 130//26 146//26
f  140//26 122//26 139//26
f  148//57 134//55 132//57
f  149//58 132//57 140//58
f  144//16 135//19 133//16
f  133//16 141//47 144//16
f  123//56 142//55 141//56
f  134//55 148//57 142//55
f  124//21 143//19 136//21
f  135//19 144//16 143//19
f  126//26 136//26 143//26
f  126//26 143//26 137//26
f  128//26 144//26 141//26
f  129//26 141//26 142//26
f  137//26 143//26 144//26
f  138//26 142//26 148//26
f  138//26 148//26 145//26
f  150//59 130//54 145//54
f  130//54 150//59 146//59
f  131//26 146//26 147//26
f  140//26 139//26 153//26
f  132//57 149//58 148//57
f  153//60 149//58 140//58
f  145//26 148//26 149//26
f  145//26 149//26 150//26
f  154//61 146//59 150//59
f  147//26 146//26 155//26
f  147//26 156//26 151//26
f  153//26 139//26 152//26
f  149//58 153//60 157//60
f  150//26 149//26 157//26
f  146//59 154//61 155//61
f  150//26 158//26 154//26
f  147//26 155//26 159//26
f  147//26 152//26 156//26
f  151//26 156//26 161//26
f  153//26 152//26 162//26
f  162//62 157//60 153//60
f  150//26 157//26 158//26
f  163//25 155//61 154//61
f  154//26 158//26 163//26
f  155//61 163//25 159//25
f  147//26 159//26 152//26
f  151//26 161//26 160//26
f  162//26 152//26 159//26
f  157//60 162//62 158//62
f  158//62 159//25 163//25
f  160//26 161//26 164//26
f  159//25 158//62 162//62

