# File produced by Open Asset Import Library (http://www.assimp.sf.net)
# (assimp v3.2.202087883)

mtllib model_normalized.mtl

# 120 vertex positions
v -0.369778 0.040972 -0.081069
v -0.369778 -0.222722 -0.110862
v -0.369778 0.040972 -0.110862
v -0.369778 -0.215532 -0.081069
v -0.400014 0.067963 -0.110862
v 0.386974 0.040972 -0.110862
v -0.400014 -0.215532 -0.081069
v -0.369778 -0.222722 0.030327
v -0.400014 -0.222722 -0.110862
v -0.388303 0.058464 -0.110862
v -0.400014 0.040972 0.030327
v -0.400014 0.040972 -0.081069
v -0.369778 -0.215532 0.030327
v -0.388303 0.067963 -0.110862
v 0.395760 0.058464 -0.110862
v 0.386974 0.040972 -0.068312
v -0.400014 -0.215532 0.030327
v 0.386974 -0.222722 0.030327
v -0.400014 -0.222722 0.147279
v -0.388303 0.094877 -0.003207
v -0.388303 0.067963 -0.100643
v 0.412721 0.067963 -0.110862
v 0.395760 0.058464 -0.100643
v 0.412721 0.040972 -0.068312
v 0.386974 -0.210090 -0.068312
v -0.400014 0.094877 -0.003207
v 0.386974 -0.210090 0.030327
v -0.390317 0.094877 -0.003207
v -0.388303 0.058464 -0.100643
v 0.412721 -0.222722 -0.110862
v 0.395760 0.067963 -0.110862
v 0.374295 0.058464 -0.100643
v 0.412721 0.040972 0.030327
v 0.386974 -0.222722 -0.110862
v -0.400014 0.094877 0.016079
v 0.001601 -0.211921 0.030327
v 0.015593 -0.211921 0.030327
v 0.400375 0.290753 0.143537
v -0.388559 -0.222722 0.143537
v 0.400375 -0.222722 0.143537
v -0.388559 0.290753 0.147279
v -0.388559 -0.222722 0.147279
v -0.390317 0.165894 0.031326
v -0.388303 0.067963 -0.003207
v -0.364370 0.058464 -0.100643
v 0.412721 0.094877 -0.003207
v 0.374295 0.064509 -0.100643
v 0.395760 0.067963 -0.100643
v 0.015593 -0.208179 0.030327
v 0.412721 -0.210090 -0.068312
v -0.400014 0.299032 0.072382
v 0.001601 -0.208179 0.030327
v 0.412721 -0.210090 0.030327
v -0.388559 0.290753 0.143537
v 0.400375 -0.222722 0.147279
v -0.400014 0.299606 0.147279
v -0.390317 0.094877 -0.000041
v -0.096874 0.130385 0.014060
v -0.364370 0.067963 -0.003207
v -0.364370 0.064509 -0.100643
v 0.395760 0.094877 -0.003207
v 0.412721 0.094877 0.016079
v 0.400375 0.290753 0.147279
v 0.412721 0.299606 0.147279
v 0.395760 0.094877 -0.000041
v -0.390317 0.174820 0.038126
v -0.096832 0.134602 0.016110
v 0.374295 0.067963 -0.003207
v -0.364370 0.067963 -0.100643
v 0.412721 -0.222722 0.147279
v 0.374295 0.067963 -0.100643
v 0.374295 0.064509 -0.003207
v 0.395760 0.067963 -0.003207
v 0.412721 0.299032 0.072382
v 0.395760 0.165894 0.031326
v 0.395760 0.174820 0.038126
v -0.390317 0.175703 0.036096
v 0.102316 0.130385 0.014060
v -0.364370 0.064509 -0.003207
v 0.395760 0.175703 0.036096
v -0.390317 0.176710 0.034025
v 0.102316 0.134559 0.016089
v 0.395760 0.166902 0.029255
v 0.102316 0.130385 -0.003643
v -0.390317 0.166902 0.029255
v 0.395760 0.176710 0.034025
v -0.096874 0.130385 -0.003643
v -0.096874 0.134559 0.014060
v -0.096874 0.134559 0.016089
v -0.096874 0.134559 -0.003643
v 0.102316 0.134559 -0.003643
v 0.100292 0.134559 0.014066
v 0.100292 0.134559 -0.001620
v -0.094850 0.134559 0.014066
v -0.094850 0.134559 0.014060
v -0.094850 0.134559 -0.001620
v 0.001601 -0.208179 -0.014721
v 0.015593 -0.211921 -0.014721
v -0.400014 0.299606 0.112306
v 0.001601 -0.211921 -0.014721
v 0.015593 -0.208179 -0.014721
v 0.412721 0.299606 0.112306
v 0.374295 0.064509 -0.033330
v -0.364370 0.064509 -0.033330
v -0.021339 -0.208179 0.030327
v -0.021339 -0.211921 -0.014721
v -0.021339 -0.208179 -0.014721
v -0.021339 -0.211921 0.030327
v -0.035331 -0.208179 -0.014721
v -0.035331 -0.211921 0.030327
v -0.035331 -0.211921 -0.014721
v -0.035331 -0.208179 0.030327
v 0.038533 -0.208179 -0.014721
v 0.052526 -0.208179 0.030327
v 0.052526 -0.208179 -0.014721
v 0.038533 -0.208179 0.030327
v 0.052526 -0.211921 -0.014721
v 0.038533 -0.211921 -0.014721
v 0.038533 -0.211921 0.030327
v 0.052526 -0.211921 0.030327

# 236 UV coordinates
vt -0.339567 3.00554 0
vt 0 0 0
vt 0 3.00554 0
vt -0.339567 0.081945 0
vt 8.91884 0 0
vt 9.26345 3.31318 0
vt 8.91884 3.00554 0
vt -8.91884 0 0
vt -0.293457 0 0
vt -8.91884 0.339567 0
vt -8.91884 3.00554 0
vt -9.26345 0.081945 0
vt -8.91884 0.081945 0
vt -1.60925 0 0
vt 9.26345 0 0
vt 9.12997 3.20492 0
vt 0.293457 3.00554 0
vt -9.26345 1.60925 0
vt -9.26345 3.00554 0
vt 9.26345 0.339567 0
vt 8.91884 1.60925 0
vt 8.91884 0.339567 0
vt -1.60925 0.081945 0
vt 0.339567 0.081945 0
vt 0 3.31318 0
vt 9.12997 3.31318 0
vt 0.193316 3.20492 0
vt -0.293457 0.484978 0
vt -9.26345 0.339567 0
vt 0.339567 3.00554 0
vt 9.26345 1.60925 0
vt 8.91884 0.081945 0
vt 0.293457 0 0
vt 2.94226 0 0
vt 9.26345 0.803565 0
vt 9.12997 2.06836 0
vt 9.12997 0.803565 0
vt -0.11647 3.31318 0
vt 0 3.20492 0
vt 9.12997 0 0
vt 0.193316 0.11647 0
vt 0.193316 0 0
vt -0 0.484978 0
vt 0.484978 3.00554 0
vt 0.484978 0.143972 0
vt 1.22703 3.61994 0
vt 1.60925 3.00554 0
vt 1.60925 0.081945 0
vt 9.26345 3.00554 0
vt 9.26345 0.081945 0
vt 0.293457 0.143972 0
vt 9.15293 2.06836 0
vt -1.22703 3.61994 0
vt -0.11647 3.20492 0
vt 0.193316 3.31318 0
vt 0.437967 0.11647 0
vt 0.11647 3.20492 0
vt -0 1.60925 0
vt -0.293457 0.143972 0
vt -0.293457 3.00554 0
vt 1.44685 3.61994 0
vt 9.26345 2.06836 0
vt 4.68589 0.1231 0
vt 4.52641 0.1231 0
vt 1.60925 0 0
vt 1.60925 0.143972 0
vt -0.140717 5.85252 0
vt -9.1329 0 0
vt -0.140717 0 0
vt -2.89961 0 0
vt -2.94226 5.85252 0
vt -2.94226 0 0
vt -9.1329 5.85252 0
vt -9.26345 0 0
vt 9.15293 4.69213 0
vt 9.12997 3.79205 0
vt 9.15293 3.79205 0
vt -1.22703 3.31318 0
vt 8.85719 0.11647 0
vt 9.12997 0.11647 0
vt 8.85719 3.20492 0
vt -0.484978 3.00554 0
vt 0.193316 0.803565 0
vt 0 2.06836 0
vt 0 0.803565 0
vt 0.437967 3.27381 0
vt 0.437967 3.20492 0
vt 0.11647 3.31318 0
vt -1.60925 3.00554 0
vt 4.52641 0.165751 0
vt -0 0.143972 0
vt 2.08859 5.94688 0
vt 9.26345 1.44685 0
vt 9.15293 1.22703 0
vt 9.26345 1.22703 0
vt 4.68589 0.165751 0
vt 0.293457 0.484978 0
vt 0.293457 1.60925 0
vt 2.89961 5.85252 0
vt 2.89961 0 0
vt -2.89961 5.85252 0
vt -9.26345 5.95343 0
vt 1.26312 3.61994 0
vt 1.62064 4.4294 0
vt 9.15293 1.26312 0
vt 5.8083 4.24209 0
vt 9.12997 3.61994 0
vt 8.85719 3.31318 0
vt 8.85719 1.22703 0
vt 9.12997 1.22703 0
vt 8.85719 3.27381 0
vt -0.484978 0.143972 0
vt 0.193316 2.06836 0
vt -1.44685 3.61994 0
vt 9.26345 6.28813 0
vt 0 3.87433 0
vt 9.26345 3.87433 0
vt 2.94226 5.95343 0
vt -0.140717 2.89961 0
vt -9.1329 2.94226 0
vt -9.1329 2.89961 0
vt 2.94226 5.85252 0
vt -0 5.95343 0
vt 0.193316 1.26312 0
vt 9.15293 3.81094 0
vt 0.193316 3.81094 0
vt 9.15293 4.82066 0
vt 1.69815 4.53114 0
vt 5.80782 4.29554 0
vt 0.193316 3.79205 0
vt 0.437967 3.31318 0
vt 0.193316 1.22703 0
vt 0 1.44685 0
vt 0 1.22703 0
vt 0.437967 1.22703 0
vt 1.22703 3.31318 0
vt -2.08859 5.94688 0
vt -1.60925 0.143972 0
vt 0 6.28813 0
vt 9.26345 2.98786 0
vt 0 2.13417 0
vt 9.26345 2.13417 0
vt -0.140717 2.94226 0
vt 0 2.98786 0
vt -1.62064 4.4294 0
vt -1.26312 3.61994 0
vt 0.193316 3.61994 0
vt 0.193316 4.82066 0
vt 1.675 4.54119 0
vt 0.193316 4.69213 0
vt 3.53795 4.24209 0
vt -0.11647 3.27381 0
vt 1.22703 3.27381 0
vt 0.11647 3.27381 0
vt -2.94226 5.95343 0
vt -1.69815 4.53114 0
vt -0.193316 0.272271 0
vt -9.15293 0.247034 0
vt -0.193316 0.247034 0
vt -9.15293 0.272271 0
vt 1.6514 4.55267 0
vt 3.53795 4.29499 0
vt 9.15293 0.479507 0
vt 0.193316 0.505754 0
vt 0.193316 0.479507 0
vt -5.8083 1.42384 0
vt -3.53795 1.22206 0
vt -3.53795 1.42384 0
vt -1.22703 3.27381 0
vt -1.675 4.54119 0
vt -0.193316 0.479507 0
vt -9.15293 0.505754 0
vt -9.15293 0.479507 0
vt 1.59703 4.44087 0
vt 9.15293 0.505754 0
vt -1.6514 4.55267 0
vt -1.59703 4.44087 0
vt -5.8083 1.22206 0
vt -1.22206 4.02467 0
vt -1.44697 4.07224 0
vt -1.42384 4.02467 0
vt 1.42384 4.07224 0
vt 1.42384 4.02467 0
vt 1.44697 4.07224 0
vt -0.193316 0.505754 0
vt 9.15293 4.81644 0
vt 0.193316 4.81644 0
vt 1.22206 4.07224 0
vt 1.22206 4.02467 0
vt 5.8083 4.07224 0
vt 3.53795 4.02467 0
vt 5.8083 4.02467 0
vt -1.22206 4.07224 0
vt 3.53795 1.44697 0
vt 3.56102 1.42391 0
vt 5.8083 1.44697 0
vt 5.8083 1.22206 0
vt 5.8083 1.42384 0
vt 3.53795 4.07224 0
vt 3.53795 1.22206 0
vt 3.56102 1.24513 0
vt 5.78523 1.42391 0
vt 5.78523 1.42384 0
vt 5.78523 1.24513 0
vt 1 0 0
vt 0 1 0
vt 1 1 0
vt 2.01174 0.715223 0
vt 2.08262 0.487022 0
vt 2.08262 0.715223 0
vt 2.01174 0.487022 0
vt 2.08262 0.073667 0
vt 2.01174 0.054711 0
vt 2.08262 0.054711 0
vt 2.01174 0.073667 0
vt 11.5705 2.49025 0
vt 7.12203 2.84781 0
vt 7.12203 2.49025 0
vt 11.5705 2.84781 0
vt 11.5705 2.84767 0
vt 2.19882 0.054711 0
vt 2.26971 0.073667 0
vt 2.19882 0.073667 0
vt 2.26971 0.487022 0
vt 2.19882 0.715223 0
vt 2.19882 0.487022 0
vt 2.26971 0.054711 0
vt 2.26971 0.715223 0
vt 1.89553 0.487022 0
vt 1.82465 0.715223 0
vt 1.82465 0.487022 0
vt 1.89553 0.715223 0
vt 1.82465 0.054711 0
vt 1.89553 0.073667 0
vt 1.82465 0.073667 0
vt 1.89553 0.054711 0

# 22 vertex normals
vn 0.01 0 0
vn 0 0 -0.01
vn 0 -0.01 0
vn 0 0 0.01
vn 0 0.01 0
vn -0.01 0 0
vn 0 0.00970143 -0.00242536
vn 0 0.00437299 -0.00899316
vn 0 0.00265863 -0.00964011
vn 0 -0.00430838 0.00902429
vn 0 0.00999971 -7.675e-05
vn 0 0.00917262 0.00398284
vn -0 -0.00899316 -0.00437299
vn 0 0.00899316 0.00437299
vn 0 -0.00970143 0.00242536
vn 0 -0.00437299 0.00899316
vn 0 -0.00265863 0.00964011
vn 0 0.00430838 -0.00902429
vn 0 -0.00999971 7.675e-05
vn 0 -0.00917262 -0.00398284
vn 0 0.0254 0
vn 0 -0.0254 -0

# Mesh 'mesh1_mesh1-geometry' with 177 faces
g mesh1_mesh1-geometry
usemtl material_0_1_8
f  1/1/1 2/2/1 3/3/1
f  2/2/1 1/1/1 4/4/1
f  2/5/2 5/6/2 3/7/2
f  3/8/3 6/9/3 1/10/3
f  1/11/4 7/12/4 4/13/4
f  2/2/1 4/4/1 8/14/1
f  5/6/2 2/5/2 9/15/2
f  3/7/2 5/6/2 10/16/2
f  3/7/2 10/16/2 6/17/2
f  6/9/3 11/18/3 1/10/3
f  7/12/4 1/11/4 12/19/4
f  7/20/5 13/21/5 4/22/5
f  8/14/1 4/4/1 13/23/1
f  9/2/6 7/24/6 5/25/6
f  10/16/2 5/6/2 14/26/2
f  15/27/2 6/17/2 10/16/2
f  16/28/3 11/18/3 6/9/3
f  1/10/3 11/18/3 12/29/3
f  12/30/6 5/25/6 7/24/6
f  13/21/5 7/20/5 17/31/5
f  13/32/2 18/33/2 8/5/2
f  7/24/6 9/2/6 19/34/6
f  5/35/7 20/36/7 14/37/7
f  14/25/1 21/38/1 10/39/1
f  22/25/2 6/17/2 15/27/2
f  10/40/5 23/41/5 15/42/5
f  24/43/3 11/18/3 16/28/3
f  16/44/6 6/3/6 25/45/6
f  26/46/6 12/30/6 11/47/6
f  5/25/6 12/30/6 26/46/6
f  7/24/6 19/34/6 17/48/6
f  11/49/2 13/32/2 17/50/2
f  18/33/2 13/32/2 27/51/2
f  20/36/7 5/35/7 28/52/7
f  21/38/1 14/25/1 20/53/1
f  29/54/1 10/39/1 21/38/1
f  30/2/2 6/17/2 22/25/2
f  22/25/2 15/27/2 31/55/2
f  23/41/5 10/40/5 32/56/5
f  23/57/6 31/25/6 15/39/6
f  11/18/3 24/43/3 33/58/3
f  25/59/4 24/3/4 16/60/4
f  34/2/6 25/45/6 6/3/6
f  26/46/6 11/47/6 35/61/6
f  28/52/7 5/35/7 26/62/7
f  17/48/6 19/34/6 11/47/6
f  13/32/2 11/49/2 36/63/2
f  27/51/2 13/32/2 37/64/2
f  25/45/6 18/65/6 27/66/6
f  38/67/4 39/68/4 40/69/4
f  39/70/1 41/71/1 42/72/1
f  41/73/4 19/74/4 42/68/4
f  43/75/8 20/76/8 28/77/8
f  21/38/1 20/53/1 44/78/1
f  45/79/5 10/40/5 29/80/5
f  21/26/2 45/81/2 29/16/2
f  6/17/2 30/2/2 34/33/2
f  22/25/1 24/82/1 30/2/1
f  31/83/7 46/84/7 22/85/7
f  32/56/5 10/40/5 45/79/5
f  47/86/2 23/27/2 32/87/2
f  31/25/6 23/57/6 48/88/6
f  24/82/1 46/53/1 33/89/1
f  33/3/2 49/90/2 11/49/2
f  24/3/4 25/59/4 50/91/4
f  25/45/6 34/2/6 18/65/6
f  35/61/6 11/47/6 51/92/6
f  35/93/5 28/94/5 26/95/5
f  11/47/6 19/34/6 51/92/6
f  36/63/2 11/49/2 52/96/2
f  37/64/2 13/32/2 36/63/2
f  27/51/2 37/64/2 49/90/2
f  53/58/5 25/97/5 27/98/5
f  39/68/4 38/67/4 54/73/4
f  55/34/6 38/99/6 40/100/6
f  41/71/1 39/70/1 54/101/1
f  19/74/4 41/73/4 56/102/4
f  57/103/6 43/104/6 28/46/6
f  35/93/5 57/105/5 28/94/5
f  20/76/8 43/75/8 58/106/8
f  20/107/2 59/108/2 44/26/2
f  59/109/5 21/80/5 44/110/5
f  45/81/2 21/26/2 60/111/2
f  24/82/1 22/25/1 46/53/1
f  50/112/1 30/2/1 24/82/1
f  46/84/7 31/83/7 61/113/7
f  23/27/2 47/86/2 48/55/2
f  31/25/6 48/88/6 61/46/6
f  33/89/1 46/53/1 62/114/1
f  53/91/2 49/90/2 33/3/2
f  52/96/2 11/49/2 49/90/2
f  25/97/5 53/58/5 50/43/5
f  51/115/9 62/116/9 35/117/9
f  51/92/6 19/34/6 56/118/6
f  27/51/2 49/90/2 53/91/2
f  38/119/3 41/120/3 54/121/3
f  38/99/6 55/34/6 63/122/6
f  56/102/4 41/73/4 64/123/4
f  35/93/5 65/124/5 57/105/5
f  57/125/10 65/126/10 66/127/10
f  43/104/6 57/103/6 66/128/6
f  58/106/8 43/75/8 67/129/8
f  20/76/8 58/106/8 61/130/8
f  59/108/2 20/107/2 68/131/2
f  21/80/5 59/109/5 69/79/5
f  60/111/2 21/26/2 69/108/2
f  30/2/1 50/112/1 70/72/1
f  61/132/5 62/133/5 46/134/5
f  48/55/2 47/86/2 71/131/2
f  60/79/5 72/135/5 47/56/5
f  61/46/6 48/88/6 73/136/6
f  33/89/1 62/114/1 74/137/1
f  33/89/1 74/137/1 53/138/1
f  70/72/1 50/112/1 53/138/1
f  62/116/9 51/115/9 74/139/9
f  62/133/5 65/124/5 35/93/5
f  56/140/11 74/141/11 51/142/11
f  64/123/4 55/69/4 70/2/4
f  41/120/3 38/119/3 63/143/3
f  55/69/4 64/123/4 63/67/4
f  63/67/4 64/123/4 41/73/4
f  74/141/11 56/140/11 64/144/11
f  75/145/1 65/146/1 61/53/1
f  62/133/5 61/132/5 65/124/5
f  73/55/2 20/107/2 61/147/2
f  76/148/10 66/127/10 65/126/10
f  43/104/6 66/128/6 77/149/6
f  75/150/8 67/129/8 43/75/8
f  78/151/8 61/130/8 58/106/8
f  68/131/2 20/107/2 73/55/2
f  72/86/2 59/108/2 68/131/2
f  59/78/1 60/152/1 69/38/1
f  72/153/6 71/88/6 47/154/6
f  71/56/5 73/132/5 48/41/5
f  72/135/5 60/79/5 79/109/5
f  70/72/1 53/138/1 74/137/1
f  70/72/1 74/137/1 64/155/1
f  65/146/1 75/145/1 76/156/1
f  61/130/8 78/151/8 75/150/8
f  80/157/12 66/158/12 76/159/12
f  66/158/12 80/157/12 77/160/12
f  81/161/6 43/104/6 77/149/6
f  75/150/8 82/162/8 67/129/8
f  43/163/13 83/164/13 75/165/13
f  58/166/3 84/167/3 78/168/3
f  73/132/5 71/56/5 68/135/5
f  59/108/2 72/86/2 79/111/2
f  71/88/6 72/153/6 68/136/6
f  60/152/1 59/78/1 79/169/1
f  76/156/1 75/145/1 80/170/1
f  75/150/8 78/151/8 82/162/8
f  80/171/14 81/172/14 77/173/14
f  43/104/6 81/161/6 85/174/6
f  83/164/13 43/163/13 85/175/13
f  86/176/1 75/145/1 83/177/1
f  84/167/3 58/166/3 87/178/3
f  84/179/1 82/180/1 78/181/1
f  88/182/6 58/183/6 89/184/6
f  75/145/1 86/176/1 80/170/1
f  81/172/14 80/171/14 86/185/14
f  81/186/8 83/150/8 85/75/8
f  83/150/8 81/186/8 86/187/8
f  58/183/6 90/188/6 87/189/6
f  90/190/2 84/191/2 87/192/2
f  82/180/1 84/179/1 91/193/1
f  82/194/5 92/195/5 89/196/5
f  90/188/6 58/183/6 88/182/6
f  89/196/5 90/197/5 88/198/5
f  84/191/2 90/190/2 91/199/2
f  91/200/5 93/201/5 82/194/5
f  92/195/5 82/194/5 93/201/5
f  89/196/5 92/195/5 94/202/5
f  89/196/5 94/202/5 90/197/5
f  93/201/5 91/200/5 90/197/5
f  95/203/5 90/197/5 94/202/5
f  93/201/5 90/197/5 96/204/5
f  96/204/5 90/197/5 95/203/5

# Mesh 'mesh1_mesh1-geometry' with 236 faces
g mesh1_mesh1-geometry
usemtl material_1_24
f  3/2/6 2/2/6 1/2/6
f  4/2/6 1/2/6 2/2/6
f  3/2/4 5/2/4 2/2/4
f  1/2/5 6/2/5 3/2/5
f  4/2/2 7/2/2 1/2/2
f  8/2/6 4/2/6 2/2/6
f  9/2/4 2/2/4 5/2/4
f  10/2/4 5/2/4 3/2/4
f  6/2/4 10/2/4 3/2/4
f  1/2/5 11/2/5 6/2/5
f  12/2/2 1/2/2 7/2/2
f  4/2/3 13/2/3 7/2/3
f  13/2/6 4/2/6 8/2/6
f  8/2/3 39/2/3 2/2/3
f  2/2/5 39/2/5 8/2/5
f  2/2/3 39/2/3 9/2/3
f  9/2/5 39/2/5 2/2/5
f  5/2/1 7/2/1 9/2/1
f  14/2/4 5/2/4 10/2/4
f  10/2/4 6/2/4 15/2/4
f  6/2/5 11/2/5 16/2/5
f  12/2/5 11/2/5 1/2/5
f  7/2/1 5/2/1 12/2/1
f  17/2/3 7/2/3 13/2/3
f  8/2/4 18/2/4 13/2/4
f  18/2/3 39/2/3 8/2/3
f  8/2/5 39/2/5 18/2/5
f  9/2/3 39/2/3 19/2/3
f  19/2/5 39/2/5 9/2/5
f  19/2/1 9/2/1 7/2/1
f  14/2/15 20/2/15 5/2/15
f  10/2/6 21/2/6 14/2/6
f  15/2/4 6/2/4 22/2/4
f  15/2/3 23/2/3 10/2/3
f  16/2/5 11/2/5 24/2/5
f  25/2/1 6/2/1 16/2/1
f  11/2/1 12/2/1 26/2/1
f  26/2/1 12/2/1 5/2/1
f  17/2/1 19/2/1 7/2/1
f  17/2/4 13/2/4 11/2/4
f  27/2/4 13/2/4 18/2/4
f  39/2/3 18/2/3 40/2/3
f  40/2/5 18/2/5 39/2/5
f  19/2/3 39/2/3 42/2/3
f  42/2/5 39/2/5 19/2/5
f  28/2/15 5/2/15 20/2/15
f  20/2/6 14/2/6 21/2/6
f  21/2/6 10/2/6 29/2/6
f  22/2/4 6/2/4 30/2/4
f  31/2/4 15/2/4 22/2/4
f  32/2/3 10/2/3 23/2/3
f  15/2/1 31/2/1 23/2/1
f  33/2/5 24/2/5 11/2/5
f  16/2/2 24/2/2 25/2/2
f  6/2/1 25/2/1 34/2/1
f  35/2/1 11/2/1 26/2/1
f  26/2/15 5/2/15 28/2/15
f  11/2/1 19/2/1 17/2/1
f  36/2/4 11/2/4 13/2/4
f  37/2/4 13/2/4 27/2/4
f  27/2/1 18/2/1 25/2/1
f  34/2/3 40/2/3 18/2/3
f  18/2/5 40/2/5 34/2/5
f  40/2/2 39/2/2 38/2/2
f  42/2/6 41/2/6 39/2/6
f  42/2/2 19/2/2 41/2/2
f  57/2/5 20/2/5 28/2/5
f  28/2/3 20/2/3 57/2/3
f  28/2/16 20/2/16 43/2/16
f  44/2/6 20/2/6 21/2/6
f  29/2/3 10/2/3 45/2/3
f  29/2/4 45/2/4 21/2/4
f  34/2/4 30/2/4 6/2/4
f  30/2/6 24/2/6 22/2/6
f  22/2/15 46/2/15 31/2/15
f  45/2/3 10/2/3 32/2/3
f  32/2/4 23/2/4 47/2/4
f  48/2/1 23/2/1 31/2/1
f  33/2/6 46/2/6 24/2/6
f  11/2/4 49/2/4 33/2/4
f  50/2/2 25/2/2 24/2/2
f  18/2/1 34/2/1 25/2/1
f  51/2/1 11/2/1 35/2/1
f  26/2/3 28/2/3 35/2/3
f  51/2/1 19/2/1 11/2/1
f  52/2/4 11/2/4 36/2/4
f  36/2/4 13/2/4 37/2/4
f  49/2/4 37/2/4 27/2/4
f  27/2/3 25/2/3 53/2/3
f  34/2/3 70/2/3 40/2/3
f  40/2/5 70/2/5 34/2/5
f  54/2/2 38/2/2 39/2/2
f  40/2/1 38/2/1 55/2/1
f  54/2/6 39/2/6 41/2/6
f  56/2/2 41/2/2 19/2/2
f  65/2/5 20/2/5 57/2/5
f  57/2/3 20/2/3 65/2/3
f  28/2/1 43/2/1 57/2/1
f  28/2/3 57/2/3 35/2/3
f  58/2/16 43/2/16 20/2/16
f  44/2/4 59/2/4 20/2/4
f  44/2/3 21/2/3 59/2/3
f  60/2/4 21/2/4 45/2/4
f  70/2/3 34/2/3 30/2/3
f  30/2/5 34/2/5 70/2/5
f  46/2/6 22/2/6 24/2/6
f  24/2/6 30/2/6 50/2/6
f  61/2/15 31/2/15 46/2/15
f  45/2/4 32/2/4 60/2/4
f  48/2/4 47/2/4 23/2/4
f  47/2/4 60/2/4 32/2/4
f  61/2/1 48/2/1 31/2/1
f  62/2/6 46/2/6 33/2/6
f  33/2/4 49/2/4 53/2/4
f  49/2/4 11/2/4 52/2/4
f  50/2/3 53/2/3 25/2/3
f  35/2/17 62/2/17 51/2/17
f  56/2/1 19/2/1 51/2/1
f  97/2/6 36/2/6 52/2/6
f  52/2/1 36/2/1 97/2/1
f  36/2/3 98/2/3 37/2/3
f  37/2/5 98/2/5 36/2/5
f  98/2/1 49/2/1 37/2/1
f  37/2/6 49/2/6 98/2/6
f  53/2/4 49/2/4 27/2/4
f  40/2/3 70/2/3 55/2/3
f  55/2/5 70/2/5 40/2/5
f  54/2/5 41/2/5 38/2/5
f  63/2/1 55/2/1 38/2/1
f  64/2/2 41/2/2 56/2/2
f  20/2/5 65/2/5 61/2/5
f  61/2/3 65/2/3 20/2/3
f  57/2/3 65/2/3 35/2/3
f  66/2/18 65/2/18 57/2/18
f  66/2/1 57/2/1 43/2/1
f  67/2/16 43/2/16 58/2/16
f  61/2/16 58/2/16 20/2/16
f  68/2/4 20/2/4 59/2/4
f  69/2/3 59/2/3 21/2/3
f  69/2/4 21/2/4 60/2/4
f  70/2/6 50/2/6 30/2/6
f  46/2/3 62/2/3 61/2/3
f  71/2/4 47/2/4 48/2/4
f  47/2/3 72/2/3 60/2/3
f  73/2/1 48/2/1 61/2/1
f  74/2/6 62/2/6 33/2/6
f  53/2/6 74/2/6 33/2/6
f  52/2/3 97/2/3 49/2/3
f  53/2/6 50/2/6 70/2/6
f  74/2/17 51/2/17 62/2/17
f  35/2/3 65/2/3 62/2/3
f  51/2/19 74/2/19 56/2/19
f  56/2/6 99/2/6 51/2/6
f  51/2/1 99/2/1 56/2/1
f  36/2/6 97/2/6 100/2/6
f  100/2/1 97/2/1 36/2/1
f  98/2/3 36/2/3 100/2/3
f  100/2/5 36/2/5 98/2/5
f  49/2/1 98/2/1 101/2/1
f  101/2/6 98/2/6 49/2/6
f  70/2/2 55/2/2 64/2/2
f  63/2/5 38/2/5 41/2/5
f  63/2/2 64/2/2 55/2/2
f  41/2/2 64/2/2 63/2/2
f  64/2/19 56/2/19 74/2/19
f  61/2/6 65/2/6 75/2/6
f  65/2/3 61/2/3 62/2/3
f  61/2/4 20/2/4 73/2/4
f  65/2/18 66/2/18 76/2/18
f  77/2/1 66/2/1 43/2/1
f  43/2/16 67/2/16 75/2/16
f  58/2/16 61/2/16 78/2/16
f  73/2/4 20/2/4 68/2/4
f  68/2/4 59/2/4 72/2/4
f  69/2/6 60/2/6 59/2/6
f  47/2/1 71/2/1 72/2/1
f  48/2/3 73/2/3 71/2/3
f  79/2/3 60/2/3 72/2/3
f  74/2/6 53/2/6 70/2/6
f  101/2/3 49/2/3 97/2/3
f  100/2/4 98/2/4 97/2/4
f  101/2/4 97/2/4 98/2/4
f  64/2/6 74/2/6 70/2/6
f  64/2/1 74/2/1 102/2/1
f  102/2/6 74/2/6 64/2/6
f  76/2/6 75/2/6 65/2/6
f  75/2/16 78/2/16 61/2/16
f  76/2/20 66/2/20 80/2/20
f  77/2/20 80/2/20 66/2/20
f  77/2/1 43/2/1 81/2/1
f  77/2/8 75/2/8 43/2/8
f  43/2/16 75/2/16 77/2/16
f  67/2/16 82/2/16 75/2/16
f  75/2/14 83/2/14 43/2/14
f  78/2/5 84/2/5 58/2/5
f  89/2/8 78/2/8 58/2/8
f  58/2/16 78/2/16 89/2/16
f  68/2/3 71/2/3 73/2/3
f  79/2/4 72/2/4 59/2/4
f  68/2/1 72/2/1 71/2/1
f  79/2/6 59/2/6 60/2/6
f  80/2/6 75/2/6 76/2/6
f  82/2/16 78/2/16 75/2/16
f  77/2/13 81/2/13 80/2/13
f  75/2/8 77/2/8 80/2/8
f  80/2/16 77/2/16 75/2/16
f  85/2/1 81/2/1 43/2/1
f  85/2/14 43/2/14 83/2/14
f  83/2/6 75/2/6 86/2/6
f  87/2/5 58/2/5 84/2/5
f  78/2/6 82/2/6 84/2/6
f  78/2/8 89/2/8 82/2/8
f  82/2/16 89/2/16 78/2/16
f  89/2/1 58/2/1 88/2/1
f  80/2/6 86/2/6 75/2/6
f  86/2/13 80/2/13 81/2/13
f  85/2/16 83/2/16 81/2/16
f  86/2/16 81/2/16 83/2/16
f  87/2/1 90/2/1 58/2/1
f  87/2/4 84/2/4 90/2/4
f  91/2/6 84/2/6 82/2/6
f  89/2/3 92/2/3 82/2/3
f  88/2/1 58/2/1 90/2/1
f  88/2/3 90/2/3 89/2/3
f  91/2/4 90/2/4 84/2/4
f  82/2/3 93/2/3 91/2/3
f  93/2/3 82/2/3 92/2/3
f  94/2/3 92/2/3 89/2/3
f  90/2/3 94/2/3 89/2/3
f  90/2/3 91/2/3 93/2/3
f  93/2/3 92/2/3 96/2/3
f  94/2/3 96/2/3 92/2/3
f  94/2/3 90/2/3 95/2/3
f  96/2/3 90/2/3 93/2/3
f  95/2/3 96/2/3 94/2/3
f  95/2/3 90/2/3 96/2/3

# Mesh 'mesh1_mesh1-geometry' with 2 faces
g mesh1_mesh1-geometry
usemtl material_4_24
f  60/2/2 32/2/2 45/2/2
f  32/2/2 60/2/2 47/2/2

# Mesh 'mesh1_mesh1-geometry' with 4 faces
g mesh1_mesh1-geometry
usemtl material_1_4_0
f  47/2/21 60/205/21 103/206/21
f  47/2/22 103/206/22 60/205/22
f  104/207/21 103/206/21 60/205/21
f  104/207/22 60/205/22 103/206/22

# Mesh 'mesh1_mesh1-geometry' with 4 faces
g mesh1_mesh1-geometry
usemtl material_2_2_8
f  49/208/5 97/209/5 52/210/5
f  97/209/5 49/208/5 101/211/5
f  97/212/2 98/213/2 100/214/2
f  98/213/2 97/212/2 101/215/2

# Mesh 'mesh1_mesh1-geometry' with 3 faces
g mesh1_mesh1-geometry
usemtl material_3_3_8
f  96/216/5 92/217/5 93/218/5
f  92/217/5 96/216/5 94/219/5
f  94/219/5 96/216/5 95/220/5

# Mesh 'mesh2_mesh2-geometry' with 16 faces
g mesh2_mesh2-geometry
usemtl material_1_24
f  105/2/1 106/2/1 107/2/1
f  106/2/1 105/2/1 108/2/1
f  107/2/6 106/2/6 105/2/6
f  108/2/6 105/2/6 106/2/6
f  107/2/4 109/2/4 106/2/4
f  107/2/3 105/2/3 109/2/3
f  110/2/3 106/2/3 108/2/3
f  108/2/5 106/2/5 110/2/5
f  111/2/4 106/2/4 109/2/4
f  112/2/3 109/2/3 105/2/3
f  106/2/3 110/2/3 111/2/3
f  111/2/5 110/2/5 106/2/5
f  110/2/6 109/2/6 111/2/6
f  111/2/1 109/2/1 110/2/1
f  109/2/6 110/2/6 112/2/6
f  112/2/1 110/2/1 109/2/1

# Mesh 'mesh2_mesh2-geometry' with 4 faces
g mesh2_mesh2-geometry
usemtl material_2_2_8
f  106/221/2 109/222/2 107/223/2
f  109/224/5 105/225/5 107/226/5
f  109/222/2 106/221/2 111/227/2
f  105/225/5 109/224/5 112/228/5

# Mesh 'mesh3_mesh3-geometry' with 4 faces
g mesh3_mesh3-geometry
usemtl material_2_2_8
f  113/229/5 114/230/5 115/231/5
f  114/230/5 113/229/5 116/232/5
f  117/233/2 113/234/2 115/235/2
f  113/234/2 117/233/2 118/236/2

# Mesh 'mesh3_mesh3-geometry' with 16 faces
g mesh3_mesh3-geometry
usemtl material_1_24
f  115//3 114//3 113//3
f  116//3 113//3 114//3
f  114//1 117//1 115//1
f  115//6 117//6 114//6
f  115//4 113//4 117//4
f  113//6 119//6 116//6
f  116//1 119//1 113//1
f  117//1 114//1 120//1
f  120//6 114//6 117//6
f  118//4 117//4 113//4
f  119//6 113//6 118//6
f  118//1 113//1 119//1
f  119//3 117//3 120//3
f  120//5 117//5 119//5
f  117//3 119//3 118//3
f  118//5 119//5 117//5

# Mesh 'mesh4_mesh4-geometry' with 1 faces
g mesh4_mesh4-geometry
usemtl material_1_0
l  88 67

# Mesh 'mesh5_mesh5-geometry' with 2 faces
g mesh5_mesh5-geometry
usemtl material_1_0
l  89 58
l  82 89

# Mesh 'mesh6_mesh6-geometry' with 5 faces
g mesh6_mesh6-geometry
usemtl material_1_0
l  52 36
l  52 97
l  36 37
l  36 100
l  37 98

# Mesh 'mesh7_mesh7-geometry' with 3 faces
g mesh7_mesh7-geometry
usemtl material_1_0
l  106 107
l  108 106
l  107 105

# Mesh 'mesh8_mesh8-geometry' with 1 faces
g mesh8_mesh8-geometry
usemtl material_1_0
l  110 111

# Mesh 'mesh9_mesh9-geometry' with 1 faces
g mesh9_mesh9-geometry
usemtl material_1_0
l  112 109

# Mesh 'mesh10_mesh10-geometry' with 1 faces
g mesh10_mesh10-geometry
usemtl material_1_0
l  118 119

# Mesh 'mesh11_mesh11-geometry' with 1 faces
g mesh11_mesh11-geometry
usemtl material_1_0
l  120 117

# Mesh 'mesh12_mesh12-geometry' with 1 faces
g mesh12_mesh12-geometry
usemtl material_1_0
l  49 101

# Mesh 'mesh13_mesh13-geometry' with 3 faces
g mesh13_mesh13-geometry
usemtl material_1_0
l  39 40
l  42 39
l  55 40

