# File produced by Open Asset Import Library (http://www.assimp.sf.net)
# (assimp v3.2.202087883)

mtllib model_normalized.mtl

# 74 vertex positions
v -0.158936 -0.240853 -0.119550
v -0.055096 -0.208043 -0.213745
v -0.055096 -0.273774 -0.159288
v -0.158936 -0.182062 -0.168253
v 0.055098 -0.273774 -0.159288
v -0.244440 -0.133103 -0.082521
v -0.055096 -0.103274 -0.251504
v 0.055098 -0.208043 -0.213745
v -0.244440 -0.178806 -0.044656
v -0.244440 -0.077268 -0.102646
v -0.158936 -0.094259 -0.199900
v 0.055098 -0.103274 -0.251504
v 0.158936 -0.240853 -0.119550
v -0.244440 0.037919 -0.082521
v -0.244440 -0.017916 -0.102646
v -0.055096 0.008091 -0.251504
v 0.158936 -0.182062 -0.168253
v -0.244440 0.037919 0.062320
v -0.158936 -0.000924 -0.199900
v 0.055098 0.008091 -0.251504
v 0.158936 -0.094259 -0.199900
v 0.244440 -0.133103 -0.082521
v -0.158936 0.086881 -0.168253
v -0.244440 -0.128036 0.008833
v -0.158936 0.204111 -0.026944
v -0.055096 0.112860 -0.213745
v 0.244440 -0.077268 -0.102646
v 0.244440 -0.178806 -0.044656
v -0.138749 0.086881 -0.334384
v -0.244440 -0.077268 0.062320
v -0.158936 0.152846 -0.168253
v -0.158936 0.175738 0.147635
v 0.055098 0.112860 -0.213745
v 0.158936 -0.000924 -0.199900
v 0.244440 -0.017916 -0.102646
v 0.244440 0.037919 -0.082521
v -0.201688 -0.115528 0.183208
v -0.244440 0.037919 0.147635
v -0.067814 0.231755 -0.034048
v -0.158936 0.105083 0.270012
v -0.067814 0.131617 -0.262088
v 0.158936 0.086881 -0.168253
v 0.244440 0.037919 0.062320
v -0.086830 0.099871 -0.334384
v -0.158936 -0.017294 0.340667
v -0.067814 0.207916 0.166213
v -0.067814 0.212894 0.147635
v 0.067814 0.131617 -0.262088
v 0.138749 0.086881 -0.334384
v 0.244440 -0.128036 0.008833
v 0.158936 0.204111 -0.026944
v -0.158936 -0.153788 0.304094
v 0.067814 0.231755 -0.034048
v -0.067814 0.137262 0.288590
v 0.086830 0.099871 -0.334384
v 0.244440 -0.077268 0.062320
v 0.158936 0.175738 0.147635
v 0.158936 0.152846 -0.168253
v -0.067814 -0.026911 0.376557
v -0.067814 0.001284 0.372845
v 0.067814 0.207916 0.166213
v -0.067814 0.123662 0.302190
v 0.067814 0.212894 0.147635
v 0.201688 -0.115528 0.183208
v 0.244440 0.037919 0.147635
v 0.158936 0.105083 0.270012
v -0.067814 -0.163403 0.339984
v 0.067814 0.137262 0.288590
v 0.158936 -0.017294 0.340667
v 0.067814 -0.163403 0.339984
v 0.067814 -0.026911 0.376557
v 0.067814 0.001284 0.372845
v 0.067814 0.123662 0.302190
v 0.158936 -0.153788 0.304094

# 0 UV coordinates

# 164 vertex normals
vn -0.445038 -0.571305 -0.689603
vn 0.445038 0.571305 0.689603
vn -0 -0.637965 -0.770066
vn 0 0.637965 0.770066
vn -0.751023 -0.421233 -0.508456
vn 0.751023 0.421233 0.508456
vn -0.445038 -0.30364 -0.842463
vn 0.445038 0.30364 0.842463
vn -0.751023 -0.223879 -0.621162
vn 0.751023 0.223879 0.621162
vn -0 -0.339068 -0.940762
vn 0 0.339068 0.940762
vn 0.445038 -0.571305 -0.689603
vn -0.445038 0.571305 0.689603
vn -1 0 0
vn 1 -0 -0
vn -0.445038 0 -0.895512
vn 0.445038 0 0.895512
vn 0 0 -1
vn 0 0 1
vn 0.445038 -0.30364 -0.842463
vn -0.445038 0.30364 0.842463
vn -0.751023 0 -0.660276
vn 0.751023 0 0.660276
vn 0.751023 -0.421233 -0.508456
vn -0.751023 0.421233 0.508456
vn -0.751023 0.223879 -0.621162
vn 0.751023 -0.223879 0.621162
vn 0.889214 -0.457492 0
vn -0.889214 0.457492 0
vn -0.445038 0.30364 -0.842463
vn 0.445038 -0.30364 0.842463
vn 0 0.339068 -0.940762
vn 0 -0.339068 0.940762
vn 0.445038 -0 -0.895512
vn -0.445038 0 0.895512
vn 0.751023 -0.223879 -0.621162
vn -0.751023 0.223879 0.621162
vn -0.545004 0.835814 -0.066225
vn 0.545004 -0.835814 0.066225
vn 0.848811 -0.497001 0.180306
vn -0.848811 0.497001 -0.180306
vn 0.868368 -0.489498 -0.079554
vn -0.868368 0.489498 0.079554
vn 0.751023 0 -0.660276
vn -0.751023 0 0.660276
vn -0.25536 0.966348 -0.031029
vn 0.25536 -0.966348 0.031029
vn 0.858276 -0.432608 0.276065
vn -0.858276 0.432608 -0.276065
vn -0.933147 -0.260742 0.247487
vn 0.933147 0.260742 -0.247487
vn 0.29763 -0.897448 0.325582
vn -0.29763 0.897448 -0.325582
vn 0.884389 -0.404217 -0.233375
vn -0.884389 0.404217 0.233375
vn 0.275801 -0.948766 -0.154195
vn -0.275801 0.948766 0.154195
vn -0 -0.932285 -0.361723
vn 0 0.932285 0.361723
vn 0.445038 0.30364 -0.842463
vn -0.445038 -0.30364 0.842463
vn -0.242505 0.969301 -0.040579
vn 0.242505 -0.969301 0.040579
vn 0.224193 -0.896106 0.383056
vn -0.224193 0.896106 -0.383056
vn 0.94749 0.082766 -0.308888
vn -0.94749 -0.082766 0.308888
vn -0.91026 -0.24643 0.332715
vn 0.91026 0.24643 -0.332715
vn 0.61772 -0.786398 -0
vn -0.61772 0.786398 0
vn 0.196793 -0.897707 0.394201
vn -0.196793 0.897707 -0.394201
vn 0.377575 -0.801921 -0.46299
vn -0.377575 0.801921 0.46299
vn 0.375843 -0.92173 -0.095684
vn -0.375843 0.92173 0.095684
vn -0.967104 0 0.254379
vn 0.967104 -0 -0.254379
vn -0.25536 -0.966348 0.031029
vn 0.25536 0.966348 -0.031029
vn 0.751023 0.223879 -0.621162
vn -0.751023 -0.223879 0.621162
vn -0.889214 -0.457492 0
vn 0.889214 0.457492 0
vn 0.158473 -0.918711 0.36174
vn -0.158473 0.918711 -0.36174
vn 0.852697 -0.261203 -0.452417
vn -0.852697 0.261203 0.452417
vn 0 -0.915612 0.402063
vn 0 0.915612 -0.402063
vn 0.366463 -0.898729 -0.240814
vn -0.366463 0.898729 0.240814
vn -0 -0.994655 -0.103254
vn 0 0.994655 0.103254
vn -0.967104 0 -0.254379
vn 0.967104 0 0.254379
vn -0.242505 -0.969301 0.040579
vn 0.242505 0.969301 -0.040579
vn 0.545004 0.835814 -0.066225
vn -0.545004 -0.835814 0.066225
vn -0.868368 -0.489498 -0.079554
vn 0.868368 0.489498 0.079554
vn -0.848811 -0.497001 0.180306
vn 0.848811 0.497001 -0.180306
vn 0.377575 0.239661 -0.894427
vn -0.377575 -0.239661 0.894427
vn 0.377575 -0.46299 -0.801921
vn -0.377575 0.46299 0.801921
vn -0 -0.866025 -0.5
vn 0 0.866025 0.5
vn 0.366463 -0.657915 -0.657915
vn -0.366463 0.657915 0.657915
vn -0 -0.965926 -0.258819
vn 0 0.965926 0.258819
vn 0.196793 0.897707 -0.394201
vn -0.196793 -0.897707 0.394201
vn 0.158473 0.918711 -0.36174
vn -0.158473 -0.918711 0.36174
vn 0.224193 0.896106 -0.383056
vn -0.224193 -0.896106 0.383056
vn -0.858276 -0.432608 0.276065
vn 0.858276 0.432608 -0.276065
vn -0.933147 0.260742 -0.247487
vn 0.933147 -0.260742 0.247487
vn -0.275801 -0.948766 -0.154195
vn 0.275801 0.948766 0.154195
vn -0.884389 -0.404217 -0.233375
vn 0.884389 0.404217 0.233375
vn -0.29763 -0.897448 0.325582
vn 0.29763 0.897448 -0.325582
vn 0.352533 -0.122146 -0.927793
vn -0.352533 0.122146 0.927793
vn -0 -0.707107 -0.707107
vn 0 0.707107 0.707107
vn -0.375843 -0.92173 -0.095684
vn 0.375843 0.92173 0.095684
vn -0.94749 0.082766 -0.308888
vn 0.94749 -0.082766 0.308888
vn -0.91026 0.24643 -0.332715
vn 0.91026 -0.24643 0.332715
vn -0.61772 -0.786398 0
vn 0.61772 0.786398 0
vn -0.377575 -0.801921 -0.46299
vn 0.377575 0.801921 0.46299
vn 0 0.258819 -0.965926
vn 0 -0.258819 0.965926
vn -0 -0.130526 -0.991445
vn 0 0.130526 0.991445
vn -0 -0.5 -0.866025
vn 0 0.5 0.866025
vn -0.366463 -0.898729 -0.240814
vn 0.366463 0.898729 0.240814
vn -0.852697 -0.261203 -0.452417
vn 0.852697 0.261203 0.452417
vn -0.366463 -0.657915 -0.657915
vn 0.366463 0.657915 0.657915
vn -0.377575 0.239661 -0.894427
vn 0.377575 -0.239661 0.894427
vn -0.377575 -0.46299 -0.801921
vn 0.377575 0.46299 0.801921
vn -0.352533 -0.122146 -0.927793
vn 0.352533 0.122146 0.927793

# Mesh 'mesh1_mesh1-geometry' with 264 faces
g mesh1_mesh1-geometry
usemtl material_0_24
f  1//1 2//1 3//1
f  2//1 1//1 4//1
f  3//2 2//2 1//2
f  4//2 1//2 2//2
f  2//3 5//3 3//3
f  3//4 5//4 2//4
f  1//5 6//5 4//5
f  4//6 6//6 1//6
f  4//7 7//7 2//7
f  2//8 7//8 4//8
f  5//3 2//3 8//3
f  8//4 2//4 5//4
f  6//5 1//5 9//5
f  9//6 1//6 6//6
f  10//9 4//9 6//9
f  6//10 4//10 10//10
f  7//7 4//7 11//7
f  11//8 4//8 7//8
f  12//11 2//11 7//11
f  7//12 2//12 12//12
f  2//11 12//11 8//11
f  8//12 12//12 2//12
f  8//13 13//13 5//13
f  5//14 13//14 8//14
f  14//15 6//15 9//15
f  9//16 6//16 14//16
f  4//9 10//9 11//9
f  11//10 10//10 4//10
f  6//15 15//15 10//15
f  10//16 15//16 6//16
f  11//17 16//17 7//17
f  7//18 16//18 11//18
f  16//19 12//19 7//19
f  7//20 12//20 16//20
f  12//21 17//21 8//21
f  8//22 17//22 12//22
f  13//13 8//13 17//13
f  17//14 8//14 13//14
f  15//15 6//15 14//15
f  14//16 6//16 15//16
f  14//15 9//15 18//15
f  18//16 9//16 14//16
f  10//23 19//23 11//23
f  11//24 19//24 10//24
f  19//23 10//23 15//23
f  15//24 10//24 19//24
f  16//17 11//17 19//17
f  19//18 11//18 16//18
f  12//19 16//19 20//19
f  20//20 16//20 12//20
f  17//21 12//21 21//21
f  21//22 12//22 17//22
f  22//25 13//25 17//25
f  17//26 13//26 22//26
f  23//27 15//27 14//27
f  14//28 15//28 23//28
f  18//15 9//15 24//15
f  24//16 9//16 18//16
f  18//29 14//29 25//29
f  25//30 14//30 18//30
f  15//27 23//27 19//27
f  19//28 23//28 15//28
f  23//31 16//31 19//31
f  19//32 16//32 23//32
f  26//33 20//33 16//33
f  16//34 20//34 26//34
f  20//35 21//35 12//35
f  12//36 21//36 20//36
f  27//37 17//37 21//37
f  21//38 17//38 27//38
f  13//25 22//25 28//25
f  28//26 22//26 13//26
f  17//37 27//37 22//37
f  22//38 27//38 17//38
f  14//39 23//39 29//39
f  29//40 23//40 14//40
f  18//15 24//15 30//15
f  30//16 24//16 18//16
f  25//41 14//41 31//41
f  31//42 14//42 25//42
f  32//43 18//43 25//43
f  25//44 18//44 32//44
f  16//31 23//31 26//31
f  26//32 23//32 16//32
f  20//33 26//33 33//33
f  33//34 26//34 20//34
f  21//35 20//35 34//35
f  34//36 20//36 21//36
f  21//45 35//45 27//45
f  27//46 35//46 21//46
f  36//15 22//15 28//15
f  28//16 22//16 36//16
f  22//15 35//15 27//15
f  27//16 35//16 22//16
f  23//47 26//47 29//47
f  29//48 26//48 23//48
f  14//49 29//49 31//49
f  31//50 29//50 14//50
f  37//51 30//51 24//51
f  24//52 30//52 37//52
f  18//15 30//15 38//15
f  38//16 30//16 18//16
f  31//53 39//53 25//53
f  25//54 39//54 31//54
f  40//55 18//55 32//55
f  32//56 18//56 40//56
f  25//57 39//57 32//57
f  32//58 39//58 25//58
f  41//59 33//59 26//59
f  26//60 33//60 41//60
f  42//61 20//61 33//61
f  33//62 20//62 42//62
f  20//61 42//61 34//61
f  34//62 42//62 20//62
f  35//45 21//45 34//45
f  34//46 21//46 35//46
f  35//15 22//15 36//15
f  36//16 22//16 35//16
f  36//15 28//15 43//15
f  43//16 28//16 36//16
f  29//63 26//63 44//63
f  44//64 26//64 29//64
f  31//65 29//65 44//65
f  44//66 29//66 31//66
f  45//67 37//67 30//67
f  30//68 37//68 45//68
f  45//69 38//69 30//69
f  30//70 38//70 45//70
f  18//71 40//71 38//71
f  38//72 40//72 18//72
f  31//73 41//73 39//73
f  39//74 41//74 31//74
f  46//75 40//75 32//75
f  32//76 40//76 46//76
f  32//77 39//77 47//77
f  47//78 39//78 32//78
f  33//59 41//59 48//59
f  48//60 41//60 33//60
f  26//79 41//79 44//79
f  44//80 41//80 26//80
f  33//81 49//81 42//81
f  42//82 49//82 33//82
f  42//83 35//83 34//83
f  34//84 35//84 42//84
f  35//83 42//83 36//83
f  36//84 42//84 35//84
f  43//15 28//15 50//15
f  50//16 28//16 43//16
f  43//85 51//85 36//85
f  36//86 51//86 43//86
f  31//87 44//87 41//87
f  41//88 44//88 31//88
f  37//67 45//67 52//67
f  52//68 45//68 37//68
f  45//89 38//89 40//89
f  40//90 38//90 45//90
f  41//91 53//91 39//91
f  39//92 53//92 41//92
f  40//75 46//75 54//75
f  54//76 46//76 40//76
f  32//93 47//93 46//93
f  46//94 47//94 32//94
f  53//95 47//95 39//95
f  39//96 47//96 53//96
f  53//91 41//91 48//91
f  48//92 41//92 53//92
f  33//97 48//97 55//97
f  55//98 48//98 33//98
f  33//99 55//99 49//99
f  49//100 55//100 33//100
f  49//101 42//101 36//101
f  36//102 42//102 49//102
f  43//15 50//15 56//15
f  56//16 50//16 43//16
f  57//103 51//103 43//103
f  43//104 51//104 57//104
f  51//105 58//105 36//105
f  36//106 58//106 51//106
f  59//107 52//107 45//107
f  45//108 52//108 59//108
f  40//109 60//109 45//109
f  45//110 60//110 40//110
f  61//111 54//111 46//111
f  46//112 54//112 61//112
f  40//113 54//113 62//113
f  62//114 54//114 40//114
f  63//115 46//115 47//115
f  47//116 46//116 63//116
f  47//95 53//95 63//95
f  63//96 53//96 47//96
f  53//117 58//117 48//117
f  48//118 58//118 53//118
f  48//119 58//119 55//119
f  55//120 58//120 48//120
f  55//121 58//121 49//121
f  49//122 58//122 55//122
f  36//123 58//123 49//123
f  49//124 58//124 36//124
f  64//125 56//125 50//125
f  50//126 56//126 64//126
f  43//15 56//15 65//15
f  65//16 56//16 43//16
f  53//127 51//127 57//127
f  57//128 51//128 53//128
f  66//129 57//129 43//129
f  43//130 57//130 66//130
f  53//131 58//131 51//131
f  51//132 58//132 53//132
f  52//107 59//107 67//107
f  67//108 59//108 52//108
f  60//133 59//133 45//133
f  45//134 59//134 60//134
f  60//109 40//109 62//109
f  62//110 40//110 60//110
f  54//111 61//111 68//111
f  68//112 61//112 54//112
f  46//115 63//115 61//115
f  61//116 63//116 46//116
f  68//135 62//135 54//135
f  54//136 62//136 68//136
f  53//137 57//137 63//137
f  63//138 57//138 53//138
f  64//139 69//139 56//139
f  56//140 69//140 64//140
f  69//141 65//141 56//141
f  56//142 65//142 69//142
f  66//143 43//143 65//143
f  65//144 43//144 66//144
f  68//145 57//145 66//145
f  66//146 57//146 68//146
f  59//147 70//147 67//147
f  67//148 70//148 59//148
f  60//149 71//149 59//149
f  59//150 71//150 60//150
f  62//151 72//151 60//151
f  60//152 72//152 62//152
f  57//145 68//145 61//145
f  61//146 68//146 57//146
f  63//153 57//153 61//153
f  61//154 57//154 63//154
f  62//135 68//135 73//135
f  73//136 68//136 62//136
f  69//139 64//139 74//139
f  74//140 64//140 69//140
f  69//155 66//155 65//155
f  65//156 66//156 69//156
f  68//157 66//157 73//157
f  73//158 66//158 68//158
f  70//147 59//147 71//147
f  71//148 59//148 70//148
f  71//149 60//149 72//149
f  72//150 60//150 71//150
f  72//151 62//151 73//151
f  73//152 62//152 72//152
f  74//159 71//159 69//159
f  69//160 71//160 74//160
f  72//161 66//161 69//161
f  69//162 66//162 72//162
f  66//161 72//161 73//161
f  73//162 72//162 66//162
f  71//159 74//159 70//159
f  70//160 74//160 71//160
f  72//163 69//163 71//163
f  71//164 69//164 72//164

# Mesh 'mesh2_mesh2-geometry' with 142 faces
g mesh2_mesh2-geometry
usemtl material_0_0
l  1 4
l  4 2
l  6 4
l  4 11
l  3 2
l  2 8
l  2 7
l  9 6
l  6 10
l  11 7
l  10 11
l  11 19
l  8 17
l  8 12
l  5 8
l  7 12
l  7 16
l  10 15
l  19 16
l  15 19
l  19 23
l  17 22
l  17 21
l  13 17
l  12 21
l  12 20
l  16 20
l  16 26
l  15 14
l  23 26
l  14 23
l  23 29
l  22 28
l  27 22
l  21 27
l  21 34
l  20 34
l  20 33
l  26 33
l  44 26
l  26 29
l  41 26
l  29 14
l  31 14
l  25 14
l  14 18
l  44 29
l  31 29
l  35 27
l  34 35
l  34 42
l  55 33
l  49 33
l  48 33
l  33 42
l  44 41
l  44 31
l  41 39
l  48 41
l  31 41
l  39 31
l  31 25
l  25 39
l  32 25
l  18 25
l  18 32
l  18 40
l  38 18
l  36 35
l  42 36
l  42 49
l  55 49
l  55 58
l  48 55
l  36 49
l  58 49
l  53 48
l  48 58
l  53 39
l  47 39
l  39 32
l  32 47
l  32 46
l  32 40
l  40 54
l  40 62
l  40 45
l  38 40
l  38 45
l  38 30
l  58 36
l  51 36
l  43 36
l  58 53
l  51 58
l  53 63
l  53 51
l  57 53
l  47 63
l  47 46
l  46 61
l  46 54
l  54 68
l  54 62
l  62 73
l  62 60
l  45 60
l  45 59
l  45 52
l  30 45
l  30 24
l  37 30
l  57 51
l  43 51
l  43 57
l  43 66
l  43 65
l  63 57
l  63 61
l  61 57
l  57 66
l  61 68
l  68 66
l  68 73
l  73 66
l  73 72
l  60 72
l  60 59
l  59 71
l  59 67
l  66 69
l  65 66
l  65 56
l  69 65
l  72 69
l  71 72
l  71 69
l  71 70
l  69 74
l  56 69
l  56 64
l  56 50

