# File produced by Open Asset Import Library (http://www.assimp.sf.net)
# (assimp v3.2.202087883)

mtllib model_normalized.mtl

# 146 vertex positions
v -0.149954 -0.058274 0.094927
v -0.177049 -0.378415 0.180708
v -0.149954 -0.378415 0.180708
v -0.177049 -0.058274 0.094927
v -0.149954 -0.378415 -0.267811
v -0.149954 -0.351320 0.145396
v -0.177049 -0.351320 0.145396
v -0.177049 -0.378415 -0.063152
v -0.149954 -0.058274 0.066875
v -0.177049 -0.058274 0.066875
v -0.177049 -0.378415 -0.294907
v -0.149954 -0.351320 -0.267811
v -0.177049 -0.024405 0.094927
v -0.149954 -0.024405 0.094927
v -0.177049 0.192360 0.094927
v -0.177049 -0.351320 -0.294907
v 0.181967 -0.378415 -0.294907
v 0.154872 -0.351320 -0.267811
v -0.149954 0.043334 0.094927
v -0.177049 -0.024405 0.066875
v -0.149954 -0.024405 0.066875
v -0.149954 0.043334 0.066875
v 0.154872 -0.378415 -0.267811
v 0.181967 -0.351320 -0.294907
v 0.154872 -0.351320 0.145396
v 0.154872 -0.058274 0.094927
v 0.154872 -0.058274 0.066875
v 0.154872 -0.378415 0.180708
v 0.181967 -0.058274 0.094927
v -0.148998 0.070430 0.094927
v -0.177049 0.192360 0.066875
v 0.181967 -0.351320 0.145396
v 0.181967 -0.378415 0.180708
v 0.181967 -0.058274 0.066875
v -0.148998 0.192360 0.094927
v 0.154872 0.043334 0.094927
v -0.177049 0.070430 0.066875
v 0.154872 -0.024405 0.094927
v 0.181967 -0.024405 0.094927
v 0.181967 -0.024405 0.066875
v 0.181967 0.192360 0.066875
v -0.148998 0.192360 0.066875
v 0.153916 0.070430 0.094927
v 0.154872 0.043334 0.066875
v -0.177049 0.117847 0.066875
v 0.154872 -0.024405 0.066875
v 0.181967 0.117847 0.066875
v 0.181967 0.192360 0.094927
v 0.181967 0.144943 0.066875
v -0.148998 0.070430 0.066875
v 0.153916 0.070430 0.066875
v -0.177049 0.143325 0.066875
v -0.148998 0.143325 0.066875
v 0.153916 0.192360 0.094927
v -0.177049 0.117847 0.052849
v 0.181967 0.144943 0.052849
v -0.148998 0.117847 0.066875
v 0.153916 0.192360 0.066875
v -0.177049 0.143325 0.052849
v 0.153916 0.117847 0.066875
v 0.181967 0.117847 0.052849
v 0.153916 0.144943 0.066875
v 0.153916 0.144943 0.052849
v -0.148998 0.143325 0.052849
v -0.148998 0.117847 0.052849
v 0.153916 0.117847 0.052849
v -0.177049 -0.058274 0.149118
v 0.181967 -0.058274 0.149118
v 0.181967 -0.058274 -0.291185
v -0.177049 -0.058274 -0.291185
v 0.181967 -0.024405 0.149118
v -0.191075 -0.058274 0.147271
v -0.177049 -0.024405 0.149118
v 0.195993 -0.024405 0.147271
v -0.177049 -0.024405 -0.291185
v -0.191075 -0.058274 -0.289339
v 0.195993 -0.058274 -0.289339
v 0.195993 -0.058274 0.147271
v -0.204145 -0.058274 0.141858
v -0.191075 -0.024405 -0.289339
v -0.191075 -0.024405 0.147271
v 0.181967 -0.024405 -0.291185
v 0.209063 -0.024405 0.141858
v -0.204145 -0.058274 -0.283925
v -0.204145 -0.024405 -0.283925
v 0.209063 -0.058274 -0.283925
v 0.209063 -0.058274 0.141858
v 0.209063 -0.024405 -0.283925
v 0.195993 -0.024405 -0.289339
v -0.215369 -0.058274 0.133245
v -0.204145 -0.024405 0.141858
v 0.220287 -0.024405 0.133245
v 0.220287 -0.024405 -0.275313
v -0.215369 -0.058274 -0.275313
v -0.215369 -0.024405 -0.275313
v -0.215369 -0.024405 0.133245
v 0.220287 -0.058274 -0.275313
v 0.220287 -0.058274 0.133245
v -0.223980 -0.058274 0.122022
v 0.228898 -0.058274 0.122022
v 0.228898 -0.024405 -0.264090
v -0.223980 -0.058274 -0.264090
v -0.223980 -0.024405 0.122022
v 0.228898 -0.058274 -0.264090
v 0.228898 -0.024405 0.122022
v -0.177049 0.366789 0.019176
v 0.181967 0.070430 0.019176
v 0.181967 0.188973 0.052849
v -0.229394 -0.058274 0.108952
v -0.229394 -0.024405 0.108952
v -0.223980 -0.024405 -0.264090
v 0.234312 -0.058274 0.108952
v 0.234312 -0.058274 -0.251020
v 0.234312 -0.024405 -0.251020
v -0.177049 0.070430 0.052849
v -0.177049 0.188973 0.052849
v 0.181967 0.070430 0.052849
v -0.229394 -0.058274 -0.251020
v -0.229394 -0.024405 -0.251020
v 0.234312 -0.024405 0.108952
v -0.177049 0.195326 0.053328
v -0.177049 0.070430 0.019176
v 0.181967 0.366789 0.019176
v 0.181967 0.195326 0.053328
v -0.231240 -0.058274 0.094927
v -0.231240 -0.024405 0.094927
v -0.231240 -0.024405 -0.236994
v 0.236158 -0.058274 0.094927
v 0.236158 -0.058274 -0.236994
v 0.236158 -0.024405 -0.236994
v -0.177049 0.201246 0.054729
v -0.231240 -0.058274 -0.236994
v 0.236158 -0.024405 0.094927
v -0.177049 0.206329 0.056958
v 0.181967 0.201246 0.054729
v -0.177049 0.366789 0.093971
v -0.177049 0.210230 0.059862
v 0.181967 0.206329 0.056958
v 0.181967 0.366789 0.093971
v -0.177049 0.213518 0.093971
v -0.177049 0.212682 0.063245
v 0.181967 0.210230 0.059862
v 0.181967 0.213518 0.066875
v -0.177049 0.213518 0.066875
v 0.181967 0.212682 0.063245
v 0.181967 0.213518 0.093971

# 0 UV coordinates

# 50 vertex normals
vn 0 0.258819 0.965926
vn 0 -1 -0
vn 1 0 0
vn -1 0 0
vn 0 -0.258819 -0.965926
vn 0 0 1
vn 0 1 0
vn 0 0 -1
vn -0.130526 0 -0.991445
vn -0.258819 0 -0.965926
vn 0.130526 0 -0.991445
vn 0.258819 0 -0.965926
vn 0.258819 0 0.965926
vn 0.130526 0 0.991445
vn -0.5 0 -0.866025
vn -0.130526 0 0.991445
vn -0.258819 0 0.965926
vn 0.5 0 -0.866025
vn 0.5 0 0.866025
vn -0.5 0 0.866025
vn -0.707107 0 -0.707107
vn 0.707107 0 -0.707107
vn 0.707107 0 0.707107
vn -0.707107 0 0.707107
vn -0.866025 0 -0.5
vn -0.866025 0 0.5
vn 0.866025 0 -0.5
vn 0.866025 0 0.5
vn 0.965926 0 -0.258819
vn -0.965926 0 -0.258819
vn -0.965926 0 0.258819
vn 0.965926 0 0.258819
vn 0 0.075018 -0.997182
vn 0 0.153147 -0.988203
vn 0.991445 0 -0.130526
vn -0.991445 0 -0.130526
vn -0.991445 0 0.130526
vn 0.991445 0 0.130526
vn 0 0.317243 -0.948344
vn 0 0.502652 -0.864489
vn 0 0.711644 -0.70254
vn 0 0.910281 -0.41399
vn 0 0.974472 -0.22451
vn 0 -0.153147 0.988203
vn 0 -0.075018 0.997182
vn 0 -0.317243 0.948344
vn 0 -0.502652 0.864489
vn 0 -0.711644 0.70254
vn 0 -0.910281 0.41399
vn 0 -0.974472 0.22451

# Mesh 'mesh1_mesh1-geometry' with 90 faces
g mesh1_mesh1-geometry
usemtl material_0_24
f  1//1 2//1 3//1
f  2//1 1//1 4//1
f  3//2 2//2 5//2
f  6//3 1//3 3//3
f  4//4 7//4 2//4
f  8//2 5//2 2//2
f  5//3 6//3 3//3
f  1//3 6//3 9//3
f  7//4 4//4 10//4
f  7//4 8//4 2//4
f  11//2 5//2 8//2
f  6//3 5//3 12//3
f  6//5 10//5 9//5
f  13//6 14//6 15//6
f  10//5 6//5 7//5
f  8//4 7//4 16//4
f  5//2 11//2 17//2
f  8//4 16//4 11//4
f  5//6 18//6 12//6
f  16//7 6//7 12//7
f  19//6 15//6 14//6
f  13//4 15//4 20//4
f  21//3 22//3 14//3
f  6//7 16//7 7//7
f  5//2 17//2 23//2
f  18//6 5//6 23//6
f  24//7 12//7 18//7
f  16//7 12//7 24//7
f  25//4 26//4 27//4
f  28//1 29//1 26//1
f  30//6 15//6 19//6
f  19//3 14//3 22//3
f  31//4 20//4 15//4
f  21//8 20//8 22//8
f  32//3 17//3 24//3
f  33//2 23//2 17//2
f  23//4 25//4 18//4
f  24//7 18//7 32//7
f  32//5 27//5 34//5
f  26//4 25//4 28//4
f  27//5 32//5 25//5
f  29//1 28//1 33//1
f  35//6 15//6 30//6
f  36//6 30//6 19//6
f  19//2 22//2 36//2
f  37//4 20//4 31//4
f  37//8 22//8 20//8
f  17//3 32//3 33//3
f  23//2 33//2 28//2
f  25//4 23//4 28//4
f  32//7 18//7 25//7
f  29//3 32//3 34//3
f  32//3 29//3 33//3
f  38//6 39//6 36//6
f  40//3 41//3 39//3
f  35//3 30//3 42//3
f  30//6 36//6 43//6
f  44//2 36//2 22//2
f  45//4 37//4 31//4
f  44//8 22//8 37//8
f  40//8 46//8 47//8
f  48//6 36//6 39//6
f  48//3 39//3 41//3
f  49//3 41//3 40//3
f  50//3 42//3 30//3
f  43//6 36//6 48//6
f  43//7 51//7 30//7
f  52//4 45//4 31//4
f  51//8 44//8 37//8
f  44//8 47//8 46//8
f  47//3 49//3 40//3
f  53//3 42//3 50//3
f  50//7 30//7 51//7
f  54//6 43//6 48//6
f  43//4 54//4 51//4
f  45//4 52//4 55//4
f  51//8 47//8 44//8
f  50//8 51//8 37//8
f  49//3 47//3 56//3
f  57//3 53//3 50//3
f  58//4 51//4 54//4
f  59//4 55//4 52//4
f  60//8 47//8 51//8
f  61//3 56//3 47//3
f  62//4 60//4 58//4
f  63//4 60//4 62//4
f  53//3 57//3 64//3
f  60//4 51//4 58//4
f  65//3 64//3 57//3
f  60//4 63//4 66//4

# Mesh 'mesh1_mesh1-geometry' with 350 faces
g mesh1_mesh1-geometry
usemtl material_1_24
f  3//5 2//5 1//5
f  4//5 1//5 2//5
f  5//7 2//7 3//7
f  3//4 1//4 6//4
f  1//7 4//7 67//7
f  13//8 1//8 4//8
f  4//6 1//6 13//6
f  2//3 7//3 4//3
f  2//7 5//7 8//7
f  3//4 6//4 5//4
f  9//4 6//4 1//4
f  4//7 10//7 67//7
f  68//7 1//7 67//7
f  1//8 13//8 14//8
f  14//6 13//6 1//6
f  10//3 13//3 4//3
f  4//4 13//4 10//4
f  10//3 4//3 7//3
f  2//3 8//3 7//3
f  8//7 5//7 11//7
f  12//4 5//4 6//4
f  9//1 10//1 6//1
f  1//7 69//7 9//7
f  1//4 21//4 9//4
f  9//3 21//3 1//3
f  10//7 70//7 67//7
f  26//7 1//7 68//7
f  68//8 67//8 71//8
f  14//2 71//2 13//2
f  15//8 14//8 13//8
f  21//4 1//4 14//4
f  14//3 1//3 21//3
f  13//3 10//3 20//3
f  20//4 10//4 13//4
f  7//1 6//1 10//1
f  16//3 7//3 8//3
f  17//7 11//7 5//7
f  11//3 16//3 8//3
f  12//8 18//8 5//8
f  12//2 6//2 16//2
f  9//7 69//7 10//7
f  21//6 10//6 9//6
f  9//8 10//8 21//8
f  27//7 69//7 1//7
f  67//7 70//7 72//7
f  70//7 10//7 69//7
f  27//7 1//7 26//7
f  29//7 26//7 68//7
f  73//8 71//8 67//8
f  71//9 74//10 68//9
f  73//2 13//2 71//2
f  21//2 71//2 14//2
f  14//8 15//8 19//8
f  20//3 15//3 13//3
f  14//4 22//4 21//4
f  10//6 21//6 20//6
f  20//8 21//8 10//8
f  20//2 13//2 75//2
f  7//2 16//2 6//2
f  17//6 24//6 11//6
f  23//7 17//7 5//7
f  16//6 11//6 24//6
f  23//8 5//8 18//8
f  18//2 12//2 24//2
f  24//2 12//2 16//2
f  34//7 69//7 27//7
f  70//7 76//7 72//7
f  67//11 72//12 73//11
f  70//6 69//6 75//6
f  27//3 26//3 25//3
f  27//3 38//3 26//3
f  26//4 38//4 27//4
f  26//5 29//5 28//5
f  38//8 29//8 26//8
f  26//6 29//6 38//6
f  68//7 77//7 29//7
f  78//10 68//9 74//10
f  74//2 71//2 39//2
f  13//2 73//2 75//2
f  38//2 71//2 21//2
f  19//8 15//8 30//8
f  22//4 14//4 19//4
f  15//3 20//3 31//3
f  22//6 20//6 21//6
f  21//2 20//2 75//2
f  24//4 17//4 32//4
f  17//7 23//7 33//7
f  18//3 25//3 23//3
f  32//2 18//2 24//2
f  77//7 69//7 34//7
f  34//1 27//1 32//1
f  40//6 27//6 34//6
f  34//8 27//8 40//8
f  72//7 76//7 79//7
f  76//13 70//14 80//13
f  81//12 73//11 72//12
f  82//6 75//6 69//6
f  75//14 80//13 70//14
f  28//3 25//3 26//3
f  25//1 32//1 27//1
f  38//3 27//3 46//3
f  46//4 27//4 38//4
f  33//5 28//5 29//5
f  29//8 38//8 39//8
f  39//6 38//6 29//6
f  29//7 77//7 34//7
f  78//7 77//7 68//7
f  74//10 83//15 78//10
f  39//2 71//2 38//2
f  40//2 74//2 39//2
f  73//2 81//2 75//2
f  38//2 21//2 46//2
f  30//8 15//8 35//8
f  19//8 30//8 36//8
f  36//7 22//7 19//7
f  31//3 20//3 37//3
f  42//2 15//2 31//2
f  31//7 15//7 42//7
f  20//6 22//6 37//6
f  82//2 21//2 75//2
f  33//4 32//4 17//4
f  28//7 33//7 23//7
f  28//3 23//3 25//3
f  25//2 18//2 32//2
f  69//16 77//17 82//16
f  34//4 32//4 29//4
f  27//6 40//6 46//6
f  46//8 40//8 27//8
f  29//4 40//4 34//4
f  34//3 40//3 29//3
f  76//7 84//7 79//7
f  72//12 79//18 81//12
f  80//13 85//19 76//13
f  75//2 81//2 80//2
f  46//3 36//3 38//3
f  33//4 29//4 32//4
f  36//8 39//8 38//8
f  40//4 29//4 39//4
f  39//3 29//3 40//3
f  86//7 77//7 78//7
f  87//15 78//10 83//15
f  83//2 74//2 88//2
f  82//2 74//2 40//2
f  39//4 41//4 40//4
f  46//2 21//2 82//2
f  15//2 42//2 35//2
f  35//7 42//7 15//7
f  42//4 30//4 35//4
f  43//8 36//8 30//8
f  22//7 36//7 44//7
f  31//3 37//3 45//3
f  52//6 42//6 31//6
f  31//8 42//8 52//8
f  37//6 22//6 44//6
f  89//17 82//16 77//17
f  40//2 46//2 82//2
f  47//6 46//6 40//6
f  79//7 84//7 90//7
f  84//19 76//13 85//19
f  91//18 81//12 79//18
f  80//2 91//2 85//2
f  81//2 91//2 80//2
f  36//3 46//3 44//3
f  39//8 36//8 48//8
f  77//17 86//20 89//17
f  87//7 86//7 78//7
f  83//15 92//21 87//15
f  88//2 74//2 89//2
f  93//2 83//2 88//2
f  89//2 74//2 82//2
f  41//4 39//4 48//4
f  40//4 41//4 49//4
f  30//4 42//4 50//4
f  48//8 36//8 43//8
f  30//2 51//2 43//2
f  37//6 57//6 45//6
f  45//8 57//8 37//8
f  31//3 45//3 52//3
f  42//6 52//6 53//6
f  53//8 52//8 42//8
f  37//6 44//6 51//6
f  46//6 47//6 44//6
f  40//4 49//4 47//4
f  84//7 94//7 90//7
f  79//18 90//22 91//18
f  85//19 95//23 84//19
f  91//2 96//2 85//2
f  88//20 89//17 86//20
f  97//7 86//7 87//7
f  98//21 87//15 92//21
f  92//2 83//2 93//2
f  93//24 88//20 97//24
f  54//2 41//2 48//2
f  48//7 41//7 54//7
f  41//6 62//6 49//6
f  49//8 62//8 41//8
f  50//4 42//4 53//4
f  51//2 30//2 50//2
f  48//8 43//8 54//8
f  51//3 54//3 43//3
f  57//6 37//6 50//6
f  50//8 37//8 57//8
f  45//7 57//7 55//7
f  55//3 52//3 45//3
f  52//2 59//2 53//2
f  44//6 47//6 51//6
f  37//6 51//6 50//6
f  56//4 47//4 49//4
f  90//7 94//7 99//7
f  94//23 84//19 95//23
f  96//22 91//18 90//22
f  85//2 96//2 95//2
f  86//20 97//24 88//20
f  98//7 97//7 87//7
f  98//21 92//21 100//25
f  101//2 92//2 93//2
f  93//24 97//24 101//26
f  41//2 54//2 58//2
f  58//7 54//7 41//7
f  62//6 41//6 58//6
f  58//8 41//8 62//8
f  62//2 63//2 49//2
f  50//4 53//4 57//4
f  54//3 51//3 58//3
f  65//7 55//7 57//7
f  52//3 55//3 59//3
f  64//2 53//2 59//2
f  51//6 47//6 60//6
f  47//4 56//4 61//4
f  56//2 49//2 63//2
f  94//7 102//7 99//7
f  99//27 103//27 90//22
f  94//23 95//23 102//28
f  96//22 90//22 103//27
f  96//2 103//2 95//2
f  104//7 97//7 98//7
f  105//25 100//25 92//21
f  100//7 104//7 98//7
f  105//2 92//2 101//2
f  104//26 101//26 97//24
f  58//3 60//3 62//3
f  62//3 60//3 63//3
f  64//4 57//4 53//4
f  58//3 51//3 60//3
f  64//6 55//6 65//6
f  65//8 55//8 64//8
f  65//8 61//8 55//8
f  57//4 64//4 65//4
f  55//3 106//3 59//3
f  55//6 64//6 59//6
f  59//8 64//8 55//8
f  59//8 63//8 64//8
f  60//7 47//7 66//7
f  56//4 107//4 61//4
f  56//6 66//6 61//6
f  61//8 66//8 56//8
f  61//7 66//7 47//7
f  66//6 56//6 63//6
f  63//8 56//8 66//8
f  56//8 63//8 108//8
f  99//7 102//7 109//7
f  103//27 99//27 110//29
f  111//28 102//28 95//23
f  95//2 103//2 111//2
f  100//25 105//25 112//30
f  113//7 104//7 100//7
f  114//2 105//2 101//2
f  101//26 104//26 114//31
f  66//3 63//3 60//3
f  64//8 66//8 65//8
f  55//8 61//8 115//8
f  61//8 65//8 66//8
f  59//3 106//3 116//3
f  115//3 106//3 55//3
f  63//8 66//8 64//8
f  116//8 63//8 59//8
f  117//4 61//4 107//4
f  108//4 107//4 56//4
f  108//8 63//8 116//8
f  102//7 118//7 109//7
f  109//29 110//29 99//27
f  103//2 110//2 119//2
f  102//28 111//28 118//32
f  111//2 103//2 119//2
f  120//30 112//30 105//25
f  112//7 113//7 100//7
f  113//31 114//31 104//26
f  120//2 105//2 114//2
f  117//8 115//8 61//8
f  116//3 106//3 121//3
f  122//3 106//3 115//3
f  117//7 107//7 115//7
f  107//4 108//4 123//4
f  108//33 116//33 124//34
f  109//7 118//7 125//7
f  110//29 109//29 126//35
f  119//2 110//2 127//2
f  119//32 118//32 111//28
f  112//30 120//30 128//36
f  129//7 113//7 112//7
f  114//31 113//31 130//37
f  130//2 120//2 114//2
f  121//3 106//3 131//3
f  121//34 124//34 116//33
f  122//6 107//6 106//6
f  122//7 115//7 107//7
f  108//4 124//4 123//4
f  123//6 106//6 107//6
f  132//7 125//7 118//7
f  125//35 126//35 109//29
f  126//2 127//2 110//2
f  127//38 132//38 119//32
f  118//32 119//32 132//38
f  133//36 128//36 120//30
f  128//7 129//7 112//7
f  129//37 130//37 113//31
f  133//2 120//2 130//2
f  131//3 106//3 134//3
f  131//39 135//39 121//34
f  124//34 121//34 135//39
f  124//4 135//4 123//4
f  106//2 123//2 136//2
f  132//3 127//3 125//3
f  126//3 125//3 127//3
f  128//4 133//4 129//4
f  130//4 129//4 133//4
f  134//3 106//3 137//3
f  134//40 138//40 131//39
f  135//39 131//39 138//40
f  135//4 138//4 123//4
f  139//2 136//2 123//2
f  136//3 140//3 106//3
f  137//3 106//3 141//3
f  137//41 142//41 134//40
f  138//40 134//40 142//41
f  138//4 142//4 123//4
f  136//8 139//8 140//8
f  123//4 143//4 139//4
f  144//3 106//3 140//3
f  141//3 106//3 144//3
f  137//41 141//42 142//41
f  142//4 145//4 123//4
f  146//8 140//8 139//8
f  146//4 139//4 143//4
f  145//4 143//4 123//4
f  144//7 140//7 143//7
f  141//42 144//43 145//42
f  145//42 142//41 141//42
f  146//7 143//7 140//7
f  143//43 145//42 144//43

# Mesh 'mesh1_mesh1-geometry' with 188 faces
g mesh1_mesh1-geometry
usemtl material_2_24
f  67//2 4//2 1//2
f  67//2 10//2 4//2
f  67//2 1//2 68//2
f  9//2 69//2 1//2
f  67//2 70//2 10//2
f  68//2 1//2 26//2
f  71//6 67//6 68//6
f  13//7 71//7 14//7
f  10//2 69//2 9//2
f  1//2 69//2 27//2
f  72//2 70//2 67//2
f  69//2 10//2 70//2
f  26//2 1//2 27//2
f  68//2 26//2 29//2
f  67//6 71//6 73//6
f  68//14 74//13 71//14
f  71//7 13//7 73//7
f  14//7 71//7 21//7
f  75//7 13//7 20//7
f  27//2 69//2 34//2
f  72//2 76//2 70//2
f  73//16 72//17 67//16
f  75//8 69//8 70//8
f  29//2 77//2 68//2
f  74//13 68//14 78//13
f  39//7 71//7 74//7
f  75//7 73//7 13//7
f  21//7 71//7 38//7
f  75//7 20//7 21//7
f  34//2 69//2 77//2
f  79//2 76//2 72//2
f  80//10 70//9 76//10
f  72//17 73//16 81//17
f  69//8 75//8 82//8
f  70//9 80//10 75//9
f  34//2 77//2 29//2
f  68//2 77//2 78//2
f  78//13 83//19 74//13
f  38//7 71//7 39//7
f  39//7 74//7 40//7
f  75//7 81//7 73//7
f  46//7 21//7 38//7
f  75//7 21//7 82//7
f  82//11 77//12 69//11
f  79//2 84//2 76//2
f  81//17 79//20 72//17
f  76//10 85//15 80//10
f  80//7 81//7 75//7
f  78//2 77//2 86//2
f  83//19 78//13 87//19
f  88//7 74//7 83//7
f  40//7 74//7 82//7
f  82//7 21//7 46//7
f  77//12 82//11 89//12
f  82//7 46//7 40//7
f  90//2 84//2 79//2
f  85//15 76//10 84//15
f  79//20 81//17 91//20
f  85//7 91//7 80//7
f  80//7 91//7 81//7
f  89//12 86//18 77//12
f  78//2 86//2 87//2
f  87//19 92//23 83//19
f  89//7 74//7 88//7
f  88//7 83//7 93//7
f  82//7 74//7 89//7
f  90//2 94//2 84//2
f  91//20 90//24 79//20
f  84//15 95//21 85//15
f  85//7 96//7 91//7
f  86//18 89//12 88//18
f  87//2 86//2 97//2
f  92//23 87//19 98//23
f  93//7 83//7 92//7
f  97//22 88//18 93//22
f  99//2 94//2 90//2
f  95//21 84//15 94//21
f  90//24 91//20 96//24
f  95//7 96//7 85//7
f  88//18 97//22 86//18
f  87//2 97//2 98//2
f  100//28 92//23 98//23
f  93//7 92//7 101//7
f  101//27 97//22 93//22
f  99//2 102//2 94//2
f  90//24 103//26 99//26
f  102//25 95//21 94//21
f  103//26 90//24 96//24
f  95//7 103//7 96//7
f  98//2 97//2 104//2
f  92//23 100//28 105//28
f  98//2 104//2 100//2
f  101//7 92//7 105//7
f  97//22 101//27 104//27
f  55//6 61//6 65//6
f  59//4 106//4 55//4
f  64//6 63//6 59//6
f  61//3 107//3 56//3
f  108//6 63//6 56//6
f  109//2 102//2 99//2
f  110//31 99//26 103//26
f  95//21 102//25 111//25
f  111//7 103//7 95//7
f  112//32 105//28 100//28
f  100//2 104//2 113//2
f  101//7 105//7 114//7
f  114//29 104//27 101//27
f  65//6 66//6 64//6
f  115//6 61//6 55//6
f  66//6 65//6 61//6
f  116//4 106//4 59//4
f  55//4 106//4 115//4
f  64//6 66//6 63//6
f  59//6 63//6 116//6
f  107//3 61//3 117//3
f  56//3 107//3 108//3
f  116//6 63//6 108//6
f  109//2 118//2 102//2
f  99//26 110//31 109//31
f  119//7 110//7 103//7
f  118//30 111//25 102//25
f  119//7 103//7 111//7
f  105//28 112//32 120//32
f  100//2 113//2 112//2
f  104//27 114//29 113//29
f  114//7 105//7 120//7
f  61//6 115//6 117//6
f  121//4 106//4 116//4
f  115//4 106//4 122//4
f  115//2 107//2 117//2
f  123//3 108//3 107//3
f  124//44 116//45 108//45
f  125//2 118//2 109//2
f  126//37 109//31 110//31
f  127//7 110//7 119//7
f  111//25 118//30 119//30
f  128//38 120//32 112//32
f  112//2 113//2 129//2
f  130//35 113//29 114//29
f  114//7 120//7 130//7
f  131//4 106//4 121//4
f  116//45 124//44 121//44
f  106//8 107//8 122//8
f  107//2 115//2 122//2
f  123//3 124//3 108//3
f  107//8 106//8 123//8
f  118//2 125//2 132//2
f  109//31 126//37 125//37
f  110//7 127//7 126//7
f  119//30 132//36 127//36
f  132//36 119//30 118//30
f  120//32 128//38 133//38
f  112//2 129//2 128//2
f  113//29 130//35 129//35
f  130//7 120//7 133//7
f  134//4 106//4 131//4
f  121//44 135//46 131//46
f  135//46 121//44 124//44
f  123//3 135//3 124//3
f  136//7 123//7 106//7
f  125//4 127//4 132//4
f  127//4 125//4 126//4
f  129//3 133//3 128//3
f  133//3 129//3 130//3
f  137//4 106//4 134//4
f  131//46 138//47 134//47
f  138//47 131//46 135//46
f  123//3 138//3 135//3
f  123//7 136//7 139//7
f  106//4 140//4 136//4
f  141//4 106//4 137//4
f  134//47 142//48 137//48
f  142//48 134//47 138//47
f  123//3 142//3 138//3
f  140//6 139//6 136//6
f  139//3 143//3 123//3
f  140//4 106//4 144//4
f  144//4 106//4 141//4
f  142//48 141//49 137//48
f  123//3 145//3 142//3
f  139//6 140//6 146//6
f  143//3 139//3 146//3
f  123//3 143//3 145//3
f  143//2 140//2 144//2
f  145//49 144//50 141//49
f  141//49 142//48 145//49
f  140//2 143//2 146//2
f  144//50 145//49 143//50

# Mesh 'mesh1_mesh1-geometry' with 12 faces
g mesh1_mesh1-geometry
usemtl material_3_24
f  11//8 24//8 17//8
f  24//8 11//8 16//8
f  38//4 36//4 46//4
f  44//4 46//4 36//4
f  55//2 57//2 45//2
f  53//7 59//7 52//7
f  49//7 63//7 62//7
f  57//2 55//2 65//2
f  59//7 53//7 64//7
f  63//7 49//7 56//7
f  66//2 47//2 60//2
f  47//2 66//2 61//2

# Mesh 'mesh2_mesh2-geometry' with 1 faces
g mesh2_mesh2-geometry
usemtl material_1_0
l  29 39

# Mesh 'mesh3_mesh3-geometry' with 1 faces
g mesh3_mesh3-geometry
usemtl material_1_0
l  34 40

# Mesh 'mesh4_mesh4-geometry' with 1 faces
g mesh4_mesh4-geometry
usemtl material_1_0
l  26 38

# Mesh 'mesh5_mesh5-geometry' with 1 faces
g mesh5_mesh5-geometry
usemtl material_1_0
l  27 46

# Mesh 'mesh6_mesh6-geometry' with 1 faces
g mesh6_mesh6-geometry
usemtl material_1_0
l  1 14

# Mesh 'mesh7_mesh7-geometry' with 1 faces
g mesh7_mesh7-geometry
usemtl material_1_0
l  9 21

# Mesh 'mesh8_mesh8-geometry' with 1 faces
g mesh8_mesh8-geometry
usemtl material_1_0
l  4 13

# Mesh 'mesh9_mesh9-geometry' with 1 faces
g mesh9_mesh9-geometry
usemtl material_1_0
l  10 20

# Mesh 'mesh10_mesh10-geometry' with 4 faces
g mesh10_mesh10-geometry
usemtl material_1_0
l  42 31
l  35 42
l  31 15
l  35 15

# Mesh 'mesh11_mesh11-geometry' with 3 faces
g mesh11_mesh11-geometry
usemtl material_1_0
l  54 58
l  48 54
l  41 58

# Mesh 'mesh12_mesh12-geometry' with 1 faces
g mesh12_mesh12-geometry
usemtl material_1_0
l  52 53

# Mesh 'mesh13_mesh13-geometry' with 1 faces
g mesh13_mesh13-geometry
usemtl material_1_0
l  45 57

