# File produced by Open Asset Import Library (http://www.assimp.sf.net)
# (assimp v3.2.202087883)

mtllib model_normalized.mtl

# 64 vertex positions
v 0.192673 0.086711 0.465281
v 0.169013 0.086711 0.438293
v -0.084389 0.086711 0.465281
v 0.169013 0.086711 -0.389073
v -0.076414 0.086711 0.438293
v -0.084389 -0.032019 0.465281
v 0.192673 0.086711 -0.417418
v 0.169013 -0.039143 0.438293
v -0.099717 0.086711 -0.387295
v -0.099717 -0.039143 0.465281
v -0.084389 0.086711 0.470347
v 0.164186 0.086711 -0.417418
v 0.192673 -0.031362 -0.417418
v 0.169013 -0.039143 -0.389073
v -0.076414 -0.039143 0.438293
v -0.076414 0.086711 -0.389073
v 0.192673 -0.039143 0.465281
v -0.099717 -0.032316 0.465281
v -0.084389 -0.032019 0.470347
v 0.164186 0.086711 -0.407922
v 0.192673 -0.031362 -0.407922
v -0.076414 -0.039143 -0.389073
v 0.192673 -0.039143 -0.407922
v -0.109213 0.086711 -0.415783
v -0.099717 0.086711 0.442226
v -0.106742 -0.032316 0.465281
v -0.099717 -0.032316 0.442226
v -0.106742 -0.032019 0.470347
v 0.164186 -0.031362 -0.417418
v 0.164186 -0.031362 -0.407922
v -0.099717 -0.039143 -0.407922
v -0.076259 0.086711 -0.407922
v -0.109213 0.086711 -0.387295
v -0.106742 0.086711 0.470347
v -0.106742 -0.032019 0.465281
v -0.076259 -0.032097 -0.407922
v -0.099717 -0.032097 -0.407922
v -0.076259 0.086711 -0.415783
v -0.109213 -0.029957 -0.387295
v -0.106742 0.086711 0.442226
v -0.099717 0.023784 0.442226
v -0.106742 -0.032316 0.442226
v -0.099717 -0.029957 -0.387295
v -0.076259 -0.032097 -0.415783
v -0.099717 -0.029957 -0.415783
v -0.109213 -0.029957 -0.415783
v -0.106742 0.023784 0.442226
v -0.099717 -0.032097 -0.415783
v 0.224804 -0.032019 -0.428211
v 0.167994 -0.032019 -0.372279
v 0.224804 -0.032019 0.495555
v -0.132531 -0.032019 -0.428211
v 0.167994 -0.032019 0.435698
v 0.224804 -0.051010 -0.428211
v -0.075183 -0.032019 -0.372279
v -0.132531 -0.032019 0.495555
v 0.167994 -0.051010 0.435698
v 0.224804 -0.051010 0.495555
v -0.132531 -0.051010 -0.428211
v -0.075183 -0.032019 0.435698
v -0.075183 -0.051010 -0.372279
v -0.132531 -0.051010 0.495555
v 0.167994 -0.051010 -0.372279
v -0.075183 -0.051010 0.435698

# 157 UV coordinates
vt 0 3.06523 0
vt 0.041527 2.9705 0
vt 0.486291 3.06523 0
vt 0.041527 0.066167 0
vt 0.472293 2.9705 0
vt -0.486291 0 0
vt 0 0.416782 0
vt -0.486291 0.416782 0
vt 0 -0.033333 0
vt 0.033084 0.416782 0
vt 1.48525 -0.025008 0
vt 1.48525 0.416782 0
vt 0.041527 -0.025008 0
vt 0.472293 0.416782 0
vt 0.041527 0.416782 0
vt 0.513194 0.072406 0
vt -0.513194 -0.025008 0
vt -1.54151 0.416782 0
vt -1.53261 0 0
vt -1.53261 0.416782 0
vt 0.05 -0.033333 0
vt 0.016667 0.002306 0
vt 0.016667 0.416782 0
vt 0.033084 -0.025008 0
vt 0.472293 -0.025008 0
vt 0.472293 0.066167 0
vt 0.486291 3.08302 0
vt 0 -0.025008 0
vt -0.513194 -0.001045 0
vt -1.54151 0 0
vt 0 0.002306 0
vt 0.05 0.416782 0
vt 0.05 0 0
vt -0.041527 0.416782 0
vt -0.472293 -0.025008 0
vt -0.041527 -0.025008 0
vt -0.041527 0.066167 0
vt 0 0 0
vt -0.041527 2.9705 0
vt -0.513194 3.06523 0
vt -0.472293 2.9705 0
vt -0.033084 -0.025008 0
vt -1.48525 0.416782 0
vt -1.48525 -0.025008 0
vt 0.529861 -0.027594 0
vt -0.033084 0.416782 0
vt 0.513194 2.9843 0
vt -1.53261 -0.025008 0
vt -0.525525 -0.001045 0
vt 1.49215 -0.001045 0
vt 1.53261 -0.025008 0
vt 1.53261 -0.001045 0
vt -0.525525 0 0
vt -0.525525 3.08302 0
vt -0.486291 3.06523 0
vt -0.486291 3.08302 0
vt 0.05 0.002306 0
vt -0.016667 0.416782 0
vt -0.05 0 0
vt -0.472293 0.416782 0
vt -0.513194 0 0
vt -0.472293 0.066167 0
vt 0.472022 0 0
vt 0.529861 0.072406 0
vt 0.525525 3.08302 0
vt 1.49215 0.416782 0
vt 0.036203 0.416782 0
vt -0.525525 3.06523 0
vt -0.513194 2.9843 0
vt -0.525525 0.416782 0
vt -0.05 -0.033333 0
vt -0.016667 0.002306 0
vt 0.472022 0.416782 0
vt 0.472022 -0.000277 0
vt 0.513194 -0.000277 0
vt 0.513194 -0.025008 0
vt 0.472022 -0.027594 0
vt -0.013797 0.416782 0
vt 0.036203 0.007236 0
vt -0.529861 0.007236 0
vt -0.513194 0.416782 0
vt -0.529861 0.416782 0
vt 0.525525 2.9843 0
vt 1.49215 0.195887 0
vt 1.53261 0 0
vt -0.525525 2.9843 0
vt 1.54151 0.416782 0
vt 1.54151 0 0
vt 0 -0.000277 0
vt 0.013797 -0.000277 0
vt 0.013797 0.416782 0
vt 0.513194 0.007236 0
vt 0.529861 0.416782 0
vt -0.013797 0.007236 0
vt -0.513194 0.007236 0
vt 0.513194 0.195887 0
vt 0.525525 0.416782 0
vt 0.513194 0.416782 0
vt 0.513194 -0.001045 0
vt 0.525525 0.195887 0
vt 0.525525 -0.001045 0
vt -0.472022 -0.027594 0
vt -0.472022 0 0
vt 0.529861 0.007236 0
vt -0.513194 -0.027594 0
vt -0.529861 0.072406 0
vt -0.529861 -0.027594 0
vt -0.513194 0.072406 0
vt -0.013797 -0.000277 0
vt -0.056394 -0.071224 0
vt 0.043316 0.125118 0
vt -0.056394 3.17151 0
vt 0.570789 -0.071224 0
vt 0.043316 2.96139 0
vt -1.58576 0 0
vt 0.035612 -0.066667 0
vt 0.035612 0 0
vt -0.056394 -0.066667 0
vt 0.570789 0 0
vt -0.056394 0 0
vt 0.470134 0.125118 0
vt 0.570789 3.17151 0
vt 0.062559 -0 0
vt 1.48069 -0.066667 0
vt 1.48069 -0 0
vt -1.58576 -0.066667 0
vt 0.570789 -0.066667 0
vt 0.470134 2.96139 0
vt -0.470134 -0.066667 0
vt -0.043316 -0 0
vt -0.470134 -0 0
vt -0.570789 -0.066667 0
vt 0.056394 0 0
vt -0.570789 0 0
vt 0.062559 -0.066667 0
vt 0.043316 -0.066667 0
vt 0.470134 -0 0
vt 0.043316 -0 0
vt 0.056394 -0.066667 0
vt 0.056394 3.17151 0
vt -0.043316 2.96139 0
vt 0.056394 -0.071224 0
vt -0.043316 0.125118 0
vt -0.570789 -0.071224 0
vt 1.58576 -0.066667 0
vt -0.035612 0 0
vt -0.035612 -0.066667 0
vt -1.48069 -0 0
vt -0.062559 -0.066667 0
vt -0.062559 -0 0
vt -0.043316 -0.066667 0
vt 1.58576 0 0
vt 0.470134 -0.066667 0
vt -0.570789 3.17151 0
vt -0.470134 0.125118 0
vt -1.48069 -0.066667 0
vt -0.470134 2.96139 0

# 6 vertex normals
vn 0 0.0254 0
vn 0 0 0.0254
vn -0.0254 0 0
vn 0 0 -0.0254
vn 0.0254 0 0
vn 0 -0.0254 0

# Mesh 'mesh1_mesh1-geometry' with 96 faces
g mesh1_mesh1-geometry
usemtl material_0_1_8
f  1/1/1 2/2/1 3/3/1
f  2/2/1 1/1/1 4/4/1
f  3/3/1 2/2/1 5/5/1
f  6/6/2 1/7/2 3/8/2
f  7/9/1 4/4/1 1/1/1
f  4/10/3 8/11/3 2/12/3
f  8/13/4 5/14/4 2/15/4
f  5/5/1 9/16/1 3/3/1
f  10/17/2 1/7/2 6/6/2
f  11/18/5 6/19/5 3/20/5
f  4/4/1 7/9/1 12/21/1
f  1/20/5 13/22/5 7/23/5
f  8/11/3 4/10/3 14/24/3
f  5/14/4 8/13/4 15/25/4
f  16/26/1 9/16/1 5/5/1
f  3/3/1 9/16/1 11/27/1
f  1/7/2 10/17/2 17/28/2
f  10/17/2 6/6/2 18/29/2
f  6/19/5 11/18/5 19/30/5
f  13/31/4 12/32/4 7/7/4
f  4/4/1 12/21/1 20/33/1
f  13/22/5 1/20/5 21/31/5
f  4/34/2 22/35/2 14/36/2
f  14/37/6 23/38/6 8/39/6
f  8/39/6 10/40/6 15/41/6
f  22/42/5 5/43/5 15/44/5
f  16/26/1 24/45/1 9/16/1
f  5/43/5 22/42/5 16/46/5
f  25/47/1 11/27/1 9/16/1
f  8/39/6 17/1/6 10/40/6
f  23/28/5 1/20/5 17/48/5
f  18/29/2 6/6/2 26/49/2
f  27/50/3 10/51/3 18/52/3
f  11/8/2 28/53/2 19/6/2
f  28/54/6 6/55/6 19/56/6
f  12/32/4 13/31/4 29/57/4
f  12/58/3 30/31/3 20/7/3
f  4/4/1 20/33/1 16/26/1
f  21/31/5 1/20/5 23/28/5
f  30/59/6 13/9/6 21/38/6
f  22/35/2 4/34/2 16/60/2
f  31/61/6 14/37/6 22/62/6
f  23/38/6 14/37/6 31/61/6
f  17/1/6 8/39/6 23/38/6
f  15/41/6 10/40/6 22/62/6
f  32/63/1 24/45/1 16/26/1
f  9/16/1 24/45/1 33/64/1
f  11/27/1 25/47/1 34/65/1
f  27/50/3 25/66/3 9/67/3
f  35/53/2 26/49/2 6/6/2
f  26/68/6 27/69/6 18/40/6
f  9/67/3 10/51/3 27/50/3
f  28/53/2 11/8/2 34/70/2
f  6/55/6 28/54/6 35/68/6
f  13/9/6 30/59/6 29/71/6
f  30/31/3 12/58/3 29/72/3
f  30/57/4 32/73/4 20/32/4
f  16/26/1 20/33/1 32/63/1
f  23/28/4 36/74/4 21/31/4
f  21/31/4 36/74/4 30/57/4
f  31/61/6 22/62/6 10/40/6
f  37/75/4 23/28/4 31/76/4
f  24/45/1 32/63/1 38/77/1
f  24/78/3 39/79/3 33/67/3
f  39/80/2 9/81/2 33/82/2
f  34/65/1 25/47/1 40/83/1
f  25/66/3 27/50/3 41/84/3
f  40/66/3 26/52/3 35/85/3
f  27/69/6 26/68/6 42/86/6
f  43/79/3 10/51/3 9/67/3
f  34/87/3 35/85/3 28/88/3
f  32/73/4 30/57/4 36/74/4
f  23/28/4 37/75/4 36/74/4
f  10/51/3 37/89/3 31/28/3
f  32/7/5 44/90/5 38/91/5
f  38/73/4 45/92/4 24/93/4
f  39/79/3 24/78/3 46/94/3
f  9/81/2 39/80/2 43/95/2
f  41/96/4 40/97/4 25/98/4
f  40/66/3 35/85/3 34/87/3
f  27/99/4 47/100/4 41/96/4
f  47/84/3 26/52/3 40/66/3
f  26/52/3 47/84/3 42/50/3
f  47/100/4 27/99/4 42/101/4
f  37/89/3 10/51/3 43/79/3
f  44/90/5 32/7/5 36/89/5
f  37/61/6 44/102/6 36/103/6
f  44/74/4 45/92/4 38/73/4
f  24/93/4 45/92/4 46/104/4
f  45/105/6 39/106/6 46/107/6
f  39/106/6 45/105/6 43/108/6
f  40/97/4 41/96/4 47/100/4
f  45/94/3 37/89/3 43/79/3
f  44/102/6 37/61/6 48/105/6
f  45/92/4 44/74/4 48/75/4
f  37/89/3 45/94/3 48/109/3

# Mesh 'mesh1_mesh1-geometry' with 96 faces
g mesh1_mesh1-geometry
usemtl material_1_24
f  3//6 2//6 1//6
f  4//6 1//6 2//6
f  5//6 2//6 3//6
f  3//4 1//4 6//4
f  1//6 4//6 7//6
f  2//5 8//5 4//5
f  2//2 5//2 8//2
f  3//6 9//6 5//6
f  6//4 1//4 10//4
f  3//3 6//3 11//3
f  12//6 7//6 4//6
f  7//3 13//3 1//3
f  14//5 4//5 8//5
f  15//2 8//2 5//2
f  5//6 9//6 16//6
f  11//6 9//6 3//6
f  17//4 10//4 1//4
f  18//4 6//4 10//4
f  19//3 11//3 6//3
f  7//2 12//2 13//2
f  20//6 12//6 4//6
f  21//3 1//3 13//3
f  14//4 22//4 4//4
f  8//1 23//1 14//1
f  15//1 10//1 8//1
f  15//3 5//3 22//3
f  9//6 24//6 16//6
f  16//3 22//3 5//3
f  9//6 11//6 25//6
f  10//1 17//1 8//1
f  17//3 1//3 23//3
f  26//4 6//4 18//4
f  18//5 10//5 27//5
f  19//4 28//4 11//4
f  19//1 6//1 28//1
f  29//2 13//2 12//2
f  20//5 30//5 12//5
f  16//6 20//6 4//6
f  23//3 1//3 21//3
f  21//1 13//1 30//1
f  16//4 4//4 22//4
f  22//1 14//1 31//1
f  31//1 14//1 23//1
f  23//1 8//1 17//1
f  22//1 10//1 15//1
f  16//6 24//6 32//6
f  33//6 24//6 9//6
f  34//6 25//6 11//6
f  9//5 25//5 27//5
f  6//4 26//4 35//4
f  18//1 27//1 26//1
f  27//5 10//5 9//5
f  34//4 11//4 28//4
f  35//1 28//1 6//1
f  29//1 30//1 13//1
f  29//5 12//5 30//5
f  20//2 32//2 30//2
f  32//6 20//6 16//6
f  21//2 36//2 23//2
f  30//2 36//2 21//2
f  10//1 22//1 31//1
f  31//2 23//2 37//2
f  38//6 32//6 24//6
f  33//5 39//5 24//5
f  33//4 9//4 39//4
f  40//6 25//6 34//6
f  41//5 27//5 25//5
f  35//5 26//5 40//5
f  42//1 26//1 27//1
f  9//5 10//5 43//5
f  28//5 35//5 34//5
f  36//2 30//2 32//2
f  36//2 37//2 23//2
f  31//5 37//5 10//5
f  38//3 44//3 32//3
f  24//2 45//2 38//2
f  46//5 24//5 39//5
f  43//4 39//4 9//4
f  25//2 40//2 41//2
f  34//5 35//5 40//5
f  41//2 47//2 27//2
f  40//5 26//5 47//5
f  42//5 47//5 26//5
f  42//2 27//2 47//2
f  43//5 10//5 37//5
f  36//3 32//3 44//3
f  36//1 44//1 37//1
f  38//2 45//2 44//2
f  46//2 45//2 24//2
f  46//1 39//1 45//1
f  43//1 45//1 39//1
f  47//2 41//2 40//2
f  43//5 37//5 45//5
f  48//1 37//1 44//1
f  48//2 44//2 45//2
f  48//5 45//5 37//5

# Mesh 'mesh2_mesh2-geometry' with 32 faces
g mesh2_mesh2-geometry
usemtl material_0_1_8
f  49/110/1 50/111/1 51/112/1
f  50/111/1 49/110/1 52/113/1
f  53/114/1 51/112/1 50/111/1
f  51/115/5 54/116/5 49/117/5
f  54/118/4 52/119/4 49/120/4
f  50/111/1 52/113/1 55/121/1
f  51/112/1 53/114/1 56/122/1
f  50/123/3 57/124/3 53/125/3
f  54/116/5 51/115/5 58/126/5
f  52/119/4 54/118/4 59/127/4
f  55/121/1 52/113/1 60/128/1
f  61/129/2 50/130/2 55/131/2
f  56/122/1 53/114/1 60/128/1
f  62/132/2 51/133/2 56/134/2
f  57/124/3 50/123/3 63/135/3
f  57/136/4 60/137/4 53/138/4
f  51/133/2 62/132/2 58/139/2
f  58/140/6 57/141/6 54/142/6
f  54/142/6 63/143/6 59/144/6
f  62/145/3 52/146/3 59/147/3
f  56/122/1 60/128/1 52/113/1
f  60/148/5 61/149/5 55/150/5
f  50/130/2 61/129/2 63/151/2
f  52/146/3 62/145/3 56/152/3
f  63/143/6 54/142/6 57/141/6
f  60/137/4 57/136/4 64/153/4
f  57/141/6 58/140/6 62/154/6
f  59/144/6 63/143/6 61/155/6
f  59/144/6 61/155/6 62/154/6
f  61/149/5 60/148/5 64/156/5
f  57/141/6 62/154/6 64/157/6
f  64/157/6 62/154/6 61/155/6

# Mesh 'mesh2_mesh2-geometry' with 32 faces
g mesh2_mesh2-geometry
usemtl material_1_24
f  51//6 50//6 49//6
f  52//6 49//6 50//6
f  50//6 51//6 53//6
f  49//3 54//3 51//3
f  49//2 52//2 54//2
f  55//6 52//6 50//6
f  56//6 53//6 51//6
f  53//5 57//5 50//5
f  58//3 51//3 54//3
f  59//2 54//2 52//2
f  60//6 52//6 55//6
f  55//4 50//4 61//4
f  60//6 53//6 56//6
f  56//4 51//4 62//4
f  63//5 50//5 57//5
f  53//2 60//2 57//2
f  58//4 62//4 51//4
f  54//1 57//1 58//1
f  59//1 63//1 54//1
f  59//5 52//5 62//5
f  52//6 60//6 56//6
f  55//3 61//3 60//3
f  63//4 61//4 50//4
f  56//5 62//5 52//5
f  57//1 54//1 63//1
f  64//2 57//2 60//2
f  62//1 58//1 57//1
f  61//1 63//1 59//1
f  62//1 61//1 59//1
f  64//3 60//3 61//3
f  64//1 62//1 57//1
f  61//1 62//1 64//1

