# File produced by Open Asset Import Library (http://www.assimp.sf.net)
# (assimp v3.2.202087883)

mtllib model_normalized.mtl

# 52 vertex positions
v 0.156998 -0.312707 -0.236008
v 0.241335 -0.312707 -0.319309
v 0.241335 -0.312707 -0.236008
v 0.156998 -0.312707 -0.319309
v 0.241335 -0.024166 -0.236008
v 0.156998 -0.025282 -0.319309
v 0.241335 0.026789 -0.319309
v 0.156998 -0.025282 -0.236008
v 0.241335 0.026789 0.089535
v -0.157975 -0.025282 -0.236008
v -0.241554 0.026789 -0.319309
v 0.241335 -0.024166 0.093853
v -0.241554 -0.024166 -0.236008
v -0.157975 -0.025282 -0.319309
v -0.241554 0.026789 0.089535
v 0.241335 0.417798 0.163580
v -0.241554 -0.024166 0.093853
v -0.241554 -0.312707 -0.236008
v -0.157975 -0.312707 -0.319309
v -0.154634 0.069527 0.089535
v 0.241335 0.417798 0.089535
v 0.241335 -0.312707 0.093853
v 0.178384 -0.027034 0.093853
v -0.157975 -0.312707 -0.236008
v -0.241554 -0.312707 -0.319309
v -0.241554 0.417798 0.089535
v 0.154208 0.069527 0.089535
v 0.241335 -0.312707 0.163580
v -0.167322 -0.027034 0.093853
v -0.154634 0.157745 0.089535
v 0.154208 0.069527 0.163580
v 0.154208 0.157745 0.089535
v -0.241554 0.417798 0.163580
v 0.154046 0.369525 0.089535
v 0.178384 -0.312707 0.163580
v 0.178384 -0.312707 0.093853
v -0.167322 -0.312707 0.093853
v -0.167322 -0.027034 0.163580
v -0.163155 0.285925 0.089535
v -0.154634 0.157745 0.163580
v -0.154634 0.069527 0.163580
v 0.154046 0.285925 0.089535
v -0.163155 0.369525 0.163580
v -0.163155 0.369525 0.089535
v 0.178384 -0.027034 0.163580
v -0.241554 -0.312707 0.093853
v -0.241554 -0.312707 0.163580
v 0.154208 0.157745 0.163580
v -0.163155 0.285925 0.163580
v 0.154046 0.369525 0.163580
v 0.154046 0.285925 0.163580
v -0.167322 -0.312707 0.163580

# 113 UV coordinates
vt -0.176543 0.174374 0
vt 0 0 0
vt 0 0.174374 0
vt -0.176543 0 0
vt -0.174374 0 0
vt -0.174374 0.604 0
vt -0 0.604 0
vt 0.174374 0 0
vt 0 0.601667 0
vt 0.176543 0.601667 0
vt 0.176543 0 0
vt 0 0.710667 0
vt -0.176543 0.601667 0
vt 0.174374 0.601667 0
vt -0.855833 0.710667 0
vt -0.835876 0.601667 0
vt -0.835876 0.174374 0
vt 1.01083 0.710667 0
vt 1.01083 0 0
vt -0 0.855833 0
vt -0.864874 0.604 0
vt -1.01083 0.604 0
vt -0.835876 0 0
vt 0.835876 0.601667 0
vt 1.01083 0.855833 0
vt -1.01083 1.52917 0
vt -1.01083 0.864874 0
vt 0 0.864874 0
vt -1.01083 -0 0
vt -1.01083 0.174374 0
vt -0.174374 0.601667 0
vt 0.835876 0 0
vt 0.174374 0.604 0
vt 0.855833 0.710667 0
vt 0.828882 0.800134 0
vt -0.855833 1.52917 0
vt -0.864874 0 0
vt 0.131775 0.598 0
vt 1.01083 0.604 0
vt 0.864874 0.604 0
vt 1.01083 1.52917 0
vt 0.182382 0.800134 0
vt -0 1.52917 0
vt 0 1.01083 0
vt 0.855442 0.598 0
vt 0.855833 1.52917 0
vt 0.828882 0.9848 0
vt 0.828882 0.855833 0
vt 0.182382 1.01083 0
vt 0.182382 0.855833 0
vt 0.182382 0.9848 0
vt 1.01083 1.01083 0
vt 0.18272 1.42812 0
vt -0.131775 0 0
vt -0.131775 1.01083 0
vt 0.131775 -0 0
vt 0.855442 -0 0
vt -0.131775 0.864874 0
vt -0.855442 1.01083 0
vt -0.855442 0.864874 0
vt 0.84672 1.25311 0
vt -1.01083 0.9848 0
vt -0.855833 0.800134 0
vt -0.855833 0.9848 0
vt 0.828882 1.01083 0
vt 1.01083 0.800134 0
vt 0.855833 0.9848 0
vt 0.855833 0.800134 0
vt 0.18272 1.25311 0
vt -0.84672 1.42812 0
vt 0.84672 1.42812 0
vt -0.131775 0.598 0
vt 0.864874 0.598 0
vt 0.864874 0 0
vt -1.01083 0.598 0
vt -0.864874 0.598 0
vt -1.01083 0.800134 0
vt -0.182382 0.855833 0
vt -0.828882 1.01083 0
vt -0.828882 0.855833 0
vt -0.828882 0.800134 0
vt -0.855442 0.598 0
vt -0.182382 0.800134 0
vt 1.01083 0.9848 0
vt -0.84672 1.25311 0
vt -0.18272 1.42812 0
vt 1.01083 1.25311 0
vt 0.855833 1.42812 0
vt 0.855833 1.25311 0
vt -0.18272 0.855833 0
vt -0.84672 1.01083 0
vt -0.84672 0.855833 0
vt 1.01083 0.598 0
vt -1.01083 1.01083 0
vt -1.01083 1.42812 0
vt -0.855833 1.25311 0
vt -0.855833 1.42812 0
vt -0.828882 0.9848 0
vt -0.182382 1.01083 0
vt -0.182382 0.9848 0
vt 0.84672 0.855833 0
vt 0.18272 1.01083 0
vt 0.18272 0.855833 0
vt -1.01083 1.25311 0
vt -0.18272 1.25311 0
vt -0.18272 1.01083 0
vt 1.01083 1.42812 0
vt -0.855442 0 0
vt 0.84672 1.01083 0
vt 0 2.0757 0
vt 0 0.418496 0
vt -1.213 2.0757 0
vt -1.213 0.418496 0

# 6 vertex normals
vn 0 -0.3048 0
vn 0.3048 0 0
vn 0 0 0.3048
vn -0 0 -0.3048
vn -0.3048 0 0
vn 0 0.3048 0

# Mesh 'mesh1_mesh1-geometry' with 150 faces
g mesh1_mesh1-geometry
usemtl material_0_1_8
f  1/1/1 2/2/1 3/3/1
f  2/2/1 1/1/1 4/4/1
f  3/5/2 2/2/2 5/6/2
f  5/7/3 1/4/3 3/2/3
f  3/2/4 1/4/4 5/7/4
f  1/8/5 6/9/5 4/2/5
f  6/10/4 2/2/4 4/11/4
f  4/11/3 2/2/3 6/10/3
f  7/12/2 5/6/2 2/2/2
f  1/4/3 5/7/3 8/13/3
f  8/13/4 5/7/4 1/4/4
f  6/9/5 1/8/5 8/14/5
f  2/2/4 6/10/4 7/12/4
f  7/12/3 6/10/3 2/2/3
f  5/6/2 7/12/2 9/15/2
f  8/13/3 5/7/3 10/16/3
f  10/16/4 5/7/4 8/13/4
f  10/17/1 6/4/1 8/1/1
f  7/12/4 6/10/4 11/18/4
f  11/18/3 6/10/3 7/12/3
f  11/19/6 9/20/6 7/2/6
f  5/6/2 9/15/2 12/21/2
f  13/22/3 10/16/3 5/7/3
f  5/7/4 10/16/4 13/22/4
f  6/4/1 10/17/1 14/23/1
f  14/24/4 11/18/4 6/10/4
f  6/10/3 11/18/3 14/24/3
f  9/20/6 11/19/6 15/25/6
f  9/15/2 16/26/2 12/21/2
f  17/27/1 5/3/1 12/28/1
f  18/29/3 10/16/3 13/22/3
f  13/22/4 10/16/4 18/29/4
f  5/3/1 17/27/1 13/30/1
f  10/31/2 19/2/2 14/9/2
f  14/9/5 19/2/5 10/31/5
f  19/32/4 11/18/4 14/24/4
f  14/24/3 11/18/3 19/32/3
f  11/12/5 13/33/5 15/34/5
f  15/34/2 13/33/2 11/12/2
f  15/18/4 20/35/4 9/12/4
f  16/26/2 9/15/2 21/36/2
f  12/21/2 16/26/2 22/37/2
f  12/7/4 23/38/4 17/39/4
f  10/16/3 18/29/3 24/23/3
f  24/23/4 18/29/4 10/16/4
f  11/12/5 18/8/5 13/33/5
f  13/33/2 18/8/2 11/12/2
f  15/34/5 13/33/5 17/40/5
f  17/40/2 13/33/2 15/34/2
f  19/2/2 10/31/2 24/5/2
f  24/5/5 10/31/5 19/2/5
f  11/18/4 19/32/4 25/19/4
f  25/19/3 19/32/3 11/18/3
f  20/35/4 15/18/4 26/41/4
f  27/42/4 9/12/4 20/35/4
f  9/12/4 27/42/4 21/43/4
f  26/25/6 16/44/6 21/20/6
f  22/37/2 16/26/2 28/29/2
f  22/2/4 23/38/4 12/7/4
f  29/45/4 17/39/4 23/38/4
f  18/30/1 19/23/1 24/17/1
f  18/8/5 11/12/5 25/2/5
f  25/2/2 11/12/2 18/8/2
f  15/34/5 17/40/5 26/46/5
f  26/46/2 17/40/2 15/34/2
f  19/23/1 18/30/1 25/29/1
f  20/35/4 26/41/4 30/47/4
f  20/48/6 31/49/6 27/50/6
f  21/43/4 27/42/4 32/51/4
f  16/44/6 26/25/6 33/52/6
f  21/43/4 34/53/4 26/41/4
f  16/43/3 35/54/3 28/2/3
f  28/2/4 35/54/4 16/43/4
f  35/55/1 22/28/1 28/44/1
f  23/38/4 22/2/4 36/56/4
f  37/57/4 17/39/4 29/45/4
f  23/58/1 38/59/1 29/60/1
f  26/46/5 17/40/5 33/41/5
f  33/41/2 17/40/2 26/46/2
f  30/47/4 26/41/4 39/61/4
f  40/62/2 20/63/2 30/64/2
f  31/49/6 20/48/6 41/65/6
f  31/66/5 32/67/5 27/68/5
f  21/43/4 32/51/4 42/69/4
f  33/26/3 43/70/3 16/43/3
f  16/43/4 43/70/4 33/26/4
f  21/43/4 42/69/4 34/53/4
f  44/71/4 26/41/4 34/53/4
f  35/54/3 16/43/3 45/72/3
f  45/72/4 16/43/4 35/54/4
f  22/28/1 35/55/1 36/58/1
f  35/19/5 23/73/5 36/74/5
f  17/39/4 37/57/4 46/19/4
f  38/75/2 37/37/2 29/76/2
f  38/59/1 23/58/1 45/55/1
f  33/41/5 17/40/5 47/19/5
f  47/19/2 17/40/2 33/41/2
f  39/61/4 26/41/4 44/71/4
f  30/47/4 39/61/4 32/51/4
f  20/63/2 40/62/2 41/77/2
f  32/78/1 40/79/1 30/80/1
f  41/81/3 38/82/3 31/83/3
f  31/83/4 38/82/4 41/81/4
f  32/67/5 31/66/5 48/84/5
f  42/69/4 32/51/4 39/61/4
f  33/26/3 49/85/3 43/70/3
f  43/70/4 49/85/4 33/26/4
f  50/86/3 16/43/3 43/70/3
f  43/70/4 16/43/4 50/86/4
f  51/87/5 34/88/5 42/89/5
f  34/90/1 43/91/1 44/92/1
f  45/72/3 16/43/3 31/83/3
f  31/83/4 16/43/4 45/72/4
f  23/73/5 35/19/5 45/93/5
f  37/60/1 47/94/1 46/27/1
f  47/19/5 17/40/5 46/74/5
f  46/74/2 17/40/2 47/19/2
f  37/37/2 38/75/2 52/29/2
f  45/72/3 31/83/3 38/82/3
f  38/82/4 31/83/4 45/72/4
f  47/29/3 38/82/3 33/26/3
f  33/26/4 38/82/4 47/29/4
f  43/95/2 39/96/2 44/97/2
f  33/26/3 41/81/3 40/98/3
f  40/98/4 41/81/4 33/26/4
f  40/79/1 32/78/1 48/99/1
f  33/26/3 38/82/3 41/81/3
f  41/81/4 38/82/4 33/26/4
f  31/83/3 16/43/3 48/100/3
f  48/100/4 16/43/4 31/83/4
f  39/101/6 51/102/6 42/103/6
f  42/103/1 51/102/1 39/101/1
f  33/26/3 40/98/3 49/85/3
f  49/85/4 40/98/4 33/26/4
f  39/96/2 43/95/2 49/104/2
f  51/105/3 16/43/3 50/86/3
f  50/86/4 16/43/4 51/105/4
f  43/91/1 34/90/1 50/106/1
f  34/88/5 51/87/5 50/107/5
f  47/94/1 37/60/1 52/59/1
f  38/82/3 47/29/3 52/108/3
f  52/108/4 47/29/4 38/82/4
f  48/100/3 51/105/3 40/98/3
f  40/98/4 51/105/4 48/100/4
f  48/100/3 16/43/3 51/105/3
f  51/105/4 16/43/4 48/100/4
f  51/102/6 39/101/6 49/109/6
f  49/109/1 39/101/1 51/102/1
f  49/85/3 40/98/3 51/105/3
f  51/105/4 40/98/4 49/85/4

# Mesh 'mesh1_mesh1-geometry' with 64 faces
g mesh1_mesh1-geometry
usemtl material_1_24
f  3/2/6 2/2/6 1/2/6
f  4/2/6 1/2/6 2/2/6
f  5/2/5 2/2/5 3/2/5
f  4/2/2 6/2/2 1/2/2
f  2/2/5 5/2/5 7/2/5
f  8/2/2 1/2/2 6/2/2
f  9/2/5 7/2/5 5/2/5
f  8/2/6 6/2/6 10/2/6
f  7/2/1 9/2/1 11/2/1
f  12/2/5 9/2/5 5/2/5
f  14/2/6 10/2/6 6/2/6
f  15/2/1 11/2/1 9/2/1
f  12/2/5 16/2/5 9/2/5
f  9/2/3 20/2/3 15/2/3
f  21/2/5 9/2/5 16/2/5
f  22/2/5 16/2/5 12/2/5
f  17/2/3 23/2/3 12/2/3
f  26/2/3 15/2/3 20/2/3
f  20/2/3 9/2/3 27/2/3
f  21/2/3 27/2/3 9/2/3
f  21/2/1 16/2/1 26/2/1
f  28/2/5 16/2/5 22/2/5
f  12/2/3 23/2/3 22/2/3
f  23/2/3 17/2/3 29/2/3
f  24/2/6 19/2/6 18/2/6
f  25/2/6 18/2/6 19/2/6
f  30/2/3 26/2/3 20/2/3
f  27/2/1 31/2/1 20/2/1
f  32/2/3 27/2/3 21/2/3
f  33/2/1 26/2/1 16/2/1
f  26/2/3 34/2/3 21/2/3
f  28/2/6 22/2/6 35/2/6
f  36/2/3 22/2/3 23/2/3
f  29/2/3 17/2/3 37/2/3
f  29/2/6 38/2/6 23/2/6
f  39/2/3 26/2/3 30/2/3
f  30/2/5 20/2/5 40/2/5
f  41/2/1 20/2/1 31/2/1
f  27/2/2 32/2/2 31/2/2
f  42/2/3 32/2/3 21/2/3
f  34/2/3 42/2/3 21/2/3
f  34/2/3 26/2/3 44/2/3
f  36/2/6 35/2/6 22/2/6
f  36/2/2 23/2/2 35/2/2
f  46/2/3 37/2/3 17/2/3
f  29/2/5 37/2/5 38/2/5
f  45/2/6 23/2/6 38/2/6
f  44/2/3 26/2/3 39/2/3
f  32/2/3 39/2/3 30/2/3
f  41/2/5 40/2/5 20/2/5
f  30/2/6 40/2/6 32/2/6
f  48/2/2 31/2/2 32/2/2
f  39/2/3 32/2/3 42/2/3
f  42/2/2 34/2/2 51/2/2
f  44/2/6 43/2/6 34/2/6
f  45/2/2 35/2/2 23/2/2
f  46/2/6 47/2/6 37/2/6
f  52/2/5 38/2/5 37/2/5
f  44/2/5 39/2/5 43/2/5
f  48/2/6 32/2/6 40/2/6
f  49/2/5 43/2/5 39/2/5
f  50/2/6 34/2/6 43/2/6
f  50/2/2 51/2/2 34/2/2
f  52/2/6 37/2/6 47/2/6

# Mesh 'mesh1_mesh1-geometry' with 2 faces
g mesh1_mesh1-geometry
usemtl material_2_2_8
f  12/110/6 5/111/6 17/112/6
f  13/113/6 17/112/6 5/111/6

