# File produced by Open Asset Import Library (http://www.assimp.sf.net)
# (assimp v3.2.202087883)

mtllib model_normalized.mtl

# 34 vertex positions
v 0.116180 0.583297 0.032491
v 0.157617 -0.360574 0.032491
v 0.157617 0.583297 0.032491
v 0.116180 0.297796 0.032491
v 0.157617 0.583297 -0.006962
v 0.116180 0.297796 -0.006962
v -0.170335 -0.360574 0.032491
v 0.157617 -0.360574 -0.006962
v 0.116180 0.583297 -0.006962
v -0.170335 0.297796 -0.006962
v -0.170335 0.297796 0.032491
v -0.170335 -0.360574 -0.006962
v 0.106790 -0.318412 -0.006962
v 0.092842 0.256001 -0.006962
v 0.106790 0.002144 -0.006962
v -0.129080 0.256001 -0.006962
v 0.043914 -0.318412 -0.006962
v -0.144721 0.002144 -0.006962
v 0.092842 0.071066 -0.006962
v -0.018966 -0.318412 -0.006962
v 0.106790 -0.246285 -0.006962
v -0.144721 -0.048259 -0.006962
v 0.043914 0.002144 -0.006962
v -0.129080 0.071066 -0.006962
v -0.081842 -0.318412 -0.006962
v 0.106790 -0.174159 -0.006962
v -0.144721 -0.108732 -0.006962
v -0.081842 0.002144 -0.006962
v -0.144721 -0.318412 -0.006962
v 0.106790 -0.108732 -0.006962
v -0.144721 -0.174159 -0.006962
v -0.018966 0.002144 -0.006962
v -0.144721 -0.246285 -0.006962
v 0.106790 -0.048259 -0.006962

# 7 UV coordinates
vt 0 0 0
vt 9.49181 10.4254 0
vt 9.49181 2.45076 0
vt 9.1417 10.4254 0
vt 9.1417 8.01326 0
vt 6.72098 2.45076 0
vt 6.72098 8.01326 0

# 6 vertex normals
vn 0 0 0.0254
vn 0.0254 0 -0
vn 0 0.0254 0
vn -0.0254 0 0
vn -0 -0.0254 0
vn 0 0 -0.0254

# Mesh 'mesh1_mesh1-geometry' with 46 faces
g mesh1_mesh1-geometry
usemtl material_0_24
f  1/1/1 2/1/1 3/1/1
f  2/1/1 1/1/1 4/1/1
f  2/1/2 5/1/2 3/1/2
f  5/1/3 1/1/3 3/1/3
f  1/1/4 6/1/4 4/1/4
f  2/1/1 4/1/1 7/1/1
f  5/1/2 2/1/2 8/1/2
f  1/1/3 5/1/3 9/1/3
f  6/1/4 1/1/4 9/1/4
f  10/1/3 4/1/3 6/1/3
f  7/1/1 4/1/1 11/1/1
f  12/1/5 2/1/5 7/1/5
f  2/1/5 12/1/5 8/1/5
f  8/1/6 13/1/6 5/1/6
f  9/1/6 5/1/6 6/1/6
f  4/1/3 10/1/3 11/1/3
f  6/1/6 14/1/6 10/1/6
f  11/1/4 12/1/4 7/1/4
f  13/1/6 8/1/6 12/1/6
f  5/1/6 13/1/6 6/1/6
f  12/1/4 11/1/4 10/1/4
f  14/1/6 6/1/6 15/1/6
f  10/1/6 14/1/6 16/1/6
f  13/1/6 12/1/6 17/1/6
f  15/1/6 6/1/6 13/1/6
f  10/1/6 18/1/6 12/1/6
f  14/1/6 15/1/6 19/1/6
f  10/1/6 16/1/6 18/1/6
f  17/1/6 12/1/6 20/1/6
f  15/1/6 13/1/6 21/1/6
f  22/1/6 12/1/6 18/1/6
f  23/1/6 19/1/6 15/1/6
f  24/1/6 18/1/6 16/1/6
f  20/1/6 12/1/6 25/1/6
f  15/1/6 21/1/6 26/1/6
f  27/1/6 12/1/6 22/1/6
f  19/1/6 23/1/6 24/1/6
f  24/1/6 28/1/6 18/1/6
f  25/1/6 12/1/6 29/1/6
f  15/1/6 26/1/6 30/1/6
f  31/1/6 12/1/6 27/1/6
f  24/1/6 23/1/6 32/1/6
f  24/1/6 32/1/6 28/1/6
f  29/1/6 12/1/6 33/1/6
f  15/1/6 30/1/6 34/1/6
f  33/1/6 12/1/6 31/1/6

# Mesh 'mesh1_mesh1-geometry' with 4 faces
g mesh1_mesh1-geometry
usemtl material_1_1_8
f  3/2/6 2/3/6 1/4/6
f  4/5/6 1/4/6 2/3/6
f  7/6/6 4/5/6 2/3/6
f  11/7/6 4/5/6 7/6/6

# Mesh 'mesh1_mesh1-geometry' with 8 faces
g mesh1_mesh1-geometry
usemtl material_3_24
f  3//4 5//4 2//4
f  8//4 2//4 5//4
f  6//5 4//5 10//5
f  7//3 2//3 12//3
f  8//3 12//3 2//3
f  11//5 10//5 4//5
f  7//2 12//2 11//2
f  10//2 11//2 12//2

# Mesh 'mesh1_mesh1-geometry' with 50 faces
g mesh1_mesh1-geometry
usemtl material_2_24
f  3//5 1//5 5//5
f  4//2 6//2 1//2
f  9//5 5//5 1//5
f  9//2 1//2 6//2
f  5//1 13//1 8//1
f  6//1 5//1 9//1
f  10//1 14//1 6//1
f  12//1 8//1 13//1
f  6//1 13//1 5//1
f  15//1 6//1 14//1
f  16//1 14//1 10//1
f  17//1 12//1 13//1
f  13//1 6//1 15//1
f  12//1 18//1 10//1
f  19//1 15//1 14//1
f  18//1 16//1 10//1
f  20//1 12//1 17//1
f  13//1 21//1 17//1
f  21//1 13//1 15//1
f  18//1 12//1 22//1
f  15//1 19//1 23//1
f  16//1 18//1 24//1
f  25//1 12//1 20//1
f  20//1 17//1 33//1
f  33//1 17//1 21//1
f  26//1 21//1 15//1
f  22//1 12//1 27//1
f  18//1 22//1 28//1
f  24//1 23//1 19//1
f  23//1 22//1 15//1
f  18//1 28//1 24//1
f  29//1 12//1 25//1
f  25//1 20//1 33//1
f  21//1 26//1 33//1
f  30//1 26//1 15//1
f  27//1 12//1 31//1
f  22//1 27//1 34//1
f  28//1 22//1 32//1
f  32//1 23//1 24//1
f  34//1 15//1 22//1
f  32//1 22//1 23//1
f  28//1 32//1 24//1
f  33//1 12//1 29//1
f  29//1 25//1 33//1
f  31//1 33//1 26//1
f  26//1 30//1 31//1
f  34//1 30//1 15//1
f  31//1 12//1 33//1
f  27//1 31//1 30//1
f  30//1 34//1 27//1

# Mesh 'mesh1_mesh1-geometry' with 16 faces
g mesh1_mesh1-geometry
usemtl material_4_24
f  17//6 21//6 13//6
f  33//6 17//6 20//6
f  21//6 17//6 33//6
f  28//6 22//6 18//6
f  15//6 22//6 23//6
f  33//6 20//6 25//6
f  33//6 26//6 21//6
f  34//6 27//6 22//6
f  32//6 22//6 28//6
f  22//6 15//6 34//6
f  23//6 22//6 32//6
f  33//6 25//6 29//6
f  26//6 33//6 31//6
f  31//6 30//6 26//6
f  30//6 31//6 27//6
f  27//6 34//6 30//6

# Mesh 'mesh2_mesh2-geometry' with 1 faces
g mesh2_mesh2-geometry
usemtl material_2_0
l  32 20

# Mesh 'mesh3_mesh3-geometry' with 1 faces
g mesh3_mesh3-geometry
usemtl material_2_0
l  28 25

# Mesh 'mesh4_mesh4-geometry' with 1 faces
g mesh4_mesh4-geometry
usemtl material_2_0
l  23 17

