# File produced by Open Asset Import Library (http://www.assimp.sf.net)
# (assimp v3.2.202087883)

mtllib model_normalized.mtl

# 92 vertex positions
v 0.011894 0.052706 0.032028
v 0.011894 0.001608 -0.186964
v 0.011894 0.001608 0.032028
v 0.011894 0.052706 -0.186964
v 0.405347 0.001608 0.032028
v 0.405347 0.052706 -0.186964
v 0.405347 0.001608 -0.186964
v 0.405347 0.052706 0.032028
v -0.386050 0.052706 0.032028
v -0.386050 0.001608 -0.186964
v -0.386050 0.001608 0.032028
v -0.386050 0.052706 -0.186964
v 0.007404 0.001608 0.032028
v 0.007404 0.052706 -0.186964
v 0.007404 0.001608 -0.186964
v 0.007404 0.052706 0.032028
v 0.355550 -0.122487 0.115414
v 0.355550 -0.056790 0.078916
v 0.355550 -0.056790 0.115414
v 0.355550 -0.122487 0.078916
v 0.319051 -0.056790 0.115414
v 0.319051 -0.122487 0.078916
v 0.319051 -0.122487 0.115414
v 0.319051 -0.056790 0.078916
v 0.355550 -0.122487 -0.115248
v 0.355550 -0.056790 -0.151747
v 0.355550 -0.056790 -0.115248
v 0.355550 -0.122487 -0.151747
v 0.319051 -0.056790 -0.115248
v 0.319051 -0.122487 -0.151747
v 0.319051 -0.122487 -0.115248
v 0.319051 -0.056790 -0.151747
v -0.306717 -0.122487 0.115129
v -0.306717 -0.056790 0.078630
v -0.306717 -0.056790 0.115129
v -0.306717 -0.122487 0.078630
v -0.343216 -0.056790 0.115129
v -0.343216 -0.122487 0.078630
v -0.343216 -0.122487 0.115129
v -0.343216 -0.056790 0.078630
v -0.386050 0.201757 0.076846
v -0.386050 -0.021505 0.049963
v -0.386050 0.184280 0.124862
v -0.386050 -0.004028 0.001946
v 0.007404 0.184280 0.124862
v 0.007404 -0.004028 0.001946
v 0.007404 -0.021505 0.049963
v 0.007404 0.201757 0.076846
v -0.299542 -0.122487 -0.115248
v -0.299542 -0.056790 -0.151747
v -0.299542 -0.056790 -0.115248
v -0.299542 -0.122487 -0.151747
v -0.336040 -0.056790 -0.115248
v -0.336040 -0.122487 -0.151747
v -0.336040 -0.122487 -0.115248
v -0.336040 -0.056790 -0.151747
v 0.011894 0.205144 0.076700
v 0.011894 -0.018117 0.049817
v 0.011894 0.187667 0.124716
v 0.011894 -0.000641 0.001800
v 0.405347 0.187667 0.124716
v 0.405347 -0.000641 0.001800
v 0.405347 -0.018117 0.049817
v 0.405347 0.205144 0.076700
v -0.389021 0.001608 0.107393
v -0.396321 0.001608 0.165791
v -0.389021 0.001608 0.165791
v -0.396321 0.001608 0.107393
v -0.389021 0.001608 -0.188245
v -0.389021 0.136653 0.165791
v -0.389021 -0.056790 -0.188245
v 0.406648 0.001608 -0.188245
v -0.389021 0.136653 0.107393
v 0.406648 -0.056790 0.165791
v -0.389021 -0.056790 0.165791
v -0.389021 0.107454 -0.188245
v 0.406648 0.001608 0.107393
v 0.406648 0.136653 0.107393
v 0.406648 0.001608 0.165791
v -0.389021 0.107454 0.165791
v -0.429170 0.107454 -0.188245
v 0.406648 -0.056790 -0.188245
v 0.406648 0.136653 0.165791
v 0.406648 0.107454 0.165791
v -0.429170 -0.056790 0.165791
v -0.429170 -0.056790 -0.188245
v 0.406648 0.107454 -0.188245
v 0.446796 -0.056790 0.165791
v -0.429170 0.107454 0.165791
v 0.446796 0.107454 -0.188245
v 0.446796 -0.056790 -0.188245
v 0.446796 0.107454 0.165791

# 16 UV coordinates
vt 0.251416 -0.147638 0
vt 0.284225 0 0
vt 0.251416 0 0
vt 0.284225 -0.147638 0
vt 3.34468 0 0
vt 3.37749 -0.147638 0
vt 3.37749 0 0
vt -3.34468 -0.147638 0
vt -3.37749 0 0
vt -3.37749 -0.147638 0
vt 3.34468 -0.147638 0
vt -3.34468 0 0
vt -0.251416 0 0
vt -0.284225 -0.147638 0
vt -0.251416 -0.147638 0
vt -0.284225 0 0

# 22 vertex normals
vn -0.00057735 0.00057735 0.00057735
vn -0.00057735 -0.00057735 -0.00057735
vn -0.00057735 -0.00057735 0.00057735
vn -0.00057735 0.00057735 -0.00057735
vn 0.00057735 0.00057735 -0.00057735
vn 0.00057735 0.00057735 0.00057735
vn 0.00057735 -0.00057735 -0.00057735
vn 0.00057735 -0.00057735 0.00057735
vn 0.001 0 0
vn 0 0 0.001
vn 0 0 -0.001
vn -0.001 0 0
vn 0 -0.001 0
vn 0 0.001 0
vn -0.00057735 0.000739997 -0.000345066
vn -0.00057735 -0.000739997 0.000345066
vn -0.00057735 0.000345066 0.000739997
vn -0.00057735 -0.000345066 -0.000739997
vn 0.00057735 -0.000345066 -0.000739997
vn 0.00057735 0.000739997 -0.000345066
vn 0.00057735 -0.000739997 0.000345066
vn 0.00057735 0.000345066 0.000739997

# Mesh 'mesh1_mesh1-geometry' with 24 faces
g mesh1_mesh1-geometry
usemtl material_0_24
f  1//1 2//2 3//3
f  2//2 1//1 4//4
f  3//5 2//6 1//7
f  4//8 1//7 2//6
f  2//2 5//8 3//3
f  3//5 5//4 2//6
f  5//8 1//1 3//3
f  3//5 1//7 5//4
f  1//1 6//5 4//4
f  4//8 6//3 1//7
f  6//5 2//2 4//4
f  4//8 2//6 6//3
f  5//8 2//2 7//7
f  7//1 2//6 5//4
f  1//1 5//8 8//6
f  8//2 5//4 1//7
f  6//5 1//1 8//6
f  8//2 1//7 6//3
f  2//2 6//5 7//7
f  7//1 6//3 2//6
f  6//5 5//8 7//7
f  7//1 5//4 6//3
f  5//8 6//5 8//6
f  8//2 6//3 5//4

# Mesh 'mesh2_mesh2-geometry' with 24 faces
g mesh2_mesh2-geometry
usemtl material_0_24
f  9//1 10//2 11//3
f  10//2 9//1 12//4
f  11//5 10//6 9//7
f  12//8 9//7 10//6
f  10//2 13//8 11//3
f  11//5 13//4 10//6
f  13//8 9//1 11//3
f  11//5 9//7 13//4
f  9//1 14//5 12//4
f  12//8 14//3 9//7
f  14//5 10//2 12//4
f  12//8 10//6 14//3
f  13//8 10//2 15//7
f  15//1 10//6 13//4
f  9//1 13//8 16//6
f  16//2 13//4 9//7
f  14//5 9//1 16//6
f  16//2 9//7 14//3
f  10//2 14//5 15//7
f  15//1 14//3 10//6
f  14//5 13//8 15//7
f  15//1 13//4 14//3
f  13//8 14//5 16//6
f  16//2 14//3 13//4

# Mesh 'mesh3_mesh3-geometry' with 8 faces
g mesh3_mesh3-geometry
usemtl material_1_1_8
f  17/1/9 18/2/9 19/3/9
f  18/2/9 17/1/9 20/4/9
f  21/5/10 17/6/10 19/7/10
f  22/8/11 18/9/11 20/10/11
f  17/6/10 21/5/10 23/11/10
f  18/9/11 22/8/11 24/12/11
f  21/13/12 22/14/12 23/15/12
f  22/14/12 21/13/12 24/16/12

# Mesh 'mesh3_mesh3-geometry' with 12 faces
g mesh3_mesh3-geometry
usemtl material_2_24
f  19//12 18//12 17//12
f  20//12 17//12 18//12
f  19//11 17//11 21//11
f  17//13 22//13 20//13
f  20//14 22//14 17//14
f  20//10 18//10 22//10
f  23//11 21//11 17//11
f  22//13 17//13 23//13
f  23//14 17//14 22//14
f  24//10 22//10 18//10
f  23//9 22//9 21//9
f  24//9 21//9 22//9

# Mesh 'mesh4_mesh4-geometry' with 1 faces
g mesh4_mesh4-geometry
usemtl material_2_0
l  22 20

# Mesh 'mesh5_mesh5-geometry' with 8 faces
g mesh5_mesh5-geometry
usemtl material_1_1_8
f  25/1/9 26/2/9 27/3/9
f  26/2/9 25/1/9 28/4/9
f  29/5/10 25/6/10 27/7/10
f  30/8/11 26/9/11 28/10/11
f  25/6/10 29/5/10 31/11/10
f  26/9/11 30/8/11 32/12/11
f  29/13/12 30/14/12 31/15/12
f  30/14/12 29/13/12 32/16/12

# Mesh 'mesh5_mesh5-geometry' with 12 faces
g mesh5_mesh5-geometry
usemtl material_2_24
f  27//12 26//12 25//12
f  28//12 25//12 26//12
f  27//11 25//11 29//11
f  25//13 30//13 28//13
f  28//14 30//14 25//14
f  28//10 26//10 30//10
f  31//11 29//11 25//11
f  30//13 25//13 31//13
f  31//14 25//14 30//14
f  32//10 30//10 26//10
f  31//9 30//9 29//9
f  32//9 29//9 30//9

# Mesh 'mesh6_mesh6-geometry' with 1 faces
g mesh6_mesh6-geometry
usemtl material_2_0
l  30 28

# Mesh 'mesh7_mesh7-geometry' with 8 faces
g mesh7_mesh7-geometry
usemtl material_1_1_8
f  33/1/9 34/2/9 35/3/9
f  34/2/9 33/1/9 36/4/9
f  37/5/10 33/6/10 35/7/10
f  38/8/11 34/9/11 36/10/11
f  33/6/10 37/5/10 39/11/10
f  34/9/11 38/8/11 40/12/11
f  37/13/12 38/14/12 39/15/12
f  38/14/12 37/13/12 40/16/12

# Mesh 'mesh7_mesh7-geometry' with 12 faces
g mesh7_mesh7-geometry
usemtl material_2_24
f  35//12 34//12 33//12
f  36//12 33//12 34//12
f  35//11 33//11 37//11
f  33//13 38//13 36//13
f  36//14 38//14 33//14
f  36//10 34//10 38//10
f  39//11 37//11 33//11
f  38//13 33//13 39//13
f  39//14 33//14 38//14
f  40//10 38//10 34//10
f  39//9 38//9 37//9
f  40//9 37//9 38//9

# Mesh 'mesh8_mesh8-geometry' with 1 faces
g mesh8_mesh8-geometry
usemtl material_2_0
l  38 36

# Mesh 'mesh9_mesh9-geometry' with 24 faces
g mesh9_mesh9-geometry
usemtl material_0_24
f  41//15 42//16 43//17
f  42//16 41//15 44//18
f  43//19 42//20 41//21
f  44//22 41//21 42//20
f  42//16 45//22 43//17
f  43//19 45//18 42//20
f  45//22 41//15 43//17
f  43//19 41//21 45//18
f  41//15 46//19 44//18
f  44//22 46//17 41//21
f  46//19 42//16 44//18
f  44//22 42//20 46//17
f  45//22 42//16 47//21
f  47//15 42//20 45//18
f  41//15 45//22 48//20
f  48//16 45//18 41//21
f  46//19 41//15 48//20
f  48//16 41//21 46//17
f  42//16 46//19 47//21
f  47//15 46//17 42//20
f  46//19 45//22 47//21
f  47//15 45//18 46//17
f  45//22 46//19 48//20
f  48//16 46//17 45//18

# Mesh 'mesh10_mesh10-geometry' with 8 faces
g mesh10_mesh10-geometry
usemtl material_1_1_8
f  49/1/9 50/2/9 51/3/9
f  50/2/9 49/1/9 52/4/9
f  53/5/10 49/6/10 51/7/10
f  54/8/11 50/9/11 52/10/11
f  49/6/10 53/5/10 55/11/10
f  50/9/11 54/8/11 56/12/11
f  53/13/12 54/14/12 55/15/12
f  54/14/12 53/13/12 56/16/12

# Mesh 'mesh10_mesh10-geometry' with 12 faces
g mesh10_mesh10-geometry
usemtl material_2_24
f  51//12 50//12 49//12
f  52//12 49//12 50//12
f  51//11 49//11 53//11
f  49//13 54//13 52//13
f  52//14 54//14 49//14
f  52//10 50//10 54//10
f  55//11 53//11 49//11
f  54//13 49//13 55//13
f  55//14 49//14 54//14
f  56//10 54//10 50//10
f  55//9 54//9 53//9
f  56//9 53//9 54//9

# Mesh 'mesh11_mesh11-geometry' with 1 faces
g mesh11_mesh11-geometry
usemtl material_2_0
l  54 52

# Mesh 'mesh12_mesh12-geometry' with 24 faces
g mesh12_mesh12-geometry
usemtl material_0_24
f  57//15 58//16 59//17
f  58//16 57//15 60//18
f  59//19 58//20 57//21
f  60//22 57//21 58//20
f  58//16 61//22 59//17
f  59//19 61//18 58//20
f  61//22 57//15 59//17
f  59//19 57//21 61//18
f  57//15 62//19 60//18
f  60//22 62//17 57//21
f  62//19 58//16 60//18
f  60//22 58//20 62//17
f  61//22 58//16 63//21
f  63//15 58//20 61//18
f  57//15 61//22 64//20
f  64//16 61//18 57//21
f  62//19 57//15 64//20
f  64//16 57//21 62//17
f  58//16 62//19 63//21
f  63//15 62//17 58//20
f  62//19 61//22 63//21
f  63//15 61//18 62//17
f  61//22 62//19 64//20
f  64//16 62//17 61//18

# Mesh 'mesh13_mesh13-geometry' with 118 faces
g mesh13_mesh13-geometry
usemtl material_2_24
f  65//14 66//14 67//14
f  66//14 65//14 68//14
f  67//13 66//13 65//13
f  68//13 65//13 66//13
f  69//12 67//12 65//12
f  65//9 67//9 69//9
f  70//12 65//12 67//12
f  67//9 65//9 70//9
f  71//12 67//12 69//12
f  69//9 67//9 71//9
f  65//14 72//14 69//14
f  69//13 72//13 65//13
f  65//12 70//12 73//12
f  73//9 70//9 65//9
f  67//11 70//11 74//11
f  67//12 71//12 75//12
f  75//9 71//9 67//9
f  67//12 71//12 75//12
f  71//12 67//12 76//12
f  69//10 71//10 72//10
f  72//14 65//14 77//14
f  77//13 65//13 72//13
f  73//13 78//13 70//13
f  73//10 65//10 78//10
f  74//11 70//11 79//11
f  67//11 74//11 75//11
f  37//13 75//13 71//13
f  71//14 75//14 37//14
f  75//11 80//11 67//11
f  76//12 67//12 80//12
f  81//10 71//10 76//10
f  82//10 72//10 71//10
f  77//10 78//10 65//10
f  77//12 72//12 79//12
f  83//13 70//13 78//13
f  83//11 79//11 70//11
f  79//12 82//12 74//12
f  74//9 82//9 79//9
f  79//12 72//12 74//12
f  79//11 84//11 74//11
f  75//13 37//13 74//13
f  74//14 37//14 75//14
f  37//13 71//13 40//13
f  40//14 71//14 37//14
f  80//11 75//11 85//11
f  80//13 81//13 76//13
f  71//10 81//10 86//10
f  82//12 74//12 72//12
f  82//13 26//13 71//13
f  71//14 26//14 82//14
f  78//12 77//12 79//12
f  83//12 78//12 79//12
f  82//12 79//12 87//12
f  87//9 79//9 82//9
f  74//13 19//13 82//13
f  82//14 19//14 74//14
f  82//13 88//13 74//13
f  74//14 88//14 82//14
f  74//11 84//11 88//11
f  87//12 79//12 84//12
f  84//9 79//9 87//9
f  74//13 37//13 21//13
f  21//14 37//14 74//14
f  40//13 71//13 34//13
f  34//14 71//14 40//14
f  80//11 85//11 89//11
f  81//13 80//13 89//13
f  81//9 85//9 86//9
f  86//12 85//12 81//12
f  82//13 27//13 26//13
f  26//14 27//14 82//14
f  32//13 71//13 26//13
f  26//14 71//14 32//14
f  87//10 82//10 90//10
f  19//13 74//13 21//13
f  21//14 74//14 19//14
f  82//13 19//13 18//13
f  18//14 19//14 82//14
f  88//13 82//13 91//13
f  91//14 82//14 88//14
f  92//11 88//11 84//11
f  87//13 90//13 84//13
f  35//13 21//13 37//13
f  37//14 21//14 35//14
f  34//13 71//13 53//13
f  53//14 71//14 34//14
f  85//9 81//9 89//9
f  89//12 81//12 85//12
f  82//13 18//13 27//13
f  27//14 18//14 82//14
f  50//13 71//13 32//13
f  32//14 71//14 50//14
f  91//10 90//10 82//10
f  91//12 88//12 90//12
f  92//12 90//12 88//12
f  92//13 84//13 90//13
f  21//13 35//13 24//13
f  24//14 35//14 21//14
f  53//13 71//13 56//13
f  56//14 71//14 53//14
f  27//13 34//13 53//13
f  53//14 34//14 27//14
f  27//13 18//13 34//13
f  34//14 18//14 27//14
f  56//13 71//13 50//13
f  50//14 71//14 56//14
f  29//13 50//13 32//13
f  32//14 50//14 29//14
f  24//13 35//13 34//13
f  34//14 35//14 24//14
f  27//13 53//13 51//13
f  51//14 53//14 27//14
f  24//13 34//13 18//13
f  18//14 34//14 24//14
f  50//13 29//13 51//13
f  51//14 29//14 50//14
f  27//13 51//13 29//13
f  29//14 51//14 27//14

# Mesh 'mesh13_mesh13-geometry' with 34 faces
g mesh13_mesh13-geometry
usemtl material_0_24
f  74//10 70//10 67//10
f  75//9 71//9 67//9
f  76//9 67//9 71//9
f  72//11 71//11 69//11
f  70//14 78//14 73//14
f  78//11 65//11 73//11
f  79//10 70//10 74//10
f  75//10 74//10 67//10
f  67//10 80//10 75//10
f  80//9 67//9 76//9
f  76//11 71//11 81//11
f  71//11 72//11 82//11
f  65//11 78//11 77//11
f  79//9 72//9 77//9
f  78//14 70//14 83//14
f  70//10 79//10 83//10
f  74//9 72//9 79//9
f  74//10 84//10 79//10
f  85//10 75//10 80//10
f  76//14 81//14 80//14
f  86//11 81//11 71//11
f  72//9 74//9 82//9
f  79//9 77//9 78//9
f  79//9 78//9 83//9
f  88//10 84//10 74//10
f  89//10 85//10 80//10
f  89//14 80//14 81//14
f  90//11 82//11 87//11
f  84//10 88//10 92//10
f  84//14 90//14 87//14
f  82//11 90//11 91//11
f  90//9 88//9 91//9
f  88//9 90//9 92//9
f  90//14 84//14 92//14

# Mesh 'mesh14_mesh14-geometry' with 9 faces
g mesh14_mesh14-geometry
usemtl material_2_0
l  67 65
l  65 69
l  65 77
l  65 73
l  71 69
l  71 75
l  71 82
l  74 75
l  74 88

# Mesh 'mesh15_mesh15-geometry' with 1 faces
g mesh15_mesh15-geometry
usemtl material_2_0
l  79 84

