# File produced by Open Asset Import Library (http://www.assimp.sf.net)
# (assimp v3.2.202087883)

mtllib model_normalized.mtl

# 50 vertex positions
v -0.247251 -0.577667 0.269695
v 0.247251 -0.577667 -0.224691
v 0.247251 -0.577667 0.269695
v -0.247251 -0.577667 -0.224691
v 0.247251 -0.019208 -0.221745
v 0.247251 0.130433 0.269688
v -0.247251 -0.019208 -0.221745
v 0.247251 -0.022793 -0.224691
v 0.247251 -0.015816 -0.218571
v -0.247251 0.130433 0.269688
v 0.247251 0.132551 0.268726
v 0.247251 0.130900 0.269551
v -0.247251 -0.022793 -0.224691
v -0.247251 -0.015816 -0.218571
v 0.247251 -0.012645 -0.215184
v -0.247251 0.130900 0.269551
v -0.247251 0.132551 0.268726
v 0.247251 0.134029 0.267622
v -0.247251 -0.012645 -0.215184
v 0.247251 -0.009699 -0.211597
v -0.247251 0.134029 0.267622
v 0.247251 0.135286 0.266274
v -0.247251 -0.009699 -0.211597
v 0.247251 -0.006990 -0.207825
v -0.247251 0.135286 0.266274
v 0.247251 0.136286 0.264724
v -0.247251 -0.006990 -0.207825
v 0.247251 -0.004534 -0.203886
v -0.247251 0.136286 0.264724
v 0.247251 0.136996 0.263022
v -0.247251 -0.004534 -0.203886
v 0.247251 -0.002341 -0.199795
v -0.247251 0.136996 0.263022
v 0.247251 0.137211 0.262048
v -0.247251 -0.002341 -0.199795
v 0.247251 -0.000422 -0.195570
v -0.247251 0.137211 0.262048
v 0.247251 0.137200 0.236482
v -0.247251 -0.000422 -0.195570
v 0.247251 0.001223 -0.191229
v -0.247251 0.137200 0.236482
v 0.247251 0.027023 0.223708
v -0.247251 0.001223 -0.191229
v 0.247251 0.002583 -0.186790
v -0.247251 0.027023 0.223708
v 0.247251 0.004415 -0.177694
v -0.247251 0.002583 -0.186790
v 0.247251 0.003647 -0.182272
v -0.247251 0.004415 -0.177694
v -0.247251 0.003647 -0.182272

# 4 UV coordinates
vt 0 0 0
vt 1 0 0
vt 0 1 0
vt 1 1 0

# 56 vertex normals
vn -0 -1 0
vn 0 1 0
vn 1 0 0
vn -1 0 0
vn 0 1e-05 1
vn -0 -1e-05 -1
vn 0 0 1
vn 0 0.634783 -0.77269
vn 0 0.65961 -0.751608
vn 0 -0.65961 0.751608
vn 0 -0.634783 0.77269
vn 0 0.707138 -0.707075
vn 0 -0.707138 0.707075
vn 0 0.366175 0.930546
vn 0 0.282024 0.959407
vn -0 -0.282024 -0.959407
vn -0 -0.366175 -0.930546
vn 0 0.52514 0.851016
vn 0 -0.52514 -0.851016
vn 0 0.751667 -0.659543
vn 0 -0.751667 0.659543
vn 0 0.667513 0.744598
vn 0 -0.667513 -0.744598
vn 0 0.793007 -0.609213
vn 0 -0.793007 0.609213
vn 0 0.788796 0.614655
vn 0 -0.788796 -0.614655
vn 0 0.830983 -0.556298
vn 0 -0.830983 0.556298
vn 0 0.885158 0.465291
vn 0 -0.885158 -0.465291
vn 0 0.865434 -0.501023
vn 0 -0.865434 0.501023
vn 0 0.953552 0.301227
vn -0 -0.953552 -0.301227
vn 0 0.896213 -0.443623
vn 0 -0.896213 0.443623
vn 0 0.97655 0.215288
vn -0 -0.97655 -0.215288
vn 0 0.923191 -0.384341
vn 0 -0.923191 0.384341
vn 0 1 -0.000273
vn 0 -1 0.000273
vn 0 0.946252 -0.323429
vn 0 -0.946252 0.323429
vn 0 -0.115161 0.993347
vn 0 0.9653 -0.261145
vn 0 -0.9653 0.261145
vn 0 -0.998418 0.05623
vn 0 0.980252 -0.197753
vn 0 -0.980252 0.197753
vn 0 0.986172 -0.165725
vn 0 -0.986172 0.165725
vn -0 0 -1
vn 0 0.115161 -0.993347
vn 0 0.998418 -0.05623

# Mesh 'mesh1_mesh1-geometry' with 186 faces
g mesh1_mesh1-geometry
usemtl material_0_24
f  1/1/1 2/1/1 3/1/1
f  2/1/1 1/1/1 4/1/1
f  3/1/2 2/1/2 1/1/2
f  4/1/2 1/1/2 2/1/2
f  2/1/3 5/1/3 3/1/3
f  3/1/4 5/1/4 2/1/4
f  6/1/5 1/1/5 3/1/5
f  3/1/6 1/1/6 6/1/6
f  7/1/4 4/1/4 1/1/4
f  1/1/3 4/1/3 7/1/3
f  2/1/7 8/1/7 4/1/7
f  5/1/3 2/1/3 8/1/3
f  8/1/4 2/1/4 5/1/4
f  3/1/3 5/1/3 9/1/3
f  9/1/4 5/1/4 3/1/4
f  1/1/5 6/1/5 10/1/5
f  10/1/6 6/1/6 1/1/6
f  3/1/3 11/1/3 12/1/3
f  3/1/3 12/1/3 6/1/3
f  12/1/4 11/1/4 3/1/4
f  6/1/4 12/1/4 3/1/4
f  4/1/4 7/1/4 13/1/4
f  13/1/3 7/1/3 4/1/3
f  7/1/4 1/1/4 14/1/4
f  14/1/3 1/1/3 7/1/3
f  13/1/7 4/1/7 8/1/7
f  8/1/8 7/1/9 5/1/9
f  5/1/10 7/1/10 8/1/11
f  5/1/9 14/1/12 9/1/12
f  9/1/13 14/1/13 5/1/10
f  3/1/3 9/1/3 15/1/3
f  15/1/4 9/1/4 3/1/4
f  12/1/14 10/1/15 6/1/15
f  10/1/15 12/1/14 16/1/14
f  6/1/16 10/1/16 12/1/17
f  16/1/17 12/1/17 10/1/16
f  11/1/18 16/1/14 12/1/14
f  12/1/17 16/1/17 11/1/19
f  17/1/4 1/1/4 16/1/4
f  16/1/4 1/1/4 10/1/4
f  16/1/3 1/1/3 17/1/3
f  10/1/3 1/1/3 16/1/3
f  3/1/3 18/1/3 11/1/3
f  11/1/4 18/1/4 3/1/4
f  7/1/9 8/1/8 13/1/8
f  13/1/11 8/1/11 7/1/10
f  14/1/4 1/1/4 19/1/4
f  19/1/3 1/1/3 14/1/3
f  14/1/12 5/1/9 7/1/9
f  7/1/10 5/1/10 14/1/13
f  14/1/12 15/1/20 9/1/12
f  9/1/13 15/1/21 14/1/13
f  3/1/3 15/1/3 20/1/3
f  20/1/4 15/1/4 3/1/4
f  16/1/14 11/1/18 17/1/18
f  17/1/19 11/1/19 16/1/17
f  21/1/4 1/1/4 17/1/4
f  17/1/3 1/1/3 21/1/3
f  3/1/3 22/1/3 18/1/3
f  18/1/4 22/1/4 3/1/4
f  18/1/22 17/1/18 11/1/18
f  11/1/19 17/1/19 18/1/23
f  19/1/4 1/1/4 23/1/4
f  23/1/3 1/1/3 19/1/3
f  15/1/20 14/1/12 19/1/20
f  19/1/21 14/1/13 15/1/21
f  19/1/20 20/1/24 15/1/20
f  15/1/21 20/1/25 19/1/21
f  3/1/3 20/1/3 24/1/3
f  24/1/4 20/1/4 3/1/4
f  25/1/4 1/1/4 21/1/4
f  21/1/3 1/1/3 25/1/3
f  17/1/18 18/1/22 21/1/22
f  21/1/23 18/1/23 17/1/19
f  3/1/3 26/1/3 22/1/3
f  22/1/4 26/1/4 3/1/4
f  25/1/26 18/1/22 22/1/26
f  22/1/27 18/1/23 25/1/27
f  23/1/4 1/1/4 27/1/4
f  27/1/3 1/1/3 23/1/3
f  20/1/24 19/1/20 23/1/24
f  23/1/25 19/1/21 20/1/25
f  23/1/24 24/1/28 20/1/24
f  20/1/25 24/1/29 23/1/25
f  3/1/3 24/1/3 28/1/3
f  28/1/4 24/1/4 3/1/4
f  29/1/4 1/1/4 25/1/4
f  25/1/3 1/1/3 29/1/3
f  18/1/22 25/1/26 21/1/22
f  21/1/23 25/1/27 18/1/23
f  3/1/3 30/1/3 26/1/3
f  26/1/4 30/1/4 3/1/4
f  29/1/30 22/1/26 26/1/30
f  26/1/31 22/1/27 29/1/31
f  22/1/26 29/1/30 25/1/26
f  25/1/27 29/1/31 22/1/27
f  27/1/4 1/1/4 31/1/4
f  31/1/3 1/1/3 27/1/3
f  24/1/28 23/1/24 27/1/28
f  27/1/29 23/1/25 24/1/29
f  27/1/28 28/1/32 24/1/28
f  24/1/29 28/1/33 27/1/29
f  3/1/3 28/1/3 32/1/3
f  32/1/4 28/1/4 3/1/4
f  33/1/4 1/1/4 29/1/4
f  29/1/3 1/1/3 33/1/3
f  3/1/3 34/1/3 30/1/3
f  30/1/4 34/1/4 3/1/4
f  33/1/34 26/1/30 30/1/34
f  30/1/35 26/1/31 33/1/35
f  26/1/30 33/1/34 29/1/30
f  29/1/31 33/1/35 26/1/31
f  31/1/4 1/1/4 35/1/4
f  35/1/3 1/1/3 31/1/3
f  28/1/32 27/1/28 31/1/32
f  31/1/33 27/1/29 28/1/33
f  31/1/32 32/1/36 28/1/32
f  28/1/33 32/1/37 31/1/33
f  3/1/3 32/1/3 36/1/3
f  36/1/4 32/1/4 3/1/4
f  37/1/4 1/1/4 33/1/4
f  33/1/3 1/1/3 37/1/3
f  3/1/3 38/1/3 34/1/3
f  34/1/4 38/1/4 3/1/4
f  37/1/38 30/1/34 34/1/38
f  34/1/39 30/1/35 37/1/39
f  30/1/34 37/1/38 33/1/34
f  33/1/35 37/1/39 30/1/35
f  35/1/4 1/1/4 39/1/4
f  39/1/3 1/1/3 35/1/3
f  32/1/36 31/1/32 35/1/36
f  35/1/37 31/1/33 32/1/37
f  35/1/36 36/1/40 32/1/36
f  32/1/37 36/1/41 35/1/37
f  3/1/3 36/1/3 40/1/3
f  40/1/4 36/1/4 3/1/4
f  41/1/4 1/1/4 37/1/4
f  37/1/3 1/1/3 41/1/3
f  3/1/3 42/1/3 38/1/3
f  38/1/4 42/1/4 3/1/4
f  41/1/42 34/1/42 38/1/42
f  38/1/43 34/1/43 41/1/43
f  34/1/42 41/1/42 37/1/42
f  37/1/43 41/1/43 34/1/43
f  39/1/4 1/1/4 43/1/4
f  43/1/3 1/1/3 39/1/3
f  36/1/40 35/1/36 39/1/40
f  39/1/41 35/1/37 36/1/41
f  39/1/40 40/1/44 36/1/40
f  36/1/41 40/1/45 39/1/41
f  3/1/3 40/1/3 44/1/3
f  44/1/4 40/1/4 3/1/4
f  45/1/4 1/1/4 41/1/4
f  41/1/3 1/1/3 45/1/3
f  3/1/3 46/1/3 42/1/3
f  42/1/4 46/1/4 3/1/4
f  38/1/46 41/1/46 42/1/46
f  43/1/4 1/1/4 47/1/4
f  47/1/3 1/1/3 43/1/3
f  40/1/44 39/1/40 43/1/44
f  43/1/45 39/1/41 40/1/45
f  43/1/44 44/1/47 40/1/44
f  40/1/45 44/1/48 43/1/45
f  3/1/3 44/1/3 48/1/3
f  48/1/4 44/1/4 3/1/4
f  49/1/4 1/1/4 45/1/4
f  45/1/3 1/1/3 49/1/3
f  45/1/46 42/1/46 41/1/46
f  3/1/3 48/1/3 46/1/3
f  46/1/4 48/1/4 3/1/4
f  46/1/49 42/1/49 49/1/49
f  47/1/4 1/1/4 50/1/4
f  50/1/3 1/1/3 47/1/3
f  44/1/47 43/1/44 47/1/47
f  47/1/48 43/1/45 44/1/48
f  47/1/47 48/1/50 44/1/47
f  44/1/48 48/1/51 47/1/48
f  50/1/4 1/1/4 49/1/4
f  49/1/3 1/1/3 50/1/3
f  45/1/49 49/1/49 42/1/49
f  50/1/50 46/1/52 48/1/50
f  48/1/51 46/1/53 50/1/51
f  46/1/52 50/1/50 49/1/52
f  49/1/53 50/1/51 46/1/53
f  48/1/50 47/1/47 50/1/50
f  50/1/51 47/1/48 48/1/51

# Mesh 'mesh1_mesh1-geometry' with 2 faces
g mesh1_mesh1-geometry
usemtl material_1_3_8
f  4/2/54 8/3/54 2/1/54
f  8/3/54 4/2/54 13/4/54

# Mesh 'mesh1_mesh1-geometry' with 2 faces
g mesh1_mesh1-geometry
usemtl material_1_2_8
f  42/1/55 41/4/55 38/3/55
f  41/4/55 42/1/55 45/2/55

# Mesh 'mesh1_mesh1-geometry' with 2 faces
g mesh1_mesh1-geometry
usemtl material_1_1_8
f  49/2/56 42/3/56 46/1/56
f  42/3/56 49/2/56 45/4/56

# Mesh 'mesh2_mesh2-geometry' with 52 faces
g mesh2_mesh2-geometry
usemtl material_0_0
l  3 1
l  3 6
l  2 3
l  1 4
l  1 10
l  12 11
l  6 12
l  6 10
l  8 2
l  2 4
l  13 4
l  10 16
l  16 17
l  11 18
l  5 8
l  8 13
l  7 13
l  17 21
l  18 22
l  9 5
l  14 7
l  21 25
l  22 26
l  15 9
l  19 14
l  25 29
l  26 30
l  20 15
l  23 19
l  29 33
l  30 34
l  24 20
l  27 23
l  33 37
l  34 37
l  38 34
l  28 24
l  31 27
l  37 41
l  38 41
l  32 28
l  35 31
l  36 32
l  39 35
l  40 36
l  43 39
l  44 40
l  47 43
l  48 44
l  50 47
l  46 48
l  49 50

