# File produced by Open Asset Import Library (http://www.assimp.sf.net)
# (assimp v3.2.202087883)

mtllib model_normalized.mtl

# 87 vertex positions
v 0.245078 0.107244 0.123590
v 0.255502 0.095343 0.123590
v 0.245095 0.095343 0.123590
v 0.255502 0.107244 0.123590
v 0.245054 0.099500 0.113269
v 0.245118 0.163093 0.158741
v 0.255502 0.163093 0.158741
v 0.255502 0.095343 -0.361197
v 0.244763 0.365676 0.139025
v 0.255502 -0.172631 0.277110
v 0.244763 0.099616 0.027572
v 0.255502 -0.032693 -0.361197
v 0.223482 0.164068 0.170038
v 0.245118 0.327039 0.227418
v 0.255502 -0.172631 -0.347392
v 0.255502 0.169941 0.238156
v 0.225595 0.107244 -0.331657
v 0.255502 -0.032693 -0.347392
v 0.247497 -0.024764 -0.368498
v 0.227508 0.106482 0.024920
v -0.243077 0.327039 0.227418
v 0.255502 0.169941 0.270310
v -0.250311 0.095343 -0.361197
v -0.250311 -0.032693 -0.347392
v 0.247497 0.087414 -0.368498
v -0.242306 -0.024764 -0.368498
v 0.186744 0.149747 0.029984
v -0.243427 0.169941 0.238156
v 0.223482 0.302658 0.228094
v -0.242723 0.365676 0.139025
v -0.221441 0.302658 0.228094
v -0.243427 0.169941 0.270310
v 0.255502 0.163123 0.277110
v -0.220403 0.107244 -0.331657
v 0.225595 0.107244 0.025009
v -0.250311 -0.032693 -0.361197
v -0.242306 0.087414 -0.368498
v 0.186744 0.317408 0.100219
v -0.221441 0.164068 0.170038
v -0.243077 0.163093 0.158741
v -0.250311 -0.172631 -0.347392
v -0.250311 0.163123 0.277110
v -0.250311 -0.172631 0.277110
v -0.227357 0.104476 0.024686
v -0.220403 0.107244 0.025009
v -0.184704 0.149747 0.029984
v -0.184704 0.317408 0.100219
v -0.243037 0.107244 0.123590
v -0.250311 -0.032693 0.277110
v -0.242723 0.098363 0.027047
v -0.250311 0.095343 0.123590
v -0.250335 0.163093 0.158741
v -0.243026 0.098242 0.116394
v -0.250311 0.107244 0.123590
v -0.243055 0.095343 0.123590
v -0.224393 -0.182282 0.150125
v -0.130139 -0.206442 0.161631
v -0.212744 -0.206442 0.161631
v -0.118489 -0.182282 0.150125
v -0.224393 -0.182282 0.254729
v -0.118489 -0.182282 0.254729
v -0.212744 -0.206442 0.243222
v -0.130139 -0.206442 0.243222
v 0.126996 -0.182282 0.150125
v 0.221251 -0.206442 0.161631
v 0.138645 -0.206442 0.161631
v 0.232900 -0.182282 0.150125
v 0.126996 -0.182282 0.254729
v 0.232900 -0.182282 0.254729
v 0.138645 -0.206442 0.243222
v 0.221251 -0.206442 0.243222
v -0.212744 -0.206442 -0.319970
v -0.224393 -0.182282 -0.226872
v -0.224393 -0.182282 -0.331476
v -0.212744 -0.206442 -0.238379
v -0.130139 -0.206442 -0.319970
v -0.118489 -0.182282 -0.226872
v -0.118489 -0.182282 -0.331476
v -0.130139 -0.206442 -0.238379
v 0.232900 -0.182282 -0.226872
v 0.138645 -0.206442 -0.238379
v 0.221251 -0.206442 -0.238379
v 0.126996 -0.182282 -0.226872
v 0.221251 -0.206442 -0.319970
v 0.138645 -0.206442 -0.319970
v 0.232900 -0.182282 -0.331476
v 0.126996 -0.182282 -0.331476

# 0 UV coordinates

# 70 vertex normals
vn 0 0 -0.001
vn 0 0.000927561 0.000373671
vn 0.000999993 1.422e-06 -3.396e-06
vn 0 0.000532669 -0.000846324
vn 0.001 0 0
vn 0.000369714 0.000929145 0
vn 0 0.000996304 -8.5902e-05
vn 0.000673858 0 -0.000738861
vn 0.000283374 0.000370534 -0.000884536
vn 0.000421048 -0.000350454 0.000836601
vn 0 0.000916288 0.000400519
vn 0 0.000927561 -0.000373673
vn 0 -0.001 0
vn -0 -0.000677374 -0.000735638
vn 0 2.7719e-05 0.000999616
vn 0 0.001 0
vn 0 0.000677374 -0.000735638
vn 0 0.00011626 -0.000993219
vn 0 -0.000386371 0.000922343
vn 0 0.000626589 -0.00077935
vn -0.000999993 1.422e-06 -3.395e-06
vn -0.000421047 -0.000350454 0.000836601
vn 0 0.000706123 0.000708089
vn 0 0 0.001
vn -0.000369714 0.000929146 0
vn -0.001 0 0
vn -0.000673855 0 -0.000738863
vn 0 0.000386371 -0.000922343
vn -0.000703771 0.000710427 -2.9e-08
vn -0.000283374 0.000370534 -0.000884536
vn -0.001 0 2.01e-07
vn -0.001 -2.71e-07 -2.47e-07
vn 0 0.000927559 0.000373676
vn -0 -0.000927561 -0.000373671
vn -0.000999993 -1.422e-06 3.396e-06
vn 0 -0.000532669 0.000846324
vn -0.000369714 -0.000929145 0
vn 0 -0.000996304 8.5902e-05
vn -0.000673858 0 0.000738861
vn -0.000283374 -0.000370534 0.000884536
vn -0.000421048 0.000350454 -0.000836601
vn -0 -0.000916288 -0.000400519
vn 0 -0.000927561 0.000373673
vn 0 0.000677374 0.000735638
vn -0 -2.7719e-05 -0.000999616
vn 0 -0.000677374 0.000735638
vn 0 -0.00011626 0.000993219
vn 0 -0.000626589 0.00077935
vn 0.000999993 -1.422e-06 3.395e-06
vn 0.000421047 0.000350454 -0.000836601
vn -0 -0.000706123 -0.000708089
vn 0.000369714 -0.000929146 0
vn 0.000673855 0 0.000738863
vn 0.000703771 -0.000710427 2.9e-08
vn 0.000283374 -0.000370534 0.000884536
vn 0.001 -0 -2.01e-07
vn 0.001 2.71e-07 2.47e-07
vn -0 -0.000927559 -0.000373676
vn -0 -0.000429977 -0.00090284
vn -0.00090076 -0.000434318 0
vn 0.000900759 -0.00043432 -0
vn 0 -0.000429977 0.00090284
vn 0 0.000429977 0.00090284
vn 0.00090076 0.000434318 0
vn -0.000900759 0.00043432 0
vn 0 0.000429977 -0.00090284
vn -0.000900759 -0.00043432 0
vn 0.00090076 -0.000434318 -0
vn 0.000900759 0.00043432 0
vn -0.00090076 0.000434318 0

# Mesh 'mesh1_mesh1-geometry' with 104 faces
g mesh1_mesh1-geometry
usemtl material_0_24
f  1//1 2//1 3//1
f  2//1 1//1 4//1
f  5//2 3//2 2//2
f  3//3 5//3 1//3
f  6//4 4//4 1//4
f  7//5 2//5 4//5
f  8//6 5//6 2//6
f  5//3 9//3 1//3
f  4//4 6//4 7//4
f  1//3 9//3 6//3
f  10//5 2//5 7//5
f  5//6 8//6 11//6
f  2//5 12//5 8//5
f  9//3 5//3 11//3
f  13//7 7//7 6//7
f  6//3 9//3 14//3
f  15//5 2//5 10//5
f  10//5 7//5 16//5
f  11//6 8//6 17//6
f  12//5 2//5 18//5
f  19//8 8//8 12//8
f  20//9 9//9 11//9
f  13//7 16//7 7//7
f  14//10 13//10 6//10
f  9//11 21//11 14//11
f  18//5 2//5 15//5
f  10//5 16//5 22//5
f  23//12 17//12 8//12
f  11//6 17//6 20//6
f  24//13 12//13 18//13
f  8//8 19//8 25//8
f  12//14 26//14 19//14
f  9//9 20//9 27//9
f  16//7 13//7 28//7
f  13//10 14//10 29//10
f  21//11 9//11 30//11
f  31//15 14//15 21//15
f  15//1 24//1 18//1
f  16//16 32//16 22//16
f  10//5 22//5 33//5
f  17//12 23//12 34//12
f  25//17 23//17 8//17
f  20//6 17//6 35//6
f  12//13 24//13 36//13
f  19//1 37//1 25//1
f  26//14 12//14 36//14
f  37//1 19//1 26//1
f  35//18 27//18 20//18
f  9//9 27//9 38//9
f  28//7 13//7 39//7
f  32//16 16//16 28//16
f  14//15 31//15 29//15
f  29//19 39//19 13//19
f  38//20 30//20 9//20
f  30//21 40//21 21//21
f  21//22 39//22 31//22
f  24//1 15//1 41//1
f  42//23 22//23 32//23
f  22//23 42//23 33//23
f  33//24 43//24 10//24
f  44//25 34//25 23//25
f  45//16 17//16 34//16
f  23//17 25//17 37//17
f  17//16 45//16 35//16
f  24//26 23//26 36//26
f  23//27 26//27 36//27
f  26//27 23//27 37//27
f  27//18 35//18 46//18
f  27//28 47//28 38//28
f  28//7 39//7 40//7
f  28//29 42//29 32//29
f  39//19 29//19 31//19
f  30//20 38//20 47//20
f  30//21 48//21 40//21
f  39//22 21//22 40//22
f  43//26 24//26 41//26
f  49//24 33//24 42//24
f  43//24 33//24 49//24
f  34//25 44//25 45//25
f  44//25 23//25 50//25
f  45//18 46//18 35//18
f  23//26 24//26 51//26
f  47//28 27//28 46//28
f  28//7 40//7 52//7
f  42//29 28//29 52//29
f  46//30 30//30 47//30
f  30//21 53//21 48//21
f  48//4 52//4 40//4
f  24//26 43//26 51//26
f  42//31 52//31 49//31
f  54//26 43//26 49//26
f  46//18 45//18 44//18
f  50//25 23//25 53//25
f  30//30 44//30 50//30
f  53//25 23//25 51//25
f  44//30 30//30 46//30
f  53//21 30//21 50//21
f  48//21 53//21 55//21
f  52//4 48//4 54//4
f  51//26 43//26 54//26
f  49//32 52//32 54//32
f  51//33 55//33 53//33
f  55//1 54//1 48//1
f  54//1 55//1 51//1

# Mesh 'mesh1_mesh1-geometry' with 104 faces
g mesh1_mesh1-geometry
usemtl material_1_24
f  3//24 2//24 1//24
f  4//24 1//24 2//24
f  2//34 3//34 5//34
f  1//35 5//35 3//35
f  1//36 4//36 6//36
f  4//26 2//26 7//26
f  2//37 5//37 8//37
f  1//35 9//35 5//35
f  7//36 6//36 4//36
f  6//35 9//35 1//35
f  7//26 2//26 10//26
f  11//37 8//37 5//37
f  8//26 12//26 2//26
f  11//35 5//35 9//35
f  6//38 7//38 13//38
f  14//35 9//35 6//35
f  10//26 2//26 15//26
f  16//26 7//26 10//26
f  17//37 8//37 11//37
f  18//26 2//26 12//26
f  12//39 8//39 19//39
f  11//40 9//40 20//40
f  7//38 16//38 13//38
f  6//41 13//41 14//41
f  14//42 21//42 9//42
f  15//26 2//26 18//26
f  22//26 16//26 10//26
f  8//43 17//43 23//43
f  20//37 17//37 11//37
f  18//16 12//16 24//16
f  25//39 19//39 8//39
f  19//44 26//44 12//44
f  27//40 20//40 9//40
f  28//38 13//38 16//38
f  29//41 14//41 13//41
f  30//42 9//42 21//42
f  21//45 14//45 31//45
f  18//24 24//24 15//24
f  22//13 32//13 16//13
f  33//26 22//26 10//26
f  34//43 23//43 17//43
f  8//46 23//46 25//46
f  35//37 17//37 20//37
f  36//16 24//16 12//16
f  25//24 37//24 19//24
f  36//44 12//44 26//44
f  26//24 19//24 37//24
f  20//47 27//47 35//47
f  38//40 27//40 9//40
f  39//38 13//38 28//38
f  28//13 16//13 32//13
f  29//45 31//45 14//45
f  13//28 39//28 29//28
f  9//48 30//48 38//48
f  21//49 40//49 30//49
f  31//50 39//50 21//50
f  41//24 15//24 24//24
f  32//51 22//51 42//51
f  33//51 42//51 22//51
f  10//1 43//1 33//1
f  23//52 34//52 44//52
f  34//13 17//13 45//13
f  37//46 25//46 23//46
f  35//13 45//13 17//13
f  36//5 23//5 24//5
f  36//53 26//53 23//53
f  37//53 23//53 26//53
f  46//47 35//47 27//47
f  38//19 47//19 27//19
f  40//38 39//38 28//38
f  32//54 42//54 28//54
f  31//28 29//28 39//28
f  47//48 38//48 30//48
f  40//49 48//49 30//49
f  40//50 21//50 39//50
f  41//5 24//5 43//5
f  42//1 33//1 49//1
f  49//1 33//1 43//1
f  45//52 44//52 34//52
f  50//52 23//52 44//52
f  35//47 46//47 45//47
f  51//5 24//5 23//5
f  46//19 27//19 47//19
f  52//38 40//38 28//38
f  52//54 28//54 42//54
f  47//55 30//55 46//55
f  48//49 53//49 30//49
f  40//36 52//36 48//36
f  51//5 43//5 24//5
f  49//56 52//56 42//56
f  49//5 43//5 54//5
f  44//47 45//47 46//47
f  53//52 23//52 50//52
f  50//55 44//55 30//55
f  51//52 23//52 53//52
f  46//55 30//55 44//55
f  50//49 30//49 53//49
f  55//49 53//49 48//49
f  54//36 48//36 52//36
f  54//5 43//5 51//5
f  54//57 52//57 49//57
f  53//58 55//58 51//58
f  48//24 54//24 55//24
f  51//24 55//24 54//24

# Mesh 'mesh2_mesh2-geometry' with 8 faces
g mesh2_mesh2-geometry
usemtl material_0_24
f  56//59 57//59 58//59
f  57//59 56//59 59//59
f  58//60 60//60 56//60
f  61//61 57//61 59//61
f  60//60 58//60 62//60
f  57//61 61//61 63//61
f  62//62 61//62 60//62
f  61//62 62//62 63//62

# Mesh 'mesh2_mesh2-geometry' with 8 faces
g mesh2_mesh2-geometry
usemtl material_2_24
f  58//63 57//63 56//63
f  59//63 56//63 57//63
f  56//64 60//64 58//64
f  59//65 57//65 61//65
f  62//64 58//64 60//64
f  63//65 61//65 57//65
f  60//66 61//66 62//66
f  63//66 62//66 61//66

# Mesh 'mesh3_mesh3-geometry' with 8 faces
g mesh3_mesh3-geometry
usemtl material_0_24
f  64//59 65//59 66//59
f  65//59 64//59 67//59
f  66//67 68//67 64//67
f  69//68 65//68 67//68
f  68//67 66//67 70//67
f  65//68 69//68 71//68
f  70//62 69//62 68//62
f  69//62 70//62 71//62

# Mesh 'mesh3_mesh3-geometry' with 8 faces
g mesh3_mesh3-geometry
usemtl material_2_24
f  66//63 65//63 64//63
f  67//63 64//63 65//63
f  64//69 68//69 66//69
f  67//70 65//70 69//70
f  70//69 66//69 68//69
f  71//70 69//70 65//70
f  68//66 69//66 70//66
f  71//66 70//66 69//66

# Mesh 'mesh4_mesh4-geometry' with 8 faces
g mesh4_mesh4-geometry
usemtl material_0_24
f  72//60 73//60 74//60
f  73//60 72//60 75//60
f  74//59 76//59 72//59
f  75//62 77//62 73//62
f  76//59 74//59 78//59
f  77//62 75//62 79//62
f  77//61 76//61 78//61
f  76//61 77//61 79//61

# Mesh 'mesh4_mesh4-geometry' with 8 faces
g mesh4_mesh4-geometry
usemtl material_2_24
f  74//64 73//64 72//64
f  75//64 72//64 73//64
f  72//63 76//63 74//63
f  73//66 77//66 75//66
f  78//63 74//63 76//63
f  79//66 75//66 77//66
f  78//65 76//65 77//65
f  79//65 77//65 76//65

# Mesh 'mesh5_mesh5-geometry' with 8 faces
g mesh5_mesh5-geometry
usemtl material_0_24
f  80//62 81//62 82//62
f  81//62 80//62 83//62
f  84//68 80//68 82//68
f  83//67 85//67 81//67
f  80//68 84//68 86//68
f  85//67 83//67 87//67
f  84//59 87//59 86//59
f  87//59 84//59 85//59

# Mesh 'mesh5_mesh5-geometry' with 8 faces
g mesh5_mesh5-geometry
usemtl material_2_24
f  82//66 81//66 80//66
f  83//66 80//66 81//66
f  82//70 80//70 84//70
f  81//69 85//69 83//69
f  86//70 84//70 80//70
f  87//69 83//69 85//69
f  86//63 87//63 84//63
f  85//63 84//63 87//63

