# File produced by Open Asset Import Library (http://www.assimp.sf.net)
# (assimp v3.2.202087883)

mtllib model_normalized.mtl

# 68 vertex positions
v 0.034357 0.208844 -0.083035
v 0.034357 0.203557 -0.040740
v 0.034357 0.203557 -0.083035
v 0.034357 0.208844 -0.040740
v 0.028843 0.203557 -0.077748
v -0.029086 0.203557 -0.083035
v 0.028843 0.208844 -0.040740
v 0.028843 0.203557 -0.040740
v -0.029086 0.208844 -0.083035
v 0.028843 0.208844 -0.077748
v -0.024025 0.203557 -0.077748
v -0.029086 0.208844 -0.040740
v -0.024025 0.208844 -0.077748
v -0.024025 0.203557 -0.040740
v -0.029086 0.203557 -0.040740
v -0.024025 0.208844 -0.040740
v 0.034357 -0.066073 -0.083035
v 0.034357 -0.071360 -0.040740
v 0.034357 -0.071360 -0.083035
v 0.034357 -0.066073 -0.040740
v 0.028843 -0.071360 -0.077748
v -0.029086 -0.071360 -0.083035
v 0.028843 -0.066073 -0.040740
v 0.028843 -0.071360 -0.040740
v -0.029086 -0.066073 -0.083035
v 0.028843 -0.066073 -0.077748
v -0.024025 -0.071360 -0.077748
v -0.029086 -0.066073 -0.040740
v -0.024025 -0.066073 -0.077748
v -0.024025 -0.071360 -0.040740
v -0.029086 -0.071360 -0.040740
v -0.024025 -0.066073 -0.040740
v -0.293429 -0.048619 -0.035453
v -0.293429 0.226297 -0.040740
v -0.293429 -0.048619 -0.040740
v -0.293429 0.226297 -0.035453
v 0.298700 -0.048619 -0.040740
v -0.293429 -0.323536 -0.035453
v -0.314576 0.247445 -0.035453
v 0.298700 0.226297 -0.035453
v -0.029086 0.203557 -0.040740
v -0.293429 -0.323536 -0.040740
v 0.298700 0.226297 -0.040740
v -0.029086 0.208844 -0.040740
v 0.298700 -0.323536 -0.040740
v -0.293429 -0.323536 0.366348
v -0.293429 -0.365831 -0.035453
v 0.319847 0.247445 -0.035453
v 0.034357 0.208844 -0.040740
v -0.024025 0.208844 -0.040740
v -0.024025 0.203557 -0.040740
v -0.024025 -0.066073 -0.040740
v -0.029086 -0.071360 -0.040740
v -0.314576 -0.365831 -0.035453
v 0.298700 -0.048619 -0.035453
v 0.319847 0.247445 0.387496
v 0.028843 0.208844 -0.040740
v -0.029086 -0.066073 -0.040740
v 0.298700 -0.323536 -0.035453
v -0.293429 -0.365831 0.366348
v -0.314576 -0.365831 0.387496
v -0.314576 0.247445 0.387496
v 0.319847 -0.365831 -0.035453
v -0.024025 -0.071360 -0.040740
v 0.298700 -0.323536 0.366348
v 0.319847 -0.365831 0.387496
v 0.298700 -0.365831 -0.035453
v 0.298700 -0.365831 0.366348

# 0 UV coordinates

# 6 vertex normals
vn 0.0254 0 0
vn -0.0254 0 0
vn -0 -0.0254 0
vn 0 0.0254 0
vn 0 0 -0.0254
vn 0 -0 0.0254

# Mesh 'mesh1_mesh1-geometry' with 48 faces
g mesh1_mesh1-geometry
usemtl material_0_24
f  1//1 2//1 3//1
f  2//1 1//1 4//1
f  3//2 2//2 1//2
f  4//2 1//2 2//2
f  2//3 5//3 3//3
f  3//4 5//4 2//4
f  6//5 1//5 3//5
f  3//6 1//6 6//6
f  1//4 7//4 4//4
f  4//3 7//3 1//3
f  5//3 2//3 8//3
f  8//4 2//4 5//4
f  3//3 5//3 6//3
f  6//4 5//4 3//4
f  1//5 6//5 9//5
f  9//6 6//6 1//6
f  7//4 1//4 10//4
f  10//3 1//3 7//3
f  7//2 5//2 8//2
f  8//1 5//1 7//1
f  11//3 6//3 5//3
f  5//4 6//4 11//4
f  6//2 12//2 9//2
f  9//1 12//1 6//1
f  9//4 13//4 1//4
f  1//3 13//3 9//3
f  10//4 1//4 13//4
f  13//3 1//3 10//3
f  5//2 7//2 10//2
f  10//1 7//1 5//1
f  14//3 6//3 11//3
f  11//4 6//4 14//4
f  5//6 13//6 11//6
f  11//5 13//5 5//5
f  12//2 6//2 15//2
f  15//1 6//1 12//1
f  12//4 13//4 9//4
f  9//3 13//3 12//3
f  13//6 5//6 10//6
f  10//5 5//5 13//5
f  6//3 14//3 15//3
f  15//4 14//4 6//4
f  13//1 14//1 11//1
f  11//2 14//2 13//2
f  13//4 12//4 16//4
f  16//3 12//3 13//3
f  14//1 13//1 16//1
f  16//2 13//2 14//2

# Mesh 'mesh2_mesh2-geometry' with 8 faces
g mesh2_mesh2-geometry
usemtl material_0_0
l  1 3
l  4 1
l  9 1
l  2 3
l  3 6
l  12 9
l  6 9
l  15 6

# Mesh 'mesh3_mesh3-geometry' with 8 faces
g mesh3_mesh3-geometry
usemtl material_0_0
l  5 8
l  11 5
l  10 5
l  14 11
l  13 11
l  13 10
l  10 7
l  16 13

# Mesh 'mesh1_mesh1-geometry' with 48 faces
g mesh1_mesh1-geometry
usemtl material_0_24
f  17//1 18//1 19//1
f  18//1 17//1 20//1
f  19//2 18//2 17//2
f  20//2 17//2 18//2
f  18//3 21//3 19//3
f  19//4 21//4 18//4
f  22//5 17//5 19//5
f  19//6 17//6 22//6
f  17//4 23//4 20//4
f  20//3 23//3 17//3
f  21//3 18//3 24//3
f  24//4 18//4 21//4
f  19//3 21//3 22//3
f  22//4 21//4 19//4
f  17//5 22//5 25//5
f  25//6 22//6 17//6
f  23//4 17//4 26//4
f  26//3 17//3 23//3
f  23//2 21//2 24//2
f  24//1 21//1 23//1
f  27//3 22//3 21//3
f  21//4 22//4 27//4
f  22//2 28//2 25//2
f  25//1 28//1 22//1
f  25//4 29//4 17//4
f  17//3 29//3 25//3
f  26//4 17//4 29//4
f  29//3 17//3 26//3
f  21//2 23//2 26//2
f  26//1 23//1 21//1
f  30//3 22//3 27//3
f  27//4 22//4 30//4
f  21//6 29//6 27//6
f  27//5 29//5 21//5
f  28//2 22//2 31//2
f  31//1 22//1 28//1
f  28//4 29//4 25//4
f  25//3 29//3 28//3
f  29//6 21//6 26//6
f  26//5 21//5 29//5
f  22//3 30//3 31//3
f  31//4 30//4 22//4
f  29//1 30//1 27//1
f  27//2 30//2 29//2
f  29//4 28//4 32//4
f  32//3 28//3 29//3
f  30//1 29//1 32//1
f  32//2 29//2 30//2

# Mesh 'mesh2_mesh2-geometry' with 8 faces
g mesh2_mesh2-geometry
usemtl material_0_0
l  17 19
l  20 17
l  25 17
l  18 19
l  19 22
l  28 25
l  22 25
l  31 22

# Mesh 'mesh3_mesh3-geometry' with 8 faces
g mesh3_mesh3-geometry
usemtl material_0_0
l  21 24
l  27 21
l  26 21
l  30 27
l  29 27
l  29 26
l  26 23
l  32 29

# Mesh 'mesh4_mesh4-geometry' with 140 faces
g mesh4_mesh4-geometry
usemtl material_0_24
f  33//2 34//2 35//2
f  34//2 33//2 36//2
f  35//1 34//1 33//1
f  36//1 33//1 34//1
f  34//5 37//5 35//5
f  35//6 37//6 34//6
f  35//2 38//2 33//2
f  33//1 38//1 35//1
f  33//5 39//5 36//5
f  36//6 39//6 33//6
f  40//4 34//4 36//4
f  36//3 34//3 40//3
f  37//5 34//5 41//5
f  41//6 34//6 37//6
f  37//5 20//5 35//5
f  35//6 20//6 37//6
f  38//2 35//2 42//2
f  42//1 35//1 38//1
f  38//5 39//5 33//5
f  33//6 39//6 38//6
f  36//5 39//5 40//5
f  40//6 39//6 36//6
f  34//4 40//4 43//4
f  43//3 40//3 34//3
f  41//5 34//5 44//5
f  44//6 34//6 41//6
f  2//5 37//5 41//5
f  41//6 37//6 2//6
f  37//5 18//5 20//5
f  20//6 18//6 37//6
f  23//5 35//5 20//5
f  20//6 35//6 23//6
f  35//5 45//5 42//5
f  42//6 45//6 35//6
f  42//3 46//3 38//3
f  38//4 46//4 42//4
f  47//5 39//5 38//5
f  38//6 39//6 47//6
f  48//5 40//5 39//5
f  39//6 40//6 48//6
f  40//1 37//1 43//1
f  43//2 37//2 40//2
f  43//5 49//5 34//5
f  34//6 49//6 43//6
f  44//5 34//5 50//5
f  50//6 34//6 44//6
f  37//5 2//5 43//5
f  43//6 2//6 37//6
f  51//5 2//5 41//5
f  41//6 2//6 51//6
f  45//5 18//5 37//5
f  37//6 18//6 45//6
f  52//5 35//5 23//5
f  23//6 35//6 52//6
f  45//5 35//5 53//5
f  53//6 35//6 45//6
f  45//3 46//3 42//3
f  42//4 46//4 45//4
f  46//1 47//1 38//1
f  38//2 47//2 46//2
f  39//5 47//5 54//5
f  54//6 47//6 39//6
f  48//5 55//5 40//5
f  40//6 55//6 48//6
f  39//4 56//4 48//4
f  48//3 56//3 39//3
f  37//1 40//1 55//1
f  55//2 40//2 37//2
f  43//5 2//5 49//5
f  49//6 2//6 43//6
f  57//5 34//5 49//5
f  49//6 34//6 57//6
f  50//5 34//5 57//5
f  57//6 34//6 50//6
f  2//5 51//5 8//5
f  8//6 51//6 2//6
f  18//5 45//5 53//5
f  53//6 45//6 18//6
f  55//1 45//1 37//1
f  37//2 45//2 55//2
f  58//5 35//5 52//5
f  52//6 35//6 58//6
f  24//5 52//5 23//5
f  23//6 52//6 24//6
f  53//5 35//5 58//5
f  58//6 35//6 53//6
f  59//3 46//3 45//3
f  45//4 46//4 59//4
f  47//1 46//1 60//1
f  60//2 46//2 47//2
f  47//3 61//3 54//3
f  54//4 61//4 47//4
f  61//2 39//2 54//2
f  54//1 39//1 61//1
f  48//5 59//5 55//5
f  55//6 59//6 48//6
f  56//4 39//4 62//4
f  62//3 39//3 56//3
f  56//1 63//1 48//1
f  48//2 63//2 56//2
f  8//5 50//5 57//5
f  57//6 50//6 8//6
f  8//5 51//5 50//5
f  50//6 51//6 8//6
f  64//5 18//5 53//5
f  53//6 18//6 64//6
f  45//1 55//1 59//1
f  59//2 55//2 45//2
f  24//5 64//5 52//5
f  52//6 64//6 24//6
f  46//3 59//3 65//3
f  65//4 59//4 46//4
f  60//3 61//3 47//3
f  47//4 61//4 60//4
f  39//2 61//2 62//2
f  62//1 61//1 39//1
f  63//5 59//5 48//5
f  48//6 59//6 63//6
f  61//6 56//6 62//6
f  62//5 56//5 61//5
f  63//1 56//1 66//1
f  66//2 56//2 63//2
f  18//5 64//5 24//5
f  24//6 64//6 18//6
f  65//1 67//1 59//1
f  59//2 67//2 65//2
f  68//3 61//3 60//3
f  60//4 61//4 68//4
f  59//5 63//5 67//5
f  67//6 63//6 59//6
f  56//6 61//6 66//6
f  66//5 61//5 56//5
f  66//3 68//3 63//3
f  63//4 68//4 66//4
f  67//1 65//1 68//1
f  68//2 65//2 67//2
f  68//3 66//3 61//3
f  61//4 66//4 68//4
f  67//3 63//3 68//3
f  68//4 63//4 67//4

# Mesh 'mesh5_mesh5-geometry' with 37 faces
g mesh5_mesh5-geometry
usemtl material_0_0
l  59 55
l  59 45
l  59 65
l  67 59
l  55 37
l  55 40
l  42 45
l  45 37
l  67 68
l  67 63
l  35 37
l  37 43
l  40 43
l  40 36
l  38 42
l  35 42
l  63 48
l  63 66
l  34 35
l  33 35
l  43 34
l  36 33
l  36 34
l  46 38
l  33 38
l  47 38
l  48 56
l  39 48
l  66 56
l  66 61
l  54 47
l  60 47
l  56 62
l  54 39
l  62 39
l  61 62
l  61 54

