# File produced by Open Asset Import Library (http://www.assimp.sf.net)
# (assimp v3.2.202087883)

mtllib model_normalized.mtl

# 101 vertex positions
v -0.231867 -0.485496 -0.241009
v -0.175691 -0.485496 -0.268198
v -0.175691 -0.485496 -0.241009
v -0.231867 -0.485496 -0.268198
v -0.173130 -0.485496 0.029023
v -0.231867 -0.485496 0.061208
v -0.231867 -0.485496 0.029023
v 0.227733 -0.485496 -0.268198
v 0.173401 -0.485496 -0.241009
v 0.173401 -0.485496 -0.268198
v -0.173130 -0.485496 0.061208
v 0.227733 -0.485496 -0.241009
v 0.175723 -0.485496 0.061208
v 0.227733 -0.485496 0.029023
v 0.227733 -0.485496 0.061208
v 0.175723 -0.485496 0.029023
v -0.175691 -0.184435 -0.241009
v -0.231867 -0.142511 -0.268198
v -0.175691 -0.184435 -0.268198
v -0.231867 -0.184435 -0.241009
v -0.173130 -0.184435 0.029023
v -0.231867 -0.184435 0.029023
v -0.231867 -0.142511 0.061208
v 0.173401 -0.184435 -0.268198
v -0.230873 -0.142511 0.061208
v 0.227733 -0.142511 -0.268198
v -0.173130 -0.184435 0.061208
v -0.230873 -0.142511 0.036307
v 0.227733 -0.142511 0.061208
v 0.227733 -0.142511 0.036307
v 0.173401 -0.184435 -0.241009
v -0.230873 0.228758 0.036307
v 0.165417 -0.037780 0.061208
v 0.227733 -0.184435 -0.241009
v 0.175723 -0.184435 0.029023
v -0.048140 -0.066579 0.036307
v -0.230873 0.228758 0.061208
v -0.145752 -0.037780 0.036307
v 0.175723 -0.184435 0.061208
v 0.227733 0.228758 0.061208
v 0.055525 -0.066579 0.061208
v 0.227733 -0.184435 0.029023
v 0.055525 -0.066579 0.036307
v -0.145752 -0.037780 0.061208
v -0.201073 0.260920 0.061208
v -0.145752 0.205912 0.036307
v 0.165417 0.205912 0.061208
v 0.109659 -0.037780 0.061208
v -0.048140 -0.066579 0.061208
v 0.227733 0.228758 0.036307
v -0.089813 -0.037780 0.036307
v 0.165417 -0.037780 0.036307
v -0.145752 0.205912 0.061208
v -0.201073 0.260920 0.036307
v -0.048140 0.232423 0.061208
v -0.089813 0.205912 0.036307
v 0.109659 0.205912 0.061208
v 0.165417 0.205912 0.036307
v 0.068010 -0.016630 0.061208
v 0.109659 -0.037780 0.036307
v 0.197931 0.260920 0.061208
v -0.056683 -0.016630 0.036307
v -0.089813 -0.037780 0.061208
v 0.055525 0.232423 0.036307
v -0.166807 0.288274 0.061208
v -0.048140 0.232423 0.036307
v 0.055525 0.232423 0.061208
v 0.093723 -0.016630 0.061208
v 0.197931 0.260920 0.036307
v -0.075267 -0.016630 0.036307
v 0.068010 -0.016630 0.036307
v -0.056683 -0.016630 0.061208
v -0.089813 0.205912 0.061208
v -0.166807 0.288274 0.036307
v 0.163666 0.288274 0.061208
v -0.056683 0.177892 0.036307
v 0.068010 0.177892 0.061208
v 0.109659 0.205912 0.036307
v 0.163666 0.288274 0.036307
v 0.093723 -0.016630 0.036307
v 0.068010 0.177892 0.036307
v -0.075267 -0.016630 0.061208
v -0.075267 0.177892 0.061208
v -0.128844 0.310211 0.061208
v 0.125704 0.310211 0.061208
v -0.075267 0.177892 0.036307
v 0.093723 0.177892 0.061208
v -0.056683 0.177892 0.061208
v 0.093723 0.177892 0.036307
v -0.128844 0.310211 0.036307
v 0.125704 0.310211 0.036307
v -0.088037 0.326240 0.061208
v 0.084895 0.326240 0.061208
v 0.084895 0.326240 0.036307
v -0.088037 0.326240 0.036307
v -0.045293 0.336005 0.061208
v 0.042151 0.336005 0.036307
v -0.045293 0.336005 0.036307
v 0.042151 0.336005 0.061208
v -0.001569 0.339282 0.061208
v -0.001569 0.339282 0.036307

# 230 UV coordinates
vt 0 0 0
vt 0.253032 0 0
vt 0.192763 0.66737 0
vt 0.192763 0 0
vt -1.08843 0.66737 0
vt -1.21295 0 0
vt -1.08843 0 0
vt -0.192763 0 0
vt -0.253032 0.7603 0
vt -0.253032 0 0
vt 1.21295 0.7603 0
vt 1.08843 0 0
vt 1.21295 0 0
vt 0.253032 0.66737 0
vt -1.21295 0.66737 0
vt -0.192763 0.66737 0
vt 1.08843 0.66737 0
vt 0.477168 0.7603 0
vt 0.314589 0.66737 0
vt 0.405821 0.66737 0
vt 1.21075 0.477168 0
vt 1.21295 -0.253032 0
vt 1.21295 0.477168 0
vt 0.19415 0.7603 0
vt 1.08275 0.66737 0
vt 1.21295 0.66737 0
vt 0.477168 -0 0
vt 1.21075 0.421968 0
vt -1.21295 0.7603 0
vt -0.19415 0.7603 0
vt -1.21075 0.7603 0
vt 0.19415 0 0
vt 0.19415 0.421968 0
vt 0.19415 -0.253032 0
vt -0.477168 0.66737 0
vt -0.405821 -0 0
vt -0.405821 0.66737 0
vt 1.08275 -0 0
vt 0.405821 0 0
vt -1.08275 0.66737 0
vt 0.421968 1.5833 0
vt 0.421968 0.7603 0
vt -0.332286 0.992459 0
vt 0.314589 -0 0
vt 0.253032 0.7603 0
vt -0.421968 0.7603 0
vt -0.253032 0.66737 0
vt -0.477168 -0 0
vt -1.08275 -0 0
vt 1.21075 0.7603 0
vt 0.805685 0.928622 0
vt 0.477168 1.5833 0
vt 1.02206 0.992459 0
vt 1.21075 1.5833 0
vt -0.309441 0.66737 0
vt -0.19415 1.5833 0
vt -0.575885 0.928622 0
vt -0.19415 0 0
vt -0.314589 0.66737 0
vt -0.314589 -0 0
vt -0.477168 0.7603 0
vt -0.477168 1.5833 0
vt 0.575885 0.928622 0
vt -1.02206 0.992459 0
vt -1.21075 1.5833 0
vt 1.0701 0 0
vt 1.16738 -0.0552 0
vt 1.16738 0 0
vt 1.02206 1.53266 0
vt -0.309441 -0 0
vt -0.332286 1.53266 0
vt -0.455886 0.992459 0
vt -0.805685 0.928622 0
vt -0.19415 0.66737 0
vt 0.477168 0.66737 0
vt -0.421968 1.5833 0
vt 0.898059 0.992459 0
vt 0.332286 0.992459 0
vt 0.805685 0.421968 0
vt 0.575885 0.477168 0
vt 0.575885 0.421968 0
vt -1.02206 1.53266 0
vt 1.0701 -0.0552 0
vt -0.805685 1.59142 0
vt -1.14469 1.65459 0
vt 0.898059 1.53266 0
vt -0.477168 1.53266 0
vt -0.421968 0.992459 0
vt -0.421968 1.53266 0
vt -0.455886 1.53266 0
vt 0.421968 1.53266 0
vt 0.477168 0.992459 0
vt 0.477168 1.53266 0
vt -0.54821 1.03935 0
vt 0.332286 0.477168 0
vt 0.455886 0.421968 0
vt 0.455886 0.477168 0
vt 0.805685 0.477168 0
vt 0.309441 0.66737 0
vt 0.19415 0.66737 0
vt 0.19415 1.5833 0
vt 0 -0.0552 0
vt 0.097282 -0 0
vt 0.824616 1.03935 0
vt 1.02206 0.421968 0
vt 0.898059 0.477168 0
vt 0.898059 0.421968 0
vt 0.455886 0.992459 0
vt 0.477168 0.928622 0
vt 0.421968 1.59142 0
vt 0.421968 0.928622 0
vt -0.898059 0.992459 0
vt -0.477168 0.992459 0
vt 0.972819 -0 0
vt 0.805685 1.59142 0
vt 1.14469 1.65459 0
vt -0.260212 1.65459 0
vt -0.898059 0.421968 0
vt -1.02206 0.477168 0
vt -1.02206 0.421968 0
vt -0.575885 1.59142 0
vt -0.455886 0.477168 0
vt -0.332286 0.421968 0
vt -0.332286 0.477168 0
vt 0.421968 0.992459 0
vt -0.49121 1.03935 0
vt 0.332286 0.421968 0
vt -0.421968 0.928622 0
vt -0.477168 1.59142 0
vt -0.477168 0.928622 0
vt 0.309441 0 0
vt 0.332286 1.53266 0
vt 0.097282 -0.0552 0
vt 0.865816 1.03935 0
vt 1.02206 0.477168 0
vt 0.54821 1.03935 0
vt 0.477168 1.59142 0
vt 0.575885 1.59142 0
vt -0.824616 1.03935 0
vt -0.898059 1.53266 0
vt 0.972819 -0.0552 0
vt -0.336168 1.71523 0
vt -1.06873 1.71523 0
vt 0.824616 1.47055 0
vt -0.898059 0.477168 0
vt -0.54821 1.47055 0
vt -0.455886 0.421968 0
vt 0.49121 0.477168 0
vt 0.54821 0.421968 0
vt 0.54821 0.477168 0
vt -0.421968 1.59142 0
vt 0.260212 1.65459 0
vt 0.194564 -0.0552 0
vt 0.865816 0.421968 0
vt 0.824616 0.477168 0
vt 0.824616 0.421968 0
vt 0.49121 1.03935 0
vt -0.805685 0.477168 0
vt -0.575885 0.421968 0
vt -0.575885 0.477168 0
vt 0.54821 1.47055 0
vt -0.865816 1.03935 0
vt -0.865816 1.47055 0
vt 0.875538 0 0
vt 1.06873 1.71523 0
vt -0.420318 1.76386 0
vt -0.805685 0.421968 0
vt 0.194564 0 0
vt 0.865816 1.47055 0
vt -0.49121 1.47055 0
vt 0.455886 1.53266 0
vt -0.421968 1.03935 0
vt -0.477168 1.47055 0
vt -0.477168 1.03935 0
vt 0.49121 0.421968 0
vt -0.824616 1.47055 0
vt 0.336168 1.71523 0
vt 0.477168 1.03935 0
vt 0.421968 1.47055 0
vt 0.421968 1.03935 0
vt 0.865816 0.477168 0
vt 0.49121 1.47055 0
vt -0.421968 1.47055 0
vt 0.875538 -0.0552 0
vt -0.984582 1.76386 0
vt 0.291846 -0.0552 0
vt 0.291846 -0 0
vt -0.824616 0.421968 0
vt -0.865816 0.477168 0
vt -0.865816 0.421968 0
vt -0.54821 0.477168 0
vt -0.49121 0.421968 0
vt -0.49121 0.477168 0
vt 0.477168 1.47055 0
vt 0.984582 1.76386 0
vt -0.54821 0.421968 0
vt -0.824616 0.477168 0
vt 0.778256 -0 0
vt -0.510781 1.79939 0
vt 0.389128 -0.0552 0
vt 0.420318 1.76386 0
vt 0.778256 -0.0552 0
vt -0.89412 1.79939 0
vt 0.389128 -0 0
vt 0.89412 1.79939 0
vt 0.510781 1.79939 0
vt 0.680974 0 0
vt -0.799369 1.82104 0
vt 0.48641 -0.0552 0
vt 0.799369 1.82104 0
vt 0.680974 -0.0552 0
vt -0.605531 1.82104 0
vt 0.48641 0 0
vt 0.605531 1.82104 0
vt 0.583692 0 0
vt -0.70245 1.8283 0
vt 0.583692 -0.0552 0
vt 0.70245 1.8283 0
vt -5.44213 -1.53498 0
vt -5.41374 2.46185 0
vt -5.44213 -1.16937 0
vt -6.06475 2.46185 0
vt -6.06475 -1.16937 0
vt -1.57294 -1.53498 0
vt -5.41374 2.89467 0
vt -1.57294 -1.16937 0
vt -1.5472 2.46185 0
vt -1.5472 2.89467 0
vt -0.970751 -1.16937 0
vt -0.970751 2.46185 0

# 30 vertex normals
vn 0 -0.3048 0
vn 0 0.3048 0
vn -0.3048 0 0
vn 0 -0 -0.3048
vn 0.3048 -0 -0
vn 0 0 0.3048
vn 0.223565 -0.207176 -0
vn 0.207445 -0.223315 0
vn -0.223565 -0.207176 0
vn -0.207445 -0.223315 0
vn 0.171815 -0.251759 0
vn -0.171815 -0.251759 0
vn 0.132342 -0.27457 0
vn -0.132342 -0.27457 0
vn 0.0899081 -0.291238 0
vn -0.0899081 -0.291238 0
vn 0.0454627 -0.30139 0
vn -0.0454627 -0.30139 0
vn -0.207445 0.223315 0
vn -0.223565 0.207176 0
vn 0.223565 0.207176 0
vn 0.207445 0.223315 0
vn -0.171815 0.251759 0
vn 0.171815 0.251759 0
vn -0.132342 0.27457 0
vn 0.132342 0.27457 0
vn -0.0899081 0.291238 0
vn 0.0899081 0.291238 0
vn -0.0454627 0.30139 0
vn 0.0454627 0.30139 0

# Mesh 'mesh1_mesh1-geometry' with 8 faces
g mesh1_mesh1-geometry
usemtl material_0_24
f  1/1/1 2/1/1 3/1/1
f  2/1/1 1/1/1 4/1/1
f  5/1/1 6/1/1 7/1/1
f  8/1/1 9/1/1 10/1/1
f  6/1/1 5/1/1 11/1/1
f  9/1/1 8/1/1 12/1/1
f  13/1/1 14/1/1 15/1/1
f  14/1/1 13/1/1 16/1/1

# Mesh 'mesh1_mesh1-geometry' with 222 faces
g mesh1_mesh1-geometry
usemtl material_1_24
f  3/1/2 2/1/2 1/1/2
f  4/1/2 1/1/2 2/1/2
f  3/1/3 17/1/3 2/1/3
f  3/1/4 1/1/4 17/1/4
f  4/1/5 18/1/5 1/1/5
f  4/1/6 2/1/6 18/1/6
f  19/1/3 2/1/3 17/1/3
f  20/1/4 17/1/4 1/1/4
f  20/1/5 1/1/5 18/1/5
f  19/1/6 18/1/6 2/1/6
f  17/1/2 21/1/2 19/1/2
f  20/1/2 22/1/2 17/1/2
f  23/1/5 20/1/5 18/1/5
f  24/1/6 18/1/6 19/1/6
f  19/1/2 21/1/2 24/1/2
f  21/1/2 17/1/2 22/1/2
f  22/1/5 20/1/5 23/1/5
f  23/1/1 18/1/1 25/1/1
f  18/1/6 24/1/6 26/1/6
f  21/1/2 27/1/2 24/1/2
f  22/1/6 7/1/6 21/1/6
f  23/1/5 6/1/5 22/1/5
f  25/1/1 18/1/1 28/1/1
f  25/1/4 29/1/4 23/1/4
f  26/1/6 24/1/6 8/1/6
f  26/1/1 30/1/1 18/1/1
f  24/1/2 27/1/2 31/1/2
f  21/1/3 5/1/3 27/1/3
f  5/1/6 21/1/6 7/1/6
f  7/1/5 22/1/5 6/1/5
f  23/1/4 27/1/4 6/1/4
f  28/1/1 18/1/1 30/1/1
f  29/1/2 28/1/2 25/1/2
f  25/1/1 28/1/1 29/1/1
f  28/1/5 32/1/5 25/1/5
f  29/1/4 27/1/4 23/1/4
f  25/1/4 33/1/4 29/1/4
f  10/1/6 8/1/6 24/1/6
f  8/1/3 34/1/3 26/1/3
f  30/1/3 26/1/3 34/1/3
f  31/1/2 27/1/2 35/1/2
f  31/1/5 9/1/5 24/1/5
f  11/1/3 27/1/3 5/1/3
f  7/1/2 6/1/2 5/1/2
f  11/1/4 6/1/4 27/1/4
f  28/1/2 29/1/2 30/1/2
f  30/1/1 29/1/1 28/1/1
f  30/1/6 36/1/6 28/1/6
f  37/1/5 25/1/5 32/1/5
f  32/1/6 28/1/6 38/1/6
f  27/1/4 29/1/4 39/1/4
f  40/1/4 29/1/4 33/1/4
f  41/1/4 33/1/4 25/1/4
f  10/1/2 9/1/2 8/1/2
f  10/1/5 24/1/5 9/1/5
f  34/1/3 8/1/3 12/1/3
f  42/1/3 30/1/3 34/1/3
f  39/1/2 35/1/2 27/1/2
f  31/1/2 35/1/2 34/1/2
f  9/1/4 31/1/4 12/1/4
f  11/1/2 5/1/2 6/1/2
f  29/1/3 30/1/3 15/1/3
f  29/1/3 40/1/3 30/1/3
f  38/1/6 28/1/6 36/1/6
f  36/1/6 30/1/6 43/1/6
f  37/1/4 44/1/4 25/1/4
f  37/1/7 32/1/7 45/1/8
f  46/1/6 32/1/6 38/1/6
f  39/1/4 29/1/4 13/1/4
f  47/1/4 40/1/4 33/1/4
f  33/1/4 41/1/4 48/1/4
f  41/1/4 25/1/4 49/1/4
f  12/1/2 8/1/2 9/1/2
f  34/1/4 12/1/4 31/1/4
f  14/1/3 30/1/3 42/1/3
f  42/1/2 34/1/2 35/1/2
f  39/1/5 13/1/5 35/1/5
f  15/1/3 30/1/3 14/1/3
f  15/1/4 13/1/4 29/1/4
f  50/1/3 30/1/3 40/1/3
f  38/1/6 36/1/6 51/1/6
f  43/1/6 30/1/6 52/1/6
f  43/1/1 41/1/1 36/1/1
f  49/1/4 25/1/4 44/1/4
f  53/1/4 44/1/4 37/1/4
f  54/1/8 45/1/8 32/1/7
f  45/1/4 55/1/4 37/1/4
f  56/1/6 32/1/6 46/1/6
f  46/1/3 38/1/3 53/1/3
f  57/1/4 40/1/4 47/1/4
f  47/1/5 33/1/5 58/1/5
f  48/1/4 41/1/4 59/1/4
f  48/1/1 60/1/1 33/1/1
f  49/1/1 36/1/1 41/1/1
f  42/1/6 35/1/6 14/1/6
f  16/1/5 35/1/5 13/1/5
f  15/1/2 14/1/2 13/1/2
f  50/1/6 52/1/6 30/1/6
f  40/1/9 61/1/10 50/1/9
f  51/1/6 36/1/6 62/1/6
f  51/1/1 63/1/1 38/1/1
f  60/1/6 43/1/6 52/1/6
f  43/1/5 64/1/5 41/1/5
f  63/1/4 49/1/4 44/1/4
f  44/1/3 53/1/3 38/1/3
f  37/1/4 55/1/4 53/1/4
f  45/1/8 54/1/8 65/1/11
f  54/1/6 32/1/6 66/1/6
f  61/1/4 55/1/4 45/1/4
f  32/1/6 56/1/6 66/1/6
f  46/1/2 53/1/2 56/1/2
f  40/1/4 57/1/4 67/1/4
f  47/1/2 58/1/2 57/1/2
f  52/1/5 58/1/5 33/1/5
f  67/1/4 59/1/4 41/1/4
f  68/1/4 48/1/4 59/1/4
f  52/1/1 33/1/1 60/1/1
f  48/1/3 57/1/3 60/1/3
f  49/1/3 55/1/3 36/1/3
f  16/1/6 14/1/6 35/1/6
f  16/1/2 13/1/2 14/1/2
f  58/1/6 52/1/6 50/1/6
f  69/1/10 50/1/9 61/1/10
f  61/1/4 40/1/4 67/1/4
f  66/1/6 62/1/6 36/1/6
f  70/1/6 51/1/6 62/1/6
f  44/1/1 38/1/1 63/1/1
f  51/1/5 56/1/5 63/1/5
f  60/1/6 71/1/6 43/1/6
f  67/1/5 41/1/5 64/1/5
f  64/1/6 43/1/6 71/1/6
f  63/1/4 72/1/4 49/1/4
f  53/1/4 55/1/4 73/1/4
f  74/1/11 65/1/11 54/1/8
f  65/1/4 75/1/4 45/1/4
f  64/1/6 54/1/6 66/1/6
f  55/1/4 61/1/4 67/1/4
f  75/1/4 61/1/4 45/1/4
f  56/1/6 76/1/6 66/1/6
f  73/1/2 56/1/2 53/1/2
f  57/1/4 77/1/4 67/1/4
f  78/1/2 57/1/2 58/1/2
f  77/1/4 59/1/4 67/1/4
f  48/1/4 68/1/4 57/1/4
f  59/1/1 71/1/1 68/1/1
f  78/1/3 60/1/3 57/1/3
f  66/1/3 36/1/3 55/1/3
f  55/1/4 49/1/4 72/1/4
f  50/1/6 64/1/6 58/1/6
f  69/1/6 64/1/6 50/1/6
f  69/1/10 61/1/10 79/1/12
f  76/1/6 62/1/6 66/1/6
f  51/1/6 70/1/6 56/1/6
f  62/1/1 72/1/1 70/1/1
f  73/1/5 63/1/5 56/1/5
f  71/1/6 60/1/6 80/1/6
f  67/1/2 64/1/2 55/1/2
f  81/1/6 64/1/6 71/1/6
f  72/1/4 63/1/4 82/1/4
f  73/1/4 55/1/4 83/1/4
f  65/1/11 74/1/11 84/1/13
f  74/1/6 54/1/6 69/1/6
f  85/1/4 75/1/4 65/1/4
f  54/1/6 64/1/6 69/1/6
f  66/1/2 55/1/2 64/1/2
f  75/1/12 79/1/12 61/1/10
f  76/1/6 56/1/6 86/1/6
f  77/1/4 57/1/4 87/1/4
f  58/1/6 64/1/6 78/1/6
f  59/1/3 77/1/3 71/1/3
f  87/1/4 57/1/4 68/1/4
f  80/1/1 68/1/1 71/1/1
f  78/1/6 80/1/6 60/1/6
f  88/1/4 55/1/4 72/1/4
f  79/1/6 74/1/6 69/1/6
f  62/1/5 76/1/5 72/1/5
f  86/1/6 56/1/6 70/1/6
f  82/1/1 70/1/1 72/1/1
f  73/1/4 82/1/4 63/1/4
f  89/1/6 64/1/6 81/1/6
f  81/1/3 71/1/3 77/1/3
f  83/1/4 55/1/4 88/1/4
f  83/1/4 82/1/4 73/1/4
f  90/1/13 84/1/13 74/1/11
f  84/1/4 85/1/4 65/1/4
f  85/1/14 91/1/14 75/1/12
f  79/1/12 75/1/12 91/1/14
f  86/1/2 83/1/2 76/1/2
f  87/1/2 89/1/2 77/1/2
f  78/1/6 64/1/6 89/1/6
f  87/1/5 68/1/5 89/1/5
f  80/1/5 89/1/5 68/1/5
f  89/1/6 80/1/6 78/1/6
f  88/1/5 72/1/5 76/1/5
f  90/1/6 74/1/6 79/1/6
f  86/1/3 70/1/3 83/1/3
f  82/1/3 83/1/3 70/1/3
f  81/1/2 77/1/2 89/1/2
f  88/1/2 76/1/2 83/1/2
f  84/1/13 90/1/13 92/1/15
f  93/1/4 85/1/4 84/1/4
f  91/1/14 85/1/14 94/1/16
f  91/1/6 90/1/6 79/1/6
f  95/1/15 92/1/15 90/1/13
f  92/1/4 93/1/4 84/1/4
f  93/1/16 94/1/16 85/1/14
f  94/1/6 95/1/6 91/1/6
f  95/1/6 90/1/6 91/1/6
f  92/1/15 95/1/15 96/1/17
f  96/1/4 93/1/4 92/1/4
f  94/1/16 93/1/16 97/1/18
f  98/1/6 95/1/6 94/1/6
f  98/1/17 96/1/17 95/1/15
f  99/1/4 93/1/4 96/1/4
f  99/1/18 97/1/18 93/1/16
f  97/1/6 98/1/6 94/1/6
f  96/1/17 98/1/17 100/1/1
f  100/1/4 99/1/4 96/1/4
f  97/1/18 99/1/18 101/1/1
f  101/1/6 98/1/6 97/1/6
f  101/1/1 100/1/1 98/1/17
f  100/1/1 101/1/1 99/1/18

# Mesh 'mesh1_mesh1-geometry' with 200 faces
g mesh1_mesh1-geometry
usemtl material_2_1_8
f  2/2/5 17/3/5 3/4/5
f  17/5/6 1/6/6 3/7/6
f  1/8/3 18/9/3 4/10/3
f  18/11/4 2/12/4 4/13/4
f  17/3/5 2/2/5 19/14/5
f  1/6/6 17/5/6 20/15/6
f  18/9/3 1/8/3 20/16/3
f  2/12/4 18/11/4 19/17/4
f  18/9/3 20/16/3 23/18/3
f  19/17/4 18/11/4 24/19/4
f  23/18/3 20/16/3 22/20/3
f  25/21/2 18/22/2 23/23/2
f  26/24/4 24/19/4 18/11/4
f  21/25/4 7/13/4 22/26/4
f  22/20/3 6/27/3 23/18/3
f  28/28/2 18/22/2 25/21/2
f  23/29/6 29/30/6 25/31/6
f  8/32/4 24/19/4 26/24/4
f  18/22/2 30/33/2 26/34/2
f  27/35/5 5/36/5 21/37/5
f  7/13/4 21/25/4 5/38/4
f  6/27/3 22/20/3 7/39/3
f  6/6/6 27/40/6 23/29/6
f  30/33/2 18/22/2 28/28/2
f  25/18/3 32/41/3 28/42/3
f  23/29/6 27/40/6 29/30/6
f  29/30/6 33/43/6 25/31/6
f  24/19/4 8/32/4 10/44/4
f  26/45/5 34/3/5 8/2/5
f  34/3/5 26/45/5 30/46/5
f  24/47/3 9/8/3 31/16/3
f  5/36/5 27/35/5 11/48/5
f  27/40/6 6/6/6 11/49/6
f  28/50/4 36/51/4 30/24/4
f  32/41/3 25/18/3 37/52/3
f  38/53/4 28/50/4 32/54/4
f  39/55/6 29/30/6 27/40/6
f  33/43/6 29/30/6 40/56/6
f  25/31/6 33/43/6 41/57/6
f  9/8/3 24/47/3 10/10/3
f  12/4/5 8/2/5 34/3/5
f  34/3/5 30/46/5 42/37/5
f  12/58/6 31/59/6 9/60/6
f  15/48/5 30/46/5 29/61/5
f  30/46/5 40/62/5 29/61/5
f  36/51/4 28/50/4 38/53/4
f  43/63/4 30/24/4 36/51/4
f  25/31/6 44/64/6 37/65/6
f  45/66/19 32/67/20 37/68/20
f  38/53/4 32/54/4 46/69/4
f  13/70/6 29/30/6 39/55/6
f  33/43/6 40/56/6 47/71/6
f  48/72/6 41/57/6 33/43/6
f  49/73/6 25/31/6 41/57/6
f  31/59/6 12/58/6 34/74/6
f  42/37/5 30/46/5 14/36/5
f  35/20/3 13/27/3 39/75/3
f  14/36/5 30/46/5 15/48/5
f  29/30/6 13/70/6 15/58/6
f  40/62/5 30/46/5 50/76/5
f  51/77/4 36/51/4 38/53/4
f  52/78/4 30/24/4 43/63/4
f  36/79/2 41/80/2 43/81/2
f  44/64/6 25/31/6 49/73/6
f  37/65/6 44/64/6 53/82/6
f  32/67/20 45/66/19 54/83/19
f  37/65/6 55/84/6 45/85/6
f  46/69/4 32/54/4 56/86/4
f  53/87/5 38/88/5 46/89/5
f  47/71/6 40/56/6 57/90/6
f  58/91/3 33/92/3 47/93/3
f  59/94/6 41/57/6 48/72/6
f  33/95/2 60/96/2 48/97/2
f  41/80/2 36/79/2 49/98/2
f  14/32/4 35/99/4 42/100/4
f  13/27/3 35/20/3 16/39/3
f  30/24/4 52/78/4 50/101/4
f  50/102/21 61/103/22 40/1/21
f  62/104/4 36/51/4 51/77/4
f  38/105/2 63/106/2 51/107/2
f  52/78/4 43/63/4 60/108/4
f  41/109/3 64/110/3 43/111/3
f  44/64/6 49/73/6 63/112/6
f  38/88/5 53/87/5 44/113/5
f  53/82/6 55/84/6 37/65/6
f  65/114/23 54/83/19 45/66/19
f  66/115/4 32/54/4 54/116/4
f  45/85/6 55/84/6 61/117/6
f  66/115/4 56/86/4 32/54/4
f  56/118/1 53/119/1 46/120/1
f  67/121/6 57/90/6 40/56/6
f  57/122/1 58/123/1 47/124/1
f  33/92/3 58/91/3 52/125/3
f  41/57/6 59/94/6 67/121/6
f  59/94/6 48/72/6 68/126/6
f  60/96/2 33/95/2 52/127/2
f  60/88/5 57/87/5 48/113/5
f  36/128/5 55/129/5 49/130/5
f  35/99/4 14/32/4 16/131/4
f  50/101/4 52/78/4 58/132/4
f  61/103/22 50/102/21 69/133/22
f  67/121/6 40/56/6 61/117/6
f  36/51/4 62/104/4 66/115/4
f  62/104/4 51/77/4 70/134/4
f  63/106/2 38/105/2 44/135/2
f  63/92/3 56/91/3 51/125/3
f  43/63/4 71/136/4 60/108/4
f  64/110/3 41/109/3 67/137/3
f  71/136/4 43/63/4 64/138/4
f  49/73/6 72/139/6 63/112/6
f  73/140/6 55/84/6 53/82/6
f  54/83/19 65/114/23 74/141/23
f  45/85/6 75/142/6 65/143/6
f  66/115/4 54/116/4 64/138/4
f  67/121/6 61/117/6 55/84/6
f  45/85/6 61/117/6 75/142/6
f  66/115/4 76/144/4 56/86/4
f  53/119/1 56/118/1 73/145/1
f  67/121/6 77/146/6 57/90/6
f  58/123/1 57/122/1 78/147/1
f  67/121/6 59/94/6 77/146/6
f  57/90/6 68/126/6 48/72/6
f  68/148/2 71/149/2 59/150/2
f  57/87/5 60/88/5 78/89/5
f  55/129/5 36/128/5 66/151/5
f  72/139/6 49/73/6 55/84/6
f  58/132/4 64/138/4 50/101/4
f  50/101/4 64/138/4 69/152/4
f  79/153/24 61/103/22 69/133/22
f  66/115/4 62/104/4 76/144/4
f  56/86/4 70/134/4 51/77/4
f  70/154/2 72/155/2 62/156/2
f  56/91/3 63/92/3 73/93/3
f  80/157/4 60/108/4 71/136/4
f  55/158/1 64/159/1 67/160/1
f  71/136/4 64/138/4 81/161/4
f  82/162/6 63/112/6 72/139/6
f  83/163/6 55/84/6 73/140/6
f  84/164/25 74/141/23 65/114/23
f  69/152/4 54/116/4 74/165/4
f  65/143/6 75/142/6 85/166/6
f  69/152/4 64/138/4 54/116/4
f  64/159/1 55/158/1 66/167/1
f  61/103/22 79/153/24 75/168/24
f  86/169/4 56/86/4 76/144/4
f  87/170/6 57/90/6 77/146/6
f  78/171/4 64/138/4 58/132/4
f  71/172/5 77/173/5 59/174/5
f  68/126/6 57/90/6 87/170/6
f  71/149/2 68/148/2 80/175/2
f  60/108/4 80/157/4 78/171/4
f  72/139/6 55/84/6 88/176/6
f  69/152/4 74/165/4 79/177/4
f  72/178/3 76/179/3 62/180/3
f  70/134/4 56/86/4 86/169/4
f  72/155/2 70/154/2 82/181/2
f  63/112/6 82/162/6 73/140/6
f  81/161/4 64/138/4 89/182/4
f  77/173/5 71/172/5 81/183/5
f  88/176/6 55/84/6 83/163/6
f  73/140/6 82/162/6 83/163/6
f  74/141/23 84/164/25 90/184/25
f  65/143/6 85/166/6 84/185/6
f  75/168/24 91/186/26 85/187/26
f  91/186/26 75/168/24 79/153/24
f  76/188/1 83/189/1 86/190/1
f  77/191/1 89/192/1 87/193/1
f  89/182/4 64/138/4 78/171/4
f  89/179/3 68/178/3 87/194/3
f  68/178/3 89/179/3 80/180/3
f  78/171/4 80/157/4 89/182/4
f  76/179/3 72/178/3 88/194/3
f  79/177/4 74/165/4 90/195/4
f  83/173/5 70/172/5 86/183/5
f  70/172/5 83/173/5 82/174/5
f  89/192/1 77/191/1 81/196/1
f  83/189/1 76/188/1 88/197/1
f  92/198/27 90/184/25 84/164/25
f  84/185/6 85/166/6 93/199/6
f  94/200/28 85/187/26 91/186/26
f  79/177/4 90/195/4 91/201/4
f  90/184/25 92/198/27 95/202/27
f  84/185/6 93/199/6 92/203/6
f  85/187/26 94/200/28 93/204/28
f  91/201/4 95/205/4 94/206/4
f  91/201/4 90/195/4 95/205/4
f  96/207/29 95/202/27 92/198/27
f  92/203/6 93/199/6 96/208/6
f  97/209/30 93/204/28 94/200/28
f  94/206/4 95/205/4 98/210/4
f  95/202/27 96/207/29 98/211/29
f  96/208/6 93/199/6 99/212/6
f  93/204/28 97/209/30 99/213/30
f  94/206/4 98/210/4 97/214/4
f  100/215/2 98/211/29 96/207/29
f  96/208/6 99/212/6 100/216/6
f  101/217/2 99/213/30 97/209/30
f  97/214/4 98/210/4 101/218/4
f  98/211/29 100/215/2 101/217/2
f  99/213/30 101/217/2 100/215/2

# Mesh 'mesh1_mesh1-geometry' with 10 faces
g mesh1_mesh1-geometry
usemtl material_3_2_8
f  19/219/1 21/220/1 17/221/1
f  17/221/1 22/222/1 20/223/1
f  24/224/1 21/220/1 19/219/1
f  22/222/1 17/221/1 21/220/1
f  24/224/1 27/225/1 21/220/1
f  31/226/1 27/225/1 24/224/1
f  35/227/1 27/225/1 31/226/1
f  27/225/1 35/227/1 39/228/1
f  34/229/1 35/227/1 31/226/1
f  35/227/1 34/229/1 42/230/1

