# File produced by Open Asset Import Library (http://www.assimp.sf.net)
# (assimp v3.2.202087883)

mtllib model_normalized.mtl

# 48 vertex positions
v -0.280368 0.224858 0.138802
v -0.117078 -0.244411 -0.007492
v -0.105138 -0.244411 0.052051
v -0.312207 0.224858 -0.019979
v 0.007492 -0.244411 -0.117078
v -0.173406 0.224858 0.260390
v -0.271804 0.224858 -0.017393
v -0.260390 0.224858 -0.173406
v -0.052051 -0.244411 -0.105138
v 0.065027 -0.244411 -0.097646
v -0.065027 -0.244411 0.097646
v -0.244086 0.224858 0.120840
v -0.226693 0.224858 -0.150965
v -0.097646 -0.244411 -0.065027
v -0.138802 0.224858 -0.280368
v 0.019979 0.224858 -0.312207
v -0.019979 0.224858 0.312207
v -0.150965 0.224858 0.226693
v -0.086387 -0.205305 -0.005528
v -0.077578 -0.205305 0.038406
v 0.173406 0.224858 -0.260390
v 0.105138 -0.244411 -0.052051
v -0.007492 -0.244411 0.117078
v -0.017393 0.224858 0.271804
v -0.047981 -0.205305 0.072050
v -0.072050 -0.205305 -0.047981
v -0.120840 0.224858 -0.244086
v 0.017393 0.224858 -0.271804
v 0.138802 0.224858 0.280368
v 0.120840 0.224858 0.244086
v -0.005528 -0.205305 0.086387
v -0.038406 -0.205305 -0.077578
v 0.005528 -0.205305 -0.086387
v 0.047981 -0.205305 -0.072050
v 0.150965 0.224858 -0.226693
v 0.280368 0.224858 -0.138802
v 0.117078 -0.244411 0.007492
v 0.052051 -0.244411 0.105138
v 0.077578 -0.205305 -0.038406
v 0.260390 0.224858 0.173406
v 0.226693 0.224858 0.150965
v 0.038406 -0.205305 0.077578
v 0.086387 -0.205305 0.005528
v 0.244086 0.224858 -0.120840
v 0.312207 0.224858 0.019979
v 0.097646 -0.244411 0.065027
v 0.271804 0.224858 0.017393
v 0.072050 -0.205305 0.047981

# 144 UV coordinates
vt 0.132859 0.459418 0
vt 0.04389 -0.137456 0
vt 0.092418 -0.137456 0
vt 0.003449 0.459418 0
vt -0.174731 0.270504 0
vt -0.183198 0.46587 0
vt -0.215123 0.230786 0
vt 0.204702 -0.093565 0
vt 0.293671 0.503309 0
vt 0.164262 0.503309 0
vt 0.081706 0.149669 0
vt 0.057416 0.118116 0
vt 0.165127 0.012203 0
vt -0.175625 0.465736 0
vt -0.086656 -0.131138 0
vt -0.046216 0.465736 0
vt -0.1563 0.40623 0
vt -0.226689 0.497662 0
vt 0.253231 -0.093565 0
vt 0.175479 0.057461 0
vt 0.294272 0 0
vt 0.031721 0.298753 0
vt -0.135185 -0.131138 0
vt 0 0.289361 0
vt -0.1532 0.33472 0
vt -0.275182 0.609224 0
vt -0.364152 0.01235 0
vt -0.315623 0.01235 0
vt -0.263723 0.707947 0
vt -0.352692 0.111073 0
vt -0.304164 0.111073 0
vt -0.263552 0.22621 0
vt 0.304164 -0.011227 0
vt 0.393133 0.585647 0
vt 0.263723 0.585647 0
vt 0.287911 0.046838 0
vt 0.093017 -0.106149 0
vt 0.167252 0.443822 0
vt 0.054589 0.443822 0
vt -0.086058 -0.112664 0
vt -0.011823 0.437307 0
vt -0.124485 0.437307 0
vt -0.324979 0.520569 0
vt -0.23601 -0.076305 0
vt -0.195569 0.520569 0
vt 0.008264 0.480052 0
vt -0.284538 -0.076305 0
vt -0.404592 0.609224 0
vt -0.393133 0.707947 0
vt -0.275118 0.493086 0
vt 0.352692 -0.011227 0
vt 0.388878 0.120645 0
vt 0.410247 0.084778 0
vt -0.24687 -0.067401 0
vt -0.172635 0.48257 0
vt -0.285298 0.48257 0
vt 0.128824 -0.106149 0
vt -0.05025 -0.112664 0
vt -0.211063 -0.067401 0
vt 0.038916 0.464767 0
vt 0.079994 0.639094 0
vt 0.101363 0.603227 0
vt 0.195969 0.723872 0
vt -0.164262 0.790285 0
vt -0.253231 0.193411 0
vt -0.204702 0.193411 0
vt -0.307043 0.258002 0
vt 0.315623 0.087496 0
vt 0.404592 0.68437 0
vt 0.275182 0.68437 0
vt 0.451326 0.259105 0
vt -0.346332 0.017511 0
vt -0.272097 0.567482 0
vt -0.384759 0.567482 0
vt -0.310524 0.017511 0
vt 0.193183 0.294471 0
vt 0.179583 0.394619 0
vt 0.177296 0.341855 0
vt 0.24237 -0.049602 0
vt 0.316605 0.500369 0
vt 0.203943 0.500369 0
vt 0.19943 0.438625 0
vt 0.222986 0.265165 0
vt 0.231521 0.462083 0
vt 0.258721 0.261789 0
vt 0.20233 0.677034 0
vt -0.293671 0.790285 0
vt -0.31551 0.453368 0
vt 0.364152 0.087496 0
vt 0.481977 0.24382 0
vt -0.396219 0.669291 0
vt -0.321983 0.119321 0
vt -0.283556 0.669291 0
vt 0.267255 0.458707 0
vt 0.290811 0.285247 0
vt 0.278178 -0.049602 0
vt 0.283556 0.591796 0
vt 0.357791 0.041825 0
vt 0.396219 0.591796 0
vt 0.310524 0.143635 0
vt 0.384759 0.693606 0
vt 0.272097 0.693606 0
vt 0.325115 0.711669 0
vt -0.003449 0.834175 0
vt -0.092418 0.237301 0
vt -0.04389 0.237301 0
vt -0.333942 0.317642 0
vt 0.23601 0.176151 0
vt 0.324979 0.773025 0
vt 0.195569 0.773025 0
vt 0.45852 0.425119 0
vt -0.357791 0.119321 0
vt 0.297059 0.429401 0
vt 0.321983 0.041825 0
vt 0.346332 0.143635 0
vt 0.285298 0.778518 0
vt 0.211063 0.228547 0
vt 0.24687 0.228547 0
vt 0.314763 0.66641 0
vt -0.132859 0.834175 0
vt -0.337041 0.389152 0
vt 0.284538 0.176151 0
vt 0.490241 0.434511 0
vt -0.316605 0.760718 0
vt -0.24237 0.210748 0
vt -0.203943 0.760718 0
vt 0.310659 0.329253 0
vt 0.124485 0.82378 0
vt 0.05025 0.27381 0
vt 0.086058 0.27381 0
vt 0.172635 0.778518 0
vt 0.011823 0.82378 0
vt 0.408535 0.574203 0
vt 0.432826 0.605756 0
vt 0.046216 0.827858 0
vt 0.135185 0.230984 0
vt 0.175625 0.827858 0
vt 0.086656 0.230984 0
vt -0.278178 0.210748 0
vt 0.312945 0.382017 0
vt -0.128824 0.267295 0
vt -0.054589 0.817265 0
vt -0.167252 0.817265 0
vt -0.093017 0.267295 0

# 50 vertex normals
vn -0.0231033 -0.00948345 0.00463264
vn 0.0231033 0.00948345 -0.00463264
vn 0 -0.0254 0
vn 0 0.0254 0
vn -0.0176917 -0.00948345 0.0155636
vn 0.0176917 0.00948345 -0.0155636
vn -0.0223244 -0.00948345 -0.00753964
vn 0.0223244 0.00948345 0.00753964
vn -0.00463264 -0.00948345 -0.0231033
vn 0.00463264 0.00948345 0.0231033
vn 0.00753964 -0.00948345 -0.0223244
vn -0.00753964 0.00948345 0.0223244
vn -0.00753964 -0.00948345 0.0223244
vn 0.00753964 0.00948345 -0.0223244
vn 0.0222092 0.00977996 0.00750078
vn -0.0222092 -0.00977996 -0.00750078
vn 0.0229842 0.00977996 -0.00460876
vn -0.0229842 -0.00977996 0.00460876
vn -0.0155636 -0.00948345 -0.0176917
vn 0.0155636 0.00948345 0.0176917
vn 0.0176005 0.00977996 -0.0154834
vn -0.0176005 -0.00977996 0.0154834
vn 0.0176917 -0.00948345 -0.0155636
vn -0.0176917 0.00948345 0.0155636
vn 0.00463264 -0.00948345 0.0231033
vn -0.00463264 0.00948345 -0.0231033
vn 0.00750078 0.00977996 -0.0222092
vn -0.00750078 -0.00977996 0.0222092
vn 0.0154834 0.00977996 0.0176005
vn -0.0154834 -0.00977996 -0.0176005
vn -0.00460876 0.00977996 -0.0229842
vn 0.00460876 -0.00977996 0.0229842
vn 0.00460876 0.00977996 0.0229842
vn -0.00460876 -0.00977996 -0.0229842
vn -0.00750078 0.00977996 0.0222092
vn 0.00750078 -0.00977996 -0.0222092
vn 0.0231033 -0.00948345 -0.00463264
vn -0.0231033 0.00948345 0.00463264
vn 0.0155636 -0.00948345 0.0176917
vn -0.0155636 0.00948345 -0.0176917
vn -0.0176005 0.00977996 0.0154834
vn 0.0176005 -0.00977996 -0.0154834
vn -0.0154834 0.00977996 -0.0176005
vn 0.0154834 -0.00977996 0.0176005
vn -0.0229842 0.00977996 0.00460876
vn 0.0229842 -0.00977996 -0.00460876
vn 0.0223244 -0.00948345 0.00753964
vn -0.0223244 0.00948345 -0.00753964
vn -0.0222092 0.00977996 -0.00750078
vn 0.0222092 -0.00977996 0.00750078

# Mesh 'mesh1_mesh1-geometry' with 184 faces
g mesh1_mesh1-geometry
usemtl material_0_1_8
f  1/1/1 2/2/1 3/3/1
f  2/2/1 1/1/1 4/4/1
f  3/3/2 2/2/2 1/1/2
f  4/4/2 1/1/2 2/2/2
f  2/5/3 5/6/3 3/7/3
f  3/7/4 5/6/4 2/5/4
f  3/8/5 6/9/5 1/10/5
f  1/10/6 6/9/6 3/8/6
f  7/11/4 4/12/4 1/13/4
f  1/13/3 4/12/3 7/11/3
f  8/14/7 2/15/7 4/16/7
f  4/16/8 2/15/8 8/14/8
f  2/5/3 9/17/3 5/6/3
f  5/6/4 9/17/4 2/5/4
f  3/7/3 5/6/3 10/18/3
f  10/18/4 5/6/4 3/7/4
f  6/9/5 3/8/5 11/19/5
f  11/19/6 3/8/6 6/9/6
f  12/20/4 1/13/4 6/21/4
f  6/21/3 1/13/3 12/20/3
f  13/22/4 4/12/4 7/11/4
f  7/11/3 4/12/3 13/22/3
f  7/11/4 1/13/4 12/20/4
f  12/20/3 1/13/3 7/11/3
f  2/15/7 8/14/7 14/23/7
f  14/23/8 8/14/8 2/15/8
f  13/22/4 8/24/4 4/12/4
f  4/12/3 8/24/3 13/22/3
f  9/17/3 2/5/3 14/25/3
f  14/25/4 2/5/4 9/17/4
f  15/26/9 5/27/9 9/28/9
f  9/28/10 5/27/10 15/26/10
f  16/29/11 10/30/11 5/31/11
f  5/31/12 10/30/12 16/29/12
f  3/7/3 10/18/3 11/32/3
f  11/32/4 10/18/4 3/7/4
f  11/33/13 17/34/13 6/35/13
f  6/35/14 17/34/14 11/33/14
f  12/20/4 6/21/4 18/36/4
f  18/36/3 6/21/3 12/20/3
f  19/37/15 13/38/15 7/39/15
f  7/39/16 13/38/16 19/37/16
f  20/40/17 7/41/17 12/42/17
f  12/42/18 7/41/18 20/40/18
f  15/43/19 14/44/19 8/45/19
f  8/45/20 14/44/20 15/43/20
f  8/24/4 13/22/4 15/46/4
f  15/46/3 13/22/3 8/24/3
f  14/44/19 15/43/19 9/47/19
f  9/47/20 15/43/20 14/44/20
f  5/27/9 15/26/9 16/48/9
f  16/48/10 15/26/10 5/27/10
f  10/30/11 16/29/11 21/49/11
f  21/49/12 16/29/12 10/30/12
f  11/32/3 10/18/3 22/50/3
f  22/50/4 10/18/4 11/32/4
f  17/34/13 11/33/13 23/51/13
f  23/51/14 11/33/14 17/34/14
f  24/52/4 6/21/4 17/53/4
f  17/53/3 6/21/3 24/52/3
f  18/36/4 6/21/4 24/52/4
f  24/52/3 6/21/3 18/36/3
f  25/54/21 12/55/21 18/56/21
f  18/56/22 12/55/22 25/54/22
f  13/38/15 19/37/15 26/57/15
f  26/57/16 19/37/16 13/38/16
f  7/41/17 20/40/17 19/58/17
f  19/58/18 20/40/18 7/41/18
f  12/55/21 25/54/21 20/59/21
f  20/59/22 25/54/22 12/55/22
f  27/60/4 15/46/4 13/22/4
f  13/22/3 15/46/3 27/60/3
f  15/46/4 27/60/4 16/61/4
f  16/61/3 27/60/3 15/46/3
f  16/61/4 28/62/4 21/63/4
f  21/63/3 28/62/3 16/61/3
f  21/64/23 22/65/23 10/66/23
f  10/66/24 22/65/24 21/64/24
f  11/32/3 22/50/3 23/67/3
f  23/67/4 22/50/4 11/32/4
f  23/68/25 29/69/25 17/70/25
f  17/70/26 29/69/26 23/68/26
f  24/52/4 17/53/4 30/71/4
f  30/71/3 17/53/3 24/52/3
f  31/72/27 18/73/27 24/74/27
f  24/74/28 18/73/28 31/72/28
f  18/73/27 31/72/27 25/75/27
f  25/75/28 31/72/28 18/73/28
f  19/76/4 32/77/4 26/78/4
f  26/78/3 32/77/3 19/76/3
f  26/79/29 27/80/29 13/81/29
f  13/81/30 27/80/30 26/79/30
f  33/82/4 19/76/4 20/83/4
f  20/83/3 19/76/3 33/82/3
f  34/84/4 20/83/4 25/85/4
f  25/85/3 20/83/3 34/84/3
f  16/61/4 27/60/4 28/62/4
f  28/62/3 27/60/3 16/61/3
f  21/63/4 28/62/4 35/86/4
f  35/86/3 28/62/3 21/63/3
f  22/65/23 21/64/23 36/87/23
f  36/87/24 21/64/24 22/65/24
f  23/67/3 22/50/3 37/88/3
f  37/88/4 22/50/4 23/67/4
f  29/69/25 23/68/25 38/89/25
f  38/89/26 23/68/26 29/69/26
f  30/71/4 17/53/4 29/90/4
f  29/90/3 17/53/3 30/71/3
f  30/91/31 31/92/31 24/93/31
f  24/93/32 31/92/32 30/91/32
f  39/94/4 25/85/4 31/95/4
f  31/95/3 25/85/3 39/94/3
f  32/77/4 19/76/4 33/82/4
f  33/82/3 19/76/3 32/77/3
f  27/80/29 26/79/29 32/96/29
f  32/96/30 26/79/30 27/80/30
f  33/82/4 20/83/4 34/84/4
f  34/84/3 20/83/3 33/82/3
f  34/84/4 25/85/4 39/94/4
f  39/94/3 25/85/3 34/84/3
f  27/97/33 33/98/33 28/99/33
f  28/99/34 33/98/34 27/97/34
f  33/100/35 35/101/35 28/102/35
f  28/102/36 35/101/36 33/100/36
f  21/63/4 35/86/4 36/103/4
f  36/103/3 35/86/3 21/63/3
f  36/104/37 37/105/37 22/106/37
f  22/106/38 37/105/38 36/104/38
f  23/67/3 37/88/3 38/107/3
f  38/107/4 37/88/4 23/67/4
f  38/108/39 40/109/39 29/110/39
f  29/110/40 40/109/40 38/108/40
f  30/71/4 29/90/4 41/111/4
f  41/111/3 29/90/3 30/71/3
f  31/92/31 30/91/31 42/112/31
f  42/112/32 30/91/32 31/92/32
f  39/94/4 31/95/4 43/113/4
f  43/113/3 31/95/3 39/94/3
f  33/98/33 27/97/33 32/114/33
f  32/114/34 27/97/34 33/98/34
f  35/101/35 33/100/35 34/115/35
f  34/115/36 33/100/36 35/101/36
f  44/116/41 34/117/41 39/118/41
f  39/118/42 34/117/42 44/116/42
f  36/103/4 35/86/4 44/119/4
f  44/119/3 35/86/3 36/103/3
f  37/105/37 36/104/37 45/120/37
f  45/120/38 36/104/38 37/105/38
f  38/107/3 37/88/3 46/121/3
f  46/121/4 37/88/4 38/107/4
f  40/109/39 38/108/39 46/122/39
f  46/122/40 38/108/40 40/109/40
f  40/123/4 41/111/4 29/90/4
f  29/90/3 41/111/3 40/123/3
f  41/124/43 42/125/43 30/126/43
f  30/126/44 42/125/44 41/124/44
f  43/113/4 31/95/4 42/127/4
f  42/127/3 31/95/3 43/113/3
f  47/128/45 39/129/45 43/130/45
f  43/130/46 39/129/46 47/128/46
f  34/117/41 44/116/41 35/131/41
f  35/131/42 44/116/42 34/117/42
f  39/129/45 47/128/45 44/132/45
f  44/132/46 47/128/46 39/129/46
f  36/103/4 44/119/4 47/133/4
f  47/133/3 44/119/3 36/103/3
f  36/103/4 47/133/4 45/134/4
f  45/134/3 47/133/3 36/103/3
f  40/135/47 37/136/47 45/137/47
f  45/137/48 37/136/48 40/135/48
f  37/136/47 40/135/47 46/138/47
f  46/138/48 40/135/48 37/136/48
f  45/134/4 41/111/4 40/123/4
f  40/123/3 41/111/3 45/134/3
f  42/125/43 41/124/43 48/139/43
f  48/139/44 41/124/44 42/125/44
f  43/113/4 42/127/4 48/140/4
f  48/140/3 42/127/3 43/113/3
f  43/141/49 41/142/49 47/143/49
f  47/143/50 41/142/50 43/141/50
f  45/134/4 47/133/4 41/111/4
f  41/111/3 47/133/3 45/134/3
f  41/142/49 43/141/49 48/144/49
f  48/144/50 43/141/50 41/142/50

