# File produced by Open Asset Import Library (http://www.assimp.sf.net)
# (assimp v3.2.202087883)

mtllib model_normalized.mtl

# 98 vertex positions
v 0.139375 -0.320067 0.103561
v 0.196235 -0.320067 0.167167
v 0.139375 -0.320067 0.167167
v 0.196235 -0.320067 0.103561
v 0.139375 -0.190900 0.167167
v 0.196235 -0.190900 0.103561
v 0.196235 -0.190900 0.167167
v 0.139375 -0.190900 0.137887
v 0.166956 -0.190900 0.103561
v 0.139375 -0.161620 0.167167
v -0.143659 -0.190900 0.137887
v 0.139375 -0.037032 0.103561
v 0.166956 -0.161620 0.103561
v 0.166956 -0.190900 -0.189235
v 0.196235 -0.161620 0.103561
v 0.196235 -0.161620 0.167167
v -0.143659 -0.161620 0.167167
v -0.143659 -0.190900 0.167167
v 0.139375 -0.161620 0.137887
v 0.196235 -0.190900 -0.189235
v 0.196235 -0.161620 -0.242746
v 0.196235 0.435971 0.167167
v -0.143659 -0.320067 0.167167
v -0.143659 -0.161620 0.137887
v 0.139375 -0.037032 0.167167
v 0.196235 -0.037032 0.103561
v 0.166956 -0.161620 -0.189235
v 0.196235 -0.161620 -0.189235
v 0.196235 -0.320067 -0.189235
v 0.167604 0.456291 0.167167
v -0.194158 -0.161620 0.167167
v -0.194158 -0.190900 0.167167
v -0.143659 -0.320067 0.103561
v -0.143659 -0.037032 0.103561
v -0.194158 -0.037032 -0.189235
v 0.139375 -0.037032 -0.189235
v 0.139375 -0.320067 -0.189235
v 0.196235 -0.190900 -0.242746
v 0.196235 0.050806 -0.242746
v 0.196235 0.435971 0.069569
v 0.196235 0.050806 0.069569
v -0.165527 0.456291 0.167167
v -0.194158 -0.320067 0.167167
v -0.194158 -0.320067 0.103561
v 0.136878 0.473278 0.167167
v -0.143659 -0.037032 0.167167
v 0.196235 -0.037032 -0.189235
v 0.139375 -0.320067 -0.242746
v 0.196235 -0.320067 -0.242746
v 0.139375 -0.190900 -0.242746
v 0.139375 -0.161620 -0.242746
v 0.167604 0.456291 0.069569
v -0.194158 -0.190900 0.103561
v -0.194158 0.435971 0.167167
v -0.164879 -0.190900 0.103561
v -0.194158 -0.037032 0.103561
v -0.143659 -0.037032 -0.189235
v 0.139375 -0.190900 -0.213467
v 0.139375 -0.037032 -0.242746
v -0.194158 0.050806 0.069569
v -0.194158 -0.190900 -0.189235
v -0.134800 0.473278 0.167167
v -0.165527 0.456291 0.069569
v -0.194158 -0.161620 0.103561
v -0.164879 -0.161620 0.103561
v 0.104442 0.486716 0.167167
v 0.136878 0.473278 0.069569
v -0.164879 -0.161620 -0.189235
v 0.139375 -0.161620 -0.213467
v -0.143659 -0.190900 -0.242746
v -0.194158 0.050806 -0.242746
v -0.194158 -0.161620 -0.242746
v -0.102365 0.486716 0.167167
v -0.134800 0.473278 0.069569
v -0.194158 0.435971 0.069569
v 0.070706 0.496439 0.167167
v -0.143659 -0.320067 -0.189235
v -0.194158 -0.161620 -0.189235
v -0.143659 -0.037032 -0.242746
v -0.143659 -0.161620 -0.213467
v -0.143659 -0.161620 -0.242746
v 0.104442 0.486716 0.069569
v -0.194158 -0.190900 -0.242746
v -0.164879 -0.190900 -0.189235
v -0.068628 0.496439 0.167167
v -0.102365 0.486716 0.069569
v 0.036092 0.502321 0.167167
v -0.143659 -0.190900 -0.213467
v 0.070706 0.496439 0.069569
v -0.194158 -0.320067 -0.242746
v -0.194158 -0.320067 -0.189235
v -0.034015 0.502321 0.167167
v -0.068628 0.496439 0.069569
v 0.001038 0.504290 0.167167
v 0.036092 0.502321 0.069569
v -0.034015 0.502321 0.069569
v -0.143659 -0.320067 -0.242746
v 0.001038 0.504290 0.069569

# 0 UV coordinates

# 30 vertex normals
vn 0 -0.0254 0
vn 0 0.0254 0
vn 0 0 0.0254
vn 0 0 -0.0254
vn -0.0254 0 0
vn 0.0254 -0 0
vn 0.0147011 0.0207132 0
vn 0.0135163 0.0215051 0
vn -0.0147011 -0.0207132 0
vn -0.0135163 -0.0215051 0
vn 0.011023 0.0228835 0
vn -0.011023 -0.0228835 0
vn -0.0135163 0.0215051 0
vn -0.0147011 0.0207132 0
vn 0.0135163 -0.0215051 0
vn 0.0147011 -0.0207132 0
vn -0.011023 0.0228835 0
vn 0.011023 -0.0228835 0
vn 0.00839089 0.023974 0
vn -0.00839089 -0.023974 0
vn -0.00839089 0.023974 0
vn 0.00839089 -0.023974 0
vn 0.00565328 0.0247629 0
vn -0.00565328 -0.0247629 0
vn -0.00565328 0.0247629 0
vn 0.00565328 -0.0247629 0
vn 0.00284455 0.0252402 0
vn -0.00284455 -0.0252402 0
vn -0.00284455 0.0252402 0
vn 0.00284455 -0.0252402 0

# Mesh 'mesh1_mesh1-geometry' with 432 faces
g mesh1_mesh1-geometry
usemtl material_0_24
f  1//1 2//1 3//1
f  2//1 1//1 4//1
f  3//2 2//2 1//2
f  4//2 1//2 2//2
f  2//3 5//3 3//3
f  3//4 5//4 2//4
f  5//5 1//5 3//5
f  3//6 1//6 5//6
f  1//4 6//4 4//4
f  4//3 6//3 1//3
f  6//6 2//6 4//6
f  4//5 2//5 6//5
f  5//3 2//3 7//3
f  7//4 2//4 5//4
f  1//5 5//5 8//5
f  8//6 5//6 1//6
f  6//4 1//4 9//4
f  9//3 1//3 6//3
f  2//6 6//6 7//6
f  7//5 6//5 2//5
f  7//3 10//3 5//3
f  5//4 10//4 7//4
f  5//1 11//1 8//1
f  8//2 11//2 5//2
f  10//5 8//5 5//5
f  5//6 8//6 10//6
f  1//5 8//5 12//5
f  12//6 8//6 1//6
f  9//4 1//4 13//4
f  13//3 1//3 9//3
f  14//1 6//1 9//1
f  9//2 6//2 14//2
f  9//4 15//4 6//4
f  6//3 15//3 9//3
f  7//6 6//6 15//6
f  15//5 6//5 7//5
f  10//3 7//3 16//3
f  16//4 7//4 10//4
f  17//3 5//3 10//3
f  10//4 5//4 17//4
f  11//1 5//1 18//1
f  18//2 5//2 11//2
f  11//4 19//4 8//4
f  8//3 19//3 11//3
f  8//5 10//5 19//5
f  19//6 10//6 8//6
f  12//5 8//5 19//5
f  19//6 8//6 12//6
f  12//4 13//4 1//4
f  1//3 13//3 12//3
f  13//5 14//5 9//5
f  9//6 14//6 13//6
f  15//4 9//4 13//4
f  13//3 9//3 15//3
f  6//1 14//1 20//1
f  20//2 14//2 6//2
f  6//6 21//6 15//6
f  15//5 21//5 6//5
f  7//6 15//6 16//6
f  16//5 15//5 7//5
f  22//3 10//3 16//3
f  16//4 10//4 22//4
f  5//3 17//3 18//3
f  18//4 17//4 5//4
f  19//2 17//2 10//2
f  10//1 17//1 19//1
f  18//6 23//6 11//6
f  11//5 23//5 18//5
f  19//4 11//4 24//4
f  24//3 11//3 19//3
f  25//5 19//5 10//5
f  10//6 19//6 25//6
f  12//5 19//5 25//5
f  25//6 19//6 12//6
f  26//4 13//4 12//4
f  12//3 13//3 26//3
f  14//5 13//5 27//5
f  27//6 13//6 14//6
f  13//4 26//4 15//4
f  15//3 26//3 13//3
f  28//2 13//2 15//2
f  15//1 13//1 28//1
f  14//3 29//3 20//3
f  20//4 29//4 14//4
f  20//6 21//6 6//6
f  6//5 21//5 20//5
f  15//6 21//6 28//6
f  28//5 21//5 15//5
f  16//6 15//6 26//6
f  26//5 15//5 16//5
f  10//3 22//3 30//3
f  30//4 22//4 10//4
f  16//6 26//6 22//6
f  22//5 26//5 16//5
f  31//3 18//3 17//3
f  17//4 18//4 31//4
f  17//2 19//2 24//2
f  24//1 19//1 17//1
f  32//3 23//3 18//3
f  18//4 23//4 32//4
f  33//6 11//6 23//6
f  23//5 11//5 33//5
f  11//6 34//6 24//6
f  24//5 34//5 11//5
f  10//3 30//3 25//3
f  25//4 30//4 10//4
f  25//1 34//1 12//1
f  12//2 34//2 25//2
f  12//1 35//1 26//1
f  26//2 35//2 12//2
f  13//2 28//2 27//2
f  27//1 28//1 13//1
f  27//3 36//3 14//3
f  14//4 36//4 27//4
f  29//3 14//3 37//3
f  37//4 14//4 29//4
f  29//6 38//6 20//6
f  20//5 38//5 29//5
f  21//6 20//6 38//6
f  38//5 20//5 21//5
f  39//6 28//6 21//6
f  21//5 28//5 39//5
f  40//7 30//8 22//7
f  22//9 30//10 40//9
f  22//6 26//6 41//6
f  41//5 26//5 22//5
f  18//3 31//3 32//3
f  32//4 31//4 18//4
f  17//3 42//3 31//3
f  31//4 42//4 17//4
f  24//6 34//6 17//6
f  17//5 34//5 24//5
f  23//3 32//3 43//3
f  43//4 32//4 23//4
f  11//6 33//6 34//6
f  34//5 33//5 11//5
f  23//1 44//1 33//1
f  33//2 44//2 23//2
f  45//3 25//3 30//3
f  30//4 25//4 45//4
f  34//1 25//1 46//1
f  46//2 25//2 34//2
f  34//1 35//1 12//1
f  12//2 35//2 34//2
f  26//1 35//1 47//1
f  47//2 35//2 26//2
f  28//3 36//3 27//3
f  27//4 36//4 28//4
f  37//3 14//3 36//3
f  36//4 14//4 37//4
f  48//1 29//1 37//1
f  37//2 29//2 48//2
f  38//6 29//6 49//6
f  49//5 29//5 38//5
f  50//4 21//4 38//4
f  38//3 21//3 50//3
f  28//6 39//6 47//6
f  47//5 39//5 28//5
f  51//4 39//4 21//4
f  21//3 39//3 51//3
f  30//8 40//7 52//8
f  52//10 40//9 30//10
f  22//6 41//6 40//6
f  40//5 41//5 22//5
f  41//6 26//6 39//6
f  39//5 26//5 41//5
f  53//5 32//5 31//5
f  31//6 32//6 53//6
f  46//3 42//3 17//3
f  17//4 42//4 46//4
f  31//3 42//3 54//3
f  54//4 42//4 31//4
f  17//6 34//6 46//6
f  46//5 34//5 17//5
f  32//5 44//5 43//5
f  43//6 44//6 32//6
f  44//1 23//1 43//1
f  43//2 23//2 44//2
f  33//4 55//4 34//4
f  34//3 55//3 33//3
f  55//4 33//4 44//4
f  44//3 33//3 55//3
f  25//3 45//3 46//3
f  46//4 45//4 25//4
f  52//8 45//11 30//8
f  30//10 45//12 52//10
f  35//1 34//1 56//1
f  56//2 34//2 35//2
f  47//1 35//1 57//1
f  57//2 35//2 47//2
f  47//6 39//6 26//6
f  26//5 39//5 47//5
f  36//3 28//3 47//3
f  47//4 28//4 36//4
f  58//5 37//5 36//5
f  36//6 37//6 58//6
f  29//1 48//1 49//1
f  49//2 48//2 29//2
f  37//5 58//5 48//5
f  48//6 58//6 37//6
f  48//4 38//4 49//4
f  49//3 38//3 48//3
f  21//4 50//4 51//4
f  51//3 50//3 21//3
f  38//4 48//4 50//4
f  50//3 48//3 38//3
f  39//4 51//4 59//4
f  59//3 51//3 39//3
f  40//4 60//4 52//4
f  52//3 60//3 40//3
f  60//4 40//4 41//4
f  41//3 40//3 60//3
f  39//2 60//2 41//2
f  41//1 60//1 39//1
f  44//5 32//5 53//5
f  53//6 32//6 44//6
f  53//5 31//5 61//5
f  61//6 31//6 53//6
f  46//3 62//3 42//3
f  42//4 62//4 46//4
f  63//13 54//14 42//13
f  42//15 54//16 63//15
f  54//5 64//5 31//5
f  31//6 64//6 54//6
f  65//4 34//4 55//4
f  55//3 34//3 65//3
f  55//4 44//4 53//4
f  53//3 44//3 55//3
f  46//3 45//3 66//3
f  66//4 45//4 46//4
f  45//11 52//8 67//11
f  67//12 52//10 45//12
f  34//4 65//4 56//4
f  56//3 65//3 34//3
f  56//5 60//5 35//5
f  35//6 60//6 56//6
f  68//3 57//3 35//3
f  35//4 57//4 68//4
f  47//1 57//1 36//1
f  36//2 57//2 47//2
f  58//5 36//5 69//5
f  69//6 36//6 58//6
f  50//5 48//5 58//5
f  58//6 48//6 50//6
f  70//4 51//4 50//4
f  50//3 51//3 70//3
f  50//5 69//5 51//5
f  51//6 69//6 50//6
f  51//5 36//5 59//5
f  59//6 36//6 51//6
f  39//4 59//4 71//4
f  71//3 59//3 39//3
f  52//4 60//4 67//4
f  67//3 60//3 52//3
f  60//2 39//2 71//2
f  71//1 39//1 60//1
f  72//5 61//5 31//5
f  31//6 61//6 72//6
f  61//1 55//1 53//1
f  53//2 55//2 61//2
f  46//3 73//3 62//3
f  62//4 73//4 46//4
f  74//17 42//13 62//17
f  62//18 42//15 74//18
f  54//14 63//13 75//14
f  75//16 63//15 54//16
f  42//13 74//17 63//13
f  63//15 74//18 42//15
f  64//5 54//5 56//5
f  56//6 54//6 64//6
f  72//5 31//5 64//5
f  64//6 31//6 72//6
f  55//6 68//6 65//6
f  65//5 68//5 55//5
f  67//11 66//19 45//11
f  45//12 66//20 67//12
f  46//3 66//3 76//3
f  76//4 66//4 46//4
f  56//4 65//4 64//4
f  64//3 65//3 56//3
f  56//5 54//5 60//5
f  60//6 54//6 56//6
f  71//5 35//5 60//5
f  60//6 35//6 71//6
f  57//3 68//3 77//3
f  77//4 68//4 57//4
f  68//3 35//3 78//3
f  78//4 35//4 68//4
f  79//1 36//1 57//1
f  57//2 36//2 79//2
f  69//5 36//5 51//5
f  51//6 36//6 69//6
f  80//3 58//3 69//3
f  69//4 58//4 80//4
f  69//5 50//5 58//5
f  58//6 50//6 69//6
f  58//1 70//1 50//1
f  50//2 70//2 58//2
f  51//4 70//4 81//4
f  81//3 70//3 51//3
f  51//2 80//2 69//2
f  69//1 80//1 51//1
f  36//1 79//1 59//1
f  59//2 79//2 36//2
f  71//4 59//4 79//4
f  79//3 59//3 71//3
f  67//4 60//4 82//4
f  82//3 60//3 67//3
f  61//5 72//5 83//5
f  83//6 72//6 61//6
f  55//1 61//1 84//1
f  84//2 61//2 55//2
f  46//3 85//3 73//3
f  73//4 85//4 46//4
f  86//21 62//17 73//21
f  73//22 62//18 86//22
f  62//17 86//21 74//17
f  74//18 86//22 62//18
f  63//4 60//4 75//4
f  75//3 60//3 63//3
f  60//5 54//5 75//5
f  75//6 54//6 60//6
f  74//4 60//4 63//4
f  63//3 60//3 74//3
f  72//5 64//5 78//5
f  78//6 64//6 72//6
f  68//6 55//6 84//6
f  84//5 55//5 68//5
f  68//2 64//2 65//2
f  65//1 64//1 68//1
f  66//19 67//11 82//19
f  82//20 67//12 66//20
f  82//19 76//23 66//19
f  66//20 76//24 82//20
f  46//3 76//3 87//3
f  87//4 76//4 46//4
f  72//5 35//5 71//5
f  71//6 35//6 72//6
f  84//3 77//3 68//3
f  68//4 77//4 84//4
f  77//6 88//6 57//6
f  57//5 88//5 77//5
f  35//5 72//5 78//5
f  78//6 72//6 35//6
f  64//2 68//2 78//2
f  78//1 68//1 64//1
f  57//6 80//6 79//6
f  79//5 80//5 57//5
f  58//3 80//3 88//3
f  88//4 80//4 58//4
f  70//1 58//1 88//1
f  88//2 58//2 70//2
f  83//4 81//4 70//4
f  70//3 81//3 83//3
f  81//6 88//6 70//6
f  70//5 88//5 81//5
f  80//2 51//2 81//2
f  81//1 51//1 80//1
f  71//4 79//4 72//4
f  72//3 79//3 71//3
f  82//4 60//4 89//4
f  89//3 60//3 82//3
f  81//4 83//4 72//4
f  72//3 83//3 81//3
f  90//5 61//5 83//5
f  83//6 61//6 90//6
f  91//3 84//3 61//3
f  61//4 84//4 91//4
f  46//3 92//3 85//3
f  85//4 92//4 46//4
f  93//25 73//21 85//25
f  85//26 73//22 93//26
f  73//21 93//25 86//21
f  86//22 93//26 73//22
f  86//4 60//4 74//4
f  74//3 60//3 86//3
f  76//23 82//19 89//23
f  89//24 82//20 76//24
f  89//23 87//27 76//23
f  76//24 87//28 89//24
f  46//3 87//3 94//3
f  94//4 87//4 46//4
f  77//3 84//3 91//3
f  91//4 84//4 77//4
f  77//6 70//6 88//6
f  88//5 70//5 77//5
f  57//6 88//6 80//6
f  80//5 88//5 57//5
f  79//6 80//6 81//6
f  81//5 80//5 79//5
f  88//6 81//6 80//6
f  80//5 81//5 88//5
f  70//4 90//4 83//4
f  83//3 90//3 70//3
f  72//4 79//4 81//4
f  81//3 79//3 72//3
f  89//4 60//4 95//4
f  95//3 60//3 89//3
f  61//5 90//5 91//5
f  91//6 90//6 61//6
f  46//3 94//3 92//3
f  92//4 94//4 46//4
f  96//29 85//25 92//29
f  92//30 85//26 96//30
f  85//25 96//29 93//25
f  93//26 96//30 85//26
f  93//4 60//4 86//4
f  86//3 60//3 93//3
f  87//27 89//23 95//27
f  95//28 89//24 87//28
f  95//27 94//2 87//27
f  87//28 94//1 95//28
f  90//1 77//1 91//1
f  91//2 77//2 90//2
f  70//6 77//6 97//6
f  97//5 77//5 70//5
f  90//4 70//4 97//4
f  97//3 70//3 90//3
f  95//4 60//4 98//4
f  98//3 60//3 95//3
f  98//2 92//29 94//2
f  94//1 92//30 98//1
f  92//29 98//2 96//29
f  96//30 98//1 92//30
f  96//4 60//4 93//4
f  93//3 60//3 96//3
f  94//2 95//27 98//2
f  98//1 95//28 94//1
f  77//1 90//1 97//1
f  97//2 90//2 77//2
f  98//4 60//4 96//4
f  96//3 60//3 98//3

# Mesh 'mesh2_mesh2-geometry' with 149 faces
g mesh2_mesh2-geometry
usemtl material_0_0
l  2 4
l  2 7
l  3 2
l  4 6
l  4 1
l  7 16
l  7 5
l  3 5
l  1 3
l  6 9
l  6 20
l  15 6
l  1 12
l  16 22
l  16 10
l  8 5
l  5 18
l  10 5
l  9 13
l  9 14
l  20 14
l  20 29
l  20 38
l  13 15
l  15 26
l  15 28
l  26 12
l  12 25
l  30 22
l  40 22
l  10 25
l  10 19
l  10 17
l  19 8
l  8 11
l  11 18
l  18 23
l  17 18
l  18 32
l  13 27
l  14 27
l  29 49
l  29 37
l  49 38
l  38 21
l  50 38
l  26 47
l  47 28
l  27 28
l  28 21
l  25 46
l  45 30
l  52 40
l  40 41
l  19 24
l  46 17
l  17 24
l  17 31
l  24 11
l  33 23
l  43 23
l  43 32
l  32 31
l  49 48
l  48 37
l  36 37
l  21 39
l  51 21
l  48 50
l  58 50
l  50 70
l  51 50
l  47 36
l  34 46
l  66 45
l  67 52
l  41 39
l  60 41
l  31 54
l  33 34
l  44 33
l  44 43
l  59 36
l  71 39
l  51 69
l  51 59
l  51 81
l  69 58
l  58 88
l  88 70
l  70 97
l  70 83
l  81 70
l  56 34
l  76 66
l  82 67
l  60 71
l  75 60
l  54 42
l  75 54
l  44 53
l  59 79
l  72 71
l  69 80
l  79 81
l  81 80
l  81 72
l  80 88
l  97 77
l  97 90
l  90 83
l  83 72
l  61 83
l  56 35
l  64 56
l  87 76
l  89 82
l  75 63
l  42 62
l  55 53
l  61 53
l  79 57
l  78 72
l  57 77
l  91 77
l  90 91
l  84 61
l  61 91
l  35 57
l  35 78
l  64 65
l  78 64
l  94 87
l  95 89
l  63 74
l  62 73
l  65 55
l  84 55
l  78 68
l  68 84
l  68 65
l  92 94
l  98 95
l  74 86
l  73 85
l  85 92
l  96 98
l  86 93
l  93 96

