# File produced by Open Asset Import Library (http://www.assimp.sf.net)
# (assimp v3.2.202087883)

mtllib model_normalized.mtl

# 12 vertex positions
v 0.279096 0.323438 -0.201019
v -0.279096 -0.323438 -0.201019
v -0.279096 0.323438 -0.201019
v 0.279096 -0.323438 -0.201019
v -0.279096 0.323438 -0.117551
v 0.279096 -0.323438 -0.117551
v -0.279096 -0.323438 -0.117551
v 0.279096 0.323438 -0.117551
v -0.146069 0.323438 0.318569
v 0.146069 -0.323438 0.318569
v -0.146069 -0.323438 0.318569
v 0.146069 0.323438 0.318569

# 24 UV coordinates
vt 0 1 0
vt 0.997306 0 0
vt 0.997306 1 0
vt 0 0 0
vt 0.157484 1 0
vt 0.157484 0 0
vt -0.860281 0 0
vt -0.860281 1 0
vt 0.160643 0 0
vt 0 0.89046 0
vt -0.160643 0.89046 0
vt 0.160643 0.89046 0
vt -0.160643 0 0
vt 1 0.212212 0
vt -1 0.212212 0
vt 1 0.678248 0
vt -1 0.678248 0
vt -0.157484 0 0
vt -0.157484 1 0
vt 0.860281 1 0
vt 0.860281 0 0
vt 1 0 0
vt 0 0.992536 0
vt 1 0.992536 0

# 10 vertex normals
vn 0 0 -0.0254
vn 0 0 0.0254
vn 0.0254 0 0
vn -0 -0.0254 -0
vn -0.0254 -0 -0
vn 0 0.0254 0
vn 0.0242949 0 -0.00741053
vn -0.0242949 -0 -0.00741053
vn -0.0242949 0 0.00741053
vn 0.0242949 0 0.00741053

# Mesh 'mesh1_mesh1-geometry' with 2 faces
g mesh1_mesh1-geometry
usemtl material_0_1_8
f  1/1/1 2/2/1 3/3/1
f  2/2/1 1/1/1 4/4/1

# Mesh 'mesh1_mesh1-geometry' with 20 faces
g mesh1_mesh1-geometry
usemtl material_1_24
f  3/4/2 2/4/2 1/4/2
f  4/4/2 1/4/2 2/4/2
f  3/4/3 5/4/3 2/4/3
f  3/4/4 1/4/4 5/4/4
f  4/4/5 6/4/5 1/4/5
f  4/4/6 2/4/6 6/4/6
f  7/4/3 2/4/3 5/4/3
f  8/4/4 5/4/4 1/4/4
f  8/4/5 1/4/5 6/4/5
f  7/4/6 6/4/6 2/4/6
f  5/4/7 9/4/7 7/4/7
f  9/4/4 5/4/4 8/4/4
f  6/4/8 10/4/8 8/4/8
f  11/4/6 6/4/6 7/4/6
f  11/4/7 7/4/7 9/4/7
f  12/4/4 9/4/4 8/4/4
f  12/4/8 8/4/8 10/4/8
f  10/4/6 6/4/6 11/4/6
f  11/4/1 9/4/1 10/4/1
f  12/4/1 10/4/1 9/4/1

# Mesh 'mesh1_mesh1-geometry' with 4 faces
g mesh1_mesh1-geometry
usemtl material_2_2_8
f  2/4/5 5/5/5 3/1/5
f  5/5/5 2/4/5 7/6/5
f  7/7/9 9/1/9 5/8/9
f  9/1/9 7/7/9 11/4/9

# Mesh 'mesh1_mesh1-geometry' with 8 faces
g mesh1_mesh1-geometry
usemtl material_5_5_8
f  5/9/6 1/10/6 3/4/6
f  6/11/4 2/4/4 4/10/4
f  1/10/6 5/9/6 8/12/6
f  2/4/4 6/11/4 7/13/4
f  8/12/6 5/9/6 9/14/6
f  7/13/4 6/11/4 11/15/4
f  8/12/6 9/14/6 12/16/6
f  11/15/4 6/11/4 10/17/4

# Mesh 'mesh1_mesh1-geometry' with 4 faces
g mesh1_mesh1-geometry
usemtl material_4_4_8
f  1/1/3 6/18/3 4/4/3
f  6/18/3 1/1/3 8/19/3
f  8/20/10 10/4/10 6/21/10
f  10/4/10 8/20/10 12/1/10

# Mesh 'mesh1_mesh1-geometry' with 2 faces
g mesh1_mesh1-geometry
usemtl material_3_3_8
f  10/22/2 9/23/2 11/4/2
f  9/23/2 10/22/2 12/24/2

