# Blender 4.4.3
# www.blender.org
o Bolt
v 0.041608 0.473022 -0.025882
v 0.046507 0.473022 -0.025882
v 0.046507 0.473022 0.025881
v 0.041608 0.473022 0.025881
v 0.044058 0.010348 0.000000
v 0.040038 0.407057 0.006961
v 0.048077 0.407057 0.006961
v 0.048077 0.407057 -0.006962
v 0.040038 0.407057 -0.006962
v 0.020742 0.473022 -0.002778
v 0.038489 0.447182 0.009645
v 0.038489 0.407057 0.009645
v 0.049627 0.447182 0.009645
v 0.049627 0.407057 0.009645
v 0.020742 0.473022 0.002778
v 0.049627 0.447182 -0.009646
v 0.049627 0.407057 -0.009646
v 0.038489 0.447182 -0.009646
v 0.038489 0.407057 -0.009646
v 0.067374 0.473022 0.002778
v 0.067374 0.473022 -0.002778
v 0.044058 0.526004 -0.000000
v 0.050494 0.407057 0.002775
v 0.050494 0.407057 -0.002776
v 0.037622 0.407057 -0.002776
v 0.037622 0.407057 0.002775
v 0.034699 0.447182 -0.002918
v 0.034699 0.447182 0.002917
v 0.053417 0.447182 0.002917
v 0.053417 0.447182 -0.002918
v 0.053634 0.407057 -0.002704
v 0.053634 0.407057 0.002704
v 0.034482 0.407057 0.002704
v 0.034482 0.407057 -0.002704
v 0.036513 0.472785 0.005543
v 0.036513 0.472785 -0.005543
v 0.051602 0.472784 -0.005543
v 0.051602 0.472784 0.005543
v 0.048077 0.010348 -0.006961
v 0.040039 0.010348 -0.006961
v 0.040039 0.010348 0.006962
v 0.048077 0.010348 0.006962
v 0.037630 0.010348 -0.002789
v 0.037630 0.010348 0.002790
v 0.050486 0.010348 0.002790
v 0.050486 0.010348 -0.002789
v 0.040039 0.166945 0.006962
v 0.040039 0.058834 0.006962
v 0.048077 0.058834 0.006962
v 0.048077 0.166945 0.006962
v 0.048077 0.058834 -0.006961
v 0.048077 0.166945 -0.006962
v 0.040039 0.166945 -0.006962
v 0.040039 0.058834 -0.006961
v 0.037626 0.166945 -0.002783
v 0.037629 0.058834 -0.002788
v 0.037629 0.058834 0.002788
v 0.037626 0.166945 0.002782
v 0.050487 0.058834 -0.002788
v 0.050490 0.166945 -0.002783
v 0.050490 0.166945 0.002782
v 0.050487 0.058834 0.002788
vn 0.8660 -0.0000 0.5000
vn 0.8660 -0.0000 -0.5000
vn -0.0000 -0.0000 -1.0000
vn -0.0000 -1.0000 -0.0000
vn -0.0000 -0.0000 1.0000
vn -1.0000 -0.0000 -0.0000
vn -0.8660 -0.0000 -0.5000
vn -0.9498 -0.0233 -0.3120
vn -0.0000 -0.5320 0.8467
vn -0.0000 0.4389 0.8985
vn 0.9498 -0.0233 -0.3120
vn 0.8686 0.0010 -0.4955
vn 0.8799 -0.4752 -0.0000
vn -0.8686 0.0010 0.4955
vn -0.9579 0.1606 -0.2381
vn -0.0000 -0.5320 -0.8467
vn -0.9579 0.1606 0.2381
vn 0.9579 0.1606 -0.2381
vn 0.9579 0.1606 0.2381
vn -0.8686 0.0010 -0.4955
vn -0.9498 -0.0233 0.3120
vn 0.8686 0.0010 0.4955
vn 0.9498 -0.0233 0.3120
vn 0.1733 -0.0883 0.9809
vn 0.1695 0.1258 0.9775
vn 1.0000 -0.0000 -0.0000
vn 1.0000 0.0054 -0.0000
vn -1.0000 0.0054 -0.0000
vn -0.1733 -0.0883 0.9809
vn -0.0000 0.4389 -0.8985
vn -0.8799 -0.4752 -0.0000
vn -0.9153 0.4028 -0.0000
vn 0.9153 0.4028 -0.0000
vn -0.1733 -0.0883 -0.9809
vn 0.1695 0.1258 -0.9775
vn -0.1695 0.1258 -0.9775
vn 0.1733 -0.0883 -0.9809
vn -0.1695 0.1258 0.9775
vn -0.8660 -0.0000 0.5000
vt 0.330002 0.001007
vt 0.330002 0.603212
vt 0.319489 0.603685
vt 0.319471 0.001481
vt 0.305476 0.874827
vt 0.305472 0.996430
vt 0.294976 0.995957
vt 0.294976 0.874355
vt 0.332016 0.998993
vt 0.332016 0.394951
vt 0.352239 0.394951
vt 0.352239 0.998993
vt 0.079754 0.341343
vt 0.085834 0.330813
vt 0.093734 0.330633
vt 0.083652 0.348095
vt 0.354253 0.998993
vt 0.354253 0.394951
vt 0.374475 0.394951
vt 0.374475 0.998993
vt 0.268435 0.122610
vt 0.268431 0.001007
vt 0.282466 0.001007
vt 0.282461 0.122610
vt 0.257935 0.996429
vt 0.257935 0.394225
vt 0.268449 0.393752
vt 0.268466 0.995955
vt 0.231884 0.188237
vt 0.215626 0.193002
vt 0.206617 0.128726
vt 0.255921 0.114957
vt 0.059532 0.306317
vt 0.053452 0.316848
vt 0.045552 0.317027
vt 0.055634 0.299565
vt 0.085834 0.316848
vt 0.079754 0.306317
vt 0.083652 0.299565
vt 0.093734 0.317027
vt 0.404508 0.199252
vt 0.376490 0.199252
vt 0.384337 0.134172
vt 0.396661 0.134172
vt 0.053452 0.330813
vt 0.059532 0.341343
vt 0.055634 0.348095
vt 0.045552 0.330633
vt 0.390499 0.001007
vt 0.087162 0.105556
vt 0.103420 0.110321
vt 0.127457 0.183601
vt 0.078153 0.169832
vt 0.404508 0.300195
vt 0.376490 0.300195
vt 0.110689 0.007665
vt 0.127457 0.012599
vt 0.058424 0.162406
vt 0.072908 0.102050
vt 0.071995 0.165745
vt 0.434541 0.199252
vt 0.434541 0.300195
vt 0.406522 0.300195
vt 0.406522 0.199252
vt 0.201372 0.196508
vt 0.225940 0.294144
vt 0.208796 0.297551
vt 0.184759 0.199829
vt 0.160842 0.001007
vt 0.414370 0.134172
vt 0.426693 0.134172
vt 0.179537 0.135388
vt 0.129471 0.146061
vt 0.032378 0.297551
vt 0.001007 0.152498
vt 0.051072 0.163171
vt 0.255921 0.285960
vt 0.239153 0.290894
vt 0.056295 0.098729
vt 0.080332 0.001007
vt 0.097476 0.004415
vt 0.476023 0.136169
vt 0.479086 0.200677
vt 0.436555 0.140268
vt 0.479086 0.001007
vt 0.282448 0.393752
vt 0.282431 0.995955
vt 0.319502 0.874827
vt 0.319506 0.996430
vt 0.172002 0.299565
vt 0.168939 0.364074
vt 0.129471 0.359975
vt 0.420531 0.001007
vt 0.200460 0.132814
vt 0.186888 0.136152
vt 0.476023 0.337853
vt 0.479086 0.402361
vt 0.436555 0.341952
vt 0.040475 0.364074
vt 0.043538 0.499235
vt 0.001007 0.359975
vt 0.479086 0.202691
vt 0.043538 0.299565
vt 0.172002 0.499235
vt 0.190187 0.317078
vt 0.180076 0.299565
vt 0.200298 0.299565
vt 0.200298 0.334591
vt 0.180076 0.334591
vt 0.174016 0.324096
vt 0.174016 0.310061
vt 0.206358 0.310061
vt 0.206358 0.324096
vt 0.305489 0.603685
vt 0.305506 0.001481
vt 0.332016 0.122981
vt 0.332016 0.001007
vt 0.352238 0.001007
vt 0.352238 0.122981
vt 0.257935 0.123082
vt 0.257935 0.001480
vt 0.292961 0.001480
vt 0.292961 0.123082
vt 0.330002 0.874355
vt 0.330002 0.995957
vt 0.294976 0.603212
vt 0.294976 0.001007
vt 0.354253 0.122981
vt 0.354253 0.001007
vt 0.374475 0.001007
vt 0.374475 0.122981
vt 0.292961 0.394225
vt 0.292961 0.996429
s 1
f 7/1/1 50/2/1 61/3/1 23/4/1
f 59/5/2 46/6/2 39/7/2 51/8/2
f 8/9/3 52/10/3 53/11/3 9/12/3
f 7/13/4 23/14/4 32/15/4 14/16/4
f 6/17/5 47/18/5 50/19/5 7/20/5
f 56/21/6 43/22/6 44/23/6 57/24/6
f 9/25/7 53/26/7 55/27/7 25/28/7
f 18/29/8 27/30/8 36/31/8 1/32/8
f 9/33/4 25/34/4 34/35/4 19/36/4
f 24/37/4 8/38/4 17/39/4 31/40/4
f 11/41/9 13/42/9 3/43/9 4/44/9
f 26/45/4 6/46/4 12/47/4 33/48/4
f 22/49/10 4/44/10 3/43/10
f 30/50/11 16/51/11 2/52/11 37/53/11
f 11/41/5 12/54/5 14/55/5 13/42/5
f 30/50/12 31/56/12 17/57/12 16/51/12
f 20/58/13 29/59/13 30/50/13 21/60/13
f 16/61/3 17/62/3 19/63/3 18/64/3
f 28/65/14 33/66/14 12/67/14 11/68/14
f 1/32/15 36/31/15 22/69/15
f 8/38/4 9/33/4 19/36/4 17/39/4
f 16/61/16 18/64/16 1/70/16 2/71/16
f 6/46/4 7/13/4 14/16/4 12/47/4
f 35/72/17 4/73/17 22/69/17
f 37/53/18 2/52/18 22/74/18
f 3/75/19 38/76/19 22/74/19
f 18/29/20 19/77/20 34/78/20 27/30/20
f 28/65/21 11/68/21 4/73/21 35/72/21
f 13/79/22 14/80/22 32/81/22 29/59/22
f 13/79/23 29/59/23 38/76/23 3/75/23
f 24/37/4 31/40/4 32/15/4 23/14/4
f 38/82/24 29/83/24 20/84/24
f 22/85/25 38/82/25 20/84/25
f 26/45/4 33/48/4 34/35/4 25/34/4
f 25/28/6 55/27/6 58/86/6 26/87/6
f 46/6/26 59/5/26 62/88/26 45/89/26
f 31/56/27 30/50/27 29/59/27 32/81/27
f 27/30/28 34/78/28 33/66/28 28/65/28
f 28/90/29 35/91/29 15/92/29
f 1/70/30 22/93/30 2/71/30
f 10/94/31 27/30/31 28/65/31 15/95/31
f 22/69/32 10/94/32 15/95/32
f 22/74/33 20/58/33 21/60/33
f 36/96/34 27/97/34 10/98/34
f 37/99/35 22/100/35 21/101/35
f 22/102/36 36/96/36 10/98/36
f 30/103/37 37/99/37 21/101/37
f 35/91/38 22/104/38 15/92/38
f 5/105/4 40/106/4 39/107/4
f 5/105/4 42/108/4 41/109/4
f 5/105/4 44/110/4 43/111/4
f 5/105/4 46/112/4 45/113/4
f 5/105/4 41/109/4 44/110/4
f 5/105/4 43/111/4 40/106/4
f 5/105/4 39/107/4 46/112/4
f 5/105/4 45/113/4 42/108/4
f 60/114/26 24/115/26 23/4/26 61/3/26
f 51/116/3 39/117/3 40/118/3 54/119/3
f 54/120/7 40/121/7 43/22/7 56/21/7
f 57/24/39 44/23/39 41/122/39 48/123/39
f 49/124/1 42/125/1 45/89/1 62/88/1
f 24/115/2 60/114/2 52/126/2 8/127/2
f 48/128/5 41/129/5 42/130/5 49/131/5
f 60/114/26 61/3/26 62/88/26 59/5/26
f 56/21/6 57/24/6 58/86/6 55/27/6
f 59/5/2 51/8/2 52/126/2 60/114/2
f 54/120/7 56/21/7 55/27/7 53/26/7
f 48/128/5 49/131/5 50/19/5 47/18/5
f 49/124/1 62/88/1 61/3/1 50/2/1
f 51/116/3 54/119/3 53/11/3 52/10/3
f 57/24/39 48/123/39 47/132/39 58/86/39
f 26/87/39 58/86/39 47/132/39 6/133/39
