# File produced by Open Asset Import Library (http://www.assimp.sf.net)
# (assimp v3.2.202087883)

mtllib model_normalized.mtl

# 76 vertex positions
v 0.141794 0.015228 0.083929
v 0.141794 -0.498295 0.053271
v 0.141794 -0.498295 0.083929
v 0.141794 0.015228 0.053271
v 0.141794 0.053551 0.083929
v 0.164787 -0.498295 0.083929
v 0.164787 0.053551 0.083929
v 0.164787 0.015228 0.053271
v 0.164787 -0.498295 0.053271
v 0.164787 0.053551 0.053271
v 0.164787 0.084209 0.083929
v 0.141794 0.084209 0.083929
v 0.164787 0.084209 0.053271
v 0.141794 0.053551 0.053271
v 0.141794 0.084209 0.053271
v 0.141794 -0.498295 -0.253310
v 0.164787 -0.498295 -0.222652
v 0.141794 -0.498295 -0.222652
v 0.164787 -0.498295 -0.253310
v 0.141794 0.015228 -0.222652
v 0.141794 0.015228 -0.253310
v 0.164787 0.015228 -0.253310
v 0.164787 0.015228 -0.222652
v -0.141794 0.015228 -0.253310
v -0.141794 -0.498295 -0.222652
v -0.141794 -0.498295 -0.253310
v -0.141794 0.015228 -0.222652
v -0.164787 -0.498295 -0.253310
v -0.164787 -0.498295 -0.222652
v -0.164787 0.015228 -0.253310
v -0.164787 0.015228 -0.222652
v -0.164787 0.053551 0.053271
v -0.164787 0.015228 0.053271
v -0.164787 0.053551 -0.253310
v -0.141794 0.015228 0.053271
v -0.141794 0.015228 0.083929
v 0.164787 0.053551 -0.253310
v -0.141794 0.053551 0.053271
v -0.141794 0.053551 0.083929
v -0.164787 0.053551 0.083929
v -0.164787 -0.498295 0.053271
v -0.164787 -0.498295 0.083929
v -0.141794 -0.498295 0.083929
v -0.164787 0.084209 0.053271
v -0.164787 0.084209 0.083929
v -0.141794 -0.498295 0.053271
v -0.141794 0.084209 0.083929
v -0.141794 0.084209 0.053271
v 0.028432 0.367796 0.121452
v -0.028432 0.367796 0.121452
v 0.000000 0.367796 0.122544
v 0.056695 0.367796 0.118185
v -0.056695 0.367796 0.118185
v 0.084626 0.367796 0.112761
v -0.084626 0.367796 0.112761
v 0.112058 0.367796 0.105212
v -0.112058 0.367796 0.105212
v 0.138831 0.367796 0.095583
v -0.138831 0.367796 0.095583
v 0.164787 0.367796 0.083929
v -0.164787 0.367796 0.083929
v 0.164787 0.367796 0.053271
v -0.164787 0.367796 0.053271
v 0.138831 0.084209 0.095583
v -0.138831 0.084209 0.095583
v -0.112058 0.084209 0.105212
v -0.084626 0.084209 0.112761
v -0.056695 0.084209 0.118185
v -0.028432 0.084209 0.121452
v 0.000000 0.084209 0.122544
v 0.028432 0.084209 0.121452
v 0.056695 0.084209 0.118185
v 0.084626 0.084209 0.112761
v 0.112058 0.084209 0.105212
v 0.141794 0.053551 -0.222652
v -0.141794 0.053551 -0.222652

# 24 UV coordinates
vt -0.029163 0 0
vt 0 -0.0218723 0
vt 0 0 0
vt -0.029163 -0.0218723 0
vt -0.029163 0.29163 0
vt -3.28955e-17 0.269758 0
vt -3.28955e-17 0.29163 0
vt -0.029163 0.269758 0
vt 0.29163 0.488481 0
vt 0.269758 0.524934 0
vt 0.269758 0.488481 0
vt 0.29163 0.524934 0
vt 0.029163 0.269758 0
vt -5.59223e-16 0.29163 0
vt -5.59223e-16 0.269758 0
vt 0.029163 0.29163 0
vt 0 0.524934 0
vt -0.029163 0.488481 0
vt 0 0.488481 0
vt -0.029163 0.524934 0
vt 0.029163 -0.0218723 0
vt -5.92119e-16 -7.89492e-16 0
vt -5.92119e-16 -0.0218723 0
vt 0.029163 -7.89492e-16 0

# 80 vertex normals
vn -0.0113592 -3.51685e-35 0.0227185
vn -0.0146647 -0.0146647 -0.0146647
vn -0.0146647 -0.0146647 0.0146647
vn -0.0179605 0 -0.0179605
vn -1.19573e-33 -3.93196e-35 0.0254
vn 0.0146647 -0.0146647 0.0146647
vn 0.0179605 -2.78032e-35 0.0179605
vn 0.0227185 0 -0.0113592
vn 0.0146647 -0.0146647 -0.0146647
vn 0.0254 0 0
vn 0.0179605 5.0648e-17 0.0179605
vn -0.0179605 -6.75307e-18 0.0179605
vn 0.0179605 1.01296e-17 -0.0179605
vn -0.0179605 -4.72715e-17 -0.0179605
vn -0.0179605 0 0.0179605
vn 0.0179605 0 -0.0179605
vn 0.0179605 0 0.0179605
vn -0.0179605 0.0179605 1.42796e-18
vn -0.0227185 -0.0113592 0
vn -0.0179605 -0.0179605 0
vn -0.0146647 0.0146647 -0.0146647
vn 0 -0.0254 0
vn 0 -0.0113592 -0.0227185
vn -2.19019e-18 -0.0179605 0.0179605
vn 0.0179605 -0.0179605 -0
vn 0.0227185 -0.0113592 -0
vn 0.0146647 0.0146647 -0.0146647
vn 2.38977e-33 0.0254 2.01944e-18
vn 0.0179605 0.0179605 1.42796e-18
vn -2.19019e-18 0.0179605 0.0179605
vn -0.0227185 0 -0.0113592
vn -0.0254 0 0
vn 0.0113592 0 0.0227185
vn 0 0 0.0254
vn -0.0179605 2.02592e-17 0.0179605
vn -0.0179605 -2.02592e-17 -0.0179605
vn 0.0179605 2.02592e-17 0.0179605
vn 0.0179605 -2.02592e-17 -0.0179605
vn -0.00803219 0 0.0240966
vn 0.00803219 0 -0.0240966
vn 0.0240966 0 0.00803219
vn -0.0240966 0 -0.00803219
vn 0 0 -0.0254
vn 3.82011e-17 0.0254 -2.86509e-17
vn -3.82011e-17 0.0254 -2.86509e-17
vn 0.00139307 0.0177438 0.0181212
vn -0.00139307 0.0177438 0.0181212
vn -2.41033e-19 0.0177438 0.0181746
vn 0.00277795 0.0177438 0.0179611
vn -0.00277795 0.0177438 0.0179611
vn 0.00414648 0.0177438 0.0176953
vn -0.00414648 0.0177438 0.0176953
vn 0.00549062 0.0177438 0.0173254
vn -0.00549062 0.0177438 0.0173254
vn 0.00680245 0.0177438 0.0168536
vn -0.00680245 0.0177438 0.0168536
vn 0.0170133 0.0153123 0.011011
vn -0.0170133 0.0153123 0.011011
vn 0.0210559 -0.00401295 0.0136274
vn 0.00680245 -0.0177438 0.0168536
vn 0.0179605 3.69878e-18 -0.0179605
vn -0.0210559 -0.00401295 0.0136274
vn -0.0179605 3.69878e-18 -0.0179605
vn -0.00680245 -0.0177438 0.0168536
vn -0.00549062 -0.0177438 0.0173254
vn -0.00414648 -0.0177438 0.0176953
vn -0.00277795 -0.0177438 0.0179611
vn -0.00139307 -0.0177438 0.0181212
vn -2.41033e-19 -0.0177438 0.0181746
vn 0.00139307 -0.0177438 0.0181212
vn 0.00277795 -0.0177438 0.0179611
vn 0.00414648 -0.0177438 0.0176953
vn 0.00549062 -0.0177438 0.0173254
vn 6.52208e-33 -0.0254 2.65556e-17
vn 8.33274e-18 -0.0113592 -0.0227185
vn 3.82011e-17 -0.0254 2.86509e-17
vn 0.0179605 -3.69878e-18 0.0179605
vn -8.33274e-18 0.0113592 0.0227185
vn -0.0179605 -3.69878e-18 0.0179605
vn 0 0.0254 0

# Mesh 'SketchUp_ID2' with 18 faces
g SketchUp_ID2
usemtl material
f  1//1 2//2 3//3
f  2//2 1//1 4//4
f  5//5 6//6 7//7
f  6//6 5//5 3//3
f  3//3 5//5 1//1
f  2//2 8//8 9//9
f  8//8 2//2 4//4
f  8//8 6//6 9//9
f  6//6 8//8 7//7
f  7//7 8//8 10//10
f  11//11 5//12 7//11
f  5//12 11//11 12//12
f  13//13 7//11 10//13
f  7//11 13//13 11//11
f  12//12 14//14 5//12
f  14//14 12//12 15//14
f  14//14 13//13 10//13
f  13//13 14//14 15//14

# Mesh 'SketchUp_ID10' with 2 faces
g SketchUp_ID10
usemtl material_0
f  2/1/2 6/2/6 3/3/3
f  6/2/6 2/1/2 9/4/9

# Mesh 'SketchUp_ID23' with 10 faces
g SketchUp_ID23
usemtl material
f  16//2 17//6 18//3
f  17//6 16//2 19//9
f  20//15 16//2 18//3
f  16//2 20//15 21//4
f  16//2 22//16 19//9
f  22//16 16//2 21//4
f  22//16 17//6 19//9
f  17//6 22//16 23//17
f  20//15 17//6 23//17
f  17//6 20//15 18//3

# Mesh 'SketchUp_ID29' with 10 faces
g SketchUp_ID29
usemtl material
f  24//16 25//6 26//9
f  25//6 24//16 27//17
f  28//2 25//6 29//3
f  25//6 28//2 26//9
f  28//2 24//16 26//9
f  24//16 28//2 30//4
f  31//15 25//6 27//17
f  25//6 31//15 29//3
f  31//15 28//2 29//3
f  28//2 31//15 30//4

# Mesh 'SketchUp_ID35' with 28 faces
g SketchUp_ID35
usemtl material_1
f  32//18 31//19 33//20
f  31//19 32//18 30//4
f  30//4 32//18 34//21
f  31//19 35//22 33//20
f  24//23 20//22 27//22
f  20//22 24//23 21//23
f  36//24 4//22 1//24
f  4//22 36//24 35//22
f  4//22 35//22 8//25
f  8//25 35//22 23//26
f  23//26 35//22 31//19
f  23//26 31//19 27//22
f  23//26 27//22 20//22
f  37//27 14//28 10//29
f  14//28 37//27 38//28
f  38//28 37//27 32//18
f  32//18 37//27 34//21
f  14//28 39//30 5//30
f  39//30 14//28 38//28
f  21//23 37//27 22//16
f  37//27 21//23 34//21
f  34//21 21//23 24//23
f  34//21 24//23 30//4
f  37//27 23//26 22//16
f  23//26 37//27 8//25
f  8//25 37//27 10//29
f  39//30 1//24 5//30
f  1//24 39//30 36//24

# Mesh 'SketchUp_ID43' with 18 faces
g SketchUp_ID43
usemtl material
f  40//15 41//2 42//3
f  41//2 40//15 33//31
f  33//31 40//15 32//32
f  40//15 36//33 39//34
f  36//33 40//15 43//6
f  43//6 40//15 42//3
f  40//35 44//36 32//36
f  44//36 40//35 45//35
f  41//2 35//16 46//9
f  35//16 41//2 33//31
f  35//16 43//6 46//9
f  43//6 35//16 36//33
f  45//35 39//37 47//37
f  39//37 45//35 40//35
f  32//36 48//38 38//38
f  48//38 32//36 44//36
f  48//38 39//37 38//38
f  39//37 48//38 47//37

# Mesh 'SketchUp_ID49' with 2 faces
g SketchUp_ID49
usemtl material_0
f  41/5/2 43/6/6 42/7/3
f  43/6/6 41/5/2 46/8/9

# Mesh 'SketchUp_ID57' with 2 faces
g SketchUp_ID57
usemtl material_2
f  39//32 35//39 36//32
f  35//39 39//32 38//39

# Mesh 'SketchUp_ID57' with 2 faces
g SketchUp_ID57
usemtl material_3
f  38//40 39//10 35//40
f  36//10 35//40 39//10

# Mesh 'SketchUp_ID67' with 2 faces
g SketchUp_ID67
usemtl material_2
f  14//41 8//34 10//34
f  8//34 14//41 4//41

# Mesh 'SketchUp_ID67' with 2 faces
g SketchUp_ID67
usemtl material_3
f  4//42 14//42 8//43
f  10//43 8//43 14//42

# Mesh 'SketchUp_ID73' with 4 faces
g SketchUp_ID73
usemtl material_0
f  33/9/43 38/10/40 35/11/40
f  38/10/40 33/9/43 32/12/43
f  38/13/44 40/14/44 39/15/44
f  40/14/44 38/13/44 32/16/44

# Mesh 'SketchUp_ID81' with 4 faces
g SketchUp_ID81
usemtl material_0
f  5/17/32 4/18/42 1/19/32
f  4/18/42 5/17/32 14/20/42
f  10/21/45 5/22/45 7/23/45
f  5/22/45 10/21/45 14/24/45

# Mesh 'SketchUp_ID89' with 2 faces
g SketchUp_ID89
usemtl material_0
f  48/13/44 45/14/44 47/15/44
f  45/14/44 48/13/44 44/16/44

# Mesh 'SketchUp_ID97' with 56 faces
g SketchUp_ID97
usemtl material_1
f  49//46 50//47 51//48
f  50//47 49//46 52//49
f  50//47 52//49 53//50
f  53//50 52//49 54//51
f  53//50 54//51 55//52
f  55//52 54//51 56//53
f  55//52 56//53 57//54
f  57//54 56//53 58//55
f  57//54 58//55 59//56
f  59//56 58//55 60//57
f  59//56 60//57 61//58
f  61//58 60//57 62//27
f  61//58 62//27 63//21
f  58//55 11//59 60//57
f  11//59 58//55 64//60
f  62//27 11//59 13//61
f  11//59 62//27 60//57
f  45//62 63//21 44//63
f  63//21 45//62 61//58
f  61//58 65//64 59//56
f  65//64 61//58 45//62
f  59//56 66//65 57//54
f  66//65 59//56 65//64
f  57//54 67//66 55//52
f  67//66 57//54 66//65
f  55//52 68//67 53//50
f  68//67 55//52 67//66
f  53//50 69//68 50//47
f  69//68 53//50 68//67
f  50//47 70//69 51//48
f  70//69 50//47 69//68
f  51//48 71//70 49//46
f  71//70 51//48 70//69
f  49//46 72//71 52//49
f  72//71 49//46 71//70
f  52//49 73//72 54//51
f  73//72 52//49 72//71
f  54//51 74//73 56//53
f  74//73 54//51 73//72
f  56//53 64//60 58//55
f  64//60 56//53 74//73
f  69//68 71//70 70//69
f  71//70 69//68 68//67
f  71//70 68//67 72//71
f  72//71 68//67 73//72
f  73//72 68//67 67//66
f  73//72 67//66 66//65
f  73//72 66//65 74//73
f  74//73 66//65 64//60
f  64//60 66//65 65//64
f  64//60 65//64 45//62
f  64//60 45//62 12//74
f  12//74 45//62 47//74
f  12//74 47//74 15//75
f  15//75 47//74 48//75
f  11//59 64//60 12//74

# Mesh 'SketchUp_ID103' with 6 faces
g SketchUp_ID103
usemtl material_2
f  15//75 62//27 13//61
f  62//27 15//75 63//21
f  63//21 15//75 48//75
f  63//21 48//75 44//63
f  15//76 11//76 12//76
f  11//76 15//76 13//76

# Mesh 'SketchUp_ID103' with 6 faces
g SketchUp_ID103
usemtl material_3
f  44//77 48//78 63//6
f  48//78 15//78 63//6
f  63//6 15//78 62//3
f  13//79 62//3 15//78
f  13//45 15//45 11//45
f  12//45 11//45 15//45

# Mesh 'SketchUp_ID109' with 2 faces
g SketchUp_ID109
usemtl material_2
f  30//22 27//22 31//22
f  27//22 30//22 24//22

# Mesh 'SketchUp_ID109' with 2 faces
g SketchUp_ID109
usemtl material_3
f  24//80 30//80 27//80
f  31//80 27//80 30//80

# Mesh 'SketchUp_ID115' with 2 faces
g SketchUp_ID115
usemtl material_2
f  21//22 23//22 20//22
f  23//22 21//22 22//22

# Mesh 'SketchUp_ID115' with 2 faces
g SketchUp_ID115
usemtl material_3
f  22//80 21//80 23//80
f  20//80 23//80 21//80

# Mesh 'SketchUp_ID121' with 1 faces
g SketchUp_ID121
usemtl edge_color000255
l  20 75

# Mesh 'SketchUp_ID127' with 1 faces
g SketchUp_ID127
usemtl edge_color000255
l  27 76

