# File produced by Open Asset Import Library (http://www.assimp.sf.net)
# (assimp v3.2.202087883)

mtllib model_normalized.mtl

# 94 vertex positions
v -0.143255 -0.430909 0.510326
v 0.142511 -0.430909 -0.023104
v 0.142511 -0.430909 0.510326
v -0.143255 -0.430909 -0.023104
v 0.142511 0.331134 0.510326
v 0.142511 0.316756 0.510326
v -0.143255 -0.373396 -0.023104
v 0.142511 -0.373396 -0.023104
v -0.143255 0.316756 0.510326
v -0.143255 0.316756 -0.023104
v 0.142511 0.316756 -0.023104
v -0.143255 0.331134 0.510326
v -0.143255 0.331134 -0.023104
v -0.133729 -0.373396 -0.023104
v 0.142511 0.331134 -0.023104
v 0.132986 -0.143345 -0.023104
v -0.133729 0.316756 -0.023104
v -0.133729 -0.143345 -0.023104
v 0.132986 -0.373396 -0.023104
v 0.132986 0.086705 -0.023104
v 0.132986 0.316756 -0.023104
v -0.133729 0.086705 -0.023104
v -0.038802 -0.241510 -0.023104
v 0.039783 -0.241510 -0.023104
v 0.039783 -0.011892 -0.023104
v 0.028205 0.262838 -0.023104
v -0.038802 0.218158 -0.023104
v -0.038802 -0.011892 -0.023104
v -0.038802 -0.233422 -0.023104
v 0.039783 -0.233422 -0.023104
v 0.039783 -0.003805 -0.023104
v 0.039783 0.218158 -0.023104
v 0.028205 0.236576 -0.023104
v -0.028948 0.262838 -0.023104
v -0.038802 0.226246 -0.023104
v -0.038802 -0.003805 -0.023104
v -0.030140 -0.233422 -0.023104
v -0.038802 -0.233422 -0.070732
v -0.030140 -0.241510 -0.023104
v 0.039783 -0.241510 -0.070732
v 0.028205 -0.223092 -0.023104
v -0.030140 -0.011892 -0.023104
v 0.039783 -0.011892 -0.070732
v 0.028205 0.006525 -0.023104
v 0.039783 0.226246 -0.023104
v 0.021061 0.241968 -0.023104
v -0.028948 0.236576 -0.023104
v 0.021061 0.257446 -0.023104
v 0.028205 0.032787 -0.023104
v -0.030140 0.226246 -0.023104
v -0.038802 0.226246 -0.070732
v 0.028205 -0.196830 -0.023104
v -0.030140 -0.003805 -0.023104
v -0.038802 -0.003805 -0.070732
v -0.028948 -0.223092 -0.023104
v -0.038802 -0.241510 -0.070732
v 0.030585 -0.241510 -0.023104
v 0.039783 -0.233422 -0.070732
v 0.030585 -0.241510 -0.061207
v -0.038802 -0.011892 -0.070732
v 0.030585 -0.011892 -0.023104
v 0.039783 -0.003805 -0.070732
v 0.030585 -0.011892 -0.061207
v -0.028948 0.006525 -0.023104
v -0.030140 0.218158 -0.023104
v 0.039783 0.218158 -0.070732
v -0.021804 0.241968 -0.023104
v -0.021804 0.257446 -0.023104
v -0.028948 0.032787 -0.023104
v -0.038802 0.218158 -0.070732
v -0.028948 -0.196830 -0.023104
v 0.030585 -0.233422 -0.023104
v -0.030140 -0.233422 -0.061207
v -0.030140 -0.241510 -0.061207
v 0.030585 -0.233422 -0.061207
v -0.021804 -0.217700 -0.023104
v 0.021061 -0.217700 -0.023104
v -0.030140 -0.011892 -0.061207
v 0.030585 -0.003805 -0.061207
v 0.030585 -0.003805 -0.023104
v -0.021804 0.011917 -0.023104
v 0.021061 0.011917 -0.023104
v 0.030585 0.218158 -0.023104
v 0.039783 0.226246 -0.070732
v 0.030585 0.218158 -0.061207
v 0.030585 0.226246 -0.023104
v 0.021061 0.027396 -0.023104
v -0.030140 0.226246 -0.061207
v 0.021061 -0.202222 -0.023104
v -0.030140 -0.003805 -0.061207
v -0.030140 0.218158 -0.061207
v 0.030585 0.226246 -0.061207
v -0.021804 0.027396 -0.023104
v -0.021804 -0.202222 -0.023104

# 0 UV coordinates

# 6 vertex normals
vn 0 -0.0254 0
vn 0 0.0254 0
vn 0.0254 0 0
vn -0.0254 0 0
vn 0 0 0.0254
vn -0 0 -0.0254

# Mesh 'mesh1_mesh1-geometry' with 392 faces
g mesh1_mesh1-geometry
usemtl material_0_24
f  1//1 2//1 3//1
f  2//1 1//1 4//1
f  3//2 2//2 1//2
f  4//2 1//2 2//2
f  2//3 5//3 3//3
f  3//4 5//4 2//4
f  6//5 1//5 3//5
f  3//6 1//6 6//6
f  1//4 7//4 4//4
f  4//3 7//3 1//3
f  7//6 2//6 4//6
f  4//5 2//5 7//5
f  8//3 5//3 2//3
f  2//4 5//4 8//4
f  3//3 5//3 6//3
f  6//4 5//4 3//4
f  1//5 6//5 9//5
f  9//6 6//6 1//6
f  7//4 1//4 10//4
f  10//3 1//3 7//3
f  2//6 7//6 8//6
f  8//5 7//5 2//5
f  11//3 5//3 8//3
f  8//4 5//4 11//4
f  5//5 9//5 6//5
f  6//6 9//6 5//6
f  12//4 1//4 9//4
f  9//3 1//3 12//3
f  10//4 1//4 13//4
f  13//3 1//3 10//3
f  10//6 14//6 7//6
f  7//5 14//5 10//5
f  8//6 7//6 14//6
f  14//5 7//5 8//5
f  5//3 11//3 15//3
f  15//4 11//4 5//4
f  8//6 16//6 11//6
f  11//5 16//5 8//5
f  9//5 5//5 12//5
f  12//6 5//6 9//6
f  13//4 1//4 12//4
f  12//3 1//3 13//3
f  13//6 17//6 10//6
f  10//5 17//5 13//5
f  14//6 10//6 18//6
f  18//5 10//5 14//5
f  8//6 14//6 19//6
f  19//5 14//5 8//5
f  11//6 13//6 15//6
f  15//5 13//5 11//5
f  15//2 12//2 5//2
f  5//1 12//1 15//1
f  16//6 8//6 19//6
f  19//5 8//5 16//5
f  11//6 16//6 20//6
f  20//5 16//5 11//5
f  12//2 15//2 13//2
f  13//1 15//1 12//1
f  17//6 13//6 21//6
f  21//5 13//5 17//5
f  22//6 10//6 17//6
f  17//5 10//5 22//5
f  18//6 10//6 22//6
f  22//5 10//5 18//5
f  23//6 14//6 18//6
f  18//5 14//5 23//5
f  14//6 23//6 19//6
f  19//5 23//5 14//5
f  21//6 13//6 11//6
f  11//5 13//5 21//5
f  19//6 24//6 16//6
f  16//5 24//5 19//5
f  16//6 25//6 20//6
f  20//5 25//5 16//5
f  11//6 20//6 21//6
f  21//5 20//5 11//5
f  21//6 26//6 17//6
f  17//5 26//5 21//5
f  27//6 22//6 17//6
f  17//5 22//5 27//5
f  28//6 18//6 22//6
f  22//5 18//5 28//5
f  23//6 18//6 29//6
f  29//5 18//5 23//5
f  24//6 19//6 23//6
f  23//5 19//5 24//5
f  16//6 24//6 30//6
f  30//5 24//5 16//5
f  25//6 16//6 28//6
f  28//5 16//5 25//5
f  20//6 25//6 31//6
f  31//5 25//5 20//5
f  20//6 32//6 21//6
f  21//5 32//5 20//5
f  21//6 33//6 26//6
f  26//5 33//5 21//5
f  34//6 17//6 26//6
f  26//5 17//5 34//5
f  22//6 27//6 20//6
f  20//5 27//5 22//5
f  27//6 17//6 35//6
f  35//5 17//5 27//5
f  18//6 28//6 16//6
f  16//5 28//5 18//5
f  28//6 22//6 36//6
f  36//5 22//5 28//5
f  29//6 18//6 37//6
f  37//5 18//5 29//5
f  38//4 23//4 29//4
f  29//3 23//3 38//3
f  24//6 23//6 39//6
f  39//5 23//5 24//5
f  40//3 30//3 24//3
f  24//4 30//4 40//4
f  16//6 30//6 41//6
f  41//5 30//5 16//5
f  25//6 28//6 42//6
f  42//5 28//5 25//5
f  43//3 31//3 25//3
f  25//4 31//4 43//4
f  20//6 31//6 44//6
f  44//5 31//5 20//5
f  32//6 20//6 27//6
f  27//5 20//5 32//5
f  21//6 32//6 45//6
f  45//5 32//5 21//5
f  21//6 45//6 33//6
f  33//5 45//5 21//5
f  33//6 46//6 26//6
f  26//5 46//5 33//5
f  47//6 17//6 34//6
f  34//5 17//5 47//5
f  26//6 48//6 34//6
f  34//5 48//5 26//5
f  20//6 49//6 22//6
f  22//5 49//5 20//5
f  35//6 17//6 50//6
f  50//5 17//5 35//5
f  51//4 27//4 35//4
f  35//3 27//3 51//3
f  16//6 52//6 18//6
f  18//5 52//5 16//5
f  36//6 22//6 53//6
f  53//5 22//5 36//5
f  54//4 28//4 36//4
f  36//3 28//3 54//3
f  37//6 18//6 55//6
f  55//5 18//5 37//5
f  37//2 38//2 29//2
f  29//1 38//1 37//1
f  23//4 38//4 56//4
f  56//3 38//3 23//3
f  56//1 39//1 23//1
f  23//2 39//2 56//2
f  24//6 39//6 57//6
f  57//5 39//5 24//5
f  30//3 40//3 58//3
f  58//4 40//4 30//4
f  59//1 40//1 24//1
f  24//2 40//2 59//2
f  41//6 30//6 55//6
f  55//5 30//5 41//5
f  16//6 41//6 52//6
f  52//5 41//5 16//5
f  60//1 42//1 28//1
f  28//2 42//2 60//2
f  25//6 42//6 61//6
f  61//5 42//5 25//5
f  31//3 43//3 62//3
f  62//4 43//4 31//4
f  63//1 43//1 25//1
f  25//2 43//2 63//2
f  44//6 31//6 64//6
f  64//5 31//5 44//5
f  20//6 44//6 49//6
f  49//5 44//5 20//5
f  32//6 27//6 65//6
f  65//5 27//5 32//5
f  66//3 45//3 32//3
f  32//4 45//4 66//4
f  33//6 45//6 47//6
f  47//5 45//5 33//5
f  46//6 33//6 67//6
f  67//5 33//5 46//5
f  26//6 46//6 48//6
f  48//5 46//5 26//5
f  50//6 17//6 47//6
f  47//5 17//5 50//5
f  67//6 47//6 34//6
f  34//5 47//5 67//5
f  68//6 34//6 48//6
f  48//5 34//5 68//5
f  69//6 22//6 49//6
f  49//5 22//5 69//5
f  50//2 51//2 35//2
f  35//1 51//1 50//1
f  27//4 51//4 70//4
f  70//3 51//3 27//3
f  71//6 18//6 52//6
f  52//5 18//5 71//5
f  53//6 22//6 64//6
f  64//5 22//5 53//5
f  53//2 54//2 36//2
f  36//1 54//1 53//1
f  28//4 54//4 60//4
f  60//3 54//3 28//3
f  55//6 18//6 71//6
f  71//5 18//5 55//5
f  37//6 55//6 72//6
f  72//5 55//5 37//5
f  73//2 38//2 37//2
f  37//1 38//1 73//1
f  38//6 40//6 56//6
f  56//5 40//5 38//5
f  56//1 74//1 39//1
f  39//2 74//2 56//2
f  37//6 57//6 39//6
f  39//5 57//5 37//5
f  59//1 24//1 57//1
f  57//2 24//2 59//2
f  40//6 38//6 58//6
f  58//5 38//5 40//5
f  58//2 75//2 30//2
f  30//1 75//1 58//1
f  40//1 59//1 56//1
f  56//2 59//2 40//2
f  72//6 55//6 30//6
f  30//5 55//5 72//5
f  55//6 76//6 41//6
f  41//5 76//5 55//5
f  41//6 77//6 52//6
f  52//5 77//5 41//5
f  60//1 78//1 42//1
f  42//2 78//2 60//2
f  53//6 61//6 42//6
f  42//5 61//5 53//5
f  63//1 25//1 61//1
f  61//2 25//2 63//2
f  43//6 54//6 62//6
f  62//5 54//5 43//5
f  62//2 79//2 31//2
f  31//1 79//1 62//1
f  43//1 63//1 60//1
f  60//2 63//2 43//2
f  80//6 64//6 31//6
f  31//5 64//5 80//5
f  64//6 81//6 44//6
f  44//5 81//5 64//5
f  44//6 82//6 49//6
f  49//5 82//5 44//5
f  70//1 65//1 27//1
f  27//2 65//2 70//2
f  32//6 65//6 83//6
f  83//5 65//5 32//5
f  45//3 66//3 84//3
f  84//4 66//4 45//4
f  85//1 66//1 32//1
f  32//2 66//2 85//2
f  86//6 47//6 45//6
f  45//5 47//5 86//5
f  47//6 67//6 33//6
f  33//5 67//5 47//5
f  68//6 46//6 67//6
f  67//5 46//5 68//5
f  46//6 68//6 48//6
f  48//5 68//5 46//5
f  50//6 47//6 86//6
f  86//5 47//5 50//5
f  67//6 34//6 68//6
f  68//5 34//5 67//5
f  64//6 22//6 69//6
f  69//5 22//5 64//5
f  49//6 87//6 69//6
f  69//5 87//5 49//5
f  88//2 51//2 50//2
f  50//1 51//1 88//1
f  51//6 66//6 70//6
f  70//5 66//5 51//5
f  52//6 89//6 71//6
f  71//5 89//5 52//5
f  53//6 64//6 80//6
f  80//5 64//5 53//5
f  90//2 54//2 53//2
f  53//1 54//1 90//1
f  54//6 43//6 60//6
f  60//5 43//5 54//5
f  76//6 55//6 71//6
f  71//5 55//5 76//5
f  57//6 37//6 72//6
f  72//5 37//5 57//5
f  75//2 38//2 73//2
f  73//1 38//1 75//1
f  37//3 74//3 73//3
f  73//4 74//4 37//4
f  56//1 59//1 74//1
f  74//2 59//2 56//2
f  74//3 37//3 39//3
f  39//4 37//4 74//4
f  57//4 75//4 59//4
f  59//3 75//3 57//3
f  75//2 58//2 38//2
f  38//1 58//1 75//1
f  30//2 75//2 72//2
f  72//1 75//1 30//1
f  77//6 41//6 76//6
f  76//5 41//5 77//5
f  52//6 77//6 89//6
f  89//5 77//5 52//5
f  60//1 63//1 78//1
f  78//2 63//2 60//2
f  78//3 53//3 42//3
f  42//4 53//4 78//4
f  61//6 53//6 80//6
f  80//5 53//5 61//5
f  61//4 79//4 63//4
f  63//3 79//3 61//3
f  79//2 62//2 54//2
f  54//1 62//1 79//1
f  31//2 79//2 80//2
f  80//1 79//1 31//1
f  81//6 64//6 69//6
f  69//5 64//5 81//5
f  82//6 44//6 81//6
f  81//5 44//5 82//5
f  49//6 82//6 87//6
f  87//5 82//5 49//5
f  70//1 91//1 65//1
f  65//2 91//2 70//2
f  50//6 83//6 65//6
f  65//5 83//5 50//5
f  85//1 32//1 83//1
f  83//2 32//2 85//2
f  66//6 51//6 84//6
f  84//5 51//5 66//5
f  84//2 92//2 45//2
f  45//1 92//1 84//1
f  66//1 85//1 70//1
f  70//2 85//2 66//2
f  45//2 92//2 86//2
f  86//1 92//1 45//1
f  83//6 50//6 86//6
f  86//5 50//5 83//5
f  93//6 69//6 87//6
f  87//5 69//5 93//5
f  92//2 51//2 88//2
f  88//1 51//1 92//1
f  50//3 91//3 88//3
f  88//4 91//4 50//4
f  94//6 71//6 89//6
f  89//5 71//5 94//5
f  79//2 54//2 90//2
f  90//1 54//1 79//1
f  53//3 78//3 90//3
f  90//4 78//4 53//4
f  76//6 71//6 94//6
f  94//5 71//5 76//5
f  75//4 57//4 72//4
f  72//3 57//3 75//3
f  74//5 75//5 73//5
f  73//6 75//6 74//6
f  75//5 74//5 59//5
f  59//6 74//6 75//6
f  94//6 77//6 76//6
f  76//5 77//5 94//5
f  77//6 94//6 89//6
f  89//5 94//5 77//5
f  79//5 78//5 63//5
f  63//6 78//6 79//6
f  79//4 61//4 80//4
f  80//3 61//3 79//3
f  81//6 69//6 93//6
f  93//5 69//5 81//5
f  93//6 82//6 81//6
f  81//5 82//5 93//5
f  82//6 93//6 87//6
f  87//5 93//5 82//5
f  70//1 85//1 91//1
f  91//2 85//2 70//2
f  91//3 50//3 65//3
f  65//4 50//4 91//4
f  83//4 92//4 85//4
f  85//3 92//3 83//3
f  92//2 84//2 51//2
f  51//1 84//1 92//1
f  92//4 83//4 86//4
f  86//3 83//3 92//3
f  91//5 92//5 88//5
f  88//6 92//6 91//6
f  78//5 79//5 90//5
f  90//6 79//6 78//6
f  92//5 91//5 85//5
f  85//6 91//6 92//6

# Mesh 'mesh2_mesh2-geometry' with 33 faces
g mesh2_mesh2-geometry
usemtl material_0_0
l  3 2
l  1 3
l  3 6
l  2 4
l  2 8
l  4 1
l  1 9
l  6 5
l  6 9
l  4 7
l  8 11
l  8 19
l  12 9
l  5 12
l  15 5
l  7 10
l  14 7
l  11 21
l  11 15
l  19 14
l  16 19
l  13 12
l  15 13
l  13 10
l  17 10
l  14 18
l  21 17
l  21 20
l  16 18
l  20 16
l  22 17
l  18 22
l  20 22

# Mesh 'mesh3_mesh3-geometry' with 4 faces
g mesh3_mesh3-geometry
usemtl material_0_0
l  71 55
l  52 71
l  55 41
l  41 52

# Mesh 'mesh4_mesh4-geometry' with 24 faces
g mesh4_mesh4-geometry
usemtl material_0_0
l  24 57
l  30 24
l  24 40
l  59 57
l  72 57
l  30 58
l  72 30
l  40 56
l  58 40
l  74 59
l  75 59
l  75 72
l  38 58
l  56 38
l  23 56
l  39 74
l  73 74
l  73 75
l  29 38
l  23 29
l  39 23
l  37 39
l  37 73
l  29 37

# Mesh 'mesh5_mesh5-geometry' with 4 faces
g mesh5_mesh5-geometry
usemtl material_0_0
l  94 89
l  76 94
l  89 77
l  77 76

# Mesh 'mesh6_mesh6-geometry' with 4 faces
g mesh6_mesh6-geometry
usemtl material_0_0
l  64 44
l  69 64
l  44 49
l  49 69

# Mesh 'mesh7_mesh7-geometry' with 24 faces
g mesh7_mesh7-geometry
usemtl material_0_0
l  31 25
l  31 62
l  80 31
l  25 43
l  25 61
l  62 43
l  54 62
l  79 80
l  80 61
l  43 60
l  63 61
l  60 54
l  36 54
l  90 79
l  79 63
l  28 60
l  78 63
l  36 53
l  28 36
l  53 90
l  90 78
l  42 28
l  42 78
l  53 42

# Mesh 'mesh8_mesh8-geometry' with 4 faces
g mesh8_mesh8-geometry
usemtl material_0_0
l  81 93
l  82 81
l  93 87
l  87 82

# Mesh 'mesh9_mesh9-geometry' with 24 faces
g mesh9_mesh9-geometry
usemtl material_0_0
l  92 86
l  92 85
l  88 92
l  86 83
l  86 45
l  85 83
l  91 85
l  88 91
l  50 88
l  32 83
l  45 84
l  45 32
l  65 91
l  50 65
l  35 50
l  32 66
l  84 66
l  51 84
l  65 27
l  35 51
l  27 35
l  66 70
l  70 51
l  27 70

# Mesh 'mesh10_mesh10-geometry' with 4 faces
g mesh10_mesh10-geometry
usemtl material_0_0
l  47 33
l  34 47
l  33 26
l  26 34

# Mesh 'mesh11_mesh11-geometry' with 4 faces
g mesh11_mesh11-geometry
usemtl material_0_0
l  48 46
l  68 48
l  46 67
l  67 68

