# File produced by Open Asset Import Library (http://www.assimp.sf.net)
# (assimp v3.2.202087883)

mtllib model_normalized.mtl

# 96 vertex positions
v 0.401531 -0.041346 -0.059649
v 0.440925 -0.041346 -0.099044
v 0.440925 -0.041346 -0.059649
v 0.401531 -0.041346 -0.099044
v 0.440925 -0.017103 -0.059649
v 0.401531 -0.029224 -0.099044
v 0.440925 -0.017103 -0.099044
v 0.421229 -0.017103 -0.099044
v 0.401531 -0.017103 -0.099044
v 0.429177 -0.017103 -0.080768
v 0.421229 0.035170 -0.080768
v 0.440925 0.035170 -0.080768
v -0.445077 -0.017103 -0.080768
v 0.440925 -0.017103 0.069898
v 0.440925 0.035170 0.125805
v 0.429177 -0.017103 0.092720
v 0.440925 -0.017103 0.107019
v -0.412873 -0.017103 -0.099044
v 0.421229 0.035170 0.125805
v -0.445077 -0.017103 0.092720
v 0.429177 -0.012558 0.092720
v 0.440925 -0.041346 0.069898
v -0.366729 -0.001195 -0.093482
v -0.435222 -0.017103 -0.099044
v 0.440925 -0.041346 0.107019
v -0.457571 0.035170 0.125805
v -0.457571 -0.017103 -0.099044
v -0.445077 -0.012558 -0.080768
v 0.412896 -0.017103 0.107019
v 0.429177 -0.012558 -0.080768
v 0.333039 -0.001195 -0.093482
v 0.440925 -0.041346 0.159293
v 0.412896 -0.041346 0.107019
v -0.457571 0.128353 0.159293
v -0.457571 -0.017103 0.107019
v -0.445077 -0.012558 0.092720
v -0.404539 -0.017103 0.107019
v 0.357204 0.001986 -0.080768
v -0.297564 0.011863 -0.088916
v -0.412873 -0.041346 -0.099044
v -0.457571 0.035170 -0.080768
v 0.440925 0.128353 0.159293
v -0.457571 -0.041346 0.159293
v -0.457571 -0.017103 -0.054346
v -0.445077 -0.012558 0.093477
v 0.429177 -0.012558 0.093477
v 0.412896 -0.041346 0.069898
v 0.263873 0.011863 -0.088916
v -0.457571 -0.041346 -0.099044
v -0.435222 0.035170 -0.080768
v 0.393197 -0.041346 0.159293
v -0.457571 -0.041346 0.107019
v -0.457571 -0.041346 -0.054346
v -0.457571 -0.017103 0.053988
v -0.373104 0.001986 0.093477
v 0.357204 0.001986 0.093477
v -0.227858 0.022045 -0.085356
v -0.435222 0.035170 0.125805
v -0.404539 -0.041346 0.107019
v -0.373104 0.001986 -0.080768
v 0.284751 0.013911 -0.080768
v 0.194167 0.022045 -0.085356
v -0.412873 -0.041346 -0.054346
v -0.404539 -0.041346 0.053988
v -0.457571 -0.041346 0.053988
v -0.300650 0.013911 0.093477
v 0.284751 0.013911 0.093477
v -0.157747 0.029332 -0.082809
v -0.300650 0.013911 -0.080768
v 0.211912 0.023203 -0.080768
v 0.124056 0.029332 -0.082809
v -0.227812 0.023203 0.093477
v 0.211912 0.023203 0.093477
v -0.087364 0.033710 -0.081278
v -0.227812 0.023203 -0.080768
v 0.138786 0.029849 -0.080768
v 0.053672 0.033710 -0.081278
v -0.154685 0.029849 0.093477
v 0.138786 0.029849 0.093477
v -0.016845 0.035170 -0.080768
v -0.154685 0.029849 -0.080768
v 0.065466 0.033840 -0.080768
v -0.081366 0.033840 0.093477
v 0.065466 0.033840 0.093477
v -0.081366 0.033840 0.092720
v 0.065466 0.033840 0.092720
v -0.081366 0.033840 -0.080768
v -0.007950 0.035170 0.093477
v -0.007950 0.035170 -0.080768
v -0.007950 0.035170 0.092720
v 0.412896 -0.017103 0.069898
v 0.401531 -0.017103 -0.059649
v -0.404539 -0.017103 0.053988
v -0.412873 -0.017103 -0.054346
v -0.039519 -0.041346 -0.245562
v -0.038004 -0.041346 -0.245562

# 0 UV coordinates

# 42 vertex normals
vn 0 -0.0254 0
vn 0 0.0254 0
vn -0.0254 0 0
vn 0 0 0.0254
vn 0 -0.00838291 0.0239768
vn 0.0254 0 0
vn 0 -0.00859025 0.0239033
vn 0 -0 -0.0254
vn -0.00503085 -0.0248968 0
vn -0.00457878 -0.0249839 0
vn 0.00503085 -0.0248968 -0
vn 0.00457878 -0.0249839 -0
vn -0.00367027 -0.0251334 0
vn 0.00367027 -0.0251334 -0
vn -0.00275692 -0.0252499 0
vn 0.00275692 -0.0252499 -0
vn -0.00183998 -0.0253333 0
vn 0.00183998 -0.0253333 -0
vn -0.000920598 -0.0253833 0
vn 0.000920598 -0.0253833 -0
vn 0.000767182 -0.0253884 -0
vn -0.000767182 -0.0253884 0
vn -0.000460375 -0.0253958 0
vn 0.000460375 -0.0253958 -0
vn 0 0.00838291 -0.0239768
vn 0 0.00859025 -0.0239033
vn 0.00457878 0.0249839 0
vn 0.00503085 0.0248968 0
vn -0.00503085 0.0248968 0
vn -0.00457878 0.0249839 0
vn 0.00367027 0.0251334 0
vn -0.00367027 0.0251334 0
vn 0.00275692 0.0252499 0
vn -0.00275692 0.0252499 0
vn 0.00183998 0.0253333 0
vn -0.00183998 0.0253333 0
vn 0.000920598 0.0253833 0
vn -0.000920598 0.0253833 0
vn -0.000767182 0.0253884 0
vn 0.000767182 0.0253884 0
vn 0.000460375 0.0253958 0
vn -0.000460375 0.0253958 0

# Mesh 'mesh1_mesh1-geometry' with 164 faces
g mesh1_mesh1-geometry
usemtl material_0_24
f  1//1 2//1 3//1
f  2//1 1//1 4//1
f  3//2 2//2 1//2
f  4//2 1//2 2//2
f  3//3 5//3 2//3
f  4//4 2//4 6//4
f  7//3 2//3 5//3
f  7//4 6//4 2//4
f  7//1 5//1 8//1
f  9//4 6//4 7//4
f  10//1 8//1 5//1
f  8//4 9//4 7//4
f  8//5 7//5 11//5
f  12//5 11//5 7//5
f  13//1 8//1 10//1
f  14//1 10//1 5//1
f  9//1 8//1 13//1
f  12//1 15//1 11//1
f  10//1 16//1 13//1
f  17//1 10//1 14//1
f  18//1 9//1 13//1
f  19//1 11//1 15//1
f  20//1 13//1 16//1
f  10//1 17//1 16//1
f  10//6 21//6 16//6
f  16//3 21//3 10//3
f  14//3 22//3 17//3
f  9//5 23//5 18//5
f  24//1 18//1 13//1
f  17//3 25//3 15//3
f  15//7 26//7 17//7
f  20//1 27//1 13//1
f  20//3 28//3 13//3
f  13//6 28//6 20//6
f  20//1 16//1 29//1
f  21//4 20//4 16//4
f  16//8 20//8 21//8
f  29//1 16//1 17//1
f  21//6 10//6 30//6
f  30//3 10//3 21//3
f  25//3 17//3 22//3
f  24//5 18//5 23//5
f  31//5 23//5 9//5
f  24//4 27//4 18//4
f  27//1 24//1 13//1
f  32//3 15//3 25//3
f  17//4 33//4 25//4
f  25//8 33//8 17//8
f  17//7 26//7 29//7
f  34//7 26//7 15//7
f  27//1 20//1 35//1
f  28//3 20//3 36//3
f  36//6 20//6 28//6
f  37//1 20//1 29//1
f  20//4 21//4 36//4
f  36//8 21//8 20//8
f  33//4 17//4 29//4
f  29//8 17//8 33//8
f  30//9 21//9 38//10
f  33//1 22//1 25//1
f  25//2 22//2 33//2
f  39//5 23//5 31//5
f  18//4 27//4 40//4
f  27//5 24//5 41//5
f  42//3 15//3 32//3
f  29//7 26//7 37//7
f  34//6 43//6 26//6
f  42//7 34//7 15//7
f  35//1 20//1 37//1
f  44//1 27//1 35//1
f  36//11 28//11 45//11
f  21//1 45//1 36//1
f  36//2 45//2 21//2
f  46//9 38//10 21//9
f  22//1 33//1 47//1
f  47//2 33//2 22//2
f  48//5 39//5 31//5
f  49//4 40//4 27//4
f  50//5 41//5 24//5
f  32//8 51//8 42//8
f  35//7 37//7 26//7
f  26//6 43//6 35//6
f  34//8 42//8 43//8
f  52//4 37//4 35//4
f  35//8 37//8 52//8
f  44//6 53//6 27//6
f  54//1 44//1 35//1
f  45//11 28//11 55//12
f  45//1 21//1 46//1
f  46//2 21//2 45//2
f  56//10 38//10 46//9
f  57//5 39//5 48//5
f  40//1 53//1 49//1
f  49//2 53//2 40//2
f  49//6 27//6 53//6
f  50//1 58//1 41//1
f  43//8 42//8 51//8
f  52//6 35//6 43//6
f  37//4 52//4 59//4
f  59//8 52//8 37//8
f  35//6 52//6 54//6
f  60//12 55//12 28//11
f  45//4 56//4 55//4
f  55//8 56//8 45//8
f  56//4 45//4 46//4
f  46//8 45//8 56//8
f  38//10 56//10 61//13
f  62//5 57//5 48//5
f  53//1 40//1 63//1
f  63//2 40//2 53//2
f  26//1 41//1 58//1
f  52//1 64//1 59//1
f  59//2 64//2 52//2
f  65//6 54//6 52//6
f  55//12 60//12 66//14
f  55//4 56//4 67//4
f  67//8 56//8 55//8
f  67//13 61//13 56//10
f  68//5 57//5 62//5
f  64//1 52//1 65//1
f  65//2 52//2 64//2
f  69//14 66//14 60//12
f  55//4 67//4 66//4
f  66//8 67//8 55//8
f  61//13 67//13 70//15
f  71//5 68//5 62//5
f  66//14 69//14 72//16
f  66//4 67//4 73//4
f  73//8 67//8 66//8
f  73//15 70//15 67//13
f  74//5 68//5 71//5
f  75//16 72//16 69//14
f  66//4 73//4 72//4
f  72//8 73//8 66//8
f  70//15 73//15 76//17
f  77//5 74//5 71//5
f  72//16 75//16 78//18
f  72//4 73//4 79//4
f  79//8 73//8 72//8
f  79//17 76//17 73//15
f  80//5 74//5 77//5
f  81//18 78//18 75//16
f  72//4 79//4 78//4
f  78//8 79//8 72//8
f  76//17 79//17 82//19
f  78//18 81//18 83//20
f  78//4 79//4 84//4
f  84//8 79//8 78//8
f  84//19 82//19 79//17
f  83//20 81//18 85//21
f  78//4 84//4 83//4
f  83//8 84//8 78//8
f  86//22 82//19 84//19
f  87//20 85//21 81//18
f  83//20 85//21 88//1
f  83//4 84//4 88//4
f  88//8 84//8 83//8
f  82//19 86//22 89//23
f  86//22 84//19 90//1
f  85//21 87//20 90//24
f  90//1 88//1 85//21
f  88//1 90//1 84//19
f  90//23 89//23 86//22
f  89//24 90//24 87//20

# Mesh 'mesh1_mesh1-geometry' with 19 faces
g mesh1_mesh1-geometry
usemtl material_2_24
f  2//6 5//6 3//6
f  5//6 2//6 7//6
f  11//25 7//25 8//25
f  7//25 11//25 12//25
f  11//2 15//2 12//2
f  15//2 11//2 19//2
f  17//6 22//6 14//6
f  22//6 17//6 25//6
f  41//25 24//25 27//25
f  24//25 41//25 50//25
f  42//4 51//4 32//4
f  43//4 42//4 34//4
f  27//3 53//3 44//3
f  53//3 27//3 49//3
f  41//2 58//2 50//2
f  51//4 42//4 43//4
f  54//3 52//3 35//3
f  58//2 41//2 26//2
f  52//3 54//3 65//3

# Mesh 'mesh1_mesh1-geometry' with 67 faces
g mesh1_mesh1-geometry
usemtl material_1_24
f  6//8 2//8 4//8
f  2//8 6//8 7//8
f  8//2 5//2 7//2
f  12//6 5//6 7//6
f  7//3 5//3 12//3
f  7//8 6//8 9//8
f  5//2 8//2 10//2
f  7//8 9//8 8//8
f  5//6 12//6 15//6
f  15//3 12//3 5//3
f  10//2 8//2 13//2
f  5//2 10//2 14//2
f  13//2 8//2 9//2
f  5//6 15//6 14//6
f  14//3 15//3 5//3
f  13//2 16//2 10//2
f  14//2 10//2 17//2
f  13//2 9//2 18//2
f  14//6 15//6 17//6
f  17//3 15//3 14//3
f  16//2 13//2 20//2
f  16//2 17//2 10//2
f  18//25 23//25 9//25
f  13//2 18//2 24//2
f  15//6 25//6 17//6
f  17//26 26//26 15//26
f  13//2 27//2 20//2
f  29//2 16//2 20//2
f  17//2 16//2 29//2
f  23//25 18//25 24//25
f  9//25 23//25 31//25
f  18//8 27//8 24//8
f  13//2 24//2 27//2
f  25//6 15//6 32//6
f  29//26 26//26 17//26
f  15//26 26//26 34//26
f  35//2 20//2 27//2
f  29//2 20//2 37//2
f  31//25 23//25 39//25
f  40//8 27//8 18//8
f  32//6 15//6 42//6
f  37//26 26//26 29//26
f  26//3 43//3 34//3
f  15//26 34//26 42//26
f  37//2 20//2 35//2
f  35//2 27//2 44//2
f  31//25 39//25 48//25
f  27//8 40//8 49//8
f  44//3 41//3 27//3
f  27//6 41//6 44//6
f  26//26 37//26 35//26
f  35//3 43//3 26//3
f  35//2 44//2 54//2
f  48//25 39//25 57//25
f  41//3 44//3 26//3
f  26//6 44//6 41//6
f  26//3 54//3 35//3
f  35//6 54//6 26//6
f  43//3 35//3 52//3
f  26//3 44//3 54//3
f  54//6 44//6 26//6
f  48//25 57//25 62//25
f  62//25 57//25 68//25
f  62//25 68//25 71//25
f  71//25 68//25 74//25
f  71//25 74//25 77//25
f  77//25 74//25 80//25

# Mesh 'mesh1_mesh1-geometry' with 32 faces
g mesh1_mesh1-geometry
usemtl material_3_24
f  38//27 21//28 30//28
f  45//29 28//29 36//29
f  21//28 38//27 46//28
f  55//30 28//29 45//29
f  46//28 38//27 56//27
f  28//29 55//30 60//30
f  61//31 56//27 38//27
f  66//32 60//30 55//30
f  56//27 61//31 67//31
f  60//30 66//32 69//32
f  70//33 67//31 61//31
f  72//34 69//32 66//32
f  67//31 70//33 73//33
f  69//32 72//34 75//34
f  76//35 73//33 70//33
f  78//36 75//34 72//34
f  73//33 76//35 79//35
f  75//34 78//36 81//36
f  82//37 79//35 76//35
f  83//38 81//36 78//36
f  79//35 82//37 84//37
f  85//39 81//36 83//38
f  84//37 82//37 86//40
f  81//36 85//39 87//38
f  88//2 85//39 83//38
f  89//41 86//40 82//37
f  90//2 84//37 86//40
f  90//42 87//38 85//39
f  85//39 88//2 90//2
f  84//37 90//2 88//2
f  86//40 89//41 90//41
f  87//38 90//42 89//42

# Mesh 'mesh2_mesh2-geometry' with 2 faces
g mesh2_mesh2-geometry
usemtl material_0_0
l  3 2
l  2 4

# Mesh 'mesh3_mesh3-geometry' with 2 faces
g mesh3_mesh3-geometry
usemtl material_0_0
l  40 49
l  49 53

# Mesh 'mesh4_mesh4-geometry' with 2 faces
g mesh4_mesh4-geometry
usemtl material_0_0
l  52 59
l  65 52

# Mesh 'mesh5_mesh5-geometry' with 2 faces
g mesh5_mesh5-geometry
usemtl material_0_0
l  25 22
l  33 25

# Mesh 'mesh6_mesh6-geometry' with 1 faces
g mesh6_mesh6-geometry
usemtl material_0_0
l  47 91

# Mesh 'mesh7_mesh7-geometry' with 1 faces
g mesh7_mesh7-geometry
usemtl material_0_0
l  1 92

# Mesh 'mesh8_mesh8-geometry' with 1 faces
g mesh8_mesh8-geometry
usemtl material_0_0
l  64 93

# Mesh 'mesh9_mesh9-geometry' with 1 faces
g mesh9_mesh9-geometry
usemtl material_0_0
l  63 94

# Mesh 'mesh10_mesh10-geometry' with 5 faces
g mesh10_mesh10-geometry
usemtl material_0_0
l  36 28
l  21 36
l  36 20
l  21 30
l  21 16

# Mesh 'mesh11_mesh11-geometry' with 2 faces
g mesh11_mesh11-geometry
usemtl material_0_0
l  84 88
l  88 83

# Mesh 'mesh12_mesh12-geometry' with 1 faces
g mesh12_mesh12-geometry
usemtl material_0_0
l  46 45

# Mesh 'mesh13_mesh13-geometry' with 1 faces
g mesh13_mesh13-geometry
usemtl material_0_0
l  95 96

