# File produced by Open Asset Import Library (http://www.assimp.sf.net)
# (assimp v3.2.202087883)

mtllib model_normalized.mtl

# 94 vertex positions
v -0.187069 0.242265 0.168716
v 0.186948 0.224314 0.168716
v -0.187069 0.224314 0.168716
v 0.186948 0.242265 0.168716
v -0.152301 0.137304 0.168716
v -0.187069 0.242265 0.130231
v 0.186948 0.242265 0.130231
v 0.152171 0.137304 0.168716
v -0.152301 -0.129807 0.168716
v 0.186948 0.242265 -0.185349
v 0.186948 0.224314 -0.185349
v 0.186948 0.137304 -0.155611
v -0.187069 0.242265 -0.185349
v 0.152171 -0.129807 0.168716
v 0.152171 0.137304 0.138978
v -0.152301 -0.147301 0.168716
v -0.152301 -0.129807 0.159970
v -0.187069 0.224314 -0.185349
v -0.187069 0.137304 -0.155611
v -0.152301 0.137304 -0.185349
v 0.186948 -0.387497 -0.185349
v 0.186948 0.137304 0.138978
v 0.152171 -0.147301 0.168716
v 0.152171 -0.129807 0.159970
v 0.152171 -0.147301 0.138978
v -0.187069 -0.387497 0.168716
v -0.152301 0.137304 0.138978
v -0.187069 -0.387497 -0.185349
v -0.187069 0.137304 0.138978
v 0.152171 0.137304 -0.185349
v -0.152301 -0.129807 -0.185349
v 0.186948 -0.387497 -0.173104
v 0.169665 -0.387497 -0.185349
v 0.186948 -0.129807 0.138978
v 0.169665 -0.387497 0.168716
v 0.178201 -0.129807 0.138978
v -0.169794 -0.387497 0.168716
v -0.187069 -0.387497 0.156471
v -0.152301 -0.147301 0.159970
v -0.187069 -0.387497 -0.173104
v -0.152301 -0.147301 -0.185349
v -0.187069 -0.129807 0.138978
v -0.152301 0.137304 -0.155611
v 0.152171 -0.129807 -0.185349
v -0.152301 -0.129807 -0.173594
v 0.186948 -0.147301 -0.155611
v 0.152171 -0.147301 -0.185349
v 0.186948 -0.147301 0.138978
v 0.152171 0.137304 -0.155611
v 0.186948 -0.387497 0.168716
v 0.152171 -0.147301 0.159970
v 0.178201 -0.147301 0.138978
v -0.187069 -0.147301 0.138978
v -0.152301 -0.147301 0.138978
v -0.187069 -0.147301 -0.155611
v -0.169680 -0.387497 -0.185349
v -0.178322 -0.129807 -0.155611
v 0.152171 -0.129807 -0.173594
v 0.186948 -0.129807 -0.155611
v 0.178201 -0.147301 -0.155611
v 0.152171 -0.147301 -0.173594
v 0.186948 -0.387497 0.156471
v 0.178201 -0.129807 -0.155611
v 0.169665 -0.387497 0.156471
v -0.169794 -0.387497 0.156471
v -0.178322 -0.147301 0.138978
v -0.187069 -0.129807 -0.155611
v -0.152301 -0.147301 -0.155611
v -0.169680 -0.387497 -0.173104
v -0.178322 -0.129807 0.138978
v -0.178322 -0.147301 -0.155611
v -0.152301 -0.147301 -0.173594
v 0.152171 -0.147301 -0.155611
v 0.169665 -0.387497 -0.173104
v 0.186948 0.469678 0.168716
v -0.187069 0.373465 0.130231
v -0.187069 0.469678 0.168716
v -0.187069 0.294745 -0.185349
v -0.187069 0.469678 0.130231
v -0.160960 0.294745 0.130231
v -0.187069 0.373465 -0.085287
v 0.162239 0.294745 0.130231
v 0.186948 0.373465 0.130231
v 0.186948 0.294745 -0.085287
v 0.186948 0.294745 -0.185349
v -0.187069 0.294745 -0.085287
v -0.160960 0.373465 0.130231
v 0.186948 0.469678 0.130231
v -0.160960 0.294745 -0.085287
v 0.162239 0.373465 0.130231
v -0.160960 0.373465 -0.085287
v 0.186948 0.373465 -0.085287
v 0.162239 0.294745 -0.085287
v 0.162239 0.373465 -0.085287

# 0 UV coordinates

# 76 vertex normals
vn 0.0178728 -0 -0.0158053
vn -0.0178728 0 -0.0158053
vn -0.0145931 -0.0146647 0.0129049
vn 0.0178728 0 0.0158053
vn 0.0145931 0.0146647 -0.0129049
vn 0.025276 0 0
vn -0.025276 0 0
vn 0.0145931 -0.0146647 0.0129049
vn -0.0145931 0.0146647 -0.0129049
vn -0.0145931 0.0146647 0.0129049
vn 0.0145931 -0.0146647 -0.0129049
vn -0.0178728 0 0.0158053
vn 0.0145931 0.0146647 0.0129049
vn -0.0145931 -0.0146647 -0.0129049
vn -0.0149218 -0.0139376 0.0132309
vn 0.0149218 0.0139376 -0.0132309
vn 0.0149218 -0.0139376 0.0132309
vn -0.0149218 0.0139376 -0.0132309
vn 0.0178491 0.00139619 0.0157784
vn -0.0178491 -0.00139619 -0.0157784
vn 0.0178728 0.00148135 -0.0157514
vn -0.0178728 -0.00148135 0.0157514
vn 0.0178252 0.001311 -0.0158053
vn -0.0178252 -0.001311 0.0158053
vn 0.0142125 0.0153657 0.0126019
vn -0.0142125 -0.0153657 -0.0126019
vn -0.0178252 0.001311 0.0158053
vn 0.0178252 -0.001311 -0.0158053
vn 0.0178728 0.00148135 0.0157514
vn -0.0178728 -0.00148135 -0.0157514
vn -0.0208752 -0.00973618 -0.00924246
vn 0.0208752 0.00973618 0.00924246
vn -0.0149199 -0.0139421 -0.0132288
vn 0.0149199 0.0139421 0.0132288
vn 0.0150116 -0.0138411 -0.0132298
vn -0.0150116 0.0138411 0.0132298
vn 0.0149218 -0.0139376 -0.0132309
vn -0.0149218 0.0139376 0.0132309
vn 0.0150116 -0.0138411 0.0132298
vn -0.0150116 0.0138411 -0.0132298
vn 0.0208752 -0.00973618 -0.00924246
vn -0.0208752 0.00973618 0.00924246
vn -0.0104698 -0.00965342 0.0184858
vn 0.0104698 0.00965342 -0.0184858
vn -0.0178491 0.00139619 0.0157784
vn 0.0178491 -0.00139619 -0.0157784
vn -0.0178257 0.00130299 -0.0158053
vn 0.0178257 -0.00130299 0.0158053
vn 0 0 -0.022352
vn 0 0 0.022352
vn -0.0104698 -0.00965342 -0.0184858
vn 0.0104698 0.00965342 0.0184858
vn 0.0142077 0.015455 0.0125213
vn -0.0142077 -0.015455 -0.0125213
vn 0.0138288 0.0161001 0.01222
vn -0.0138288 -0.0161001 -0.01222
vn -0.0177717 0.00278399 0.0157042
vn 0.0177717 -0.00278399 -0.0157042
vn -0.0178494 0.0013922 -0.0157784
vn 0.0178494 -0.0013922 0.0157784
vn -0.0177726 0.00277607 -0.0157045
vn 0.0177726 -0.00277607 0.0157045
vn -0.0178728 -0.0179605 0
vn -0.0178728 0.0179605 0
vn 0 0.00104838 -0.022333
vn 0 -0.00104838 0.022333
vn -0.0208738 -0.00974004 -0.0092417
vn 0.0178491 0.00139619 -0.0157784
vn -0.0178491 -0.00139619 0.0157784
vn 0.0177717 0.00278399 -0.0157042
vn -0.0177717 -0.00278399 0.0157042
vn 0.0208738 0.00974004 0.0092417
vn 0.0178728 0.0179605 0
vn 0.0178728 -0.0179605 0
vn 0 -0.0254 0
vn 0 0.0254 0

# Mesh 'mesh1_mesh1-geometry' with 272 faces
g mesh1_mesh1-geometry
usemtl material_0_24
f  1//1 2//2 3//1
f  2//2 1//1 4//2
f  5//3 2//4 3//4
f  3//2 2//2 5//5
f  3//1 6//6 1//1
f  7//7 2//2 4//2
f  8//8 2//4 5//3
f  5//5 2//2 8//9
f  3//4 9//10 5//3
f  5//5 9//11 3//2
f  2//2 10//2 11//2
f  12//11 11//1 2//4
f  2//2 11//12 12//10
f  3//1 13//1 6//6
f  10//2 2//2 7//7
f  14//13 2//4 8//8
f  8//9 2//2 14//14
f  5//3 15//8 8//8
f  8//9 15//9 5//5
f  3//4 16//15 9//10
f  9//11 16//16 3//2
f  5//3 17//9 9//10
f  9//11 17//8 5//5
f  13//1 3//1 18//1
f  19//11 18//1 3//4
f  3//2 18//12 19//10
f  18//12 11//4 13//12
f  11//1 20//14 18//1
f  18//12 20//13 11//12
f  10//4 13//12 11//4
f  11//1 12//11 21//1
f  21//12 12//10 11//12
f  12//11 2//4 22//8
f  22//9 2//2 12//10
f  23//17 2//4 14//13
f  14//14 2//2 23//18
f  24//5 8//8 14//13
f  14//14 8//9 24//3
f  20//14 15//8 5//3
f  5//5 15//9 20//13
f  8//8 25//19 15//8
f  15//9 25//20 8//9
f  26//4 16//15 3//4
f  3//2 16//16 26//2
f  9//10 16//15 14//13
f  14//14 16//16 9//11
f  27//3 17//9 5//3
f  5//5 17//8 27//5
f  14//13 17//9 9//10
f  9//11 17//8 14//14
f  18//1 19//11 28//1
f  28//12 19//10 18//12
f  19//11 3//4 29//8
f  29//9 3//2 19//10
f  11//1 30//11 20//14
f  20//13 30//10 11//12
f  31//9 18//1 20//14
f  20//13 18//12 31//8
f  21//1 12//11 32//21
f  32//22 12//10 21//12
f  33//23 11//1 21//1
f  21//12 11//12 33//24
f  22//8 2//4 34//13
f  34//14 2//2 22//9
f  15//8 12//11 22//8
f  22//9 12//10 15//9
f  35//25 2//4 23//17
f  23//18 2//2 35//26
f  23//17 14//13 16//15
f  16//16 14//14 23//18
f  25//19 8//8 24//5
f  24//3 8//9 25//20
f  17//9 14//13 24//5
f  24//3 14//14 17//8
f  30//11 15//8 20//14
f  20//13 15//9 30//10
f  20//14 5//3 27//3
f  27//5 5//5 20//13
f  25//19 36//10 15//8
f  15//9 36//11 25//20
f  16//15 26//4 37//27
f  37//28 26//2 16//16
f  38//29 3//4 26//4
f  26//2 3//2 38//30
f  27//3 39//31 17//9
f  17//8 39//32 27//5
f  28//1 19//11 40//21
f  40//22 19//10 28//12
f  41//33 28//1 18//1
f  18//12 28//12 41//34
f  29//8 3//4 42//4
f  42//2 3//2 29//9
f  43//14 29//8 19//11
f  19//10 29//9 43//13
f  11//1 44//5 30//11
f  30//10 44//3 11//12
f  41//33 18//1 31//9
f  31//8 18//12 41//34
f  45//9 20//14 31//9
f  31//8 20//13 45//8
f  12//11 46//35 32//21
f  32//22 46//36 12//10
f  11//1 33//23 47//37
f  47//38 33//24 11//12
f  34//13 2//4 48//39
f  48//40 2//2 34//14
f  22//8 36//10 34//13
f  34//14 36//11 22//9
f  12//11 15//8 49//11
f  49//10 15//9 12//10
f  15//8 36//10 22//8
f  22//9 36//11 15//9
f  2//4 35//25 50//13
f  50//14 35//26 2//2
f  35//25 51//41 23//17
f  23//18 51//42 35//26
f  16//15 51//41 23//17
f  23//18 51//42 16//16
f  51//41 25//19 24//5
f  24//3 25//20 51//42
f  51//41 17//9 24//5
f  24//3 17//8 51//42
f  49//11 15//8 30//11
f  30//10 15//9 49//10
f  20//14 27//3 43//14
f  43//13 27//5 20//13
f  36//10 25//19 52//43
f  52//44 25//20 36//11
f  39//31 37//27 16//15
f  16//16 37//28 39//32
f  53//29 3//4 38//29
f  38//30 3//2 53//30
f  39//31 27//3 54//45
f  54//46 27//5 39//32
f  17//9 51//41 39//31
f  39//32 51//42 17//8
f  19//11 55//21 40//21
f  40//22 55//22 19//10
f  28//1 41//33 56//47
f  56//48 41//34 28//12
f  42//4 3//4 53//29
f  53//30 3//2 42//2
f  42//4 27//3 29//8
f  29//9 27//5 42//2
f  29//8 43//14 27//3
f  27//5 43//13 29//9
f  43//14 57//49 19//11
f  19//10 57//50 43//13
f  11//1 47//37 44//5
f  44//3 47//38 11//12
f  49//11 44//5 30//11
f  30//10 44//3 49//10
f  41//33 31//9 47//37
f  47//38 31//8 41//34
f  20//14 45//9 43//14
f  43//13 45//8 20//13
f  58//5 31//9 45//9
f  46//35 12//11 59//5
f  59//3 12//10 46//36
f  46//35 32//21 60//51
f  60//52 32//22 46//36
f  61//41 33//23 47//37
f  47//38 33//24 61//42
f  48//39 2//4 62//53
f  62//54 2//2 48//40
f  46//35 34//13 48//39
f  48//40 34//14 46//36
f  34//13 63//9 36//10
f  36//11 63//8 34//14
f  59//5 49//11 12//11
f  12//10 49//10 59//3
f  62//53 2//4 50//13
f  50//14 2//2 62//54
f  64//55 51//41 35//25
f  35//26 51//42 64//56
f  51//41 16//15 39//31
f  39//32 16//16 51//42
f  51//41 64//55 25//19
f  25//20 64//56 51//42
f  64//55 52//43 25//19
f  25//20 52//44 64//56
f  63//9 52//43 36//10
f  36//11 52//44 63//8
f  39//31 65//57 37//27
f  37//28 65//58 39//32
f  38//29 54//45 53//29
f  53//30 54//46 38//30
f  27//3 66//50 54//45
f  54//46 66//49 27//5
f  65//57 39//31 54//45
f  54//46 39//32 65//58
f  55//21 19//11 67//1
f  67//12 19//10 55//22
f  68//59 40//21 55//21
f  55//22 40//22 68//60
f  69//61 41//33 56//47
f  56//48 41//34 69//62
f  53//9 42//63 55//64
f  70//50 27//3 42//4
f  42//2 27//5 70//49
f  43//14 71//65 57//49
f  57//50 71//66 43//13
f  19//11 57//49 67//1
f  67//12 57//50 19//10
f  44//5 47//37 31//9
f  31//8 47//38 44//3
f  44//5 49//11 58//5
f  58//3 49//10 44//3
f  47//37 72//67 41//33
f  43//14 45//9 68//59
f  68//60 45//8 43//13
f  31//9 58//5 44//5
f  61//41 45//9 58//5
f  58//3 45//8 61//42
f  46//35 59//5 34//13
f  34//14 59//3 46//36
f  32//21 73//68 60//51
f  60//52 73//69 32//22
f  46//35 52//43 60//51
f  60//52 52//44 46//36
f  33//23 61//41 74//70
f  74//71 61//42 33//24
f  72//67 47//37 61//41
f  48//39 64//55 62//53
f  62//54 64//56 48//40
f  52//43 46//35 48//39
f  48//40 46//36 52//44
f  63//9 34//13 59//5
f  59//3 34//14 63//8
f  63//9 49//11 59//5
f  59//3 49//10 63//8
f  64//55 48//39 52//43
f  52//44 48//40 64//56
f  52//43 63//9 60//51
f  60//52 63//8 52//44
f  54//45 38//29 65//57
f  65//58 38//30 54//46
f  66//50 27//3 70//50
f  70//49 27//5 66//49
f  67//63 55//64 42//63
f  40//21 68//59 69//61
f  69//62 68//60 40//22
f  68//59 55//21 71//65
f  71//66 55//22 68//60
f  41//33 69//61 72//67
f  72//72 69//62 41//34
f  70//73 67//73 42//73
f  71//74 53//8 55//74
f  71//65 43//14 68//59
f  68//60 43//13 71//66
f  70//73 71//74 57//73
f  67//73 70//73 57//73
f  58//5 49//11 61//41
f  61//42 49//10 58//3
f  68//59 45//9 72//67
f  72//72 45//8 68//60
f  45//9 61//41 72//67
f  72//72 61//42 45//8
f  73//68 32//21 74//70
f  74//71 32//22 73//69
f  73//68 63//9 60//51
f  60//52 63//8 73//69
f  74//70 61//41 73//68
f  73//69 61//42 74//71
f  63//9 73//68 49//11
f  49//10 73//69 63//8
f  71//74 70//73 66//8
f  72//67 69//61 68//59
f  68//60 69//62 72//72
f  53//8 71//74 66//8
f  61//41 49//11 73//68
f  73//69 49//10 61//42

# Mesh 'mesh1_mesh1-geometry' with 10 faces
g mesh1_mesh1-geometry
usemtl material_1_24
f  3//12 2//4 1//12
f  4//4 1//12 2//4
f  1//12 6//7 3//12
f  4//4 2//4 7//6
f  11//4 10//4 2//4
f  6//7 13//12 3//12
f  7//6 2//4 10//4
f  18//12 3//12 13//12
f  13//1 11//2 18//1
f  11//2 13//1 10//2

# Mesh 'mesh1_mesh1-geometry' with 82 faces
g mesh1_mesh1-geometry
usemtl material_3_24
f  3//75 11//75 2//75
f  2//76 11//76 3//76
f  1//75 6//75 4//75
f  4//2 1//1 75//14
f  11//75 3//75 18//75
f  18//76 3//76 11//76
f  6//6 76//4 1//1
f  7//75 4//75 6//75
f  77//11 75//14 1//1
f  4//2 75//14 7//7
f  6//75 13//75 7//75
f  13//4 78//8 6//6
f  79//8 1//1 76//4
f  76//50 6//50 80//50
f  76//74 6//6 81//8
f  6//50 7//50 82//50
f  77//11 79//8 75//14
f  77//11 1//1 79//8
f  7//7 75//14 83//12
f  10//75 7//75 13//75
f  7//7 84//3 10//12
f  10//12 85//3 13//4
f  86//8 6//6 78//8
f  78//8 13//4 85//3
f  76//4 87//50 79//8
f  82//50 80//50 6//50
f  87//50 76//50 80//50
f  81//8 6//6 86//8
f  76//74 81//8 87//63
f  83//50 82//50 7//50
f  88//3 75//14 79//8
f  88//3 83//12 75//14
f  83//63 84//3 7//7
f  85//3 10//12 84//3
f  86//8 78//8 89//3
f  85//3 84//3 78//8
f  88//3 79//8 87//50
f  82//50 90//50 80//50
f  89//3 82//74 80//63
f  87//50 80//50 90//50
f  87//63 91//3 80//63
f  81//8 86//8 91//3
f  91//3 87//63 81//8
f  90//50 82//50 83//50
f  88//3 87//50 83//12
f  92//3 84//3 83//63
f  45//8 31//8 58//3
f  89//3 78//8 82//74
f  89//3 91//3 86//8
f  93//8 78//8 84//3
f  90//74 82//74 94//8
f  89//3 80//63 91//3
f  83//12 87//50 90//50
f  90//74 94//8 83//63
f  84//3 92//3 93//8
f  92//3 83//63 94//8
f  50//13 64//55 35//25
f  35//26 64//56 50//14
f  53//8 70//50 42//50
f  42//49 70//49 53//9
f  55//74 42//73 53//8
f  41//34 72//72 47//38
f  44//3 58//3 31//8
f  61//42 47//38 72//72
f  82//74 78//8 93//8
f  93//8 94//8 82//74
f  94//8 93//8 92//3
f  64//55 50//13 62//53
f  62//54 50//14 64//56
f  67//49 71//49 55//49
f  55//50 71//50 67//50
f  42//73 55//74 67//73
f  70//50 53//8 66//8
f  66//9 53//9 70//49
f  42//63 67//63 70//63
f  55//64 53//9 71//64
f  57//63 71//64 70//63
f  71//49 67//49 57//49
f  57//50 67//50 71//50
f  57//63 70//63 67//63
f  66//9 70//63 71//64
f  66//9 71//64 53//9

# Mesh 'mesh1_mesh1-geometry' with 10 faces
g mesh1_mesh1-geometry
usemtl material_2_24
f  4//76 6//76 1//76
f  6//76 4//76 7//76
f  7//76 13//76 6//76
f  80//49 6//49 76//49
f  82//49 7//49 6//49
f  13//76 7//76 10//76
f  6//49 80//49 82//49
f  80//49 76//49 87//49
f  7//49 82//49 83//49
f  83//49 82//49 90//49

# Mesh 'mesh1_mesh1-geometry' with 44 faces
g mesh1_mesh1-geometry
usemtl material_4_24
f  75//13 1//12 4//4
f  1//12 76//2 6//7
f  1//12 75//13 77//10
f  7//6 75//13 4//4
f  6//7 78//9 13//2
f  76//2 1//12 79//9
f  81//9 6//7 76//64
f  75//13 79//9 77//10
f  79//9 1//12 77//10
f  83//1 75//13 7//6
f  10//1 84//5 7//6
f  13//2 85//5 10//1
f  78//9 6//7 86//9
f  85//5 13//2 78//9
f  79//9 87//49 76//2
f  86//9 6//7 81//9
f  87//73 81//9 76//64
f  79//9 75//13 88//5
f  75//13 83//1 88//5
f  7//6 84//5 83//73
f  84//5 10//1 85//5
f  89//5 78//9 86//9
f  78//9 84//5 85//5
f  87//49 79//9 88//5
f  80//49 90//49 82//49
f  80//73 82//64 89//5
f  90//49 80//49 87//49
f  80//73 91//5 87//73
f  91//5 86//9 81//9
f  81//9 87//73 91//5
f  83//1 87//49 88//5
f  83//73 84//5 92//5
f  82//64 78//9 89//5
f  86//9 91//5 89//5
f  84//5 78//9 93//9
f  94//9 82//64 90//64
f  91//5 80//73 89//5
f  90//49 87//49 83//1
f  83//73 94//9 90//64
f  93//9 92//5 84//5
f  94//9 83//73 92//5
f  93//9 78//9 82//64
f  82//64 94//9 93//9
f  92//5 93//9 94//9

