# File produced by Open Asset Import Library (http://www.assimp.sf.net)
# (assimp v3.2.202087883)

mtllib model_normalized.mtl

# 156 vertex positions
v -0.423000 -0.204570 0.109817
v 0.443274 -0.204570 0.202840
v -0.423000 -0.204570 0.202840
v 0.443274 -0.204570 0.109817
v -0.423000 0.214032 0.202840
v -0.145021 -0.204570 -0.069818
v 0.443274 0.214032 0.109817
v 0.443274 0.214032 0.202840
v -0.423000 0.214032 0.109817
v -0.269686 -0.170359 0.010745
v 0.110791 -0.204570 -0.069818
v 0.435226 0.001617 0.105468
v -0.405320 -0.025926 0.098391
v -0.236680 -0.162940 -0.010585
v -0.303178 -0.167354 0.032389
v -0.005725 -0.175331 -0.069818
v 0.354490 -0.118502 0.061847
v 0.426308 -0.036522 0.100652
v 0.435153 0.041078 0.105429
v 0.110791 0.214032 -0.069818
v -0.402793 0.013952 0.096759
v -0.399085 -0.065225 0.094364
v -0.206411 -0.145603 -0.030145
v -0.248134 -0.076605 -0.003180
v -0.334875 -0.154130 0.052874
v -0.276846 -0.085763 0.015372
v 0.013905 -0.167200 -0.069818
v -0.026793 -0.178105 -0.069818
v 0.384521 -0.098699 0.078072
v 0.320971 -0.128796 0.043739
v 0.409013 -0.070738 0.091307
v 0.426098 0.079173 0.100535
v 0.320413 0.170940 0.043437
v -0.145021 0.214032 -0.069818
v -0.391687 0.051695 0.089582
v -0.384527 -0.101264 0.084955
v -0.180939 -0.119530 -0.046604
v -0.221380 -0.035094 -0.020468
v -0.236249 -0.065740 -0.010864
v -0.261986 -0.083434 0.005769
v -0.362627 -0.131588 0.070803
v -0.305559 -0.076605 0.033924
v -0.291706 -0.083434 0.024975
v 0.030760 -0.154265 -0.069818
v 0.013905 -0.026219 -0.069818
v -0.047860 -0.175331 -0.069818
v -0.005725 -0.018088 -0.069818
v 0.384073 0.141150 0.077831
v 0.286252 -0.128880 0.024982
v 0.350352 -0.032413 0.059613
v 0.408674 0.113305 0.091122
v 0.353968 0.160807 0.061566
v 0.285694 0.170857 0.024680
v -0.007154 0.160090 -0.069818
v -0.218817 0.119330 -0.022129
v -0.372753 0.084729 0.077347
v -0.162005 -0.086496 -0.058838
v -0.191066 0.096787 -0.040059
v -0.219430 -0.017400 -0.021732
v -0.227121 -0.051582 -0.016761
v -0.236249 0.030940 -0.010864
v -0.248134 0.041804 -0.003180
v -0.347281 0.110803 0.060889
v -0.317443 -0.065740 0.041609
v -0.261986 0.048634 0.005769
v -0.276846 0.050963 0.015372
v 0.043698 -0.137407 -0.069818
v 0.030760 -0.039155 -0.069818
v -0.067490 -0.167200 -0.069818
v -0.026793 -0.015315 -0.069818
v 0.369835 0.021030 0.070136
v 0.252706 -0.118747 0.006852
v 0.320550 -0.051976 0.043508
v 0.360927 -0.016761 0.065323
v 0.336582 -0.044425 0.052173
v 0.350352 0.074474 0.059613
v 0.303337 0.096611 0.034209
v 0.252184 0.160563 0.006571
v 0.011076 0.152540 -0.069818
v -0.026710 0.162665 -0.069818
v -0.250514 0.132554 -0.001645
v -0.150899 -0.048753 -0.066016
v -0.169165 0.066464 -0.054210
v -0.221380 0.000294 -0.020468
v -0.227121 0.016782 -0.016761
v -0.334262 -0.017400 0.052477
v -0.291706 0.048634 0.024975
v -0.326571 -0.051582 0.047505
v -0.305559 0.041804 0.033924
v 0.051828 -0.117776 -0.069818
v 0.043698 -0.056012 -0.069818
v 0.026732 0.033641 -0.069818
v 0.011076 0.021630 -0.069818
v -0.084346 -0.154265 -0.069818
v -0.047860 -0.018088 -0.069818
v -0.007154 0.014079 -0.069818
v 0.367565 0.001468 0.068912
v 0.222601 -0.099089 -0.009412
v 0.286124 -0.051976 0.024910
v 0.303337 -0.054551 0.034209
v 0.360927 0.058820 0.065323
v 0.336582 0.086485 0.052173
v 0.320550 0.094036 0.043508
v 0.286124 0.094036 0.024910
v 0.270083 0.086485 0.016246
v 0.222153 0.140760 -0.009654
v 0.026732 0.140528 -0.069818
v -0.026710 0.011503 -0.069818
v -0.046276 0.160090 -0.069818
v -0.284006 0.135559 0.020000
v -0.317012 0.128140 0.041329
v -0.148372 -0.008874 -0.067646
v -0.154607 0.030425 -0.063620
v -0.332303 0.000294 0.051212
v -0.332303 -0.035094 0.051212
v -0.317443 0.030940 0.041609
v 0.051828 -0.075643 -0.069818
v 0.038744 0.049294 -0.069818
v -0.097283 -0.137407 -0.069818
v -0.067490 -0.026219 -0.069818
v -0.046276 0.014079 -0.069818
v 0.367565 0.040592 0.068912
v 0.198000 -0.071245 -0.022703
v 0.245747 -0.016761 0.003096
v 0.270083 -0.044425 0.016246
v 0.256313 0.074474 0.008805
v 0.245747 0.058820 0.003096
v 0.197652 0.112797 -0.022888
v 0.038744 0.124875 -0.069818
v -0.064505 0.152540 -0.069818
v -0.326571 0.016782 0.047505
v 0.054602 -0.096710 -0.069818
v 0.171448 0.040444 -0.037050
v 0.048871 0.087084 -0.069818
v 0.046289 0.067523 -0.069818
v -0.105413 -0.117776 -0.069818
v -0.084346 -0.039155 -0.069818
v -0.064505 0.021630 -0.069818
v 0.180576 -0.037112 -0.032116
v 0.256313 -0.032413 0.008805
v 0.239109 0.001468 -0.000493
v 0.239109 0.040592 -0.000493
v 0.180357 0.078581 -0.032234
v 0.046289 0.106646 -0.069818
v -0.080162 0.140528 -0.069818
v -0.108188 -0.096710 -0.069818
v 0.171521 0.000982 -0.037010
v -0.097283 -0.056012 -0.069818
v -0.080162 0.033641 -0.069818
v 0.236839 0.021030 -0.001717
v -0.092165 0.124875 -0.069818
v -0.105413 -0.075643 -0.069818
v -0.092165 0.049294 -0.069818
v -0.099718 0.106646 -0.069818
v -0.102291 0.087084 -0.069818
v -0.099718 0.067523 -0.069818

# 0 UV coordinates

# 10 vertex normals
vn 0 -0.0254 0
vn 0 0.0254 0
vn 0 0 -0.0254
vn 0.0254 -0 0
vn -0.0254 0 0
vn 0.0137859 -0 0.0213333
vn -0.0120738 0 0.0223469
vn 0 -0 0.0254
vn -0.0137859 0 -0.0213333
vn 0.0120738 0 -0.0223469

# Mesh 'mesh1_mesh1-geometry' with 312 faces
g mesh1_mesh1-geometry
usemtl material_0_24
f  1//1 2//1 3//1
f  2//1 1//1 4//1
f  3//2 2//2 1//2
f  4//2 1//2 2//2
f  3//3 5//3 2//3
f  3//4 1//4 5//4
f  4//1 1//1 6//1
f  6//2 1//2 4//2
f  4//5 2//5 7//5
f  8//3 2//3 5//3
f  9//4 5//4 1//4
f  1//6 6//6 10//6
f  4//1 6//1 11//1
f  11//2 6//2 4//2
f  8//5 7//5 2//5
f  7//7 12//7 4//7
f  8//1 5//1 7//1
f  9//1 7//1 5//1
f  1//6 13//6 9//6
f  10//6 6//6 14//6
f  15//6 1//6 10//6
f  6//8 11//8 16//8
f  11//7 4//7 17//7
f  18//7 4//7 12//7
f  12//7 7//7 19//7
f  20//1 7//1 9//1
f  13//6 21//6 9//6
f  13//6 1//6 22//6
f  14//6 6//6 23//6
f  10//6 14//6 24//6
f  25//6 1//6 15//6
f  15//6 10//6 26//6
f  16//8 11//8 27//8
f  28//8 6//8 16//8
f  17//7 4//7 29//7
f  30//7 11//7 17//7
f  31//7 4//7 18//7
f  12//7 19//7 18//7
f  19//7 7//7 32//7
f  20//7 33//7 7//7
f  34//1 20//1 9//1
f  21//6 35//6 9//6
f  13//6 22//6 21//6
f  22//6 1//6 36//6
f  23//6 6//6 37//6
f  14//6 23//6 38//6
f  24//6 14//6 39//6
f  40//6 10//6 24//6
f  41//6 1//6 25//6
f  25//6 15//6 42//6
f  26//6 10//6 40//6
f  43//6 15//6 26//6
f  27//8 11//8 44//8
f  16//8 27//8 45//8
f  46//8 6//8 28//8
f  28//8 16//8 47//8
f  29//7 4//7 31//7
f  17//7 29//7 48//7
f  49//7 11//7 30//7
f  30//7 17//7 50//7
f  31//7 18//7 32//7
f  32//7 18//7 19//7
f  32//7 7//7 51//7
f  52//7 7//7 33//7
f  53//7 33//7 20//7
f  34//8 54//8 20//8
f  9//6 55//6 34//6
f  35//6 56//6 9//6
f  21//6 22//6 35//6
f  36//6 1//6 41//6
f  22//6 36//6 35//6
f  37//6 6//6 57//6
f  23//6 37//6 58//6
f  38//6 23//6 59//6
f  60//6 14//6 38//6
f  39//6 14//6 60//6
f  24//6 39//6 61//6
f  40//6 24//6 62//6
f  41//6 25//6 63//6
f  42//6 15//6 43//6
f  64//6 25//6 42//6
f  26//6 40//6 65//6
f  43//6 26//6 66//6
f  44//8 11//8 67//8
f  27//8 44//8 68//8
f  45//8 27//8 68//8
f  47//8 16//8 45//8
f  69//8 6//8 46//8
f  46//8 28//8 70//8
f  70//8 28//8 47//8
f  29//7 31//7 51//7
f  48//7 29//7 51//7
f  71//7 17//7 48//7
f  72//7 11//7 49//7
f  49//7 30//7 73//7
f  50//7 17//7 74//7
f  75//7 30//7 50//7
f  51//7 31//7 32//7
f  51//7 7//7 48//7
f  48//7 7//7 52//7
f  33//7 76//7 52//7
f  53//7 77//7 33//7
f  78//7 53//7 20//7
f  79//8 20//8 54//8
f  80//8 54//8 34//8
f  58//6 34//6 55//6
f  81//6 55//6 9//6
f  56//6 63//6 9//6
f  35//6 36//6 56//6
f  36//6 41//6 56//6
f  57//6 6//6 82//6
f  37//6 57//6 83//6
f  58//6 37//6 83//6
f  55//6 23//6 58//6
f  59//6 23//6 55//6
f  59//6 84//6 38//6
f  60//6 38//6 84//6
f  39//6 60//6 85//6
f  61//6 39//6 85//6
f  62//6 24//6 61//6
f  65//6 40//6 62//6
f  25//6 86//6 63//6
f  56//6 41//6 63//6
f  42//6 43//6 87//6
f  88//6 25//6 64//6
f  64//6 42//6 89//6
f  66//6 26//6 65//6
f  87//6 43//6 66//6
f  67//8 11//8 90//8
f  44//8 67//8 91//8
f  68//8 44//8 91//8
f  45//8 68//8 92//8
f  47//8 45//8 93//8
f  94//8 6//8 69//8
f  69//8 46//8 95//8
f  95//8 46//8 70//8
f  70//8 47//8 96//8
f  97//7 17//7 71//7
f  48//7 52//7 71//7
f  98//7 11//7 72//7
f  72//7 49//7 99//7
f  73//7 30//7 75//7
f  100//7 49//7 73//7
f  74//7 17//7 97//7
f  50//7 74//7 101//7
f  75//7 50//7 76//7
f  76//7 101//7 52//7
f  102//7 76//7 33//7
f  77//7 103//7 33//7
f  104//7 77//7 53//7
f  78//7 105//7 53//7
f  106//7 78//7 20//7
f  107//8 20//8 79//8
f  54//8 96//8 79//8
f  80//8 108//8 54//8
f  109//8 80//8 34//8
f  83//6 34//6 58//6
f  81//6 84//6 55//6
f  110//6 81//6 9//6
f  63//6 111//6 9//6
f  82//6 6//6 112//6
f  57//6 82//6 113//6
f  83//6 57//6 113//6
f  59//6 55//6 84//6
f  85//6 60//6 84//6
f  61//6 85//6 81//6
f  62//6 61//6 81//6
f  65//6 62//6 81//6
f  86//6 114//6 63//6
f  86//6 25//6 115//6
f  89//6 42//6 87//6
f  115//6 25//6 88//6
f  88//6 64//6 116//6
f  116//6 64//6 89//6
f  66//6 65//6 110//6
f  87//6 66//6 110//6
f  20//8 90//8 11//8
f  67//8 90//8 117//8
f  91//8 67//8 117//8
f  68//8 91//8 118//8
f  92//8 68//8 118//8
f  93//8 45//8 92//8
f  96//8 47//8 93//8
f  119//8 6//8 94//8
f  94//8 69//8 120//8
f  120//8 69//8 95//8
f  95//8 70//8 121//8
f  108//8 70//8 96//8
f  71//7 122//7 97//7
f  122//7 71//7 52//7
f  123//7 11//7 98//7
f  98//7 72//7 124//7
f  99//7 49//7 100//7
f  125//7 72//7 99//7
f  73//7 75//7 102//7
f  100//7 73//7 103//7
f  74//7 97//7 122//7
f  101//7 74//7 122//7
f  76//7 50//7 101//7
f  102//7 75//7 76//7
f  101//7 122//7 52//7
f  103//7 102//7 33//7
f  77//7 100//7 103//7
f  104//7 99//7 77//7
f  105//7 104//7 53//7
f  126//7 105//7 78//7
f  106//7 127//7 78//7
f  128//7 106//7 20//7
f  129//8 20//8 107//8
f  79//8 93//8 107//8
f  96//8 93//8 79//8
f  108//8 96//8 54//8
f  121//8 108//8 80//8
f  109//8 121//8 80//8
f  130//8 109//8 34//8
f  113//6 34//6 83//6
f  85//6 84//6 81//6
f  110//6 65//6 81//6
f  111//6 110//6 9//6
f  63//6 116//6 111//6
f  34//6 112//6 6//6
f  112//6 113//6 82//6
f  114//6 131//6 63//6
f  86//6 115//6 114//6
f  89//6 87//6 111//6
f  115//6 88//6 131//6
f  131//6 88//6 116//6
f  116//6 89//6 111//6
f  111//6 87//6 110//6
f  132//8 90//8 20//8
f  11//7 133//7 20//7
f  132//8 117//8 90//8
f  117//8 134//8 91//8
f  118//8 91//8 135//8
f  92//8 118//8 129//8
f  93//8 92//8 107//8
f  136//8 6//8 119//8
f  119//8 94//8 137//8
f  137//8 94//8 120//8
f  120//8 95//8 138//8
f  121//8 70//8 108//8
f  138//8 95//8 121//8
f  139//7 11//7 123//7
f  123//7 98//7 106//7
f  124//7 72//7 140//7
f  141//7 98//7 124//7
f  99//7 100//7 77//7
f  140//7 72//7 125//7
f  125//7 99//7 104//7
f  103//7 73//7 102//7
f  105//7 125//7 104//7
f  126//7 140//7 105//7
f  127//7 126//7 78//7
f  142//7 127//7 106//7
f  128//7 123//7 106//7
f  143//7 128//7 20//7
f  144//8 20//8 129//8
f  107//8 92//8 129//8
f  138//8 121//8 109//8
f  130//8 138//8 109//8
f  145//8 130//8 34//8
f  112//6 34//6 113//6
f  131//6 116//6 63//6
f  6//8 146//8 34//8
f  114//6 115//6 131//6
f  132//8 20//8 134//8
f  133//7 143//7 20//7
f  133//7 11//7 147//7
f  117//8 132//8 134//8
f  135//8 91//8 134//8
f  118//8 135//8 144//8
f  129//8 118//8 144//8
f  146//8 6//8 136//8
f  136//8 119//8 148//8
f  148//8 119//8 137//8
f  137//8 120//8 149//8
f  149//8 120//8 138//8
f  147//7 11//7 139//7
f  139//7 123//7 128//7
f  98//7 150//7 106//7
f  124//7 140//7 126//7
f  150//7 98//7 141//7
f  141//7 124//7 127//7
f  140//7 125//7 105//7
f  127//7 124//7 126//7
f  142//7 141//7 127//7
f  150//7 142//7 106//7
f  143//7 139//7 128//7
f  134//8 20//8 144//8
f  149//8 138//8 130//8
f  145//8 149//8 130//8
f  151//8 145//8 34//8
f  146//8 152//8 34//8
f  133//7 147//7 143//7
f  134//8 144//8 135//8
f  146//8 136//8 152//8
f  152//8 136//8 148//8
f  148//8 137//8 153//8
f  153//8 137//8 149//8
f  147//7 139//7 143//7
f  150//7 141//7 142//7
f  153//8 149//8 145//8
f  151//8 153//8 145//8
f  154//8 151//8 34//8
f  152//8 155//8 34//8
f  152//8 148//8 156//8
f  156//8 148//8 153//8
f  156//8 153//8 151//8
f  154//8 156//8 151//8
f  155//8 154//8 34//8
f  155//8 152//8 156//8
f  155//8 156//8 154//8

# Mesh 'mesh1_mesh1-geometry' with 120 faces
g mesh1_mesh1-geometry
usemtl material_1_24
f  2//8 5//8 3//8
f  5//5 1//5 3//5
f  7//4 2//4 4//4
f  5//8 2//8 8//8
f  1//5 5//5 9//5
f  10//9 6//9 1//9
f  2//4 7//4 8//4
f  4//10 12//10 7//10
f  7//2 5//2 8//2
f  5//2 7//2 9//2
f  9//9 13//9 1//9
f  14//9 6//9 10//9
f  10//9 1//9 15//9
f  16//3 11//3 6//3
f  17//10 4//10 11//10
f  12//10 4//10 18//10
f  19//10 7//10 12//10
f  9//2 7//2 20//2
f  9//9 21//9 13//9
f  22//9 1//9 13//9
f  23//9 6//9 14//9
f  15//9 1//9 25//9
f  27//3 11//3 16//3
f  16//3 6//3 28//3
f  29//10 4//10 17//10
f  17//10 11//10 30//10
f  18//10 4//10 31//10
f  32//10 7//10 19//10
f  7//10 33//10 20//10
f  9//2 20//2 34//2
f  9//9 35//9 21//9
f  36//9 1//9 22//9
f  37//9 6//9 23//9
f  25//9 1//9 41//9
f  44//3 11//3 27//3
f  28//3 6//3 46//3
f  31//10 4//10 29//10
f  30//10 11//10 49//10
f  51//10 7//10 32//10
f  33//10 7//10 52//10
f  20//10 33//10 53//10
f  20//3 54//3 34//3
f  34//9 55//9 9//9
f  9//9 56//9 35//9
f  41//9 1//9 36//9
f  57//9 6//9 37//9
f  67//3 11//3 44//3
f  46//3 6//3 69//3
f  49//10 11//10 72//10
f  48//10 7//10 51//10
f  52//10 7//10 48//10
f  20//10 53//10 78//10
f  54//3 20//3 79//3
f  34//3 54//3 80//3
f  55//9 34//9 58//9
f  9//9 55//9 81//9
f  9//9 63//9 56//9
f  82//9 6//9 57//9
f  90//3 11//3 67//3
f  92//3 68//3 45//3
f  93//3 45//3 47//3
f  69//3 6//3 94//3
f  96//3 47//3 70//3
f  72//10 11//10 98//10
f  20//10 78//10 106//10
f  79//3 20//3 107//3
f  34//3 80//3 109//3
f  58//9 34//9 83//9
f  9//9 81//9 110//9
f  9//9 111//9 63//9
f  112//9 6//9 82//9
f  11//3 90//3 20//3
f  118//3 91//3 68//3
f  118//3 68//3 92//3
f  92//3 45//3 93//3
f  93//3 47//3 96//3
f  94//3 6//3 119//3
f  121//3 70//3 95//3
f  96//3 70//3 108//3
f  98//10 11//10 123//10
f  20//10 106//10 128//10
f  107//3 20//3 129//3
f  34//3 109//3 130//3
f  83//9 34//9 113//9
f  9//9 110//9 111//9
f  6//9 112//9 34//9
f  20//3 90//3 132//3
f  20//10 133//10 11//10
f  91//3 134//3 117//3
f  135//3 91//3 118//3
f  119//3 6//3 136//3
f  138//3 95//3 120//3
f  108//3 70//3 121//3
f  121//3 95//3 138//3
f  123//10 11//10 139//10
f  20//10 128//10 143//10
f  129//3 20//3 144//3
f  34//3 130//3 145//3
f  113//9 34//9 112//9
f  34//3 146//3 6//3
f  134//3 20//3 132//3
f  20//10 143//10 133//10
f  147//10 11//10 133//10
f  134//3 132//3 117//3
f  134//3 91//3 135//3
f  136//3 6//3 146//3
f  149//3 120//3 137//3
f  138//3 120//3 149//3
f  139//10 11//10 147//10
f  144//3 20//3 134//3
f  34//3 145//3 151//3
f  34//3 152//3 146//3
f  153//3 137//3 148//3
f  149//3 137//3 153//3
f  34//3 151//3 154//3
f  34//3 155//3 152//3
f  156//3 148//3 152//3
f  153//3 148//3 156//3
f  34//3 154//3 155//3
f  156//3 152//3 155//3

# Mesh 'mesh1_mesh1-geometry' with 96 faces
g mesh1_mesh1-geometry
usemtl material_2_24
f  24//9 14//9 10//9
f  26//9 10//9 15//9
f  18//10 19//10 12//10
f  21//9 22//9 13//9
f  38//9 23//9 14//9
f  39//9 14//9 24//9
f  24//9 10//9 40//9
f  42//9 15//9 25//9
f  40//9 10//9 26//9
f  26//9 15//9 43//9
f  48//10 29//10 17//10
f  50//10 17//10 30//10
f  32//10 18//10 31//10
f  19//10 18//10 32//10
f  35//9 22//9 21//9
f  35//9 36//9 22//9
f  58//9 37//9 23//9
f  59//9 23//9 38//9
f  38//9 14//9 60//9
f  60//9 14//9 39//9
f  63//9 25//9 41//9
f  43//9 15//9 42//9
f  42//9 25//9 64//9
f  51//10 31//10 29//10
f  51//10 29//10 48//10
f  48//10 17//10 71//10
f  73//10 30//10 49//10
f  74//10 17//10 50//10
f  50//10 30//10 75//10
f  32//10 31//10 51//10
f  52//10 76//10 33//10
f  33//10 77//10 53//10
f  56//9 36//9 35//9
f  56//9 41//9 36//9
f  83//9 57//9 37//9
f  83//9 37//9 58//9
f  58//9 23//9 55//9
f  55//9 23//9 59//9
f  63//9 86//9 25//9
f  63//9 41//9 56//9
f  64//9 25//9 88//9
f  71//10 17//10 97//10
f  71//10 52//10 48//10
f  99//10 49//10 72//10
f  75//10 30//10 73//10
f  73//10 49//10 100//10
f  97//10 17//10 74//10
f  52//10 101//10 76//10
f  33//10 76//10 102//10
f  33//10 103//10 77//10
f  53//10 77//10 104//10
f  53//10 105//10 78//10
f  55//9 84//9 81//9
f  113//9 82//9 57//9
f  113//9 57//9 83//9
f  84//9 55//9 59//9
f  81//9 85//9 61//9
f  81//9 61//9 62//9
f  81//9 62//9 65//9
f  63//9 114//9 86//9
f  115//9 25//9 86//9
f  88//9 25//9 115//9
f  110//9 65//9 66//9
f  110//9 66//9 87//9
f  52//10 71//10 122//10
f  124//10 72//10 98//10
f  100//10 49//10 99//10
f  99//10 72//10 125//10
f  52//10 122//10 101//10
f  33//10 102//10 103//10
f  53//10 104//10 105//10
f  78//10 105//10 126//10
f  78//10 127//10 106//10
f  81//9 84//9 85//9
f  81//9 65//9 110//9
f  111//9 116//9 63//9
f  82//9 113//9 112//9
f  63//9 131//9 114//9
f  111//9 87//9 89//9
f  111//9 89//9 116//9
f  110//9 87//9 111//9
f  106//10 98//10 123//10
f  140//10 72//10 124//10
f  124//10 98//10 141//10
f  125//10 72//10 140//10
f  78//10 126//10 127//10
f  106//10 127//10 142//10
f  106//10 123//10 128//10
f  63//9 116//9 131//9
f  128//10 123//10 139//10
f  106//10 150//10 98//10
f  141//10 98//10 150//10
f  106//10 142//10 150//10
f  128//10 139//10 143//10
f  143//10 147//10 133//10
f  143//10 139//10 147//10

# Mesh 'mesh1_mesh1-geometry' with 88 faces
g mesh1_mesh1-geometry
usemtl material_3_24
f  45//3 27//3 16//3
f  47//3 16//3 28//3
f  61//9 39//9 24//9
f  62//9 24//9 40//9
f  65//9 40//9 26//9
f  66//9 26//9 43//9
f  68//3 44//3 27//3
f  68//3 27//3 45//3
f  45//3 16//3 47//3
f  70//3 28//3 46//3
f  47//3 28//3 70//3
f  38//9 84//9 59//9
f  84//9 38//9 60//9
f  85//9 60//9 39//9
f  85//9 39//9 61//9
f  61//9 24//9 62//9
f  62//9 40//9 65//9
f  87//9 43//9 42//9
f  89//9 42//9 64//9
f  65//9 26//9 66//9
f  66//9 43//9 87//9
f  91//3 67//3 44//3
f  91//3 44//3 68//3
f  95//3 46//3 69//3
f  70//3 46//3 95//3
f  101//10 74//10 50//10
f  76//10 50//10 75//10
f  79//3 96//3 54//3
f  54//3 108//3 80//3
f  84//9 60//9 85//9
f  87//9 42//9 89//9
f  116//9 64//9 88//9
f  89//9 64//9 116//9
f  117//3 90//3 67//3
f  117//3 67//3 91//3
f  120//3 69//3 94//3
f  95//3 69//3 120//3
f  97//10 122//10 71//10
f  102//10 75//10 73//10
f  103//10 73//10 100//10
f  122//10 97//10 74//10
f  122//10 74//10 101//10
f  101//10 50//10 76//10
f  76//10 75//10 102//10
f  103//10 100//10 77//10
f  77//10 99//10 104//10
f  107//3 93//3 79//3
f  79//3 93//3 96//3
f  54//3 96//3 108//3
f  80//3 108//3 121//3
f  80//3 121//3 109//3
f  114//9 115//9 86//9
f  131//9 88//9 115//9
f  116//9 88//9 131//9
f  90//3 117//3 132//3
f  129//3 118//3 92//3
f  107//3 92//3 93//3
f  137//3 94//3 119//3
f  120//3 94//3 137//3
f  77//10 100//10 99//10
f  104//10 99//10 125//10
f  102//10 73//10 103//10
f  104//10 125//10 105//10
f  105//10 140//10 126//10
f  129//3 92//3 107//3
f  109//3 121//3 138//3
f  109//3 138//3 130//3
f  131//9 115//9 114//9
f  144//3 135//3 118//3
f  144//3 118//3 129//3
f  148//3 119//3 136//3
f  137//3 119//3 148//3
f  126//10 140//10 124//10
f  127//10 124//10 141//10
f  105//10 125//10 140//10
f  126//10 124//10 127//10
f  127//10 141//10 142//10
f  130//3 138//3 149//3
f  130//3 149//3 145//3
f  135//3 144//3 134//3
f  152//3 136//3 146//3
f  148//3 136//3 152//3
f  142//10 141//10 150//10
f  145//3 149//3 153//3
f  145//3 153//3 151//3
f  151//3 153//3 156//3
f  151//3 156//3 154//3
f  154//3 156//3 155//3

# Mesh 'mesh2_mesh2-geometry' with 6 faces
g mesh2_mesh2-geometry
usemtl material_0_0
l  2 3
l  2 4
l  3 1
l  4 11
l  6 1
l  11 6

