# File produced by Open Asset Import Library (http://www.assimp.sf.net)
# (assimp v3.2.202087883)

mtllib model_normalized.mtl

# 96 vertex positions
v -0.004468 0.023528 0.207529
v 0.209974 0.023528 -0.211964
v 0.209974 0.023528 0.207529
v -0.218909 0.023528 -0.211964
v -0.218909 0.023528 0.207529
v 0.209974 0.485283 0.207529
v -0.218909 0.485283 0.207529
v -0.218909 -0.012473 -0.211964
v -0.218909 -0.012473 0.207529
v -0.218909 0.068921 -0.211964
v 0.209974 0.068921 -0.211964
v 0.209974 -0.012473 0.207529
v 0.209974 -0.012473 -0.211964
v 0.209974 -0.006212 0.207529
v 0.209974 -0.003082 0.207529
v 0.322673 0.485283 0.207529
v 0.322673 -0.012473 0.207529
v 0.278846 -0.012473 0.207529
v 0.253802 -0.012473 0.207529
v -0.331609 0.485283 0.207529
v -0.262737 -0.012473 0.207529
v -0.287782 -0.012473 0.207529
v -0.331609 -0.012473 0.207529
v -0.287782 -0.012473 0.176223
v -0.287782 -0.012473 -0.180658
v -0.331609 -0.012473 -0.211964
v -0.287782 -0.012473 -0.211964
v -0.262737 -0.012473 0.176223
v -0.262737 -0.012473 -0.211964
v -0.262737 -0.012473 -0.180658
v -0.331609 0.485283 -0.211964
v -0.218909 0.181620 -0.211964
v -0.218909 0.485283 -0.211964
v 0.322673 0.485283 -0.211964
v 0.209974 0.181620 -0.211964
v 0.209974 0.485283 -0.211964
v 0.322673 -0.012473 -0.211964
v 0.278846 -0.012473 0.176223
v 0.253802 -0.012473 0.176223
v 0.253802 -0.012473 -0.180658
v 0.253802 -0.012473 -0.211964
v 0.278846 -0.012473 -0.180658
v 0.278846 -0.012473 -0.211964
v 0.209974 0.485283 0.082307
v -0.218909 0.485283 0.082307
v -0.218909 0.181620 0.082307
v 0.209974 0.181620 0.082307
v -0.004468 0.181620 0.082307
v 0.278846 -0.106389 -0.211964
v 0.253802 -0.106389 -0.211964
v 0.241280 -0.106389 -0.211964
v 0.291369 -0.143956 -0.211964
v 0.241280 -0.143956 -0.211964
v 0.291369 -0.106389 -0.211964
v 0.241280 -0.143956 -0.180658
v 0.291369 -0.143956 -0.180658
v 0.241280 -0.106389 -0.180658
v 0.253802 -0.106389 -0.180658
v 0.278846 -0.106389 -0.180658
v 0.291369 -0.106389 -0.180658
v -0.262737 -0.106389 -0.211964
v -0.262737 -0.106389 -0.180658
v -0.287782 -0.106389 -0.211964
v -0.300303 -0.106389 -0.211964
v -0.250215 -0.143956 -0.211964
v -0.300303 -0.143956 -0.211964
v -0.250215 -0.106389 -0.211964
v -0.287782 -0.106389 -0.180658
v -0.250215 -0.106389 -0.180658
v -0.300303 -0.143956 -0.180658
v -0.250215 -0.143956 -0.180658
v -0.300303 -0.106389 -0.180658
v -0.287782 -0.106389 0.207529
v -0.262737 -0.106389 0.207529
v -0.250215 -0.106389 0.207529
v -0.300303 -0.143956 0.207529
v -0.250215 -0.143956 0.207529
v -0.300303 -0.106389 0.207529
v -0.287782 -0.106389 0.176223
v -0.300303 -0.106389 0.176223
v -0.300303 -0.143956 0.176223
v -0.250215 -0.143956 0.176223
v -0.250215 -0.106389 0.176223
v -0.262737 -0.106389 0.176223
v 0.253802 -0.106389 0.207529
v 0.278846 -0.106389 0.207529
v 0.291369 -0.106389 0.207529
v 0.241280 -0.143956 0.207529
v 0.291369 -0.143956 0.207529
v 0.241280 -0.106389 0.207529
v 0.241280 -0.143956 0.176223
v 0.291369 -0.143956 0.176223
v 0.291369 -0.106389 0.176223
v 0.278846 -0.106389 0.176223
v 0.253802 -0.106389 0.176223
v 0.241280 -0.106389 0.176223

# 0 UV coordinates

# 33 vertex normals
vn 0 -0.0254 0
vn 0 0 0.0254
vn 0.0254 0 -7.7023e-18
vn -1.26178e-17 0 -0.0254
vn -0.0254 0 9.68048e-19
vn 1.19184e-32 -0.0254 4.20677e-19
vn 2.8513e-17 0 -0.0254
vn 5.92625e-17 -8.97553e-19 -0.0254
vn -1.78872e-17 -2.00531e-17 -0.0254
vn 0 0.0254 0
vn 0.0254 0 -7.02887e-18
vn -0.0254 1.11081e-33 7.7023e-18
vn 0.0254 0 7.79991e-19
vn -0.0254 -2.78384e-33 1.13999e-18
vn 0 0 -0.0254
vn 0.0254 1.11081e-33 -7.02887e-18
vn 6.57882e-17 -3.08475e-18 -0.0254
vn 8.4599e-18 0 -0.0254
vn -0.0254 0 0
vn -0.0254 0 -8.4599e-18
vn 0.0254 0 -5.63993e-19
vn 0.0254 0 0
vn -8.4599e-18 0 0.0254
vn 0.0254 2.19768e-18 -6.84607e-18
vn -0.0254 -2.19768e-18 6.84607e-18
vn -0.0254 4.45476e-20 9.85404e-19
vn 0.0254 -4.45476e-20 -9.85404e-19
vn 0.0254 -1.9948e-33 1.52842e-16
vn 1.52842e-16 3.14852e-17 -0.0254
vn -1.52842e-16 -3.14852e-17 0.0254
vn -0.0254 1.9948e-33 -1.52842e-16
vn 4.66787e-17 -2.48382e-18 -0.0254
vn 6.01112e-33 -0.0254 -1.80478e-17

# Mesh 'group_0_ID3' with 72 faces
g group_0_ID3
usemtl material
f  1//1 2//1 3//1
f  2//1 1//1 4//1
f  4//1 1//1 5//1
f  1//2 3//2 6//2
f  5//2 1//2 7//2
f  5//3 8//3 4//3
f  8//3 5//3 9//3
f  10//4 2//4 4//4
f  2//4 10//4 11//4
f  12//5 2//5 13//5
f  2//5 12//5 3//5
f  3//5 12//5 14//5
f  3//5 14//5 15//5
f  6//2 3//2 16//2
f  3//2 15//2 16//2
f  15//2 14//2 16//2
f  16//2 14//2 17//2
f  17//2 14//2 18//2
f  18//2 14//2 19//2
f  12//2 19//2 14//2
f  7//2 20//2 5//2
f  5//2 20//2 9//2
f  9//2 20//2 21//2
f  21//2 20//2 22//2
f  23//2 22//2 20//2
f  23//6 24//6 22//6
f  24//6 23//6 25//6
f  25//6 26//6 27//6
f  26//6 25//6 23//6
f  21//6 8//6 9//6
f  8//6 21//6 28//6
f  8//6 28//6 29//6
f  29//6 28//6 30//6
f  30//6 28//6 24//6
f  30//6 24//6 25//6
f  31//7 4//7 8//7
f  4//7 31//7 10//7
f  10//7 31//7 32//7
f  32//7 31//7 33//7
f  2//8 34//8 13//8
f  34//8 2//8 11//8
f  34//8 11//8 35//8
f  34//8 35//8 36//8
f  32//9 11//9 10//9
f  11//9 32//9 35//9
f  18//1 37//1 17//1
f  37//1 18//1 38//1
f  12//1 39//1 19//1
f  39//1 12//1 40//1
f  40//1 12//1 41//1
f  41//1 12//1 13//1
f  39//1 42//1 38//1
f  42//1 39//1 40//1
f  37//1 42//1 43//1
f  42//1 37//1 38//1
f  36//10 44//10 34//10
f  34//10 6//10 16//10
f  6//10 34//10 44//10
f  17//11 34//11 16//11
f  31//10 45//10 33//10
f  45//10 31//10 20//10
f  20//10 7//10 45//10
f  20//12 31//12 23//12
f  45//13 32//13 33//13
f  32//13 45//13 46//13
f  47//14 36//14 35//14
f  36//14 47//14 44//14
f  35//10 48//10 47//10
f  48//10 35//10 32//10
f  48//10 32//10 46//10
f  45//15 48//15 46//15
f  44//15 47//15 48//15

# Mesh 'group_0_ID11' with 4 faces
g group_0_ID11
usemtl material_0
f  17//16 37//16 34//16
f  34//17 41//17 13//17
f  41//17 34//17 43//17
f  43//17 34//17 37//17

# Mesh 'group_0_ID19' with 4 faces
g group_0_ID19
usemtl material_0
f  45//10 6//10 44//10
f  6//10 45//10 7//10
f  7//2 1//2 6//2
f  44//15 48//15 45//15

# Mesh 'group_0_ID25' with 26 faces
g group_0_ID25
usemtl material_1
f  41//18 49//18 50//18
f  49//18 41//18 43//18
f  51//18 52//18 53//18
f  52//18 51//18 54//18
f  54//18 51//18 50//18
f  54//18 50//18 49//18
f  55//1 52//1 56//1
f  52//1 55//1 53//1
f  55//19 51//19 53//19
f  51//19 55//19 57//19
f  51//10 58//10 50//10
f  58//10 51//10 57//10
f  58//20 41//20 50//20
f  41//20 58//20 40//20
f  42//21 49//21 43//21
f  49//21 42//21 59//21
f  54//10 59//10 60//10
f  59//10 54//10 49//10
f  60//22 52//22 54//22
f  52//22 60//22 56//22
f  42//23 58//23 59//23
f  58//23 42//23 40//23
f  60//23 55//23 56//23
f  55//23 60//23 57//23
f  57//23 60//23 59//23
f  57//23 59//23 58//23

# Mesh 'group_0_ID33' with 5 faces
g group_0_ID33
usemtl material_2
f  7//24 46//24 45//24
f  46//24 10//24 32//24
f  10//24 46//24 4//24
f  4//24 46//24 5//24
f  5//24 46//24 7//24

# Mesh 'group_0_ID33' with 5 faces
g group_0_ID33
usemtl material_3
f  7//25 46//25 5//25
f  5//25 46//25 4//25
f  4//25 46//25 10//25
f  32//25 10//25 46//25
f  45//25 46//25 7//25

# Mesh 'group_0_ID43' with 5 faces
g group_0_ID43
usemtl material_2
f  3//26 11//26 2//26
f  11//26 3//26 47//26
f  47//26 3//26 44//26
f  44//26 3//26 6//26
f  47//26 35//26 11//26

# Mesh 'group_0_ID43' with 5 faces
g group_0_ID43
usemtl material_3
f  11//27 35//27 47//27
f  6//27 3//27 44//27
f  44//27 3//27 47//27
f  47//27 3//27 11//27
f  2//27 11//27 3//27

# Mesh 'group_0_ID49' with 26 faces
g group_0_ID49
usemtl material_1
f  30//28 61//28 29//28
f  61//28 30//28 62//28
f  27//29 61//29 63//29
f  61//29 27//29 29//29
f  64//29 65//29 66//29
f  65//29 64//29 67//29
f  67//29 64//29 63//29
f  67//29 63//29 61//29
f  30//30 68//30 62//30
f  68//30 30//30 25//30
f  69//30 70//30 71//30
f  70//30 69//30 72//30
f  72//30 69//30 62//30
f  72//30 62//30 68//30
f  61//10 69//10 67//10
f  69//10 61//10 62//10
f  69//22 65//22 67//22
f  65//22 69//22 71//22
f  71//1 66//1 65//1
f  66//1 71//1 70//1
f  70//19 64//19 66//19
f  64//19 70//19 72//19
f  64//10 68//10 63//10
f  68//10 64//10 72//10
f  68//31 27//31 63//31
f  27//31 68//31 25//31

# Mesh 'group_0_ID55' with 26 faces
g group_0_ID55
usemtl material_1
f  21//2 73//2 74//2
f  73//2 21//2 22//2
f  75//2 76//2 77//2
f  76//2 75//2 78//2
f  78//2 75//2 74//2
f  78//2 74//2 73//2
f  73//19 24//19 79//19
f  24//19 73//19 22//19
f  80//10 73//10 79//10
f  73//10 80//10 78//10
f  76//19 80//19 81//19
f  80//19 76//19 78//19
f  76//1 82//1 77//1
f  82//1 76//1 81//1
f  75//22 82//22 83//22
f  82//22 75//22 77//22
f  84//10 75//10 83//10
f  75//10 84//10 74//10
f  21//22 84//22 28//22
f  84//22 21//22 74//22
f  24//15 84//15 79//15
f  84//15 24//15 28//15
f  80//15 82//15 81//15
f  82//15 80//15 83//15
f  83//15 80//15 79//15
f  83//15 79//15 84//15

# Mesh 'group_0_ID61' with 2 faces
g group_0_ID61
usemtl material_1
f  22//1 28//1 21//1
f  28//1 22//1 24//1

# Mesh 'group_0_ID67' with 26 faces
g group_0_ID67
usemtl material_1
f  18//2 85//2 86//2
f  85//2 18//2 19//2
f  87//2 88//2 89//2
f  88//2 87//2 90//2
f  90//2 87//2 86//2
f  90//2 86//2 85//2
f  89//1 91//1 92//1
f  91//1 89//1 88//1
f  87//22 92//22 93//22
f  92//22 87//22 89//22
f  94//10 87//10 93//10
f  87//10 94//10 86//10
f  18//22 94//22 38//22
f  94//22 18//22 86//22
f  85//19 39//19 95//19
f  39//19 85//19 19//19
f  96//10 85//10 95//10
f  85//10 96//10 90//10
f  88//19 96//19 91//19
f  96//19 88//19 90//19
f  39//15 94//15 95//15
f  94//15 39//15 38//15
f  96//15 92//15 91//15
f  92//15 96//15 93//15
f  93//15 96//15 95//15
f  93//15 95//15 94//15

# Mesh 'group_0_ID73' with 2 faces
g group_0_ID73
usemtl material_1
f  18//1 39//1 38//1
f  39//1 18//1 19//1

# Mesh 'group_0_ID79' with 4 faces
g group_0_ID79
usemtl material_0
f  31//32 27//32 26//32
f  27//32 31//32 29//32
f  29//32 31//32 8//32
f  23//12 31//12 26//12

# Mesh 'group_0_ID85' with 2 faces
g group_0_ID85
usemtl material_1
f  40//1 43//1 42//1
f  43//1 40//1 41//1

# Mesh 'group_0_ID91' with 2 faces
g group_0_ID91
usemtl material_1
f  30//33 27//33 29//33
f  27//33 30//33 25//33

