# File produced by Open Asset Import Library (http://www.assimp.sf.net)
# (assimp v3.2.202087883)

mtllib model_normalized.mtl

# 34 vertex positions
v -0.190928 0.076840 0.137708
v 0.190928 0.076840 0.191744
v -0.190928 0.076840 0.191744
v 0.190928 0.076840 0.137708
v -0.190928 0.527862 0.191744
v -0.190928 0.112144 0.153222
v -0.190928 0.076840 -0.200919
v 0.190928 0.112144 -0.254955
v 0.190928 0.527862 0.191744
v 0.190928 0.076840 -0.200919
v 0.190928 0.112144 0.153222
v 0.190928 0.527862 0.153222
v -0.190928 0.527862 0.153222
v -0.190928 0.076840 -0.254955
v 0.190928 -0.235849 0.191744
v 0.190928 0.076840 -0.254955
v -0.190928 0.112144 -0.254955
v -0.190928 -0.235849 0.137708
v -0.190928 -0.235849 0.191744
v 0.190928 -0.235849 0.137708
v 0.190928 -0.281239 0.191744
v -0.190928 -0.235849 -0.254955
v -0.190928 -0.281239 0.191744
v 0.190928 -0.235849 -0.254955
v -0.190928 -0.281239 -0.254955
v 0.190928 -0.281239 -0.254955
v 0.190928 0.076840 -0.155932
v 0.190928 0.041017 -0.155932
v -0.190928 0.076840 -0.155932
v -0.190928 0.041017 -0.155932
v 0.190928 -0.199357 0.091882
v 0.190928 -0.235849 0.091882
v -0.190928 -0.199357 0.091882
v -0.190928 -0.235849 0.091882

# 71 UV coordinates
vt -0.049213 0.869423 0
vt -0 0 0
vt -0 0.869423 0
vt -0.049213 0 0
vt 0 0.815289 0
vt -0.347769 1.84219 0
vt -0.347769 0.815289 0
vt -0.035084 0.895669 0
vt -0.049213 0.815289 0
vt -0.357612 0.869423 0
vt 0.049213 0.815289 0
vt 0.406824 0.895669 0
vt 0 1.84219 0
vt -0.357612 0.815289 0
vt -0.357612 0 0
vt 0.357612 0.815289 0
vt 0.035084 0.895669 0
vt 0.035084 -0 0
vt -0.035084 1.84219 0
vt -0.406824 0.815289 0
vt -0.406824 0.869423 0
vt -0.347769 1.20725 0
vt -0 0.064379 0
vt -0 1.20725 0
vt 0.406824 0.815289 0
vt 0.406824 -0 0
vt 0.035084 0.869423 0
vt 0.035084 1.84219 0
vt 0.347769 0.895669 0
vt 0.347769 1.84219 0
vt -0.406824 0.895669 0
vt -0.049213 0.103346 0
vt -0.406824 0 0
vt -0.347769 0.064379 0
vt 0 0.103346 0
vt 0.347769 0.815289 0
vt 0 0.895669 0
vt 0.406824 0.869423 0
vt 0.347769 1.30349 0
vt 0 0.160622 0
vt 0.347769 0.160622 0
vt -0 1.30349 0
vt -0.347769 0.103346 0
vt 0.049213 0.869423 0
vt 0.049213 0.103346 0
vt -0.406824 0.103346 0
vt 0.049213 0 0
vt -0.347769 0 0
vt 0.406824 0.103346 0
vt 0.347769 0 0
vt 0.347769 0.103346 0
vt 0.330132 0.815289 0
vt 0.330132 0.733724 0
vt 0.371102 0.815289 0
vt -0.841833 0.815289 0
vt -0.494064 0.733724 0
vt -0.494064 0.815289 0
vt -0.841833 0.733724 0
vt -0.371102 0.815289 0
vt -0.330132 0.733724 0
vt -0.330132 0.815289 0
vt 0.104438 0.186434 0
vt 0.062703 0.103346 0
vt 0.104438 0.103346 0
vt 0.494064 0.103346 0
vt 0.841833 0.186434 0
vt 0.494064 0.186434 0
vt 0.841833 0.103346 0
vt -0.104438 0.186434 0
vt -0.104438 0.103346 0
vt -0.062703 0.103346 0

# 8 vertex normals
vn 0 -1 0
vn 0 1 0
vn 0 0 1
vn 0 0 -1
vn -1 0 0
vn 1 0 0
vn 0 0.782267 0.622943
vn 0 -0.782267 -0.622943

# Mesh 'mesh1_mesh1-geometry' with 104 faces
g mesh1_mesh1-geometry
usemtl material_0_1_8
f  1/1/1 2/2/1 3/3/1
f  2/2/1 1/1/1 4/4/1
f  3/3/2 2/2/2 1/1/2
f  4/4/2 1/1/2 2/2/2
f  2/5/3 5/6/3 3/7/3
f  3/7/4 5/6/4 2/5/4
f  3/5/5 6/8/5 1/9/5
f  1/9/6 6/8/6 3/5/6
f  7/10/1 4/4/1 1/1/1
f  1/1/2 4/4/2 7/10/2
f  4/11/6 8/12/6 2/5/6
f  2/5/5 8/12/5 4/11/5
f  5/6/3 2/5/3 9/13/3
f  9/13/4 2/5/4 5/6/4
f  6/8/5 3/5/5 5/13/5
f  5/13/6 3/5/6 6/8/6
f  1/9/5 6/8/5 7/14/5
f  7/14/6 6/8/6 1/9/6
f  4/4/1 7/10/1 10/15/1
f  10/15/2 7/10/2 4/4/2
f  10/16/6 8/12/6 4/11/6
f  4/11/5 8/12/5 10/16/5
f  2/5/6 8/12/6 11/17/6
f  11/17/5 8/12/5 2/5/5
f  2/5/6 11/17/6 9/13/6
f  9/13/5 11/17/5 2/5/5
f  12/18/2 5/3/2 9/2/2
f  9/2/1 5/3/1 12/18/1
f  6/8/5 5/13/5 13/19/5
f  13/19/6 5/13/6 6/8/6
f  7/14/5 6/8/5 14/20/5
f  14/20/6 6/8/6 7/14/6
f  14/21/1 10/15/1 7/10/1
f  7/10/2 10/15/2 14/21/2
f  7/22/7 15/23/7 10/24/7
f  10/24/8 15/23/8 7/22/8
f  8/12/6 10/16/6 16/25/6
f  16/25/5 10/16/5 8/12/5
f  8/26/2 6/27/2 11/18/2
f  11/18/1 6/27/1 8/26/1
f  9/13/6 11/17/6 12/28/6
f  12/28/5 11/17/5 9/13/5
f  5/3/2 12/18/2 13/27/2
f  13/27/1 12/18/1 5/3/1
f  12/13/4 6/29/4 13/30/4
f  13/30/3 6/29/3 12/13/3
f  17/31/5 14/20/5 6/8/5
f  6/8/6 14/20/6 17/31/6
f  18/32/5 7/14/5 14/20/5
f  14/20/6 7/14/6 18/32/6
f  10/15/1 14/21/1 16/33/1
f  16/33/2 14/21/2 10/15/2
f  15/23/7 7/22/7 19/34/7
f  19/34/8 7/22/8 15/23/8
f  15/35/6 16/25/6 10/16/6
f  10/16/5 16/25/5 15/35/5
f  14/36/4 8/37/4 16/5/4
f  16/5/3 8/37/3 14/36/3
f  6/27/2 8/26/2 17/38/2
f  17/38/1 8/26/1 6/27/1
f  6/29/4 12/13/4 11/37/4
f  11/37/3 12/13/3 6/29/3
f  8/37/4 14/36/4 17/29/4
f  17/29/3 14/36/3 8/37/3
f  7/14/5 18/32/5 19/35/5
f  19/35/6 18/32/6 7/14/6
f  14/39/8 20/40/8 18/41/8
f  18/41/7 20/40/7 14/39/7
f  20/40/8 14/39/8 16/42/8
f  16/42/7 14/39/7 20/40/7
f  19/43/3 21/2/3 15/35/3
f  15/35/4 21/2/4 19/43/4
f  15/2/2 18/44/2 19/3/2
f  19/3/1 18/44/1 15/2/1
f  16/25/6 15/35/6 20/45/6
f  20/45/5 15/35/5 16/25/5
f  22/46/5 19/35/5 18/32/5
f  18/32/6 19/35/6 22/46/6
f  20/47/2 22/38/2 18/44/2
f  18/44/1 22/38/1 20/47/1
f  18/44/2 15/2/2 20/47/2
f  20/47/1 15/2/1 18/44/1
f  21/2/3 19/43/3 23/48/3
f  23/48/4 19/43/4 21/2/4
f  21/2/6 24/49/6 15/35/6
f  15/35/5 24/49/5 21/2/5
f  15/35/6 24/49/6 20/45/6
f  20/45/5 24/49/5 15/35/5
f  25/33/5 19/35/5 22/46/5
f  22/46/6 19/35/6 25/33/6
f  22/38/2 20/47/2 24/26/2
f  24/26/1 20/47/1 22/38/1
f  19/35/5 25/33/5 23/2/5
f  23/2/6 25/33/6 19/35/6
f  25/21/1 21/2/1 23/3/1
f  23/3/2 21/2/2 25/21/2
f  24/49/6 21/2/6 26/26/6
f  26/26/5 21/2/5 24/49/5
f  24/35/4 25/50/4 22/51/4
f  22/51/3 25/50/3 24/35/3
f  21/2/1 25/21/1 26/33/1
f  26/33/2 25/21/2 21/2/2
f  25/50/4 24/35/4 26/2/4
f  26/2/3 24/35/3 25/50/3

# Mesh 'mesh2_mesh2-geometry' with 4 faces
g mesh2_mesh2-geometry
usemtl material_0_1_8
f  27/52/6 28/53/6 10/54/6
f  29/55/3 28/56/3 27/57/3
f  28/56/3 29/55/3 30/58/3
f  7/59/5 30/60/5 29/61/5

# Mesh 'mesh2_mesh2-geometry' with 12 faces
g mesh2_mesh2-geometry
usemtl material_1_24
f  10//5 28//5 27//5
f  27//4 28//4 29//4
f  28//8 7//8 10//8
f  10//7 7//7 28//7
f  7//2 27//2 10//2
f  10//1 27//1 7//1
f  30//4 29//4 28//4
f  27//2 7//2 29//2
f  29//1 7//1 27//1
f  7//8 28//8 30//8
f  30//7 28//7 7//7
f  29//6 30//6 7//6

# Mesh 'mesh3_mesh3-geometry' with 4 faces
g mesh3_mesh3-geometry
usemtl material_0_1_8
f  31/62/6 20/63/6 32/64/6
f  32/65/4 33/66/4 31/67/4
f  33/66/4 32/65/4 34/68/4
f  33/69/5 34/70/5 18/71/5

# Mesh 'mesh3_mesh3-geometry' with 12 faces
g mesh3_mesh3-geometry
usemtl material_1_24
f  32//5 20//5 31//5
f  31//7 18//7 20//7
f  20//8 18//8 31//8
f  18//1 32//1 20//1
f  20//2 32//2 18//2
f  31//3 33//3 32//3
f  18//7 31//7 33//7
f  33//8 31//8 18//8
f  32//1 18//1 34//1
f  34//2 18//2 32//2
f  34//3 32//3 33//3
f  18//6 34//6 33//6

