# File produced by Open Asset Import Library (http://www.assimp.sf.net)
# (assimp v3.2.202087883)

mtllib model_normalized.mtl

# 110 vertex positions
v 0.130968 -0.064330 0.137873
v 0.266503 -0.064330 -0.245623
v 0.266503 -0.064330 0.137873
v 0.130968 -0.064330 -0.245623
v 0.120643 -0.064330 -0.270551
v 0.120643 -0.064330 0.252282
v 0.134563 -0.064330 0.218676
v 0.098500 -0.064330 -0.299409
v 0.134563 -0.064330 0.146551
v 0.098500 -0.064330 0.281140
v 0.139310 -0.064330 0.182614
v 0.069642 -0.064330 -0.321552
v 0.069642 -0.064330 0.303283
v 0.036037 -0.064330 -0.335471
v 0.036037 -0.064330 0.317203
v -0.000026 -0.064330 -0.340219
v -0.000026 -0.064330 0.321951
v -0.036089 -0.064330 0.317203
v -0.036089 -0.064330 -0.335471
v -0.069695 -0.064330 0.303283
v -0.069695 -0.064330 -0.321552
v -0.098552 -0.064330 0.281140
v -0.098552 -0.064330 -0.299409
v -0.120696 -0.064330 0.252282
v -0.120696 -0.064330 -0.270551
v -0.131021 -0.064330 0.137873
v -0.134616 -0.064330 0.218676
v -0.131021 -0.064330 -0.245623
v -0.134616 -0.064330 0.146551
v -0.266556 -0.064330 0.137873
v -0.139363 -0.064330 0.182614
v -0.266556 -0.064330 -0.245623
v 0.038323 0.092903 0.061173
v -0.037795 -0.054104 0.061173
v 0.038323 -0.054104 0.061173
v -0.037795 0.092903 0.061173
v 0.036037 -0.054104 0.125455
v 0.038323 -0.054104 0.035607
v -0.037795 0.092903 0.035607
v 0.069642 -0.054104 0.111535
v -0.000026 -0.054104 0.130203
v 0.038323 0.092903 0.035607
v -0.037795 -0.054104 0.035607
v 0.036037 -0.066887 0.125455
v -0.036089 -0.054104 0.125455
v -0.000026 -0.066887 0.130203
v 0.038323 0.052471 0.035607
v 0.036037 -0.054104 -0.143723
v -0.037795 0.052471 0.035607
v 0.202587 0.405617 0.035607
v -0.069695 -0.054104 -0.129804
v 0.069642 -0.066887 0.111535
v -0.069695 -0.054104 0.111535
v -0.036089 -0.066887 0.125455
v 0.069642 -0.054104 -0.129804
v -0.202640 0.052471 0.035607
v -0.202640 0.405617 0.035607
v -0.036089 -0.054104 -0.143723
v 0.036037 -0.066887 -0.143723
v 0.098500 -0.054104 0.089392
v -0.000026 -0.066887 -0.148471
v -0.069695 -0.066887 0.111535
v 0.202587 0.052471 0.035607
v 0.069642 -0.066887 -0.129804
v -0.000026 -0.054104 -0.148471
v 0.266503 0.459781 -0.009134
v -0.036089 -0.066887 -0.143723
v -0.098553 -0.054104 -0.107661
v 0.098500 -0.066887 0.089392
v -0.098553 -0.066887 0.089392
v 0.098500 -0.054104 -0.107661
v 0.098500 -0.066887 -0.107661
v -0.266556 0.459781 -0.009134
v -0.069695 -0.066887 -0.129804
v -0.098553 -0.054104 0.089392
v 0.120643 -0.066887 0.060534
v -0.098553 -0.066887 -0.107661
v -0.266556 -0.001693 -0.009134
v 0.266503 -0.001693 -0.009134
v 0.120643 -0.054104 0.060534
v -0.266556 0.459781 -0.053875
v -0.120696 -0.054104 -0.078803
v -0.120696 -0.054104 0.060534
v -0.120696 -0.066887 -0.078803
v 0.266503 -0.001693 -0.053875
v 0.120643 -0.054104 -0.078803
v 0.266503 0.459781 -0.053875
v 0.134563 -0.066887 0.026929
v 0.120643 -0.066887 -0.078803
v -0.120696 -0.066887 0.060534
v 0.134563 -0.054104 0.026929
v -0.266556 -0.001693 -0.053875
v 0.240937 0.434214 -0.053875
v -0.134616 -0.066887 -0.045197
v -0.134616 -0.054104 -0.045197
v -0.134616 -0.054104 0.026929
v -0.134616 -0.066887 0.026929
v 0.240937 0.054208 -0.053875
v 0.134563 -0.054104 -0.045197
v -0.240990 0.054208 -0.053875
v -0.240990 0.434214 -0.053875
v 0.139310 -0.066887 -0.009134
v 0.134563 -0.066887 -0.045197
v 0.139310 -0.054104 -0.009134
v 0.240937 0.054208 -0.048762
v -0.240990 0.434214 -0.048762
v -0.139363 -0.066887 -0.009134
v -0.139363 -0.054104 -0.009134
v 0.240937 0.434214 -0.048762
v -0.240990 0.054208 -0.048762

# 0 UV coordinates

# 36 vertex normals
vn 0 -0.001 0
vn 0 0.001 0
vn 0 0 0.0254
vn 0 0.0254 0
vn 0.0254 0 0
vn -0.0254 0 0
vn 0.006574 0 0.0245345
vn 0.0127 0 0.021997
vn -0.006574 0 0.0245345
vn -0 0 -0.0254
vn 0 -0.0254 0
vn 0.0179605 0 0.0179605
vn -0.0127 0 0.021997
vn 0 -0.0161762 0.0195829
vn 0.0127 0 -0.021997
vn 0.006574 0 -0.0245345
vn 0 0.0161762 0.0195829
vn -0.006574 0 -0.0245345
vn -0.0127 0 -0.021997
vn -0.0179605 0 0.0179605
vn 0.0145659 0 0.0208085
vn 0.0179605 0 -0.0179605
vn -0.0145659 0 0.0208085
vn -0.0179605 0 -0.0179605
vn 0.021997 0 0.0127
vn -0.021997 0 0.0127
vn 0.021997 0 -0.0127
vn -0.021997 0 -0.0127
vn 0.0245345 0 0.006574
vn -0.0245345 0 -0.006574
vn -0.0245345 0 0.006574
vn 0.0245345 0 -0.006574
vn 0 0.0161762 -0.0195829
vn 0 -0.0161762 -0.0195829
vn -0.0145659 0 -0.0208085
vn 0.0145659 0 -0.0208085

# Mesh 'mesh1_mesh1-geometry' with 60 faces
g mesh1_mesh1-geometry
usemtl material_0_24
f  1//1 2//1 3//1
f  2//1 1//1 4//1
f  3//2 2//2 1//2
f  4//2 1//2 2//2
f  4//1 1//1 5//1
f  5//2 1//2 4//2
f  1//1 6//1 5//1
f  5//2 6//2 1//2
f  1//1 7//1 6//1
f  6//2 7//2 1//2
f  5//1 6//1 8//1
f  8//2 6//2 5//2
f  9//1 7//1 1//1
f  1//2 7//2 9//2
f  8//1 6//1 10//1
f  10//2 6//2 8//2
f  7//1 9//1 11//1
f  11//2 9//2 7//2
f  8//1 10//1 12//1
f  12//2 10//2 8//2
f  12//1 10//1 13//1
f  13//2 10//2 12//2
f  12//1 13//1 14//1
f  14//2 13//2 12//2
f  14//1 13//1 15//1
f  15//2 13//2 14//2
f  14//1 15//1 16//1
f  16//2 15//2 14//2
f  16//1 15//1 17//1
f  17//2 15//2 16//2
f  16//1 17//1 18//1
f  18//2 17//2 16//2
f  16//1 18//1 19//1
f  19//2 18//2 16//2
f  19//1 18//1 20//1
f  20//2 18//2 19//2
f  19//1 20//1 21//1
f  21//2 20//2 19//2
f  21//1 20//1 22//1
f  22//2 20//2 21//2
f  21//1 22//1 23//1
f  23//2 22//2 21//2
f  23//1 22//1 24//1
f  24//2 22//2 23//2
f  23//1 24//1 25//1
f  25//2 24//2 23//2
f  25//1 24//1 26//1
f  26//2 24//2 25//2
f  26//1 24//1 27//1
f  27//2 24//2 26//2
f  26//1 28//1 25//1
f  25//2 28//2 26//2
f  26//1 27//1 29//1
f  29//2 27//2 26//2
f  28//1 26//1 30//1
f  30//2 26//2 28//2
f  29//1 27//1 31//1
f  31//2 27//2 29//2
f  28//1 30//1 32//1
f  32//2 30//2 28//2

# Mesh 'mesh2_mesh2-geometry' with 154 faces
g mesh2_mesh2-geometry
usemtl material_1_24
f  33//3 34//3 35//3
f  34//3 33//3 36//3
f  37//4 35//4 34//4
f  38//5 33//5 35//5
f  33//4 39//4 36//4
f  39//6 34//6 36//6
f  40//4 35//4 37//4
f  37//4 34//4 41//4
f  38//5 42//5 33//5
f  35//4 40//4 38//4
f  39//4 33//4 42//4
f  39//6 43//6 34//6
f  44//7 40//8 37//7
f  41//4 34//4 45//4
f  46//3 37//7 41//3
f  42//5 38//5 47//5
f  40//4 48//4 38//4
f  49//3 42//3 39//3
f  42//3 50//3 39//3
f  43//6 39//6 49//6
f  43//4 51//4 34//4
f  40//8 44//7 52//8
f  37//7 46//3 44//7
f  45//4 34//4 53//4
f  54//9 41//3 45//9
f  41//3 54//9 46//3
f  38//10 49//10 47//10
f  42//3 49//3 47//3
f  47//3 50//3 42//3
f  40//4 55//4 48//4
f  38//4 48//4 43//4
f  39//3 56//3 49//3
f  57//3 39//3 50//3
f  49//10 38//10 43//10
f  43//4 58//4 51//4
f  53//4 34//4 51//4
f  59//11 52//11 44//11
f  52//8 60//12 40//8
f  61//11 44//11 46//11
f  62//13 45//9 53//13
f  45//9 62//13 54//9
f  61//11 46//11 54//11
f  56//14 47//14 49//14
f  50//3 47//3 63//3
f  60//4 55//4 40//4
f  64//15 48//16 55//15
f  43//4 48//4 65//4
f  56//3 39//3 57//3
f  66//17 57//17 50//17
f  43//4 65//4 58//4
f  67//18 51//19 58//18
f  53//4 51//4 68//4
f  64//11 52//11 59//11
f  59//11 44//11 61//11
f  60//12 52//8 69//12
f  53//13 70//20 62//13
f  67//11 54//11 62//11
f  61//11 54//11 67//11
f  56//14 63//14 47//14
f  63//21 66//21 50//21
f  60//4 71//4 55//4
f  48//16 64//15 59//16
f  55//15 72//22 64//15
f  59//16 65//10 48//16
f  73//23 56//23 57//23
f  57//17 66//17 73//17
f  61//10 58//18 65//10
f  51//19 67//18 74//19
f  58//18 61//10 67//18
f  74//19 68//24 51//19
f  53//4 68//4 75//4
f  64//11 69//11 52//11
f  65//10 59//16 61//10
f  76//25 60//12 69//12
f  70//20 53//13 75//20
f  77//11 62//11 70//11
f  67//11 62//11 74//11
f  78//14 63//14 56//14
f  66//21 63//21 79//21
f  80//4 71//4 60//4
f  72//22 55//15 71//22
f  72//11 69//11 64//11
f  56//23 73//23 78//23
f  79//10 73//10 66//10
f  66//4 81//4 73//4
f  68//24 74//19 77//24
f  75//4 68//4 82//4
f  60//12 76//25 80//25
f  72//11 76//11 69//11
f  83//26 70//20 75//20
f  74//11 62//11 77//11
f  77//11 70//11 84//11
f  63//14 78//14 79//14
f  85//5 66//5 79//5
f  80//4 86//4 71//4
f  86//27 72//22 71//22
f  73//10 79//10 78//10
f  81//6 78//6 73//6
f  81//4 66//4 87//4
f  84//28 68//24 77//24
f  68//24 84//28 82//28
f  75//4 82//4 83//4
f  88//29 80//25 76//25
f  89//11 76//11 72//11
f  70//20 83//26 90//26
f  84//11 70//11 90//11
f  78//11 85//11 79//11
f  66//5 85//5 87//5
f  91//4 86//4 80//4
f  72//22 86//27 89//27
f  78//6 81//6 92//6
f  87//10 93//10 81//10
f  94//30 82//28 84//28
f  83//4 82//4 95//4
f  80//25 88//29 91//29
f  89//11 88//11 76//11
f  96//31 90//26 83//26
f  84//11 90//11 97//11
f  85//11 78//11 92//11
f  85//10 98//10 87//10
f  91//4 99//4 86//4
f  99//32 89//27 86//27
f  100//10 92//10 81//10
f  87//10 98//10 93//10
f  101//10 81//10 93//10
f  82//28 94//30 95//30
f  84//11 97//11 94//11
f  83//4 95//4 96//4
f  102//5 91//29 88//29
f  103//11 88//11 89//11
f  90//26 96//31 97//31
f  92//10 100//10 85//10
f  98//10 85//10 100//10
f  99//4 91//4 104//4
f  89//27 99//32 103//32
f  100//10 81//10 101//10
f  105//6 93//6 98//6
f  93//11 106//11 101//11
f  107//6 95//30 94//30
f  94//11 97//11 107//11
f  96//4 95//4 108//4
f  91//29 102//5 104//5
f  88//11 103//11 102//11
f  108//6 97//31 96//31
f  100//4 105//4 98//4
f  104//5 103//32 99//32
f  106//5 100//5 101//5
f  93//6 105//6 109//6
f  106//11 93//11 109//11
f  95//30 107//6 108//6
f  97//31 108//6 107//6
f  103//32 104//5 102//5
f  105//4 100//4 110//4
f  100//5 106//5 110//5

# Mesh 'mesh2_mesh2-geometry' with 156 faces
g mesh2_mesh2-geometry
usemtl material_2_24
f  35//10 34//10 33//10
f  36//10 33//10 34//10
f  34//11 35//11 37//11
f  35//6 33//6 38//6
f  36//11 39//11 33//11
f  36//5 34//5 39//5
f  37//11 35//11 40//11
f  41//11 34//11 37//11
f  33//6 42//6 38//6
f  38//11 40//11 35//11
f  42//11 33//11 39//11
f  34//5 43//5 39//5
f  37//18 40//19 44//18
f  45//11 34//11 41//11
f  41//10 37//18 46//10
f  47//6 38//6 42//6
f  38//11 48//11 40//11
f  39//10 42//10 49//10
f  39//10 50//10 42//10
f  49//5 39//5 43//5
f  34//11 51//11 43//11
f  52//19 44//18 40//19
f  44//18 46//10 37//18
f  53//11 34//11 45//11
f  45//16 41//10 54//16
f  46//10 54//16 41//10
f  47//3 49//3 38//3
f  47//10 49//10 42//10
f  42//10 50//10 47//10
f  48//11 55//11 40//11
f  43//11 48//11 38//11
f  49//10 56//10 39//10
f  50//10 39//10 57//10
f  43//3 38//3 49//3
f  51//11 58//11 43//11
f  51//11 34//11 53//11
f  44//4 52//4 59//4
f  40//19 60//24 52//19
f  46//4 44//4 61//4
f  53//15 45//16 62//15
f  54//16 62//15 45//16
f  54//4 46//4 61//4
f  49//33 47//33 56//33
f  63//10 47//10 50//10
f  40//11 55//11 60//11
f  55//13 48//9 64//13
f  65//11 48//11 43//11
f  57//10 39//10 56//10
f  50//34 57//34 66//34
f  58//11 65//11 43//11
f  58//7 51//8 67//7
f  68//11 51//11 53//11
f  59//4 52//4 64//4
f  61//4 44//4 59//4
f  69//24 52//19 60//24
f  62//15 70//22 53//15
f  62//4 54//4 67//4
f  67//4 54//4 61//4
f  47//33 63//33 56//33
f  50//35 66//35 63//35
f  55//11 71//11 60//11
f  59//9 64//13 48//9
f  64//13 72//20 55//13
f  48//9 65//3 59//9
f  57//36 56//36 73//36
f  73//34 66//34 57//34
f  65//3 58//7 61//3
f  74//8 67//7 51//8
f  67//7 61//3 58//7
f  51//8 68//12 74//8
f  75//11 68//11 53//11
f  52//4 69//4 64//4
f  61//3 59//9 65//3
f  69//24 60//24 76//28
f  75//22 53//15 70//22
f  70//4 62//4 77//4
f  74//4 62//4 67//4
f  56//33 63//33 78//33
f  79//35 63//35 66//35
f  60//11 71//11 80//11
f  71//20 55//13 72//20
f  64//4 69//4 72//4
f  78//36 73//36 56//36
f  66//3 73//3 79//3
f  73//11 81//11 66//11
f  77//12 74//8 68//12
f  82//11 68//11 75//11
f  80//28 76//28 60//24
f  69//4 76//4 72//4
f  75//22 70//22 83//27
f  77//4 62//4 74//4
f  84//4 70//4 77//4
f  79//33 78//33 63//33
f  79//6 66//6 85//6
f  71//11 86//11 80//11
f  71//20 72//20 86//26
f  78//3 79//3 73//3
f  73//5 78//5 81//5
f  87//11 66//11 81//11
f  77//12 68//12 84//25
f  82//25 84//25 68//12
f  83//11 82//11 75//11
f  76//28 80//28 88//30
f  72//4 76//4 89//4
f  90//27 83//27 70//22
f  90//4 70//4 84//4
f  79//4 85//4 78//4
f  87//6 85//6 66//6
f  80//11 86//11 91//11
f  89//26 86//26 72//20
f  92//5 81//5 78//5
f  81//3 93//3 87//3
f  84//25 82//25 94//29
f  95//11 82//11 83//11
f  91//30 88//30 80//28
f  76//4 88//4 89//4
f  83//27 90//27 96//32
f  97//4 90//4 84//4
f  92//4 78//4 85//4
f  87//3 98//3 85//3
f  86//11 99//11 91//11
f  86//26 89//26 99//31
f  81//3 92//3 100//3
f  93//3 98//3 87//3
f  93//3 81//3 101//3
f  95//29 94//29 82//25
f  94//4 97//4 84//4
f  96//11 95//11 83//11
f  88//30 91//30 102//6
f  89//4 88//4 103//4
f  97//32 96//32 90//27
f  85//3 100//3 92//3
f  100//3 85//3 98//3
f  104//11 91//11 99//11
f  103//31 99//31 89//26
f  101//3 81//3 100//3
f  98//5 93//5 105//5
f  101//4 106//4 93//4
f  94//29 95//29 107//5
f  107//4 97//4 94//4
f  108//11 95//11 96//11
f  104//6 102//6 91//30
f  102//4 103//4 88//4
f  96//32 97//32 108//5
f  98//11 105//11 100//11
f  99//31 103//31 104//6
f  101//6 100//6 106//6
f  109//5 105//5 93//5
f  109//4 93//4 106//4
f  108//5 107//5 95//29
f  107//5 108//5 97//32
f  102//6 104//6 103//31
f  110//11 100//11 105//11
f  110//6 106//6 100//6
f  109//3 106//3 105//3
f  110//3 105//3 106//3

# Mesh 'mesh2_mesh2-geometry' with 2 faces
g mesh2_mesh2-geometry
usemtl material_3_24
f  105//10 106//10 109//10
f  106//10 105//10 110//10

