# File produced by Open Asset Import Library (http://www.assimp.sf.net)
# (assimp v3.2.202087883)

mtllib model_normalized.mtl

# 112 vertex positions
v 0.113679 -0.065280 -0.125099
v 0.454717 -0.065280 0.253280
v 0.113679 -0.065280 0.253280
v 0.454717 -0.065280 -0.125099
v 0.444660 -0.055223 0.253280
v 0.113679 -0.050919 0.253280
v 0.444660 -0.055223 -0.125099
v 0.454717 0.107226 -0.125099
v 0.444660 0.097170 0.253280
v 0.123736 -0.055223 0.253280
v 0.113679 -0.050919 -0.100759
v 0.113679 -0.022153 0.253280
v 0.123736 -0.055223 -0.125099
v 0.454717 0.107226 0.253280
v 0.444660 0.020973 0.253280
v 0.113679 0.020973 0.253280
v -0.113679 -0.050919 -0.100759
v 0.113679 0.020973 -0.125099
v -0.113679 -0.022153 0.253280
v 0.444660 0.097170 -0.125099
v 0.123736 0.031030 -0.125099
v 0.444660 0.107226 0.235871
v -0.454717 0.107226 0.253280
v 0.444660 0.020973 -0.091908
v 0.444660 -0.021069 0.253280
v 0.123736 0.031030 0.253280
v -0.113679 -0.050919 0.253280
v 0.109511 -0.046751 -0.100759
v 0.113679 -0.022153 -0.100759
v -0.454717 0.107226 -0.125099
v 0.444660 -0.021069 -0.091908
v 0.123736 -0.021069 -0.091908
v 0.444660 0.107226 -0.107689
v -0.444660 0.097170 0.253280
v 0.444660 0.097170 0.235871
v 0.123736 0.020973 0.253280
v 0.123736 -0.021069 0.253280
v -0.123736 0.031030 0.253280
v -0.113679 -0.065280 0.253280
v -0.109511 -0.046751 -0.100759
v -0.123736 0.031030 -0.125099
v -0.113679 0.020973 0.253280
v -0.113679 -0.022153 -0.100759
v -0.444660 0.097170 -0.125099
v -0.444660 0.107226 -0.107689
v 0.123736 0.020973 -0.091908
v -0.444660 0.107226 0.235871
v 0.444660 0.097170 -0.107689
v -0.444660 -0.055223 0.253280
v -0.444660 0.097170 0.235871
v -0.113679 -0.065280 -0.125099
v 0.109511 -0.026321 -0.100759
v -0.109511 -0.026321 -0.100759
v -0.109511 -0.046751 -0.098546
v -0.113679 0.020973 -0.125099
v -0.454717 -0.065280 -0.125099
v 0.438894 -0.015303 -0.091908
v 0.129503 0.015207 -0.091908
v -0.454717 -0.065280 0.253280
v -0.444660 -0.021069 0.253280
v -0.444660 0.020973 0.253280
v 0.438894 0.015207 -0.091908
v 0.109511 -0.026321 -0.098546
v 0.109511 -0.046751 -0.098546
v -0.123736 -0.055223 -0.125099
v -0.123736 0.020973 -0.091908
v -0.444660 0.097170 -0.107689
v -0.444660 -0.055223 -0.125099
v 0.129503 -0.015303 -0.091908
v -0.123736 -0.055223 0.253280
v -0.444660 -0.021069 -0.091908
v -0.109511 -0.026321 -0.098546
v -0.123736 -0.021069 -0.091908
v -0.123736 0.020973 0.253280
v 0.438894 0.015207 -0.087482
v 0.129503 -0.015303 -0.087482
v -0.123736 -0.021069 0.253280
v -0.129503 -0.015303 -0.091908
v -0.444660 0.020973 -0.091908
v 0.438894 -0.015303 -0.087482
v 0.129503 0.015207 -0.087482
v -0.102195 -0.039434 -0.100759
v 0.102195 -0.039434 -0.098546
v -0.102195 -0.039434 -0.098546
v -0.129503 0.015207 -0.091908
v -0.438894 0.015207 -0.091908
v 0.102195 -0.033638 -0.100759
v 0.102195 -0.033638 -0.098546
v -0.102195 -0.033638 -0.098546
v 0.102195 -0.039434 -0.100759
v -0.438894 -0.015303 -0.091908
v -0.129503 0.015207 -0.087482
v -0.102195 -0.033638 -0.100759
v -0.438894 -0.015303 -0.087482
v -0.129503 -0.015303 -0.087482
v 0.428346 -0.004754 -0.087482
v 0.428346 0.004658 -0.091908
v 0.428346 0.004658 -0.087482
v 0.140051 0.004658 -0.087482
v 0.140051 -0.004754 -0.091908
v 0.140051 -0.004754 -0.087482
v -0.438894 0.015207 -0.087482
v 0.428346 -0.004754 -0.091908
v 0.140051 0.004658 -0.091908
v -0.140051 -0.004754 -0.087482
v -0.140051 0.004658 -0.091908
v -0.140051 0.004658 -0.087482
v -0.428346 -0.004754 -0.091908
v -0.428346 -0.004754 -0.087482
v -0.140051 -0.004754 -0.091908
v -0.428346 0.004658 -0.087482
v -0.428346 0.004658 -0.091908

# 0 UV coordinates

# 6 vertex normals
vn 0 -1 0
vn 0 0 1
vn -1 0 0
vn 0 0 -1
vn 1 0 0
vn 0 1 0

# Mesh 'mesh1_mesh1-geometry' with 214 faces
g mesh1_mesh1-geometry
usemtl material_0_24
f  1//1 2//1 3//1
f  2//1 1//1 4//1
f  2//2 5//2 3//2
f  6//3 1//3 3//3
f  7//4 4//4 1//4
f  8//5 2//5 4//5
f  5//2 2//2 9//2
f  3//2 5//2 10//2
f  1//3 6//3 11//3
f  3//2 12//2 6//2
f  4//4 7//4 8//4
f  7//4 1//4 13//4
f  2//5 8//5 14//5
f  14//2 9//2 2//2
f  5//2 9//2 15//2
f  7//6 10//6 5//6
f  3//2 10//2 16//2
f  6//1 17//1 11//1
f  1//3 11//3 18//3
f  3//2 16//2 12//2
f  19//2 6//2 12//2
f  20//4 8//4 7//4
f  13//4 1//4 21//4
f  10//6 7//6 13//6
f  22//6 14//6 8//6
f  9//2 14//2 23//2
f  9//3 24//3 15//3
f  5//2 15//2 25//2
f  25//3 7//3 5//3
f  10//2 26//2 16//2
f  17//1 6//1 27//1
f  28//4 11//4 17//4
f  18//3 11//3 29//3
f  21//4 1//4 18//4
f  16//3 29//3 12//3
f  6//2 19//2 27//2
f  29//6 19//6 12//6
f  8//4 20//4 30//4
f  7//3 31//3 20//3
f  32//5 13//5 21//5
f  13//5 32//5 10//5
f  14//6 22//6 23//6
f  22//6 8//6 33//6
f  9//2 23//2 34//2
f  24//3 9//3 35//3
f  24//6 36//6 15//6
f  36//2 25//2 15//2
f  7//3 25//3 31//3
f  37//2 26//2 10//2
f  16//2 26//2 38//2
f  27//5 39//5 17//5
f  11//4 28//4 29//4
f  28//4 17//4 40//4
f  18//3 29//3 16//3
f  21//4 18//4 41//4
f  27//2 19//2 42//2
f  19//6 29//6 43//6
f  30//4 20//4 44//4
f  30//6 45//6 8//6
f  20//3 31//3 24//3
f  32//5 21//5 46//5
f  37//5 10//5 32//5
f  47//6 23//6 22//6
f  33//6 8//6 45//6
f  48//3 22//3 33//3
f  34//2 23//2 49//2
f  50//1 9//1 34//1
f  9//1 50//1 35//1
f  48//3 24//3 35//3
f  36//6 24//6 46//6
f  25//2 36//2 37//2
f  25//1 32//1 31//1
f  37//2 36//2 26//2
f  21//6 38//6 26//6
f  16//2 38//2 42//2
f  27//2 42//2 39//2
f  51//5 17//5 39//5
f  52//4 29//4 28//4
f  40//4 17//4 53//4
f  54//6 28//6 40//6
f  16//1 55//1 18//1
f  41//4 18//4 55//4
f  38//6 21//6 41//6
f  19//5 55//5 42//5
f  29//4 52//4 43//4
f  43//5 55//5 19//5
f  48//1 44//1 20//1
f  30//4 44//4 56//4
f  30//6 47//6 45//6
f  31//4 57//4 24//4
f  20//3 24//3 48//3
f  46//5 21//5 36//5
f  46//4 58//4 32//4
f  32//1 25//1 37//1
f  23//6 47//6 30//6
f  22//4 50//4 47//4
f  45//2 48//2 33//2
f  22//3 48//3 35//3
f  59//2 49//2 23//2
f  60//2 34//2 49//2
f  61//5 50//5 34//5
f  50//4 22//4 35//4
f  24//4 62//4 46//4
f  57//4 31//4 32//4
f  36//5 21//5 26//5
f  42//2 38//2 39//2
f  55//1 16//1 42//1
f  17//5 51//5 55//5
f  39//1 56//1 51//1
f  28//3 63//3 52//3
f  43//4 53//4 17//4
f  53//5 54//5 40//5
f  28//6 54//6 64//6
f  41//4 55//4 65//4
f  41//3 66//3 38//3
f  43//4 52//4 53//4
f  17//5 55//5 43//5
f  44//1 48//1 67//1
f  68//4 56//4 44//4
f  56//3 23//3 30//3
f  50//5 45//5 47//5
f  62//4 24//4 57//4
f  46//4 62//4 58//4
f  69//4 32//4 58//4
f  48//2 45//2 67//2
f  59//2 70//2 49//2
f  23//3 56//3 59//3
f  60//2 61//2 34//2
f  60//5 49//5 71//5
f  50//5 61//5 67//5
f  45//5 50//5 67//5
f  57//4 32//4 69//4
f  39//2 38//2 70//2
f  51//4 65//4 55//4
f  56//1 39//1 59//1
f  65//4 51//4 56//4
f  63//3 28//3 64//3
f  63//1 53//1 52//1
f  54//5 53//5 72//5
f  65//3 73//3 41//3
f  41//3 73//3 66//3
f  38//3 66//3 74//3
f  61//5 44//5 67//5
f  65//4 56//4 68//4
f  71//5 68//5 44//5
f  57//3 75//3 62//3
f  75//1 58//1 62//1
f  58//5 76//5 69//5
f  39//2 70//2 59//2
f  65//6 49//6 70//6
f  77//2 61//2 60//2
f  68//5 71//5 49//5
f  71//1 77//1 60//1
f  76//6 57//6 69//6
f  70//2 38//2 74//2
f  53//1 63//1 72//1
f  65//3 77//3 73//3
f  73//4 78//4 66//4
f  66//6 61//6 74//6
f  79//5 44//5 61//5
f  49//6 65//6 68//6
f  71//5 44//5 79//5
f  75//3 57//3 80//3
f  58//1 75//1 81//1
f  76//5 58//5 81//5
f  77//3 65//3 70//3
f  61//2 77//2 74//2
f  77//1 71//1 73//1
f  57//6 76//6 80//6
f  70//2 74//2 77//2
f  82//1 83//1 84//1
f  78//4 73//4 71//4
f  85//4 66//4 78//4
f  61//6 66//6 79//6
f  79//4 86//4 71//4
f  83//5 87//5 88//5
f  87//6 89//6 88//6
f  83//1 82//1 90//1
f  78//4 71//4 91//4
f  66//4 85//4 79//4
f  78//3 92//3 85//3
f  79//4 85//4 86//4
f  91//4 71//4 86//4
f  87//5 83//5 90//5
f  89//6 87//6 93//6
f  82//4 87//4 90//4
f  94//6 78//6 91//6
f  92//3 78//3 95//3
f  92//1 86//1 85//1
f  86//5 94//5 91//5
f  96//5 97//5 98//5
f  97//6 99//6 98//6
f  99//3 100//3 101//3
f  100//1 96//1 101//1
f  87//4 82//4 93//4
f  78//6 94//6 95//6
f  86//1 92//1 102//1
f  94//5 86//5 102//5
f  97//5 96//5 103//5
f  99//6 97//6 104//6
f  100//3 99//3 104//3
f  96//1 100//1 103//1
f  100//4 97//4 103//4
f  97//4 100//4 104//4
f  105//5 106//5 107//5
f  108//1 105//1 109//1
f  106//5 105//5 110//5
f  106//6 111//6 107//6
f  111//3 108//3 109//3
f  105//1 108//1 110//1
f  108//4 106//4 110//4
f  111//6 106//6 112//6
f  108//3 111//3 112//3
f  106//4 108//4 112//4

# Mesh 'mesh1_mesh1-geometry' with 266 faces
g mesh1_mesh1-geometry
usemtl material_1_24
f  3//6 2//6 1//6
f  4//6 1//6 2//6
f  3//4 5//4 2//4
f  3//5 1//5 6//5
f  1//2 4//2 7//2
f  4//3 2//3 8//3
f  9//4 2//4 5//4
f  10//4 5//4 3//4
f  11//5 6//5 1//5
f  6//4 12//4 3//4
f  8//2 7//2 4//2
f  13//2 1//2 7//2
f  14//3 8//3 2//3
f  2//4 9//4 14//4
f  15//4 9//4 5//4
f  5//1 10//1 7//1
f  16//4 10//4 3//4
f  11//6 17//6 6//6
f  18//5 11//5 1//5
f  12//4 16//4 3//4
f  12//4 6//4 19//4
f  7//2 8//2 20//2
f  21//2 1//2 13//2
f  13//1 7//1 10//1
f  8//1 14//1 22//1
f  23//4 14//4 9//4
f  15//5 24//5 9//5
f  25//4 15//4 5//4
f  5//5 7//5 25//5
f  16//4 26//4 10//4
f  27//6 6//6 17//6
f  17//2 11//2 28//2
f  29//5 11//5 18//5
f  18//2 1//2 21//2
f  12//5 29//5 16//5
f  27//4 19//4 6//4
f  12//1 19//1 29//1
f  30//2 20//2 8//2
f  20//5 31//5 7//5
f  21//3 13//3 32//3
f  10//3 32//3 13//3
f  23//1 22//1 14//1
f  33//1 8//1 22//1
f  34//4 23//4 9//4
f  35//5 9//5 24//5
f  15//1 36//1 24//1
f  15//4 25//4 36//4
f  31//5 25//5 7//5
f  10//4 26//4 37//4
f  38//4 26//4 16//4
f  17//3 39//3 27//3
f  29//2 28//2 11//2
f  40//2 17//2 28//2
f  16//5 29//5 18//5
f  41//2 18//2 21//2
f  42//4 19//4 27//4
f  43//1 29//1 19//1
f  44//2 20//2 30//2
f  8//1 45//1 30//1
f  24//5 31//5 20//5
f  46//3 21//3 32//3
f  32//3 10//3 37//3
f  22//1 23//1 47//1
f  45//1 8//1 33//1
f  33//5 22//5 48//5
f  49//4 23//4 34//4
f  34//6 9//6 50//6
f  35//6 50//6 9//6
f  35//5 24//5 48//5
f  46//1 24//1 36//1
f  37//4 36//4 25//4
f  31//6 32//6 25//6
f  26//4 36//4 37//4
f  26//1 38//1 21//1
f  42//4 38//4 16//4
f  39//4 42//4 27//4
f  39//3 17//3 51//3
f  28//2 29//2 52//2
f  53//2 17//2 40//2
f  40//1 28//1 54//1
f  18//6 55//6 16//6
f  55//2 18//2 41//2
f  41//1 21//1 38//1
f  42//3 55//3 19//3
f  43//2 52//2 29//2
f  19//3 55//3 43//3
f  20//6 44//6 48//6
f  56//2 44//2 30//2
f  45//1 47//1 30//1
f  24//2 57//2 31//2
f  48//5 24//5 20//5
f  36//3 21//3 46//3
f  32//2 58//2 46//2
f  37//6 25//6 32//6
f  30//1 47//1 23//1
f  47//2 50//2 22//2
f  33//4 48//4 45//4
f  35//5 48//5 22//5
f  23//4 49//4 59//4
f  49//4 34//4 60//4
f  34//3 50//3 61//3
f  35//2 22//2 50//2
f  46//2 62//2 24//2
f  32//2 31//2 57//2
f  26//3 21//3 36//3
f  39//4 38//4 42//4
f  42//6 16//6 55//6
f  55//3 51//3 17//3
f  51//6 56//6 39//6
f  52//5 63//5 28//5
f  17//2 53//2 43//2
f  40//3 54//3 53//3
f  64//1 54//1 28//1
f  65//2 55//2 41//2
f  38//5 66//5 41//5
f  53//2 52//2 43//2
f  43//3 55//3 17//3
f  67//6 48//6 44//6
f  44//2 56//2 68//2
f  30//5 23//5 56//5
f  47//3 45//3 50//3
f  57//2 24//2 62//2
f  58//2 62//2 46//2
f  58//2 32//2 69//2
f  67//4 45//4 48//4
f  49//4 70//4 59//4
f  59//5 56//5 23//5
f  34//4 61//4 60//4
f  71//3 49//3 60//3
f  67//3 61//3 50//3
f  67//3 50//3 45//3
f  69//2 32//2 57//2
f  70//4 38//4 39//4
f  55//2 65//2 51//2
f  59//6 39//6 56//6
f  56//2 51//2 65//2
f  64//5 28//5 63//5
f  52//6 53//6 63//6
f  72//3 53//3 54//3
f  83//4 64//4 54//4
f  54//2 64//2 83//2
f  41//5 73//5 65//5
f  66//5 73//5 41//5
f  74//5 66//5 38//5
f  67//3 44//3 61//3
f  68//2 56//2 65//2
f  44//3 68//3 71//3
f  62//5 75//5 57//5
f  62//6 58//6 75//6
f  69//3 76//3 58//3
f  59//4 70//4 39//4
f  70//1 49//1 65//1
f  60//4 61//4 77//4
f  49//3 71//3 68//3
f  60//6 77//6 71//6
f  69//1 57//1 76//1
f  74//4 38//4 70//4
f  64//4 83//4 63//4
f  63//2 83//2 64//2
f  72//6 63//6 53//6
f  72//4 89//4 54//4
f  54//2 89//2 72//2
f  83//4 54//4 84//4
f  84//2 54//2 83//2
f  73//5 77//5 65//5
f  66//2 78//2 73//2
f  74//1 61//1 66//1
f  61//3 44//3 79//3
f  68//1 65//1 49//1
f  79//3 44//3 71//3
f  80//5 57//5 75//5
f  81//6 75//6 58//6
f  81//3 58//3 76//3
f  70//5 65//5 77//5
f  74//4 77//4 61//4
f  73//6 71//6 77//6
f  80//1 76//1 57//1
f  77//4 74//4 70//4
f  88//4 63//4 83//4
f  83//2 63//2 88//2
f  63//4 88//4 72//4
f  72//2 88//2 63//2
f  72//4 88//4 89//4
f  89//2 88//2 72//2
f  84//4 54//4 89//4
f  89//2 54//2 84//2
f  84//6 83//6 82//6
f  71//2 73//2 78//2
f  78//2 66//2 85//2
f  79//1 66//1 61//1
f  71//2 86//2 79//2
f  80//4 96//4 75//4
f  75//2 96//2 80//2
f  75//4 98//4 81//4
f  81//2 98//2 75//2
f  81//4 99//4 76//4
f  76//2 99//2 81//2
f  96//4 80//4 76//4
f  76//2 80//2 96//2
f  88//3 87//3 83//3
f  88//1 89//1 87//1
f  89//3 82//3 84//3
f  84//5 82//5 89//5
f  90//6 82//6 83//6
f  91//2 71//2 78//2
f  79//2 85//2 66//2
f  85//5 92//5 78//5
f  86//2 85//2 79//2
f  86//2 71//2 91//2
f  98//4 75//4 96//4
f  96//2 75//2 98//2
f  81//4 98//4 99//4
f  99//2 98//2 81//2
f  101//4 76//4 99//4
f  99//2 76//2 101//2
f  96//4 76//4 101//4
f  101//2 76//2 96//2
f  90//3 83//3 87//3
f  93//1 87//1 89//1
f  82//3 89//3 93//3
f  93//5 89//5 82//5
f  90//2 87//2 82//2
f  91//1 78//1 94//1
f  95//5 78//5 92//5
f  85//6 86//6 92//6
f  91//3 94//3 86//3
f  98//3 97//3 96//3
f  98//1 99//1 97//1
f  101//5 100//5 99//5
f  101//6 96//6 100//6
f  93//2 82//2 87//2
f  95//1 94//1 78//1
f  95//4 105//4 92//4
f  92//2 105//2 95//2
f  102//6 92//6 86//6
f  102//3 86//3 94//3
f  103//3 96//3 97//3
f  104//1 97//1 99//1
f  104//5 99//5 100//5
f  103//6 100//6 96//6
f  105//4 95//4 94//4
f  94//2 95//2 105//2
f  107//4 92//4 105//4
f  105//2 92//2 107//2
f  92//4 107//4 102//4
f  102//2 107//2 92//2
f  102//4 111//4 94//4
f  94//2 111//2 102//2
f  103//2 97//2 100//2
f  104//2 100//2 97//2
f  105//4 94//4 109//4
f  109//2 94//2 105//2
f  107//3 106//3 105//3
f  102//4 107//4 111//4
f  111//2 107//2 102//2
f  109//4 94//4 111//4
f  111//2 94//2 109//2
f  109//6 105//6 108//6
f  110//3 105//3 106//3
f  107//1 111//1 106//1
f  109//5 108//5 111//5
f  110//6 108//6 105//6
f  110//2 106//2 108//2
f  112//1 106//1 111//1
f  112//5 111//5 108//5
f  112//2 108//2 106//2

# Mesh 'mesh1_mesh1-geometry' with 8 faces
g mesh1_mesh1-geometry
usemtl material_2_24
f  33//6 47//6 22//6
f  22//1 47//1 33//1
f  47//6 33//6 45//6
f  45//1 33//1 47//1
f  67//1 35//1 50//1
f  50//6 35//6 67//6
f  35//1 67//1 48//1
f  48//6 67//6 35//6

# Mesh 'mesh2_mesh2-geometry' with 4 faces
g mesh2_mesh2-geometry
usemtl material_1_0
l  63 64
l  72 63
l  64 54
l  54 72

# Mesh 'mesh3_mesh3-geometry' with 5 faces
g mesh3_mesh3-geometry
usemtl material_1_0
l  88 83
l  89 88
l  83 84
l  84 89
l  82 84

# Mesh 'mesh4_mesh4-geometry' with 4 faces
g mesh4_mesh4-geometry
usemtl material_1_0
l  81 75
l  76 81
l  75 80
l  80 76

# Mesh 'mesh5_mesh5-geometry' with 4 faces
g mesh5_mesh5-geometry
usemtl material_1_0
l  99 98
l  101 99
l  98 96
l  96 101

# Mesh 'mesh6_mesh6-geometry' with 4 faces
g mesh6_mesh6-geometry
usemtl material_1_0
l  92 95
l  102 92
l  95 94
l  94 102

# Mesh 'mesh7_mesh7-geometry' with 4 faces
g mesh7_mesh7-geometry
usemtl material_1_0
l  107 105
l  111 107
l  105 109
l  109 111

