# File produced by Open Asset Import Library (http://www.assimp.sf.net)
# (assimp v3.2.202087883)

mtllib model_normalized.mtl

# 70 vertex positions
v 0.131827 0.595492 0.113733
v -0.155464 0.595492 0.093454
v -0.155464 0.595492 0.113733
v 0.131827 0.595492 0.093454
v 0.131827 -0.215683 -0.173558
v 0.131827 -0.195403 -0.153278
v 0.131827 -0.215683 -0.153278
v 0.131827 0.169097 -0.153278
v 0.131827 0.189376 0.093454
v 0.131827 0.169097 0.093454
v 0.131827 0.189376 -0.173558
v 0.131827 -0.215683 0.093454
v 0.131827 -0.215683 0.113733
v 0.131827 -0.195403 0.093454
v -0.135184 0.189376 0.093454
v -0.155464 0.189376 0.093454
v -0.135184 0.575213 0.093454
v 0.111548 0.575213 0.093454
v 0.111548 0.189376 0.093454
v -0.155464 -0.216739 0.113733
v -0.155464 -0.216739 0.093454
v -0.155464 0.169097 0.093454
v -0.155464 0.189376 -0.173558
v -0.155464 0.169097 -0.153278
v -0.155464 -0.216739 -0.173558
v -0.155464 -0.216739 -0.153278
v 0.132200 -0.317079 0.113733
v 0.111548 -0.215757 0.113733
v 0.111921 -0.317153 0.113733
v 0.111548 0.169097 0.113733
v 0.111548 0.189376 0.113733
v -0.135184 0.169097 0.113733
v -0.135184 0.189376 0.113733
v 0.111548 0.575213 0.113733
v -0.135184 0.575213 0.113733
v -0.134812 -0.318060 0.113733
v -0.155091 -0.318135 0.113733
v -0.135184 -0.216664 0.113733
v 0.132200 -0.317079 0.093454
v 0.111548 -0.215757 0.093454
v 0.111921 -0.317153 0.093454
v 0.111548 -0.195403 0.093454
v 0.111548 0.169097 0.093454
v 0.111548 0.169097 -0.153278
v 0.111548 0.169097 -0.173558
v -0.135184 0.169097 -0.153278
v -0.135184 0.169097 -0.173558
v -0.135184 0.169097 0.093454
v 0.111548 -0.195403 -0.153278
v 0.132200 -0.317079 -0.153278
v 0.111548 -0.215757 -0.153278
v 0.111921 -0.317153 -0.153278
v 0.132200 -0.317079 -0.173558
v -0.134812 -0.318060 -0.173558
v -0.155091 -0.318135 -0.173558
v -0.135184 -0.216664 -0.173558
v 0.111548 -0.215757 -0.173558
v 0.111921 -0.317153 -0.173558
v 0.111548 0.189376 0.103171
v -0.135184 0.189376 0.103171
v -0.134812 -0.318060 0.093454
v -0.155091 -0.318135 0.093454
v -0.135184 -0.216664 0.093454
v -0.155091 -0.318135 -0.153278
v -0.134812 -0.318060 -0.153278
v -0.135184 -0.216664 -0.153278
v -0.135184 0.575213 0.103171
v 0.111548 0.575213 0.103171
v 0.131827 -0.216739 -0.153278
v 0.131827 -0.216739 0.093454

# 134 UV coordinates
vt 0 0 0
vt -0.283333 0.02 0
vt -0.283333 0 0
vt 0 0.02 0
vt 0.283333 8.39714e-36 0
vt 0.263333 0.02 0
vt 0.263333 -3.97139e-34 0
vt 0.263333 0.379479 0
vt 0.02 0.399479 0
vt 0.02 0.379479 0
vt 0.283333 0.399479 0
vt 0.02 -4.0435e-34 0
vt 0 0.8 0
vt 0.02 0.8 0
vt 0.02 0.02 0
vt 0.283333 0.8 0
vt 0.263333 0.399479 0
vt 0.263333 0.78 0
vt 0.02 0.78 0
vt -1.06053e-33 0.8 0
vt -1.06053e-33 0.399479 0
vt -0.02 0.8 0
vt 0 -0.00104167 0
vt -0.02 -0.00104167 0
vt -0.02 0.399479 0
vt -0.02 0.379479 0
vt -0.283333 0.399479 0
vt -0.263333 0.379479 0
vt -0.283333 -0.00104167 0
vt -0.263333 -0.00104167 0
vt 0.000367645 -0.0999993 0
vt -0.02 -7.35294e-05 0
vt -0.0196324 -0.100073 0
vt -0.263333 0.399479 0
vt -0.02 0.78 0
vt -0.263333 0.78 0
vt -0.262966 -0.100967 0
vt -0.282966 -0.101041 0
vt -0.263333 -0.000968137 0
vt -0.283333 0.8 0
vt 0.02 -0.1 0
vt 2.91776e-19 -0.1 0
vt 0.02 1.28395e-35 0
vt 0.02 -7.35294e-05 0
vt -0.000367645 -0.0999993 0
vt 0.0196324 -0.100073 0
vt 7.38108e-18 -1.11022e-17 0
vt 5.82073e-18 0.02 0
vt 5.84114e-18 0.02 0
vt -2.22045e-17 0.379479 0
vt -3.16949e-17 0.263333 0
vt 0.02 0.263333 0
vt -3.16949e-17 0.02 0
vt 0.02 0.283333 0
vt 0.263333 0.263333 0
vt 0.263333 0.283333 0
vt 0.263333 -2.97786e-17 0
vt 0.02 -2.97786e-17 0
vt 0.283333 0.02 0
vt 0.283333 0.263333 0
vt 6.43929e-16 0.379479 0
vt -0.02 0.02 0
vt 6.15884e-16 0.02 0
vt 4.19418e-16 -1.02347e-32 0
vt 4.20978e-16 0.02 0
vt 0.283333 -0.1 0
vt 0.263333 -1.54197e-18 0
vt 0.263333 -0.1 0
vt 0.283333 -1.54197e-18 0
vt 0.283333 -0.00104167 0
vt 0.262966 -0.100967 0
vt 0.282966 -0.101041 0
vt 0.263333 -0.000968137 0
vt 0 0.399479 0
vt -0.02 0.0104167 0
vt -0.263333 0.02 0
vt -0.263333 0.0104167 0
vt -0.283333 0.283333 0
vt 6.63758e-16 0.283333 0
vt 6.63758e-16 0.02 0
vt 0.283333 0.379479 0
vt -0.02 -4.55307e-16 0
vt -1.15151e-20 -0.1 0
vt 0 -4.55307e-16 0
vt -0.02 -0.1 0
vt -0.283333 -5.38921e-17 0
vt -0.263333 -0.1 0
vt -0.263333 -5.38921e-17 0
vt -0.283333 -0.1 0
vt -0.283333 0.379479 0
vt 0.02 -0.263335 0
vt 8.8744e-18 -0.283335 0
vt 0.02 -0.283335 0
vt 8.24797e-18 -0.263335 0
vt 1.15151e-20 -0.1 0
vt 0.02 -4.55423e-16 0
vt 0 -4.55423e-16 0
vt 0.02 -0.000968137 0
vt 0 0.379479 0
vt 0 -0.000968137 0
vt 0 -7.35294e-05 0
vt 0 -4.33681e-20 0
vt 2.52447e-19 -0.1 0
vt -0.02 -4.33681e-20 0
vt 0.02 1.59595e-17 0
vt -1.37332e-17 -0.0200001 0
vt 0.02 -0.0200001 0
vt 0 5.78241e-20 0
vt 0.283333 -0.000968137 0
vt -0.263333 -7.35294e-05 0
vt -0.283333 -7.35294e-05 0
vt -0.283333 -5.78241e-20 0
vt -0.263333 -5.78241e-20 0
vt 0.283333 2.08919e-16 0
vt 0.263333 -0.0200001 0
vt 0.283333 -0.0200001 0
vt 0.263333 2.23779e-16 0
vt 0.263333 -5.41234e-17 0
vt 0.283333 -5.41234e-17 0
vt 0.283333 -0.263335 0
vt 0.263333 -0.283335 0
vt 0.283333 -0.283335 0
vt 0.263333 -0.263335 0
vt 0.0104167 0.78 0
vt 0.0104167 0.399479 0
vt -0.0104167 0.399479 0
vt -0.0104167 0.78 0
vt 0 0.78 0
vt -0.02 0 0
vt -0.263333 0 0
vt 0.02 0.0104167 0
vt 0.263333 0 0
vt 0.263333 0.0104167 0
vt 0.02 0 0

# 28 vertex normals
vn 0 0.0254 0
vn 0.0254 3.47415e-19 5.50367e-20
vn -1.34687e-33 1.5255e-18 -0.0254
vn -0.0254 0 0
vn 0 0 0.0254
vn 0.0253998 9.33817e-05 3.75993e-17
vn 4.69735e-17 1.40997e-17 -0.0254
vn 4.69994e-17 -7.84459e-19 -0.0254
vn -1.84182e-18 -0.0254 1.9932e-18
vn 5.63993e-17 1.04595e-18 0.0254
vn 3.75995e-17 -9.87193e-34 0.0254
vn 0.0253998 9.33817e-05 -3.75993e-17
vn 0 0 -0.0254
vn -4.22036e-17 0.0254 -3.25199e-17
vn -6.10993e-17 1.28333e-34 -0.0254
vn -0.0253998 -9.33817e-05 -0
vn -5.64012e-17 9.88298e-19 0.0254
vn 9.33817e-05 -0.0253998 -2.92485e-21
vn 0.0253998 9.33817e-05 0
vn 0.0254 0 0
vn -0.0254 7.42971e-19 0
vn 9.33817e-05 -0.0253998 6.41216e-20
vn 9.33817e-05 -0.0253998 -6.88464e-20
vn 9.33817e-05 -0.0253998 -3.14983e-21
vn -0.0254 4.94054e-19 -2.85517e-35
vn -0.0254 4.94054e-19 0
vn -8.03497e-17 0.0254 0
vn 0 -0.0254 0

# Mesh 'SketchUp_ID2' with 122 faces
g SketchUp_ID2
usemtl material
f  1/1/1 2/2/1 3/3/1
f  2/2/1 1/1/1 4/4/1
f  5/5/2 6/6/2 7/7/2
f  6/6/2 5/5/2 8/8/2
f  8/8/2 9/9/2 10/10/2
f  9/9/2 8/8/2 11/11/2
f  11/11/2 8/8/2 5/5/2
f  12/12/2 1/13/2 13/1/2
f  1/13/2 12/12/2 4/14/2
f  4/14/2 12/12/2 14/15/2
f  4/14/2 14/15/2 10/10/2
f  4/14/2 10/10/2 9/9/2
f  2/16/3 15/17/3 16/11/3
f  15/17/3 2/16/3 17/18/3
f  17/18/3 2/16/3 18/19/3
f  19/9/3 4/20/3 9/21/3
f  4/20/3 19/9/3 18/19/3
f  4/20/3 18/19/3 2/16/3
f  2/22/4 20/23/4 3/13/4
f  20/23/4 2/22/4 21/24/4
f  21/24/4 2/22/4 16/25/4
f  21/24/4 16/25/4 22/26/4
f  23/27/4 22/26/4 16/25/4
f  22/26/4 23/27/4 24/28/4
f  24/28/4 25/29/4 26/30/4
f  25/29/4 24/28/4 23/27/4
f  27/31/5 28/32/5 29/33/5
f  28/32/5 27/31/5 13/1/5
f  28/32/5 13/1/5 30/26/5
f  30/26/5 13/1/5 1/13/5
f  30/26/5 1/13/5 31/25/5
f  30/26/5 31/25/5 32/28/5
f  32/28/5 31/25/5 33/34/5
f  31/25/5 1/13/5 34/35/5
f  34/35/5 1/13/5 35/36/5
f  36/37/5 20/29/5 37/38/5
f  20/29/5 36/37/5 38/39/5
f  20/29/5 38/39/5 3/40/5
f  3/40/5 38/39/5 32/28/5
f  3/40/5 32/28/5 33/34/5
f  3/40/5 33/34/5 35/36/5
f  3/40/5 35/36/5 1/13/5
f  39/41/6 13/1/6 27/42/6
f  13/1/6 39/41/6 12/43/6
f  40/44/7 39/45/7 41/46/7
f  39/45/7 40/44/7 12/47/7
f  12/47/7 40/44/7 42/15/7
f  12/47/7 42/15/7 14/48/7
f  43/10/8 14/49/7 42/15/7
f  14/49/7 43/10/8 10/50/8
f  8/51/9 43/15/9 44/52/9
f  43/15/9 8/51/9 10/53/9
f  45/54/9 46/55/9 47/56/9
f  46/55/9 45/54/9 48/6/9
f  48/6/9 45/54/9 32/57/9
f  32/57/9 45/54/9 44/52/9
f  32/57/9 44/52/9 30/58/9
f  30/58/9 44/52/9 43/15/9
f  46/55/9 22/59/9 24/60/9
f  22/59/9 46/55/9 48/6/9
f  8/61/10 49/62/10 6/63/10
f  49/62/10 8/61/10 44/26/10
f  50/31/11 51/32/11 52/33/11
f  51/32/11 50/31/11 7/64/11
f  51/32/11 7/64/11 49/62/11
f  49/62/11 7/64/11 6/65/11
f  53/66/12 7/67/12 50/68/12
f  7/67/12 53/66/12 5/69/12
f  25/70/13 54/71/13 55/72/13
f  54/71/13 25/70/13 56/73/13
f  56/73/13 25/70/13 23/11/13
f  56/73/13 23/11/13 47/8/13
f  47/8/13 23/11/13 45/10/13
f  57/44/13 53/45/13 58/46/13
f  53/45/13 57/44/13 5/1/13
f  5/1/13 57/44/13 45/10/13
f  5/1/13 45/10/13 11/74/13
f  11/74/13 45/10/13 23/11/13
f  59/75/14 15/76/14 60/77/14
f  15/76/14 23/78/14 16/2/14
f  23/78/14 15/76/14 11/79/14
f  11/79/14 15/76/14 19/62/14
f  19/62/14 15/76/14 59/75/14
f  11/79/14 19/62/14 9/80/14
f  21/70/15 61/71/15 62/72/15
f  61/71/15 21/70/15 63/73/15
f  63/73/15 21/70/15 22/81/15
f  63/73/15 22/81/15 48/8/15
f  21/82/16 37/83/16 20/84/16
f  37/83/16 21/82/16 62/85/16
f  25/86/16 64/87/16 26/88/16
f  64/87/16 25/86/16 55/89/16
f  65/37/17 26/29/17 64/38/17
f  26/29/17 65/37/17 66/39/17
f  26/29/17 66/39/17 24/90/17
f  24/90/17 66/39/17 46/28/17
f  61/91/18 37/92/18 62/93/18
f  37/92/18 61/91/18 36/94/18
f  36/95/19 63/96/19 38/97/19
f  63/96/19 36/95/19 61/41/19
f  63/98/20 32/99/20 38/100/20
f  32/99/20 63/98/20 48/10/20
f  43/26/21 28/101/21 30/99/21
f  28/101/21 43/26/21 42/62/21
f  40/32/21 28/101/21 42/62/21
f  28/102/16 41/85/16 29/103/16
f  41/85/16 28/102/16 40/104/16
f  39/105/22 29/106/22 41/107/22
f  29/106/22 39/105/22 27/108/22
f  56/109/20 46/8/20 66/73/20
f  46/8/20 56/109/20 47/81/20
f  45/90/4 49/76/4 44/28/4
f  49/76/4 45/90/4 51/110/4
f  51/110/4 45/90/4 57/111/4
f  57/112/16 52/87/16 51/113/16
f  52/87/16 57/112/16 58/89/16
f  53/114/23 52/115/23 58/116/23
f  52/115/23 53/114/23 50/117/23
f  54/66/19 66/118/19 65/68/19
f  66/118/19 54/66/19 56/119/19
f  54/120/24 64/121/24 55/122/24
f  64/121/24 54/120/24 65/123/24

# Mesh 'SketchUp_ID15' with 2 faces
g SketchUp_ID15
usemtl material_0
f  15/9/20 67/124/20 60/125/20
f  67/124/20 15/9/20 17/19/20

# Mesh 'SketchUp_ID28' with 6 faces
g SketchUp_ID28
usemtl material_0
f  18/35/25 59/126/25 68/127/25
f  59/126/25 18/35/25 19/25/25
f  68/127/26 31/74/26 34/128/26
f  31/74/26 68/127/26 59/126/26
f  31/129/27 60/77/27 33/130/27
f  60/77/27 31/129/27 59/75/27

# Mesh 'SketchUp_ID36' with 2 faces
g SketchUp_ID36
usemtl material_1
f  18//28 67//28 17//28
f  67//28 18//28 68//28

# Mesh 'SketchUp_ID36' with 2 faces
g SketchUp_ID36
usemtl material_2
f  68//1 18//1 67//1
f  17//1 67//1 18//1

# Mesh 'SketchUp_ID46' with 4 faces
g SketchUp_ID46
usemtl material_3
f  59/25/5 67/36/5 60/34/5
f  67/36/5 59/25/5 68/35/5
f  68/35/13 59/25/13 67/36/13
f  60/34/13 67/36/13 59/25/13

# Mesh 'SketchUp_ID59' with 4 faces
g SketchUp_ID59
usemtl material
f  68/131/28 35/132/28 67/133/28
f  35/132/28 68/131/28 34/134/28
f  60/125/20 35/128/20 33/74/20
f  35/128/20 60/125/20 67/124/20

# Mesh 'SketchUp_ID67' with 1 faces
g SketchUp_ID67
usemtl edge_color000255
l  7 69

# Mesh 'SketchUp_ID73' with 1 faces
g SketchUp_ID73
usemtl edge_color000255
l  12 70

