# File produced by Open Asset Import Library (http://www.assimp.sf.net)
# (assimp v3.2.202087883)

mtllib model_normalized.mtl

# 140 vertex positions
v 0.199691 -0.023100 0.199242
v 0.159232 -0.306309 0.235655
v 0.199691 -0.306309 0.235655
v 0.159232 -0.023100 0.199242
v 0.159232 -0.306309 0.203288
v 0.199691 -0.306309 0.203288
v 0.199691 0.057816 0.199242
v 0.199691 -0.023100 0.166875
v 0.159232 0.057816 0.199242
v 0.159232 0.057816 0.166875
v 0.159232 -0.023100 0.166875
v 0.199691 0.478583 0.235655
v 0.199691 0.478583 0.215425
v 0.159232 0.478583 0.235655
v 0.159232 0.478583 0.215425
v 0.199691 0.057816 0.166875
v -0.164434 -0.023100 0.199242
v -0.204892 -0.306309 0.235655
v -0.164434 -0.306309 0.235655
v -0.204892 -0.023100 0.199242
v -0.204892 -0.306309 0.203288
v -0.164434 -0.306309 0.203288
v -0.164434 0.057816 0.199242
v -0.164434 -0.023100 0.166875
v -0.204892 0.057816 0.199242
v -0.204892 0.057816 0.166875
v -0.204892 -0.023100 0.166875
v -0.164434 0.478583 0.235655
v -0.164434 0.478583 0.215425
v -0.204892 0.478583 0.235655
v -0.204892 0.478583 0.215425
v -0.164434 0.057816 0.166875
v -0.164434 0.041633 -0.193204
v -0.164434 -0.306309 -0.233662
v -0.164434 0.041633 -0.233662
v -0.164434 -0.306309 -0.193204
v -0.204892 0.041633 -0.233662
v -0.204892 -0.306309 -0.193204
v -0.204892 -0.306309 -0.233662
v -0.204892 0.041633 -0.193204
v 0.199691 0.041633 -0.193204
v 0.199691 -0.306309 -0.233662
v 0.199691 0.041633 -0.233662
v 0.199691 -0.306309 -0.193204
v 0.159232 0.041633 -0.233662
v 0.199691 -0.023100 -0.193204
v 0.159232 -0.306309 -0.193204
v 0.159232 -0.306309 -0.233662
v 0.159232 0.041633 -0.193204
v -0.164434 0.355687 0.221567
v 0.159232 0.358012 0.201475
v 0.159232 0.355687 0.221567
v -0.164434 0.358012 0.201475
v 0.159232 0.476258 0.235517
v -0.164434 0.476258 0.235517
v -0.164434 0.215016 0.205343
v 0.159232 0.217341 0.185252
v 0.159232 0.215016 0.205343
v -0.164434 0.217341 0.185252
v 0.159232 0.337911 0.199202
v 0.159232 0.335586 0.219293
v -0.164434 0.337911 0.199202
v -0.164434 0.335586 0.219293
v 0.199691 0.041633 0.166875
v 0.179462 0.041633 -0.193204
v 0.179462 -0.023100 0.166875
v 0.179462 -0.023100 -0.193204
v 0.179462 0.041633 0.166875
v 0.199691 0.057816 -0.225570
v 0.159232 0.041633 -0.213433
v -0.184663 0.041633 -0.193204
v 0.199691 0.057748 -0.226630
v 0.199691 0.049725 -0.233662
v 0.159232 -0.023100 -0.233662
v 0.159232 0.041633 0.166875
v 0.199691 0.057540 -0.227666
v -0.204892 0.057816 -0.225570
v 0.199691 0.050781 -0.233597
v 0.159232 -0.023100 -0.213433
v -0.164434 0.041633 -0.213433
v -0.164434 0.041633 0.166875
v 0.199691 0.057201 -0.228669
v -0.204892 0.057748 -0.226630
v 0.199691 0.051819 -0.233387
v -0.204892 0.049725 -0.233662
v -0.164434 -0.023100 -0.213433
v -0.164434 -0.023100 -0.233662
v -0.184663 0.041633 0.166875
v 0.159232 0.041633 0.187105
v 0.199691 0.056732 -0.229616
v -0.204892 0.057540 -0.227666
v 0.199691 0.052821 -0.233047
v -0.204892 0.050781 -0.233597
v -0.184663 -0.023100 -0.193204
v -0.164434 0.041633 0.187105
v 0.159232 0.041633 0.199242
v -0.164434 0.041633 0.199242
v 0.199691 0.056145 -0.230498
v -0.204892 0.057201 -0.228669
v 0.199691 0.053771 -0.232578
v -0.204892 0.051819 -0.233387
v -0.184663 -0.023100 0.166875
v -0.204892 0.041633 0.166875
v -0.164434 -0.023100 0.187105
v 0.159232 -0.023100 0.187105
v 0.199691 0.055446 -0.231291
v -0.204892 0.056732 -0.229616
v 0.199691 0.054651 -0.231995
v -0.204892 0.052821 -0.233047
v -0.204892 -0.023100 -0.193204
v -0.204892 0.056145 -0.230498
v -0.204892 0.053771 -0.232578
v -0.204892 0.054651 -0.231995
v -0.204892 0.055446 -0.231291
v 0.199691 -0.209209 0.190802
v 0.199691 -0.241575 -0.193204
v 0.199691 -0.209209 -0.193204
v 0.199691 -0.241575 0.194962
v 0.179462 -0.209209 -0.193204
v 0.179462 -0.209209 0.190802
v 0.179462 -0.241575 0.194962
v 0.179462 -0.241575 -0.193204
v 0.179462 -0.209209 -0.011319
v 0.179462 -0.241575 -0.011319
v 0.179462 -0.209209 0.008910
v 0.179462 -0.241575 0.008910
v -0.184663 -0.241575 -0.011319
v 0.179462 -0.241575 -0.001205
v 0.179462 -0.209209 -0.001205
v -0.184663 -0.209209 -0.011319
v -0.184663 -0.241575 0.008910
v -0.184663 -0.241575 -0.193204
v -0.184663 -0.209209 0.008910
v -0.204892 -0.241575 0.194962
v -0.184663 -0.209209 -0.193204
v -0.204892 -0.209209 -0.193204
v -0.184663 -0.241575 0.194962
v -0.184663 -0.209209 0.190802
v -0.204892 -0.241575 -0.193204
v -0.204892 -0.209209 0.190802

# 0 UV coordinates

# 46 vertex normals
vn 0 6.3891e-05 0.000997957
vn 0 0.000127522 0.000991836
vn -0 -0.000127522 -0.000991836
vn 0 -6.3891e-05 -0.000997957
vn 0 -0.001 0
vn 0 0.001 0
vn 0.001 0 0
vn -0.001 0 0
vn 0 -4.3148e-05 0.000999069
vn 0 4.3148e-05 -0.000999069
vn 0 -8.6216e-05 0.000996276
vn 0 8.6216e-05 -0.000996276
vn 0 0 -0.001
vn 0 0 0.001
vn 0 0.000114624 -0.000993409
vn 0 -0.000114624 0.000993409
vn 0 -0.000993373 -0.000114937
vn 0 0.000993373 0.000114937
vn 0 -0.000114937 0.000993373
vn 0 0.000114937 -0.000993373
vn 0 -0.000999465 3.2719e-05
vn 0 -3.2719e-05 0.000999465
vn 0 -0.000991445 0.000130526
vn 0 -0.000965926 0.000258819
vn 0 -0.000130526 0.000991445
vn 0 -0.00092388 0.000382683
vn 0 -0.000258819 0.000965926
vn 0 -0.000866025 0.0005
vn 0 -0.000382683 0.00092388
vn 0 -0.000793353 0.000608761
vn 0 -0.0005 0.000866025
vn 0 -0.000707107 0.000707107
vn 0 -0.000608761 0.000793353
vn 0 0.000999465 -3.2719e-05
vn 0 3.2719e-05 -0.000999465
vn 0 0.000991445 -0.000130526
vn 0 0.000965926 -0.000258819
vn 0 0.000130526 -0.000991445
vn 0 0.00092388 -0.000382683
vn 0 0.000258819 -0.000965926
vn 0 0.000866025 -0.0005
vn 0 0.000382683 -0.00092388
vn 0 0.000793353 -0.000608761
vn 0 0.0005 -0.000866025
vn 0 0.000707107 -0.000707107
vn 0 0.000608761 -0.000793353

# Mesh 'mesh1_mesh1-geometry' with 56 faces
g mesh1_mesh1-geometry
usemtl material_0_24
f  1//1 2//2 3//2
f  2//2 1//1 4//1
f  3//3 2//3 1//4
f  4//4 1//4 2//3
f  5//5 3//5 2//5
f  2//6 3//6 5//6
f  6//7 1//7 3//7
f  3//8 1//8 6//8
f  7//9 4//1 1//1
f  1//4 4//4 7//10
f  4//8 5//8 2//8
f  2//7 5//7 4//7
f  3//5 5//5 6//5
f  6//6 5//6 3//6
f  8//7 1//7 6//7
f  6//8 1//8 8//8
f  4//1 7//9 9//9
f  9//10 7//10 4//4
f  1//7 8//7 7//7
f  7//8 8//8 1//8
f  10//8 5//8 4//8
f  4//7 5//7 10//7
f  11//3 6//3 5//3
f  5//2 6//2 11//2
f  6//3 11//3 8//3
f  8//2 11//2 6//2
f  12//11 9//9 7//9
f  7//10 9//10 12//12
f  9//8 10//8 4//8
f  4//7 10//7 9//7
f  8//7 13//7 7//7
f  7//8 13//8 8//8
f  5//8 10//8 11//8
f  11//7 10//7 5//7
f  10//13 8//13 11//13
f  11//14 8//14 10//14
f  9//9 12//11 14//11
f  14//12 12//12 9//10
f  7//7 13//7 12//7
f  12//8 13//8 7//8
f  10//8 9//8 15//8
f  15//7 9//7 10//7
f  13//7 8//7 16//7
f  16//8 8//8 13//8
f  8//13 10//13 16//13
f  16//14 10//14 8//14
f  13//6 14//6 12//6
f  12//5 14//5 13//5
f  15//8 9//8 14//8
f  14//7 9//7 15//7
f  15//15 16//15 10//15
f  10//16 16//16 15//16
f  16//15 15//15 13//15
f  13//16 15//16 16//16
f  14//6 13//6 15//6
f  15//5 13//5 14//5

# Mesh 'mesh2_mesh2-geometry' with 22 faces
g mesh2_mesh2-geometry
usemtl material_0_0
l  4 2
l  9 4
l  2 3
l  2 5
l  14 9
l  1 3
l  3 6
l  11 5
l  5 6
l  14 12
l  15 14
l  7 1
l  8 6
l  10 11
l  11 8
l  12 7
l  13 12
l  15 13
l  15 10
l  16 8
l  10 16
l  13 16

# Mesh 'mesh3_mesh3-geometry' with 56 faces
g mesh3_mesh3-geometry
usemtl material_0_24
f  17//2 18//2 19//2
f  18//2 17//2 20//2
f  19//3 18//3 17//3
f  20//3 17//3 18//3
f  21//5 19//5 18//5
f  18//6 19//6 21//6
f  22//7 17//7 19//7
f  19//8 17//8 22//8
f  23//14 20//14 17//14
f  17//13 20//13 23//13
f  20//8 21//8 18//8
f  18//7 21//7 20//7
f  19//5 21//5 22//5
f  22//6 21//6 19//6
f  24//7 17//7 22//7
f  22//8 17//8 24//8
f  20//14 23//14 25//14
f  25//13 23//13 20//13
f  17//7 24//7 23//7
f  23//8 24//8 17//8
f  26//8 21//8 20//8
f  20//7 21//7 26//7
f  27//3 22//3 21//3
f  21//2 22//2 27//2
f  22//3 27//3 24//3
f  24//2 27//2 22//2
f  28//11 25//11 23//11
f  23//12 25//12 28//12
f  25//8 26//8 20//8
f  20//7 26//7 25//7
f  24//7 29//7 23//7
f  23//8 29//8 24//8
f  21//8 26//8 27//8
f  27//7 26//7 21//7
f  26//13 24//13 27//13
f  27//14 24//14 26//14
f  25//11 28//11 30//11
f  30//12 28//12 25//12
f  23//7 29//7 28//7
f  28//8 29//8 23//8
f  26//8 25//8 31//8
f  31//7 25//7 26//7
f  29//7 24//7 32//7
f  32//8 24//8 29//8
f  24//13 26//13 32//13
f  32//14 26//14 24//14
f  29//6 30//6 28//6
f  28//5 30//5 29//5
f  31//8 25//8 30//8
f  30//7 25//7 31//7
f  31//15 32//15 26//15
f  26//16 32//16 31//16
f  32//15 31//15 29//15
f  29//16 31//16 32//16
f  30//6 29//6 31//6
f  31//5 29//5 30//5

# Mesh 'mesh4_mesh4-geometry' with 22 faces
g mesh4_mesh4-geometry
usemtl material_0_0
l  20 18
l  25 20
l  18 19
l  18 21
l  30 25
l  17 19
l  19 22
l  27 21
l  21 22
l  30 28
l  31 30
l  23 17
l  24 22
l  26 27
l  27 24
l  28 23
l  29 28
l  31 29
l  31 26
l  32 24
l  26 32
l  29 32

# Mesh 'mesh5_mesh5-geometry' with 24 faces
g mesh5_mesh5-geometry
usemtl material_0_24
f  33//7 34//7 35//7
f  34//7 33//7 36//7
f  35//8 34//8 33//8
f  36//8 33//8 34//8
f  34//13 37//13 35//13
f  35//14 37//14 34//14
f  37//6 33//6 35//6
f  35//5 33//5 37//5
f  33//14 38//14 36//14
f  36//13 38//13 33//13
f  38//5 34//5 36//5
f  36//6 34//6 38//6
f  37//13 34//13 39//13
f  39//14 34//14 37//14
f  33//6 37//6 40//6
f  40//5 37//5 33//5
f  38//14 33//14 40//14
f  40//13 33//13 38//13
f  34//5 38//5 39//5
f  39//6 38//6 34//6
f  38//8 37//8 39//8
f  39//7 37//7 38//7
f  37//8 38//8 40//8
f  40//7 38//7 37//7

# Mesh 'mesh6_mesh6-geometry' with 28 faces
g mesh6_mesh6-geometry
usemtl material_0_24
f  41//7 42//7 43//7
f  42//7 41//7 44//7
f  43//8 42//8 41//8
f  44//8 41//8 42//8
f  42//13 45//13 43//13
f  43//14 45//14 42//14
f  45//6 41//6 43//6
f  43//5 41//5 45//5
f  44//7 41//7 46//7
f  46//8 41//8 44//8
f  47//5 42//5 44//5
f  44//6 42//6 47//6
f  45//13 42//13 48//13
f  48//14 42//14 45//14
f  41//6 45//6 49//6
f  49//5 45//5 41//5
f  49//14 46//14 41//14
f  41//13 46//13 49//13
f  46//14 47//14 44//14
f  44//13 47//13 46//13
f  42//5 47//5 48//5
f  48//6 47//6 42//6
f  47//8 45//8 48//8
f  48//7 45//7 47//7
f  45//8 47//8 49//8
f  49//7 47//7 45//7
f  47//14 46//14 49//14
f  49//13 46//13 47//13

# Mesh 'mesh7_mesh7-geometry' with 12 faces
g mesh7_mesh7-geometry
usemtl material_0_0
l  35 33
l  34 35
l  37 35
l  33 36
l  40 33
l  36 34
l  39 34
l  39 37
l  37 40
l  38 36
l  40 38
l  38 39

# Mesh 'mesh8_mesh8-geometry' with 13 faces
g mesh8_mesh8-geometry
usemtl material_0_0
l  43 41
l  42 43
l  45 43
l  41 46
l  49 41
l  44 42
l  48 42
l  48 45
l  45 49
l  46 44
l  49 47
l  47 44
l  47 48

# Mesh 'mesh9_mesh9-geometry' with 24 faces
g mesh9_mesh9-geometry
usemtl material_0_24
f  50//17 51//17 52//17
f  51//17 50//17 53//17
f  52//18 51//18 50//18
f  53//18 50//18 51//18
f  15//7 52//7 51//7
f  51//8 52//8 15//8
f  54//19 50//19 52//19
f  52//20 50//20 54//20
f  50//8 29//8 53//8
f  53//7 29//7 50//7
f  29//20 51//20 53//20
f  53//19 51//19 29//19
f  52//7 15//7 54//7
f  54//8 15//8 52//8
f  51//20 29//20 15//20
f  15//19 29//19 51//19
f  50//19 54//19 55//19
f  55//20 54//20 50//20
f  29//8 50//8 55//8
f  55//7 50//7 29//7
f  15//18 55//18 54//18
f  54//17 55//17 15//17
f  55//18 15//18 29//18
f  29//17 15//17 55//17

# Mesh 'mesh10_mesh10-geometry' with 12 faces
g mesh10_mesh10-geometry
usemtl material_0_0
l  51 15
l  53 51
l  52 51
l  29 15
l  15 54
l  50 53
l  53 29
l  54 52
l  50 52
l  29 55
l  55 54
l  55 50

# Mesh 'mesh11_mesh11-geometry' with 24 faces
g mesh11_mesh11-geometry
usemtl material_0_24
f  56//17 57//17 58//17
f  57//17 56//17 59//17
f  58//18 57//18 56//18
f  59//18 56//18 57//18
f  60//7 58//7 57//7
f  57//8 58//8 60//8
f  61//19 56//19 58//19
f  58//20 56//20 61//20
f  56//8 62//8 59//8
f  59//7 62//7 56//7
f  62//20 57//20 59//20
f  59//19 57//19 62//19
f  58//7 60//7 61//7
f  61//8 60//8 58//8
f  57//20 62//20 60//20
f  60//19 62//19 57//19
f  56//19 61//19 63//19
f  63//20 61//20 56//20
f  62//8 56//8 63//8
f  63//7 56//7 62//7
f  60//18 63//18 61//18
f  61//17 63//17 60//17
f  63//18 60//18 62//18
f  62//17 60//17 63//17

# Mesh 'mesh12_mesh12-geometry' with 12 faces
g mesh12_mesh12-geometry
usemtl material_0_0
l  57 60
l  59 57
l  58 57
l  62 60
l  60 61
l  56 59
l  59 62
l  61 58
l  56 58
l  62 63
l  63 61
l  63 56

# Mesh 'mesh13_mesh13-geometry' with 218 faces
g mesh13_mesh13-geometry
usemtl material_0_24
f  64//7 46//7 41//7
f  46//7 64//7 8//7
f  41//8 46//8 64//8
f  8//8 64//8 46//8
f  46//13 65//13 41//13
f  41//14 65//14 46//14
f  65//6 64//6 41//6
f  41//5 64//5 65//5
f  16//8 41//8 64//8
f  64//14 66//14 8//14
f  8//13 66//13 64//13
f  66//5 46//5 8//5
f  8//6 46//6 66//6
f  65//13 46//13 67//13
f  67//14 46//14 65//14
f  41//6 45//6 65//6
f  65//5 45//5 41//5
f  64//6 65//6 68//6
f  68//5 65//5 64//5
f  69//8 41//8 16//8
f  64//13 10//13 16//13
f  16//14 10//14 64//14
f  66//14 64//14 68//14
f  68//13 64//13 66//13
f  46//5 66//5 67//5
f  67//6 66//6 46//6
f  66//8 65//8 67//8
f  67//7 65//7 66//7
f  45//6 41//6 43//6
f  43//5 41//5 45//5
f  65//6 45//6 70//6
f  70//5 45//5 65//5
f  65//8 66//8 68//8
f  68//7 66//7 65//7
f  71//6 68//6 65//6
f  68//13 10//13 64//13
f  64//14 10//14 68//14
f  72//8 41//8 69//8
f  10//5 69//21 16//5
f  41//8 73//8 43//8
f  73//22 45//14 43//14
f  70//7 74//7 45//7
f  45//8 74//8 70//8
f  35//6 70//6 45//6
f  45//5 70//5 35//5
f  65//6 70//6 71//6
f  71//5 70//5 65//5
f  68//6 71//6 75//6
f  10//13 68//13 75//13
f  75//14 68//14 10//14
f  76//8 41//8 72//8
f  77//21 72//23 69//21
f  69//21 10//5 77//21
f  73//8 41//8 78//8
f  45//14 73//22 35//14
f  74//7 70//7 79//7
f  79//8 70//8 74//8
f  74//13 35//13 45//13
f  45//14 35//14 74//14
f  70//6 35//6 80//6
f  80//5 35//5 70//5
f  71//6 70//6 80//6
f  80//5 70//5 71//5
f  75//6 71//6 81//6
f  9//7 75//7 10//7
f  10//8 75//8 9//8
f  75//13 32//13 10//13
f  10//14 32//14 75//14
f  82//8 41//8 76//8
f  83//23 76//24 72//23
f  72//23 77//21 83//23
f  77//21 10//5 32//5
f  78//8 41//8 84//8
f  78//25 85//22 73//22
f  35//14 73//22 37//14
f  70//14 86//14 79//14
f  79//13 86//13 70//13
f  86//5 74//5 79//5
f  79//6 74//6 86//6
f  35//13 74//13 87//13
f  87//14 74//14 35//14
f  35//8 86//8 80//8
f  80//7 86//7 35//7
f  37//6 80//6 35//6
f  35//5 80//5 37//5
f  86//14 70//14 80//14
f  80//13 70//13 86//13
f  80//6 37//6 71//6
f  71//5 37//5 80//5
f  81//6 71//6 88//6
f  11//13 81//13 75//13
f  75//14 81//14 11//14
f  81//6 89//6 75//6
f  75//5 89//5 81//5
f  32//13 75//13 81//13
f  81//14 75//14 32//14
f  75//7 9//7 89//7
f  89//8 9//8 75//8
f  10//6 23//6 9//6
f  9//5 23//5 10//5
f  23//6 10//6 32//6
f  32//5 10//5 23//5
f  90//8 41//8 82//8
f  91//24 82//26 76//24
f  76//24 83//23 91//24
f  77//7 40//7 83//7
f  77//21 32//5 26//5
f  84//8 41//8 92//8
f  84//27 93//25 78//25
f  85//22 78//25 93//25
f  37//14 73//22 85//22
f  74//5 86//5 87//5
f  87//6 86//6 74//6
f  86//8 35//8 87//8
f  87//7 35//7 86//7
f  71//6 37//6 40//6
f  40//5 37//5 71//5
f  88//7 94//7 71//7
f  71//8 94//8 88//8
f  40//6 88//6 71//6
f  71//5 88//5 40//5
f  88//13 26//13 81//13
f  81//14 26//14 88//14
f  81//13 11//13 24//13
f  24//14 11//14 81//14
f  89//7 11//7 75//7
f  75//8 11//8 89//8
f  89//6 81//6 95//6
f  95//5 81//5 89//5
f  95//8 32//8 81//8
f  81//7 32//7 95//7
f  81//13 26//13 32//13
f  32//14 26//14 81//14
f  89//7 9//7 96//7
f  96//8 9//8 89//8
f  97//14 9//14 23//14
f  23//13 9//13 97//13
f  32//8 95//8 23//8
f  23//7 95//7 32//7
f  98//8 41//8 90//8
f  99//26 90//28 82//26
f  82//26 91//24 99//26
f  83//7 40//7 91//7
f  26//7 40//7 77//7
f  92//8 41//8 100//8
f  92//29 101//27 84//27
f  93//25 84//27 101//27
f  93//7 40//7 85//7
f  37//7 85//7 40//7
f  94//13 40//13 71//13
f  71//14 40//14 94//14
f  94//7 88//7 102//7
f  102//8 88//8 94//8
f  88//6 40//6 103//6
f  103//5 40//5 88//5
f  26//13 88//13 103//13
f  103//14 88//14 26//14
f  11//5 104//5 24//5
f  24//6 104//6 11//6
f  104//8 81//8 24//8
f  24//7 81//7 104//7
f  11//7 89//7 105//7
f  105//8 89//8 11//8
f  81//8 104//8 95//8
f  95//7 104//7 81//7
f  104//14 89//14 95//14
f  95//13 89//13 104//13
f  89//5 97//5 95//5
f  95//6 97//6 89//6
f  9//14 97//14 96//14
f  96//13 97//13 9//13
f  97//5 89//5 96//5
f  96//6 89//6 97//6
f  23//8 95//8 97//8
f  97//7 95//7 23//7
f  106//8 41//8 98//8
f  107//28 98//30 90//28
f  90//28 99//26 107//28
f  91//7 40//7 99//7
f  103//7 40//7 26//7
f  100//8 41//8 108//8
f  100//31 109//29 92//29
f  101//27 92//29 109//29
f  101//7 40//7 93//7
f  40//13 94//13 110//13
f  110//14 94//14 40//14
f  88//14 27//14 102//14
f  102//13 27//13 88//13
f  27//5 94//5 102//5
f  102//6 94//6 27//6
f  40//8 27//8 103//8
f  103//7 27//7 40//7
f  27//14 88//14 103//14
f  103//13 88//13 27//13
f  104//5 11//5 105//5
f  105//6 11//6 104//6
f  89//14 104//14 105//14
f  105//13 104//13 89//13
f  108//8 41//8 106//8
f  111//30 106//32 98//30
f  98//30 107//28 111//30
f  99//7 40//7 107//7
f  108//33 112//31 100//31
f  109//29 100//31 112//31
f  109//7 40//7 101//7
f  94//5 27//5 110//5
f  110//6 27//6 94//6
f  27//8 40//8 110//8
f  110//7 40//7 27//7
f  106//32 113//33 108//33
f  106//32 111//30 114//32
f  107//7 40//7 111//7
f  112//31 108//33 113//33
f  112//7 40//7 109//7
f  113//33 106//32 114//32
f  111//7 40//7 114//7
f  113//7 40//7 112//7
f  114//7 40//7 113//7

# Mesh 'mesh13_mesh13-geometry' with 66 faces
g mesh13_mesh13-geometry
usemtl material_1_24
f  64//7 41//7 16//7
f  16//7 41//7 69//7
f  65//5 68//5 71//5
f  69//7 41//7 72//7
f  16//6 69//34 10//6
f  43//7 73//7 41//7
f  43//13 45//13 73//35
f  75//5 71//5 68//5
f  72//7 41//7 76//7
f  69//34 72//36 77//34
f  77//34 10//6 69//34
f  78//7 41//7 73//7
f  35//13 73//35 45//13
f  81//5 71//5 75//5
f  76//7 41//7 82//7
f  72//36 76//37 83//36
f  83//36 77//34 72//36
f  32//6 10//6 77//34
f  84//7 41//7 78//7
f  73//35 85//35 78//38
f  37//13 73//35 35//13
f  88//5 71//5 81//5
f  82//7 41//7 90//7
f  76//37 82//39 91//37
f  91//37 83//36 76//37
f  83//8 40//8 77//8
f  26//6 32//6 77//34
f  92//7 41//7 84//7
f  78//38 93//38 84//40
f  93//38 78//38 85//35
f  85//35 73//35 37//13
f  90//7 41//7 98//7
f  82//39 90//41 99//39
f  99//39 91//37 82//39
f  91//8 40//8 83//8
f  77//8 40//8 26//8
f  100//7 41//7 92//7
f  84//40 101//40 92//42
f  101//40 84//40 93//38
f  85//8 40//8 93//8
f  40//8 85//8 37//8
f  98//7 41//7 106//7
f  90//41 98//43 107//41
f  107//41 99//39 90//41
f  99//8 40//8 91//8
f  26//8 40//8 103//8
f  108//7 41//7 100//7
f  92//42 109//42 100//44
f  109//42 92//42 101//40
f  93//8 40//8 101//8
f  106//7 41//7 108//7
f  98//43 106//45 111//43
f  111//43 107//41 98//43
f  107//8 40//8 99//8
f  100//44 112//44 108//46
f  112//44 100//44 109//42
f  101//8 40//8 109//8
f  108//46 113//46 106//45
f  114//45 111//43 106//45
f  111//8 40//8 107//8
f  113//46 108//46 112//44
f  109//8 40//8 112//8
f  114//45 106//45 113//46
f  114//8 40//8 111//8
f  112//8 40//8 113//8
f  113//8 40//8 114//8

# Mesh 'mesh14_mesh14-geometry' with 108 faces
g mesh14_mesh14-geometry
usemtl material_0_24
f  115//7 116//7 117//7
f  116//7 115//7 118//7
f  117//8 116//8 115//8
f  118//8 115//8 116//8
f  116//13 119//13 117//13
f  117//14 119//14 116//14
f  117//6 120//6 115//6
f  115//5 120//5 117//5
f  115//2 121//2 118//2
f  118//3 121//3 115//3
f  121//5 116//5 118//5
f  118//6 116//6 121//6
f  119//13 116//13 122//13
f  122//14 116//14 119//14
f  123//6 117//6 119//6
f  119//5 117//5 123//5
f  120//6 117//6 123//6
f  123//5 117//5 120//5
f  121//2 115//2 120//2
f  120//3 115//3 121//3
f  116//5 121//5 124//5
f  124//6 121//6 116//6
f  116//5 124//5 122//5
f  122//6 124//6 116//6
f  124//8 119//8 122//8
f  122//7 119//7 124//7
f  119//8 124//8 123//8
f  123//7 124//7 119//7
f  123//6 125//6 120//6
f  120//5 125//5 123//5
f  125//8 121//8 120//8
f  120//7 121//7 125//7
f  124//5 121//5 126//5
f  126//6 121//6 124//6
f  127//13 123//13 124//13
f  124//14 123//14 127//14
f  128//8 123//8 124//8
f  124//7 123//7 128//7
f  125//6 123//6 129//6
f  129//5 123//5 125//5
f  121//8 125//8 126//8
f  126//7 125//7 121//7
f  124//5 126//5 128//5
f  128//6 126//6 124//6
f  123//13 127//13 130//13
f  130//14 127//14 123//14
f  124//5 131//5 127//5
f  127//6 131//6 124//6
f  123//8 128//8 129//8
f  129//7 128//7 123//7
f  128//5 131//5 124//5
f  124//6 131//6 128//6
f  130//6 129//6 123//6
f  123//5 129//5 130//5
f  129//6 130//6 125//6
f  125//5 130//5 129//5
f  129//8 126//8 125//8
f  125//7 126//7 129//7
f  125//14 131//14 126//14
f  126//13 131//13 125//13
f  131//5 128//5 126//5
f  126//6 128//6 131//6
f  126//8 129//8 128//8
f  128//7 129//7 126//7
f  132//7 130//7 127//7
f  127//8 130//8 132//8
f  133//7 127//7 130//7
f  130//8 127//8 133//8
f  131//5 134//5 127//5
f  127//6 134//6 131//6
f  127//7 133//7 131//7
f  131//8 133//8 127//8
f  125//6 130//6 133//6
f  133//5 130//5 125//5
f  131//14 125//14 133//14
f  133//13 125//13 131//13
f  130//7 132//7 135//7
f  135//8 132//8 130//8
f  127//5 134//5 132//5
f  132//6 134//6 127//6
f  130//6 136//6 133//6
f  133//5 136//5 130//5
f  134//5 131//5 137//5
f  137//6 131//6 134//6
f  138//7 131//7 133//7
f  133//8 131//8 138//8
f  132//13 136//13 135//13
f  135//14 136//14 132//14
f  136//6 130//6 135//6
f  135//5 130//5 136//5
f  132//5 134//5 139//5
f  139//6 134//6 132//6
f  133//6 136//6 138//6
f  138//5 136//5 133//5
f  131//7 138//7 137//7
f  137//8 138//8 131//8
f  137//2 140//2 134//2
f  134//3 140//3 137//3
f  136//13 132//13 139//13
f  139//14 132//14 136//14
f  134//8 136//8 139//8
f  139//7 136//7 134//7
f  138//6 136//6 140//6
f  140//5 136//5 138//5
f  140//2 137//2 138//2
f  138//3 137//3 140//3
f  136//8 134//8 140//8
f  140//7 134//7 136//7

# Mesh 'mesh15_mesh15-geometry' with 53 faces
g mesh15_mesh15-geometry
usemtl material_0_0
l  41 46
l  41 64
l  41 65
l  46 8
l  46 67
l  64 8
l  64 68
l  65 68
l  65 67
l  65 71
l  8 66
l  67 66
l  68 66
l  68 75
l  94 71
l  71 88
l  40 71
l  11 75
l  10 75
l  75 89
l  75 81
l  102 94
l  110 94
l  88 102
l  88 103
l  81 88
l  110 40
l  37 40
l  40 103
l  24 11
l  11 105
l  9 10
l  32 10
l  105 89
l  89 96
l  95 89
l  81 24
l  81 95
l  32 81
l  27 102
l  27 110
l  103 27
l  103 26
l  24 104
l  104 105
l  96 9
l  23 9
l  23 32
l  26 32
l  97 96
l  95 104
l  95 97
l  97 23

# Mesh 'mesh16_mesh16-geometry' with 12 faces
g mesh16_mesh16-geometry
usemtl material_0_0
l  35 80
l  87 35
l  35 45
l  80 86
l  80 70
l  86 87
l  87 74
l  74 45
l  45 70
l  86 79
l  70 79
l  79 74

# Mesh 'mesh17_mesh17-geometry' with 43 faces
g mesh17_mesh17-geometry
usemtl material_0_0
l  116 118
l  116 117
l  116 122
l  115 118
l  118 121
l  117 115
l  117 119
l  122 124
l  122 119
l  115 120
l  120 121
l  126 121
l  119 123
l  124 127
l  123 124
l  124 128
l  125 120
l  131 126
l  125 126
l  128 126
l  123 129
l  123 130
l  130 127
l  131 127
l  127 132
l  129 128
l  129 125
l  133 125
l  137 131
l  133 131
l  135 130
l  130 133
l  132 135
l  139 132
l  133 138
l  138 137
l  134 137
l  136 135
l  139 136
l  134 139
l  140 138
l  140 134
l  136 140

