# Blender 4.4.3
# www.blender.org
o Console_B
v -1.086370 -0.546445 0.730182
v -0.965667 0.006574 0.868014
v -1.224203 -0.408612 0.730182
v -0.965667 0.155323 0.868014
v -1.086370 0.386589 0.730181
v -1.224203 0.248756 0.730181
v -1.086370 -0.546445 -1.212975
v -1.224203 -0.408612 -1.212975
v -1.086370 -0.408612 -1.350808
v -1.086370 0.386588 -1.212975
v -1.086370 0.248755 -1.350808
v -1.224203 0.248756 -1.212975
v 1.346617 -0.546445 0.730182
v 1.484450 -0.408612 0.730182
v 0.051677 0.006574 0.868014
v 1.346617 0.386589 0.730181
v 0.051677 0.155323 0.868014
v 1.484450 0.248756 0.730181
v 1.346617 -0.546445 -1.212975
v 1.346617 -0.408612 -1.350808
v 1.484450 -0.408612 -1.212975
v 1.346617 0.386588 -1.212975
v 1.484450 0.248756 -1.212975
v 1.346617 0.248755 -1.350808
v -1.086370 -0.408612 0.868014
v -1.086370 0.248756 0.868014
v 1.346617 0.248756 0.868014
v 1.346617 -0.408612 0.868014
v -0.817875 0.073012 0.821764
v -0.817875 0.088885 0.821764
v -0.096115 0.088885 0.821764
v -0.096115 0.073012 0.821764
v 0.133249 0.386589 0.730181
v 0.133249 0.248755 -1.350808
v 0.133249 0.386588 -1.212975
v 0.133249 0.248756 0.868014
vn -0.0000 0.5713 0.8207
vn 0.7071 -0.0000 -0.7071
vn -0.0000 1.0000 -0.0000
vn -1.0000 -0.0000 -0.0000
vn -0.5774 -0.5774 0.5773
vn -0.5774 0.5774 0.5774
vn -0.5774 -0.5774 -0.5774
vn -0.5774 0.5774 -0.5774
vn 0.5774 -0.5774 0.5773
vn 0.5774 0.5774 0.5773
vn 0.5774 -0.5774 -0.5773
vn 0.5774 0.5774 -0.5774
vn -0.7071 -0.7071 -0.0000
vn -0.0000 -0.0000 1.0000
vn -0.7071 0.7071 -0.0000
vn -0.0000 -0.0000 -1.0000
vn -0.0000 -0.7071 -0.7071
vn -0.0000 0.7071 -0.7071
vn -0.7071 -0.0000 -0.7071
vn 0.7071 -0.7071 -0.0000
vn 0.7071 0.7071 -0.0000
vn -0.0000 -0.7071 0.7071
vn -0.0000 0.7071 0.7071
vn -0.0000 -1.0000 -0.0000
vn -0.7071 -0.0000 0.7071
vn 1.0000 -0.0000 -0.0000
vn 0.2987 -0.0000 0.9544
vn -0.0000 -0.5713 0.8207
vn -0.2987 -0.0000 0.9544
vn 0.7071 -0.0000 0.7071
vt 0.480366 0.542681
vt 0.480366 0.732125
vt 0.467994 0.704604
vt 0.467994 0.570202
vt 0.748486 0.776178
vt 0.748486 0.816132
vt 0.613742 0.816132
vt 0.613742 0.776178
vt 0.026317 0.471927
vt 0.026317 0.249694
vt 0.382213 0.249694
vt 0.382213 0.471927
vt 0.953906 0.682309
vt 0.817761 0.682309
vt 0.817761 0.397742
vt 0.953906 0.397742
vt 0.583346 0.520204
vt 0.557679 0.520204
vt 0.557679 0.494538
vt 0.435268 0.520204
vt 0.409601 0.520204
vt 0.435268 0.494538
vt 0.982452 0.377557
vt 0.953906 0.357372
vt 0.789215 0.377557
vt 0.817761 0.357372
vt 0.583346 0.973261
vt 0.557679 0.998928
vt 0.557679 0.973261
vt 0.407457 0.471927
vt 0.382213 0.497171
vt 0.776738 0.796155
vt 0.585489 0.796155
vt 0.434603 0.467392
vt 0.787072 0.467392
vt 0.787072 0.492394
vt 0.434603 0.492394
vt 0.382213 0.026317
vt 0.026317 0.026317
vt 0.026317 0.001072
vt 0.382213 0.001072
vt 0.817761 0.178764
vt 0.817761 0.001072
vt 0.953906 0.001072
vt 0.434603 0.026073
vt 0.409601 0.467392
vt 0.409601 0.026073
vt 0.001072 0.249694
vt 0.001072 0.026317
vt 0.787072 0.026073
vt 0.434603 0.001072
vt 0.787072 0.001072
vt 0.026317 0.497171
vt 0.452666 0.542681
vt 0.407457 0.249694
vt 0.435268 0.973261
vt 0.452666 0.732125
vt 0.613742 0.494538
vt 0.748486 0.494538
vt 0.435268 0.747315
vt 0.465038 0.704604
vt 0.465038 0.570202
vt 0.001072 0.471927
vt 0.407457 0.026317
vt 0.435268 0.998928
s 1
f 2/1/1 15/2/1 32/3/1 29/4/1
f 21/5/2 20/6/2 24/7/2 23/8/2
f 22/9/3 35/10/3 33/11/3 16/12/3
f 3/13/4 6/14/4 12/15/4 8/16/4
f 1/17/5 25/18/5 3/19/5
f 26/20/6 5/21/6 6/22/6
f 7/23/7 8/16/7 9/24/7
f 10/25/8 11/26/8 12/15/8
f 13/27/9 14/28/9 28/29/9
f 16/12/10 27/30/10 18/31/10
f 19/32/11 20/6/11 21/5/11
f 22/33/12 23/8/12 24/7/12
f 7/34/13 1/35/13 3/36/13 8/37/13
f 2/1/14 25/18/14 28/29/14 15/2/14
f 5/38/15 10/39/15 12/40/15 6/41/15
f 9/24/16 11/26/16 34/42/16 24/43/16 20/44/16
f 19/45/17 7/34/17 9/46/17 20/47/17
f 10/39/18 35/10/18 34/48/18 11/49/18
f 9/24/19 8/16/19 12/15/19 11/26/19
f 13/50/20 19/45/20 21/51/20 14/52/20
f 22/9/21 16/12/21 18/31/21 23/53/21
f 26/20/14 25/18/14 2/1/14 4/54/14
f 1/17/22 13/27/22 28/29/22 25/18/22
f 16/12/23 33/11/23 36/55/23 27/30/23
f 7/34/24 19/45/24 13/50/24 1/35/24
f 28/29/14 27/56/14 17/57/14 15/2/14
f 26/20/25 6/22/25 3/19/25 25/18/25
f 21/5/26 23/8/26 18/58/26 14/59/26
f 4/54/14 17/57/14 27/56/14 36/60/14 26/20/14
f 32/3/14 31/61/14 30/62/14 29/4/14
f 4/54/27 2/1/27 29/4/27 30/62/27
f 17/57/28 4/54/28 30/62/28 31/61/28
f 15/2/29 17/57/29 31/61/29 32/3/29
f 34/48/18 35/10/18 22/9/18 24/63/18
f 33/11/3 35/10/3 10/39/3 5/38/3
f 36/55/23 33/11/23 5/38/23 26/64/23
f 28/29/30 14/28/30 18/65/30 27/56/30
