# File produced by Open Asset Import Library (http://www.assimp.sf.net)
# (assimp v3.2.202087883)

mtllib model_normalized.mtl

# 102 vertex positions
v -0.542970 0.073869 0.160434
v -0.512572 -0.128784 0.160434
v -0.542970 -0.128784 0.160434
v 0.386701 -0.128784 0.160434
v 0.386701 0.073869 0.160434
v 0.344076 0.073869 -0.125814
v 0.344076 0.086535 -0.125814
v 0.344076 0.073869 0.111531
v -0.512572 -0.019858 0.098865
v 0.328877 -0.019858 -0.072270
v -0.512572 -0.019858 0.088733
v -0.512572 0.073869 0.101398
v 0.326567 -0.011175 0.101398
v -0.512572 -0.019858 0.101398
v -0.512572 0.086535 0.101398
v 0.326567 0.077852 0.101398
v 0.344076 0.086535 0.111531
v 0.328877 0.086535 0.101398
v -0.512572 0.086535 0.111531
v -0.512572 -0.042296 0.088733
v -0.512572 -0.042296 -0.108701
v -0.512572 -0.019858 -0.072270
v 0.328877 -0.019858 0.101398
v 0.324668 -0.002392 0.101398
v 0.324668 0.069069 0.101398
v 0.328877 0.086535 -0.125814
v 0.328877 -0.020030 -0.076018
v 0.324668 -0.002392 -0.079734
v 0.323188 0.006470 0.101398
v 0.323188 0.060207 0.101398
v 0.324668 0.069069 -0.079734
v 0.326567 0.077852 -0.079734
v 0.328877 0.086535 -0.079734
v 0.328877 -0.042296 -0.108701
v 0.328877 -0.039027 -0.106860
v -0.512572 -0.020030 -0.076018
v 0.326567 -0.011175 -0.079734
v 0.322127 0.015393 0.101398
v 0.322127 0.051284 0.101398
v 0.323188 0.060207 -0.079734
v -0.512572 -0.039027 -0.106860
v -0.512572 -0.020546 -0.079734
v 0.328877 -0.020546 -0.079734
v 0.328877 -0.019858 -0.079734
v 0.323188 0.006470 -0.079734
v 0.321489 0.024356 0.101398
v 0.321489 0.042322 0.101398
v 0.322127 0.051284 -0.079734
v 0.328877 -0.035940 -0.104727
v -0.512572 -0.035940 -0.104727
v -0.512572 -0.021402 -0.083387
v 0.322127 0.015393 -0.079734
v 0.321277 0.033339 0.101398
v 0.321489 0.042322 -0.079734
v 0.328877 -0.021402 -0.083387
v 0.328877 -0.022589 -0.086947
v 0.328877 -0.033063 -0.102319
v -0.512572 -0.033063 -0.102319
v -0.512572 -0.022589 -0.086947
v 0.321489 0.024356 -0.079734
v 0.321277 0.033339 -0.079734
v 0.328877 -0.024099 -0.090382
v 0.328877 -0.030418 -0.099657
v -0.512572 -0.030418 -0.099657
v -0.512572 -0.024099 -0.090382
v 0.328877 -0.025918 -0.093663
v 0.328877 -0.028030 -0.096764
v -0.512572 -0.028030 -0.096764
v -0.512572 -0.025918 -0.093663
v -0.542970 -0.128784 0.111531
v -0.512572 -0.128784 0.111531
v -0.542970 0.073869 0.088733
v -0.512572 0.073869 0.111531
v 0.386701 0.073869 -0.138479
v 0.344076 -0.128784 -0.125814
v -0.542970 -0.128784 0.088733
v -0.512572 0.073869 0.088733
v 0.386701 -0.128784 -0.138479
v 0.344076 -0.128784 -0.138479
v -0.527771 -0.128784 -0.125814
v -0.527771 -0.128784 0.088733
v -0.527771 -0.042296 0.088733
v 0.328877 -0.042296 -0.125814
v 0.344076 0.073869 -0.138479
v -0.527771 -0.042296 -0.125814
v -0.512572 -0.042296 0.098865
v 0.215590 0.061155 0.090724
v 0.303082 -0.004659 -0.003664
v 0.196594 -0.004659 0.057818
v 0.322079 0.061155 0.029243
v 0.209754 -0.019858 0.080616
v 0.228755 0.045956 0.113523
v 0.316243 -0.019858 0.019135
v 0.335244 0.045956 0.052042
v -0.170647 -0.019858 0.048325
v -0.159154 0.054776 0.079902
v -0.161835 0.033636 0.101580
v -0.167962 0.001282 0.026647
v -0.280802 0.072546 0.082174
v -0.292295 -0.002088 0.050597
v -0.289614 0.019052 0.028919
v -0.283487 0.051406 0.103853

# 189 UV coordinates
vt 12.8506 1.66667 0
vt 12.6006 0 0
vt 12.8506 0 0
vt 5.20473 0 0
vt 5.20473 1.66667 0
vt -3.35869 1.66667 0
vt -3.35869 1.77083 0
vt -1.40671 1.66667 0
vt 12.6006 1.51088 0
vt 5.68027 2.91834 0
vt 12.6006 1.59421 0
vt -12.6006 1.66667 0
vt -5.69928 0.967245 0
vt -12.6006 0.895833 0
vt -12.6006 1.77083 0
vt -5.69928 1.69942 0
vt 5.55527 1.40671 0
vt 5.68027 1.49005 0
vt 12.6006 1.40671 0
vt -1.40671 1.77083 0
vt 12.6006 1.49005 0
vt 1.59421 0.711296 0
vt 1.59421 0.895833 0
vt 3.21795 0.711296 0
vt 12.6006 2.91834 0
vt -5.68027 0.895833 0
vt -5.71489 1.03947 0
vt -5.71489 1.62719 0
vt -5.68027 1.77083 0
vt 5.55527 3.35869 0
vt 5.68027 3.35869 0
vt 2.91834 0.895833 0
vt 0 6.92029 0
vt 0.030868 6.92029 0
vt 0 0 0
vt 1.49005 2.32677 0
vt 1.49005 2.40067 0
vt 2.91834 2.32677 0
vt 1.49005 2.22324 0
vt 2.97973 2.22324 0
vt 1.49005 2.14935 0
vt -5.72707 1.11236 0
vt -5.72707 1.5543 0
vt 1.49005 0.383246 0
vt 1.49005 0.457144 0
vt 2.97973 0.383246 0
vt 1.49005 0.17627 0
vt 1.49005 0.250168 0
vt 2.97973 0.17627 0
vt 5.68027 2.97973 0
vt 0.370414 6.92029 0
vt 0.370414 0 0
vt 0.339546 6.92029 0
vt 2.94916 0.894414 0
vt 0.030868 0 0
vt 2.97973 2.40067 0
vt 2.97973 2.14935 0
vt 1.49005 1.96703 0
vt 1.49005 2.04093 0
vt 2.97973 1.96703 0
vt -5.73579 1.18574 0
vt -5.73579 1.48092 0
vt 1.49005 0.589282 0
vt 1.49005 0.66318 0
vt 2.97973 0.589282 0
vt 2.97973 0.457144 0
vt 2.97973 0.66318 0
vt 2.97973 0.250168 0
vt 0.339546 0 0
vt 2.97973 0.890169 0
vt 0.061736 6.92029 0
vt 2.97973 2.32677 0
vt 2.97973 2.04093 0
vt 1.49005 1.78023 0
vt 1.49005 1.85413 0
vt 2.97973 1.78023 0
vt -5.74103 1.25946 0
vt -5.74103 1.40721 0
vt 1.49005 0.793918 0
vt 1.49005 0.867816 0
vt 2.97973 0.793918 0
vt 2.97973 0.867816 0
vt 0.308678 6.92029 0
vt 3.20282 0.738185 0
vt 3.18527 0.76357 0
vt 3.00977 0.883134 0
vt 0.061736 0 0
vt 2.97973 1.85413 0
vt 1.49005 1.58937 0
vt 1.49005 1.66326 0
vt 2.97973 1.58937 0
vt -5.74277 1.33333 0
vt 1.49005 0.996695 0
vt 1.49005 1.07059 0
vt 2.97973 0.996695 0
vt 2.97973 1.07059 0
vt 0.092604 6.92029 0
vt 0.123471 6.92029 0
vt 0.092604 0 0
vt 0.308678 0 0
vt 0.277811 6.92029 0
vt 3.16547 0.787235 0
vt 3.03904 0.873368 0
vt 2.97973 1.66326 0
vt 1.49005 1.39486 0
vt 1.49005 1.46876 0
vt 2.97973 1.39486 0
vt 1.49005 1.19716 0
vt 1.49005 1.27106 0
vt 2.97973 1.19716 0
vt 2.97973 1.27106 0
vt 0.123471 0 0
vt 0.154339 6.92029 0
vt 0.246943 6.92029 0
vt 0.246943 0 0
vt 0.277811 0 0
vt 3.14358 0.808981 0
vt 3.06729 0.860954 0
vt 2.97973 1.46876 0
vt 0.154339 0 0
vt 0.185207 6.92029 0
vt 0.216075 6.92029 0
vt 0.216075 0 0
vt 3.11978 0.828624 0
vt 3.09428 0.845998 0
vt 0.185207 0 0
vt -12.6006 1.00452 0
vt -12.8506 1.40671 0
vt -12.8506 1.00452 0
vt 1.00452 0 0
vt 1.00452 1.66667 0
vt 1.40671 0 0
vt -5.20473 1.00452 0
vt -12.6006 1.40671 0
vt 1.59421 1.66667 0
vt 5.20473 1.00452 0
vt 12.8506 1.00452 0
vt -3.46286 1.66667 0
vt -1.00452 0 0
vt -1.00452 1.66667 0
vt -5.55527 3.35869 0
vt -12.8506 1.59421 0
vt 1.59421 0 0
vt 12.8506 1.59421 0
vt -3.46286 0 0
vt 5.20473 3.46286 0
vt -5.55527 3.46286 0
vt -12.7256 3.35869 0
vt -12.7256 1.59421 0
vt -12.8506 1.66667 0
vt -12.7256 0.711296 0
vt -12.8506 -0 0
vt 12.6006 1.66667 0
vt 5.55527 1.66667 0
vt 12.6006 1.77083 0
vt -5.20473 0 0
vt -5.55527 0 0
vt -5.20473 1.66667 0
vt -5.20473 3.46286 0
vt 3.35869 -0 0
vt 3.35869 1.66667 0
vt 3.46286 0 0
vt -12.7256 -0 0
vt -5.68027 0.711296 0
vt -1.59421 0.895833 0
vt -1.59421 1.66667 0
vt -1.51088 0.895833 0
vt -1.49005 1.66667 0
vt -1.49005 0.895833 0
vt 1.49005 1.77083 0
vt 1.40671 1.66667 0
vt 1.49005 1.66667 0
vt 5.55527 1.77083 0
vt 1.40671 1.77083 0
vt -5.55527 1.66667 0
vt 5.55527 3.46286 0
vt 3.46286 1.66667 0
vt -12.6006 0.711296 0
vt 1.51088 0.895833 0
vt -5.55527 1.77083 0
vt 3.35869 0.711296 0
vt 12.7256 3.35869 0
vt 12.6006 3.21795 0
vt 12.7256 1.59421 0
vt 1.51088 0.711296 0
vt 3.35869 1.77083 0
vt 5.68027 3.21795 0
vt 2.97973 0.895833 0
vt 2.97973 1.77083 0

# 102 vertex normals
vn 0 0 -0.0254
vn 0.0254 0 0
vn 0 0.0254 0
vn -0.0123197 0.0222046 -0.000586283
vn 0 0.0179605 -0.0179605
vn -0.0130931 0.017034 -0.0135489
vn -0.0254 -0 0
vn 0 0.0253933 -0.0005842
vn -0.0155689 0.0119669 -0.016111
vn 0 0.0252926 -0.00233368
vn -0.024693 -0.00595114 0
vn -0.0249468 -0.00477695 0
vn -0.0223118 -0.00427241 -0.0113618
vn -0.0249468 0.00477695 0
vn -0.024693 0.00595114 0
vn -0.0223118 0.00427241 -0.0113618
vn -0.0220848 0.00532257 -0.0113618
vn 0 0.0124599 -0.0221339
vn 0 0.0134646 -0.0215375
vn -0.0220848 -0.00532257 -0.0113618
vn -0.0251447 -0.00359209 0
vn -0.0251447 0.00359209 0
vn -0.0224889 0.00321269 -0.0113618
vn 0 0.0249712 -0.00464762
vn -0.0173562 -0.0046198 -0.0179605
vn -0.0224889 -0.00321269 -0.0113618
vn -0.0252864 -0.00239921 0
vn -0.0252864 0.00239921 0
vn -0.0226156 0.00214579 -0.0113618
vn 0 0.0153865 -0.0202093
vn -0.0226156 -0.00214579 -0.0113618
vn -0.0253716 -0.00120094 0
vn -0.0253716 0.00120094 0
vn -0.0226918 0.00107409 -0.0113618
vn 0 0.0244386 -0.00692224
vn 0 0.0236992 -0.00913831
vn 0 0.0171781 -0.0187102
vn -0.0226918 -0.00107409 -0.0113618
vn -0.0227172 0 -0.0113618
vn 0 0.0227593 -0.0112771
vn 0 0.0188245 -0.0170528
vn 0 0.021627 -0.0133204
vn 0 0.0203117 -0.0152511
vn -0 -0 0.0254
vn -0 -0.0254 0
vn -0.0179605 0.0179605 0
vn 0.0179605 -0.0179605 0
vn 0.0123197 -0.0222046 0.000586283
vn -0 -0.0179605 0.0179605
vn 0.0130931 -0.017034 0.0135489
vn -0 -0.0253933 0.0005842
vn 0.0155689 -0.0119669 0.016111
vn 0 -0.0252926 0.00233368
vn 0.024693 0.00595114 0
vn 0.0223118 0.00427241 0.0113618
vn 0.0249468 0.00477695 0
vn 0.0223118 -0.00427241 0.0113618
vn 0.024693 -0.00595114 0
vn 0.0249468 -0.00477695 0
vn 0.0220848 -0.00532257 0.0113618
vn -0 -0.0134646 0.0215375
vn -0 -0.0124599 0.0221339
vn 0.0220848 0.00532257 0.0113618
vn 0.0251447 0.00359209 0
vn 0.0224889 -0.00321269 0.0113618
vn 0.0251447 -0.00359209 0
vn 0 -0.0249712 0.00464762
vn 0.0173562 0.0046198 0.0179605
vn 0.0224889 0.00321269 0.0113618
vn 0.0252864 0.00239921 0
vn 0.0226156 -0.00214579 0.0113618
vn 0.0252864 -0.00239921 0
vn 0 -0.0153865 0.0202093
vn 0.0226156 0.00214579 0.0113618
vn 0.0253716 0.00120094 0
vn 0.0226918 -0.00107409 0.0113618
vn 0.0253716 -0.00120094 0
vn 0 -0.0244386 0.00692224
vn 0 -0.0236992 0.00913831
vn 0 -0.0171781 0.0187102
vn 0.0226918 0.00107409 0.0113618
vn 0.0227172 0 0.0113618
vn 0 -0.0227593 0.0112771
vn 0 -0.0188245 0.0170528
vn 0 -0.021627 0.0133204
vn 0 -0.0203117 0.0152511
vn -0.0153838 0.0200323 0.00268382
vn 0.00268382 -0.00536766 -0.0246809
vn -0.0227162 -0.00536766 -0.0100162
vn 0.0100162 0.0200323 -0.0119809
vn -0.0100162 -0.0200323 0.0119809
vn -0.00268382 0.00536766 0.0246809
vn 0.0153838 -0.0200323 -0.00268382
vn 0.0227162 0.00536766 0.0100162
vn 0.011514 -0.0226402 -8.94588e-05
vn 0.0175024 0.0184016 -0.000452577
vn 0.0149137 -0.00199499 0.0204637
vn 0.0141027 -0.00224356 -0.0210057
vn -0.011514 0.0226402 8.94588e-05
vn -0.0175024 -0.0184016 0.000452577
vn -0.0149137 0.00199499 -0.0204637
vn -0.0141027 0.00224356 0.0210057

# Mesh 'mesh1_mesh1-geometry' with 101 faces
g mesh1_mesh1-geometry
usemtl material_0_1_8
f  1/1/1 2/2/1 3/3/1
f  2/2/1 1/1/1 4/4/1
f  4/4/1 1/1/1 5/5/1
f  6/6/2 7/7/2 8/8/2
f  9/9/3 10/10/4 11/11/3
f  12/12/1 13/13/1 14/14/5
f  15/15/5 16/16/1 12/12/1
f  17/17/3 18/18/6 19/19/3
f  17/20/2 8/8/2 7/7/2
f  15/21/5 19/19/3 18/18/6
f  20/22/7 11/23/7 21/24/7
f  14/21/5 10/10/4 9/9/3
f  22/25/8 11/11/3 10/10/4
f  23/26/9 14/14/5 13/13/1
f  24/27/1 13/13/1 12/12/1
f  16/16/1 25/28/1 12/12/1
f  18/29/6 16/16/1 15/15/5
f  7/30/3 18/18/6 17/17/3
f  7/30/3 26/31/3 18/18/6
f  22/32/7 21/24/7 11/23/7
f  23/18/9 10/10/4 14/21/5
f  10/33/4 27/34/10 22/35/8
f  23/36/9 13/37/11 10/38/4
f  24/39/12 28/40/13 13/41/11
f  29/42/1 24/27/1 12/12/1
f  25/28/1 30/43/1 12/12/1
f  25/44/14 16/45/15 31/46/16
f  16/47/15 18/48/6 32/49/17
f  33/50/6 18/18/6 26/31/3
f  34/51/18 21/52/18 35/53/19
f  36/54/7 21/24/7 22/32/7
f  36/55/10 22/35/8 27/34/10
f  37/56/20 10/38/4 13/37/11
f  37/57/20 13/41/11 28/40/13
f  24/58/12 29/59/21 28/60/13
f  38/61/1 29/42/1 12/12/1
f  30/43/1 39/62/1 12/12/1
f  30/63/22 25/64/14 40/65/23
f  32/66/17 31/46/16 16/45/15
f  31/67/16 40/65/23 25/64/14
f  33/68/6 32/49/17 18/48/6
f  41/69/19 35/53/19 21/52/18
f  42/70/7 21/24/7 36/54/7
f  27/34/10 43/71/24 36/55/10
f  44/72/25 10/38/4 37/56/20
f  28/27/13 33/29/6 37/13/20
f  45/73/26 28/60/13 29/59/21
f  29/74/21 38/75/27 45/76/26
f  46/77/1 38/61/1 12/12/1
f  39/62/1 47/78/1 12/12/1
f  39/79/28 30/80/22 48/81/29
f  40/82/23 48/81/29 30/80/22
f  32/16/17 33/29/6 31/28/16
f  31/28/16 33/29/6 40/43/23
f  35/53/19 41/69/19 49/83/30
f  41/84/7 21/24/7 50/85/7
f  51/86/7 21/24/7 42/70/7
f  42/87/24 36/55/10 43/71/24
f  44/26/25 37/13/20 33/29/6
f  45/42/26 33/29/6 28/27/13
f  52/88/31 45/76/26 38/75/27
f  38/89/27 46/90/32 52/91/31
f  53/92/1 46/77/1 12/12/1
f  47/78/1 53/92/1 12/12/1
f  47/93/33 39/94/28 54/95/34
f  48/96/29 54/95/34 39/94/28
f  40/43/23 33/29/6 48/62/29
f  55/97/35 56/98/36 51/99/35
f  49/83/30 50/100/30 57/101/37
f  50/100/30 49/83/30 41/69/19
f  50/85/7 21/24/7 58/102/7
f  59/103/7 21/24/7 51/86/7
f  51/99/35 42/87/24 55/97/35
f  43/71/24 55/97/35 42/87/24
f  52/61/31 33/29/6 45/42/26
f  60/104/38 52/91/31 46/90/32
f  46/105/32 53/106/7 60/107/38
f  53/108/7 47/109/33 61/110/39
f  54/111/34 61/110/39 47/109/33
f  48/62/29 33/29/6 54/78/34
f  59/112/36 51/99/35 56/98/36
f  56/98/36 62/113/40 59/112/36
f  63/114/41 57/101/37 64/115/41
f  58/116/37 57/101/37 50/100/30
f  58/102/7 21/24/7 64/117/7
f  65/118/7 21/24/7 59/103/7
f  60/77/38 33/29/6 52/61/31
f  61/119/39 60/107/38 53/106/7
f  54/78/34 33/29/6 61/92/39
f  65/120/40 59/112/36 62/113/40
f  62/113/40 66/121/42 65/120/40
f  67/122/43 63/114/41 68/123/43
f  58/116/37 64/115/41 57/101/37
f  64/115/41 68/123/43 63/114/41
f  64/117/7 21/24/7 68/124/7
f  69/125/7 21/24/7 65/118/7
f  61/92/39 33/29/6 60/77/38
f  69/126/42 65/120/40 66/121/42
f  66/121/42 67/122/43 69/126/42
f  68/123/43 69/126/42 67/122/43
f  68/124/7 21/24/7 69/125/7

# Mesh 'mesh1_mesh1-geometry' with 95 faces
g mesh1_mesh1-geometry
usemtl material_1_2_8
f  3/3/44 2/2/44 1/1/44
f  4/4/44 1/1/44 2/2/44
f  2/127/3 70/128/3 3/129/3
f  3/129/45 70/128/45 2/127/45
f  3/130/7 1/131/7 70/132/7
f  5/5/44 1/1/44 4/4/44
f  4/133/46 71/134/3 2/127/3
f  70/128/3 2/127/3 71/134/3
f  71/134/45 2/127/45 70/128/45
f  72/135/7 70/132/7 1/131/7
f  5/136/3 73/19/3 1/137/3
f  74/138/7 4/139/46 5/140/7
f  5/140/2 4/139/47 74/138/2
f  71/134/3 4/133/46 75/141/3
f  71/134/3 76/142/3 70/128/3
f  76/143/7 70/132/7 72/135/7
f  72/144/3 1/137/3 77/11/3
f  73/19/3 77/11/3 1/137/3
f  8/17/3 73/19/3 5/136/3
f  4/139/46 74/138/7 78/145/46
f  78/145/47 74/138/2 4/139/47
f  74/146/3 8/17/3 5/136/3
f  75/141/3 4/133/46 79/147/3
f  80/148/3 71/134/3 75/141/3
f  76/142/3 71/134/3 81/149/3
f  72/150/1 82/151/1 76/152/1
f  77/12/1 11/14/1 72/150/1
f  12/21/3 77/11/3 73/19/3
f  73/153/44 8/154/44 19/155/44
f  78/156/1 79/157/1 74/158/1
f  79/147/3 4/133/46 78/159/46
f  8/17/3 74/146/3 6/30/3
f  75/160/7 6/161/7 79/162/7
f  81/149/3 71/134/3 80/148/3
f  80/163/1 83/164/1 75/157/1
f  81/163/1 76/152/1 82/151/1
f  11/14/1 82/151/1 72/150/1
f  11/165/2 77/166/2 9/167/2
f  12/168/2 14/169/2 77/166/2
f  15/170/2 73/171/2 12/172/2
f  12/172/7 73/171/7 15/170/7
f  17/173/44 19/155/44 8/154/44
f  73/171/2 15/170/2 19/174/2
f  19/174/7 15/170/7 73/171/7
f  84/175/1 74/158/1 79/157/1
f  84/176/3 6/30/3 74/146/3
f  8/8/7 7/7/7 6/6/7
f  84/177/7 79/162/7 6/161/7
f  6/175/1 75/157/1 83/164/1
f  81/143/7 82/22/7 80/160/7
f  83/164/1 80/163/1 85/151/1
f  20/178/1 82/151/1 11/14/1
f  9/167/2 77/166/2 14/169/2
f  9/179/2 20/22/2 11/23/2
f  11/23/7 20/22/7 9/179/7
f  7/7/7 8/8/7 17/20/7
f  7/180/1 6/175/1 26/29/1
f  26/29/1 6/175/1 83/164/1
f  85/181/7 80/160/7 82/22/7
f  83/31/3 85/182/3 21/183/3
f  21/183/3 82/184/3 20/11/3
f  20/22/2 9/179/2 86/185/2
f  86/185/7 9/179/7 20/22/7
f  26/186/2 34/24/2 83/181/2
f  83/181/7 34/24/7 26/186/7
f  82/184/3 21/183/3 85/182/3
f  34/187/3 83/31/3 21/183/3
f  26/186/2 35/84/2 34/24/2
f  34/24/7 35/84/7 26/186/7
f  27/54/2 44/188/2 10/32/2
f  10/32/7 44/188/7 27/54/7
f  33/189/2 55/86/2 26/186/2
f  26/186/7 55/86/7 33/189/7
f  26/186/2 49/85/2 35/84/2
f  35/84/7 49/85/7 26/186/7
f  44/188/2 27/54/2 43/70/2
f  43/70/7 27/54/7 44/188/7
f  44/188/2 55/86/2 33/189/2
f  33/189/7 55/86/7 44/188/7
f  26/186/2 55/86/2 56/103/2
f  56/103/7 55/86/7 26/186/7
f  26/186/2 57/102/2 49/85/2
f  49/85/7 57/102/7 26/186/7
f  44/188/2 43/70/2 55/86/2
f  55/86/7 43/70/7 44/188/7
f  26/186/2 56/103/2 62/118/2
f  62/118/7 56/103/7 26/186/7
f  26/186/2 63/117/2 57/102/2
f  57/102/7 63/117/7 26/186/7
f  26/186/2 62/118/2 66/125/2
f  66/125/7 62/118/7 26/186/7
f  26/186/2 67/124/2 63/117/2
f  63/117/7 67/124/7 26/186/7
f  26/186/2 66/125/2 67/124/2
f  67/124/7 66/125/7 26/186/7

# Mesh 'mesh1_mesh1-geometry' with 140 faces
g mesh1_mesh1-geometry
usemtl material_2_24
f  70//2 1//2 3//2
f  2//45 71//45 4//47
f  1//2 70//2 72//2
f  1//45 73//45 5//45
f  75//45 4//47 71//45
f  70//45 76//45 71//45
f  72//2 70//2 76//2
f  77//45 1//45 72//45
f  1//45 77//45 73//45
f  5//45 73//45 8//45
f  5//45 8//45 74//45
f  79//45 4//47 75//45
f  75//45 71//45 80//45
f  81//45 71//45 76//45
f  76//44 82//44 72//44
f  72//44 11//44 77//44
f  73//45 77//45 12//45
f  19//1 8//1 73//1
f  74//44 79//44 78//44
f  78//47 4//47 79//45
f  6//45 74//45 8//45
f  79//2 6//2 75//2
f  80//45 71//45 81//45
f  75//44 83//44 80//44
f  82//44 76//44 81//44
f  72//44 82//44 11//44
f  9//7 77//7 11//7
f  77//7 14//7 12//7
f  8//1 19//1 17//1
f  79//44 74//44 84//44
f  74//45 6//45 84//45
f  6//2 79//2 84//2
f  83//44 75//44 6//44
f  80//2 82//2 81//2
f  85//44 80//44 83//44
f  11//44 82//44 20//44
f  14//7 77//7 9//7
f  11//45 10//48 9//45
f  14//49 13//44 12//44
f  12//44 16//44 15//49
f  19//45 18//50 17//45
f  18//50 19//45 15//49
f  26//44 6//44 7//44
f  83//44 6//44 26//44
f  82//2 80//2 85//2
f  21//45 85//45 83//45
f  20//45 82//45 21//45
f  21//2 11//2 20//2
f  9//45 10//48 14//49
f  10//48 11//45 22//51
f  13//44 14//49 23//52
f  12//44 13//44 24//44
f  12//44 25//44 16//44
f  15//49 16//44 18//50
f  17//45 18//50 7//45
f  18//50 26//45 7//45
f  85//45 21//45 82//45
f  21//45 83//45 34//45
f  11//2 21//2 22//2
f  14//49 10//48 23//52
f  22//51 27//53 10//48
f  10//48 13//54 23//52
f  13//54 28//55 24//56
f  12//44 24//44 29//44
f  12//44 30//44 25//44
f  31//57 16//58 25//59
f  32//60 18//50 16//58
f  26//45 18//50 33//50
f  35//61 21//62 34//62
f  22//2 21//2 36//2
f  27//53 22//51 36//53
f  13//54 10//48 37//63
f  28//55 13//54 37//63
f  28//55 29//64 24//56
f  12//44 29//44 38//44
f  12//44 39//44 30//44
f  40//65 25//59 30//66
f  16//58 31//57 32//60
f  25//59 40//65 31//57
f  18//50 32//60 33//50
f  21//62 35//61 41//61
f  36//2 21//2 42//2
f  36//53 43//67 27//53
f  37//63 10//48 44//68
f  37//63 33//50 28//55
f  29//64 28//55 45//69
f  45//69 38//70 29//64
f  12//44 38//44 46//44
f  12//44 47//44 39//44
f  48//71 30//66 39//72
f  30//66 48//71 40//65
f  31//57 33//50 32//60
f  40//65 33//50 31//57
f  49//73 41//61 35//61
f  50//2 21//2 41//2
f  42//2 21//2 51//2
f  43//67 36//53 42//67
f  33//50 37//63 44//68
f  28//55 33//50 45//69
f  38//70 45//69 52//74
f  52//74 46//75 38//70
f  12//44 46//44 53//44
f  12//44 53//44 47//44
f  54//76 39//72 47//77
f  39//72 54//76 48//71
f  48//71 33//50 40//65
f  51//78 56//79 55//78
f  57//80 50//73 49//73
f  41//61 49//73 50//73
f  58//2 21//2 50//2
f  51//2 21//2 59//2
f  55//78 42//67 51//78
f  42//67 55//78 43//67
f  45//69 33//50 52//74
f  46//75 52//74 60//81
f  60//81 53//2 46//75
f  61//82 47//77 53//2
f  47//77 61//82 54//76
f  54//76 33//50 48//71
f  56//79 51//78 59//79
f  59//79 62//83 56//79
f  64//84 57//80 63//84
f  50//73 57//80 58//80
f  64//2 21//2 58//2
f  59//2 21//2 65//2
f  52//74 33//50 60//81
f  53//2 60//81 61//82
f  61//82 33//50 54//76
f  62//83 59//79 65//83
f  65//83 66//85 62//83
f  68//86 63//84 67//86
f  57//80 64//84 58//80
f  63//84 68//86 64//84
f  68//2 21//2 64//2
f  65//2 21//2 69//2
f  60//81 33//50 61//82
f  66//85 65//83 69//85
f  69//85 67//86 66//85
f  67//86 69//85 68//86
f  69//2 21//2 68//2

# Mesh 'mesh2_mesh2-geometry' with 12 faces
g mesh2_mesh2-geometry
usemtl material_3_24
f  87//87 88//88 89//89
f  88//88 87//87 90//90
f  88//88 91//91 89//89
f  91//91 87//87 89//89
f  92//92 90//90 87//87
f  90//90 93//93 88//88
f  91//91 88//88 93//93
f  87//87 91//91 92//92
f  90//90 92//92 94//94
f  93//93 90//90 94//94
f  94//94 91//91 93//93
f  91//91 94//94 92//92

# Mesh 'mesh2_mesh2-geometry' with 12 faces
g mesh2_mesh2-geometry
usemtl material_2_24
f  89//94 88//92 87//93
f  90//91 87//93 88//92
f  89//94 91//90 88//92
f  89//94 87//93 91//90
f  87//93 90//91 92//88
f  88//92 93//87 90//91
f  93//87 88//92 91//90
f  92//88 91//90 87//93
f  94//89 92//88 90//91
f  94//89 90//91 93//87
f  93//87 91//90 94//89
f  92//88 94//89 91//90

# Mesh 'mesh3_mesh3-geometry' with 12 faces
g mesh3_mesh3-geometry
usemtl material_3_24
f  95//95 96//96 97//97
f  96//96 95//95 98//98
f  99//99 97//97 96//96
f  97//97 100//100 95//95
f  95//95 101//101 98//98
f  101//101 96//96 98//98
f  97//97 99//99 102//102
f  96//96 101//101 99//99
f  100//100 97//97 102//102
f  101//101 95//95 100//100
f  99//99 100//100 102//102
f  100//100 99//99 101//101

# Mesh 'mesh3_mesh3-geometry' with 12 faces
g mesh3_mesh3-geometry
usemtl material_2_24
f  97//101 96//100 95//99
f  98//102 95//99 96//100
f  96//100 97//101 99//95
f  95//99 100//96 97//101
f  98//102 101//97 95//99
f  98//102 96//100 101//97
f  102//98 99//95 97//101
f  99//95 101//97 96//100
f  102//98 97//101 100//96
f  100//96 95//99 101//97
f  102//98 100//96 99//95
f  101//97 99//95 100//96

