# File produced by Open Asset Import Library (http://www.assimp.sf.net)
# (assimp v3.2.202087883)

mtllib model_normalized.mtl

# 37 vertex positions
v -0.000000 -0.073274 -0.159934
v -0.000000 -0.073274 -0.430508
v 0.082238 -0.073274 -0.229663
v -0.082238 -0.073274 -0.229663
v 0.041119 -0.042464 -0.383250
v -0.041119 -0.042464 -0.383250
v -0.000000 -0.011654 -0.536840
v -0.082238 -0.073274 0.231276
v -0.082238 -0.042464 0.199674
v 0.041119 -0.011654 -0.383250
v 0.082238 -0.042464 -0.229663
v 0.082238 -0.042464 0.199674
v 0.082238 -0.073274 0.231276
v -0.082238 -0.011654 0.230485
v -0.041119 -0.011654 -0.383250
v -0.082238 -0.042464 -0.229663
v 0.041119 -0.011654 -0.145899
v 0.082238 -0.011654 0.230485
v -0.082238 -0.011654 0.297123
v -0.000000 -0.011654 -0.245743
v 0.082238 -0.011654 -0.229663
v 0.082238 -0.011654 0.297123
v -0.082238 0.054986 0.297123
v -0.041119 -0.011654 -0.145899
v -0.082238 -0.011654 -0.229663
v 0.082238 0.054986 0.297123
v -0.082238 0.121625 0.363609
v 0.082238 0.121625 0.363609
v -0.082238 0.121625 0.297123
v -0.082238 0.121625 0.430094
v 0.082238 0.121625 0.297123
v 0.082238 0.121625 0.430094
v 0.041119 -0.011654 -0.016635
v -0.000000 -0.011654 0.078593
v -0.041119 -0.011654 -0.016635
v -0.000000 0.014755 -0.145899
v -0.000000 0.014755 -0.016635

# 0 UV coordinates

# 58 vertex normals
vn 0 -0.0254 0
vn -0 -0.0243097 -0.00736183
vn 0.0208264 -0.0141825 -0.00320571
vn -0.0208264 -0.0141825 -0.00320571
vn 0.0238319 -0.00481881 -0.007347
vn -0.0238319 -0.00481881 -0.007347
vn -0 -0.00207772 -0.0253149
vn -0.0120268 -0.0208083 0.00821766
vn -0.0254 0 0
vn 0.0219456 0.0113592 -0.00587532
vn 0.0249113 -0 -0.00495833
vn 0.0254 0 0
vn 0.0120268 -0.0208083 0.00821766
vn -0.0227184 0.0113592 0
vn -0.0219456 0.0113592 -0.00587532
vn -0.0249113 0 -0.00495833
vn 0.00709803 0.0243453 -0.00144394
vn 0.0227184 0.0113592 0
vn -0.02047 0.00552366 0.0139867
vn 0 0.0250635 -0.00412072
vn 0.0177306 0.0180374 -0.00233235
vn 0.02047 0.00552366 0.0139867
vn -0.00709803 0.0243453 -0.00144394
vn -0.0177306 0.0180374 -0.00233235
vn -0.0179605 0.0179605 0
vn 0.0179605 -0.0179605 0
vn -0.0208264 0.0141825 0.00320571
vn 0 0.0243097 0.00736183
vn 0 0.0254 0
vn 0.0208264 0.0141825 0.00320571
vn -0.0238319 0.00481881 0.007347
vn 0.0120268 0.0208083 -0.00821766
vn 0.0238319 0.00481881 0.007347
vn 0 0.00207772 0.0253149
vn -0.0249113 0 0.00495833
vn -0.0120268 0.0208083 -0.00821766
vn 0.0249113 0 0.00495833
vn -0.0219456 -0.0113592 0.00587532
vn -0.0227184 -0.0113592 0
vn 0.02047 -0.00552366 -0.0139867
vn 0.0227184 -0.0113592 -0
vn 0.0219456 -0.0113592 0.00587532
vn -0.00709803 -0.0243453 0.00144394
vn -0.0177306 -0.0180374 0.00233235
vn -0.02047 -0.00552366 -0.0139867
vn 0.0177306 -0.0180374 0.00233235
vn 0 -0.0250635 0.00412072
vn 0.00942162 0.0235024 0.00200713
vn -0.00942162 -0.0235024 -0.00200713
vn 0.00709803 -0.0243453 0.00144394
vn 0 0.0250315 0.00431112
vn 0 -0.0250315 -0.00431112
vn -0.00942162 0.0235024 0.00200713
vn 0.00942162 -0.0235024 -0.00200713
vn 0 0.025186 -0.0032906
vn 0 -0.025186 0.0032906
vn 0 0.0251655 0.00344322
vn 0 -0.0251655 -0.00344322

# Mesh 'mesh1_mesh1-geometry' with 32 faces
g mesh1_mesh1-geometry
usemtl material_0_24
f  1//1 2//2 3//3
f  2//2 1//1 4//4
f  2//2 5//5 3//3
f  6//6 2//2 4//4
f  5//5 2//2 7//7
f  8//8 9//9 4//4
f  2//2 6//6 7//7
f  10//10 5//5 7//7
f  5//5 10//10 11//11
f  12//12 13//13 3//3
f  9//9 8//8 14//14
f  6//6 15//15 7//7
f  15//15 6//6 16//16
f  17//17 10//10 7//7
f  13//13 12//12 18//18
f  14//14 8//8 19//19
f  20//20 7//7 15//15
f  10//10 17//17 21//21
f  17//17 7//7 20//20
f  13//13 18//18 22//22
f  23//9 14//9 19//9
f  20//20 15//15 24//23
f  24//23 15//15 25//24
f  22//12 18//12 26//12
f  19//9 27//25 23//9
f  26//12 28//26 22//12
f  29//25 23//9 27//25
f  30//9 27//25 19//9
f  28//26 26//12 31//26
f  22//12 28//26 32//12
f  29//25 27//25 31//25
f  28//25 31//25 27//25

# Mesh 'mesh1_mesh1-geometry' with 80 faces
g mesh1_mesh1-geometry
usemtl material_1_24
f  3//27 2//28 1//29
f  4//30 1//29 2//28
f  3//27 5//31 2//28
f  3//3 8//8 1//1
f  1//29 8//32 3//27
f  1//1 8//8 4//4
f  4//30 8//32 1//29
f  4//30 2//28 6//33
f  7//34 2//28 5//31
f  3//3 5//5 11//11
f  11//35 5//31 3//27
f  8//8 3//3 13//13
f  13//36 3//27 8//32
f  4//30 9//12 8//32
f  7//34 6//33 2//28
f  16//16 6//6 4//4
f  4//30 6//33 16//37
f  7//34 5//31 10//38
f  11//35 10//38 5//31
f  11//11 18//18 3//3
f  3//27 18//39 11//35
f  3//27 13//36 12//9
f  13//13 19//19 8//8
f  8//32 19//40 13//36
f  14//41 8//32 9//12
f  9//9 16//16 4//4
f  4//30 16//37 9//12
f  7//34 15//42 6//33
f  16//37 6//33 15//42
f  7//34 10//38 17//43
f  11//11 10//10 21//21
f  21//44 10//38 11//35
f  18//18 11//11 21//21
f  21//44 11//35 18//39
f  3//3 18//18 12//12
f  12//9 18//39 3//27
f  18//39 12//9 13//36
f  19//19 13//13 22//22
f  22//45 13//36 19//40
f  19//40 8//32 14//41
f  25//24 9//9 14//14
f  14//41 9//12 25//46
f  16//16 9//9 25//24
f  25//46 9//12 16//37
f  15//42 7//34 20//47
f  25//24 15//15 16//16
f  16//37 15//42 25//46
f  21//44 17//43 10//38
f  20//47 7//34 17//43
f  17//17 18//18 21//21
f  21//44 18//39 17//43
f  22//45 18//39 13//36
f  22//22 33//48 19//19
f  19//40 33//49 22//45
f  19//19 25//24 14//14
f  14//41 25//46 19//40
f  19//12 14//12 23//12
f  24//50 15//42 20//47
f  25//46 15//42 24//50
f  18//18 17//17 22//22
f  22//45 17//43 18//39
f  26//9 18//9 22//9
f  22//22 17//17 33//48
f  33//49 17//43 22//45
f  19//19 33//48 34//51
f  34//52 33//49 19//40
f  19//19 35//53 25//24
f  25//46 35//54 19//40
f  23//12 27//26 19//12
f  25//24 35//53 24//23
f  24//50 35//54 25//46
f  22//9 28//25 26//9
f  19//19 34//51 35//53
f  35//54 34//52 19//40
f  27//26 23//12 29//26
f  19//12 27//26 30//12
f  31//25 26//9 28//25
f  32//9 28//25 22//9
f  31//26 27//26 29//26
f  27//26 31//26 28//26

# Mesh 'mesh1_mesh1-geometry' with 16 faces
g mesh1_mesh1-geometry
usemtl material_2_24
f  36//55 17//17 20//20
f  20//47 17//43 36//56
f  24//23 36//55 20//20
f  20//47 36//56 24//50
f  36//55 33//48 17//17
f  17//43 33//49 36//56
f  34//51 33//48 37//57
f  37//58 33//49 34//52
f  24//23 37//57 36//55
f  36//56 37//58 24//50
f  37//57 24//23 35//53
f  35//54 24//50 37//58
f  33//48 36//55 37//57
f  37//58 36//56 33//49
f  35//53 34//51 37//57
f  37//58 34//52 35//54

