# File produced by Open Asset Import Library (http://www.assimp.sf.net)
# (assimp v3.2.202087883)

mtllib model_normalized.mtl

# 58 vertex positions
v 0.094037 -0.470070 -0.137542
v 0.169266 -0.470070 -0.224497
v 0.169266 -0.470070 -0.137542
v 0.094037 -0.470070 -0.224497
v 0.169266 -0.173855 -0.137542
v 0.094037 -0.202066 -0.224497
v 0.169266 -0.061011 -0.224497
v 0.094037 -0.202066 -0.137542
v 0.169266 -0.061011 0.031724
v -0.094037 -0.202066 -0.137542
v -0.169266 -0.061011 -0.224497
v 0.169266 -0.173855 0.031724
v -0.169266 -0.173855 -0.137542
v -0.094037 -0.202066 -0.224497
v -0.169266 -0.061011 0.031724
v 0.169266 0.356157 0.114035
v -0.169266 -0.173855 0.031724
v -0.169266 -0.470070 -0.137542
v -0.094037 -0.470070 -0.224497
v -0.169266 0.356157 0.031724
v 0.169266 0.356157 0.031724
v 0.169266 -0.470070 0.031724
v 0.094037 -0.202066 0.031724
v -0.094037 -0.470070 -0.137542
v -0.169266 -0.470070 -0.224497
v -0.169266 -0.470070 0.114035
v 0.143657 0.371640 0.031724
v 0.169266 -0.470070 0.114035
v -0.094037 -0.202066 0.031724
v -0.143657 0.371640 0.031724
v -0.169266 0.356157 0.114035
v 0.143657 0.371640 0.114035
v 0.094037 -0.470070 0.114035
v 0.094037 -0.470070 0.031724
v -0.094037 -0.470070 0.031724
v -0.094037 -0.202066 0.114035
v -0.169266 -0.470070 0.031724
v -0.143657 0.371640 0.114035
v 0.116646 0.384509 0.031724
v -0.116646 0.384509 0.031724
v 0.094037 -0.202066 0.114035
v -0.116646 0.384509 0.114035
v -0.094037 -0.470070 0.114035
v 0.116646 0.384509 0.114035
v 0.088496 0.394660 0.031724
v -0.088496 0.394660 0.031724
v -0.088496 0.394660 0.114035
v 0.088496 0.394660 0.114035
v 0.059482 0.401976 0.031724
v -0.059482 0.401976 0.031724
v -0.059482 0.401976 0.114035
v 0.059482 0.401976 0.114035
v 0.029887 0.406396 0.031724
v -0.029887 0.406396 0.031724
v -0.029887 0.406396 0.114035
v 0.029887 0.406396 0.114035
v 0.000000 0.407877 0.031724
v 0.000000 0.407877 0.114035

# 0 UV coordinates

# 30 vertex normals
vn 0 -0.0254 0
vn 0 0.0254 0
vn 0.0254 0 0
vn -0.0254 0 0
vn 0 0 0.0254
vn 0 -0 -0.0254
vn 0.0120489 0.0223603 0
vn 0.0131389 0.0217378 0
vn -0.0131389 -0.0217378 0
vn -0.0120489 -0.0223603 0
vn -0.0131389 0.0217378 0
vn -0.0120489 0.0223603 0
vn 0.0120489 -0.0223603 -0
vn 0.0131389 -0.0217378 -0
vn 0.00978337 0.0234403 0
vn -0.00978337 -0.0234403 0
vn -0.00978337 0.0234403 0
vn 0.00978337 -0.0234403 -0
vn 0.00742236 0.0242913 0
vn -0.00742236 -0.0242913 0
vn -0.00742236 0.0242913 0
vn 0.00742236 -0.0242913 -0
vn 0.00498887 0.0249052 0
vn -0.00498887 -0.0249052 0
vn -0.00498887 0.0249052 0
vn 0.00498887 -0.0249052 -0
vn 0.00250668 0.025276 0
vn -0.00250668 -0.025276 0
vn -0.00250668 0.025276 0
vn 0.00250668 -0.025276 -0

# Mesh 'mesh1_mesh1-geometry' with 224 faces
g mesh1_mesh1-geometry
usemtl material_0_24
f  1//1 2//1 3//1
f  2//1 1//1 4//1
f  3//2 2//2 1//2
f  4//2 1//2 2//2
f  3//3 2//3 5//3
f  5//4 2//4 3//4
f  5//5 1//5 3//5
f  3//6 1//6 5//6
f  1//4 6//4 4//4
f  4//3 6//3 1//3
f  6//6 2//6 4//6
f  4//5 2//5 6//5
f  7//3 5//3 2//3
f  2//4 5//4 7//4
f  1//5 5//5 8//5
f  8//6 5//6 1//6
f  6//4 1//4 8//4
f  8//3 1//3 6//3
f  2//6 6//6 7//6
f  7//5 6//5 2//5
f  5//3 7//3 9//3
f  9//4 7//4 5//4
f  8//5 5//5 10//5
f  10//6 5//6 8//6
f  10//1 6//1 8//1
f  8//2 6//2 10//2
f  7//6 6//6 11//6
f  11//5 6//5 7//5
f  11//2 9//2 7//2
f  7//1 9//1 11//1
f  5//3 9//3 12//3
f  12//4 9//4 5//4
f  13//5 10//5 5//5
f  5//6 10//6 13//6
f  6//1 10//1 14//1
f  14//2 10//2 6//2
f  14//6 11//6 6//6
f  6//5 11//5 14//5
f  9//2 11//2 15//2
f  15//1 11//1 9//1
f  9//3 16//3 12//3
f  12//4 16//4 9//4
f  17//1 5//1 12//1
f  12//2 5//2 17//2
f  18//5 10//5 13//5
f  13//6 10//6 18//6
f  5//1 17//1 13//1
f  13//2 17//2 5//2
f  10//3 19//3 14//3
f  14//4 19//4 10//4
f  19//6 11//6 14//6
f  14//5 11//5 19//5
f  11//4 13//4 15//4
f  15//3 13//3 11//3
f  20//6 9//6 15//6
f  15//5 9//5 20//5
f  16//3 9//3 21//3
f  21//4 9//4 16//4
f  12//3 16//3 22//3
f  22//4 16//4 12//4
f  12//6 23//6 17//6
f  17//5 23//5 12//5
f  10//5 18//5 24//5
f  24//6 18//6 10//6
f  11//4 18//4 13//4
f  13//3 18//3 11//3
f  15//4 13//4 17//4
f  17//3 13//3 15//3
f  19//3 10//3 24//3
f  24//4 10//4 19//4
f  11//6 19//6 25//6
f  25//5 19//5 11//5
f  9//6 20//6 21//6
f  21//5 20//5 9//5
f  15//4 26//4 20//4
f  20//3 26//3 15//3
f  27//7 16//8 21//8
f  21//9 16//9 27//10
f  22//3 16//3 28//3
f  28//4 16//4 22//4
f  22//6 23//6 12//6
f  12//5 23//5 22//5
f  29//6 17//6 23//6
f  23//5 17//5 29//5
f  18//1 19//1 24//1
f  24//2 19//2 18//2
f  18//4 11//4 25//4
f  25//3 11//3 18//3
f  17//4 26//4 15//4
f  15//3 26//3 17//3
f  19//1 18//1 25//1
f  25//2 18//2 19//2
f  21//6 20//6 30//6
f  30//5 20//5 21//5
f  20//4 26//4 31//4
f  31//3 26//3 20//3
f  16//8 27//7 32//7
f  32//10 27//10 16//9
f  21//6 30//6 27//6
f  27//5 30//5 21//5
f  16//5 33//5 28//5
f  28//6 33//6 16//6
f  33//1 22//1 28//1
f  28//2 22//2 33//2
f  23//6 22//6 34//6
f  34//5 22//5 23//5
f  35//6 17//6 29//6
f  29//5 17//5 35//5
f  23//1 36//1 29//1
f  29//2 36//2 23//2
f  26//4 17//4 37//4
f  37//3 17//3 26//3
f  20//11 38//12 30//12
f  30//13 38//13 20//14
f  26//5 36//5 31//5
f  31//6 36//6 26//6
f  38//12 20//11 31//11
f  31//14 20//14 38//13
f  39//15 32//7 27//7
f  27//10 32//10 39//16
f  31//5 16//5 32//5
f  32//6 16//6 31//6
f  27//6 30//6 40//6
f  40//5 30//5 27//5
f  33//5 16//5 41//5
f  41//6 16//6 33//6
f  22//1 33//1 34//1
f  34//2 33//2 22//2
f  33//4 23//4 34//4
f  34//3 23//3 33//3
f  17//6 35//6 37//6
f  37//5 35//5 17//5
f  36//3 35//3 29//3
f  29//4 35//4 36//4
f  36//1 23//1 41//1
f  41//2 23//2 36//2
f  35//1 26//1 37//1
f  37//2 26//2 35//2
f  42//17 30//12 38//12
f  38//13 30//13 42//18
f  36//5 26//5 43//5
f  43//6 26//6 36//6
f  31//5 36//5 16//5
f  16//6 36//6 31//6
f  31//5 32//5 38//5
f  38//6 32//6 31//6
f  32//7 39//15 44//15
f  44//16 39//16 32//10
f  27//6 40//6 39//6
f  39//5 40//5 27//5
f  30//12 42//17 40//17
f  40//18 42//18 30//13
f  41//5 16//5 36//5
f  36//6 16//6 41//6
f  23//4 33//4 41//4
f  41//3 33//3 23//3
f  35//3 36//3 43//3
f  43//4 36//4 35//4
f  26//1 35//1 43//1
f  43//2 35//2 26//2
f  38//5 44//5 42//5
f  42//6 44//6 38//6
f  38//5 32//5 44//5
f  44//6 32//6 38//6
f  45//19 44//15 39//15
f  39//16 44//16 45//20
f  39//6 40//6 46//6
f  46//5 40//5 39//5
f  47//21 40//17 42//17
f  42//18 40//18 47//22
f  42//5 44//5 48//5
f  48//6 44//6 42//6
f  44//15 45//19 48//19
f  48//20 45//20 44//16
f  39//6 46//6 45//6
f  45//5 46//5 39//5
f  40//17 47//21 46//21
f  46//22 47//22 40//18
f  42//5 48//5 47//5
f  47//6 48//6 42//6
f  49//23 48//19 45//19
f  45//20 48//20 49//24
f  45//6 46//6 50//6
f  50//5 46//5 45//5
f  51//25 46//21 47//21
f  47//22 46//22 51//26
f  47//5 48//5 51//5
f  51//6 48//6 47//6
f  48//19 49//23 52//23
f  52//24 49//24 48//20
f  45//6 50//6 49//6
f  49//5 50//5 45//5
f  46//21 51//25 50//25
f  50//26 51//26 46//22
f  51//5 48//5 52//5
f  52//6 48//6 51//6
f  53//27 52//23 49//23
f  49//24 52//24 53//28
f  49//6 50//6 54//6
f  54//5 50//5 49//5
f  55//29 50//25 51//25
f  51//26 50//26 55//30
f  51//5 52//5 56//5
f  56//6 52//6 51//6
f  52//23 53//27 56//27
f  56//28 53//28 52//24
f  49//6 54//6 53//6
f  53//5 54//5 49//5
f  50//25 55//29 54//29
f  54//30 55//30 50//26
f  51//5 56//5 55//5
f  55//6 56//6 51//6
f  57//2 56//27 53//27
f  53//28 56//28 57//1
f  53//6 54//6 57//6
f  57//5 54//5 53//5
f  58//2 54//29 55//29
f  55//30 54//30 58//1
f  55//5 56//5 58//5
f  58//6 56//6 55//6
f  56//27 57//2 58//2
f  58//1 57//1 56//28
f  54//29 58//2 57//2
f  57//1 58//1 54//30

# Mesh 'mesh2_mesh2-geometry' with 76 faces
g mesh2_mesh2-geometry
usemtl material_0_0
l  2 4
l  2 7
l  3 2
l  6 4
l  4 1
l  9 7
l  11 7
l  5 3
l  1 3
l  14 6
l  6 8
l  8 1
l  15 9
l  21 9
l  25 11
l  15 11
l  12 5
l  13 5
l  19 14
l  14 10
l  10 8
l  20 15
l  21 27
l  21 16
l  25 18
l  19 25
l  17 12
l  22 12
l  17 13
l  13 18
l  19 24
l  24 10
l  30 20
l  20 31
l  27 39
l  28 16
l  16 32
l  18 24
l  37 17
l  28 22
l  34 22
l  40 30
l  26 31
l  38 31
l  39 45
l  33 28
l  32 44
l  37 35
l  37 26
l  34 23
l  33 34
l  46 40
l  26 43
l  42 38
l  45 49
l  33 41
l  44 48
l  29 35
l  43 35
l  23 29
l  41 23
l  50 46
l  36 43
l  47 42
l  49 53
l  41 36
l  48 52
l  36 29
l  54 50
l  51 47
l  53 57
l  52 56
l  57 54
l  55 51
l  56 58
l  58 55

