# File produced by Open Asset Import Library (http://www.assimp.sf.net)
# (assimp v3.2.202087883)

mtllib model_normalized.mtl

# 29 vertex positions
v 0.399873 0.010980 -0.232493
v 0.399873 -0.191914 0.245154
v 0.399873 -0.191914 -0.232493
v 0.399873 0.010980 0.119909
v -0.393389 -0.191914 -0.232493
v 0.292366 -0.129919 -0.232493
v 0.292366 0.010980 0.119909
v 0.399873 0.185695 0.245154
v -0.393389 -0.191914 0.245154
v 0.292366 0.010980 -0.232493
v 0.399873 0.185695 0.119909
v 0.292366 0.185695 0.245154
v -0.393389 0.010980 0.119909
v -0.002289 -0.129919 -0.232493
v 0.292366 -0.069332 -0.232493
v 0.292366 0.185695 0.119909
v -0.296943 0.185695 0.245154
v -0.393389 0.185695 0.245154
v -0.393389 0.010980 -0.232493
v -0.296943 -0.129919 -0.232493
v 0.292366 -0.069332 0.119909
v -0.002289 -0.069332 0.119909
v -0.393389 0.185695 0.119909
v -0.296943 0.010980 -0.232493
v -0.296943 -0.069332 -0.232493
v -0.002289 -0.069332 -0.232493
v -0.296943 0.185695 0.119909
v -0.296943 0.010980 0.119909
v -0.296943 -0.069332 0.119909

# 0 UV coordinates

# 6 vertex normals
vn 0.0254 0 0
vn -0.0254 0 0
vn 0 -0.0254 0
vn 0 0.0254 0
vn 0 0 -0.0254
vn 0 -0 0.0254

# Mesh 'mesh1_mesh1-geometry' with 108 faces
g mesh1_mesh1-geometry
usemtl material_0_24
f  1//1 2//1 3//1
f  2//1 1//1 4//1
f  3//2 2//2 1//2
f  4//2 1//2 2//2
f  2//3 5//3 3//3
f  3//4 5//4 2//4
f  3//5 6//5 1//5
f  1//6 6//6 3//6
f  1//4 7//4 4//4
f  4//3 7//3 1//3
f  2//1 4//1 8//1
f  8//2 4//2 2//2
f  5//3 2//3 9//3
f  9//4 2//4 5//4
f  6//5 3//5 5//5
f  5//6 3//6 6//6
f  6//5 10//5 1//5
f  1//6 10//6 6//6
f  7//4 1//4 10//4
f  10//3 1//3 7//3
f  7//5 11//5 4//5
f  4//6 11//6 7//6
f  8//1 4//1 11//1
f  11//2 4//2 8//2
f  12//6 2//6 8//6
f  8//5 2//5 12//5
f  2//6 12//6 9//6
f  9//5 12//5 2//5
f  9//2 13//2 5//2
f  5//1 13//1 9//1
f  6//5 5//5 14//5
f  14//6 5//6 6//6
f  10//5 6//5 15//5
f  15//6 6//6 10//6
f  15//2 7//2 10//2
f  10//1 7//1 15//1
f  11//5 7//5 16//5
f  16//6 7//6 11//6
f  11//4 12//4 8//4
f  8//3 12//3 11//3
f  9//6 12//6 17//6
f  17//5 12//5 9//5
f  13//2 9//2 18//2
f  18//1 9//1 13//1
f  19//2 5//2 13//2
f  13//1 5//1 19//1
f  14//5 5//5 20//5
f  20//6 5//6 14//6
f  14//5 15//5 6//5
f  6//6 15//6 14//6
f  7//2 15//2 21//2
f  21//1 15//1 7//1
f  7//5 22//5 16//5
f  16//6 22//6 7//6
f  12//4 11//4 16//4
f  16//3 11//3 12//3
f  16//4 17//4 12//4
f  12//3 17//3 16//3
f  9//6 17//6 18//6
f  18//5 17//5 9//5
f  13//2 18//2 23//2
f  23//1 18//1 13//1
f  24//5 5//5 19//5
f  19//6 5//6 24//6
f  13//4 24//4 19//4
f  19//3 24//3 13//3
f  20//5 5//5 25//5
f  25//6 5//6 20//6
f  20//5 26//5 14//5
f  14//6 26//6 20//6
f  15//5 14//5 26//5
f  26//6 14//6 15//6
f  15//4 22//4 21//4
f  21//3 22//3 15//3
f  22//5 7//5 21//5
f  21//6 7//6 22//6
f  16//5 22//5 27//5
f  27//6 22//6 16//6
f  17//4 16//4 27//4
f  27//3 16//3 17//3
f  27//4 18//4 17//4
f  17//3 18//3 27//3
f  18//4 27//4 23//4
f  23//3 27//3 18//3
f  27//5 13//5 23//5
f  23//6 13//6 27//6
f  25//5 5//5 24//5
f  24//6 5//6 25//6
f  24//4 13//4 28//4
f  28//3 13//3 24//3
f  26//5 20//5 25//5
f  25//6 20//6 26//6
f  22//4 15//4 26//4
f  26//3 15//3 22//3
f  27//5 22//5 28//5
f  28//6 22//6 27//6
f  13//5 27//5 28//5
f  28//6 27//6 13//6
f  24//1 29//1 25//1
f  25//2 29//2 24//2
f  29//1 24//1 28//1
f  28//2 24//2 29//2
f  29//4 26//4 25//4
f  25//3 26//3 29//3
f  26//4 29//4 22//4
f  22//3 29//3 26//3
f  28//5 22//5 29//5
f  29//6 22//6 28//6

# Mesh 'mesh2_mesh2-geometry' with 46 faces
g mesh2_mesh2-geometry
usemtl material_0_0
l  9 2
l  5 9
l  9 18
l  2 8
l  3 2
l  3 5
l  5 19
l  18 17
l  23 18
l  8 11
l  12 8
l  1 3
l  24 19
l  19 13
l  17 12
l  17 27
l  23 27
l  13 23
l  16 11
l  4 11
l  16 12
l  1 10
l  4 1
l  28 24
l  25 24
l  13 28
l  27 16
l  28 27
l  7 16
l  7 4
l  10 7
l  15 10
l  29 28
l  29 25
l  25 20
l  26 25
l  21 7
l  15 6
l  15 26
l  15 21
l  29 22
l  20 14
l  14 26
l  26 22
l  22 21
l  14 6

