# File produced by Open Asset Import Library (http://www.assimp.sf.net)
# (assimp v3.2.202087883)

mtllib model_normalized.mtl

# 130 vertex positions
v -0.145136 -0.607757 0.006888
v -0.145136 -0.607757 -0.006888
v -0.145727 -0.607757 -0.000000
v -0.143364 -0.607757 0.013569
v -0.145727 -0.158632 -0.000000
v -0.145136 -0.158632 0.006888
v -0.143364 -0.158583 0.013569
v -0.143364 -0.607757 -0.013569
v -0.145136 -0.158632 -0.006888
v -0.140459 -0.158533 0.019847
v -0.140459 -0.607757 0.019847
v -0.153555 0.086511 -0.006888
v -0.154146 0.086511 -0.000000
v -0.153555 0.086511 0.006888
v -0.151783 0.086413 0.013569
v -0.140459 -0.607757 -0.019847
v -0.143364 -0.158583 -0.013569
v -0.151783 0.086413 -0.013569
v -0.136520 -0.158484 0.025533
v -0.148878 0.086314 0.019847
v -0.136520 -0.607757 0.025533
v -0.125294 0.340418 -0.000000
v -0.124703 0.340369 -0.006888
v -0.124703 0.340369 0.006888
v -0.122931 0.340172 0.013569
v -0.120026 0.339827 0.019847
v -0.136520 -0.607757 -0.025533
v -0.140459 -0.158533 -0.019847
v -0.148878 0.086314 -0.019847
v -0.122931 0.340172 -0.013569
v -0.131646 -0.158386 0.030452
v -0.144939 0.086166 0.025533
v -0.116136 0.339384 0.025533
v -0.131646 -0.607757 0.030452
v -0.131646 -0.607757 -0.030452
v -0.136520 -0.158484 -0.025533
v -0.144939 0.086166 -0.025533
v -0.120026 0.339827 -0.019847
v -0.126033 -0.607757 0.034465
v -0.140065 0.085969 0.030452
v -0.111311 0.338842 0.030452
v -0.126033 -0.158287 0.034465
v -0.126033 -0.607757 -0.034465
v -0.131646 -0.158386 -0.030452
v -0.140065 0.085969 -0.030452
v -0.116136 0.339384 -0.025533
v 0.123000 -0.158090 0.034465
v -0.105698 0.338202 0.034465
v -0.134403 0.085723 0.034465
v 0.123000 -0.607757 0.034465
v -0.126033 -0.158287 -0.034465
v 0.123000 -0.607757 -0.034465
v 0.123000 -0.158090 -0.034465
v -0.111311 0.338842 -0.030452
v 0.128613 -0.607757 0.030452
v 0.136293 0.085920 0.034465
v -0.134403 0.085723 -0.034465
v -0.105698 0.338202 -0.034465
v 0.128613 -0.158238 0.030452
v 0.141955 0.086117 0.030452
v 0.107589 0.338202 0.034465
v 0.128613 -0.607757 -0.030452
v 0.128613 -0.158238 -0.030452
v 0.136293 0.085920 -0.034465
v 0.133487 -0.158386 0.025533
v -0.105600 0.340418 0.034465
v 0.133487 -0.607757 0.025533
v 0.141955 0.086117 -0.030452
v 0.146830 0.086265 0.025533
v 0.113202 0.338842 0.030452
v 0.107589 0.340418 0.034465
v 0.133487 -0.607757 -0.025533
v 0.133487 -0.158386 -0.025533
v 0.107589 0.338202 -0.034465
v 0.137426 -0.158484 0.019847
v 0.150769 0.086363 0.019847
v 0.107589 0.340418 -0.034465
v 0.137426 -0.607757 0.019847
v 0.146830 0.086265 -0.025533
v 0.113202 0.338842 -0.030452
v -0.105600 0.340418 -0.034465
v 0.118027 0.339384 0.025533
v 0.113251 0.340418 -0.030452
v 0.137426 -0.607757 -0.019847
v 0.137426 -0.158484 -0.019847
v 0.118027 0.339384 -0.025533
v 0.140331 -0.158533 0.013569
v 0.153673 0.086462 0.013569
v 0.121917 0.339827 0.019847
v -0.111114 0.340418 0.030373
v 0.113251 0.340418 0.030452
v 0.140331 -0.607757 0.013569
v 0.150769 0.086363 -0.019847
v 0.121917 0.339827 -0.019847
v -0.111114 0.340418 -0.030373
v 0.118076 0.340418 -0.025533
v 0.140331 -0.607757 -0.013569
v 0.140331 -0.158533 -0.013569
v 0.142103 -0.158583 0.006888
v 0.155446 0.086511 0.006888
v 0.124822 0.340172 0.013569
v -0.115841 0.340418 0.025415
v 0.118076 0.340418 0.025533
v 0.142103 -0.607757 0.006888
v 0.153673 0.086462 -0.013569
v 0.124822 0.340172 -0.013569
v -0.115841 0.340418 -0.025415
v 0.122015 0.340418 -0.019847
v 0.142103 -0.607757 -0.006888
v 0.142103 -0.158583 -0.006888
v 0.142694 -0.158632 -0.000000
v 0.156037 0.086511 -0.000000
v 0.126594 0.340369 0.006888
v -0.119681 0.340418 0.019729
v 0.122015 0.340418 0.019847
v 0.142694 -0.607757 -0.000000
v 0.155446 0.086511 -0.006888
v 0.126594 0.340369 -0.006888
v -0.119681 0.340418 -0.019729
v 0.124920 0.340418 -0.013569
v 0.127185 0.340418 -0.000000
v -0.122488 0.340418 0.013476
v 0.124920 0.340418 0.013569
v -0.122488 0.340418 -0.013476
v 0.126692 0.340418 -0.006888
v -0.124211 0.340418 0.006834
v 0.126692 0.340418 0.006888
v -0.124211 0.340418 -0.006834
v 0.127283 0.340418 -0.000000
v -0.124802 0.340418 -0.000000

# 11 UV coordinates
vt 0 0 0
vt 0.031024 -0 0
vt 0.950872 0.474243 0
vt 0.031024 0.474035 0
vt 0.950872 -0 0
vt -0 0.731404 0
vt 1 0.731612 0
vt 0.106056 0.997653 0
vt 0.894027 0.997653 0
vt 0.106522 1 0
vt 0.894027 1 0

# 190 vertex normals
vn 0 0.01 0
vn 0.00985064 0 0.00172186
vn 0.00999852 0.00017201 0
vn 0.01 0 0
vn 0.00984914 0.00016944 -0.00172211
vn 0.00985064 0 -0.00172186
vn 0.00940549 0.0001618 -0.00339274
vn 0.00940704 0 -0.00339229
vn 0.00984914 0.00016944 0.00172211
vn 0.00868083 0.00014934 -0.00496194
vn 0.00940704 0 0.00339229
vn 0.00984219 -0.00038818 0.00172643
vn 0.00999223 -0.0003941 0
vn 0.00984219 -0.00038818 -0.00172643
vn 0.00868243 0 -0.00496139
vn 0.00939677 -0.00037062 -0.00340049
vn 0.00940549 0.0001618 0.00339274
vn 0.00939677 -0.00037062 0.00340049
vn 0.00769687 0.00013241 -0.00638284
vn 0.00866985 -0.00034195 -0.00497159
vn 0.00868243 0 0.00496139
vn 0.00993595 -0.00113002 0
vn 0.00978755 -0.00111314 0.00172186
vn 0.00978755 -0.00111314 -0.00172186
vn 0.00934678 -0.00106301 -0.00339229
vn 0.00769847 0 -0.00638228
vn 0.00862682 -0.00098113 -0.00496139
vn 0.00868083 0.00014934 0.00496194
vn 0.00866985 -0.00034195 0.00497159
vn 0.00934678 -0.00106301 0.00339229
vn 0.00648303 0.00011153 -0.00761301
vn 0.00768393 -0.00030306 -0.0063926
vn 0.00764916 -0.00086994 -0.00638228
vn 0.00769847 0 0.00638228
vn 0.00648455 0 -0.00761253
vn 0.00769687 0.00013241 0.00638284
vn 0.00768393 -0.00030306 0.0063926
vn 0.00862682 -0.00098113 0.00496139
vn 0.00952482 0 0.00304596
vn 0.00646926 -0.00025515 -0.00762125
vn 0.00644301 -0.00073277 -0.00761253
vn 0.00648455 0 0.00761253
vn 0.00879041 0.00015122 -0.00476506
vn 0.00648303 0.00011153 0.00761301
vn 0.00646926 -0.00025515 0.00762125
vn 0.00764916 -0.00086994 0.00638228
vn -0.00879041 -0.00015122 0.00476506
vn 0.00878801 -0.0002393 0.00476588
vn -0.00952482 0 -0.00304596
vn 0.00946381 -0.00107632 0.00304596
vn 0.00877973 -0.00034628 -0.00477456
vn 0.00580101 9.98e-05 0.00814483
vn 0.00580244 0 0.00814443
vn 0.00952482 0 -0.00304596
vn -0.00877973 0.00034628 0.00477456
vn -0 -0 0.01
vn 0.00644301 -0.00073277 0.00761253
vn -0.00878801 0.0002393 -0.00476588
vn -0.00648455 0 -0.00761253
vn -0.00952482 -0 0.00304596
vn 0.00878117 0.00025823 0.00477748
vn -0.00946381 0.00107632 -0.00304596
vn 0.00578744 -0.00022826 0.00815189
vn 0.00576528 -0.00065569 0.00814443
vn -0.00648075 0.00017647 -0.00761372
vn -0.00646852 -0.00019022 -0.00762378
vn -0.00878117 -0.00025823 -0.00477748
vn 0.00946381 0.00107632 -0.00304596
vn -0.00580244 0 0.00814443
vn -0.00648075 0.00017647 0.00761372
vn -0.00579887 0.0001579 0.00814544
vn -0.00769446 0.00020952 -0.00638369
vn -0.00946381 -0.00107632 0.00304596
vn 0 0 -0.01
vn -0.00648455 0 0.00761253
vn -0.00646852 -0.00019022 0.00762378
vn -0.0057864 -0.00017016 0.00815406
vn -0.0076841 -0.00022597 -0.00639559
vn -0.00769847 0 -0.00638228
vn -0.00644301 -0.00073277 -0.00761253
vn -0.00769847 0 0.00638228
vn -0.00769446 0.00020952 0.00638369
vn -0.00576528 -0.00065569 0.00814443
vn -0.00867842 0.00023631 -0.00496278
vn -0.00867115 -0.00025499 -0.00497456
vn 0 -0.01 0
vn -0.0076841 -0.00022597 0.00639559
vn -0.00644301 -0.00073277 0.00761253
vn -0.00764916 -0.00086994 -0.00638228
vn -0.00868243 0 -0.00496139
vn -0.00868243 0 0.00496139
vn -0.00867842 0.00023631 0.00496278
vn -0.00764916 -0.00086994 0.00638228
vn -0.00940315 0.00025605 -0.0033934
vn -0.00939915 -0.0002764 -0.00340287
vn -0.00862682 -0.00098113 -0.00496139
vn -0.00867115 -0.00025499 0.00497456
vn -0.00862682 -0.00098113 0.00496139
vn -0.00940704 0 -0.00339229
vn -0.00940704 0 0.00339229
vn -0.00940315 0.00025605 0.0033934
vn -0.00984689 0.00026813 -0.00172248
vn -0.00984536 -0.00028952 -0.00172775
vn -0.00934678 -0.00106301 -0.00339229
vn -0.00939915 -0.0002764 0.00340287
vn -0.00934678 -0.00106301 0.00339229
vn -0.00985064 0 -0.00172186
vn -0.00985064 0 0.00172186
vn -0.00984689 0.00026813 0.00172248
vn -0.00999629 0.0002722 0
vn -0.00999568 -0.00029394 -0
vn -0.00978755 -0.00111314 -0.00172186
vn -0.00984536 -0.00028952 0.00172775
vn -0.00978755 -0.00111314 0.00172186
vn -0.01 0 0
vn -0.00993595 -0.00113002 -0
vn -0.00999852 -0.00017201 0
vn -0.00984914 -0.00016944 0.00172211
vn -0.00940549 -0.0001618 0.00339274
vn -0.00984914 -0.00016944 -0.00172211
vn -0.00868083 -0.00014934 0.00496194
vn -0.00984219 0.00038818 -0.00172643
vn -0.00999223 0.0003941 0
vn -0.00984219 0.00038818 0.00172643
vn -0.00939677 0.00037062 0.00340049
vn -0.00940549 -0.0001618 -0.00339274
vn -0.00939677 0.00037062 -0.00340049
vn -0.00769687 -0.00013241 0.00638284
vn -0.00866985 0.00034195 0.00497159
vn -0.00993595 0.00113002 0
vn -0.00978755 0.00111314 -0.00172186
vn -0.00978755 0.00111314 0.00172186
vn -0.00934678 0.00106301 0.00339229
vn -0.00862682 0.00098113 0.00496139
vn -0.00868083 -0.00014934 -0.00496194
vn -0.00866985 0.00034195 -0.00497159
vn -0.00934678 0.00106301 -0.00339229
vn -0.00648303 -0.00011153 0.00761301
vn -0.00768393 0.00030306 0.0063926
vn -0.00764916 0.00086994 0.00638228
vn -0.00769687 -0.00013241 -0.00638284
vn -0.00768393 0.00030306 -0.0063926
vn -0.00862682 0.00098113 -0.00496139
vn -0.00646926 0.00025515 0.00762125
vn -0.00644301 0.00073277 0.00761253
vn -0.00648303 -0.00011153 -0.00761301
vn -0.00646926 0.00025515 -0.00762125
vn -0.00764916 0.00086994 -0.00638228
vn -0.00580244 0 -0.00814443
vn -0.00580101 -9.98e-05 -0.00814483
vn -0.00644301 0.00073277 -0.00761253
vn -0.00578744 0.00022826 -0.00815189
vn -0.00576528 0.00065569 -0.00814443
vn 0.00648075 -0.00017647 0.00761372
vn 0.00646852 0.00019022 0.00762378
vn 0.00579887 -0.0001579 -0.00814544
vn 0.00648075 -0.00017647 -0.00761372
vn 0.00580244 0 -0.00814443
vn 0.00769446 -0.00020952 0.00638369
vn 0.00646852 0.00019022 -0.00762378
vn 0.0057864 0.00017016 -0.00815406
vn 0.0076841 0.00022597 0.00639559
vn 0.00644301 0.00073277 0.00761253
vn 0.00769446 -0.00020952 -0.00638369
vn 0.00576528 0.00065569 -0.00814443
vn 0.00867842 -0.00023631 0.00496278
vn 0.00867115 0.00025499 0.00497456
vn 0.0076841 0.00022597 -0.00639559
vn 0.00644301 0.00073277 -0.00761253
vn 0.00764916 0.00086994 0.00638228
vn 0.00867842 -0.00023631 -0.00496278
vn 0.00764916 0.00086994 -0.00638228
vn 0.00940315 -0.00025605 0.0033934
vn 0.00939915 0.0002764 0.00340287
vn 0.00862682 0.00098113 0.00496139
vn 0.00867115 0.00025499 -0.00497456
vn 0.00862682 0.00098113 -0.00496139
vn 0.00940315 -0.00025605 -0.0033934
vn 0.00984689 -0.00026813 0.00172248
vn 0.00984536 0.00028952 0.00172775
vn 0.00934678 0.00106301 0.00339229
vn 0.00939915 0.0002764 -0.00340287
vn 0.00934678 0.00106301 -0.00339229
vn 0.00984689 -0.00026813 -0.00172248
vn 0.00999629 -0.0002722 0
vn 0.00999568 0.00029394 0
vn 0.00978755 0.00111314 0.00172186
vn 0.00984536 0.00028952 -0.00172775
vn 0.00978755 0.00111314 -0.00172186
vn 0.00993595 0.00113002 0

# Mesh 'mesh1_mesh1-geometry' with 208 faces
g mesh1_mesh1-geometry
usemtl material_0_24
f  1/1/1 2/1/1 3/1/1
f  2/1/1 1/1/1 4/1/1
f  2/1/2 5/1/3 3/1/4
f  3/1/4 6/1/5 1/1/6
f  1/1/6 7/1/7 4/1/8
f  2/1/1 4/1/1 8/1/1
f  5/1/3 2/1/2 9/1/9
f  6/1/5 3/1/4 5/1/3
f  7/1/7 1/1/6 6/1/5
f  10/1/10 4/1/8 7/1/7
f  8/1/1 4/1/1 11/1/1
f  8/1/11 9/1/9 2/1/2
f  12/1/12 5/1/3 9/1/9
f  13/1/13 6/1/5 5/1/3
f  14/1/14 7/1/7 6/1/5
f  4/1/8 10/1/10 11/1/15
f  15/1/16 10/1/10 7/1/7
f  8/1/1 11/1/1 16/1/1
f  9/1/9 8/1/11 17/1/17
f  5/1/3 12/1/12 13/1/13
f  9/1/9 18/1/18 12/1/12
f  6/1/5 13/1/13 14/1/14
f  7/1/7 14/1/14 15/1/16
f  19/1/19 11/1/15 10/1/10
f  10/1/10 15/1/16 20/1/20
f  16/1/1 11/1/1 21/1/1
f  16/1/21 17/1/17 8/1/11
f  18/1/18 9/1/9 17/1/17
f  12/1/12 22/1/22 13/1/13
f  18/1/18 23/1/23 12/1/12
f  13/1/13 24/1/24 14/1/14
f  14/1/14 25/1/25 15/1/16
f  11/1/15 19/1/19 21/1/26
f  20/1/20 19/1/19 10/1/10
f  15/1/16 26/1/27 20/1/20
f  16/1/1 21/1/1 27/1/1
f  17/1/17 16/1/21 28/1/28
f  17/1/17 29/1/29 18/1/18
f  22/1/22 12/1/12 23/1/23
f  24/1/24 13/1/13 22/1/22
f  23/1/23 18/1/18 30/1/30
f  25/1/25 14/1/14 24/1/24
f  26/1/27 15/1/16 25/1/25
f  31/1/31 21/1/26 19/1/19
f  19/1/19 20/1/20 32/1/32
f  33/1/33 20/1/20 26/1/27
f  27/1/1 21/1/1 34/1/1
f  27/1/34 28/1/28 16/1/21
f  29/1/29 17/1/17 28/1/28
f  29/1/29 30/1/30 18/1/18
f  21/1/26 31/1/31 34/1/35
f  32/1/32 31/1/31 19/1/19
f  20/1/20 33/1/33 32/1/32
f  27/1/1 34/1/1 35/1/1
f  28/1/28 27/1/34 36/1/36
f  28/1/28 37/1/37 29/1/29
f  30/1/30 29/1/29 38/1/38
f  31/1/31 39/1/39 34/1/35
f  31/1/31 32/1/32 40/1/40
f  41/1/41 32/1/32 33/1/33
f  35/1/1 34/1/1 39/1/1
f  35/1/42 36/1/36 27/1/34
f  37/1/37 28/1/28 36/1/36
f  37/1/37 38/1/38 29/1/29
f  39/1/39 31/1/31 42/1/43
f  32/1/32 41/1/41 40/1/40
f  40/1/40 42/1/43 31/1/31
f  35/1/1 39/1/1 43/1/1
f  36/1/36 35/1/42 44/1/44
f  36/1/36 45/1/45 37/1/37
f  38/1/38 37/1/37 46/1/46
f  42/1/47 47/1/48 39/1/49
f  48/1/50 40/1/40 41/1/41
f  42/1/43 40/1/40 49/1/51
f  43/1/1 39/1/1 50/1/1
f  51/1/52 35/1/42 43/1/53
f  35/1/42 51/1/52 44/1/44
f  45/1/45 36/1/36 44/1/44
f  45/1/45 46/1/46 37/1/37
f  50/1/54 39/1/49 47/1/48
f  49/1/55 47/1/48 42/1/47
f  40/1/40 48/1/50 49/1/51
f  43/1/1 50/1/1 52/1/1
f  43/1/56 53/1/56 51/1/56
f  51/1/52 45/1/45 44/1/44
f  46/1/46 45/1/45 54/1/57
f  47/1/58 55/1/59 50/1/60
f  56/1/61 47/1/48 49/1/55
f  48/1/62 56/1/61 49/1/55
f  52/1/1 50/1/1 55/1/1
f  53/1/56 43/1/56 52/1/56
f  51/1/56 53/1/56 57/1/56
f  45/1/45 51/1/52 57/1/63
f  45/1/45 58/1/64 54/1/57
f  55/1/59 47/1/58 59/1/65
f  60/1/66 47/1/58 56/1/67
f  61/1/68 56/1/61 48/1/62
f  52/1/1 55/1/1 62/1/1
f  52/1/69 63/1/70 53/1/71
f  57/1/56 53/1/56 64/1/56
f  58/1/64 45/1/45 57/1/63
f  47/1/58 60/1/66 59/1/65
f  65/1/72 55/1/59 59/1/65
f  61/1/73 60/1/66 56/1/67
f  66/1/74 61/1/68 48/1/62
f  62/1/1 55/1/1 67/1/1
f  63/1/70 52/1/69 62/1/75
f  68/1/76 53/1/71 63/1/70
f  53/1/71 68/1/76 64/1/77
f  57/1/56 64/1/56 58/1/56
f  69/1/78 59/1/65 60/1/66
f  55/1/59 65/1/72 67/1/79
f  59/1/65 69/1/78 65/1/72
f  60/1/66 61/1/73 70/1/80
f  71/1/74 61/1/68 66/1/74
f  62/1/1 67/1/1 72/1/1
f  72/1/81 63/1/70 62/1/75
f  73/1/82 68/1/76 63/1/70
f  68/1/76 74/1/83 64/1/77
f  58/1/56 64/1/56 74/1/56
f  70/1/80 69/1/78 60/1/66
f  75/1/84 67/1/79 65/1/72
f  76/1/85 65/1/72 69/1/78
f  66/1/86 77/1/86 71/1/86
f  72/1/1 67/1/1 78/1/1
f  63/1/70 72/1/81 73/1/82
f  68/1/76 73/1/82 79/1/87
f  74/1/83 68/1/76 80/1/88
f  58/1/56 74/1/56 81/1/56
f  69/1/78 70/1/80 82/1/89
f  67/1/79 75/1/84 78/1/90
f  65/1/72 76/1/85 75/1/84
f  82/1/89 76/1/85 69/1/78
f  66/1/86 81/1/86 77/1/86
f  71/1/86 77/1/86 83/1/86
f  72/1/1 78/1/1 84/1/1
f  84/1/91 73/1/82 72/1/81
f  85/1/92 79/1/87 73/1/82
f  86/1/93 68/1/76 79/1/87
f  68/1/76 86/1/93 80/1/88
f  81/1/56 74/1/56 77/1/56
f  87/1/94 78/1/90 75/1/84
f  88/1/95 75/1/84 76/1/85
f  76/1/85 82/1/89 89/1/96
f  90/1/86 81/1/86 66/1/86
f  71/1/86 83/1/86 91/1/86
f  84/1/1 78/1/1 92/1/1
f  73/1/82 84/1/91 85/1/92
f  79/1/87 85/1/92 93/1/97
f  79/1/87 94/1/98 86/1/93
f  78/1/90 87/1/94 92/1/99
f  75/1/84 88/1/95 87/1/94
f  89/1/96 88/1/95 76/1/85
f  90/1/86 95/1/86 81/1/86
f  91/1/86 83/1/86 96/1/86
f  84/1/1 92/1/1 97/1/1
f  97/1/100 85/1/92 84/1/91
f  98/1/101 93/1/97 85/1/92
f  94/1/98 79/1/87 93/1/97
f  99/1/102 92/1/99 87/1/94
f  100/1/103 87/1/94 88/1/95
f  88/1/95 89/1/96 101/1/104
f  102/1/86 95/1/86 90/1/86
f  91/1/86 96/1/86 103/1/86
f  97/1/1 92/1/1 104/1/1
f  85/1/92 97/1/100 98/1/101
f  93/1/97 98/1/101 105/1/105
f  93/1/97 106/1/106 94/1/98
f  92/1/99 99/1/102 104/1/107
f  87/1/94 100/1/103 99/1/102
f  101/1/104 100/1/103 88/1/95
f  102/1/86 107/1/86 95/1/86
f  103/1/86 96/1/86 108/1/86
f  97/1/1 104/1/1 109/1/1
f  109/1/108 98/1/101 97/1/100
f  110/1/109 105/1/105 98/1/101
f  106/1/106 93/1/97 105/1/105
f  111/1/110 104/1/107 99/1/102
f  112/1/111 99/1/102 100/1/103
f  100/1/103 101/1/104 113/1/112
f  114/1/86 107/1/86 102/1/86
f  103/1/86 108/1/86 115/1/86
f  109/1/1 104/1/1 116/1/1
f  98/1/101 109/1/108 110/1/109
f  105/1/105 110/1/109 117/1/113
f  105/1/105 118/1/114 106/1/106
f  104/1/107 111/1/110 116/1/115
f  99/1/102 112/1/111 111/1/110
f  113/1/112 112/1/111 100/1/103
f  114/1/86 119/1/86 107/1/86
f  115/1/86 108/1/86 120/1/86
f  116/1/115 110/1/109 109/1/108
f  111/1/110 117/1/113 110/1/109
f  118/1/114 105/1/105 117/1/113
f  110/1/109 116/1/115 111/1/110
f  117/1/113 111/1/110 112/1/111
f  112/1/111 113/1/112 121/1/116
f  122/1/86 119/1/86 114/1/86
f  115/1/86 120/1/86 123/1/86
f  117/1/113 121/1/116 118/1/114
f  121/1/116 117/1/113 112/1/111
f  122/1/86 124/1/86 119/1/86
f  123/1/86 120/1/86 125/1/86
f  126/1/86 124/1/86 122/1/86
f  123/1/86 125/1/86 127/1/86
f  126/1/86 128/1/86 124/1/86
f  127/1/86 125/1/86 129/1/86
f  128/1/86 126/1/86 130/1/86

# Mesh 'mesh1_mesh1-geometry' with 200 faces
g mesh1_mesh1-geometry
usemtl material_1_24
f  3/1/86 2/1/86 1/1/86
f  4/1/86 1/1/86 2/1/86
f  3/1/115 5/1/117 2/1/107
f  1/1/108 6/1/118 3/1/115
f  4/1/100 7/1/119 1/1/108
f  8/1/86 4/1/86 2/1/86
f  9/1/120 2/1/107 5/1/117
f  5/1/117 3/1/115 6/1/118
f  6/1/118 1/1/108 7/1/119
f  7/1/119 4/1/100 10/1/121
f  11/1/86 4/1/86 8/1/86
f  2/1/107 9/1/120 8/1/99
f  9/1/120 5/1/117 12/1/122
f  5/1/117 6/1/118 13/1/123
f  6/1/118 7/1/119 14/1/124
f  11/1/91 10/1/121 4/1/100
f  7/1/119 10/1/121 15/1/125
f  16/1/86 11/1/86 8/1/86
f  17/1/126 8/1/99 9/1/120
f  13/1/123 12/1/122 5/1/117
f  12/1/122 18/1/127 9/1/120
f  14/1/124 13/1/123 6/1/118
f  15/1/125 14/1/124 7/1/119
f  10/1/121 11/1/91 19/1/128
f  20/1/129 15/1/125 10/1/121
f  21/1/86 11/1/86 16/1/86
f  8/1/99 17/1/126 16/1/90
f  17/1/126 9/1/120 18/1/127
f  13/1/123 22/1/130 12/1/122
f  12/1/122 23/1/131 18/1/127
f  14/1/124 24/1/132 13/1/123
f  15/1/125 25/1/133 14/1/124
f  21/1/81 19/1/128 11/1/91
f  10/1/121 19/1/128 20/1/129
f  20/1/129 26/1/134 15/1/125
f  27/1/86 21/1/86 16/1/86
f  28/1/135 16/1/90 17/1/126
f  18/1/127 29/1/136 17/1/126
f  23/1/131 12/1/122 22/1/130
f  22/1/130 13/1/123 24/1/132
f  30/1/137 18/1/127 23/1/131
f  24/1/132 14/1/124 25/1/133
f  25/1/133 15/1/125 26/1/134
f  19/1/128 21/1/81 31/1/138
f  32/1/139 20/1/129 19/1/128
f  26/1/134 20/1/129 33/1/140
f  34/1/86 21/1/86 27/1/86
f  16/1/90 28/1/135 27/1/79
f  28/1/135 17/1/126 29/1/136
f  18/1/127 30/1/137 29/1/136
f  34/1/75 31/1/138 21/1/81
f  19/1/128 31/1/138 32/1/139
f  32/1/139 33/1/140 20/1/129
f  35/1/86 34/1/86 27/1/86
f  36/1/141 27/1/79 28/1/135
f  29/1/136 37/1/142 28/1/135
f  38/1/143 29/1/136 30/1/137
f  34/1/75 39/1/49 31/1/138
f  40/1/144 32/1/139 31/1/138
f  33/1/140 32/1/139 41/1/145
f  39/1/86 34/1/86 35/1/86
f  27/1/79 36/1/141 35/1/59
f  36/1/141 28/1/135 37/1/142
f  29/1/136 38/1/143 37/1/142
f  42/1/47 31/1/138 39/1/49
f  40/1/144 41/1/145 32/1/139
f  31/1/138 42/1/47 40/1/144
f  43/1/86 39/1/86 35/1/86
f  44/1/146 35/1/59 36/1/141
f  37/1/142 45/1/147 36/1/141
f  46/1/148 37/1/142 38/1/143
f  41/1/145 40/1/144 48/1/62
f  49/1/55 40/1/144 42/1/47
f  50/1/86 39/1/86 43/1/86
f  43/1/149 35/1/59 51/1/150
f  44/1/146 51/1/150 35/1/59
f  44/1/146 36/1/141 45/1/147
f  37/1/142 46/1/148 45/1/147
f  49/1/55 48/1/62 40/1/144
f  52/1/86 50/1/86 43/1/86
f  51/1/74 53/1/74 43/1/74
f  44/1/146 45/1/147 51/1/150
f  54/1/151 45/1/147 46/1/148
f  50/1/54 55/1/42 47/1/48
f  55/1/86 50/1/86 52/1/86
f  52/1/74 43/1/74 53/1/74
f  57/1/74 53/1/74 51/1/74
f  57/1/152 51/1/150 45/1/147
f  54/1/151 58/1/153 45/1/147
f  59/1/154 47/1/48 55/1/42
f  56/1/61 47/1/48 60/1/155
f  62/1/86 55/1/86 52/1/86
f  53/1/156 63/1/157 52/1/158
f  64/1/74 53/1/74 57/1/74
f  57/1/152 45/1/147 58/1/153
f  59/1/154 60/1/155 47/1/48
f  59/1/154 55/1/42 65/1/159
f  56/1/61 60/1/155 61/1/68
f  67/1/86 55/1/86 62/1/86
f  62/1/35 52/1/158 63/1/157
f  63/1/157 53/1/156 68/1/160
f  64/1/161 68/1/160 53/1/156
f  58/1/74 64/1/74 57/1/74
f  60/1/155 59/1/154 69/1/162
f  67/1/34 65/1/159 55/1/42
f  65/1/159 69/1/162 59/1/154
f  70/1/163 61/1/68 60/1/155
f  72/1/86 67/1/86 62/1/86
f  62/1/35 63/1/157 72/1/26
f  63/1/157 68/1/160 73/1/164
f  64/1/161 74/1/165 68/1/160
f  74/1/74 64/1/74 58/1/74
f  60/1/155 69/1/162 70/1/163
f  65/1/159 67/1/34 75/1/166
f  69/1/162 65/1/159 76/1/167
f  71/1/1 77/1/1 66/1/1
f  78/1/86 67/1/86 72/1/86
f  73/1/164 72/1/26 63/1/157
f  79/1/168 73/1/164 68/1/160
f  80/1/169 68/1/160 74/1/165
f  81/1/74 74/1/74 58/1/74
f  82/1/170 70/1/163 69/1/162
f  78/1/21 75/1/166 67/1/34
f  75/1/166 76/1/167 65/1/159
f  69/1/162 76/1/167 82/1/170
f  77/1/1 81/1/1 66/1/1
f  83/1/1 77/1/1 71/1/1
f  84/1/86 78/1/86 72/1/86
f  72/1/26 73/1/164 84/1/15
f  73/1/164 79/1/168 85/1/171
f  79/1/168 68/1/160 86/1/172
f  80/1/169 86/1/172 68/1/160
f  77/1/74 74/1/74 81/1/74
f  75/1/166 78/1/21 87/1/173
f  76/1/167 75/1/166 88/1/174
f  89/1/175 82/1/170 76/1/167
f  66/1/1 81/1/1 90/1/1
f  91/1/1 83/1/1 71/1/1
f  92/1/86 78/1/86 84/1/86
f  85/1/171 84/1/15 73/1/164
f  93/1/176 85/1/171 79/1/168
f  86/1/172 94/1/177 79/1/168
f  92/1/11 87/1/173 78/1/21
f  87/1/173 88/1/174 75/1/166
f  76/1/167 88/1/174 89/1/175
f  81/1/1 95/1/1 90/1/1
f  96/1/1 83/1/1 91/1/1
f  97/1/86 92/1/86 84/1/86
f  84/1/15 85/1/171 97/1/8
f  85/1/171 93/1/176 98/1/178
f  93/1/176 79/1/168 94/1/177
f  87/1/173 92/1/11 99/1/179
f  88/1/174 87/1/173 100/1/180
f  101/1/181 89/1/175 88/1/174
f  90/1/1 95/1/1 102/1/1
f  103/1/1 96/1/1 91/1/1
f  104/1/86 92/1/86 97/1/86
f  98/1/178 97/1/8 85/1/171
f  105/1/182 98/1/178 93/1/176
f  94/1/177 106/1/183 93/1/176
f  104/1/2 99/1/179 92/1/11
f  99/1/179 100/1/180 87/1/173
f  88/1/174 100/1/180 101/1/181
f  95/1/1 107/1/1 102/1/1
f  108/1/1 96/1/1 103/1/1
f  109/1/86 104/1/86 97/1/86
f  97/1/8 98/1/178 109/1/6
f  98/1/178 105/1/182 110/1/184
f  105/1/182 93/1/176 106/1/183
f  99/1/179 104/1/2 111/1/185
f  100/1/180 99/1/179 112/1/186
f  113/1/187 101/1/181 100/1/180
f  102/1/1 107/1/1 114/1/1
f  115/1/1 108/1/1 103/1/1
f  116/1/86 104/1/86 109/1/86
f  110/1/184 109/1/6 98/1/178
f  117/1/188 110/1/184 105/1/182
f  106/1/183 118/1/189 105/1/182
f  116/1/4 111/1/185 104/1/2
f  111/1/185 112/1/186 99/1/179
f  100/1/180 112/1/186 113/1/187
f  107/1/1 119/1/1 114/1/1
f  120/1/1 108/1/1 115/1/1
f  109/1/6 110/1/184 116/1/4
f  110/1/184 117/1/188 111/1/185
f  117/1/188 105/1/182 118/1/189
f  111/1/185 116/1/4 110/1/184
f  112/1/186 111/1/185 117/1/188
f  121/1/190 113/1/187 112/1/186
f  114/1/1 119/1/1 122/1/1
f  123/1/1 120/1/1 115/1/1
f  118/1/189 121/1/190 117/1/188
f  112/1/186 117/1/188 121/1/190
f  119/1/1 124/1/1 122/1/1
f  125/1/1 120/1/1 123/1/1
f  122/1/1 124/1/1 126/1/1
f  127/1/1 125/1/1 123/1/1
f  124/1/1 128/1/1 126/1/1
f  129/1/1 125/1/1 127/1/1
f  130/1/1 126/1/1 128/1/1

# Mesh 'mesh1_mesh1-geometry' with 8 faces
g mesh1_mesh1-geometry
usemtl material_2_1_8
f  39/2/39 47/3/58 42/4/43
f  47/3/58 39/2/39 50/5/60
f  42/4/43 47/3/58 49/6/51
f  49/6/51 47/3/58 56/7/67
f  49/6/51 56/7/67 48/8/50
f  48/8/50 56/7/67 61/9/73
f  48/8/50 61/9/73 66/10/56
f  66/10/56 61/9/73 71/11/56

