# File produced by Open Asset Import Library (http://www.assimp.sf.net)
# (assimp v3.2.202087883)

mtllib model_normalized.mtl

# 54 vertex positions
v 0.376399 -0.105348 -0.064568
v 0.366226 -0.095174 -0.064568
v 0.376399 0.382974 -0.064568
v -0.373886 -0.105348 -0.064568
v 0.366226 0.372800 -0.064568
v 0.376399 -0.105348 -0.013701
v -0.363712 -0.095174 -0.064568
v -0.373886 0.382974 -0.064568
v 0.376399 0.382974 -0.013701
v -0.373886 -0.105348 -0.013701
v -0.363712 0.372800 -0.064568
v -0.373886 0.382974 -0.013701
v 0.254319 0.260893 0.037166
v 0.254319 0.016732 0.037166
v -0.251805 0.016732 0.037166
v -0.251805 0.260893 0.037166
v 0.366226 0.372800 -0.059481
v 0.366226 -0.095174 -0.059481
v 0.366226 0.372800 -0.013701
v 0.366226 -0.095174 -0.013701
v -0.363712 0.372800 -0.059481
v -0.363712 -0.095174 -0.059481
v -0.363712 -0.095174 -0.013701
v -0.363712 0.372800 -0.013701
v 0.051134 -0.234487 -0.016243
v -0.053144 -0.234487 0.105837
v -0.053144 -0.234487 -0.016243
v 0.051134 -0.234487 0.105837
v -0.167314 -0.234487 -0.008332
v 0.165303 -0.234487 -0.130413
v 0.051134 -0.214141 0.105837
v -0.167314 -0.234487 -0.130413
v -0.167314 -0.214141 -0.008332
v -0.167314 -0.214141 -0.130413
v -0.053144 -0.214141 -0.016243
v 0.165303 -0.234487 -0.008332
v 0.165303 -0.214141 -0.130413
v -0.053144 -0.214141 0.105837
v -0.053144 -0.214141 0.004103
v 0.051134 -0.214141 -0.016243
v 0.165303 -0.214141 -0.008332
v 0.051134 -0.214141 0.004103
v -0.053144 -0.112407 0.105837
v 0.051134 -0.112407 0.105837
v -0.053144 0.152101 0.105837
v 0.051134 0.152101 0.105837
v 0.051134 0.152101 0.034624
v -0.053144 0.152101 0.034624
v -0.053144 -0.112407 0.085490
v 0.051134 -0.112407 0.085490
v -0.053144 0.131754 0.085490
v 0.051134 0.131754 0.085490
v -0.053144 0.131754 0.034624
v 0.051134 0.131754 0.034624

# 0 UV coordinates

# 20 vertex normals
vn 0 0 -0.0254
vn 0.0254 0 0
vn 0 -0.0254 0
vn 0 0.0254 0
vn 0.00976922 0 0.0234462
vn -0 -0.00976922 0.0234462
vn -0.0254 0 0
vn 0 0.00976922 0.0234462
vn -0.00976922 0 0.0234462
vn 0 0 0.0254
vn -0.00976922 0 -0.0234462
vn 0 0.00976922 -0.0234462
vn 0 -0.00976922 -0.0234462
vn 0.00976922 0 -0.0234462
vn -0.0179605 -0 0.0179605
vn 0.0179605 0 -0.0179605
vn -0.0179605 0 -0.0179605
vn 0.0179605 0 0.0179605
vn -0 -0.0179605 0.0179605
vn 0 0.0179605 -0.0179605

# Mesh 'mesh1_mesh1-geometry' with 26 faces
g mesh1_mesh1-geometry
usemtl material_0_24
f  1//1 2//1 3//1
f  2//1 1//1 4//1
f  5//1 3//1 2//1
f  3//2 6//2 1//2
f  6//3 4//3 1//3
f  2//1 4//1 7//1
f  3//1 5//1 8//1
f  6//2 3//2 9//2
f  4//3 6//3 10//3
f  7//1 4//1 11//1
f  8//1 5//1 11//1
f  12//4 3//4 8//4
f  3//4 12//4 9//4
f  13//5 6//5 9//5
f  14//6 10//6 6//6
f  10//7 8//7 4//7
f  8//1 11//1 4//1
f  8//7 10//7 12//7
f  12//8 13//8 9//8
f  6//5 13//5 14//5
f  10//6 14//6 15//6
f  15//9 12//9 10//9
f  13//8 12//8 16//8
f  16//10 14//10 13//10
f  14//10 16//10 15//10
f  12//9 15//9 16//9

# Mesh 'mesh1_mesh1-geometry' with 50 faces
g mesh1_mesh1-geometry
usemtl material_1_24
f  3//10 2//10 1//10
f  4//10 1//10 2//10
f  2//10 3//10 5//10
f  1//7 6//7 3//7
f  1//4 4//4 6//4
f  7//10 4//10 2//10
f  8//10 5//10 3//10
f  2//7 17//7 5//7
f  5//2 17//2 2//2
f  9//7 3//7 6//7
f  10//4 6//4 4//4
f  11//10 4//10 7//10
f  7//4 18//4 2//4
f  2//3 18//3 7//3
f  11//10 5//10 8//10
f  8//3 3//3 12//3
f  17//7 2//7 18//7
f  18//2 2//2 17//2
f  17//3 11//3 5//3
f  5//4 11//4 17//4
f  9//3 12//3 3//3
f  6//1 19//1 9//1
f  9//11 6//11 13//11
f  10//1 20//1 6//1
f  6//12 10//12 14//12
f  4//2 8//2 10//2
f  4//10 11//10 8//10
f  21//2 7//2 11//2
f  11//7 7//7 21//7
f  18//4 7//4 22//4
f  22//3 7//3 18//3
f  12//2 10//2 8//2
f  11//3 17//3 21//3
f  21//4 17//4 11//4
f  12//1 9//1 19//1
f  9//13 13//13 12//13
f  19//1 6//1 20//1
f  14//11 13//11 6//11
f  23//1 20//1 10//1
f  15//12 14//12 10//12
f  7//2 21//2 22//2
f  22//7 21//7 7//7
f  12//1 23//1 10//1
f  10//14 12//14 15//14
f  24//1 12//1 19//1
f  16//13 12//13 13//13
f  13//1 14//1 16//1
f  15//1 16//1 14//1
f  23//1 12//1 24//1
f  16//14 15//14 12//14

# Mesh 'mesh1_mesh1-geometry' with 10 faces
g mesh1_mesh1-geometry
usemtl material_2_24
f  9//10 19//10 6//10
f  6//10 20//10 10//10
f  21//10 18//10 17//10
f  19//10 9//10 12//10
f  20//10 6//10 19//10
f  10//10 20//10 23//10
f  18//10 21//10 22//10
f  10//10 23//10 12//10
f  19//10 12//10 24//10
f  24//10 12//10 23//10

# Mesh 'mesh1_mesh1-geometry' with 2 faces
g mesh1_mesh1-geometry
usemtl material_3_24
f  17//1 18//1 21//1
f  22//1 21//1 18//1

# Mesh 'mesh2_mesh2-geometry' with 1 faces
g mesh2_mesh2-geometry
usemtl material_4_0
l  24 21

# Mesh 'mesh3_mesh3-geometry' with 1 faces
g mesh3_mesh3-geometry
usemtl material_4_0
l  19 17

# Mesh 'mesh4_mesh4-geometry' with 1 faces
g mesh4_mesh4-geometry
usemtl material_4_0
l  20 18

# Mesh 'mesh5_mesh5-geometry' with 1 faces
g mesh5_mesh5-geometry
usemtl material_4_0
l  23 22

# Mesh 'mesh6_mesh6-geometry' with 34 faces
g mesh6_mesh6-geometry
usemtl material_0_24
f  25//3 26//3 27//3
f  26//3 25//3 28//3
f  29//3 27//3 26//3
f  30//3 28//3 25//3
f  31//10 26//10 28//10
f  27//3 29//3 32//3
f  26//15 33//15 29//15
f  27//16 34//16 35//16
f  28//3 30//3 36//3
f  25//17 37//17 30//17
f  26//10 31//10 38//10
f  36//18 31//18 28//18
f  29//7 34//7 32//7
f  34//16 27//16 32//16
f  33//15 26//15 38//15
f  34//7 29//7 33//7
f  31//4 39//4 38//4
f  35//4 38//4 39//4
f  37//17 25//17 40//17
f  34//4 38//4 35//4
f  30//2 41//2 36//2
f  41//2 30//2 37//2
f  39//4 31//4 42//4
f  41//4 42//4 31//4
f  42//4 41//4 40//4
f  31//18 36//18 41//18
f  38//4 34//4 33//4
f  39//19 42//19 43//19
f  40//4 41//4 37//4
f  44//19 43//19 42//19
f  43//10 44//10 45//10
f  46//10 45//10 44//10
f  46//4 47//4 45//4
f  48//4 45//4 47//4

# Mesh 'mesh6_mesh6-geometry' with 94 faces
g mesh6_mesh6-geometry
usemtl material_4_24
f  27//4 26//4 25//4
f  28//4 25//4 26//4
f  26//4 27//4 29//4
f  26//7 39//7 27//7
f  27//2 39//2 26//2
f  35//1 25//1 27//1
f  27//10 25//10 35//10
f  25//4 28//4 30//4
f  28//7 42//7 25//7
f  25//2 42//2 28//2
f  28//1 26//1 31//1
f  32//4 29//4 27//4
f  29//16 33//16 26//16
f  39//7 26//7 38//7
f  38//2 26//2 39//2
f  27//7 39//7 35//7
f  35//2 39//2 27//2
f  25//1 35//1 40//1
f  40//10 35//10 25//10
f  35//15 34//15 27//15
f  36//4 30//4 28//4
f  30//18 37//18 25//18
f  42//7 28//7 31//7
f  31//2 28//2 42//2
f  25//7 42//7 40//7
f  40//2 42//2 25//2
f  38//1 31//1 26//1
f  28//17 31//17 36//17
f  32//2 34//2 29//2
f  32//15 27//15 34//15
f  38//16 26//16 33//16
f  33//2 29//2 34//2
f  38//3 39//3 31//3
f  39//3 38//3 35//3
f  42//4 35//4 39//4
f  39//3 35//3 42//3
f  39//7 49//7 35//7
f  35//2 49//2 39//2
f  35//4 42//4 40//4
f  40//3 42//3 35//3
f  50//19 35//19 40//19
f  40//20 35//20 50//20
f  40//18 25//18 37//18
f  35//3 38//3 34//3
f  36//7 41//7 30//7
f  37//7 30//7 41//7
f  42//3 31//3 39//3
f  31//3 42//3 41//3
f  40//3 41//3 42//3
f  42//7 50//7 40//7
f  40//2 50//2 42//2
f  41//17 36//17 31//17
f  33//3 34//3 38//3
f  43//20 42//20 39//20
f  43//7 49//7 39//7
f  39//2 49//2 43//2
f  35//19 50//19 49//19
f  49//20 50//20 35//20
f  37//3 41//3 40//3
f  44//7 50//7 42//7
f  42//2 50//2 44//2
f  42//20 43//20 44//20
f  49//7 43//7 51//7
f  51//2 43//2 49//2
f  52//10 49//10 50//10
f  50//1 49//1 52//1
f  50//7 44//7 52//7
f  52//2 44//2 50//2
f  45//1 44//1 43//1
f  45//7 51//7 43//7
f  43//2 51//2 45//2
f  49//10 52//10 51//10
f  51//1 52//1 49//1
f  46//7 52//7 44//7
f  44//2 52//2 46//2
f  44//1 45//1 46//1
f  51//7 45//7 48//7
f  48//2 45//2 51//2
f  52//4 53//4 51//4
f  51//3 53//3 52//3
f  52//7 46//7 47//7
f  47//2 46//2 52//2
f  45//3 47//3 46//3
f  47//3 45//3 48//3
f  51//7 48//7 53//7
f  53//2 48//2 51//2
f  53//4 52//4 54//4
f  54//3 52//3 53//3
f  52//7 47//7 54//7
f  54//2 47//2 52//2
f  53//10 47//10 48//10
f  48//1 47//1 53//1
f  47//10 53//10 54//10
f  54//1 53//1 47//1

# Mesh 'mesh7_mesh7-geometry' with 14 faces
g mesh7_mesh7-geometry
usemtl material_4_0
l  40 35
l  25 40
l  50 40
l  27 35
l  49 35
l  49 50
l  50 52
l  49 51
l  51 52
l  52 54
l  51 53
l  53 54
l  54 47
l  53 48

