# Blender 4.4.3
# www.blender.org
o Dagger
v -0.020003 0.284550 -0.018953
v -0.020003 0.251448 -0.018953
v -0.014557 0.280377 -0.044842
v -0.015133 0.254287 -0.044842
v -0.010733 0.280210 -0.071693
v -0.011752 0.257709 -0.073507
v -0.005807 0.287442 -0.101258
v -0.006270 0.261901 -0.104794
v -0.003498 0.266223 -0.136451
v -0.003498 0.297265 -0.128320
v 0.020003 0.284550 -0.018953
v 0.020003 0.251448 -0.018953
v 0.014557 0.280377 -0.044842
v 0.015133 0.254287 -0.044842
v 0.010733 0.280210 -0.071693
v 0.011752 0.257709 -0.073507
v 0.005807 0.287442 -0.101258
v 0.006270 0.261901 -0.104794
v 0.003498 0.266223 -0.136451
v 0.003498 0.297265 -0.128320
v -0.020003 0.292824 -0.000000
v -0.020003 0.250113 -0.000000
v -0.020003 0.284550 0.018953
v -0.020003 0.251448 0.018953
v -0.014557 0.280377 0.044842
v -0.015133 0.254287 0.044842
v -0.010733 0.280210 0.071693
v -0.011752 0.257709 0.073507
v -0.005807 0.287442 0.101258
v -0.006270 0.261901 0.104794
v -0.003498 0.266223 0.136451
v -0.003498 0.297265 0.128320
v 0.020003 0.292824 -0.000000
v 0.020003 0.250113 -0.000000
v 0.020003 0.284550 0.018953
v 0.020003 0.251448 0.018953
v 0.014557 0.280377 0.044842
v 0.015133 0.254287 0.044842
v 0.010733 0.280210 0.071693
v 0.011752 0.257709 0.073507
v 0.005807 0.287442 0.101258
v 0.006270 0.261901 0.104794
v 0.003498 0.266223 0.136451
v 0.003498 0.297265 0.128320
v -0.012697 0.029974 -0.000000
v 0.012697 0.029974 -0.000000
v -0.000000 0.253682 0.028530
v -0.000000 0.056150 0.019616
v 0.011195 0.253682 0.020174
v 0.007697 0.056150 0.013871
v 0.015832 0.253682 -0.000000
v 0.010886 0.056150 -0.000000
v 0.011195 0.253682 -0.020174
v 0.007697 0.056150 -0.013871
v -0.000000 0.253682 -0.028530
v -0.000000 0.056150 -0.019617
v -0.011195 0.253682 -0.020174
v -0.007697 0.056150 -0.013871
v -0.015832 0.253682 -0.000000
v -0.010886 0.056150 -0.000000
v -0.011195 0.253682 0.020174
v -0.007697 0.056150 0.013871
v -0.002225 0.277738 -0.033427
v -0.002225 0.778554 -0.019449
v -0.002225 0.797450 -0.015579
v -0.002225 0.811863 -0.009419
v -0.002225 0.825635 -0.002159
v 0.004565 0.277738 -0.033427
v 0.004565 0.778554 -0.019449
v 0.004565 0.797450 -0.015579
v 0.004565 0.811863 -0.009419
v 0.004565 0.825635 -0.002159
v -0.002225 0.277738 0.033427
v -0.002225 0.778554 0.019450
v -0.002225 0.797450 0.015580
v -0.002225 0.811863 0.009420
v -0.002225 0.825635 0.002159
v 0.004565 0.277738 0.033427
v 0.004565 0.778554 0.019450
v 0.004565 0.797450 0.015580
v 0.004565 0.811863 0.009420
v 0.004565 0.825635 0.002159
v -0.005583 0.797450 0.000000
v -0.004498 0.811863 0.000000
v -0.002225 0.825635 0.000000
v 0.007924 0.797450 0.000000
v 0.006838 0.811863 0.000000
v 0.004565 0.825635 0.000000
v -0.010174 0.277739 0.004425
v -0.010174 0.277739 -0.004425
v -0.004972 0.778554 -0.004512
v -0.004972 0.778554 0.004512
v -0.005748 0.783141 0.000000
v 0.012514 0.277739 -0.004425
v 0.012514 0.277739 0.004425
v 0.007312 0.778554 0.004512
v 0.007312 0.778554 -0.004512
v 0.008089 0.783141 0.000000
v -0.002225 0.322440 -0.032936
v 0.004565 0.322440 -0.032936
v -0.002225 0.322440 0.032936
v 0.004565 0.322440 0.032936
v 0.012331 0.322440 0.004428
v 0.012331 0.322440 -0.004428
v -0.009991 0.322440 0.004428
v -0.009991 0.322440 -0.004428
v -0.000888 0.778537 -0.004512
v -0.000888 0.778537 0.004512
v 0.003228 0.778537 0.004512
v 0.003228 0.778537 -0.004512
v 0.008247 0.322424 -0.004428
v -0.005907 0.322424 0.004428
v 0.008247 0.322424 0.004428
v -0.005907 0.322424 -0.004428
v -0.012697 0.029974 0.036252
v -0.012697 0.051282 0.029328
v 0.012697 0.051282 0.029328
v 0.012697 0.029974 0.036252
v -0.012697 0.064451 0.011202
v 0.012697 0.064451 0.011202
v -0.012697 0.064451 -0.011202
v 0.012697 0.064451 -0.011202
v -0.012697 0.051282 -0.029328
v 0.012697 0.051282 -0.029328
v -0.012697 0.029974 -0.036252
v 0.012697 0.029974 -0.036252
v -0.012697 0.008665 -0.029328
v 0.012697 0.008665 -0.029328
v -0.012697 -0.004504 -0.011202
v 0.012697 -0.004504 -0.011202
v -0.012697 -0.004504 0.011202
v 0.012697 -0.004504 0.011202
v -0.012697 0.008665 0.029328
v 0.012697 0.008665 0.029328
vn -1.0000 -0.0000 -0.0000
vn -0.9806 0.0095 -0.1956
vn -0.9913 0.0372 -0.1265
vn -0.9860 0.0482 -0.1596
vn -0.9965 0.0247 -0.0803
vn 1.0000 -0.0000 -0.0000
vn 0.9806 0.0095 -0.1956
vn 0.9913 0.0372 -0.1265
vn 0.9860 0.0482 -0.1596
vn 0.9965 0.0247 -0.0803
vn -0.0000 0.9165 -0.4001
vn -0.0000 0.9400 0.3412
vn -0.0000 -0.9930 -0.1182
vn -0.0000 -0.9929 -0.1186
vn -0.0000 -0.9910 -0.1339
vn -0.0000 -0.9908 -0.1353
vn -0.0000 1.0000 -0.0062
vn -0.0000 -0.9975 -0.0702
vn -0.0000 -0.9911 -0.1328
vn -0.0000 0.9714 0.2376
vn -0.0000 -0.9940 -0.1090
vn -0.0000 0.9873 -0.1592
vn -0.9806 0.0095 0.1956
vn -0.9913 0.0372 0.1265
vn -0.9860 0.0482 0.1596
vn -0.9965 0.0247 0.0803
vn 0.9806 0.0095 0.1956
vn 0.9913 0.0372 0.1265
vn 0.9860 0.0482 0.1596
vn 0.9965 0.0247 0.0803
vn -0.0000 0.9165 0.4001
vn -0.0000 0.9400 -0.3412
vn -0.0000 -0.9930 0.1182
vn -0.0000 -0.9929 0.1186
vn -0.0000 -0.9910 0.1339
vn -0.0000 -0.9908 0.1353
vn -0.0000 1.0000 0.0062
vn -0.0000 -0.9975 0.0702
vn -0.0000 -0.9911 0.1328
vn -0.0000 0.9714 -0.2376
vn -0.0000 -0.9940 0.1090
vn -0.0000 0.2534 -0.9674
vn -0.0000 0.9873 0.1592
vn -0.0000 0.2534 0.9674
vn -0.0000 0.3090 0.9511
vn -0.0000 0.8090 0.5878
vn -0.0000 1.0000 -0.0000
vn -0.0000 0.8090 -0.5878
vn -0.0000 0.3090 -0.9511
vn -0.0000 -0.3090 -0.9511
vn -0.0000 -0.8090 -0.5878
vn -0.0000 -1.0000 -0.0000
vn -0.0000 -0.8090 0.5878
vn -0.0000 -0.3090 0.9511
vn -0.9820 0.0339 0.1859
vn -0.9722 0.0834 -0.2190
vn -0.9729 0.1306 -0.1910
vn 0.9775 0.0113 0.2107
vn 0.9722 0.0834 -0.2190
vn 0.9729 0.1306 -0.1910
vn -0.0000 0.0296 -0.9996
vn -0.0000 0.4664 -0.8846
vn -0.0000 0.3930 -0.9195
vn -0.0000 0.2006 -0.9797
vn 0.9719 0.0088 0.2352
vn -0.9719 0.0088 0.2352
vn 0.9719 0.0088 -0.2352
vn -0.9722 0.0834 0.2190
vn -0.9729 0.1306 0.1910
vn 0.9722 0.0834 0.2190
vn 0.9729 0.1306 0.1910
vn -0.0000 0.0296 0.9996
vn -0.0000 0.4664 0.8846
vn -0.0000 0.3930 0.9195
vn -0.0000 0.2006 0.9797
vn -0.9775 0.0113 -0.2107
vn 0.9820 0.0339 -0.1859
vn -0.9860 -0.1670 -0.0000
vn 0.9860 -0.1670 -0.0000
vn 1.0000 0.0041 -0.0000
vn -0.0041 -1.0000 -0.0000
vn -0.9719 0.0088 -0.2352
vn -0.9646 0.0034 -0.2636
vn -1.0000 0.0041 -0.0000
vn -0.0041 1.0000 -0.0000
vn -0.0000 0.0110 0.9999
vn 0.9646 0.0034 -0.2636
vn -0.9646 0.0034 0.2636
vn 0.9646 0.0034 0.2636
vn -0.0000 0.0110 -0.9999
vn -0.9999 0.0110 -0.0000
vn 0.9999 0.0110 -0.0000
vn -0.0000 0.0002 1.0000
vn -0.0000 0.0002 -1.0000
vn 0.0041 1.0000 -0.0000
vn 0.0041 -1.0000 -0.0000
vn 0.9820 0.0339 0.1859
vn 0.9775 0.0113 -0.2107
vn -0.9775 0.0113 0.2107
vn -0.9820 0.0339 -0.1859
vn -0.9743 -0.0244 0.2239
vn -0.9743 -0.0244 -0.2239
vn -0.5978 -0.0361 -0.8008
vn 0.5978 -0.0361 -0.8008
vn 0.9743 -0.0244 -0.2239
vn 0.9743 -0.0244 0.2239
vn -0.5978 -0.0361 0.8008
vn 0.5978 -0.0361 0.8008
vt 0.330938 0.250055
vt 0.315903 0.284502
vt 0.255749 0.284502
vt 0.253324 0.250055
vt 0.308476 0.331554
vt 0.261049 0.331554
vt 0.308284 0.380352
vt 0.267367 0.383650
vt 0.321569 0.434086
vt 0.275142 0.440512
vt 0.339487 0.483268
vt 0.283076 0.498046
vt 0.421229 0.250055
vt 0.343614 0.250055
vt 0.346039 0.215608
vt 0.406193 0.215608
vt 0.351339 0.168556
vt 0.398767 0.168556
vt 0.357657 0.116460
vt 0.398575 0.119758
vt 0.365432 0.059598
vt 0.411859 0.066024
vt 0.373367 0.002064
vt 0.429777 0.016842
vt 0.583446 0.200830
vt 0.583446 0.235277
vt 0.510739 0.235277
vt 0.510739 0.200830
vt 0.553451 0.002064
vt 0.557647 0.051246
vt 0.536538 0.051246
vt 0.540735 0.002064
vt 0.442756 0.168556
vt 0.448900 0.116460
vt 0.491616 0.116460
vt 0.497761 0.168556
vt 0.458863 0.059598
vt 0.463900 0.002064
vt 0.476616 0.002064
vt 0.481654 0.059598
vt 0.566599 0.104980
vt 0.573549 0.153778
vt 0.520636 0.153778
vt 0.527587 0.104980
vt 0.433904 0.250055
vt 0.433905 0.215608
vt 0.506612 0.215608
vt 0.506612 0.250055
vt 0.255749 0.215608
vt 0.315903 0.215608
vt 0.261049 0.168556
vt 0.308476 0.168556
vt 0.267367 0.116460
vt 0.308284 0.119758
vt 0.275142 0.059598
vt 0.321569 0.066024
vt 0.283076 0.002064
vt 0.339487 0.016842
vt 0.406193 0.284502
vt 0.346039 0.284502
vt 0.398767 0.331554
vt 0.351339 0.331554
vt 0.398575 0.380352
vt 0.357657 0.383650
vt 0.411859 0.434086
vt 0.365432 0.440512
vt 0.429777 0.483268
vt 0.373367 0.498046
vt 0.583446 0.269723
vt 0.510739 0.269723
vt 0.553451 0.468490
vt 0.540735 0.468490
vt 0.536538 0.419308
vt 0.557647 0.419308
vt 0.442756 0.331554
vt 0.497761 0.331554
vt 0.491616 0.383650
vt 0.448900 0.383650
vt 0.458863 0.440512
vt 0.481654 0.440512
vt 0.476616 0.498046
vt 0.463900 0.498046
vt 0.566599 0.365574
vt 0.527587 0.365574
vt 0.520636 0.316775
vt 0.573549 0.316775
vt 0.506612 0.284502
vt 0.433905 0.284502
vt 0.575186 0.622149
vt 0.562470 0.622149
vt 0.562470 0.564225
vt 0.575186 0.564225
vt 0.562470 0.560097
vt 0.562470 0.502174
vt 0.575186 0.502174
vt 0.575186 0.560097
vt 0.349756 0.678171
vt 0.303604 0.678171
vt 0.303604 0.638072
vt 0.349756 0.638072
vt 0.558343 0.608779
vt 0.512190 0.608779
vt 0.512190 0.575836
vt 0.558343 0.575836
vt 0.512190 0.535116
vt 0.558343 0.535116
vt 0.512190 0.502174
vt 0.558343 0.502174
vt 0.299476 0.714774
vt 0.253324 0.714774
vt 0.253324 0.674675
vt 0.299476 0.674675
vt 0.253324 0.638072
vt 0.299476 0.638072
vt 0.558343 0.719511
vt 0.512190 0.719511
vt 0.512190 0.686568
vt 0.558343 0.686568
vt 0.512190 0.645849
vt 0.558343 0.645849
vt 0.512190 0.612906
vt 0.558343 0.612906
vt 0.349756 0.714774
vt 0.303604 0.714774
vt 0.188446 0.920614
vt 0.196646 0.912301
vt 0.223794 0.912380
vt 0.216760 0.946719
vt 0.188446 0.946622
vt 0.188446 0.972844
vt 0.171326 0.972910
vt 0.160131 0.946719
vt 0.188446 0.997936
vt 0.184522 0.997936
vt 0.062814 0.920614
vt 0.062814 0.946622
vt 0.034500 0.946719
vt 0.091128 0.946719
vt 0.079934 0.972910
vt 0.062814 0.972844
vt 0.066738 0.997936
vt 0.062814 0.997936
vt 0.718427 0.082642
vt 0.718427 0.906967
vt 0.706087 0.906967
vt 0.706087 0.082642
vt 0.718427 0.969450
vt 0.718427 0.996070
vt 0.706087 0.996070
vt 0.706087 0.969450
vt 0.718427 0.941954
vt 0.706087 0.941954
vt 0.564784 0.485264
vt 0.560860 0.485264
vt 0.560860 0.472924
vt 0.564784 0.472924
vt 0.002956 0.083526
vt 0.054768 0.083302
vt 0.054614 0.912301
vt 0.027466 0.912380
vt 0.248304 0.083526
vt 0.196492 0.083302
vt 0.122674 0.083526
vt 0.098162 0.912380
vt 0.071015 0.912301
vt 0.070862 0.083302
vt 0.205566 0.972910
vt 0.192370 0.997936
vt 0.045694 0.972910
vt 0.058890 0.997936
vt 0.734894 0.915491
vt 0.722554 0.915491
vt 0.722554 0.091167
vt 0.734894 0.091167
vt 0.734894 0.028684
vt 0.722554 0.028684
vt 0.722554 0.002064
vt 0.734894 0.002064
vt 0.734894 0.056179
vt 0.722554 0.056179
vt 0.556936 0.485264
vt 0.556936 0.472924
vt 0.180245 0.912301
vt 0.054774 0.002064
vt 0.070856 0.002064
vt 0.510739 0.489018
vt 0.510739 0.472617
vt 0.518161 0.472617
vt 0.518161 0.489018
vt 0.128586 0.083526
vt 0.180398 0.083302
vt 0.153098 0.912380
vt 0.127694 0.002293
vt 0.180404 0.002064
vt 0.196486 0.002064
vt 0.545387 0.489018
vt 0.545387 0.472924
vt 0.552809 0.472924
vt 0.552809 0.489018
vt 0.734894 0.996070
vt 0.722554 0.996070
vt 0.123566 0.002293
vt 0.249196 0.002293
vt 0.002064 0.002293
vt 0.718427 0.002064
vt 0.706087 0.002064
vt 0.701806 0.002064
vt 0.701960 0.831062
vt 0.685559 0.831062
vt 0.685712 0.002064
vt 0.665031 0.831063
vt 0.665185 0.002064
vt 0.681279 0.002064
vt 0.681432 0.831063
vt 0.802812 0.002064
vt 0.802812 0.823054
vt 0.795390 0.823106
vt 0.795390 0.002116
vt 0.814361 0.002116
vt 0.814361 0.823107
vt 0.806939 0.823054
vt 0.806939 0.002064
vt 0.541260 0.472924
vt 0.541260 0.489018
vt 0.533838 0.489018
vt 0.533838 0.472924
vt 0.791263 0.002064
vt 0.791263 0.823054
vt 0.783841 0.823107
vt 0.783841 0.002116
vt 0.825910 0.002116
vt 0.825910 0.823106
vt 0.818488 0.823054
vt 0.818488 0.002064
vt 0.529710 0.472617
vt 0.529710 0.489018
vt 0.522288 0.489018
vt 0.522288 0.472617
vt 0.624239 0.723952
vt 0.624239 0.365139
vt 0.649448 0.365231
vt 0.660904 0.724086
vt 0.587574 0.724086
vt 0.599029 0.365231
vt 0.759367 0.355333
vt 0.759367 0.002064
vt 0.773357 0.003515
vt 0.779713 0.357443
vt 0.739021 0.357443
vt 0.745378 0.003515
vt 0.624239 0.360877
vt 0.624239 0.002064
vt 0.649448 0.002156
vt 0.660904 0.361011
vt 0.587574 0.361011
vt 0.599029 0.002156
vt 0.739021 0.716950
vt 0.745378 0.363021
vt 0.759367 0.361570
vt 0.759367 0.714840
vt 0.773357 0.363021
vt 0.779713 0.716950
vt 0.445410 0.568059
vt 0.445410 0.633945
vt 0.406688 0.621362
vt 0.315977 0.568059
vt 0.277255 0.514757
vt 0.315977 0.502174
vt 0.382757 0.588419
vt 0.253324 0.547699
vt 0.382757 0.547700
vt 0.253324 0.588419
vt 0.406688 0.514757
vt 0.277255 0.621362
vt 0.445410 0.502174
vt 0.315977 0.633945
vt 0.484132 0.514757
vt 0.354698 0.621362
vt 0.508063 0.547699
vt 0.378630 0.588419
vt 0.508063 0.588419
vt 0.378630 0.547699
vt 0.484132 0.621362
vt 0.354698 0.514757
s 1
f 21/1/1 1/2/1 2/3/1 22/4/1
f 1/2/2 3/5/2 4/6/2 2/3/2
f 3/5/3 5/7/3 6/8/3 4/6/3
f 5/7/4 7/9/4 8/10/4 6/8/4
f 7/9/5 10/11/5 9/12/5 8/10/5
f 33/13/6 34/14/6 12/15/6 11/16/6
f 11/16/7 12/15/7 14/17/7 13/18/7
f 13/18/8 14/17/8 16/19/8 15/20/8
f 15/20/9 16/19/9 18/21/9 17/22/9
f 17/22/10 18/21/10 19/23/10 20/24/10
f 1/25/11 21/26/11 33/27/11 11/28/11
f 10/29/12 7/30/12 17/31/12 20/32/12
f 4/33/13 6/34/14 16/35/14 14/36/13
f 8/37/15 9/38/16 19/39/16 18/40/15
f 5/41/17 3/42/17 13/43/17 15/44/17
f 22/45/18 2/46/18 12/47/18 34/48/18
f 6/34/19 8/37/15 18/40/15 16/35/19
f 7/30/20 5/41/20 15/44/20 17/31/20
f 2/46/21 4/33/13 14/36/13 12/47/21
f 3/42/22 1/25/22 11/28/22 13/43/22
f 21/1/1 22/4/1 24/49/1 23/50/1
f 23/50/23 24/49/23 26/51/23 25/52/23
f 25/52/24 26/51/24 28/53/24 27/54/24
f 27/54/25 28/53/25 30/55/25 29/56/25
f 29/56/26 30/55/26 31/57/26 32/58/26
f 33/13/6 35/59/6 36/60/6 34/14/6
f 35/59/27 37/61/27 38/62/27 36/60/27
f 37/61/28 39/63/28 40/64/28 38/62/28
f 39/63/29 41/65/29 42/66/29 40/64/29
f 41/65/30 44/67/30 43/68/30 42/66/30
f 23/69/31 35/70/31 33/27/31 21/26/31
f 32/71/32 44/72/32 41/73/32 29/74/32
f 26/75/33 38/76/33 40/77/34 28/78/34
f 30/79/35 42/80/35 43/81/36 31/82/36
f 27/83/37 39/84/37 37/85/37 25/86/37
f 22/45/38 34/48/38 36/87/38 24/88/38
f 28/78/39 40/77/39 42/80/35 30/79/35
f 29/74/40 41/73/40 39/84/40 27/83/40
f 24/88/41 36/87/41 38/76/33 26/75/33
f 10/89/42 20/90/42 19/91/42 9/92/42
f 25/86/43 37/85/43 35/70/43 23/69/43
f 32/93/44 31/94/44 43/95/44 44/96/44
f 115/97/45 118/98/45 117/99/45 116/100/45
f 116/101/46 117/102/46 120/103/46 119/104/46
f 119/104/47 120/103/47 122/105/47 121/106/47
f 121/106/48 122/105/48 124/107/48 123/108/48
f 123/109/49 124/110/49 126/111/49 125/112/49
f 125/112/50 126/111/50 128/113/50 127/114/50
f 127/115/51 128/116/51 130/117/51 129/118/51
f 129/118/52 130/117/52 132/119/52 131/120/52
f 131/120/53 132/119/53 134/121/53 133/122/53
f 133/123/54 134/124/54 118/98/54 115/97/54
f 93/125/55 92/126/55 74/127/55 75/128/55
f 83/129/56 84/130/56 66/131/56 65/132/56
f 84/130/57 85/133/57 67/134/57 66/131/57
f 98/135/58 86/136/58 80/137/58
f 86/136/59 70/138/59 71/139/59 87/140/59
f 87/140/60 71/139/60 72/141/60 88/142/60
f 99/143/61 64/144/61 69/145/61 100/146/61
f 66/147/62 67/148/62 72/149/62 71/150/62
f 65/151/63 66/147/63 71/150/63 70/152/63
f 64/144/64 65/151/64 70/152/64 69/145/64
f 67/153/47 85/154/47 88/155/47 72/156/47
f 102/157/65 103/158/65 96/159/65 79/160/65
f 101/161/66 74/127/66 92/126/66 105/162/66
f 100/163/67 69/164/67 97/165/67 104/166/67
f 83/129/68 75/128/68 76/167/68 84/130/68
f 84/130/69 76/167/69 77/168/69 85/133/69
f 86/136/70 87/140/70 81/169/70 80/137/70
f 87/140/71 88/142/71 82/170/71 81/169/71
f 101/171/72 102/172/72 79/173/72 74/174/72
f 76/175/73 81/176/73 82/177/73 77/178/73
f 75/179/74 80/180/74 81/176/74 76/175/74
f 74/174/75 79/173/75 80/180/75 75/179/75
f 93/125/76 83/129/76 65/132/76
f 77/181/47 82/182/47 88/155/47 85/154/47
f 98/135/77 97/165/77 69/164/77 70/138/77
f 91/183/78 92/126/78 93/125/78
f 96/159/79 97/165/79 98/135/79
f 103/158/80 95/184/80 94/185/80 104/166/80
f 92/186/81 91/187/81 107/188/81 108/189/81
f 99/190/82 106/191/82 91/183/82 64/192/82
f 63/193/83 90/194/83 106/191/83 99/190/83
f 89/195/84 105/162/84 106/191/84 90/194/84
f 103/196/85 104/197/85 111/198/85 113/199/85
f 73/200/86 78/201/86 102/172/86 101/171/86
f 68/202/87 100/163/87 104/166/87 94/185/87
f 73/203/88 101/161/88 105/162/88 89/195/88
f 78/204/89 95/184/89 103/158/89 102/157/89
f 63/205/90 99/143/90 100/146/90 68/206/90
f 112/207/91 108/208/91 107/209/91 114/210/91
f 109/211/92 113/212/92 111/213/92 110/214/92
f 104/215/93 97/216/93 110/217/93 111/218/93
f 96/219/94 103/220/94 113/221/94 109/222/94
f 106/223/95 105/224/95 112/225/95 114/226/95
f 105/227/94 92/228/94 108/229/94 112/230/94
f 91/231/93 106/232/93 114/233/93 107/234/93
f 97/235/96 96/236/96 109/237/96 110/238/96
f 96/159/97 98/135/97 80/137/97 79/160/97
f 86/136/98 98/135/98 70/138/98
f 83/129/99 93/125/99 75/128/99
f 91/183/100 93/125/100 65/132/100 64/192/100
f 59/239/101 60/240/101 62/241/101 61/242/101
f 57/243/102 58/244/102 60/240/102 59/239/102
f 55/245/103 56/246/103 58/247/103 57/248/103
f 53/249/104 54/250/104 56/246/104 55/245/104
f 51/251/105 52/252/105 54/253/105 53/254/105
f 49/255/106 50/256/106 52/252/106 51/251/106
f 61/257/107 62/258/107 48/259/107 47/260/107
f 47/260/108 48/259/108 50/261/108 49/262/108
f 45/263/1 115/264/1 116/265/1
f 46/266/6 117/267/6 118/268/6
f 45/263/1 116/265/1 119/269/1
f 46/266/6 120/270/6 117/267/6
f 45/263/1 119/269/1 121/271/1
f 46/266/6 122/272/6 120/270/6
f 45/263/1 121/271/1 123/273/1
f 46/266/6 124/274/6 122/272/6
f 45/263/1 123/273/1 125/275/1
f 46/266/6 126/276/6 124/274/6
f 45/263/1 125/275/1 127/277/1
f 46/266/6 128/278/6 126/276/6
f 45/263/1 127/277/1 129/279/1
f 46/266/6 130/280/6 128/278/6
f 45/263/1 129/279/1 131/281/1
f 46/266/6 132/282/6 130/280/6
f 45/263/1 131/281/1 133/283/1
f 46/266/6 134/284/6 132/282/6
f 45/263/1 133/283/1 115/264/1
f 46/266/6 118/268/6 134/284/6
