# File produced by Open Asset Import Library (http://www.assimp.sf.net)
# (assimp v3.2.202087883)

mtllib model_normalized.mtl

# 72 vertex positions
v -0.090114 -0.338239 -0.013156
v 0.090150 -0.338239 -0.013156
v 0.000019 -0.349926 -0.013156
v 0.174320 -0.303952 -0.013156
v -0.174284 -0.303952 -0.013156
v 0.246963 -0.249331 -0.013156
v -0.246926 -0.249331 -0.013156
v 0.303272 -0.177991 -0.013156
v -0.303236 -0.177991 -0.013156
v 0.339525 -0.094648 -0.013156
v -0.339489 -0.094648 -0.013156
v 0.353323 -0.004816 -0.013156
v -0.353286 -0.004816 -0.013156
v 0.343031 0.088188 -0.013156
v -0.342995 0.088188 -0.013156
v 0.308691 0.175231 -0.013156
v -0.308654 0.175231 -0.013156
v 0.252710 0.250210 -0.013156
v -0.252673 0.250210 -0.013156
v -0.178977 0.307869 -0.013156
v 0.179013 0.307869 -0.013156
v 0.092767 0.344165 -0.013156
v -0.092731 0.344165 -0.013156
v 0.000019 0.356553 -0.013156
v 0.090120 -0.338239 0.026181
v -0.090143 -0.338239 0.026181
v 0.000019 -0.349926 0.026181
v 0.174290 -0.303952 0.026181
v 0.000019 -0.349926 -0.013025
v 0.090120 -0.338239 -0.013025
v 0.174290 -0.303952 -0.013025
v -0.174313 -0.303952 0.026181
v -0.090143 -0.338239 -0.013025
v 0.246932 -0.249331 -0.013025
v 0.246932 -0.249331 0.026181
v -0.174313 -0.303952 -0.013025
v -0.246955 -0.249331 0.026181
v 0.303242 -0.177991 0.026181
v -0.246955 -0.249331 -0.013025
v 0.303242 -0.177991 -0.013025
v -0.303265 -0.177991 0.026181
v 0.339495 -0.094648 0.026181
v -0.303265 -0.177991 -0.013025
v 0.339495 -0.094648 -0.013025
v -0.339519 -0.094648 0.026181
v -0.339519 -0.094648 -0.013025
v 0.353293 -0.004816 0.026181
v 0.353293 -0.004816 -0.013025
v -0.353317 -0.004816 0.026181
v -0.353317 -0.004816 -0.013025
v 0.343001 0.088188 0.026181
v 0.343001 0.088188 -0.013025
v -0.343025 0.088188 -0.013025
v -0.343025 0.088188 0.026181
v 0.308661 0.175231 0.026181
v -0.308684 0.175231 0.026181
v -0.308684 0.175231 -0.013025
v 0.308661 0.175231 -0.013025
v 0.252679 0.250210 0.026181
v -0.252704 0.250210 0.026181
v -0.252704 0.250210 -0.013025
v 0.252679 0.250210 -0.013025
v 0.178983 0.307869 -0.013025
v -0.179006 0.307869 0.026181
v -0.179006 0.307869 -0.013025
v 0.178983 0.307869 0.026181
v 0.092737 0.344165 -0.013025
v -0.092760 0.344165 -0.013025
v -0.092760 0.344165 0.026181
v 0.092737 0.344165 0.026181
v 0.000019 0.356553 -0.013025
v 0.000019 0.356553 0.026181

# 75 UV coordinates
vt 0.596809 0.136733 0
vt 0.400411 0.136733 0
vt 0.49861 0.124 0
vt 0.308707 0.174089 0
vt 0.688514 0.174089 0
vt 0.229563 0.233598 0
vt 0.767658 0.233598 0
vt 0.168213 0.311324 0
vt 0.829008 0.311324 0
vt 0.128715 0.402127 0
vt 0.868505 0.402127 0
vt 0.113682 0.5 0
vt 0.883539 0.5 0
vt 0.124895 0.601329 0
vt 0.872326 0.601329 0
vt 0.162309 0.696163 0
vt 0.834912 0.696163 0
vt 0.223301 0.777854 0
vt 0.77392 0.777854 0
vt 0.693626 0.840673 0
vt 0.303594 0.840673 0
vt 0.39756 0.880217 0
vt 0.599661 0.880217 0
vt 0.49861 0.893714 0
vt 0 0 0
vt 0.760139 0.065398 0
vt 0.912217 0 0
vt 0.912217 0.065398 0
vt 1.0642 -0 0
vt 1.0642 0.065398 0
vt 1.21622 -0 0
vt 1.21622 0.065398 0
vt 0.760139 0 0
vt 1.36825 0 0
vt 0.608111 0.065398 0
vt 1.36825 0.065398 0
vt 0.608111 0 0
vt 1.52028 0.065398 0
vt 0.456084 0.065398 0
vt 1.52028 0 0
vt 0.456084 0 0
vt 1.67231 0.065398 0
vt 0.304056 0 0
vt 0.304056 0.065398 0
vt 1.67231 0 0
vt 0.152028 0 0
vt 1.82433 0.065398 0
vt 0.152028 0.065398 0
vt 1.82433 0 0
vt 1.87857 0 0
vt 1.72202 -0.065398 0
vt 1.87857 -0.065398 0
vt 0 0.065398 0
vt 1.72202 0 0
vt 0 -0.065398 0
vt 0.156547 -0 0
vt 1.56547 -0.065398 0
vt 0.156547 -0.065398 0
vt 1.56547 -0 0
vt 0.313095 0 0
vt 0.313095 -0.065398 0
vt 1.40893 -0.065398 0
vt 0.469642 0 0
vt 1.40893 -0 0
vt 0.469642 -0.065398 0
vt 1.25238 -0 0
vt 0.626189 -0.065398 0
vt 1.25238 -0.065398 0
vt 0.626189 0 0
vt 1.09583 0 0
vt 0.782737 -0.065398 0
vt 1.09583 -0.065398 0
vt 0.782737 0 0
vt 0.939334 0 0
vt 0.939334 -0.065398 0

# 54 vertex normals
vn 0 0 -0.001
vn 0 0 0.001
vn -4.2e-08 0.001 0
vn 0.000255019 0.000966936 0
vn -0.00025506 0.000966925 0
vn -0.000493211 0.00086991 0
vn -0.000698762 0.000715355 0
vn 0.000493211 0.00086991 0
vn -0.000858098 0.000513487 0
vn 0.000698762 0.000715355 0
vn -0.00096068 0.000277657 0
vn 0.000858098 0.000513487 0
vn 0.00096068 0.000277657 0
vn -0.000988408 0.000151821 0
vn 0.000988408 0.000151821 0
vn -0.000993933 -0.000109991 0
vn -0.000970622 -0.00024061 0
vn 0.000993933 -0.000109991 -0
vn 0.000970622 -0.00024061 0
vn -0.000873449 -0.000486916 0
vn 0.000873449 -0.000486916 0
vn -0.00071504 -0.000699084 0
vn 0.00071504 -0.000699084 -0
vn -0.0005065 -0.00086224 0
vn 0.0005065 -0.00086224 -0
vn -0.00026247 -0.00096494 0
vn 0.00026243 -0.000964951 -0
vn -4.2e-08 -0.001 0
vn -0.000255019 -0.000966936 0
vn 4.2e-08 -0.001 0
vn 0.00025506 -0.000966925 0
vn 0.000493211 -0.00086991 0
vn 0.000698762 -0.000715355 0
vn -0.000493211 -0.00086991 0
vn 0.000858098 -0.000513487 0
vn -0.000698762 -0.000715355 0
vn 0.00096068 -0.000277657 0
vn -0.000858098 -0.000513487 0
vn -0.00096068 -0.000277657 0
vn 0.000988408 -0.000151821 0
vn -0.000988408 -0.000151821 0
vn 0.000993933 0.000109991 0
vn 0.000970622 0.00024061 0
vn -0.000993933 0.000109991 0
vn -0.000970622 0.00024061 0
vn 0.000873449 0.000486916 0
vn -0.000873449 0.000486916 0
vn 0.00071504 0.000699084 0
vn -0.00071504 0.000699084 0
vn 0.0005065 0.00086224 0
vn -0.0005065 0.00086224 0
vn 0.00026247 0.00096494 0
vn -0.00026243 0.000964951 0
vn 4.2e-08 0.001 0

# Mesh 'mesh1_mesh1-geometry' with 22 faces
g mesh1_mesh1-geometry
usemtl material_0_1_8
f  1/1/1 2/2/1 3/3/1
f  2/2/1 1/1/1 4/4/1
f  4/4/1 1/1/1 5/5/1
f  4/4/1 5/5/1 6/6/1
f  6/6/1 5/5/1 7/7/1
f  6/6/1 7/7/1 8/8/1
f  8/8/1 7/7/1 9/9/1
f  8/8/1 9/9/1 10/10/1
f  10/10/1 9/9/1 11/11/1
f  10/10/1 11/11/1 12/12/1
f  12/12/1 11/11/1 13/13/1
f  12/12/1 13/13/1 14/14/1
f  14/14/1 13/13/1 15/15/1
f  14/14/1 15/15/1 16/16/1
f  16/16/1 15/15/1 17/17/1
f  16/16/1 17/17/1 18/18/1
f  18/18/1 17/17/1 19/19/1
f  18/18/1 19/19/1 20/20/1
f  18/18/1 20/20/1 21/21/1
f  21/21/1 20/20/1 22/22/1
f  22/22/1 20/20/1 23/23/1
f  22/22/1 23/23/1 24/24/1

# Mesh 'mesh1_mesh1-geometry' with 22 faces
g mesh1_mesh1-geometry
usemtl material_1_24
f  3//2 2//2 1//2
f  4//2 1//2 2//2
f  5//2 1//2 4//2
f  6//2 5//2 4//2
f  7//2 5//2 6//2
f  8//2 7//2 6//2
f  9//2 7//2 8//2
f  10//2 9//2 8//2
f  11//2 9//2 10//2
f  12//2 11//2 10//2
f  13//2 11//2 12//2
f  14//2 13//2 12//2
f  15//2 13//2 14//2
f  16//2 15//2 14//2
f  17//2 15//2 16//2
f  18//2 17//2 16//2
f  19//2 17//2 18//2
f  20//2 19//2 18//2
f  21//2 20//2 18//2
f  22//2 20//2 21//2
f  23//2 20//2 22//2
f  24//2 23//2 22//2

# Mesh 'mesh2_mesh2-geometry' with 136 faces
g mesh2_mesh2-geometry
usemtl material_1_24
f  25/25/2 26/25/2 27/25/2
f  26/25/2 25/25/2 28/25/2
f  27/25/1 26/25/1 25/25/1
f  28/25/1 25/25/1 26/25/1
f  27/25/3 29/25/3 26/25/4
f  25/25/5 30/25/5 27/25/3
f  28/25/6 31/25/6 25/25/5
f  26/25/2 28/25/2 32/25/2
f  32/25/1 28/25/1 26/25/1
f  33/25/4 26/25/4 29/25/3
f  29/25/3 27/25/3 30/25/5
f  30/25/5 25/25/5 31/25/6
f  31/25/6 28/25/6 34/25/7
f  32/25/2 28/25/2 35/25/2
f  35/25/1 28/25/1 32/25/1
f  26/25/4 33/25/4 32/25/8
f  33/25/1 30/25/1 29/25/1
f  29/25/2 30/25/2 33/25/2
f  30/25/1 33/25/1 31/25/1
f  31/25/2 33/25/2 30/25/2
f  35/25/7 34/25/7 28/25/6
f  31/25/1 36/25/1 34/25/1
f  34/25/2 36/25/2 31/25/2
f  32/25/2 35/25/2 37/25/2
f  37/25/1 35/25/1 32/25/1
f  36/25/8 32/25/8 33/25/4
f  31/25/1 33/25/1 36/25/1
f  36/25/2 33/25/2 31/25/2
f  35/25/7 38/25/9 34/25/7
f  34/25/1 36/25/1 39/25/1
f  39/25/2 36/25/2 34/25/2
f  37/25/2 35/25/2 38/25/2
f  38/25/1 35/25/1 37/25/1
f  32/25/8 36/25/8 37/25/10
f  40/25/9 34/25/7 38/25/9
f  39/25/10 37/25/10 36/25/8
f  34/25/1 39/25/1 40/25/1
f  40/25/2 39/25/2 34/25/2
f  37/25/2 38/25/2 41/25/2
f  41/25/1 38/25/1 37/25/1
f  38/25/9 42/25/11 40/25/9
f  39/25/10 43/25/12 37/25/10
f  40/25/1 39/25/1 43/25/1
f  43/25/2 39/25/2 40/25/2
f  41/25/2 38/25/2 42/25/2
f  42/25/1 38/25/1 41/25/1
f  41/25/12 37/25/10 43/25/12
f  44/25/11 40/25/9 42/25/11
f  40/25/1 43/25/1 44/25/1
f  44/25/2 43/25/2 40/25/2
f  41/25/2 42/25/2 45/25/2
f  45/25/1 42/25/1 41/25/1
f  43/25/12 46/25/13 41/25/12
f  42/25/11 47/25/14 44/25/11
f  44/25/1 43/25/1 46/25/1
f  46/25/2 43/25/2 44/25/2
f  45/25/2 42/25/2 47/25/2
f  47/25/1 42/25/1 45/25/1
f  45/25/13 41/25/12 46/25/13
f  48/25/14 44/25/11 47/25/14
f  44/25/1 46/25/1 48/25/1
f  48/25/2 46/25/2 44/25/2
f  45/25/2 47/25/2 49/25/2
f  49/25/1 47/25/1 45/25/1
f  46/25/13 50/25/15 45/25/13
f  47/25/16 51/25/17 48/25/16
f  48/25/1 46/25/1 50/25/1
f  50/25/2 46/25/2 48/25/2
f  49/25/2 47/25/2 51/25/2
f  51/25/1 47/25/1 49/25/1
f  49/25/15 45/25/13 50/25/15
f  52/25/17 48/25/16 51/25/17
f  48/25/1 50/25/1 53/25/1
f  53/25/2 50/25/2 48/25/2
f  49/25/2 51/25/2 54/25/2
f  54/25/1 51/25/1 49/25/1
f  50/25/18 53/25/19 49/25/18
f  48/25/1 53/25/1 52/25/1
f  52/25/2 53/25/2 48/25/2
f  51/25/17 55/25/20 52/25/17
f  54/25/2 51/25/2 56/25/2
f  56/25/1 51/25/1 54/25/1
f  54/25/19 49/25/18 53/25/19
f  52/25/1 53/25/1 57/25/1
f  57/25/2 53/25/2 52/25/2
f  58/25/20 52/25/17 55/25/20
f  56/25/2 51/25/2 55/25/2
f  55/25/1 51/25/1 56/25/1
f  56/25/21 54/25/19 57/25/21
f  53/25/19 57/25/21 54/25/19
f  52/25/1 57/25/1 58/25/1
f  58/25/2 57/25/2 52/25/2
f  55/25/20 59/25/22 58/25/20
f  56/25/2 55/25/2 60/25/2
f  60/25/1 55/25/1 56/25/1
f  57/25/21 61/25/23 56/25/21
f  58/25/1 57/25/1 61/25/1
f  61/25/2 57/25/2 58/25/2
f  62/25/22 58/25/20 59/25/22
f  60/25/2 55/25/2 59/25/2
f  59/25/1 55/25/1 60/25/1
f  60/25/23 56/25/21 61/25/23
f  58/25/1 61/25/1 62/25/1
f  62/25/2 61/25/2 58/25/2
f  62/25/22 59/25/22 63/25/24
f  60/25/2 59/25/2 64/25/2
f  64/25/1 59/25/1 60/25/1
f  60/25/23 61/25/23 64/25/25
f  62/25/1 61/25/1 65/25/1
f  65/25/2 61/25/2 62/25/2
f  66/25/24 63/25/24 59/25/22
f  62/25/1 65/25/1 63/25/1
f  63/25/2 65/25/2 62/25/2
f  64/25/2 59/25/2 66/25/2
f  66/25/1 59/25/1 64/25/1
f  65/25/25 64/25/25 61/25/23
f  63/25/24 66/25/24 67/25/26
f  63/25/1 65/25/1 68/25/1
f  68/25/2 65/25/2 63/25/2
f  64/25/2 66/25/2 69/25/2
f  69/25/1 66/25/1 64/25/1
f  64/25/25 65/25/25 69/25/27
f  70/25/26 67/25/26 66/25/24
f  63/25/1 68/25/1 67/25/1
f  67/25/2 68/25/2 63/25/2
f  68/25/27 69/25/27 65/25/25
f  69/25/2 66/25/2 70/25/2
f  70/25/1 66/25/1 69/25/1
f  67/25/26 70/25/26 71/25/28
f  67/25/1 68/25/1 71/25/1
f  71/25/2 68/25/2 67/25/2
f  69/25/27 68/25/27 72/25/28
f  69/25/2 70/25/2 72/25/2
f  72/25/1 70/25/1 69/25/1
f  72/25/28 71/25/28 70/25/26
f  71/25/28 72/25/28 68/25/27

# Mesh 'mesh2_mesh2-geometry' with 48 faces
g mesh2_mesh2-geometry
usemtl material_2_2_8
f  26/26/29 29/27/30 27/28/30
f  27/28/30 30/29/31 25/30/31
f  25/30/31 31/31/32 28/32/32
f  29/27/30 26/26/29 33/33/29
f  30/29/31 27/28/30 29/27/30
f  31/31/32 25/30/31 30/29/31
f  34/34/33 28/32/32 31/31/32
f  32/35/34 33/33/29 26/26/29
f  28/32/32 34/34/33 35/36/33
f  33/33/29 32/35/34 36/37/34
f  34/34/33 38/38/35 35/36/33
f  37/39/36 36/37/34 32/35/34
f  38/38/35 34/34/33 40/40/35
f  36/37/34 37/39/36 39/41/36
f  40/40/35 42/42/37 38/38/35
f  37/39/36 43/43/38 39/41/36
f  43/43/38 37/39/36 41/44/38
f  42/42/37 40/40/35 44/45/37
f  41/44/38 46/46/39 43/43/38
f  44/45/37 47/47/40 42/42/37
f  46/46/39 41/44/38 45/48/39
f  47/47/40 44/45/37 48/49/40
f  45/48/39 50/25/41 46/46/39
f  48/50/42 51/51/43 47/52/42
f  50/25/41 45/48/39 49/53/41
f  51/51/43 48/50/42 52/54/43
f  49/55/44 53/56/45 50/25/44
f  52/54/43 55/57/46 51/51/43
f  53/56/45 49/55/44 54/58/45
f  55/57/46 52/54/43 58/59/46
f  57/60/47 54/58/45 56/61/47
f  54/58/45 57/60/47 53/56/45
f  58/59/46 59/62/48 55/57/46
f  56/61/47 61/63/49 57/60/47
f  59/62/48 58/59/46 62/64/48
f  61/63/49 56/61/47 60/65/49
f  63/66/50 59/62/48 62/64/48
f  64/67/51 61/63/49 60/65/49
f  59/62/48 63/66/50 66/68/50
f  61/63/49 64/67/51 65/69/51
f  67/70/52 66/68/50 63/66/50
f  69/71/53 65/69/51 64/67/51
f  66/68/50 67/70/52 70/72/52
f  65/69/51 69/71/53 68/73/53
f  71/74/54 70/72/52 67/70/52
f  72/75/54 68/73/53 69/71/53
f  70/72/52 71/74/54 72/75/54
f  68/73/53 72/75/54 71/74/54

# Mesh 'mesh3_mesh3-geometry' with 24 faces
g mesh3_mesh3-geometry
usemtl material_1_0
l  49 45
l  49 54
l  45 41
l  54 56
l  41 37
l  56 60
l  37 32
l  60 64
l  32 26
l  64 69
l  26 27
l  69 72
l  27 25
l  72 70
l  25 28
l  70 66
l  28 35
l  66 59
l  35 38
l  59 55
l  38 42
l  55 51
l  42 47
l  51 47

# Mesh 'mesh4_mesh4-geometry' with 24 faces
g mesh4_mesh4-geometry
usemtl material_1_0
l  44 48
l  40 44
l  52 48
l  34 40
l  58 52
l  31 34
l  62 58
l  30 31
l  63 62
l  29 30
l  67 63
l  33 29
l  71 67
l  36 33
l  68 71
l  39 36
l  65 68
l  43 39
l  61 65
l  46 43
l  57 61
l  50 46
l  53 57
l  50 53

