# File produced by Open Asset Import Library (http://www.assimp.sf.net)
# (assimp v3.2.202087883)

mtllib model_normalized.mtl

# 32 vertex positions
v -0.224955 0.086134 0.114573
v -0.224955 -0.540648 -0.231072
v -0.224955 -0.540648 0.114573
v -0.224955 0.086134 -0.231072
v -0.166204 -0.481901 0.114573
v -0.224955 0.167924 0.088338
v -0.166204 0.086134 -0.231072
v -0.166204 -0.481901 -0.231072
v 0.224383 -0.540648 0.114573
v -0.166204 0.086134 0.114573
v -0.224955 0.283139 0.088338
v -0.224955 0.167924 -0.231072
v 0.224383 -0.540648 -0.231072
v 0.165633 -0.481901 0.114573
v 0.167919 0.167924 0.114573
v -0.224955 0.283139 0.114573
v -0.166204 0.167924 0.088338
v 0.165633 0.086134 -0.231072
v 0.165633 -0.481901 -0.231072
v 0.224383 0.086134 0.114573
v 0.165633 0.086134 0.114573
v -0.166204 0.167924 0.114573
v 0.224383 0.283139 0.114573
v -0.166204 0.231292 0.088338
v 0.224383 0.167924 -0.231072
v 0.224383 0.086134 -0.231072
v -0.166204 0.231292 0.114573
v 0.224383 0.283139 0.088338
v 0.167919 0.231292 0.088338
v 0.167919 0.167924 0.088338
v 0.167919 0.231292 0.114573
v 0.224383 0.167924 0.088338

# 0 UV coordinates

# 18 vertex normals
vn -0.0254 -0 0
vn 0.0254 0 0
vn 0 0 0.0254
vn 0 0 -0.0254
vn 0.0179605 0 0.0179605
vn 0.0146647 -0.0146647 0.0146647
vn 0.0179605 0 -0.0179605
vn 0 -0.0254 0
vn 0 0.0254 0
vn 0.0146647 -0.0146647 -0.0146647
vn -0.0146647 -0.0146647 0.0146647
vn -0.0179605 0 -0.0179605
vn -0.0146647 -0.0146647 -0.0146647
vn -0.0146647 0.0146647 0.0146647
vn -0.0179605 0 0.0179605
vn -0.0146647 0.0146647 -0.0146647
vn 0.0146647 0.0146647 0.0146647
vn 0.0146647 0.0146647 -0.0146647

# Mesh 'mesh1_mesh1-geometry' with 98 faces
g mesh1_mesh1-geometry
usemtl material_0_24
f  1//1 2//1 3//1
f  2//1 1//1 4//1
f  3//2 2//2 1//2
f  4//2 1//2 2//2
f  3//3 5//3 1//3
f  1//4 5//4 3//4
f  4//5 6//6 1//7
f  7//8 1//8 4//8
f  4//9 1//9 7//9
f  8//4 2//4 4//4
f  4//3 2//3 8//3
f  5//3 3//3 9//3
f  9//4 3//4 5//4
f  1//3 5//3 10//3
f  10//4 5//4 1//4
f  6//6 11//6 1//7
f  12//6 6//6 4//5
f  1//8 7//8 10//8
f  10//9 7//9 1//9
f  4//5 7//3 12//6
f  8//4 4//4 7//4
f  7//3 4//3 8//3
f  2//4 8//4 13//4
f  13//3 8//3 2//3
f  5//3 9//3 14//3
f  14//4 9//4 5//4
f  8//2 10//2 5//2
f  5//1 10//1 8//1
f  1//7 15//10 10//4
f  16//10 1//7 11//6
f  6//6 17//11 11//6
f  6//6 12//6 17//11
f  18//8 10//8 7//8
f  7//9 10//9 18//9
f  10//2 8//2 7//2
f  7//1 8//1 10//1
f  18//3 12//6 7//3
f  19//4 13//4 8//4
f  8//3 13//3 19//3
f  20//3 14//3 9//3
f  9//4 14//4 20//4
f  14//9 8//9 5//9
f  5//8 8//8 14//8
f  10//4 15//10 21//4
f  15//10 1//7 22//12
f  16//10 22//12 1//7
f  16//10 11//6 23//13
f  24//14 11//6 17//11
f  25//11 17//11 12//6
f  10//8 18//8 21//8
f  21//9 18//9 10//9
f  26//15 12//6 18//3
f  13//4 19//4 26//4
f  26//3 19//3 13//3
f  8//9 14//9 19//9
f  19//8 14//8 8//8
f  14//3 20//3 21//3
f  21//4 20//4 14//4
f  13//2 20//2 9//2
f  9//1 20//1 13//1
f  15//10 23//13 21//4
f  22//8 17//11 15//10
f  27//16 22//12 16//10
f  28//11 23//13 11//6
f  23//13 27//16 16//10
f  29//17 11//6 24//14
f  24//14 17//11 27//16
f  30//6 17//11 25//11
f  25//11 12//6 26//15
f  19//1 21//1 18//1
f  18//2 21//2 19//2
f  26//8 21//8 18//8
f  18//9 21//9 26//9
f  26//4 19//4 18//4
f  18//3 19//3 26//3
f  20//2 13//2 26//2
f  26//1 13//1 20//1
f  21//1 19//1 14//1
f  14//2 19//2 21//2
f  21//8 26//8 20//8
f  20//9 26//9 21//9
f  20//12 21//4 23//13
f  31//18 23//13 15//10
f  15//10 17//11 30//6
f  22//12 27//16 17//11
f  32//11 23//13 28//11
f  11//6 29//17 28//11
f  27//16 23//13 31//18
f  24//14 27//16 29//17
f  32//11 30//6 25//11
f  25//11 26//15 32//11
f  26//15 20//12 32//11
f  23//13 32//11 20//12
f  31//18 15//10 29//17
f  30//6 29//17 15//10
f  28//11 29//17 32//11
f  31//18 29//17 27//16
f  30//6 32//11 29//17

# Mesh 'mesh1_mesh1-geometry' with 42 faces
g mesh1_mesh1-geometry
usemtl material_1_24
f  1//15 6//16 4//12
f  1//15 11//16 6//16
f  4//12 6//16 12//16
f  12//16 7//4 4//12
f  10//3 15//14 1//15
f  11//16 1//15 16//14
f  11//16 17//18 6//16
f  17//18 12//16 6//16
f  7//4 12//16 18//4
f  21//3 15//14 10//3
f  22//5 1//15 15//14
f  1//15 22//5 16//14
f  23//17 11//16 16//14
f  17//18 11//16 24//10
f  12//16 17//18 25//18
f  18//4 12//16 26//7
f  21//3 23//17 15//14
f  15//14 17//18 22//9
f  16//14 22//5 27//6
f  11//16 23//17 28//18
f  16//14 27//6 23//17
f  24//10 11//16 29//13
f  27//6 17//18 24//10
f  25//18 17//18 30//16
f  26//7 12//16 25//18
f  23//17 21//3 20//5
f  15//14 23//17 31//11
f  30//16 17//18 15//14
f  17//18 27//6 22//5
f  28//18 23//17 32//18
f  28//18 29//13 11//16
f  31//11 23//17 27//6
f  29//13 27//6 24//10
f  25//18 30//16 32//18
f  32//18 26//7 25//18
f  32//18 20//5 26//7
f  20//5 32//18 23//17
f  29//13 15//14 31//11
f  15//14 29//13 30//16
f  32//18 29//13 28//18
f  27//6 29//13 31//11
f  29//13 32//18 30//16

