# File produced by Open Asset Import Library (http://www.assimp.sf.net)
# (assimp v3.2.202087883)

mtllib model_normalized.mtl

# 58 vertex positions
v -0.151456 -0.068247 -0.210646
v 0.151456 -0.068247 0.058609
v 0.151456 -0.068247 -0.210646
v -0.151456 -0.068247 0.058609
v 0.151456 -0.122046 -0.176989
v 0.117799 -0.122046 -0.210646
v -0.151456 -0.122046 -0.176989
v -0.151456 0.262907 0.058609
v 0.151456 -0.475003 -0.210646
v 0.151456 -0.122046 0.058609
v -0.117799 -0.122046 -0.210646
v -0.151456 -0.475003 -0.176989
v -0.151456 -0.122046 0.058609
v 0.151456 0.262907 0.058609
v -0.151456 -0.475003 0.092266
v 0.151456 -0.475003 -0.176989
v 0.151456 0.262907 0.092266
v 0.117799 -0.122046 0.058609
v 0.117799 -0.475003 -0.210646
v -0.117799 -0.475003 -0.210646
v -0.117799 -0.122046 0.092266
v -0.151456 -0.475003 -0.210646
v -0.117799 -0.122046 -0.176989
v -0.149415 0.304806 0.058609
v -0.151456 0.262907 0.092266
v 0.117799 -0.475003 -0.176989
v 0.151456 -0.475003 0.058609
v 0.117799 -0.122046 -0.176989
v -0.117799 -0.122046 0.058609
v -0.117799 -0.475003 -0.176989
v -0.151456 -0.475003 0.058609
v 0.149415 0.304806 0.058609
v 0.149415 0.304806 0.092266
v 0.151456 -0.475003 0.092266
v 0.117799 -0.475003 0.058609
v -0.117799 -0.475003 0.092266
v -0.117799 -0.475003 0.058609
v -0.149415 0.304806 0.092266
v -0.136002 0.344558 0.058609
v 0.117799 -0.475003 0.092266
v 0.117799 -0.122046 0.092266
v 0.136002 0.344558 0.058609
v 0.136002 0.344558 0.092266
v -0.136002 0.344558 0.092266
v -0.112240 0.379130 0.058609
v 0.112240 0.379130 0.058609
v 0.112240 0.379130 0.092266
v -0.112240 0.379130 0.092266
v -0.079936 0.405889 0.058609
v -0.079936 0.405889 0.092266
v 0.079936 0.405889 0.058609
v 0.079936 0.405889 0.092266
v -0.041549 0.422811 0.092266
v 0.041549 0.422811 0.058609
v 0.041549 0.422811 0.092266
v -0.041549 0.422811 0.058609
v -0.000000 0.428595 0.092266
v -0.000000 0.428595 0.058609

# 111 UV coordinates
vt 0.3 0 0
vt 0 0.266667 0
vt 0 0 0
vt 0.3 0.266667 0
vt -0.033333 0.350984 0
vt 0 0.404267 0
vt -0.266667 0.404267 0
vt 0.033333 0.350984 0
vt 0.3 0.404267 0
vt 0.266667 0.404267 0
vt 0.3 0.732237 0
vt 0 0.00142 0
vt -0.266667 0.350984 0
vt 0.266667 0.350984 0
vt 0.033333 0.00142 0
vt 0 0.732237 0
vt 0.3 0.00142 0
vt 0.266667 0.732237 0
vt -0.033333 0.00142 0
vt -0.3 0.732237 0
vt -0.033333 0.266667 0
vt 0 0.033333 0
vt 0.266667 0.00142 0
vt -0.033333 0 0
vt -0.266667 0.3 0
vt -0.266667 0 0
vt -0.3 0.00142 0
vt -0.3 0.350984 0
vt -0.266667 0.033333 0
vt -0.3 0.266667 0
vt -0.3 0.033333 0
vt 0.297978 0.773735 0
vt -0.266667 0.732237 0
vt -0.033333 0.033333 0
vt 0 0.350984 0
vt -0.266667 0.00142 0
vt -0.266667 0.266667 0
vt -0.3 0 0
vt 0.3 0.716771 0
vt 0.266667 0.758318 0
vt 0.266667 0.716771 0
vt 0.002022 0.773735 0
vt -0.266667 0.73137 0
vt -0.3 0.772917 0
vt -0.3 0.73137 0
vt 0.3 0.350984 0
vt -0.3 0.3 0
vt 0.3 0.758318 0
vt 0.284695 0.813101 0
vt -0.266667 0.772917 0
vt -0.002022 0.773735 0
vt -0.033333 0.3 0
vt 0 0.3 0
vt -0.297978 0.773735 0
vt 0.3 0.637856 0
vt 0.266667 0.679403 0
vt 0.266667 0.637856 0
vt 0.015305 0.813101 0
vt -0.266667 0.733771 0
vt -0.3 0.775318 0
vt -0.3 0.733771 0
vt -0.015305 0.813101 0
vt 0.3 0.679403 0
vt 0.261161 0.84734 0
vt -0.266667 0.775318 0
vt -0.284695 0.813101 0
vt 0.3 0.508818 0
vt 0.266667 0.550365 0
vt 0.266667 0.508818 0
vt 0.038839 0.84734 0
vt -0.266667 0.67875 0
vt -0.3 0.720297 0
vt -0.3 0.67875 0
vt -0.038839 0.84734 0
vt 0.3 0.550365 0
vt 0.229168 0.873846 0
vt -0.266667 0.720297 0
vt -0.261161 0.84734 0
vt 0.3 0.381024 0
vt 0.266667 0.339477 0
vt 0.3 0.339477 0
vt 0.266667 0.381024 0
vt 0.070832 0.873846 0
vt -0.266667 0.61204 0
vt -0.3 0.570493 0
vt -0.266667 0.570493 0
vt -0.070832 0.873846 0
vt -0.229168 0.873846 0
vt 0.3 0.184267 0
vt 0.266667 0.14272 0
vt 0.3 0.14272 0
vt 0.10885 0.890602 0
vt -0.3 0.61204 0
vt -0.10885 0.890602 0
vt 0.266667 0.184267 0
vt -0.19115 0.890602 0
vt 0.19115 0.890602 0
vt -0.266667 0.458787 0
vt -0.3 0.41724 0
vt -0.266667 0.41724 0
vt -0.3 0.458787 0
vt 0.3 -0.024932 0
vt 0.266667 -0.066479 0
vt 0.3 -0.066479 0
vt -0.15 0.896333 0
vt 0.15 0.896333 0
vt -0.266667 0.2722 0
vt -0.3 0.230653 0
vt -0.266667 0.230653 0
vt 0.266667 -0.024932 0
vt -0.3 0.2722 0

# 30 vertex normals
vn 0 0.0254 0
vn 0.0254 0 0
vn 0 0 -0.0254
vn -0.0254 0 0
vn -0.0253925 0.000618185 0
vn 0.0253925 0.000618185 0
vn 0 -0.0254 0
vn 0 0 0.0254
vn -0.0249569 0.00472351 0
vn 0.0249569 0.00472351 0
vn -0.0227167 0.0113627 0
vn 0.0227167 0.0113627 0
vn -0.0187477 0.0171373 0
vn 0.0187477 0.0171373 0
vn -0.0133519 0.0216076 0
vn 0.0133519 0.0216076 0
vn -0.00694002 0.0244335 0
vn 0.00694002 0.0244335 0
vn 0.0253925 -0.000618185 -0
vn -0.0253925 -0.000618185 0
vn 0.0249569 -0.00472351 -0
vn -0.0249569 -0.00472351 0
vn 0.0227167 -0.0113627 -0
vn -0.0227167 -0.0113627 0
vn 0.0187477 -0.0171373 -0
vn -0.0187477 -0.0171373 0
vn 0.0133519 -0.0216076 -0
vn -0.0133519 -0.0216076 0
vn 0.00694002 -0.0244335 -0
vn -0.00694002 -0.0244335 0

# Mesh 'mesh1_mesh1-geometry' with 112 faces
g mesh1_mesh1-geometry
usemtl material_0_1_8
f  1/1/1 2/2/1 3/3/1
f  2/2/1 1/1/1 4/4/1
f  5/5/2 3/6/2 2/7/2
f  3/6/3 6/8/3 1/9/3
f  1/6/4 7/8/4 4/10/4
f  8/11/3 2/6/3 4/9/3
f  3/6/2 5/5/2 9/12/2
f  5/5/2 2/7/2 10/13/2
f  9/12/3 6/8/3 3/6/3
f  11/14/3 1/9/3 6/8/3
f  1/6/4 12/15/4 7/8/4
f  4/10/4 7/8/4 13/14/4
f  2/6/3 8/11/3 14/16/3
f  4/10/4 15/17/4 8/18/5
f  16/19/2 9/12/2 5/5/2
f  2/7/2 17/20/6 10/13/2
f  18/21/7 5/22/7 10/2/7
f  6/8/3 9/12/3 19/15/3
f  20/23/3 1/9/3 11/14/3
f  6/24/7 21/25/7 11/26/7
f  12/15/4 1/6/4 22/12/4
f  12/27/8 23/13/8 7/28/8
f  23/29/7 13/30/7 7/31/7
f  13/14/4 15/17/4 4/10/4
f  14/16/3 8/11/3 24/32/3
f  17/20/6 2/7/2 14/33/6
f  8/18/5 15/17/4 25/11/5
f  26/34/7 9/3/7 16/22/7
f  5/35/8 26/19/8 16/12/8
f  10/13/2 17/20/6 27/36/2
f  5/22/7 18/21/7 28/34/7
f  27/12/3 18/8/3 10/35/3
f  9/3/7 26/34/7 19/24/7
f  26/15/4 6/35/4 19/12/4
f  1/9/3 20/23/3 22/17/3
f  23/5/2 20/12/2 11/35/2
f  28/34/7 21/25/7 6/24/7
f  11/26/7 21/25/7 29/37/7
f  20/26/7 12/31/7 22/38/7
f  23/13/8 12/27/8 30/36/8
f  13/30/7 23/29/7 29/37/7
f  15/17/4 13/14/4 31/23/4
f  25/39/5 24/40/9 8/41/5
f  14/16/3 24/32/3 32/42/3
f  14/43/6 33/44/10 17/45/6
f  15/27/8 21/13/8 25/20/8
f  26/19/8 5/35/8 28/5/8
f  27/36/2 17/20/6 34/27/2
f  18/21/7 21/25/7 28/34/7
f  18/8/3 27/12/3 35/15/3
f  6/35/4 26/15/4 28/8/4
f  20/12/2 23/5/2 30/19/2
f  11/26/7 29/37/7 23/29/7
f  36/27/2 29/13/2 21/28/2
f  12/31/7 20/26/7 30/29/7
f  37/23/3 13/46/3 29/14/3
f  13/46/3 37/23/3 31/17/3
f  37/37/7 15/47/7 31/30/7
f  24/40/9 25/39/5 38/48/9
f  32/42/3 24/32/3 39/49/3
f  33/44/10 14/43/6 32/50/10
f  25/20/8 17/16/8 33/51/8
f  21/13/8 15/27/8 36/36/8
f  25/20/8 21/13/8 17/16/8
f  17/16/8 40/19/8 34/12/8
f  40/52/7 27/2/7 34/53/7
f  21/25/7 18/21/7 41/52/7
f  27/2/7 40/52/7 35/21/7
f  40/17/4 18/14/4 35/23/4
f  29/13/2 36/27/2 37/36/2
f  15/47/7 37/37/7 36/25/7
f  25/20/8 33/51/8 38/54/8
f  38/55/9 39/56/11 24/57/9
f  32/42/3 39/49/3 42/58/3
f  32/59/10 43/60/12 33/61/10
f  41/5/8 17/16/8 21/13/8
f  40/19/8 17/16/8 41/5/8
f  18/14/4 40/17/4 41/46/4
f  38/54/8 33/51/8 43/62/8
f  39/56/11 38/55/9 44/63/11
f  42/58/3 39/49/3 45/64/3
f  43/60/12 32/59/10 42/65/12
f  38/54/8 43/62/8 44/66/8
f  44/67/11 45/68/13 39/69/11
f  42/58/3 45/64/3 46/70/3
f  42/71/12 47/72/14 43/73/12
f  44/66/8 43/62/8 47/74/8
f  45/68/13 44/67/11 48/75/13
f  46/70/3 45/64/3 49/76/3
f  47/72/14 42/71/12 46/77/14
f  44/66/8 47/74/8 48/78/8
f  50/79/15 45/80/13 48/81/13
f  45/80/13 50/79/15 49/82/15
f  46/70/3 49/76/3 51/83/3
f  51/84/16 47/85/14 46/86/14
f  48/78/8 47/74/8 52/87/8
f  48/78/8 52/87/8 50/88/8
f  53/89/17 49/90/15 50/91/15
f  51/83/3 49/76/3 54/92/3
f  47/85/14 51/84/16 52/93/16
f  50/88/8 52/87/8 55/94/8
f  49/90/15 53/89/17 56/95/17
f  50/88/8 55/94/8 53/96/8
f  54/92/3 49/76/3 56/97/3
f  54/98/18 52/99/16 51/100/16
f  52/99/16 54/98/18 55/101/18
f  57/102/1 56/103/17 53/104/17
f  53/96/8 55/94/8 57/105/8
f  54/92/3 56/97/3 58/106/3
f  58/107/1 55/108/18 54/109/18
f  56/103/17 57/102/1 58/110/1
f  55/108/18 58/107/1 57/111/1

# Mesh 'mesh1_mesh1-geometry' with 112 faces
g mesh1_mesh1-geometry
usemtl material_1_24
f  3//7 2//7 1//7
f  4//7 1//7 2//7
f  2//4 3//4 5//4
f  1//8 6//8 3//8
f  4//2 7//2 1//2
f  4//8 2//8 8//8
f  9//4 5//4 3//4
f  10//4 2//4 5//4
f  3//8 6//8 9//8
f  6//8 1//8 11//8
f  7//2 12//2 1//2
f  13//2 7//2 4//2
f  14//8 8//8 2//8
f  8//19 15//2 4//2
f  5//4 9//4 16//4
f  10//4 17//20 2//4
f  10//1 5//1 18//1
f  19//8 9//8 6//8
f  11//8 1//8 20//8
f  11//1 21//1 6//1
f  22//2 1//2 12//2
f  7//3 23//3 12//3
f  7//1 13//1 23//1
f  4//2 15//2 13//2
f  24//8 8//8 14//8
f  14//20 2//4 17//20
f  25//19 15//2 8//19
f  16//1 9//1 26//1
f  16//3 26//3 5//3
f  27//4 17//20 10//4
f  28//1 18//1 5//1
f  10//8 18//8 27//8
f  19//1 26//1 9//1
f  19//2 6//2 26//2
f  22//8 20//8 1//8
f  11//4 20//4 23//4
f  6//1 21//1 28//1
f  29//1 21//1 11//1
f  22//1 12//1 20//1
f  30//3 12//3 23//3
f  29//1 23//1 13//1
f  31//2 13//2 15//2
f  8//19 24//21 25//19
f  32//8 24//8 14//8
f  17//20 33//22 14//20
f  25//3 21//3 15//3
f  28//3 5//3 26//3
f  34//4 17//20 27//4
f  28//1 21//1 18//1
f  35//8 27//8 18//8
f  28//2 26//2 6//2
f  30//4 23//4 20//4
f  23//1 29//1 11//1
f  21//4 29//4 36//4
f  30//1 20//1 12//1
f  29//8 13//8 37//8
f  31//8 37//8 13//8
f  31//1 15//1 37//1
f  38//21 25//19 24//21
f  39//8 24//8 32//8
f  32//22 14//20 33//22
f  33//3 17//3 25//3
f  36//3 15//3 21//3
f  17//3 21//3 25//3
f  34//3 40//3 17//3
f  34//1 27//1 40//1
f  41//1 18//1 21//1
f  35//1 40//1 27//1
f  35//2 18//2 40//2
f  37//4 36//4 29//4
f  36//1 37//1 15//1
f  38//3 33//3 25//3
f  24//21 39//23 38//21
f  42//8 39//8 32//8
f  33//22 43//24 32//22
f  21//3 17//3 41//3
f  41//3 17//3 40//3
f  41//2 40//2 18//2
f  43//3 33//3 38//3
f  44//23 38//21 39//23
f  45//8 39//8 42//8
f  42//24 32//22 43//24
f  44//3 43//3 38//3
f  39//23 45//25 44//23
f  46//8 45//8 42//8
f  43//24 47//26 42//24
f  47//3 43//3 44//3
f  48//25 44//23 45//25
f  49//8 45//8 46//8
f  46//26 42//24 47//26
f  48//3 47//3 44//3
f  48//25 45//25 50//27
f  49//27 50//27 45//25
f  51//8 49//8 46//8
f  46//26 47//26 51//28
f  52//3 47//3 48//3
f  50//3 52//3 48//3
f  50//27 49//27 53//29
f  54//8 49//8 51//8
f  52//28 51//28 47//26
f  55//3 52//3 50//3
f  56//29 53//29 49//27
f  53//3 55//3 50//3
f  56//8 49//8 54//8
f  51//28 52//28 54//30
f  55//30 54//30 52//28
f  53//29 56//29 57//7
f  57//3 55//3 53//3
f  58//8 56//8 54//8
f  54//30 55//30 58//7
f  58//7 57//7 56//29
f  57//7 58//7 55//30

