# File produced by Open Asset Import Library (http://www.assimp.sf.net)
# (assimp v3.2.202087883)

mtllib model_normalized.mtl

# 81 vertex positions
v 0.378247 -0.062293 -0.160978
v 0.378247 -0.037187 -0.176041
v 0.378247 -0.062293 -0.176041
v 0.378247 -0.037187 -0.160978
v 0.393310 -0.062293 -0.176041
v 0.393310 -0.037187 -0.160978
v 0.393310 -0.037187 -0.176041
v 0.393310 -0.062293 -0.160978
v -0.402039 -0.062293 -0.160978
v -0.402039 -0.037187 -0.176041
v -0.402039 -0.062293 -0.176041
v -0.402039 -0.037187 -0.160978
v -0.386975 -0.062293 -0.176041
v -0.386975 -0.037187 -0.160978
v -0.386975 -0.037187 -0.176041
v -0.386975 -0.062293 -0.160978
v -0.006416 -0.062293 -0.160978
v -0.006416 -0.037187 -0.176041
v -0.006416 -0.062293 -0.176041
v -0.006416 -0.037187 -0.160978
v 0.008647 -0.062293 -0.176041
v 0.008647 -0.037187 -0.160978
v 0.008647 -0.037187 -0.176041
v 0.008647 -0.062293 -0.160978
v -0.006416 -0.062293 0.144431
v -0.006416 -0.037187 0.129367
v -0.006416 -0.062293 0.129367
v -0.006416 -0.037187 0.144431
v 0.008647 -0.062293 0.129367
v 0.008647 -0.037187 0.144431
v 0.008647 -0.037187 0.129367
v 0.008647 -0.062293 0.144431
v -0.402039 -0.062293 0.144431
v -0.402039 -0.037187 0.129367
v -0.402039 -0.062293 0.129367
v -0.402039 -0.037187 0.144431
v -0.386975 -0.062293 0.129367
v -0.386975 -0.037187 0.144431
v -0.386975 -0.037187 0.129367
v -0.386975 -0.062293 0.144431
v 0.378247 -0.062293 0.144431
v 0.378247 -0.037187 0.129367
v 0.378247 -0.062293 0.129367
v 0.378247 -0.037187 0.144431
v 0.393310 -0.062293 0.129367
v 0.393310 -0.037187 0.144431
v 0.393310 -0.037187 0.129367
v 0.393310 -0.062293 0.144431
v -0.387153 -0.011736 0.138520
v -0.387153 0.276660 0.157035
v -0.387153 0.014282 0.064637
v -0.387153 0.250642 0.230916
v 0.368802 0.276660 0.157035
v 0.368802 -0.011736 0.138520
v 0.368802 0.014282 0.064637
v 0.368802 0.250642 0.230916
v -0.386671 -0.005052 0.165827
v -0.386671 0.073278 -0.185653
v -0.386671 -0.005052 -0.185653
v -0.386671 0.073278 0.165827
v 0.369287 -0.005052 -0.185653
v 0.369287 0.073278 0.165827
v 0.369287 0.073278 -0.185653
v 0.369287 -0.005052 0.165827
v -0.431498 -0.037187 0.165827
v 0.412055 -0.037187 -0.185653
v 0.412055 -0.037187 0.165827
v -0.431498 -0.037187 -0.185653
v 0.412055 0.138553 0.165827
v 0.369287 -0.005052 0.165827
v -0.431498 0.138553 -0.185653
v -0.386671 -0.005052 -0.185653
v 0.412055 0.115456 -0.185653
v -0.386671 -0.005052 0.165827
v -0.431498 0.138553 0.165827
v 0.369287 -0.005052 -0.185653
v 0.412055 0.138553 -0.185653
v 0.369287 0.138553 0.165827
v -0.386671 0.138553 0.165827
v -0.386671 0.138553 -0.185653
v 0.369287 0.138553 -0.185653

# 4 UV coordinates
vt 0 0 0
vt 0 0.625 0
vt -0.375 0 0
vt -0.375 0.625 0

# 10 vertex normals
vn -0.0254 0 0
vn 0.0254 -0 -0
vn 0 0 0.0254
vn 0 -0.0254 0
vn 0 0.0254 0
vn 0 -0 -0.0254
vn 0 0.00843689 -0.0239579
vn 0 -0.00843689 0.0239579
vn 0 -0.0239579 -0.00843689
vn 0 0.0239579 0.00843689

# Mesh 'mesh1_mesh1-geometry' with 22 faces
g mesh1_mesh1-geometry
usemtl material_0_24
f  1/1/1 2/1/1 3/1/1
f  2/1/1 1/1/1 4/1/1
f  3/1/2 2/1/2 1/1/2
f  4/1/2 1/1/2 2/1/2
f  3/1/3 5/1/3 2/1/3
f  5/1/4 1/1/4 3/1/4
f  3/1/5 1/1/5 5/1/5
f  1/1/3 6/1/3 4/1/3
f  4/1/6 6/1/6 1/1/6
f  6/1/5 2/1/5 4/1/5
f  4/1/4 2/1/4 6/1/4
f  7/1/3 2/1/3 5/1/3
f  1/1/4 5/1/4 8/1/4
f  8/1/5 5/1/5 1/1/5
f  6/1/3 1/1/3 8/1/3
f  8/1/6 1/1/6 6/1/6
f  2/1/5 6/1/5 7/1/5
f  7/1/4 6/1/4 2/1/4
f  6/1/2 5/1/2 7/1/2
f  7/1/1 5/1/1 6/1/1
f  5/1/2 6/1/2 8/1/2
f  8/1/1 6/1/1 5/1/1

# Mesh 'mesh1_mesh1-geometry' with 2 faces
g mesh1_mesh1-geometry
usemtl material_1_1_8
f  2/2/6 5/3/6 3/1/6
f  5/3/6 2/2/6 7/4/6

# Mesh 'mesh2_mesh2-geometry' with 9 faces
g mesh2_mesh2-geometry
usemtl material_0_0
l  8 6
l  8 1
l  5 8
l  7 6
l  6 4
l  1 4
l  1 3
l  4 2
l  3 2

# Mesh 'mesh1_mesh1-geometry' with 22 faces
g mesh1_mesh1-geometry
usemtl material_0_24
f  9/1/1 10/1/1 11/1/1
f  10/1/1 9/1/1 12/1/1
f  11/1/2 10/1/2 9/1/2
f  12/1/2 9/1/2 10/1/2
f  11/1/3 13/1/3 10/1/3
f  13/1/4 9/1/4 11/1/4
f  11/1/5 9/1/5 13/1/5
f  9/1/3 14/1/3 12/1/3
f  12/1/6 14/1/6 9/1/6
f  14/1/5 10/1/5 12/1/5
f  12/1/4 10/1/4 14/1/4
f  15/1/3 10/1/3 13/1/3
f  9/1/4 13/1/4 16/1/4
f  16/1/5 13/1/5 9/1/5
f  14/1/3 9/1/3 16/1/3
f  16/1/6 9/1/6 14/1/6
f  10/1/5 14/1/5 15/1/5
f  15/1/4 14/1/4 10/1/4
f  14/1/2 13/1/2 15/1/2
f  15/1/1 13/1/1 14/1/1
f  13/1/2 14/1/2 16/1/2
f  16/1/1 14/1/1 13/1/1

# Mesh 'mesh1_mesh1-geometry' with 2 faces
g mesh1_mesh1-geometry
usemtl material_1_1_8
f  10/2/6 13/3/6 11/1/6
f  13/3/6 10/2/6 15/4/6

# Mesh 'mesh2_mesh2-geometry' with 9 faces
g mesh2_mesh2-geometry
usemtl material_0_0
l  16 14
l  16 9
l  13 16
l  15 14
l  14 12
l  9 12
l  9 11
l  12 10
l  11 10

# Mesh 'mesh1_mesh1-geometry' with 22 faces
g mesh1_mesh1-geometry
usemtl material_0_24
f  17/1/1 18/1/1 19/1/1
f  18/1/1 17/1/1 20/1/1
f  19/1/2 18/1/2 17/1/2
f  20/1/2 17/1/2 18/1/2
f  19/1/3 21/1/3 18/1/3
f  21/1/4 17/1/4 19/1/4
f  19/1/5 17/1/5 21/1/5
f  17/1/3 22/1/3 20/1/3
f  20/1/6 22/1/6 17/1/6
f  22/1/5 18/1/5 20/1/5
f  20/1/4 18/1/4 22/1/4
f  23/1/3 18/1/3 21/1/3
f  17/1/4 21/1/4 24/1/4
f  24/1/5 21/1/5 17/1/5
f  22/1/3 17/1/3 24/1/3
f  24/1/6 17/1/6 22/1/6
f  18/1/5 22/1/5 23/1/5
f  23/1/4 22/1/4 18/1/4
f  22/1/2 21/1/2 23/1/2
f  23/1/1 21/1/1 22/1/1
f  21/1/2 22/1/2 24/1/2
f  24/1/1 22/1/1 21/1/1

# Mesh 'mesh1_mesh1-geometry' with 2 faces
g mesh1_mesh1-geometry
usemtl material_1_1_8
f  18/2/6 21/3/6 19/1/6
f  21/3/6 18/2/6 23/4/6

# Mesh 'mesh2_mesh2-geometry' with 9 faces
g mesh2_mesh2-geometry
usemtl material_0_0
l  24 22
l  24 17
l  21 24
l  23 22
l  22 20
l  17 20
l  17 19
l  20 18
l  19 18

# Mesh 'mesh1_mesh1-geometry' with 22 faces
g mesh1_mesh1-geometry
usemtl material_0_24
f  25/1/1 26/1/1 27/1/1
f  26/1/1 25/1/1 28/1/1
f  27/1/2 26/1/2 25/1/2
f  28/1/2 25/1/2 26/1/2
f  27/1/3 29/1/3 26/1/3
f  29/1/4 25/1/4 27/1/4
f  27/1/5 25/1/5 29/1/5
f  25/1/3 30/1/3 28/1/3
f  28/1/6 30/1/6 25/1/6
f  30/1/5 26/1/5 28/1/5
f  28/1/4 26/1/4 30/1/4
f  31/1/3 26/1/3 29/1/3
f  25/1/4 29/1/4 32/1/4
f  32/1/5 29/1/5 25/1/5
f  30/1/3 25/1/3 32/1/3
f  32/1/6 25/1/6 30/1/6
f  26/1/5 30/1/5 31/1/5
f  31/1/4 30/1/4 26/1/4
f  30/1/2 29/1/2 31/1/2
f  31/1/1 29/1/1 30/1/1
f  29/1/2 30/1/2 32/1/2
f  32/1/1 30/1/1 29/1/1

# Mesh 'mesh1_mesh1-geometry' with 2 faces
g mesh1_mesh1-geometry
usemtl material_1_1_8
f  26/2/6 29/3/6 27/1/6
f  29/3/6 26/2/6 31/4/6

# Mesh 'mesh2_mesh2-geometry' with 9 faces
g mesh2_mesh2-geometry
usemtl material_0_0
l  32 30
l  32 25
l  29 32
l  31 30
l  30 28
l  25 28
l  25 27
l  28 26
l  27 26

# Mesh 'mesh1_mesh1-geometry' with 22 faces
g mesh1_mesh1-geometry
usemtl material_0_24
f  33/1/1 34/1/1 35/1/1
f  34/1/1 33/1/1 36/1/1
f  35/1/2 34/1/2 33/1/2
f  36/1/2 33/1/2 34/1/2
f  35/1/3 37/1/3 34/1/3
f  37/1/4 33/1/4 35/1/4
f  35/1/5 33/1/5 37/1/5
f  33/1/3 38/1/3 36/1/3
f  36/1/6 38/1/6 33/1/6
f  38/1/5 34/1/5 36/1/5
f  36/1/4 34/1/4 38/1/4
f  39/1/3 34/1/3 37/1/3
f  33/1/4 37/1/4 40/1/4
f  40/1/5 37/1/5 33/1/5
f  38/1/3 33/1/3 40/1/3
f  40/1/6 33/1/6 38/1/6
f  34/1/5 38/1/5 39/1/5
f  39/1/4 38/1/4 34/1/4
f  38/1/2 37/1/2 39/1/2
f  39/1/1 37/1/1 38/1/1
f  37/1/2 38/1/2 40/1/2
f  40/1/1 38/1/1 37/1/1

# Mesh 'mesh1_mesh1-geometry' with 2 faces
g mesh1_mesh1-geometry
usemtl material_1_1_8
f  34/2/6 37/3/6 35/1/6
f  37/3/6 34/2/6 39/4/6

# Mesh 'mesh2_mesh2-geometry' with 9 faces
g mesh2_mesh2-geometry
usemtl material_0_0
l  40 38
l  40 33
l  37 40
l  39 38
l  38 36
l  33 36
l  33 35
l  36 34
l  35 34

# Mesh 'mesh1_mesh1-geometry' with 22 faces
g mesh1_mesh1-geometry
usemtl material_0_24
f  41/1/1 42/1/1 43/1/1
f  42/1/1 41/1/1 44/1/1
f  43/1/2 42/1/2 41/1/2
f  44/1/2 41/1/2 42/1/2
f  43/1/3 45/1/3 42/1/3
f  45/1/4 41/1/4 43/1/4
f  43/1/5 41/1/5 45/1/5
f  41/1/3 46/1/3 44/1/3
f  44/1/6 46/1/6 41/1/6
f  46/1/5 42/1/5 44/1/5
f  44/1/4 42/1/4 46/1/4
f  47/1/3 42/1/3 45/1/3
f  41/1/4 45/1/4 48/1/4
f  48/1/5 45/1/5 41/1/5
f  46/1/3 41/1/3 48/1/3
f  48/1/6 41/1/6 46/1/6
f  42/1/5 46/1/5 47/1/5
f  47/1/4 46/1/4 42/1/4
f  46/1/2 45/1/2 47/1/2
f  47/1/1 45/1/1 46/1/1
f  45/1/2 46/1/2 48/1/2
f  48/1/1 46/1/1 45/1/1

# Mesh 'mesh1_mesh1-geometry' with 2 faces
g mesh1_mesh1-geometry
usemtl material_1_1_8
f  42/2/6 45/3/6 43/1/6
f  45/3/6 42/2/6 47/4/6

# Mesh 'mesh2_mesh2-geometry' with 9 faces
g mesh2_mesh2-geometry
usemtl material_0_0
l  48 46
l  48 41
l  45 48
l  47 46
l  46 44
l  41 44
l  41 43
l  44 42
l  43 42

# Mesh 'mesh3_mesh3-geometry' with 24 faces
g mesh3_mesh3-geometry
usemtl material_0_24
f  49//1 50//1 51//1
f  50//1 49//1 52//1
f  51//2 50//2 49//2
f  52//2 49//2 50//2
f  53//7 51//7 50//7
f  50//8 51//8 53//8
f  51//9 54//9 49//9
f  49//10 54//10 51//10
f  54//8 52//8 49//8
f  49//7 52//7 54//7
f  52//10 53//10 50//10
f  50//9 53//9 52//9
f  51//7 53//7 55//7
f  55//8 53//8 51//8
f  54//9 51//9 55//9
f  55//10 51//10 54//10
f  52//8 54//8 56//8
f  56//7 54//7 52//7
f  53//10 52//10 56//10
f  56//9 52//9 53//9
f  53//2 54//2 55//2
f  55//1 54//1 53//1
f  54//2 53//2 56//2
f  56//1 53//1 54//1

# Mesh 'mesh4_mesh4-geometry' with 12 faces
g mesh4_mesh4-geometry
usemtl material_0_0
l  51 50
l  55 51
l  49 51
l  50 53
l  52 50
l  54 55
l  55 53
l  54 49
l  49 52
l  53 56
l  52 56
l  56 54

# Mesh 'mesh5_mesh5-geometry' with 24 faces
g mesh5_mesh5-geometry
usemtl material_0_24
f  57//1 58//1 59//1
f  58//1 57//1 60//1
f  59//2 58//2 57//2
f  60//2 57//2 58//2
f  58//6 61//6 59//6
f  59//3 61//3 58//3
f  61//4 57//4 59//4
f  59//5 57//5 61//5
f  57//3 62//3 60//3
f  60//6 62//6 57//6
f  62//5 58//5 60//5
f  60//4 58//4 62//4
f  61//6 58//6 63//6
f  63//3 58//3 61//3
f  57//4 61//4 64//4
f  64//5 61//5 57//5
f  62//3 57//3 64//3
f  64//6 57//6 62//6
f  58//5 62//5 63//5
f  63//4 62//4 58//4
f  62//2 61//2 63//2
f  63//1 61//1 62//1
f  61//2 62//2 64//2
f  64//1 62//1 61//1

# Mesh 'mesh6_mesh6-geometry' with 12 faces
g mesh6_mesh6-geometry
usemtl material_0_0
l  58 60
l  63 58
l  59 58
l  60 62
l  57 60
l  61 63
l  63 62
l  61 59
l  59 57
l  62 64
l  57 64
l  64 61

# Mesh 'mesh7_mesh7-geometry' with 60 faces
g mesh7_mesh7-geometry
usemtl material_0_24
f  65//4 66//4 67//4
f  66//4 65//4 68//4
f  67//5 66//5 65//5
f  68//5 65//5 66//5
f  66//2 69//2 67//2
f  67//1 69//1 66//1
f  67//3 70//3 65//3
f  65//6 70//6 67//6
f  65//1 71//1 68//1
f  68//2 71//2 65//2
f  68//6 72//6 66//6
f  66//3 72//3 68//3
f  73//2 69//2 66//2
f  66//1 69//1 73//1
f  70//3 67//3 69//3
f  69//6 67//6 70//6
f  74//3 65//3 70//3
f  70//6 65//6 74//6
f  71//1 65//1 75//1
f  75//2 65//2 71//2
f  72//6 68//6 71//6
f  71//3 68//3 72//3
f  76//6 66//6 72//6
f  72//3 66//3 76//3
f  69//2 73//2 77//2
f  77//1 73//1 69//1
f  66//6 76//6 73//6
f  73//3 76//3 66//3
f  70//3 69//3 78//3
f  78//6 69//6 70//6
f  65//3 74//3 75//3
f  75//6 74//6 65//6
f  70//5 72//5 74//5
f  74//4 72//4 70//4
f  79//5 71//5 75//5
f  75//4 71//4 79//4
f  72//6 71//6 80//6
f  80//3 71//3 72//3
f  72//5 70//5 76//5
f  76//4 70//4 72//4
f  73//6 81//6 77//6
f  77//3 81//3 73//3
f  81//5 69//5 77//5
f  77//4 69//4 81//4
f  73//6 76//6 81//6
f  81//3 76//3 73//3
f  69//5 81//5 78//5
f  78//4 81//4 69//4
f  81//1 70//1 78//1
f  78//2 70//2 81//2
f  75//3 74//3 79//3
f  79//6 74//6 75//6
f  72//2 79//2 74//2
f  74//1 79//1 72//1
f  71//5 79//5 80//5
f  80//4 79//4 71//4
f  79//2 72//2 80//2
f  80//1 72//1 79//1
f  70//1 81//1 76//1
f  76//2 81//2 70//2

# Mesh 'mesh8_mesh8-geometry' with 25 faces
g mesh8_mesh8-geometry
usemtl material_0_0
l  66 68
l  67 66
l  66 73
l  68 65
l  68 71
l  65 67
l  67 69
l  73 77
l  65 75
l  71 75
l  80 71
l  69 77
l  78 69
l  77 81
l  75 79
l  80 79
l  80 72
l  78 81
l  78 70
l  81 76
l  79 74
l  76 72
l  72 74
l  74 70
l  70 76

