# File produced by Open Asset Import Library (http://www.assimp.sf.net)
# (assimp v3.2.202087883)

mtllib model_normalized.mtl

# 102 vertex positions
v 0.297266 -0.241254 0.231855
v 0.281010 -0.241254 0.201999
v 0.297266 -0.241254 0.201999
v 0.281010 -0.241254 0.231855
v 0.270411 -0.129779 0.231855
v 0.270411 -0.241254 0.231855
v 0.297266 -0.129779 0.231855
v 0.270411 -0.241254 0.201999
v 0.297266 -0.129779 0.184409
v 0.270411 -0.129779 0.184409
v -0.270411 -0.129779 0.231855
v -0.297266 -0.101910 0.231855
v -0.297266 -0.129779 0.231855
v 0.297266 -0.101910 0.231855
v 0.270411 -0.129779 -0.239730
v 0.297266 -0.129779 -0.239730
v -0.270411 -0.129779 -0.239730
v -0.297266 -0.129779 -0.239730
v -0.297266 -0.129779 0.184409
v -0.270411 -0.129779 0.184409
v 0.297266 -0.101910 -0.274496
v 0.297266 -0.129779 -0.274496
v 0.297266 -0.101910 0.053264
v -0.281010 -0.241254 0.231855
v -0.297266 -0.241254 0.231855
v -0.270411 -0.241254 0.231855
v 0.297266 -0.101910 0.240216
v -0.297266 -0.101910 0.240216
v -0.297266 -0.129779 -0.274496
v -0.297266 -0.101910 -0.274496
v -0.297266 -0.101910 0.053264
v -0.281010 -0.241254 -0.255527
v -0.297266 -0.241254 -0.255527
v -0.270411 -0.129779 -0.274496
v 0.270411 -0.129779 -0.274496
v 0.281010 -0.241254 -0.255527
v 0.297266 -0.241254 -0.255527
v -0.297266 -0.241254 0.201999
v -0.281010 -0.241254 0.201999
v -0.270411 -0.241254 0.201999
v 0.297266 -0.241254 -0.274496
v -0.297266 -0.241254 -0.274496
v -0.281010 -0.241254 -0.274496
v 0.281010 -0.241254 -0.274496
v -0.297266 -0.101910 -0.280000
v 0.297266 -0.101910 -0.280000
v 0.297266 0.056013 -0.280000
v 0.297266 0.031115 0.053264
v 0.297266 0.040539 0.026642
v 0.297266 0.048667 -0.000403
v 0.297266 0.055479 -0.027809
v 0.297266 0.056013 -0.030507
v 0.297266 0.061377 -0.252274
v 0.297266 0.060961 -0.055513
v 0.297266 0.065098 -0.083449
v 0.297266 0.065396 -0.224320
v 0.297266 0.067881 -0.111551
v 0.297266 0.068060 -0.196206
v 0.297266 0.069304 -0.139756
v 0.297266 0.069364 -0.167996
v -0.297266 0.056013 -0.280000
v -0.297266 0.061377 -0.252274
v -0.297266 0.065396 -0.224320
v -0.297266 0.068060 -0.196206
v -0.297266 0.069364 -0.167996
v -0.297266 0.069304 -0.139756
v -0.297266 0.067881 -0.111551
v -0.297266 0.065098 -0.083449
v -0.297266 0.060961 -0.055513
v -0.297266 0.056013 -0.030507
v -0.297266 0.055479 -0.027809
v -0.297266 0.048667 -0.000403
v -0.297266 0.040539 0.026642
v -0.297266 0.031115 0.053264
v 0.297266 0.371859 0.240216
v 0.297266 0.078983 0.053264
v 0.297266 0.093446 0.053917
v 0.297266 0.124427 0.057474
v 0.297266 0.155090 0.063167
v 0.297266 0.185284 0.070967
v 0.297266 0.214866 0.080838
v 0.297266 0.243695 0.092732
v 0.297266 0.271631 0.106591
v 0.297266 0.298543 0.122351
v 0.297266 0.324298 0.139934
v 0.297266 0.348777 0.159257
v 0.297266 0.371859 0.180228
v 0.297266 0.062291 0.052511
v -0.297266 0.062291 0.052511
v -0.297266 0.078983 0.053264
v -0.297266 0.093446 0.053917
v -0.297266 0.124427 0.057474
v -0.297266 0.155090 0.063167
v -0.297266 0.185284 0.070967
v -0.297266 0.214866 0.080838
v -0.297266 0.243695 0.092732
v -0.297266 0.271631 0.106591
v -0.297266 0.298543 0.122351
v -0.297266 0.324298 0.139934
v -0.297266 0.348777 0.159257
v -0.297266 0.371859 0.180228
v -0.297266 0.371859 0.240216

# 0 UV coordinates

# 70 vertex normals
vn 0 -0.0254 0
vn 1.16324e-16 0 0.0254
vn -1.15025e-16 -0.00395891 -0.0250896
vn 0.0254 0 -1.16324e-16
vn -0.0254 0 1.16324e-16
vn 1.15173e-16 -0.00356397 0.0251487
vn -1.16324e-16 0 -0.0254
vn 0.025286 -0.00240408 -1.15801e-16
vn -0.025286 -0.00240408 1.15801e-16
vn 0.014937 0.0130745 -0.0158463
vn 0.0179605 0 -0.0179605
vn 0.0196221 0.015204 0.00538238
vn 0.0178235 0.0172 0.00562538
vn 0.0178235 0.0174515 0.00478832
vn 0.0178235 0.0176624 0.00394008
vn 0.0179605 0.017619 0.00348599
vn 0.0178235 0.0178449 -0.00300715
vn 0.0178235 0.017832 0.00308266
vn 0.0178235 0.0179601 0.00221804
vn 0.0178235 0.0179693 -0.002142
vn 0.0178235 0.0180462 0.00134825
vn 0.0178235 0.0180518 -0.00127185
vn 0.0178235 0.0180903 0.000475309
vn 0.0178235 0.0180921 -0.000398737
vn -0.0179605 0 -0.0179605
vn -0.014937 0.0130745 -0.0158463
vn -0.0178235 0.0178449 -0.00300715
vn -0.0178235 0.0179693 -0.002142
vn -0.0178235 0.0180518 -0.00127185
vn -0.0178235 0.0180921 -0.000398737
vn -0.0178235 0.0180903 0.000475309
vn -0.0178235 0.0180462 0.00134825
vn -0.0178235 0.0179601 0.00221804
vn -0.0178235 0.017832 0.00308266
vn -0.0179605 0.017619 0.00348599
vn -0.0178235 0.0176624 0.00394008
vn -0.0178235 0.0174515 0.00478832
vn -0.0178235 0.0172 0.00562538
vn -0.0196221 0.015204 0.00538238
vn 0.0227531 -0.000272638 -0.0112864
vn 0.0179605 0.0179605 -2.00826e-16
vn 0.0179605 0.000809546 -0.0179423
vn 0.0177647 0.00144552 -0.0180965
vn 0.0177647 0.00269407 -0.0179532
vn 0.0177647 0.00392971 -0.0177238
vn 0.0177647 0.00514652 -0.0174094
vn 0.0177647 0.00633866 -0.0170116
vn 0.0177647 0.00750042 -0.0165323
vn 0.0177647 0.00862624 -0.0159738
vn 0.0177647 0.00971072 -0.0153387
vn 0.0177647 0.0107487 -0.0146301
vn 0.0177647 0.0117351 -0.0138514
vn 0.0159094 0.0181064 -0.0080132
vn 0.0177647 0.000190048 -0.0181532
vn -0.0227531 -0.000272638 -0.0112864
vn -0.0177647 0.000190048 -0.0181532
vn -0.0179605 0.000809546 -0.0179423
vn -0.0177647 0.00144552 -0.0180965
vn -0.0177647 0.00269407 -0.0179532
vn -0.0177647 0.00392971 -0.0177238
vn -0.0177647 0.00514652 -0.0174094
vn -0.0177647 0.00633866 -0.0170116
vn -0.0177647 0.00750042 -0.0165323
vn -0.0177647 0.00862624 -0.0159738
vn -0.0177647 0.00971072 -0.0153387
vn -0.0177647 0.0107487 -0.0146301
vn -0.0177647 0.0117351 -0.0138514
vn -0.0159094 0.0181064 -0.0080132
vn -0.0146647 0.0146647 0.0146647
vn -0.0179605 0 0.0179605

# Mesh 'group_0_ID3' with 88 faces
g group_0_ID3
usemtl material
f  1//1 2//1 3//1
f  2//1 1//1 4//1
f  4//2 5//2 6//2
f  5//2 4//2 7//2
f  7//2 4//2 1//2
f  4//1 8//1 2//1
f  8//1 4//1 6//1
f  9//3 8//3 10//3
f  8//3 9//3 2//3
f  2//3 9//3 3//3
f  9//4 1//4 3//4
f  1//4 9//4 7//4
f  11//2 12//2 13//2
f  12//2 11//2 14//2
f  14//2 11//2 5//2
f  14//2 5//2 7//2
f  5//5 8//5 6//5
f  8//5 5//5 10//5
f  9//1 15//1 16//1
f  15//1 9//1 17//1
f  17//1 9//1 18//1
f  18//1 9//1 19//1
f  19//1 9//1 10//1
f  19//1 10//1 20//1
f  21//4 16//4 22//4
f  16//4 21//4 9//4
f  9//4 21//4 7//4
f  7//4 21//4 14//4
f  14//4 21//4 23//4
f  24//2 13//2 25//2
f  13//2 24//2 11//2
f  11//2 24//2 26//2
f  11//1 19//1 20//1
f  19//1 11//1 13//1
f  5//1 20//1 10//1
f  20//1 5//1 11//1
f  7//1 10//1 9//1
f  10//1 7//1 5//1
f  27//1 12//1 14//1
f  12//1 27//1 28//1
f  12//5 19//5 13//5
f  19//5 12//5 18//5
f  18//5 12//5 29//5
f  29//5 12//5 30//5
f  30//5 12//5 31//5
f  32//6 18//6 33//6
f  18//6 32//6 17//6
f  17//1 29//1 34//1
f  29//1 17//1 18//1
f  15//1 34//1 35//1
f  34//1 15//1 17//1
f  16//1 35//1 22//1
f  35//1 16//1 15//1
f  36//6 16//6 15//6
f  16//6 36//6 37//6
f  20//3 38//3 19//3
f  38//3 20//3 39//3
f  39//3 20//3 40//3
f  22//4 37//4 41//4
f  37//4 22//4 16//4
f  21//7 29//7 30//7
f  29//7 21//7 34//7
f  34//7 21//7 35//7
f  35//7 21//7 22//7
f  13//5 38//5 25//5
f  38//5 13//5 19//5
f  24//1 38//1 39//1
f  38//1 24//1 25//1
f  26//1 39//1 40//1
f  39//1 26//1 24//1
f  20//4 26//4 40//4
f  26//4 20//4 11//4
f  18//5 42//5 33//5
f  42//5 18//5 29//5
f  32//1 42//1 43//1
f  42//1 32//1 33//1
f  34//8 32//8 43//8
f  32//8 34//8 17//8
f  15//9 44//9 36//9
f  44//9 15//9 35//9
f  37//1 44//1 41//1
f  44//1 37//1 36//1
f  22//7 44//7 35//7
f  44//7 22//7 41//7
f  21//1 45//1 46//1
f  45//1 21//1 30//1
f  34//7 42//7 29//7
f  42//7 34//7 43//7

# Mesh 'group_0_ID11' with 120 faces
g group_0_ID11
usemtl material_0
f  47//10 21//4 46//11
f  21//4 47//10 23//4
f  23//4 47//10 48//12
f  48//12 47//10 49//13
f  49//13 47//10 50//14
f  50//14 47//10 51//15
f  51//15 47//10 52//16
f  52//16 47//10 53//17
f  52//16 53//17 54//18
f  54//18 53//17 55//19
f  55//19 53//17 56//20
f  55//19 56//20 57//21
f  57//21 56//20 58//22
f  57//21 58//22 59//23
f  59//23 58//22 60//24
f  47//10 45//25 61//26
f  45//25 47//10 46//11
f  62//27 47//10 61//26
f  47//10 62//27 53//17
f  63//28 53//17 62//27
f  53//17 63//28 56//20
f  64//29 56//20 63//28
f  56//20 64//29 58//22
f  65//30 58//22 64//29
f  58//22 65//30 60//24
f  66//31 60//24 65//30
f  60//24 66//31 59//23
f  67//32 59//23 66//31
f  59//23 67//32 57//21
f  68//33 57//21 67//32
f  57//21 68//33 55//19
f  69//34 55//19 68//33
f  55//19 69//34 54//18
f  70//35 54//18 69//34
f  54//18 70//35 52//16
f  71//36 52//16 70//35
f  52//16 71//36 51//15
f  72//37 51//15 71//36
f  51//15 72//37 50//14
f  73//38 50//14 72//37
f  50//14 73//38 49//13
f  74//39 49//13 73//38
f  49//13 74//39 48//12
f  48//40 14//4 23//4
f  14//4 48//40 27//4
f  27//4 48//40 75//41
f  75//41 48//40 76//42
f  75//41 76//42 77//43
f  75//41 77//43 78//44
f  75//41 78//44 79//45
f  75//41 79//45 80//46
f  75//41 80//46 81//47
f  75//41 81//47 82//48
f  75//41 82//48 83//49
f  75//41 83//49 84//50
f  75//41 84//50 85//51
f  75//41 85//51 86//52
f  75//41 86//52 87//53
f  74//39 30//5 31//5
f  30//5 74//39 45//25
f  45//25 74//39 61//26
f  61//26 74//39 73//38
f  61//26 73//38 72//37
f  61//26 72//37 71//36
f  61//26 71//36 70//35
f  61//26 70//35 69//34
f  61//26 69//34 62//27
f  62//27 69//34 68//33
f  62//27 68//33 63//28
f  63//28 68//33 67//32
f  63//28 67//32 64//29
f  64//29 67//32 66//31
f  64//29 66//31 65//30
f  88//54 74//55 89//56
f  74//55 88//54 48//40
f  76//42 48//40 88//54
f  77//43 90//57 91//58
f  90//57 77//43 76//42
f  78//44 91//58 92//59
f  91//58 78//44 77//43
f  79//45 92//59 93//60
f  92//59 79//45 78//44
f  80//46 93//60 94//61
f  93//60 80//46 79//45
f  81//47 94//61 95//62
f  94//61 81//47 80//46
f  82//48 95//62 96//63
f  95//62 82//48 81//47
f  83//49 96//63 97//64
f  96//63 83//49 82//48
f  84//50 97//64 98//65
f  97//64 84//50 83//49
f  85//51 98//65 99//66
f  98//65 85//51 84//50
f  86//52 99//66 100//67
f  99//66 86//52 85//51
f  87//53 100//67 101//68
f  100//67 87//53 86//52
f  102//69 87//53 101//68
f  87//53 102//69 75//41
f  27//2 102//69 28//70
f  102//69 27//2 75//2
f  102//69 12//5 28//70
f  12//5 102//69 31//5
f  31//5 102//69 74//55
f  74//55 102//69 90//57
f  90//57 102//69 91//58
f  91//58 102//69 92//59
f  92//59 102//69 93//60
f  93//60 102//69 94//61
f  94//61 102//69 95//62
f  95//62 102//69 96//63
f  96//63 102//69 97//64
f  97//64 102//69 98//65
f  98//65 102//69 99//66
f  99//66 102//69 100//67
f  100//67 102//69 101//68
f  90//57 89//56 74//55
f  76//42 89//56 90//57
f  89//56 76//42 88//54

