# File produced by Open Asset Import Library (http://www.assimp.sf.net)
# (assimp v3.2.202087883)

mtllib model_normalized.mtl

# 102 vertex positions
v 0.414162 -0.108361 -0.144145
v -0.414163 -0.108361 0.166477
v -0.414163 -0.108361 -0.144145
v 0.414162 -0.108361 0.166477
v -0.414163 -0.047962 -0.144145
v 0.414162 -0.047962 0.166477
v -0.414163 -0.047962 0.166477
v 0.414162 -0.047962 -0.144145
v -0.425329 -0.046492 0.166477
v -0.402997 -0.046492 -0.144145
v 0.425328 -0.046492 -0.144145
v 0.414162 -0.004820 0.166477
v -0.425329 -0.046492 -0.144145
v -0.414163 -0.004820 0.166477
v -0.414163 -0.004820 -0.144145
v 0.402996 -0.046492 -0.144145
v 0.425328 -0.046492 0.166477
v 0.414162 -0.004820 -0.144145
v -0.371021 -0.004820 0.166477
v -0.435734 -0.042182 0.166477
v -0.435734 -0.042182 -0.144145
v -0.392592 -0.042182 -0.144145
v 0.435733 -0.042182 -0.144145
v 0.435733 -0.042182 0.166477
v 0.371020 -0.004820 0.166477
v -0.444668 -0.035326 0.166477
v -0.372492 0.006346 0.166477
v -0.444668 -0.035326 -0.144145
v -0.383658 -0.035326 -0.144145
v 0.392591 -0.042182 -0.144145
v 0.444667 -0.035326 -0.144145
v 0.372491 0.006346 -0.144145
v 0.371020 -0.004820 -0.144145
v 0.372491 -0.015986 -0.144145
v 0.444667 -0.035326 0.166477
v 0.455833 0.006346 0.166477
v -0.371021 0.150491 0.166477
v -0.451523 -0.026391 0.166477
v -0.457305 -0.004820 0.166477
v -0.371021 -0.004820 0.062936
v -0.372492 0.006346 -0.144145
v -0.371021 -0.004820 -0.144145
v -0.372492 -0.015986 -0.144145
v -0.451523 -0.026391 -0.144145
v -0.376799 -0.026391 -0.144145
v 0.383657 -0.035326 -0.144145
v 0.451526 -0.026391 -0.144145
v 0.371020 -0.004820 0.062936
v -0.000000 -0.004820 -0.144145
v 0.455833 0.006346 -0.144145
v 0.376802 -0.026391 -0.144145
v 0.451526 -0.026391 0.166477
v 0.457304 -0.004820 0.166477
v 0.372491 0.006346 0.166477
v 0.371020 0.150491 0.166477
v -0.371021 0.150491 0.062936
v -0.455834 -0.015986 0.166477
v -0.455834 0.006346 0.166477
v -0.000000 -0.004820 0.062936
v -0.455834 0.006346 -0.144145
v -0.455834 -0.015986 -0.144145
v 0.455833 -0.015986 -0.144145
v 0.451526 0.016751 -0.144145
v 0.457304 -0.004820 -0.144145
v 0.455833 -0.015986 0.166477
v 0.451526 0.016751 0.166477
v 0.371020 0.150491 0.062936
v -0.376799 0.016751 0.166477
v -0.457305 -0.004820 -0.144145
v -0.376799 0.016751 -0.144145
v 0.376802 0.016751 -0.144145
v 0.376802 0.016751 0.166477
v -0.451523 0.016751 0.166477
v -0.451523 0.016751 -0.144145
v 0.444667 0.025686 -0.144145
v 0.444667 0.025686 0.166477
v -0.383658 0.025686 0.166477
v -0.383658 0.025686 -0.144145
v 0.383657 0.025686 -0.144145
v 0.383657 0.025686 0.166477
v -0.444668 0.025686 0.166477
v -0.444668 0.025686 -0.144145
v 0.392591 0.032542 -0.144145
v 0.435733 0.032542 -0.144145
v 0.435733 0.032542 0.166477
v -0.392592 0.032542 0.166477
v -0.392592 0.032542 -0.144145
v -0.435734 0.032542 -0.144145
v 0.392591 0.032542 0.166477
v -0.435734 0.032542 0.166477
v 0.402996 0.036852 0.166477
v 0.425328 0.036852 -0.144145
v 0.425328 0.036852 0.166477
v -0.402997 0.036852 -0.144145
v -0.402997 0.036852 0.166477
v -0.425329 0.036852 0.166477
v 0.402996 0.036852 -0.144145
v -0.425329 0.036852 -0.144145
v 0.414162 0.038322 0.166477
v 0.414162 0.038322 -0.144145
v -0.414163 0.038322 -0.144145
v -0.414163 0.038322 0.166477

# 0 UV coordinates

# 34 vertex normals
vn 0 -0.0254 0
vn -0.0254 0 0
vn 0 0 -0.0254
vn 0.0254 0 0
vn 0 0 0.0254
vn -0.006574 -0.0245345 -0
vn -0.00331536 -0.0251827 -0
vn 0.006574 -0.0245345 0
vn 0.00331536 -0.0251827 0
vn -0.0127 -0.021997 -0
vn 0.0127 -0.021997 0
vn -0.0179605 -0.0179605 -0
vn 0.0251827 0.00331536 0
vn 0.0245345 0.006574 0
vn 0.0179605 -0.0179605 0
vn -0.0251827 0.00331536 0
vn -0.0245345 0.006574 0
vn 0 0.0254 0
vn -0.021997 -0.0127 -0
vn 0.021997 -0.0127 0
vn -0.0245345 -0.006574 -0
vn 0.021997 0.0127 0
vn 0.0245345 -0.006574 0
vn -0.021997 0.0127 0
vn 0.0179605 0.0179605 0
vn -0.0179605 0.0179605 0
vn 0.0127 0.021997 0
vn -0.0127 0.021997 0
vn -0.006574 0.0245345 0
vn 0.006574 0.0245345 0
vn 0.00331536 0.0251827 0
vn -0.00331536 0.0251827 0
vn -0.0251827 -0.00331536 -0
vn 0.0251827 -0.00331536 0

# Mesh 'mesh1_mesh1-geometry' with 200 faces
g mesh1_mesh1-geometry
usemtl material_0_24
f  1//1 2//1 3//1
f  2//1 1//1 4//1
f  2//2 5//2 3//2
f  5//3 1//3 3//3
f  1//4 6//4 4//4
f  6//5 2//5 4//5
f  5//2 2//2 7//2
f  1//3 5//3 8//3
f  6//4 1//4 8//4
f  2//5 6//5 7//5
f  9//6 5//7 7//7
f  8//3 5//3 10//3
f  11//8 6//9 8//9
f  7//5 6//5 12//5
f  5//7 9//6 13//6
f  14//5 9//5 7//5
f  13//3 15//3 5//3
f  15//3 10//3 5//3
f  8//3 10//3 16//3
f  6//9 11//8 17//8
f  18//3 11//3 8//3
f  17//5 12//5 6//5
f  7//5 12//5 19//5
f  20//10 13//6 9//6
f  9//5 14//5 20//5
f  14//5 7//5 19//5
f  15//3 13//3 21//3
f  10//3 15//3 22//3
f  16//3 10//3 22//3
f  16//3 18//3 8//3
f  23//11 17//8 11//8
f  11//3 18//3 23//3
f  12//5 17//5 24//5
f  19//5 12//5 25//5
f  13//6 20//10 21//10
f  20//5 14//5 26//5
f  27//5 14//5 19//5
f  15//3 21//3 28//3
f  22//3 15//3 29//3
f  16//3 22//3 30//3
f  18//3 16//3 30//3
f  17//8 23//11 24//11
f  23//3 18//3 31//3
f  32//3 18//3 33//3
f  18//3 34//3 33//3
f  12//5 24//5 35//5
f  12//5 36//5 25//5
f  19//5 25//5 37//5
f  26//12 21//10 20//10
f  26//5 14//5 38//5
f  14//5 27//5 39//5
f  40//13 27//14 19//13
f  41//3 42//3 15//3
f  43//3 15//3 42//3
f  21//10 26//12 28//12
f  15//3 28//3 44//3
f  29//3 15//3 45//3
f  30//3 22//3 29//3
f  18//3 30//3 46//3
f  31//15 24//11 23//11
f  31//3 18//3 47//3
f  48//16 32//17 33//16
f  49//18 48//18 33//18
f  18//3 32//3 50//3
f  18//3 51//3 34//3
f  34//3 42//3 33//3
f  24//11 31//15 35//15
f  12//5 35//5 52//5
f  12//5 53//5 36//5
f  25//5 36//5 54//5
f  25//16 32//17 48//16
f  48//4 55//4 25//4
f  37//5 25//5 55//5
f  56//2 19//2 37//2
f  38//5 14//5 57//5
f  44//19 26//12 38//19
f  39//5 27//5 58//5
f  57//5 14//5 39//5
f  27//14 40//13 41//14
f  19//2 56//2 40//2
f  41//14 40//13 42//13
f  59//18 42//18 40//18
f  15//3 60//3 41//3
f  45//3 15//3 43//3
f  34//3 43//3 42//3
f  26//12 44//19 28//12
f  15//3 44//3 61//3
f  46//3 29//3 45//3
f  30//3 29//3 46//3
f  18//3 46//3 51//3
f  47//3 18//3 62//3
f  52//20 31//15 47//20
f  48//18 49//18 59//18
f  33//3 42//3 49//3
f  50//3 32//3 63//3
f  64//3 18//3 50//3
f  51//3 43//3 34//3
f  31//15 52//20 35//15
f  12//5 52//5 65//5
f  12//5 65//5 53//5
f  64//4 36//14 53//4
f  54//5 36//5 66//5
f  32//17 25//16 54//17
f  55//4 48//4 67//4
f  55//18 56//18 37//18
f  61//21 38//19 57//21
f  38//19 61//21 44//19
f  58//5 27//5 68//5
f  60//17 39//2 58//17
f  69//2 57//21 39//2
f  41//14 68//22 27//14
f  56//3 59//3 40//3
f  42//18 59//18 49//18
f  15//3 69//3 60//3
f  41//3 60//3 70//3
f  51//3 45//3 43//3
f  15//3 61//3 69//3
f  46//3 45//3 51//3
f  62//3 18//3 64//3
f  65//23 47//20 62//23
f  47//20 65//23 52//20
f  59//3 56//3 48//3
f  63//3 32//3 71//3
f  66//22 50//14 63//22
f  36//14 64//4 50//14
f  62//23 53//4 65//23
f  53//4 62//23 64//4
f  50//14 66//22 36//14
f  54//5 66//5 72//5
f  54//17 71//24 32//17
f  48//3 56//3 67//3
f  56//18 55//18 67//18
f  57//21 69//2 61//21
f  58//5 68//5 73//5
f  39//2 60//17 69//2
f  58//17 74//24 60//17
f  68//22 41//14 70//22
f  70//3 60//3 74//3
f  63//3 71//3 75//3
f  63//22 76//25 66//22
f  72//5 66//5 76//5
f  71//24 54//17 72//24
f  73//5 68//5 77//5
f  74//24 58//17 73//24
f  70//22 77//25 68//22
f  70//3 74//3 78//3
f  75//3 71//3 79//3
f  76//25 63//22 75//25
f  72//5 76//5 80//5
f  72//24 79//26 71//24
f  73//5 77//5 81//5
f  73//24 82//26 74//24
f  77//25 70//22 78//25
f  78//3 74//3 82//3
f  75//3 79//3 83//3
f  84//27 76//25 75//25
f  80//5 76//5 85//5
f  79//26 72//24 80//26
f  81//5 77//5 86//5
f  82//26 73//24 81//26
f  87//27 77//25 78//25
f  78//3 82//3 88//3
f  79//26 89//28 83//28
f  75//3 83//3 84//3
f  76//25 84//27 85//27
f  80//5 85//5 89//5
f  89//28 79//26 80//26
f  77//25 87//27 86//27
f  81//5 86//5 90//5
f  90//28 82//26 81//26
f  78//3 88//3 87//3
f  82//26 90//28 88//28
f  91//29 83//28 89//28
f  84//3 83//3 92//3
f  92//30 85//27 84//27
f  89//5 85//5 93//5
f  94//30 86//27 87//27
f  90//5 86//5 95//5
f  87//3 88//3 94//3
f  96//29 88//28 90//28
f  83//28 91//29 97//29
f  89//5 93//5 91//5
f  92//3 83//3 97//3
f  85//27 92//30 93//30
f  86//27 94//30 95//30
f  90//5 95//5 96//5
f  94//3 88//3 98//3
f  88//28 96//29 98//29
f  99//18 97//29 91//29
f  91//5 93//5 99//5
f  92//3 97//3 100//3
f  100//18 93//30 92//30
f  101//18 95//30 94//30
f  96//5 95//5 102//5
f  94//3 98//3 101//3
f  102//18 98//29 96//29
f  97//29 99//18 100//18
f  93//30 100//18 99//18
f  95//30 101//18 102//18
f  98//29 102//18 101//18

# Mesh 'mesh1_mesh1-geometry' with 220 faces
g mesh1_mesh1-geometry
usemtl material_1_24
f  3//18 2//18 1//18
f  4//18 1//18 2//18
f  3//4 5//4 2//4
f  3//5 1//5 5//5
f  4//2 6//2 1//2
f  4//3 2//3 6//3
f  7//4 2//4 5//4
f  8//5 5//5 1//5
f  8//2 1//2 6//2
f  7//3 6//3 2//3
f  7//31 5//31 9//30
f  7//2 15//2 5//2
f  5//4 15//4 7//4
f  10//5 5//5 8//5
f  8//32 6//32 11//29
f  8//4 12//4 6//4
f  6//2 12//2 8//2
f  12//3 6//3 7//3
f  13//30 9//30 5//31
f  7//3 9//3 14//3
f  15//2 7//2 14//2
f  14//4 7//4 15//4
f  5//5 15//5 13//5
f  5//5 10//5 15//5
f  16//5 10//5 8//5
f  17//29 11//29 6//32
f  8//5 11//5 18//5
f  12//4 8//4 18//4
f  18//2 8//2 12//2
f  6//3 12//3 17//3
f  19//3 12//3 7//3
f  9//30 13//30 20//27
f  20//3 14//3 9//3
f  19//3 7//3 14//3
f  19//18 15//18 14//18
f  14//1 15//1 19//1
f  21//5 13//5 15//5
f  22//5 15//5 10//5
f  22//5 10//5 16//5
f  8//5 18//5 16//5
f  11//29 17//29 23//28
f  23//5 18//5 11//5
f  33//18 12//18 18//18
f  18//1 12//1 33//1
f  24//3 17//3 12//3
f  25//3 12//3 19//3
f  21//27 20//27 13//30
f  26//3 14//3 20//3
f  19//3 14//3 27//3
f  15//18 19//18 42//18
f  42//1 19//1 15//1
f  28//5 21//5 15//5
f  29//5 15//5 22//5
f  30//5 22//5 16//5
f  30//5 16//5 18//5
f  24//28 23//28 17//29
f  31//5 18//5 23//5
f  48//18 12//18 33//18
f  33//1 12//1 48//1
f  33//5 18//5 32//5
f  33//5 34//5 18//5
f  35//3 24//3 12//3
f  25//3 36//3 12//3
f  12//18 48//18 25//18
f  25//1 48//1 12//1
f  37//3 25//3 19//3
f  20//27 21//27 26//25
f  38//3 14//3 26//3
f  39//3 27//3 14//3
f  19//33 27//21 40//33
f  42//18 19//18 40//18
f  40//1 19//1 42//1
f  15//5 42//5 41//5
f  42//5 15//5 43//5
f  28//25 26//25 21//27
f  44//5 28//5 15//5
f  45//5 15//5 29//5
f  29//5 22//5 30//5
f  46//5 30//5 18//5
f  23//28 24//28 31//26
f  47//5 18//5 31//5
f  33//34 32//23 48//34
f  33//1 48//1 49//1
f  50//5 32//5 18//5
f  34//5 51//5 18//5
f  33//5 42//5 34//5
f  35//26 31//26 24//28
f  52//3 35//3 12//3
f  36//3 53//3 12//3
f  54//3 36//3 25//3
f  48//34 32//23 25//34
f  25//2 55//2 48//2
f  55//3 25//3 37//3
f  37//4 19//4 56//4
f  57//3 14//3 38//3
f  38//22 26//25 44//22
f  58//3 27//3 39//3
f  39//3 14//3 57//3
f  41//21 40//33 27//21
f  40//4 56//4 19//4
f  42//33 40//33 41//21
f  40//1 42//1 59//1
f  41//5 60//5 15//5
f  43//5 15//5 45//5
f  42//5 43//5 34//5
f  28//25 44//22 26//25
f  61//5 44//5 15//5
f  45//5 29//5 46//5
f  46//5 29//5 30//5
f  51//5 46//5 18//5
f  62//5 18//5 47//5
f  47//24 31//26 52//24
f  59//1 49//1 48//1
f  49//5 42//5 33//5
f  63//5 32//5 50//5
f  50//5 18//5 64//5
f  34//5 43//5 51//5
f  35//26 52//24 31//26
f  65//3 52//3 12//3
f  53//3 65//3 12//3
f  53//2 36//21 64//2
f  66//3 36//3 54//3
f  54//23 25//34 32//23
f  67//2 48//2 55//2
f  37//1 56//1 55//1
f  57//14 38//22 61//14
f  44//22 61//14 38//22
f  68//3 27//3 58//3
f  58//23 39//4 60//23
f  39//4 57//14 69//4
f  27//21 68//19 41//21
f  40//5 59//5 56//5
f  49//1 59//1 42//1
f  60//5 69//5 15//5
f  70//5 60//5 41//5
f  43//5 45//5 51//5
f  69//5 61//5 15//5
f  51//5 45//5 46//5
f  64//5 18//5 62//5
f  62//17 47//24 65//17
f  52//24 65//17 47//24
f  48//5 56//5 59//5
f  71//5 32//5 63//5
f  63//19 50//21 66//19
f  50//21 64//2 36//21
f  65//17 53//2 62//17
f  64//2 62//17 53//2
f  36//21 66//19 50//21
f  72//3 66//3 54//3
f  32//23 71//20 54//23
f  67//5 56//5 48//5
f  67//1 55//1 56//1
f  61//14 69//4 57//14
f  73//3 68//3 58//3
f  69//4 60//23 39//4
f  60//23 74//20 58//23
f  70//19 41//21 68//19
f  74//5 60//5 70//5
f  75//5 71//5 63//5
f  66//19 76//12 63//19
f  76//3 66//3 72//3
f  72//20 54//23 71//20
f  77//3 68//3 73//3
f  73//20 58//23 74//20
f  68//19 77//12 70//19
f  78//5 74//5 70//5
f  79//5 71//5 75//5
f  75//12 63//19 76//12
f  80//3 76//3 72//3
f  71//20 79//15 72//20
f  81//3 77//3 73//3
f  74//20 82//15 73//20
f  78//12 70//19 77//12
f  82//5 74//5 78//5
f  83//5 79//5 75//5
f  75//12 76//12 84//10
f  85//3 76//3 80//3
f  80//15 72//20 79//15
f  86//3 77//3 81//3
f  81//15 73//20 82//15
f  78//12 77//12 87//10
f  88//5 82//5 78//5
f  83//11 89//11 79//15
f  84//5 83//5 75//5
f  85//10 84//10 76//12
f  89//3 85//3 80//3
f  80//15 79//15 89//11
f  86//10 87//10 77//12
f  90//3 86//3 81//3
f  81//15 82//15 90//11
f  87//5 88//5 78//5
f  88//11 90//11 82//15
f  89//11 83//11 91//8
f  92//5 83//5 84//5
f  84//10 85//10 92//6
f  93//3 85//3 89//3
f  87//10 86//10 94//6
f  95//3 86//3 90//3
f  94//5 88//5 87//5
f  90//11 88//11 96//8
f  97//8 91//8 83//11
f  91//3 93//3 89//3
f  97//5 83//5 92//5
f  93//6 92//6 85//10
f  95//6 94//6 86//10
f  96//3 95//3 90//3
f  98//5 88//5 94//5
f  98//8 96//8 88//11
f  91//8 97//8 99//1
f  99//3 93//3 91//3
f  100//5 97//5 92//5
f  92//6 93//6 100//1
f  94//6 95//6 101//1
f  102//3 95//3 96//3
f  101//5 98//5 94//5
f  96//8 98//8 102//1
f  100//1 99//1 97//8
f  99//1 100//1 93//6
f  102//1 101//1 95//6
f  101//1 102//1 98//8

# Mesh 'mesh2_mesh2-geometry' with 1 faces
g mesh2_mesh2-geometry
usemtl material_1_0
l  15 14

# Mesh 'mesh3_mesh3-geometry' with 1 faces
g mesh3_mesh3-geometry
usemtl material_1_0
l  18 12

