# File produced by Open Asset Import Library (http://www.assimp.sf.net)
# (assimp v3.2.202087883)

mtllib model_normalized.mtl

# 44 vertex positions
v -0.338424 -0.342722 -0.100990
v -0.314788 -0.319086 -0.100990
v 0.370655 -0.342722 -0.100990
v -0.338424 0.342722 -0.100990
v 0.347019 -0.319086 -0.100990
v -0.338424 -0.342722 0.056583
v -0.314788 -0.122119 -0.100990
v 0.370655 0.342722 -0.100990
v 0.016115 -0.319086 0.056583
v 0.016115 -0.342722 0.056583
v -0.338424 0.342722 0.056583
v -0.314788 -0.098483 -0.100990
v -0.314788 -0.122119 0.056583
v 0.347019 -0.122119 -0.100990
v 0.370655 0.342722 0.056583
v -0.314788 -0.319086 0.056583
v 0.347019 -0.319086 0.056583
v 0.370655 -0.342722 0.056583
v 0.016115 0.342722 0.056583
v -0.314788 0.098483 -0.100990
v 0.347019 -0.098483 -0.100990
v -0.314788 0.122119 -0.100990
v -0.314788 0.098483 0.056583
v 0.016115 -0.122119 0.056583
v 0.347019 -0.122119 0.056583
v 0.347019 0.098483 -0.100990
v 0.016115 0.319086 0.056583
v 0.347019 0.319086 -0.100990
v -0.314788 0.319086 -0.100990
v -0.314788 -0.098483 0.056583
v 0.016115 -0.098483 0.056583
v 0.347019 0.122119 -0.100990
v 0.347019 0.319086 0.056583
v 0.347019 -0.098483 0.056583
v -0.314788 0.319086 0.056583
v -0.314788 0.122119 0.056583
v 0.016115 0.098483 0.056583
v 0.347019 0.122119 0.056583
v 0.016115 0.122119 0.056583
v 0.347019 0.098483 0.056583
v -0.338424 -0.342722 0.064462
v 0.016115 -0.342722 0.064462
v -0.338424 0.342722 0.064462
v 0.016115 0.342722 0.064462

# 36 UV coordinates
vt 0 0 0
vt -0.9 -0 0
vt 0 -0.011494 0
vt 0.02 0 0
vt 0 1 0
vt 0.9 0.034483 0
vt 0.06 0.034483 0
vt 0.9 0.321839 0
vt 0 0.034483 0
vt 0 0.321839 0
vt -0.9 -0.011494 0
vt 0.02 1 0
vt 0.9 -0.011494 0
vt 0.9 -0 0
vt 0.06 0.321839 0
vt 0 0.356322 0
vt 0.9 1 0
vt 0 0.965517 0
vt 0 0.643678 0
vt 0.06 0.965517 0
vt 0.9 0.965517 0
vt 0.06 0.678161 0
vt 0.06 0.643678 0
vt 0.9 0.643678 0
vt 0.06 0.356322 0
vt 0 0.678161 0
vt 0.9 0.356322 0
vt 0.9 0.678161 0
vt 0 0.344444 0
vt -0.222222 0.622222 0
vt -0.222222 0.344444 0
vt 0 0.622222 0
vt 0 0.655556 0
vt -0.222222 0.933333 0
vt -0.222222 0.655556 0
vt 0 0.933333 0

# 6 vertex normals
vn 0 0 -0.01
vn 0 -0.01 0
vn -0.01 0 0
vn 0 0.01 0
vn 0.01 0 0
vn 0 0 0.01

# Mesh 'mesh1_mesh1-geometry' with 70 faces
g mesh1_mesh1-geometry
usemtl material_0_24
f  1/1/1 2/1/1 3/1/1
f  2/1/1 1/1/1 4/1/1
f  5/1/1 3/1/1 2/1/1
f  3/1/2 6/1/2 1/1/2
f  6/1/3 4/1/3 1/1/3
f  2/1/1 4/1/1 7/1/1
f  3/1/1 5/1/1 8/1/1
f  2/1/4 9/1/4 5/1/4
f  6/1/2 3/1/2 10/1/2
f  4/1/3 6/1/3 11/1/3
f  7/1/1 4/1/1 12/1/1
f  13/1/5 2/1/5 7/1/5
f  8/1/1 5/1/1 14/1/1
f  15/1/5 3/1/5 8/1/5
f  9/1/4 2/1/4 16/1/4
f  5/1/4 9/1/4 17/1/4
f  10/1/2 3/1/2 18/1/2
f  19/1/4 4/1/4 11/1/4
f  12/1/1 4/1/1 20/1/1
f  7/1/1 12/1/1 14/1/1
f  2/1/5 13/1/5 16/1/5
f  14/1/2 13/1/2 7/1/2
f  17/1/3 14/1/3 5/1/3
f  8/1/1 14/1/1 21/1/1
f  3/1/5 15/1/5 18/1/5
f  8/1/4 19/1/4 15/1/4
f  9/1/6 10/1/6 17/1/6
f  18/1/6 17/1/6 10/1/6
f  4/1/4 19/1/4 8/1/4
f  20/1/1 4/1/1 22/1/1
f  23/1/5 12/1/5 20/1/5
f  21/1/1 14/1/1 12/1/1
f  13/1/2 14/1/2 24/1/2
f  14/1/3 17/1/3 25/1/3
f  8/1/1 21/1/1 26/1/1
f  17/1/6 18/1/6 15/1/6
f  27/1/6 15/1/6 19/1/6
f  8/1/1 28/1/1 4/1/1
f  22/1/1 4/1/1 29/1/1
f  20/1/1 22/1/1 26/1/1
f  12/1/5 23/1/5 30/1/5
f  26/1/2 23/1/2 20/1/2
f  12/1/4 31/1/4 21/1/4
f  24/1/2 14/1/2 25/1/2
f  17/1/6 15/1/6 25/1/6
f  8/1/1 26/1/1 32/1/1
f  33/1/6 15/1/6 27/1/6
f  31/1/6 24/1/6 34/1/6
f  8/1/1 32/1/1 28/1/1
f  29/1/1 4/1/1 28/1/1
f  22/1/5 35/1/5 36/1/5
f  35/1/2 28/1/2 27/1/2
f  35/1/5 22/1/5 29/1/5
f  32/1/1 26/1/1 22/1/1
f  31/1/4 12/1/4 30/1/4
f  23/1/2 26/1/2 37/1/2
f  21/1/4 31/1/4 34/1/4
f  25/1/6 34/1/6 24/1/6
f  25/1/6 15/1/6 34/1/6
f  38/1/6 15/1/6 33/1/6
f  27/1/2 28/1/2 33/1/2
f  28/1/2 35/1/2 29/1/2
f  39/1/4 22/1/4 36/1/4
f  22/1/4 39/1/4 32/1/4
f  37/1/2 26/1/2 40/1/2
f  34/1/6 15/1/6 40/1/6
f  40/1/6 15/1/6 38/1/6
f  39/1/6 37/1/6 38/1/6
f  32/1/4 39/1/4 38/1/4
f  40/1/6 38/1/6 37/1/6

# Mesh 'mesh1_mesh1-geometry' with 124 faces
g mesh1_mesh1-geometry
usemtl material_1_24
f  3/1/6 2/1/6 1/1/6
f  4/1/6 1/1/6 2/1/6
f  2/1/6 3/1/6 5/1/6
f  1/1/4 6/1/4 3/1/4
f  1/1/5 4/1/5 6/1/5
f  7/1/6 4/1/6 2/1/6
f  8/1/6 5/1/6 3/1/6
f  5/1/2 9/1/2 2/1/2
f  10/1/4 3/1/4 6/1/4
f  11/1/5 6/1/5 4/1/5
f  12/1/6 4/1/6 7/1/6
f  7/1/3 2/1/3 13/1/3
f  14/1/6 5/1/6 8/1/6
f  8/1/3 3/1/3 15/1/3
f  16/1/2 2/1/2 9/1/2
f  17/1/2 9/1/2 5/1/2
f  18/1/4 3/1/4 10/1/4
f  9/1/6 6/1/6 10/1/6
f  10/1/1 6/1/1 9/1/1
f  6/1/4 41/1/4 10/1/4
f  6/1/6 16/1/6 11/1/6
f  11/1/1 16/1/1 6/1/1
f  6/1/5 11/1/5 41/1/5
f  11/1/2 4/1/2 19/1/2
f  20/1/6 4/1/6 12/1/6
f  14/1/6 12/1/6 7/1/6
f  16/1/3 13/1/3 2/1/3
f  7/1/4 13/1/4 14/1/4
f  5/1/5 14/1/5 17/1/5
f  21/1/6 14/1/6 8/1/6
f  18/1/3 15/1/3 3/1/3
f  15/1/2 19/1/2 8/1/2
f  6/1/6 9/1/6 16/1/6
f  16/1/1 9/1/1 6/1/1
f  24/1/6 16/1/6 9/1/6
f  17/1/1 10/1/1 9/1/1
f  10/1/1 17/1/1 18/1/1
f  10/1/3 24/1/3 9/1/3
f  42/1/4 10/1/4 41/1/4
f  11/1/6 16/1/6 13/1/6
f  13/1/1 16/1/1 11/1/1
f  43/1/5 41/1/5 11/1/5
f  8/1/2 19/1/2 4/1/2
f  11/1/6 35/1/6 19/1/6
f  19/1/1 35/1/1 11/1/1
f  19/1/2 44/1/2 11/1/2
f  22/1/6 4/1/6 20/1/6
f  20/1/3 12/1/3 23/1/3
f  12/1/6 14/1/6 21/1/6
f  16/1/6 24/1/6 13/1/6
f  24/1/4 14/1/4 13/1/4
f  25/1/5 17/1/5 14/1/5
f  26/1/6 21/1/6 8/1/6
f  15/1/1 18/1/1 17/1/1
f  19/1/1 15/1/1 27/1/1
f  10/1/3 31/1/3 24/1/3
f  42/1/3 19/1/3 10/1/3
f  42/1/1 41/1/1 44/1/1
f  11/1/6 13/1/6 30/1/6
f  30/1/1 13/1/1 11/1/1
f  43/1/1 44/1/1 41/1/1
f  43/1/2 11/1/2 44/1/2
f  4/1/6 28/1/6 8/1/6
f  11/1/6 36/1/6 35/1/6
f  35/1/1 36/1/1 11/1/1
f  19/1/6 35/1/6 27/1/6
f  27/1/1 35/1/1 19/1/1
f  19/1/3 42/1/3 44/1/3
f  29/1/6 4/1/6 22/1/6
f  26/1/6 22/1/6 20/1/6
f  30/1/3 23/1/3 12/1/3
f  20/1/4 23/1/4 26/1/4
f  21/1/2 31/1/2 12/1/2
f  30/1/6 13/1/6 24/1/6
f  24/1/1 13/1/1 30/1/1
f  25/1/4 14/1/4 24/1/4
f  25/1/1 15/1/1 17/1/1
f  21/1/5 26/1/5 34/1/5
f  32/1/6 26/1/6 8/1/6
f  27/1/1 15/1/1 33/1/1
f  10/1/3 19/1/3 27/1/3
f  10/1/3 37/1/3 31/1/3
f  30/1/6 24/1/6 31/1/6
f  31/1/1 24/1/1 30/1/1
f  34/1/1 24/1/1 31/1/1
f  11/1/6 30/1/6 23/1/6
f  23/1/1 30/1/1 11/1/1
f  28/1/6 32/1/6 8/1/6
f  28/1/6 4/1/6 29/1/6
f  11/1/6 23/1/6 36/1/6
f  36/1/1 23/1/1 11/1/1
f  36/1/3 35/1/3 22/1/3
f  36/1/6 27/1/6 35/1/6
f  27/1/4 28/1/4 35/1/4
f  29/1/3 22/1/3 35/1/3
f  22/1/6 26/1/6 32/1/6
f  30/1/6 37/1/6 23/1/6
f  30/1/2 12/1/2 31/1/2
f  37/1/4 26/1/4 23/1/4
f  34/1/2 31/1/2 21/1/2
f  24/1/1 34/1/1 25/1/1
f  34/1/1 15/1/1 25/1/1
f  40/1/5 34/1/5 26/1/5
f  33/1/1 15/1/1 38/1/1
f  33/1/4 28/1/4 27/1/4
f  10/1/3 27/1/3 39/1/3
f  10/1/3 39/1/3 37/1/3
f  37/1/6 30/1/6 31/1/6
f  32/1/5 28/1/5 38/1/5
f  29/1/4 35/1/4 28/1/4
f  36/1/6 23/1/6 37/1/6
f  37/1/1 23/1/1 36/1/1
f  36/1/2 22/1/2 39/1/2
f  27/1/6 36/1/6 39/1/6
f  32/1/2 39/1/2 22/1/2
f  40/1/4 26/1/4 37/1/4
f  40/1/1 15/1/1 34/1/1
f  38/1/1 15/1/1 40/1/1
f  33/1/5 38/1/5 28/1/5
f  36/1/6 37/1/6 39/1/6
f  39/1/1 37/1/1 36/1/1
f  38/1/1 37/1/1 39/1/1
f  38/1/2 39/1/2 32/1/2
f  37/1/1 38/1/1 40/1/1

# Mesh 'mesh1_mesh1-geometry' with 22 faces
g mesh1_mesh1-geometry
usemtl material_3_2_8
f  10/2/2 41/3/2 6/1/2
f  41/4/3 11/5/3 6/1/3
f  9/6/1 16/7/1 24/8/1
f  9/9/5 24/10/5 10/1/5
f  41/3/2 10/2/2 42/11/2
f  11/5/3 41/4/3 43/12/3
f  11/1/4 44/13/4 19/14/4
f  13/15/1 24/8/1 16/7/1
f  24/10/5 31/16/5 10/1/5
f  10/1/5 19/5/5 42/4/5
f  44/17/6 41/1/6 42/14/6
f  41/1/6 44/17/6 43/5/6
f  44/13/4 11/1/4 43/3/4
f  44/12/5 42/4/5 19/5/5
f  27/18/5 19/5/5 10/1/5
f  31/16/5 37/19/5 10/1/5
f  35/20/1 27/21/1 36/22/1
f  23/23/1 37/24/1 30/25/1
f  39/26/5 27/18/5 10/1/5
f  37/19/5 39/26/5 10/1/5
f  31/27/1 30/25/1 37/24/1
f  39/28/1 36/22/1 27/21/1

# Mesh 'mesh1_mesh1-geometry' with 4 faces
g mesh1_mesh1-geometry
usemtl material_2_1_8
f  34/29/3 26/30/3 21/31/3
f  26/30/3 34/29/3 40/32/3
f  38/33/3 28/34/3 32/35/3
f  28/34/3 38/33/3 33/36/3

