# File produced by Open Asset Import Library (http://www.assimp.sf.net)
# (assimp v3.2.202087883)

mtllib model_normalized.mtl

# 8 vertex positions
v -0.253477 -0.373131 -0.215691
v 0.253477 -0.373131 0.215691
v -0.253477 -0.373131 0.215691
v 0.253477 -0.373131 -0.215691
v -0.253477 0.373131 0.215691
v -0.253477 0.373131 -0.215691
v 0.253477 0.373131 -0.215691
v 0.253477 0.373131 0.215691

# 21 UV coordinates
vt 0 0 0
vt 0.6061 0 0
vt -0.511956 1.64583 0
vt -0.511956 0 0
vt -1.03602 1.64583 0
vt -1.98741 0 0
vt -1.03602 0 0
vt 0.511956 1.64583 0
vt -0.6061 0 0
vt 0.511956 0 0
vt 0.6061 1.64583 0
vt -1.98741 1.64583 0
vt -0.6061 1.64583 0
vt 1.98741 -0.6061 0
vt 1.03602 0.511956 0
vt 1.03602 -0.6061 0
vt 1.98741 0.511956 0
vt 1.98741 1.00513 0
vt 1.03602 0 0
vt 1.98741 0 0
vt 1.03602 1.00513 0

# 6 vertex normals
vn 0 -0.0254 0
vn 0 0.0254 0
vn 0 0 -0.0254
vn 0.0254 -0 0
vn 0 -0 0.0254
vn -0.0254 0 0

# Mesh 'mesh1_mesh1-geometry' with 14 faces
g mesh1_mesh1-geometry
usemtl material_0_24
f  1/1/1 2/1/1 3/1/1
f  2/1/1 1/1/1 4/1/1
f  3/1/2 2/1/2 1/1/2
f  4/1/2 1/1/2 2/1/2
f  3/1/3 5/1/3 2/1/3
f  3/1/4 1/1/4 5/1/4
f  1/1/5 4/1/5 6/1/5
f  4/1/6 2/1/6 7/1/6
f  8/1/3 2/1/3 5/1/3
f  6/1/4 5/1/4 1/1/4
f  7/1/5 6/1/5 4/1/5
f  8/1/6 7/1/6 2/1/6
f  8/1/1 5/1/1 7/1/1
f  6/1/1 7/1/1 5/1/1

# Mesh 'mesh1_mesh1-geometry' with 8 faces
g mesh1_mesh1-geometry
usemtl material_1_1_8
f  2/2/5 5/3/5 3/4/5
f  5/5/6 1/6/6 3/7/6
f  6/8/3 4/9/3 1/10/3
f  5/3/5 2/2/5 8/11/5
f  1/6/6 5/5/6 6/12/6
f  4/9/3 6/8/3 7/13/3
f  7/14/2 5/15/2 8/16/2
f  5/15/2 7/14/2 6/17/2

# Mesh 'mesh1_mesh1-geometry' with 2 faces
g mesh1_mesh1-geometry
usemtl material_2_2_8
f  7/18/4 2/19/4 4/20/4
f  2/19/4 7/18/4 8/21/4

# Mesh 'mesh2_mesh2-geometry' with 4 faces
g mesh2_mesh2-geometry
usemtl material_0_0
l  1 4
l  3 1
l  4 2
l  2 3

