# File produced by Open Asset Import Library (http://www.assimp.sf.net)
# (assimp v3.2.202087883)

mtllib model_normalized.mtl

# 160 vertex positions
v -0.355518 -0.037132 -0.384450
v 0.157173 -0.037132 0.297926
v -0.355518 -0.037132 0.297926
v 0.196155 -0.037132 0.297926
v -0.036905 -0.031751 0.297926
v -0.355518 -0.015606 0.297926
v 0.342649 -0.037132 0.297926
v 0.157173 -0.026369 0.297926
v -0.036905 -0.020988 0.297926
v -0.069194 -0.031751 0.297926
v -0.355518 -0.015606 -0.384450
v -0.170380 -0.031751 0.297926
v 0.354872 -0.037132 0.297926
v 0.196155 -0.026369 0.297926
v -0.069194 -0.020988 0.297926
v -0.091611 -0.031751 0.297926
v -0.355518 0.005920 0.297926
v 0.374215 -0.015606 -0.384450
v -0.144549 -0.031751 0.297926
v -0.170380 -0.020988 0.297926
v 0.374215 -0.037132 0.297926
v 0.342649 -0.026369 0.297926
v -0.091611 -0.020988 0.297926
v -0.119594 -0.031751 0.297926
v 0.374215 -0.015606 0.297926
v -0.355518 0.005920 -0.384450
v 0.374215 -0.037132 -0.384450
v 0.374215 0.005920 -0.384450
v -0.144549 -0.020988 0.297926
v 0.354872 -0.026369 0.297926
v -0.119594 -0.020988 0.297926
v 0.374215 0.005920 0.297926
v -0.152152 0.005920 0.039977
v 0.065446 0.005920 0.098282
v -0.126837 0.005920 0.072968
v -0.168066 0.005920 0.001558
v -0.014201 0.005920 -0.198961
v 0.123752 0.005920 0.039977
v 0.098437 0.005920 0.072968
v 0.027027 0.005920 0.114196
v -0.093847 0.005920 0.098282
v 0.005771 0.005920 0.047089
v -0.079770 0.005920 0.037077
v -0.173494 0.005920 -0.039669
v -0.055428 0.005920 -0.193533
v 0.027027 0.005920 -0.193533
v 0.139665 0.005920 0.001558
v -0.055428 0.005920 0.114196
v -0.014201 0.005920 0.119624
v 0.067004 0.005920 0.047089
v -0.075432 0.005920 0.042891
v -0.083418 0.005920 0.030693
v -0.089700 0.005920 -0.005960
v -0.168066 0.005920 -0.080897
v -0.093847 0.005920 -0.177621
v 0.065446 0.005920 -0.177621
v 0.145092 0.005920 -0.039669
v 0.060306 0.005920 0.034427
v 0.063353 0.005920 0.040960
v -0.014201 0.005920 0.042891
v -0.017851 0.005920 0.036762
v -0.086318 0.005920 0.023841
v -0.090128 0.005920 0.001611
v -0.088423 0.005920 -0.013410
v -0.085555 0.005920 -0.048725
v -0.152152 0.005920 -0.119316
v -0.126837 0.005920 -0.152306
v 0.098437 0.005920 -0.152306
v 0.139665 0.005920 -0.080897
v 0.055110 0.005920 -0.001556
v 0.057900 0.005920 0.027566
v 0.001435 0.005920 0.041275
v -0.020898 0.005920 0.030229
v -0.088423 0.005920 0.016633
v -0.089700 0.005920 0.009183
v -0.026095 0.005920 -0.005754
v -0.025043 0.005920 -0.013033
v -0.086318 0.005920 -0.020619
v 0.068557 0.005920 -0.048725
v -0.081452 0.005920 -0.054854
v -0.072190 0.005920 -0.082641
v 0.123752 0.005920 -0.119316
v 0.054757 0.005920 0.005809
v 0.056160 0.005920 -0.008835
v -0.002214 0.005920 0.034891
v 0.056160 0.005920 0.020454
v -0.005113 0.005920 0.028039
v -0.023305 0.005920 0.023368
v -0.026095 0.005920 0.008976
v -0.026447 0.005920 0.001611
v -0.023305 0.005920 -0.020145
v -0.083418 0.005920 -0.027470
v -0.075432 0.005920 -0.039669
v -0.000243 0.005920 -0.048725
v -0.011881 0.005920 -0.054539
v -0.078029 0.005920 -0.061387
v -0.073371 0.005920 -0.075360
v -0.071794 0.005920 -0.090005
v -0.081452 0.005920 -0.125156
v -0.085555 0.005920 -0.131285
v 0.073430 0.005920 -0.125470
v 0.084588 0.005920 -0.082433
v -0.014201 0.005920 -0.039669
v 0.073430 0.005920 -0.054539
v 0.055110 0.005920 0.013174
v -0.008923 0.005920 0.005809
v 0.057900 0.005920 -0.015947
v -0.008496 0.005920 -0.001762
v -0.007219 0.005920 0.020831
v -0.025043 0.005920 0.016256
v -0.007219 0.005920 -0.009212
v -0.005113 0.005920 -0.016420
v -0.020898 0.005920 -0.027008
v -0.079770 0.005920 -0.033854
v -0.016754 0.005920 -0.048725
v -0.007782 0.005920 -0.060923
v -0.075325 0.005920 -0.068248
v -0.000724 0.005920 -0.082433
v -0.000243 0.005920 -0.090005
v -0.072190 0.005920 -0.097369
v -0.078029 0.005920 -0.118623
v -0.016754 0.005920 -0.131285
v 0.077529 0.005920 -0.119086
v 0.068557 0.005920 -0.131285
v 0.083154 0.005920 -0.074983
v 0.085068 0.005920 -0.090005
v 0.005771 0.005920 -0.035470
v 0.077529 0.005920 -0.060923
v 0.060306 0.005920 -0.022810
v -0.008496 0.005920 0.013381
v -0.002214 0.005920 -0.023272
v -0.017851 0.005920 -0.033540
v 0.003859 0.005920 -0.054854
v -0.004523 0.005920 -0.067775
v -0.002159 0.005920 -0.074983
v -0.000724 0.005920 -0.097577
v -0.073371 0.005920 -0.104649
v -0.075325 0.005920 -0.111761
v -0.007782 0.005920 -0.119086
v -0.011881 0.005920 -0.125470
v -0.000243 0.005920 -0.131285
v 0.080788 0.005920 -0.112235
v 0.003859 0.005920 -0.125156
v 0.080788 0.005920 -0.067775
v 0.011941 0.005920 -0.075360
v 0.084588 0.005920 -0.097577
v 0.013122 0.005920 -0.082641
v 0.067004 0.005920 -0.035470
v 0.063353 0.005920 -0.029341
v 0.001435 0.005920 -0.029656
v 0.007283 0.005920 -0.061387
v 0.013122 0.005920 -0.097369
v -0.004523 0.005920 -0.112235
v 0.083154 0.005920 -0.105026
v 0.007283 0.005920 -0.118623
v 0.009987 0.005920 -0.068248
v 0.013517 0.005920 -0.090005
v 0.011941 0.005920 -0.104649
v -0.002159 0.005920 -0.105026
v 0.009987 0.005920 -0.111761

# 0 UV coordinates

# 6 vertex normals
vn 0 -0.0254 0
vn 0 0.0254 0
vn 0 0 -0.0254
vn 0.0254 -0 0
vn 0 -0 0.0254
vn -0.0254 0 0

# Mesh 'mesh1_mesh1-geometry' with 322 faces
g mesh1_mesh1-geometry
usemtl material_0_24
f  1//1 2//1 3//1
f  2//1 1//1 4//1
f  3//2 2//2 1//2
f  4//2 1//2 2//2
f  3//3 5//3 2//3
f  3//4 1//4 6//4
f  4//1 1//1 7//1
f  7//2 1//2 4//2
f  2//3 8//3 4//3
f  9//3 2//3 5//3
f  10//3 5//3 3//3
f  11//4 6//4 1//4
f  6//3 12//3 3//3
f  7//1 1//1 13//1
f  13//2 1//2 7//2
f  4//3 14//3 7//3
f  14//3 4//3 8//3
f  2//3 9//3 8//3
f  9//3 5//3 15//3
f  10//3 15//3 5//3
f  16//3 10//3 3//3
f  17//4 6//4 11//4
f  11//5 1//5 18//5
f  12//3 19//3 3//3
f  12//3 6//3 20//3
f  13//1 1//1 21//1
f  21//2 1//2 13//2
f  7//3 22//3 13//3
f  22//3 7//3 14//3
f  8//3 9//3 14//3
f  15//3 6//3 9//3
f  10//3 23//3 15//3
f  23//3 10//3 16//3
f  24//3 16//3 3//3
f  6//3 17//3 25//3
f  26//4 17//4 11//4
f  27//5 18//5 1//5
f  18//5 28//5 11//5
f  19//3 24//3 3//3
f  12//3 20//3 19//3
f  20//3 6//3 29//3
f  21//1 1//1 27//1
f  27//2 1//2 21//2
f  30//3 21//3 13//3
f  30//3 13//3 22//3
f  14//3 9//3 22//3
f  9//3 6//3 22//3
f  23//3 6//3 15//3
f  23//3 16//3 31//3
f  24//3 31//3 16//3
f  32//3 25//3 17//3
f  6//3 25//3 30//3
f  26//1 33//1 17//1
f  26//5 11//5 28//5
f  27//6 21//6 18//6
f  18//6 25//6 28//6
f  29//3 24//3 19//3
f  29//3 19//3 20//3
f  29//3 6//3 31//3
f  21//3 30//3 25//3
f  22//3 6//3 30//3
f  31//3 6//3 23//3
f  24//3 29//3 31//3
f  32//6 28//6 25//6
f  17//1 34//1 32//1
f  35//1 17//1 33//1
f  36//1 33//1 26//1
f  28//1 37//1 26//1
f  25//6 18//6 21//6
f  28//1 32//1 38//1
f  39//1 32//1 34//1
f  40//1 34//1 17//1
f  41//1 17//1 35//1
f  33//1 42//1 35//1
f  36//1 43//1 33//1
f  44//1 36//1 26//1
f  37//1 45//1 26//1
f  37//1 28//1 46//1
f  38//1 32//1 39//1
f  47//1 28//1 38//1
f  39//1 34//1 35//1
f  34//1 40//1 48//1
f  49//1 40//1 17//1
f  48//1 17//1 41//1
f  35//1 34//1 41//1
f  50//1 35//1 42//1
f  51//1 42//1 33//1
f  43//1 51//1 33//1
f  52//1 43//1 36//1
f  44//1 53//1 36//1
f  54//1 44//1 26//1
f  45//1 55//1 26//1
f  37//1 46//1 45//1
f  46//1 28//1 56//1
f  38//1 39//1 35//1
f  57//1 28//1 47//1
f  47//1 38//1 58//1
f  49//1 48//1 40//1
f  41//1 34//1 48//1
f  49//1 17//1 48//1
f  50//1 38//1 35//1
f  50//1 42//1 59//1
f  60//1 42//1 51//1
f  43//1 61//1 51//1
f  52//1 61//1 43//1
f  62//1 52//1 36//1
f  53//1 63//1 36//1
f  64//1 53//1 44//1
f  54//1 65//1 44//1
f  66//1 54//1 26//1
f  55//1 67//1 26//1
f  45//1 56//1 55//1
f  46//1 56//1 45//1
f  56//1 28//1 68//1
f  69//1 28//1 57//1
f  57//1 47//1 70//1
f  58//1 38//1 59//1
f  71//1 47//1 58//1
f  59//1 38//1 50//1
f  72//1 59//1 42//1
f  42//1 60//1 72//1
f  60//1 51//1 61//1
f  73//1 61//1 52//1
f  62//1 73//1 52//1
f  74//1 62//1 36//1
f  63//1 75//1 36//1
f  53//1 76//1 63//1
f  64//1 77//1 53//1
f  78//1 64//1 44//1
f  79//1 44//1 65//1
f  80//1 65//1 54//1
f  66//1 81//1 54//1
f  67//1 66//1 26//1
f  55//1 68//1 67//1
f  56//1 68//1 55//1
f  68//1 28//1 82//1
f  82//1 28//1 69//1
f  69//1 57//1 79//1
f  70//1 47//1 83//1
f  84//1 57//1 70//1
f  58//1 59//1 85//1
f  86//1 47//1 71//1
f  71//1 58//1 87//1
f  85//1 59//1 72//1
f  61//1 72//1 60//1
f  73//1 85//1 61//1
f  88//1 73//1 62//1
f  74//1 88//1 62//1
f  75//1 74//1 36//1
f  63//1 89//1 75//1
f  76//1 90//1 63//1
f  77//1 76//1 53//1
f  91//1 77//1 64//1
f  78//1 91//1 64//1
f  92//1 78//1 44//1
f  44//1 79//1 93//1
f  94//1 79//1 65//1
f  80//1 95//1 65//1
f  96//1 80//1 54//1
f  81//1 97//1 54//1
f  98//1 81//1 66//1
f  67//1 99//1 66//1
f  67//1 68//1 100//1
f  68//1 82//1 101//1
f  82//1 69//1 102//1
f  79//1 57//1 103//1
f  104//1 69//1 79//1
f  83//1 47//1 105//1
f  70//1 83//1 106//1
f  107//1 57//1 84//1
f  84//1 70//1 108//1
f  87//1 58//1 85//1
f  105//1 47//1 86//1
f  86//1 71//1 109//1
f  109//1 71//1 87//1
f  85//1 72//1 61//1
f  87//1 85//1 73//1
f  88//1 87//1 73//1
f  110//1 88//1 74//1
f  75//1 110//1 74//1
f  89//1 110//1 75//1
f  90//1 89//1 63//1
f  76//1 108//1 90//1
f  77//1 111//1 76//1
f  91//1 112//1 77//1
f  113//1 91//1 78//1
f  92//1 113//1 78//1
f  114//1 92//1 44//1
f  93//1 79//1 103//1
f  93//1 114//1 44//1
f  79//1 94//1 104//1
f  115//1 94//1 65//1
f  115//1 65//1 95//1
f  116//1 95//1 80//1
f  96//1 116//1 80//1
f  117//1 96//1 54//1
f  97//1 117//1 54//1
f  81//1 118//1 97//1
f  98//1 119//1 81//1
f  120//1 98//1 66//1
f  99//1 121//1 66//1
f  100//1 99//1 67//1
f  100//1 68//1 122//1
f  101//1 82//1 123//1
f  124//1 68//1 101//1
f  102//1 69//1 125//1
f  126//1 82//1 102//1
f  57//1 127//1 103//1
f  128//1 69//1 104//1
f  83//1 105//1 106//1
f  108//1 70//1 106//1
f  129//1 57//1 107//1
f  107//1 84//1 111//1
f  111//1 84//1 108//1
f  105//1 86//1 130//1
f  130//1 86//1 109//1
f  109//1 87//1 88//1
f  110//1 109//1 88//1
f  89//1 130//1 110//1
f  90//1 106//1 89//1
f  108//1 106//1 90//1
f  111//1 108//1 76//1
f  112//1 111//1 77//1
f  131//1 112//1 91//1
f  113//1 131//1 91//1
f  132//1 113//1 92//1
f  114//1 132//1 92//1
f  93//1 103//1 114//1
f  133//1 104//1 94//1
f  94//1 115//1 133//1
f  95//1 133//1 115//1
f  116//1 133//1 95//1
f  134//1 116//1 96//1
f  117//1 134//1 96//1
f  97//1 135//1 117//1
f  118//1 135//1 97//1
f  119//1 118//1 81//1
f  136//1 119//1 98//1
f  120//1 136//1 98//1
f  137//1 120//1 66//1
f  121//1 138//1 66//1
f  99//1 139//1 121//1
f  100//1 140//1 99//1
f  122//1 68//1 141//1
f  122//1 140//1 100//1
f  123//1 82//1 142//1
f  101//1 123//1 143//1
f  141//1 68//1 124//1
f  124//1 101//1 141//1
f  125//1 69//1 144//1
f  102//1 125//1 145//1
f  146//1 82//1 126//1
f  126//1 102//1 147//1
f  103//1 127//1 132//1
f  127//1 57//1 148//1
f  144//1 69//1 128//1
f  128//1 104//1 133//1
f  106//1 105//1 130//1
f  149//1 57//1 129//1
f  129//1 107//1 112//1
f  112//1 107//1 111//1
f  130//1 109//1 110//1
f  106//1 130//1 89//1
f  131//1 129//1 112//1
f  150//1 131//1 113//1
f  132//1 150//1 113//1
f  103//1 132//1 114//1
f  151//1 133//1 116//1
f  134//1 151//1 116//1
f  135//1 134//1 117//1
f  118//1 145//1 135//1
f  119//1 147//1 118//1
f  136//1 152//1 119//1
f  137//1 136//1 120//1
f  138//1 137//1 66//1
f  121//1 153//1 138//1
f  139//1 153//1 121//1
f  140//1 139//1 99//1
f  122//1 141//1 140//1
f  142//1 82//1 154//1
f  123//1 142//1 155//1
f  143//1 123//1 155//1
f  141//1 101//1 143//1
f  125//1 144//1 156//1
f  145//1 125//1 156//1
f  147//1 102//1 145//1
f  154//1 82//1 146//1
f  146//1 126//1 157//1
f  157//1 126//1 147//1
f  127//1 150//1 132//1
f  148//1 57//1 149//1
f  127//1 148//1 150//1
f  144//1 128//1 151//1
f  151//1 128//1 133//1
f  149//1 129//1 131//1
f  150//1 149//1 131//1
f  156//1 151//1 134//1
f  135//1 156//1 134//1
f  145//1 156//1 135//1
f  147//1 145//1 118//1
f  157//1 147//1 119//1
f  152//1 157//1 119//1
f  158//1 152//1 136//1
f  159//1 136//1 137//1
f  138//1 159//1 137//1
f  153//1 159//1 138//1
f  139//1 155//1 153//1
f  140//1 143//1 139//1
f  141//1 143//1 140//1
f  142//1 154//1 160//1
f  155//1 142//1 160//1
f  143//1 155//1 139//1
f  156//1 144//1 151//1
f  154//1 146//1 158//1
f  152//1 146//1 157//1
f  148//1 149//1 150//1
f  158//1 146//1 152//1
f  159//1 158//1 136//1
f  153//1 160//1 159//1
f  155//1 160//1 153//1
f  160//1 154//1 158//1
f  160//1 158//1 159//1

# Mesh 'mesh1_mesh1-geometry' with 36 faces
g mesh1_mesh1-geometry
usemtl material_3_24
f  2//5 5//5 3//5
f  6//6 1//6 3//6
f  5//5 2//5 9//5
f  3//5 5//5 10//5
f  1//6 6//6 11//6
f  3//5 12//5 6//5
f  8//5 9//5 2//5
f  3//5 10//5 16//5
f  11//6 6//6 17//6
f  18//3 1//3 11//3
f  3//5 19//5 12//5
f  20//5 6//5 12//5
f  14//5 9//5 8//5
f  9//5 6//5 15//5
f  15//5 23//5 10//5
f  16//5 10//5 23//5
f  3//5 16//5 24//5
f  25//5 17//5 6//5
f  11//6 17//6 26//6
f  1//3 18//3 27//3
f  11//3 28//3 18//3
f  3//5 24//5 19//5
f  29//5 6//5 20//5
f  13//5 21//5 30//5
f  22//5 9//5 14//5
f  22//5 6//5 9//5
f  15//5 6//5 23//5
f  17//5 25//5 32//5
f  30//5 25//5 6//5
f  28//3 11//3 26//3
f  19//5 24//5 29//5
f  31//5 6//5 29//5
f  25//5 30//5 21//5
f  30//5 6//5 22//5
f  23//5 6//5 31//5
f  31//5 29//5 24//5

# Mesh 'mesh1_mesh1-geometry' with 12 faces
g mesh1_mesh1-geometry
usemtl material_2_24
f  4//5 8//5 2//5
f  7//5 14//5 4//5
f  8//5 4//5 14//5
f  15//5 5//5 9//5
f  5//5 15//5 10//5
f  13//5 22//5 7//5
f  14//5 7//5 22//5
f  19//5 20//5 12//5
f  22//5 13//5 30//5
f  31//5 16//5 23//5
f  16//5 31//5 24//5
f  20//5 19//5 29//5

# Mesh 'mesh1_mesh1-geometry' with 32 faces
g mesh1_mesh1-geometry
usemtl material_1_24
f  17//2 33//2 26//2
f  18//4 21//4 27//4
f  28//4 25//4 18//4
f  25//4 28//4 32//4
f  32//2 34//2 17//2
f  33//2 17//2 35//2
f  26//2 33//2 36//2
f  26//2 37//2 28//2
f  21//4 18//4 25//4
f  38//2 32//2 28//2
f  34//2 32//2 39//2
f  17//2 34//2 40//2
f  35//2 17//2 41//2
f  26//2 36//2 44//2
f  26//2 45//2 37//2
f  46//2 28//2 37//2
f  39//2 32//2 38//2
f  38//2 28//2 47//2
f  17//2 40//2 49//2
f  41//2 17//2 48//2
f  26//2 44//2 54//2
f  26//2 55//2 45//2
f  56//2 28//2 46//2
f  47//2 28//2 57//2
f  48//2 17//2 49//2
f  26//2 54//2 66//2
f  26//2 67//2 55//2
f  68//2 28//2 56//2
f  57//2 28//2 69//2
f  26//2 66//2 67//2
f  82//2 28//2 68//2
f  69//2 28//2 82//2

# Mesh 'mesh1_mesh1-geometry' with 134 faces
g mesh1_mesh1-geometry
usemtl material_8_24
f  35//2 42//2 33//2
f  33//2 43//2 36//2
f  35//2 34//2 39//2
f  48//2 40//2 34//2
f  41//2 34//2 35//2
f  42//2 35//2 50//2
f  33//2 42//2 51//2
f  33//2 51//2 43//2
f  36//2 43//2 52//2
f  36//2 53//2 44//2
f  45//2 46//2 37//2
f  35//2 39//2 38//2
f  58//2 38//2 47//2
f  40//2 48//2 49//2
f  48//2 34//2 41//2
f  35//2 38//2 50//2
f  51//2 42//2 60//2
f  36//2 52//2 62//2
f  36//2 63//2 53//2
f  44//2 53//2 64//2
f  44//2 65//2 54//2
f  55//2 56//2 45//2
f  45//2 56//2 46//2
f  70//2 47//2 57//2
f  59//2 38//2 58//2
f  58//2 47//2 71//2
f  50//2 38//2 59//2
f  72//2 60//2 42//2
f  36//2 62//2 74//2
f  36//2 75//2 63//2
f  44//2 64//2 78//2
f  65//2 44//2 79//2
f  54//2 65//2 80//2
f  54//2 81//2 66//2
f  67//2 68//2 55//2
f  55//2 68//2 56//2
f  79//2 57//2 69//2
f  83//2 47//2 70//2
f  70//2 57//2 84//2
f  71//2 47//2 86//2
f  60//2 72//2 61//2
f  61//2 85//2 73//2
f  36//2 74//2 75//2
f  44//2 78//2 92//2
f  93//2 79//2 44//2
f  65//2 79//2 94//2
f  54//2 80//2 96//2
f  54//2 97//2 81//2
f  66//2 81//2 98//2
f  66//2 99//2 67//2
f  100//2 68//2 67//2
f  101//2 82//2 68//2
f  102//2 69//2 82//2
f  103//2 57//2 79//2
f  79//2 69//2 104//2
f  105//2 47//2 83//2
f  84//2 57//2 107//2
f  86//2 47//2 105//2
f  61//2 72//2 85//2
f  73//2 85//2 87//2
f  73//2 87//2 88//2
f  90//2 108//2 76//2
f  76//2 111//2 77//2
f  77//2 112//2 91//2
f  44//2 92//2 114//2
f  103//2 79//2 93//2
f  44//2 114//2 93//2
f  65//2 94//2 115//2
f  54//2 96//2 117//2
f  54//2 117//2 97//2
f  66//2 98//2 120//2
f  66//2 121//2 99//2
f  67//2 99//2 100//2
f  122//2 68//2 100//2
f  123//2 82//2 101//2
f  101//2 68//2 124//2
f  125//2 69//2 102//2
f  102//2 82//2 126//2
f  103//2 127//2 57//2
f  104//2 69//2 128//2
f  107//2 57//2 129//2
f  88//2 87//2 109//2
f  88//2 109//2 110//2
f  110//2 130//2 89//2
f  89//2 106//2 90//2
f  90//2 106//2 108//2
f  76//2 108//2 111//2
f  77//2 111//2 112//2
f  91//2 112//2 131//2
f  91//2 131//2 113//2
f  133//2 115//2 94//2
f  115//2 133//2 95//2
f  95//2 133//2 116//2
f  66//2 120//2 137//2
f  66//2 138//2 121//2
f  141//2 68//2 122//2
f  142//2 82//2 123//2
f  124//2 68//2 141//2
f  144//2 69//2 125//2
f  126//2 82//2 146//2
f  132//2 127//2 103//2
f  148//2 57//2 127//2
f  128//2 69//2 144//2
f  129//2 57//2 149//2
f  110//2 109//2 130//2
f  89//2 130//2 106//2
f  113//2 131//2 150//2
f  113//2 150//2 132//2
f  116//2 133//2 151//2
f  116//2 151//2 134//2
f  135//2 145//2 118//2
f  118//2 147//2 119//2
f  119//2 152//2 136//2
f  66//2 137//2 138//2
f  140//2 141//2 122//2
f  154//2 82//2 142//2
f  146//2 82//2 154//2
f  132//2 150//2 127//2
f  149//2 57//2 148//2
f  134//2 151//2 156//2
f  134//2 156//2 135//2
f  135//2 156//2 145//2
f  118//2 145//2 147//2
f  119//2 147//2 157//2
f  119//2 157//2 152//2
f  136//2 152//2 158//2
f  153//2 155//2 139//2
f  139//2 143//2 140//2
f  140//2 143//2 141//2
f  139//2 155//2 143//2
f  136//2 158//2 159//2
f  159//2 160//2 153//2
f  153//2 160//2 155//2
f  159//2 158//2 160//2

# Mesh 'mesh1_mesh1-geometry' with 24 faces
g mesh1_mesh1-geometry
usemtl material_5_24
f  59//2 42//2 50//2
f  42//2 59//2 72//2
f  85//2 59//2 58//2
f  87//2 58//2 71//2
f  72//2 59//2 85//2
f  106//2 83//2 70//2
f  108//2 70//2 84//2
f  85//2 58//2 87//2
f  109//2 71//2 86//2
f  87//2 71//2 109//2
f  106//2 105//2 83//2
f  106//2 70//2 108//2
f  111//2 84//2 107//2
f  108//2 84//2 111//2
f  130//2 86//2 105//2
f  109//2 86//2 130//2
f  130//2 105//2 106//2
f  112//2 107//2 129//2
f  111//2 107//2 112//2
f  112//2 129//2 131//2
f  150//2 148//2 127//2
f  131//2 129//2 149//2
f  131//2 149//2 150//2
f  150//2 149//2 148//2

# Mesh 'mesh1_mesh1-geometry' with 24 faces
g mesh1_mesh1-geometry
usemtl material_7_24
f  51//2 61//2 43//2
f  43//2 61//2 52//2
f  61//2 51//2 60//2
f  52//2 61//2 73//2
f  52//2 73//2 62//2
f  63//2 76//2 53//2
f  53//2 77//2 64//2
f  62//2 73//2 88//2
f  62//2 88//2 74//2
f  75//2 89//2 63//2
f  63//2 90//2 76//2
f  53//2 76//2 77//2
f  64//2 77//2 91//2
f  64//2 91//2 78//2
f  74//2 88//2 110//2
f  74//2 110//2 75//2
f  75//2 110//2 89//2
f  63//2 89//2 90//2
f  78//2 91//2 113//2
f  78//2 113//2 92//2
f  92//2 113//2 132//2
f  92//2 132//2 114//2
f  114//2 103//2 93//2
f  114//2 132//2 103//2

# Mesh 'mesh1_mesh1-geometry' with 24 faces
g mesh1_mesh1-geometry
usemtl material_6_24
f  65//2 95//2 80//2
f  95//2 65//2 115//2
f  80//2 95//2 116//2
f  80//2 116//2 96//2
f  97//2 118//2 81//2
f  81//2 119//2 98//2
f  96//2 116//2 134//2
f  96//2 134//2 117//2
f  117//2 135//2 97//2
f  97//2 135//2 118//2
f  81//2 118//2 119//2
f  98//2 119//2 136//2
f  98//2 136//2 120//2
f  121//2 139//2 99//2
f  99//2 140//2 100//2
f  100//2 140//2 122//2
f  117//2 134//2 135//2
f  120//2 136//2 137//2
f  138//2 153//2 121//2
f  121//2 153//2 139//2
f  99//2 139//2 140//2
f  137//2 136//2 159//2
f  137//2 159//2 138//2
f  138//2 159//2 153//2

# Mesh 'mesh1_mesh1-geometry' with 24 faces
g mesh1_mesh1-geometry
usemtl material_4_24
f  104//2 94//2 79//2
f  94//2 104//2 133//2
f  143//2 123//2 101//2
f  141//2 101//2 124//2
f  145//2 125//2 102//2
f  147//2 102//2 126//2
f  133//2 104//2 128//2
f  155//2 142//2 123//2
f  155//2 123//2 143//2
f  143//2 101//2 141//2
f  156//2 144//2 125//2
f  156//2 125//2 145//2
f  145//2 102//2 147//2
f  157//2 126//2 146//2
f  147//2 126//2 157//2
f  151//2 128//2 144//2
f  133//2 128//2 151//2
f  160//2 154//2 142//2
f  160//2 142//2 155//2
f  151//2 144//2 156//2
f  158//2 146//2 154//2
f  157//2 146//2 152//2
f  152//2 146//2 158//2
f  158//2 154//2 160//2

# Mesh 'mesh2_mesh2-geometry' with 8 faces
g mesh2_mesh2-geometry
usemtl material_0_0
l  27 1
l  21 27
l  1 3
l  21 13
l  3 2
l  13 7
l  2 4
l  4 7

