# File produced by Open Asset Import Library (http://www.assimp.sf.net)
# (assimp v3.2.202087883)

mtllib model_normalized.mtl

# 105 vertex positions
v 0.295737 -0.207836 0.181094
v 0.431432 -0.207836 -0.194616
v 0.431432 -0.207836 0.181094
v 0.390154 -0.207836 -0.194616
v 0.431432 -0.056238 0.105636
v 0.431432 0.145973 0.181094
v -0.386175 -0.207836 -0.194616
v 0.390154 -0.065728 -0.194616
v 0.431432 -0.056238 -0.194616
v -0.425109 -0.207836 0.181094
v -0.386175 -0.065728 -0.194616
v 0.431432 0.047666 0.105636
v -0.425109 0.145973 0.181094
v -0.425109 -0.207836 -0.194616
v -0.425109 -0.052386 -0.194616
v 0.390154 -0.051089 -0.194616
v -0.386175 -0.051089 -0.194616
v 0.431432 0.047666 -0.194616
v 0.431432 0.145973 0.105636
v 0.390154 0.145973 0.105636
v -0.425109 0.145973 0.105636
v -0.386175 -0.065728 0.105636
v 0.390154 0.047666 -0.194616
v 0.001991 0.145973 0.105636
v -0.425109 0.056830 0.105636
v -0.386175 0.145973 0.105636
v -0.425109 -0.052386 0.105636
v -0.425109 0.056830 -0.194616
v 0.001991 -0.051089 -0.194616
v -0.386175 -0.051089 0.105636
v 0.390154 0.047666 0.105636
v 0.357867 0.145973 0.103107
v -0.425109 -0.040421 0.105636
v -0.386175 0.056830 -0.194616
v 0.001991 -0.051089 0.105636
v 0.034330 -0.050197 -0.194616
v 0.390154 -0.051089 0.105636
v -0.353851 -0.049540 -0.194616
v 0.196073 -0.048169 0.105636
v 0.325547 0.145973 0.101041
v -0.386175 0.056830 0.105636
v -0.030297 0.145973 0.103107
v -0.030337 -0.049540 0.105636
v 0.034330 -0.050197 0.105636
v 0.357814 -0.050197 -0.194616
v -0.353851 -0.049540 0.105636
v 0.357814 -0.050197 0.105636
v 0.163718 -0.048250 0.105636
v 0.228425 -0.048250 0.105636
v 0.293201 0.145973 0.099431
v -0.192092 -0.046021 0.105636
v -0.062618 0.145973 0.101041
v -0.030337 -0.049540 -0.194616
v 0.066673 -0.049466 -0.194616
v 0.066673 -0.049466 0.105636
v -0.321514 -0.048273 -0.194616
v 0.325471 -0.049466 0.105636
v 0.131370 -0.048493 0.105636
v 0.163718 -0.048250 -0.194616
v 0.260774 -0.048493 0.105636
v 0.196073 -0.048169 -0.194616
v 0.260835 0.145973 0.098282
v -0.159731 -0.046162 0.105636
v -0.224453 -0.046162 0.105636
v -0.094963 0.145973 0.099431
v -0.062673 -0.048273 0.105636
v 0.325471 -0.049466 -0.194616
v -0.321514 -0.048273 0.105636
v 0.293124 -0.048899 0.105636
v 0.099018 -0.048899 0.105636
v 0.131370 -0.048493 -0.194616
v 0.228425 -0.048250 -0.194616
v 0.228456 0.145973 0.097592
v -0.127373 -0.046584 0.105636
v -0.159731 -0.046162 -0.194616
v -0.256814 -0.046584 0.105636
v -0.192092 -0.046021 -0.194616
v -0.127331 0.145973 0.098282
v -0.062673 -0.048273 -0.194616
v -0.095019 -0.047288 0.105636
v 0.099018 -0.048899 -0.194616
v -0.289166 -0.047288 0.105636
v -0.289166 -0.047288 -0.194616
v 0.293124 -0.048899 -0.194616
v 0.260774 -0.048493 -0.194616
v 0.196073 0.145973 0.097362
v -0.127373 -0.046584 -0.194616
v -0.224453 -0.046162 -0.194616
v -0.159707 0.145973 0.097592
v 0.163688 0.145973 0.097592
v -0.095019 -0.047288 -0.194616
v -0.256814 -0.046584 -0.194616
v -0.192092 0.145973 0.097362
v 0.131309 0.145973 0.098282
v -0.224478 0.145973 0.097592
v 0.098941 0.145973 0.099431
v -0.256857 0.145973 0.098282
v 0.066596 0.145973 0.101041
v -0.289221 0.145973 0.099431
v 0.034278 0.145973 0.103107
v -0.321570 0.145973 0.101041
v -0.353888 0.145973 0.103107
v -0.386175 -0.040421 0.105636
v 0.295634 -0.207836 0.177584
v 0.390372 -0.065728 -0.194616

# 0 UV coordinates

# 54 vertex normals
vn 0 -0.0254 0
vn 0 0.0254 0
vn -0.0254 0 0
vn 0 -0 -0.0254
vn 0 0 0.0254
vn 0.0254 0 0
vn -0.00121524 0.0253709 0
vn -0.00110482 0.025376 0
vn 0.00121524 0.0253709 0
vn 0.00110482 0.025376 0
vn -0.000636804 0.025392 0
vn -0.000700456 0.0253904 0
vn 0.000700456 -0.0253904 0
vn 0.000636804 -0.025392 0
vn 0.000636804 0.025392 0
vn 0.000700456 0.0253904 0
vn -0.000700456 -0.0253904 0
vn -0.000636804 -0.025392 0
vn -0.000509473 0.0253949 0
vn 0.000509473 -0.0253949 -0
vn -0.000883971 0.0253846 0
vn -0.000127381 0.0253997 0
vn 0.000127381 -0.0253997 -0
vn 0.000127381 0.0253997 0
vn -0.000127381 -0.0253997 0
vn 0.000883971 0.0253846 0
vn 0.000509473 0.0253949 0
vn -0.000509473 -0.0253949 0
vn -0.000254737 0.0253987 0
vn 0.000254737 -0.0253987 -0
vn 0.000254737 0.0253987 0
vn -0.000254737 -0.0253987 0
vn 0.000221031 0.025399 0
vn -0.000221031 0.025399 0
vn -0.000382118 0.0253971 0
vn 0.000382118 -0.0253971 -0
vn -0.000663042 0.0253913 0
vn 0.000382118 0.0253971 0
vn -0.000382118 -0.0253971 0
vn 0.000442036 0.0253962 0
vn -0.000442036 0.0253962 0
vn 0.000663042 0.0253913 0
vn 0.00110482 -0.025376 -0
vn 0.00121524 -0.0253709 -0
vn -0.00110482 -0.025376 0
vn -0.00121524 -0.0253709 0
vn 0.000883971 -0.0253846 0
vn -0.000883971 -0.0253846 0
vn -0.000221031 -0.025399 0
vn 0.000221031 -0.025399 0
vn 0.000663042 -0.0253913 0
vn -0.000442036 -0.0253962 0
vn 0.000442036 -0.0253962 0
vn -0.000663042 -0.0253913 0

# Mesh 'mesh1_mesh1-geometry' with 266 faces
g mesh1_mesh1-geometry
usemtl material_0_24
f  1//1 2//1 3//1
f  2//1 1//1 4//1
f  3//2 2//2 1//2
f  4//2 1//2 2//2
f  3//3 5//3 2//3
f  3//4 1//4 6//4
f  4//1 1//1 7//1
f  7//2 1//2 4//2
f  4//5 2//5 8//5
f  9//3 2//3 5//3
f  6//3 5//3 3//3
f  10//4 6//4 1//4
f  7//1 1//1 10//1
f  10//2 1//2 7//2
f  7//5 4//5 11//5
f  9//5 8//5 2//5
f  8//5 11//5 4//5
f  9//6 12//6 5//6
f  5//3 12//3 9//3
f  5//3 6//3 12//3
f  13//4 6//4 10//4
f  7//1 10//1 14//1
f  14//2 10//2 7//2
f  11//5 15//5 7//5
f  16//5 8//5 9//5
f  17//5 11//5 8//5
f  12//6 9//6 18//6
f  18//3 9//3 12//3
f  19//3 12//3 6//3
f  13//1 20//1 6//1
f  13//6 10//6 21//6
f  14//6 15//6 10//6
f  14//5 7//5 15//5
f  17//5 15//5 11//5
f  16//5 17//5 8//5
f  18//5 16//5 9//5
f  11//6 17//6 22//6
f  23//2 12//2 18//2
f  18//1 12//1 23//1
f  19//1 6//1 20//1
f  24//1 20//1 13//1
f  21//6 10//6 25//6
f  21//1 26//1 13//1
f  27//6 10//6 15//6
f  28//5 15//5 17//5
f  29//5 17//5 16//5
f  23//5 16//5 18//5
f  30//6 22//6 17//6
f  12//2 23//2 31//2
f  31//1 23//1 12//1
f  24//5 31//5 20//5
f  20//1 24//1 32//1
f  26//1 24//1 13//1
f  25//6 10//6 33//6
f  33//6 10//6 27//6
f  27//3 28//3 15//3
f  15//6 28//6 27//6
f  34//5 28//5 17//5
f  17//2 35//2 29//2
f  29//1 35//1 17//1
f  36//4 16//4 29//4
f  29//5 16//5 36//5
f  16//1 35//1 29//1
f  29//2 35//2 16//2
f  37//3 23//3 16//3
f  16//6 23//6 37//6
f  17//6 34//6 30//6
f  17//7 30//7 38//8
f  35//2 17//2 30//2
f  30//1 17//1 35//1
f  23//3 37//3 31//3
f  31//6 37//6 23//6
f  24//5 39//5 31//5
f  40//1 32//1 24//1
f  41//5 24//5 26//5
f  24//1 26//1 42//1
f  25//3 27//3 33//3
f  33//6 27//6 25//6
f  28//3 27//3 25//3
f  25//6 27//6 28//6
f  28//2 41//2 34//2
f  34//1 41//1 28//1
f  35//9 29//9 43//10
f  44//11 29//12 35//12
f  35//13 29//13 44//14
f  16//4 36//4 45//4
f  45//5 36//5 16//5
f  29//12 44//11 36//11
f  36//14 44//14 29//13
f  35//1 16//1 37//1
f  37//2 16//2 35//2
f  45//15 37//16 16//16
f  16//17 37//17 45//18
f  41//6 30//6 34//6
f  46//8 38//8 30//7
f  43//5 30//5 35//5
f  35//4 30//4 43//4
f  31//5 47//5 37//5
f  24//5 48//5 39//5
f  49//5 31//5 39//5
f  50//1 40//1 24//1
f  51//5 24//5 41//5
f  52//1 42//1 26//1
f  41//2 28//2 25//2
f  25//1 28//1 41//1
f  53//10 43//10 29//9
f  24//5 43//5 35//5
f  35//5 47//5 44//5
f  44//4 47//4 35//4
f  44//5 24//5 35//5
f  45//4 36//4 54//4
f  54//5 36//5 45//5
f  55//19 36//11 44//11
f  44//14 36//14 55//20
f  47//5 35//5 37//5
f  37//4 35//4 47//4
f  37//16 45//15 47//15
f  47//18 45//18 37//17
f  46//5 41//5 30//5
f  38//8 46//8 56//21
f  30//5 43//5 46//5
f  46//4 43//4 30//4
f  47//5 31//5 57//5
f  24//5 58//5 48//5
f  39//2 59//22 48//22
f  48//23 59//23 39//1
f  48//5 49//5 39//5
f  39//4 49//4 48//4
f  60//5 31//5 49//5
f  49//24 61//2 39//2
f  39//1 61//1 49//25
f  62//1 50//1 24//1
f  63//5 24//5 51//5
f  41//5 64//5 51//5
f  65//1 52//1 26//1
f  43//10 53//10 66//26
f  43//5 24//5 66//5
f  44//5 47//5 55//5
f  55//4 47//4 44//4
f  24//5 44//5 55//5
f  36//11 55//19 54//19
f  54//20 55//20 36//14
f  45//4 54//4 67//4
f  67//5 54//5 45//5
f  67//27 47//15 45//15
f  45//18 47//18 67//28
f  41//5 46//5 68//5
f  68//21 56//21 46//8
f  46//5 43//5 66//5
f  66//4 43//4 46//4
f  57//5 31//5 69//5
f  47//15 67//27 57//27
f  57//28 67//28 47//18
f  55//5 47//5 57//5
f  57//4 47//4 55//4
f  24//5 70//5 58//5
f  48//22 71//29 58//29
f  58//30 71//30 48//23
f  58//5 49//5 48//5
f  48//4 49//4 58//4
f  59//22 39//2 61//2
f  61//1 39//1 59//23
f  71//29 48//22 59//22
f  59//23 48//23 71//30
f  69//5 31//5 60//5
f  60//31 72//24 49//24
f  49//25 72//25 60//32
f  58//5 60//5 49//5
f  49//4 60//4 58//4
f  61//2 49//24 72//24
f  72//25 49//25 61//1
f  73//1 62//1 24//1
f  74//5 24//5 63//5
f  63//33 75//33 51//2
f  64//5 63//5 51//5
f  51//4 63//4 64//4
f  41//5 76//5 64//5
f  51//2 77//2 64//34
f  78//1 65//1 26//1
f  79//26 66//26 53//10
f  66//5 24//5 80//5
f  24//5 55//5 70//5
f  70//35 54//19 55//19
f  55//20 54//20 70//36
f  67//4 54//4 81//4
f  81//5 54//5 67//5
f  46//5 66//5 68//5
f  68//4 66//4 46//4
f  41//5 68//5 82//5
f  56//21 68//21 83//37
f  57//27 84//38 69//38
f  69//39 84//39 57//28
f  55//5 57//5 69//5
f  69//4 57//4 55//4
f  84//38 57//27 67//27
f  67//28 57//28 84//39
f  58//29 81//35 70//35
f  70//36 81//36 58//30
f  70//5 69//5 58//5
f  58//4 69//4 70//4
f  81//35 58//29 71//29
f  71//30 58//30 81//36
f  72//4 59//4 61//4
f  61//5 59//5 72//5
f  85//4 71//4 59//4
f  59//5 71//5 85//5
f  69//38 85//31 60//31
f  60//32 85//32 69//39
f  58//5 69//5 60//5
f  60//4 69//4 58//4
f  72//24 60//31 85//31
f  85//32 60//32 72//25
f  86//1 73//1 24//1
f  80//5 24//5 74//5
f  74//40 87//40 63//33
f  76//5 74//5 63//5
f  63//4 74//4 76//4
f  77//2 51//2 75//33
f  75//33 63//33 87//40
f  76//5 63//5 64//5
f  64//4 63//4 76//4
f  41//5 82//5 76//5
f  64//34 88//34 76//41
f  88//34 64//34 77//2
f  89//1 78//1 26//1
f  66//26 79//26 80//42
f  82//5 66//5 80//5
f  80//4 66//4 82//4
f  55//5 69//5 70//5
f  70//4 69//4 55//4
f  54//19 70//35 81//35
f  81//36 70//36 54//20
f  67//4 81//4 84//4
f  84//5 81//5 67//5
f  68//5 66//5 82//5
f  82//4 66//4 68//4
f  82//37 83//37 68//21
f  85//31 69//38 84//38
f  84//39 69//39 85//32
f  84//4 81//4 71//4
f  71//5 81//5 84//5
f  85//4 59//4 72//4
f  72//5 59//5 85//5
f  84//4 71//4 85//4
f  85//5 71//5 84//5
f  90//1 86//1 24//1
f  80//42 91//42 74//40
f  76//5 80//5 74//5
f  74//4 80//4 76//4
f  87//40 74//40 91//42
f  76//41 92//41 82//37
f  82//5 80//5 76//5
f  76//4 80//4 82//4
f  92//41 76//41 88//34
f  93//1 89//1 26//1
f  91//42 80//42 79//26
f  83//37 82//37 92//41
f  94//1 90//1 24//1
f  95//1 93//1 26//1
f  96//1 94//1 24//1
f  97//1 95//1 26//1
f  98//1 96//1 24//1
f  99//1 97//1 26//1
f  100//1 98//1 24//1
f  101//1 99//1 26//1
f  102//1 101//1 26//1

# Mesh 'mesh1_mesh1-geometry' with 38 faces
g mesh1_mesh1-geometry
usemtl material_1_24
f  2//6 5//6 3//6
f  6//5 1//5 3//5
f  8//4 2//4 4//4
f  5//6 2//6 9//6
f  3//6 5//6 6//6
f  1//5 6//5 10//5
f  11//4 4//4 7//4
f  2//4 8//4 9//4
f  4//4 11//4 8//4
f  12//6 6//6 5//6
f  10//5 6//5 13//5
f  7//4 15//4 11//4
f  9//4 8//4 16//4
f  8//4 11//4 17//4
f  6//6 12//6 19//6
f  6//2 20//2 13//2
f  21//3 10//3 13//3
f  10//3 15//3 14//3
f  15//4 7//4 14//4
f  11//4 15//4 17//4
f  8//4 17//4 16//4
f  9//4 16//4 18//4
f  12//4 31//4 19//4
f  20//2 6//2 19//2
f  13//2 20//2 24//2
f  25//3 10//3 21//3
f  13//2 26//2 21//2
f  15//3 10//3 27//3
f  17//4 15//4 28//4
f  16//4 17//4 29//4
f  18//4 16//4 23//4
f  20//4 19//4 31//4
f  13//2 24//2 26//2
f  33//3 10//3 25//3
f  21//4 26//4 25//4
f  27//3 10//3 33//3
f  17//4 28//4 34//4
f  41//4 25//4 26//4

# Mesh 'mesh1_mesh1-geometry' with 32 faces
g mesh1_mesh1-geometry
usemtl material_2_24
f  22//3 17//3 11//3
f  19//5 31//5 12//5
f  17//3 22//3 30//3
f  31//5 19//5 20//5
f  25//5 26//5 21//5
f  30//3 34//3 17//3
f  38//43 30//44 17//44
f  26//5 25//5 41//5
f  43//45 29//46 35//46
f  34//3 30//3 41//3
f  30//44 38//43 46//43
f  29//46 43//45 53//45
f  56//47 46//43 38//43
f  66//48 53//45 43//45
f  46//43 56//47 68//47
f  51//1 75//49 63//49
f  64//50 77//1 51//1
f  53//45 66//48 79//48
f  83//51 68//47 56//47
f  63//49 87//52 74//52
f  75//49 51//1 77//1
f  87//52 63//49 75//49
f  76//53 88//50 64//50
f  77//1 64//50 88//50
f  80//54 79//48 66//48
f  68//47 83//51 82//51
f  74//52 91//54 80//54
f  91//54 74//52 87//52
f  82//51 92//53 76//53
f  88//50 76//53 92//53
f  79//48 80//54 91//54
f  92//53 82//51 83//51

# Mesh 'mesh1_mesh1-geometry' with 50 faces
g mesh1_mesh1-geometry
usemtl material_3_24
f  20//4 31//4 24//4
f  32//2 24//2 20//2
f  31//4 39//4 24//4
f  24//2 32//2 40//2
f  26//4 24//4 41//4
f  42//2 26//2 24//2
f  37//4 47//4 31//4
f  39//4 48//4 24//4
f  39//4 31//4 49//4
f  24//2 40//2 50//2
f  41//4 24//4 51//4
f  26//2 42//2 52//2
f  35//4 43//4 24//4
f  35//4 24//4 44//4
f  30//4 41//4 46//4
f  57//4 31//4 47//4
f  48//4 58//4 24//4
f  49//4 31//4 60//4
f  24//2 50//2 62//2
f  51//4 24//4 63//4
f  51//4 64//4 41//4
f  26//2 52//2 65//2
f  66//4 24//4 43//4
f  55//4 44//4 24//4
f  68//4 46//4 41//4
f  69//4 31//4 57//4
f  58//4 70//4 24//4
f  60//4 31//4 69//4
f  24//2 62//2 73//2
f  63//4 24//4 74//4
f  64//4 76//4 41//4
f  26//2 65//2 78//2
f  80//4 24//4 66//4
f  70//4 55//4 24//4
f  82//4 68//4 41//4
f  24//2 73//2 86//2
f  74//4 24//4 80//4
f  76//4 82//4 41//4
f  26//2 78//2 89//2
f  24//2 86//2 90//2
f  26//2 89//2 93//2
f  24//2 90//2 94//2
f  26//2 93//2 95//2
f  24//2 94//2 96//2
f  26//2 95//2 97//2
f  24//2 96//2 98//2
f  26//2 97//2 99//2
f  24//2 98//2 100//2
f  26//2 99//2 101//2
f  26//2 101//2 102//2

# Mesh 'mesh2_mesh2-geometry' with 1 faces
g mesh2_mesh2-geometry
usemtl material_2_0
l  103 33

# Mesh 'mesh3_mesh3-geometry' with 1 faces
g mesh3_mesh3-geometry
usemtl material_2_0
l  104 1

# Mesh 'mesh4_mesh4-geometry' with 1 faces
g mesh4_mesh4-geometry
usemtl material_2_0
l  8 105

