# File produced by Open Asset Import Library (http://www.assimp.sf.net)
# (assimp v3.2.202087883)

mtllib model_normalized.mtl

# 56 vertex positions
v -0.436661 0.096450 0.255268
v -0.436661 0.048445 0.231265
v -0.436661 0.096450 0.231265
v -0.436661 0.048445 0.255268
v 0.307426 0.096450 0.231265
v -0.436661 0.048445 0.221331
v 0.331429 0.096450 0.255268
v -0.460664 0.048445 0.255268
v -0.436661 0.009440 0.231265
v -0.436661 -0.077570 0.255268
v 0.307426 0.009440 0.231265
v -0.436661 0.009440 0.213263
v -0.436661 0.048445 0.039242
v 0.331429 0.096450 -0.320800
v 0.331429 -0.077570 0.255268
v -0.460664 -0.077570 0.255268
v 0.307426 0.009440 0.213263
v 0.299739 0.009440 0.213263
v -0.460664 0.048445 0.039242
v 0.289424 0.009440 0.213263
v 0.307426 0.096450 -0.320800
v 0.307426 -0.077570 0.015239
v -0.436661 -0.077570 0.039242
v -0.460664 -0.077570 0.039242
v 0.307426 0.009440 0.015239
v -0.436661 0.009440 0.039242
v 0.103402 0.009440 0.027241
v 0.307426 0.009440 -0.320800
v 0.289424 0.009440 -0.320800
v 0.331429 -0.077570 -0.320800
v 0.106403 -0.077570 0.033242
v -0.436661 -0.077570 0.033242
v 0.307426 0.009440 -0.296797
v -0.436661 0.009440 0.027241
v -0.436661 -0.014563 0.039242
v 0.307426 -0.014563 -0.320800
v 0.290532 0.014798 0.213263
v 0.307426 -0.077570 -0.320800
v 0.106403 -0.077570 0.015239
v 0.307426 -0.077570 -0.296797
v -0.436661 -0.014563 0.027241
v -0.436661 -0.014563 0.033242
v 0.289424 0.009440 -0.329801
v 0.307426 0.009440 -0.329801
v 0.299739 0.059295 0.223577
v 0.106403 -0.014563 0.033242
v 0.106403 -0.014563 0.027241
v 0.103402 0.009440 -0.329801
v 0.103402 -0.014563 0.027241
v 0.106403 -0.077570 -0.320800
v 0.307426 -0.014563 -0.329801
v 0.299739 0.059295 0.231265
v 0.290532 0.014798 0.223577
v 0.103402 -0.014563 -0.329801
v 0.106403 -0.014563 -0.320800
v 0.106403 -0.014563 -0.329801

# 89 UV coordinates
vt 0 0 0
vt -7.93479 2.03 0
vt -7.93479 1.47 0
vt -8.04591 2.03 0
vt -8.04591 1.47 0
vt -7.88882 1.47 0
vt -7.59028 19.9957 0
vt -7.59028 20.2757 0
vt -4.14583 19.9957 0
vt 7.59028 2.03 0
vt 7.59028 1.47 0
vt 4.03472 2.03 0
vt -7.70139 20.2757 0
vt -7.59028 6.03914 0
vt -4.14583 6.03914 0
vt -7.59028 5.46728 0
vt -7.59028 19.8798 0
vt -4.03472 20.2757 0
vt 7.59028 0 0
vt 7.70139 1.47 0
vt -7.59028 5.00264 0
vt -7.59028 17.7557 0
vt -4.03472 13.5557 0
vt 4.03472 -0 0
vt 7.70139 0 0
vt -4.18142 5.00264 0
vt 7.88882 1.47 0
vt 7.85146 1.015 0
vt 7.04591 1.47 0
vt -7.70139 17.7557 0
vt -4.14583 13.5557 0
vt 8.04591 2.03 0
vt 8.04591 -0 0
vt 5.37924 2.03 0
vt -8.04591 0 0
vt -7.04591 0 0
vt -4.14583 5.00264 0
vt -4.22917 5.00264 0
vt 7.04591 1.015 0
vt -7.04591 1.47 0
vt -7.59028 1.47 0
vt -7.59028 1.015 0
vt -7.70139 1.47 0
vt -7.59028 19.7857 0
vt -4.22917 19.7857 0
vt -5.09028 17.6157 0
vt -4.14583 2.03 0
vt -4.03472 2.03 0
vt -4.14583 1.015 0
vt -5.37924 -0.128823 0
vt -5.37924 -1.16532 0
vt -7.93479 -0.128823 0
vt 5.37924 -0 0
vt -7.59028 17.6157 0
vt -7.59028 0.735 0
vt -7.70139 0 0
vt -4.22917 13.5557 0
vt -4.14583 0.735 0
vt -4.22917 1.015 0
vt -7.85146 -1.1015 0
vt -4.03472 -0 0
vt -4.14583 -0 0
vt -7.59028 0 0
vt -7.04591 0.735 0
vt -7.01813 0 0
vt -7.85146 -1.16532 0
vt -6.99035 1.015 0
vt -6.99035 0.735 0
vt -7.04591 1.015 0
vt -7.01813 0.735 0
vt -4.22917 13.4507 0
vt -5.09028 1.015 0
vt 5.37924 1.015 0
vt 5.37924 0.735 0
vt 5.33757 1.015 0
vt -4.14583 13.4507 0
vt -7.89921 -0.571427 0
vt -5.07639 0 0
vt -5.07639 0.735 0
vt -6.93479 0 0
vt -5.09028 13.4507 0
vt -5.09028 0.735 0
vt 5.33757 0.735 0
vt -7.93479 -0.571427 0
vt -7.89921 -1.1015 0
vt -5.37924 0 0
vt -5.33757 1.015 0
vt -5.33757 0.735 0
vt -5.37924 0.735 0

# 10 vertex normals
vn 0.0254 0 0
vn 0 0 0.0254
vn 0 -0 -0.0254
vn 0 -0.0254 0
vn 0 -0.00514619 0.0248732
vn -0.0254 0 0
vn 0 0.0254 0
vn 0.0248732 -0.00514619 0
vn 0 0.00514619 -0.0248732
vn -0.0248732 0.00514619 0

# Mesh 'mesh1_mesh1-geometry' with 151 faces
g mesh1_mesh1-geometry
usemtl material_0_24
f  1/1/1 2/1/1 3/1/1
f  2/1/1 1/1/1 4/1/1
f  2/1/2 5/1/2 3/1/2
f  3/1/3 5/1/3 2/1/3
f  2/1/1 6/1/1 3/1/1
f  5/1/4 1/1/4 3/1/4
f  7/1/3 4/1/3 1/1/3
f  8/1/4 2/1/4 4/1/4
f  9/1/2 5/1/2 2/1/2
f  2/1/3 5/1/3 9/1/3
f  6/1/5 5/1/5 3/1/5
f  2/1/4 8/1/4 6/1/4
f  6/1/6 9/1/6 2/1/6
f  2/1/1 9/1/1 6/1/1
f  5/1/4 7/1/4 1/1/4
f  7/1/3 10/1/3 4/1/3
f  10/1/3 8/1/3 4/1/3
f  5/1/2 9/1/2 11/1/2
f  11/1/3 9/1/3 5/1/3
f  12/1/5 5/1/5 6/1/5
f  6/1/4 8/1/4 13/1/4
f  9/1/6 6/1/6 12/1/6
f  12/1/1 6/1/1 9/1/1
f  7/1/4 5/1/4 14/1/4
f  10/1/3 7/1/3 15/1/3
f  8/1/3 10/1/3 16/1/3
f  9/1/4 17/1/4 11/1/4
f  11/1/7 17/1/7 9/1/7
f  11/1/1 17/1/1 5/1/1
f  5/1/6 17/1/6 11/1/6
f  18/1/5 5/1/5 12/1/5
f  13/1/6 12/1/6 6/1/6
f  13/1/4 8/1/4 19/1/4
f  20/1/4 9/1/4 12/1/4
f  12/1/7 9/1/7 20/1/7
f  21/1/4 14/1/4 5/1/4
f  14/1/6 15/1/6 7/1/6
f  22/1/4 15/1/4 10/1/4
f  10/1/7 15/1/7 22/1/7
f  16/1/4 23/1/4 10/1/4
f  10/1/7 23/1/7 16/1/7
f  24/1/1 8/1/1 16/1/1
f  17/1/4 9/1/4 18/1/4
f  18/1/7 9/1/7 17/1/7
f  5/1/5 18/1/5 17/1/5
f  25/1/1 5/1/1 17/1/1
f  17/1/6 5/1/6 25/1/6
f  12/1/5 20/1/5 18/1/5
f  12/1/6 13/1/6 26/1/6
f  8/1/1 24/1/1 19/1/1
f  19/1/2 26/1/2 13/1/2
f  18/1/4 9/1/4 20/1/4
f  20/1/7 9/1/7 18/1/7
f  27/1/4 20/1/4 12/1/4
f  28/1/2 14/1/2 21/1/2
f  5/1/1 28/1/1 21/1/1
f  21/1/6 28/1/6 5/1/6
f  5/1/8 29/1/8 21/1/8
f  15/1/6 14/1/6 30/1/6
f  15/1/4 22/1/4 30/1/4
f  30/1/7 22/1/7 15/1/7
f  22/1/4 10/1/4 31/1/4
f  31/1/7 10/1/7 22/1/7
f  23/1/4 16/1/4 24/1/4
f  24/1/7 16/1/7 23/1/7
f  32/1/4 10/1/4 23/1/4
f  23/1/7 10/1/7 32/1/7
f  18/1/4 25/1/4 17/1/4
f  17/1/7 25/1/7 18/1/7
f  33/1/1 5/1/1 25/1/1
f  25/1/6 5/1/6 33/1/6
f  29/1/4 18/1/4 20/1/4
f  20/1/7 18/1/7 29/1/7
f  34/1/4 12/1/4 26/1/4
f  24/1/2 35/1/2 19/1/2
f  19/1/2 35/1/2 26/1/2
f  20/1/4 27/1/4 29/1/4
f  27/1/4 12/1/4 34/1/4
f  36/1/2 14/1/2 28/1/2
f  21/1/2 29/1/2 28/1/2
f  28/1/1 5/1/1 33/1/1
f  33/1/6 5/1/6 28/1/6
f  29/1/8 5/1/8 37/1/8
f  14/1/2 38/1/2 30/1/2
f  22/1/4 38/1/4 30/1/4
f  30/1/7 38/1/7 22/1/7
f  31/1/4 10/1/4 32/1/4
f  32/1/7 10/1/7 31/1/7
f  39/1/4 22/1/4 31/1/4
f  31/1/7 22/1/7 39/1/7
f  35/1/2 24/1/2 23/1/2
f  32/1/1 35/1/1 23/1/1
f  25/1/4 18/1/4 33/1/4
f  33/1/7 18/1/7 25/1/7
f  25/1/1 40/1/1 33/1/1
f  33/1/6 40/1/6 25/1/6
f  28/1/4 18/1/4 29/1/4
f  29/1/7 18/1/7 28/1/7
f  20/1/8 29/1/8 37/1/8
f  26/1/1 41/1/1 34/1/1
f  42/1/1 26/1/1 35/1/1
f  29/1/4 27/1/4 43/1/4
f  41/1/2 27/1/2 34/1/2
f  38/1/2 14/1/2 36/1/2
f  44/1/6 36/1/6 28/1/6
f  29/1/4 44/1/4 28/1/4
f  33/1/4 18/1/4 28/1/4
f  28/1/7 18/1/7 33/1/7
f  37/1/8 5/1/8 45/1/8
f  38/1/4 22/1/4 40/1/4
f  40/1/7 22/1/7 38/1/7
f  46/1/2 32/1/2 31/1/2
f  39/1/1 47/1/1 31/1/1
f  35/1/1 32/1/1 42/1/1
f  40/1/1 25/1/1 22/1/1
f  22/1/6 25/1/6 40/1/6
f  41/1/1 26/1/1 42/1/1
f  48/1/4 43/1/4 27/1/4
f  44/1/4 29/1/4 43/1/4
f  27/1/2 41/1/2 49/1/2
f  38/1/2 36/1/2 50/1/2
f  36/1/6 44/1/6 51/1/6
f  45/1/8 5/1/8 52/1/8
f  53/1/8 37/1/8 45/1/8
f  32/1/2 46/1/2 42/1/2
f  31/1/1 47/1/1 46/1/1
f  50/1/1 47/1/1 39/1/1
f  42/1/7 49/1/7 41/1/7
f  41/1/4 49/1/4 42/1/4
f  48/1/2 44/1/2 43/1/2
f  27/1/1 54/1/1 48/1/1
f  54/1/1 27/1/1 49/1/1
f  55/1/2 50/1/2 36/1/2
f  44/1/2 56/1/2 51/1/2
f  56/1/7 36/1/7 51/1/7
f  51/1/4 36/1/4 56/1/4
f  46/1/7 49/1/7 42/1/7
f  42/1/4 49/1/4 46/1/4
f  49/1/7 46/1/7 47/1/7
f  47/1/4 46/1/4 49/1/4
f  47/1/1 50/1/1 55/1/1
f  54/1/2 44/1/2 48/1/2
f  47/1/7 54/1/7 49/1/7
f  49/1/4 54/1/4 47/1/4
f  36/1/7 56/1/7 55/1/7
f  55/1/4 56/1/4 36/1/4
f  56/1/2 44/1/2 54/1/2
f  55/1/7 54/1/7 47/1/7
f  47/1/4 54/1/4 55/1/4
f  54/1/7 55/1/7 56/1/7
f  56/1/4 55/1/4 54/1/4

# Mesh 'mesh1_mesh1-geometry' with 73 faces
g mesh1_mesh1-geometry
usemtl material_1_1_8
f  3/2/6 2/3/6 1/4/6
f  4/5/6 1/4/6 2/3/6
f  3/2/6 6/6/6 2/3/6
f  3/7/7 1/8/7 5/9/7
f  1/10/2 4/11/2 7/12/2
f  4/8/7 2/7/7 8/13/7
f  3/14/9 5/15/9 6/16/9
f  6/17/7 8/13/7 2/7/7
f  1/8/7 7/18/7 5/9/7
f  4/11/2 10/19/2 7/12/2
f  4/11/2 8/20/2 10/19/2
f  6/16/9 5/15/9 12/21/9
f  13/22/7 8/13/7 6/17/7
f  14/23/7 5/9/7 7/18/7
f  15/24/2 7/12/2 10/19/2
f  16/25/2 10/19/2 8/20/2
f  12/21/9 5/15/9 18/26/9
f  6/27/1 12/28/1 13/29/1
f  19/30/7 8/13/7 13/22/7
f  5/9/7 14/23/7 21/31/7
f  7/32/1 15/33/1 14/34/1
f  16/35/6 8/5/6 24/36/6
f  17/37/9 18/26/9 5/15/9
f  18/26/9 20/38/9 12/21/9
f  26/39/1 13/29/1 12/28/1
f  19/40/6 24/36/6 8/5/6
f  13/41/3 26/42/3 19/43/3
f  12/44/7 20/45/7 27/46/7
f  21/47/3 14/48/3 28/49/3
f  21/50/10 29/51/10 5/52/10
f  30/53/1 14/34/1 15/33/1
f  26/22/7 12/44/7 34/54/7
f  19/43/3 35/55/3 24/56/3
f  26/42/3 35/55/3 19/43/3
f  29/57/7 27/46/7 20/45/7
f  34/54/7 12/44/7 27/46/7
f  28/49/3 14/48/3 36/58/3
f  28/49/3 29/59/3 21/47/3
f  37/60/10 5/52/10 29/51/10
f  30/61/3 38/62/3 14/48/3
f  23/63/3 24/56/3 35/55/3
f  23/36/6 35/64/6 32/65/6
f  37/60/10 29/51/10 20/66/10
f  34/67/6 41/68/6 26/69/6
f  35/64/6 26/69/6 42/70/6
f  43/71/7 27/46/7 29/57/7
f  34/42/3 27/72/3 41/55/3
f  36/58/3 14/48/3 38/62/3
f  28/73/1 36/74/1 44/75/1
f  28/31/7 44/76/7 29/57/7
f  45/77/10 5/52/10 37/60/10
f  31/78/3 32/63/3 46/79/3
f  31/65/6 47/68/6 39/80/6
f  42/70/6 32/65/6 35/64/6
f  42/70/6 26/69/6 41/68/6
f  27/46/7 43/71/7 48/81/7
f  43/71/7 29/57/7 44/76/7
f  49/82/3 41/55/3 27/72/3
f  50/78/3 36/58/3 38/62/3
f  51/83/1 44/75/1 36/74/1
f  52/84/10 5/52/10 45/77/10
f  45/77/10 37/60/10 53/85/10
f  42/55/3 46/79/3 32/63/3
f  46/70/6 47/68/6 31/65/6
f  39/80/6 47/68/6 50/86/6
f  43/59/3 44/49/3 48/72/3
f  48/87/6 54/88/6 27/67/6
f  49/68/6 27/67/6 54/88/6
f  36/58/3 50/78/3 55/79/3
f  51/58/3 56/79/3 44/49/3
f  55/89/6 50/86/6 47/68/6
f  48/72/3 44/49/3 54/82/3
f  54/82/3 44/49/3 56/79/3

# Mesh 'mesh2_mesh2-geometry' with 3 faces
g mesh2_mesh2-geometry
usemtl material_0_0
l  31 39
l  32 31
l  23 32

# Mesh 'mesh3_mesh3-geometry' with 8 faces
g mesh3_mesh3-geometry
usemtl material_0_0
l  9 2
l  9 12
l  9 11
l  11 5
l  17 11
l  25 17
l  33 25
l  28 33

# Mesh 'mesh4_mesh4-geometry' with 1 faces
g mesh4_mesh4-geometry
usemtl material_0_0
l  40 22

# Mesh 'mesh5_mesh5-geometry' with 1 faces
g mesh5_mesh5-geometry
usemtl material_0_0
l  18 45

# Mesh 'mesh6_mesh6-geometry' with 1 faces
g mesh6_mesh6-geometry
usemtl material_0_0
l  47 49

# Mesh 'mesh7_mesh7-geometry' with 1 faces
g mesh7_mesh7-geometry
usemtl material_0_0
l  42 46

# Mesh 'mesh8_mesh8-geometry' with 2 faces
g mesh8_mesh8-geometry
usemtl material_0_0
l  56 54
l  55 56

# Mesh 'mesh9_mesh9-geometry' with 1 faces
g mesh9_mesh9-geometry
usemtl material_0_0
l  36 51

