# File produced by Open Asset Import Library (http://www.assimp.sf.net)
# (assimp v3.2.202087883)

mtllib model_normalized.mtl

# 48 vertex positions
v 0.326808 0.129664 -0.020748
v 0.347866 -0.050289 -0.024105
v 0.349065 0.041088 -0.024296
v 0.323292 -0.138238 -0.020188
v 0.339318 0.041088 -0.085439
v 0.317061 0.129664 -0.081891
v 0.282612 0.209404 -0.013703
v 0.338119 -0.050289 -0.085248
v 0.272865 0.209404 -0.074846
v 0.277019 -0.216766 -0.012811
v 0.313546 -0.138238 -0.081331
v 0.209742 0.274876 -0.064783
v 0.219488 0.274876 -0.003640
v 0.267272 -0.216766 -0.073954
v 0.212200 -0.280523 -0.002478
v 0.141739 0.321610 0.008754
v 0.202452 -0.280523 -0.063622
v 0.131992 0.321610 -0.052389
v 0.133251 -0.325162 0.010107
v 0.123504 -0.325162 -0.051036
v 0.054660 0.346432 0.022635
v 0.044915 0.346432 -0.038509
v 0.045552 -0.347642 0.024087
v 0.035807 -0.347642 -0.037057
v -0.035804 0.347639 0.037056
v -0.045556 0.347639 -0.024087
v -0.044918 -0.346431 0.038508
v -0.054664 -0.346431 -0.022635
v -0.123501 0.325164 0.051036
v -0.133253 0.325164 -0.010107
v -0.131990 -0.321611 0.052390
v -0.141741 -0.321611 -0.008754
v -0.202449 0.280523 0.063622
v -0.212201 0.280523 0.002479
v -0.209743 -0.274874 0.064783
v -0.219488 -0.274874 0.003640
v -0.267274 0.216766 0.073954
v -0.277020 0.216766 0.012811
v -0.272865 -0.209405 0.074846
v -0.323289 0.138238 0.020188
v -0.282611 -0.209405 0.013703
v -0.313544 0.138238 0.081331
v -0.317061 -0.129664 0.081892
v -0.347863 0.050288 0.024105
v -0.326806 -0.129664 0.020748
v -0.338118 0.050288 0.085248
v -0.339319 -0.041088 0.085439
v -0.349065 -0.041088 0.024296

# 24 UV coordinates
vt 0.103647 0.669375 0
vt 0.077793 0.461199 0
vt 0.07632 0.566906 0
vt 0.107963 0.359456 0
vt 0.15791 0.76162 0
vt 0.164776 0.268612 0
vt 0.235411 0.837358 0
vt 0.24436 0.194856 0
vt 0.330869 0.891425 0
vt 0.341291 0.143216 0
vt 0.43778 0.920137 0
vt 0.448963 0.11721 0
vt 0.548856 0.921539 0
vt 0.560039 0.118611 0
vt 0.656528 0.895533 0
vt 0.666949 0.147324 0
vt 0.753459 0.843893 0
vt 0.762408 0.201391 0
vt 0.833042 0.770137 0
vt 0.839909 0.277128 0
vt 0.889856 0.679292 0
vt 0.894172 0.369374 0
vt 0.920026 0.57755 0
vt 0.921499 0.471842 0

# 26 vertex normals
vn 0.00399855 0 0.0250833
vn -0.00399855 0 -0.0250833
vn 0.0248219 -0.00365775 -0.00395687
vn 0.0249091 0.00298861 -0.00397077
vn -0.0249091 -0.00298861 0.00397077
vn -0.0248219 0.00365775 0.00395687
vn 0.0232912 0.00942845 -0.00371286
vn -0.0232912 -0.00942845 0.00371286
vn 0.0230357 -0.0100514 -0.00367214
vn -0.0230357 0.0100514 0.00367214
vn 0.0200827 0.0152183 -0.00320139
vn -0.0200827 -0.0152183 0.00320139
vn 0.0155084 0.0199634 -0.0024722
vn -0.0155084 -0.0199634 0.0024722
vn 0.019677 -0.0157524 -0.00313672
vn -0.019677 0.0157524 0.00313672
vn 0.00988452 0.0233447 -0.0015757
vn -0.00988452 -0.0233447 0.0015757
vn 0.0149807 -0.0203724 -0.00238808
vn -0.0149807 0.0203724 0.00238808
vn 0.00927106 -0.0236013 -0.00147791
vn -0.00927106 0.0236013 0.00147791
vn 0.00359461 0.0251378 -0.00057302
vn -0.00359461 -0.0251378 0.00057302
vn 0.00293693 -0.0252253 -0.000468178
vn -0.00293693 0.0252253 0.000468178

# Mesh 'mesh1_mesh1-geometry' with 184 faces
g mesh1_mesh1-geometry
usemtl material_0_1_8
f  1/1/1 2/2/1 3/3/1
f  2/2/1 1/1/1 4/4/1
f  3/3/2 2/2/2 1/1/2
f  4/4/2 1/1/2 2/2/2
f  2/2/3 5/3/4 3/3/4
f  3/3/5 5/3/5 2/2/6
f  3/3/4 6/1/7 1/1/7
f  1/1/8 6/1/8 3/3/5
f  4/4/1 1/1/1 7/5/1
f  7/5/2 1/1/2 4/4/2
f  4/4/9 8/2/3 2/2/3
f  2/2/6 8/2/6 4/4/10
f  5/3/4 2/2/3 8/2/3
f  8/2/6 2/2/6 5/3/5
f  6/1/7 3/3/4 5/3/4
f  5/3/5 3/3/5 6/1/8
f  9/5/11 1/1/7 6/1/7
f  6/1/8 1/1/8 9/5/12
f  1/1/7 9/5/11 7/5/11
f  7/5/12 9/5/12 1/1/8
f  4/4/1 7/5/1 10/6/1
f  10/6/2 7/5/2 4/4/2
f  8/2/3 4/4/9 11/4/9
f  11/4/10 4/4/10 8/2/6
f  8/2/2 6/1/2 5/3/2
f  5/3/1 6/1/1 8/2/1
f  6/1/2 11/4/2 9/5/2
f  9/5/1 11/4/1 6/1/1
f  12/7/13 7/5/11 9/5/11
f  9/5/12 7/5/12 12/7/14
f  10/6/1 7/5/1 13/7/1
f  13/7/2 7/5/2 10/6/2
f  10/6/15 11/4/9 4/4/9
f  4/4/10 11/4/10 10/6/16
f  6/1/2 8/2/2 11/4/2
f  11/4/1 8/2/1 6/1/1
f  9/5/2 11/4/2 14/6/2
f  14/6/1 11/4/1 9/5/1
f  7/5/11 12/7/13 13/7/13
f  13/7/14 12/7/14 7/5/12
f  9/5/2 14/6/2 12/7/2
f  12/7/1 14/6/1 9/5/1
f  10/6/1 13/7/1 15/8/1
f  15/8/2 13/7/2 10/6/2
f  11/4/9 10/6/15 14/6/15
f  14/6/16 10/6/16 11/4/10
f  12/7/13 16/9/17 13/7/13
f  13/7/14 16/9/18 12/7/14
f  12/7/2 14/6/2 17/8/2
f  17/8/1 14/6/1 12/7/1
f  15/8/1 13/7/1 16/9/1
f  16/9/2 13/7/2 15/8/2
f  17/8/19 10/6/15 15/8/19
f  15/8/20 10/6/16 17/8/20
f  10/6/15 17/8/19 14/6/15
f  14/6/16 17/8/20 10/6/16
f  16/9/17 12/7/13 18/9/17
f  18/9/18 12/7/14 16/9/18
f  12/7/2 17/8/2 18/9/2
f  18/9/1 17/8/1 12/7/1
f  15/8/1 16/9/1 19/10/1
f  19/10/2 16/9/2 15/8/2
f  15/8/19 20/10/21 17/8/19
f  17/8/20 20/10/22 15/8/20
f  18/9/17 21/11/23 16/9/17
f  16/9/18 21/11/24 18/9/18
f  18/9/2 17/8/2 20/10/2
f  20/10/1 17/8/1 18/9/1
f  19/10/1 16/9/1 21/11/1
f  21/11/2 16/9/2 19/10/2
f  20/10/21 15/8/19 19/10/21
f  19/10/22 15/8/20 20/10/22
f  21/11/23 18/9/17 22/11/23
f  22/11/24 18/9/18 21/11/24
f  18/9/2 20/10/2 22/11/2
f  22/11/1 20/10/1 18/9/1
f  19/10/1 21/11/1 23/12/1
f  23/12/2 21/11/2 19/10/2
f  19/10/21 24/12/25 20/10/21
f  20/10/22 24/12/26 19/10/22
f  22/11/23 25/13/26 21/11/23
f  21/11/24 25/13/25 22/11/24
f  22/11/2 20/10/2 24/12/2
f  24/12/1 20/10/1 22/11/1
f  23/12/1 21/11/1 25/13/1
f  25/13/2 21/11/2 23/12/2
f  24/12/25 19/10/21 23/12/25
f  23/12/26 19/10/22 24/12/26
f  25/13/26 22/11/23 26/13/26
f  26/13/25 22/11/24 25/13/25
f  22/11/2 24/12/2 26/13/2
f  26/13/1 24/12/1 22/11/1
f  23/12/1 25/13/1 27/14/1
f  27/14/2 25/13/2 23/12/2
f  23/12/25 28/14/24 24/12/25
f  24/12/26 28/14/23 23/12/26
f  26/13/26 29/15/22 25/13/26
f  25/13/25 29/15/21 26/13/25
f  26/13/2 24/12/2 28/14/2
f  28/14/1 24/12/1 26/13/1
f  27/14/1 25/13/1 29/15/1
f  29/15/2 25/13/2 27/14/2
f  28/14/24 23/12/25 27/14/24
f  27/14/23 23/12/26 28/14/23
f  29/15/22 26/13/26 30/15/22
f  30/15/21 26/13/25 29/15/21
f  26/13/2 28/14/2 30/15/2
f  30/15/1 28/14/1 26/13/1
f  27/14/1 29/15/1 31/16/1
f  31/16/2 29/15/2 27/14/2
f  27/14/24 32/16/18 28/14/24
f  28/14/23 32/16/17 27/14/23
f  30/15/22 33/17/20 29/15/22
f  29/15/21 33/17/19 30/15/21
f  30/15/2 28/14/2 32/16/2
f  32/16/1 28/14/1 30/15/1
f  31/16/1 29/15/1 33/17/1
f  33/17/2 29/15/2 31/16/2
f  32/16/18 27/14/24 31/16/18
f  31/16/17 27/14/23 32/16/17
f  33/17/20 30/15/22 34/17/20
f  34/17/19 30/15/21 33/17/19
f  30/15/2 32/16/2 34/17/2
f  34/17/1 32/16/1 30/15/1
f  31/16/1 33/17/1 35/18/1
f  35/18/2 33/17/2 31/16/2
f  31/16/18 36/18/14 32/16/18
f  32/16/17 36/18/13 31/16/17
f  34/17/20 37/19/16 33/17/20
f  33/17/19 37/19/15 34/17/19
f  34/17/2 32/16/2 36/18/2
f  36/18/1 32/16/1 34/17/1
f  35/18/1 33/17/1 37/19/1
f  37/19/2 33/17/2 35/18/2
f  36/18/14 31/16/18 35/18/14
f  35/18/13 31/16/17 36/18/13
f  37/19/16 34/17/20 38/19/16
f  38/19/15 34/17/19 37/19/15
f  34/17/2 36/18/2 38/19/2
f  38/19/1 36/18/1 34/17/1
f  35/18/1 37/19/1 39/20/1
f  39/20/2 37/19/2 35/18/2
f  39/20/12 36/18/14 35/18/14
f  35/18/13 36/18/13 39/20/11
f  40/21/10 37/19/16 38/19/16
f  38/19/15 37/19/15 40/21/9
f  38/19/2 36/18/2 41/20/2
f  41/20/1 36/18/1 38/19/1
f  39/20/1 37/19/1 42/21/1
f  42/21/2 37/19/2 39/20/2
f  36/18/14 39/20/12 41/20/12
f  41/20/11 39/20/11 36/18/13
f  37/19/16 40/21/10 42/21/10
f  42/21/9 40/21/9 37/19/15
f  38/19/2 41/20/2 40/21/2
f  40/21/1 41/20/1 38/19/1
f  39/20/1 42/21/1 43/22/1
f  43/22/2 42/21/2 39/20/2
f  43/22/8 41/20/12 39/20/12
f  39/20/11 41/20/11 43/22/7
f  44/23/6 42/21/10 40/21/10
f  40/21/9 42/21/9 44/23/3
f  40/21/2 41/20/2 45/22/2
f  45/22/1 41/20/1 40/21/1
f  43/22/1 42/21/1 46/23/1
f  46/23/2 42/21/2 43/22/2
f  41/20/12 43/22/8 45/22/8
f  45/22/7 43/22/7 41/20/11
f  42/21/10 44/23/6 46/23/6
f  46/23/3 44/23/3 42/21/9
f  40/21/2 45/22/2 44/23/2
f  44/23/1 45/22/1 40/21/1
f  43/22/1 46/23/1 47/24/1
f  47/24/2 46/23/2 43/22/2
f  47/24/5 45/22/8 43/22/8
f  43/22/7 45/22/7 47/24/4
f  48/24/5 46/23/6 44/23/6
f  44/23/3 46/23/3 48/24/4
f  44/23/2 45/22/2 48/24/2
f  48/24/1 45/22/1 44/23/1
f  46/23/6 48/24/5 47/24/5
f  47/24/4 48/24/4 46/23/3
f  45/22/8 47/24/5 48/24/5
f  48/24/4 47/24/4 45/22/7

