# File produced by Open Asset Import Library (http://www.assimp.sf.net)
# (assimp v3.2.202087883)

mtllib model_normalized.mtl

# 81 vertex positions
v -0.423594 -0.328119 -0.048184
v -0.396193 -0.300719 -0.048184
v 0.434548 -0.328119 -0.048184
v -0.423594 0.171163 -0.048184
v 0.407150 -0.300719 -0.048184
v 0.434548 -0.328119 -0.053384
v -0.423594 0.171163 -0.053384
v -0.396193 0.143763 -0.048184
v 0.434548 0.171163 -0.048184
v -0.396193 -0.300719 -0.053384
v -0.423594 -0.328119 -0.053384
v 0.407150 0.143763 -0.048184
v 0.407150 -0.300719 -0.053384
v 0.434548 0.171163 -0.053384
v 0.407150 0.143763 -0.053384
v -0.396193 0.143763 -0.053384
v -0.423594 -0.328119 -0.016978
v 0.434548 -0.328119 -0.016978
v -0.423594 0.171163 -0.016978
v 0.434548 0.171163 -0.016978
v 0.407150 -0.300719 -0.016978
v -0.396193 -0.300719 -0.016978
v -0.396605 0.171163 -0.016978
v 0.407150 0.143763 -0.042983
v 0.404326 0.171163 -0.016978
v 0.407150 -0.300719 -0.042983
v -0.396193 -0.300719 -0.042983
v -0.396605 0.143763 -0.016978
v -0.330044 0.171163 -0.010626
v -0.396193 0.143763 -0.042983
v 0.337766 0.171163 -0.010626
v 0.407150 0.143763 -0.016978
v -0.396193 -0.300719 0.019428
v -0.396193 0.143763 -0.016978
v -0.396193 0.143763 -0.016939
v -0.263383 0.171163 -0.005426
v 0.404326 0.143763 -0.016978
v 0.271106 0.171163 -0.005426
v 0.337766 0.143763 -0.010626
v 0.407150 0.143763 0.019428
v -0.330170 -0.300719 0.033685
v -0.396193 0.143763 0.019428
v -0.330044 0.143763 -0.010626
v -0.196642 0.171163 -0.001379
v 0.204364 0.171163 -0.001379
v 0.271106 0.143763 -0.005426
v 0.407150 -0.300719 0.019428
v -0.263645 -0.300719 0.045380
v -0.330170 0.143763 0.033685
v -0.263383 0.143763 -0.005426
v -0.129841 0.171163 0.001512
v 0.137564 0.171163 0.001512
v 0.204364 0.143763 -0.001379
v 0.341125 0.143763 0.033685
v 0.274601 0.143763 0.045380
v 0.341125 -0.300719 0.033685
v -0.196717 -0.300719 0.054494
v -0.263645 0.143763 0.045380
v -0.196642 0.143763 -0.001379
v -0.063000 0.171163 0.003247
v 0.070722 0.171163 0.003247
v 0.137564 0.143763 0.001512
v 0.207671 0.143763 0.054494
v 0.274601 -0.300719 0.045380
v -0.129487 -0.300719 0.061014
v -0.196717 0.143763 0.054494
v -0.129841 0.143763 0.001512
v 0.003862 0.171163 0.003825
v 0.070722 0.143763 0.003247
v 0.140440 0.143763 0.061014
v 0.207671 -0.300719 0.054494
v -0.062055 -0.300719 0.064929
v -0.129487 0.143763 0.061014
v -0.063000 0.143763 0.003247
v 0.003862 0.143763 0.003825
v 0.073010 0.143763 0.064929
v 0.140440 -0.300719 0.061014
v 0.005477 -0.300719 0.066235
v -0.062055 0.143763 0.064929
v 0.005477 0.143763 0.066235
v 0.073010 -0.300719 0.064929

# 53 UV coordinates
vt -0.18065 0.130097 0
vt -0.168374 0.142374 0
vt 0.203837 0.130097 0
vt -0.18065 0.353799 0
vt 0.19156 0.142373 0
vt -0.18065 0.111399 0
vt 0.203837 0.113729 0
vt 0.203837 0.111398 0
vt -0.487652 0.353801 0
vt -0.489983 0.130098 0
vt -0.489982 0.353801 0
vt -0.168374 0.341523 0
vt 0.203837 0.353797 0
vt -1.27407 0.111401 0
vt -0.914127 0.11373 0
vt -0.914127 0.1114 0
vt -0.18065 0.113729 0
vt -0.594845 0.130098 0
vt -0.592514 0.353801 0
vt -0.592514 0.130098 0
vt -0.487652 0.130098 0
vt -1.28635 0.111401 0
vt -0.901851 0.11373 0
vt -0.901851 0.1114 0
vt 0.19156 0.341521 0
vt -0.594845 0.142375 0
vt -0.592514 0.341525 0
vt -0.592514 0.142375 0
vt -1.27407 0.113731 0
vt -0.594844 0.353802 0
vt -1.28635 0.113731 0
vt -0.168374 0.111399 0
vt 0.19156 0.113729 0
vt 0.19156 0.111398 0
vt -0.594844 0.341525 0
vt -0.487652 0.341524 0
vt -0.489983 0.142375 0
vt -0.489982 0.341524 0
vt -0.487652 0.142375 0
vt -0.168374 0.113729 0
vt 0 0 0
vt -23.6975 7.07442 0
vt -24.2311 7.17568 0
vt -23.8655 6.87212 0
vt -24.0631 7.37798 0
vt 1.00069 -0.117222 0
vt -0.998625 -0.117223 0
vt 1.00069 0.977994 0
vt -0.994996 -0.005445 0
vt 1.00432 -0.005445 0
vt 1.00432 1.01611 0
vt -0.998624 0.977996 0
vt -0.994996 1.01611 0

# 122 vertex normals
vn 0 0 -1
vn -0.707107 -0.707107 -0
vn 0.57735 -0.57735 -0.57735
vn 0.707107 -0.707107 0
vn -0.57735 0.57735 -0.57735
vn -0.707107 0.707107 0
vn 0.57735 0.57735 -0.57735
vn 0.707107 0.707107 0
vn -0.57735 -0.57735 -0.57735
vn -0 -0 1
vn -0.57735 -0.57735 0.57735
vn -0.57735 0.57735 0.57735
vn 0.57735 -0.57735 0.57735
vn 0.57735 0.57735 0.57735
vn -0.042528 0.447619 0.893213
vn 0.042528 -0.447619 -0.893213
vn 0.042528 0.447619 0.893213
vn -0.042528 -0.447619 -0.893213
vn -0.047558 0 0.998868
vn 0.047558 0 -0.998868
vn -0.077273 0.447227 0.891076
vn 0.077273 -0.447227 -0.891076
vn 0.077273 0.447227 0.891076
vn -0.077273 -0.447227 -0.891076
vn -0.654672 -0.540567 0.528387
vn 0.654672 0.540567 -0.528387
vn -1 0 0
vn 1 0 0
vn -0.095009 0 0.995476
vn 0.095009 0 -0.995476
vn -0.061846 0.447227 0.89228
vn 0.061846 -0.447227 -0.89228
vn 0 1 0
vn 0 -1 -0
vn 0.061846 0.447227 0.89228
vn -0.061846 -0.447227 -0.89228
vn 0.086394 0 0.996261
vn -0.086394 0 -0.996261
vn 0.047558 0 0.998868
vn -0.047558 0 -0.998868
vn 0.654672 0.540567 0.528387
vn -0.654672 -0.540567 -0.528387
vn -0.171855 -0.44728 0.877728
vn 0.171855 0.44728 -0.877728
vn -0.654672 0.540567 0.528387
vn 0.654672 -0.540567 -0.528387
vn -0.086394 0 0.996261
vn 0.086394 0 -0.996261
vn -0.046401 0.447227 0.893216
vn 0.046401 -0.447227 -0.893216
vn 0.046401 0.447227 0.893216
vn -0.046401 -0.447227 -0.893216
vn 0.069147 0 0.997607
vn -0.069147 0 -0.997607
vn 0.654672 -0.540567 0.528387
vn -0.654672 0.540567 -0.528387
vn -0.137793 -0.44728 0.883716
vn 0.137793 0.44728 -0.883716
vn -0.171855 0.44728 0.877728
vn 0.171855 -0.44728 -0.877728
vn -0.069147 0 0.997607
vn 0.069147 0 -0.997607
vn -0.030942 0.447227 0.893885
vn 0.030942 -0.447227 -0.893885
vn 0.030942 0.447227 0.893885
vn -0.030942 -0.447227 -0.893885
vn 0.051878 0 0.998653
vn -0.051878 0 -0.998653
vn 0.171855 0.44728 0.877728
vn -0.171855 -0.44728 -0.877728
vn 0.137793 0.44728 0.883716
vn -0.137793 -0.44728 -0.883716
vn 0.171855 -0.44728 0.877728
vn -0.171855 0.44728 -0.877728
vn -0.103525 -0.44728 0.888382
vn 0.103525 0.44728 -0.888382
vn -0.137793 0.44728 0.883716
vn 0.137793 -0.44728 -0.883716
vn -0.051878 0 0.998653
vn 0.051878 0 -0.998653
vn -0.015473 0.447227 0.894287
vn 0.015473 -0.447227 -0.894287
vn 0.015473 0.447227 0.894287
vn -0.015473 -0.447227 -0.894287
vn 0.034594 0 0.999401
vn -0.034594 0 -0.999401
vn 0.103525 0.44728 0.888382
vn -0.103525 -0.44728 -0.888382
vn 0.137793 -0.44728 0.883716
vn -0.137793 0.44728 -0.883716
vn -0.069103 -0.44728 0.89172
vn 0.069103 0.44728 -0.89172
vn -0.103525 0.44728 0.888382
vn 0.103525 -0.44728 -0.888382
vn -0.034594 0 0.999401
vn 0.034594 0 -0.999401
vn 0 0.447227 0.89442
vn 0 -0.447227 -0.89442
vn 0.0173 0 0.99985
vn -0.0173 0 -0.99985
vn 0.069103 0.44728 0.89172
vn -0.069103 -0.44728 -0.89172
vn 0.103525 -0.44728 0.888382
vn -0.103525 0.44728 -0.888382
vn -0.034577 -0.44728 0.893725
vn 0.034577 0.44728 -0.893725
vn -0.069103 0.44728 0.89172
vn 0.069103 -0.44728 -0.89172
vn -0.0173 0 0.99985
vn 0.0173 0 -0.99985
vn 0.034577 0.44728 0.893725
vn -0.034577 -0.44728 -0.893725
vn 0.069103 -0.44728 0.89172
vn -0.069103 0.44728 -0.89172
vn -0 -0.44728 0.894394
vn 0 0.44728 -0.894394
vn -0.034577 0.44728 0.893725
vn 0.034577 -0.44728 -0.893725
vn 0 0.44728 0.894394
vn 0 -0.44728 -0.894394
vn 0.034577 -0.44728 0.893725
vn -0.034577 0.44728 -0.893725

# Mesh 'mesh1_mesh1-geometry' with 32 faces
g mesh1_mesh1-geometry
usemtl material_0_1_8
f  1/1/1 2/2/1 3/3/1
f  2/2/1 1/1/1 4/4/1
f  5/5/1 3/3/1 2/2/1
f  1/6/2 6/7/3 3/8/4
f  7/9/5 1/10/2 4/11/6
f  2/2/1 4/4/1 8/12/1
f  3/3/1 5/5/1 9/13/1
f  5/14/6 10/15/7 2/16/8
f  6/7/3 1/6/2 11/17/9
f  6/18/3 9/19/8 3/20/4
f  1/10/2 7/9/5 11/21/9
f  9/22/8 7/23/5 4/24/6
f  8/12/1 4/4/1 12/25/1
f  10/26/7 8/27/4 2/28/8
f  9/13/1 5/5/1 12/25/1
f  10/15/7 5/14/6 13/29/5
f  11/1/9 10/2/7 6/3/3
f  9/19/8 6/18/3 14/30/7
f  10/2/7 11/1/9 7/4/5
f  7/23/5 9/22/8 14/31/7
f  9/13/1 12/25/1 4/4/1
f  8/32/4 15/33/9 12/34/2
f  8/27/4 10/26/7 16/35/3
f  15/36/9 5/37/6 12/38/2
f  5/37/6 15/36/9 13/39/5
f  13/5/5 6/3/3 10/2/7
f  6/3/3 13/5/5 14/13/7
f  10/2/7 7/4/5 16/12/3
f  14/13/7 15/25/9 7/4/5
f  15/33/9 8/32/4 16/40/3
f  14/13/7 13/5/5 15/25/9
f  16/12/3 7/4/5 15/25/9

# Mesh 'mesh1_mesh1-geometry' with 324 faces
g mesh1_mesh1-geometry
usemtl material_1_24
f  3/41/10 2/41/10 1/41/10
f  4/41/10 1/41/10 2/41/10
f  2/41/10 3/41/10 5/41/10
f  3/41/4 17/41/11 1/41/2
f  1/41/8 17/41/7 3/41/6
f  3/41/6 6/41/12 1/41/8
f  17/41/11 4/41/6 1/41/2
f  1/41/8 4/41/4 17/41/7
f  4/41/4 1/41/8 7/41/13
f  8/41/10 4/41/10 2/41/10
f  9/41/10 5/41/10 3/41/10
f  2/41/2 10/41/11 5/41/4
f  17/41/11 3/41/4 18/41/13
f  18/41/5 3/41/6 17/41/7
f  11/41/14 1/41/8 6/41/12
f  3/41/6 9/41/2 6/41/12
f  4/41/6 17/41/11 19/41/12
f  19/41/3 17/41/7 4/41/4
f  11/41/14 7/41/13 1/41/8
f  4/41/4 7/41/13 9/41/2
f  12/41/10 4/41/10 8/41/10
f  2/41/2 8/41/6 10/41/11
f  12/41/10 5/41/10 9/41/10
f  20/41/14 3/41/4 9/41/8
f  9/41/2 3/41/6 20/41/9
f  13/41/13 5/41/4 10/41/11
f  3/41/4 20/41/14 18/41/13
f  18/41/5 20/41/9 3/41/6
f  18/41/13 21/41/10 17/41/11
f  17/41/7 21/41/1 18/41/5
f  6/41/12 10/41/11 11/41/14
f  14/41/11 6/41/12 9/41/2
f  17/41/11 22/41/10 19/41/12
f  19/41/3 22/41/1 17/41/7
f  23/41/15 4/41/6 19/41/12
f  19/41/3 4/41/4 23/41/16
f  7/41/13 11/41/14 10/41/11
f  14/41/11 9/41/2 7/41/13
f  4/41/10 12/41/10 9/41/10
f  4/41/6 23/41/15 9/41/8
f  9/41/2 23/41/16 4/41/4
f  12/41/8 15/41/14 8/41/6
f  16/41/12 10/41/11 8/41/6
f  24/41/8 5/41/4 12/41/8
f  12/41/2 5/41/6 24/41/2
f  12/41/8 5/41/4 15/41/14
f  9/41/8 25/41/17 20/41/14
f  20/41/9 25/41/18 9/41/2
f  13/41/13 15/41/14 5/41/4
f  10/41/11 6/41/12 13/41/13
f  5/41/4 24/41/8 26/41/4
f  26/41/6 24/41/2 5/41/6
f  26/41/4 22/41/2 27/41/2
f  27/41/8 22/41/8 26/41/6
f  21/41/10 18/41/13 20/41/14
f  20/41/9 18/41/5 21/41/1
f  22/41/10 17/41/11 21/41/10
f  21/41/1 17/41/7 22/41/1
f  14/41/11 13/41/13 6/41/12
f  19/41/12 22/41/10 28/41/19
f  28/41/20 22/41/1 19/41/3
f  19/41/12 28/41/19 23/41/15
f  23/41/16 28/41/20 19/41/3
f  16/41/12 7/41/13 10/41/11
f  7/41/13 15/41/14 14/41/11
f  9/41/8 23/41/15 29/41/21
f  29/41/22 23/41/16 9/41/2
f  16/41/12 8/41/6 15/41/14
f  22/41/2 30/41/6 27/41/2
f  27/41/8 30/41/4 22/41/8
f  9/41/8 31/41/23 25/41/17
f  25/41/18 31/41/24 9/41/2
f  25/41/17 32/41/10 20/41/14
f  20/41/9 32/41/1 25/41/18
f  15/41/14 13/41/13 14/41/11
f  32/41/8 26/41/4 24/41/8
f  24/41/2 26/41/6 32/41/2
f  22/41/2 26/41/4 21/41/4
f  21/41/6 26/41/6 22/41/8
f  21/41/10 20/41/14 32/41/10
f  32/41/1 20/41/9 21/41/1
f  21/41/4 33/41/25 22/41/2
f  22/41/8 33/41/26 21/41/6
f  34/41/10 28/41/19 22/41/10
f  22/41/1 28/41/20 34/41/1
f  33/41/25 35/41/27 22/41/2
f  22/41/2 35/41/27 34/41/2
f  22/41/8 35/41/28 33/41/26
f  34/41/8 35/41/28 22/41/8
f  30/41/6 22/41/2 34/41/6
f  34/41/4 22/41/8 30/41/4
f  35/41/29 23/41/15 28/41/19
f  23/41/15 35/41/29 29/41/21
f  28/41/20 23/41/16 35/41/30
f  29/41/22 35/41/30 23/41/16
f  15/41/14 7/41/13 16/41/12
f  9/41/8 29/41/21 36/41/31
f  36/41/32 29/41/22 9/41/2
f  30/41/6 37/41/33 24/41/8
f  24/41/2 37/41/34 30/41/4
f  9/41/8 38/41/35 31/41/23
f  31/41/24 38/41/36 9/41/2
f  39/41/37 25/41/17 31/41/23
f  31/41/24 25/41/18 39/41/38
f  32/41/10 25/41/17 37/41/39
f  37/41/40 25/41/18 32/41/1
f  26/41/4 32/41/8 21/41/4
f  21/41/6 32/41/2 26/41/6
f  24/41/8 37/41/33 32/41/8
f  32/41/2 37/41/34 24/41/2
f  40/41/41 21/41/4 32/41/8
f  32/41/2 21/41/6 40/41/42
f  33/41/25 21/41/4 41/41/43
f  41/41/44 21/41/6 33/41/26
f  37/41/34 35/41/27 34/41/2
f  34/41/8 35/41/28 37/41/33
f  35/41/27 33/41/25 42/41/45
f  42/41/46 33/41/26 35/41/28
f  37/41/33 30/41/6 34/41/6
f  34/41/4 30/41/4 37/41/34
f  29/41/21 35/41/29 43/41/47
f  43/41/48 35/41/30 29/41/22
f  43/41/47 36/41/31 29/41/21
f  29/41/22 36/41/32 43/41/48
f  9/41/8 36/41/31 44/41/49
f  44/41/50 36/41/32 9/41/2
f  9/41/8 45/41/51 38/41/35
f  38/41/36 45/41/52 9/41/2
f  46/41/53 31/41/23 38/41/35
f  38/41/36 31/41/24 46/41/54
f  25/41/17 39/41/37 37/41/39
f  37/41/40 39/41/38 25/41/18
f  31/41/23 46/41/53 39/41/37
f  39/41/38 46/41/54 31/41/24
f  37/41/33 40/41/41 32/41/8
f  32/41/2 40/41/42 37/41/34
f  21/41/4 40/41/41 47/41/55
f  47/41/56 40/41/42 21/41/6
f  41/41/43 21/41/4 48/41/57
f  48/41/58 21/41/6 41/41/44
f  41/41/43 42/41/45 33/41/25
f  33/41/26 42/41/46 41/41/44
f  35/41/27 37/41/34 43/41/34
f  43/41/33 37/41/33 35/41/28
f  49/41/59 35/41/27 42/41/45
f  42/41/46 35/41/28 49/41/60
f  35/41/27 49/41/59 43/41/33
f  43/41/34 49/41/60 35/41/28
f  36/41/31 43/41/47 50/41/61
f  50/41/62 43/41/48 36/41/32
f  50/41/61 44/41/49 36/41/31
f  36/41/32 44/41/50 50/41/62
f  9/41/8 44/41/49 51/41/63
f  51/41/64 44/41/50 9/41/2
f  9/41/8 52/41/65 45/41/51
f  45/41/52 52/41/66 9/41/2
f  53/41/67 38/41/35 45/41/51
f  45/41/52 38/41/36 53/41/68
f  38/41/35 53/41/67 46/41/53
f  46/41/54 53/41/68 38/41/36
f  46/41/34 37/41/34 39/41/34
f  39/41/33 37/41/33 46/41/33
f  39/41/33 54/41/69 37/41/33
f  37/41/34 54/41/70 39/41/34
f  46/41/33 55/41/71 39/41/33
f  39/41/34 55/41/72 46/41/34
f  37/41/33 54/41/69 40/41/41
f  40/41/42 54/41/70 37/41/34
f  40/41/41 56/41/73 47/41/55
f  47/41/56 56/41/74 40/41/42
f  56/41/73 21/41/4 47/41/55
f  47/41/56 21/41/6 56/41/74
f  48/41/57 21/41/4 57/41/75
f  57/41/76 21/41/6 48/41/58
f  58/41/77 41/41/43 48/41/57
f  48/41/58 41/41/44 58/41/78
f  42/41/45 41/41/43 49/41/59
f  49/41/60 41/41/44 42/41/46
f  43/41/34 37/41/34 50/41/34
f  50/41/33 37/41/33 43/41/33
f  43/41/33 49/41/59 58/41/77
f  58/41/78 49/41/60 43/41/34
f  43/41/33 58/41/77 50/41/33
f  50/41/34 58/41/78 43/41/34
f  44/41/49 50/41/61 59/41/79
f  59/41/80 50/41/62 44/41/50
f  59/41/79 51/41/63 44/41/49
f  44/41/50 51/41/64 59/41/80
f  9/41/8 51/41/63 60/41/81
f  60/41/82 51/41/64 9/41/2
f  9/41/8 61/41/83 52/41/65
f  52/41/66 61/41/84 9/41/2
f  62/41/85 45/41/51 52/41/65
f  52/41/66 45/41/52 62/41/86
f  45/41/51 62/41/85 53/41/67
f  53/41/68 62/41/86 45/41/52
f  53/41/34 37/41/34 46/41/34
f  46/41/33 37/41/33 53/41/33
f  53/41/33 63/41/87 46/41/33
f  46/41/34 63/41/88 53/41/34
f  39/41/33 55/41/71 54/41/69
f  54/41/70 55/41/72 39/41/34
f  46/41/33 63/41/87 55/41/71
f  55/41/72 63/41/88 46/41/34
f  56/41/73 40/41/41 54/41/69
f  54/41/70 40/41/42 56/41/74
f  64/41/89 21/41/4 56/41/73
f  56/41/74 21/41/6 64/41/90
f  57/41/75 21/41/4 65/41/91
f  65/41/92 21/41/6 57/41/76
f  66/41/93 48/41/57 57/41/75
f  57/41/76 48/41/58 66/41/94
f  41/41/43 58/41/77 49/41/59
f  49/41/60 58/41/78 41/41/44
f  48/41/57 66/41/93 58/41/77
f  58/41/78 66/41/94 48/41/58
f  50/41/34 37/41/34 59/41/34
f  59/41/33 37/41/33 50/41/33
f  50/41/33 58/41/77 66/41/93
f  66/41/94 58/41/78 50/41/34
f  50/41/33 66/41/93 59/41/33
f  59/41/34 66/41/94 50/41/34
f  51/41/63 59/41/79 67/41/95
f  67/41/96 59/41/80 51/41/64
f  67/41/95 60/41/81 51/41/63
f  51/41/64 60/41/82 67/41/96
f  9/41/8 60/41/81 68/41/97
f  68/41/98 60/41/82 9/41/2
f  9/41/8 68/41/97 61/41/83
f  61/41/84 68/41/98 9/41/2
f  69/41/99 52/41/65 61/41/83
f  61/41/84 52/41/66 69/41/100
f  52/41/65 69/41/99 62/41/85
f  62/41/86 69/41/100 52/41/66
f  62/41/34 37/41/34 53/41/34
f  53/41/33 37/41/33 62/41/33
f  62/41/33 70/41/101 53/41/33
f  53/41/34 70/41/102 62/41/34
f  53/41/33 70/41/101 63/41/87
f  63/41/88 70/41/102 53/41/34
f  64/41/89 54/41/69 55/41/71
f  55/41/72 54/41/70 64/41/90
f  71/41/103 55/41/71 63/41/87
f  63/41/88 55/41/72 71/41/104
f  54/41/69 64/41/89 56/41/73
f  56/41/74 64/41/90 54/41/70
f  71/41/103 21/41/4 64/41/89
f  64/41/90 21/41/6 71/41/104
f  65/41/91 21/41/4 72/41/105
f  72/41/106 21/41/6 65/41/92
f  73/41/107 57/41/75 65/41/91
f  65/41/92 57/41/76 73/41/108
f  57/41/75 73/41/107 66/41/93
f  66/41/94 73/41/108 57/41/76
f  59/41/34 37/41/34 67/41/34
f  67/41/33 37/41/33 59/41/33
f  59/41/33 66/41/93 73/41/107
f  73/41/108 66/41/94 59/41/34
f  59/41/33 73/41/107 67/41/33
f  67/41/34 73/41/108 59/41/34
f  60/41/81 67/41/95 74/41/109
f  74/41/110 67/41/96 60/41/82
f  74/41/109 68/41/97 60/41/81
f  60/41/82 68/41/98 74/41/110
f  75/41/10 61/41/83 68/41/97
f  68/41/98 61/41/84 75/41/1
f  61/41/83 75/41/10 69/41/99
f  69/41/100 75/41/1 61/41/84
f  69/41/34 37/41/34 62/41/34
f  62/41/33 37/41/33 69/41/33
f  69/41/33 76/41/111 62/41/33
f  62/41/34 76/41/112 69/41/34
f  62/41/33 76/41/111 70/41/101
f  70/41/102 76/41/112 62/41/34
f  77/41/113 63/41/87 70/41/101
f  70/41/102 63/41/88 77/41/114
f  55/41/71 71/41/103 64/41/89
f  64/41/90 71/41/104 55/41/72
f  63/41/87 77/41/113 71/41/103
f  71/41/104 77/41/114 63/41/88
f  77/41/113 21/41/4 71/41/103
f  71/41/104 21/41/6 77/41/114
f  72/41/105 21/41/4 78/41/115
f  78/41/116 21/41/6 72/41/106
f  79/41/117 65/41/91 72/41/105
f  72/41/106 65/41/92 79/41/118
f  65/41/91 79/41/117 73/41/107
f  73/41/108 79/41/118 65/41/92
f  67/41/34 37/41/34 74/41/34
f  74/41/33 37/41/33 67/41/33
f  67/41/33 73/41/107 74/41/33
f  74/41/34 73/41/108 67/41/34
f  68/41/97 74/41/109 75/41/10
f  75/41/1 74/41/110 68/41/98
f  75/41/34 37/41/34 69/41/34
f  69/41/33 37/41/33 75/41/33
f  75/41/33 80/41/119 69/41/33
f  69/41/34 80/41/120 75/41/34
f  69/41/33 80/41/119 76/41/111
f  76/41/112 80/41/120 69/41/34
f  81/41/121 70/41/101 76/41/111
f  76/41/112 70/41/102 81/41/122
f  70/41/101 81/41/121 77/41/113
f  77/41/114 81/41/122 70/41/102
f  81/41/121 21/41/4 77/41/113
f  77/41/114 21/41/6 81/41/122
f  78/41/115 21/41/4 81/41/121
f  81/41/122 21/41/6 78/41/116
f  80/41/119 72/41/105 78/41/115
f  78/41/116 72/41/106 80/41/120
f  72/41/105 80/41/119 79/41/117
f  79/41/118 80/41/120 72/41/106
f  74/41/33 73/41/107 79/41/117
f  79/41/118 73/41/108 74/41/34
f  74/41/34 37/41/34 75/41/34
f  75/41/33 37/41/33 74/41/33
f  74/41/33 79/41/117 75/41/33
f  75/41/34 79/41/118 74/41/34
f  75/41/33 79/41/117 80/41/119
f  80/41/120 79/41/118 75/41/34
f  78/41/115 76/41/111 80/41/119
f  80/41/120 76/41/112 78/41/116
f  76/41/111 78/41/115 81/41/121
f  81/41/122 78/41/116 76/41/112

# Mesh 'mesh1_mesh1-geometry' with 2 faces
g mesh1_mesh1-geometry
usemtl material_3_3_8
f  8/42/1 5/43/1 2/44/1
f  5/43/1 8/42/1 12/45/1

# Mesh 'mesh1_mesh1-geometry' with 18 faces
g mesh1_mesh1-geometry
usemtl material_2_2_8
f  2/46/10 5/47/10 8/48/10
f  5/49/4 27/50/2 2/50/2
f  2/46/8 27/46/8 5/47/6
f  27/50/2 8/51/6 2/50/2
f  2/46/8 8/48/4 27/46/8
f  12/52/10 8/48/10 5/47/10
f  27/50/2 5/49/4 26/49/4
f  26/47/6 5/47/6 27/46/8
f  8/51/6 24/53/8 12/53/8
f  12/52/2 24/52/2 8/48/4
f  8/51/6 27/50/2 30/51/6
f  30/48/4 27/46/8 8/48/4
f  30/51/1 26/49/1 27/50/1
f  27/46/10 26/47/10 30/48/10
f  24/53/8 8/51/6 30/51/6
f  30/48/4 8/48/4 24/52/2
f  26/49/1 30/51/1 24/53/1
f  24/52/10 30/48/10 26/47/10

