# File produced by Open Asset Import Library (http://www.assimp.sf.net)
# (assimp v3.2.202087883)

mtllib model_normalized.mtl

# 166 vertex positions
v 0.344443 0.385413 -0.025976
v -0.558661 -0.019612 -0.025976
v -0.558661 0.385413 -0.025976
v -0.012058 -0.019612 -0.025976
v -0.558661 0.385413 -0.002452
v 0.344443 -0.019612 -0.025976
v -0.558661 -0.019612 -0.002452
v 0.344443 0.385413 -0.002452
v 0.344443 -0.019612 -0.002452
v -0.012058 -0.019612 -0.002452
v 0.189692 -0.019612 -0.002452
v -0.012058 -0.019612 0.011643
v 0.188152 -0.019612 -0.002249
v -0.422383 -0.019612 0.011643
v 0.186717 -0.019612 -0.001655
v 0.189692 -0.017912 -0.002452
v -0.422383 -0.019612 -0.002452
v -0.012058 -0.038313 0.011643
v 0.177349 -0.019612 -0.000790
v 0.188152 -0.017912 -0.002249
v 0.191233 -0.017912 -0.002249
v -0.422383 -0.038313 0.011643
v -0.004028 -0.031686 0.011643
v 0.177349 -0.019612 0.006087
v 0.181600 -0.019612 -0.000790
v 0.186717 -0.017912 -0.001655
v 0.191233 -0.019612 -0.002249
v -0.422383 -0.038313 -0.058062
v 0.198158 -0.038313 0.011643
v -0.002947 -0.033094 0.011643
v -0.004707 -0.030046 0.011643
v 0.181600 -0.019612 0.006087
v 0.177349 -0.018762 0.006087
v 0.185484 -0.019612 -0.000709
v 0.181600 -0.018762 -0.000790
v 0.192668 -0.017912 -0.001655
v 0.198158 -0.019612 -0.002452
v -0.422383 -0.019612 -0.058062
v 0.001862 -0.035086 0.011643
v -0.001539 -0.034175 0.011643
v -0.004028 -0.024885 0.011643
v -0.004707 -0.026525 0.011643
v -0.004939 -0.028286 0.011643
v 0.184539 -0.019612 0.006474
v 0.177349 -0.018762 -0.000790
v 0.184539 -0.019612 0.000523
v 0.185484 -0.017912 -0.000709
v 0.192668 -0.019612 -0.001655
v -0.012058 -0.019612 -0.058062
v -0.012058 -0.038313 -0.058062
v 0.000101 -0.034854 0.011643
v 0.003621 -0.034854 0.011643
v -0.002947 -0.023477 0.011643
v 0.185484 -0.019612 0.007706
v 0.183945 -0.019612 0.005038
v 0.181600 -0.018762 0.006087
v 0.184539 -0.017912 0.000523
v 0.193899 -0.017912 -0.000709
v 0.193899 -0.019612 -0.000709
v -0.422383 -0.019612 -0.025976
v 0.198158 -0.038313 -0.058062
v 0.000101 -0.021717 0.011643
v 0.005262 -0.034175 0.011643
v 0.001862 -0.021485 0.011643
v -0.001539 -0.022396 0.011643
v 0.186717 -0.019612 0.008652
v 0.185484 -0.017912 0.007706
v 0.183741 -0.019612 0.003498
v 0.184539 -0.017912 0.006474
v 0.183945 -0.019612 0.001958
v 0.183945 -0.017912 0.001958
v 0.194846 -0.019612 0.000523
v 0.198158 -0.019612 -0.058062
v 0.006670 -0.033094 0.011643
v 0.003621 -0.021717 0.011643
v 0.188152 -0.019612 0.009246
v 0.183945 -0.017912 0.005038
v 0.187992 -0.017912 0.000554
v 0.189692 -0.017912 0.000098
v 0.195440 -0.019612 0.001958
v 0.198158 -0.019612 0.011643
v 0.007750 -0.031686 0.011643
v 0.005262 -0.022396 0.011643
v 0.189692 -0.019612 0.009449
v 0.186717 -0.017912 0.008652
v 0.188812 -0.017912 0.006783
v 0.183741 -0.017912 0.003498
v 0.186748 -0.017912 0.005198
v 0.188812 -0.017912 0.000214
v 0.187288 -0.017912 0.001094
v 0.194846 -0.017912 0.000523
v 0.198158 -0.019612 -0.025976
v 0.191233 -0.024760 0.011643
v 0.008431 -0.030046 0.011643
v 0.006670 -0.023477 0.011643
v 0.188152 -0.017912 0.009246
v 0.193899 -0.017912 0.007706
v 0.187992 -0.017912 0.006443
v 0.189692 -0.017912 0.006899
v 0.186292 -0.017912 0.003498
v 0.186408 -0.017912 0.004378
v 0.187288 -0.017912 0.005903
v 0.186408 -0.017912 0.002618
v 0.190573 -0.017912 0.000214
v 0.186748 -0.017912 0.001798
v 0.191392 -0.017912 0.000554
v 0.195440 -0.017912 0.001958
v 0.195642 -0.019612 0.003498
v 0.118128 -0.024760 0.011643
v 0.191233 -0.028160 0.011643
v 0.008662 -0.028286 0.011643
v 0.007750 -0.024885 0.011643
v 0.191233 -0.019612 0.009246
v 0.189692 -0.017912 0.009449
v 0.192668 -0.017912 0.008652
v 0.191392 -0.017912 0.006443
v 0.190573 -0.017912 0.006783
v 0.192977 -0.017912 0.004378
v 0.192637 -0.017912 0.005198
v 0.192096 -0.017912 0.001094
v 0.195440 -0.019612 0.005038
v 0.118128 -0.028160 0.011643
v 0.008431 -0.026525 0.011643
v 0.192668 -0.019612 0.008652
v 0.191233 -0.017912 0.009246
v 0.193899 -0.019612 0.007706
v 0.192096 -0.017912 0.005903
v 0.192977 -0.017912 0.002618
v 0.193092 -0.017912 0.003498
v 0.192637 -0.017912 0.001798
v 0.195642 -0.017912 0.003498
v 0.194846 -0.019612 0.006474
v 0.194846 -0.017912 0.006474
v 0.195440 -0.017912 0.005038
v -0.533555 -0.007790 -0.002452
v -0.516895 0.350514 -0.002452
v -0.533295 -0.009770 -0.002452
v 0.301709 0.350514 -0.002452
v -0.532530 -0.011615 -0.002452
v -0.533295 -0.005810 -0.002452
v -0.516895 0.350514 -0.013225
v 0.301709 0.013892 -0.002452
v -0.525905 -0.015440 -0.002452
v -0.531315 -0.013200 -0.002452
v -0.532530 -0.003965 -0.002452
v 0.301709 0.350514 -0.013225
v -0.516895 0.013892 -0.002452
v 0.301709 0.013892 -0.013225
v -0.527885 -0.015180 -0.002452
v -0.523925 -0.015180 -0.002452
v -0.529730 -0.014416 -0.002452
v -0.531315 -0.002380 -0.002452
v -0.516895 0.013892 -0.013225
v -0.518254 -0.007790 -0.002452
v -0.522080 -0.014416 -0.002452
v -0.529730 -0.001164 -0.002452
v -0.518515 -0.005810 -0.002452
v -0.520495 -0.013200 -0.002452
v -0.527885 -0.000400 -0.002452
v -0.519279 -0.003965 -0.002452
v -0.518515 -0.009770 -0.002452
v -0.525905 -0.000140 -0.002452
v -0.519279 -0.011615 -0.002452
v -0.523925 -0.000400 -0.002452
v -0.520495 -0.002380 -0.002452
v -0.522080 -0.001164 -0.002452

# 0 UV coordinates

# 26 vertex normals
vn 0 0 -0.0254
vn 0 0 0.0254
vn 0.0254 0 0
vn -0 -0.0254 -0
vn 0 0.0254 0
vn -0.0254 -0 -0
vn 0.006574 0 0.0245345
vn 0.0127 0 0.021997
vn -0.006574 0 0.0245345
vn 0.0179605 0 0.0179605
vn -0.0127 0 0.021997
vn 0.021997 0 0.0127
vn -0.0179605 0 0.0179605
vn 0.0179605 0 -0.0179605
vn 0.021997 0 -0.0127
vn 0.0245345 0 -0.006574
vn 0.0245345 0 0.006574
vn 0.0127 0 -0.021997
vn -0.021997 0 0.0127
vn 0.006574 0 -0.0245345
vn -0.0245345 0 0.006574
vn -0.006574 -0 -0.0245345
vn -0.0179605 -0 -0.0179605
vn -0.0127 -0 -0.021997
vn -0.0245345 -0 -0.006574
vn -0.021997 -0 -0.0127

# Mesh 'mesh1_mesh1-geometry' with 372 faces
g mesh1_mesh1-geometry
usemtl material_0_24
f  1//1 2//1 3//1
f  2//1 1//1 4//1
f  3//2 2//2 1//2
f  4//2 1//2 2//2
f  3//3 5//3 2//3
f  3//4 1//4 5//4
f  4//1 1//1 6//1
f  6//2 1//2 4//2
f  7//5 4//5 2//5
f  2//4 4//4 7//4
f  7//3 2//3 5//3
f  8//4 5//4 1//4
f  6//6 9//6 1//6
f  4//5 7//5 6//5
f  6//4 7//4 4//4
f  8//6 1//6 9//6
f  6//5 7//5 9//5
f  9//4 7//4 6//4
f  9//5 7//5 10//5
f  10//4 7//4 9//4
f  9//5 10//5 11//5
f  11//4 10//4 9//4
f  12//5 11//5 10//5
f  10//4 11//4 12//4
f  11//5 12//5 13//5
f  13//4 12//4 11//4
f  10//5 14//5 12//5
f  12//4 14//4 10//4
f  13//5 12//5 15//5
f  15//4 12//4 13//4
f  11//2 16//2 13//7
f  14//5 10//5 17//5
f  17//4 10//4 14//4
f  14//2 18//2 12//2
f  12//1 18//1 14//1
f  15//5 12//5 19//5
f  19//4 12//4 15//4
f  13//7 20//7 15//8
f  20//7 13//7 16//2
f  16//2 11//2 21//9
f  18//2 14//2 22//2
f  22//1 14//1 18//1
f  18//2 23//2 12//2
f  12//1 23//1 18//1
f  19//5 12//5 24//5
f  24//4 12//4 19//4
f  25//5 15//5 19//5
f  19//4 15//4 25//4
f  26//8 15//8 20//7
f  16//4 21//4 20//4
f  27//9 21//9 11//2
f  14//6 28//6 22//6
f  22//3 28//3 14//3
f  22//4 29//4 18//4
f  23//2 18//2 30//2
f  30//1 18//1 23//1
f  12//2 23//2 31//2
f  31//1 23//1 12//1
f  24//5 12//5 32//5
f  32//4 12//4 24//4
f  33//6 19//6 24//6
f  24//3 19//3 33//3
f  15//5 25//5 34//5
f  34//4 25//4 15//4
f  19//1 35//1 25//1
f  25//2 35//2 19//2
f  15//8 26//8 34//10
f  26//4 20//4 21//4
f  21//9 27//9 36//11
f  27//5 37//5 11//5
f  11//4 37//4 27//4
f  28//6 14//6 38//6
f  38//3 14//3 28//3
f  28//4 29//4 22//4
f  39//2 18//2 29//2
f  29//1 18//1 39//1
f  30//2 18//2 40//2
f  40//1 18//1 30//1
f  41//2 23//2 30//2
f  30//1 23//1 41//1
f  42//2 31//2 23//2
f  23//1 31//1 42//1
f  12//2 31//2 43//2
f  43//1 31//1 12//1
f  32//5 12//5 44//5
f  44//4 12//4 32//4
f  32//2 33//2 24//2
f  24//1 33//1 32//1
f  19//6 33//6 45//6
f  45//3 33//3 19//3
f  34//5 25//5 46//5
f  46//4 25//4 34//4
f  35//1 19//1 45//1
f  45//2 19//2 35//2
f  35//3 32//3 25//3
f  25//6 32//6 35//6
f  47//10 34//10 26//8
f  36//4 26//4 21//4
f  48//11 36//11 27//9
f  37//5 27//5 48//5
f  48//4 27//4 37//4
f  49//1 28//1 38//1
f  38//2 28//2 49//2
f  50//4 29//4 28//4
f  51//2 18//2 39//2
f  39//1 18//1 51//1
f  39//2 29//2 52//2
f  52//1 29//1 39//1
f  40//2 18//2 51//2
f  51//1 18//1 40//1
f  53//2 30//2 40//2
f  40//1 30//1 53//1
f  42//2 23//2 41//2
f  41//1 23//1 42//1
f  41//2 30//2 53//2
f  53//1 30//1 41//1
f  31//2 42//2 43//2
f  43//1 42//1 31//1
f  42//2 12//2 43//2
f  43//1 12//1 42//1
f  44//5 12//5 54//5
f  54//4 12//4 44//4
f  55//5 32//5 44//5
f  44//4 32//4 55//4
f  33//2 32//2 56//2
f  56//1 32//1 33//1
f  45//4 35//4 33//4
f  46//5 25//5 32//5
f  32//4 25//4 46//4
f  46//12 34//10 57//12
f  32//3 35//3 56//3
f  56//6 35//6 32//6
f  47//10 57//12 34//10
f  47//4 26//4 36//4
f  36//11 48//11 58//13
f  37//5 48//5 59//5
f  59//4 48//4 37//4
f  28//1 49//1 50//1
f  50//2 49//2 28//2
f  60//5 49//5 38//5
f  38//4 49//4 60//4
f  29//4 50//4 61//4
f  62//2 51//2 39//2
f  39//1 51//1 62//1
f  52//2 29//2 63//2
f  63//1 29//1 52//1
f  64//2 39//2 52//2
f  52//1 39//1 64//1
f  65//2 40//2 51//2
f  51//1 40//1 65//1
f  53//2 40//2 65//2
f  65//1 40//1 53//1
f  41//2 12//2 42//2
f  42//1 12//1 41//1
f  53//2 12//2 41//2
f  41//1 12//1 53//1
f  54//5 12//5 66//5
f  66//4 12//4 54//4
f  54//14 44//15 67//14
f  68//5 32//5 55//5
f  55//4 32//4 68//4
f  44//15 55//16 69//15
f  56//4 33//4 35//4
f  46//5 32//5 70//5
f  70//4 32//4 46//4
f  57//12 71//17 46//12
f  57//4 47//4 58//4
f  58//4 47//4 36//4
f  59//13 58//13 48//11
f  37//5 59//5 72//5
f  72//4 59//4 37//4
f  73//1 50//1 49//1
f  49//2 50//2 73//2
f  49//5 60//5 4//5
f  4//4 60//4 49//4
f  50//1 73//1 61//1
f  61//2 73//2 50//2
f  73//3 29//3 61//3
f  65//2 51//2 62//2
f  62//1 51//1 65//1
f  62//2 39//2 64//2
f  64//1 39//1 62//1
f  63//2 29//2 74//2
f  74//1 29//1 63//1
f  75//2 52//2 63//2
f  63//1 52//1 75//1
f  64//2 52//2 75//2
f  75//1 52//1 64//1
f  65//2 12//2 53//2
f  53//1 12//1 65//1
f  66//5 12//5 76//5
f  76//4 12//4 66//4
f  54//14 67//14 66//18
f  69//15 67//14 44//15
f  70//5 32//5 68//5
f  68//4 32//4 70//4
f  55//16 68//3 77//16
f  77//16 69//15 55//16
f  70//17 46//12 71//17
f  71//4 57//4 78//4
f  79//4 57//4 58//4
f  59//13 72//19 58//13
f  37//5 72//5 80//5
f  80//4 72//4 37//4
f  4//5 73//5 49//5
f  49//4 73//4 4//4
f  29//3 73//3 81//3
f  62//2 12//2 65//2
f  65//1 12//1 62//1
f  64//2 12//2 62//2
f  62//1 12//1 64//1
f  74//2 29//2 82//2
f  82//1 29//1 74//1
f  83//2 63//2 74//2
f  74//1 63//1 83//1
f  75//2 63//2 83//2
f  83//1 63//1 75//1
f  81//2 64//2 75//2
f  75//1 64//1 81//1
f  76//5 12//5 84//5
f  84//4 12//4 76//4
f  66//18 85//18 76//20
f  85//18 66//18 67//14
f  67//4 69//4 86//4
f  68//3 70//17 87//3
f  87//3 77//16 68//3
f  69//4 77//4 88//4
f  71//17 87//3 70//17
f  78//4 57//4 89//4
f  90//4 71//4 78//4
f  89//4 57//4 79//4
f  58//4 91//4 79//4
f  91//19 58//13 72//19
f  72//19 80//21 91//19
f  37//5 80//5 81//5
f  81//4 80//4 37//4
f  73//5 4//5 92//5
f  92//4 4//4 73//4
f  81//2 93//2 29//2
f  29//1 93//1 81//1
f  12//2 64//2 81//2
f  81//1 64//1 12//1
f  82//2 29//2 94//2
f  94//1 29//1 82//1
f  95//2 74//2 82//2
f  82//1 74//1 95//1
f  83//2 74//2 95//2
f  95//1 74//1 83//1
f  81//2 75//2 83//2
f  83//1 75//1 81//1
f  81//5 84//5 12//5
f  12//4 84//4 81//4
f  76//20 96//20 84//1
f  96//20 76//20 85//18
f  85//4 67//4 97//4
f  86//4 69//4 98//4
f  99//4 67//4 86//4
f  77//4 87//4 100//4
f  88//4 77//4 101//4
f  102//4 69//4 88//4
f  87//4 71//4 103//4
f  78//4 89//4 104//4
f  105//4 71//4 90//4
f  90//4 78//4 106//4
f  79//4 104//4 89//4
f  104//4 79//4 91//4
f  107//21 91//19 80//21
f  81//5 80//5 108//5
f  108//4 80//4 81//4
f  81//2 109//2 93//2
f  93//1 109//1 81//1
f  110//2 29//2 93//2
f  93//1 29//1 110//1
f  94//2 29//2 111//2
f  111//1 29//1 94//1
f  112//2 82//2 94//2
f  94//1 82//1 112//1
f  95//2 82//2 112//2
f  112//1 82//1 95//1
f  81//2 83//2 95//2
f  95//1 83//1 81//1
f  81//5 113//5 84//5
f  84//4 113//4 81//4
f  114//1 84//1 96//20
f  96//4 85//4 115//4
f  67//4 99//4 97//4
f  115//4 85//4 97//4
f  98//4 69//4 102//4
f  86//4 98//4 116//4
f  99//4 86//4 117//4
f  100//4 87//4 103//4
f  101//4 77//4 100//4
f  88//4 101//4 118//4
f  102//4 88//4 119//4
f  103//4 71//4 105//4
f  106//4 78//4 104//4
f  105//4 90//4 120//4
f  120//4 90//4 106//4
f  106//4 104//4 91//4
f  107//4 106//4 91//4
f  80//21 108//6 107//21
f  81//5 108//5 121//5
f  121//4 108//4 81//4
f  81//2 111//2 109//2
f  109//1 111//1 81//1
f  93//1 110//1 109//1
f  122//2 29//2 110//2
f  110//1 29//1 122//1
f  111//2 29//2 122//2
f  122//1 29//1 111//1
f  123//2 94//2 111//2
f  111//1 94//1 123//1
f  112//2 94//2 123//2
f  123//1 94//1 112//1
f  81//2 95//2 112//2
f  112//1 95//1 81//1
f  81//5 124//5 113//5
f  113//4 124//4 81//4
f  84//1 114//1 113//22
f  114//4 96//4 125//4
f  125//4 96//4 115//4
f  99//4 117//4 97//4
f  97//23 126//23 115//24
f  98//4 102//4 127//4
f  116//4 98//4 127//4
f  117//4 86//4 116//4
f  100//4 103//4 128//4
f  101//4 100//4 129//4
f  118//4 101//4 129//4
f  119//4 88//4 118//4
f  127//4 102//4 119//4
f  103//4 105//4 130//4
f  130//4 105//4 120//4
f  120//4 106//4 107//4
f  131//6 107//21 108//6
f  108//6 121//25 131//6
f  81//5 121//5 132//5
f  132//4 121//4 81//4
f  81//2 123//2 111//2
f  111//1 123//1 81//1
f  109//2 111//2 122//2
f  122//1 111//1 109//1
f  122//1 109//1 110//1
f  81//2 112//2 123//2
f  123//1 112//1 81//1
f  81//5 126//5 124//5
f  124//4 126//4 81//4
f  113//22 125//22 124//24
f  125//22 113//22 114//1
f  115//24 124//24 125//22
f  97//4 117//4 133//4
f  124//24 115//24 126//23
f  97//23 133//26 126//23
f  116//4 127//4 133//4
f  117//4 116//4 133//4
f  128//4 103//4 130//4
f  129//4 100//4 128//4
f  118//4 129//4 131//4
f  119//4 118//4 134//4
f  127//4 119//4 133//4
f  130//4 120//4 107//4
f  131//4 128//4 107//4
f  134//25 131//6 121//25
f  121//25 132//26 134//25
f  81//5 132//5 126//5
f  126//4 132//4 81//4
f  132//26 126//23 133//26
f  128//4 130//4 107//4
f  129//4 128//4 131//4
f  134//4 118//4 131//4
f  133//4 119//4 134//4
f  133//26 134//25 132//26

# Mesh 'mesh1_mesh1-geometry' with 52 faces
g mesh1_mesh1-geometry
usemtl material_1_24
f  2//6 5//6 3//6
f  5//5 1//5 3//5
f  5//6 2//6 7//6
f  1//5 5//5 8//5
f  1//3 9//3 6//3
f  7//2 135//2 5//2
f  5//2 136//2 8//2
f  9//3 1//3 8//3
f  135//2 7//2 137//2
f  136//2 5//2 135//2
f  8//2 136//2 138//2
f  8//2 138//2 9//2
f  137//2 7//2 139//2
f  136//2 135//2 140//2
f  141//4 138//4 136//4
f  142//2 9//2 138//2
f  143//2 7//2 10//2
f  139//2 7//2 144//2
f  136//2 140//2 145//2
f  138//4 141//4 146//4
f  147//3 141//3 136//3
f  142//2 11//2 9//2
f  138//6 148//6 142//6
f  149//2 7//2 143//2
f  143//2 10//2 150//2
f  142//2 10//2 11//2
f  144//2 7//2 151//2
f  136//2 145//2 152//2
f  148//6 138//6 146//6
f  141//3 147//3 153//3
f  136//2 154//2 147//2
f  148//5 147//5 142//5
f  151//2 7//2 149//2
f  150//2 10//2 155//2
f  147//2 10//2 142//2
f  136//2 152//2 156//2
f  147//5 148//5 153//5
f  136//2 157//2 154//2
f  154//2 10//2 147//2
f  155//2 10//2 158//2
f  136//2 156//2 159//2
f  136//2 160//2 157//2
f  161//2 10//2 154//2
f  136//2 159//2 162//2
f  158//2 10//2 163//2
f  136//2 162//2 164//2
f  136//2 165//2 160//2
f  163//2 10//2 161//2
f  136//2 164//2 166//2
f  136//2 166//2 165//2
f  61//6 29//6 73//6
f  81//6 73//6 29//6

# Mesh 'mesh1_mesh1-geometry' with 90 faces
g mesh1_mesh1-geometry
usemtl material_4_24
f  5//1 135//1 7//1
f  8//1 136//1 5//1
f  137//1 7//1 135//1
f  135//1 5//1 136//1
f  138//1 136//1 8//1
f  9//1 138//1 8//1
f  139//1 7//1 137//1
f  137//2 140//2 135//2
f  135//1 140//1 137//1
f  140//1 135//1 136//1
f  136//5 138//5 141//5
f  138//1 9//1 142//1
f  10//1 7//1 143//1
f  144//1 7//1 139//1
f  140//2 137//2 139//2
f  139//1 137//1 140//1
f  145//1 140//1 136//1
f  146//5 141//5 138//5
f  136//6 141//6 147//6
f  9//1 11//1 142//1
f  142//3 148//3 138//3
f  143//1 7//1 149//1
f  150//1 10//1 143//1
f  11//1 10//1 142//1
f  151//1 7//1 144//1
f  145//2 139//2 144//2
f  144//1 139//1 145//1
f  140//2 139//2 145//2
f  145//1 139//1 140//1
f  152//1 145//1 136//1
f  146//1 148//1 141//1
f  146//3 138//3 148//3
f  153//6 147//6 141//6
f  147//1 154//1 136//1
f  142//4 147//4 148//4
f  149//1 7//1 151//1
f  159//2 149//2 143//2
f  143//1 149//1 159//1
f  155//1 10//1 150//1
f  162//2 143//2 150//2
f  150//1 143//1 162//1
f  142//1 10//1 147//1
f  152//2 144//2 151//2
f  151//1 144//1 152//1
f  145//2 144//2 152//2
f  152//1 144//1 145//1
f  156//1 152//1 136//1
f  153//1 141//1 148//1
f  153//4 148//4 147//4
f  154//1 157//1 136//1
f  147//1 10//1 154//1
f  156//2 151//2 149//2
f  149//1 151//1 156//1
f  156//2 149//2 159//2
f  159//1 149//1 156//1
f  159//2 143//2 162//2
f  162//1 143//1 159//1
f  158//1 10//1 155//1
f  164//2 150//2 155//2
f  155//1 150//1 164//1
f  162//2 150//2 164//2
f  164//1 150//1 162//1
f  152//2 151//2 156//2
f  156//1 151//1 152//1
f  159//1 156//1 136//1
f  157//1 160//1 136//1
f  157//2 161//2 154//2
f  154//1 161//1 157//1
f  154//1 10//1 161//1
f  162//1 159//1 136//1
f  163//1 10//1 158//1
f  166//2 155//2 158//2
f  158//1 155//1 166//1
f  164//2 155//2 166//2
f  166//1 155//1 164//1
f  164//1 162//1 136//1
f  160//1 165//1 136//1
f  160//2 161//2 157//2
f  157//1 161//1 160//1
f  161//1 10//1 163//1
f  165//2 158//2 163//2
f  163//1 158//1 165//1
f  166//2 158//2 165//2
f  165//1 158//1 166//1
f  166//1 164//1 136//1
f  165//1 166//1 136//1
f  165//2 163//2 160//2
f  160//1 163//1 165//1
f  160//2 163//2 161//2
f  161//1 163//1 160//1

# Mesh 'mesh1_mesh1-geometry' with 2 faces
g mesh1_mesh1-geometry
usemtl material_3_24
f  141//2 148//2 146//2
f  148//2 141//2 153//2

# Mesh 'mesh1_mesh1-geometry' with 126 faces
g mesh1_mesh1-geometry
usemtl material_2_24
f  13//22 16//1 11//1
f  15//24 20//22 13//22
f  16//1 13//22 20//22
f  21//20 11//1 16//1
f  20//22 15//24 26//24
f  20//5 21//5 16//5
f  11//1 21//20 27//20
f  18//5 29//5 22//5
f  34//23 26//24 15//24
f  21//5 20//5 26//5
f  36//18 27//20 21//20
f  22//5 29//5 28//5
f  26//24 34//23 47//23
f  21//5 26//5 36//5
f  27//20 36//18 48//18
f  28//5 29//5 50//5
f  33//5 35//5 45//5
f  57//26 34//23 46//26
f  34//23 57//26 47//23
f  36//5 26//5 47//5
f  58//14 48//18 36//18
f  61//5 50//5 29//5
f  67//13 44//19 54//13
f  69//19 55//21 44//19
f  35//5 33//5 56//5
f  46//26 71//25 57//26
f  58//5 47//5 57//5
f  36//5 47//5 58//5
f  48//18 58//14 59//14
f  66//11 67//13 54//13
f  44//19 67//13 69//19
f  77//21 68//6 55//21
f  55//21 69//19 77//21
f  71//25 46//26 70//25
f  78//5 57//5 71//5
f  58//5 57//5 79//5
f  58//14 72//15 59//14
f  76//9 85//11 66//11
f  67//13 66//11 85//11
f  86//5 69//5 67//5
f  87//6 70//25 68//6
f  68//6 77//21 87//6
f  88//5 77//5 69//5
f  70//25 87//6 71//25
f  89//5 57//5 78//5
f  78//5 71//5 90//5
f  79//5 57//5 89//5
f  79//5 91//5 58//5
f  72//15 58//14 91//15
f  91//15 80//16 72//15
f  84//2 96//9 76//9
f  85//11 76//9 96//9
f  97//5 67//5 85//5
f  98//5 69//5 86//5
f  86//5 67//5 99//5
f  100//5 87//5 77//5
f  101//5 77//5 88//5
f  88//5 69//5 102//5
f  103//5 71//5 87//5
f  104//5 89//5 78//5
f  90//5 71//5 105//5
f  106//5 78//5 90//5
f  89//5 104//5 79//5
f  91//5 79//5 104//5
f  80//16 91//15 107//16
f  96//9 84//2 114//2
f  115//5 85//5 96//5
f  97//5 99//5 67//5
f  97//5 85//5 115//5
f  102//5 69//5 98//5
f  116//5 98//5 86//5
f  117//5 86//5 99//5
f  103//5 87//5 100//5
f  100//5 77//5 101//5
f  118//5 101//5 88//5
f  119//5 88//5 102//5
f  105//5 71//5 103//5
f  104//5 78//5 106//5
f  120//5 90//5 105//5
f  106//5 90//5 120//5
f  91//5 104//5 106//5
f  91//5 106//5 107//5
f  107//16 108//3 80//16
f  109//2 110//2 93//2
f  113//7 114//2 84//2
f  125//5 96//5 114//5
f  115//5 96//5 125//5
f  97//5 117//5 99//5
f  115//8 126//10 97//10
f  127//5 102//5 98//5
f  127//5 98//5 116//5
f  116//5 86//5 117//5
f  128//5 103//5 100//5
f  129//5 100//5 101//5
f  129//5 101//5 118//5
f  118//5 88//5 119//5
f  119//5 102//5 127//5
f  130//5 105//5 103//5
f  120//5 105//5 130//5
f  107//5 106//5 120//5
f  108//3 107//16 131//3
f  131//3 121//17 108//3
f  110//2 109//2 122//2
f  124//8 125//7 113//7
f  114//2 113//7 125//7
f  125//7 124//8 115//8
f  133//5 117//5 97//5
f  126//10 115//8 124//8
f  126//10 133//12 97//10
f  133//5 127//5 116//5
f  133//5 116//5 117//5
f  130//5 103//5 128//5
f  128//5 100//5 129//5
f  131//5 129//5 118//5
f  134//5 118//5 119//5
f  133//5 119//5 127//5
f  107//5 120//5 130//5
f  107//5 128//5 131//5
f  121//17 131//3 134//17
f  134//17 132//12 121//17
f  133//12 126//10 132//12
f  107//5 130//5 128//5
f  131//5 128//5 129//5
f  131//5 118//5 134//5
f  134//5 119//5 133//5
f  132//12 134//17 133//12

# Mesh 'mesh2_mesh2-geometry' with 21 faces
g mesh2_mesh2-geometry
usemtl material_0_0
l  1 3
l  6 1
l  3 2
l  4 6
l  2 4
l  4 49
l  38 49
l  49 73
l  50 49
l  14 38
l  38 28
l  73 61
l  14 22
l  12 14
l  81 12
l  12 18
l  12 10
l  81 29
l  7 10
l  10 11
l  11 9

# Mesh 'mesh3_mesh3-geometry' with 8 faces
g mesh3_mesh3-geometry
usemtl material_0_0
l  24 32
l  19 24
l  24 33
l  32 25
l  32 56
l  25 19
l  19 45
l  25 35

# Mesh 'mesh4_mesh4-geometry' with 4 faces
g mesh4_mesh4-geometry
usemtl material_0_0
l  122 109
l  110 122
l  109 93
l  93 110

# Mesh 'mesh5_mesh5-geometry' with 24 faces
g mesh5_mesh5-geometry
usemtl material_0_0
l  31 23
l  43 31
l  23 30
l  42 43
l  30 40
l  41 42
l  40 51
l  53 41
l  51 39
l  65 53
l  39 52
l  62 65
l  52 63
l  64 62
l  63 74
l  75 64
l  74 82
l  83 75
l  82 94
l  95 83
l  94 111
l  112 95
l  111 123
l  123 112

