# File produced by Open Asset Import Library (http://www.assimp.sf.net)
# (assimp v3.2.202087883)

mtllib model_normalized.mtl

# 168 vertex positions
v 0.068325 -0.298673 0.064909
v -0.029456 -0.298673 -0.062631
v -0.029456 -0.298673 0.064909
v 0.068325 -0.298673 -0.062631
v -0.029456 -0.309301 0.064909
v 0.068325 -0.309301 -0.062631
v -0.029456 -0.309301 -0.062631
v 0.068325 -0.309301 0.064909
v 0.068325 0.013567 0.064909
v -0.029456 0.013567 -0.062631
v -0.029456 0.013567 0.064909
v 0.068325 0.013567 -0.062631
v -0.029456 0.002939 0.064909
v 0.068325 0.002939 -0.062631
v -0.029456 0.002939 -0.062631
v 0.068325 0.002939 0.064909
v 0.068325 0.130033 0.064909
v -0.029456 0.130033 -0.062631
v -0.029456 0.130033 0.064909
v 0.068325 0.130033 -0.062631
v -0.029456 0.119405 0.064909
v 0.068325 0.119405 -0.062631
v -0.029456 0.119405 -0.062631
v 0.068325 0.119405 0.064909
v 0.068325 0.267203 0.064909
v -0.029456 0.267203 -0.062631
v -0.029456 0.267203 0.064909
v 0.068325 0.267203 -0.062631
v -0.029456 0.256575 0.064909
v 0.068325 0.256575 -0.062631
v -0.029456 0.256575 -0.062631
v 0.068325 0.256575 0.064909
v 0.078953 -0.307641 0.064908
v 0.278764 -0.307641 -0.062631
v 0.278764 -0.307641 0.064908
v 0.078953 -0.307641 -0.062631
v 0.278764 -0.297013 -0.062631
v 0.278764 -0.297013 0.064908
v 0.078953 -0.297013 -0.062631
v 0.078953 -0.297013 0.064908
v 0.078953 0.214604 0.064908
v 0.278764 0.214604 -0.062631
v 0.278764 0.214604 0.064908
v 0.078953 0.214604 -0.062631
v 0.278764 0.225232 -0.062631
v 0.278764 0.225232 0.064908
v 0.078953 0.225232 -0.062631
v 0.078953 0.225232 0.064908
v 0.078953 0.315424 0.064908
v 0.278764 0.315424 -0.062631
v 0.278764 0.315424 0.064908
v 0.078953 0.315424 -0.062631
v 0.278764 0.326052 -0.062631
v 0.278764 0.326052 0.064908
v 0.078953 0.326052 -0.062631
v 0.078953 0.326052 0.064908
v 0.078953 -0.170854 0.064908
v 0.278764 -0.170854 -0.062631
v 0.278764 -0.170854 0.064908
v 0.078953 -0.170854 -0.062631
v 0.278764 -0.160225 -0.062631
v 0.278764 -0.160225 0.064908
v 0.078953 -0.160225 -0.062631
v 0.078953 -0.160225 0.064908
v 0.078953 0.111421 0.064908
v 0.278764 0.111421 -0.062631
v 0.278764 0.111421 0.064908
v 0.078953 0.111421 -0.062631
v 0.278764 0.122049 -0.062631
v 0.278764 0.122049 0.064908
v 0.078953 0.122049 -0.062631
v 0.078953 0.122049 0.064908
v 0.068325 -0.179671 0.064909
v -0.029456 -0.179671 -0.062631
v -0.029456 -0.179671 0.064909
v 0.068325 -0.179671 -0.062631
v -0.029456 -0.190300 0.064909
v 0.068325 -0.190300 -0.062631
v -0.029456 -0.190300 -0.062631
v 0.068325 -0.190300 0.064909
v -0.341927 -0.362873 0.064908
v -0.040084 -0.362873 -0.062631
v -0.040084 -0.362873 0.064908
v -0.341927 -0.362873 -0.062631
v -0.040084 -0.352245 -0.062631
v -0.040084 -0.352245 0.064908
v -0.341927 -0.352245 -0.062631
v -0.341927 -0.352245 0.064908
v -0.341927 0.179579 0.064908
v -0.040084 0.179579 -0.062631
v -0.040084 0.179579 0.064908
v -0.341927 0.179579 -0.062631
v -0.040084 0.190207 -0.062631
v -0.040084 0.190207 0.064908
v -0.341927 0.190207 -0.062631
v -0.341927 0.190207 0.064908
v -0.341927 0.291372 0.064908
v -0.040084 0.291372 -0.062631
v -0.040084 0.291372 0.064908
v -0.341927 0.291372 -0.062631
v -0.040084 0.302000 -0.062631
v -0.040084 0.302000 0.064908
v -0.341927 0.302000 -0.062631
v -0.341927 0.302000 0.064908
v -0.341927 0.076798 0.064908
v -0.040084 0.076798 -0.062631
v -0.040084 0.076798 0.064908
v -0.341927 0.076798 -0.062631
v -0.040084 0.087426 -0.062631
v -0.040084 0.087426 0.064908
v -0.341927 0.087426 -0.062631
v -0.341927 0.087426 0.064908
v -0.341927 -0.117799 0.040995
v -0.040084 -0.117799 -0.086545
v -0.040084 -0.117799 0.040995
v -0.341927 -0.117799 -0.086545
v -0.040084 -0.107170 -0.086545
v -0.040084 -0.107170 0.040995
v -0.341927 -0.107170 -0.086545
v -0.341927 -0.107170 0.040995
v -0.341927 -0.250214 0.064908
v -0.040084 -0.250214 -0.062631
v -0.040084 -0.250214 0.064908
v -0.341927 -0.250214 -0.062631
v -0.040084 -0.239586 -0.062631
v -0.040084 -0.239586 0.064908
v -0.341927 -0.239586 -0.062631
v -0.341927 -0.239586 0.064908
v 0.078953 0.010106 0.064908
v 0.278764 0.010106 -0.062631
v 0.278764 0.010106 0.064908
v 0.078953 0.010106 -0.062631
v 0.278764 0.020734 -0.062631
v 0.278764 0.020734 0.064908
v 0.078953 0.020734 -0.062631
v 0.078953 0.020734 0.064908
v -0.341927 0.385356 -0.062631
v -0.341927 -0.362873 0.064909
v -0.341927 0.385356 0.064909
v -0.341927 -0.362873 -0.062631
v -0.352555 -0.362873 0.064909
v -0.352555 0.385356 -0.062631
v -0.352555 -0.362873 -0.062631
v -0.352555 0.385356 0.064909
v 0.289393 0.381945 -0.062631
v 0.289393 -0.366286 0.064909
v 0.289393 0.381945 0.064909
v 0.289393 -0.366286 -0.062631
v 0.278764 -0.366286 0.064909
v 0.278764 0.381945 -0.062631
v 0.278764 -0.366286 -0.062631
v 0.278764 0.381945 0.064909
v -0.029456 0.385356 -0.062631
v -0.029456 -0.362873 0.064909
v -0.029456 0.385356 0.064909
v -0.029456 -0.362873 -0.062631
v -0.040084 -0.362873 0.064909
v -0.040084 0.385356 -0.062631
v -0.040084 -0.362873 -0.062631
v -0.040084 0.385356 0.064909
v 0.078953 0.384221 -0.062631
v 0.078953 -0.364008 0.064909
v 0.078953 0.384221 0.064909
v 0.078953 -0.364008 -0.062631
v 0.068325 -0.364008 0.064909
v 0.068325 0.384221 -0.062631
v 0.068325 -0.364008 -0.062631
v 0.068325 0.384221 0.064909

# 43 UV coordinates
vt 0.297845 0 0
vt 0 0.198335 0
vt 0 0 0
vt 0.297845 0.198335 0
vt -0.388494 0.016528 0
vt 0 0.016528 0
vt 0.297845 0.016528 0
vt 0.388494 0 0
vt 0.388494 0.016528 0
vt -0.297845 0 0
vt -0.297845 0.016528 0
vt -0.388494 0 0
vt -0.297845 0.198335 0
vt -0.608641 0.198335 0
vt -0.608641 -0 0
vt 0.608641 0.016528 0
vt 0.608641 0 0
vt -0.608641 0.016528 0
vt 0.608641 0.198335 0
vt 22.7989 3.20411 0
vt 22.7989 3.25491 0
vt 23.3752 3.20411 0
vt -19.3865 2.29675 0
vt -20.2894 2.29675 0
vt -19.3865 2.34755 0
vt 20.2894 2.29675 0
vt 19.3865 2.29675 0
vt 20.2894 2.34755 0
vt 23.3752 3.25491 0
vt 19.3865 2.34755 0
vt -20.2894 2.34755 0
vt 19.3865 24.1142 0
vt 19.3865 24.7238 0
vt 20.2894 24.1142 0
vt 20.2894 24.7238 0
vt -0.388494 1.16356 0
vt -0 1.16356 0
vt 0.032375 1.16356 0
vt 0.032375 0 0
vt 0.032375 0.198335 0
vt -0.032375 0 0
vt -0.032375 1.16356 0
vt -0.032375 0.198335 0

# 8 vertex normals
vn 0 0.0254 0
vn -0.0254 0 0
vn 0 0 0.0254
vn 0.0254 0 0
vn 0 0 -0.0254
vn 0 -0.0254 0
vn -0.0383702 0 0
vn 0.0383702 -0 -0

# Mesh 'mesh1_mesh1-geometry' with 12 faces
g mesh1_mesh1-geometry
usemtl material_0_1_8
f  1/1/1 2/2/1 3/3/1
f  2/2/1 1/1/1 4/4/1
f  2/5/2 5/3/2 3/6/2
f  5/3/3 1/7/3 3/6/3
f  1/6/4 6/8/4 4/9/4
f  6/10/5 2/6/5 4/11/5
f  5/3/2 2/5/2 7/12/2
f  1/7/3 5/3/3 8/1/3
f  6/8/4 1/6/4 8/3/4
f  2/6/5 6/10/5 7/3/5
f  6/13/6 5/3/6 7/2/6
f  5/3/6 6/13/6 8/10/6

# Mesh 'mesh1_mesh1-geometry' with 12 faces
g mesh1_mesh1-geometry
usemtl material_1_24
f  3//6 2//6 1//6
f  4//6 1//6 2//6
f  3//4 5//4 2//4
f  3//5 1//5 5//5
f  4//2 6//2 1//2
f  4//3 2//3 6//3
f  7//4 2//4 5//4
f  8//5 5//5 1//5
f  8//2 1//2 6//2
f  7//3 6//3 2//3
f  7//1 5//1 6//1
f  8//1 6//1 5//1

# Mesh 'mesh1_mesh1-geometry' with 12 faces
g mesh1_mesh1-geometry
usemtl material_0_1_8
f  9/1/1 10/2/1 11/3/1
f  10/2/1 9/1/1 12/4/1
f  10/5/2 13/3/2 11/6/2
f  13/3/3 9/7/3 11/6/3
f  9/6/4 14/8/4 12/9/4
f  14/10/5 10/6/5 12/11/5
f  13/3/2 10/5/2 15/12/2
f  9/7/3 13/3/3 16/1/3
f  14/8/4 9/6/4 16/3/4
f  10/6/5 14/10/5 15/3/5
f  14/13/6 13/3/6 15/2/6
f  13/3/6 14/13/6 16/10/6

# Mesh 'mesh1_mesh1-geometry' with 12 faces
g mesh1_mesh1-geometry
usemtl material_1_24
f  11//6 10//6 9//6
f  12//6 9//6 10//6
f  11//4 13//4 10//4
f  11//5 9//5 13//5
f  12//2 14//2 9//2
f  12//3 10//3 14//3
f  15//4 10//4 13//4
f  16//5 13//5 9//5
f  16//2 9//2 14//2
f  15//3 14//3 10//3
f  15//1 13//1 14//1
f  16//1 14//1 13//1

# Mesh 'mesh1_mesh1-geometry' with 12 faces
g mesh1_mesh1-geometry
usemtl material_0_1_8
f  17/1/1 18/2/1 19/3/1
f  18/2/1 17/1/1 20/4/1
f  18/5/2 21/3/2 19/6/2
f  21/3/3 17/7/3 19/6/3
f  17/6/4 22/8/4 20/9/4
f  22/10/5 18/6/5 20/11/5
f  21/3/2 18/5/2 23/12/2
f  17/7/3 21/3/3 24/1/3
f  22/8/4 17/6/4 24/3/4
f  18/6/5 22/10/5 23/3/5
f  22/13/6 21/3/6 23/2/6
f  21/3/6 22/13/6 24/10/6

# Mesh 'mesh1_mesh1-geometry' with 12 faces
g mesh1_mesh1-geometry
usemtl material_1_24
f  19//6 18//6 17//6
f  20//6 17//6 18//6
f  19//4 21//4 18//4
f  19//5 17//5 21//5
f  20//2 22//2 17//2
f  20//3 18//3 22//3
f  23//4 18//4 21//4
f  24//5 21//5 17//5
f  24//2 17//2 22//2
f  23//3 22//3 18//3
f  23//1 21//1 22//1
f  24//1 22//1 21//1

# Mesh 'mesh1_mesh1-geometry' with 12 faces
g mesh1_mesh1-geometry
usemtl material_0_1_8
f  25/1/1 26/2/1 27/3/1
f  26/2/1 25/1/1 28/4/1
f  26/5/2 29/3/2 27/6/2
f  29/3/3 25/7/3 27/6/3
f  25/6/4 30/8/4 28/9/4
f  30/10/5 26/6/5 28/11/5
f  29/3/2 26/5/2 31/12/2
f  25/7/3 29/3/3 32/1/3
f  30/8/4 25/6/4 32/3/4
f  26/6/5 30/10/5 31/3/5
f  30/13/6 29/3/6 31/2/6
f  29/3/6 30/13/6 32/10/6

# Mesh 'mesh1_mesh1-geometry' with 12 faces
g mesh1_mesh1-geometry
usemtl material_1_24
f  27//6 26//6 25//6
f  28//6 25//6 26//6
f  27//4 29//4 26//4
f  27//5 25//5 29//5
f  28//2 30//2 25//2
f  28//3 26//3 30//3
f  31//4 26//4 29//4
f  32//5 29//5 25//5
f  32//2 25//2 30//2
f  31//3 30//3 26//3
f  31//1 29//1 30//1
f  32//1 30//1 29//1

# Mesh 'mesh2_mesh2-geometry' with 12 faces
g mesh2_mesh2-geometry
usemtl material_0_1_8
f  33/14/6 34/3/6 35/2/6
f  34/3/6 33/14/6 36/15/6
f  35/8/2 37/6/2 34/3/2
f  38/6/3 33/15/3 35/3/3
f  33/8/2 39/6/2 36/3/2
f  39/16/5 34/3/5 36/17/5
f  37/6/2 35/8/2 38/9/2
f  34/3/5 39/16/5 37/6/5
f  33/15/3 38/6/3 40/18/3
f  39/6/2 33/8/2 40/9/2
f  39/17/1 38/2/1 37/3/1
f  38/2/1 39/17/1 40/19/1

# Mesh 'mesh2_mesh2-geometry' with 4 faces
g mesh2_mesh2-geometry
usemtl material_1_24
f  35/3/1 34/3/1 33/3/1
f  36/3/1 33/3/1 34/3/1
f  36/3/4 39/3/4 33/3/4
f  40/3/4 33/3/4 39/3/4

# Mesh 'mesh2_mesh2-geometry' with 8 faces
g mesh2_mesh2-geometry
usemtl material_2_2_8
f  34/20/4 37/21/4 35/22/4
f  35/23/5 33/24/5 38/25/5
f  36/26/3 34/27/3 39/28/3
f  38/29/4 35/22/4 37/21/4
f  37/30/3 39/28/3 34/27/3
f  40/31/5 38/25/5 33/24/5
f  37/32/6 38/33/6 39/34/6
f  40/35/6 39/34/6 38/33/6

# Mesh 'mesh2_mesh2-geometry' with 12 faces
g mesh2_mesh2-geometry
usemtl material_0_1_8
f  41/14/6 42/3/6 43/2/6
f  42/3/6 41/14/6 44/15/6
f  43/8/2 45/6/2 42/3/2
f  46/6/3 41/15/3 43/3/3
f  41/8/2 47/6/2 44/3/2
f  47/16/5 42/3/5 44/17/5
f  45/6/2 43/8/2 46/9/2
f  42/3/5 47/16/5 45/6/5
f  41/15/3 46/6/3 48/18/3
f  47/6/2 41/8/2 48/9/2
f  47/17/1 46/2/1 45/3/1
f  46/2/1 47/17/1 48/19/1

# Mesh 'mesh2_mesh2-geometry' with 4 faces
g mesh2_mesh2-geometry
usemtl material_1_24
f  43/3/1 42/3/1 41/3/1
f  44/3/1 41/3/1 42/3/1
f  44/3/4 47/3/4 41/3/4
f  48/3/4 41/3/4 47/3/4

# Mesh 'mesh2_mesh2-geometry' with 8 faces
g mesh2_mesh2-geometry
usemtl material_2_2_8
f  42/20/4 45/21/4 43/22/4
f  43/23/5 41/24/5 46/25/5
f  44/26/3 42/27/3 47/28/3
f  46/29/4 43/22/4 45/21/4
f  45/30/3 47/28/3 42/27/3
f  48/31/5 46/25/5 41/24/5
f  45/32/6 46/33/6 47/34/6
f  48/35/6 47/34/6 46/33/6

# Mesh 'mesh2_mesh2-geometry' with 12 faces
g mesh2_mesh2-geometry
usemtl material_0_1_8
f  49/14/6 50/3/6 51/2/6
f  50/3/6 49/14/6 52/15/6
f  51/8/2 53/6/2 50/3/2
f  54/6/3 49/15/3 51/3/3
f  49/8/2 55/6/2 52/3/2
f  55/16/5 50/3/5 52/17/5
f  53/6/2 51/8/2 54/9/2
f  50/3/5 55/16/5 53/6/5
f  49/15/3 54/6/3 56/18/3
f  55/6/2 49/8/2 56/9/2
f  55/17/1 54/2/1 53/3/1
f  54/2/1 55/17/1 56/19/1

# Mesh 'mesh2_mesh2-geometry' with 4 faces
g mesh2_mesh2-geometry
usemtl material_1_24
f  51/3/1 50/3/1 49/3/1
f  52/3/1 49/3/1 50/3/1
f  52/3/4 55/3/4 49/3/4
f  56/3/4 49/3/4 55/3/4

# Mesh 'mesh2_mesh2-geometry' with 8 faces
g mesh2_mesh2-geometry
usemtl material_2_2_8
f  50/20/4 53/21/4 51/22/4
f  51/23/5 49/24/5 54/25/5
f  52/26/3 50/27/3 55/28/3
f  54/29/4 51/22/4 53/21/4
f  53/30/3 55/28/3 50/27/3
f  56/31/5 54/25/5 49/24/5
f  53/32/6 54/33/6 55/34/6
f  56/35/6 55/34/6 54/33/6

# Mesh 'mesh2_mesh2-geometry' with 12 faces
g mesh2_mesh2-geometry
usemtl material_0_1_8
f  57/14/6 58/3/6 59/2/6
f  58/3/6 57/14/6 60/15/6
f  59/8/2 61/6/2 58/3/2
f  62/6/3 57/15/3 59/3/3
f  57/8/2 63/6/2 60/3/2
f  63/16/5 58/3/5 60/17/5
f  61/6/2 59/8/2 62/9/2
f  58/3/5 63/16/5 61/6/5
f  57/15/3 62/6/3 64/18/3
f  63/6/2 57/8/2 64/9/2
f  63/17/1 62/2/1 61/3/1
f  62/2/1 63/17/1 64/19/1

# Mesh 'mesh2_mesh2-geometry' with 4 faces
g mesh2_mesh2-geometry
usemtl material_1_24
f  59/3/1 58/3/1 57/3/1
f  60/3/1 57/3/1 58/3/1
f  60/3/4 63/3/4 57/3/4
f  64/3/4 57/3/4 63/3/4

# Mesh 'mesh2_mesh2-geometry' with 8 faces
g mesh2_mesh2-geometry
usemtl material_2_2_8
f  58/20/4 61/21/4 59/22/4
f  59/23/5 57/24/5 62/25/5
f  60/26/3 58/27/3 63/28/3
f  62/29/4 59/22/4 61/21/4
f  61/30/3 63/28/3 58/27/3
f  64/31/5 62/25/5 57/24/5
f  61/32/6 62/33/6 63/34/6
f  64/35/6 63/34/6 62/33/6

# Mesh 'mesh2_mesh2-geometry' with 12 faces
g mesh2_mesh2-geometry
usemtl material_0_1_8
f  65/14/6 66/3/6 67/2/6
f  66/3/6 65/14/6 68/15/6
f  67/8/2 69/6/2 66/3/2
f  70/6/3 65/15/3 67/3/3
f  65/8/2 71/6/2 68/3/2
f  71/16/5 66/3/5 68/17/5
f  69/6/2 67/8/2 70/9/2
f  66/3/5 71/16/5 69/6/5
f  65/15/3 70/6/3 72/18/3
f  71/6/2 65/8/2 72/9/2
f  71/17/1 70/2/1 69/3/1
f  70/2/1 71/17/1 72/19/1

# Mesh 'mesh2_mesh2-geometry' with 4 faces
g mesh2_mesh2-geometry
usemtl material_1_24
f  67/3/1 66/3/1 65/3/1
f  68/3/1 65/3/1 66/3/1
f  68/3/4 71/3/4 65/3/4
f  72/3/4 65/3/4 71/3/4

# Mesh 'mesh2_mesh2-geometry' with 8 faces
g mesh2_mesh2-geometry
usemtl material_2_2_8
f  66/20/4 69/21/4 67/22/4
f  67/23/5 65/24/5 70/25/5
f  68/26/3 66/27/3 71/28/3
f  70/29/4 67/22/4 69/21/4
f  69/30/3 71/28/3 66/27/3
f  72/31/5 70/25/5 65/24/5
f  69/32/6 70/33/6 71/34/6
f  72/35/6 71/34/6 70/33/6

# Mesh 'mesh1_mesh1-geometry' with 12 faces
g mesh1_mesh1-geometry
usemtl material_0_1_8
f  73/1/1 74/2/1 75/3/1
f  74/2/1 73/1/1 76/4/1
f  74/5/2 77/3/2 75/6/2
f  77/3/3 73/7/3 75/6/3
f  73/6/4 78/8/4 76/9/4
f  78/10/5 74/6/5 76/11/5
f  77/3/2 74/5/2 79/12/2
f  73/7/3 77/3/3 80/1/3
f  78/8/4 73/6/4 80/3/4
f  74/6/5 78/10/5 79/3/5
f  78/13/6 77/3/6 79/2/6
f  77/3/6 78/13/6 80/10/6

# Mesh 'mesh1_mesh1-geometry' with 12 faces
g mesh1_mesh1-geometry
usemtl material_1_24
f  75//6 74//6 73//6
f  76//6 73//6 74//6
f  75//4 77//4 74//4
f  75//5 73//5 77//5
f  76//2 78//2 73//2
f  76//3 74//3 78//3
f  79//4 74//4 77//4
f  80//5 77//5 73//5
f  80//2 73//2 78//2
f  79//3 78//3 74//3
f  79//1 77//1 78//1
f  80//1 78//1 77//1

# Mesh 'mesh2_mesh2-geometry' with 12 faces
g mesh2_mesh2-geometry
usemtl material_0_1_8
f  81/14/6 82/3/6 83/2/6
f  82/3/6 81/14/6 84/15/6
f  83/8/7 85/6/7 82/3/7
f  86/6/3 81/15/3 83/3/3
f  81/8/7 87/6/7 84/3/7
f  87/16/5 82/3/5 84/17/5
f  85/6/7 83/8/7 86/9/7
f  82/3/5 87/16/5 85/6/5
f  81/15/3 86/6/3 88/18/3
f  87/6/7 81/8/7 88/9/7
f  87/17/1 86/2/1 85/3/1
f  86/2/1 87/17/1 88/19/1

# Mesh 'mesh2_mesh2-geometry' with 4 faces
g mesh2_mesh2-geometry
usemtl material_1_24
f  83/3/1 82/3/1 81/3/1
f  84/3/1 81/3/1 82/3/1
f  84/3/8 87/3/8 81/3/8
f  88/3/8 81/3/8 87/3/8

# Mesh 'mesh2_mesh2-geometry' with 8 faces
g mesh2_mesh2-geometry
usemtl material_2_2_8
f  82/20/8 85/21/8 83/22/8
f  83/23/5 81/24/5 86/25/5
f  84/26/3 82/27/3 87/28/3
f  86/29/8 83/22/8 85/21/8
f  85/30/3 87/28/3 82/27/3
f  88/31/5 86/25/5 81/24/5
f  85/32/6 86/33/6 87/34/6
f  88/35/6 87/34/6 86/33/6

# Mesh 'mesh2_mesh2-geometry' with 12 faces
g mesh2_mesh2-geometry
usemtl material_0_1_8
f  89/14/6 90/3/6 91/2/6
f  90/3/6 89/14/6 92/15/6
f  91/8/7 93/6/7 90/3/7
f  94/6/3 89/15/3 91/3/3
f  89/8/7 95/6/7 92/3/7
f  95/16/5 90/3/5 92/17/5
f  93/6/7 91/8/7 94/9/7
f  90/3/5 95/16/5 93/6/5
f  89/15/3 94/6/3 96/18/3
f  95/6/7 89/8/7 96/9/7
f  95/17/1 94/2/1 93/3/1
f  94/2/1 95/17/1 96/19/1

# Mesh 'mesh2_mesh2-geometry' with 4 faces
g mesh2_mesh2-geometry
usemtl material_1_24
f  91/3/1 90/3/1 89/3/1
f  92/3/1 89/3/1 90/3/1
f  92/3/8 95/3/8 89/3/8
f  96/3/8 89/3/8 95/3/8

# Mesh 'mesh2_mesh2-geometry' with 8 faces
g mesh2_mesh2-geometry
usemtl material_2_2_8
f  90/20/8 93/21/8 91/22/8
f  91/23/5 89/24/5 94/25/5
f  92/26/3 90/27/3 95/28/3
f  94/29/8 91/22/8 93/21/8
f  93/30/3 95/28/3 90/27/3
f  96/31/5 94/25/5 89/24/5
f  93/32/6 94/33/6 95/34/6
f  96/35/6 95/34/6 94/33/6

# Mesh 'mesh2_mesh2-geometry' with 12 faces
g mesh2_mesh2-geometry
usemtl material_0_1_8
f  97/14/6 98/3/6 99/2/6
f  98/3/6 97/14/6 100/15/6
f  99/8/7 101/6/7 98/3/7
f  102/6/3 97/15/3 99/3/3
f  97/8/7 103/6/7 100/3/7
f  103/16/5 98/3/5 100/17/5
f  101/6/7 99/8/7 102/9/7
f  98/3/5 103/16/5 101/6/5
f  97/15/3 102/6/3 104/18/3
f  103/6/7 97/8/7 104/9/7
f  103/17/1 102/2/1 101/3/1
f  102/2/1 103/17/1 104/19/1

# Mesh 'mesh2_mesh2-geometry' with 4 faces
g mesh2_mesh2-geometry
usemtl material_1_24
f  99/3/1 98/3/1 97/3/1
f  100/3/1 97/3/1 98/3/1
f  100/3/8 103/3/8 97/3/8
f  104/3/8 97/3/8 103/3/8

# Mesh 'mesh2_mesh2-geometry' with 8 faces
g mesh2_mesh2-geometry
usemtl material_2_2_8
f  98/20/8 101/21/8 99/22/8
f  99/23/5 97/24/5 102/25/5
f  100/26/3 98/27/3 103/28/3
f  102/29/8 99/22/8 101/21/8
f  101/30/3 103/28/3 98/27/3
f  104/31/5 102/25/5 97/24/5
f  101/32/6 102/33/6 103/34/6
f  104/35/6 103/34/6 102/33/6

# Mesh 'mesh2_mesh2-geometry' with 12 faces
g mesh2_mesh2-geometry
usemtl material_0_1_8
f  105/14/6 106/3/6 107/2/6
f  106/3/6 105/14/6 108/15/6
f  107/8/7 109/6/7 106/3/7
f  110/6/3 105/15/3 107/3/3
f  105/8/7 111/6/7 108/3/7
f  111/16/5 106/3/5 108/17/5
f  109/6/7 107/8/7 110/9/7
f  106/3/5 111/16/5 109/6/5
f  105/15/3 110/6/3 112/18/3
f  111/6/7 105/8/7 112/9/7
f  111/17/1 110/2/1 109/3/1
f  110/2/1 111/17/1 112/19/1

# Mesh 'mesh2_mesh2-geometry' with 4 faces
g mesh2_mesh2-geometry
usemtl material_1_24
f  107/3/1 106/3/1 105/3/1
f  108/3/1 105/3/1 106/3/1
f  108/3/8 111/3/8 105/3/8
f  112/3/8 105/3/8 111/3/8

# Mesh 'mesh2_mesh2-geometry' with 8 faces
g mesh2_mesh2-geometry
usemtl material_2_2_8
f  106/20/8 109/21/8 107/22/8
f  107/23/5 105/24/5 110/25/5
f  108/26/3 106/27/3 111/28/3
f  110/29/8 107/22/8 109/21/8
f  109/30/3 111/28/3 106/27/3
f  112/31/5 110/25/5 105/24/5
f  109/32/6 110/33/6 111/34/6
f  112/35/6 111/34/6 110/33/6

# Mesh 'mesh2_mesh2-geometry' with 12 faces
g mesh2_mesh2-geometry
usemtl material_0_1_8
f  113/14/6 114/3/6 115/2/6
f  114/3/6 113/14/6 116/15/6
f  115/8/7 117/6/7 114/3/7
f  118/6/3 113/15/3 115/3/3
f  113/8/7 119/6/7 116/3/7
f  119/16/5 114/3/5 116/17/5
f  117/6/7 115/8/7 118/9/7
f  114/3/5 119/16/5 117/6/5
f  113/15/3 118/6/3 120/18/3
f  119/6/7 113/8/7 120/9/7
f  119/17/1 118/2/1 117/3/1
f  118/2/1 119/17/1 120/19/1

# Mesh 'mesh2_mesh2-geometry' with 4 faces
g mesh2_mesh2-geometry
usemtl material_1_24
f  115/3/1 114/3/1 113/3/1
f  116/3/1 113/3/1 114/3/1
f  116/3/8 119/3/8 113/3/8
f  120/3/8 113/3/8 119/3/8

# Mesh 'mesh2_mesh2-geometry' with 8 faces
g mesh2_mesh2-geometry
usemtl material_2_2_8
f  114/20/8 117/21/8 115/22/8
f  115/23/5 113/24/5 118/25/5
f  116/26/3 114/27/3 119/28/3
f  118/29/8 115/22/8 117/21/8
f  117/30/3 119/28/3 114/27/3
f  120/31/5 118/25/5 113/24/5
f  117/32/6 118/33/6 119/34/6
f  120/35/6 119/34/6 118/33/6

# Mesh 'mesh2_mesh2-geometry' with 12 faces
g mesh2_mesh2-geometry
usemtl material_0_1_8
f  121/14/6 122/3/6 123/2/6
f  122/3/6 121/14/6 124/15/6
f  123/8/7 125/6/7 122/3/7
f  126/6/3 121/15/3 123/3/3
f  121/8/7 127/6/7 124/3/7
f  127/16/5 122/3/5 124/17/5
f  125/6/7 123/8/7 126/9/7
f  122/3/5 127/16/5 125/6/5
f  121/15/3 126/6/3 128/18/3
f  127/6/7 121/8/7 128/9/7
f  127/17/1 126/2/1 125/3/1
f  126/2/1 127/17/1 128/19/1

# Mesh 'mesh2_mesh2-geometry' with 4 faces
g mesh2_mesh2-geometry
usemtl material_1_24
f  123/3/1 122/3/1 121/3/1
f  124/3/1 121/3/1 122/3/1
f  124/3/8 127/3/8 121/3/8
f  128/3/8 121/3/8 127/3/8

# Mesh 'mesh2_mesh2-geometry' with 8 faces
g mesh2_mesh2-geometry
usemtl material_2_2_8
f  122/20/8 125/21/8 123/22/8
f  123/23/5 121/24/5 126/25/5
f  124/26/3 122/27/3 127/28/3
f  126/29/8 123/22/8 125/21/8
f  125/30/3 127/28/3 122/27/3
f  128/31/5 126/25/5 121/24/5
f  125/32/6 126/33/6 127/34/6
f  128/35/6 127/34/6 126/33/6

# Mesh 'mesh2_mesh2-geometry' with 12 faces
g mesh2_mesh2-geometry
usemtl material_0_1_8
f  129/14/6 130/3/6 131/2/6
f  130/3/6 129/14/6 132/15/6
f  131/8/2 133/6/2 130/3/2
f  134/6/3 129/15/3 131/3/3
f  129/8/2 135/6/2 132/3/2
f  135/16/5 130/3/5 132/17/5
f  133/6/2 131/8/2 134/9/2
f  130/3/5 135/16/5 133/6/5
f  129/15/3 134/6/3 136/18/3
f  135/6/2 129/8/2 136/9/2
f  135/17/1 134/2/1 133/3/1
f  134/2/1 135/17/1 136/19/1

# Mesh 'mesh2_mesh2-geometry' with 4 faces
g mesh2_mesh2-geometry
usemtl material_1_24
f  131/3/1 130/3/1 129/3/1
f  132/3/1 129/3/1 130/3/1
f  132/3/4 135/3/4 129/3/4
f  136/3/4 129/3/4 135/3/4

# Mesh 'mesh2_mesh2-geometry' with 8 faces
g mesh2_mesh2-geometry
usemtl material_2_2_8
f  130/20/4 133/21/4 131/22/4
f  131/23/5 129/24/5 134/25/5
f  132/26/3 130/27/3 135/28/3
f  134/29/4 131/22/4 133/21/4
f  133/30/3 135/28/3 130/27/3
f  136/31/5 134/25/5 129/24/5
f  133/32/6 134/33/6 135/34/6
f  136/35/6 135/34/6 134/33/6

# Mesh 'mesh3_mesh3-geometry' with 24 faces
g mesh3_mesh3-geometry
usemtl material_0_1_8
f  137/36/2 138/3/2 139/37/2
f  138/3/2 137/36/2 140/12/2
f  139/37/4 138/3/4 137/36/4
f  140/12/4 137/36/4 138/3/4
f  139/38/3 141/3/3 138/39/3
f  138/39/5 141/3/5 139/38/5
f  142/2/1 139/39/1 137/40/1
f  137/40/6 139/39/6 142/2/6
f  140/41/5 142/37/5 137/42/5
f  137/42/3 142/37/3 140/41/3
f  138/41/6 143/2/6 140/43/6
f  140/43/1 143/2/1 138/41/1
f  141/3/3 139/38/3 144/37/3
f  144/37/5 139/38/5 141/3/5
f  143/2/6 138/41/6 141/3/6
f  141/3/1 138/41/1 143/2/1
f  139/39/1 142/2/1 144/3/1
f  144/3/6 142/2/6 139/39/6
f  142/37/5 140/41/5 143/3/5
f  143/3/3 140/41/3 142/37/3
f  142/36/2 141/3/2 144/37/2
f  144/37/4 141/3/4 142/36/4
f  141/3/2 142/36/2 143/12/2
f  143/12/4 142/36/4 141/3/4

# Mesh 'mesh3_mesh3-geometry' with 24 faces
g mesh3_mesh3-geometry
usemtl material_0_1_8
f  145/36/2 146/3/2 147/37/2
f  146/3/2 145/36/2 148/12/2
f  147/37/4 146/3/4 145/36/4
f  148/12/4 145/36/4 146/3/4
f  147/38/3 149/3/3 146/39/3
f  146/39/5 149/3/5 147/38/5
f  150/2/1 147/39/1 145/40/1
f  145/40/6 147/39/6 150/2/6
f  148/41/5 150/37/5 145/42/5
f  145/42/3 150/37/3 148/41/3
f  146/41/6 151/2/6 148/43/6
f  148/43/1 151/2/1 146/41/1
f  149/3/3 147/38/3 152/37/3
f  152/37/5 147/38/5 149/3/5
f  151/2/6 146/41/6 149/3/6
f  149/3/1 146/41/1 151/2/1
f  147/39/1 150/2/1 152/3/1
f  152/3/6 150/2/6 147/39/6
f  150/37/5 148/41/5 151/3/5
f  151/3/3 148/41/3 150/37/3
f  150/36/2 149/3/2 152/37/2
f  152/37/4 149/3/4 150/36/4
f  149/3/2 150/36/2 151/12/2
f  151/12/4 150/36/4 149/3/4

# Mesh 'mesh3_mesh3-geometry' with 24 faces
g mesh3_mesh3-geometry
usemtl material_0_1_8
f  153/36/2 154/3/2 155/37/2
f  154/3/2 153/36/2 156/12/2
f  155/37/4 154/3/4 153/36/4
f  156/12/4 153/36/4 154/3/4
f  155/38/3 157/3/3 154/39/3
f  154/39/5 157/3/5 155/38/5
f  158/2/1 155/39/1 153/40/1
f  153/40/6 155/39/6 158/2/6
f  156/41/5 158/37/5 153/42/5
f  153/42/3 158/37/3 156/41/3
f  154/41/6 159/2/6 156/43/6
f  156/43/1 159/2/1 154/41/1
f  157/3/3 155/38/3 160/37/3
f  160/37/5 155/38/5 157/3/5
f  159/2/6 154/41/6 157/3/6
f  157/3/1 154/41/1 159/2/1
f  155/39/1 158/2/1 160/3/1
f  160/3/6 158/2/6 155/39/6
f  158/37/5 156/41/5 159/3/5
f  159/3/3 156/41/3 158/37/3
f  158/36/2 157/3/2 160/37/2
f  160/37/4 157/3/4 158/36/4
f  157/3/2 158/36/2 159/12/2
f  159/12/4 158/36/4 157/3/4

# Mesh 'mesh3_mesh3-geometry' with 24 faces
g mesh3_mesh3-geometry
usemtl material_0_1_8
f  161/36/2 162/3/2 163/37/2
f  162/3/2 161/36/2 164/12/2
f  163/37/4 162/3/4 161/36/4
f  164/12/4 161/36/4 162/3/4
f  163/38/3 165/3/3 162/39/3
f  162/39/5 165/3/5 163/38/5
f  166/2/1 163/39/1 161/40/1
f  161/40/6 163/39/6 166/2/6
f  164/41/5 166/37/5 161/42/5
f  161/42/3 166/37/3 164/41/3
f  162/41/6 167/2/6 164/43/6
f  164/43/1 167/2/1 162/41/1
f  165/3/3 163/38/3 168/37/3
f  168/37/5 163/38/5 165/3/5
f  167/2/6 162/41/6 165/3/6
f  165/3/1 162/41/1 167/2/1
f  163/39/1 166/2/1 168/3/1
f  168/3/6 166/2/6 163/39/6
f  166/37/5 164/41/5 167/3/5
f  167/3/3 164/41/3 166/37/3
f  166/36/2 165/3/2 168/37/2
f  168/37/4 165/3/4 166/36/4
f  165/3/2 166/36/2 167/12/2
f  167/12/4 166/36/4 165/3/4

