# Blender v2.93.0 OBJ File: ''
# www.blender.org
mtllib Hoover.mtl
o Hoover_Cylinder.039
v -0.000000 -0.000000 -0.643729
v 0.321865 -0.000000 -0.557486
v 0.557486 -0.000000 -0.321864
v 0.643729 0.000000 0.000000
v 0.557486 0.000000 0.321865
v 0.321865 0.000000 0.557486
v 0.000000 0.000000 0.643730
v -0.321865 0.000000 0.557486
v -0.557486 0.000000 0.321865
v -0.643729 0.000000 0.000000
v -0.557486 -0.000000 -0.321864
v -0.321865 -0.000000 -0.557486
v 0.000000 -0.159134 -0.549648
v -0.000000 -0.109804 -0.615148
v 0.000000 0.159134 -0.549648
v -0.000000 0.109804 -0.615148
v 0.274824 -0.159134 -0.476009
v 0.307574 -0.109804 -0.532734
v 0.274824 0.159134 -0.476009
v 0.307574 0.109804 -0.532734
v 0.476009 -0.159134 -0.274824
v 0.532734 -0.109804 -0.307574
v 0.476009 0.159134 -0.274824
v 0.532734 0.109804 -0.307574
v 0.549648 -0.159134 0.000000
v 0.615148 -0.109804 0.000000
v 0.549648 0.159134 0.000000
v 0.615148 0.109804 0.000000
v 0.476009 -0.159134 0.274825
v 0.532734 -0.109804 0.307574
v 0.476009 0.159134 0.274824
v 0.532734 0.109804 0.307574
v 0.274824 -0.159134 0.476010
v 0.307574 -0.109804 0.532734
v 0.274824 0.159134 0.476010
v 0.307574 0.109804 0.532734
v 0.000000 -0.159134 0.549648
v 0.000000 -0.109804 0.615148
v 0.000000 0.159134 0.549648
v 0.000000 0.109804 0.615148
v -0.274824 -0.159134 0.476010
v -0.307574 -0.109804 0.532734
v -0.274824 0.159134 0.476010
v -0.307574 0.109804 0.532734
v -0.476009 -0.159134 0.274825
v -0.532734 -0.109804 0.307575
v -0.476009 0.159134 0.274825
v -0.532734 0.109804 0.307575
v -0.549648 -0.159134 0.000000
v -0.615148 -0.109804 0.000001
v -0.549648 0.159134 0.000000
v -0.615148 0.109804 0.000000
v -0.476010 -0.159134 -0.274824
v -0.532734 -0.109804 -0.307574
v -0.476010 0.159134 -0.274824
v -0.532734 0.109804 -0.307574
v -0.274825 -0.159134 -0.476009
v -0.307575 -0.109804 -0.532734
v -0.274825 0.159134 -0.476009
v -0.307575 0.109804 -0.532734
v 0.000000 -0.159134 -0.480876
v 0.240438 -0.159134 -0.416451
v 0.416451 -0.159134 -0.240438
v 0.480876 -0.159134 0.000000
v 0.416451 -0.159134 0.240438
v 0.240438 -0.159134 0.416451
v 0.000000 -0.159134 0.480876
v -0.240438 -0.159134 0.416451
v -0.416451 -0.159134 0.240438
v -0.480876 -0.159134 0.000000
v -0.416451 -0.159134 -0.240438
v -0.240438 -0.159134 -0.416450
v 0.240438 -0.196887 -0.416451
v 0.000000 -0.196887 -0.480876
v -0.240438 -0.196887 -0.416450
v 0.416451 -0.196887 -0.240438
v 0.480876 -0.196887 0.000000
v 0.416451 -0.196887 0.240438
v 0.240438 -0.196887 0.416451
v 0.000000 -0.196887 0.480876
v -0.240438 -0.196887 0.416451
v -0.416451 -0.196887 0.240438
v -0.480876 -0.196887 0.000000
v -0.416451 -0.196887 -0.240438
v 0.184143 0.159134 -0.318944
v 0.000000 0.159134 -0.368285
v -0.184143 0.159134 -0.318944
v -0.318945 0.159134 -0.184142
v -0.368285 0.159134 0.000000
v -0.318945 0.159134 0.184143
v -0.184143 0.159134 0.318945
v 0.000000 0.159134 0.368286
v 0.184143 0.159134 0.318945
v 0.318945 0.159134 0.184143
v 0.368285 0.159134 0.000000
v 0.318945 0.159134 -0.184143
v 0.000000 0.186808 -0.368285
v 0.000000 0.230376 -0.323180
v 0.161590 0.230376 -0.279882
v 0.184143 0.186808 -0.318944
v 0.279883 0.230376 -0.161590
v 0.318945 0.186808 -0.184143
v -0.184143 0.186808 -0.318944
v -0.161591 0.230376 -0.279882
v -0.318945 0.186808 -0.184142
v -0.279883 0.230376 -0.161590
v -0.368285 0.186808 0.000000
v -0.323181 0.230376 0.000000
v -0.318945 0.186808 0.184143
v -0.279883 0.230376 0.161591
v -0.184143 0.186808 0.318945
v -0.161590 0.230376 0.279883
v 0.000000 0.186808 0.368286
v 0.000000 0.230376 0.323181
v 0.184143 0.186808 0.318945
v 0.161590 0.230376 0.279883
v 0.318945 0.186808 0.184143
v 0.279883 0.230376 0.161591
v 0.368285 0.186808 0.000000
v 0.323181 0.230376 0.000000
vt 0.616416 0.882985
vt 0.660296 0.880028
vt 0.660296 0.990232
vt 0.616416 0.998308
vt 0.481389 0.880028
vt 0.525270 0.882985
vt 0.525270 0.998308
vt 0.481389 0.990231
vt 0.940826 0.709702
vt 0.896945 0.717779
vt 0.896945 0.602455
vt 0.940826 0.599499
vt 0.896945 0.469292
vt 0.940825 0.472248
vt 0.896945 0.353969
vt 0.940826 0.362045
vt 0.849680 0.709702
vt 0.805799 0.717779
vt 0.805799 0.602455
vt 0.849680 0.599499
vt 0.805799 0.469292
vt 0.849680 0.472248
vt 0.805799 0.353969
vt 0.849680 0.362045
vt 0.572535 0.642574
vt 0.616416 0.634498
vt 0.616416 0.749821
vt 0.572535 0.752777
vt 0.572535 0.880028
vt 0.525270 0.634498
vt 0.569151 0.642574
vt 0.569151 0.752777
vt 0.525270 0.749821
vt 0.481389 0.752777
vt 0.572535 0.990232
vt 0.660296 0.752777
vt 0.660296 0.642574
vt 0.761918 0.472248
vt 0.761918 0.362045
vt 0.761918 0.599499
vt 0.761918 0.709702
vt 0.853064 0.472248
vt 0.853064 0.362045
vt 0.853064 0.599499
vt 0.853064 0.709702
vt 0.569151 0.880028
vt 0.569151 0.990231
vt 0.065506 0.414191
vt 0.001692 0.303662
vt 0.027051 0.296867
vt 0.084069 0.395627
vt 0.171795 0.481389
vt 0.296319 0.481389
vt 0.289689 0.506131
vt 0.178424 0.506131
vt 0.001692 0.176035
vt 0.027051 0.182829
vt 0.063954 0.543651
vt 0.082066 0.561763
vt 0.065506 0.065506
vt 0.084070 0.084070
vt 0.001692 0.651492
vt 0.026434 0.658121
vt 0.176035 0.001692
vt 0.182830 0.027051
vt 0.001692 0.776016
vt 0.026434 0.769386
vt 0.303663 0.001692
vt 0.296868 0.027051
vt 0.063954 0.883857
vt 0.082066 0.865744
vt 0.414191 0.065506
vt 0.395628 0.084070
vt 0.171795 0.946119
vt 0.178424 0.921377
vt 0.478005 0.176035
vt 0.452647 0.182830
vt 0.296319 0.946119
vt 0.289689 0.921377
vt 0.478005 0.303663
vt 0.452647 0.296868
vt 0.404159 0.883857
vt 0.386047 0.865745
vt 0.414191 0.414191
vt 0.395628 0.395628
vt 0.466421 0.776016
vt 0.441680 0.769386
vt 0.303662 0.478005
vt 0.296868 0.452647
vt 0.466421 0.651492
vt 0.441680 0.658122
vt 0.176035 0.478005
vt 0.182830 0.452647
vt 0.404160 0.543651
vt 0.386047 0.561764
vt 0.481389 0.642574
vt 0.053676 0.289733
vt 0.103561 0.376136
vt 0.053676 0.189964
vt 0.103561 0.103561
vt 0.189964 0.053676
vt 0.289733 0.053676
vt 0.376137 0.103561
vt 0.426021 0.189964
vt 0.426021 0.289733
vt 0.376136 0.376136
vt 0.289733 0.426021
vt 0.189964 0.426021
vt 0.271333 0.574639
vt 0.196781 0.574639
vt 0.335896 0.611915
vt 0.373172 0.676478
vt 0.373172 0.751030
vt 0.335896 0.815593
vt 0.271333 0.852869
vt 0.196781 0.852869
vt 0.132217 0.815593
vt 0.094941 0.751030
vt 0.094941 0.676478
vt 0.132217 0.611914
vt 0.863086 0.148597
vt 0.863086 0.216776
vt 0.851657 0.216776
vt 0.851657 0.148597
vt 0.758534 0.817299
vt 0.758534 0.902137
vt 0.743677 0.902137
vt 0.743677 0.817299
vt 0.702578 0.350585
vt 0.609093 0.350585
vt 0.528132 0.303842
vt 0.481389 0.222881
vt 0.481389 0.129395
vt 0.528132 0.048435
vt 0.609093 0.001692
vt 0.702578 0.001692
vt 0.783539 0.048435
vt 0.830282 0.129395
vt 0.830282 0.222881
vt 0.783539 0.303842
vt 0.899569 0.001692
vt 0.899569 0.086530
vt 0.884711 0.086530
vt 0.884711 0.001692
vt 0.758534 0.634498
vt 0.758534 0.719336
vt 0.743677 0.719336
vt 0.743677 0.634498
vt 0.917810 0.001692
vt 0.917810 0.086530
vt 0.902953 0.086530
vt 0.902953 0.001692
vt 0.881327 0.001692
vt 0.881327 0.086530
vt 0.866470 0.086530
vt 0.866470 0.001692
vt 0.899569 0.184493
vt 0.884711 0.184493
vt 0.899569 0.269331
vt 0.884711 0.269331
vt 0.917810 0.184493
vt 0.902953 0.184493
vt 0.881327 0.184493
vt 0.866470 0.184493
vt 0.917810 0.269331
vt 0.902953 0.269331
vt 0.881327 0.269331
vt 0.866470 0.269331
vt 0.729402 0.839474
vt 0.729402 0.774499
vt 0.740293 0.774499
vt 0.740293 0.839474
vt 0.729402 0.699472
vt 0.729402 0.634498
vt 0.740293 0.634498
vt 0.740293 0.699472
vt 0.708980 0.581560
vt 0.652545 0.614143
vt 0.587379 0.614143
vt 0.530943 0.581560
vt 0.498360 0.525124
vt 0.498360 0.459958
vt 0.530943 0.403523
vt 0.587379 0.370940
vt 0.652545 0.370940
vt 0.708980 0.403523
vt 0.741563 0.459958
vt 0.741563 0.525124
vt 0.725904 0.634498
vt 0.725904 0.702677
vt 0.714476 0.702677
vt 0.714476 0.634498
vt 0.863086 0.001692
vt 0.863086 0.069871
vt 0.851657 0.069871
vt 0.851657 0.001692
vt 0.663680 0.849582
vt 0.663680 0.781403
vt 0.675108 0.781403
vt 0.675108 0.849582
vt 0.725904 0.781403
vt 0.714476 0.781403
vt 0.663680 0.702677
vt 0.675108 0.702677
vt 0.725904 0.849582
vt 0.714476 0.849582
vt 0.721404 0.593983
vt 0.657092 0.631114
vt 0.693100 0.707497
vt 0.693100 0.776582
vt 0.582831 0.631114
vt 0.518519 0.593983
vt 0.481389 0.529672
vt 0.481389 0.455411
vt 0.833666 0.143776
vt 0.833666 0.074692
vt 0.518520 0.391099
vt 0.582831 0.353969
vt 0.657092 0.353969
vt 0.696484 0.776582
vt 0.696484 0.707498
vt 0.721404 0.391099
vt 0.758534 0.455411
vt 0.758534 0.529672
vt 0.663680 0.634498
vt 0.675108 0.634498
vn -0.2510 0.2438 -0.9368
vn 0.9368 -0.2438 -0.2510
vn 0.9368 -0.2438 0.2510
vn 0.6858 -0.2438 0.6858
vn 0.2510 -0.2438 0.9368
vn -0.2510 -0.2438 0.9368
vn -0.6858 -0.2438 0.6858
vn -0.9368 -0.2438 0.2510
vn -0.9368 -0.2438 -0.2510
vn -0.6858 -0.2438 -0.6858
vn 0.2510 0.2438 -0.9368
vn 0.6858 -0.2438 -0.6858
vn -0.2510 -0.2438 -0.9368
vn -0.6858 0.2438 -0.6858
vn -0.9368 0.2438 -0.2510
vn -0.9368 0.2438 0.2510
vn -0.6858 0.2438 0.6858
vn -0.2510 0.2438 0.9368
vn 0.2510 0.2438 0.9368
vn 0.6858 0.2438 0.6858
vn 0.9368 0.2438 0.2510
vn 0.9368 0.2438 -0.2510
vn 0.6858 0.2438 -0.6858
vn 0.1591 -0.7886 -0.5939
vn 0.1591 0.7886 -0.5939
vn 0.4348 -0.7886 -0.4348
vn 0.4348 0.7886 -0.4348
vn 0.5939 -0.7886 -0.1591
vn 0.5939 0.7886 -0.1591
vn 0.5939 -0.7886 0.1591
vn 0.5939 0.7886 0.1591
vn 0.4348 -0.7886 0.4348
vn 0.4348 0.7886 0.4348
vn 0.1591 -0.7886 0.5939
vn 0.1591 0.7886 0.5939
vn -0.1591 -0.7886 0.5939
vn -0.1591 0.7886 0.5939
vn -0.4348 -0.7886 0.4348
vn -0.4348 0.7886 0.4348
vn -0.5939 -0.7886 0.1591
vn -0.5939 0.7886 0.1591
vn -0.5939 -0.7886 -0.1591
vn -0.5939 0.7886 -0.1591
vn -0.4348 -0.7886 -0.4348
vn -0.4348 0.7886 -0.4348
vn -0.1591 -0.7886 -0.5939
vn -0.1591 0.7886 -0.5939
vn 0.2510 -0.2438 -0.9368
vn 0.0000 -1.0000 0.0000
vn 0.0000 1.0000 -0.0000
vn -0.2588 0.0000 0.9659
vn 0.9659 0.0000 -0.2588
vn -0.9659 0.0000 -0.2588
vn 0.2588 0.0000 -0.9659
vn 0.9659 -0.0000 0.2588
vn -0.7071 0.0000 -0.7071
vn -0.2588 0.0000 -0.9659
vn -0.7071 0.0000 0.7071
vn 0.7071 0.0000 0.7071
vn 0.7071 0.0000 -0.7071
vn -0.9659 0.0000 0.2588
vn 0.2588 0.0000 0.9659
vn 0.1830 0.7071 -0.6830
vn 0.5000 0.7071 -0.5000
vn -0.1830 0.7071 -0.6830
vn -0.5000 0.7071 -0.5000
vn -0.6830 0.7071 -0.1830
vn -0.6830 0.7071 0.1830
vn -0.5000 0.7071 0.5000
vn -0.1830 0.7071 0.6830
vn 0.1830 0.7071 0.6830
vn 0.5000 0.7071 0.5000
vn 0.6830 0.7071 0.1830
vn 0.6830 0.7071 -0.1830
usemtl Grey_2
s 1
f 12/1/1 60/2/1 16/3/1 1/4/1
f 22/5/2 3/6/2 4/7/2 26/8/2
f 26/9/3 4/10/3 5/11/3 30/12/3
f 30/12/4 5/11/4 6/13/4 34/14/4
f 34/14/5 6/13/5 7/15/5 38/16/5
f 38/17/6 7/18/6 8/19/6 42/20/6
f 42/20/7 8/19/7 9/21/7 46/22/7
f 46/22/8 9/21/8 10/23/8 50/24/8
f 50/25/9 10/26/9 11/27/9 54/28/9
f 54/28/10 11/27/10 12/1/10 58/29/10
f 1/30/11 16/31/11 20/32/11 2/33/11
f 18/34/12 2/33/12 3/6/12 22/5/12
f 58/29/13 12/1/13 1/4/13 14/35/13
f 11/27/14 56/36/14 60/2/14 12/1/14
f 10/26/15 52/37/15 56/36/15 11/27/15
f 9/21/16 48/38/16 52/39/16 10/23/16
f 8/19/17 44/40/17 48/38/17 9/21/17
f 7/18/18 40/41/18 44/40/18 8/19/18
f 6/13/19 36/42/19 40/43/19 7/15/19
f 5/11/20 32/44/20 36/42/20 6/13/20
f 4/10/21 28/45/21 32/44/21 5/11/21
f 3/6/22 24/46/22 28/47/22 4/7/22
f 2/33/23 20/32/23 24/46/23 3/6/23
f 14/48/24 18/49/24 17/50/24 13/51/24
f 20/52/25 16/53/25 15/54/25 19/55/25
f 18/49/26 22/56/26 21/57/26 17/50/26
f 24/58/27 20/52/27 19/55/27 23/59/27
f 22/56/28 26/60/28 25/61/28 21/57/28
f 28/62/29 24/58/29 23/59/29 27/63/29
f 26/60/30 30/64/30 29/65/30 25/61/30
f 32/66/31 28/62/31 27/63/31 31/67/31
f 30/64/32 34/68/32 33/69/32 29/65/32
f 36/70/33 32/66/33 31/67/33 35/71/33
f 34/68/34 38/72/34 37/73/34 33/69/34
f 40/74/35 36/70/35 35/71/35 39/75/35
f 38/72/36 42/76/36 41/77/36 37/73/36
f 44/78/37 40/74/37 39/75/37 43/79/37
f 42/76/38 46/80/38 45/81/38 41/77/38
f 48/82/39 44/78/39 43/79/39 47/83/39
f 46/80/40 50/84/40 49/85/40 45/81/40
f 52/86/41 48/82/41 47/83/41 51/87/41
f 50/84/42 54/88/42 53/89/42 49/85/42
f 56/90/43 52/86/43 51/87/43 55/91/43
f 54/88/44 58/92/44 57/93/44 53/89/44
f 60/94/45 56/90/45 55/91/45 59/95/45
f 58/92/46 14/48/46 13/51/46 57/93/46
f 16/53/47 60/94/47 59/95/47 15/54/47
f 14/96/48 1/30/48 2/33/48 18/34/48
f 13/51/49 17/50/49 62/97/49 61/98/49
f 17/50/49 21/57/49 63/99/49 62/97/49
f 21/57/49 25/61/49 64/100/49 63/99/49
f 25/61/49 29/65/49 65/101/49 64/100/49
f 29/65/49 33/69/49 66/102/49 65/101/49
f 33/69/49 37/73/49 67/103/49 66/102/49
f 37/73/49 41/77/49 68/104/49 67/103/49
f 41/77/49 45/81/49 69/105/49 68/104/49
f 45/81/49 49/85/49 70/106/49 69/105/49
f 49/85/49 53/89/49 71/107/49 70/106/49
f 53/89/49 57/93/49 72/108/49 71/107/49
f 57/93/49 13/51/49 61/98/49 72/108/49
f 19/55/50 15/54/50 86/109/50 85/110/50
f 15/54/50 59/95/50 87/111/50 86/109/50
f 59/95/50 55/91/50 88/112/50 87/111/50
f 55/91/50 51/87/50 89/113/50 88/112/50
f 51/87/50 47/83/50 90/114/50 89/113/50
f 47/83/50 43/79/50 91/115/50 90/114/50
f 43/79/50 39/75/50 92/116/50 91/115/50
f 39/75/50 35/71/50 93/117/50 92/116/50
f 35/71/50 31/67/50 94/118/50 93/117/50
f 31/67/50 27/63/50 95/119/50 94/118/50
f 27/63/50 23/59/50 96/120/50 95/119/50
f 23/59/50 19/55/50 85/110/50 96/120/50
usemtl Grey
f 91/121/51 92/122/51 113/123/51 111/124/51
f 63/125/52 64/126/52 77/127/52 76/128/52
f 74/129/49 73/130/49 76/131/49 77/132/49 78/133/49 79/134/49 80/135/49 81/136/49 82/137/49 83/138/49 84/139/49 75/140/49
f 70/141/53 71/142/53 84/143/53 83/144/53
f 61/145/54 62/146/54 73/147/54 74/148/54
f 67/149/51 68/150/51 81/151/51 80/152/51
f 64/153/55 65/154/55 78/155/55 77/156/55
f 71/142/56 72/157/56 75/158/56 84/143/56
f 72/157/57 61/159/57 74/160/57 75/158/57
f 68/150/58 69/161/58 82/162/58 81/151/58
f 65/154/59 66/163/59 79/164/59 78/155/59
f 62/146/60 63/125/60 76/128/60 73/147/60
f 69/161/61 70/165/61 83/166/61 82/162/61
f 66/163/62 67/167/62 80/168/62 79/164/62
f 86/169/57 87/170/57 103/171/57 97/172/57
f 88/173/53 89/174/53 107/175/53 105/176/53
f 99/177/50 98/178/50 104/179/50 106/180/50 108/181/50 110/182/50 112/183/50 114/184/50 116/185/50 118/186/50 120/187/50 101/188/50
f 92/189/62 93/190/62 115/191/62 113/192/62
f 89/193/61 90/194/61 109/195/61 107/196/61
f 87/170/56 88/173/56 105/176/56 103/171/56
f 95/197/52 96/198/52 102/199/52 119/200/52
f 93/190/59 94/201/59 117/202/59 115/191/59
f 90/194/58 91/121/58 111/124/58 109/195/58
f 96/198/60 85/203/60 100/204/60 102/199/60
f 94/201/55 95/205/55 119/206/55 117/202/55
f 98/178/63 99/177/63 100/207/63 97/208/63
f 99/209/64 101/210/64 102/199/64 100/204/64
f 104/179/65 98/178/65 97/208/65 103/211/65
f 106/180/66 104/179/66 103/211/66 105/212/66
f 108/181/67 106/180/67 105/212/67 107/213/67
f 110/182/68 108/181/68 107/213/68 109/214/68
f 112/215/69 110/216/69 109/195/69 111/124/69
f 114/184/70 112/183/70 111/217/70 113/218/70
f 116/185/71 114/184/71 113/218/71 115/219/71
f 118/220/72 116/221/72 115/191/72 117/202/72
f 120/187/73 118/186/73 117/222/73 119/223/73
f 101/188/74 120/187/74 119/223/74 102/224/74
f 85/203/54 86/225/54 97/226/54 100/204/54
