# Blender 4.4.3
# www.blender.org
o Mallet
v -0.000850 -0.306461 -0.033960
v -0.000850 0.036867 -0.033960
v 0.023163 -0.306461 -0.024013
v 0.023163 0.036867 -0.024013
v 0.033110 -0.306461 0.000000
v 0.033110 0.036867 -0.000000
v 0.023163 -0.306461 0.024013
v 0.023163 0.036867 0.024013
v -0.000850 -0.306461 0.033960
v -0.000850 0.036867 0.033960
v -0.024863 -0.306461 0.024013
v -0.024863 0.036867 0.024013
v -0.034810 -0.306461 0.000000
v -0.034810 0.036867 -0.000000
v -0.024863 -0.306461 -0.024013
v -0.024863 0.036867 -0.024013
v -0.000850 -0.325086 -0.025604
v 0.017254 -0.325086 -0.018104
v 0.024753 -0.325086 0.000000
v 0.017254 -0.325086 0.018105
v -0.000850 -0.325086 0.025604
v -0.018955 -0.325086 0.018105
v -0.026454 -0.325086 0.000000
v -0.018955 -0.325086 -0.018104
v -0.001033 0.216716 -0.131107
v -0.001033 0.216716 0.129461
v 0.044177 0.204602 -0.131107
v 0.044177 0.204602 0.129461
v 0.077273 0.171507 -0.131107
v 0.077273 0.171507 0.129461
v 0.089387 0.126297 -0.131107
v 0.089387 0.126297 0.129461
v 0.077273 0.081087 -0.131107
v 0.077273 0.081087 0.129461
v 0.044177 0.047991 -0.131107
v 0.044177 0.047991 0.129461
v -0.001033 0.035877 -0.131107
v -0.001033 0.035877 0.129461
v -0.046243 0.047991 -0.131107
v -0.046243 0.047991 0.129461
v -0.079339 0.081087 -0.131107
v -0.079339 0.081087 0.129461
v -0.091453 0.126297 -0.131107
v -0.091453 0.126297 0.129461
v -0.079339 0.171506 -0.131107
v -0.079339 0.171507 0.129461
v -0.046243 0.204602 -0.131107
v -0.046243 0.204602 0.129461
v -0.001033 0.212979 -0.142544
v 0.042308 0.201365 -0.142544
v 0.042308 0.201366 0.140898
v -0.001033 0.212979 0.140898
v 0.074036 0.169638 -0.142544
v 0.074036 0.169638 0.140898
v 0.085649 0.126297 -0.142544
v 0.085649 0.126297 0.140898
v 0.074036 0.082956 -0.142544
v 0.074036 0.082956 0.140898
v 0.042308 0.051228 -0.142544
v 0.042308 0.051228 0.140898
v -0.001033 0.039615 -0.142544
v -0.001033 0.039615 0.140898
v -0.044374 0.051228 -0.142544
v -0.044374 0.051228 0.140898
v -0.076102 0.082956 -0.142544
v -0.076102 0.082956 0.140898
v -0.087715 0.126297 -0.142544
v -0.087715 0.126297 0.140898
v -0.076102 0.169638 -0.142544
v -0.076102 0.169638 0.140898
v -0.044374 0.201365 -0.142544
v -0.044374 0.201366 0.140898
v -0.001033 0.229895 -0.000823
v 0.050766 0.216015 -0.000823
v 0.088685 0.178096 -0.000823
v 0.102565 0.126297 -0.000823
v 0.088685 0.074498 -0.000823
v 0.050766 0.036578 -0.000823
v -0.001033 0.022699 -0.000823
v -0.052832 0.036578 -0.000823
v -0.090751 0.074498 -0.000823
v -0.104631 0.126297 -0.000823
v -0.090751 0.178096 -0.000823
v -0.052832 0.216015 -0.000823
vn 0.3827 -0.0000 -0.9239
vn 0.9239 -0.0000 -0.3827
vn 0.9239 -0.0000 0.3827
vn 0.3827 -0.0000 0.9239
vn -0.3827 -0.0000 0.9239
vn -0.9239 -0.0000 0.3827
vn -0.9239 -0.0000 -0.3827
vn -0.3827 -0.0000 -0.9239
vn 0.8535 -0.3829 0.3535
vn -0.0000 -1.0000 -0.0000
vn -0.8535 -0.3829 0.3535
vn 0.3535 -0.3829 0.8535
vn -0.8535 -0.3829 -0.3535
vn 0.8535 -0.3829 -0.3535
vn -0.3535 -0.3829 0.8535
vn -0.3535 -0.3829 -0.8535
vn 0.3535 -0.3829 -0.8535
vn -0.0000 1.0000 -0.0000
vn 0.2576 0.9613 0.0972
vn 0.7038 0.7038 0.0972
vn 0.9613 0.2576 0.0972
vn 0.9613 -0.2576 0.0972
vn 0.7038 -0.7038 0.0972
vn 0.2576 -0.9613 0.0972
vn -0.2576 -0.9613 0.0972
vn -0.7038 -0.7038 0.0972
vn -0.9613 -0.2576 0.0972
vn -0.9613 0.2576 0.0972
vn -0.6743 -0.6743 0.3010
vn -0.7038 0.7038 0.0972
vn -0.2576 0.9613 0.0972
vn 0.9211 0.2468 0.3010
vn -0.0000 -0.0000 1.0000
vn -0.0000 -0.0000 -1.0000
vn 0.2468 0.9211 0.3010
vn 0.2468 -0.9211 -0.3010
vn -0.6743 0.6743 -0.3010
vn 0.2468 -0.9211 0.3010
vn -0.6743 0.6743 0.3010
vn 0.9211 -0.2468 -0.3010
vn -0.9211 -0.2468 -0.3010
vn 0.9211 -0.2468 0.3010
vn -0.9211 -0.2468 0.3010
vn 0.6743 0.6743 -0.3010
vn -0.2468 -0.9211 -0.3010
vn -0.2468 0.9211 -0.3010
vn 0.6743 0.6743 0.3010
vn -0.2468 -0.9211 0.3010
vn -0.2468 0.9211 0.3010
vn 0.6743 -0.6743 -0.3010
vn -0.9211 0.2468 -0.3010
vn 0.6743 -0.6743 0.3010
vn -0.9211 0.2468 0.3010
vn 0.9211 0.2468 -0.3010
vn -0.6743 -0.6743 -0.3010
vn 0.2468 0.9211 -0.3010
vn -0.2576 0.9613 -0.0972
vn -0.7038 0.7038 -0.0972
vn -0.9613 0.2576 -0.0972
vn -0.9613 -0.2576 -0.0972
vn -0.7038 -0.7038 -0.0972
vn -0.2576 -0.9613 -0.0972
vn 0.2576 -0.9613 -0.0972
vn 0.7038 -0.7038 -0.0972
vn 0.9613 -0.2576 -0.0972
vn 0.9613 0.2576 -0.0972
vn 0.7038 0.7038 -0.0972
vn 0.2576 0.9613 -0.0972
vt 0.963661 0.492261
vt 0.963661 0.001534
vt 0.998466 0.003925
vt 0.998466 0.494652
vt 0.783012 0.491973
vt 0.783012 0.005509
vt 0.817348 0.001534
vt 0.817348 0.487999
vt 0.853111 0.004665
vt 0.853111 0.491130
vt 0.856179 0.494652
vt 0.856179 0.003925
vt 0.890984 0.001534
vt 0.890984 0.492261
vt 0.925788 0.003925
vt 0.925788 0.494652
vt 0.709845 0.491973
vt 0.709845 0.005509
vt 0.744180 0.001534
vt 0.744180 0.487998
vt 0.779944 0.004665
vt 0.779944 0.491130
vt 0.928857 0.494652
vt 0.928857 0.003925
vt 0.844910 0.519734
vt 0.817947 0.517373
vt 0.535554 0.654966
vt 0.562660 0.654966
vt 0.581827 0.674133
vt 0.581827 0.701239
vt 0.562660 0.720406
vt 0.535554 0.720406
vt 0.516387 0.701239
vt 0.516387 0.674133
vt 0.744780 0.517373
vt 0.718893 0.520370
vt 0.890984 0.520890
vt 0.864743 0.522693
vt 0.771743 0.519734
vt 0.792060 0.520370
vt 0.917224 0.522693
vt 0.963661 0.520890
vt 0.937421 0.522693
vt 0.989902 0.522693
vt 0.451943 0.654966
vt 0.487896 0.654966
vt 0.513319 0.680389
vt 0.513319 0.716341
vt 0.487896 0.741764
vt 0.451943 0.741764
vt 0.426521 0.716341
vt 0.426521 0.680389
vt 0.137765 0.216726
vt 0.137765 0.018900
vt 0.206412 0.018900
vt 0.216417 0.216726
vt 0.256666 0.018900
vt 0.273995 0.216726
vt 0.277063 0.208500
vt 0.290567 0.018353
vt 0.350071 0.019976
vt 0.345240 0.210359
vt 0.418220 0.019976
vt 0.423321 0.210359
vt 0.476753 0.018353
vt 0.490386 0.208500
vt 0.277063 0.618689
vt 0.286374 0.434592
vt 0.350258 0.434592
vt 0.350258 0.618689
vt 0.414142 0.434592
vt 0.423452 0.618689
vt 0.493454 0.208397
vt 0.507344 0.019542
vt 0.565878 0.017919
vt 0.560519 0.206537
vt 0.634027 0.017919
vt 0.638600 0.206538
vt 0.693530 0.019542
vt 0.706776 0.208397
vt 0.511258 0.003090
vt 0.567372 0.001534
vt 0.001534 0.216726
vt 0.018864 0.018900
vt 0.069117 0.018900
vt 0.059112 0.216726
vt 0.294372 0.001534
vt 0.351416 0.003090
vt 0.656756 0.503141
vt 0.656756 0.565583
vt 0.625910 0.619875
vt 0.572484 0.651468
vt 0.510793 0.651898
vt 0.457367 0.621049
vt 0.426521 0.567188
vt 0.426521 0.504746
vt 0.457367 0.450454
vt 0.510793 0.418861
vt 0.572484 0.418431
vt 0.625911 0.449280
vt 0.231769 0.582138
vt 0.200924 0.636430
vt 0.147497 0.668023
vt 0.085806 0.668453
vt 0.032380 0.637604
vt 0.001534 0.583743
vt 0.001534 0.521300
vt 0.032380 0.467009
vt 0.085806 0.435416
vt 0.147498 0.434986
vt 0.200924 0.465835
vt 0.231769 0.519696
vt 0.137765 0.001534
vt 0.203575 0.001534
vt 0.286374 0.802787
vt 0.350258 0.802787
vt 0.350258 0.818948
vt 0.289015 0.818948
vt 0.018863 0.414551
vt 0.069117 0.414551
vt 0.071955 0.431917
vt 0.023778 0.431917
vt 0.289015 0.418431
vt 0.350258 0.418431
vt 0.023779 0.001534
vt 0.071955 0.001534
vt 0.349813 0.398977
vt 0.417962 0.398977
vt 0.416468 0.415362
vt 0.351136 0.415362
vt 0.565620 0.396921
vt 0.633769 0.396921
vt 0.632424 0.413807
vt 0.567092 0.413807
vt 0.416748 0.003090
vt 0.632704 0.001534
vt 0.206412 0.414551
vt 0.256666 0.414551
vt 0.251751 0.431917
vt 0.203574 0.431917
vt 0.414142 0.802787
vt 0.411501 0.818948
vt 0.137765 0.414551
vt 0.137765 0.431917
vt 0.251751 0.001534
vt 0.411501 0.418431
vt 0.476496 0.397355
vt 0.472581 0.413807
vt 0.693273 0.398544
vt 0.689468 0.415362
vt 0.472862 0.001534
vt 0.689748 0.003090
vt 0.290309 0.397355
vt 0.294091 0.413807
vt 0.507087 0.398544
vt 0.510978 0.415362
s 1
f 1/1/1 2/2/1 4/3/1 3/4/1
f 3/5/2 4/6/2 6/7/2 5/8/2
f 5/8/3 6/7/3 8/9/3 7/10/3
f 7/11/4 8/12/4 10/13/4 9/14/4
f 9/14/5 10/13/5 12/15/5 11/16/5
f 11/17/6 12/18/6 14/19/6 13/20/6
f 13/20/7 14/19/7 16/21/7 15/22/7
f 15/23/8 16/24/8 2/2/8 1/1/8
f 5/8/9 7/10/9 20/25/9 19/26/9
f 17/27/10 18/28/10 19/29/10 20/30/10 21/31/10 22/32/10 23/33/10 24/34/10
f 11/17/11 13/20/11 23/35/11 22/36/11
f 7/11/12 9/14/12 21/37/12 20/38/12
f 13/20/13 15/22/13 24/39/13 23/35/13
f 3/5/14 5/8/14 19/26/14 18/40/14
f 9/14/15 11/16/15 22/41/15 21/37/15
f 15/23/16 1/1/16 17/42/16 24/43/16
f 1/1/17 3/4/17 18/44/17 17/42/17
f 4/45/18 2/46/18 16/47/18 14/48/18 12/49/18 10/50/18 8/51/18 6/52/18
f 73/53/19 26/54/19 28/55/19 74/56/19
f 74/56/20 28/55/20 30/57/20 75/58/20
f 75/59/21 30/60/21 32/61/21 76/62/21
f 76/62/22 32/61/22 34/63/22 77/64/22
f 77/64/23 34/63/23 36/65/23 78/66/23
f 78/67/24 36/68/24 38/69/24 79/70/24
f 79/70/25 38/69/25 40/71/25 80/72/25
f 80/73/26 40/74/26 42/75/26 81/76/26
f 81/76/27 42/75/27 44/77/27 82/78/27
f 82/78/28 44/77/28 46/79/28 83/80/28
f 42/75/29 40/74/29 64/81/29 66/82/29
f 83/83/30 46/84/30 48/85/30 84/86/30
f 84/86/31 48/85/31 26/54/31 73/53/31
f 32/61/32 30/60/32 54/87/32 56/88/32
f 51/89/33 52/90/33 72/91/33 70/92/33 68/93/33 66/94/33 64/95/33 62/96/33 60/97/33 58/98/33 56/99/33 54/100/33
f 49/101/34 50/102/34 53/103/34 55/104/34 57/105/34 59/106/34 61/107/34 63/108/34 65/109/34 67/110/34 69/111/34 71/112/34
f 28/55/35 26/54/35 52/113/35 51/114/35
f 35/115/36 37/116/36 61/117/36 59/118/36
f 45/119/37 47/120/37 71/121/37 69/122/37
f 38/69/38 36/68/38 60/123/38 62/124/38
f 48/85/39 46/84/39 70/125/39 72/126/39
f 31/127/40 33/128/40 57/129/40 55/130/40
f 41/131/41 43/132/41 67/133/41 65/134/41
f 34/63/42 32/61/42 56/88/42 58/135/42
f 44/77/43 42/75/43 66/82/43 68/136/43
f 27/137/44 29/138/44 53/139/44 50/140/44
f 37/116/45 39/141/45 63/142/45 61/117/45
f 47/120/46 25/143/46 49/144/46 71/121/46
f 30/57/47 28/55/47 51/114/47 54/145/47
f 40/71/48 38/69/48 62/124/48 64/146/48
f 26/54/49 48/85/49 72/126/49 52/113/49
f 33/128/50 35/147/50 59/148/50 57/129/50
f 43/132/51 45/149/51 69/150/51 67/133/51
f 36/65/52 34/63/52 58/135/52 60/151/52
f 46/79/53 44/77/53 68/136/53 70/152/53
f 29/153/54 31/127/54 55/130/54 53/154/54
f 39/155/55 41/131/55 65/134/55 63/156/55
f 25/143/56 27/137/56 50/140/56 49/144/56
f 47/120/57 84/86/57 73/53/57 25/143/57
f 45/119/58 83/83/58 84/86/58 47/120/58
f 43/132/59 82/78/59 83/80/59 45/149/59
f 41/131/60 81/76/60 82/78/60 43/132/60
f 39/155/61 80/73/61 81/76/61 41/131/61
f 37/116/62 79/70/62 80/72/62 39/141/62
f 35/115/63 78/67/63 79/70/63 37/116/63
f 33/128/64 77/64/64 78/66/64 35/147/64
f 31/127/65 76/62/65 77/64/65 33/128/65
f 29/153/66 75/59/66 76/62/66 31/127/66
f 27/137/67 74/56/67 75/58/67 29/138/67
f 25/143/68 73/53/68 74/56/68 27/137/68
