# Blender v2.93.0 OBJ File: ''
# www.blender.org
mtllib Plant A.mtl
o Plant_A_Cylinder.016
v 0.000000 -2.449067 -0.654844
v 0.327422 -2.449067 -0.567112
v 0.567112 -2.449067 -0.327422
v 0.654845 -2.449067 0.000000
v 0.567112 -2.449067 0.327423
v 0.327422 -2.449067 0.567112
v 0.000000 -2.449067 0.654845
v -0.327422 -2.449067 0.567113
v -0.567112 -2.449067 0.327423
v -0.654845 -2.449067 0.000001
v -0.567112 -2.449067 -0.327422
v -0.327423 -2.449067 -0.567111
v 0.000000 -0.899669 -1.000000
v 0.500000 -0.899668 -0.866025
v 0.866025 -0.899668 -0.500000
v 1.000000 -0.899668 0.000000
v 0.866025 -0.899668 0.500000
v 0.500000 -0.899668 0.866025
v 0.000000 -0.899668 1.000000
v -0.500000 -0.899668 0.866026
v -0.866025 -0.899668 0.500000
v -1.000000 -0.899668 0.000001
v -0.866026 -0.899668 -0.499999
v -0.500001 -0.899668 -0.866025
v -0.058828 -1.001347 0.058829
v -0.058828 -0.914877 0.119854
v -0.119854 -0.914877 0.058828
v -0.058828 0.989681 0.119854
v -0.058828 1.076151 0.058828
v -0.119854 0.989681 0.058828
v -0.058828 -1.001347 -0.058828
v -0.119854 -0.914877 -0.058828
v -0.058828 -0.914877 -0.119854
v -0.058828 1.076151 -0.058829
v -0.058828 0.989681 -0.119854
v -0.119854 0.989681 -0.058829
v 0.058828 -1.001347 0.058829
v 0.119854 -0.914877 0.058828
v 0.058828 -0.914877 0.119854
v 0.058828 1.076151 0.058828
v 0.058828 0.989681 0.119854
v 0.119854 0.989681 0.058828
v 0.058828 -1.001347 -0.058828
v 0.058828 -0.914877 -0.119854
v 0.119854 -0.914877 -0.058828
v 0.058828 1.076151 -0.058829
v 0.119854 0.989681 -0.058829
v 0.058828 0.989681 -0.119854
v 0.000000 0.723657 -0.000000
v 0.995777 1.484355 0.723466
v -0.380346 1.484355 1.170603
v -1.230846 1.484361 -0.000000
v -0.380346 1.484354 -1.170604
v 0.995777 1.484355 -0.723466
v 0.380346 2.715219 1.170603
v -0.995777 2.715219 0.723466
v -0.995777 2.715219 -0.723467
v 0.380346 2.715219 -1.170604
v 1.230846 2.715214 -0.000001
v 0.000000 3.475917 -0.000001
v -0.223560 0.929177 0.688058
v 0.585299 0.929177 0.425239
v 0.361742 1.376304 1.113304
v 1.170602 1.376306 -0.000000
v 0.585299 0.929177 -0.425240
v -0.723472 0.929180 -0.000000
v -0.947038 1.376306 0.688060
v -0.223560 0.929176 -0.688058
v -0.947038 1.376306 -0.688061
v 0.361742 1.376304 -1.113305
v 1.308779 2.099787 0.425241
v 1.308779 2.099787 -0.425242
v 0.000000 2.099787 1.376129
v 0.808869 2.099787 1.113311
v -1.308779 2.099787 0.425241
v -0.808869 2.099787 1.113311
v -0.808869 2.099787 -1.113312
v -1.308779 2.099787 -0.425242
v 0.808869 2.099787 -1.113312
v 0.000000 2.099787 -1.376130
v 0.947038 2.823268 0.688060
v -0.361742 2.823270 1.113304
v -1.170602 2.823267 -0.000001
v -0.361742 2.823269 -1.113305
v 0.947038 2.823268 -0.688061
v 0.223560 3.270397 0.688058
v 0.723472 3.270394 -0.000001
v -0.585299 3.270397 0.425239
v -0.585299 3.270397 -0.425240
v 0.223560 3.270397 -0.688059
v -0.455168 -0.521668 -0.788373
v 0.000000 -0.521668 -0.910335
v -0.788373 -0.521668 -0.455167
v -0.910335 -0.521668 0.000000
v -0.788373 -0.521668 0.455168
v -0.455167 -0.521668 0.788373
v 0.000000 -0.521668 0.910335
v 0.455167 -0.521668 0.788373
v 0.788373 -0.521668 0.455167
v 0.910335 -0.521668 0.000000
v 0.788373 -0.521668 -0.455167
v 0.455167 -0.521668 -0.788373
v -0.455168 -0.710980 -0.788373
v 0.000000 -0.710980 -0.910335
v -0.788373 -0.710980 -0.455167
v -0.910335 -0.710980 0.000000
v -0.788373 -0.710980 0.455168
v -0.455167 -0.710980 0.788373
v 0.000000 -0.710980 0.910335
v 0.455167 -0.710980 0.788373
v 0.788373 -0.710980 0.455167
v 0.910335 -0.710980 0.000000
v 0.788373 -0.710980 -0.455167
v 0.455167 -0.710980 -0.788373
v -0.508428 -0.899668 -0.880621
v -0.546907 -0.825333 -0.947268
v 0.000000 -0.825333 -1.093812
v 0.000000 -0.899669 -1.016854
v -0.880622 -0.899668 -0.508426
v -0.947269 -0.825333 -0.546905
v -1.016854 -0.899668 0.000001
v -1.093812 -0.825333 0.000001
v -0.880621 -0.899668 0.508427
v -0.947269 -0.825333 0.546906
v -0.508427 -0.899668 0.880622
v -0.546906 -0.825333 0.947269
v 0.000000 -0.899668 1.016854
v 0.000000 -0.825333 1.093812
v 0.508427 -0.899668 0.880622
v 0.546906 -0.825333 0.947269
v 0.880621 -0.899668 0.508427
v 0.947269 -0.825333 0.546906
v 1.016854 -0.899668 0.000000
v 1.093812 -0.825333 0.000000
v 0.880622 -0.899668 -0.508427
v 0.947269 -0.825333 -0.546906
v 0.508427 -0.899668 -0.880621
v 0.546906 -0.825333 -0.947269
v -0.546907 -0.596004 -0.947268
v -0.508428 -0.521668 -0.880621
v 0.000000 -0.521668 -1.016854
v 0.000000 -0.596004 -1.093812
v -0.947269 -0.596003 -0.546905
v -0.880622 -0.521668 -0.508427
v -1.093812 -0.596003 0.000001
v -1.016854 -0.521668 0.000000
v -0.947269 -0.596003 0.546906
v -0.880621 -0.521668 0.508427
v -0.546906 -0.596003 0.947269
v -0.508427 -0.521668 0.880622
v 0.000000 -0.596003 1.093812
v 0.000000 -0.521668 1.016854
v 0.546906 -0.596003 0.947269
v 0.508427 -0.521668 0.880621
v 0.947269 -0.596003 0.546906
v 0.880621 -0.521668 0.508427
v 1.093812 -0.596003 0.000000
v 1.016854 -0.521668 0.000000
v 0.947269 -0.596003 -0.546906
v 0.880622 -0.521668 -0.508427
v 0.546906 -0.596004 -0.947269
v 0.508427 -0.521668 -0.880622
vt 0.521715 0.895287
vt 0.521715 0.857255
vt 0.540730 0.824318
vt 0.573667 0.805302
vt 0.611699 0.805302
vt 0.644635 0.824318
vt 0.663651 0.857255
vt 0.663651 0.895287
vt 0.644635 0.928223
vt 0.611699 0.947239
vt 0.573667 0.947239
vt 0.540730 0.928223
vt 0.865059 0.300072
vt 0.884150 0.488107
vt 0.823886 0.488107
vt 0.825595 0.300072
vt 0.893954 0.299355
vt 0.928276 0.487011
vt 0.778578 0.968149
vt 0.778578 0.788717
vt 0.836133 0.789166
vt 0.816267 0.968443
vt 0.740888 0.968443
vt 0.721023 0.789166
vt 0.866439 0.003147
vt 0.847347 0.191182
vt 0.803221 0.190086
vt 0.837543 0.002430
vt 0.905902 0.003147
vt 0.907612 0.191182
vt 0.945359 0.002430
vt 0.967866 0.190086
vt 0.715004 0.653058
vt 0.522362 0.631745
vt 0.524133 0.586543
vt 0.716163 0.623457
vt 0.714580 0.693493
vt 0.521715 0.693493
vt 0.715004 0.733928
vt 0.522362 0.755240
vt 0.716163 0.763528
vt 0.524133 0.800442
vt 0.842182 0.919848
vt 0.842182 0.854402
vt 0.869607 0.854152
vt 0.869607 0.919599
vt 0.901892 0.919847
vt 0.903082 0.967768
vt 0.875657 0.967519
vt 0.874467 0.919598
vt 0.695810 0.870456
vt 0.696494 0.935609
vt 0.669195 0.935609
vt 0.668511 0.870456
vt 0.230724 0.344587
vt 0.172696 0.311085
vt 0.173261 0.308977
vt 0.232267 0.343045
vt 0.985063 0.702771
vt 0.985586 0.769876
vt 0.957460 0.769876
vt 0.956936 0.702771
vt 0.840993 0.967768
vt 0.868418 0.967519
vt 0.901892 0.854401
vt 0.874467 0.854152
vt 0.987016 0.818999
vt 0.958890 0.818999
vt 0.698183 0.024057
vt 0.640679 0.024057
vt 0.637314 0.011501
vt 0.701547 0.011501
vt 0.987016 0.586543
vt 0.985586 0.635667
vt 0.957460 0.635667
vt 0.958890 0.586543
vt 0.696494 0.805302
vt 0.669195 0.805302
vt 0.903082 0.788966
vt 0.875657 0.788717
vt 0.995944 0.099162
vt 0.996380 0.155010
vt 0.973161 0.155010
vt 0.972726 0.099162
vt 0.230724 0.527650
vt 0.264227 0.469621
vt 0.266334 0.470186
vt 0.232267 0.529192
vt 0.014160 0.402616
vt 0.014160 0.469621
vt 0.012052 0.470186
vt 0.012052 0.402051
vt 0.047662 0.527649
vt 0.105691 0.561152
vt 0.105126 0.563260
vt 0.046120 0.529192
vt 0.105691 0.311085
vt 0.105126 0.308977
vt 0.264227 0.402616
vt 0.266335 0.402051
vt 0.172696 0.561152
vt 0.173261 0.563260
vt 0.047662 0.344587
vt 0.046120 0.343045
vt 0.747983 0.052809
vt 0.757174 0.043617
vt 0.590879 0.052809
vt 0.581688 0.043617
vt 0.776734 0.160113
vt 0.776734 0.102609
vt 0.789290 0.099244
vt 0.789290 0.163477
vt 0.747982 0.209912
vt 0.757174 0.219104
vt 0.698183 0.238664
vt 0.701547 0.251220
vt 0.640679 0.238664
vt 0.637314 0.251220
vt 0.590879 0.209912
vt 0.581687 0.219104
vt 0.562127 0.160113
vt 0.549571 0.163477
vt 0.562127 0.102609
vt 0.549571 0.099244
vt 0.245194 0.894222
vt 0.244204 0.839763
vt 0.266843 0.839557
vt 0.267833 0.894016
vt 0.944800 0.893533
vt 0.945346 0.945514
vt 0.923742 0.945514
vt 0.923197 0.893533
vt 0.997570 0.195893
vt 0.974352 0.195893
vt 0.979575 0.878524
vt 0.979575 0.932992
vt 0.956936 0.932786
vt 0.956936 0.878318
vt 0.997570 0.002430
vt 0.996380 0.043314
vt 0.973161 0.043314
vt 0.974352 0.002430
vt 0.244204 0.988572
vt 0.245194 0.948690
vt 0.267833 0.948484
vt 0.266843 0.988366
vt 0.980566 0.824065
vt 0.957926 0.823859
vt 0.980566 0.972874
vt 0.957926 0.972669
vt 0.945346 0.841551
vt 0.923742 0.841551
vt 0.102548 0.572882
vt 0.039076 0.536236
vt 0.175839 0.572882
vt 0.239311 0.536236
vt 0.275957 0.472764
vt 0.275957 0.399473
vt 0.239311 0.336001
vt 0.175839 0.299355
vt 0.102548 0.299355
vt 0.705654 0.809886
vt 0.705018 0.870456
vt 0.705654 0.931025
vt 0.002430 0.472764
vt 0.002430 0.399473
vt 0.634884 0.002430
vt 0.703978 0.002430
vt 0.763815 0.036977
vt 0.798361 0.096814
vt 0.798361 0.165908
vt 0.763814 0.225744
vt 0.703978 0.260291
vt 0.634884 0.260291
vt 0.575047 0.225744
vt 0.540500 0.165907
vt 0.540500 0.096814
vt 0.575047 0.036977
vt 0.840993 0.788966
vt 0.868418 0.788717
vt 0.763631 0.487011
vt 0.786138 0.299355
vt 0.930549 0.826030
vt 0.930549 0.596706
vt 0.944724 0.596706
vt 0.944724 0.826030
vt 0.973827 0.525701
vt 0.973827 0.308925
vt 0.987229 0.308925
vt 0.987229 0.525701
vt 0.571761 0.278352
vt 0.558560 0.278352
vt 0.558560 0.265151
vt 0.571761 0.265151
vt 0.266313 0.588657
vt 0.266313 0.824222
vt 0.251755 0.824222
vt 0.251755 0.588657
vt 0.940488 0.538842
vt 0.940488 0.309517
vt 0.954663 0.309517
vt 0.954663 0.538842
vt 0.944724 0.836691
vt 0.952076 0.826280
vt 0.273865 0.824002
vt 0.266313 0.834697
vt 0.940488 0.549503
vt 0.933136 0.539091
vt 0.251755 0.834697
vt 0.244204 0.824002
vt 0.987229 0.535815
vt 0.994180 0.525973
vt 0.930549 0.586543
vt 0.923197 0.596955
vt 0.973827 0.535815
vt 0.966875 0.525973
vt 0.954663 0.299355
vt 0.962016 0.309767
vt 0.251755 0.577742
vt 0.266313 0.577742
vt 0.273865 0.588437
vt 0.244204 0.588437
vt 0.954663 0.549503
vt 0.940488 0.299355
vt 0.962016 0.539091
vt 0.973827 0.299355
vt 0.987229 0.299355
vt 0.923197 0.826280
vt 0.930549 0.836691
vt 0.944724 0.586543
vt 0.553701 0.278352
vt 0.540500 0.278352
vt 0.540500 0.265151
vt 0.553701 0.265151
vt 0.721023 0.711635
vt 0.721023 0.658765
vt 0.747458 0.612978
vt 0.793245 0.586543
vt 0.846115 0.586543
vt 0.891902 0.612978
vt 0.918337 0.658765
vt 0.918337 0.711635
vt 0.891902 0.757422
vt 0.846115 0.783857
vt 0.793245 0.783857
vt 0.747458 0.757422
vt 0.148462 0.148462
vt 0.075446 0.095414
vt 0.176351 0.062627
vt 0.235613 0.721552
vt 0.239344 0.800815
vt 0.164918 0.777256
vt 0.238715 0.148462
vt 0.176351 0.234298
vt 0.075446 0.201511
vt 0.164917 0.673343
vt 0.350224 0.369457
vt 0.439905 0.352813
vt 0.399194 0.443355
vt 0.361044 0.800459
vt 0.280817 0.769654
vt 0.354670 0.708351
vt 0.591631 0.511581
vt 0.522224 0.524181
vt 0.542279 0.435183
vt 0.758772 0.519520
vt 0.681313 0.528226
vt 0.738844 0.442349
vt 0.239344 0.632680
vt 0.300872 0.445855
vt 0.444827 0.761663
vt 0.640601 0.437683
vt 0.081659 0.811441
vt 0.002430 0.771007
vt 0.074425 0.726178
vt 0.464945 0.002430
vt 0.535640 0.062627
vt 0.445386 0.062627
vt 0.293274 0.058210
vt 0.372370 0.009578
vt 0.344481 0.095414
vt 0.514431 0.716111
vt 0.444828 0.658772
vt 0.516855 0.639855
vt 0.689509 0.365479
vt 0.599811 0.349307
vt 0.672844 0.299355
vt 0.081657 0.634654
vt 0.002430 0.667093
vt 0.048428 0.577742
vt 0.507750 0.148462
vt 0.445386 0.234298
vt 0.417497 0.148462
vt 0.535640 0.234298
vt 0.464945 0.294495
vt 0.344481 0.201511
vt 0.372370 0.287347
vt 0.293274 0.238715
vt 0.271465 0.148462
vt 0.361046 0.625410
vt 0.426698 0.586543
vt 0.358403 0.531731
vt 0.448102 0.515559
vt 0.431437 0.581683
vt 0.148850 0.581603
vt 0.758772 0.356857
vt 0.522235 0.361227
vt 0.280827 0.519812
vt 0.497437 0.438689
vt 0.517364 0.524181
vt 0.516855 0.806338
vt 0.426695 0.855916
vt 0.280817 0.666762
vt 0.280817 0.356857
vt 0.517364 0.361519
vt 0.103335 0.287347
vt 0.024239 0.238715
vt 0.608151 0.581683
vt 0.266605 0.234298
vt 0.195910 0.294495
vt 0.325332 0.860853
vt 0.266605 0.062627
vt 0.195910 0.002430
vt 0.148852 0.853650
vt 0.002430 0.148462
vt 0.366744 0.299355
vt 0.103335 0.009578
vt 0.024239 0.058210
vn 0.0000 -1.0000 -0.0000
vn -0.2530 -0.2104 -0.9443
vn -0.6913 -0.2104 -0.6913
vn -0.9443 -0.2104 -0.2530
vn -0.9443 -0.2104 0.2530
vn -0.6913 -0.2104 0.6913
vn -0.2530 -0.2104 0.9443
vn 0.2530 -0.2104 0.9443
vn 0.6913 -0.2104 0.6913
vn 0.9443 -0.2104 0.2530
vn 0.9443 -0.2104 -0.2530
vn 0.6913 -0.2104 -0.6913
vn 0.2588 0.0000 -0.9659
vn 0.7071 0.0000 0.7071
vn 0.9659 0.0000 -0.2588
vn -0.9659 0.0000 0.2588
vn 0.7071 0.0000 -0.7071
vn 0.2588 0.0000 0.9659
vn -0.7071 0.0000 0.7071
vn 0.0000 1.0000 0.0000
vn -0.7071 0.0000 -0.7071
vn 0.9659 0.0000 0.2588
vn -0.2588 0.0000 0.9659
vn -0.9659 -0.0000 -0.2588
vn -0.2588 -0.0000 -0.9659
vn -0.1830 -0.7071 -0.6830
vn -0.5000 -0.7071 -0.5000
vn -0.6830 -0.7071 -0.1830
vn -0.6830 -0.7071 0.1830
vn -0.5000 -0.7071 0.5000
vn -0.1830 -0.7071 0.6830
vn 0.1830 -0.7071 0.6830
vn 0.5000 -0.7071 0.5000
vn 0.6830 -0.7071 0.1830
vn 0.6830 -0.7071 -0.1830
vn 0.5000 -0.7071 -0.5000
vn 0.1830 -0.7071 -0.6830
vn -0.1830 0.7071 -0.6830
vn -0.5000 0.7071 -0.5000
vn -0.6830 0.7071 -0.1830
vn -0.6830 0.7071 0.1830
vn -0.5000 0.7071 0.5000
vn -0.1830 0.7071 0.6830
vn 0.1830 0.7071 0.6830
vn 0.5000 0.7071 0.5000
vn 0.6830 0.7071 0.1830
vn 0.6830 0.7071 -0.1830
vn 0.5000 0.7071 -0.5000
vn 0.1830 0.7071 -0.6830
vn 0.2530 -0.2104 -0.9443
vn 0.0000 0.0000 1.0000
vn 1.0000 -0.0000 0.0000
vn -1.0000 0.0000 0.0000
vn 0.0000 -0.0000 -1.0000
vn -0.6327 -0.4465 0.6327
vn -0.6327 0.4465 0.6327
vn -0.6327 -0.4465 -0.6327
vn -0.6327 0.4465 -0.6327
vn 0.6327 -0.4465 0.6327
vn 0.6327 0.4465 0.6327
vn 0.6327 -0.4465 -0.6327
vn 0.6327 0.4465 -0.6327
vn -0.8170 -0.5766 0.0000
vn -0.8170 0.5766 -0.0000
vn 0.0000 -0.5766 -0.8170
vn 0.0000 0.5766 -0.8170
vn 0.8170 -0.5766 0.0000
vn 0.8170 0.5766 0.0000
vn 0.0000 -0.5766 0.8170
vn -0.0000 0.5766 0.8170
vn 0.1024 -0.9435 0.3151
vn 0.7002 -0.6617 0.2680
vn -0.2680 -0.9435 0.1947
vn -0.2680 -0.9435 -0.1947
vn 0.1024 -0.9435 -0.3151
vn 0.9050 -0.3304 0.2680
vn 0.0247 -0.3304 0.9435
vn -0.8897 -0.3304 0.3151
vn -0.5746 -0.3304 -0.7488
vn 0.5346 -0.3304 -0.7779
vn 0.8026 -0.1256 0.5831
vn -0.3066 -0.1256 0.9435
vn -0.9921 -0.1256 0.0000
vn -0.3066 -0.1256 -0.9435
vn 0.8026 -0.1256 -0.5831
vn 0.4089 0.6617 0.6284
vn -0.4713 0.6617 0.5831
vn -0.7002 0.6617 -0.2680
vn 0.0385 0.6617 -0.7488
vn 0.7240 0.6617 -0.1947
vn 0.2680 0.9435 -0.1947
vn 0.4911 0.7947 -0.3568
vn 0.4089 0.6617 -0.6284
vn -0.1024 0.9435 -0.3151
vn -0.1876 0.7947 -0.5773
vn -0.4713 0.6617 -0.5831
vn -0.3313 0.9435 0.0000
vn -0.6071 0.7947 0.0000
vn -0.7002 0.6617 0.2680
vn -0.1024 0.9435 0.3151
vn -0.1876 0.7947 0.5773
vn 0.0385 0.6617 0.7488
vn 0.2680 0.9435 0.1947
vn 0.4911 0.7947 0.3568
vn 0.7240 0.6617 0.1947
vn 0.8897 0.3304 -0.3151
vn 0.7947 0.1876 -0.5773
vn 0.5746 0.3304 -0.7488
vn -0.0247 0.3304 -0.9435
vn -0.3035 0.1876 -0.9342
vn -0.5346 0.3304 -0.7779
vn -0.9050 0.3304 -0.2680
vn -0.9822 0.1876 0.0000
vn -0.9050 0.3304 0.2680
vn -0.5346 0.3304 0.7779
vn -0.3035 0.1876 0.9342
vn -0.0247 0.3304 0.9435
vn 0.5746 0.3304 0.7488
vn 0.7947 0.1876 0.5773
vn 0.8897 0.3304 0.3151
vn 0.3066 0.1256 -0.9435
vn 0.3035 -0.1876 -0.9342
vn 0.0247 -0.3304 -0.9435
vn -0.8026 0.1256 -0.5831
vn -0.7947 -0.1876 -0.5773
vn -0.8897 -0.3304 -0.3151
vn -0.8026 0.1256 0.5831
vn -0.7947 -0.1876 0.5773
vn -0.5746 -0.3304 0.7488
vn 0.3066 0.1256 0.9435
vn 0.3035 -0.1876 0.9342
vn 0.5346 -0.3304 0.7779
vn 0.9921 0.1256 0.0000
vn 0.9822 -0.1876 0.0000
vn 0.9050 -0.3304 -0.2680
vn 0.4713 -0.6617 -0.5831
vn 0.1876 -0.7947 -0.5773
vn -0.0385 -0.6617 -0.7488
vn -0.4089 -0.6617 -0.6284
vn -0.4911 -0.7947 -0.3568
vn -0.7240 -0.6617 -0.1947
vn -0.7240 -0.6617 0.1947
vn -0.4911 -0.7947 0.3568
vn -0.4089 -0.6617 0.6284
vn 0.7002 -0.6617 -0.2680
vn 0.6071 -0.7947 0.0000
vn 0.3313 -0.9435 0.0000
vn -0.0385 -0.6617 0.7488
vn 0.1876 -0.7947 0.5773
vn 0.4713 -0.6617 0.5831
usemtl Blue
s 1
f 1/1/1 2/2/1 3/3/1 4/4/1 5/5/1 6/6/1 7/7/1 8/8/1 9/9/1 10/10/1 11/11/1 12/12/1
f 12/13/2 24/14/2 13/15/2 1/16/2
f 11/17/3 23/18/3 24/14/3 12/13/3
f 10/19/4 22/20/4 23/21/4 11/22/4
f 9/23/5 21/24/5 22/20/5 10/19/5
f 8/25/6 20/26/6 21/27/6 9/28/6
f 7/29/7 19/30/7 20/26/7 8/25/7
f 6/31/8 18/32/8 19/30/8 7/29/8
f 5/33/9 17/34/9 18/35/9 6/36/9
f 4/37/10 16/38/10 17/34/10 5/33/10
f 3/39/11 15/40/11 16/38/11 4/37/11
f 2/41/12 14/42/12 15/40/12 3/39/12
f 138/43/13 117/44/13 142/45/13 161/46/13
f 130/47/14 132/48/14 155/49/14 153/50/14
f 134/51/15 136/52/15 159/53/15 157/54/15
f 19/55/1 18/56/1 129/57/1 127/58/1
f 122/59/16 124/60/16 147/61/16 145/62/16
f 136/63/17 138/43/17 161/46/17 159/64/17
f 128/65/18 130/47/18 153/50/18 151/66/18
f 124/60/19 126/67/19 149/68/19 147/61/19
f 91/69/20 92/70/20 141/71/20 140/72/20
f 116/73/21 120/74/21 143/75/21 139/76/21
f 132/77/22 134/51/22 157/54/22 155/78/22
f 126/79/23 128/65/23 151/66/23 149/80/23
f 120/74/24 122/59/24 145/62/24 143/75/24
f 100/81/16 101/82/16 113/83/16 112/84/16
f 22/85/1 21/86/1 123/87/1 121/88/1
f 15/89/1 14/90/1 137/91/1 135/92/1
f 13/93/1 24/94/1 115/95/1 118/96/1
f 18/56/1 17/97/1 131/98/1 129/57/1
f 21/86/1 20/99/1 125/100/1 123/87/1
f 14/90/1 13/93/1 118/96/1 137/91/1
f 24/94/1 23/101/1 119/102/1 115/95/1
f 17/97/1 16/103/1 133/104/1 131/98/1
f 20/99/1 19/55/1 127/58/1 125/100/1
f 23/101/1 22/85/1 121/88/1 119/102/1
f 16/103/1 15/89/1 135/92/1 133/104/1
f 93/105/20 91/69/20 140/72/20 144/106/20
f 92/70/20 102/107/20 162/108/20 141/71/20
f 95/109/20 94/110/20 146/111/20 148/112/20
f 96/113/20 95/109/20 148/112/20 150/114/20
f 97/115/20 96/113/20 150/114/20 152/116/20
f 98/117/20 97/115/20 152/116/20 154/118/20
f 99/119/20 98/117/20 154/118/20 156/120/20
f 100/121/20 99/119/20 156/120/20 158/122/20
f 101/123/20 100/121/20 158/122/20 160/124/20
f 102/107/20 101/123/20 160/124/20 162/108/20
f 94/110/20 93/105/20 144/106/20 146/111/20
f 97/125/25 98/126/25 110/127/25 109/128/25
f 94/129/15 95/130/15 107/131/15 106/132/15
f 101/82/19 102/133/19 114/134/19 113/83/19
f 92/135/18 91/136/18 103/137/18 104/138/18
f 98/139/21 99/140/21 111/141/21 110/142/21
f 95/143/17 96/144/17 108/145/17 107/146/17
f 102/147/23 92/135/23 104/138/23 114/148/23
f 91/136/14 93/149/14 105/150/14 103/137/14
f 99/140/24 100/81/24 112/84/24 111/141/24
f 96/144/13 97/125/13 109/128/13 108/145/13
f 93/151/22 94/129/22 106/132/22 105/152/22
f 116/153/26 117/154/26 118/96/26 115/95/26
f 120/155/27 116/153/27 115/95/27 119/102/27
f 122/156/28 120/155/28 119/102/28 121/88/28
f 124/157/29 122/156/29 121/88/29 123/87/29
f 126/158/30 124/157/30 123/87/30 125/100/30
f 128/159/31 126/158/31 125/100/31 127/58/31
f 130/160/32 128/159/32 127/58/32 129/57/32
f 132/161/33 130/160/33 129/57/33 131/98/33
f 134/51/34 132/77/34 131/162/34 133/163/34
f 136/52/35 134/51/35 133/163/35 135/164/35
f 138/165/36 136/166/36 135/92/36 137/91/36
f 117/154/37 138/165/37 137/91/37 118/96/37
f 140/72/38 141/71/38 142/167/38 139/168/38
f 144/106/39 140/72/39 139/168/39 143/169/39
f 146/111/40 144/106/40 143/169/40 145/170/40
f 148/112/41 146/111/41 145/170/41 147/171/41
f 150/114/42 148/112/42 147/171/42 149/172/42
f 152/116/43 150/114/43 149/172/43 151/173/43
f 154/118/44 152/116/44 151/173/44 153/174/44
f 156/120/45 154/118/45 153/174/45 155/175/45
f 158/122/46 156/120/46 155/175/46 157/176/46
f 160/124/47 158/122/47 157/176/47 159/177/47
f 162/108/48 160/124/48 159/177/48 161/178/48
f 141/71/49 162/108/49 161/178/49 142/167/49
f 117/44/25 116/179/25 139/180/25 142/45/25
f 1/16/50 13/15/50 14/181/50 2/182/50
usemtl Brown_3
f 39/183/51 41/184/51 28/185/51 26/186/51
f 45/187/52 47/188/52 42/189/52 38/190/52
f 46/191/20 34/192/20 29/193/20 40/194/20
f 27/195/53 30/196/53 36/197/53 32/198/53
f 33/199/54 35/200/54 48/201/54 44/202/54
f 25/203/55 26/186/55 27/204/55
f 28/205/56 29/206/56 30/196/56
f 31/207/57 32/208/57 33/199/57
f 34/209/58 35/210/58 36/197/58
f 37/211/59 38/190/59 39/212/59
f 40/213/60 41/184/60 42/214/60
f 43/215/61 44/216/61 45/187/61
f 46/217/62 47/218/62 48/201/62
f 31/219/63 25/220/63 27/195/63 32/198/63
f 26/221/19 28/205/19 30/196/19 27/195/19
f 29/206/64 34/209/64 36/197/64 30/196/64
f 35/210/21 33/222/21 32/198/21 36/197/21
f 43/223/65 31/207/65 33/199/65 44/202/65
f 34/224/66 46/217/66 48/201/66 35/200/66
f 47/218/17 45/225/17 44/202/17 48/201/17
f 37/211/67 43/215/67 45/187/67 38/190/67
f 46/226/68 40/227/68 42/189/68 47/188/68
f 41/184/14 39/183/14 38/228/14 42/214/14
f 25/203/69 37/229/69 39/183/69 26/186/69
f 40/213/70 29/230/70 28/185/70 41/184/70
f 31/231/1 43/232/1 37/233/1 25/234/1
usemtl Brown_2
f 103/235/20 105/236/20 106/237/20 107/238/20 108/239/20 109/240/20 110/241/20 111/242/20 112/243/20 113/244/20 114/245/20 104/246/20
usemtl Green
f 49/247/71 62/248/71 61/249/71
f 50/250/72 62/251/72 64/252/72
f 49/247/73 61/249/73 66/253/73
f 49/247/74 66/253/74 68/254/74
f 49/247/75 68/254/75 65/255/75
f 50/250/76 64/252/76 71/256/76
f 51/257/77 63/258/77 73/259/77
f 52/260/78 67/261/78 75/262/78
f 53/263/79 69/264/79 77/265/79
f 54/266/80 70/267/80 79/268/80
f 50/250/81 71/256/81 74/269/81
f 51/257/82 73/259/82 76/270/82
f 52/260/83 75/262/83 78/271/83
f 53/263/84 77/265/84 80/272/84
f 54/273/85 79/274/85 72/275/85
f 55/276/86 81/277/86 86/278/86
f 56/279/87 82/280/87 88/281/87
f 57/282/88 83/283/88 89/284/88
f 58/285/89 84/286/89 90/287/89
f 59/288/90 85/289/90 87/290/90
f 87/291/91 90/292/91 60/293/91
f 87/291/92 85/294/92 90/292/92
f 85/294/93 58/295/93 90/292/93
f 90/292/94 89/296/94 60/293/94
f 90/292/95 84/297/95 89/296/95
f 84/297/96 57/298/96 89/296/96
f 89/296/97 88/281/97 60/293/97
f 89/296/98 83/299/98 88/281/98
f 83/283/99 56/300/99 88/301/99
f 88/281/100 86/278/100 60/293/100
f 88/281/101 82/280/101 86/278/101
f 82/302/102 55/303/102 86/304/102
f 86/278/103 87/291/103 60/293/103
f 86/278/104 81/277/104 87/291/104
f 81/305/105 59/288/105 87/290/105
f 72/275/106 85/289/106 59/288/106
f 72/275/107 79/274/107 85/289/107
f 79/268/108 58/285/108 85/306/108
f 80/272/109 84/286/109 58/285/109
f 80/272/110 77/265/110 84/286/110
f 77/265/111 57/307/111 84/286/111
f 78/271/112 83/283/112 57/282/112
f 78/271/113 75/262/113 83/283/113
f 75/262/114 56/300/114 83/283/114
f 76/270/115 82/302/115 56/308/115
f 76/270/116 73/259/116 82/302/116
f 73/259/117 55/303/117 82/302/117
f 74/309/118 81/310/118 55/303/118
f 74/269/119 71/256/119 81/305/119
f 71/256/120 59/288/120 81/305/120
f 79/268/121 80/272/121 58/285/121
f 79/268/122 70/267/122 80/272/122
f 70/267/123 53/263/123 80/272/123
f 77/311/124 78/271/124 57/282/124
f 77/311/125 69/312/125 78/271/125
f 69/312/126 52/260/126 78/271/126
f 75/262/127 76/313/127 56/300/127
f 75/262/128 67/261/128 76/313/128
f 67/314/129 51/257/129 76/270/129
f 73/259/130 74/309/130 55/303/130
f 73/259/131 63/258/131 74/309/131
f 63/258/132 50/315/132 74/309/132
f 71/256/133 72/275/133 59/288/133
f 71/256/134 64/252/134 72/275/134
f 64/252/135 54/273/135 72/275/135
f 65/255/136 70/316/136 54/317/136
f 65/255/137 68/254/137 70/316/137
f 68/318/138 53/263/138 70/267/138
f 68/254/139 69/319/139 53/320/139
f 68/254/140 66/253/140 69/319/140
f 66/321/141 52/260/141 69/312/141
f 66/321/142 67/261/142 52/260/142
f 66/253/143 61/249/143 67/322/143
f 61/249/144 51/323/144 67/322/144
f 64/252/145 65/324/145 54/273/145
f 64/325/146 62/248/146 65/255/146
f 62/248/147 49/247/147 65/255/147
f 61/326/148 63/258/148 51/257/148
f 61/249/149 62/248/149 63/327/149
f 62/248/150 50/328/150 63/327/150
