# Blender 4.4.3
# www.blender.org
o Plank_A
v -2.249660 -0.080378 0.155058
v -2.249660 -0.050530 0.184906
v -2.279508 -0.050530 0.155058
v -2.249660 0.050530 0.184906
v -2.249660 0.080378 0.155058
v -2.279508 0.050530 0.155058
v -2.249660 -0.080378 -0.155057
v -2.279508 -0.050530 -0.155057
v -2.249660 -0.050530 -0.184905
v -2.249660 0.080378 -0.155057
v -2.249660 0.050530 -0.184905
v -2.279508 0.050530 -0.155057
v 2.249660 -0.080378 0.155058
v 2.279509 -0.050530 0.155058
v 2.249660 -0.050530 0.184906
v 2.249660 0.080378 0.155058
v 2.249660 0.050530 0.184906
v 2.279509 0.050530 0.155058
v 2.249660 -0.080378 -0.155057
v 2.249660 -0.050530 -0.184905
v 2.279509 -0.050530 -0.155057
v 2.249660 0.080378 -0.155057
v 2.279509 0.050530 -0.155057
v 2.249660 0.050530 -0.184905
vn -0.0000 -0.0000 1.0000
vn 1.0000 -0.0000 -0.0000
vn -0.0000 1.0000 -0.0000
vn -1.0000 -0.0000 -0.0000
vn -0.0000 -0.0000 -1.0000
vn -0.5774 -0.5773 0.5774
vn -0.5774 0.5773 0.5774
vn -0.5774 -0.5773 -0.5774
vn -0.5774 0.5773 -0.5774
vn 0.5774 -0.5773 0.5774
vn 0.5774 0.5773 0.5774
vn 0.5773 -0.5773 -0.5774
vn 0.5774 0.5773 -0.5774
vn -0.7071 -0.7071 -0.0000
vn -0.7071 -0.0000 0.7071
vn -0.7071 0.7071 -0.0000
vn -0.7071 -0.0000 -0.7071
vn -0.0000 -0.7071 -0.7071
vn -0.0000 0.7071 -0.7071
vn 0.7071 -0.0000 -0.7071
vn 0.7071 -0.7071 -0.0000
vn 0.7071 0.7071 -0.0000
vn 0.7071 -0.0000 0.7071
vn -0.0000 -0.7071 0.7071
vn -0.0000 0.7071 0.7071
vn -0.0000 -1.0000 -0.0000
vt 0.241131 0.805906
vt 0.215551 0.805906
vt 0.215551 0.000599
vt 0.241132 0.000599
vt 0.199242 0.056112
vt 0.173658 0.056112
vt 0.173658 0.000599
vt 0.199242 0.000599
vt 0.075570 0.007181
vt 0.075570 0.999401
vt 0.007181 0.999401
vt 0.007181 0.007181
vt 0.280460 0.080003
vt 0.256856 0.080003
vt 0.256856 0.007571
vt 0.280460 0.007571
vt 0.199242 0.872216
vt 0.173658 0.872216
vt 0.173658 0.066798
vt 0.199242 0.066798
vt 0.287432 0.080003
vt 0.280460 0.086975
vt 0.256856 0.086975
vt 0.249885 0.080003
vt 0.287432 0.007571
vt 0.280460 0.000599
vt 0.249885 0.007571
vt 0.256856 0.000599
vt 0.248687 0.811248
vt 0.241131 0.816591
vt 0.207996 0.811248
vt 0.215551 0.816591
vt 0.206798 0.061455
vt 0.166101 0.061455
vt 0.089933 0.007181
vt 0.089933 0.999401
vt 0.083350 0.999401
vt 0.083350 0.007181
vt 0.082152 0.007181
vt 0.082152 0.999401
vt 0.158321 0.007181
vt 0.089933 0.000599
vt 0.158321 0.000599
vt 0.007181 0.000599
vt 0.075570 0.000599
vt 0.158321 0.999401
vt 0.164903 0.007181
vt 0.164903 0.999401
vt 0.000599 0.999401
vt 0.000599 0.007181
s 1
f 15/1/1 17/2/1 4/3/1 2/4/1
f 21/5/2 23/6/2 18/7/2 14/8/2
f 22/9/3 10/10/3 5/11/3 16/12/3
f 3/13/4 6/14/4 12/15/4 8/16/4
f 9/17/5 11/18/5 24/19/5 20/20/5
f 1/21/6 2/22/6 3/13/6
f 4/23/7 5/24/7 6/14/7
f 7/25/8 8/16/8 9/26/8
f 10/27/9 11/28/9 12/15/9
f 13/29/10 14/30/10 15/1/10
f 16/31/11 17/2/11 18/32/11
f 19/33/12 20/20/12 21/5/12
f 22/34/13 23/6/13 24/19/13
f 7/25/14 1/21/14 3/13/14 8/16/14
f 2/22/15 4/23/15 6/14/15 3/13/15
f 5/24/16 10/27/16 12/15/16 6/14/16
f 11/28/17 9/26/17 8/16/17 12/15/17
f 19/35/18 7/36/18 9/37/18 20/38/18
f 10/10/19 22/9/19 24/39/19 11/40/19
f 23/6/20 21/5/20 20/20/20 24/19/20
f 13/41/21 19/35/21 21/42/21 14/43/21
f 22/9/22 16/12/22 18/44/22 23/45/22
f 17/2/23 15/1/23 14/30/23 18/32/23
f 1/46/24 13/41/24 15/47/24 2/48/24
f 16/12/25 5/11/25 4/49/25 17/50/25
f 7/36/26 19/35/26 13/41/26 1/46/26
