# Blender v2.93.0 OBJ File: ''
# www.blender.org
mtllib TV B.mtl
o Television_B_Cube.011
v -4.235827 -0.648400 0.330825
v -4.235827 3.922885 0.330824
v 4.235827 -0.648400 0.330825
v 4.235827 3.922885 0.330824
v -4.692853 -1.048377 0.117192
v -4.692853 4.322861 0.117191
v 4.692853 -1.048377 0.117192
v 4.692853 4.322861 0.117191
v -4.235827 -0.648400 0.123908
v -4.235827 3.922885 0.123908
v 4.235827 3.922885 0.123908
v 4.235827 -0.648400 0.123908
v -4.615525 -1.004123 0.241047
v -4.458611 -0.871184 0.330825
v -4.458611 4.145669 0.330824
v -4.615525 4.278608 0.241047
v 4.615525 4.278608 0.241047
v 4.458611 4.145669 0.330824
v 4.458611 -0.871184 0.330825
v 4.615525 -1.004123 0.241047
v -1.738736 0.746009 -0.833412
v -1.662923 0.762231 -0.843152
v -1.690058 0.688434 -0.827623
v -1.738736 2.528476 -0.833412
v -1.690058 2.586051 -0.827624
v -1.662923 2.512254 -0.843152
v 1.690058 0.688434 -0.827623
v 1.662923 0.762231 -0.843152
v 1.738736 0.746009 -0.833412
v 1.690058 2.586051 -0.827624
v 1.738736 2.528476 -0.833412
v 1.662923 2.512254 -0.843152
v -4.522192 4.179981 -0.106182
v -4.580886 4.258785 -0.062144
v -4.429205 4.211266 -0.111970
v -4.522192 -0.905497 -0.106181
v -4.429205 -0.936781 -0.111970
v -4.580886 -0.984300 -0.062144
v 4.429205 -0.936781 -0.111970
v 4.522192 -0.905497 -0.106181
v 4.580886 -0.984300 -0.062144
v 4.429205 4.211266 -0.111970
v 4.580886 4.258785 -0.062144
v 4.522192 4.179981 -0.106182
v -1.586433 -1.642632 0.710171
v -1.586433 -1.618770 0.734033
v -1.610295 -1.618770 0.710171
v -0.467028 -1.245456 0.296965
v -0.490805 -1.271334 0.311658
v -0.462813 -1.274866 0.351742
v -0.443166 -1.246361 0.322025
v -1.586433 -1.642632 -0.475787
v -1.610295 -1.618770 -0.475787
v -1.586433 -1.618770 -0.499649
v -0.467028 -1.245456 -0.062581
v -0.443166 -1.246361 -0.087641
v -0.462813 -1.274866 -0.117358
v -0.490805 -1.271334 -0.077274
v 1.586433 -1.642632 0.710171
v 1.610295 -1.618770 0.710171
v 1.586433 -1.618770 0.734033
v 0.467028 -1.245456 0.296965
v 0.443166 -1.246361 0.322025
v 0.462813 -1.274866 0.351742
v 0.490805 -1.271334 0.311658
v 1.586433 -1.642632 -0.475787
v 1.586433 -1.618770 -0.499649
v 1.610295 -1.618770 -0.475787
v 0.443166 -1.246361 -0.087641
v 0.467028 -1.245456 -0.062581
v 0.490805 -1.271334 -0.077274
v 0.462813 -1.274866 -0.117358
v -1.586433 -1.390106 0.734033
v -1.475212 -1.360697 0.710825
v -1.586518 -1.364228 0.700291
v -1.610295 -1.390106 0.710171
v -1.586518 -1.364228 -0.465908
v -1.475212 -1.360697 -0.476441
v -1.586433 -1.390107 -0.499649
v -1.610295 -1.390107 -0.475787
v 1.475212 -1.360697 -0.476441
v 1.586518 -1.364228 -0.465908
v 1.610295 -1.390107 -0.475787
v 1.586433 -1.390107 -0.499649
v 1.586518 -1.364228 0.700291
v 1.475212 -1.360697 0.710825
v 1.586433 -1.390106 0.734033
v 1.610295 -1.390106 0.710171
v -0.467028 -0.870370 0.190619
v -0.443166 -0.869465 0.215166
v -0.443166 -0.846508 0.184794
v -0.467028 -0.870370 0.043764
v -0.443166 -0.846508 0.049589
v -0.443166 -0.869465 0.019218
v 0.443166 -0.869465 0.019218
v 0.443166 -0.846508 0.049589
v 0.467028 -0.870370 0.043764
v 0.467028 -0.870370 0.190619
v 0.443166 -0.846508 0.184794
v 0.443166 -0.869465 0.215166
vt 0.924572 0.577262
vt 0.924572 0.008416
vt 0.935707 0.001464
vt 0.935707 0.584214
vt 0.544842 0.382099
vt 0.544842 0.176933
vt 0.642946 0.010671
vt 0.642946 0.548361
vt 0.023399 0.543223
vt 0.303053 0.543223
vt 0.316681 0.556859
vt 0.009770 0.556859
vt 0.971174 0.501642
vt 0.971173 0.001464
vt 0.983390 0.001464
vt 0.983390 0.501642
vt 0.023399 0.024704
vt 0.009770 0.011068
vt 0.736760 0.849018
vt 0.736760 0.504694
vt 0.744700 0.507531
vt 0.744700 0.846181
vt 0.755569 0.849019
vt 0.755569 0.504694
vt 0.767065 0.508801
vt 0.767065 0.844911
vt 0.725264 0.844911
vt 0.725264 0.508801
vt 0.303052 0.024704
vt 0.316681 0.011068
vt 0.540374 0.380452
vt 0.434159 0.380452
vt 0.434159 0.178580
vt 0.540374 0.178579
vt 0.429668 0.176933
vt 0.429668 0.382099
vt 0.330492 0.548361
vt 0.330492 0.010671
vt 0.541352 0.173978
vt 0.433167 0.173978
vt 0.332387 0.005027
vt 0.641043 0.005027
vt 0.949420 0.577262
vt 0.949420 0.008416
vt 0.960554 0.001464
vt 0.960554 0.584214
vt 0.943397 0.006266
vt 0.943397 0.579413
vt 0.968244 0.006266
vt 0.968244 0.579413
vt 0.785140 0.774588
vt 0.785140 0.504694
vt 0.797356 0.504694
vt 0.797356 0.774588
vt 0.986319 0.501642
vt 0.986319 0.001465
vt 0.998536 0.001464
vt 0.998536 0.501642
vt 0.782211 0.504694
vt 0.782211 0.774588
vt 0.769994 0.774588
vt 0.769994 0.504694
vt 0.422322 0.560496
vt 0.436003 0.560496
vt 0.436003 0.750425
vt 0.422322 0.750425
vt 0.503495 0.560496
vt 0.503495 0.613757
vt 0.480769 0.613757
vt 0.480769 0.560496
vt 0.548649 0.562098
vt 0.570907 0.562098
vt 0.564323 0.585318
vt 0.555232 0.585318
vt 0.003016 0.570994
vt 0.025274 0.570994
vt 0.018690 0.594213
vt 0.009599 0.594213
vt 0.462217 0.561961
vt 0.476252 0.561961
vt 0.476252 0.634752
vt 0.462217 0.634752
vt 0.699524 0.628395
vt 0.699524 0.573163
vt 0.720950 0.512754
vt 0.720950 0.688804
vt 0.529205 0.560496
vt 0.529205 0.613625
vt 0.506424 0.613625
vt 0.506424 0.560496
vt 0.442200 0.561961
vt 0.456235 0.561961
vt 0.456235 0.634752
vt 0.442200 0.634752
vt 0.534000 0.616396
vt 0.534000 0.561962
vt 0.542303 0.561962
vt 0.542303 0.616396
vt 0.403919 0.560496
vt 0.417615 0.560496
vt 0.417615 0.750542
vt 0.403919 0.750542
vt 0.671533 0.573163
vt 0.671533 0.628395
vt 0.650106 0.688804
vt 0.650106 0.512754
vt 0.673924 0.630065
vt 0.697132 0.630065
vt 0.720321 0.695446
vt 0.650735 0.695446
vt 0.697132 0.571493
vt 0.673924 0.571493
vt 0.650735 0.506112
vt 0.720321 0.506112
vt 0.001464 0.001465
vt 0.324642 0.001464
vt 0.324642 0.566463
vt 0.001465 0.566463
vt 0.747629 0.846182
vt 0.747629 0.507531
vt 0.541352 0.385054
vt 0.433167 0.385054
vt 0.332387 0.554005
vt 0.327571 0.557567
vt 0.641043 0.554005
vt 0.645793 0.557567
vt 0.645793 0.001464
vt 0.327571 0.001465
vt 0.921479 0.567845
vt 0.921479 0.017834
vt 0.946326 0.567845
vt 0.946326 0.017834
vt 0.460752 0.561961
vt 0.462217 0.560496
vt 0.696255 0.572912
vt 0.697750 0.574335
vt 0.460752 0.634752
vt 0.462217 0.636217
vt 0.674801 0.572912
vt 0.673306 0.574335
vt 0.440735 0.634752
vt 0.442200 0.636217
vt 0.696255 0.628646
vt 0.697750 0.627222
vt 0.440735 0.561961
vt 0.442200 0.560496
vt 0.673306 0.627222
vt 0.674801 0.628646
vt 0.722335 0.506117
vt 0.720911 0.504693
vt 0.648722 0.506117
vt 0.650145 0.504693
vt 0.650145 0.696864
vt 0.648722 0.695441
vt 0.722335 0.695441
vt 0.720911 0.696864
vt 0.542661 0.560496
vt 0.544169 0.561962
vt 0.533642 0.560496
vt 0.532134 0.561962
vt 0.532134 0.616396
vt 0.533642 0.617862
vt 0.542661 0.617862
vt 0.544169 0.616396
vt 0.476252 0.560496
vt 0.477840 0.562567
vt 0.477840 0.634146
vt 0.476252 0.636217
vt 0.399570 0.749321
vt 0.399570 0.560496
vt 0.400990 0.560496
vt 0.400990 0.749321
vt 0.419393 0.567158
vt 0.419393 0.743881
vt 0.456235 0.560496
vt 0.457823 0.562567
vt 0.457823 0.634146
vt 0.456235 0.636217
vt 0.328991 0.560496
vt 0.328991 0.749321
vt 0.327571 0.749321
vt 0.327571 0.560496
vt 0.437807 0.567154
vt 0.437807 0.743767
vt 0.002106 0.569392
vt 0.026183 0.569392
vt 0.547739 0.560496
vt 0.571816 0.560496
vt 0.018330 0.595691
vt 0.009960 0.595691
vt 0.563963 0.586795
vt 0.555593 0.586795
vt 0.553713 0.585374
vt 0.547097 0.562042
vt 0.026825 0.570938
vt 0.020210 0.594269
vt 0.008080 0.594269
vt 0.001464 0.570938
vt 0.572458 0.562042
vt 0.565843 0.585374
vt 0.918550 0.501764
vt 0.648722 0.501764
vt 0.648722 0.001464
vt 0.918550 0.001464
vn 0.0000 -0.9417 -0.3365
vn 0.0000 -0.4030 -0.9152
vn -0.0000 0.0000 1.0000
vn 0.0000 1.0000 -0.0000
vn 0.8482 0.0000 0.5296
vn -0.8482 -0.0000 -0.5296
vn 0.8482 -0.0000 -0.5296
vn 0.0000 -0.0000 -1.0000
vn 0.0000 0.4030 -0.9152
vn 0.2528 -0.0000 -0.9675
vn 0.0000 0.9417 -0.3365
vn 0.0000 -0.9417 0.3365
vn 0.0000 0.9417 0.3365
vn 1.0000 0.0000 0.0000
vn 0.0000 -1.0000 0.0000
vn -1.0000 0.0000 0.0000
vn 0.0000 0.2728 -0.9621
vn 0.0000 0.9726 0.2325
vn 0.0000 0.2728 0.9621
vn 0.0000 0.9726 -0.2325
vn 0.0845 0.9964 -0.0000
vn -0.0845 0.9964 -0.0000
vn -0.4966 0.0000 0.8680
vn 0.4966 0.0000 0.8680
vn 0.0000 -0.5597 0.8287
vn 0.0000 0.5597 0.8287
vn -0.8482 0.0000 0.5296
vn -0.0888 -0.1737 -0.9808
vn -0.0888 0.1737 -0.9808
vn 0.0888 -0.1737 -0.9808
vn 0.0888 0.1737 -0.9808
vn -0.1821 0.3728 -0.9099
vn -0.1821 -0.3728 -0.9099
vn 0.1821 -0.3728 -0.9099
vn 0.1821 0.3728 -0.9099
vn -0.6002 -0.0000 -0.7999
vn -0.0000 -0.7237 -0.6902
vn 0.0000 0.7237 -0.6901
vn 0.6002 -0.0000 -0.7999
vn -0.1274 -0.0000 -0.9918
vn 0.0000 -0.2059 -0.9786
vn 0.0000 0.2059 -0.9786
vn 0.1274 -0.0000 -0.9918
vn -0.1302 0.2075 -0.9695
vn -0.1302 -0.2075 -0.9695
vn 0.1302 -0.2075 -0.9695
vn 0.1302 0.2075 -0.9695
vn -0.2528 -0.0000 -0.9675
vn -0.5774 -0.5773 0.5774
vn -0.4901 0.7517 0.4413
vn -0.5774 -0.5773 -0.5774
vn -0.4901 0.7517 -0.4413
vn 0.5774 -0.5773 0.5774
vn 0.4901 0.7517 0.4413
vn 0.5774 -0.5773 -0.5774
vn 0.4901 0.7517 -0.4413
vn -0.1730 0.7813 0.5997
vn -0.1730 0.7813 -0.5997
vn 0.1730 0.7813 -0.5997
vn 0.1730 0.7813 0.5997
vn -0.5453 0.6687 0.5055
vn -0.5453 0.6687 -0.5055
vn 0.5453 0.6687 -0.5055
vn 0.5453 0.6687 0.5055
vn -0.7071 -0.7071 0.0000
vn -0.7071 0.0000 0.7071
vn -0.7364 0.6766 -0.0000
vn -0.7071 0.0000 -0.7071
vn 0.0000 -0.7071 -0.7071
vn 0.0000 0.6195 -0.7850
vn 0.7071 -0.0000 -0.7071
vn 0.7071 -0.7071 0.0000
vn 0.7364 0.6766 -0.0000
vn 0.7071 0.0000 0.7071
vn 0.0000 -0.7071 0.7071
vn 0.0000 0.6195 0.7850
vn 0.0000 0.7217 -0.6922
vn 0.0000 0.7217 0.6922
vn -0.0426 0.9922 0.1171
vn -0.0426 0.9922 -0.1171
vn 0.0426 0.9922 -0.1171
vn 0.0426 0.9922 0.1171
vn -0.7071 0.7071 -0.0000
vn 0.0000 0.7977 -0.6030
vn 0.7071 0.7071 -0.0000
vn 0.0000 0.7977 0.6030
vn 0.7071 0.1929 0.6803
vn -0.7071 0.1929 0.6803
vn -0.7071 0.1929 -0.6803
vn 0.7071 0.1929 -0.6803
usemtl Grey_2
s 1
f 38/1/1 41/2/1 7/3/1 5/4/1
f 23/5/2 27/6/2 39/7/2 37/8/2
f 4/9/3 3/10/3 19/11/3 18/12/3
f 1/13/4 3/14/4 12/15/4 9/16/4
f 2/17/3 4/9/3 18/12/3 15/18/3
f 7/19/5 8/20/5 17/21/5 20/22/5
f 5/23/6 6/24/6 34/25/6 38/26/6
f 41/27/7 43/28/7 8/20/7 7/19/7
f 3/10/3 1/29/3 14/30/3 19/11/3
f 22/31/8 26/32/8 32/33/8 28/34/8
f 30/35/9 25/36/9 35/37/9 42/38/9
f 29/39/10 31/40/10 44/41/10 40/42/10
f 43/43/11 34/44/11 6/45/11 8/46/11
f 5/4/12 7/3/12 20/47/12 13/48/12
f 1/29/3 2/17/3 15/18/3 14/30/3
f 8/46/13 6/45/13 16/49/13 17/50/13
f 2/51/14 1/52/14 9/53/14 10/54/14
f 4/55/15 2/56/15 10/57/15 11/58/15
f 3/59/16 4/60/16 11/61/16 12/62/16
f 61/63/3 87/64/3 73/65/3 46/66/3
f 69/67/17 56/68/17 94/69/17 95/70/17
f 62/71/14 70/72/14 97/73/14 98/74/14
f 55/75/16 48/76/16 89/77/16 92/78/16
f 47/79/16 76/80/16 80/81/16 53/82/16
f 64/83/18 50/84/18 74/85/18 86/86/18
f 51/87/19 63/88/19 100/89/19 90/90/19
f 68/91/14 83/92/14 88/93/14 60/94/14
f 96/95/4 93/96/4 91/97/4 99/98/4
f 54/99/8 79/100/8 84/101/8 67/102/8
f 57/103/20 72/104/20 81/105/20 78/106/20
f 71/107/21 65/108/21 85/109/21 82/110/21
f 49/111/22 58/112/22 77/113/22 75/114/22
f 14/30/23 15/18/23 16/115/23 13/116/23
f 18/12/24 19/11/24 20/117/24 17/118/24
f 13/116/25 20/117/25 19/11/25 14/30/25
f 17/118/26 16/115/26 15/18/26 18/12/26
f 13/119/27 16/120/27 6/24/27 5/23/27
f 21/121/28 22/31/28 23/5/28
f 24/122/29 25/36/29 26/32/29
f 27/6/30 28/34/30 29/39/30
f 30/35/31 31/40/31 32/33/31
f 33/123/32 34/124/32 35/37/32
f 36/125/33 37/8/33 38/126/33
f 39/7/34 40/42/34 41/127/34
f 42/38/35 43/128/35 44/41/35
f 33/123/36 36/125/36 38/126/36 34/124/36
f 41/2/37 38/1/37 37/129/37 39/130/37
f 34/44/38 43/43/38 42/131/38 35/132/38
f 43/128/39 41/127/39 40/42/39 44/41/39
f 26/32/40 22/31/40 21/121/40 24/122/40
f 27/6/41 23/5/41 22/31/41 28/34/41
f 25/36/42 30/35/42 32/33/42 26/32/42
f 31/40/43 29/39/43 28/34/43 32/33/43
f 35/37/44 25/36/44 24/122/44 33/123/44
f 23/5/45 37/8/45 36/125/45 21/121/45
f 29/39/46 40/42/46 39/7/46 27/6/46
f 44/41/47 31/40/47 30/35/47 42/38/47
f 24/122/48 21/121/48 36/125/48 33/123/48
f 45/133/49 46/134/49 47/79/49
f 48/135/50 49/111/50 50/84/50 51/136/50
f 52/137/51 53/82/51 54/138/51
f 55/139/52 56/140/52 57/103/52 58/112/52
f 59/141/53 60/94/53 61/142/53
f 62/143/54 63/144/54 64/83/54 65/108/54
f 66/145/55 67/146/55 68/91/55
f 69/147/56 70/148/56 71/107/56 72/104/56
f 73/149/57 74/85/57 75/114/57 76/150/57
f 77/113/58 78/106/58 79/151/58 80/152/58
f 81/105/59 82/110/59 83/153/59 84/154/59
f 85/109/60 86/86/60 87/155/60 88/156/60
f 89/157/61 90/158/61 91/97/61
f 92/159/62 93/96/62 94/160/62
f 95/161/63 96/95/63 97/162/63
f 98/163/64 99/98/64 100/164/64
f 52/137/65 45/133/65 47/79/65 53/82/65
f 46/134/66 73/165/66 76/80/66 47/79/66
f 75/166/67 77/167/67 80/81/67 76/80/67
f 79/168/68 54/138/68 53/82/68 80/81/68
f 66/169/69 52/170/69 54/171/69 67/172/69
f 78/173/70 81/174/70 84/101/70 79/100/70
f 83/92/71 68/91/71 67/146/71 84/175/71
f 59/141/72 66/145/72 68/91/72 60/94/72
f 82/176/73 85/177/73 88/93/73 83/92/73
f 87/178/74 61/142/74 60/94/74 88/93/74
f 45/179/75 59/180/75 61/181/75 46/182/75
f 86/183/76 74/184/76 73/65/76 87/64/76
f 48/76/67 55/75/67 58/185/67 49/186/67
f 56/140/77 69/147/77 72/104/77 57/103/77
f 70/72/73 62/71/73 65/187/73 71/188/73
f 63/144/78 51/136/78 50/84/78 64/83/78
f 74/85/79 50/84/79 49/111/79 75/114/79
f 57/103/80 78/106/80 77/113/80 58/112/80
f 71/107/81 82/110/81 81/105/81 72/104/81
f 64/83/82 86/86/82 85/109/82 65/108/82
f 91/189/83 93/190/83 92/78/83 89/77/83
f 93/96/84 96/95/84 95/161/84 94/160/84
f 96/191/85 99/192/85 98/74/85 97/73/85
f 99/98/86 91/97/86 90/158/86 100/164/86
f 62/71/87 98/74/87 100/193/87 63/194/87
f 89/77/88 48/76/88 51/195/88 90/196/88
f 55/75/89 92/78/89 94/197/89 56/198/89
f 97/73/90 70/72/90 69/199/90 95/200/90
f 52/170/15 66/169/15 59/180/15 45/179/15
usemtl Blue_2
f 12/201/3 11/202/3 10/203/3 9/204/3
